<?xml version="1.0" encoding="UTF-8" standalone="no"?>
<!DOCTYPE svg PUBLIC "-//W3C//DTD SVG 1.1//EN"
 "http://www.w3.org/Graphics/SVG/1.1/DTD/svg11.dtd">
<!-- Generated by graphviz version 2.43.0 (0)
 -->
<!-- Title: src/graphics/shader/alpha_blend_shader.h Pages: 1 -->
<!--zoomable 218 -->
<svg id="main" version="1.1" xmlns="http://www.w3.org/2000/svg" xmlns:xlink="http://www.w3.org/1999/xlink" xml:space="preserve" onload="init(evt)">
<style type="text/css"><![CDATA[
.edge:hover path { stroke: red; }
.edge:hover polygon { stroke: red; fill: red; }
]]></style>
<script type="text/javascript"><![CDATA[
var edges = document.getElementsByTagName('g');
if (edges && edges.length) {
  for (var i=0;i<edges.length;i++) {
    if (edges[i].id.substr(0,4)=='edge') {
      edges[i].setAttribute('class','edge');
    }
  }
}
]]></script>
        <defs>
                <circle id="rim" cx="0" cy="0" r="7"/>
                <circle id="rim2" cx="0" cy="0" r="3.5"/>
                <g id="zoomPlus">
                        <use xlink:href="#rim" fill="#404040">
                                <set attributeName="fill" to="#808080" begin="zoomplus.mouseover" end="zoomplus.mouseout"/>
                        </use>
                        <path d="M-4,0h8M0,-4v8" fill="none" stroke="white" stroke-width="1.5" pointer-events="none"/>
                </g>
                <g id="zoomMin">
                        <use xlink:href="#rim" fill="#404040">
                                <set attributeName="fill" to="#808080" begin="zoomminus.mouseover" end="zoomminus.mouseout"/>
                        </use>
                        <path d="M-4,0h8" fill="none" stroke="white" stroke-width="1.5" pointer-events="none"/>
                </g>
                <g id="dirArrow">
                        <path fill="none" stroke="white" stroke-width="1.5" d="M0,-3.0v7 M-2.5,-0.5L0,-3.0L2.5,-0.5"/>
                </g>
               <g id="resetDef">
                       <use xlink:href="#rim2" fill="#404040">
                               <set attributeName="fill" to="#808080" begin="reset.mouseover" end="reset.mouseout"/>
                       </use>
               </g>
        </defs>

<script type="text/javascript">
var viewWidth = 780;
var viewHeight = 218;
var sectionId = 'dynsection-0';
</script>
<script xlink:href="svgpan.js"/>
<svg id="graph" class="graph">
<g id="viewport">
<title>src/graphics/shader/alpha_blend_shader.h</title>
<polygon fill="white" stroke="transparent" points="-4,4 -4,-214 776,-214 776,4 -4,4"/>
<!-- Node1 -->
<g id="node1" class="node">
<title>Node1</title>
<g id="a_node1"><a xlink:title=" ">
<polygon fill="#bfbfbf" stroke="black" points="549.5,-179.5 549.5,-209.5 674.5,-209.5 674.5,-179.5 549.5,-179.5"/>
<text text-anchor="start" x="557.5" y="-197.5" font-family="Helvetica,sans-Serif" font-size="10.00">src/graphics/shader</text>
<text text-anchor="middle" x="612" y="-186.5" font-family="Helvetica,sans-Serif" font-size="10.00">/alpha_blend_shader.h</text>
</a>
</g>
</g>
<!-- Node2 -->
<g id="node2" class="node">
<title>Node2</title>
<g id="a_node2"><a xlink:href="shader__program_8h.html" target="_top" xlink:title=" ">
<polygon fill="white" stroke="black" points="193,-112.5 193,-142.5 323,-142.5 323,-112.5 193,-112.5"/>
<text text-anchor="start" x="201" y="-130.5" font-family="Helvetica,sans-Serif" font-size="10.00">graphics/shader/shader</text>
<text text-anchor="middle" x="258" y="-119.5" font-family="Helvetica,sans-Serif" font-size="10.00">_program.h</text>
</a>
</g>
</g>
<!-- Node1&#45;&gt;Node2 -->
<g id="edge1" class="edge">
<title>Node1&#45;&gt;Node2</title>
<path fill="none" stroke="midnightblue" d="M549.12,-181.95C488.77,-170.87 397.56,-154.13 333.35,-142.34"/>
<polygon fill="midnightblue" stroke="midnightblue" points="333.76,-138.85 323.29,-140.49 332.49,-145.74 333.76,-138.85"/>
</g>
<!-- Node10 -->
<g id="node10" class="node">
<title>Node10</title>
<g id="a_node10"><a xlink:href="lighting_8h.html" target="_top" xlink:title=" ">
<polygon fill="white" stroke="black" points="586,-56.5 586,-75.5 732,-75.5 732,-56.5 586,-56.5"/>
<text text-anchor="middle" x="659" y="-63.5" font-family="Helvetica,sans-Serif" font-size="10.00">graphics/lighting/lighting.h</text>
</a>
</g>
</g>
<!-- Node1&#45;&gt;Node10 -->
<g id="edge9" class="edge">
<title>Node1&#45;&gt;Node10</title>
<path fill="none" stroke="midnightblue" d="M613.88,-179.22C616.39,-162.6 621.66,-134.55 631,-112 635.09,-102.12 641.24,-91.93 646.74,-83.75"/>
<polygon fill="midnightblue" stroke="midnightblue" points="649.65,-85.7 652.52,-75.5 643.92,-81.68 649.65,-85.7"/>
</g>
<!-- Node12 -->
<g id="node12" class="node">
<title>Node12</title>
<g id="a_node12"><a xlink:href="texture__unit_8h.html" target="_top" xlink:title=" ">
<polygon fill="white" stroke="black" points="640,-112.5 640,-142.5 772,-142.5 772,-112.5 640,-112.5"/>
<text text-anchor="start" x="648" y="-130.5" font-family="Helvetica,sans-Serif" font-size="10.00">graphics/shader/texture</text>
<text text-anchor="middle" x="706" y="-119.5" font-family="Helvetica,sans-Serif" font-size="10.00">_unit.h</text>
</a>
</g>
</g>
<!-- Node1&#45;&gt;Node12 -->
<g id="edge12" class="edge">
<title>Node1&#45;&gt;Node12</title>
<path fill="none" stroke="midnightblue" d="M632.4,-179.4C645.45,-170.37 662.6,-158.51 677.05,-148.52"/>
<polygon fill="midnightblue" stroke="midnightblue" points="679.41,-151.14 685.64,-142.58 675.43,-145.39 679.41,-151.14"/>
</g>
<!-- Node3 -->
<g id="node3" class="node">
<title>Node3</title>
<g id="a_node3"><a xlink:title=" ">
<polygon fill="white" stroke="#bfbfbf" points="0,-56.5 0,-75.5 44,-75.5 44,-56.5 0,-56.5"/>
<text text-anchor="middle" x="22" y="-63.5" font-family="Helvetica,sans-Serif" font-size="10.00">string</text>
</a>
</g>
</g>
<!-- Node2&#45;&gt;Node3 -->
<g id="edge2" class="edge">
<title>Node2&#45;&gt;Node3</title>
<path fill="none" stroke="midnightblue" d="M198.18,-112.45C159.53,-103.21 107.92,-90.58 54.05,-76.21"/>
<polygon fill="midnightblue" stroke="midnightblue" points="54.89,-72.81 44.32,-73.6 53.07,-79.57 54.89,-72.81"/>
</g>
<!-- Node4 -->
<g id="node4" class="node">
<title>Node4</title>
<g id="a_node4"><a xlink:title=" ">
<polygon fill="white" stroke="#bfbfbf" points="62.5,-56.5 62.5,-75.5 109.5,-75.5 109.5,-56.5 62.5,-56.5"/>
<text text-anchor="middle" x="86" y="-63.5" font-family="Helvetica,sans-Serif" font-size="10.00">vector</text>
</a>
</g>
</g>
<!-- Node2&#45;&gt;Node4 -->
<g id="edge3" class="edge">
<title>Node2&#45;&gt;Node4</title>
<path fill="none" stroke="midnightblue" d="M217.24,-112.4C187.33,-102.05 147.23,-88.18 119.25,-78.5"/>
<polygon fill="midnightblue" stroke="midnightblue" points="120.13,-75.1 109.54,-75.14 117.84,-81.72 120.13,-75.1"/>
</g>
<!-- Node5 -->
<g id="node5" class="node">
<title>Node5</title>
<g id="a_node5"><a xlink:title=" ">
<polygon fill="white" stroke="#bfbfbf" points="128,-56.5 128,-75.5 192,-75.5 192,-56.5 128,-56.5"/>
<text text-anchor="middle" x="160" y="-63.5" font-family="Helvetica,sans-Serif" font-size="10.00">GL/glew.h</text>
</a>
</g>
</g>
<!-- Node2&#45;&gt;Node5 -->
<g id="edge4" class="edge">
<title>Node2&#45;&gt;Node5</title>
<path fill="none" stroke="midnightblue" d="M234.78,-112.4C219.21,-102.95 198.8,-90.56 183.24,-81.11"/>
<polygon fill="midnightblue" stroke="midnightblue" points="184.62,-77.86 174.26,-75.66 180.99,-83.84 184.62,-77.86"/>
</g>
<!-- Node6 -->
<g id="node6" class="node">
<title>Node6</title>
<g id="a_node6"><a xlink:title=" ">
<polygon fill="white" stroke="#bfbfbf" points="401.5,-0.5 401.5,-19.5 490.5,-19.5 490.5,-0.5 401.5,-0.5"/>
<text text-anchor="middle" x="446" y="-7.5" font-family="Helvetica,sans-Serif" font-size="10.00">maths/colour.h</text>
</a>
</g>
</g>
<!-- Node2&#45;&gt;Node6 -->
<g id="edge5" class="edge">
<title>Node2&#45;&gt;Node6</title>
<path fill="none" stroke="midnightblue" d="M247.53,-112.28C237.56,-96.86 225.87,-72.29 239,-56 257.75,-32.73 336.13,-20.87 390.86,-15.31"/>
<polygon fill="midnightblue" stroke="midnightblue" points="391.51,-18.76 401.13,-14.31 390.84,-11.8 391.51,-18.76"/>
</g>
<!-- Node7 -->
<g id="node7" class="node">
<title>Node7</title>
<g id="a_node7"><a xlink:title=" ">
<polygon fill="white" stroke="#bfbfbf" points="248,-56.5 248,-75.5 344,-75.5 344,-56.5 248,-56.5"/>
<text text-anchor="middle" x="296" y="-63.5" font-family="Helvetica,sans-Serif" font-size="10.00">maths/vector2.h</text>
</a>
</g>
</g>
<!-- Node2&#45;&gt;Node7 -->
<g id="edge6" class="edge">
<title>Node2&#45;&gt;Node7</title>
<path fill="none" stroke="midnightblue" d="M267.01,-112.4C272.41,-103.93 279.33,-93.1 285.05,-84.14"/>
<polygon fill="midnightblue" stroke="midnightblue" points="288.04,-85.97 290.47,-75.66 282.14,-82.2 288.04,-85.97"/>
</g>
<!-- Node8 -->
<g id="node8" class="node">
<title>Node8</title>
<g id="a_node8"><a xlink:title=" ">
<polygon fill="white" stroke="#bfbfbf" points="362,-56.5 362,-75.5 458,-75.5 458,-56.5 362,-56.5"/>
<text text-anchor="middle" x="410" y="-63.5" font-family="Helvetica,sans-Serif" font-size="10.00">maths/vector3.h</text>
</a>
</g>
</g>
<!-- Node2&#45;&gt;Node8 -->
<g id="edge7" class="edge">
<title>Node2&#45;&gt;Node8</title>
<path fill="none" stroke="midnightblue" d="M294.02,-112.4C319.64,-102.37 353.73,-89.03 378.31,-79.4"/>
<polygon fill="midnightblue" stroke="midnightblue" points="379.85,-82.56 387.88,-75.66 377.29,-76.04 379.85,-82.56"/>
</g>
<!-- Node9 -->
<g id="node9" class="node">
<title>Node9</title>
<g id="a_node9"><a xlink:title=" ">
<polygon fill="white" stroke="#bfbfbf" points="476,-56.5 476,-75.5 568,-75.5 568,-56.5 476,-56.5"/>
<text text-anchor="middle" x="522" y="-63.5" font-family="Helvetica,sans-Serif" font-size="10.00">maths/matrix.h</text>
</a>
</g>
</g>
<!-- Node2&#45;&gt;Node9 -->
<g id="edge8" class="edge">
<title>Node2&#45;&gt;Node9</title>
<path fill="none" stroke="midnightblue" d="M320.23,-112.47C367.37,-101.85 431.16,-87.47 474.3,-77.75"/>
<polygon fill="midnightblue" stroke="midnightblue" points="475.27,-81.12 484.26,-75.51 473.73,-74.29 475.27,-81.12"/>
</g>
<!-- Node10&#45;&gt;Node6 -->
<g id="edge11" class="edge">
<title>Node10&#45;&gt;Node6</title>
<path fill="none" stroke="midnightblue" d="M625.25,-56.44C588.48,-47.12 529.55,-32.18 489.38,-22"/>
<polygon fill="midnightblue" stroke="midnightblue" points="490.15,-18.58 479.59,-19.52 488.43,-25.37 490.15,-18.58"/>
</g>
<!-- Node11 -->
<g id="node11" class="node">
<title>Node11</title>
<g id="a_node11"><a xlink:title=" ">
<polygon fill="white" stroke="#bfbfbf" points="684,-0.5 684,-19.5 734,-19.5 734,-0.5 684,-0.5"/>
<text text-anchor="middle" x="709" y="-7.5" font-family="Helvetica,sans-Serif" font-size="10.00">cstdint</text>
</a>
</g>
</g>
<!-- Node10&#45;&gt;Node11 -->
<g id="edge10" class="edge">
<title>Node10&#45;&gt;Node11</title>
<path fill="none" stroke="midnightblue" d="M667.26,-56.08C674.46,-48.3 685.11,-36.8 693.85,-27.37"/>
<polygon fill="midnightblue" stroke="midnightblue" points="696.67,-29.47 700.9,-19.75 691.53,-24.71 696.67,-29.47"/>
</g>
<!-- Node12&#45;&gt;Node10 -->
<g id="edge14" class="edge">
<title>Node12&#45;&gt;Node10</title>
<path fill="none" stroke="midnightblue" d="M694.86,-112.4C688.03,-103.75 679.26,-92.64 672.09,-83.58"/>
<polygon fill="midnightblue" stroke="midnightblue" points="674.78,-81.34 665.84,-75.66 669.29,-85.67 674.78,-81.34"/>
</g>
<!-- Node12&#45;&gt;Node11 -->
<g id="edge13" class="edge">
<title>Node12&#45;&gt;Node11</title>
<path fill="none" stroke="midnightblue" d="M719.36,-112.32C727.34,-102.84 736.73,-89.64 741,-76 746.42,-58.67 735.55,-40.21 725.04,-27.41"/>
<polygon fill="midnightblue" stroke="midnightblue" points="727.61,-25.04 718.36,-19.89 722.38,-29.69 727.61,-25.04"/>
</g>
</g>
</svg>
        <g id="navigator" transform="translate(0 0)" fill="#404254">
                <rect fill="#f2f5e9" fill-opacity="0.5" stroke="#606060" stroke-width=".5" x="0" y="0" width="60" height="60"/>
                <use id="zoomplus" xlink:href="#zoomPlus" x="17" y="9" onmousedown="handleZoom(evt,'in')"/>
                <use id="zoomminus" xlink:href="#zoomMin" x="42" y="9" onmousedown="handleZoom(evt,'out')"/>
                <use id="reset" xlink:href="#resetDef" x="30" y="36" onmousedown="handleReset()"/>
                <g id="arrowUp" xlink:href="#dirArrow" transform="translate(30 24)" onmousedown="handlePan(0,-1)">
                  <use xlink:href="#rim" fill="#404040">
                        <set attributeName="fill" to="#808080" begin="arrowUp.mouseover" end="arrowUp.mouseout"/>
                  </use>
                  <path fill="none" stroke="white" stroke-width="1.5" d="M0,-3.0v7 M-2.5,-0.5L0,-3.0L2.5,-0.5"/>
                </g>
                <g id="arrowRight" xlink:href="#dirArrow" transform="rotate(90) translate(36 -43)" onmousedown="handlePan(1,0)">
                  <use xlink:href="#rim" fill="#404040">
                        <set attributeName="fill" to="#808080" begin="arrowRight.mouseover" end="arrowRight.mouseout"/>
                  </use>
                  <path fill="none" stroke="white" stroke-width="1.5" d="M0,-3.0v7 M-2.5,-0.5L0,-3.0L2.5,-0.5"/>
                </g>
                <g id="arrowDown" xlink:href="#dirArrow" transform="rotate(180) translate(-30 -48)" onmousedown="handlePan(0,1)">
                  <use xlink:href="#rim" fill="#404040">
                        <set attributeName="fill" to="#808080" begin="arrowDown.mouseover" end="arrowDown.mouseout"/>
                  </use>
                  <path fill="none" stroke="white" stroke-width="1.5" d="M0,-3.0v7 M-2.5,-0.5L0,-3.0L2.5,-0.5"/>
                </g>
                <g id="arrowLeft" xlink:href="#dirArrow" transform="rotate(270) translate(-36 17)" onmousedown="handlePan(-1,0)">
                  <use xlink:href="#rim" fill="#404040">
                        <set attributeName="fill" to="#808080" begin="arrowLeft.mouseover" end="arrowLeft.mouseout"/>
                  </use>
                  <path fill="none" stroke="white" stroke-width="1.5" d="M0,-3.0v7 M-2.5,-0.5L0,-3.0L2.5,-0.5"/>
                </g>
        </g>
        <svg viewBox="0 0 15 15" width="100%" height="30px" preserveAspectRatio="xMaxYMin meet">
         <g id="arrow_out" transform="scale(0.3 0.3)">
          <a xlink:href="alpha__blend__shader_8h__incl_org.svg" target="_base">
           <rect id="button" ry="5" rx="5" y="6" x="6" height="38" width="38"
                fill="#f2f5e9" fill-opacity="0.5" stroke="#606060" stroke-width="1.0"/>
           <path id="arrow"
             d="M 11.500037,31.436501 C 11.940474,20.09759 22.043105,11.32322 32.158766,21.979434 L 37.068811,17.246167 C 37.068811,17.246167 37.088388,32 37.088388,32 L 22.160133,31.978069 C 22.160133,31.978069 26.997745,27.140456 26.997745,27.140456 C 18.528582,18.264221 13.291696,25.230495 11.500037,31.436501 z"
             style="fill:#404040;"/>
          </a>
         </g>
        </svg>
</svg>
