<?xml version="1.0" encoding="UTF-8" standalone="no"?>
<!DOCTYPE svg PUBLIC "-//W3C//DTD SVG 1.1//EN"
 "http://www.w3.org/Graphics/SVG/1.1/DTD/svg11.dtd">
<!-- Generated by graphviz version 2.43.0 (0)
 -->
<!-- Title: src/application/application.h Pages: 1 -->
<svg width="601pt" height="229pt"
 viewBox="0.00 0.00 601.00 229.00" xmlns="http://www.w3.org/2000/svg" xmlns:xlink="http://www.w3.org/1999/xlink">
<g id="graph0" class="graph" transform="scale(1 1) rotate(0) translate(4 225)">
<title>src/application/application.h</title>
<polygon fill="white" stroke="transparent" points="-4,4 -4,-225 597,-225 597,4 -4,4"/>
<!-- Node1 -->
<g id="node1" class="node">
<title>Node1</title>
<g id="a_node1"><a xlink:title=" ">
<polygon fill="#bfbfbf" stroke="black" points="208.5,-201.5 208.5,-220.5 362.5,-220.5 362.5,-201.5 208.5,-201.5"/>
<text text-anchor="middle" x="285.5" y="-208.5" font-family="Helvetica,sans-Serif" font-size="10.00">src/application/application.h</text>
</a>
</g>
</g>
<!-- Node2 -->
<g id="node2" class="node">
<title>Node2</title>
<g id="a_node2"><a xlink:href="application_8cpp.html" target="_top" xlink:title=" ">
<polygon fill="white" stroke="black" points="0,-140 0,-159 165,-159 165,-140 0,-140"/>
<text text-anchor="middle" x="82.5" y="-147" font-family="Helvetica,sans-Serif" font-size="10.00">src/application/application.cpp</text>
</a>
</g>
</g>
<!-- Node1&#45;&gt;Node2 -->
<g id="edge1" class="edge">
<title>Node1&#45;&gt;Node2</title>
<path fill="none" stroke="midnightblue" d="M246.61,-198.6C207.16,-187.04 147.01,-169.41 111.53,-159.01"/>
<polygon fill="midnightblue" stroke="midnightblue" points="245.83,-202.02 256.42,-201.48 247.8,-195.3 245.83,-202.02"/>
</g>
<!-- Node3 -->
<g id="node3" class="node">
<title>Node3</title>
<g id="a_node3"><a xlink:href="game__scene_8cpp.html" target="_top" xlink:title=" ">
<polygon fill="white" stroke="black" points="131.5,-0.5 131.5,-30.5 255.5,-30.5 255.5,-0.5 131.5,-0.5"/>
<text text-anchor="start" x="139.5" y="-18.5" font-family="Helvetica,sans-Serif" font-size="10.00">src/game/scene/game</text>
<text text-anchor="middle" x="193.5" y="-7.5" font-family="Helvetica,sans-Serif" font-size="10.00">_scene.cpp</text>
</a>
</g>
</g>
<!-- Node1&#45;&gt;Node3 -->
<g id="edge2" class="edge">
<title>Node1&#45;&gt;Node3</title>
<path fill="none" stroke="midnightblue" d="M251.84,-197.15C237.41,-189.9 221.77,-179.37 212.5,-165 185.03,-122.41 188.38,-58.54 191.54,-30.52"/>
<polygon fill="midnightblue" stroke="midnightblue" points="250.53,-200.4 261.08,-201.44 253.49,-194.05 250.53,-200.4"/>
</g>
<!-- Node4 -->
<g id="node4" class="node">
<title>Node4</title>
<g id="a_node4"><a xlink:href="body__control__system_8h.html" target="_top" xlink:title=" ">
<polygon fill="white" stroke="black" points="221.5,-134.5 221.5,-164.5 349.5,-164.5 349.5,-134.5 221.5,-134.5"/>
<text text-anchor="start" x="229.5" y="-152.5" font-family="Helvetica,sans-Serif" font-size="10.00">src/game/system/body</text>
<text text-anchor="middle" x="285.5" y="-141.5" font-family="Helvetica,sans-Serif" font-size="10.00">_control_system.h</text>
</a>
</g>
</g>
<!-- Node1&#45;&gt;Node4 -->
<g id="edge3" class="edge">
<title>Node1&#45;&gt;Node4</title>
<path fill="none" stroke="midnightblue" d="M285.5,-191.23C285.5,-182.59 285.5,-172.5 285.5,-164.52"/>
<polygon fill="midnightblue" stroke="midnightblue" points="282,-191.48 285.5,-201.48 289,-191.48 282,-191.48"/>
</g>
<!-- Node7 -->
<g id="node7" class="node">
<title>Node7</title>
<g id="a_node7"><a xlink:href="head__control__system_8h.html" target="_top" xlink:title=" ">
<polygon fill="white" stroke="black" points="367.5,-134.5 367.5,-164.5 495.5,-164.5 495.5,-134.5 367.5,-134.5"/>
<text text-anchor="start" x="375.5" y="-152.5" font-family="Helvetica,sans-Serif" font-size="10.00">src/game/system/head</text>
<text text-anchor="middle" x="431.5" y="-141.5" font-family="Helvetica,sans-Serif" font-size="10.00">_control_system.h</text>
</a>
</g>
</g>
<!-- Node1&#45;&gt;Node7 -->
<g id="edge7" class="edge">
<title>Node1&#45;&gt;Node7</title>
<path fill="none" stroke="midnightblue" d="M315.95,-197.59C339.62,-187.94 372.47,-174.56 397.09,-164.52"/>
<polygon fill="midnightblue" stroke="midnightblue" points="314.36,-194.46 306.42,-201.48 317,-200.94 314.36,-194.46"/>
</g>
<!-- Node8 -->
<g id="node8" class="node">
<title>Node8</title>
<g id="a_node8"><a xlink:href="main_8cpp.html" target="_top" xlink:title=" ">
<polygon fill="white" stroke="black" points="514,-140 514,-159 593,-159 593,-140 514,-140"/>
<text text-anchor="middle" x="553.5" y="-147" font-family="Helvetica,sans-Serif" font-size="10.00">src/main.cpp</text>
</a>
</g>
</g>
<!-- Node1&#45;&gt;Node8 -->
<g id="edge9" class="edge">
<title>Node1&#45;&gt;Node8</title>
<path fill="none" stroke="midnightblue" d="M342.77,-199.61C387.13,-191.24 450,-178.64 504.5,-165 511.56,-163.23 519.12,-161.11 526.14,-159.04"/>
<polygon fill="midnightblue" stroke="midnightblue" points="341.94,-196.21 332.75,-201.49 343.23,-203.09 341.94,-196.21"/>
</g>
<!-- Node5 -->
<g id="node5" class="node">
<title>Node5</title>
<g id="a_node5"><a xlink:href="game__scene_8h.html" target="_top" xlink:title=" ">
<polygon fill="white" stroke="black" points="257.5,-67.5 257.5,-97.5 381.5,-97.5 381.5,-67.5 257.5,-67.5"/>
<text text-anchor="start" x="265.5" y="-85.5" font-family="Helvetica,sans-Serif" font-size="10.00">src/game/scene/game</text>
<text text-anchor="middle" x="319.5" y="-74.5" font-family="Helvetica,sans-Serif" font-size="10.00">_scene.h</text>
</a>
</g>
</g>
<!-- Node4&#45;&gt;Node5 -->
<g id="edge4" class="edge">
<title>Node4&#45;&gt;Node5</title>
<path fill="none" stroke="midnightblue" d="M297.64,-125.28C302.49,-116.02 307.91,-105.66 312.14,-97.58"/>
<polygon fill="midnightblue" stroke="midnightblue" points="294.41,-123.91 292.88,-134.4 300.61,-127.16 294.41,-123.91"/>
</g>
<!-- Node5&#45;&gt;Node3 -->
<g id="edge5" class="edge">
<title>Node5&#45;&gt;Node3</title>
<path fill="none" stroke="midnightblue" d="M283.08,-62.71C263.21,-52.46 239.02,-39.98 220.79,-30.58"/>
<polygon fill="midnightblue" stroke="midnightblue" points="281.67,-65.92 292.16,-67.4 284.88,-59.7 281.67,-65.92"/>
</g>
<!-- Node6 -->
<g id="node6" class="node">
<title>Node6</title>
<g id="a_node6"><a xlink:href="scene__manager_8cpp.html" target="_top" xlink:title=" ">
<polygon fill="white" stroke="black" points="273.5,-6 273.5,-25 435.5,-25 435.5,-6 273.5,-6"/>
<text text-anchor="middle" x="354.5" y="-13" font-family="Helvetica,sans-Serif" font-size="10.00">src/scene/scene_manager.cpp</text>
</a>
</g>
</g>
<!-- Node5&#45;&gt;Node6 -->
<g id="edge6" class="edge">
<title>Node5&#45;&gt;Node6</title>
<path fill="none" stroke="midnightblue" d="M332,-58.29C338.18,-46.8 345.28,-33.63 349.82,-25.19"/>
<polygon fill="midnightblue" stroke="midnightblue" points="328.75,-56.93 327.09,-67.4 334.92,-60.25 328.75,-56.93"/>
</g>
<!-- Node7&#45;&gt;Node5 -->
<g id="edge8" class="edge">
<title>Node7&#45;&gt;Node5</title>
<path fill="none" stroke="midnightblue" d="M398.41,-129.3C380.88,-119.12 359.74,-106.85 343.75,-97.58"/>
<polygon fill="midnightblue" stroke="midnightblue" points="396.79,-132.4 407.2,-134.4 400.31,-126.35 396.79,-132.4"/>
</g>
</g>
</svg>
