<?xml version="1.0" encoding="UTF-8" standalone="no"?>
<!DOCTYPE svg PUBLIC "-//W3C//DTD SVG 1.1//EN"
 "http://www.w3.org/Graphics/SVG/1.1/DTD/svg11.dtd">
<!-- Generated by graphviz version 2.43.0 (0)
 -->
<!-- Title: src/application/application.h Pages: 1 -->
<svg width="734pt" height="229pt"
 viewBox="0.00 0.00 733.50 229.00" xmlns="http://www.w3.org/2000/svg" xmlns:xlink="http://www.w3.org/1999/xlink">
<g id="graph0" class="graph" transform="scale(1 1) rotate(0) translate(4 225)">
<title>src/application/application.h</title>
<polygon fill="white" stroke="transparent" points="-4,4 -4,-225 729.5,-225 729.5,4 -4,4"/>
<!-- Node1 -->
<g id="node1" class="node">
<title>Node1</title>
<g id="a_node1"><a xlink:title=" ">
<polygon fill="#bfbfbf" stroke="black" points="281.5,-201.5 281.5,-220.5 435.5,-220.5 435.5,-201.5 281.5,-201.5"/>
<text text-anchor="middle" x="358.5" y="-208.5" font-family="Helvetica,sans-Serif" font-size="10.00">src/application/application.h</text>
</a>
</g>
</g>
<!-- Node2 -->
<g id="node2" class="node">
<title>Node2</title>
<g id="a_node2"><a xlink:href="application_8cpp.html" target="_top" xlink:title=" ">
<polygon fill="white" stroke="black" points="0,-140 0,-159 165,-159 165,-140 0,-140"/>
<text text-anchor="middle" x="82.5" y="-147" font-family="Helvetica,sans-Serif" font-size="10.00">src/application/application.cpp</text>
</a>
</g>
</g>
<!-- Node1&#45;&gt;Node2 -->
<g id="edge1" class="edge">
<title>Node1&#45;&gt;Node2</title>
<path fill="none" stroke="midnightblue" d="M309.01,-199.33C255.48,-187.79 171.23,-169.63 121.97,-159.01"/>
<polygon fill="midnightblue" stroke="midnightblue" points="308.44,-202.79 318.96,-201.48 309.92,-195.95 308.44,-202.79"/>
</g>
<!-- Node3 -->
<g id="node3" class="node">
<title>Node3</title>
<g id="a_node3"><a xlink:href="game__scene_8cpp.html" target="_top" xlink:title=" ">
<polygon fill="white" stroke="black" points="131.5,-0.5 131.5,-30.5 255.5,-30.5 255.5,-0.5 131.5,-0.5"/>
<text text-anchor="start" x="139.5" y="-18.5" font-family="Helvetica,sans-Serif" font-size="10.00">src/game/scene/game</text>
<text text-anchor="middle" x="193.5" y="-7.5" font-family="Helvetica,sans-Serif" font-size="10.00">_scene.cpp</text>
</a>
</g>
</g>
<!-- Node1&#45;&gt;Node3 -->
<g id="edge2" class="edge">
<title>Node1&#45;&gt;Node3</title>
<path fill="none" stroke="midnightblue" d="M271.47,-200.27C249.25,-193.64 227.45,-182.77 212.5,-165 179.7,-126.02 185.99,-59.68 190.74,-30.72"/>
<polygon fill="midnightblue" stroke="midnightblue" points="270.77,-203.7 281.33,-202.94 272.59,-196.95 270.77,-203.7"/>
</g>
<!-- Node4 -->
<g id="node4" class="node">
<title>Node4</title>
<g id="a_node4"><a xlink:href="body__control__system_8h.html" target="_top" xlink:title=" ">
<polygon fill="white" stroke="black" points="221.5,-134.5 221.5,-164.5 349.5,-164.5 349.5,-134.5 221.5,-134.5"/>
<text text-anchor="start" x="229.5" y="-152.5" font-family="Helvetica,sans-Serif" font-size="10.00">src/game/system/body</text>
<text text-anchor="middle" x="285.5" y="-141.5" font-family="Helvetica,sans-Serif" font-size="10.00">_control_system.h</text>
</a>
</g>
</g>
<!-- Node1&#45;&gt;Node4 -->
<g id="edge3" class="edge">
<title>Node1&#45;&gt;Node4</title>
<path fill="none" stroke="midnightblue" d="M340,-194.92C328.54,-185.58 313.92,-173.66 302.7,-164.52"/>
<polygon fill="midnightblue" stroke="midnightblue" points="338.08,-197.87 348.04,-201.48 342.5,-192.44 338.08,-197.87"/>
</g>
<!-- Node7 -->
<g id="node7" class="node">
<title>Node7</title>
<g id="a_node7"><a xlink:href="head__control__system_8h.html" target="_top" xlink:title=" ">
<polygon fill="white" stroke="black" points="367.5,-134.5 367.5,-164.5 495.5,-164.5 495.5,-134.5 367.5,-134.5"/>
<text text-anchor="start" x="375.5" y="-152.5" font-family="Helvetica,sans-Serif" font-size="10.00">src/game/system/head</text>
<text text-anchor="middle" x="431.5" y="-141.5" font-family="Helvetica,sans-Serif" font-size="10.00">_control_system.h</text>
</a>
</g>
</g>
<!-- Node1&#45;&gt;Node7 -->
<g id="edge7" class="edge">
<title>Node1&#45;&gt;Node7</title>
<path fill="none" stroke="midnightblue" d="M377,-194.92C388.46,-185.58 403.08,-173.66 414.3,-164.52"/>
<polygon fill="midnightblue" stroke="midnightblue" points="374.5,-192.44 368.96,-201.48 378.92,-197.87 374.5,-192.44"/>
</g>
<!-- Node8 -->
<g id="node8" class="node">
<title>Node8</title>
<g id="a_node8"><a xlink:href="main_8cpp.html" target="_top" xlink:title=" ">
<polygon fill="white" stroke="black" points="514,-140 514,-159 593,-159 593,-140 514,-140"/>
<text text-anchor="middle" x="553.5" y="-147" font-family="Helvetica,sans-Serif" font-size="10.00">src/main.cpp</text>
</a>
</g>
</g>
<!-- Node1&#45;&gt;Node8 -->
<g id="edge9" class="edge">
<title>Node1&#45;&gt;Node8</title>
<path fill="none" stroke="midnightblue" d="M396.1,-198.53C433.99,-186.96 491.61,-169.38 525.61,-159.01"/>
<polygon fill="midnightblue" stroke="midnightblue" points="394.98,-195.21 386.44,-201.48 397.02,-201.9 394.98,-195.21"/>
</g>
<!-- Node9 -->
<g id="node9" class="node">
<title>Node9</title>
<g id="a_node9"><a xlink:href="scene_8cpp.html" target="_top" xlink:title=" ">
<polygon fill="white" stroke="black" points="611.5,-140 611.5,-159 725.5,-159 725.5,-140 611.5,-140"/>
<text text-anchor="middle" x="668.5" y="-147" font-family="Helvetica,sans-Serif" font-size="10.00">src/scene/scene.cpp</text>
</a>
</g>
</g>
<!-- Node1&#45;&gt;Node9 -->
<g id="edge10" class="edge">
<title>Node1&#45;&gt;Node9</title>
<path fill="none" stroke="midnightblue" d="M417.56,-199.69C467.04,-190.91 539.5,-177.73 602.5,-165 611.7,-163.14 621.59,-161.03 630.85,-159"/>
<polygon fill="midnightblue" stroke="midnightblue" points="416.9,-196.25 407.67,-201.44 418.12,-203.14 416.9,-196.25"/>
</g>
<!-- Node5 -->
<g id="node5" class="node">
<title>Node5</title>
<g id="a_node5"><a xlink:href="game__scene_8h.html" target="_top" xlink:title=" ">
<polygon fill="white" stroke="black" points="257.5,-67.5 257.5,-97.5 381.5,-97.5 381.5,-67.5 257.5,-67.5"/>
<text text-anchor="start" x="265.5" y="-85.5" font-family="Helvetica,sans-Serif" font-size="10.00">src/game/scene/game</text>
<text text-anchor="middle" x="319.5" y="-74.5" font-family="Helvetica,sans-Serif" font-size="10.00">_scene.h</text>
</a>
</g>
</g>
<!-- Node4&#45;&gt;Node5 -->
<g id="edge4" class="edge">
<title>Node4&#45;&gt;Node5</title>
<path fill="none" stroke="midnightblue" d="M297.64,-125.28C302.49,-116.02 307.91,-105.66 312.14,-97.58"/>
<polygon fill="midnightblue" stroke="midnightblue" points="294.41,-123.91 292.88,-134.4 300.61,-127.16 294.41,-123.91"/>
</g>
<!-- Node5&#45;&gt;Node3 -->
<g id="edge5" class="edge">
<title>Node5&#45;&gt;Node3</title>
<path fill="none" stroke="midnightblue" d="M283.08,-62.71C263.21,-52.46 239.02,-39.98 220.79,-30.58"/>
<polygon fill="midnightblue" stroke="midnightblue" points="281.67,-65.92 292.16,-67.4 284.88,-59.7 281.67,-65.92"/>
</g>
<!-- Node6 -->
<g id="node6" class="node">
<title>Node6</title>
<g id="a_node6"><a xlink:href="scene__manager_8cpp.html" target="_top" xlink:title=" ">
<polygon fill="white" stroke="black" points="273.5,-6 273.5,-25 435.5,-25 435.5,-6 273.5,-6"/>
<text text-anchor="middle" x="354.5" y="-13" font-family="Helvetica,sans-Serif" font-size="10.00">src/scene/scene_manager.cpp</text>
</a>
</g>
</g>
<!-- Node5&#45;&gt;Node6 -->
<g id="edge6" class="edge">
<title>Node5&#45;&gt;Node6</title>
<path fill="none" stroke="midnightblue" d="M332,-58.29C338.18,-46.8 345.28,-33.63 349.82,-25.19"/>
<polygon fill="midnightblue" stroke="midnightblue" points="328.75,-56.93 327.09,-67.4 334.92,-60.25 328.75,-56.93"/>
</g>
<!-- Node7&#45;&gt;Node5 -->
<g id="edge8" class="edge">
<title>Node7&#45;&gt;Node5</title>
<path fill="none" stroke="midnightblue" d="M398.41,-129.3C380.88,-119.12 359.74,-106.85 343.75,-97.58"/>
<polygon fill="midnightblue" stroke="midnightblue" points="396.79,-132.4 407.2,-134.4 400.31,-126.35 396.79,-132.4"/>
</g>
</g>
</svg>
