<?xml version="1.0" encoding="UTF-8" standalone="no"?>
<!DOCTYPE svg PUBLIC "-//W3C//DTD SVG 1.1//EN"
 "http://www.w3.org/Graphics/SVG/1.1/DTD/svg11.dtd">
<!-- Generated by graphviz version 2.43.0 (0)
 -->
<!-- Title: src/graphics/asset_loader/asset_loader.h Pages: 1 -->
<svg width="1531pt" height="341pt"
 viewBox="0.00 0.00 1531.26 341.00" xmlns="http://www.w3.org/2000/svg" xmlns:xlink="http://www.w3.org/1999/xlink">
<g id="graph0" class="graph" transform="scale(1 1) rotate(0) translate(4 337)">
<title>src/graphics/asset_loader/asset_loader.h</title>
<polygon fill="white" stroke="transparent" points="-4,4 -4,-337 1527.26,-337 1527.26,4 -4,4"/>
<!-- Node1 -->
<g id="node1" class="node">
<title>Node1</title>
<g id="a_node1"><a xlink:title=" ">
<polygon fill="#bfbfbf" stroke="black" points="551,-302.5 551,-332.5 677,-332.5 677,-302.5 551,-302.5"/>
<text text-anchor="start" x="559" y="-320.5" font-family="Helvetica,sans-Serif" font-size="10.00">src/graphics/asset</text>
<text text-anchor="middle" x="614" y="-309.5" font-family="Helvetica,sans-Serif" font-size="10.00">_loader/asset_loader.h</text>
</a>
</g>
</g>
<!-- Node2 -->
<g id="node2" class="node">
<title>Node2</title>
<g id="a_node2"><a xlink:title=" ">
<polygon fill="white" stroke="#bfbfbf" points="362,-0.5 362,-19.5 420,-19.5 420,-0.5 362,-0.5"/>
<text text-anchor="middle" x="391" y="-7.5" font-family="Helvetica,sans-Serif" font-size="10.00">memory</text>
</a>
</g>
</g>
<!-- Node1&#45;&gt;Node2 -->
<g id="edge1" class="edge">
<title>Node1&#45;&gt;Node2</title>
<path fill="none" stroke="midnightblue" d="M550.89,-317.27C394.21,-317.48 0,-306.93 0,-195.5 0,-195.5 0,-195.5 0,-126.5 0,-85.64 23.23,-75.74 59,-56 108.61,-28.62 275.01,-16.85 351.7,-12.79"/>
<polygon fill="midnightblue" stroke="midnightblue" points="352.09,-16.27 361.9,-12.27 351.73,-9.28 352.09,-16.27"/>
</g>
<!-- Node3 -->
<g id="node3" class="node">
<title>Node3</title>
<g id="a_node3"><a xlink:title=" ">
<polygon fill="white" stroke="#bfbfbf" points="252.5,-246.5 252.5,-265.5 345.5,-265.5 345.5,-246.5 252.5,-246.5"/>
<text text-anchor="middle" x="299" y="-253.5" font-family="Helvetica,sans-Serif" font-size="10.00">unordered_map</text>
</a>
</g>
</g>
<!-- Node1&#45;&gt;Node3 -->
<g id="edge2" class="edge">
<title>Node1&#45;&gt;Node3</title>
<path fill="none" stroke="midnightblue" d="M550.63,-304.53C493.13,-293.67 409.18,-277.81 354.32,-267.45"/>
<polygon fill="midnightblue" stroke="midnightblue" points="354.91,-264 344.43,-265.58 353.61,-270.88 354.91,-264"/>
</g>
<!-- Node4 -->
<g id="node4" class="node">
<title>Node4</title>
<g id="a_node4"><a xlink:title=" ">
<polygon fill="white" stroke="#bfbfbf" points="364,-246.5 364,-265.5 480,-265.5 480,-246.5 364,-246.5"/>
<text text-anchor="middle" x="422" y="-253.5" font-family="Helvetica,sans-Serif" font-size="10.00">common/singleton.h</text>
</a>
</g>
</g>
<!-- Node1&#45;&gt;Node4 -->
<g id="edge3" class="edge">
<title>Node1&#45;&gt;Node4</title>
<path fill="none" stroke="midnightblue" d="M568.5,-302.4C535.18,-292.07 490.51,-278.23 459.29,-268.56"/>
<polygon fill="midnightblue" stroke="midnightblue" points="460.25,-265.19 449.66,-265.57 458.17,-271.87 460.25,-265.19"/>
</g>
<!-- Node5 -->
<g id="node5" class="node">
<title>Node5</title>
<g id="a_node5"><a xlink:href="shader__program_8h.html" target="_top" xlink:title=" ">
<polygon fill="white" stroke="black" points="814,-179.5 814,-209.5 944,-209.5 944,-179.5 814,-179.5"/>
<text text-anchor="start" x="822" y="-197.5" font-family="Helvetica,sans-Serif" font-size="10.00">graphics/shader/shader</text>
<text text-anchor="middle" x="879" y="-186.5" font-family="Helvetica,sans-Serif" font-size="10.00">_program.h</text>
</a>
</g>
</g>
<!-- Node1&#45;&gt;Node5 -->
<g id="edge4" class="edge">
<title>Node1&#45;&gt;Node5</title>
<path fill="none" stroke="midnightblue" d="M677.04,-311.45C741.93,-304.94 837.09,-291.32 863,-266 875.14,-254.14 878.92,-235.15 879.78,-219.86"/>
<polygon fill="midnightblue" stroke="midnightblue" points="883.29,-219.6 879.97,-209.54 876.29,-219.47 883.29,-219.6"/>
</g>
<!-- Node13 -->
<g id="node13" class="node">
<title>Node13</title>
<g id="a_node13"><a xlink:href="material_8h.html" target="_top" xlink:title=" ">
<polygon fill="white" stroke="black" points="536.5,-246.5 536.5,-265.5 691.5,-265.5 691.5,-246.5 536.5,-246.5"/>
<text text-anchor="middle" x="614" y="-253.5" font-family="Helvetica,sans-Serif" font-size="10.00">graphics/material/material.h</text>
</a>
</g>
</g>
<!-- Node1&#45;&gt;Node13 -->
<g id="edge12" class="edge">
<title>Node1&#45;&gt;Node13</title>
<path fill="none" stroke="midnightblue" d="M614,-302.4C614,-294.47 614,-284.46 614,-275.86"/>
<polygon fill="midnightblue" stroke="midnightblue" points="617.5,-275.66 614,-265.66 610.5,-275.66 617.5,-275.66"/>
</g>
<!-- Node14 -->
<g id="node14" class="node">
<title>Node14</title>
<g id="a_node14"><a xlink:href="texture_8h.html" target="_top" xlink:title=" ">
<polygon fill="white" stroke="black" points="383.5,-185 383.5,-204 526.5,-204 526.5,-185 383.5,-185"/>
<text text-anchor="middle" x="455" y="-192" font-family="Helvetica,sans-Serif" font-size="10.00">graphics/texture/texture.h</text>
</a>
</g>
</g>
<!-- Node1&#45;&gt;Node14 -->
<g id="edge43" class="edge">
<title>Node1&#45;&gt;Node14</title>
<path fill="none" stroke="midnightblue" d="M585.85,-302.47C568.25,-293.15 545.49,-280.06 527,-266 505.15,-249.38 483.03,-226.64 469.18,-211.53"/>
<polygon fill="midnightblue" stroke="midnightblue" points="471.7,-209.09 462.4,-204.01 466.5,-213.78 471.7,-209.09"/>
</g>
<!-- Node22 -->
<g id="node22" class="node">
<title>Node22</title>
<g id="a_node22"><a xlink:href="mesh_8h.html" target="_top" xlink:title=" ">
<polygon fill="white" stroke="black" points="1096.5,-185 1096.5,-204 1223.5,-204 1223.5,-185 1096.5,-185"/>
<text text-anchor="middle" x="1160" y="-192" font-family="Helvetica,sans-Serif" font-size="10.00">graphics/mesh/mesh.h</text>
</a>
</g>
</g>
<!-- Node1&#45;&gt;Node22 -->
<g id="edge26" class="edge">
<title>Node1&#45;&gt;Node22</title>
<path fill="none" stroke="midnightblue" d="M677.04,-305.76C731.49,-296.21 812.19,-281.41 882,-266 966.73,-247.29 1064.93,-221.38 1118.99,-206.75"/>
<polygon fill="midnightblue" stroke="midnightblue" points="1120.15,-210.06 1128.88,-204.06 1118.31,-203.31 1120.15,-210.06"/>
</g>
<!-- Node29 -->
<g id="node29" class="node">
<title>Node29</title>
<g id="a_node29"><a xlink:href="skybox_8h.html" target="_top" xlink:title=" ">
<polygon fill="white" stroke="black" points="710,-246.5 710,-265.5 854,-265.5 854,-246.5 710,-246.5"/>
<text text-anchor="middle" x="782" y="-253.5" font-family="Helvetica,sans-Serif" font-size="10.00">graphics/lighting/skybox.h</text>
</a>
</g>
</g>
<!-- Node1&#45;&gt;Node29 -->
<g id="edge44" class="edge">
<title>Node1&#45;&gt;Node29</title>
<path fill="none" stroke="midnightblue" d="M653.81,-302.4C682.5,-292.24 720.81,-278.67 748.06,-269.02"/>
<polygon fill="midnightblue" stroke="midnightblue" points="749.3,-272.3 757.55,-265.66 746.96,-265.7 749.3,-272.3"/>
</g>
<!-- Node30 -->
<g id="node30" class="node">
<title>Node30</title>
<g id="a_node30"><a xlink:href="file__util_8h.html" target="_top" xlink:title=" ">
<polygon fill="white" stroke="black" points="1362,-246.5 1362,-265.5 1442,-265.5 1442,-246.5 1362,-246.5"/>
<text text-anchor="middle" x="1402" y="-253.5" font-family="Helvetica,sans-Serif" font-size="10.00">util/file_util.h</text>
</a>
</g>
</g>
<!-- Node1&#45;&gt;Node30 -->
<g id="edge49" class="edge">
<title>Node1&#45;&gt;Node30</title>
<path fill="none" stroke="midnightblue" d="M677.15,-311.73C829.14,-300.26 1212.93,-271.28 1351.29,-260.83"/>
<polygon fill="midnightblue" stroke="midnightblue" points="1351.89,-264.29 1361.59,-260.05 1351.36,-257.31 1351.89,-264.29"/>
</g>
<!-- Node6 -->
<g id="node6" class="node">
<title>Node6</title>
<g id="a_node6"><a xlink:title=" ">
<polygon fill="white" stroke="#bfbfbf" points="1460,-118 1460,-137 1504,-137 1504,-118 1460,-118"/>
<text text-anchor="middle" x="1482" y="-125" font-family="Helvetica,sans-Serif" font-size="10.00">string</text>
</a>
</g>
</g>
<!-- Node5&#45;&gt;Node6 -->
<g id="edge5" class="edge">
<title>Node5&#45;&gt;Node6</title>
<path fill="none" stroke="midnightblue" d="M944.06,-189.04C1083.63,-179.28 1403.08,-155.89 1451,-143 1452.94,-142.48 1454.9,-141.84 1456.85,-141.13"/>
<polygon fill="midnightblue" stroke="midnightblue" points="1458.47,-144.25 1466.31,-137.13 1455.74,-137.8 1458.47,-144.25"/>
</g>
<!-- Node7 -->
<g id="node7" class="node">
<title>Node7</title>
<g id="a_node7"><a xlink:title=" ">
<polygon fill="white" stroke="#bfbfbf" points="1421.5,-0.5 1421.5,-19.5 1468.5,-19.5 1468.5,-0.5 1421.5,-0.5"/>
<text text-anchor="middle" x="1445" y="-7.5" font-family="Helvetica,sans-Serif" font-size="10.00">vector</text>
</a>
</g>
</g>
<!-- Node5&#45;&gt;Node7 -->
<g id="edge6" class="edge">
<title>Node5&#45;&gt;Node7</title>
<path fill="none" stroke="midnightblue" d="M944.01,-180.45C985.84,-171.42 1041.14,-158.3 1089,-143 1124.14,-131.77 1130.51,-122.08 1166,-112 1256.67,-86.25 1290.52,-117.8 1375,-76 1398.11,-64.56 1418.97,-43.04 1431.79,-27.9"/>
<polygon fill="midnightblue" stroke="midnightblue" points="1434.75,-29.81 1438.36,-19.85 1429.33,-25.39 1434.75,-29.81"/>
</g>
<!-- Node8 -->
<g id="node8" class="node">
<title>Node8</title>
<g id="a_node8"><a xlink:title=" ">
<polygon fill="white" stroke="#bfbfbf" points="790,-0.5 790,-19.5 854,-19.5 854,-0.5 790,-0.5"/>
<text text-anchor="middle" x="822" y="-7.5" font-family="Helvetica,sans-Serif" font-size="10.00">GL/glew.h</text>
</a>
</g>
</g>
<!-- Node5&#45;&gt;Node8 -->
<g id="edge7" class="edge">
<title>Node5&#45;&gt;Node8</title>
<path fill="none" stroke="midnightblue" d="M874.31,-179.43C867,-157.43 852.54,-113.5 841,-76 836.19,-60.37 831,-42.54 827.26,-29.52"/>
<polygon fill="midnightblue" stroke="midnightblue" points="830.61,-28.51 824.5,-19.86 823.88,-30.43 830.61,-28.51"/>
</g>
<!-- Node9 -->
<g id="node9" class="node">
<title>Node9</title>
<g id="a_node9"><a xlink:title=" ">
<polygon fill="white" stroke="#bfbfbf" points="740.5,-118 740.5,-137 829.5,-137 829.5,-118 740.5,-118"/>
<text text-anchor="middle" x="785" y="-125" font-family="Helvetica,sans-Serif" font-size="10.00">maths/colour.h</text>
</a>
</g>
</g>
<!-- Node5&#45;&gt;Node9 -->
<g id="edge8" class="edge">
<title>Node5&#45;&gt;Node9</title>
<path fill="none" stroke="midnightblue" d="M858.6,-179.4C842.99,-168.6 821.52,-153.76 805.81,-142.89"/>
<polygon fill="midnightblue" stroke="midnightblue" points="807.52,-139.82 797.3,-137.01 803.54,-145.57 807.52,-139.82"/>
</g>
<!-- Node10 -->
<g id="node10" class="node">
<title>Node10</title>
<g id="a_node10"><a xlink:title=" ">
<polygon fill="white" stroke="#bfbfbf" points="626,-118 626,-137 722,-137 722,-118 626,-118"/>
<text text-anchor="middle" x="674" y="-125" font-family="Helvetica,sans-Serif" font-size="10.00">maths/vector2.h</text>
</a>
</g>
</g>
<!-- Node5&#45;&gt;Node10 -->
<g id="edge9" class="edge">
<title>Node5&#45;&gt;Node10</title>
<path fill="none" stroke="midnightblue" d="M834.77,-179.48C797.7,-167.72 745.41,-151.14 710.65,-140.12"/>
<polygon fill="midnightblue" stroke="midnightblue" points="711.49,-136.71 700.9,-137.03 709.37,-143.39 711.49,-136.71"/>
</g>
<!-- Node11 -->
<g id="node11" class="node">
<title>Node11</title>
<g id="a_node11"><a xlink:title=" ">
<polygon fill="white" stroke="#bfbfbf" points="960,-56.5 960,-75.5 1056,-75.5 1056,-56.5 960,-56.5"/>
<text text-anchor="middle" x="1008" y="-63.5" font-family="Helvetica,sans-Serif" font-size="10.00">maths/vector3.h</text>
</a>
</g>
</g>
<!-- Node5&#45;&gt;Node11 -->
<g id="edge10" class="edge">
<title>Node5&#45;&gt;Node11</title>
<path fill="none" stroke="midnightblue" d="M890.72,-179.37C904.83,-162.64 929.58,-134.24 953,-112 964.29,-101.27 977.82,-90.18 988.64,-81.69"/>
<polygon fill="midnightblue" stroke="midnightblue" points="990.87,-84.39 996.64,-75.5 986.59,-78.86 990.87,-84.39"/>
</g>
<!-- Node12 -->
<g id="node12" class="node">
<title>Node12</title>
<g id="a_node12"><a xlink:title=" ">
<polygon fill="white" stroke="#bfbfbf" points="850,-56.5 850,-75.5 942,-75.5 942,-56.5 850,-56.5"/>
<text text-anchor="middle" x="896" y="-63.5" font-family="Helvetica,sans-Serif" font-size="10.00">maths/matrix.h</text>
</a>
</g>
</g>
<!-- Node5&#45;&gt;Node12 -->
<g id="edge11" class="edge">
<title>Node5&#45;&gt;Node12</title>
<path fill="none" stroke="midnightblue" d="M880.88,-179.48C883.96,-156.62 890.05,-111.3 893.49,-85.71"/>
<polygon fill="midnightblue" stroke="midnightblue" points="896.96,-86.17 894.82,-75.79 890.02,-85.23 896.96,-86.17"/>
</g>
<!-- Node13&#45;&gt;Node2 -->
<g id="edge13" class="edge">
<title>Node13&#45;&gt;Node2</title>
<path fill="none" stroke="midnightblue" d="M548.05,-246.48C407.34,-227.65 87.9,-181.12 57,-143 31.42,-111.45 52.1,-79.82 85,-56 126.87,-25.69 278.84,-15.52 351.62,-12.34"/>
<polygon fill="midnightblue" stroke="midnightblue" points="351.92,-15.83 361.76,-11.92 351.63,-8.83 351.92,-15.83"/>
</g>
<!-- Node13&#45;&gt;Node5 -->
<g id="edge24" class="edge">
<title>Node13&#45;&gt;Node5</title>
<path fill="none" stroke="midnightblue" d="M651.97,-246.48C692.22,-237.44 756.76,-222.95 806.75,-211.72"/>
<polygon fill="midnightblue" stroke="midnightblue" points="807.55,-215.13 816.54,-209.52 806.02,-208.3 807.55,-215.13"/>
</g>
<!-- Node13&#45;&gt;Node10 -->
<g id="edge14" class="edge">
<title>Node13&#45;&gt;Node10</title>
<path fill="none" stroke="midnightblue" d="M642.02,-246.4C659.17,-239.51 679.75,-227.98 690,-210 701.34,-190.1 692.45,-163.52 684.07,-146.21"/>
<polygon fill="midnightblue" stroke="midnightblue" points="687.09,-144.44 679.35,-137.21 680.89,-147.69 687.09,-144.44"/>
</g>
<!-- Node13&#45;&gt;Node14 -->
<g id="edge15" class="edge">
<title>Node13&#45;&gt;Node14</title>
<path fill="none" stroke="midnightblue" d="M591.22,-246.48C563.95,-236.27 518.09,-219.11 487.2,-207.55"/>
<polygon fill="midnightblue" stroke="midnightblue" points="488.33,-204.24 477.74,-204.01 485.88,-210.79 488.33,-204.24"/>
</g>
<!-- Node21 -->
<g id="node21" class="node">
<title>Node21</title>
<g id="a_node21"><a xlink:href="render__path_8h.html" target="_top" xlink:title=" ">
<polygon fill="white" stroke="black" points="544.5,-179.5 544.5,-209.5 681.5,-209.5 681.5,-179.5 544.5,-179.5"/>
<text text-anchor="start" x="552.5" y="-197.5" font-family="Helvetica,sans-Serif" font-size="10.00">graphics/material/render</text>
<text text-anchor="middle" x="613" y="-186.5" font-family="Helvetica,sans-Serif" font-size="10.00">_path.h</text>
</a>
</g>
</g>
<!-- Node13&#45;&gt;Node21 -->
<g id="edge25" class="edge">
<title>Node13&#45;&gt;Node21</title>
<path fill="none" stroke="midnightblue" d="M613.86,-246.48C613.74,-239.47 613.57,-229.19 613.41,-219.7"/>
<polygon fill="midnightblue" stroke="midnightblue" points="616.9,-219.46 613.24,-209.52 609.9,-219.58 616.9,-219.46"/>
</g>
<!-- Node14&#45;&gt;Node8 -->
<g id="edge19" class="edge">
<title>Node14&#45;&gt;Node8</title>
<path fill="none" stroke="midnightblue" d="M482.71,-184.87C508.59,-176.21 547.81,-161.5 579,-143 597.74,-131.88 598.66,-123.78 617,-112 675.59,-74.36 750.21,-40.85 791.33,-23.51"/>
<polygon fill="midnightblue" stroke="midnightblue" points="792.92,-26.64 800.8,-19.55 790.22,-20.18 792.92,-26.64"/>
</g>
<!-- Node15 -->
<g id="node15" class="node">
<title>Node15</title>
<g id="a_node15"><a xlink:title=" ">
<polygon fill="white" stroke="#bfbfbf" points="528,-118 528,-137 570,-137 570,-118 528,-118"/>
<text text-anchor="middle" x="549" y="-125" font-family="Helvetica,sans-Serif" font-size="10.00">array</text>
</a>
</g>
</g>
<!-- Node14&#45;&gt;Node15 -->
<g id="edge16" class="edge">
<title>Node14&#45;&gt;Node15</title>
<path fill="none" stroke="midnightblue" d="M467.68,-184.73C483.18,-174.01 509.64,-155.72 528.16,-142.91"/>
<polygon fill="midnightblue" stroke="midnightblue" points="530.29,-145.69 536.52,-137.13 526.31,-139.94 530.29,-145.69"/>
</g>
<!-- Node16 -->
<g id="node16" class="node">
<title>Node16</title>
<g id="a_node16"><a xlink:title=" ">
<polygon fill="white" stroke="#bfbfbf" points="206.5,-118 206.5,-137 253.5,-137 253.5,-118 206.5,-118"/>
<text text-anchor="middle" x="230" y="-125" font-family="Helvetica,sans-Serif" font-size="10.00">cmath</text>
</a>
</g>
</g>
<!-- Node14&#45;&gt;Node16 -->
<g id="edge17" class="edge">
<title>Node14&#45;&gt;Node16</title>
<path fill="none" stroke="midnightblue" d="M415.11,-184.93C375.89,-176.06 314.58,-160.99 263,-143 261.33,-142.42 259.64,-141.79 257.93,-141.13"/>
<polygon fill="midnightblue" stroke="midnightblue" points="258.88,-137.73 248.3,-137.15 256.2,-144.2 258.88,-137.73"/>
</g>
<!-- Node17 -->
<g id="node17" class="node">
<title>Node17</title>
<g id="a_node17"><a xlink:title=" ">
<polygon fill="white" stroke="#bfbfbf" points="272,-118 272,-137 380,-137 380,-118 272,-118"/>
<text text-anchor="middle" x="326" y="-125" font-family="Helvetica,sans-Serif" font-size="10.00">SDL2/SDL_image.h</text>
</a>
</g>
</g>
<!-- Node14&#45;&gt;Node17 -->
<g id="edge18" class="edge">
<title>Node14&#45;&gt;Node17</title>
<path fill="none" stroke="midnightblue" d="M437.87,-184.87C415.99,-173.84 377.91,-154.66 352.33,-141.77"/>
<polygon fill="midnightblue" stroke="midnightblue" points="353.71,-138.54 343.2,-137.17 350.56,-144.79 353.71,-138.54"/>
</g>
<!-- Node18 -->
<g id="node18" class="node">
<title>Node18</title>
<g id="a_node18"><a xlink:title=" ">
<polygon fill="white" stroke="#bfbfbf" points="398.5,-118 398.5,-137 509.5,-137 509.5,-118 398.5,-118"/>
<text text-anchor="middle" x="454" y="-125" font-family="Helvetica,sans-Serif" font-size="10.00">maths/maths_util.h</text>
</a>
</g>
</g>
<!-- Node14&#45;&gt;Node18 -->
<g id="edge20" class="edge">
<title>Node14&#45;&gt;Node18</title>
<path fill="none" stroke="midnightblue" d="M454.87,-184.73C454.72,-175.18 454.48,-159.62 454.29,-147.28"/>
<polygon fill="midnightblue" stroke="midnightblue" points="457.79,-147.07 454.13,-137.13 450.79,-147.18 457.79,-147.07"/>
</g>
<!-- Node19 -->
<g id="node19" class="node">
<title>Node19</title>
<g id="a_node19"><a xlink:href="pixel__format_8h.html" target="_top" xlink:title=" ">
<polygon fill="white" stroke="black" points="66,-112.5 66,-142.5 188,-142.5 188,-112.5 66,-112.5"/>
<text text-anchor="start" x="74" y="-130.5" font-family="Helvetica,sans-Serif" font-size="10.00">graphics/texture/pixel</text>
<text text-anchor="middle" x="127" y="-119.5" font-family="Helvetica,sans-Serif" font-size="10.00">_format.h</text>
</a>
</g>
</g>
<!-- Node14&#45;&gt;Node19 -->
<g id="edge21" class="edge">
<title>Node14&#45;&gt;Node19</title>
<path fill="none" stroke="midnightblue" d="M410.69,-184.98C361.28,-175.44 278.71,-159.41 197.92,-143.17"/>
<polygon fill="midnightblue" stroke="midnightblue" points="198.57,-139.73 188.08,-141.19 197.19,-146.6 198.57,-139.73"/>
</g>
<!-- Node19&#45;&gt;Node8 -->
<g id="edge23" class="edge">
<title>Node19&#45;&gt;Node8</title>
<path fill="none" stroke="midnightblue" d="M188.05,-113.69C191.08,-113.11 194.07,-112.54 197,-112 415.46,-71.74 678.51,-32.1 779.6,-17.19"/>
<polygon fill="midnightblue" stroke="midnightblue" points="780.33,-20.62 789.71,-15.7 779.31,-13.7 780.33,-20.62"/>
</g>
<!-- Node20 -->
<g id="node20" class="node">
<title>Node20</title>
<g id="a_node20"><a xlink:title=" ">
<polygon fill="white" stroke="#bfbfbf" points="94.5,-56.5 94.5,-75.5 159.5,-75.5 159.5,-56.5 94.5,-56.5"/>
<text text-anchor="middle" x="127" y="-63.5" font-family="Helvetica,sans-Serif" font-size="10.00">stdexcept</text>
</a>
</g>
</g>
<!-- Node19&#45;&gt;Node20 -->
<g id="edge22" class="edge">
<title>Node19&#45;&gt;Node20</title>
<path fill="none" stroke="midnightblue" d="M127,-112.4C127,-104.47 127,-94.46 127,-85.86"/>
<polygon fill="midnightblue" stroke="midnightblue" points="130.5,-85.66 127,-75.66 123.5,-85.66 130.5,-85.66"/>
</g>
<!-- Node22&#45;&gt;Node2 -->
<g id="edge27" class="edge">
<title>Node22&#45;&gt;Node2</title>
<path fill="none" stroke="midnightblue" d="M1157.03,-184.69C1147.97,-159.34 1117.99,-86.09 1065,-56 1009.83,-24.67 566.36,-14.15 430.45,-11.65"/>
<polygon fill="midnightblue" stroke="midnightblue" points="430.16,-8.14 420.1,-11.46 430.04,-15.14 430.16,-8.14"/>
</g>
<!-- Node22&#45;&gt;Node6 -->
<g id="edge29" class="edge">
<title>Node22&#45;&gt;Node6</title>
<path fill="none" stroke="midnightblue" d="M1223.59,-187.39C1283.33,-180.5 1374.69,-167 1451,-143 1452.87,-142.41 1454.77,-141.73 1456.67,-141"/>
<polygon fill="midnightblue" stroke="midnightblue" points="1458.12,-144.19 1465.92,-137.01 1455.35,-137.76 1458.12,-144.19"/>
</g>
<!-- Node22&#45;&gt;Node7 -->
<g id="edge28" class="edge">
<title>Node22&#45;&gt;Node7</title>
<path fill="none" stroke="midnightblue" d="M1223.63,-188.87C1320.15,-181.19 1494.34,-164.52 1513,-143 1544.8,-106.33 1493.03,-52.19 1463.43,-26.12"/>
<polygon fill="midnightblue" stroke="midnightblue" points="1465.62,-23.39 1455.75,-19.55 1461.07,-28.71 1465.62,-23.39"/>
</g>
<!-- Node23 -->
<g id="node23" class="node">
<title>Node23</title>
<g id="a_node23"><a xlink:href="vertex_8h.html" target="_top" xlink:title=" ">
<polygon fill="white" stroke="black" points="1174.5,-118 1174.5,-137 1305.5,-137 1305.5,-118 1174.5,-118"/>
<text text-anchor="middle" x="1240" y="-125" font-family="Helvetica,sans-Serif" font-size="10.00">graphics/mesh/vertex.h</text>
</a>
</g>
</g>
<!-- Node22&#45;&gt;Node23 -->
<g id="edge30" class="edge">
<title>Node22&#45;&gt;Node23</title>
<path fill="none" stroke="midnightblue" d="M1170.79,-184.73C1183.74,-174.21 1205.69,-156.38 1221.39,-143.62"/>
<polygon fill="midnightblue" stroke="midnightblue" points="1223.83,-146.15 1229.38,-137.13 1219.41,-140.72 1223.83,-146.15"/>
</g>
<!-- Node24 -->
<g id="node24" class="node">
<title>Node24</title>
<g id="a_node24"><a xlink:href="mesh__instance__data_8h.html" target="_top" xlink:title=" ">
<polygon fill="white" stroke="black" points="962,-112.5 962,-142.5 1080,-142.5 1080,-112.5 962,-112.5"/>
<text text-anchor="start" x="970" y="-130.5" font-family="Helvetica,sans-Serif" font-size="10.00">graphics/mesh/mesh</text>
<text text-anchor="middle" x="1021" y="-119.5" font-family="Helvetica,sans-Serif" font-size="10.00">_instance_data.h</text>
</a>
</g>
</g>
<!-- Node22&#45;&gt;Node24 -->
<g id="edge32" class="edge">
<title>Node22&#45;&gt;Node24</title>
<path fill="none" stroke="midnightblue" d="M1141.54,-184.87C1120.87,-175.2 1086.75,-159.25 1060.09,-146.78"/>
<polygon fill="midnightblue" stroke="midnightblue" points="1061.54,-143.59 1051,-142.53 1058.57,-149.93 1061.54,-143.59"/>
</g>
<!-- Node25 -->
<g id="node25" class="node">
<title>Node25</title>
<g id="a_node25"><a xlink:href="vao_8h.html" target="_top" xlink:title=" ">
<polygon fill="white" stroke="black" points="1324,-118 1324,-137 1442,-137 1442,-118 1324,-118"/>
<text text-anchor="middle" x="1383" y="-125" font-family="Helvetica,sans-Serif" font-size="10.00">graphics/mesh/vao.h</text>
</a>
</g>
</g>
<!-- Node22&#45;&gt;Node25 -->
<g id="edge34" class="edge">
<title>Node22&#45;&gt;Node25</title>
<path fill="none" stroke="midnightblue" d="M1189.61,-184.87C1229.29,-173.3 1299.81,-152.75 1343.84,-139.91"/>
<polygon fill="midnightblue" stroke="midnightblue" points="1345,-143.22 1353.62,-137.06 1343.04,-136.5 1345,-143.22"/>
</g>
<!-- Node23&#45;&gt;Node11 -->
<g id="edge31" class="edge">
<title>Node23&#45;&gt;Node11</title>
<path fill="none" stroke="midnightblue" d="M1206.76,-117.98C1165.76,-107.46 1095.97,-89.56 1050.95,-78.01"/>
<polygon fill="midnightblue" stroke="midnightblue" points="1051.73,-74.6 1041.18,-75.51 1050,-81.38 1051.73,-74.6"/>
</g>
<!-- Node24&#45;&gt;Node12 -->
<g id="edge33" class="edge">
<title>Node24&#45;&gt;Node12</title>
<path fill="none" stroke="midnightblue" d="M991.38,-112.4C970.78,-102.59 943.52,-89.62 923.42,-80.05"/>
<polygon fill="midnightblue" stroke="midnightblue" points="924.72,-76.8 914.19,-75.66 921.71,-83.12 924.72,-76.8"/>
</g>
<!-- Node25&#45;&gt;Node7 -->
<g id="edge36" class="edge">
<title>Node25&#45;&gt;Node7</title>
<path fill="none" stroke="midnightblue" d="M1417.08,-117.87C1438.35,-110.52 1464.07,-97.62 1477,-76 1486.62,-59.91 1474.19,-40.52 1462.12,-27.13"/>
<polygon fill="midnightblue" stroke="midnightblue" points="1464.34,-24.38 1454.86,-19.65 1459.32,-29.26 1464.34,-24.38"/>
</g>
<!-- Node26 -->
<g id="node26" class="node">
<title>Node26</title>
<g id="a_node26"><a xlink:title=" ">
<polygon fill="white" stroke="#bfbfbf" points="1422.5,-56.5 1422.5,-75.5 1467.5,-75.5 1467.5,-56.5 1422.5,-56.5"/>
<text text-anchor="middle" x="1445" y="-63.5" font-family="Helvetica,sans-Serif" font-size="10.00">utility</text>
</a>
</g>
</g>
<!-- Node25&#45;&gt;Node26 -->
<g id="edge35" class="edge">
<title>Node25&#45;&gt;Node26</title>
<path fill="none" stroke="midnightblue" d="M1391.88,-117.98C1401.46,-108.78 1416.91,-93.96 1428.69,-82.66"/>
<polygon fill="midnightblue" stroke="midnightblue" points="1431.34,-84.96 1436.13,-75.51 1426.49,-79.91 1431.34,-84.96"/>
</g>
<!-- Node27 -->
<g id="node27" class="node">
<title>Node27</title>
<g id="a_node27"><a xlink:href="vbo_8h.html" target="_top" xlink:title=" ">
<polygon fill="white" stroke="black" points="1248,-56.5 1248,-75.5 1366,-75.5 1366,-56.5 1248,-56.5"/>
<text text-anchor="middle" x="1307" y="-63.5" font-family="Helvetica,sans-Serif" font-size="10.00">graphics/mesh/vbo.h</text>
</a>
</g>
</g>
<!-- Node25&#45;&gt;Node27 -->
<g id="edge37" class="edge">
<title>Node25&#45;&gt;Node27</title>
<path fill="none" stroke="midnightblue" d="M1372.11,-117.98C1360.03,-108.52 1340.33,-93.1 1325.76,-81.69"/>
<polygon fill="midnightblue" stroke="midnightblue" points="1327.9,-78.92 1317.87,-75.51 1323.59,-84.43 1327.9,-78.92"/>
</g>
<!-- Node28 -->
<g id="node28" class="node">
<title>Node28</title>
<g id="a_node28"><a xlink:href="ebo_8h.html" target="_top" xlink:title=" ">
<polygon fill="white" stroke="black" points="1112,-56.5 1112,-75.5 1230,-75.5 1230,-56.5 1112,-56.5"/>
<text text-anchor="middle" x="1171" y="-63.5" font-family="Helvetica,sans-Serif" font-size="10.00">graphics/mesh/ebo.h</text>
</a>
</g>
</g>
<!-- Node25&#45;&gt;Node28 -->
<g id="edge41" class="edge">
<title>Node25&#45;&gt;Node28</title>
<path fill="none" stroke="midnightblue" d="M1352.63,-117.98C1315.39,-107.53 1252.19,-89.79 1211.02,-78.23"/>
<polygon fill="midnightblue" stroke="midnightblue" points="1211.89,-74.84 1201.32,-75.51 1210,-81.58 1211.89,-74.84"/>
</g>
<!-- Node27&#45;&gt;Node2 -->
<g id="edge39" class="edge">
<title>Node27&#45;&gt;Node2</title>
<path fill="none" stroke="midnightblue" d="M1247.69,-56.87C1244.76,-56.56 1241.85,-56.26 1239,-56 928.35,-27.24 551.84,-15.28 430.62,-12"/>
<polygon fill="midnightblue" stroke="midnightblue" points="430.44,-8.49 420.35,-11.72 430.26,-15.49 430.44,-8.49"/>
</g>
<!-- Node27&#45;&gt;Node7 -->
<g id="edge38" class="edge">
<title>Node27&#45;&gt;Node7</title>
<path fill="none" stroke="midnightblue" d="M1328.87,-56.44C1351.78,-47.48 1387.98,-33.31 1413.87,-23.18"/>
<polygon fill="midnightblue" stroke="midnightblue" points="1415.2,-26.42 1423.24,-19.52 1412.65,-19.9 1415.2,-26.42"/>
</g>
<!-- Node27&#45;&gt;Node8 -->
<g id="edge40" class="edge">
<title>Node27&#45;&gt;Node8</title>
<path fill="none" stroke="midnightblue" d="M1247.67,-57.06C1244.74,-56.7 1241.84,-56.34 1239,-56 1102.11,-39.56 939.6,-22.82 864.25,-15.22"/>
<polygon fill="midnightblue" stroke="midnightblue" points="864.51,-11.73 854.21,-14.21 863.81,-18.69 864.51,-11.73"/>
</g>
<!-- Node28&#45;&gt;Node8 -->
<g id="edge42" class="edge">
<title>Node28&#45;&gt;Node8</title>
<path fill="none" stroke="midnightblue" d="M1115.7,-56.44C1045.79,-45.63 926.97,-27.24 864.03,-17.5"/>
<polygon fill="midnightblue" stroke="midnightblue" points="864.47,-14.03 854.05,-15.96 863.4,-20.95 864.47,-14.03"/>
</g>
<!-- Node29&#45;&gt;Node5 -->
<g id="edge48" class="edge">
<title>Node29&#45;&gt;Node5</title>
<path fill="none" stroke="midnightblue" d="M795.9,-246.48C809.28,-238.27 830,-225.56 847.4,-214.88"/>
<polygon fill="midnightblue" stroke="midnightblue" points="849.44,-217.74 856.14,-209.52 845.78,-211.77 849.44,-217.74"/>
</g>
<!-- Node29&#45;&gt;Node9 -->
<g id="edge45" class="edge">
<title>Node29&#45;&gt;Node9</title>
<path fill="none" stroke="midnightblue" d="M782.21,-246.31C782.69,-225.99 783.9,-175.05 784.55,-147.28"/>
<polygon fill="midnightblue" stroke="midnightblue" points="788.05,-147.34 784.79,-137.26 781.06,-147.17 788.05,-147.34"/>
</g>
<!-- Node29&#45;&gt;Node14 -->
<g id="edge47" class="edge">
<title>Node29&#45;&gt;Node14</title>
<path fill="none" stroke="midnightblue" d="M735.15,-246.48C676.26,-235.76 575.26,-217.38 511.97,-205.87"/>
<polygon fill="midnightblue" stroke="midnightblue" points="512.23,-202.36 501.76,-204.01 510.98,-209.24 512.23,-202.36"/>
</g>
<!-- Node29&#45;&gt;Node22 -->
<g id="edge46" class="edge">
<title>Node29&#45;&gt;Node22</title>
<path fill="none" stroke="midnightblue" d="M836.16,-246.48C904.79,-235.67 1022.91,-217.08 1095.95,-205.58"/>
<polygon fill="midnightblue" stroke="midnightblue" points="1096.61,-209.02 1105.94,-204.01 1095.52,-202.11 1096.61,-209.02"/>
</g>
<!-- Node30&#45;&gt;Node6 -->
<g id="edge50" class="edge">
<title>Node30&#45;&gt;Node6</title>
<path fill="none" stroke="midnightblue" d="M1407.61,-246.1C1416.57,-231.91 1434.65,-203.27 1450,-179 1456.99,-167.95 1464.85,-155.54 1471.03,-145.79"/>
<polygon fill="midnightblue" stroke="midnightblue" points="1474.16,-147.4 1476.56,-137.08 1468.25,-143.65 1474.16,-147.4"/>
</g>
<!-- Node31 -->
<g id="node31" class="node">
<title>Node31</title>
<g id="a_node31"><a xlink:title=" ">
<polygon fill="white" stroke="#bfbfbf" points="1458.5,-185 1458.5,-204 1513.5,-204 1513.5,-185 1458.5,-185"/>
<text text-anchor="middle" x="1486" y="-192" font-family="Helvetica,sans-Serif" font-size="10.00">fstream</text>
</a>
</g>
</g>
<!-- Node30&#45;&gt;Node31 -->
<g id="edge51" class="edge">
<title>Node30&#45;&gt;Node31</title>
<path fill="none" stroke="midnightblue" d="M1414.04,-246.48C1427.51,-236.93 1449.57,-221.31 1465.72,-209.87"/>
<polygon fill="midnightblue" stroke="midnightblue" points="1467.85,-212.65 1473.99,-204.01 1463.8,-206.93 1467.85,-212.65"/>
</g>
<!-- Node32 -->
<g id="node32" class="node">
<title>Node32</title>
<g id="a_node32"><a xlink:title=" ">
<polygon fill="white" stroke="#bfbfbf" points="1346,-185 1346,-204 1402,-204 1402,-185 1346,-185"/>
<text text-anchor="middle" x="1374" y="-192" font-family="Helvetica,sans-Serif" font-size="10.00">sstream</text>
</a>
</g>
</g>
<!-- Node30&#45;&gt;Node32 -->
<g id="edge52" class="edge">
<title>Node30&#45;&gt;Node32</title>
<path fill="none" stroke="midnightblue" d="M1397.99,-246.48C1393.91,-237.82 1387.48,-224.15 1382.3,-213.15"/>
<polygon fill="midnightblue" stroke="midnightblue" points="1385.43,-211.57 1378,-204.01 1379.1,-214.55 1385.43,-211.57"/>
</g>
</g>
</svg>
