<?xml version="1.0" encoding="UTF-8" standalone="no"?>
<!DOCTYPE svg PUBLIC "-//W3C//DTD SVG 1.1//EN"
 "http://www.w3.org/Graphics/SVG/1.1/DTD/svg11.dtd">
<!-- Generated by graphviz version 2.43.0 (0)
 -->
<!-- Title: src/graphics/asset_loader.h Pages: 1 -->
<!--zoomable 319 -->
<svg id="main" version="1.1" xmlns="http://www.w3.org/2000/svg" xmlns:xlink="http://www.w3.org/1999/xlink" xml:space="preserve" onload="init(evt)">
<style type="text/css"><![CDATA[
.edge:hover path { stroke: red; }
.edge:hover polygon { stroke: red; fill: red; }
]]></style>
<script type="text/javascript"><![CDATA[
var edges = document.getElementsByTagName('g');
if (edges && edges.length) {
  for (var i=0;i<edges.length;i++) {
    if (edges[i].id.substr(0,4)=='edge') {
      edges[i].setAttribute('class','edge');
    }
  }
}
]]></script>
        <defs>
                <circle id="rim" cx="0" cy="0" r="7"/>
                <circle id="rim2" cx="0" cy="0" r="3.5"/>
                <g id="zoomPlus">
                        <use xlink:href="#rim" fill="#404040">
                                <set attributeName="fill" to="#808080" begin="zoomplus.mouseover" end="zoomplus.mouseout"/>
                        </use>
                        <path d="M-4,0h8M0,-4v8" fill="none" stroke="white" stroke-width="1.5" pointer-events="none"/>
                </g>
                <g id="zoomMin">
                        <use xlink:href="#rim" fill="#404040">
                                <set attributeName="fill" to="#808080" begin="zoomminus.mouseover" end="zoomminus.mouseout"/>
                        </use>
                        <path d="M-4,0h8" fill="none" stroke="white" stroke-width="1.5" pointer-events="none"/>
                </g>
                <g id="dirArrow">
                        <path fill="none" stroke="white" stroke-width="1.5" d="M0,-3.0v7 M-2.5,-0.5L0,-3.0L2.5,-0.5"/>
                </g>
               <g id="resetDef">
                       <use xlink:href="#rim2" fill="#404040">
                               <set attributeName="fill" to="#808080" begin="reset.mouseover" end="reset.mouseout"/>
                       </use>
               </g>
        </defs>

<script type="text/javascript">
var viewWidth = 1316;
var viewHeight = 319;
var sectionId = 'dynsection-0';
</script>
<script xlink:href="svgpan.js"/>
<svg id="graph" class="graph">
<g id="viewport">
<title>src/graphics/asset_loader.h</title>
<polygon fill="white" stroke="transparent" points="-4,4 -4,-315 1311.5,-315 1311.5,4 -4,4"/>
<!-- Node1 -->
<g id="node1" class="node">
<title>Node1</title>
<g id="a_node1"><a xlink:title=" ">
<polygon fill="#bfbfbf" stroke="black" points="667,-280.5 667,-310.5 771,-310.5 771,-280.5 667,-280.5"/>
<text text-anchor="start" x="675" y="-298.5" font-family="Helvetica,sans-Serif" font-size="10.00">src/graphics/asset</text>
<text text-anchor="middle" x="719" y="-287.5" font-family="Helvetica,sans-Serif" font-size="10.00">_loader.h</text>
</a>
</g>
</g>
<!-- Node2 -->
<g id="node2" class="node">
<title>Node2</title>
<g id="a_node2"><a xlink:title=" ">
<polygon fill="white" stroke="#bfbfbf" points="28,-0.5 28,-19.5 86,-19.5 86,-0.5 28,-0.5"/>
<text text-anchor="middle" x="57" y="-7.5" font-family="Helvetica,sans-Serif" font-size="10.00">memory</text>
</a>
</g>
</g>
<!-- Node1&#45;&gt;Node2 -->
<g id="edge1" class="edge">
<title>Node1&#45;&gt;Node2</title>
<path fill="none" stroke="midnightblue" d="M666.71,-291.62C501.26,-281.82 0,-246.56 0,-179 0,-179 0,-179 0,-121 0,-84.3 25.32,-47.66 42.21,-27.3"/>
<polygon fill="midnightblue" stroke="midnightblue" points="44.95,-29.48 48.83,-19.62 39.65,-24.9 44.95,-29.48"/>
</g>
<!-- Node3 -->
<g id="node3" class="node">
<title>Node3</title>
<g id="a_node3"><a xlink:title=" ">
<polygon fill="white" stroke="#bfbfbf" points="1011.5,-224.5 1011.5,-243.5 1104.5,-243.5 1104.5,-224.5 1011.5,-224.5"/>
<text text-anchor="middle" x="1058" y="-231.5" font-family="Helvetica,sans-Serif" font-size="10.00">unordered_map</text>
</a>
</g>
</g>
<!-- Node1&#45;&gt;Node3 -->
<g id="edge2" class="edge">
<title>Node1&#45;&gt;Node3</title>
<path fill="none" stroke="midnightblue" d="M771.23,-285.33C833.55,-274.4 937.35,-256.18 1001.5,-244.92"/>
<polygon fill="midnightblue" stroke="midnightblue" points="1002.2,-248.35 1011.44,-243.17 1000.99,-241.45 1002.2,-248.35"/>
</g>
<!-- Node4 -->
<g id="node4" class="node">
<title>Node4</title>
<g id="a_node4"><a xlink:title=" ">
<polygon fill="white" stroke="#bfbfbf" points="1123,-224.5 1123,-243.5 1239,-243.5 1239,-224.5 1123,-224.5"/>
<text text-anchor="middle" x="1181" y="-231.5" font-family="Helvetica,sans-Serif" font-size="10.00">common/singleton.h</text>
</a>
</g>
</g>
<!-- Node1&#45;&gt;Node4 -->
<g id="edge3" class="edge">
<title>Node1&#45;&gt;Node4</title>
<path fill="none" stroke="midnightblue" d="M771.09,-287.95C844.75,-278.66 983.84,-261.03 1112.84,-244.15"/>
<polygon fill="midnightblue" stroke="midnightblue" points="1113.44,-247.6 1122.9,-242.83 1112.53,-240.66 1113.44,-247.6"/>
</g>
<!-- Node5 -->
<g id="node5" class="node">
<title>Node5</title>
<g id="a_node5"><a xlink:href="shader__program_8h.html" target="_top" xlink:title=" ">
<polygon fill="white" stroke="black" points="546.5,-168.5 546.5,-187.5 695.5,-187.5 695.5,-168.5 546.5,-168.5"/>
<text text-anchor="middle" x="621" y="-175.5" font-family="Helvetica,sans-Serif" font-size="10.00">graphics/shader_program.h</text>
</a>
</g>
</g>
<!-- Node1&#45;&gt;Node5 -->
<g id="edge4" class="edge">
<title>Node1&#45;&gt;Node5</title>
<path fill="none" stroke="midnightblue" d="M706.98,-280.34C688.76,-258.86 654.24,-218.17 634.94,-195.43"/>
<polygon fill="midnightblue" stroke="midnightblue" points="637.49,-193.03 628.36,-187.67 632.16,-197.56 637.49,-193.03"/>
</g>
<!-- Node13 -->
<g id="node13" class="node">
<title>Node13</title>
<g id="a_node13"><a xlink:href="texture_8h.html" target="_top" xlink:title=" ">
<polygon fill="white" stroke="black" points="892.5,-112.5 892.5,-131.5 997.5,-131.5 997.5,-112.5 892.5,-112.5"/>
<text text-anchor="middle" x="945" y="-119.5" font-family="Helvetica,sans-Serif" font-size="10.00">graphics/texture.h</text>
</a>
</g>
</g>
<!-- Node1&#45;&gt;Node13 -->
<g id="edge43" class="edge">
<title>Node1&#45;&gt;Node13</title>
<path fill="none" stroke="midnightblue" d="M771.04,-286.47C825.32,-275.02 907.71,-248.26 946,-188 954.69,-174.32 953.32,-155.53 950.44,-141.67"/>
<polygon fill="midnightblue" stroke="midnightblue" points="953.79,-140.66 947.96,-131.81 947,-142.36 953.79,-140.66"/>
</g>
<!-- Node20 -->
<g id="node20" class="node">
<title>Node20</title>
<g id="a_node20"><a xlink:href="material_8h.html" target="_top" xlink:title=" ">
<polygon fill="white" stroke="black" points="705.5,-224.5 705.5,-243.5 816.5,-243.5 816.5,-224.5 705.5,-224.5"/>
<text text-anchor="middle" x="761" y="-231.5" font-family="Helvetica,sans-Serif" font-size="10.00">graphics/material.h</text>
</a>
</g>
</g>
<!-- Node1&#45;&gt;Node20 -->
<g id="edge21" class="edge">
<title>Node1&#45;&gt;Node20</title>
<path fill="none" stroke="midnightblue" d="M728.95,-280.4C734.99,-271.84 742.74,-260.87 749.1,-251.86"/>
<polygon fill="midnightblue" stroke="midnightblue" points="751.98,-253.85 754.89,-243.66 746.26,-249.81 751.98,-253.85"/>
</g>
<!-- Node22 -->
<g id="node22" class="node">
<title>Node22</title>
<g id="a_node22"><a xlink:href="mesh_8h.html" target="_top" xlink:title=" ">
<polygon fill="white" stroke="black" points="316.5,-168.5 316.5,-187.5 413.5,-187.5 413.5,-168.5 316.5,-168.5"/>
<text text-anchor="middle" x="365" y="-175.5" font-family="Helvetica,sans-Serif" font-size="10.00">graphics/mesh.h</text>
</a>
</g>
</g>
<!-- Node1&#45;&gt;Node22 -->
<g id="edge27" class="edge">
<title>Node1&#45;&gt;Node22</title>
<path fill="none" stroke="midnightblue" d="M666.95,-281.53C630.11,-272.01 579.7,-258.3 536,-244 485.86,-227.59 428.8,-205.11 394.9,-191.35"/>
<polygon fill="midnightblue" stroke="midnightblue" points="396.15,-188.08 385.57,-187.54 393.51,-194.56 396.15,-188.08"/>
</g>
<!-- Node28 -->
<g id="node28" class="node">
<title>Node28</title>
<g id="a_node28"><a xlink:href="skybox_8h.html" target="_top" xlink:title=" ">
<polygon fill="white" stroke="black" points="545,-224.5 545,-243.5 649,-243.5 649,-224.5 545,-224.5"/>
<text text-anchor="middle" x="597" y="-231.5" font-family="Helvetica,sans-Serif" font-size="10.00">graphics/skybox.h</text>
</a>
</g>
</g>
<!-- Node1&#45;&gt;Node28 -->
<g id="edge44" class="edge">
<title>Node1&#45;&gt;Node28</title>
<path fill="none" stroke="midnightblue" d="M690.09,-280.4C669.98,-270.59 643.38,-257.62 623.76,-248.05"/>
<polygon fill="midnightblue" stroke="midnightblue" points="625.27,-244.9 614.75,-243.66 622.21,-251.19 625.27,-244.9"/>
</g>
<!-- Node6 -->
<g id="node6" class="node">
<title>Node6</title>
<g id="a_node6"><a xlink:title=" ">
<polygon fill="white" stroke="#bfbfbf" points="434,-112.5 434,-131.5 478,-131.5 478,-112.5 434,-112.5"/>
<text text-anchor="middle" x="456" y="-119.5" font-family="Helvetica,sans-Serif" font-size="10.00">string</text>
</a>
</g>
</g>
<!-- Node5&#45;&gt;Node6 -->
<g id="edge5" class="edge">
<title>Node5&#45;&gt;Node6</title>
<path fill="none" stroke="midnightblue" d="M594.86,-168.44C565.75,-158.92 518.71,-143.52 487.57,-133.33"/>
<polygon fill="midnightblue" stroke="midnightblue" points="488.65,-130 478.06,-130.22 486.48,-136.66 488.65,-130"/>
</g>
<!-- Node7 -->
<g id="node7" class="node">
<title>Node7</title>
<g id="a_node7"><a xlink:title=" ">
<polygon fill="white" stroke="#bfbfbf" points="262.5,-0.5 262.5,-19.5 309.5,-19.5 309.5,-0.5 262.5,-0.5"/>
<text text-anchor="middle" x="286" y="-7.5" font-family="Helvetica,sans-Serif" font-size="10.00">vector</text>
</a>
</g>
</g>
<!-- Node5&#45;&gt;Node7 -->
<g id="edge6" class="edge">
<title>Node5&#45;&gt;Node7</title>
<path fill="none" stroke="midnightblue" d="M630.17,-168.34C651.77,-146.91 701.83,-90.64 671,-56 647.81,-29.94 409.68,-16.58 319.95,-12.44"/>
<polygon fill="midnightblue" stroke="midnightblue" points="319.92,-8.93 309.77,-11.98 319.6,-15.92 319.92,-8.93"/>
</g>
<!-- Node8 -->
<g id="node8" class="node">
<title>Node8</title>
<g id="a_node8"><a xlink:title=" ">
<polygon fill="white" stroke="#bfbfbf" points="696,-0.5 696,-19.5 760,-19.5 760,-0.5 696,-0.5"/>
<text text-anchor="middle" x="728" y="-7.5" font-family="Helvetica,sans-Serif" font-size="10.00">GL/glew.h</text>
</a>
</g>
</g>
<!-- Node5&#45;&gt;Node8 -->
<g id="edge7" class="edge">
<title>Node5&#45;&gt;Node8</title>
<path fill="none" stroke="midnightblue" d="M649.9,-168.44C668.18,-161.53 690.78,-149.95 704,-132 726.47,-101.5 729.35,-55.37 728.98,-29.78"/>
<polygon fill="midnightblue" stroke="midnightblue" points="732.47,-29.47 728.64,-19.6 725.47,-29.71 732.47,-29.47"/>
</g>
<!-- Node9 -->
<g id="node9" class="node">
<title>Node9</title>
<g id="a_node9"><a xlink:title=" ">
<polygon fill="white" stroke="#bfbfbf" points="496.5,-112.5 496.5,-131.5 585.5,-131.5 585.5,-112.5 496.5,-112.5"/>
<text text-anchor="middle" x="541" y="-119.5" font-family="Helvetica,sans-Serif" font-size="10.00">maths/colour.h</text>
</a>
</g>
</g>
<!-- Node5&#45;&gt;Node9 -->
<g id="edge8" class="edge">
<title>Node5&#45;&gt;Node9</title>
<path fill="none" stroke="midnightblue" d="M608.15,-168.32C595.78,-159.98 576.87,-147.21 562.26,-137.35"/>
<polygon fill="midnightblue" stroke="midnightblue" points="564.07,-134.35 553.82,-131.65 560.15,-140.15 564.07,-134.35"/>
</g>
<!-- Node10 -->
<g id="node10" class="node">
<title>Node10</title>
<g id="a_node10"><a xlink:title=" ">
<polygon fill="white" stroke="#bfbfbf" points="756,-112.5 756,-131.5 852,-131.5 852,-112.5 756,-112.5"/>
<text text-anchor="middle" x="804" y="-119.5" font-family="Helvetica,sans-Serif" font-size="10.00">maths/vector2.h</text>
</a>
</g>
</g>
<!-- Node5&#45;&gt;Node10 -->
<g id="edge9" class="edge">
<title>Node5&#45;&gt;Node10</title>
<path fill="none" stroke="midnightblue" d="M650,-168.44C681.18,-159.24 730.93,-144.56 765.41,-134.39"/>
<polygon fill="midnightblue" stroke="midnightblue" points="766.54,-137.7 775.14,-131.52 764.56,-130.99 766.54,-137.7"/>
</g>
<!-- Node11 -->
<g id="node11" class="node">
<title>Node11</title>
<g id="a_node11"><a xlink:title=" ">
<polygon fill="white" stroke="#bfbfbf" points="566,-56.5 566,-75.5 662,-75.5 662,-56.5 566,-56.5"/>
<text text-anchor="middle" x="614" y="-63.5" font-family="Helvetica,sans-Serif" font-size="10.00">maths/vector3.h</text>
</a>
</g>
</g>
<!-- Node5&#45;&gt;Node11 -->
<g id="edge10" class="edge">
<title>Node5&#45;&gt;Node11</title>
<path fill="none" stroke="midnightblue" d="M623.4,-168.14C626.47,-155.6 631.04,-131.97 628,-112 626.63,-103 623.81,-93.33 621.05,-85.26"/>
<polygon fill="midnightblue" stroke="midnightblue" points="624.31,-83.98 617.6,-75.78 617.73,-86.37 624.31,-83.98"/>
</g>
<!-- Node12 -->
<g id="node12" class="node">
<title>Node12</title>
<g id="a_node12"><a xlink:title=" ">
<polygon fill="white" stroke="#bfbfbf" points="456,-56.5 456,-75.5 548,-75.5 548,-56.5 456,-56.5"/>
<text text-anchor="middle" x="502" y="-63.5" font-family="Helvetica,sans-Serif" font-size="10.00">maths/matrix.h</text>
</a>
</g>
</g>
<!-- Node5&#45;&gt;Node12 -->
<g id="edge11" class="edge">
<title>Node5&#45;&gt;Node12</title>
<path fill="none" stroke="midnightblue" d="M619.45,-168.35C616.61,-154.79 609.4,-128.38 594,-112 579.92,-97.03 559.8,-86.4 541.96,-79.25"/>
<polygon fill="midnightblue" stroke="midnightblue" points="542.93,-75.88 532.34,-75.63 540.46,-82.43 542.93,-75.88"/>
</g>
<!-- Node5&#45;&gt;Node13 -->
<g id="edge12" class="edge">
<title>Node5&#45;&gt;Node13</title>
<path fill="none" stroke="midnightblue" d="M672.34,-168.44C729.81,-158.87 822.87,-143.36 884,-133.17"/>
<polygon fill="midnightblue" stroke="midnightblue" points="884.61,-136.61 893.9,-131.52 883.46,-129.71 884.61,-136.61"/>
</g>
<!-- Node13&#45;&gt;Node8 -->
<g id="edge16" class="edge">
<title>Node13&#45;&gt;Node8</title>
<path fill="none" stroke="midnightblue" d="M892.17,-113.99C859.38,-107.81 817.46,-96.47 785,-76 765.63,-63.79 749.1,-43.04 738.91,-28.27"/>
<polygon fill="midnightblue" stroke="midnightblue" points="741.59,-25.99 733.16,-19.58 735.76,-29.85 741.59,-25.99"/>
</g>
<!-- Node14 -->
<g id="node14" class="node">
<title>Node14</title>
<g id="a_node14"><a xlink:title=" ">
<polygon fill="white" stroke="#bfbfbf" points="924,-56.5 924,-75.5 966,-75.5 966,-56.5 924,-56.5"/>
<text text-anchor="middle" x="945" y="-63.5" font-family="Helvetica,sans-Serif" font-size="10.00">array</text>
</a>
</g>
</g>
<!-- Node13&#45;&gt;Node14 -->
<g id="edge13" class="edge">
<title>Node13&#45;&gt;Node14</title>
<path fill="none" stroke="midnightblue" d="M945,-112.08C945,-105.01 945,-94.86 945,-85.99"/>
<polygon fill="midnightblue" stroke="midnightblue" points="948.5,-85.75 945,-75.75 941.5,-85.75 948.5,-85.75"/>
</g>
<!-- Node15 -->
<g id="node15" class="node">
<title>Node15</title>
<g id="a_node15"><a xlink:title=" ">
<polygon fill="white" stroke="#bfbfbf" points="984.5,-56.5 984.5,-75.5 1031.5,-75.5 1031.5,-56.5 984.5,-56.5"/>
<text text-anchor="middle" x="1008" y="-63.5" font-family="Helvetica,sans-Serif" font-size="10.00">cmath</text>
</a>
</g>
</g>
<!-- Node13&#45;&gt;Node15 -->
<g id="edge14" class="edge">
<title>Node13&#45;&gt;Node15</title>
<path fill="none" stroke="midnightblue" d="M955.12,-112.32C964.53,-104.26 978.74,-92.08 990.07,-82.37"/>
<polygon fill="midnightblue" stroke="midnightblue" points="992.38,-85 997.69,-75.83 987.82,-79.68 992.38,-85"/>
</g>
<!-- Node16 -->
<g id="node16" class="node">
<title>Node16</title>
<g id="a_node16"><a xlink:title=" ">
<polygon fill="white" stroke="#bfbfbf" points="1050,-56.5 1050,-75.5 1158,-75.5 1158,-56.5 1050,-56.5"/>
<text text-anchor="middle" x="1104" y="-63.5" font-family="Helvetica,sans-Serif" font-size="10.00">SDL2/SDL_image.h</text>
</a>
</g>
</g>
<!-- Node13&#45;&gt;Node16 -->
<g id="edge15" class="edge">
<title>Node13&#45;&gt;Node16</title>
<path fill="none" stroke="midnightblue" d="M970.19,-112.44C996.94,-103.36 1039.4,-88.94 1069.31,-78.78"/>
<polygon fill="midnightblue" stroke="midnightblue" points="1070.58,-82.05 1078.92,-75.52 1068.33,-75.42 1070.58,-82.05"/>
</g>
<!-- Node17 -->
<g id="node17" class="node">
<title>Node17</title>
<g id="a_node17"><a xlink:title=" ">
<polygon fill="white" stroke="#bfbfbf" points="794.5,-56.5 794.5,-75.5 905.5,-75.5 905.5,-56.5 794.5,-56.5"/>
<text text-anchor="middle" x="850" y="-63.5" font-family="Helvetica,sans-Serif" font-size="10.00">maths/maths_util.h</text>
</a>
</g>
</g>
<!-- Node13&#45;&gt;Node17 -->
<g id="edge17" class="edge">
<title>Node13&#45;&gt;Node17</title>
<path fill="none" stroke="midnightblue" d="M929.74,-112.32C914.78,-103.82 891.75,-90.73 874.27,-80.8"/>
<polygon fill="midnightblue" stroke="midnightblue" points="875.65,-77.55 865.23,-75.65 872.19,-83.64 875.65,-77.55"/>
</g>
<!-- Node18 -->
<g id="node18" class="node">
<title>Node18</title>
<g id="a_node18"><a xlink:href="pixel__format_8h.html" target="_top" xlink:title=" ">
<polygon fill="white" stroke="black" points="1176.5,-56.5 1176.5,-75.5 1307.5,-75.5 1307.5,-56.5 1176.5,-56.5"/>
<text text-anchor="middle" x="1242" y="-63.5" font-family="Helvetica,sans-Serif" font-size="10.00">graphics/pixel_format.h</text>
</a>
</g>
</g>
<!-- Node13&#45;&gt;Node18 -->
<g id="edge18" class="edge">
<title>Node13&#45;&gt;Node18</title>
<path fill="none" stroke="midnightblue" d="M992.06,-112.44C1044.41,-102.92 1128.99,-87.55 1185.04,-77.36"/>
<polygon fill="midnightblue" stroke="midnightblue" points="1185.95,-80.75 1195.16,-75.52 1184.69,-73.86 1185.95,-80.75"/>
</g>
<!-- Node18&#45;&gt;Node8 -->
<g id="edge20" class="edge">
<title>Node18&#45;&gt;Node8</title>
<path fill="none" stroke="midnightblue" d="M1176.16,-57.03C1173.06,-56.68 1170,-56.33 1167,-56 1021.44,-39.81 848.47,-22.7 770.2,-15.08"/>
<polygon fill="midnightblue" stroke="midnightblue" points="770.53,-11.6 760.24,-14.11 769.85,-18.56 770.53,-11.6"/>
</g>
<!-- Node19 -->
<g id="node19" class="node">
<title>Node19</title>
<g id="a_node19"><a xlink:title=" ">
<polygon fill="white" stroke="#bfbfbf" points="1209.5,-0.5 1209.5,-19.5 1274.5,-19.5 1274.5,-0.5 1209.5,-0.5"/>
<text text-anchor="middle" x="1242" y="-7.5" font-family="Helvetica,sans-Serif" font-size="10.00">stdexcept</text>
</a>
</g>
</g>
<!-- Node18&#45;&gt;Node19 -->
<g id="edge19" class="edge">
<title>Node18&#45;&gt;Node19</title>
<path fill="none" stroke="midnightblue" d="M1242,-56.08C1242,-49.01 1242,-38.86 1242,-29.99"/>
<polygon fill="midnightblue" stroke="midnightblue" points="1245.5,-29.75 1242,-19.75 1238.5,-29.75 1245.5,-29.75"/>
</g>
<!-- Node20&#45;&gt;Node2 -->
<g id="edge22" class="edge">
<title>Node20&#45;&gt;Node2</title>
<path fill="none" stroke="midnightblue" d="M705.43,-228.14C592.83,-218.2 345.17,-195.81 307,-188 225.75,-171.38 198.21,-177.69 129,-132 101.64,-113.94 97.6,-104.26 81,-76 72.43,-61.41 66.03,-43.24 62.01,-29.82"/>
<polygon fill="midnightblue" stroke="midnightblue" points="65.28,-28.52 59.19,-19.85 58.54,-30.42 65.28,-28.52"/>
</g>
<!-- Node20&#45;&gt;Node5 -->
<g id="edge25" class="edge">
<title>Node20&#45;&gt;Node5</title>
<path fill="none" stroke="midnightblue" d="M738.82,-224.44C715.57,-215.48 678.85,-201.31 652.58,-191.18"/>
<polygon fill="midnightblue" stroke="midnightblue" points="653.67,-187.85 643.08,-187.52 651.15,-194.38 653.67,-187.85"/>
</g>
<!-- Node20&#45;&gt;Node10 -->
<g id="edge23" class="edge">
<title>Node20&#45;&gt;Node10</title>
<path fill="none" stroke="midnightblue" d="M762.92,-224.4C765.86,-211.77 772.01,-187.6 780,-168 783.8,-158.67 788.96,-148.75 793.53,-140.6"/>
<polygon fill="midnightblue" stroke="midnightblue" points="796.7,-142.11 798.66,-131.7 790.63,-138.62 796.7,-142.11"/>
</g>
<!-- Node20&#45;&gt;Node13 -->
<g id="edge24" class="edge">
<title>Node20&#45;&gt;Node13</title>
<path fill="none" stroke="midnightblue" d="M816.78,-231.26C852.42,-227.23 897.19,-216.29 926,-188 938.18,-176.04 942.65,-156.74 944.25,-142.27"/>
<polygon fill="midnightblue" stroke="midnightblue" points="947.76,-142.16 945,-131.94 940.78,-141.66 947.76,-142.16"/>
</g>
<!-- Node21 -->
<g id="node21" class="node">
<title>Node21</title>
<g id="a_node21"><a xlink:href="render__path_8h.html" target="_top" xlink:title=" ">
<polygon fill="white" stroke="black" points="789,-168.5 789,-187.5 917,-187.5 917,-168.5 789,-168.5"/>
<text text-anchor="middle" x="853" y="-175.5" font-family="Helvetica,sans-Serif" font-size="10.00">graphics/render_path.h</text>
</a>
</g>
</g>
<!-- Node20&#45;&gt;Node21 -->
<g id="edge26" class="edge">
<title>Node20&#45;&gt;Node21</title>
<path fill="none" stroke="midnightblue" d="M775.78,-224.32C790.27,-215.82 812.57,-202.73 829.49,-192.8"/>
<polygon fill="midnightblue" stroke="midnightblue" points="831.4,-195.74 838.26,-187.65 827.86,-189.7 831.4,-195.74"/>
</g>
<!-- Node22&#45;&gt;Node2 -->
<g id="edge28" class="edge">
<title>Node22&#45;&gt;Node2</title>
<path fill="none" stroke="midnightblue" d="M316.26,-175.41C271.85,-171.98 205.92,-161.77 157,-132 114.47,-106.12 81.72,-55.57 66.45,-28.73"/>
<polygon fill="midnightblue" stroke="midnightblue" points="69.36,-26.77 61.47,-19.7 63.23,-30.15 69.36,-26.77"/>
</g>
<!-- Node22&#45;&gt;Node6 -->
<g id="edge30" class="edge">
<title>Node22&#45;&gt;Node6</title>
<path fill="none" stroke="midnightblue" d="M379.62,-168.32C393.95,-159.82 416.01,-146.73 432.75,-136.8"/>
<polygon fill="midnightblue" stroke="midnightblue" points="434.6,-139.77 441.42,-131.65 431.03,-133.75 434.6,-139.77"/>
</g>
<!-- Node22&#45;&gt;Node7 -->
<g id="edge29" class="edge">
<title>Node22&#45;&gt;Node7</title>
<path fill="none" stroke="midnightblue" d="M316.46,-173.63C258.29,-166.53 164.7,-144.47 133,-76 110.54,-27.49 200.69,-15.15 252.24,-12.03"/>
<polygon fill="midnightblue" stroke="midnightblue" points="252.5,-15.53 262.3,-11.51 252.13,-8.53 252.5,-15.53"/>
</g>
<!-- Node23 -->
<g id="node23" class="node">
<title>Node23</title>
<g id="a_node23"><a xlink:href="vertex_8h.html" target="_top" xlink:title=" ">
<polygon fill="white" stroke="black" points="314.5,-112.5 314.5,-131.5 415.5,-131.5 415.5,-112.5 314.5,-112.5"/>
<text text-anchor="middle" x="365" y="-119.5" font-family="Helvetica,sans-Serif" font-size="10.00">graphics/vertex.h</text>
</a>
</g>
</g>
<!-- Node22&#45;&gt;Node23 -->
<g id="edge31" class="edge">
<title>Node22&#45;&gt;Node23</title>
<path fill="none" stroke="midnightblue" d="M365,-168.08C365,-161.01 365,-150.86 365,-141.99"/>
<polygon fill="midnightblue" stroke="midnightblue" points="368.5,-141.75 365,-131.75 361.5,-141.75 368.5,-141.75"/>
</g>
<!-- Node24 -->
<g id="node24" class="node">
<title>Node24</title>
<g id="a_node24"><a xlink:href="vao_8h.html" target="_top" xlink:title=" ">
<polygon fill="white" stroke="black" points="208,-112.5 208,-131.5 296,-131.5 296,-112.5 208,-112.5"/>
<text text-anchor="middle" x="252" y="-119.5" font-family="Helvetica,sans-Serif" font-size="10.00">graphics/vao.h</text>
</a>
</g>
</g>
<!-- Node22&#45;&gt;Node24 -->
<g id="edge34" class="edge">
<title>Node22&#45;&gt;Node24</title>
<path fill="none" stroke="midnightblue" d="M347.09,-168.44C328.75,-159.68 299.99,-145.94 278.91,-135.86"/>
<polygon fill="midnightblue" stroke="midnightblue" points="280.35,-132.67 269.82,-131.52 277.33,-138.99 280.35,-132.67"/>
</g>
<!-- Node23&#45;&gt;Node11 -->
<g id="edge33" class="edge">
<title>Node23&#45;&gt;Node11</title>
<path fill="none" stroke="midnightblue" d="M404.45,-112.44C447.89,-103.02 517.79,-87.87 564.78,-77.68"/>
<polygon fill="midnightblue" stroke="midnightblue" points="565.7,-81.06 574.73,-75.52 564.22,-74.22 565.7,-81.06"/>
</g>
<!-- Node23&#45;&gt;Node12 -->
<g id="edge32" class="edge">
<title>Node23&#45;&gt;Node12</title>
<path fill="none" stroke="midnightblue" d="M386.71,-112.44C409.35,-103.52 445.07,-89.44 470.75,-79.32"/>
<polygon fill="midnightblue" stroke="midnightblue" points="472.37,-82.44 480.39,-75.52 469.81,-75.93 472.37,-82.44"/>
</g>
<!-- Node24&#45;&gt;Node7 -->
<g id="edge36" class="edge">
<title>Node24&#45;&gt;Node7</title>
<path fill="none" stroke="midnightblue" d="M267.73,-112.24C279.89,-104.48 295.81,-91.93 303,-76 309.88,-60.75 303.71,-42.18 296.96,-28.8"/>
<polygon fill="midnightblue" stroke="midnightblue" points="299.82,-26.75 291.89,-19.72 293.71,-30.16 299.82,-26.75"/>
</g>
<!-- Node25 -->
<g id="node25" class="node">
<title>Node25</title>
<g id="a_node25"><a xlink:title=" ">
<polygon fill="white" stroke="#bfbfbf" points="142.5,-56.5 142.5,-75.5 187.5,-75.5 187.5,-56.5 142.5,-56.5"/>
<text text-anchor="middle" x="165" y="-63.5" font-family="Helvetica,sans-Serif" font-size="10.00">utility</text>
</a>
</g>
</g>
<!-- Node24&#45;&gt;Node25 -->
<g id="edge35" class="edge">
<title>Node24&#45;&gt;Node25</title>
<path fill="none" stroke="midnightblue" d="M238.02,-112.32C224.45,-103.9 203.62,-90.97 187.68,-81.07"/>
<polygon fill="midnightblue" stroke="midnightblue" points="189.29,-77.95 178.94,-75.65 185.59,-83.9 189.29,-77.95"/>
</g>
<!-- Node26 -->
<g id="node26" class="node">
<title>Node26</title>
<g id="a_node26"><a xlink:href="vbo_8h.html" target="_top" xlink:title=" ">
<polygon fill="white" stroke="black" points="206,-56.5 206,-75.5 294,-75.5 294,-56.5 206,-56.5"/>
<text text-anchor="middle" x="250" y="-63.5" font-family="Helvetica,sans-Serif" font-size="10.00">graphics/vbo.h</text>
</a>
</g>
</g>
<!-- Node24&#45;&gt;Node26 -->
<g id="edge37" class="edge">
<title>Node24&#45;&gt;Node26</title>
<path fill="none" stroke="midnightblue" d="M251.67,-112.08C251.41,-105.01 251.03,-94.86 250.7,-85.99"/>
<polygon fill="midnightblue" stroke="midnightblue" points="254.19,-85.61 250.32,-75.75 247.2,-85.87 254.19,-85.61"/>
</g>
<!-- Node27 -->
<g id="node27" class="node">
<title>Node27</title>
<g id="a_node27"><a xlink:href="ebo_8h.html" target="_top" xlink:title=" ">
<polygon fill="white" stroke="black" points="350,-56.5 350,-75.5 438,-75.5 438,-56.5 350,-56.5"/>
<text text-anchor="middle" x="394" y="-63.5" font-family="Helvetica,sans-Serif" font-size="10.00">graphics/ebo.h</text>
</a>
</g>
</g>
<!-- Node24&#45;&gt;Node27 -->
<g id="edge41" class="edge">
<title>Node24&#45;&gt;Node27</title>
<path fill="none" stroke="midnightblue" d="M274.5,-112.44C298.08,-103.48 335.32,-89.31 361.96,-79.18"/>
<polygon fill="midnightblue" stroke="midnightblue" points="363.5,-82.34 371.6,-75.52 361.01,-75.8 363.5,-82.34"/>
</g>
<!-- Node26&#45;&gt;Node2 -->
<g id="edge39" class="edge">
<title>Node26&#45;&gt;Node2</title>
<path fill="none" stroke="midnightblue" d="M219.42,-56.44C186,-47.09 132.37,-32.09 95.96,-21.9"/>
<polygon fill="midnightblue" stroke="midnightblue" points="96.75,-18.49 86.17,-19.16 94.86,-25.23 96.75,-18.49"/>
</g>
<!-- Node26&#45;&gt;Node7 -->
<g id="edge38" class="edge">
<title>Node26&#45;&gt;Node7</title>
<path fill="none" stroke="midnightblue" d="M255.94,-56.08C260.98,-48.53 268.34,-37.49 274.51,-28.23"/>
<polygon fill="midnightblue" stroke="midnightblue" points="277.53,-30.01 280.17,-19.75 271.71,-26.13 277.53,-30.01"/>
</g>
<!-- Node26&#45;&gt;Node8 -->
<g id="edge40" class="edge">
<title>Node26&#45;&gt;Node8</title>
<path fill="none" stroke="midnightblue" d="M294.11,-60.02C385.71,-49.67 595.46,-25.97 685.58,-15.79"/>
<polygon fill="midnightblue" stroke="midnightblue" points="686.16,-19.25 695.71,-14.65 685.38,-12.29 686.16,-19.25"/>
</g>
<!-- Node27&#45;&gt;Node8 -->
<g id="edge42" class="edge">
<title>Node27&#45;&gt;Node8</title>
<path fill="none" stroke="midnightblue" d="M438.24,-57.46C441.2,-56.96 444.15,-56.47 447,-56 531.72,-42.02 630.92,-26.28 685.89,-17.62"/>
<polygon fill="midnightblue" stroke="midnightblue" points="686.62,-21.04 695.96,-16.03 685.53,-14.13 686.62,-21.04"/>
</g>
<!-- Node28&#45;&gt;Node5 -->
<g id="edge48" class="edge">
<title>Node28&#45;&gt;Node5</title>
<path fill="none" stroke="midnightblue" d="M600.96,-224.08C604.21,-216.77 608.92,-206.18 612.95,-197.1"/>
<polygon fill="midnightblue" stroke="midnightblue" points="616.25,-198.31 617.11,-187.75 609.85,-195.47 616.25,-198.31"/>
</g>
<!-- Node28&#45;&gt;Node9 -->
<g id="edge45" class="edge">
<title>Node28&#45;&gt;Node9</title>
<path fill="none" stroke="midnightblue" d="M577.7,-224.48C563.57,-217.08 545.44,-204.89 537,-188 529.74,-173.48 531.88,-154.79 535.17,-141.19"/>
<polygon fill="midnightblue" stroke="midnightblue" points="538.54,-142.11 537.88,-131.54 531.8,-140.22 538.54,-142.11"/>
</g>
<!-- Node28&#45;&gt;Node13 -->
<g id="edge47" class="edge">
<title>Node28&#45;&gt;Node13</title>
<path fill="none" stroke="midnightblue" d="M619.36,-224.45C653.66,-211.46 721.45,-186.35 780,-168 820.57,-155.28 867.37,-142.71 900.75,-134.11"/>
<polygon fill="midnightblue" stroke="midnightblue" points="901.84,-137.44 910.65,-131.57 900.1,-130.66 901.84,-137.44"/>
</g>
<!-- Node28&#45;&gt;Node22 -->
<g id="edge46" class="edge">
<title>Node28&#45;&gt;Node22</title>
<path fill="none" stroke="midnightblue" d="M560.24,-224.44C519.94,-215.06 455.19,-199.99 411.42,-189.8"/>
<polygon fill="midnightblue" stroke="midnightblue" points="412.12,-186.37 401.59,-187.52 410.54,-193.19 412.12,-186.37"/>
</g>
</g>
</svg>
        <g id="navigator" transform="translate(0 0)" fill="#404254">
                <rect fill="#f2f5e9" fill-opacity="0.5" stroke="#606060" stroke-width=".5" x="0" y="0" width="60" height="60"/>
                <use id="zoomplus" xlink:href="#zoomPlus" x="17" y="9" onmousedown="handleZoom(evt,'in')"/>
                <use id="zoomminus" xlink:href="#zoomMin" x="42" y="9" onmousedown="handleZoom(evt,'out')"/>
                <use id="reset" xlink:href="#resetDef" x="30" y="36" onmousedown="handleReset()"/>
                <g id="arrowUp" xlink:href="#dirArrow" transform="translate(30 24)" onmousedown="handlePan(0,-1)">
                  <use xlink:href="#rim" fill="#404040">
                        <set attributeName="fill" to="#808080" begin="arrowUp.mouseover" end="arrowUp.mouseout"/>
                  </use>
                  <path fill="none" stroke="white" stroke-width="1.5" d="M0,-3.0v7 M-2.5,-0.5L0,-3.0L2.5,-0.5"/>
                </g>
                <g id="arrowRight" xlink:href="#dirArrow" transform="rotate(90) translate(36 -43)" onmousedown="handlePan(1,0)">
                  <use xlink:href="#rim" fill="#404040">
                        <set attributeName="fill" to="#808080" begin="arrowRight.mouseover" end="arrowRight.mouseout"/>
                  </use>
                  <path fill="none" stroke="white" stroke-width="1.5" d="M0,-3.0v7 M-2.5,-0.5L0,-3.0L2.5,-0.5"/>
                </g>
                <g id="arrowDown" xlink:href="#dirArrow" transform="rotate(180) translate(-30 -48)" onmousedown="handlePan(0,1)">
                  <use xlink:href="#rim" fill="#404040">
                        <set attributeName="fill" to="#808080" begin="arrowDown.mouseover" end="arrowDown.mouseout"/>
                  </use>
                  <path fill="none" stroke="white" stroke-width="1.5" d="M0,-3.0v7 M-2.5,-0.5L0,-3.0L2.5,-0.5"/>
                </g>
                <g id="arrowLeft" xlink:href="#dirArrow" transform="rotate(270) translate(-36 17)" onmousedown="handlePan(-1,0)">
                  <use xlink:href="#rim" fill="#404040">
                        <set attributeName="fill" to="#808080" begin="arrowLeft.mouseover" end="arrowLeft.mouseout"/>
                  </use>
                  <path fill="none" stroke="white" stroke-width="1.5" d="M0,-3.0v7 M-2.5,-0.5L0,-3.0L2.5,-0.5"/>
                </g>
        </g>
        <svg viewBox="0 0 15 15" width="100%" height="30px" preserveAspectRatio="xMaxYMin meet">
         <g id="arrow_out" transform="scale(0.3 0.3)">
          <a xlink:href="asset__loader_8h__incl_org.svg" target="_base">
           <rect id="button" ry="5" rx="5" y="6" x="6" height="38" width="38"
                fill="#f2f5e9" fill-opacity="0.5" stroke="#606060" stroke-width="1.0"/>
           <path id="arrow"
             d="M 11.500037,31.436501 C 11.940474,20.09759 22.043105,11.32322 32.158766,21.979434 L 37.068811,17.246167 C 37.068811,17.246167 37.088388,32 37.088388,32 L 22.160133,31.978069 C 22.160133,31.978069 26.997745,27.140456 26.997745,27.140456 C 18.528582,18.264221 13.291696,25.230495 11.500037,31.436501 z"
             style="fill:#404040;"/>
          </a>
         </g>
        </svg>
</svg>
