<?xml version="1.0" encoding="UTF-8" standalone="no"?>
<!DOCTYPE svg PUBLIC "-//W3C//DTD SVG 1.1//EN"
 "http://www.w3.org/Graphics/SVG/1.1/DTD/svg11.dtd">
<!-- Generated by graphviz version 2.43.0 (0)
 -->
<!-- Title: src/graphics/asset_loader.cpp Pages: 1 -->
<svg width="1315pt" height="375pt"
 viewBox="0.00 0.00 1315.00 375.00" xmlns="http://www.w3.org/2000/svg" xmlns:xlink="http://www.w3.org/1999/xlink">
<g id="graph0" class="graph" transform="scale(1 1) rotate(0) translate(4 371)">
<title>src/graphics/asset_loader.cpp</title>
<polygon fill="white" stroke="transparent" points="-4,4 -4,-371 1311,-371 1311,4 -4,4"/>
<!-- Node1 -->
<g id="node1" class="node">
<title>Node1</title>
<g id="a_node1"><a xlink:title=" ">
<polygon fill="#bfbfbf" stroke="black" points="223,-336.5 223,-366.5 327,-366.5 327,-336.5 223,-336.5"/>
<text text-anchor="start" x="231" y="-354.5" font-family="Helvetica,sans-Serif" font-size="10.00">src/graphics/asset</text>
<text text-anchor="middle" x="275" y="-343.5" font-family="Helvetica,sans-Serif" font-size="10.00">_loader.cpp</text>
</a>
</g>
</g>
<!-- Node2 -->
<g id="node2" class="node">
<title>Node2</title>
<g id="a_node2"><a xlink:title=" ">
<polygon fill="white" stroke="#bfbfbf" points="0,-56.5 0,-75.5 108,-75.5 108,-56.5 0,-56.5"/>
<text text-anchor="middle" x="54" y="-63.5" font-family="Helvetica,sans-Serif" font-size="10.00">SDL2/SDL_image.h</text>
</a>
</g>
</g>
<!-- Node1&#45;&gt;Node2 -->
<g id="edge1" class="edge">
<title>Node1&#45;&gt;Node2</title>
<path fill="none" stroke="midnightblue" d="M222.63,-347.67C183.13,-342.99 129.82,-330.89 94,-300 70.04,-279.34 65,-266.63 65,-235 65,-235 65,-235 65,-177 65,-144.79 60.27,-107.53 57.02,-85.69"/>
<polygon fill="midnightblue" stroke="midnightblue" points="60.43,-84.87 55.44,-75.53 53.51,-85.95 60.43,-84.87"/>
</g>
<!-- Node3 -->
<g id="node3" class="node">
<title>Node3</title>
<g id="a_node3"><a xlink:title=" ">
<polygon fill="white" stroke="#bfbfbf" points="103.5,-280.5 103.5,-299.5 216.5,-299.5 216.5,-280.5 103.5,-280.5"/>
<text text-anchor="middle" x="160" y="-287.5" font-family="Helvetica,sans-Serif" font-size="10.00">maths/matrix_util.h</text>
</a>
</g>
</g>
<!-- Node1&#45;&gt;Node3 -->
<g id="edge2" class="edge">
<title>Node1&#45;&gt;Node3</title>
<path fill="none" stroke="midnightblue" d="M247.75,-336.4C228.97,-326.68 204.17,-313.86 185.73,-304.31"/>
<polygon fill="midnightblue" stroke="midnightblue" points="187.22,-301.14 176.73,-299.66 184.01,-307.36 187.22,-301.14"/>
</g>
<!-- Node4 -->
<g id="node4" class="node">
<title>Node4</title>
<g id="a_node4"><a xlink:href="file__util_8h.html" target="_top" xlink:title=" ">
<polygon fill="white" stroke="black" points="235,-280.5 235,-299.5 315,-299.5 315,-280.5 235,-280.5"/>
<text text-anchor="middle" x="275" y="-287.5" font-family="Helvetica,sans-Serif" font-size="10.00">util/file_util.h</text>
</a>
</g>
</g>
<!-- Node1&#45;&gt;Node4 -->
<g id="edge3" class="edge">
<title>Node1&#45;&gt;Node4</title>
<path fill="none" stroke="midnightblue" d="M275,-336.4C275,-328.47 275,-318.46 275,-309.86"/>
<polygon fill="midnightblue" stroke="midnightblue" points="278.5,-309.66 275,-299.66 271.5,-309.66 278.5,-309.66"/>
</g>
<!-- Node8 -->
<g id="node8" class="node">
<title>Node8</title>
<g id="a_node8"><a xlink:title=" ">
<polygon fill="white" stroke="#bfbfbf" points="333.5,-280.5 333.5,-299.5 392.5,-299.5 392.5,-280.5 333.5,-280.5"/>
<text text-anchor="middle" x="363" y="-287.5" font-family="Helvetica,sans-Serif" font-size="10.00">log/log.h</text>
</a>
</g>
</g>
<!-- Node1&#45;&gt;Node8 -->
<g id="edge7" class="edge">
<title>Node1&#45;&gt;Node8</title>
<path fill="none" stroke="midnightblue" d="M295.85,-336.4C309.7,-327.04 327.81,-314.79 341.74,-305.38"/>
<polygon fill="midnightblue" stroke="midnightblue" points="343.87,-308.16 350.2,-299.66 339.95,-302.36 343.87,-308.16"/>
</g>
<!-- Node9 -->
<g id="node9" class="node">
<title>Node9</title>
<g id="a_node9"><a xlink:href="asset__loader_8h.html" target="_top" xlink:title=" ">
<polygon fill="white" stroke="black" points="729.5,-280.5 729.5,-299.5 860.5,-299.5 860.5,-280.5 729.5,-280.5"/>
<text text-anchor="middle" x="795" y="-287.5" font-family="Helvetica,sans-Serif" font-size="10.00">graphics/asset_loader.h</text>
</a>
</g>
</g>
<!-- Node1&#45;&gt;Node9 -->
<g id="edge8" class="edge">
<title>Node1&#45;&gt;Node9</title>
<path fill="none" stroke="midnightblue" d="M327.24,-344.52C419.68,-333.95 612.39,-311.9 719.35,-299.66"/>
<polygon fill="midnightblue" stroke="midnightblue" points="719.89,-303.12 729.43,-298.5 719.1,-296.16 719.89,-303.12"/>
</g>
<!-- Node5 -->
<g id="node5" class="node">
<title>Node5</title>
<g id="a_node5"><a xlink:title=" ">
<polygon fill="white" stroke="#bfbfbf" points="828,-112.5 828,-131.5 872,-131.5 872,-112.5 828,-112.5"/>
<text text-anchor="middle" x="850" y="-119.5" font-family="Helvetica,sans-Serif" font-size="10.00">string</text>
</a>
</g>
</g>
<!-- Node4&#45;&gt;Node5 -->
<g id="edge4" class="edge">
<title>Node4&#45;&gt;Node5</title>
<path fill="none" stroke="midnightblue" d="M315.08,-281.55C318.43,-281 321.77,-280.48 325,-280 527.82,-250.11 602.79,-296.07 777,-188 799.18,-174.24 821.06,-153.55 834.99,-139.23"/>
<polygon fill="midnightblue" stroke="midnightblue" points="837.87,-141.28 842.22,-131.63 832.79,-136.46 837.87,-141.28"/>
</g>
<!-- Node6 -->
<g id="node6" class="node">
<title>Node6</title>
<g id="a_node6"><a xlink:title=" ">
<polygon fill="white" stroke="#bfbfbf" points="173.5,-224.5 173.5,-243.5 228.5,-243.5 228.5,-224.5 173.5,-224.5"/>
<text text-anchor="middle" x="201" y="-231.5" font-family="Helvetica,sans-Serif" font-size="10.00">fstream</text>
</a>
</g>
</g>
<!-- Node4&#45;&gt;Node6 -->
<g id="edge5" class="edge">
<title>Node4&#45;&gt;Node6</title>
<path fill="none" stroke="midnightblue" d="M263.11,-280.32C251.85,-272.11 234.71,-259.6 221.29,-249.81"/>
<polygon fill="midnightblue" stroke="midnightblue" points="223.25,-246.9 213.11,-243.83 219.12,-252.56 223.25,-246.9"/>
</g>
<!-- Node7 -->
<g id="node7" class="node">
<title>Node7</title>
<g id="a_node7"><a xlink:title=" ">
<polygon fill="white" stroke="#bfbfbf" points="247,-224.5 247,-243.5 303,-243.5 303,-224.5 247,-224.5"/>
<text text-anchor="middle" x="275" y="-231.5" font-family="Helvetica,sans-Serif" font-size="10.00">sstream</text>
</a>
</g>
</g>
<!-- Node4&#45;&gt;Node7 -->
<g id="edge6" class="edge">
<title>Node4&#45;&gt;Node7</title>
<path fill="none" stroke="midnightblue" d="M275,-280.08C275,-273.01 275,-262.86 275,-253.99"/>
<polygon fill="midnightblue" stroke="midnightblue" points="278.5,-253.75 275,-243.75 271.5,-253.75 278.5,-253.75"/>
</g>
<!-- Node10 -->
<g id="node10" class="node">
<title>Node10</title>
<g id="a_node10"><a xlink:title=" ">
<polygon fill="white" stroke="#bfbfbf" points="1221,-0.5 1221,-19.5 1279,-19.5 1279,-0.5 1221,-0.5"/>
<text text-anchor="middle" x="1250" y="-7.5" font-family="Helvetica,sans-Serif" font-size="10.00">memory</text>
</a>
</g>
</g>
<!-- Node9&#45;&gt;Node10 -->
<g id="edge9" class="edge">
<title>Node9&#45;&gt;Node10</title>
<path fill="none" stroke="midnightblue" d="M860.63,-288.51C998.78,-285.69 1307,-269.29 1307,-179 1307,-179 1307,-179 1307,-121 1307,-84.3 1281.68,-47.66 1264.79,-27.3"/>
<polygon fill="midnightblue" stroke="midnightblue" points="1267.35,-24.9 1258.17,-19.62 1262.05,-29.48 1267.35,-24.9"/>
</g>
<!-- Node11 -->
<g id="node11" class="node">
<title>Node11</title>
<g id="a_node11"><a xlink:title=" ">
<polygon fill="white" stroke="#bfbfbf" points="903.5,-224.5 903.5,-243.5 996.5,-243.5 996.5,-224.5 903.5,-224.5"/>
<text text-anchor="middle" x="950" y="-231.5" font-family="Helvetica,sans-Serif" font-size="10.00">unordered_map</text>
</a>
</g>
</g>
<!-- Node9&#45;&gt;Node11 -->
<g id="edge10" class="edge">
<title>Node9&#45;&gt;Node11</title>
<path fill="none" stroke="midnightblue" d="M819.56,-280.44C845.52,-271.4 886.67,-257.06 915.8,-246.92"/>
<polygon fill="midnightblue" stroke="midnightblue" points="917.26,-250.11 925.55,-243.52 914.96,-243.5 917.26,-250.11"/>
</g>
<!-- Node12 -->
<g id="node12" class="node">
<title>Node12</title>
<g id="a_node12"><a xlink:title=" ">
<polygon fill="white" stroke="#bfbfbf" points="1015,-224.5 1015,-243.5 1131,-243.5 1131,-224.5 1015,-224.5"/>
<text text-anchor="middle" x="1073" y="-231.5" font-family="Helvetica,sans-Serif" font-size="10.00">common/singleton.h</text>
</a>
</g>
</g>
<!-- Node9&#45;&gt;Node12 -->
<g id="edge11" class="edge">
<title>Node9&#45;&gt;Node12</title>
<path fill="none" stroke="midnightblue" d="M839.05,-280.44C887.85,-270.96 966.56,-255.67 1019.03,-245.48"/>
<polygon fill="midnightblue" stroke="midnightblue" points="1020.01,-248.86 1029.16,-243.52 1018.67,-241.99 1020.01,-248.86"/>
</g>
<!-- Node13 -->
<g id="node13" class="node">
<title>Node13</title>
<g id="a_node13"><a xlink:href="shader__program_8h.html" target="_top" xlink:title=" ">
<polygon fill="white" stroke="black" points="618.5,-168.5 618.5,-187.5 767.5,-187.5 767.5,-168.5 618.5,-168.5"/>
<text text-anchor="middle" x="693" y="-175.5" font-family="Helvetica,sans-Serif" font-size="10.00">graphics/shader_program.h</text>
</a>
</g>
</g>
<!-- Node9&#45;&gt;Node13 -->
<g id="edge12" class="edge">
<title>Node9&#45;&gt;Node13</title>
<path fill="none" stroke="midnightblue" d="M780.49,-280.49C767.32,-272.28 747.89,-258.94 734,-244 720.7,-229.69 709.2,-210.48 701.79,-196.66"/>
<polygon fill="midnightblue" stroke="midnightblue" points="704.86,-194.97 697.15,-187.7 698.64,-198.19 704.86,-194.97"/>
</g>
<!-- Node20 -->
<g id="node20" class="node">
<title>Node20</title>
<g id="a_node20"><a xlink:href="texture_8h.html" target="_top" xlink:title=" ">
<polygon fill="white" stroke="black" points="324.5,-112.5 324.5,-131.5 429.5,-131.5 429.5,-112.5 324.5,-112.5"/>
<text text-anchor="middle" x="377" y="-119.5" font-family="Helvetica,sans-Serif" font-size="10.00">graphics/texture.h</text>
</a>
</g>
</g>
<!-- Node9&#45;&gt;Node20 -->
<g id="edge51" class="edge">
<title>Node9&#45;&gt;Node20</title>
<path fill="none" stroke="midnightblue" d="M729.31,-283.14C670.72,-276.86 583.02,-264.86 509,-244 446.48,-226.38 410.07,-242.02 374,-188 364.99,-174.51 367.03,-155.7 370.56,-141.78"/>
<polygon fill="midnightblue" stroke="midnightblue" points="374.02,-142.45 373.53,-131.87 367.31,-140.44 374.02,-142.45"/>
</g>
<!-- Node26 -->
<g id="node26" class="node">
<title>Node26</title>
<g id="a_node26"><a xlink:href="material_8h.html" target="_top" xlink:title=" ">
<polygon fill="white" stroke="black" points="517.5,-224.5 517.5,-243.5 628.5,-243.5 628.5,-224.5 517.5,-224.5"/>
<text text-anchor="middle" x="573" y="-231.5" font-family="Helvetica,sans-Serif" font-size="10.00">graphics/material.h</text>
</a>
</g>
</g>
<!-- Node9&#45;&gt;Node26 -->
<g id="edge29" class="edge">
<title>Node9&#45;&gt;Node26</title>
<path fill="none" stroke="midnightblue" d="M759.82,-280.44C721.42,-271.1 659.82,-256.12 617.94,-245.93"/>
<polygon fill="midnightblue" stroke="midnightblue" points="618.56,-242.48 608.01,-243.52 616.9,-249.28 618.56,-242.48"/>
</g>
<!-- Node28 -->
<g id="node28" class="node">
<title>Node28</title>
<g id="a_node28"><a xlink:href="mesh_8h.html" target="_top" xlink:title=" ">
<polygon fill="white" stroke="black" points="892.5,-168.5 892.5,-187.5 989.5,-187.5 989.5,-168.5 892.5,-168.5"/>
<text text-anchor="middle" x="941" y="-175.5" font-family="Helvetica,sans-Serif" font-size="10.00">graphics/mesh.h</text>
</a>
</g>
</g>
<!-- Node9&#45;&gt;Node28 -->
<g id="edge35" class="edge">
<title>Node9&#45;&gt;Node28</title>
<path fill="none" stroke="midnightblue" d="M806.74,-280.43C819.05,-271.42 838.95,-256.8 856,-244 878.64,-226.99 904.46,-207.19 921.64,-193.96"/>
<polygon fill="midnightblue" stroke="midnightblue" points="923.99,-196.56 929.77,-187.68 919.72,-191.02 923.99,-196.56"/>
</g>
<!-- Node34 -->
<g id="node34" class="node">
<title>Node34</title>
<g id="a_node34"><a xlink:href="skybox_8h.html" target="_top" xlink:title=" ">
<polygon fill="white" stroke="black" points="743,-224.5 743,-243.5 847,-243.5 847,-224.5 743,-224.5"/>
<text text-anchor="middle" x="795" y="-231.5" font-family="Helvetica,sans-Serif" font-size="10.00">graphics/skybox.h</text>
</a>
</g>
</g>
<!-- Node9&#45;&gt;Node34 -->
<g id="edge52" class="edge">
<title>Node9&#45;&gt;Node34</title>
<path fill="none" stroke="midnightblue" d="M795,-280.08C795,-273.01 795,-262.86 795,-253.99"/>
<polygon fill="midnightblue" stroke="midnightblue" points="798.5,-253.75 795,-243.75 791.5,-253.75 798.5,-253.75"/>
</g>
<!-- Node13&#45;&gt;Node5 -->
<g id="edge13" class="edge">
<title>Node13&#45;&gt;Node5</title>
<path fill="none" stroke="midnightblue" d="M717.88,-168.44C745.07,-159.09 788.69,-144.09 818.31,-133.9"/>
<polygon fill="midnightblue" stroke="midnightblue" points="819.46,-137.21 827.78,-130.64 817.18,-130.59 819.46,-137.21"/>
</g>
<!-- Node14 -->
<g id="node14" class="node">
<title>Node14</title>
<g id="a_node14"><a xlink:title=" ">
<polygon fill="white" stroke="#bfbfbf" points="927.5,-0.5 927.5,-19.5 974.5,-19.5 974.5,-0.5 927.5,-0.5"/>
<text text-anchor="middle" x="951" y="-7.5" font-family="Helvetica,sans-Serif" font-size="10.00">vector</text>
</a>
</g>
</g>
<!-- Node13&#45;&gt;Node14 -->
<g id="edge14" class="edge">
<title>Node13&#45;&gt;Node14</title>
<path fill="none" stroke="midnightblue" d="M683.06,-168.48C659.59,-147.37 604.96,-91.79 636,-56 672.14,-14.33 843.55,-10.29 917.22,-10.53"/>
<polygon fill="midnightblue" stroke="midnightblue" points="917.33,-14.03 927.35,-10.59 917.37,-7.03 917.33,-14.03"/>
</g>
<!-- Node15 -->
<g id="node15" class="node">
<title>Node15</title>
<g id="a_node15"><a xlink:title=" ">
<polygon fill="white" stroke="#bfbfbf" points="547,-0.5 547,-19.5 611,-19.5 611,-0.5 547,-0.5"/>
<text text-anchor="middle" x="579" y="-7.5" font-family="Helvetica,sans-Serif" font-size="10.00">GL/glew.h</text>
</a>
</g>
</g>
<!-- Node13&#45;&gt;Node15 -->
<g id="edge15" class="edge">
<title>Node13&#45;&gt;Node15</title>
<path fill="none" stroke="midnightblue" d="M659.95,-168.46C640.47,-161.73 616.98,-150.34 603,-132 580.03,-101.87 577.34,-55.6 577.88,-29.89"/>
<polygon fill="midnightblue" stroke="midnightblue" points="581.39,-29.78 578.29,-19.65 574.39,-29.5 581.39,-29.78"/>
</g>
<!-- Node16 -->
<g id="node16" class="node">
<title>Node16</title>
<g id="a_node16"><a xlink:title=" ">
<polygon fill="white" stroke="#bfbfbf" points="721.5,-112.5 721.5,-131.5 810.5,-131.5 810.5,-112.5 721.5,-112.5"/>
<text text-anchor="middle" x="766" y="-119.5" font-family="Helvetica,sans-Serif" font-size="10.00">maths/colour.h</text>
</a>
</g>
</g>
<!-- Node13&#45;&gt;Node16 -->
<g id="edge16" class="edge">
<title>Node13&#45;&gt;Node16</title>
<path fill="none" stroke="midnightblue" d="M704.73,-168.32C715.84,-160.11 732.74,-147.6 745.98,-137.81"/>
<polygon fill="midnightblue" stroke="midnightblue" points="748.1,-140.59 754.06,-131.83 743.94,-134.97 748.1,-140.59"/>
</g>
<!-- Node17 -->
<g id="node17" class="node">
<title>Node17</title>
<g id="a_node17"><a xlink:title=" ">
<polygon fill="white" stroke="#bfbfbf" points="455,-112.5 455,-131.5 551,-131.5 551,-112.5 455,-112.5"/>
<text text-anchor="middle" x="503" y="-119.5" font-family="Helvetica,sans-Serif" font-size="10.00">maths/vector2.h</text>
</a>
</g>
</g>
<!-- Node13&#45;&gt;Node17 -->
<g id="edge17" class="edge">
<title>Node13&#45;&gt;Node17</title>
<path fill="none" stroke="midnightblue" d="M662.89,-168.44C630.37,-159.2 578.42,-144.44 542.61,-134.26"/>
<polygon fill="midnightblue" stroke="midnightblue" points="543.54,-130.88 532.97,-131.52 541.63,-137.62 543.54,-130.88"/>
</g>
<!-- Node18 -->
<g id="node18" class="node">
<title>Node18</title>
<g id="a_node18"><a xlink:title=" ">
<polygon fill="white" stroke="#bfbfbf" points="755,-56.5 755,-75.5 851,-75.5 851,-56.5 755,-56.5"/>
<text text-anchor="middle" x="803" y="-63.5" font-family="Helvetica,sans-Serif" font-size="10.00">maths/vector3.h</text>
</a>
</g>
</g>
<!-- Node13&#45;&gt;Node18 -->
<g id="edge18" class="edge">
<title>Node13&#45;&gt;Node18</title>
<path fill="none" stroke="midnightblue" d="M693.52,-168.4C694.77,-154.9 698.96,-128.58 713,-112 725.86,-96.82 745.1,-86.24 762.49,-79.17"/>
<polygon fill="midnightblue" stroke="midnightblue" points="763.8,-82.41 771.9,-75.6 761.31,-75.87 763.8,-82.41"/>
</g>
<!-- Node19 -->
<g id="node19" class="node">
<title>Node19</title>
<g id="a_node19"><a xlink:title=" ">
<polygon fill="white" stroke="#bfbfbf" points="645,-56.5 645,-75.5 737,-75.5 737,-56.5 645,-56.5"/>
<text text-anchor="middle" x="691" y="-63.5" font-family="Helvetica,sans-Serif" font-size="10.00">maths/matrix.h</text>
</a>
</g>
</g>
<!-- Node13&#45;&gt;Node19 -->
<g id="edge19" class="edge">
<title>Node13&#45;&gt;Node19</title>
<path fill="none" stroke="midnightblue" d="M689.4,-168.22C685.94,-159.28 680.97,-144.94 679,-132 676.6,-116.22 680.35,-98.41 684.28,-85.42"/>
<polygon fill="midnightblue" stroke="midnightblue" points="687.64,-86.4 687.48,-75.8 681,-84.18 687.64,-86.4"/>
</g>
<!-- Node13&#45;&gt;Node20 -->
<g id="edge20" class="edge">
<title>Node13&#45;&gt;Node20</title>
<path fill="none" stroke="midnightblue" d="M642.93,-168.44C586.99,-158.89 496.49,-143.42 436.86,-133.23"/>
<polygon fill="midnightblue" stroke="midnightblue" points="437.28,-129.75 426.84,-131.52 436.1,-136.65 437.28,-129.75"/>
</g>
<!-- Node20&#45;&gt;Node2 -->
<g id="edge23" class="edge">
<title>Node20&#45;&gt;Node2</title>
<path fill="none" stroke="midnightblue" d="M325.82,-112.44C268.53,-102.87 175.76,-87.36 114.81,-77.17"/>
<polygon fill="midnightblue" stroke="midnightblue" points="115.38,-73.71 104.94,-75.52 114.23,-80.62 115.38,-73.71"/>
</g>
<!-- Node20&#45;&gt;Node15 -->
<g id="edge24" class="edge">
<title>Node20&#45;&gt;Node15</title>
<path fill="none" stroke="midnightblue" d="M427.6,-112.44C456.89,-105.8 493.48,-94.52 522,-76 541.21,-63.53 557.77,-42.83 568.01,-28.15"/>
<polygon fill="midnightblue" stroke="midnightblue" points="571.14,-29.77 573.8,-19.51 565.32,-25.87 571.14,-29.77"/>
</g>
<!-- Node21 -->
<g id="node21" class="node">
<title>Node21</title>
<g id="a_node21"><a xlink:title=" ">
<polygon fill="white" stroke="#bfbfbf" points="405,-56.5 405,-75.5 447,-75.5 447,-56.5 405,-56.5"/>
<text text-anchor="middle" x="426" y="-63.5" font-family="Helvetica,sans-Serif" font-size="10.00">array</text>
</a>
</g>
</g>
<!-- Node20&#45;&gt;Node21 -->
<g id="edge21" class="edge">
<title>Node20&#45;&gt;Node21</title>
<path fill="none" stroke="midnightblue" d="M385.09,-112.08C392.16,-104.3 402.59,-92.8 411.15,-83.37"/>
<polygon fill="midnightblue" stroke="midnightblue" points="413.93,-85.51 418.06,-75.75 408.75,-80.8 413.93,-85.51"/>
</g>
<!-- Node22 -->
<g id="node22" class="node">
<title>Node22</title>
<g id="a_node22"><a xlink:title=" ">
<polygon fill="white" stroke="#bfbfbf" points="465.5,-56.5 465.5,-75.5 512.5,-75.5 512.5,-56.5 465.5,-56.5"/>
<text text-anchor="middle" x="489" y="-63.5" font-family="Helvetica,sans-Serif" font-size="10.00">cmath</text>
</a>
</g>
</g>
<!-- Node20&#45;&gt;Node22 -->
<g id="edge22" class="edge">
<title>Node20&#45;&gt;Node22</title>
<path fill="none" stroke="midnightblue" d="M394.99,-112.32C413.04,-103.62 441.05,-90.12 461.8,-80.11"/>
<polygon fill="midnightblue" stroke="midnightblue" points="463.56,-83.15 471.05,-75.65 460.52,-76.84 463.56,-83.15"/>
</g>
<!-- Node23 -->
<g id="node23" class="node">
<title>Node23</title>
<g id="a_node23"><a xlink:title=" ">
<polygon fill="white" stroke="#bfbfbf" points="275.5,-56.5 275.5,-75.5 386.5,-75.5 386.5,-56.5 275.5,-56.5"/>
<text text-anchor="middle" x="331" y="-63.5" font-family="Helvetica,sans-Serif" font-size="10.00">maths/maths_util.h</text>
</a>
</g>
</g>
<!-- Node20&#45;&gt;Node23 -->
<g id="edge25" class="edge">
<title>Node20&#45;&gt;Node23</title>
<path fill="none" stroke="midnightblue" d="M369.4,-112.08C362.77,-104.3 352.98,-92.8 344.94,-83.37"/>
<polygon fill="midnightblue" stroke="midnightblue" points="347.6,-81.09 338.45,-75.75 342.27,-85.63 347.6,-81.09"/>
</g>
<!-- Node24 -->
<g id="node24" class="node">
<title>Node24</title>
<g id="a_node24"><a xlink:href="pixel__format_8h.html" target="_top" xlink:title=" ">
<polygon fill="white" stroke="black" points="126.5,-56.5 126.5,-75.5 257.5,-75.5 257.5,-56.5 126.5,-56.5"/>
<text text-anchor="middle" x="192" y="-63.5" font-family="Helvetica,sans-Serif" font-size="10.00">graphics/pixel_format.h</text>
</a>
</g>
</g>
<!-- Node20&#45;&gt;Node24 -->
<g id="edge26" class="edge">
<title>Node20&#45;&gt;Node24</title>
<path fill="none" stroke="midnightblue" d="M347.69,-112.44C316.16,-103.24 265.87,-88.56 231.01,-78.39"/>
<polygon fill="midnightblue" stroke="midnightblue" points="231.76,-74.96 221.18,-75.52 229.8,-81.68 231.76,-74.96"/>
</g>
<!-- Node24&#45;&gt;Node15 -->
<g id="edge28" class="edge">
<title>Node24&#45;&gt;Node15</title>
<path fill="none" stroke="midnightblue" d="M253.32,-56.44C332.59,-45.38 468.54,-26.41 537,-16.86"/>
<polygon fill="midnightblue" stroke="midnightblue" points="537.57,-20.31 546.99,-15.47 536.6,-13.38 537.57,-20.31"/>
</g>
<!-- Node25 -->
<g id="node25" class="node">
<title>Node25</title>
<g id="a_node25"><a xlink:title=" ">
<polygon fill="white" stroke="#bfbfbf" points="159.5,-0.5 159.5,-19.5 224.5,-19.5 224.5,-0.5 159.5,-0.5"/>
<text text-anchor="middle" x="192" y="-7.5" font-family="Helvetica,sans-Serif" font-size="10.00">stdexcept</text>
</a>
</g>
</g>
<!-- Node24&#45;&gt;Node25 -->
<g id="edge27" class="edge">
<title>Node24&#45;&gt;Node25</title>
<path fill="none" stroke="midnightblue" d="M192,-56.08C192,-49.01 192,-38.86 192,-29.99"/>
<polygon fill="midnightblue" stroke="midnightblue" points="195.5,-29.75 192,-19.75 188.5,-29.75 195.5,-29.75"/>
</g>
<!-- Node26&#45;&gt;Node10 -->
<g id="edge30" class="edge">
<title>Node26&#45;&gt;Node10</title>
<path fill="none" stroke="midnightblue" d="M628.7,-230.72C710.6,-226.56 867.98,-215.47 999,-188 1079.34,-171.16 1104.69,-174.37 1175,-132 1205.42,-113.67 1213.98,-106.6 1232,-76 1240.45,-61.65 1245.06,-43.19 1247.5,-29.61"/>
<polygon fill="midnightblue" stroke="midnightblue" points="1250.99,-29.97 1249.07,-19.55 1244.07,-28.89 1250.99,-29.97"/>
</g>
<!-- Node26&#45;&gt;Node13 -->
<g id="edge33" class="edge">
<title>Node26&#45;&gt;Node13</title>
<path fill="none" stroke="midnightblue" d="M592.01,-224.44C611.59,-215.64 642.31,-201.81 664.73,-191.72"/>
<polygon fill="midnightblue" stroke="midnightblue" points="666.39,-194.81 674.07,-187.52 663.52,-188.43 666.39,-194.81"/>
</g>
<!-- Node26&#45;&gt;Node17 -->
<g id="edge31" class="edge">
<title>Node26&#45;&gt;Node17</title>
<path fill="none" stroke="midnightblue" d="M568.12,-224.48C560.89,-211.96 546.82,-187.92 534,-168 527.89,-158.51 520.77,-148.12 514.89,-139.72"/>
<polygon fill="midnightblue" stroke="midnightblue" points="517.73,-137.67 509.11,-131.52 512.01,-141.71 517.73,-137.67"/>
</g>
<!-- Node26&#45;&gt;Node20 -->
<g id="edge32" class="edge">
<title>Node26&#45;&gt;Node20</title>
<path fill="none" stroke="midnightblue" d="M517.49,-226.27C469.6,-219.29 405.46,-206.75 388,-188 376.67,-175.84 374.66,-156.57 375.03,-142.16"/>
<polygon fill="midnightblue" stroke="midnightblue" points="378.55,-142.09 375.71,-131.88 371.56,-141.62 378.55,-142.09"/>
</g>
<!-- Node27 -->
<g id="node27" class="node">
<title>Node27</title>
<g id="a_node27"><a xlink:href="render__path_8h.html" target="_top" xlink:title=" ">
<polygon fill="white" stroke="black" points="397,-168.5 397,-187.5 525,-187.5 525,-168.5 397,-168.5"/>
<text text-anchor="middle" x="461" y="-175.5" font-family="Helvetica,sans-Serif" font-size="10.00">graphics/render_path.h</text>
</a>
</g>
</g>
<!-- Node26&#45;&gt;Node27 -->
<g id="edge34" class="edge">
<title>Node26&#45;&gt;Node27</title>
<path fill="none" stroke="midnightblue" d="M555.01,-224.32C536.96,-215.62 508.95,-202.12 488.2,-192.11"/>
<polygon fill="midnightblue" stroke="midnightblue" points="489.48,-188.84 478.95,-187.65 486.44,-195.15 489.48,-188.84"/>
</g>
<!-- Node28&#45;&gt;Node5 -->
<g id="edge38" class="edge">
<title>Node28&#45;&gt;Node5</title>
<path fill="none" stroke="midnightblue" d="M926.38,-168.32C912.05,-159.82 889.99,-146.73 873.25,-136.8"/>
<polygon fill="midnightblue" stroke="midnightblue" points="874.97,-133.75 864.58,-131.65 871.4,-139.77 874.97,-133.75"/>
</g>
<!-- Node28&#45;&gt;Node10 -->
<g id="edge36" class="edge">
<title>Node28&#45;&gt;Node10</title>
<path fill="none" stroke="midnightblue" d="M989.73,-172.84C1032.47,-167.69 1095.36,-156.39 1145,-132 1179.83,-114.89 1186.94,-105.64 1212,-76 1224.24,-61.52 1234.81,-42.59 1241.67,-28.89"/>
<polygon fill="midnightblue" stroke="midnightblue" points="1244.96,-30.13 1246.16,-19.6 1238.66,-27.08 1244.96,-30.13"/>
</g>
<!-- Node28&#45;&gt;Node14 -->
<g id="edge37" class="edge">
<title>Node28&#45;&gt;Node14</title>
<path fill="none" stroke="midnightblue" d="M959.5,-168.38C982.42,-156.5 1016.64,-134.04 1001,-112 972.93,-72.46 926.07,-115.54 898,-76 884.99,-57.67 906.94,-37.81 926.42,-24.94"/>
<polygon fill="midnightblue" stroke="midnightblue" points="928.43,-27.8 935.06,-19.54 924.72,-21.87 928.43,-27.8"/>
</g>
<!-- Node29 -->
<g id="node29" class="node">
<title>Node29</title>
<g id="a_node29"><a xlink:href="vertex_8h.html" target="_top" xlink:title=" ">
<polygon fill="white" stroke="black" points="890.5,-112.5 890.5,-131.5 991.5,-131.5 991.5,-112.5 890.5,-112.5"/>
<text text-anchor="middle" x="941" y="-119.5" font-family="Helvetica,sans-Serif" font-size="10.00">graphics/vertex.h</text>
</a>
</g>
</g>
<!-- Node28&#45;&gt;Node29 -->
<g id="edge39" class="edge">
<title>Node28&#45;&gt;Node29</title>
<path fill="none" stroke="midnightblue" d="M941,-168.08C941,-161.01 941,-150.86 941,-141.99"/>
<polygon fill="midnightblue" stroke="midnightblue" points="944.5,-141.75 941,-131.75 937.5,-141.75 944.5,-141.75"/>
</g>
<!-- Node30 -->
<g id="node30" class="node">
<title>Node30</title>
<g id="a_node30"><a xlink:href="vao_8h.html" target="_top" xlink:title=" ">
<polygon fill="white" stroke="black" points="1048,-112.5 1048,-131.5 1136,-131.5 1136,-112.5 1048,-112.5"/>
<text text-anchor="middle" x="1092" y="-119.5" font-family="Helvetica,sans-Serif" font-size="10.00">graphics/vao.h</text>
</a>
</g>
</g>
<!-- Node28&#45;&gt;Node30 -->
<g id="edge42" class="edge">
<title>Node28&#45;&gt;Node30</title>
<path fill="none" stroke="midnightblue" d="M964.93,-168.44C990.22,-159.4 1030.3,-145.06 1058.68,-134.92"/>
<polygon fill="midnightblue" stroke="midnightblue" points="1059.95,-138.18 1068.19,-131.52 1057.59,-131.59 1059.95,-138.18"/>
</g>
<!-- Node29&#45;&gt;Node18 -->
<g id="edge41" class="edge">
<title>Node29&#45;&gt;Node18</title>
<path fill="none" stroke="midnightblue" d="M919.13,-112.44C896.22,-103.48 860.02,-89.31 834.13,-79.18"/>
<polygon fill="midnightblue" stroke="midnightblue" points="835.35,-75.9 824.76,-75.52 832.8,-82.42 835.35,-75.9"/>
</g>
<!-- Node29&#45;&gt;Node19 -->
<g id="edge40" class="edge">
<title>Node29&#45;&gt;Node19</title>
<path fill="none" stroke="midnightblue" d="M901.39,-112.44C857.77,-103.02 787.6,-87.87 740.42,-77.68"/>
<polygon fill="midnightblue" stroke="midnightblue" points="740.94,-74.21 730.43,-75.52 739.46,-81.05 740.94,-74.21"/>
</g>
<!-- Node30&#45;&gt;Node14 -->
<g id="edge44" class="edge">
<title>Node30&#45;&gt;Node14</title>
<path fill="none" stroke="midnightblue" d="M1080.94,-112.37C1056.95,-93.65 999.9,-49.15 970.01,-25.83"/>
<polygon fill="midnightblue" stroke="midnightblue" points="972.05,-22.98 962.01,-19.59 967.74,-28.5 972.05,-22.98"/>
</g>
<!-- Node31 -->
<g id="node31" class="node">
<title>Node31</title>
<g id="a_node31"><a xlink:title=" ">
<polygon fill="white" stroke="#bfbfbf" points="1157.5,-56.5 1157.5,-75.5 1202.5,-75.5 1202.5,-56.5 1157.5,-56.5"/>
<text text-anchor="middle" x="1180" y="-63.5" font-family="Helvetica,sans-Serif" font-size="10.00">utility</text>
</a>
</g>
</g>
<!-- Node30&#45;&gt;Node31 -->
<g id="edge43" class="edge">
<title>Node30&#45;&gt;Node31</title>
<path fill="none" stroke="midnightblue" d="M1106.14,-112.32C1119.87,-103.9 1140.94,-90.97 1157.06,-81.07"/>
<polygon fill="midnightblue" stroke="midnightblue" points="1159.2,-83.87 1165.9,-75.65 1155.54,-77.9 1159.2,-83.87"/>
</g>
<!-- Node32 -->
<g id="node32" class="node">
<title>Node32</title>
<g id="a_node32"><a xlink:href="vbo_8h.html" target="_top" xlink:title=" ">
<polygon fill="white" stroke="black" points="1051,-56.5 1051,-75.5 1139,-75.5 1139,-56.5 1051,-56.5"/>
<text text-anchor="middle" x="1095" y="-63.5" font-family="Helvetica,sans-Serif" font-size="10.00">graphics/vbo.h</text>
</a>
</g>
</g>
<!-- Node30&#45;&gt;Node32 -->
<g id="edge45" class="edge">
<title>Node30&#45;&gt;Node32</title>
<path fill="none" stroke="midnightblue" d="M1092.5,-112.08C1092.89,-105.01 1093.45,-94.86 1093.95,-85.99"/>
<polygon fill="midnightblue" stroke="midnightblue" points="1097.45,-85.93 1094.51,-75.75 1090.46,-85.54 1097.45,-85.93"/>
</g>
<!-- Node33 -->
<g id="node33" class="node">
<title>Node33</title>
<g id="a_node33"><a xlink:href="ebo_8h.html" target="_top" xlink:title=" ">
<polygon fill="white" stroke="black" points="907,-56.5 907,-75.5 995,-75.5 995,-56.5 907,-56.5"/>
<text text-anchor="middle" x="951" y="-63.5" font-family="Helvetica,sans-Serif" font-size="10.00">graphics/ebo.h</text>
</a>
</g>
</g>
<!-- Node30&#45;&gt;Node33 -->
<g id="edge49" class="edge">
<title>Node30&#45;&gt;Node33</title>
<path fill="none" stroke="midnightblue" d="M1069.66,-112.44C1046.25,-103.48 1009.26,-89.31 982.81,-79.18"/>
<polygon fill="midnightblue" stroke="midnightblue" points="983.83,-75.82 973.24,-75.52 981.32,-82.36 983.83,-75.82"/>
</g>
<!-- Node32&#45;&gt;Node10 -->
<g id="edge47" class="edge">
<title>Node32&#45;&gt;Node10</title>
<path fill="none" stroke="midnightblue" d="M1119.56,-56.44C1145.52,-47.4 1186.67,-33.06 1215.8,-22.92"/>
<polygon fill="midnightblue" stroke="midnightblue" points="1217.26,-26.11 1225.55,-19.52 1214.96,-19.5 1217.26,-26.11"/>
</g>
<!-- Node32&#45;&gt;Node14 -->
<g id="edge46" class="edge">
<title>Node32&#45;&gt;Node14</title>
<path fill="none" stroke="midnightblue" d="M1072.18,-56.44C1048.17,-47.44 1010.17,-33.19 983.13,-23.05"/>
<polygon fill="midnightblue" stroke="midnightblue" points="984.3,-19.75 973.71,-19.52 981.84,-26.3 984.3,-19.75"/>
</g>
<!-- Node32&#45;&gt;Node15 -->
<g id="edge48" class="edge">
<title>Node32&#45;&gt;Node15</title>
<path fill="none" stroke="midnightblue" d="M1050.56,-60.35C952.3,-50.07 717.71,-25.52 621.39,-15.44"/>
<polygon fill="midnightblue" stroke="midnightblue" points="621.46,-11.92 611.15,-14.36 620.73,-18.89 621.46,-11.92"/>
</g>
<!-- Node33&#45;&gt;Node15 -->
<g id="edge50" class="edge">
<title>Node33&#45;&gt;Node15</title>
<path fill="none" stroke="midnightblue" d="M906.87,-58.59C834.59,-48.1 691.96,-27.4 621.06,-17.11"/>
<polygon fill="midnightblue" stroke="midnightblue" points="621.53,-13.64 611.13,-15.66 620.53,-20.56 621.53,-13.64"/>
</g>
<!-- Node34&#45;&gt;Node13 -->
<g id="edge56" class="edge">
<title>Node34&#45;&gt;Node13</title>
<path fill="none" stroke="midnightblue" d="M778.61,-224.32C762.33,-215.7 737.13,-202.36 718.28,-192.39"/>
<polygon fill="midnightblue" stroke="midnightblue" points="719.82,-189.24 709.35,-187.65 716.55,-195.43 719.82,-189.24"/>
</g>
<!-- Node34&#45;&gt;Node16 -->
<g id="edge53" class="edge">
<title>Node34&#45;&gt;Node16</title>
<path fill="none" stroke="midnightblue" d="M792.72,-224.37C788.02,-206.54 777.15,-165.3 770.82,-141.27"/>
<polygon fill="midnightblue" stroke="midnightblue" points="774.2,-140.37 768.27,-131.59 767.43,-142.15 774.2,-140.37"/>
</g>
<!-- Node34&#45;&gt;Node20 -->
<g id="edge55" class="edge">
<title>Node34&#45;&gt;Node20</title>
<path fill="none" stroke="midnightblue" d="M758.4,-224.48C721.02,-215.69 661.33,-201.4 610,-188 541.48,-170.11 462.13,-147.59 415.95,-134.3"/>
<polygon fill="midnightblue" stroke="midnightblue" points="416.92,-130.93 406.34,-131.52 414.98,-137.66 416.92,-130.93"/>
</g>
<!-- Node34&#45;&gt;Node28 -->
<g id="edge54" class="edge">
<title>Node34&#45;&gt;Node28</title>
<path fill="none" stroke="midnightblue" d="M818.13,-224.44C842.48,-215.44 881.01,-201.19 908.42,-191.05"/>
<polygon fill="midnightblue" stroke="midnightblue" points="909.81,-194.27 917.97,-187.52 907.38,-187.7 909.81,-194.27"/>
</g>
</g>
</svg>
