<?xml version="1.0" encoding="UTF-8" standalone="no"?>
<!DOCTYPE svg PUBLIC "-//W3C//DTD SVG 1.1//EN"
 "http://www.w3.org/Graphics/SVG/1.1/DTD/svg11.dtd">
<!-- Generated by graphviz version 2.43.0 (0)
 -->
<!-- Title: src/input/axis_handler.h Pages: 1 -->
<svg width="833pt" height="285pt"
 viewBox="0.00 0.00 833.00 285.00" xmlns="http://www.w3.org/2000/svg" xmlns:xlink="http://www.w3.org/1999/xlink">
<g id="graph0" class="graph" transform="scale(1 1) rotate(0) translate(4 281)">
<title>src/input/axis_handler.h</title>
<polygon fill="white" stroke="transparent" points="-4,4 -4,-281 829,-281 829,4 -4,4"/>
<!-- Node1 -->
<g id="node1" class="node">
<title>Node1</title>
<g id="a_node1"><a xlink:title=" ">
<polygon fill="#bfbfbf" stroke="black" points="211.5,-257.5 211.5,-276.5 343.5,-276.5 343.5,-257.5 211.5,-257.5"/>
<text text-anchor="middle" x="277.5" y="-264.5" font-family="Helvetica,sans-Serif" font-size="10.00">src/input/axis_handler.h</text>
</a>
</g>
</g>
<!-- Node2 -->
<g id="node2" class="node">
<title>Node2</title>
<g id="a_node2"><a xlink:href="axis__handler_8cpp.html" target="_top" xlink:title=" ">
<polygon fill="white" stroke="black" points="126,-201.5 126,-220.5 269,-220.5 269,-201.5 126,-201.5"/>
<text text-anchor="middle" x="197.5" y="-208.5" font-family="Helvetica,sans-Serif" font-size="10.00">src/input/axis_handler.cpp</text>
</a>
</g>
</g>
<!-- Node1&#45;&gt;Node2 -->
<g id="edge1" class="edge">
<title>Node1&#45;&gt;Node2</title>
<path fill="none" stroke="midnightblue" d="M256.2,-251.62C241.58,-241.76 222.67,-228.99 210.32,-220.65"/>
<polygon fill="midnightblue" stroke="midnightblue" points="254.4,-254.63 264.65,-257.32 258.32,-248.83 254.4,-254.63"/>
</g>
<!-- Node3 -->
<g id="node3" class="node">
<title>Node3</title>
<g id="a_node3"><a xlink:href="input__manager_8h.html" target="_top" xlink:title=" ">
<polygon fill="white" stroke="black" points="287,-201.5 287,-220.5 430,-220.5 430,-201.5 287,-201.5"/>
<text text-anchor="middle" x="358.5" y="-208.5" font-family="Helvetica,sans-Serif" font-size="10.00">src/input/input_manager.h</text>
</a>
</g>
</g>
<!-- Node1&#45;&gt;Node3 -->
<g id="edge2" class="edge">
<title>Node1&#45;&gt;Node3</title>
<path fill="none" stroke="midnightblue" d="M299.07,-251.62C313.86,-241.76 333.01,-228.99 345.52,-220.65"/>
<polygon fill="midnightblue" stroke="midnightblue" points="296.89,-248.86 290.51,-257.32 300.78,-254.69 296.89,-248.86"/>
</g>
<!-- Node4 -->
<g id="node4" class="node">
<title>Node4</title>
<g id="a_node4"><a xlink:href="application_8cpp.html" target="_top" xlink:title=" ">
<polygon fill="white" stroke="black" points="0,-140 0,-159 165,-159 165,-140 0,-140"/>
<text text-anchor="middle" x="82.5" y="-147" font-family="Helvetica,sans-Serif" font-size="10.00">src/application/application.cpp</text>
</a>
</g>
</g>
<!-- Node3&#45;&gt;Node4 -->
<g id="edge3" class="edge">
<title>Node3&#45;&gt;Node4</title>
<path fill="none" stroke="midnightblue" d="M309.01,-199.33C255.48,-187.79 171.23,-169.63 121.97,-159.01"/>
<polygon fill="midnightblue" stroke="midnightblue" points="308.44,-202.79 318.96,-201.48 309.92,-195.95 308.44,-202.79"/>
</g>
<!-- Node5 -->
<g id="node5" class="node">
<title>Node5</title>
<g id="a_node5"><a xlink:href="game__scene_8cpp.html" target="_top" xlink:title=" ">
<polygon fill="white" stroke="black" points="169.5,-0.5 169.5,-30.5 293.5,-30.5 293.5,-0.5 169.5,-0.5"/>
<text text-anchor="start" x="177.5" y="-18.5" font-family="Helvetica,sans-Serif" font-size="10.00">src/game/scene/game</text>
<text text-anchor="middle" x="231.5" y="-7.5" font-family="Helvetica,sans-Serif" font-size="10.00">_scene.cpp</text>
</a>
</g>
</g>
<!-- Node3&#45;&gt;Node5 -->
<g id="edge4" class="edge">
<title>Node3&#45;&gt;Node5</title>
<path fill="none" stroke="midnightblue" d="M300.27,-199.36C264.41,-191.5 223.3,-179.63 212.5,-165 182.4,-124.22 209.18,-59.41 223.65,-30.83"/>
<polygon fill="midnightblue" stroke="midnightblue" points="299.7,-202.82 310.21,-201.48 301.16,-195.97 299.7,-202.82"/>
</g>
<!-- Node6 -->
<g id="node6" class="node">
<title>Node6</title>
<g id="a_node6"><a xlink:href="body__control__system_8h.html" target="_top" xlink:title=" ">
<polygon fill="white" stroke="black" points="221.5,-134.5 221.5,-164.5 349.5,-164.5 349.5,-134.5 221.5,-134.5"/>
<text text-anchor="start" x="229.5" y="-152.5" font-family="Helvetica,sans-Serif" font-size="10.00">src/game/system/body</text>
<text text-anchor="middle" x="285.5" y="-141.5" font-family="Helvetica,sans-Serif" font-size="10.00">_control_system.h</text>
</a>
</g>
</g>
<!-- Node3&#45;&gt;Node6 -->
<g id="edge5" class="edge">
<title>Node3&#45;&gt;Node6</title>
<path fill="none" stroke="midnightblue" d="M340,-194.92C328.54,-185.58 313.92,-173.66 302.7,-164.52"/>
<polygon fill="midnightblue" stroke="midnightblue" points="338.08,-197.87 348.04,-201.48 342.5,-192.44 338.08,-197.87"/>
</g>
<!-- Node9 -->
<g id="node9" class="node">
<title>Node9</title>
<g id="a_node9"><a xlink:href="head__control__system_8h.html" target="_top" xlink:title=" ">
<polygon fill="white" stroke="black" points="367.5,-134.5 367.5,-164.5 495.5,-164.5 495.5,-134.5 367.5,-134.5"/>
<text text-anchor="start" x="375.5" y="-152.5" font-family="Helvetica,sans-Serif" font-size="10.00">src/game/system/head</text>
<text text-anchor="middle" x="431.5" y="-141.5" font-family="Helvetica,sans-Serif" font-size="10.00">_control_system.h</text>
</a>
</g>
</g>
<!-- Node3&#45;&gt;Node9 -->
<g id="edge9" class="edge">
<title>Node3&#45;&gt;Node9</title>
<path fill="none" stroke="midnightblue" d="M377,-194.92C388.46,-185.58 403.08,-173.66 414.3,-164.52"/>
<polygon fill="midnightblue" stroke="midnightblue" points="374.5,-192.44 368.96,-201.48 378.92,-197.87 374.5,-192.44"/>
</g>
<!-- Node10 -->
<g id="node10" class="node">
<title>Node10</title>
<g id="a_node10"><a xlink:href="motion__test__system_8h.html" target="_top" xlink:title=" ">
<polygon fill="white" stroke="black" points="513.5,-134.5 513.5,-164.5 651.5,-164.5 651.5,-134.5 513.5,-134.5"/>
<text text-anchor="start" x="521.5" y="-152.5" font-family="Helvetica,sans-Serif" font-size="10.00">src/game/system/motion</text>
<text text-anchor="middle" x="582.5" y="-141.5" font-family="Helvetica,sans-Serif" font-size="10.00">_test_system.h</text>
</a>
</g>
</g>
<!-- Node3&#45;&gt;Node10 -->
<g id="edge11" class="edge">
<title>Node3&#45;&gt;Node10</title>
<path fill="none" stroke="midnightblue" d="M400.44,-198.86C437.02,-189.14 490.24,-175.01 529.71,-164.52"/>
<polygon fill="midnightblue" stroke="midnightblue" points="399.36,-195.53 390.59,-201.48 401.16,-202.29 399.36,-195.53"/>
</g>
<!-- Node11 -->
<g id="node11" class="node">
<title>Node11</title>
<g id="a_node11"><a xlink:href="input__manager_8cpp.html" target="_top" xlink:title=" ">
<polygon fill="white" stroke="black" points="670,-140 670,-159 825,-159 825,-140 670,-140"/>
<text text-anchor="middle" x="747.5" y="-147" font-family="Helvetica,sans-Serif" font-size="10.00">src/input/input_manager.cpp</text>
</a>
</g>
</g>
<!-- Node3&#45;&gt;Node11 -->
<g id="edge13" class="edge">
<title>Node3&#45;&gt;Node11</title>
<path fill="none" stroke="midnightblue" d="M427.79,-200.02C489.04,-191.12 580.77,-177.58 660.5,-165 672.45,-163.11 685.31,-161.01 697.38,-159.01"/>
<polygon fill="midnightblue" stroke="midnightblue" points="427.25,-196.56 417.86,-201.46 428.25,-203.49 427.25,-196.56"/>
</g>
<!-- Node7 -->
<g id="node7" class="node">
<title>Node7</title>
<g id="a_node7"><a xlink:href="game__scene_8h.html" target="_top" xlink:title=" ">
<polygon fill="white" stroke="black" points="349.5,-67.5 349.5,-97.5 473.5,-97.5 473.5,-67.5 349.5,-67.5"/>
<text text-anchor="start" x="357.5" y="-85.5" font-family="Helvetica,sans-Serif" font-size="10.00">src/game/scene/game</text>
<text text-anchor="middle" x="411.5" y="-74.5" font-family="Helvetica,sans-Serif" font-size="10.00">_scene.h</text>
</a>
</g>
</g>
<!-- Node6&#45;&gt;Node7 -->
<g id="edge6" class="edge">
<title>Node6&#45;&gt;Node7</title>
<path fill="none" stroke="midnightblue" d="M321.92,-129.71C341.79,-119.46 365.98,-106.98 384.21,-97.58"/>
<polygon fill="midnightblue" stroke="midnightblue" points="320.12,-126.7 312.84,-134.4 323.33,-132.92 320.12,-126.7"/>
</g>
<!-- Node7&#45;&gt;Node5 -->
<g id="edge7" class="edge">
<title>Node7&#45;&gt;Node5</title>
<path fill="none" stroke="midnightblue" d="M362.91,-63.96C333.92,-53.48 297.59,-40.37 270.48,-30.58"/>
<polygon fill="midnightblue" stroke="midnightblue" points="361.85,-67.29 372.44,-67.4 364.23,-60.71 361.85,-67.29"/>
</g>
<!-- Node8 -->
<g id="node8" class="node">
<title>Node8</title>
<g id="a_node8"><a xlink:href="scene__manager_8cpp.html" target="_top" xlink:title=" ">
<polygon fill="white" stroke="black" points="330.5,-6 330.5,-25 492.5,-25 492.5,-6 330.5,-6"/>
<text text-anchor="middle" x="411.5" y="-13" font-family="Helvetica,sans-Serif" font-size="10.00">src/scene/scene_manager.cpp</text>
</a>
</g>
</g>
<!-- Node7&#45;&gt;Node8 -->
<g id="edge8" class="edge">
<title>Node7&#45;&gt;Node8</title>
<path fill="none" stroke="midnightblue" d="M411.5,-57.25C411.5,-46.02 411.5,-33.38 411.5,-25.19"/>
<polygon fill="midnightblue" stroke="midnightblue" points="408,-57.4 411.5,-67.4 415,-57.4 408,-57.4"/>
</g>
<!-- Node9&#45;&gt;Node7 -->
<g id="edge10" class="edge">
<title>Node9&#45;&gt;Node7</title>
<path fill="none" stroke="midnightblue" d="M424.18,-124.7C421.37,-115.59 418.27,-105.49 415.83,-97.58"/>
<polygon fill="midnightblue" stroke="midnightblue" points="420.87,-125.87 427.16,-134.4 427.56,-123.81 420.87,-125.87"/>
</g>
<!-- Node10&#45;&gt;Node7 -->
<g id="edge12" class="edge">
<title>Node10&#45;&gt;Node7</title>
<path fill="none" stroke="midnightblue" d="M535.98,-130.82C508.5,-120.37 474.17,-107.32 448.53,-97.58"/>
<polygon fill="midnightblue" stroke="midnightblue" points="534.8,-134.11 545.4,-134.4 537.29,-127.57 534.8,-134.11"/>
</g>
</g>
</svg>
