<?xml version="1.0" encoding="UTF-8" standalone="no"?>
<!DOCTYPE svg PUBLIC "-//W3C//DTD SVG 1.1//EN"
 "http://www.w3.org/Graphics/SVG/1.1/DTD/svg11.dtd">
<!-- Generated by graphviz version 2.43.0 (0)
 -->
<!-- Title: src/component/camera.h Pages: 1 -->
<!--zoomable 319 -->
<svg id="main" version="1.1" xmlns="http://www.w3.org/2000/svg" xmlns:xlink="http://www.w3.org/1999/xlink" xml:space="preserve" onload="init(evt)">
<style type="text/css"><![CDATA[
.edge:hover path { stroke: red; }
.edge:hover polygon { stroke: red; fill: red; }
]]></style>
<script type="text/javascript"><![CDATA[
var edges = document.getElementsByTagName('g');
if (edges && edges.length) {
  for (var i=0;i<edges.length;i++) {
    if (edges[i].id.substr(0,4)=='edge') {
      edges[i].setAttribute('class','edge');
    }
  }
}
]]></script>
        <defs>
                <circle id="rim" cx="0" cy="0" r="7"/>
                <circle id="rim2" cx="0" cy="0" r="3.5"/>
                <g id="zoomPlus">
                        <use xlink:href="#rim" fill="#404040">
                                <set attributeName="fill" to="#808080" begin="zoomplus.mouseover" end="zoomplus.mouseout"/>
                        </use>
                        <path d="M-4,0h8M0,-4v8" fill="none" stroke="white" stroke-width="1.5" pointer-events="none"/>
                </g>
                <g id="zoomMin">
                        <use xlink:href="#rim" fill="#404040">
                                <set attributeName="fill" to="#808080" begin="zoomminus.mouseover" end="zoomminus.mouseout"/>
                        </use>
                        <path d="M-4,0h8" fill="none" stroke="white" stroke-width="1.5" pointer-events="none"/>
                </g>
                <g id="dirArrow">
                        <path fill="none" stroke="white" stroke-width="1.5" d="M0,-3.0v7 M-2.5,-0.5L0,-3.0L2.5,-0.5"/>
                </g>
               <g id="resetDef">
                       <use xlink:href="#rim2" fill="#404040">
                               <set attributeName="fill" to="#808080" begin="reset.mouseover" end="reset.mouseout"/>
                       </use>
               </g>
        </defs>

<script type="text/javascript">
var viewWidth = 1612;
var viewHeight = 319;
var sectionId = 'dynsection-0';
</script>
<script xlink:href="svgpan.js"/>
<svg id="graph" class="graph">
<g id="viewport">
<title>src/component/camera.h</title>
<polygon fill="white" stroke="transparent" points="-4,4 -4,-315 1607.5,-315 1607.5,4 -4,4"/>
<!-- Node1 -->
<g id="node1" class="node">
<title>Node1</title>
<g id="a_node1"><a xlink:title=" ">
<polygon fill="#bfbfbf" stroke="black" points="772,-291.5 772,-310.5 909,-310.5 909,-291.5 772,-291.5"/>
<text text-anchor="middle" x="840.5" y="-298.5" font-family="Helvetica,sans-Serif" font-size="10.00">src/component/camera.h</text>
</a>
</g>
</g>
<!-- Node2 -->
<g id="node2" class="node">
<title>Node2</title>
<g id="a_node2"><a xlink:title=" ">
<polygon fill="white" stroke="#bfbfbf" points="1052.5,-0.5 1052.5,-19.5 1110.5,-19.5 1110.5,-0.5 1052.5,-0.5"/>
<text text-anchor="middle" x="1081.5" y="-7.5" font-family="Helvetica,sans-Serif" font-size="10.00">memory</text>
</a>
</g>
</g>
<!-- Node1&#45;&gt;Node2 -->
<g id="edge1" class="edge">
<title>Node1&#45;&gt;Node2</title>
<path fill="none" stroke="midnightblue" d="M909.22,-297.26C1096.77,-288.89 1603.5,-259.8 1603.5,-190 1603.5,-190 1603.5,-190 1603.5,-126.5 1603.5,-27.73 1242.72,-13.36 1121.03,-11.32"/>
<polygon fill="midnightblue" stroke="midnightblue" points="1120.73,-7.81 1110.68,-11.17 1120.63,-14.81 1120.73,-7.81"/>
</g>
<!-- Node3 -->
<g id="node3" class="node">
<title>Node3</title>
<g id="a_node3"><a xlink:href="shader__program_8h.html" target="_top" xlink:title=" ">
<polygon fill="white" stroke="black" points="318.5,-112.5 318.5,-142.5 448.5,-142.5 448.5,-112.5 318.5,-112.5"/>
<text text-anchor="start" x="326.5" y="-130.5" font-family="Helvetica,sans-Serif" font-size="10.00">graphics/shader/shader</text>
<text text-anchor="middle" x="383.5" y="-119.5" font-family="Helvetica,sans-Serif" font-size="10.00">_program.h</text>
</a>
</g>
</g>
<!-- Node1&#45;&gt;Node3 -->
<g id="edge2" class="edge">
<title>Node1&#45;&gt;Node3</title>
<path fill="none" stroke="midnightblue" d="M771.85,-295.22C691.2,-288.77 562.88,-275.65 519.5,-255 468.35,-230.66 423.37,-180.16 400.16,-150.86"/>
<polygon fill="midnightblue" stroke="midnightblue" points="402.84,-148.61 393.95,-142.85 397.31,-152.9 402.84,-148.61"/>
</g>
<!-- Node11 -->
<g id="node11" class="node">
<title>Node11</title>
<g id="a_node11"><a xlink:href="texture_8h.html" target="_top" xlink:title=" ">
<polygon fill="white" stroke="black" points="1052,-179.5 1052,-198.5 1195,-198.5 1195,-179.5 1052,-179.5"/>
<text text-anchor="middle" x="1123.5" y="-186.5" font-family="Helvetica,sans-Serif" font-size="10.00">graphics/texture/texture.h</text>
</a>
</g>
</g>
<!-- Node1&#45;&gt;Node11 -->
<g id="edge10" class="edge">
<title>Node1&#45;&gt;Node11</title>
<path fill="none" stroke="midnightblue" d="M862.71,-291.37C912.72,-271.93 1034.29,-224.67 1092.04,-202.23"/>
<polygon fill="midnightblue" stroke="midnightblue" points="1093.34,-205.48 1101.4,-198.59 1090.81,-198.95 1093.34,-205.48"/>
</g>
<!-- Node18 -->
<g id="node18" class="node">
<title>Node18</title>
<g id="a_node18"><a xlink:href="skybox_8h.html" target="_top" xlink:title=" ">
<polygon fill="white" stroke="black" points="528.5,-235.5 528.5,-254.5 672.5,-254.5 672.5,-235.5 528.5,-235.5"/>
<text text-anchor="middle" x="600.5" y="-242.5" font-family="Helvetica,sans-Serif" font-size="10.00">graphics/lighting/skybox.h</text>
</a>
</g>
</g>
<!-- Node1&#45;&gt;Node18 -->
<g id="edge19" class="edge">
<title>Node1&#45;&gt;Node18</title>
<path fill="none" stroke="midnightblue" d="M802.47,-291.44C760.69,-282.04 693.52,-266.93 648.23,-256.74"/>
<polygon fill="midnightblue" stroke="midnightblue" points="648.88,-253.3 638.35,-254.52 647.34,-260.13 648.88,-253.3"/>
</g>
<!-- Node4 -->
<g id="node4" class="node">
<title>Node4</title>
<g id="a_node4"><a xlink:title=" ">
<polygon fill="white" stroke="#bfbfbf" points="559.5,-56.5 559.5,-75.5 603.5,-75.5 603.5,-56.5 559.5,-56.5"/>
<text text-anchor="middle" x="581.5" y="-63.5" font-family="Helvetica,sans-Serif" font-size="10.00">string</text>
</a>
</g>
</g>
<!-- Node3&#45;&gt;Node4 -->
<g id="edge3" class="edge">
<title>Node3&#45;&gt;Node4</title>
<path fill="none" stroke="midnightblue" d="M430.17,-112.47C466.9,-101.44 517.11,-86.35 549.43,-76.64"/>
<polygon fill="midnightblue" stroke="midnightblue" points="550.68,-79.92 559.25,-73.69 548.67,-73.21 550.68,-79.92"/>
</g>
<!-- Node5 -->
<g id="node5" class="node">
<title>Node5</title>
<g id="a_node5"><a xlink:title=" ">
<polygon fill="white" stroke="#bfbfbf" points="484,-0.5 484,-19.5 531,-19.5 531,-0.5 484,-0.5"/>
<text text-anchor="middle" x="507.5" y="-7.5" font-family="Helvetica,sans-Serif" font-size="10.00">vector</text>
</a>
</g>
</g>
<!-- Node3&#45;&gt;Node5 -->
<g id="edge4" class="edge">
<title>Node3&#45;&gt;Node5</title>
<path fill="none" stroke="midnightblue" d="M384.96,-112.37C387.25,-96.81 393.06,-71.88 407.5,-56 424.97,-36.79 452.21,-25.28 473.85,-18.71"/>
<polygon fill="midnightblue" stroke="midnightblue" points="474.98,-22.03 483.65,-15.95 473.08,-15.29 474.98,-22.03"/>
</g>
<!-- Node6 -->
<g id="node6" class="node">
<title>Node6</title>
<g id="a_node6"><a xlink:title=" ">
<polygon fill="white" stroke="#bfbfbf" points="886.5,-0.5 886.5,-19.5 950.5,-19.5 950.5,-0.5 886.5,-0.5"/>
<text text-anchor="middle" x="918.5" y="-7.5" font-family="Helvetica,sans-Serif" font-size="10.00">GL/glew.h</text>
</a>
</g>
</g>
<!-- Node3&#45;&gt;Node6 -->
<g id="edge5" class="edge">
<title>Node3&#45;&gt;Node6</title>
<path fill="none" stroke="midnightblue" d="M390.49,-112.26C399.52,-95.59 416.92,-68.65 440.5,-56 515.25,-15.9 773.32,-11.12 875.94,-10.84"/>
<polygon fill="midnightblue" stroke="midnightblue" points="876.24,-14.34 886.23,-10.83 876.23,-7.34 876.24,-14.34"/>
</g>
<!-- Node7 -->
<g id="node7" class="node">
<title>Node7</title>
<g id="a_node7"><a xlink:title=" ">
<polygon fill="white" stroke="#bfbfbf" points="0,-56.5 0,-75.5 89,-75.5 89,-56.5 0,-56.5"/>
<text text-anchor="middle" x="44.5" y="-63.5" font-family="Helvetica,sans-Serif" font-size="10.00">maths/colour.h</text>
</a>
</g>
</g>
<!-- Node3&#45;&gt;Node7 -->
<g id="edge6" class="edge">
<title>Node3&#45;&gt;Node7</title>
<path fill="none" stroke="midnightblue" d="M318.47,-113.84C315.1,-113.21 311.76,-112.59 308.5,-112 236.3,-98.87 152.78,-84.83 99.34,-75.98"/>
<polygon fill="midnightblue" stroke="midnightblue" points="99.83,-72.52 89.4,-74.34 98.69,-79.42 99.83,-72.52"/>
</g>
<!-- Node8 -->
<g id="node8" class="node">
<title>Node8</title>
<g id="a_node8"><a xlink:title=" ">
<polygon fill="white" stroke="#bfbfbf" points="145.5,-56.5 145.5,-75.5 241.5,-75.5 241.5,-56.5 145.5,-56.5"/>
<text text-anchor="middle" x="193.5" y="-63.5" font-family="Helvetica,sans-Serif" font-size="10.00">maths/vector2.h</text>
</a>
</g>
</g>
<!-- Node3&#45;&gt;Node8 -->
<g id="edge7" class="edge">
<title>Node3&#45;&gt;Node8</title>
<path fill="none" stroke="midnightblue" d="M338.47,-112.4C305.64,-102.12 261.68,-88.35 230.8,-78.68"/>
<polygon fill="midnightblue" stroke="midnightblue" points="231.46,-75.22 220.87,-75.57 229.37,-81.9 231.46,-75.22"/>
</g>
<!-- Node9 -->
<g id="node9" class="node">
<title>Node9</title>
<g id="a_node9"><a xlink:title=" ">
<polygon fill="white" stroke="#bfbfbf" points="259.5,-56.5 259.5,-75.5 355.5,-75.5 355.5,-56.5 259.5,-56.5"/>
<text text-anchor="middle" x="307.5" y="-63.5" font-family="Helvetica,sans-Serif" font-size="10.00">maths/vector3.h</text>
</a>
</g>
</g>
<!-- Node3&#45;&gt;Node9 -->
<g id="edge8" class="edge">
<title>Node3&#45;&gt;Node9</title>
<path fill="none" stroke="midnightblue" d="M365.49,-112.4C353.76,-103.22 338.48,-91.26 326.56,-81.92"/>
<polygon fill="midnightblue" stroke="midnightblue" points="328.59,-79.07 318.56,-75.66 324.28,-84.58 328.59,-79.07"/>
</g>
<!-- Node10 -->
<g id="node10" class="node">
<title>Node10</title>
<g id="a_node10"><a xlink:title=" ">
<polygon fill="white" stroke="#bfbfbf" points="449.5,-56.5 449.5,-75.5 541.5,-75.5 541.5,-56.5 449.5,-56.5"/>
<text text-anchor="middle" x="495.5" y="-63.5" font-family="Helvetica,sans-Serif" font-size="10.00">maths/matrix.h</text>
</a>
</g>
</g>
<!-- Node3&#45;&gt;Node10 -->
<g id="edge9" class="edge">
<title>Node3&#45;&gt;Node10</title>
<path fill="none" stroke="midnightblue" d="M410.04,-112.4C428.16,-102.77 452.04,-90.09 469.94,-80.58"/>
<polygon fill="midnightblue" stroke="midnightblue" points="472.01,-83.44 479.2,-75.66 468.73,-77.26 472.01,-83.44"/>
</g>
<!-- Node11&#45;&gt;Node6 -->
<g id="edge14" class="edge">
<title>Node11&#45;&gt;Node6</title>
<path fill="none" stroke="midnightblue" d="M1110.25,-179.46C1097.45,-170.92 1077.8,-157.08 1062.5,-143 1024.73,-108.22 1025.14,-89.8 986.5,-56 972.99,-44.19 956.19,-33.04 942.67,-24.8"/>
<polygon fill="midnightblue" stroke="midnightblue" points="944.3,-21.69 933.91,-19.58 940.71,-27.7 944.3,-21.69"/>
</g>
<!-- Node12 -->
<g id="node12" class="node">
<title>Node12</title>
<g id="a_node12"><a xlink:title=" ">
<polygon fill="white" stroke="#bfbfbf" points="1071.5,-118 1071.5,-137 1113.5,-137 1113.5,-118 1071.5,-118"/>
<text text-anchor="middle" x="1092.5" y="-125" font-family="Helvetica,sans-Serif" font-size="10.00">array</text>
</a>
</g>
</g>
<!-- Node11&#45;&gt;Node12 -->
<g id="edge11" class="edge">
<title>Node11&#45;&gt;Node12</title>
<path fill="none" stroke="midnightblue" d="M1119.06,-179.48C1114.55,-170.82 1107.43,-157.15 1101.69,-146.15"/>
<polygon fill="midnightblue" stroke="midnightblue" points="1104.66,-144.26 1096.93,-137.01 1098.45,-147.49 1104.66,-144.26"/>
</g>
<!-- Node13 -->
<g id="node13" class="node">
<title>Node13</title>
<g id="a_node13"><a xlink:title=" ">
<polygon fill="white" stroke="#bfbfbf" points="1132,-118 1132,-137 1179,-137 1179,-118 1132,-118"/>
<text text-anchor="middle" x="1155.5" y="-125" font-family="Helvetica,sans-Serif" font-size="10.00">cmath</text>
</a>
</g>
</g>
<!-- Node11&#45;&gt;Node13 -->
<g id="edge12" class="edge">
<title>Node11&#45;&gt;Node13</title>
<path fill="none" stroke="midnightblue" d="M1128.08,-179.48C1132.74,-170.82 1140.09,-157.15 1146.01,-146.15"/>
<polygon fill="midnightblue" stroke="midnightblue" points="1149.27,-147.47 1150.92,-137.01 1143.1,-144.16 1149.27,-147.47"/>
</g>
<!-- Node14 -->
<g id="node14" class="node">
<title>Node14</title>
<g id="a_node14"><a xlink:title=" ">
<polygon fill="white" stroke="#bfbfbf" points="1197.5,-118 1197.5,-137 1305.5,-137 1305.5,-118 1197.5,-118"/>
<text text-anchor="middle" x="1251.5" y="-125" font-family="Helvetica,sans-Serif" font-size="10.00">SDL2/SDL_image.h</text>
</a>
</g>
</g>
<!-- Node11&#45;&gt;Node14 -->
<g id="edge13" class="edge">
<title>Node11&#45;&gt;Node14</title>
<path fill="none" stroke="midnightblue" d="M1141.84,-179.48C1163.32,-169.49 1199.12,-152.85 1223.95,-141.31"/>
<polygon fill="midnightblue" stroke="midnightblue" points="1225.6,-144.4 1233.19,-137.01 1222.65,-138.05 1225.6,-144.4"/>
</g>
<!-- Node15 -->
<g id="node15" class="node">
<title>Node15</title>
<g id="a_node15"><a xlink:title=" ">
<polygon fill="white" stroke="#bfbfbf" points="1464,-118 1464,-137 1575,-137 1575,-118 1464,-118"/>
<text text-anchor="middle" x="1519.5" y="-125" font-family="Helvetica,sans-Serif" font-size="10.00">maths/maths_util.h</text>
</a>
</g>
</g>
<!-- Node11&#45;&gt;Node15 -->
<g id="edge15" class="edge">
<title>Node11&#45;&gt;Node15</title>
<path fill="none" stroke="midnightblue" d="M1195.12,-180.03C1262.35,-172.13 1365.59,-158.93 1454.5,-143 1460.77,-141.88 1467.36,-140.56 1473.83,-139.2"/>
<polygon fill="midnightblue" stroke="midnightblue" points="1474.82,-142.56 1483.85,-137.02 1473.33,-135.72 1474.82,-142.56"/>
</g>
<!-- Node16 -->
<g id="node16" class="node">
<title>Node16</title>
<g id="a_node16"><a xlink:href="pixel__format_8h.html" target="_top" xlink:title=" ">
<polygon fill="white" stroke="black" points="1323.5,-112.5 1323.5,-142.5 1445.5,-142.5 1445.5,-112.5 1323.5,-112.5"/>
<text text-anchor="start" x="1331.5" y="-130.5" font-family="Helvetica,sans-Serif" font-size="10.00">graphics/texture/pixel</text>
<text text-anchor="middle" x="1384.5" y="-119.5" font-family="Helvetica,sans-Serif" font-size="10.00">_format.h</text>
</a>
</g>
</g>
<!-- Node11&#45;&gt;Node16 -->
<g id="edge16" class="edge">
<title>Node11&#45;&gt;Node16</title>
<path fill="none" stroke="midnightblue" d="M1160.89,-179.48C1200.59,-170.43 1264.26,-155.91 1313.53,-144.68"/>
<polygon fill="midnightblue" stroke="midnightblue" points="1314.52,-148.04 1323.49,-142.41 1312.96,-141.22 1314.52,-148.04"/>
</g>
<!-- Node16&#45;&gt;Node6 -->
<g id="edge18" class="edge">
<title>Node16&#45;&gt;Node6</title>
<path fill="none" stroke="midnightblue" d="M1327.83,-112.45C1233.06,-88.96 1044.57,-42.25 960.58,-21.43"/>
<polygon fill="midnightblue" stroke="midnightblue" points="961.18,-17.97 950.63,-18.96 959.49,-24.77 961.18,-17.97"/>
</g>
<!-- Node17 -->
<g id="node17" class="node">
<title>Node17</title>
<g id="a_node17"><a xlink:title=" ">
<polygon fill="white" stroke="#bfbfbf" points="1352,-56.5 1352,-75.5 1417,-75.5 1417,-56.5 1352,-56.5"/>
<text text-anchor="middle" x="1384.5" y="-63.5" font-family="Helvetica,sans-Serif" font-size="10.00">stdexcept</text>
</a>
</g>
</g>
<!-- Node16&#45;&gt;Node17 -->
<g id="edge17" class="edge">
<title>Node16&#45;&gt;Node17</title>
<path fill="none" stroke="midnightblue" d="M1384.5,-112.4C1384.5,-104.47 1384.5,-94.46 1384.5,-85.86"/>
<polygon fill="midnightblue" stroke="midnightblue" points="1388,-85.66 1384.5,-75.66 1381,-85.66 1388,-85.66"/>
</g>
<!-- Node18&#45;&gt;Node3 -->
<g id="edge40" class="edge">
<title>Node18&#45;&gt;Node3</title>
<path fill="none" stroke="midnightblue" d="M584.19,-235.32C549.26,-216.73 466.54,-172.7 418.92,-147.35"/>
<polygon fill="midnightblue" stroke="midnightblue" points="420.36,-144.15 409.89,-142.55 417.07,-150.33 420.36,-144.15"/>
</g>
<!-- Node18&#45;&gt;Node7 -->
<g id="edge20" class="edge">
<title>Node18&#45;&gt;Node7</title>
<path fill="none" stroke="midnightblue" d="M528.3,-238.89C433.99,-229.9 265.7,-205.79 136.5,-143 105.76,-128.06 76.42,-100.81 59.46,-83.32"/>
<polygon fill="midnightblue" stroke="midnightblue" points="61.58,-80.47 52.17,-75.61 56.5,-85.28 61.58,-80.47"/>
</g>
<!-- Node18&#45;&gt;Node11 -->
<g id="edge39" class="edge">
<title>Node18&#45;&gt;Node11</title>
<path fill="none" stroke="midnightblue" d="M672.67,-236.55C769.25,-226.58 940.1,-208.94 1041.46,-198.47"/>
<polygon fill="midnightblue" stroke="midnightblue" points="1042.06,-201.93 1051.65,-197.42 1041.34,-194.96 1042.06,-201.93"/>
</g>
<!-- Node19 -->
<g id="node19" class="node">
<title>Node19</title>
<g id="a_node19"><a xlink:href="mesh_8h.html" target="_top" xlink:title=" ">
<polygon fill="white" stroke="black" points="537,-179.5 537,-198.5 664,-198.5 664,-179.5 537,-179.5"/>
<text text-anchor="middle" x="600.5" y="-186.5" font-family="Helvetica,sans-Serif" font-size="10.00">graphics/mesh/mesh.h</text>
</a>
</g>
</g>
<!-- Node18&#45;&gt;Node19 -->
<g id="edge21" class="edge">
<title>Node18&#45;&gt;Node19</title>
<path fill="none" stroke="midnightblue" d="M600.5,-235.08C600.5,-228.01 600.5,-217.86 600.5,-208.99"/>
<polygon fill="midnightblue" stroke="midnightblue" points="604,-208.75 600.5,-198.75 597,-208.75 604,-208.75"/>
</g>
<!-- Node19&#45;&gt;Node2 -->
<g id="edge22" class="edge">
<title>Node19&#45;&gt;Node2</title>
<path fill="none" stroke="midnightblue" d="M648.08,-179.5C722.82,-164.99 871.12,-131.52 986.5,-76 1015.13,-62.22 1044.84,-40.49 1063.25,-25.99"/>
<polygon fill="midnightblue" stroke="midnightblue" points="1065.7,-28.51 1071.32,-19.53 1061.33,-23.05 1065.7,-28.51"/>
</g>
<!-- Node19&#45;&gt;Node4 -->
<g id="edge24" class="edge">
<title>Node19&#45;&gt;Node4</title>
<path fill="none" stroke="midnightblue" d="M600.16,-179.04C599.52,-164.76 597.77,-136 593.5,-112 591.92,-103.13 589.44,-93.47 587.15,-85.37"/>
<polygon fill="midnightblue" stroke="midnightblue" points="590.43,-84.12 584.24,-75.53 583.72,-86.11 590.43,-84.12"/>
</g>
<!-- Node19&#45;&gt;Node5 -->
<g id="edge23" class="edge">
<title>Node19&#45;&gt;Node5</title>
<path fill="none" stroke="midnightblue" d="M536.57,-185.25C421.42,-179.76 188.4,-165.94 159.5,-143 134.84,-123.43 141.68,-107.05 136.5,-76 135.04,-67.23 130.61,-62.65 136.5,-56 158.7,-30.94 386.25,-17.04 473.61,-12.59"/>
<polygon fill="midnightblue" stroke="midnightblue" points="473.97,-16.08 483.78,-12.08 473.62,-9.09 473.97,-16.08"/>
</g>
<!-- Node20 -->
<g id="node20" class="node">
<title>Node20</title>
<g id="a_node20"><a xlink:href="vertex_8h.html" target="_top" xlink:title=" ">
<polygon fill="white" stroke="black" points="169,-118 169,-137 300,-137 300,-118 169,-118"/>
<text text-anchor="middle" x="234.5" y="-125" font-family="Helvetica,sans-Serif" font-size="10.00">graphics/mesh/vertex.h</text>
</a>
</g>
</g>
<!-- Node19&#45;&gt;Node20 -->
<g id="edge25" class="edge">
<title>Node19&#45;&gt;Node20</title>
<path fill="none" stroke="midnightblue" d="M541.04,-179.47C482.15,-170.87 389.45,-156.91 309.5,-143 302.31,-141.75 294.75,-140.37 287.31,-138.97"/>
<polygon fill="midnightblue" stroke="midnightblue" points="287.76,-135.49 277.28,-137.06 286.45,-142.37 287.76,-135.49"/>
</g>
<!-- Node21 -->
<g id="node21" class="node">
<title>Node21</title>
<g id="a_node21"><a xlink:href="mesh__instance__data_8h.html" target="_top" xlink:title=" ">
<polygon fill="white" stroke="black" points="466.5,-112.5 466.5,-142.5 584.5,-142.5 584.5,-112.5 466.5,-112.5"/>
<text text-anchor="start" x="474.5" y="-130.5" font-family="Helvetica,sans-Serif" font-size="10.00">graphics/mesh/mesh</text>
<text text-anchor="middle" x="525.5" y="-119.5" font-family="Helvetica,sans-Serif" font-size="10.00">_instance_data.h</text>
</a>
</g>
</g>
<!-- Node19&#45;&gt;Node21 -->
<g id="edge28" class="edge">
<title>Node19&#45;&gt;Node21</title>
<path fill="none" stroke="midnightblue" d="M589.75,-179.48C579.69,-171.49 564.27,-159.25 551.05,-148.77"/>
<polygon fill="midnightblue" stroke="midnightblue" points="553.19,-146 543.18,-142.52 548.83,-151.48 553.19,-146"/>
</g>
<!-- Node22 -->
<g id="node22" class="node">
<title>Node22</title>
<g id="a_node22"><a xlink:href="vao_8h.html" target="_top" xlink:title=" ">
<polygon fill="white" stroke="black" points="640.5,-118 640.5,-137 758.5,-137 758.5,-118 640.5,-118"/>
<text text-anchor="middle" x="699.5" y="-125" font-family="Helvetica,sans-Serif" font-size="10.00">graphics/mesh/vao.h</text>
</a>
</g>
</g>
<!-- Node19&#45;&gt;Node22 -->
<g id="edge30" class="edge">
<title>Node19&#45;&gt;Node22</title>
<path fill="none" stroke="midnightblue" d="M614.68,-179.48C630.86,-169.75 657.53,-153.73 676.64,-142.24"/>
<polygon fill="midnightblue" stroke="midnightblue" points="678.57,-145.16 685.34,-137.01 674.97,-139.16 678.57,-145.16"/>
</g>
<!-- Node20&#45;&gt;Node8 -->
<g id="edge26" class="edge">
<title>Node20&#45;&gt;Node8</title>
<path fill="none" stroke="midnightblue" d="M228.63,-117.98C222.54,-109.14 212.86,-95.09 205.2,-83.98"/>
<polygon fill="midnightblue" stroke="midnightblue" points="207.92,-81.76 199.36,-75.51 202.16,-85.73 207.92,-81.76"/>
</g>
<!-- Node20&#45;&gt;Node9 -->
<g id="edge27" class="edge">
<title>Node20&#45;&gt;Node9</title>
<path fill="none" stroke="midnightblue" d="M244.96,-117.98C256.45,-108.61 275.13,-93.38 289.09,-82.01"/>
<polygon fill="midnightblue" stroke="midnightblue" points="291.52,-84.54 297.06,-75.51 287.1,-79.11 291.52,-84.54"/>
</g>
<!-- Node21&#45;&gt;Node10 -->
<g id="edge29" class="edge">
<title>Node21&#45;&gt;Node10</title>
<path fill="none" stroke="midnightblue" d="M518.39,-112.4C514.21,-104.11 508.89,-93.55 504.43,-84.71"/>
<polygon fill="midnightblue" stroke="midnightblue" points="507.49,-83.01 499.87,-75.66 501.24,-86.16 507.49,-83.01"/>
</g>
<!-- Node22&#45;&gt;Node5 -->
<g id="edge32" class="edge">
<title>Node22&#45;&gt;Node5</title>
<path fill="none" stroke="midnightblue" d="M690.49,-117.76C675.36,-103.43 643.46,-74.68 612.5,-56 589.78,-42.29 562.12,-30.62 540.9,-22.6"/>
<polygon fill="midnightblue" stroke="midnightblue" points="541.94,-19.25 531.34,-19.07 539.51,-25.82 541.94,-19.25"/>
</g>
<!-- Node23 -->
<g id="node23" class="node">
<title>Node23</title>
<g id="a_node23"><a xlink:title=" ">
<polygon fill="white" stroke="#bfbfbf" points="660,-56.5 660,-75.5 705,-75.5 705,-56.5 660,-56.5"/>
<text text-anchor="middle" x="682.5" y="-63.5" font-family="Helvetica,sans-Serif" font-size="10.00">utility</text>
</a>
</g>
</g>
<!-- Node22&#45;&gt;Node23 -->
<g id="edge31" class="edge">
<title>Node22&#45;&gt;Node23</title>
<path fill="none" stroke="midnightblue" d="M697.06,-117.98C694.64,-109.49 690.84,-96.2 687.73,-85.32"/>
<polygon fill="midnightblue" stroke="midnightblue" points="691.04,-84.16 684.93,-75.51 684.31,-86.09 691.04,-84.16"/>
</g>
<!-- Node24 -->
<g id="node24" class="node">
<title>Node24</title>
<g id="a_node24"><a xlink:href="vbo_8h.html" target="_top" xlink:title=" ">
<polygon fill="white" stroke="black" points="859.5,-56.5 859.5,-75.5 977.5,-75.5 977.5,-56.5 859.5,-56.5"/>
<text text-anchor="middle" x="918.5" y="-63.5" font-family="Helvetica,sans-Serif" font-size="10.00">graphics/mesh/vbo.h</text>
</a>
</g>
</g>
<!-- Node22&#45;&gt;Node24 -->
<g id="edge33" class="edge">
<title>Node22&#45;&gt;Node24</title>
<path fill="none" stroke="midnightblue" d="M730.88,-117.98C769.42,-107.5 834.91,-89.71 877.42,-78.16"/>
<polygon fill="midnightblue" stroke="midnightblue" points="878.45,-81.51 887.18,-75.51 876.61,-74.75 878.45,-81.51"/>
</g>
<!-- Node25 -->
<g id="node25" class="node">
<title>Node25</title>
<g id="a_node25"><a xlink:href="ebo_8h.html" target="_top" xlink:title=" ">
<polygon fill="white" stroke="black" points="723.5,-56.5 723.5,-75.5 841.5,-75.5 841.5,-56.5 723.5,-56.5"/>
<text text-anchor="middle" x="782.5" y="-63.5" font-family="Helvetica,sans-Serif" font-size="10.00">graphics/mesh/ebo.h</text>
</a>
</g>
</g>
<!-- Node22&#45;&gt;Node25 -->
<g id="edge37" class="edge">
<title>Node22&#45;&gt;Node25</title>
<path fill="none" stroke="midnightblue" d="M711.39,-117.98C724.7,-108.43 746.5,-92.81 762.46,-81.37"/>
<polygon fill="midnightblue" stroke="midnightblue" points="764.54,-84.18 770.63,-75.51 760.46,-78.49 764.54,-84.18"/>
</g>
<!-- Node24&#45;&gt;Node2 -->
<g id="edge35" class="edge">
<title>Node24&#45;&gt;Node2</title>
<path fill="none" stroke="midnightblue" d="M944.33,-56.44C971.75,-47.36 1015.28,-32.94 1045.93,-22.78"/>
<polygon fill="midnightblue" stroke="midnightblue" points="1047.4,-25.98 1055.79,-19.52 1045.2,-19.34 1047.4,-25.98"/>
</g>
<!-- Node24&#45;&gt;Node5 -->
<g id="edge34" class="edge">
<title>Node24&#45;&gt;Node5</title>
<path fill="none" stroke="midnightblue" d="M859.16,-57.14C856.23,-56.76 853.33,-56.37 850.5,-56 737.31,-41.09 603.1,-23.51 541.5,-15.45"/>
<polygon fill="midnightblue" stroke="midnightblue" points="541.57,-11.93 531.2,-14.1 540.67,-18.87 541.57,-11.93"/>
</g>
<!-- Node24&#45;&gt;Node6 -->
<g id="edge36" class="edge">
<title>Node24&#45;&gt;Node6</title>
<path fill="none" stroke="midnightblue" d="M918.5,-56.08C918.5,-49.01 918.5,-38.86 918.5,-29.99"/>
<polygon fill="midnightblue" stroke="midnightblue" points="922,-29.75 918.5,-19.75 915,-29.75 922,-29.75"/>
</g>
<!-- Node25&#45;&gt;Node6 -->
<g id="edge38" class="edge">
<title>Node25&#45;&gt;Node6</title>
<path fill="none" stroke="midnightblue" d="M804.05,-56.44C826.53,-47.52 861.99,-33.44 887.48,-23.32"/>
<polygon fill="midnightblue" stroke="midnightblue" points="889.05,-26.46 897.05,-19.52 886.47,-19.95 889.05,-26.46"/>
</g>
</g>
</svg>
        <g id="navigator" transform="translate(0 0)" fill="#404254">
                <rect fill="#f2f5e9" fill-opacity="0.5" stroke="#606060" stroke-width=".5" x="0" y="0" width="60" height="60"/>
                <use id="zoomplus" xlink:href="#zoomPlus" x="17" y="9" onmousedown="handleZoom(evt,'in')"/>
                <use id="zoomminus" xlink:href="#zoomMin" x="42" y="9" onmousedown="handleZoom(evt,'out')"/>
                <use id="reset" xlink:href="#resetDef" x="30" y="36" onmousedown="handleReset()"/>
                <g id="arrowUp" xlink:href="#dirArrow" transform="translate(30 24)" onmousedown="handlePan(0,-1)">
                  <use xlink:href="#rim" fill="#404040">
                        <set attributeName="fill" to="#808080" begin="arrowUp.mouseover" end="arrowUp.mouseout"/>
                  </use>
                  <path fill="none" stroke="white" stroke-width="1.5" d="M0,-3.0v7 M-2.5,-0.5L0,-3.0L2.5,-0.5"/>
                </g>
                <g id="arrowRight" xlink:href="#dirArrow" transform="rotate(90) translate(36 -43)" onmousedown="handlePan(1,0)">
                  <use xlink:href="#rim" fill="#404040">
                        <set attributeName="fill" to="#808080" begin="arrowRight.mouseover" end="arrowRight.mouseout"/>
                  </use>
                  <path fill="none" stroke="white" stroke-width="1.5" d="M0,-3.0v7 M-2.5,-0.5L0,-3.0L2.5,-0.5"/>
                </g>
                <g id="arrowDown" xlink:href="#dirArrow" transform="rotate(180) translate(-30 -48)" onmousedown="handlePan(0,1)">
                  <use xlink:href="#rim" fill="#404040">
                        <set attributeName="fill" to="#808080" begin="arrowDown.mouseover" end="arrowDown.mouseout"/>
                  </use>
                  <path fill="none" stroke="white" stroke-width="1.5" d="M0,-3.0v7 M-2.5,-0.5L0,-3.0L2.5,-0.5"/>
                </g>
                <g id="arrowLeft" xlink:href="#dirArrow" transform="rotate(270) translate(-36 17)" onmousedown="handlePan(-1,0)">
                  <use xlink:href="#rim" fill="#404040">
                        <set attributeName="fill" to="#808080" begin="arrowLeft.mouseover" end="arrowLeft.mouseout"/>
                  </use>
                  <path fill="none" stroke="white" stroke-width="1.5" d="M0,-3.0v7 M-2.5,-0.5L0,-3.0L2.5,-0.5"/>
                </g>
        </g>
        <svg viewBox="0 0 15 15" width="100%" height="30px" preserveAspectRatio="xMaxYMin meet">
         <g id="arrow_out" transform="scale(0.3 0.3)">
          <a xlink:href="camera_8h__incl_org.svg" target="_base">
           <rect id="button" ry="5" rx="5" y="6" x="6" height="38" width="38"
                fill="#f2f5e9" fill-opacity="0.5" stroke="#606060" stroke-width="1.0"/>
           <path id="arrow"
             d="M 11.500037,31.436501 C 11.940474,20.09759 22.043105,11.32322 32.158766,21.979434 L 37.068811,17.246167 C 37.068811,17.246167 37.088388,32 37.088388,32 L 22.160133,31.978069 C 22.160133,31.978069 26.997745,27.140456 26.997745,27.140456 C 18.528582,18.264221 13.291696,25.230495 11.500037,31.436501 z"
             style="fill:#404040;"/>
          </a>
         </g>
        </svg>
</svg>
