<?xml version="1.0" encoding="UTF-8" standalone="no"?>
<!DOCTYPE svg PUBLIC "-//W3C//DTD SVG 1.1//EN"
 "http://www.w3.org/Graphics/SVG/1.1/DTD/svg11.dtd">
<!-- Generated by graphviz version 2.43.0 (0)
 -->
<!-- Title: src/component/camera.h Pages: 1 -->
<svg width="1278pt" height="308pt"
 viewBox="0.00 0.00 1277.50 308.00" xmlns="http://www.w3.org/2000/svg" xmlns:xlink="http://www.w3.org/1999/xlink">
<g id="graph0" class="graph" transform="scale(1 1) rotate(0) translate(4 304)">
<title>src/component/camera.h</title>
<polygon fill="white" stroke="transparent" points="-4,4 -4,-304 1273.5,-304 1273.5,4 -4,4"/>
<!-- Node1 -->
<g id="node1" class="node">
<title>Node1</title>
<g id="a_node1"><a xlink:title=" ">
<polygon fill="#bfbfbf" stroke="black" points="646,-280.5 646,-299.5 783,-299.5 783,-280.5 646,-280.5"/>
<text text-anchor="middle" x="714.5" y="-287.5" font-family="Helvetica,sans-Serif" font-size="10.00">src/component/camera.h</text>
</a>
</g>
</g>
<!-- Node2 -->
<g id="node2" class="node">
<title>Node2</title>
<g id="a_node2"><a xlink:title=" ">
<polygon fill="white" stroke="#bfbfbf" points="1202.5,-0.5 1202.5,-19.5 1260.5,-19.5 1260.5,-0.5 1202.5,-0.5"/>
<text text-anchor="middle" x="1231.5" y="-7.5" font-family="Helvetica,sans-Serif" font-size="10.00">memory</text>
</a>
</g>
</g>
<!-- Node1&#45;&gt;Node2 -->
<g id="edge1" class="edge">
<title>Node1&#45;&gt;Node2</title>
<path fill="none" stroke="midnightblue" d="M783.11,-289.61C931.6,-289.08 1269.5,-277.11 1269.5,-179 1269.5,-179 1269.5,-179 1269.5,-121 1269.5,-86.81 1252.9,-49.76 1241.64,-28.57"/>
<polygon fill="midnightblue" stroke="midnightblue" points="1244.68,-26.83 1236.78,-19.77 1238.55,-30.22 1244.68,-26.83"/>
</g>
<!-- Node3 -->
<g id="node3" class="node">
<title>Node3</title>
<g id="a_node3"><a xlink:href="shader__program_8h.html" target="_top" xlink:title=" ">
<polygon fill="white" stroke="black" points="600,-168.5 600,-187.5 749,-187.5 749,-168.5 600,-168.5"/>
<text text-anchor="middle" x="674.5" y="-175.5" font-family="Helvetica,sans-Serif" font-size="10.00">graphics/shader_program.h</text>
</a>
</g>
</g>
<!-- Node1&#45;&gt;Node3 -->
<g id="edge2" class="edge">
<title>Node1&#45;&gt;Node3</title>
<path fill="none" stroke="midnightblue" d="M709.91,-280.21C705.35,-271.26 698.37,-256.91 693.5,-244 687.67,-228.53 682.51,-210.44 679.05,-197.28"/>
<polygon fill="midnightblue" stroke="midnightblue" points="682.43,-196.37 676.56,-187.55 675.64,-198.1 682.43,-196.37"/>
</g>
<!-- Node11 -->
<g id="node11" class="node">
<title>Node11</title>
<g id="a_node11"><a xlink:href="texture_8h.html" target="_top" xlink:title=" ">
<polygon fill="white" stroke="black" points="315,-112.5 315,-131.5 420,-131.5 420,-112.5 315,-112.5"/>
<text text-anchor="middle" x="367.5" y="-119.5" font-family="Helvetica,sans-Serif" font-size="10.00">graphics/texture.h</text>
</a>
</g>
</g>
<!-- Node1&#45;&gt;Node11 -->
<g id="edge19" class="edge">
<title>Node1&#45;&gt;Node11</title>
<path fill="none" stroke="midnightblue" d="M696.33,-280.31C639.18,-252.97 462.82,-168.6 394.72,-136.02"/>
<polygon fill="midnightblue" stroke="midnightblue" points="396.02,-132.76 385.49,-131.61 393,-139.08 396.02,-132.76"/>
</g>
<!-- Node18 -->
<g id="node18" class="node">
<title>Node18</title>
<g id="a_node18"><a xlink:href="skybox_8h.html" target="_top" xlink:title=" ">
<polygon fill="white" stroke="black" points="702.5,-224.5 702.5,-243.5 806.5,-243.5 806.5,-224.5 702.5,-224.5"/>
<text text-anchor="middle" x="754.5" y="-231.5" font-family="Helvetica,sans-Serif" font-size="10.00">graphics/skybox.h</text>
</a>
</g>
</g>
<!-- Node1&#45;&gt;Node18 -->
<g id="edge20" class="edge">
<title>Node1&#45;&gt;Node18</title>
<path fill="none" stroke="midnightblue" d="M721.11,-280.08C726.76,-272.46 735.04,-261.26 741.95,-251.94"/>
<polygon fill="midnightblue" stroke="midnightblue" points="744.88,-253.87 748.02,-243.75 739.25,-249.7 744.88,-253.87"/>
</g>
<!-- Node4 -->
<g id="node4" class="node">
<title>Node4</title>
<g id="a_node4"><a xlink:title=" ">
<polygon fill="white" stroke="#bfbfbf" points="847.5,-112.5 847.5,-131.5 891.5,-131.5 891.5,-112.5 847.5,-112.5"/>
<text text-anchor="middle" x="869.5" y="-119.5" font-family="Helvetica,sans-Serif" font-size="10.00">string</text>
</a>
</g>
</g>
<!-- Node3&#45;&gt;Node4 -->
<g id="edge3" class="edge">
<title>Node3&#45;&gt;Node4</title>
<path fill="none" stroke="midnightblue" d="M706.28,-168.43C737.41,-160 786.44,-146.64 837.87,-132.15"/>
<polygon fill="midnightblue" stroke="midnightblue" points="838.82,-135.52 847.5,-129.43 836.92,-128.78 838.82,-135.52"/>
</g>
<!-- Node5 -->
<g id="node5" class="node">
<title>Node5</title>
<g id="a_node5"><a xlink:title=" ">
<polygon fill="white" stroke="#bfbfbf" points="1064,-0.5 1064,-19.5 1111,-19.5 1111,-0.5 1064,-0.5"/>
<text text-anchor="middle" x="1087.5" y="-7.5" font-family="Helvetica,sans-Serif" font-size="10.00">vector</text>
</a>
</g>
</g>
<!-- Node3&#45;&gt;Node5 -->
<g id="edge4" class="edge">
<title>Node3&#45;&gt;Node5</title>
<path fill="none" stroke="midnightblue" d="M666.97,-168.49C648.8,-146.92 606.21,-89.46 636.5,-56 664.39,-25.18 953.5,-14.58 1053.6,-11.82"/>
<polygon fill="midnightblue" stroke="midnightblue" points="1053.87,-15.31 1063.77,-11.55 1053.68,-8.31 1053.87,-15.31"/>
</g>
<!-- Node6 -->
<g id="node6" class="node">
<title>Node6</title>
<g id="a_node6"><a xlink:title=" ">
<polygon fill="white" stroke="#bfbfbf" points="547.5,-0.5 547.5,-19.5 611.5,-19.5 611.5,-0.5 547.5,-0.5"/>
<text text-anchor="middle" x="579.5" y="-7.5" font-family="Helvetica,sans-Serif" font-size="10.00">GL/glew.h</text>
</a>
</g>
</g>
<!-- Node3&#45;&gt;Node6 -->
<g id="edge5" class="edge">
<title>Node3&#45;&gt;Node6</title>
<path fill="none" stroke="midnightblue" d="M610.89,-168.45C567.96,-161.22 516.81,-149.26 503.5,-132 475.62,-95.83 548.84,-90.06 559.5,-76 569.75,-62.49 574.79,-43.68 577.25,-29.77"/>
<polygon fill="midnightblue" stroke="midnightblue" points="580.71,-30.27 578.71,-19.86 573.79,-29.24 580.71,-30.27"/>
</g>
<!-- Node7 -->
<g id="node7" class="node">
<title>Node7</title>
<g id="a_node7"><a xlink:title=" ">
<polygon fill="white" stroke="#bfbfbf" points="741,-112.5 741,-131.5 830,-131.5 830,-112.5 741,-112.5"/>
<text text-anchor="middle" x="785.5" y="-119.5" font-family="Helvetica,sans-Serif" font-size="10.00">maths/colour.h</text>
</a>
</g>
</g>
<!-- Node3&#45;&gt;Node7 -->
<g id="edge6" class="edge">
<title>Node3&#45;&gt;Node7</title>
<path fill="none" stroke="midnightblue" d="M692.33,-168.32C710.22,-159.62 737.98,-146.12 758.55,-136.11"/>
<polygon fill="midnightblue" stroke="midnightblue" points="760.25,-139.18 767.71,-131.65 757.19,-132.88 760.25,-139.18"/>
</g>
<!-- Node8 -->
<g id="node8" class="node">
<title>Node8</title>
<g id="a_node8"><a xlink:title=" ">
<polygon fill="white" stroke="#bfbfbf" points="512.5,-112.5 512.5,-131.5 608.5,-131.5 608.5,-112.5 512.5,-112.5"/>
<text text-anchor="middle" x="560.5" y="-119.5" font-family="Helvetica,sans-Serif" font-size="10.00">maths/vector2.h</text>
</a>
</g>
</g>
<!-- Node3&#45;&gt;Node8 -->
<g id="edge7" class="edge">
<title>Node3&#45;&gt;Node8</title>
<path fill="none" stroke="midnightblue" d="M656.44,-168.44C637.93,-159.68 608.92,-145.94 587.64,-135.86"/>
<polygon fill="midnightblue" stroke="midnightblue" points="589.01,-132.63 578.48,-131.52 586.02,-138.96 589.01,-132.63"/>
</g>
<!-- Node9 -->
<g id="node9" class="node">
<title>Node9</title>
<g id="a_node9"><a xlink:title=" ">
<polygon fill="white" stroke="#bfbfbf" points="645.5,-56.5 645.5,-75.5 741.5,-75.5 741.5,-56.5 645.5,-56.5"/>
<text text-anchor="middle" x="693.5" y="-63.5" font-family="Helvetica,sans-Serif" font-size="10.00">maths/vector3.h</text>
</a>
</g>
</g>
<!-- Node3&#45;&gt;Node9 -->
<g id="edge8" class="edge">
<title>Node3&#45;&gt;Node9</title>
<path fill="none" stroke="midnightblue" d="M675.99,-168.37C679.06,-150.62 686.13,-109.67 690.29,-85.6"/>
<polygon fill="midnightblue" stroke="midnightblue" points="693.76,-86.04 692.02,-75.59 686.86,-84.85 693.76,-86.04"/>
</g>
<!-- Node10 -->
<g id="node10" class="node">
<title>Node10</title>
<g id="a_node10"><a xlink:title=" ">
<polygon fill="white" stroke="#bfbfbf" points="759.5,-56.5 759.5,-75.5 851.5,-75.5 851.5,-56.5 759.5,-56.5"/>
<text text-anchor="middle" x="805.5" y="-63.5" font-family="Helvetica,sans-Serif" font-size="10.00">maths/matrix.h</text>
</a>
</g>
</g>
<!-- Node3&#45;&gt;Node10 -->
<g id="edge9" class="edge">
<title>Node3&#45;&gt;Node10</title>
<path fill="none" stroke="midnightblue" d="M680.79,-168.25C690.6,-155.01 710.58,-129.57 731.5,-112 746.04,-99.78 764.25,-88.67 778.97,-80.54"/>
<polygon fill="midnightblue" stroke="midnightblue" points="780.91,-83.47 788.06,-75.65 777.6,-77.3 780.91,-83.47"/>
</g>
<!-- Node3&#45;&gt;Node11 -->
<g id="edge10" class="edge">
<title>Node3&#45;&gt;Node11</title>
<path fill="none" stroke="midnightblue" d="M625.85,-168.44C571.63,-158.9 483.95,-143.48 426.02,-133.29"/>
<polygon fill="midnightblue" stroke="midnightblue" points="426.37,-129.8 415.92,-131.52 425.16,-136.7 426.37,-129.8"/>
</g>
<!-- Node11&#45;&gt;Node6 -->
<g id="edge14" class="edge">
<title>Node11&#45;&gt;Node6</title>
<path fill="none" stroke="midnightblue" d="M348.06,-112.31C323.5,-100.16 286.49,-77.2 304.5,-56 333.85,-21.46 467.57,-13.37 537.14,-11.52"/>
<polygon fill="midnightblue" stroke="midnightblue" points="537.41,-15.02 547.33,-11.28 537.25,-8.02 537.41,-15.02"/>
</g>
<!-- Node12 -->
<g id="node12" class="node">
<title>Node12</title>
<g id="a_node12"><a xlink:title=" ">
<polygon fill="white" stroke="#bfbfbf" points="149.5,-56.5 149.5,-75.5 191.5,-75.5 191.5,-56.5 149.5,-56.5"/>
<text text-anchor="middle" x="170.5" y="-63.5" font-family="Helvetica,sans-Serif" font-size="10.00">array</text>
</a>
</g>
</g>
<!-- Node11&#45;&gt;Node12 -->
<g id="edge11" class="edge">
<title>Node11&#45;&gt;Node12</title>
<path fill="none" stroke="midnightblue" d="M334.78,-112.48C303.04,-104.14 253.26,-90.9 201.47,-76.22"/>
<polygon fill="midnightblue" stroke="midnightblue" points="202.36,-72.84 191.78,-73.47 200.44,-79.57 202.36,-72.84"/>
</g>
<!-- Node13 -->
<g id="node13" class="node">
<title>Node13</title>
<g id="a_node13"><a xlink:title=" ">
<polygon fill="white" stroke="#bfbfbf" points="210,-56.5 210,-75.5 257,-75.5 257,-56.5 210,-56.5"/>
<text text-anchor="middle" x="233.5" y="-63.5" font-family="Helvetica,sans-Serif" font-size="10.00">cmath</text>
</a>
</g>
</g>
<!-- Node11&#45;&gt;Node13 -->
<g id="edge12" class="edge">
<title>Node11&#45;&gt;Node13</title>
<path fill="none" stroke="midnightblue" d="M346.27,-112.44C324.12,-103.52 289.18,-89.44 264.06,-79.32"/>
<polygon fill="midnightblue" stroke="midnightblue" points="265.22,-76.01 254.63,-75.52 262.6,-82.5 265.22,-76.01"/>
</g>
<!-- Node14 -->
<g id="node14" class="node">
<title>Node14</title>
<g id="a_node14"><a xlink:title=" ">
<polygon fill="white" stroke="#bfbfbf" points="313.5,-56.5 313.5,-75.5 421.5,-75.5 421.5,-56.5 313.5,-56.5"/>
<text text-anchor="middle" x="367.5" y="-63.5" font-family="Helvetica,sans-Serif" font-size="10.00">SDL2/SDL_image.h</text>
</a>
</g>
</g>
<!-- Node11&#45;&gt;Node14 -->
<g id="edge13" class="edge">
<title>Node11&#45;&gt;Node14</title>
<path fill="none" stroke="midnightblue" d="M367.5,-112.08C367.5,-105.01 367.5,-94.86 367.5,-85.99"/>
<polygon fill="midnightblue" stroke="midnightblue" points="371,-85.75 367.5,-75.75 364,-85.75 371,-85.75"/>
</g>
<!-- Node15 -->
<g id="node15" class="node">
<title>Node15</title>
<g id="a_node15"><a xlink:title=" ">
<polygon fill="white" stroke="#bfbfbf" points="440,-56.5 440,-75.5 551,-75.5 551,-56.5 440,-56.5"/>
<text text-anchor="middle" x="495.5" y="-63.5" font-family="Helvetica,sans-Serif" font-size="10.00">maths/maths_util.h</text>
</a>
</g>
</g>
<!-- Node11&#45;&gt;Node15 -->
<g id="edge15" class="edge">
<title>Node11&#45;&gt;Node15</title>
<path fill="none" stroke="midnightblue" d="M387.78,-112.44C408.85,-103.56 442.02,-89.56 465.99,-79.45"/>
<polygon fill="midnightblue" stroke="midnightblue" points="467.46,-82.63 475.31,-75.52 464.74,-76.18 467.46,-82.63"/>
</g>
<!-- Node16 -->
<g id="node16" class="node">
<title>Node16</title>
<g id="a_node16"><a xlink:href="pixel__format_8h.html" target="_top" xlink:title=" ">
<polygon fill="white" stroke="black" points="0,-56.5 0,-75.5 131,-75.5 131,-56.5 0,-56.5"/>
<text text-anchor="middle" x="65.5" y="-63.5" font-family="Helvetica,sans-Serif" font-size="10.00">graphics/pixel_format.h</text>
</a>
</g>
</g>
<!-- Node11&#45;&gt;Node16 -->
<g id="edge16" class="edge">
<title>Node11&#45;&gt;Node16</title>
<path fill="none" stroke="midnightblue" d="M319.65,-112.44C266.3,-102.9 180.06,-87.48 123.06,-77.29"/>
<polygon fill="midnightblue" stroke="midnightblue" points="123.59,-73.83 113.13,-75.52 122.36,-80.72 123.59,-73.83"/>
</g>
<!-- Node16&#45;&gt;Node6 -->
<g id="edge18" class="edge">
<title>Node16&#45;&gt;Node6</title>
<path fill="none" stroke="midnightblue" d="M131.34,-57.03C134.44,-56.68 137.5,-56.33 140.5,-56 286.06,-39.81 459.03,-22.7 537.3,-15.08"/>
<polygon fill="midnightblue" stroke="midnightblue" points="537.65,-18.56 547.26,-14.11 536.97,-11.6 537.65,-18.56"/>
</g>
<!-- Node17 -->
<g id="node17" class="node">
<title>Node17</title>
<g id="a_node17"><a xlink:title=" ">
<polygon fill="white" stroke="#bfbfbf" points="33,-0.5 33,-19.5 98,-19.5 98,-0.5 33,-0.5"/>
<text text-anchor="middle" x="65.5" y="-7.5" font-family="Helvetica,sans-Serif" font-size="10.00">stdexcept</text>
</a>
</g>
</g>
<!-- Node16&#45;&gt;Node17 -->
<g id="edge17" class="edge">
<title>Node16&#45;&gt;Node17</title>
<path fill="none" stroke="midnightblue" d="M65.5,-56.08C65.5,-49.01 65.5,-38.86 65.5,-29.99"/>
<polygon fill="midnightblue" stroke="midnightblue" points="69,-29.75 65.5,-19.75 62,-29.75 69,-29.75"/>
</g>
<!-- Node18&#45;&gt;Node3 -->
<g id="edge39" class="edge">
<title>Node18&#45;&gt;Node3</title>
<path fill="none" stroke="midnightblue" d="M741.65,-224.32C729.28,-215.98 710.37,-203.21 695.76,-193.35"/>
<polygon fill="midnightblue" stroke="midnightblue" points="697.57,-190.35 687.32,-187.65 693.65,-196.15 697.57,-190.35"/>
</g>
<!-- Node18&#45;&gt;Node7 -->
<g id="edge21" class="edge">
<title>Node18&#45;&gt;Node7</title>
<path fill="none" stroke="midnightblue" d="M756.93,-224.37C761.96,-206.54 773.58,-165.3 780.35,-141.27"/>
<polygon fill="midnightblue" stroke="midnightblue" points="783.73,-142.17 783.08,-131.59 777,-140.27 783.73,-142.17"/>
</g>
<!-- Node18&#45;&gt;Node11 -->
<g id="edge38" class="edge">
<title>Node18&#45;&gt;Node11</title>
<path fill="none" stroke="midnightblue" d="M722.71,-224.44C689.64,-215.49 636.38,-200.98 590.5,-188 525.7,-169.67 450.55,-147.59 406.13,-134.46"/>
<polygon fill="midnightblue" stroke="midnightblue" points="406.91,-131.04 396.32,-131.56 404.92,-137.75 406.91,-131.04"/>
</g>
<!-- Node19 -->
<g id="node19" class="node">
<title>Node19</title>
<g id="a_node19"><a xlink:href="mesh_8h.html" target="_top" xlink:title=" ">
<polygon fill="white" stroke="black" points="968,-168.5 968,-187.5 1065,-187.5 1065,-168.5 968,-168.5"/>
<text text-anchor="middle" x="1016.5" y="-175.5" font-family="Helvetica,sans-Serif" font-size="10.00">graphics/mesh.h</text>
</a>
</g>
</g>
<!-- Node18&#45;&gt;Node19 -->
<g id="edge22" class="edge">
<title>Node18&#45;&gt;Node19</title>
<path fill="none" stroke="midnightblue" d="M796.01,-224.44C841.91,-214.98 915.88,-199.74 965.33,-189.55"/>
<polygon fill="midnightblue" stroke="midnightblue" points="966.09,-192.96 975.18,-187.52 964.68,-186.11 966.09,-192.96"/>
</g>
<!-- Node19&#45;&gt;Node2 -->
<g id="edge23" class="edge">
<title>Node19&#45;&gt;Node2</title>
<path fill="none" stroke="midnightblue" d="M1063.59,-168.42C1090.2,-161.81 1122.95,-150.56 1147.5,-132 1184.42,-104.09 1211.12,-55.17 1223.6,-28.89"/>
<polygon fill="midnightblue" stroke="midnightblue" points="1226.81,-30.28 1227.81,-19.73 1220.45,-27.36 1226.81,-30.28"/>
</g>
<!-- Node19&#45;&gt;Node4 -->
<g id="edge25" class="edge">
<title>Node19&#45;&gt;Node4</title>
<path fill="none" stroke="midnightblue" d="M993.21,-168.44C968.4,-159.33 928.99,-144.85 901.33,-134.69"/>
<polygon fill="midnightblue" stroke="midnightblue" points="902.31,-131.33 891.72,-131.16 899.9,-137.9 902.31,-131.33"/>
</g>
<!-- Node19&#45;&gt;Node5 -->
<g id="edge24" class="edge">
<title>Node19&#45;&gt;Node5</title>
<path fill="none" stroke="midnightblue" d="M1056.74,-168.44C1079.6,-161.8 1107.38,-150.52 1126.5,-132 1146.07,-113.03 1145.82,-102.66 1151.5,-76 1153.35,-67.31 1155.6,-63.89 1151.5,-56 1144.35,-42.23 1130.83,-31.78 1118.05,-24.44"/>
<polygon fill="midnightblue" stroke="midnightblue" points="1119.46,-21.23 1108.98,-19.64 1116.18,-27.41 1119.46,-21.23"/>
</g>
<!-- Node20 -->
<g id="node20" class="node">
<title>Node20</title>
<g id="a_node20"><a xlink:href="vertex_8h.html" target="_top" xlink:title=" ">
<polygon fill="white" stroke="black" points="910,-112.5 910,-131.5 1011,-131.5 1011,-112.5 910,-112.5"/>
<text text-anchor="middle" x="960.5" y="-119.5" font-family="Helvetica,sans-Serif" font-size="10.00">graphics/vertex.h</text>
</a>
</g>
</g>
<!-- Node19&#45;&gt;Node20 -->
<g id="edge26" class="edge">
<title>Node19&#45;&gt;Node20</title>
<path fill="none" stroke="midnightblue" d="M1007.5,-168.32C999.31,-160.42 986.99,-148.55 977.03,-138.94"/>
<polygon fill="midnightblue" stroke="midnightblue" points="979.29,-136.26 969.66,-131.83 974.43,-141.29 979.29,-136.26"/>
</g>
<!-- Node21 -->
<g id="node21" class="node">
<title>Node21</title>
<g id="a_node21"><a xlink:href="vao_8h.html" target="_top" xlink:title=" ">
<polygon fill="white" stroke="black" points="1029.5,-112.5 1029.5,-131.5 1117.5,-131.5 1117.5,-112.5 1029.5,-112.5"/>
<text text-anchor="middle" x="1073.5" y="-119.5" font-family="Helvetica,sans-Serif" font-size="10.00">graphics/vao.h</text>
</a>
</g>
</g>
<!-- Node19&#45;&gt;Node21 -->
<g id="edge29" class="edge">
<title>Node19&#45;&gt;Node21</title>
<path fill="none" stroke="midnightblue" d="M1025.66,-168.32C1034,-160.42 1046.53,-148.55 1056.68,-138.94"/>
<polygon fill="midnightblue" stroke="midnightblue" points="1059.32,-141.25 1064.18,-131.83 1054.51,-136.17 1059.32,-141.25"/>
</g>
<!-- Node20&#45;&gt;Node9 -->
<g id="edge28" class="edge">
<title>Node20&#45;&gt;Node9</title>
<path fill="none" stroke="midnightblue" d="M918.19,-112.44C871.42,-102.98 796.04,-87.74 745.65,-77.55"/>
<polygon fill="midnightblue" stroke="midnightblue" points="746.1,-74.07 735.61,-75.52 744.72,-80.93 746.1,-74.07"/>
</g>
<!-- Node20&#45;&gt;Node10 -->
<g id="edge27" class="edge">
<title>Node20&#45;&gt;Node10</title>
<path fill="none" stroke="midnightblue" d="M935.94,-112.44C909.98,-103.4 868.83,-89.06 839.7,-78.92"/>
<polygon fill="midnightblue" stroke="midnightblue" points="840.54,-75.5 829.95,-75.52 838.24,-82.11 840.54,-75.5"/>
</g>
<!-- Node21&#45;&gt;Node5 -->
<g id="edge31" class="edge">
<title>Node21&#45;&gt;Node5</title>
<path fill="none" stroke="midnightblue" d="M1094.35,-112.43C1109.08,-105.13 1127.7,-93.09 1136.5,-76 1146.19,-57.17 1127.74,-38.11 1110.78,-25.54"/>
<polygon fill="midnightblue" stroke="midnightblue" points="1112.41,-22.42 1102.2,-19.6 1108.43,-28.17 1112.41,-22.42"/>
</g>
<!-- Node22 -->
<g id="node22" class="node">
<title>Node22</title>
<g id="a_node22"><a xlink:title=" ">
<polygon fill="white" stroke="#bfbfbf" points="1082,-56.5 1082,-75.5 1127,-75.5 1127,-56.5 1082,-56.5"/>
<text text-anchor="middle" x="1104.5" y="-63.5" font-family="Helvetica,sans-Serif" font-size="10.00">utility</text>
</a>
</g>
</g>
<!-- Node21&#45;&gt;Node22 -->
<g id="edge30" class="edge">
<title>Node21&#45;&gt;Node22</title>
<path fill="none" stroke="midnightblue" d="M1078.62,-112.08C1082.91,-104.61 1089.16,-93.72 1094.44,-84.52"/>
<polygon fill="midnightblue" stroke="midnightblue" points="1097.53,-86.17 1099.48,-75.75 1091.46,-82.68 1097.53,-86.17"/>
</g>
<!-- Node23 -->
<g id="node23" class="node">
<title>Node23</title>
<g id="a_node23"><a xlink:href="vbo_8h.html" target="_top" xlink:title=" ">
<polygon fill="white" stroke="black" points="975.5,-56.5 975.5,-75.5 1063.5,-75.5 1063.5,-56.5 975.5,-56.5"/>
<text text-anchor="middle" x="1019.5" y="-63.5" font-family="Helvetica,sans-Serif" font-size="10.00">graphics/vbo.h</text>
</a>
</g>
</g>
<!-- Node21&#45;&gt;Node23 -->
<g id="edge32" class="edge">
<title>Node21&#45;&gt;Node23</title>
<path fill="none" stroke="midnightblue" d="M1064.58,-112.08C1056.72,-104.22 1045.07,-92.57 1035.58,-83.08"/>
<polygon fill="midnightblue" stroke="midnightblue" points="1037.8,-80.35 1028.25,-75.75 1032.85,-85.3 1037.8,-80.35"/>
</g>
<!-- Node24 -->
<g id="node24" class="node">
<title>Node24</title>
<g id="a_node24"><a xlink:href="ebo_8h.html" target="_top" xlink:title=" ">
<polygon fill="white" stroke="black" points="869.5,-56.5 869.5,-75.5 957.5,-75.5 957.5,-56.5 869.5,-56.5"/>
<text text-anchor="middle" x="913.5" y="-63.5" font-family="Helvetica,sans-Serif" font-size="10.00">graphics/ebo.h</text>
</a>
</g>
</g>
<!-- Node21&#45;&gt;Node24 -->
<g id="edge36" class="edge">
<title>Node21&#45;&gt;Node24</title>
<path fill="none" stroke="midnightblue" d="M1048.15,-112.44C1021.23,-103.36 978.5,-88.94 948.41,-78.78"/>
<polygon fill="midnightblue" stroke="midnightblue" points="949.33,-75.4 938.73,-75.52 947.09,-82.03 949.33,-75.4"/>
</g>
<!-- Node23&#45;&gt;Node2 -->
<g id="edge34" class="edge">
<title>Node23&#45;&gt;Node2</title>
<path fill="none" stroke="midnightblue" d="M1053.09,-56.44C1091.01,-46.79 1152.59,-31.1 1192.57,-20.92"/>
<polygon fill="midnightblue" stroke="midnightblue" points="1193.67,-24.25 1202.49,-18.39 1191.94,-17.47 1193.67,-24.25"/>
</g>
<!-- Node23&#45;&gt;Node5 -->
<g id="edge33" class="edge">
<title>Node23&#45;&gt;Node5</title>
<path fill="none" stroke="midnightblue" d="M1030.43,-56.32C1040.67,-48.18 1056.22,-35.84 1068.5,-26.09"/>
<polygon fill="midnightblue" stroke="midnightblue" points="1070.72,-28.79 1076.38,-19.83 1066.37,-23.31 1070.72,-28.79"/>
</g>
<!-- Node23&#45;&gt;Node6 -->
<g id="edge35" class="edge">
<title>Node23&#45;&gt;Node6</title>
<path fill="none" stroke="midnightblue" d="M975.28,-57.31C972.31,-56.85 969.36,-56.41 966.5,-56 841.67,-38.16 693.41,-22.44 622.05,-15.21"/>
<polygon fill="midnightblue" stroke="midnightblue" points="621.98,-11.69 611.68,-14.17 621.28,-18.65 621.98,-11.69"/>
</g>
<!-- Node24&#45;&gt;Node6 -->
<g id="edge37" class="edge">
<title>Node24&#45;&gt;Node6</title>
<path fill="none" stroke="midnightblue" d="M869.26,-57.46C866.3,-56.96 863.35,-56.47 860.5,-56 775.78,-42.02 676.58,-26.28 621.61,-17.62"/>
<polygon fill="midnightblue" stroke="midnightblue" points="621.97,-14.13 611.54,-16.03 620.88,-21.04 621.97,-14.13"/>
</g>
</g>
</svg>
