<?xml version="1.0" encoding="UTF-8" standalone="no"?>
<!DOCTYPE svg PUBLIC "-//W3C//DTD SVG 1.1//EN"
 "http://www.w3.org/Graphics/SVG/1.1/DTD/svg11.dtd">
<!-- Generated by graphviz version 2.43.0 (0)
 -->
<!-- Title: src/component/camera.h Pages: 1 -->
<!--zoomable 319 -->
<svg id="main" version="1.1" xmlns="http://www.w3.org/2000/svg" xmlns:xlink="http://www.w3.org/1999/xlink" xml:space="preserve" onload="init(evt)">
<style type="text/css"><![CDATA[
.edge:hover path { stroke: red; }
.edge:hover polygon { stroke: red; fill: red; }
]]></style>
<script type="text/javascript"><![CDATA[
var edges = document.getElementsByTagName('g');
if (edges && edges.length) {
  for (var i=0;i<edges.length;i++) {
    if (edges[i].id.substr(0,4)=='edge') {
      edges[i].setAttribute('class','edge');
    }
  }
}
]]></script>
        <defs>
                <circle id="rim" cx="0" cy="0" r="7"/>
                <circle id="rim2" cx="0" cy="0" r="3.5"/>
                <g id="zoomPlus">
                        <use xlink:href="#rim" fill="#404040">
                                <set attributeName="fill" to="#808080" begin="zoomplus.mouseover" end="zoomplus.mouseout"/>
                        </use>
                        <path d="M-4,0h8M0,-4v8" fill="none" stroke="white" stroke-width="1.5" pointer-events="none"/>
                </g>
                <g id="zoomMin">
                        <use xlink:href="#rim" fill="#404040">
                                <set attributeName="fill" to="#808080" begin="zoomminus.mouseover" end="zoomminus.mouseout"/>
                        </use>
                        <path d="M-4,0h8" fill="none" stroke="white" stroke-width="1.5" pointer-events="none"/>
                </g>
                <g id="dirArrow">
                        <path fill="none" stroke="white" stroke-width="1.5" d="M0,-3.0v7 M-2.5,-0.5L0,-3.0L2.5,-0.5"/>
                </g>
               <g id="resetDef">
                       <use xlink:href="#rim2" fill="#404040">
                               <set attributeName="fill" to="#808080" begin="reset.mouseover" end="reset.mouseout"/>
                       </use>
               </g>
        </defs>

<script type="text/javascript">
var viewWidth = 1514;
var viewHeight = 319;
var sectionId = 'dynsection-0';
</script>
<script xlink:href="svgpan.js"/>
<svg id="graph" class="graph">
<g id="viewport">
<title>src/component/camera.h</title>
<polygon fill="white" stroke="transparent" points="-4,4 -4,-315 1509.69,-315 1509.69,4 -4,4"/>
<!-- Node1 -->
<g id="node1" class="node">
<title>Node1</title>
<g id="a_node1"><a xlink:title=" ">
<polygon fill="#bfbfbf" stroke="black" points="97.19,-291.5 97.19,-310.5 234.19,-310.5 234.19,-291.5 97.19,-291.5"/>
<text text-anchor="middle" x="165.69" y="-298.5" font-family="Helvetica,sans-Serif" font-size="10.00">src/component/camera.h</text>
</a>
</g>
</g>
<!-- Node2 -->
<g id="node2" class="node">
<title>Node2</title>
<g id="a_node2"><a xlink:title=" ">
<polygon fill="white" stroke="#bfbfbf" points="136.69,-0.5 136.69,-19.5 194.69,-19.5 194.69,-0.5 136.69,-0.5"/>
<text text-anchor="middle" x="165.69" y="-7.5" font-family="Helvetica,sans-Serif" font-size="10.00">memory</text>
</a>
</g>
</g>
<!-- Node1&#45;&gt;Node2 -->
<g id="edge1" class="edge">
<title>Node1&#45;&gt;Node2</title>
<path fill="none" stroke="midnightblue" d="M124.48,-291.48C75.6,-278.69 0.69,-249.39 0.69,-190 0.69,-190 0.69,-190 0.69,-126.5 0.69,-93.93 -2.06,-79.31 20.69,-56 48.43,-27.57 93.75,-17.02 126.35,-13.15"/>
<polygon fill="midnightblue" stroke="midnightblue" points="126.85,-16.61 136.44,-12.11 126.14,-9.65 126.85,-16.61"/>
</g>
<!-- Node3 -->
<g id="node3" class="node">
<title>Node3</title>
<g id="a_node3"><a xlink:href="shader__program_8h.html" target="_top" xlink:title=" ">
<polygon fill="white" stroke="black" points="195.69,-112.5 195.69,-142.5 325.69,-142.5 325.69,-112.5 195.69,-112.5"/>
<text text-anchor="start" x="203.69" y="-130.5" font-family="Helvetica,sans-Serif" font-size="10.00">graphics/shader/shader</text>
<text text-anchor="middle" x="260.69" y="-119.5" font-family="Helvetica,sans-Serif" font-size="10.00">_program.h</text>
</a>
</g>
</g>
<!-- Node1&#45;&gt;Node3 -->
<g id="edge2" class="edge">
<title>Node1&#45;&gt;Node3</title>
<path fill="none" stroke="midnightblue" d="M166.36,-291.21C167.61,-278.34 171,-253.88 179.69,-235 194.69,-202.4 221.08,-170.36 239.66,-150.08"/>
<polygon fill="midnightblue" stroke="midnightblue" points="242.33,-152.34 246.59,-142.65 237.21,-147.57 242.33,-152.34"/>
</g>
<!-- Node11 -->
<g id="node11" class="node">
<title>Node11</title>
<g id="a_node11"><a xlink:href="texture_8h.html" target="_top" xlink:title=" ">
<polygon fill="white" stroke="black" points="1133.19,-179.5 1133.19,-198.5 1276.19,-198.5 1276.19,-179.5 1133.19,-179.5"/>
<text text-anchor="middle" x="1204.69" y="-186.5" font-family="Helvetica,sans-Serif" font-size="10.00">graphics/texture/texture.h</text>
</a>
</g>
</g>
<!-- Node1&#45;&gt;Node11 -->
<g id="edge11" class="edge">
<title>Node1&#45;&gt;Node11</title>
<path fill="none" stroke="midnightblue" d="M234.26,-292.74C418.56,-273.23 924.02,-219.71 1122.83,-198.67"/>
<polygon fill="midnightblue" stroke="midnightblue" points="1123.34,-202.13 1132.91,-197.6 1122.6,-195.17 1123.34,-202.13"/>
</g>
<!-- Node18 -->
<g id="node18" class="node">
<title>Node18</title>
<g id="a_node18"><a xlink:href="skybox_8h.html" target="_top" xlink:title=" ">
<polygon fill="white" stroke="black" points="188.69,-235.5 188.69,-254.5 332.69,-254.5 332.69,-235.5 188.69,-235.5"/>
<text text-anchor="middle" x="260.69" y="-242.5" font-family="Helvetica,sans-Serif" font-size="10.00">graphics/lighting/skybox.h</text>
</a>
</g>
</g>
<!-- Node1&#45;&gt;Node18 -->
<g id="edge20" class="edge">
<title>Node1&#45;&gt;Node18</title>
<path fill="none" stroke="midnightblue" d="M180.95,-291.32C195.91,-282.82 218.94,-269.73 236.41,-259.8"/>
<polygon fill="midnightblue" stroke="midnightblue" points="238.5,-262.64 245.46,-254.65 235.04,-256.55 238.5,-262.64"/>
</g>
<!-- Node3&#45;&gt;Node2 -->
<g id="edge3" class="edge">
<title>Node3&#45;&gt;Node2</title>
<path fill="none" stroke="midnightblue" d="M244.32,-112.3C233.6,-102.6 219.61,-89.18 208.69,-76 196.18,-60.91 184.06,-42.09 175.89,-28.59"/>
<polygon fill="midnightblue" stroke="midnightblue" points="178.81,-26.64 170.7,-19.83 172.79,-30.21 178.81,-26.64"/>
</g>
<!-- Node4 -->
<g id="node4" class="node">
<title>Node4</title>
<g id="a_node4"><a xlink:title=" ">
<polygon fill="white" stroke="#bfbfbf" points="288.69,-56.5 288.69,-75.5 332.69,-75.5 332.69,-56.5 288.69,-56.5"/>
<text text-anchor="middle" x="310.69" y="-63.5" font-family="Helvetica,sans-Serif" font-size="10.00">string</text>
</a>
</g>
</g>
<!-- Node3&#45;&gt;Node4 -->
<g id="edge4" class="edge">
<title>Node3&#45;&gt;Node4</title>
<path fill="none" stroke="midnightblue" d="M272.54,-112.4C279.8,-103.75 289.14,-92.64 296.76,-83.58"/>
<polygon fill="midnightblue" stroke="midnightblue" points="299.66,-85.57 303.41,-75.66 294.3,-81.06 299.66,-85.57"/>
</g>
<!-- Node5 -->
<g id="node5" class="node">
<title>Node5</title>
<g id="a_node5"><a xlink:title=" ">
<polygon fill="white" stroke="#bfbfbf" points="799.19,-0.5 799.19,-19.5 846.19,-19.5 846.19,-0.5 799.19,-0.5"/>
<text text-anchor="middle" x="822.69" y="-7.5" font-family="Helvetica,sans-Serif" font-size="10.00">vector</text>
</a>
</g>
</g>
<!-- Node3&#45;&gt;Node5 -->
<g id="edge5" class="edge">
<title>Node3&#45;&gt;Node5</title>
<path fill="none" stroke="midnightblue" d="M251.66,-112.41C242.81,-96.64 232.54,-71.3 246.69,-56 283.59,-16.1 670.86,-11.51 788.79,-11.04"/>
<polygon fill="midnightblue" stroke="midnightblue" points="789.04,-14.53 799.03,-11 789.02,-7.53 789.04,-14.53"/>
</g>
<!-- Node6 -->
<g id="node6" class="node">
<title>Node6</title>
<g id="a_node6"><a xlink:title=" ">
<polygon fill="white" stroke="#bfbfbf" points="991.69,-0.5 991.69,-19.5 1055.69,-19.5 1055.69,-0.5 991.69,-0.5"/>
<text text-anchor="middle" x="1023.69" y="-7.5" font-family="Helvetica,sans-Serif" font-size="10.00">GL/glew.h</text>
</a>
</g>
</g>
<!-- Node3&#45;&gt;Node6 -->
<g id="edge6" class="edge">
<title>Node3&#45;&gt;Node6</title>
<path fill="none" stroke="midnightblue" d="M260.03,-112.3C260.12,-95.93 263.08,-69.54 279.69,-56 283.11,-53.21 823.79,-22.34 981.18,-13.41"/>
<polygon fill="midnightblue" stroke="midnightblue" points="981.62,-16.89 991.41,-12.83 981.22,-9.9 981.62,-16.89"/>
</g>
<!-- Node7 -->
<g id="node7" class="node">
<title>Node7</title>
<g id="a_node7"><a xlink:title=" ">
<polygon fill="white" stroke="#bfbfbf" points="29.19,-56.5 29.19,-75.5 118.19,-75.5 118.19,-56.5 29.19,-56.5"/>
<text text-anchor="middle" x="73.69" y="-63.5" font-family="Helvetica,sans-Serif" font-size="10.00">maths/colour.h</text>
</a>
</g>
</g>
<!-- Node3&#45;&gt;Node7 -->
<g id="edge7" class="edge">
<title>Node3&#45;&gt;Node7</title>
<path fill="none" stroke="midnightblue" d="M216.37,-112.4C184.06,-102.12 140.79,-88.35 110.4,-78.68"/>
<polygon fill="midnightblue" stroke="midnightblue" points="111.21,-75.27 100.62,-75.57 109.09,-81.94 111.21,-75.27"/>
</g>
<!-- Node8 -->
<g id="node8" class="node">
<title>Node8</title>
<g id="a_node8"><a xlink:title=" ">
<polygon fill="white" stroke="#bfbfbf" points="350.69,-56.5 350.69,-75.5 446.69,-75.5 446.69,-56.5 350.69,-56.5"/>
<text text-anchor="middle" x="398.69" y="-63.5" font-family="Helvetica,sans-Serif" font-size="10.00">maths/vector2.h</text>
</a>
</g>
</g>
<!-- Node3&#45;&gt;Node8 -->
<g id="edge8" class="edge">
<title>Node3&#45;&gt;Node8</title>
<path fill="none" stroke="midnightblue" d="M293.39,-112.4C316.44,-102.46 347.05,-89.26 369.32,-79.66"/>
<polygon fill="midnightblue" stroke="midnightblue" points="370.81,-82.83 378.61,-75.66 368.04,-76.4 370.81,-82.83"/>
</g>
<!-- Node9 -->
<g id="node9" class="node">
<title>Node9</title>
<g id="a_node9"><a xlink:title=" ">
<polygon fill="white" stroke="#bfbfbf" points="464.69,-56.5 464.69,-75.5 560.69,-75.5 560.69,-56.5 464.69,-56.5"/>
<text text-anchor="middle" x="512.69" y="-63.5" font-family="Helvetica,sans-Serif" font-size="10.00">maths/vector3.h</text>
</a>
</g>
</g>
<!-- Node3&#45;&gt;Node9 -->
<g id="edge9" class="edge">
<title>Node3&#45;&gt;Node9</title>
<path fill="none" stroke="midnightblue" d="M320.09,-112.47C364.99,-101.87 425.72,-87.53 466.89,-77.81"/>
<polygon fill="midnightblue" stroke="midnightblue" points="467.73,-81.21 476.66,-75.51 466.12,-74.4 467.73,-81.21"/>
</g>
<!-- Node10 -->
<g id="node10" class="node">
<title>Node10</title>
<g id="a_node10"><a xlink:title=" ">
<polygon fill="white" stroke="#bfbfbf" points="578.69,-56.5 578.69,-75.5 670.69,-75.5 670.69,-56.5 578.69,-56.5"/>
<text text-anchor="middle" x="624.69" y="-63.5" font-family="Helvetica,sans-Serif" font-size="10.00">maths/matrix.h</text>
</a>
</g>
</g>
<!-- Node3&#45;&gt;Node10 -->
<g id="edge10" class="edge">
<title>Node3&#45;&gt;Node10</title>
<path fill="none" stroke="midnightblue" d="M325.79,-115.86C386.07,-106.02 478.49,-90.91 568.38,-76.21"/>
<polygon fill="midnightblue" stroke="midnightblue" points="569.17,-79.63 578.47,-74.56 568.04,-72.72 569.17,-79.63"/>
</g>
<!-- Node11&#45;&gt;Node6 -->
<g id="edge15" class="edge">
<title>Node11&#45;&gt;Node6</title>
<path fill="none" stroke="midnightblue" d="M1234.93,-179.49C1252.81,-172.73 1273.99,-161.29 1284.69,-143 1291.64,-131.11 1290.7,-124.4 1284.69,-112 1245.93,-32.07 1129.42,-14.79 1065.97,-11.45"/>
<polygon fill="midnightblue" stroke="midnightblue" points="1066.04,-7.95 1055.89,-11.01 1065.73,-14.94 1066.04,-7.95"/>
</g>
<!-- Node12 -->
<g id="node12" class="node">
<title>Node12</title>
<g id="a_node12"><a xlink:title=" ">
<polygon fill="white" stroke="#bfbfbf" points="1233.69,-118 1233.69,-137 1275.69,-137 1275.69,-118 1233.69,-118"/>
<text text-anchor="middle" x="1254.69" y="-125" font-family="Helvetica,sans-Serif" font-size="10.00">array</text>
</a>
</g>
</g>
<!-- Node11&#45;&gt;Node12 -->
<g id="edge12" class="edge">
<title>Node11&#45;&gt;Node12</title>
<path fill="none" stroke="midnightblue" d="M1211.85,-179.48C1219.42,-170.46 1231.56,-156.02 1240.98,-144.81"/>
<polygon fill="midnightblue" stroke="midnightblue" points="1243.78,-146.92 1247.54,-137.01 1238.42,-142.41 1243.78,-146.92"/>
</g>
<!-- Node13 -->
<g id="node13" class="node">
<title>Node13</title>
<g id="a_node13"><a xlink:title=" ">
<polygon fill="white" stroke="#bfbfbf" points="1332.19,-118 1332.19,-137 1379.19,-137 1379.19,-118 1332.19,-118"/>
<text text-anchor="middle" x="1355.69" y="-125" font-family="Helvetica,sans-Serif" font-size="10.00">cmath</text>
</a>
</g>
</g>
<!-- Node11&#45;&gt;Node13 -->
<g id="edge13" class="edge">
<title>Node11&#45;&gt;Node13</title>
<path fill="none" stroke="midnightblue" d="M1226.32,-179.48C1252.11,-169.31 1295.4,-152.26 1324.73,-140.7"/>
<polygon fill="midnightblue" stroke="midnightblue" points="1326.07,-143.93 1334.09,-137.01 1323.51,-137.42 1326.07,-143.93"/>
</g>
<!-- Node14 -->
<g id="node14" class="node">
<title>Node14</title>
<g id="a_node14"><a xlink:title=" ">
<polygon fill="white" stroke="#bfbfbf" points="1397.69,-118 1397.69,-137 1505.69,-137 1505.69,-118 1397.69,-118"/>
<text text-anchor="middle" x="1451.69" y="-125" font-family="Helvetica,sans-Serif" font-size="10.00">SDL2/SDL_image.h</text>
</a>
</g>
</g>
<!-- Node11&#45;&gt;Node14 -->
<g id="edge14" class="edge">
<title>Node11&#45;&gt;Node14</title>
<path fill="none" stroke="midnightblue" d="M1240.08,-179.48C1283.91,-168.92 1358.65,-150.91 1406.57,-139.37"/>
<polygon fill="midnightblue" stroke="midnightblue" points="1407.46,-142.75 1416.36,-137.01 1405.82,-135.95 1407.46,-142.75"/>
</g>
<!-- Node15 -->
<g id="node15" class="node">
<title>Node15</title>
<g id="a_node15"><a xlink:title=" ">
<polygon fill="white" stroke="#bfbfbf" points="964.19,-118 964.19,-137 1075.19,-137 1075.19,-118 964.19,-118"/>
<text text-anchor="middle" x="1019.69" y="-125" font-family="Helvetica,sans-Serif" font-size="10.00">maths/maths_util.h</text>
</a>
</g>
</g>
<!-- Node11&#45;&gt;Node15 -->
<g id="edge16" class="edge">
<title>Node11&#45;&gt;Node15</title>
<path fill="none" stroke="midnightblue" d="M1178.18,-179.48C1146.03,-169.14 1091.7,-151.66 1055.76,-140.1"/>
<polygon fill="midnightblue" stroke="midnightblue" points="1056.73,-136.74 1046.14,-137.01 1054.59,-143.4 1056.73,-136.74"/>
</g>
<!-- Node16 -->
<g id="node16" class="node">
<title>Node16</title>
<g id="a_node16"><a xlink:href="pixel__format_8h.html" target="_top" xlink:title=" ">
<polygon fill="white" stroke="black" points="1093.69,-112.5 1093.69,-142.5 1215.69,-142.5 1215.69,-112.5 1093.69,-112.5"/>
<text text-anchor="start" x="1101.69" y="-130.5" font-family="Helvetica,sans-Serif" font-size="10.00">graphics/texture/pixel</text>
<text text-anchor="middle" x="1154.69" y="-119.5" font-family="Helvetica,sans-Serif" font-size="10.00">_format.h</text>
</a>
</g>
</g>
<!-- Node11&#45;&gt;Node16 -->
<g id="edge17" class="edge">
<title>Node11&#45;&gt;Node16</title>
<path fill="none" stroke="midnightblue" d="M1197.52,-179.48C1191.13,-171.87 1181.49,-160.4 1172.98,-150.26"/>
<polygon fill="midnightblue" stroke="midnightblue" points="1175.58,-147.93 1166.47,-142.52 1170.22,-152.43 1175.58,-147.93"/>
</g>
<!-- Node16&#45;&gt;Node6 -->
<g id="edge19" class="edge">
<title>Node16&#45;&gt;Node6</title>
<path fill="none" stroke="midnightblue" d="M1143.8,-112.28C1131.93,-97.3 1111.92,-73.5 1091.69,-56 1078.11,-44.26 1061.31,-33.12 1047.81,-24.85"/>
<polygon fill="midnightblue" stroke="midnightblue" points="1049.44,-21.75 1039.06,-19.62 1045.85,-27.76 1049.44,-21.75"/>
</g>
<!-- Node17 -->
<g id="node17" class="node">
<title>Node17</title>
<g id="a_node17"><a xlink:title=" ">
<polygon fill="white" stroke="#bfbfbf" points="1139.19,-56.5 1139.19,-75.5 1204.19,-75.5 1204.19,-56.5 1139.19,-56.5"/>
<text text-anchor="middle" x="1171.69" y="-63.5" font-family="Helvetica,sans-Serif" font-size="10.00">stdexcept</text>
</a>
</g>
</g>
<!-- Node16&#45;&gt;Node17 -->
<g id="edge18" class="edge">
<title>Node16&#45;&gt;Node17</title>
<path fill="none" stroke="midnightblue" d="M1158.72,-112.4C1161.03,-104.29 1163.97,-94.01 1166.46,-85.28"/>
<polygon fill="midnightblue" stroke="midnightblue" points="1169.83,-86.23 1169.21,-75.66 1163.1,-84.31 1169.83,-86.23"/>
</g>
<!-- Node18&#45;&gt;Node3 -->
<g id="edge41" class="edge">
<title>Node18&#45;&gt;Node3</title>
<path fill="none" stroke="midnightblue" d="M260.69,-235.32C260.69,-217.97 260.69,-178.46 260.69,-152.66"/>
<polygon fill="midnightblue" stroke="midnightblue" points="264.19,-152.55 260.69,-142.55 257.19,-152.55 264.19,-152.55"/>
</g>
<!-- Node18&#45;&gt;Node7 -->
<g id="edge21" class="edge">
<title>Node18&#45;&gt;Node7</title>
<path fill="none" stroke="midnightblue" d="M247.86,-235.45C223.83,-219.1 170.97,-181.58 132.69,-143 114.2,-124.36 96.17,-99.97 85.01,-83.91"/>
<polygon fill="midnightblue" stroke="midnightblue" points="87.81,-81.8 79.28,-75.52 82.03,-85.75 87.81,-81.8"/>
</g>
<!-- Node18&#45;&gt;Node11 -->
<g id="edge40" class="edge">
<title>Node18&#45;&gt;Node11</title>
<path fill="none" stroke="midnightblue" d="M332.8,-239.87C505.39,-230 941.32,-205.07 1123.11,-194.67"/>
<polygon fill="midnightblue" stroke="midnightblue" points="1123.36,-198.16 1133.15,-194.09 1122.96,-191.17 1123.36,-198.16"/>
</g>
<!-- Node19 -->
<g id="node19" class="node">
<title>Node19</title>
<g id="a_node19"><a xlink:href="mesh_8h.html" target="_top" xlink:title=" ">
<polygon fill="white" stroke="black" points="397.19,-179.5 397.19,-198.5 524.19,-198.5 524.19,-179.5 397.19,-179.5"/>
<text text-anchor="middle" x="460.69" y="-186.5" font-family="Helvetica,sans-Serif" font-size="10.00">graphics/mesh/mesh.h</text>
</a>
</g>
</g>
<!-- Node18&#45;&gt;Node19 -->
<g id="edge22" class="edge">
<title>Node18&#45;&gt;Node19</title>
<path fill="none" stroke="midnightblue" d="M292.38,-235.44C326.75,-226.16 381.76,-211.31 419.48,-201.13"/>
<polygon fill="midnightblue" stroke="midnightblue" points="420.4,-204.5 429.14,-198.52 418.58,-197.74 420.4,-204.5"/>
</g>
<!-- Node19&#45;&gt;Node2 -->
<g id="edge23" class="edge">
<title>Node19&#45;&gt;Node2</title>
<path fill="none" stroke="midnightblue" d="M396.9,-185.93C325.3,-182.21 215.38,-171.83 186.69,-143 156.77,-112.93 158.87,-58.49 162.52,-29.82"/>
<polygon fill="midnightblue" stroke="midnightblue" points="166.03,-29.98 164.03,-19.57 159.11,-28.95 166.03,-29.98"/>
</g>
<!-- Node19&#45;&gt;Node4 -->
<g id="edge25" class="edge">
<title>Node19&#45;&gt;Node4</title>
<path fill="none" stroke="midnightblue" d="M444.08,-179.4C428.58,-171.03 405.13,-157.49 386.69,-143 363.2,-124.55 339.36,-99.45 324.8,-83.24"/>
<polygon fill="midnightblue" stroke="midnightblue" points="327.34,-80.82 318.09,-75.65 322.09,-85.46 327.34,-80.82"/>
</g>
<!-- Node19&#45;&gt;Node5 -->
<g id="edge24" class="edge">
<title>Node19&#45;&gt;Node5</title>
<path fill="none" stroke="midnightblue" d="M524.19,-186.35C643.15,-182.6 889.9,-171.46 915.69,-143 934.31,-122.44 897.79,-59.79 894.69,-56 883.51,-42.33 867.03,-31.61 852.66,-24.06"/>
<polygon fill="midnightblue" stroke="midnightblue" points="854.11,-20.87 843.6,-19.56 851,-27.14 854.11,-20.87"/>
</g>
<!-- Node20 -->
<g id="node20" class="node">
<title>Node20</title>
<g id="a_node20"><a xlink:href="vertex_8h.html" target="_top" xlink:title=" ">
<polygon fill="white" stroke="black" points="395.19,-118 395.19,-137 526.19,-137 526.19,-118 395.19,-118"/>
<text text-anchor="middle" x="460.69" y="-125" font-family="Helvetica,sans-Serif" font-size="10.00">graphics/mesh/vertex.h</text>
</a>
</g>
</g>
<!-- Node19&#45;&gt;Node20 -->
<g id="edge26" class="edge">
<title>Node19&#45;&gt;Node20</title>
<path fill="none" stroke="midnightblue" d="M460.69,-179.48C460.69,-171.08 460.69,-157.98 460.69,-147.16"/>
<polygon fill="midnightblue" stroke="midnightblue" points="464.19,-147.01 460.69,-137.01 457.19,-147.01 464.19,-147.01"/>
</g>
<!-- Node21 -->
<g id="node21" class="node">
<title>Node21</title>
<g id="a_node21"><a xlink:href="mesh__instance__data_8h.html" target="_top" xlink:title=" ">
<polygon fill="white" stroke="black" points="561.69,-112.5 561.69,-142.5 679.69,-142.5 679.69,-112.5 561.69,-112.5"/>
<text text-anchor="start" x="569.69" y="-130.5" font-family="Helvetica,sans-Serif" font-size="10.00">graphics/mesh/mesh</text>
<text text-anchor="middle" x="620.69" y="-119.5" font-family="Helvetica,sans-Serif" font-size="10.00">_instance_data.h</text>
</a>
</g>
</g>
<!-- Node19&#45;&gt;Node21 -->
<g id="edge29" class="edge">
<title>Node19&#45;&gt;Node21</title>
<path fill="none" stroke="midnightblue" d="M483.61,-179.48C506.9,-170.81 543.66,-157.15 573.25,-146.14"/>
<polygon fill="midnightblue" stroke="midnightblue" points="574.82,-149.29 582.98,-142.52 572.38,-142.73 574.82,-149.29"/>
</g>
<!-- Node22 -->
<g id="node22" class="node">
<title>Node22</title>
<g id="a_node22"><a xlink:href="vao_8h.html" target="_top" xlink:title=" ">
<polygon fill="white" stroke="black" points="788.69,-118 788.69,-137 906.69,-137 906.69,-118 788.69,-118"/>
<text text-anchor="middle" x="847.69" y="-125" font-family="Helvetica,sans-Serif" font-size="10.00">graphics/mesh/vao.h</text>
</a>
</g>
</g>
<!-- Node19&#45;&gt;Node22 -->
<g id="edge31" class="edge">
<title>Node19&#45;&gt;Node22</title>
<path fill="none" stroke="midnightblue" d="M516.13,-179.48C586.4,-168.67 707.34,-150.08 782.11,-138.58"/>
<polygon fill="midnightblue" stroke="midnightblue" points="782.99,-141.99 792.34,-137.01 781.93,-135.07 782.99,-141.99"/>
</g>
<!-- Node20&#45;&gt;Node8 -->
<g id="edge27" class="edge">
<title>Node20&#45;&gt;Node8</title>
<path fill="none" stroke="midnightblue" d="M451.8,-117.98C442.23,-108.78 426.78,-93.96 415,-82.66"/>
<polygon fill="midnightblue" stroke="midnightblue" points="417.19,-79.91 407.55,-75.51 412.34,-84.96 417.19,-79.91"/>
</g>
<!-- Node20&#45;&gt;Node9 -->
<g id="edge28" class="edge">
<title>Node20&#45;&gt;Node9</title>
<path fill="none" stroke="midnightblue" d="M468.14,-117.98C476.01,-108.96 488.63,-94.52 498.43,-83.31"/>
<polygon fill="midnightblue" stroke="midnightblue" points="501.3,-85.34 505.25,-75.51 496.03,-80.74 501.3,-85.34"/>
</g>
<!-- Node21&#45;&gt;Node10 -->
<g id="edge30" class="edge">
<title>Node21&#45;&gt;Node10</title>
<path fill="none" stroke="midnightblue" d="M621.63,-112.4C622.17,-104.47 622.84,-94.46 623.42,-85.86"/>
<polygon fill="midnightblue" stroke="midnightblue" points="626.93,-85.87 624.1,-75.66 619.94,-85.4 626.93,-85.87"/>
</g>
<!-- Node22&#45;&gt;Node5 -->
<g id="edge33" class="edge">
<title>Node22&#45;&gt;Node5</title>
<path fill="none" stroke="midnightblue" d="M856.84,-117.75C869.68,-104.36 890.35,-78.01 879.69,-56 873.29,-42.8 860.93,-32.3 849.36,-24.78"/>
<polygon fill="midnightblue" stroke="midnightblue" points="851.14,-21.77 840.77,-19.61 847.53,-27.77 851.14,-21.77"/>
</g>
<!-- Node23 -->
<g id="node23" class="node">
<title>Node23</title>
<g id="a_node23"><a xlink:title=" ">
<polygon fill="white" stroke="#bfbfbf" points="825.19,-56.5 825.19,-75.5 870.19,-75.5 870.19,-56.5 825.19,-56.5"/>
<text text-anchor="middle" x="847.69" y="-63.5" font-family="Helvetica,sans-Serif" font-size="10.00">utility</text>
</a>
</g>
</g>
<!-- Node22&#45;&gt;Node23 -->
<g id="edge32" class="edge">
<title>Node22&#45;&gt;Node23</title>
<path fill="none" stroke="midnightblue" d="M847.69,-117.98C847.69,-109.58 847.69,-96.48 847.69,-85.66"/>
<polygon fill="midnightblue" stroke="midnightblue" points="851.19,-85.51 847.69,-75.51 844.19,-85.51 851.19,-85.51"/>
</g>
<!-- Node24 -->
<g id="node24" class="node">
<title>Node24</title>
<g id="a_node24"><a xlink:href="vbo_8h.html" target="_top" xlink:title=" ">
<polygon fill="white" stroke="black" points="688.69,-56.5 688.69,-75.5 806.69,-75.5 806.69,-56.5 688.69,-56.5"/>
<text text-anchor="middle" x="747.69" y="-63.5" font-family="Helvetica,sans-Serif" font-size="10.00">graphics/mesh/vbo.h</text>
</a>
</g>
</g>
<!-- Node22&#45;&gt;Node24 -->
<g id="edge34" class="edge">
<title>Node22&#45;&gt;Node24</title>
<path fill="none" stroke="midnightblue" d="M833.36,-117.98C817.02,-108.25 790.08,-92.23 770.77,-80.74"/>
<polygon fill="midnightblue" stroke="midnightblue" points="772.37,-77.61 761.99,-75.51 768.79,-83.63 772.37,-77.61"/>
</g>
<!-- Node25 -->
<g id="node25" class="node">
<title>Node25</title>
<g id="a_node25"><a xlink:href="ebo_8h.html" target="_top" xlink:title=" ">
<polygon fill="white" stroke="black" points="964.69,-56.5 964.69,-75.5 1082.69,-75.5 1082.69,-56.5 964.69,-56.5"/>
<text text-anchor="middle" x="1023.69" y="-63.5" font-family="Helvetica,sans-Serif" font-size="10.00">graphics/mesh/ebo.h</text>
</a>
</g>
</g>
<!-- Node22&#45;&gt;Node25 -->
<g id="edge38" class="edge">
<title>Node22&#45;&gt;Node25</title>
<path fill="none" stroke="midnightblue" d="M872.9,-117.98C903.35,-107.68 954.74,-90.31 988.93,-78.75"/>
<polygon fill="midnightblue" stroke="midnightblue" points="990.16,-82.03 998.52,-75.51 987.92,-75.4 990.16,-82.03"/>
</g>
<!-- Node24&#45;&gt;Node2 -->
<g id="edge36" class="edge">
<title>Node24&#45;&gt;Node2</title>
<path fill="none" stroke="midnightblue" d="M688.37,-56.99C685.43,-56.64 682.53,-56.31 679.69,-56 502.75,-36.56 290.8,-20.18 204.8,-13.83"/>
<polygon fill="midnightblue" stroke="midnightblue" points="204.94,-10.33 194.71,-13.09 204.43,-17.31 204.94,-10.33"/>
</g>
<!-- Node24&#45;&gt;Node5 -->
<g id="edge35" class="edge">
<title>Node24&#45;&gt;Node5</title>
<path fill="none" stroke="midnightblue" d="M759.74,-56.32C771.15,-48.11 788.52,-35.6 802.12,-25.81"/>
<polygon fill="midnightblue" stroke="midnightblue" points="804.35,-28.52 810.42,-19.83 800.26,-22.84 804.35,-28.52"/>
</g>
<!-- Node24&#45;&gt;Node6 -->
<g id="edge37" class="edge">
<title>Node24&#45;&gt;Node6</title>
<path fill="none" stroke="midnightblue" d="M791.42,-56.44C843.47,-46.26 929.78,-29.37 981.25,-19.3"/>
<polygon fill="midnightblue" stroke="midnightblue" points="982.23,-22.68 991.37,-17.32 980.88,-15.81 982.23,-22.68"/>
</g>
<!-- Node25&#45;&gt;Node6 -->
<g id="edge39" class="edge">
<title>Node25&#45;&gt;Node6</title>
<path fill="none" stroke="midnightblue" d="M1023.69,-56.08C1023.69,-49.01 1023.69,-38.86 1023.69,-29.99"/>
<polygon fill="midnightblue" stroke="midnightblue" points="1027.19,-29.75 1023.69,-19.75 1020.19,-29.75 1027.19,-29.75"/>
</g>
</g>
</svg>
        <g id="navigator" transform="translate(0 0)" fill="#404254">
                <rect fill="#f2f5e9" fill-opacity="0.5" stroke="#606060" stroke-width=".5" x="0" y="0" width="60" height="60"/>
                <use id="zoomplus" xlink:href="#zoomPlus" x="17" y="9" onmousedown="handleZoom(evt,'in')"/>
                <use id="zoomminus" xlink:href="#zoomMin" x="42" y="9" onmousedown="handleZoom(evt,'out')"/>
                <use id="reset" xlink:href="#resetDef" x="30" y="36" onmousedown="handleReset()"/>
                <g id="arrowUp" xlink:href="#dirArrow" transform="translate(30 24)" onmousedown="handlePan(0,-1)">
                  <use xlink:href="#rim" fill="#404040">
                        <set attributeName="fill" to="#808080" begin="arrowUp.mouseover" end="arrowUp.mouseout"/>
                  </use>
                  <path fill="none" stroke="white" stroke-width="1.5" d="M0,-3.0v7 M-2.5,-0.5L0,-3.0L2.5,-0.5"/>
                </g>
                <g id="arrowRight" xlink:href="#dirArrow" transform="rotate(90) translate(36 -43)" onmousedown="handlePan(1,0)">
                  <use xlink:href="#rim" fill="#404040">
                        <set attributeName="fill" to="#808080" begin="arrowRight.mouseover" end="arrowRight.mouseout"/>
                  </use>
                  <path fill="none" stroke="white" stroke-width="1.5" d="M0,-3.0v7 M-2.5,-0.5L0,-3.0L2.5,-0.5"/>
                </g>
                <g id="arrowDown" xlink:href="#dirArrow" transform="rotate(180) translate(-30 -48)" onmousedown="handlePan(0,1)">
                  <use xlink:href="#rim" fill="#404040">
                        <set attributeName="fill" to="#808080" begin="arrowDown.mouseover" end="arrowDown.mouseout"/>
                  </use>
                  <path fill="none" stroke="white" stroke-width="1.5" d="M0,-3.0v7 M-2.5,-0.5L0,-3.0L2.5,-0.5"/>
                </g>
                <g id="arrowLeft" xlink:href="#dirArrow" transform="rotate(270) translate(-36 17)" onmousedown="handlePan(-1,0)">
                  <use xlink:href="#rim" fill="#404040">
                        <set attributeName="fill" to="#808080" begin="arrowLeft.mouseover" end="arrowLeft.mouseout"/>
                  </use>
                  <path fill="none" stroke="white" stroke-width="1.5" d="M0,-3.0v7 M-2.5,-0.5L0,-3.0L2.5,-0.5"/>
                </g>
        </g>
        <svg viewBox="0 0 15 15" width="100%" height="30px" preserveAspectRatio="xMaxYMin meet">
         <g id="arrow_out" transform="scale(0.3 0.3)">
          <a xlink:href="camera_8h__incl_org.svg" target="_base">
           <rect id="button" ry="5" rx="5" y="6" x="6" height="38" width="38"
                fill="#f2f5e9" fill-opacity="0.5" stroke="#606060" stroke-width="1.0"/>
           <path id="arrow"
             d="M 11.500037,31.436501 C 11.940474,20.09759 22.043105,11.32322 32.158766,21.979434 L 37.068811,17.246167 C 37.068811,17.246167 37.088388,32 37.088388,32 L 22.160133,31.978069 C 22.160133,31.978069 26.997745,27.140456 26.997745,27.140456 C 18.528582,18.264221 13.291696,25.230495 11.500037,31.436501 z"
             style="fill:#404040;"/>
          </a>
         </g>
        </svg>
</svg>
