<?xml version="1.0" encoding="UTF-8" standalone="no"?>
<!DOCTYPE svg PUBLIC "-//W3C//DTD SVG 1.1//EN"
 "http://www.w3.org/Graphics/SVG/1.1/DTD/svg11.dtd">
<!-- Generated by graphviz version 2.43.0 (0)
 -->
<!-- Title: mkr::axis_handler Pages: 1 -->
<svg width="517pt" height="325pt"
 viewBox="0.00 0.00 516.50 325.00" xmlns="http://www.w3.org/2000/svg" xmlns:xlink="http://www.w3.org/1999/xlink">
<g id="graph0" class="graph" transform="scale(1 1) rotate(0) translate(4 321)">
<title>mkr::axis_handler</title>
<polygon fill="white" stroke="transparent" points="-4,4 -4,-321 512.5,-321 512.5,4 -4,4"/>
<!-- Node1 -->
<g id="node1" class="node">
<title>Node1</title>
<g id="a_node1"><a xlink:title=" ">
<polygon fill="#bfbfbf" stroke="black" points="178,-0.5 178,-156.5 300,-156.5 300,-0.5 178,-0.5"/>
<text text-anchor="middle" x="239" y="-144.5" font-family="Helvetica,sans-Serif" font-size="10.00">mkr::axis_handler</text>
<polyline fill="none" stroke="black" points="178,-137.5 300,-137.5 "/>
<text text-anchor="middle" x="239" y="-125.5" font-family="Helvetica,sans-Serif" font-size="10.00"> </text>
<polyline fill="none" stroke="black" points="178,-118.5 300,-118.5 "/>
<text text-anchor="start" x="186" y="-106.5" font-family="Helvetica,sans-Serif" font-size="10.00">+ axis_handler()</text>
<text text-anchor="start" x="186" y="-95.5" font-family="Helvetica,sans-Serif" font-size="10.00">+ ~axis_handler()</text>
<text text-anchor="start" x="186" y="-84.5" font-family="Helvetica,sans-Serif" font-size="10.00">+ dispatch_events()</text>
<text text-anchor="start" x="186" y="-73.5" font-family="Helvetica,sans-Serif" font-size="10.00">+ on_axis()</text>
<text text-anchor="start" x="186" y="-62.5" font-family="Helvetica,sans-Serif" font-size="10.00">+ register_axis()</text>
<text text-anchor="start" x="186" y="-51.5" font-family="Helvetica,sans-Serif" font-size="10.00">+ unregister_axis()</text>
<text text-anchor="start" x="186" y="-40.5" font-family="Helvetica,sans-Serif" font-size="10.00">+ on_key_down()</text>
<text text-anchor="start" x="186" y="-29.5" font-family="Helvetica,sans-Serif" font-size="10.00">+ on_key_up()</text>
<text text-anchor="start" x="186" y="-18.5" font-family="Helvetica,sans-Serif" font-size="10.00">+ register_button()</text>
<text text-anchor="start" x="186" y="-7.5" font-family="Helvetica,sans-Serif" font-size="10.00">+ unregister_button()</text>
</a>
</g>
</g>
<!-- Node2 -->
<g id="node2" class="node">
<title>Node2</title>
<g id="a_node2"><a xlink:title=" ">
<polygon fill="white" stroke="#bfbfbf" points="0,-243 0,-311 122,-311 122,-243 0,-243"/>
<text text-anchor="start" x="8" y="-299" font-family="Helvetica,sans-Serif" font-size="10.00">unordered_set&lt; input</text>
<text text-anchor="middle" x="61" y="-288" font-family="Helvetica,sans-Serif" font-size="10.00">_action_t &gt;</text>
<polyline fill="none" stroke="#bfbfbf" points="0,-281 122,-281 "/>
<text text-anchor="middle" x="61" y="-269" font-family="Helvetica,sans-Serif" font-size="10.00"> </text>
<polyline fill="none" stroke="#bfbfbf" points="0,-262 122,-262 "/>
<text text-anchor="middle" x="61" y="-250" font-family="Helvetica,sans-Serif" font-size="10.00"> </text>
</a>
</g>
</g>
<!-- Node2&#45;&gt;Node1 -->
<g id="edge1" class="edge">
<title>Node2&#45;&gt;Node1</title>
<path fill="none" stroke="#404040" d="M57.71,-242.97C57.25,-221.89 59.87,-194.89 73,-175 94.89,-141.84 132.51,-118.83 166.41,-103.72"/>
<polygon fill="none" stroke="#404040" points="166.69,-103.6 170.65,-97.57 177.73,-98.9 173.78,-104.93 166.69,-103.6"/>
<text text-anchor="middle" x="125" y="-200" font-family="Helvetica,sans-Serif" font-size="10.00"> &#45;downed_negatives_</text>
<text text-anchor="middle" x="125" y="-189" font-family="Helvetica,sans-Serif" font-size="10.00">&#45;downed_positives_</text>
</g>
<!-- Node3 -->
<g id="node3" class="node">
<title>Node3</title>
<g id="a_node3"><a xlink:title=" ">
<polygon fill="white" stroke="#bfbfbf" points="155,-248.5 155,-305.5 203,-305.5 203,-248.5 155,-248.5"/>
<text text-anchor="middle" x="179" y="-293.5" font-family="Helvetica,sans-Serif" font-size="10.00">mutex</text>
<polyline fill="none" stroke="#bfbfbf" points="155,-286.5 203,-286.5 "/>
<text text-anchor="middle" x="179" y="-274.5" font-family="Helvetica,sans-Serif" font-size="10.00"> </text>
<polyline fill="none" stroke="#bfbfbf" points="155,-267.5 203,-267.5 "/>
<text text-anchor="middle" x="179" y="-255.5" font-family="Helvetica,sans-Serif" font-size="10.00"> </text>
</a>
</g>
</g>
<!-- Node3&#45;&gt;Node1 -->
<g id="edge2" class="edge">
<title>Node3&#45;&gt;Node1</title>
<path fill="none" stroke="#404040" d="M179.3,-248.46C180.17,-227.84 182.76,-199.16 190,-175 190.68,-172.72 191.42,-170.44 192.2,-168.15"/>
<polygon fill="none" stroke="#404040" points="192.28,-167.95 190.62,-160.93 196.47,-156.7 198.12,-163.72 192.28,-167.95"/>
<text text-anchor="middle" x="225.5" y="-200" font-family="Helvetica,sans-Serif" font-size="10.00"> &#45;reg_mutex_</text>
<text text-anchor="middle" x="225.5" y="-189" font-family="Helvetica,sans-Serif" font-size="10.00">&#45;state_mutex_</text>
</g>
<!-- Node4 -->
<g id="node4" class="node">
<title>Node4</title>
<g id="a_node4"><a xlink:title=" ">
<polygon fill="white" stroke="#bfbfbf" points="221,-237.5 221,-316.5 361,-316.5 361,-237.5 221,-237.5"/>
<text text-anchor="start" x="229" y="-304.5" font-family="Helvetica,sans-Serif" font-size="10.00">unordered_map&lt; input</text>
<text text-anchor="start" x="229" y="-293.5" font-family="Helvetica,sans-Serif" font-size="10.00">_mask_t, std::unordered</text>
<text text-anchor="middle" x="291" y="-282.5" font-family="Helvetica,sans-Serif" font-size="10.00">_set&lt; input_action_t &gt; &gt;</text>
<polyline fill="none" stroke="#bfbfbf" points="221,-275.5 361,-275.5 "/>
<text text-anchor="middle" x="291" y="-263.5" font-family="Helvetica,sans-Serif" font-size="10.00"> </text>
<polyline fill="none" stroke="#bfbfbf" points="221,-256.5 361,-256.5 "/>
<text text-anchor="middle" x="291" y="-244.5" font-family="Helvetica,sans-Serif" font-size="10.00"> </text>
</a>
</g>
</g>
<!-- Node4&#45;&gt;Node1 -->
<g id="edge3" class="edge">
<title>Node4&#45;&gt;Node1</title>
<path fill="none" stroke="#404040" d="M280.73,-237.18C275.51,-217.47 268.95,-192.66 262.58,-168.59"/>
<polygon fill="none" stroke="#404040" points="262.54,-168.46 257.14,-163.68 259.47,-156.86 264.87,-161.63 262.54,-168.46"/>
<text text-anchor="middle" x="323.5" y="-211" font-family="Helvetica,sans-Serif" font-size="10.00"> &#45;negative_buttons_</text>
<text text-anchor="start" x="275" y="-200" font-family="Helvetica,sans-Serif" font-size="10.00">&#45;positive_buttons</text>
<text text-anchor="middle" x="323.5" y="-189" font-family="Helvetica,sans-Serif" font-size="10.00">_</text>
<text text-anchor="middle" x="323.5" y="-178" font-family="Helvetica,sans-Serif" font-size="10.00">&#45;registry_</text>
</g>
<!-- Node5 -->
<g id="node5" class="node">
<title>Node5</title>
<g id="a_node5"><a xlink:title=" ">
<polygon fill="white" stroke="#bfbfbf" points="379.5,-243 379.5,-311 508.5,-311 508.5,-243 379.5,-243"/>
<text text-anchor="start" x="387.5" y="-299" font-family="Helvetica,sans-Serif" font-size="10.00">unordered_map&lt; input</text>
<text text-anchor="middle" x="444" y="-288" font-family="Helvetica,sans-Serif" font-size="10.00">_action_t, float &gt;</text>
<polyline fill="none" stroke="#bfbfbf" points="379.5,-281 508.5,-281 "/>
<text text-anchor="middle" x="444" y="-269" font-family="Helvetica,sans-Serif" font-size="10.00"> </text>
<polyline fill="none" stroke="#bfbfbf" points="379.5,-262 508.5,-262 "/>
<text text-anchor="middle" x="444" y="-250" font-family="Helvetica,sans-Serif" font-size="10.00"> </text>
</a>
</g>
</g>
<!-- Node5&#45;&gt;Node1 -->
<g id="edge4" class="edge">
<title>Node5&#45;&gt;Node1</title>
<path fill="none" stroke="#404040" d="M425.92,-242.8C413.57,-221.92 395.87,-195.19 376,-175 356.6,-155.29 332.64,-137 310.21,-121.82"/>
<polygon fill="none" stroke="#404040" points="310.03,-121.71 302.82,-121.72 300.03,-115.07 307.24,-115.06 310.03,-121.71"/>
<text text-anchor="middle" x="427.5" y="-194.5" font-family="Helvetica,sans-Serif" font-size="10.00"> &#45;state_</text>
</g>
</g>
</svg>
