<?xml version="1.0" encoding="UTF-8" standalone="no"?>
<!DOCTYPE svg PUBLIC "-//W3C//DTD SVG 1.1//EN"
 "http://www.w3.org/Graphics/SVG/1.1/DTD/svg11.dtd">
<!-- Generated by graphviz version 2.43.0 (0)
 -->
<!-- Title: mkr::material Pages: 1 -->
<svg width="826pt" height="1174pt"
 viewBox="0.00 0.00 825.50 1174.00" xmlns="http://www.w3.org/2000/svg" xmlns:xlink="http://www.w3.org/1999/xlink">
<g id="graph0" class="graph" transform="scale(1 1) rotate(0) translate(4 1170)">
<title>mkr::material</title>
<polygon fill="white" stroke="transparent" points="-4,4 -4,-1170 821.5,-1170 821.5,4 -4,4"/>
<!-- Node1 -->
<g id="node1" class="node">
<title>Node1</title>
<g id="a_node1"><a xlink:title=" ">
<polygon fill="#bfbfbf" stroke="black" points="353,-0.5 353,-68.5 438,-68.5 438,-0.5 353,-0.5"/>
<text text-anchor="middle" x="395.5" y="-56.5" font-family="Helvetica,sans-Serif" font-size="10.00">mkr::material</text>
<polyline fill="none" stroke="black" points="353,-49.5 438,-49.5 "/>
<text text-anchor="middle" x="395.5" y="-37.5" font-family="Helvetica,sans-Serif" font-size="10.00"> </text>
<polyline fill="none" stroke="black" points="353,-30.5 438,-30.5 "/>
<text text-anchor="start" x="361" y="-18.5" font-family="Helvetica,sans-Serif" font-size="10.00">+ material()</text>
<text text-anchor="start" x="361" y="-7.5" font-family="Helvetica,sans-Serif" font-size="10.00">+ ~material()</text>
</a>
</g>
</g>
<!-- Node2 -->
<g id="node2" class="node">
<title>Node2</title>
<g id="a_node2"><a xlink:href="classmkr_1_1texture2d.html" target="_top" xlink:title=" ">
<polygon fill="white" stroke="black" points="0,-182.5 0,-261.5 91,-261.5 91,-182.5 0,-182.5"/>
<text text-anchor="middle" x="45.5" y="-249.5" font-family="Helvetica,sans-Serif" font-size="10.00">mkr::texture2d</text>
<polyline fill="none" stroke="black" points="0,-242.5 91,-242.5 "/>
<text text-anchor="middle" x="45.5" y="-230.5" font-family="Helvetica,sans-Serif" font-size="10.00"> </text>
<polyline fill="none" stroke="black" points="0,-223.5 91,-223.5 "/>
<text text-anchor="start" x="8" y="-211.5" font-family="Helvetica,sans-Serif" font-size="10.00">+ texture2d()</text>
<text text-anchor="start" x="8" y="-200.5" font-family="Helvetica,sans-Serif" font-size="10.00">+ texture2d()</text>
<text text-anchor="start" x="8" y="-189.5" font-family="Helvetica,sans-Serif" font-size="10.00">+ ~texture2d()</text>
</a>
</g>
</g>
<!-- Node2&#45;&gt;Node1 -->
<g id="edge1" class="edge">
<title>Node2&#45;&gt;Node1</title>
<path fill="none" stroke="#404040" d="M30.4,-182.28C21.64,-152.68 16.23,-112.71 38.5,-87 76.92,-42.64 250.46,-35.63 340.66,-35.06"/>
<polygon fill="none" stroke="#404040" points="340.81,-35.06 346.8,-31.04 352.81,-35.02 346.82,-39.04 340.81,-35.06"/>
<text text-anchor="middle" x="96" y="-156" font-family="Helvetica,sans-Serif" font-size="10.00"> +texture_diffuse_</text>
<text text-anchor="start" x="38.5" y="-145" font-family="Helvetica,sans-Serif" font-size="10.00">+texture_displacement</text>
<text text-anchor="middle" x="96" y="-134" font-family="Helvetica,sans-Serif" font-size="10.00">_</text>
<text text-anchor="middle" x="96" y="-123" font-family="Helvetica,sans-Serif" font-size="10.00">+texture_gloss_</text>
<text text-anchor="start" x="38.5" y="-112" font-family="Helvetica,sans-Serif" font-size="10.00">+texture_normal</text>
<text text-anchor="middle" x="96" y="-101" font-family="Helvetica,sans-Serif" font-size="10.00">_</text>
<text text-anchor="middle" x="96" y="-90" font-family="Helvetica,sans-Serif" font-size="10.00">+texture_specular_</text>
</g>
<!-- Node3 -->
<g id="node3" class="node">
<title>Node3</title>
<g id="a_node3"><a xlink:href="classmkr_1_1texture.html" target="_top" xlink:title=" ">
<polygon fill="white" stroke="black" points="173.5,-607.5 173.5,-741.5 283.5,-741.5 283.5,-607.5 173.5,-607.5"/>
<text text-anchor="middle" x="228.5" y="-729.5" font-family="Helvetica,sans-Serif" font-size="10.00">mkr::texture</text>
<polyline fill="none" stroke="black" points="173.5,-722.5 283.5,-722.5 "/>
<text text-anchor="middle" x="228.5" y="-710.5" font-family="Helvetica,sans-Serif" font-size="10.00"> </text>
<polyline fill="none" stroke="black" points="173.5,-703.5 283.5,-703.5 "/>
<text text-anchor="start" x="181.5" y="-691.5" font-family="Helvetica,sans-Serif" font-size="10.00">+ ~texture()</text>
<text text-anchor="start" x="181.5" y="-680.5" font-family="Helvetica,sans-Serif" font-size="10.00">+ name()</text>
<text text-anchor="start" x="181.5" y="-669.5" font-family="Helvetica,sans-Serif" font-size="10.00">+ width()</text>
<text text-anchor="start" x="181.5" y="-658.5" font-family="Helvetica,sans-Serif" font-size="10.00">+ height()</text>
<text text-anchor="start" x="181.5" y="-647.5" font-family="Helvetica,sans-Serif" font-size="10.00">+ handle()</text>
<text text-anchor="start" x="181.5" y="-636.5" font-family="Helvetica,sans-Serif" font-size="10.00">+ bind()</text>
<text text-anchor="start" x="181.5" y="-625.5" font-family="Helvetica,sans-Serif" font-size="10.00"># texture()</text>
<text text-anchor="start" x="181.5" y="-614.5" font-family="Helvetica,sans-Serif" font-size="10.00"># mip_map_level()</text>
</a>
</g>
</g>
<!-- Node3&#45;&gt;Node2 -->
<g id="edge2" class="edge">
<title>Node3&#45;&gt;Node2</title>
<path fill="none" stroke="midnightblue" d="M197.65,-597.56C158.24,-500.53 91.5,-336.24 61.25,-261.76"/>
<polygon fill="none" stroke="midnightblue" points="194.49,-599.08 201.5,-607.03 200.98,-596.45 194.49,-599.08"/>
</g>
<!-- Node4 -->
<g id="node4" class="node">
<title>Node4</title>
<g id="a_node4"><a xlink:title=" ">
<polygon fill="white" stroke="#bfbfbf" points="165.5,-1108.5 165.5,-1165.5 221.5,-1165.5 221.5,-1108.5 165.5,-1108.5"/>
<text text-anchor="middle" x="193.5" y="-1153.5" font-family="Helvetica,sans-Serif" font-size="10.00">uint32_t</text>
<polyline fill="none" stroke="#bfbfbf" points="165.5,-1146.5 221.5,-1146.5 "/>
<text text-anchor="middle" x="193.5" y="-1134.5" font-family="Helvetica,sans-Serif" font-size="10.00"> </text>
<polyline fill="none" stroke="#bfbfbf" points="165.5,-1127.5 221.5,-1127.5 "/>
<text text-anchor="middle" x="193.5" y="-1115.5" font-family="Helvetica,sans-Serif" font-size="10.00"> </text>
</a>
</g>
</g>
<!-- Node4&#45;&gt;Node3 -->
<g id="edge3" class="edge">
<title>Node4&#45;&gt;Node3</title>
<path fill="none" stroke="#404040" d="M193.46,-1108.19C193.56,-1095.87 193.83,-1081.21 194.5,-1068 200.02,-958.9 211.89,-833.17 220.03,-754.02"/>
<polygon fill="none" stroke="#404040" points="220.07,-753.66 216.71,-747.28 221.3,-741.72 224.66,-748.1 220.07,-753.66"/>
<text text-anchor="middle" x="218.5" y="-1082" font-family="Helvetica,sans-Serif" font-size="10.00"> #height_</text>
<text text-anchor="middle" x="218.5" y="-1071" font-family="Helvetica,sans-Serif" font-size="10.00">#width_</text>
</g>
<!-- Node5 -->
<g id="node5" class="node">
<title>Node5</title>
<g id="a_node5"><a xlink:title=" ">
<polygon fill="white" stroke="#bfbfbf" points="452.5,-1108.5 452.5,-1165.5 496.5,-1165.5 496.5,-1108.5 452.5,-1108.5"/>
<text text-anchor="middle" x="474.5" y="-1153.5" font-family="Helvetica,sans-Serif" font-size="10.00">string</text>
<polyline fill="none" stroke="#bfbfbf" points="452.5,-1146.5 496.5,-1146.5 "/>
<text text-anchor="middle" x="474.5" y="-1134.5" font-family="Helvetica,sans-Serif" font-size="10.00"> </text>
<polyline fill="none" stroke="#bfbfbf" points="452.5,-1127.5 496.5,-1127.5 "/>
<text text-anchor="middle" x="474.5" y="-1115.5" font-family="Helvetica,sans-Serif" font-size="10.00"> </text>
</a>
</g>
</g>
<!-- Node5&#45;&gt;Node3 -->
<g id="edge4" class="edge">
<title>Node5&#45;&gt;Node3</title>
<path fill="none" stroke="#404040" d="M459.67,-1108.23C422.69,-1039.02 325.42,-856.94 269.55,-752.34"/>
<polygon fill="none" stroke="#404040" points="269.43,-752.12 263.08,-748.71 263.78,-741.54 270.13,-744.94 269.43,-752.12"/>
<text text-anchor="middle" x="471" y="-1076.5" font-family="Helvetica,sans-Serif" font-size="10.00"> #name_</text>
</g>
<!-- Node11 -->
<g id="node11" class="node">
<title>Node11</title>
<g id="a_node11"><a xlink:href="classmkr_1_1shader__program.html" target="_top" xlink:title=" ">
<polygon fill="white" stroke="black" points="490,-299.5 490,-1049.5 629,-1049.5 629,-299.5 490,-299.5"/>
<text text-anchor="middle" x="559.5" y="-1037.5" font-family="Helvetica,sans-Serif" font-size="10.00">mkr::shader_program</text>
<polyline fill="none" stroke="black" points="490,-1030.5 629,-1030.5 "/>
<text text-anchor="middle" x="559.5" y="-1018.5" font-family="Helvetica,sans-Serif" font-size="10.00"> </text>
<polyline fill="none" stroke="black" points="490,-1011.5 629,-1011.5 "/>
<text text-anchor="start" x="498" y="-999.5" font-family="Helvetica,sans-Serif" font-size="10.00">+ shader_program()</text>
<text text-anchor="start" x="498" y="-988.5" font-family="Helvetica,sans-Serif" font-size="10.00">+ shader_program()</text>
<text text-anchor="start" x="498" y="-977.5" font-family="Helvetica,sans-Serif" font-size="10.00">+ ~shader_program()</text>
<text text-anchor="start" x="498" y="-966.5" font-family="Helvetica,sans-Serif" font-size="10.00">+ name()</text>
<text text-anchor="start" x="498" y="-955.5" font-family="Helvetica,sans-Serif" font-size="10.00">+ use()</text>
<text text-anchor="start" x="498" y="-944.5" font-family="Helvetica,sans-Serif" font-size="10.00">+ set_uniform()</text>
<text text-anchor="start" x="498" y="-933.5" font-family="Helvetica,sans-Serif" font-size="10.00">+ set_uniform()</text>
<text text-anchor="start" x="498" y="-922.5" font-family="Helvetica,sans-Serif" font-size="10.00">+ set_uniform()</text>
<text text-anchor="start" x="498" y="-911.5" font-family="Helvetica,sans-Serif" font-size="10.00">+ set_uniform()</text>
<text text-anchor="start" x="498" y="-900.5" font-family="Helvetica,sans-Serif" font-size="10.00">+ set_uniform()</text>
<text text-anchor="start" x="498" y="-889.5" font-family="Helvetica,sans-Serif" font-size="10.00">+ set_uniform()</text>
<text text-anchor="start" x="498" y="-878.5" font-family="Helvetica,sans-Serif" font-size="10.00">+ set_uniform()</text>
<text text-anchor="start" x="498" y="-867.5" font-family="Helvetica,sans-Serif" font-size="10.00">+ set_uniform()</text>
<text text-anchor="start" x="498" y="-856.5" font-family="Helvetica,sans-Serif" font-size="10.00">+ set_uniform()</text>
<text text-anchor="start" x="498" y="-845.5" font-family="Helvetica,sans-Serif" font-size="10.00">+ set_uniform()</text>
<text text-anchor="start" x="498" y="-834.5" font-family="Helvetica,sans-Serif" font-size="10.00">+ set_uniform()</text>
<text text-anchor="start" x="498" y="-823.5" font-family="Helvetica,sans-Serif" font-size="10.00">+ set_uniform()</text>
<text text-anchor="start" x="498" y="-812.5" font-family="Helvetica,sans-Serif" font-size="10.00">+ set_uniform()</text>
<text text-anchor="start" x="498" y="-801.5" font-family="Helvetica,sans-Serif" font-size="10.00">+ set_uniform()</text>
<text text-anchor="start" x="498" y="-790.5" font-family="Helvetica,sans-Serif" font-size="10.00">+ set_uniform()</text>
<text text-anchor="start" x="498" y="-779.5" font-family="Helvetica,sans-Serif" font-size="10.00">+ set_uniform()</text>
<text text-anchor="start" x="498" y="-768.5" font-family="Helvetica,sans-Serif" font-size="10.00">+ set_uniform()</text>
<text text-anchor="start" x="498" y="-757.5" font-family="Helvetica,sans-Serif" font-size="10.00">+ set_uniform()</text>
<text text-anchor="start" x="498" y="-746.5" font-family="Helvetica,sans-Serif" font-size="10.00">+ set_uniform()</text>
<text text-anchor="start" x="498" y="-735.5" font-family="Helvetica,sans-Serif" font-size="10.00">+ set_uniform()</text>
<text text-anchor="start" x="498" y="-724.5" font-family="Helvetica,sans-Serif" font-size="10.00">+ set_uniform()</text>
<text text-anchor="start" x="498" y="-713.5" font-family="Helvetica,sans-Serif" font-size="10.00">+ set_uniform()</text>
<text text-anchor="start" x="498" y="-702.5" font-family="Helvetica,sans-Serif" font-size="10.00">+ set_uniform()</text>
<text text-anchor="start" x="498" y="-691.5" font-family="Helvetica,sans-Serif" font-size="10.00">+ set_uniform()</text>
<text text-anchor="start" x="498" y="-680.5" font-family="Helvetica,sans-Serif" font-size="10.00">+ set_uniform()</text>
<text text-anchor="start" x="498" y="-669.5" font-family="Helvetica,sans-Serif" font-size="10.00">+ set_uniform()</text>
<text text-anchor="start" x="498" y="-658.5" font-family="Helvetica,sans-Serif" font-size="10.00">+ set_uniform()</text>
<text text-anchor="start" x="498" y="-647.5" font-family="Helvetica,sans-Serif" font-size="10.00">+ set_uniform()</text>
<text text-anchor="start" x="498" y="-636.5" font-family="Helvetica,sans-Serif" font-size="10.00">+ set_uniform()</text>
<text text-anchor="start" x="498" y="-625.5" font-family="Helvetica,sans-Serif" font-size="10.00">+ set_uniform()</text>
<text text-anchor="start" x="498" y="-614.5" font-family="Helvetica,sans-Serif" font-size="10.00">+ set_uniform()</text>
<text text-anchor="start" x="498" y="-603.5" font-family="Helvetica,sans-Serif" font-size="10.00">+ set_uniform()</text>
<text text-anchor="start" x="498" y="-592.5" font-family="Helvetica,sans-Serif" font-size="10.00">+ set_uniform()</text>
<text text-anchor="start" x="498" y="-581.5" font-family="Helvetica,sans-Serif" font-size="10.00">+ set_uniform()</text>
<text text-anchor="start" x="498" y="-570.5" font-family="Helvetica,sans-Serif" font-size="10.00">+ set_uniform()</text>
<text text-anchor="start" x="498" y="-559.5" font-family="Helvetica,sans-Serif" font-size="10.00">+ set_uniform()</text>
<text text-anchor="start" x="498" y="-548.5" font-family="Helvetica,sans-Serif" font-size="10.00">+ set_uniform()</text>
<text text-anchor="start" x="498" y="-537.5" font-family="Helvetica,sans-Serif" font-size="10.00">+ set_uniform()</text>
<text text-anchor="start" x="498" y="-526.5" font-family="Helvetica,sans-Serif" font-size="10.00">+ set_uniform()</text>
<text text-anchor="start" x="498" y="-515.5" font-family="Helvetica,sans-Serif" font-size="10.00">+ set_uniform()</text>
<text text-anchor="start" x="498" y="-504.5" font-family="Helvetica,sans-Serif" font-size="10.00">+ set_uniform()</text>
<text text-anchor="start" x="498" y="-493.5" font-family="Helvetica,sans-Serif" font-size="10.00">+ set_uniform()</text>
<text text-anchor="start" x="498" y="-482.5" font-family="Helvetica,sans-Serif" font-size="10.00">+ set_uniform()</text>
<text text-anchor="start" x="498" y="-471.5" font-family="Helvetica,sans-Serif" font-size="10.00">+ set_uniform()</text>
<text text-anchor="start" x="498" y="-460.5" font-family="Helvetica,sans-Serif" font-size="10.00">+ set_uniform()</text>
<text text-anchor="start" x="498" y="-449.5" font-family="Helvetica,sans-Serif" font-size="10.00">+ set_uniform()</text>
<text text-anchor="start" x="498" y="-438.5" font-family="Helvetica,sans-Serif" font-size="10.00">+ set_uniform()</text>
<text text-anchor="start" x="498" y="-427.5" font-family="Helvetica,sans-Serif" font-size="10.00">+ set_uniform()</text>
<text text-anchor="start" x="498" y="-416.5" font-family="Helvetica,sans-Serif" font-size="10.00">+ set_uniform()</text>
<text text-anchor="start" x="498" y="-405.5" font-family="Helvetica,sans-Serif" font-size="10.00">+ set_uniform()</text>
<text text-anchor="start" x="498" y="-394.5" font-family="Helvetica,sans-Serif" font-size="10.00">+ set_uniform()</text>
<text text-anchor="start" x="498" y="-383.5" font-family="Helvetica,sans-Serif" font-size="10.00">+ set_uniform()</text>
<text text-anchor="start" x="498" y="-372.5" font-family="Helvetica,sans-Serif" font-size="10.00">+ set_uniform()</text>
<text text-anchor="start" x="498" y="-361.5" font-family="Helvetica,sans-Serif" font-size="10.00">+ set_uniform()</text>
<text text-anchor="start" x="498" y="-350.5" font-family="Helvetica,sans-Serif" font-size="10.00">+ set_uniform()</text>
<text text-anchor="start" x="498" y="-339.5" font-family="Helvetica,sans-Serif" font-size="10.00">+ set_uniform()</text>
<text text-anchor="start" x="498" y="-328.5" font-family="Helvetica,sans-Serif" font-size="10.00"># get_uniform_location()</text>
<text text-anchor="start" x="498" y="-317.5" font-family="Helvetica,sans-Serif" font-size="10.00"># get_attrib_location()</text>
<text text-anchor="start" x="498" y="-306.5" font-family="Helvetica,sans-Serif" font-size="10.00"># create_shader()</text>
</a>
</g>
</g>
<!-- Node5&#45;&gt;Node11 -->
<g id="edge12" class="edge">
<title>Node5&#45;&gt;Node11</title>
<path fill="none" stroke="#404040" d="M494.61,-1108.27C498.05,-1102.47 501.24,-1096.21 503.5,-1090 506.93,-1080.56 510.15,-1070.92 513.18,-1061.15"/>
<polygon fill="none" stroke="#404040" points="513.19,-1061.1 511.09,-1054.21 516.65,-1049.61 518.75,-1056.51 513.19,-1061.1"/>
<text text-anchor="middle" x="533" y="-1076.5" font-family="Helvetica,sans-Serif" font-size="10.00"> #name_</text>
</g>
<!-- Node6 -->
<g id="node6" class="node">
<title>Node6</title>
<g id="a_node6"><a xlink:title=" ">
<polygon fill="white" stroke="#bfbfbf" points="276.5,-1108.5 276.5,-1165.5 324.5,-1165.5 324.5,-1108.5 276.5,-1108.5"/>
<text text-anchor="middle" x="300.5" y="-1153.5" font-family="Helvetica,sans-Serif" font-size="10.00">GLuint</text>
<polyline fill="none" stroke="#bfbfbf" points="276.5,-1146.5 324.5,-1146.5 "/>
<text text-anchor="middle" x="300.5" y="-1134.5" font-family="Helvetica,sans-Serif" font-size="10.00"> </text>
<polyline fill="none" stroke="#bfbfbf" points="276.5,-1127.5 324.5,-1127.5 "/>
<text text-anchor="middle" x="300.5" y="-1115.5" font-family="Helvetica,sans-Serif" font-size="10.00"> </text>
</a>
</g>
</g>
<!-- Node6&#45;&gt;Node3 -->
<g id="edge5" class="edge">
<title>Node6&#45;&gt;Node3</title>
<path fill="none" stroke="#404040" d="M276.29,-1109.31C272.02,-1103.32 268.11,-1096.74 265.5,-1090 222.51,-979.08 219.52,-839.37 222.85,-753.8"/>
<polygon fill="none" stroke="#404040" points="222.86,-753.56 219.13,-747.39 223.39,-741.57 227.12,-747.74 222.86,-753.56"/>
<text text-anchor="middle" x="290.5" y="-1076.5" font-family="Helvetica,sans-Serif" font-size="10.00"> #handle_</text>
</g>
<!-- Node6&#45;&gt;Node11 -->
<g id="edge13" class="edge">
<title>Node6&#45;&gt;Node11</title>
<path fill="none" stroke="#404040" d="M315.34,-1108.48C322.06,-1096.09 330.13,-1081.28 337.5,-1068 385.75,-981.04 440.77,-883.74 483.97,-807.78"/>
<polygon fill="none" stroke="#404040" points="484.05,-807.63 483.54,-800.44 489.98,-797.2 490.49,-804.39 484.05,-807.63"/>
<text text-anchor="middle" x="386" y="-1076.5" font-family="Helvetica,sans-Serif" font-size="10.00"> #program_handle_</text>
</g>
<!-- Node7 -->
<g id="node7" class="node">
<title>Node7</title>
<g id="a_node7"><a xlink:title=" ">
<polygon fill="white" stroke="#bfbfbf" points="127,-193.5 127,-250.5 202,-250.5 202,-193.5 127,-193.5"/>
<text text-anchor="middle" x="164.5" y="-238.5" font-family="Helvetica,sans-Serif" font-size="10.00">render_path</text>
<polyline fill="none" stroke="#bfbfbf" points="127,-231.5 202,-231.5 "/>
<text text-anchor="middle" x="164.5" y="-219.5" font-family="Helvetica,sans-Serif" font-size="10.00"> </text>
<polyline fill="none" stroke="#bfbfbf" points="127,-212.5 202,-212.5 "/>
<text text-anchor="middle" x="164.5" y="-200.5" font-family="Helvetica,sans-Serif" font-size="10.00"> </text>
</a>
</g>
</g>
<!-- Node7&#45;&gt;Node1 -->
<g id="edge6" class="edge">
<title>Node7&#45;&gt;Node1</title>
<path fill="none" stroke="#404040" d="M159.18,-193.48C155.08,-163.52 153.83,-116.02 179.5,-87 200.56,-63.19 284.11,-48.69 340.91,-41.38"/>
<polygon fill="none" stroke="#404040" points="341.03,-41.36 346.5,-36.65 352.94,-39.88 347.48,-44.59 341.03,-41.36"/>
<text text-anchor="middle" x="217.5" y="-123" font-family="Helvetica,sans-Serif" font-size="10.00"> +render_path_</text>
</g>
<!-- Node8 -->
<g id="node8" class="node">
<title>Node8</title>
<g id="a_node8"><a xlink:title=" ">
<polygon fill="white" stroke="#bfbfbf" points="244.5,-193.5 244.5,-250.5 282.5,-250.5 282.5,-193.5 244.5,-193.5"/>
<text text-anchor="middle" x="263.5" y="-238.5" font-family="Helvetica,sans-Serif" font-size="10.00">float</text>
<polyline fill="none" stroke="#bfbfbf" points="244.5,-231.5 282.5,-231.5 "/>
<text text-anchor="middle" x="263.5" y="-219.5" font-family="Helvetica,sans-Serif" font-size="10.00"> </text>
<polyline fill="none" stroke="#bfbfbf" points="244.5,-212.5 282.5,-212.5 "/>
<text text-anchor="middle" x="263.5" y="-200.5" font-family="Helvetica,sans-Serif" font-size="10.00"> </text>
</a>
</g>
</g>
<!-- Node8&#45;&gt;Node1 -->
<g id="edge7" class="edge">
<title>Node8&#45;&gt;Node1</title>
<path fill="none" stroke="#404040" d="M260.16,-193.48C258.12,-164.18 259.43,-117.86 282.5,-87 296.78,-67.9 319.82,-55.69 341.38,-47.98"/>
<polygon fill="none" stroke="#404040" points="341.4,-47.98 345.86,-42.31 352.8,-44.25 348.34,-49.92 341.4,-47.98"/>
<text text-anchor="start" x="282.5" y="-134" font-family="Helvetica,sans-Serif" font-size="10.00"> +displacement_scale</text>
<text text-anchor="middle" x="337" y="-123" font-family="Helvetica,sans-Serif" font-size="10.00">_</text>
<text text-anchor="middle" x="337" y="-112" font-family="Helvetica,sans-Serif" font-size="10.00">+gloss_</text>
</g>
<!-- Node9 -->
<g id="node9" class="node">
<title>Node9</title>
<g id="a_node9"><a xlink:title=" ">
<polygon fill="white" stroke="#bfbfbf" points="369,-193.5 369,-250.5 422,-250.5 422,-193.5 369,-193.5"/>
<text text-anchor="middle" x="395.5" y="-238.5" font-family="Helvetica,sans-Serif" font-size="10.00">vector2</text>
<polyline fill="none" stroke="#bfbfbf" points="369,-231.5 422,-231.5 "/>
<text text-anchor="middle" x="395.5" y="-219.5" font-family="Helvetica,sans-Serif" font-size="10.00"> </text>
<polyline fill="none" stroke="#bfbfbf" points="369,-212.5 422,-212.5 "/>
<text text-anchor="middle" x="395.5" y="-200.5" font-family="Helvetica,sans-Serif" font-size="10.00"> </text>
</a>
</g>
</g>
<!-- Node9&#45;&gt;Node1 -->
<g id="edge8" class="edge">
<title>Node9&#45;&gt;Node1</title>
<path fill="none" stroke="#404040" d="M395.5,-193.23C395.5,-163.61 395.5,-116.24 395.5,-81.13"/>
<polygon fill="none" stroke="#404040" points="395.5,-80.8 391.5,-74.8 395.5,-68.8 399.5,-74.8 395.5,-80.8"/>
<text text-anchor="middle" x="438" y="-128.5" font-family="Helvetica,sans-Serif" font-size="10.00"> +texture_offset_</text>
<text text-anchor="middle" x="438" y="-117.5" font-family="Helvetica,sans-Serif" font-size="10.00">+texture_scale_</text>
</g>
<!-- Node10 -->
<g id="node10" class="node">
<title>Node10</title>
<g id="a_node10"><a xlink:title=" ">
<polygon fill="white" stroke="#bfbfbf" points="445,-188 445,-256 562,-256 562,-188 445,-188"/>
<text text-anchor="start" x="453" y="-244" font-family="Helvetica,sans-Serif" font-size="10.00">vector&lt; mkr::shader</text>
<text text-anchor="middle" x="503.5" y="-233" font-family="Helvetica,sans-Serif" font-size="10.00">_program * &gt;</text>
<polyline fill="none" stroke="#bfbfbf" points="445,-226 562,-226 "/>
<text text-anchor="middle" x="503.5" y="-214" font-family="Helvetica,sans-Serif" font-size="10.00"> </text>
<polyline fill="none" stroke="#bfbfbf" points="445,-207 562,-207 "/>
<text text-anchor="middle" x="503.5" y="-195" font-family="Helvetica,sans-Serif" font-size="10.00"> </text>
</a>
</g>
</g>
<!-- Node10&#45;&gt;Node1 -->
<g id="edge9" class="edge">
<title>Node10&#45;&gt;Node1</title>
<path fill="none" stroke="#404040" d="M501.23,-187.71C498.34,-153.49 492.37,-102.99 481.5,-87 473.32,-74.97 461.31,-65.3 448.85,-57.74"/>
<polygon fill="none" stroke="#404040" points="448.83,-57.73 441.64,-58.3 438.35,-51.88 445.54,-51.31 448.83,-57.73"/>
<text text-anchor="middle" x="552.5" y="-123" font-family="Helvetica,sans-Serif" font-size="10.00"> +post_proc_shaders_</text>
</g>
<!-- Node11&#45;&gt;Node1 -->
<g id="edge10" class="edge">
<title>Node11&#45;&gt;Node1</title>
<path fill="none" stroke="#404040" d="M611.77,-299.12C622.23,-195.84 625.89,-106.51 610.5,-87 590.9,-62.15 507.34,-47.95 450.36,-40.98"/>
<polygon fill="none" stroke="#404040" points="450.2,-40.97 443.77,-44.24 438.28,-39.57 444.7,-36.29 450.2,-40.97"/>
<text text-anchor="middle" x="670.5" y="-252.5" font-family="Helvetica,sans-Serif" font-size="10.00"> +forward_shader_</text>
<text text-anchor="middle" x="670.5" y="-241.5" font-family="Helvetica,sans-Serif" font-size="10.00">+geometry_shader_</text>
<text text-anchor="middle" x="670.5" y="-230.5" font-family="Helvetica,sans-Serif" font-size="10.00">+light_shader_</text>
<text text-anchor="start" x="619.5" y="-219.5" font-family="Helvetica,sans-Serif" font-size="10.00">+shadow_shader_2d</text>
<text text-anchor="middle" x="670.5" y="-208.5" font-family="Helvetica,sans-Serif" font-size="10.00">_</text>
<text text-anchor="start" x="619.5" y="-197.5" font-family="Helvetica,sans-Serif" font-size="10.00">+shadow_shader</text>
<text text-anchor="middle" x="670.5" y="-186.5" font-family="Helvetica,sans-Serif" font-size="10.00">_cube_</text>
</g>
<!-- Node12 -->
<g id="node12" class="node">
<title>Node12</title>
<g id="a_node12"><a xlink:title=" ">
<polygon fill="white" stroke="#bfbfbf" points="533,-1108.5 533,-1165.5 654,-1165.5 654,-1108.5 533,-1108.5"/>
<text text-anchor="middle" x="593.5" y="-1153.5" font-family="Helvetica,sans-Serif" font-size="10.00">unique_ptr&lt; GLint[]&gt;</text>
<polyline fill="none" stroke="#bfbfbf" points="533,-1146.5 654,-1146.5 "/>
<text text-anchor="middle" x="593.5" y="-1134.5" font-family="Helvetica,sans-Serif" font-size="10.00"> </text>
<polyline fill="none" stroke="#bfbfbf" points="533,-1127.5 654,-1127.5 "/>
<text text-anchor="middle" x="593.5" y="-1115.5" font-family="Helvetica,sans-Serif" font-size="10.00"> </text>
</a>
</g>
</g>
<!-- Node12&#45;&gt;Node11 -->
<g id="edge11" class="edge">
<title>Node12&#45;&gt;Node11</title>
<path fill="none" stroke="#404040" d="M591.45,-1108.23C590.54,-1095.97 589.38,-1080.17 588.03,-1061.88"/>
<polygon fill="none" stroke="#404040" points="588.02,-1061.82 583.59,-1056.13 587.14,-1049.85 591.57,-1055.54 588.02,-1061.82"/>
<text text-anchor="middle" x="639" y="-1076.5" font-family="Helvetica,sans-Serif" font-size="10.00"> #uniform_handles_</text>
</g>
<!-- Node13 -->
<g id="node13" class="node">
<title>Node13</title>
<g id="a_node13"><a xlink:title=" ">
<polygon fill="white" stroke="#bfbfbf" points="747,-193.5 747,-250.5 794,-250.5 794,-193.5 747,-193.5"/>
<text text-anchor="middle" x="770.5" y="-238.5" font-family="Helvetica,sans-Serif" font-size="10.00">colour</text>
<polyline fill="none" stroke="#bfbfbf" points="747,-231.5 794,-231.5 "/>
<text text-anchor="middle" x="770.5" y="-219.5" font-family="Helvetica,sans-Serif" font-size="10.00"> </text>
<polyline fill="none" stroke="#bfbfbf" points="747,-212.5 794,-212.5 "/>
<text text-anchor="middle" x="770.5" y="-200.5" font-family="Helvetica,sans-Serif" font-size="10.00"> </text>
</a>
</g>
</g>
<!-- Node13&#45;&gt;Node1 -->
<g id="edge14" class="edge">
<title>Node13&#45;&gt;Node1</title>
<path fill="none" stroke="#404040" d="M751.68,-193.43C729.03,-162.49 688.04,-113.21 640.5,-87 580.9,-54.14 502.54,-42.21 450.68,-37.9"/>
<polygon fill="none" stroke="#404040" points="450.38,-37.88 444.1,-41.42 438.41,-36.98 444.7,-33.44 450.38,-37.88"/>
<text text-anchor="middle" x="772" y="-128.5" font-family="Helvetica,sans-Serif" font-size="10.00"> +diffuse_colour_</text>
<text text-anchor="middle" x="772" y="-117.5" font-family="Helvetica,sans-Serif" font-size="10.00">+specular_colour_</text>
</g>
</g>
</svg>
