<?xml version="1.0" encoding="UTF-8" standalone="no"?>
<!DOCTYPE svg PUBLIC "-//W3C//DTD SVG 1.1//EN"
 "http://www.w3.org/Graphics/SVG/1.1/DTD/svg11.dtd">
<!-- Generated by graphviz version 2.43.0 (0)
 -->
<!-- Title: mkr::input_event Pages: 1 -->
<svg width="154pt" height="193pt"
 viewBox="0.00 0.00 153.50 193.00" xmlns="http://www.w3.org/2000/svg" xmlns:xlink="http://www.w3.org/1999/xlink">
<g id="graph0" class="graph" transform="scale(1 1) rotate(0) translate(4 189)">
<title>mkr::input_event</title>
<polygon fill="white" stroke="transparent" points="-4,4 -4,-189 149.5,-189 149.5,4 -4,4"/>
<!-- Node1 -->
<g id="node1" class="node">
<title>Node1</title>
<g id="a_node1"><a xlink:title=" ">
<polygon fill="#bfbfbf" stroke="black" points="26,-0.5 26,-68.5 127,-68.5 127,-0.5 26,-0.5"/>
<text text-anchor="middle" x="76.5" y="-56.5" font-family="Helvetica,sans-Serif" font-size="10.00">mkr::input_event</text>
<polyline fill="none" stroke="black" points="26,-49.5 127,-49.5 "/>
<text text-anchor="middle" x="76.5" y="-37.5" font-family="Helvetica,sans-Serif" font-size="10.00"> </text>
<polyline fill="none" stroke="black" points="26,-30.5 127,-30.5 "/>
<text text-anchor="start" x="34" y="-18.5" font-family="Helvetica,sans-Serif" font-size="10.00">+ ~input_event()</text>
<text text-anchor="start" x="34" y="-7.5" font-family="Helvetica,sans-Serif" font-size="10.00"># input_event()</text>
</a>
</g>
</g>
<!-- Node2 -->
<g id="node2" class="node">
<title>Node2</title>
<g id="a_node2"><a xlink:href="classmkr_1_1event.html" target="_top" xlink:title="event(s) contain data that is dispatched by an event_dispatcher, and is received by an event_listener...">
<polygon fill="white" stroke="black" points="0,-116.5 0,-184.5 71,-184.5 71,-116.5 0,-116.5"/>
<text text-anchor="middle" x="35.5" y="-172.5" font-family="Helvetica,sans-Serif" font-size="10.00">mkr::event</text>
<polyline fill="none" stroke="black" points="0,-165.5 71,-165.5 "/>
<text text-anchor="middle" x="35.5" y="-153.5" font-family="Helvetica,sans-Serif" font-size="10.00"> </text>
<polyline fill="none" stroke="black" points="0,-146.5 71,-146.5 "/>
<text text-anchor="start" x="8" y="-134.5" font-family="Helvetica,sans-Serif" font-size="10.00">+ event()</text>
<text text-anchor="start" x="8" y="-123.5" font-family="Helvetica,sans-Serif" font-size="10.00">+ ~event()</text>
</a>
</g>
</g>
<!-- Node2&#45;&gt;Node1 -->
<g id="edge1" class="edge">
<title>Node2&#45;&gt;Node1</title>
<path fill="none" stroke="midnightblue" d="M50.86,-106.8C55.4,-94.18 60.3,-80.55 64.59,-68.62"/>
<polygon fill="none" stroke="midnightblue" points="47.56,-105.63 47.47,-116.22 54.15,-107.99 47.56,-105.63"/>
</g>
<!-- Node3 -->
<g id="node3" class="node">
<title>Node3</title>
<g id="a_node3"><a xlink:title=" ">
<polygon fill="white" stroke="#bfbfbf" points="89.5,-122 89.5,-179 145.5,-179 145.5,-122 89.5,-122"/>
<text text-anchor="middle" x="117.5" y="-167" font-family="Helvetica,sans-Serif" font-size="10.00">uint32_t</text>
<polyline fill="none" stroke="#bfbfbf" points="89.5,-160 145.5,-160 "/>
<text text-anchor="middle" x="117.5" y="-148" font-family="Helvetica,sans-Serif" font-size="10.00"> </text>
<polyline fill="none" stroke="#bfbfbf" points="89.5,-141 145.5,-141 "/>
<text text-anchor="middle" x="117.5" y="-129" font-family="Helvetica,sans-Serif" font-size="10.00"> </text>
</a>
</g>
</g>
<!-- Node3&#45;&gt;Node1 -->
<g id="edge2" class="edge">
<title>Node3&#45;&gt;Node1</title>
<path fill="none" stroke="#404040" d="M107.58,-121.9C103.06,-109.34 97.6,-94.16 92.52,-80.04"/>
<polygon fill="none" stroke="#404040" points="92.44,-79.81 86.64,-75.52 88.38,-68.52 94.17,-72.81 92.44,-79.81"/>
<text text-anchor="middle" x="121" y="-90" font-family="Helvetica,sans-Serif" font-size="10.00"> +action_</text>
</g>
</g>
</svg>
