<?xml version="1.0" encoding="UTF-8" standalone="no"?>
<!DOCTYPE svg PUBLIC "-//W3C//DTD SVG 1.1//EN"
 "http://www.w3.org/Graphics/SVG/1.1/DTD/svg11.dtd">
<!-- Generated by graphviz version 2.43.0 (0)
 -->
<!-- Title: mkr::material Pages: 1 -->
<!--zoomable 1163 -->
<svg id="main" version="1.1" xmlns="http://www.w3.org/2000/svg" xmlns:xlink="http://www.w3.org/1999/xlink" xml:space="preserve" onload="init(evt)">
<style type="text/css"><![CDATA[
.edge:hover path { stroke: red; }
.edge:hover polygon { stroke: red; fill: red; }
]]></style>
<script type="text/javascript"><![CDATA[
var edges = document.getElementsByTagName('g');
if (edges && edges.length) {
  for (var i=0;i<edges.length;i++) {
    if (edges[i].id.substr(0,4)=='edge') {
      edges[i].setAttribute('class','edge');
    }
  }
}
]]></script>
        <defs>
                <circle id="rim" cx="0" cy="0" r="7"/>
                <circle id="rim2" cx="0" cy="0" r="3.5"/>
                <g id="zoomPlus">
                        <use xlink:href="#rim" fill="#404040">
                                <set attributeName="fill" to="#808080" begin="zoomplus.mouseover" end="zoomplus.mouseout"/>
                        </use>
                        <path d="M-4,0h8M0,-4v8" fill="none" stroke="white" stroke-width="1.5" pointer-events="none"/>
                </g>
                <g id="zoomMin">
                        <use xlink:href="#rim" fill="#404040">
                                <set attributeName="fill" to="#808080" begin="zoomminus.mouseover" end="zoomminus.mouseout"/>
                        </use>
                        <path d="M-4,0h8" fill="none" stroke="white" stroke-width="1.5" pointer-events="none"/>
                </g>
                <g id="dirArrow">
                        <path fill="none" stroke="white" stroke-width="1.5" d="M0,-3.0v7 M-2.5,-0.5L0,-3.0L2.5,-0.5"/>
                </g>
               <g id="resetDef">
                       <use xlink:href="#rim2" fill="#404040">
                               <set attributeName="fill" to="#808080" begin="reset.mouseover" end="reset.mouseout"/>
                       </use>
               </g>
        </defs>

<script type="text/javascript">
var viewWidth = 836;
var viewHeight = 1163;
var sectionId = 'dynsection-0';
</script>
<script xlink:href="svgpan.js"/>
<svg id="graph" class="graph">
<g id="viewport">
<title>mkr::material</title>
<polygon fill="white" stroke="transparent" points="-4,4 -4,-1159 831.5,-1159 831.5,4 -4,4"/>
<!-- Node1 -->
<g id="node1" class="node">
<title>Node1</title>
<g id="a_node1"><a xlink:title=" ">
<polygon fill="#bfbfbf" stroke="black" points="364,-0.5 364,-68.5 449,-68.5 449,-0.5 364,-0.5"/>
<text text-anchor="middle" x="406.5" y="-56.5" font-family="Helvetica,sans-Serif" font-size="10.00">mkr::material</text>
<polyline fill="none" stroke="black" points="364,-49.5 449,-49.5 "/>
<text text-anchor="middle" x="406.5" y="-37.5" font-family="Helvetica,sans-Serif" font-size="10.00"> </text>
<polyline fill="none" stroke="black" points="364,-30.5 449,-30.5 "/>
<text text-anchor="start" x="372" y="-18.5" font-family="Helvetica,sans-Serif" font-size="10.00">+ material()</text>
<text text-anchor="start" x="372" y="-7.5" font-family="Helvetica,sans-Serif" font-size="10.00">+ ~material()</text>
</a>
</g>
</g>
<!-- Node2 -->
<g id="node2" class="node">
<title>Node2</title>
<g id="a_node2"><a xlink:title=" ">
<polygon fill="white" stroke="#bfbfbf" points="0,-193.5 0,-250.5 75,-250.5 75,-193.5 0,-193.5"/>
<text text-anchor="middle" x="37.5" y="-238.5" font-family="Helvetica,sans-Serif" font-size="10.00">render_path</text>
<polyline fill="none" stroke="#bfbfbf" points="0,-231.5 75,-231.5 "/>
<text text-anchor="middle" x="37.5" y="-219.5" font-family="Helvetica,sans-Serif" font-size="10.00"> </text>
<polyline fill="none" stroke="#bfbfbf" points="0,-212.5 75,-212.5 "/>
<text text-anchor="middle" x="37.5" y="-200.5" font-family="Helvetica,sans-Serif" font-size="10.00"> </text>
</a>
</g>
</g>
<!-- Node2&#45;&gt;Node1 -->
<g id="edge1" class="edge">
<title>Node2&#45;&gt;Node1</title>
<path fill="none" stroke="#404040" d="M33.2,-193.44C30.15,-162.99 30.66,-114.61 58.5,-87 98.84,-47 264.35,-37.94 351.79,-35.97"/>
<polygon fill="none" stroke="#404040" points="351.85,-35.97 357.77,-31.86 363.84,-35.74 357.92,-39.85 351.85,-35.97"/>
<text text-anchor="middle" x="96.5" y="-123" font-family="Helvetica,sans-Serif" font-size="10.00"> +render_path_</text>
</g>
<!-- Node3 -->
<g id="node3" class="node">
<title>Node3</title>
<g id="a_node3"><a xlink:href="classmkr_1_1texture__2d.html" target="_top" xlink:title=" ">
<polygon fill="white" stroke="black" points="117.5,-182.5 117.5,-261.5 213.5,-261.5 213.5,-182.5 117.5,-182.5"/>
<text text-anchor="middle" x="165.5" y="-249.5" font-family="Helvetica,sans-Serif" font-size="10.00">mkr::texture_2d</text>
<polyline fill="none" stroke="black" points="117.5,-242.5 213.5,-242.5 "/>
<text text-anchor="middle" x="165.5" y="-230.5" font-family="Helvetica,sans-Serif" font-size="10.00"> </text>
<polyline fill="none" stroke="black" points="117.5,-223.5 213.5,-223.5 "/>
<text text-anchor="start" x="125.5" y="-211.5" font-family="Helvetica,sans-Serif" font-size="10.00">+ texture_2d()</text>
<text text-anchor="start" x="125.5" y="-200.5" font-family="Helvetica,sans-Serif" font-size="10.00">+ texture_2d()</text>
<text text-anchor="start" x="125.5" y="-189.5" font-family="Helvetica,sans-Serif" font-size="10.00">+ ~texture_2d()</text>
</a>
</g>
</g>
<!-- Node3&#45;&gt;Node1 -->
<g id="edge2" class="edge">
<title>Node3&#45;&gt;Node1</title>
<path fill="none" stroke="#404040" d="M147.88,-182.38C137.42,-153.02 129.95,-113.34 151.5,-87 176.3,-56.68 284.56,-43.81 351.8,-38.65"/>
<polygon fill="none" stroke="#404040" points="351.88,-38.65 357.57,-34.23 363.84,-37.78 358.15,-42.2 351.88,-38.65"/>
<text text-anchor="middle" x="209" y="-156" font-family="Helvetica,sans-Serif" font-size="10.00"> +texture_diffuse_</text>
<text text-anchor="start" x="151.5" y="-145" font-family="Helvetica,sans-Serif" font-size="10.00">+texture_displacement</text>
<text text-anchor="middle" x="209" y="-134" font-family="Helvetica,sans-Serif" font-size="10.00">_</text>
<text text-anchor="middle" x="209" y="-123" font-family="Helvetica,sans-Serif" font-size="10.00">+texture_gloss_</text>
<text text-anchor="start" x="151.5" y="-112" font-family="Helvetica,sans-Serif" font-size="10.00">+texture_normal</text>
<text text-anchor="middle" x="209" y="-101" font-family="Helvetica,sans-Serif" font-size="10.00">_</text>
<text text-anchor="middle" x="209" y="-90" font-family="Helvetica,sans-Serif" font-size="10.00">+texture_specular_</text>
</g>
<!-- Node4 -->
<g id="node4" class="node">
<title>Node4</title>
<g id="a_node4"><a xlink:href="classmkr_1_1texture.html" target="_top" xlink:title=" ">
<polygon fill="white" stroke="black" points="198.5,-596.5 198.5,-741.5 308.5,-741.5 308.5,-596.5 198.5,-596.5"/>
<text text-anchor="middle" x="253.5" y="-729.5" font-family="Helvetica,sans-Serif" font-size="10.00">mkr::texture</text>
<polyline fill="none" stroke="black" points="198.5,-722.5 308.5,-722.5 "/>
<text text-anchor="middle" x="253.5" y="-710.5" font-family="Helvetica,sans-Serif" font-size="10.00"> </text>
<polyline fill="none" stroke="black" points="198.5,-703.5 308.5,-703.5 "/>
<text text-anchor="start" x="206.5" y="-691.5" font-family="Helvetica,sans-Serif" font-size="10.00">+ ~texture()</text>
<text text-anchor="start" x="206.5" y="-680.5" font-family="Helvetica,sans-Serif" font-size="10.00">+ name()</text>
<text text-anchor="start" x="206.5" y="-669.5" font-family="Helvetica,sans-Serif" font-size="10.00">+ width()</text>
<text text-anchor="start" x="206.5" y="-658.5" font-family="Helvetica,sans-Serif" font-size="10.00">+ height()</text>
<text text-anchor="start" x="206.5" y="-647.5" font-family="Helvetica,sans-Serif" font-size="10.00">+ wrap_mode()</text>
<text text-anchor="start" x="206.5" y="-636.5" font-family="Helvetica,sans-Serif" font-size="10.00">+ handle()</text>
<text text-anchor="start" x="206.5" y="-625.5" font-family="Helvetica,sans-Serif" font-size="10.00">+ bind()</text>
<text text-anchor="start" x="206.5" y="-614.5" font-family="Helvetica,sans-Serif" font-size="10.00"># texture()</text>
<text text-anchor="start" x="206.5" y="-603.5" font-family="Helvetica,sans-Serif" font-size="10.00"># mip_map_level()</text>
</a>
</g>
</g>
<!-- Node4&#45;&gt;Node3 -->
<g id="edge3" class="edge">
<title>Node4&#45;&gt;Node3</title>
<path fill="none" stroke="midnightblue" d="M237.28,-586C218.21,-489.54 187.34,-333.45 173.12,-261.53"/>
<polygon fill="none" stroke="midnightblue" points="233.89,-586.88 239.26,-596.01 240.76,-585.52 233.89,-586.88"/>
</g>
<!-- Node5 -->
<g id="node5" class="node">
<title>Node5</title>
<g id="a_node5"><a xlink:title=" ">
<polygon fill="white" stroke="#bfbfbf" points="93.5,-1097.5 93.5,-1154.5 207.5,-1154.5 207.5,-1097.5 93.5,-1097.5"/>
<text text-anchor="middle" x="150.5" y="-1142.5" font-family="Helvetica,sans-Serif" font-size="10.00">texture_wrap_mode</text>
<polyline fill="none" stroke="#bfbfbf" points="93.5,-1135.5 207.5,-1135.5 "/>
<text text-anchor="middle" x="150.5" y="-1123.5" font-family="Helvetica,sans-Serif" font-size="10.00"> </text>
<polyline fill="none" stroke="#bfbfbf" points="93.5,-1116.5 207.5,-1116.5 "/>
<text text-anchor="middle" x="150.5" y="-1104.5" font-family="Helvetica,sans-Serif" font-size="10.00"> </text>
</a>
</g>
</g>
<!-- Node5&#45;&gt;Node4 -->
<g id="edge4" class="edge">
<title>Node5&#45;&gt;Node4</title>
<path fill="none" stroke="#404040" d="M156.79,-1097.22C171.95,-1030.25 211.01,-857.72 234.59,-753.54"/>
<polygon fill="none" stroke="#404040" points="234.59,-753.51 232.02,-746.78 237.24,-741.81 239.82,-748.55 234.59,-753.51"/>
<text text-anchor="middle" x="202.5" y="-1065.5" font-family="Helvetica,sans-Serif" font-size="10.00"> #wrap_mode_</text>
</g>
<!-- Node6 -->
<g id="node6" class="node">
<title>Node6</title>
<g id="a_node6"><a xlink:title=" ">
<polygon fill="white" stroke="#bfbfbf" points="225.5,-1097.5 225.5,-1154.5 281.5,-1154.5 281.5,-1097.5 225.5,-1097.5"/>
<text text-anchor="middle" x="253.5" y="-1142.5" font-family="Helvetica,sans-Serif" font-size="10.00">uint32_t</text>
<polyline fill="none" stroke="#bfbfbf" points="225.5,-1135.5 281.5,-1135.5 "/>
<text text-anchor="middle" x="253.5" y="-1123.5" font-family="Helvetica,sans-Serif" font-size="10.00"> </text>
<polyline fill="none" stroke="#bfbfbf" points="225.5,-1116.5 281.5,-1116.5 "/>
<text text-anchor="middle" x="253.5" y="-1104.5" font-family="Helvetica,sans-Serif" font-size="10.00"> </text>
</a>
</g>
</g>
<!-- Node6&#45;&gt;Node4 -->
<g id="edge5" class="edge">
<title>Node6&#45;&gt;Node4</title>
<path fill="none" stroke="#404040" d="M253.5,-1097.22C253.5,-1030.32 253.5,-858.07 253.5,-753.86"/>
<polygon fill="none" stroke="#404040" points="253.5,-753.81 249.5,-747.81 253.5,-741.81 257.5,-747.81 253.5,-753.81"/>
<text text-anchor="middle" x="277.5" y="-1071" font-family="Helvetica,sans-Serif" font-size="10.00"> #height_</text>
<text text-anchor="middle" x="277.5" y="-1060" font-family="Helvetica,sans-Serif" font-size="10.00">#width_</text>
</g>
<!-- Node7 -->
<g id="node7" class="node">
<title>Node7</title>
<g id="a_node7"><a xlink:title=" ">
<polygon fill="white" stroke="#bfbfbf" points="512.5,-1097.5 512.5,-1154.5 556.5,-1154.5 556.5,-1097.5 512.5,-1097.5"/>
<text text-anchor="middle" x="534.5" y="-1142.5" font-family="Helvetica,sans-Serif" font-size="10.00">string</text>
<polyline fill="none" stroke="#bfbfbf" points="512.5,-1135.5 556.5,-1135.5 "/>
<text text-anchor="middle" x="534.5" y="-1123.5" font-family="Helvetica,sans-Serif" font-size="10.00"> </text>
<polyline fill="none" stroke="#bfbfbf" points="512.5,-1116.5 556.5,-1116.5 "/>
<text text-anchor="middle" x="534.5" y="-1104.5" font-family="Helvetica,sans-Serif" font-size="10.00"> </text>
</a>
</g>
</g>
<!-- Node7&#45;&gt;Node4 -->
<g id="edge6" class="edge">
<title>Node7&#45;&gt;Node4</title>
<path fill="none" stroke="#404040" d="M518.99,-1097.4C511.93,-1084.99 503.4,-1070.19 495.5,-1057 431.77,-950.64 355.54,-829.71 305.89,-751.77"/>
<polygon fill="none" stroke="#404040" points="305.82,-751.65 299.22,-748.74 299.37,-741.53 305.97,-744.44 305.82,-751.65"/>
<text text-anchor="middle" x="530" y="-1065.5" font-family="Helvetica,sans-Serif" font-size="10.00"> #name_</text>
</g>
<!-- Node12 -->
<g id="node12" class="node">
<title>Node12</title>
<g id="a_node12"><a xlink:href="classmkr_1_1shader__program.html" target="_top" xlink:title=" ">
<polygon fill="white" stroke="black" points="550,-299.5 550,-1038.5 689,-1038.5 689,-299.5 550,-299.5"/>
<text text-anchor="middle" x="619.5" y="-1026.5" font-family="Helvetica,sans-Serif" font-size="10.00">mkr::shader_program</text>
<polyline fill="none" stroke="black" points="550,-1019.5 689,-1019.5 "/>
<text text-anchor="middle" x="619.5" y="-1007.5" font-family="Helvetica,sans-Serif" font-size="10.00"> </text>
<polyline fill="none" stroke="black" points="550,-1000.5 689,-1000.5 "/>
<text text-anchor="start" x="558" y="-988.5" font-family="Helvetica,sans-Serif" font-size="10.00">+ shader_program()</text>
<text text-anchor="start" x="558" y="-977.5" font-family="Helvetica,sans-Serif" font-size="10.00">+ ~shader_program()</text>
<text text-anchor="start" x="558" y="-966.5" font-family="Helvetica,sans-Serif" font-size="10.00">+ name()</text>
<text text-anchor="start" x="558" y="-955.5" font-family="Helvetica,sans-Serif" font-size="10.00">+ use()</text>
<text text-anchor="start" x="558" y="-944.5" font-family="Helvetica,sans-Serif" font-size="10.00">+ set_uniform()</text>
<text text-anchor="start" x="558" y="-933.5" font-family="Helvetica,sans-Serif" font-size="10.00">+ set_uniform()</text>
<text text-anchor="start" x="558" y="-922.5" font-family="Helvetica,sans-Serif" font-size="10.00">+ set_uniform()</text>
<text text-anchor="start" x="558" y="-911.5" font-family="Helvetica,sans-Serif" font-size="10.00">+ set_uniform()</text>
<text text-anchor="start" x="558" y="-900.5" font-family="Helvetica,sans-Serif" font-size="10.00">+ set_uniform()</text>
<text text-anchor="start" x="558" y="-889.5" font-family="Helvetica,sans-Serif" font-size="10.00">+ set_uniform()</text>
<text text-anchor="start" x="558" y="-878.5" font-family="Helvetica,sans-Serif" font-size="10.00">+ set_uniform()</text>
<text text-anchor="start" x="558" y="-867.5" font-family="Helvetica,sans-Serif" font-size="10.00">+ set_uniform()</text>
<text text-anchor="start" x="558" y="-856.5" font-family="Helvetica,sans-Serif" font-size="10.00">+ set_uniform()</text>
<text text-anchor="start" x="558" y="-845.5" font-family="Helvetica,sans-Serif" font-size="10.00">+ set_uniform()</text>
<text text-anchor="start" x="558" y="-834.5" font-family="Helvetica,sans-Serif" font-size="10.00">+ set_uniform()</text>
<text text-anchor="start" x="558" y="-823.5" font-family="Helvetica,sans-Serif" font-size="10.00">+ set_uniform()</text>
<text text-anchor="start" x="558" y="-812.5" font-family="Helvetica,sans-Serif" font-size="10.00">+ set_uniform()</text>
<text text-anchor="start" x="558" y="-801.5" font-family="Helvetica,sans-Serif" font-size="10.00">+ set_uniform()</text>
<text text-anchor="start" x="558" y="-790.5" font-family="Helvetica,sans-Serif" font-size="10.00">+ set_uniform()</text>
<text text-anchor="start" x="558" y="-779.5" font-family="Helvetica,sans-Serif" font-size="10.00">+ set_uniform()</text>
<text text-anchor="start" x="558" y="-768.5" font-family="Helvetica,sans-Serif" font-size="10.00">+ set_uniform()</text>
<text text-anchor="start" x="558" y="-757.5" font-family="Helvetica,sans-Serif" font-size="10.00">+ set_uniform()</text>
<text text-anchor="start" x="558" y="-746.5" font-family="Helvetica,sans-Serif" font-size="10.00">+ set_uniform()</text>
<text text-anchor="start" x="558" y="-735.5" font-family="Helvetica,sans-Serif" font-size="10.00">+ set_uniform()</text>
<text text-anchor="start" x="558" y="-724.5" font-family="Helvetica,sans-Serif" font-size="10.00">+ set_uniform()</text>
<text text-anchor="start" x="558" y="-713.5" font-family="Helvetica,sans-Serif" font-size="10.00">+ set_uniform()</text>
<text text-anchor="start" x="558" y="-702.5" font-family="Helvetica,sans-Serif" font-size="10.00">+ set_uniform()</text>
<text text-anchor="start" x="558" y="-691.5" font-family="Helvetica,sans-Serif" font-size="10.00">+ set_uniform()</text>
<text text-anchor="start" x="558" y="-680.5" font-family="Helvetica,sans-Serif" font-size="10.00">+ set_uniform()</text>
<text text-anchor="start" x="558" y="-669.5" font-family="Helvetica,sans-Serif" font-size="10.00">+ set_uniform()</text>
<text text-anchor="start" x="558" y="-658.5" font-family="Helvetica,sans-Serif" font-size="10.00">+ set_uniform()</text>
<text text-anchor="start" x="558" y="-647.5" font-family="Helvetica,sans-Serif" font-size="10.00">+ set_uniform()</text>
<text text-anchor="start" x="558" y="-636.5" font-family="Helvetica,sans-Serif" font-size="10.00">+ set_uniform()</text>
<text text-anchor="start" x="558" y="-625.5" font-family="Helvetica,sans-Serif" font-size="10.00">+ set_uniform()</text>
<text text-anchor="start" x="558" y="-614.5" font-family="Helvetica,sans-Serif" font-size="10.00">+ set_uniform()</text>
<text text-anchor="start" x="558" y="-603.5" font-family="Helvetica,sans-Serif" font-size="10.00">+ set_uniform()</text>
<text text-anchor="start" x="558" y="-592.5" font-family="Helvetica,sans-Serif" font-size="10.00">+ set_uniform()</text>
<text text-anchor="start" x="558" y="-581.5" font-family="Helvetica,sans-Serif" font-size="10.00">+ set_uniform()</text>
<text text-anchor="start" x="558" y="-570.5" font-family="Helvetica,sans-Serif" font-size="10.00">+ set_uniform()</text>
<text text-anchor="start" x="558" y="-559.5" font-family="Helvetica,sans-Serif" font-size="10.00">+ set_uniform()</text>
<text text-anchor="start" x="558" y="-548.5" font-family="Helvetica,sans-Serif" font-size="10.00">+ set_uniform()</text>
<text text-anchor="start" x="558" y="-537.5" font-family="Helvetica,sans-Serif" font-size="10.00">+ set_uniform()</text>
<text text-anchor="start" x="558" y="-526.5" font-family="Helvetica,sans-Serif" font-size="10.00">+ set_uniform()</text>
<text text-anchor="start" x="558" y="-515.5" font-family="Helvetica,sans-Serif" font-size="10.00">+ set_uniform()</text>
<text text-anchor="start" x="558" y="-504.5" font-family="Helvetica,sans-Serif" font-size="10.00">+ set_uniform()</text>
<text text-anchor="start" x="558" y="-493.5" font-family="Helvetica,sans-Serif" font-size="10.00">+ set_uniform()</text>
<text text-anchor="start" x="558" y="-482.5" font-family="Helvetica,sans-Serif" font-size="10.00">+ set_uniform()</text>
<text text-anchor="start" x="558" y="-471.5" font-family="Helvetica,sans-Serif" font-size="10.00">+ set_uniform()</text>
<text text-anchor="start" x="558" y="-460.5" font-family="Helvetica,sans-Serif" font-size="10.00">+ set_uniform()</text>
<text text-anchor="start" x="558" y="-449.5" font-family="Helvetica,sans-Serif" font-size="10.00">+ set_uniform()</text>
<text text-anchor="start" x="558" y="-438.5" font-family="Helvetica,sans-Serif" font-size="10.00">+ set_uniform()</text>
<text text-anchor="start" x="558" y="-427.5" font-family="Helvetica,sans-Serif" font-size="10.00">+ set_uniform()</text>
<text text-anchor="start" x="558" y="-416.5" font-family="Helvetica,sans-Serif" font-size="10.00">+ set_uniform()</text>
<text text-anchor="start" x="558" y="-405.5" font-family="Helvetica,sans-Serif" font-size="10.00">+ set_uniform()</text>
<text text-anchor="start" x="558" y="-394.5" font-family="Helvetica,sans-Serif" font-size="10.00">+ set_uniform()</text>
<text text-anchor="start" x="558" y="-383.5" font-family="Helvetica,sans-Serif" font-size="10.00">+ set_uniform()</text>
<text text-anchor="start" x="558" y="-372.5" font-family="Helvetica,sans-Serif" font-size="10.00">+ set_uniform()</text>
<text text-anchor="start" x="558" y="-361.5" font-family="Helvetica,sans-Serif" font-size="10.00">+ set_uniform()</text>
<text text-anchor="start" x="558" y="-350.5" font-family="Helvetica,sans-Serif" font-size="10.00">+ set_uniform()</text>
<text text-anchor="start" x="558" y="-339.5" font-family="Helvetica,sans-Serif" font-size="10.00">+ set_uniform()</text>
<text text-anchor="start" x="558" y="-328.5" font-family="Helvetica,sans-Serif" font-size="10.00"># get_uniform_location()</text>
<text text-anchor="start" x="558" y="-317.5" font-family="Helvetica,sans-Serif" font-size="10.00"># get_attrib_location()</text>
<text text-anchor="start" x="558" y="-306.5" font-family="Helvetica,sans-Serif" font-size="10.00"># create_shader()</text>
</a>
</g>
</g>
<!-- Node7&#45;&gt;Node12 -->
<g id="edge13" class="edge">
<title>Node7&#45;&gt;Node12</title>
<path fill="none" stroke="#404040" d="M554.6,-1097.27C558.05,-1091.46 561.24,-1085.21 563.5,-1079 566.94,-1069.56 570.17,-1059.93 573.2,-1050.16"/>
<polygon fill="none" stroke="#404040" points="573.21,-1050.11 571.11,-1043.21 576.67,-1038.62 578.77,-1045.52 573.21,-1050.11"/>
<text text-anchor="middle" x="593" y="-1065.5" font-family="Helvetica,sans-Serif" font-size="10.00"> #name_</text>
</g>
<!-- Node8 -->
<g id="node8" class="node">
<title>Node8</title>
<g id="a_node8"><a xlink:title=" ">
<polygon fill="white" stroke="#bfbfbf" points="337.5,-1097.5 337.5,-1154.5 385.5,-1154.5 385.5,-1097.5 337.5,-1097.5"/>
<text text-anchor="middle" x="361.5" y="-1142.5" font-family="Helvetica,sans-Serif" font-size="10.00">GLuint</text>
<polyline fill="none" stroke="#bfbfbf" points="337.5,-1135.5 385.5,-1135.5 "/>
<text text-anchor="middle" x="361.5" y="-1123.5" font-family="Helvetica,sans-Serif" font-size="10.00"> </text>
<polyline fill="none" stroke="#bfbfbf" points="337.5,-1116.5 385.5,-1116.5 "/>
<text text-anchor="middle" x="361.5" y="-1104.5" font-family="Helvetica,sans-Serif" font-size="10.00"> </text>
</a>
</g>
</g>
<!-- Node8&#45;&gt;Node4 -->
<g id="edge7" class="edge">
<title>Node8&#45;&gt;Node4</title>
<path fill="none" stroke="#404040" d="M337.42,-1098.7C332.85,-1092.59 328.55,-1085.85 325.5,-1079 278.37,-973.23 262.04,-839.2 256.41,-754"/>
<polygon fill="none" stroke="#404040" points="256.4,-753.77 252.03,-748.02 255.66,-741.79 260.02,-747.53 256.4,-753.77"/>
<text text-anchor="middle" x="350.5" y="-1065.5" font-family="Helvetica,sans-Serif" font-size="10.00"> #handle_</text>
</g>
<!-- Node8&#45;&gt;Node12 -->
<g id="edge14" class="edge">
<title>Node8&#45;&gt;Node12</title>
<path fill="none" stroke="#404040" d="M376.31,-1097.47C383.03,-1085.07 391.1,-1070.26 398.5,-1057 446.27,-971.32 500.93,-875.58 543.94,-800.77"/>
<polygon fill="none" stroke="#404040" points="543.94,-800.75 543.47,-793.56 549.93,-790.35 550.4,-797.55 543.94,-800.75"/>
<text text-anchor="middle" x="447" y="-1065.5" font-family="Helvetica,sans-Serif" font-size="10.00"> #program_handle_</text>
</g>
<!-- Node9 -->
<g id="node9" class="node">
<title>Node9</title>
<g id="a_node9"><a xlink:title=" ">
<polygon fill="white" stroke="#bfbfbf" points="255.5,-193.5 255.5,-250.5 293.5,-250.5 293.5,-193.5 255.5,-193.5"/>
<text text-anchor="middle" x="274.5" y="-238.5" font-family="Helvetica,sans-Serif" font-size="10.00">float</text>
<polyline fill="none" stroke="#bfbfbf" points="255.5,-231.5 293.5,-231.5 "/>
<text text-anchor="middle" x="274.5" y="-219.5" font-family="Helvetica,sans-Serif" font-size="10.00"> </text>
<polyline fill="none" stroke="#bfbfbf" points="255.5,-212.5 293.5,-212.5 "/>
<text text-anchor="middle" x="274.5" y="-200.5" font-family="Helvetica,sans-Serif" font-size="10.00"> </text>
</a>
</g>
</g>
<!-- Node9&#45;&gt;Node1 -->
<g id="edge8" class="edge">
<title>Node9&#45;&gt;Node1</title>
<path fill="none" stroke="#404040" d="M271.16,-193.48C269.12,-164.18 270.43,-117.86 293.5,-87 307.78,-67.9 330.82,-55.69 352.38,-47.98"/>
<polygon fill="none" stroke="#404040" points="352.4,-47.98 356.86,-42.31 363.8,-44.25 359.34,-49.92 352.4,-47.98"/>
<text text-anchor="start" x="293.5" y="-134" font-family="Helvetica,sans-Serif" font-size="10.00"> +displacement_scale</text>
<text text-anchor="middle" x="348" y="-123" font-family="Helvetica,sans-Serif" font-size="10.00">_</text>
<text text-anchor="middle" x="348" y="-112" font-family="Helvetica,sans-Serif" font-size="10.00">+gloss_</text>
</g>
<!-- Node10 -->
<g id="node10" class="node">
<title>Node10</title>
<g id="a_node10"><a xlink:title=" ">
<polygon fill="white" stroke="#bfbfbf" points="380,-193.5 380,-250.5 433,-250.5 433,-193.5 380,-193.5"/>
<text text-anchor="middle" x="406.5" y="-238.5" font-family="Helvetica,sans-Serif" font-size="10.00">vector2</text>
<polyline fill="none" stroke="#bfbfbf" points="380,-231.5 433,-231.5 "/>
<text text-anchor="middle" x="406.5" y="-219.5" font-family="Helvetica,sans-Serif" font-size="10.00"> </text>
<polyline fill="none" stroke="#bfbfbf" points="380,-212.5 433,-212.5 "/>
<text text-anchor="middle" x="406.5" y="-200.5" font-family="Helvetica,sans-Serif" font-size="10.00"> </text>
</a>
</g>
</g>
<!-- Node10&#45;&gt;Node1 -->
<g id="edge9" class="edge">
<title>Node10&#45;&gt;Node1</title>
<path fill="none" stroke="#404040" d="M406.5,-193.23C406.5,-163.61 406.5,-116.24 406.5,-81.13"/>
<polygon fill="none" stroke="#404040" points="406.5,-80.8 402.5,-74.8 406.5,-68.8 410.5,-74.8 406.5,-80.8"/>
<text text-anchor="middle" x="449" y="-128.5" font-family="Helvetica,sans-Serif" font-size="10.00"> +texture_offset_</text>
<text text-anchor="middle" x="449" y="-117.5" font-family="Helvetica,sans-Serif" font-size="10.00">+texture_scale_</text>
</g>
<!-- Node11 -->
<g id="node11" class="node">
<title>Node11</title>
<g id="a_node11"><a xlink:title=" ">
<polygon fill="white" stroke="#bfbfbf" points="456,-188 456,-256 573,-256 573,-188 456,-188"/>
<text text-anchor="start" x="464" y="-244" font-family="Helvetica,sans-Serif" font-size="10.00">vector&lt; mkr::shader</text>
<text text-anchor="middle" x="514.5" y="-233" font-family="Helvetica,sans-Serif" font-size="10.00">_program * &gt;</text>
<polyline fill="none" stroke="#bfbfbf" points="456,-226 573,-226 "/>
<text text-anchor="middle" x="514.5" y="-214" font-family="Helvetica,sans-Serif" font-size="10.00"> </text>
<polyline fill="none" stroke="#bfbfbf" points="456,-207 573,-207 "/>
<text text-anchor="middle" x="514.5" y="-195" font-family="Helvetica,sans-Serif" font-size="10.00"> </text>
</a>
</g>
</g>
<!-- Node11&#45;&gt;Node1 -->
<g id="edge10" class="edge">
<title>Node11&#45;&gt;Node1</title>
<path fill="none" stroke="#404040" d="M512.23,-187.71C509.34,-153.49 503.37,-102.99 492.5,-87 484.32,-74.97 472.31,-65.3 459.85,-57.74"/>
<polygon fill="none" stroke="#404040" points="459.83,-57.73 452.64,-58.3 449.35,-51.88 456.54,-51.31 459.83,-57.73"/>
<text text-anchor="middle" x="563.5" y="-123" font-family="Helvetica,sans-Serif" font-size="10.00"> +post_proc_shaders_</text>
</g>
<!-- Node12&#45;&gt;Node1 -->
<g id="edge11" class="edge">
<title>Node12&#45;&gt;Node1</title>
<path fill="none" stroke="#404040" d="M638.33,-299.41C640.1,-196.09 636.8,-106.4 621.5,-87 601.9,-62.15 518.34,-47.95 461.36,-40.98"/>
<polygon fill="none" stroke="#404040" points="461.2,-40.97 454.77,-44.24 449.28,-39.57 455.7,-36.29 461.2,-40.97"/>
<text text-anchor="middle" x="688.5" y="-230.5" font-family="Helvetica,sans-Serif" font-size="10.00"> +forward_shader_</text>
<text text-anchor="middle" x="688.5" y="-219.5" font-family="Helvetica,sans-Serif" font-size="10.00">+geometry_shader_</text>
<text text-anchor="middle" x="688.5" y="-208.5" font-family="Helvetica,sans-Serif" font-size="10.00">+light_shader_</text>
</g>
<!-- Node13 -->
<g id="node13" class="node">
<title>Node13</title>
<g id="a_node13"><a xlink:title=" ">
<polygon fill="white" stroke="#bfbfbf" points="593,-1097.5 593,-1154.5 714,-1154.5 714,-1097.5 593,-1097.5"/>
<text text-anchor="middle" x="653.5" y="-1142.5" font-family="Helvetica,sans-Serif" font-size="10.00">unique_ptr&lt; GLint[]&gt;</text>
<polyline fill="none" stroke="#bfbfbf" points="593,-1135.5 714,-1135.5 "/>
<text text-anchor="middle" x="653.5" y="-1123.5" font-family="Helvetica,sans-Serif" font-size="10.00"> </text>
<polyline fill="none" stroke="#bfbfbf" points="593,-1116.5 714,-1116.5 "/>
<text text-anchor="middle" x="653.5" y="-1104.5" font-family="Helvetica,sans-Serif" font-size="10.00"> </text>
</a>
</g>
</g>
<!-- Node13&#45;&gt;Node12 -->
<g id="edge12" class="edge">
<title>Node13&#45;&gt;Node12</title>
<path fill="none" stroke="#404040" d="M651.42,-1097.22C650.5,-1084.9 649.32,-1069 647.94,-1050.61"/>
<polygon fill="none" stroke="#404040" points="647.93,-1050.48 643.5,-1044.8 647.04,-1038.51 651.47,-1044.2 647.93,-1050.48"/>
<text text-anchor="middle" x="699" y="-1065.5" font-family="Helvetica,sans-Serif" font-size="10.00"> #uniform_handles_</text>
</g>
<!-- Node14 -->
<g id="node14" class="node">
<title>Node14</title>
<g id="a_node14"><a xlink:title=" ">
<polygon fill="white" stroke="#bfbfbf" points="756,-193.5 756,-250.5 803,-250.5 803,-193.5 756,-193.5"/>
<text text-anchor="middle" x="779.5" y="-238.5" font-family="Helvetica,sans-Serif" font-size="10.00">colour</text>
<polyline fill="none" stroke="#bfbfbf" points="756,-231.5 803,-231.5 "/>
<text text-anchor="middle" x="779.5" y="-219.5" font-family="Helvetica,sans-Serif" font-size="10.00"> </text>
<polyline fill="none" stroke="#bfbfbf" points="756,-212.5 803,-212.5 "/>
<text text-anchor="middle" x="779.5" y="-200.5" font-family="Helvetica,sans-Serif" font-size="10.00"> </text>
</a>
</g>
</g>
<!-- Node14&#45;&gt;Node1 -->
<g id="edge15" class="edge">
<title>Node14&#45;&gt;Node1</title>
<path fill="none" stroke="#404040" d="M761.07,-193.42C738.86,-162.48 698.59,-113.2 651.5,-87 591.85,-53.81 513.18,-41.96 461.28,-37.76"/>
<polygon fill="none" stroke="#404040" points="460.98,-37.74 454.71,-41.29 449.01,-36.87 455.28,-33.31 460.98,-37.74"/>
<text text-anchor="middle" x="782" y="-128.5" font-family="Helvetica,sans-Serif" font-size="10.00"> +diffuse_colour_</text>
<text text-anchor="middle" x="782" y="-117.5" font-family="Helvetica,sans-Serif" font-size="10.00">+specular_colour_</text>
</g>
</g>
</svg>
        <g id="navigator" transform="translate(0 0)" fill="#404254">
                <rect fill="#f2f5e9" fill-opacity="0.5" stroke="#606060" stroke-width=".5" x="0" y="0" width="60" height="60"/>
                <use id="zoomplus" xlink:href="#zoomPlus" x="17" y="9" onmousedown="handleZoom(evt,'in')"/>
                <use id="zoomminus" xlink:href="#zoomMin" x="42" y="9" onmousedown="handleZoom(evt,'out')"/>
                <use id="reset" xlink:href="#resetDef" x="30" y="36" onmousedown="handleReset()"/>
                <g id="arrowUp" xlink:href="#dirArrow" transform="translate(30 24)" onmousedown="handlePan(0,-1)">
                  <use xlink:href="#rim" fill="#404040">
                        <set attributeName="fill" to="#808080" begin="arrowUp.mouseover" end="arrowUp.mouseout"/>
                  </use>
                  <path fill="none" stroke="white" stroke-width="1.5" d="M0,-3.0v7 M-2.5,-0.5L0,-3.0L2.5,-0.5"/>
                </g>
                <g id="arrowRight" xlink:href="#dirArrow" transform="rotate(90) translate(36 -43)" onmousedown="handlePan(1,0)">
                  <use xlink:href="#rim" fill="#404040">
                        <set attributeName="fill" to="#808080" begin="arrowRight.mouseover" end="arrowRight.mouseout"/>
                  </use>
                  <path fill="none" stroke="white" stroke-width="1.5" d="M0,-3.0v7 M-2.5,-0.5L0,-3.0L2.5,-0.5"/>
                </g>
                <g id="arrowDown" xlink:href="#dirArrow" transform="rotate(180) translate(-30 -48)" onmousedown="handlePan(0,1)">
                  <use xlink:href="#rim" fill="#404040">
                        <set attributeName="fill" to="#808080" begin="arrowDown.mouseover" end="arrowDown.mouseout"/>
                  </use>
                  <path fill="none" stroke="white" stroke-width="1.5" d="M0,-3.0v7 M-2.5,-0.5L0,-3.0L2.5,-0.5"/>
                </g>
                <g id="arrowLeft" xlink:href="#dirArrow" transform="rotate(270) translate(-36 17)" onmousedown="handlePan(-1,0)">
                  <use xlink:href="#rim" fill="#404040">
                        <set attributeName="fill" to="#808080" begin="arrowLeft.mouseover" end="arrowLeft.mouseout"/>
                  </use>
                  <path fill="none" stroke="white" stroke-width="1.5" d="M0,-3.0v7 M-2.5,-0.5L0,-3.0L2.5,-0.5"/>
                </g>
        </g>
        <svg viewBox="0 0 15 15" width="100%" height="30px" preserveAspectRatio="xMaxYMin meet">
         <g id="arrow_out" transform="scale(0.3 0.3)">
          <a xlink:href="classmkr_1_1material__coll__graph_org.svg" target="_base">
           <rect id="button" ry="5" rx="5" y="6" x="6" height="38" width="38"
                fill="#f2f5e9" fill-opacity="0.5" stroke="#606060" stroke-width="1.0"/>
           <path id="arrow"
             d="M 11.500037,31.436501 C 11.940474,20.09759 22.043105,11.32322 32.158766,21.979434 L 37.068811,17.246167 C 37.068811,17.246167 37.088388,32 37.088388,32 L 22.160133,31.978069 C 22.160133,31.978069 26.997745,27.140456 26.997745,27.140456 C 18.528582,18.264221 13.291696,25.230495 11.500037,31.436501 z"
             style="fill:#404040;"/>
          </a>
         </g>
        </svg>
</svg>
