<?xml version="1.0" encoding="UTF-8" standalone="no"?>
<!DOCTYPE svg PUBLIC "-//W3C//DTD SVG 1.1//EN"
 "http://www.w3.org/Graphics/SVG/1.1/DTD/svg11.dtd">
<!-- Generated by graphviz version 2.43.0 (0)
 -->
<!-- Title: mkr::asset_loader Pages: 1 -->
<!--zoomable 380 -->
<svg id="main" version="1.1" xmlns="http://www.w3.org/2000/svg" xmlns:xlink="http://www.w3.org/1999/xlink" xml:space="preserve" onload="init(evt)">
<style type="text/css"><![CDATA[
.edge:hover path { stroke: red; }
.edge:hover polygon { stroke: red; fill: red; }
]]></style>
<script type="text/javascript"><![CDATA[
var edges = document.getElementsByTagName('g');
if (edges && edges.length) {
  for (var i=0;i<edges.length;i++) {
    if (edges[i].id.substr(0,4)=='edge') {
      edges[i].setAttribute('class','edge');
    }
  }
}
]]></script>
        <defs>
                <circle id="rim" cx="0" cy="0" r="7"/>
                <circle id="rim2" cx="0" cy="0" r="3.5"/>
                <g id="zoomPlus">
                        <use xlink:href="#rim" fill="#404040">
                                <set attributeName="fill" to="#808080" begin="zoomplus.mouseover" end="zoomplus.mouseout"/>
                        </use>
                        <path d="M-4,0h8M0,-4v8" fill="none" stroke="white" stroke-width="1.5" pointer-events="none"/>
                </g>
                <g id="zoomMin">
                        <use xlink:href="#rim" fill="#404040">
                                <set attributeName="fill" to="#808080" begin="zoomminus.mouseover" end="zoomminus.mouseout"/>
                        </use>
                        <path d="M-4,0h8" fill="none" stroke="white" stroke-width="1.5" pointer-events="none"/>
                </g>
                <g id="dirArrow">
                        <path fill="none" stroke="white" stroke-width="1.5" d="M0,-3.0v7 M-2.5,-0.5L0,-3.0L2.5,-0.5"/>
                </g>
               <g id="resetDef">
                       <use xlink:href="#rim2" fill="#404040">
                               <set attributeName="fill" to="#808080" begin="reset.mouseover" end="reset.mouseout"/>
                       </use>
               </g>
        </defs>

<script type="text/javascript">
var viewWidth = 982;
var viewHeight = 380;
var sectionId = 'dynsection-1';
</script>
<script xlink:href="svgpan.js"/>
<svg id="graph" class="graph">
<g id="viewport">
<title>mkr::asset_loader</title>
<polygon fill="white" stroke="transparent" points="-4,4 -4,-376 978,-376 978,4 -4,4"/>
<!-- Node1 -->
<g id="node1" class="node">
<title>Node1</title>
<g id="a_node1"><a xlink:title=" ">
<polygon fill="#bfbfbf" stroke="black" points="406.5,-0.5 406.5,-244.5 547.5,-244.5 547.5,-0.5 406.5,-0.5"/>
<text text-anchor="middle" x="477" y="-232.5" font-family="Helvetica,sans-Serif" font-size="10.00">mkr::asset_loader</text>
<polyline fill="none" stroke="black" points="406.5,-225.5 547.5,-225.5 "/>
<text text-anchor="middle" x="477" y="-213.5" font-family="Helvetica,sans-Serif" font-size="10.00"> </text>
<polyline fill="none" stroke="black" points="406.5,-206.5 547.5,-206.5 "/>
<text text-anchor="start" x="414.5" y="-194.5" font-family="Helvetica,sans-Serif" font-size="10.00">+ get_shader_program()</text>
<text text-anchor="start" x="414.5" y="-183.5" font-family="Helvetica,sans-Serif" font-size="10.00">+ load_shader_program()</text>
<text text-anchor="start" x="414.5" y="-172.5" font-family="Helvetica,sans-Serif" font-size="10.00">+ get_texture_2d()</text>
<text text-anchor="start" x="414.5" y="-161.5" font-family="Helvetica,sans-Serif" font-size="10.00">+ load_texture_2d()</text>
<text text-anchor="start" x="414.5" y="-150.5" font-family="Helvetica,sans-Serif" font-size="10.00">+ get_texture_cube()</text>
<text text-anchor="start" x="414.5" y="-139.5" font-family="Helvetica,sans-Serif" font-size="10.00">+ load_texture_cube()</text>
<text text-anchor="start" x="414.5" y="-128.5" font-family="Helvetica,sans-Serif" font-size="10.00">+ get_material()</text>
<text text-anchor="start" x="414.5" y="-117.5" font-family="Helvetica,sans-Serif" font-size="10.00">+ make_material()</text>
<text text-anchor="start" x="414.5" y="-106.5" font-family="Helvetica,sans-Serif" font-size="10.00">+ load_obj()</text>
<text text-anchor="start" x="414.5" y="-95.5" font-family="Helvetica,sans-Serif" font-size="10.00">+ get_mesh()</text>
<text text-anchor="start" x="414.5" y="-84.5" font-family="Helvetica,sans-Serif" font-size="10.00">+ make_skybox()</text>
<text text-anchor="start" x="414.5" y="-73.5" font-family="Helvetica,sans-Serif" font-size="10.00">+ make_screen_quad()</text>
<text text-anchor="start" x="414.5" y="-62.5" font-family="Helvetica,sans-Serif" font-size="10.00">+ make_triangle()</text>
<text text-anchor="start" x="414.5" y="-51.5" font-family="Helvetica,sans-Serif" font-size="10.00">+ make_quad()</text>
<text text-anchor="start" x="414.5" y="-40.5" font-family="Helvetica,sans-Serif" font-size="10.00">&#45; asset_loader()</text>
<text text-anchor="start" x="414.5" y="-29.5" font-family="Helvetica,sans-Serif" font-size="10.00">&#45; ~asset_loader()</text>
<text text-anchor="start" x="414.5" y="-18.5" font-family="Helvetica,sans-Serif" font-size="10.00">&#45; flip_image_x()</text>
<text text-anchor="start" x="414.5" y="-7.5" font-family="Helvetica,sans-Serif" font-size="10.00">&#45; flip_image_y()</text>
</a>
</g>
</g>
<!-- Node2 -->
<g id="node2" class="node">
<title>Node2</title>
<g id="a_node2"><a xlink:href="classsingleton.html" target="_top" xlink:title=" ">
<polygon fill="white" stroke="black" points="0,-303.5 0,-360.5 146,-360.5 146,-303.5 0,-303.5"/>
<text text-anchor="middle" x="73" y="-348.5" font-family="Helvetica,sans-Serif" font-size="10.00">singleton&lt; asset_loader &gt;</text>
<polyline fill="none" stroke="black" points="0,-341.5 146,-341.5 "/>
<text text-anchor="middle" x="73" y="-329.5" font-family="Helvetica,sans-Serif" font-size="10.00"> </text>
<polyline fill="none" stroke="black" points="0,-322.5 146,-322.5 "/>
<text text-anchor="middle" x="73" y="-310.5" font-family="Helvetica,sans-Serif" font-size="10.00"> </text>
</a>
</g>
</g>
<!-- Node2&#45;&gt;Node1 -->
<g id="edge1" class="edge">
<title>Node2&#45;&gt;Node1</title>
<path fill="none" stroke="midnightblue" d="M135.78,-298.75C209.08,-261.11 330,-199 406.47,-159.72"/>
<polygon fill="none" stroke="midnightblue" points="133.94,-295.76 126.65,-303.45 137.14,-301.99 133.94,-295.76"/>
</g>
<!-- Node3 -->
<g id="node3" class="node">
<title>Node3</title>
<g id="a_node3"><a xlink:title=" ">
<polygon fill="white" stroke="#bfbfbf" points="164,-292.5 164,-371.5 322,-371.5 322,-292.5 164,-292.5"/>
<text text-anchor="start" x="172" y="-359.5" font-family="Helvetica,sans-Serif" font-size="10.00">unordered_map&lt; std</text>
<text text-anchor="start" x="172" y="-348.5" font-family="Helvetica,sans-Serif" font-size="10.00">::string, std::unique</text>
<text text-anchor="middle" x="243" y="-337.5" font-family="Helvetica,sans-Serif" font-size="10.00">_ptr&lt; mkr::texture_cube &gt; &gt;</text>
<polyline fill="none" stroke="#bfbfbf" points="164,-330.5 322,-330.5 "/>
<text text-anchor="middle" x="243" y="-318.5" font-family="Helvetica,sans-Serif" font-size="10.00"> </text>
<polyline fill="none" stroke="#bfbfbf" points="164,-311.5 322,-311.5 "/>
<text text-anchor="middle" x="243" y="-299.5" font-family="Helvetica,sans-Serif" font-size="10.00"> </text>
</a>
</g>
</g>
<!-- Node3&#45;&gt;Node1 -->
<g id="edge2" class="edge">
<title>Node3&#45;&gt;Node1</title>
<path fill="none" stroke="#404040" d="M286.47,-292.46C317.41,-265.01 359.91,-227.33 396.91,-194.52"/>
<polygon fill="none" stroke="#404040" points="397.21,-194.25 399.05,-187.28 406.19,-186.29 404.35,-193.26 397.21,-194.25"/>
<text text-anchor="middle" x="360" y="-266" font-family="Helvetica,sans-Serif" font-size="10.00"> &#45;texture_cubes_</text>
</g>
<!-- Node4 -->
<g id="node4" class="node">
<title>Node4</title>
<g id="a_node4"><a xlink:title=" ">
<polygon fill="white" stroke="#bfbfbf" points="340,-292.5 340,-371.5 462,-371.5 462,-292.5 340,-292.5"/>
<text text-anchor="start" x="348" y="-359.5" font-family="Helvetica,sans-Serif" font-size="10.00">unordered_map&lt; std</text>
<text text-anchor="start" x="348" y="-348.5" font-family="Helvetica,sans-Serif" font-size="10.00">::string, std::unique</text>
<text text-anchor="middle" x="401" y="-337.5" font-family="Helvetica,sans-Serif" font-size="10.00">_ptr&lt; mkr::mesh &gt; &gt;</text>
<polyline fill="none" stroke="#bfbfbf" points="340,-330.5 462,-330.5 "/>
<text text-anchor="middle" x="401" y="-318.5" font-family="Helvetica,sans-Serif" font-size="10.00"> </text>
<polyline fill="none" stroke="#bfbfbf" points="340,-311.5 462,-311.5 "/>
<text text-anchor="middle" x="401" y="-299.5" font-family="Helvetica,sans-Serif" font-size="10.00"> </text>
</a>
</g>
</g>
<!-- Node4&#45;&gt;Node1 -->
<g id="edge3" class="edge">
<title>Node4&#45;&gt;Node1</title>
<path fill="none" stroke="#404040" d="M415.12,-292.46C419.07,-281.67 423.6,-269.3 428.37,-256.27"/>
<polygon fill="none" stroke="#404040" points="428.49,-255.93 426.8,-248.93 432.62,-244.67 434.31,-251.68 428.49,-255.93"/>
<text text-anchor="middle" x="451.5" y="-266" font-family="Helvetica,sans-Serif" font-size="10.00"> &#45;meshes_</text>
</g>
<!-- Node5 -->
<g id="node5" class="node">
<title>Node5</title>
<g id="a_node5"><a xlink:title=" ">
<polygon fill="white" stroke="#bfbfbf" points="480.5,-292.5 480.5,-371.5 627.5,-371.5 627.5,-292.5 480.5,-292.5"/>
<text text-anchor="start" x="488.5" y="-359.5" font-family="Helvetica,sans-Serif" font-size="10.00">unordered_map&lt; std</text>
<text text-anchor="start" x="488.5" y="-348.5" font-family="Helvetica,sans-Serif" font-size="10.00">::string, std::unique</text>
<text text-anchor="middle" x="554" y="-337.5" font-family="Helvetica,sans-Serif" font-size="10.00">_ptr&lt; mkr::texture_2d &gt; &gt;</text>
<polyline fill="none" stroke="#bfbfbf" points="480.5,-330.5 627.5,-330.5 "/>
<text text-anchor="middle" x="554" y="-318.5" font-family="Helvetica,sans-Serif" font-size="10.00"> </text>
<polyline fill="none" stroke="#bfbfbf" points="480.5,-311.5 627.5,-311.5 "/>
<text text-anchor="middle" x="554" y="-299.5" font-family="Helvetica,sans-Serif" font-size="10.00"> </text>
</a>
</g>
</g>
<!-- Node5&#45;&gt;Node1 -->
<g id="edge4" class="edge">
<title>Node5&#45;&gt;Node1</title>
<path fill="none" stroke="#404040" d="M539.7,-292.46C535.69,-281.67 531.1,-269.3 526.27,-256.27"/>
<polygon fill="none" stroke="#404040" points="526.14,-255.92 520.3,-251.68 521.96,-244.67 527.8,-248.9 526.14,-255.92"/>
<text text-anchor="middle" x="566" y="-266" font-family="Helvetica,sans-Serif" font-size="10.00"> &#45;texture_2ds_</text>
</g>
<!-- Node6 -->
<g id="node6" class="node">
<title>Node6</title>
<g id="a_node6"><a xlink:title=" ">
<polygon fill="white" stroke="#bfbfbf" points="646,-292.5 646,-371.5 782,-371.5 782,-292.5 646,-292.5"/>
<text text-anchor="start" x="654" y="-359.5" font-family="Helvetica,sans-Serif" font-size="10.00">unordered_map&lt; std</text>
<text text-anchor="start" x="654" y="-348.5" font-family="Helvetica,sans-Serif" font-size="10.00">::string, std::unique</text>
<text text-anchor="middle" x="714" y="-337.5" font-family="Helvetica,sans-Serif" font-size="10.00">_ptr&lt; mkr::material &gt; &gt;</text>
<polyline fill="none" stroke="#bfbfbf" points="646,-330.5 782,-330.5 "/>
<text text-anchor="middle" x="714" y="-318.5" font-family="Helvetica,sans-Serif" font-size="10.00"> </text>
<polyline fill="none" stroke="#bfbfbf" points="646,-311.5 782,-311.5 "/>
<text text-anchor="middle" x="714" y="-299.5" font-family="Helvetica,sans-Serif" font-size="10.00"> </text>
</a>
</g>
</g>
<!-- Node6&#45;&gt;Node1 -->
<g id="edge5" class="edge">
<title>Node6&#45;&gt;Node1</title>
<path fill="none" stroke="#404040" d="M669.98,-292.46C638.39,-264.8 594.92,-226.74 557.23,-193.75"/>
<polygon fill="none" stroke="#404040" points="556.82,-193.38 549.67,-192.44 547.79,-185.48 554.94,-186.42 556.82,-193.38"/>
<text text-anchor="middle" x="672.5" y="-266" font-family="Helvetica,sans-Serif" font-size="10.00"> &#45;materials_</text>
</g>
<!-- Node7 -->
<g id="node7" class="node">
<title>Node7</title>
<g id="a_node7"><a xlink:title=" ">
<polygon fill="white" stroke="#bfbfbf" points="800,-292.5 800,-371.5 974,-371.5 974,-292.5 800,-292.5"/>
<text text-anchor="start" x="808" y="-359.5" font-family="Helvetica,sans-Serif" font-size="10.00">unordered_map&lt; std</text>
<text text-anchor="start" x="808" y="-348.5" font-family="Helvetica,sans-Serif" font-size="10.00">::string, std::unique</text>
<text text-anchor="middle" x="887" y="-337.5" font-family="Helvetica,sans-Serif" font-size="10.00">_ptr&lt; mkr::shader_program &gt; &gt;</text>
<polyline fill="none" stroke="#bfbfbf" points="800,-330.5 974,-330.5 "/>
<text text-anchor="middle" x="887" y="-318.5" font-family="Helvetica,sans-Serif" font-size="10.00"> </text>
<polyline fill="none" stroke="#bfbfbf" points="800,-311.5 974,-311.5 "/>
<text text-anchor="middle" x="887" y="-299.5" font-family="Helvetica,sans-Serif" font-size="10.00"> </text>
</a>
</g>
</g>
<!-- Node7&#45;&gt;Node1 -->
<g id="edge6" class="edge">
<title>Node7&#45;&gt;Node1</title>
<path fill="none" stroke="#404040" d="M810.84,-292.46C739.14,-256.17 632.08,-201.99 558.65,-164.82"/>
<polygon fill="none" stroke="#404040" points="558.32,-164.66 551.16,-165.51 547.61,-159.24 554.77,-158.38 558.32,-164.66"/>
<text text-anchor="middle" x="813.5" y="-266" font-family="Helvetica,sans-Serif" font-size="10.00"> &#45;shader_programs_</text>
</g>
</g>
</svg>
        <g id="navigator" transform="translate(0 0)" fill="#404254">
                <rect fill="#f2f5e9" fill-opacity="0.5" stroke="#606060" stroke-width=".5" x="0" y="0" width="60" height="60"/>
                <use id="zoomplus" xlink:href="#zoomPlus" x="17" y="9" onmousedown="handleZoom(evt,'in')"/>
                <use id="zoomminus" xlink:href="#zoomMin" x="42" y="9" onmousedown="handleZoom(evt,'out')"/>
                <use id="reset" xlink:href="#resetDef" x="30" y="36" onmousedown="handleReset()"/>
                <g id="arrowUp" xlink:href="#dirArrow" transform="translate(30 24)" onmousedown="handlePan(0,-1)">
                  <use xlink:href="#rim" fill="#404040">
                        <set attributeName="fill" to="#808080" begin="arrowUp.mouseover" end="arrowUp.mouseout"/>
                  </use>
                  <path fill="none" stroke="white" stroke-width="1.5" d="M0,-3.0v7 M-2.5,-0.5L0,-3.0L2.5,-0.5"/>
                </g>
                <g id="arrowRight" xlink:href="#dirArrow" transform="rotate(90) translate(36 -43)" onmousedown="handlePan(1,0)">
                  <use xlink:href="#rim" fill="#404040">
                        <set attributeName="fill" to="#808080" begin="arrowRight.mouseover" end="arrowRight.mouseout"/>
                  </use>
                  <path fill="none" stroke="white" stroke-width="1.5" d="M0,-3.0v7 M-2.5,-0.5L0,-3.0L2.5,-0.5"/>
                </g>
                <g id="arrowDown" xlink:href="#dirArrow" transform="rotate(180) translate(-30 -48)" onmousedown="handlePan(0,1)">
                  <use xlink:href="#rim" fill="#404040">
                        <set attributeName="fill" to="#808080" begin="arrowDown.mouseover" end="arrowDown.mouseout"/>
                  </use>
                  <path fill="none" stroke="white" stroke-width="1.5" d="M0,-3.0v7 M-2.5,-0.5L0,-3.0L2.5,-0.5"/>
                </g>
                <g id="arrowLeft" xlink:href="#dirArrow" transform="rotate(270) translate(-36 17)" onmousedown="handlePan(-1,0)">
                  <use xlink:href="#rim" fill="#404040">
                        <set attributeName="fill" to="#808080" begin="arrowLeft.mouseover" end="arrowLeft.mouseout"/>
                  </use>
                  <path fill="none" stroke="white" stroke-width="1.5" d="M0,-3.0v7 M-2.5,-0.5L0,-3.0L2.5,-0.5"/>
                </g>
        </g>
        <svg viewBox="0 0 15 15" width="100%" height="30px" preserveAspectRatio="xMaxYMin meet">
         <g id="arrow_out" transform="scale(0.3 0.3)">
          <a xlink:href="classmkr_1_1asset__loader__coll__graph_org.svg" target="_base">
           <rect id="button" ry="5" rx="5" y="6" x="6" height="38" width="38"
                fill="#f2f5e9" fill-opacity="0.5" stroke="#606060" stroke-width="1.0"/>
           <path id="arrow"
             d="M 11.500037,31.436501 C 11.940474,20.09759 22.043105,11.32322 32.158766,21.979434 L 37.068811,17.246167 C 37.068811,17.246167 37.088388,32 37.088388,32 L 22.160133,31.978069 C 22.160133,31.978069 26.997745,27.140456 26.997745,27.140456 C 18.528582,18.264221 13.291696,25.230495 11.500037,31.436501 z"
             style="fill:#404040;"/>
          </a>
         </g>
        </svg>
</svg>
