<?xml version="1.0" encoding="UTF-8" standalone="no"?>
<!DOCTYPE svg PUBLIC "-//W3C//DTD SVG 1.1//EN"
 "http://www.w3.org/Graphics/SVG/1.1/DTD/svg11.dtd">
<!-- Generated by graphviz version 2.43.0 (0)
 -->
<!-- Title: mkr::light Pages: 1 -->
<!--zoomable 600 -->
<svg id="main" version="1.1" xmlns="http://www.w3.org/2000/svg" xmlns:xlink="http://www.w3.org/1999/xlink" xml:space="preserve" onload="init(evt)">
<style type="text/css"><![CDATA[
.edge:hover path { stroke: red; }
.edge:hover polygon { stroke: red; fill: red; }
]]></style>
<script type="text/javascript"><![CDATA[
var edges = document.getElementsByTagName('g');
if (edges && edges.length) {
  for (var i=0;i<edges.length;i++) {
    if (edges[i].id.substr(0,4)=='edge') {
      edges[i].setAttribute('class','edge');
    }
  }
}
]]></script>
        <defs>
                <circle id="rim" cx="0" cy="0" r="7"/>
                <circle id="rim2" cx="0" cy="0" r="3.5"/>
                <g id="zoomPlus">
                        <use xlink:href="#rim" fill="#404040">
                                <set attributeName="fill" to="#808080" begin="zoomplus.mouseover" end="zoomplus.mouseout"/>
                        </use>
                        <path d="M-4,0h8M0,-4v8" fill="none" stroke="white" stroke-width="1.5" pointer-events="none"/>
                </g>
                <g id="zoomMin">
                        <use xlink:href="#rim" fill="#404040">
                                <set attributeName="fill" to="#808080" begin="zoomminus.mouseover" end="zoomminus.mouseout"/>
                        </use>
                        <path d="M-4,0h8" fill="none" stroke="white" stroke-width="1.5" pointer-events="none"/>
                </g>
                <g id="dirArrow">
                        <path fill="none" stroke="white" stroke-width="1.5" d="M0,-3.0v7 M-2.5,-0.5L0,-3.0L2.5,-0.5"/>
                </g>
               <g id="resetDef">
                       <use xlink:href="#rim2" fill="#404040">
                               <set attributeName="fill" to="#808080" begin="reset.mouseover" end="reset.mouseout"/>
                       </use>
               </g>
        </defs>

<script type="text/javascript">
var viewWidth = 275;
var viewHeight = 600;
var sectionId = 'dynsection-0';
</script>
<script xlink:href="svgpan.js"/>
<svg id="graph" class="graph">
<g id="viewport">
<title>mkr::light</title>
<polygon fill="white" stroke="transparent" points="-4,4 -4,-596 270.5,-596 270.5,4 -4,4"/>
<!-- Node1 -->
<g id="node1" class="node">
<title>Node1</title>
<g id="a_node1"><a xlink:title=" ">
<polygon fill="#bfbfbf" stroke="black" points="72,-0.5 72,-354.5 236,-354.5 236,-0.5 72,-0.5"/>
<text text-anchor="middle" x="154" y="-342.5" font-family="Helvetica,sans-Serif" font-size="10.00">mkr::light</text>
<polyline fill="none" stroke="black" points="72,-335.5 236,-335.5 "/>
<text text-anchor="middle" x="154" y="-323.5" font-family="Helvetica,sans-Serif" font-size="10.00"> </text>
<polyline fill="none" stroke="black" points="72,-316.5 236,-316.5 "/>
<text text-anchor="start" x="80" y="-304.5" font-family="Helvetica,sans-Serif" font-size="10.00">+ light()</text>
<text text-anchor="start" x="80" y="-293.5" font-family="Helvetica,sans-Serif" font-size="10.00">+ ~light()</text>
<text text-anchor="start" x="80" y="-282.5" font-family="Helvetica,sans-Serif" font-size="10.00">+ get_mode()</text>
<text text-anchor="start" x="80" y="-271.5" font-family="Helvetica,sans-Serif" font-size="10.00">+ set_mode()</text>
<text text-anchor="start" x="80" y="-260.5" font-family="Helvetica,sans-Serif" font-size="10.00">+ get_power()</text>
<text text-anchor="start" x="80" y="-249.5" font-family="Helvetica,sans-Serif" font-size="10.00">+ set_power()</text>
<text text-anchor="start" x="80" y="-238.5" font-family="Helvetica,sans-Serif" font-size="10.00">+ set_colour()</text>
<text text-anchor="start" x="80" y="-227.5" font-family="Helvetica,sans-Serif" font-size="10.00">+ get_colour()</text>
<text text-anchor="start" x="80" y="-216.5" font-family="Helvetica,sans-Serif" font-size="10.00">+ get_attenuation_constant()</text>
<text text-anchor="start" x="80" y="-205.5" font-family="Helvetica,sans-Serif" font-size="10.00">+ set_attenuation_constant()</text>
<text text-anchor="start" x="80" y="-194.5" font-family="Helvetica,sans-Serif" font-size="10.00">+ get_attenuation_linear()</text>
<text text-anchor="start" x="80" y="-183.5" font-family="Helvetica,sans-Serif" font-size="10.00">+ set_attenuation_linear()</text>
<text text-anchor="start" x="80" y="-172.5" font-family="Helvetica,sans-Serif" font-size="10.00">+ get_attenuation_quadratic()</text>
<text text-anchor="start" x="80" y="-161.5" font-family="Helvetica,sans-Serif" font-size="10.00">+ set_attenuation_quadratic()</text>
<text text-anchor="start" x="80" y="-150.5" font-family="Helvetica,sans-Serif" font-size="10.00">+ get_spotlight_inner</text>
<text text-anchor="start" x="80" y="-139.5" font-family="Helvetica,sans-Serif" font-size="10.00">_consine()</text>
<text text-anchor="start" x="80" y="-128.5" font-family="Helvetica,sans-Serif" font-size="10.00">+ get_spotlight_inner</text>
<text text-anchor="start" x="80" y="-117.5" font-family="Helvetica,sans-Serif" font-size="10.00">_angle()</text>
<text text-anchor="start" x="80" y="-106.5" font-family="Helvetica,sans-Serif" font-size="10.00">+ set_spotlight_inner</text>
<text text-anchor="start" x="80" y="-95.5" font-family="Helvetica,sans-Serif" font-size="10.00">_angle()</text>
<text text-anchor="start" x="80" y="-84.5" font-family="Helvetica,sans-Serif" font-size="10.00">+ get_spotlight_outer</text>
<text text-anchor="start" x="80" y="-73.5" font-family="Helvetica,sans-Serif" font-size="10.00">_consine()</text>
<text text-anchor="start" x="80" y="-62.5" font-family="Helvetica,sans-Serif" font-size="10.00">+ get_spotlight_outer</text>
<text text-anchor="start" x="80" y="-51.5" font-family="Helvetica,sans-Serif" font-size="10.00">_angle()</text>
<text text-anchor="start" x="80" y="-40.5" font-family="Helvetica,sans-Serif" font-size="10.00">+ set_spotlight_outer</text>
<text text-anchor="start" x="80" y="-29.5" font-family="Helvetica,sans-Serif" font-size="10.00">_angle()</text>
<text text-anchor="start" x="80" y="-18.5" font-family="Helvetica,sans-Serif" font-size="10.00">+ get_shadow_distance()</text>
<text text-anchor="start" x="80" y="-7.5" font-family="Helvetica,sans-Serif" font-size="10.00">+ set_shadow_distance()</text>
</a>
</g>
</g>
<!-- Node2 -->
<g id="node2" class="node">
<title>Node2</title>
<g id="a_node2"><a xlink:title=" ">
<polygon fill="white" stroke="#bfbfbf" points="0,-534.5 0,-591.5 38,-591.5 38,-534.5 0,-534.5"/>
<text text-anchor="middle" x="19" y="-579.5" font-family="Helvetica,sans-Serif" font-size="10.00">float</text>
<polyline fill="none" stroke="#bfbfbf" points="0,-572.5 38,-572.5 "/>
<text text-anchor="middle" x="19" y="-560.5" font-family="Helvetica,sans-Serif" font-size="10.00"> </text>
<polyline fill="none" stroke="#bfbfbf" points="0,-553.5 38,-553.5 "/>
<text text-anchor="middle" x="19" y="-541.5" font-family="Helvetica,sans-Serif" font-size="10.00"> </text>
</a>
</g>
</g>
<!-- Node2&#45;&gt;Node1 -->
<g id="edge1" class="edge">
<title>Node2&#45;&gt;Node1</title>
<path fill="none" stroke="#404040" d="M18.07,-534.31C17.64,-496.78 19.8,-428.11 38,-373 45.17,-351.3 55.06,-329.43 66.07,-308.58"/>
<polygon fill="none" stroke="#404040" points="66.2,-308.33 65.54,-301.15 71.92,-297.78 72.58,-304.96 66.2,-308.33"/>
<text text-anchor="start" x="38" y="-508" font-family="Helvetica,sans-Serif" font-size="10.00"> &#45;attenuation_constant</text>
<text text-anchor="middle" x="94" y="-497" font-family="Helvetica,sans-Serif" font-size="10.00">_</text>
<text text-anchor="start" x="38" y="-486" font-family="Helvetica,sans-Serif" font-size="10.00">&#45;attenuation_linear</text>
<text text-anchor="middle" x="94" y="-475" font-family="Helvetica,sans-Serif" font-size="10.00">_</text>
<text text-anchor="start" x="38" y="-464" font-family="Helvetica,sans-Serif" font-size="10.00">&#45;attenuation_quadratic</text>
<text text-anchor="middle" x="94" y="-453" font-family="Helvetica,sans-Serif" font-size="10.00">_</text>
<text text-anchor="middle" x="94" y="-442" font-family="Helvetica,sans-Serif" font-size="10.00">&#45;power_</text>
<text text-anchor="start" x="38" y="-431" font-family="Helvetica,sans-Serif" font-size="10.00">&#45;shadow_distance</text>
<text text-anchor="middle" x="94" y="-420" font-family="Helvetica,sans-Serif" font-size="10.00">_</text>
<text text-anchor="start" x="38" y="-409" font-family="Helvetica,sans-Serif" font-size="10.00">&#45;spotlight_inner</text>
<text text-anchor="middle" x="94" y="-398" font-family="Helvetica,sans-Serif" font-size="10.00">_angle_</text>
<text text-anchor="start" x="38" y="-387" font-family="Helvetica,sans-Serif" font-size="10.00">&#45;spotlight_outer</text>
<text text-anchor="middle" x="94" y="-376" font-family="Helvetica,sans-Serif" font-size="10.00">_angle_</text>
</g>
<!-- Node3 -->
<g id="node3" class="node">
<title>Node3</title>
<g id="a_node3"><a xlink:title=" ">
<polygon fill="white" stroke="#bfbfbf" points="130.5,-534.5 130.5,-591.5 177.5,-591.5 177.5,-534.5 130.5,-534.5"/>
<text text-anchor="middle" x="154" y="-579.5" font-family="Helvetica,sans-Serif" font-size="10.00">colour</text>
<polyline fill="none" stroke="#bfbfbf" points="130.5,-572.5 177.5,-572.5 "/>
<text text-anchor="middle" x="154" y="-560.5" font-family="Helvetica,sans-Serif" font-size="10.00"> </text>
<polyline fill="none" stroke="#bfbfbf" points="130.5,-553.5 177.5,-553.5 "/>
<text text-anchor="middle" x="154" y="-541.5" font-family="Helvetica,sans-Serif" font-size="10.00"> </text>
</a>
</g>
</g>
<!-- Node3&#45;&gt;Node1 -->
<g id="edge2" class="edge">
<title>Node3&#45;&gt;Node1</title>
<path fill="none" stroke="#404040" d="M154,-534.42C154,-498.45 154,-432.34 154,-366.77"/>
<polygon fill="none" stroke="#404040" points="154,-366.54 150,-360.54 154,-354.54 158,-360.54 154,-366.54"/>
<text text-anchor="middle" x="175.5" y="-442" font-family="Helvetica,sans-Serif" font-size="10.00"> &#45;colour_</text>
</g>
<!-- Node4 -->
<g id="node4" class="node">
<title>Node4</title>
<g id="a_node4"><a xlink:title=" ">
<polygon fill="white" stroke="#bfbfbf" points="195.5,-534.5 195.5,-591.5 266.5,-591.5 266.5,-534.5 195.5,-534.5"/>
<text text-anchor="middle" x="231" y="-579.5" font-family="Helvetica,sans-Serif" font-size="10.00">light_mode</text>
<polyline fill="none" stroke="#bfbfbf" points="195.5,-572.5 266.5,-572.5 "/>
<text text-anchor="middle" x="231" y="-560.5" font-family="Helvetica,sans-Serif" font-size="10.00"> </text>
<polyline fill="none" stroke="#bfbfbf" points="195.5,-553.5 266.5,-553.5 "/>
<text text-anchor="middle" x="231" y="-541.5" font-family="Helvetica,sans-Serif" font-size="10.00"> </text>
</a>
</g>
</g>
<!-- Node4&#45;&gt;Node1 -->
<g id="edge3" class="edge">
<title>Node4&#45;&gt;Node1</title>
<path fill="none" stroke="#404040" d="M227.31,-534.33C222.23,-497.4 212.39,-430.01 201,-373 200.57,-370.83 200.12,-368.64 199.68,-366.45"/>
<polygon fill="none" stroke="#404040" points="199.66,-366.36 194.52,-361.3 197.21,-354.61 202.35,-359.67 199.66,-366.36"/>
<text text-anchor="middle" x="244" y="-442" font-family="Helvetica,sans-Serif" font-size="10.00"> &#45;mode_</text>
</g>
</g>
</svg>
        <g id="navigator" transform="translate(0 0)" fill="#404254">
                <rect fill="#f2f5e9" fill-opacity="0.5" stroke="#606060" stroke-width=".5" x="0" y="0" width="60" height="60"/>
                <use id="zoomplus" xlink:href="#zoomPlus" x="17" y="9" onmousedown="handleZoom(evt,'in')"/>
                <use id="zoomminus" xlink:href="#zoomMin" x="42" y="9" onmousedown="handleZoom(evt,'out')"/>
                <use id="reset" xlink:href="#resetDef" x="30" y="36" onmousedown="handleReset()"/>
                <g id="arrowUp" xlink:href="#dirArrow" transform="translate(30 24)" onmousedown="handlePan(0,-1)">
                  <use xlink:href="#rim" fill="#404040">
                        <set attributeName="fill" to="#808080" begin="arrowUp.mouseover" end="arrowUp.mouseout"/>
                  </use>
                  <path fill="none" stroke="white" stroke-width="1.5" d="M0,-3.0v7 M-2.5,-0.5L0,-3.0L2.5,-0.5"/>
                </g>
                <g id="arrowRight" xlink:href="#dirArrow" transform="rotate(90) translate(36 -43)" onmousedown="handlePan(1,0)">
                  <use xlink:href="#rim" fill="#404040">
                        <set attributeName="fill" to="#808080" begin="arrowRight.mouseover" end="arrowRight.mouseout"/>
                  </use>
                  <path fill="none" stroke="white" stroke-width="1.5" d="M0,-3.0v7 M-2.5,-0.5L0,-3.0L2.5,-0.5"/>
                </g>
                <g id="arrowDown" xlink:href="#dirArrow" transform="rotate(180) translate(-30 -48)" onmousedown="handlePan(0,1)">
                  <use xlink:href="#rim" fill="#404040">
                        <set attributeName="fill" to="#808080" begin="arrowDown.mouseover" end="arrowDown.mouseout"/>
                  </use>
                  <path fill="none" stroke="white" stroke-width="1.5" d="M0,-3.0v7 M-2.5,-0.5L0,-3.0L2.5,-0.5"/>
                </g>
                <g id="arrowLeft" xlink:href="#dirArrow" transform="rotate(270) translate(-36 17)" onmousedown="handlePan(-1,0)">
                  <use xlink:href="#rim" fill="#404040">
                        <set attributeName="fill" to="#808080" begin="arrowLeft.mouseover" end="arrowLeft.mouseout"/>
                  </use>
                  <path fill="none" stroke="white" stroke-width="1.5" d="M0,-3.0v7 M-2.5,-0.5L0,-3.0L2.5,-0.5"/>
                </g>
        </g>
        <svg viewBox="0 0 15 15" width="100%" height="30px" preserveAspectRatio="xMaxYMin meet">
         <g id="arrow_out" transform="scale(0.3 0.3)">
          <a xlink:href="classmkr_1_1light__coll__graph_org.svg" target="_base">
           <rect id="button" ry="5" rx="5" y="6" x="6" height="38" width="38"
                fill="#f2f5e9" fill-opacity="0.5" stroke="#606060" stroke-width="1.0"/>
           <path id="arrow"
             d="M 11.500037,31.436501 C 11.940474,20.09759 22.043105,11.32322 32.158766,21.979434 L 37.068811,17.246167 C 37.068811,17.246167 37.088388,32 37.088388,32 L 22.160133,31.978069 C 22.160133,31.978069 26.997745,27.140456 26.997745,27.140456 C 18.528582,18.264221 13.291696,25.230495 11.500037,31.436501 z"
             style="fill:#404040;"/>
          </a>
         </g>
        </svg>
</svg>
