<?xml version="1.0" encoding="UTF-8" standalone="no"?>
<!DOCTYPE svg PUBLIC "-//W3C//DTD SVG 1.1//EN"
 "http://www.w3.org/Graphics/SVG/1.1/DTD/svg11.dtd">
<!-- Generated by graphviz version 2.43.0 (0)
 -->
<!-- Title: mkr::framebuffer Pages: 1 -->
<svg width="973pt" height="479pt"
 viewBox="0.00 0.00 972.50 479.00" xmlns="http://www.w3.org/2000/svg" xmlns:xlink="http://www.w3.org/1999/xlink">
<g id="graph0" class="graph" transform="scale(1 1) rotate(0) translate(4 475)">
<title>mkr::framebuffer</title>
<polygon fill="white" stroke="transparent" points="-4,4 -4,-475 968.5,-475 968.5,4 -4,4"/>
<!-- Node1 -->
<g id="node1" class="node">
<title>Node1</title>
<g id="a_node1"><a xlink:title=" ">
<polygon fill="#bfbfbf" stroke="black" points="364.5,-127.5 364.5,-470.5 547.5,-470.5 547.5,-127.5 364.5,-127.5"/>
<text text-anchor="middle" x="456" y="-458.5" font-family="Helvetica,sans-Serif" font-size="10.00">mkr::framebuffer</text>
<polyline fill="none" stroke="black" points="364.5,-451.5 547.5,-451.5 "/>
<text text-anchor="start" x="372.5" y="-439.5" font-family="Helvetica,sans-Serif" font-size="10.00"># handle_</text>
<text text-anchor="start" x="372.5" y="-428.5" font-family="Helvetica,sans-Serif" font-size="10.00"># colour_attachments_</text>
<text text-anchor="start" x="372.5" y="-417.5" font-family="Helvetica,sans-Serif" font-size="10.00"># depth_stencil_attachment_</text>
<text text-anchor="start" x="372.5" y="-406.5" font-family="Helvetica,sans-Serif" font-size="10.00"># width_</text>
<text text-anchor="start" x="372.5" y="-395.5" font-family="Helvetica,sans-Serif" font-size="10.00"># height_</text>
<polyline fill="none" stroke="black" points="364.5,-388.5 547.5,-388.5 "/>
<text text-anchor="start" x="372.5" y="-376.5" font-family="Helvetica,sans-Serif" font-size="10.00">+ ~framebuffer()</text>
<text text-anchor="start" x="372.5" y="-365.5" font-family="Helvetica,sans-Serif" font-size="10.00">+ is_complete()</text>
<text text-anchor="start" x="372.5" y="-354.5" font-family="Helvetica,sans-Serif" font-size="10.00">+ width()</text>
<text text-anchor="start" x="372.5" y="-343.5" font-family="Helvetica,sans-Serif" font-size="10.00">+ height()</text>
<text text-anchor="start" x="372.5" y="-332.5" font-family="Helvetica,sans-Serif" font-size="10.00">+ get_colour_attachment()</text>
<text text-anchor="start" x="372.5" y="-321.5" font-family="Helvetica,sans-Serif" font-size="10.00">+ get_colour_attachment()</text>
<text text-anchor="start" x="372.5" y="-310.5" font-family="Helvetica,sans-Serif" font-size="10.00">+ get_depth_stencil_attachment()</text>
<text text-anchor="start" x="372.5" y="-299.5" font-family="Helvetica,sans-Serif" font-size="10.00">+ get_depth_stencil_attachment()</text>
<text text-anchor="start" x="372.5" y="-288.5" font-family="Helvetica,sans-Serif" font-size="10.00">+ bind()</text>
<text text-anchor="start" x="372.5" y="-277.5" font-family="Helvetica,sans-Serif" font-size="10.00">+ blit_to()</text>
<text text-anchor="start" x="372.5" y="-266.5" font-family="Helvetica,sans-Serif" font-size="10.00">+ set_read_colour_attachment()</text>
<text text-anchor="start" x="372.5" y="-255.5" font-family="Helvetica,sans-Serif" font-size="10.00">+ set_draw_colour_attachment()</text>
<text text-anchor="start" x="372.5" y="-244.5" font-family="Helvetica,sans-Serif" font-size="10.00">+ set_draw_colour_attachment</text>
<text text-anchor="start" x="372.5" y="-233.5" font-family="Helvetica,sans-Serif" font-size="10.00">_all()</text>
<text text-anchor="start" x="372.5" y="-222.5" font-family="Helvetica,sans-Serif" font-size="10.00">+ clear_colour()</text>
<text text-anchor="start" x="372.5" y="-211.5" font-family="Helvetica,sans-Serif" font-size="10.00">+ clear_colour_all()</text>
<text text-anchor="start" x="372.5" y="-200.5" font-family="Helvetica,sans-Serif" font-size="10.00">+ clear_depth_stencil()</text>
<text text-anchor="start" x="372.5" y="-189.5" font-family="Helvetica,sans-Serif" font-size="10.00">+ bind_default_buffer()</text>
<text text-anchor="start" x="372.5" y="-178.5" font-family="Helvetica,sans-Serif" font-size="10.00">+ clear_default_buffer</text>
<text text-anchor="start" x="372.5" y="-167.5" font-family="Helvetica,sans-Serif" font-size="10.00">_colour()</text>
<text text-anchor="start" x="372.5" y="-156.5" font-family="Helvetica,sans-Serif" font-size="10.00">+ clear_default_depth</text>
<text text-anchor="start" x="372.5" y="-145.5" font-family="Helvetica,sans-Serif" font-size="10.00">_stencil()</text>
<text text-anchor="start" x="372.5" y="-134.5" font-family="Helvetica,sans-Serif" font-size="10.00"># framebuffer()</text>
</a>
</g>
</g>
<!-- Node2 -->
<g id="node2" class="node">
<title>Node2</title>
<g id="a_node2"><a xlink:href="classmkr_1_1alpha__buffer.html" target="_top" xlink:title=" ">
<polygon fill="white" stroke="black" points="0,-11.5 0,-79.5 104,-79.5 104,-11.5 0,-11.5"/>
<text text-anchor="middle" x="52" y="-67.5" font-family="Helvetica,sans-Serif" font-size="10.00">mkr::alpha_buffer</text>
<polyline fill="none" stroke="black" points="0,-60.5 104,-60.5 "/>
<text text-anchor="middle" x="52" y="-48.5" font-family="Helvetica,sans-Serif" font-size="10.00"> </text>
<polyline fill="none" stroke="black" points="0,-41.5 104,-41.5 "/>
<text text-anchor="start" x="8" y="-29.5" font-family="Helvetica,sans-Serif" font-size="10.00">+ alpha_buffer()</text>
<text text-anchor="start" x="8" y="-18.5" font-family="Helvetica,sans-Serif" font-size="10.00">+ ~alpha_buffer()</text>
</a>
</g>
</g>
<!-- Node1&#45;&gt;Node2 -->
<g id="edge1" class="edge">
<title>Node1&#45;&gt;Node2</title>
<path fill="none" stroke="midnightblue" d="M355.65,-240.55C286.49,-200.21 192.99,-144.17 113,-91 107.54,-87.37 101.89,-83.46 96.32,-79.52"/>
<polygon fill="none" stroke="midnightblue" points="353.98,-243.63 364.38,-245.64 357.51,-237.58 353.98,-243.63"/>
</g>
<!-- Node3 -->
<g id="node3" class="node">
<title>Node3</title>
<g id="a_node3"><a xlink:href="classmkr_1_1forward__buffer.html" target="_top" xlink:title=" ">
<polygon fill="white" stroke="black" points="122.5,-11.5 122.5,-79.5 237.5,-79.5 237.5,-11.5 122.5,-11.5"/>
<text text-anchor="middle" x="180" y="-67.5" font-family="Helvetica,sans-Serif" font-size="10.00">mkr::forward_buffer</text>
<polyline fill="none" stroke="black" points="122.5,-60.5 237.5,-60.5 "/>
<text text-anchor="middle" x="180" y="-48.5" font-family="Helvetica,sans-Serif" font-size="10.00"> </text>
<polyline fill="none" stroke="black" points="122.5,-41.5 237.5,-41.5 "/>
<text text-anchor="start" x="130.5" y="-29.5" font-family="Helvetica,sans-Serif" font-size="10.00">+ forward_buffer()</text>
<text text-anchor="start" x="130.5" y="-18.5" font-family="Helvetica,sans-Serif" font-size="10.00">+ ~forward_buffer()</text>
</a>
</g>
</g>
<!-- Node1&#45;&gt;Node3 -->
<g id="edge2" class="edge">
<title>Node1&#45;&gt;Node3</title>
<path fill="none" stroke="midnightblue" d="M357.01,-207.8C308.15,-163.28 252.18,-112.27 216.48,-79.75"/>
<polygon fill="none" stroke="midnightblue" points="354.73,-210.46 364.48,-214.6 359.45,-205.28 354.73,-210.46"/>
</g>
<!-- Node4 -->
<g id="node4" class="node">
<title>Node4</title>
<g id="a_node4"><a xlink:href="classmkr_1_1geometry__buffer.html" target="_top" xlink:title=" ">
<polygon fill="white" stroke="black" points="255.5,-11.5 255.5,-79.5 380.5,-79.5 380.5,-11.5 255.5,-11.5"/>
<text text-anchor="middle" x="318" y="-67.5" font-family="Helvetica,sans-Serif" font-size="10.00">mkr::geometry_buffer</text>
<polyline fill="none" stroke="black" points="255.5,-60.5 380.5,-60.5 "/>
<text text-anchor="middle" x="318" y="-48.5" font-family="Helvetica,sans-Serif" font-size="10.00"> </text>
<polyline fill="none" stroke="black" points="255.5,-41.5 380.5,-41.5 "/>
<text text-anchor="start" x="263.5" y="-29.5" font-family="Helvetica,sans-Serif" font-size="10.00">+ geometry_buffer()</text>
<text text-anchor="start" x="263.5" y="-18.5" font-family="Helvetica,sans-Serif" font-size="10.00">+ ~geometry_buffer()</text>
</a>
</g>
</g>
<!-- Node1&#45;&gt;Node4 -->
<g id="edge3" class="edge">
<title>Node1&#45;&gt;Node4</title>
<path fill="none" stroke="midnightblue" d="M359.45,-122.04C350.78,-106.24 342.8,-91.7 336.21,-79.69"/>
<polygon fill="none" stroke="midnightblue" points="356.46,-123.86 364.34,-130.95 362.59,-120.49 356.46,-123.86"/>
</g>
<!-- Node5 -->
<g id="node5" class="node">
<title>Node5</title>
<g id="a_node5"><a xlink:href="classmkr_1_1lighting__buffer.html" target="_top" xlink:title=" ">
<polygon fill="white" stroke="black" points="399,-0.5 399,-90.5 513,-90.5 513,-0.5 399,-0.5"/>
<text text-anchor="middle" x="456" y="-78.5" font-family="Helvetica,sans-Serif" font-size="10.00">mkr::lighting_buffer</text>
<polyline fill="none" stroke="black" points="399,-71.5 513,-71.5 "/>
<text text-anchor="start" x="407" y="-59.5" font-family="Helvetica,sans-Serif" font-size="10.00"># diffuse_back_</text>
<text text-anchor="start" x="407" y="-48.5" font-family="Helvetica,sans-Serif" font-size="10.00"># specular_back_</text>
<polyline fill="none" stroke="black" points="399,-41.5 513,-41.5 "/>
<text text-anchor="start" x="407" y="-29.5" font-family="Helvetica,sans-Serif" font-size="10.00">+ lighting_buffer()</text>
<text text-anchor="start" x="407" y="-18.5" font-family="Helvetica,sans-Serif" font-size="10.00">+ ~lighting_buffer()</text>
<text text-anchor="start" x="407" y="-7.5" font-family="Helvetica,sans-Serif" font-size="10.00">+ swap_buffers()</text>
</a>
</g>
</g>
<!-- Node1&#45;&gt;Node5 -->
<g id="edge4" class="edge">
<title>Node1&#45;&gt;Node5</title>
<path fill="none" stroke="midnightblue" d="M456,-117.33C456,-107.78 456,-98.75 456,-90.54"/>
<polygon fill="none" stroke="midnightblue" points="452.5,-117.46 456,-127.46 459.5,-117.46 452.5,-117.46"/>
</g>
<!-- Node6 -->
<g id="node6" class="node">
<title>Node6</title>
<g id="a_node6"><a xlink:href="classmkr_1_1post__buffer.html" target="_top" xlink:title=" ">
<polygon fill="white" stroke="black" points="531,-6 531,-85 631,-85 631,-6 531,-6"/>
<text text-anchor="middle" x="581" y="-73" font-family="Helvetica,sans-Serif" font-size="10.00">mkr::post_buffer</text>
<polyline fill="none" stroke="black" points="531,-66 631,-66 "/>
<text text-anchor="start" x="539" y="-54" font-family="Helvetica,sans-Serif" font-size="10.00"># colour_back_</text>
<polyline fill="none" stroke="black" points="531,-47 631,-47 "/>
<text text-anchor="start" x="539" y="-35" font-family="Helvetica,sans-Serif" font-size="10.00">+ post_buffer()</text>
<text text-anchor="start" x="539" y="-24" font-family="Helvetica,sans-Serif" font-size="10.00">+ ~post_buffer()</text>
<text text-anchor="start" x="539" y="-13" font-family="Helvetica,sans-Serif" font-size="10.00">+ swap_buffers()</text>
</a>
</g>
</g>
<!-- Node1&#45;&gt;Node6 -->
<g id="edge5" class="edge">
<title>Node1&#45;&gt;Node6</title>
<path fill="none" stroke="midnightblue" d="M545.24,-118.45C551.29,-106.27 556.93,-94.92 561.86,-85"/>
<polygon fill="none" stroke="midnightblue" points="542.08,-116.95 540.76,-127.46 548.35,-120.06 542.08,-116.95"/>
</g>
<!-- Node7 -->
<g id="node7" class="node">
<title>Node7</title>
<g id="a_node7"><a xlink:href="classmkr_1_1shadow__2d__buffer.html" target="_top" xlink:title=" ">
<polygon fill="white" stroke="black" points="649,-11.5 649,-79.5 781,-79.5 781,-11.5 649,-11.5"/>
<text text-anchor="middle" x="715" y="-67.5" font-family="Helvetica,sans-Serif" font-size="10.00">mkr::shadow_2d_buffer</text>
<polyline fill="none" stroke="black" points="649,-60.5 781,-60.5 "/>
<text text-anchor="middle" x="715" y="-48.5" font-family="Helvetica,sans-Serif" font-size="10.00"> </text>
<polyline fill="none" stroke="black" points="649,-41.5 781,-41.5 "/>
<text text-anchor="start" x="657" y="-29.5" font-family="Helvetica,sans-Serif" font-size="10.00">+ shadow_2d_buffer()</text>
<text text-anchor="start" x="657" y="-18.5" font-family="Helvetica,sans-Serif" font-size="10.00">+ ~shadow_2d_buffer()</text>
</a>
</g>
</g>
<!-- Node1&#45;&gt;Node7 -->
<g id="edge6" class="edge">
<title>Node1&#45;&gt;Node7</title>
<path fill="none" stroke="midnightblue" d="M555.03,-201.84C599.36,-158.79 648.74,-110.84 680.75,-79.76"/>
<polygon fill="none" stroke="midnightblue" points="552.41,-199.5 547.68,-208.98 557.29,-204.52 552.41,-199.5"/>
</g>
<!-- Node8 -->
<g id="node8" class="node">
<title>Node8</title>
<g id="a_node8"><a xlink:href="classmkr_1_1shadow__cubemap__buffer.html" target="_top" xlink:title=" ">
<polygon fill="white" stroke="black" points="799.5,-6 799.5,-85 964.5,-85 964.5,-6 799.5,-6"/>
<text text-anchor="start" x="807.5" y="-73" font-family="Helvetica,sans-Serif" font-size="10.00">mkr::shadow_cubemap</text>
<text text-anchor="middle" x="882" y="-62" font-family="Helvetica,sans-Serif" font-size="10.00">_buffer</text>
<polyline fill="none" stroke="black" points="799.5,-55 964.5,-55 "/>
<text text-anchor="middle" x="882" y="-43" font-family="Helvetica,sans-Serif" font-size="10.00"> </text>
<polyline fill="none" stroke="black" points="799.5,-36 964.5,-36 "/>
<text text-anchor="start" x="807.5" y="-24" font-family="Helvetica,sans-Serif" font-size="10.00">+ shadow_cubemap_buffer()</text>
<text text-anchor="start" x="807.5" y="-13" font-family="Helvetica,sans-Serif" font-size="10.00">+ ~shadow_cubemap_buffer()</text>
</a>
</g>
</g>
<!-- Node1&#45;&gt;Node8 -->
<g id="edge7" class="edge">
<title>Node1&#45;&gt;Node8</title>
<path fill="none" stroke="midnightblue" d="M556.31,-238.78C636.69,-191.32 747.15,-126.11 816.54,-85.15"/>
<polygon fill="none" stroke="midnightblue" points="554.48,-235.79 547.65,-243.89 558.04,-241.82 554.48,-235.79"/>
</g>
</g>
</svg>
