<?xml version="1.0" encoding="UTF-8" standalone="no"?>
<!DOCTYPE svg PUBLIC "-//W3C//DTD SVG 1.1//EN"
 "http://www.w3.org/Graphics/SVG/1.1/DTD/svg11.dtd">
<!-- Generated by graphviz version 2.43.0 (0)
 -->
<!-- Title: mkr::graphics_renderer Pages: 1 -->
<!--zoomable 391 -->
<svg id="main" version="1.1" xmlns="http://www.w3.org/2000/svg" xmlns:xlink="http://www.w3.org/1999/xlink" xml:space="preserve" onload="init(evt)">
<style type="text/css"><![CDATA[
.edge:hover path { stroke: red; }
.edge:hover polygon { stroke: red; fill: red; }
]]></style>
<script type="text/javascript"><![CDATA[
var edges = document.getElementsByTagName('g');
if (edges && edges.length) {
  for (var i=0;i<edges.length;i++) {
    if (edges[i].id.substr(0,4)=='edge') {
      edges[i].setAttribute('class','edge');
    }
  }
}
]]></script>
        <defs>
                <circle id="rim" cx="0" cy="0" r="7"/>
                <circle id="rim2" cx="0" cy="0" r="3.5"/>
                <g id="zoomPlus">
                        <use xlink:href="#rim" fill="#404040">
                                <set attributeName="fill" to="#808080" begin="zoomplus.mouseover" end="zoomplus.mouseout"/>
                        </use>
                        <path d="M-4,0h8M0,-4v8" fill="none" stroke="white" stroke-width="1.5" pointer-events="none"/>
                </g>
                <g id="zoomMin">
                        <use xlink:href="#rim" fill="#404040">
                                <set attributeName="fill" to="#808080" begin="zoomminus.mouseover" end="zoomminus.mouseout"/>
                        </use>
                        <path d="M-4,0h8" fill="none" stroke="white" stroke-width="1.5" pointer-events="none"/>
                </g>
                <g id="dirArrow">
                        <path fill="none" stroke="white" stroke-width="1.5" d="M0,-3.0v7 M-2.5,-0.5L0,-3.0L2.5,-0.5"/>
                </g>
               <g id="resetDef">
                       <use xlink:href="#rim2" fill="#404040">
                               <set attributeName="fill" to="#808080" begin="reset.mouseover" end="reset.mouseout"/>
                       </use>
               </g>
        </defs>

<script type="text/javascript">
var viewWidth = 1915;
var viewHeight = 391;
var sectionId = 'dynsection-1';
</script>
<script xlink:href="svgpan.js"/>
<svg id="graph" class="graph">
<g id="viewport">
<title>mkr::graphics_renderer</title>
<polygon fill="white" stroke="transparent" points="-4,4 -4,-387 1910.5,-387 1910.5,4 -4,4"/>
<!-- Node1 -->
<g id="node1" class="node">
<title>Node1</title>
<g id="a_node1"><a xlink:title=" ">
<polygon fill="#bfbfbf" stroke="black" points="882,-0.5 882,-200.5 1012,-200.5 1012,-0.5 882,-0.5"/>
<text text-anchor="middle" x="947" y="-188.5" font-family="Helvetica,sans-Serif" font-size="10.00">mkr::graphics_renderer</text>
<polyline fill="none" stroke="black" points="882,-181.5 1012,-181.5 "/>
<text text-anchor="middle" x="947" y="-169.5" font-family="Helvetica,sans-Serif" font-size="10.00"> </text>
<polyline fill="none" stroke="black" points="882,-162.5 1012,-162.5 "/>
<text text-anchor="start" x="890" y="-150.5" font-family="Helvetica,sans-Serif" font-size="10.00">+ init()</text>
<text text-anchor="start" x="890" y="-139.5" font-family="Helvetica,sans-Serif" font-size="10.00">+ start()</text>
<text text-anchor="start" x="890" y="-128.5" font-family="Helvetica,sans-Serif" font-size="10.00">+ update()</text>
<text text-anchor="start" x="890" y="-117.5" font-family="Helvetica,sans-Serif" font-size="10.00">+ exit()</text>
<text text-anchor="start" x="890" y="-106.5" font-family="Helvetica,sans-Serif" font-size="10.00">+ submit_camera()</text>
<text text-anchor="start" x="890" y="-95.5" font-family="Helvetica,sans-Serif" font-size="10.00">+ submit_light()</text>
<text text-anchor="start" x="890" y="-84.5" font-family="Helvetica,sans-Serif" font-size="10.00">+ submit_mesh()</text>
<text text-anchor="start" x="890" y="-73.5" font-family="Helvetica,sans-Serif" font-size="10.00">&#45; graphics_renderer()</text>
<text text-anchor="start" x="890" y="-62.5" font-family="Helvetica,sans-Serif" font-size="10.00">&#45; ~graphics_renderer()</text>
<text text-anchor="start" x="890" y="-51.5" font-family="Helvetica,sans-Serif" font-size="10.00">&#45; render()</text>
<text text-anchor="start" x="890" y="-40.5" font-family="Helvetica,sans-Serif" font-size="10.00">&#45; geometry_pass()</text>
<text text-anchor="start" x="890" y="-29.5" font-family="Helvetica,sans-Serif" font-size="10.00">&#45; light_pass()</text>
<text text-anchor="start" x="890" y="-18.5" font-family="Helvetica,sans-Serif" font-size="10.00">&#45; forward_pass()</text>
<text text-anchor="start" x="890" y="-7.5" font-family="Helvetica,sans-Serif" font-size="10.00">&#45; post_proc_pass()</text>
</a>
</g>
</g>
<!-- Node2 -->
<g id="node2" class="node">
<title>Node2</title>
<g id="a_node2"><a xlink:href="classsingleton.html" target="_top" xlink:title=" ">
<polygon fill="white" stroke="black" points="0,-303.5 0,-371.5 114,-371.5 114,-303.5 0,-303.5"/>
<text text-anchor="start" x="8" y="-359.5" font-family="Helvetica,sans-Serif" font-size="10.00">singleton&lt; graphics</text>
<text text-anchor="middle" x="57" y="-348.5" font-family="Helvetica,sans-Serif" font-size="10.00">_renderer &gt;</text>
<polyline fill="none" stroke="black" points="0,-341.5 114,-341.5 "/>
<text text-anchor="middle" x="57" y="-329.5" font-family="Helvetica,sans-Serif" font-size="10.00"> </text>
<polyline fill="none" stroke="black" points="0,-322.5 114,-322.5 "/>
<text text-anchor="middle" x="57" y="-310.5" font-family="Helvetica,sans-Serif" font-size="10.00"> </text>
</a>
</g>
</g>
<!-- Node2&#45;&gt;Node1 -->
<g id="edge1" class="edge">
<title>Node2&#45;&gt;Node1</title>
<path fill="none" stroke="midnightblue" d="M111.66,-297.88C152.1,-271.3 209.55,-237.54 265,-219 484.06,-145.74 758.73,-116.25 881.94,-106.1"/>
<polygon fill="none" stroke="midnightblue" points="109.69,-294.99 103.3,-303.44 113.56,-300.82 109.69,-294.99"/>
</g>
<!-- Node3 -->
<g id="node3" class="node">
<title>Node3</title>
<g id="a_node3"><a xlink:title=" ">
<polygon fill="white" stroke="#bfbfbf" points="132,-298 132,-377 250,-377 250,-298 132,-298"/>
<text text-anchor="start" x="140" y="-365" font-family="Helvetica,sans-Serif" font-size="10.00">priority_queue&lt; mkr</text>
<text text-anchor="start" x="140" y="-354" font-family="Helvetica,sans-Serif" font-size="10.00">::graphics_renderer</text>
<text text-anchor="middle" x="191" y="-343" font-family="Helvetica,sans-Serif" font-size="10.00">::camera_data &gt;</text>
<polyline fill="none" stroke="#bfbfbf" points="132,-336 250,-336 "/>
<text text-anchor="middle" x="191" y="-324" font-family="Helvetica,sans-Serif" font-size="10.00"> </text>
<polyline fill="none" stroke="#bfbfbf" points="132,-317 250,-317 "/>
<text text-anchor="middle" x="191" y="-305" font-family="Helvetica,sans-Serif" font-size="10.00"> </text>
</a>
</g>
</g>
<!-- Node3&#45;&gt;Node1 -->
<g id="edge2" class="edge">
<title>Node3&#45;&gt;Node1</title>
<path fill="none" stroke="#404040" d="M235.65,-297.78C268.07,-271.67 314.13,-238.53 360,-219 532.99,-145.34 754.63,-117.11 869.76,-106.89"/>
<polygon fill="none" stroke="#404040" points="869.96,-106.87 875.6,-102.37 881.92,-105.84 876.28,-110.34 869.96,-106.87"/>
<text text-anchor="middle" x="387.5" y="-244" font-family="Helvetica,sans-Serif" font-size="10.00"> &#45;cameras_</text>
</g>
<!-- Node4 -->
<g id="node4" class="node">
<title>Node4</title>
<g id="a_node4"><a xlink:title=" ">
<polygon fill="white" stroke="#bfbfbf" points="268.5,-303.5 268.5,-371.5 391.5,-371.5 391.5,-303.5 268.5,-303.5"/>
<text text-anchor="start" x="276.5" y="-359.5" font-family="Helvetica,sans-Serif" font-size="10.00">unique_ptr&lt; mkr::app</text>
<text text-anchor="middle" x="330" y="-348.5" font-family="Helvetica,sans-Serif" font-size="10.00">_window &gt;</text>
<polyline fill="none" stroke="#bfbfbf" points="268.5,-341.5 391.5,-341.5 "/>
<text text-anchor="middle" x="330" y="-329.5" font-family="Helvetica,sans-Serif" font-size="10.00"> </text>
<polyline fill="none" stroke="#bfbfbf" points="268.5,-322.5 391.5,-322.5 "/>
<text text-anchor="middle" x="330" y="-310.5" font-family="Helvetica,sans-Serif" font-size="10.00"> </text>
</a>
</g>
</g>
<!-- Node4&#45;&gt;Node1 -->
<g id="edge3" class="edge">
<title>Node4&#45;&gt;Node1</title>
<path fill="none" stroke="#404040" d="M372.16,-303.45C407.3,-277.3 459.58,-241.55 510,-219 630.34,-165.19 780.65,-131.44 869.96,-114.57"/>
<polygon fill="none" stroke="#404040" points="870.08,-114.55 875.25,-109.52 881.88,-112.35 876.71,-117.38 870.08,-114.55"/>
<text text-anchor="middle" x="546.5" y="-244" font-family="Helvetica,sans-Serif" font-size="10.00"> &#45;app_window_</text>
</g>
<!-- Node5 -->
<g id="node5" class="node">
<title>Node5</title>
<g id="a_node5"><a xlink:title=" ">
<polygon fill="white" stroke="#bfbfbf" points="410,-303.5 410,-371.5 562,-371.5 562,-303.5 410,-303.5"/>
<text text-anchor="start" x="418" y="-359.5" font-family="Helvetica,sans-Serif" font-size="10.00">unique_ptr&lt; mkr::geometry</text>
<text text-anchor="middle" x="486" y="-348.5" font-family="Helvetica,sans-Serif" font-size="10.00">_buffer &gt;</text>
<polyline fill="none" stroke="#bfbfbf" points="410,-341.5 562,-341.5 "/>
<text text-anchor="middle" x="486" y="-329.5" font-family="Helvetica,sans-Serif" font-size="10.00"> </text>
<polyline fill="none" stroke="#bfbfbf" points="410,-322.5 562,-322.5 "/>
<text text-anchor="middle" x="486" y="-310.5" font-family="Helvetica,sans-Serif" font-size="10.00"> </text>
</a>
</g>
</g>
<!-- Node5&#45;&gt;Node1 -->
<g id="edge4" class="edge">
<title>Node5&#45;&gt;Node1</title>
<path fill="none" stroke="#404040" d="M535.54,-303.34C573.45,-278.64 627.47,-244.85 677,-219 740.68,-185.77 815.79,-153.62 870.6,-131.38"/>
<polygon fill="none" stroke="#404040" points="870.85,-131.28 874.92,-125.32 881.98,-126.78 877.92,-132.74 870.85,-131.28"/>
<text text-anchor="middle" x="698.5" y="-244" font-family="Helvetica,sans-Serif" font-size="10.00"> &#45;g_buff_</text>
</g>
<!-- Node6 -->
<g id="node6" class="node">
<title>Node6</title>
<g id="a_node6"><a xlink:title=" ">
<polygon fill="white" stroke="#bfbfbf" points="580.5,-303.5 580.5,-371.5 707.5,-371.5 707.5,-303.5 580.5,-303.5"/>
<text text-anchor="start" x="588.5" y="-359.5" font-family="Helvetica,sans-Serif" font-size="10.00">unique_ptr&lt; mkr::light</text>
<text text-anchor="middle" x="644" y="-348.5" font-family="Helvetica,sans-Serif" font-size="10.00">_buffer &gt;</text>
<polyline fill="none" stroke="#bfbfbf" points="580.5,-341.5 707.5,-341.5 "/>
<text text-anchor="middle" x="644" y="-329.5" font-family="Helvetica,sans-Serif" font-size="10.00"> </text>
<polyline fill="none" stroke="#bfbfbf" points="580.5,-322.5 707.5,-322.5 "/>
<text text-anchor="middle" x="644" y="-310.5" font-family="Helvetica,sans-Serif" font-size="10.00"> </text>
</a>
</g>
</g>
<!-- Node6&#45;&gt;Node1 -->
<g id="edge5" class="edge">
<title>Node6&#45;&gt;Node1</title>
<path fill="none" stroke="#404040" d="M685.61,-303.4C715.41,-279.76 756.56,-247.27 793,-219 818.57,-199.17 846.68,-177.64 871.8,-158.5"/>
<polygon fill="none" stroke="#404040" points="872.08,-158.28 874.43,-151.46 881.63,-151.01 879.28,-157.83 872.08,-158.28"/>
<text text-anchor="middle" x="813" y="-244" font-family="Helvetica,sans-Serif" font-size="10.00"> &#45;l_buff_</text>
</g>
<!-- Node7 -->
<g id="node7" class="node">
<title>Node7</title>
<g id="a_node7"><a xlink:title=" ">
<polygon fill="white" stroke="#bfbfbf" points="726,-303.5 726,-371.5 866,-371.5 866,-303.5 726,-303.5"/>
<text text-anchor="start" x="734" y="-359.5" font-family="Helvetica,sans-Serif" font-size="10.00">unique_ptr&lt; mkr::default</text>
<text text-anchor="middle" x="796" y="-348.5" font-family="Helvetica,sans-Serif" font-size="10.00">_buffer &gt;</text>
<polyline fill="none" stroke="#bfbfbf" points="726,-341.5 866,-341.5 "/>
<text text-anchor="middle" x="796" y="-329.5" font-family="Helvetica,sans-Serif" font-size="10.00"> </text>
<polyline fill="none" stroke="#bfbfbf" points="726,-322.5 866,-322.5 "/>
<text text-anchor="middle" x="796" y="-310.5" font-family="Helvetica,sans-Serif" font-size="10.00"> </text>
</a>
</g>
</g>
<!-- Node7&#45;&gt;Node1 -->
<g id="edge6" class="edge">
<title>Node7&#45;&gt;Node1</title>
<path fill="none" stroke="#404040" d="M817.31,-303.33C832.93,-279.02 855.09,-244.54 876.68,-210.94"/>
<polygon fill="none" stroke="#404040" points="876.87,-210.64 876.75,-203.43 883.36,-200.55 883.48,-207.76 876.87,-210.64"/>
<text text-anchor="middle" x="893.5" y="-244" font-family="Helvetica,sans-Serif" font-size="10.00"> &#45;d_buff_</text>
</g>
<!-- Node8 -->
<g id="node8" class="node">
<title>Node8</title>
<g id="a_node8"><a xlink:title=" ">
<polygon fill="white" stroke="#bfbfbf" points="884,-303.5 884,-371.5 1010,-371.5 1010,-303.5 884,-303.5"/>
<text text-anchor="start" x="892" y="-359.5" font-family="Helvetica,sans-Serif" font-size="10.00">unique_ptr&lt; mkr::post</text>
<text text-anchor="middle" x="947" y="-348.5" font-family="Helvetica,sans-Serif" font-size="10.00">_proc_buffer &gt;</text>
<polyline fill="none" stroke="#bfbfbf" points="884,-341.5 1010,-341.5 "/>
<text text-anchor="middle" x="947" y="-329.5" font-family="Helvetica,sans-Serif" font-size="10.00"> </text>
<polyline fill="none" stroke="#bfbfbf" points="884,-322.5 1010,-322.5 "/>
<text text-anchor="middle" x="947" y="-310.5" font-family="Helvetica,sans-Serif" font-size="10.00"> </text>
</a>
</g>
</g>
<!-- Node8&#45;&gt;Node1 -->
<g id="edge7" class="edge">
<title>Node8&#45;&gt;Node1</title>
<path fill="none" stroke="#404040" d="M947,-303.33C947,-279.44 947,-245.72 947,-212.68"/>
<polygon fill="none" stroke="#404040" points="947,-212.55 943,-206.55 947,-200.55 951,-206.55 947,-212.55"/>
<text text-anchor="middle" x="971.5" y="-244" font-family="Helvetica,sans-Serif" font-size="10.00"> &#45;pp_buff_</text>
</g>
<!-- Node9 -->
<g id="node9" class="node">
<title>Node9</title>
<g id="a_node9"><a xlink:title=" ">
<polygon fill="white" stroke="#bfbfbf" points="1028.5,-309 1028.5,-366 1171.5,-366 1171.5,-309 1028.5,-309"/>
<text text-anchor="middle" x="1100" y="-354" font-family="Helvetica,sans-Serif" font-size="10.00">unique_ptr&lt; mkr::mesh &gt;</text>
<polyline fill="none" stroke="#bfbfbf" points="1028.5,-347 1171.5,-347 "/>
<text text-anchor="middle" x="1100" y="-335" font-family="Helvetica,sans-Serif" font-size="10.00"> </text>
<polyline fill="none" stroke="#bfbfbf" points="1028.5,-328 1171.5,-328 "/>
<text text-anchor="middle" x="1100" y="-316" font-family="Helvetica,sans-Serif" font-size="10.00"> </text>
</a>
</g>
</g>
<!-- Node9&#45;&gt;Node1 -->
<g id="edge8" class="edge">
<title>Node9&#45;&gt;Node1</title>
<path fill="none" stroke="#404040" d="M1081.85,-308.62C1065.93,-284.17 1041.71,-246.98 1018.17,-210.82"/>
<polygon fill="none" stroke="#404040" points="1018.11,-210.72 1011.48,-207.87 1011.56,-200.66 1018.19,-203.51 1018.11,-210.72"/>
<text text-anchor="middle" x="1096" y="-249.5" font-family="Helvetica,sans-Serif" font-size="10.00"> &#45;screen_quad_</text>
<text text-anchor="middle" x="1096" y="-238.5" font-family="Helvetica,sans-Serif" font-size="10.00">&#45;skybox_mesh_</text>
</g>
<!-- Node10 -->
<g id="node10" class="node">
<title>Node10</title>
<g id="a_node10"><a xlink:title=" ">
<polygon fill="white" stroke="#bfbfbf" points="1189.5,-292.5 1189.5,-382.5 1362.5,-382.5 1362.5,-292.5 1189.5,-292.5"/>
<text text-anchor="start" x="1197.5" y="-370.5" font-family="Helvetica,sans-Serif" font-size="10.00">unordered_map&lt; mkr</text>
<text text-anchor="start" x="1197.5" y="-359.5" font-family="Helvetica,sans-Serif" font-size="10.00">::material *, std::unordered</text>
<text text-anchor="start" x="1197.5" y="-348.5" font-family="Helvetica,sans-Serif" font-size="10.00">_map&lt; mkr::mesh *, std::vector</text>
<text text-anchor="middle" x="1276" y="-337.5" font-family="Helvetica,sans-Serif" font-size="10.00">&lt; matrix4x4 &gt; &gt; &gt;</text>
<polyline fill="none" stroke="#bfbfbf" points="1189.5,-330.5 1362.5,-330.5 "/>
<text text-anchor="middle" x="1276" y="-318.5" font-family="Helvetica,sans-Serif" font-size="10.00"> </text>
<polyline fill="none" stroke="#bfbfbf" points="1189.5,-311.5 1362.5,-311.5 "/>
<text text-anchor="middle" x="1276" y="-299.5" font-family="Helvetica,sans-Serif" font-size="10.00"> </text>
</a>
</g>
</g>
<!-- Node10&#45;&gt;Node1 -->
<g id="edge9" class="edge">
<title>Node10&#45;&gt;Node1</title>
<path fill="none" stroke="#404040" d="M1228,-292.45C1202.12,-269.54 1169.18,-241.66 1138,-219 1101.31,-192.34 1058.46,-165.61 1022.65,-144.39"/>
<polygon fill="none" stroke="#404040" points="1022.61,-144.37 1015.41,-144.77 1012.27,-138.28 1019.47,-137.88 1022.61,-144.37"/>
<text text-anchor="middle" x="1266.5" y="-266" font-family="Helvetica,sans-Serif" font-size="10.00"> &#45;deferred_meshes_</text>
<text text-anchor="start" x="1203" y="-255" font-family="Helvetica,sans-Serif" font-size="10.00">&#45;forward_opaque_meshes</text>
<text text-anchor="middle" x="1266.5" y="-244" font-family="Helvetica,sans-Serif" font-size="10.00">_</text>
<text text-anchor="start" x="1203" y="-233" font-family="Helvetica,sans-Serif" font-size="10.00">&#45;forward_transparent</text>
<text text-anchor="middle" x="1266.5" y="-222" font-family="Helvetica,sans-Serif" font-size="10.00">_meshes_</text>
</g>
<!-- Node11 -->
<g id="node11" class="node">
<title>Node11</title>
<g id="a_node11"><a xlink:title=" ">
<polygon fill="white" stroke="#bfbfbf" points="1381,-309 1381,-366 1437,-366 1437,-309 1381,-309"/>
<text text-anchor="middle" x="1409" y="-354" font-family="Helvetica,sans-Serif" font-size="10.00">uint32_t</text>
<polyline fill="none" stroke="#bfbfbf" points="1381,-347 1437,-347 "/>
<text text-anchor="middle" x="1409" y="-335" font-family="Helvetica,sans-Serif" font-size="10.00"> </text>
<polyline fill="none" stroke="#bfbfbf" points="1381,-328 1437,-328 "/>
<text text-anchor="middle" x="1409" y="-316" font-family="Helvetica,sans-Serif" font-size="10.00"> </text>
</a>
</g>
</g>
<!-- Node11&#45;&gt;Node1 -->
<g id="edge10" class="edge">
<title>Node11&#45;&gt;Node1</title>
<path fill="none" stroke="#404040" d="M1398.18,-308.94C1386.3,-282.19 1364.76,-242.32 1334,-219 1241.74,-149.05 1107.78,-120.46 1024.11,-108.97"/>
<polygon fill="none" stroke="#404040" points="1024.04,-108.97 1017.57,-112.15 1012.14,-107.4 1018.61,-104.22 1024.04,-108.97"/>
<text text-anchor="middle" x="1422" y="-249.5" font-family="Helvetica,sans-Serif" font-size="10.00"> &#45;window_height_</text>
<text text-anchor="middle" x="1422" y="-238.5" font-family="Helvetica,sans-Serif" font-size="10.00">&#45;window_width_</text>
</g>
<!-- Node12 -->
<g id="node12" class="node">
<title>Node12</title>
<g id="a_node12"><a xlink:title=" ">
<polygon fill="white" stroke="#bfbfbf" points="1455.5,-303.5 1455.5,-371.5 1584.5,-371.5 1584.5,-303.5 1455.5,-303.5"/>
<text text-anchor="start" x="1463.5" y="-359.5" font-family="Helvetica,sans-Serif" font-size="10.00">vector&lt; mkr::graphics</text>
<text text-anchor="middle" x="1520" y="-348.5" font-family="Helvetica,sans-Serif" font-size="10.00">_renderer::light_data &gt;</text>
<polyline fill="none" stroke="#bfbfbf" points="1455.5,-341.5 1584.5,-341.5 "/>
<text text-anchor="middle" x="1520" y="-329.5" font-family="Helvetica,sans-Serif" font-size="10.00"> </text>
<polyline fill="none" stroke="#bfbfbf" points="1455.5,-322.5 1584.5,-322.5 "/>
<text text-anchor="middle" x="1520" y="-310.5" font-family="Helvetica,sans-Serif" font-size="10.00"> </text>
</a>
</g>
</g>
<!-- Node12&#45;&gt;Node1 -->
<g id="edge11" class="edge">
<title>Node12&#45;&gt;Node1</title>
<path fill="none" stroke="#404040" d="M1514.16,-303.42C1507.7,-276.71 1494.61,-240.2 1469,-219 1401.84,-163.42 1152.55,-126.18 1024.31,-110.26"/>
<polygon fill="none" stroke="#404040" points="1024.2,-110.25 1017.76,-113.49 1012.29,-108.79 1018.73,-105.55 1024.2,-110.25"/>
<text text-anchor="middle" x="1524" y="-244" font-family="Helvetica,sans-Serif" font-size="10.00"> &#45;lights_</text>
</g>
<!-- Node13 -->
<g id="node13" class="node">
<title>Node13</title>
<g id="a_node13"><a xlink:title=" ">
<polygon fill="white" stroke="#bfbfbf" points="1602.5,-303.5 1602.5,-371.5 1745.5,-371.5 1745.5,-303.5 1602.5,-303.5"/>
<text text-anchor="start" x="1610.5" y="-359.5" font-family="Helvetica,sans-Serif" font-size="10.00">unique_ptr&lt; mkr::forward</text>
<text text-anchor="middle" x="1674" y="-348.5" font-family="Helvetica,sans-Serif" font-size="10.00">_buffer &gt;</text>
<polyline fill="none" stroke="#bfbfbf" points="1602.5,-341.5 1745.5,-341.5 "/>
<text text-anchor="middle" x="1674" y="-329.5" font-family="Helvetica,sans-Serif" font-size="10.00"> </text>
<polyline fill="none" stroke="#bfbfbf" points="1602.5,-322.5 1745.5,-322.5 "/>
<text text-anchor="middle" x="1674" y="-310.5" font-family="Helvetica,sans-Serif" font-size="10.00"> </text>
</a>
</g>
</g>
<!-- Node13&#45;&gt;Node1 -->
<g id="edge12" class="edge">
<title>Node13&#45;&gt;Node1</title>
<path fill="none" stroke="#404040" d="M1647.64,-303.24C1624.35,-276.23 1587.96,-239.39 1548,-219 1375.13,-130.8 1143.22,-108.64 1024.36,-103.19"/>
<polygon fill="none" stroke="#404040" points="1024.16,-103.18 1018,-106.92 1012.17,-102.67 1018.34,-98.93 1024.16,-103.18"/>
<text text-anchor="middle" x="1638" y="-244" font-family="Helvetica,sans-Serif" font-size="10.00"> &#45;f_buff_</text>
</g>
<!-- Node14 -->
<g id="node14" class="node">
<title>Node14</title>
<g id="a_node14"><a xlink:title=" ">
<polygon fill="white" stroke="#bfbfbf" points="1763.5,-303.5 1763.5,-371.5 1906.5,-371.5 1906.5,-303.5 1763.5,-303.5"/>
<text text-anchor="start" x="1771.5" y="-359.5" font-family="Helvetica,sans-Serif" font-size="10.00">unique_ptr&lt; mkr::shadow</text>
<text text-anchor="middle" x="1835" y="-348.5" font-family="Helvetica,sans-Serif" font-size="10.00">_buffer &gt;</text>
<polyline fill="none" stroke="#bfbfbf" points="1763.5,-341.5 1906.5,-341.5 "/>
<text text-anchor="middle" x="1835" y="-329.5" font-family="Helvetica,sans-Serif" font-size="10.00"> </text>
<polyline fill="none" stroke="#bfbfbf" points="1763.5,-322.5 1906.5,-322.5 "/>
<text text-anchor="middle" x="1835" y="-310.5" font-family="Helvetica,sans-Serif" font-size="10.00"> </text>
</a>
</g>
</g>
<!-- Node14&#45;&gt;Node1 -->
<g id="edge13" class="edge">
<title>Node14&#45;&gt;Node1</title>
<path fill="none" stroke="#404040" d="M1796.93,-303.4C1763.62,-276.3 1712.75,-239.26 1662,-219 1441.92,-131.16 1158.6,-108.97 1024.26,-103.38"/>
<polygon fill="none" stroke="#404040" points="1024.11,-103.37 1017.96,-107.13 1012.12,-102.9 1018.27,-99.14 1024.11,-103.37"/>
<text text-anchor="middle" x="1776" y="-244" font-family="Helvetica,sans-Serif" font-size="10.00"> &#45;s_buff_</text>
</g>
</g>
</svg>
        <g id="navigator" transform="translate(0 0)" fill="#404254">
                <rect fill="#f2f5e9" fill-opacity="0.5" stroke="#606060" stroke-width=".5" x="0" y="0" width="60" height="60"/>
                <use id="zoomplus" xlink:href="#zoomPlus" x="17" y="9" onmousedown="handleZoom(evt,'in')"/>
                <use id="zoomminus" xlink:href="#zoomMin" x="42" y="9" onmousedown="handleZoom(evt,'out')"/>
                <use id="reset" xlink:href="#resetDef" x="30" y="36" onmousedown="handleReset()"/>
                <g id="arrowUp" xlink:href="#dirArrow" transform="translate(30 24)" onmousedown="handlePan(0,-1)">
                  <use xlink:href="#rim" fill="#404040">
                        <set attributeName="fill" to="#808080" begin="arrowUp.mouseover" end="arrowUp.mouseout"/>
                  </use>
                  <path fill="none" stroke="white" stroke-width="1.5" d="M0,-3.0v7 M-2.5,-0.5L0,-3.0L2.5,-0.5"/>
                </g>
                <g id="arrowRight" xlink:href="#dirArrow" transform="rotate(90) translate(36 -43)" onmousedown="handlePan(1,0)">
                  <use xlink:href="#rim" fill="#404040">
                        <set attributeName="fill" to="#808080" begin="arrowRight.mouseover" end="arrowRight.mouseout"/>
                  </use>
                  <path fill="none" stroke="white" stroke-width="1.5" d="M0,-3.0v7 M-2.5,-0.5L0,-3.0L2.5,-0.5"/>
                </g>
                <g id="arrowDown" xlink:href="#dirArrow" transform="rotate(180) translate(-30 -48)" onmousedown="handlePan(0,1)">
                  <use xlink:href="#rim" fill="#404040">
                        <set attributeName="fill" to="#808080" begin="arrowDown.mouseover" end="arrowDown.mouseout"/>
                  </use>
                  <path fill="none" stroke="white" stroke-width="1.5" d="M0,-3.0v7 M-2.5,-0.5L0,-3.0L2.5,-0.5"/>
                </g>
                <g id="arrowLeft" xlink:href="#dirArrow" transform="rotate(270) translate(-36 17)" onmousedown="handlePan(-1,0)">
                  <use xlink:href="#rim" fill="#404040">
                        <set attributeName="fill" to="#808080" begin="arrowLeft.mouseover" end="arrowLeft.mouseout"/>
                  </use>
                  <path fill="none" stroke="white" stroke-width="1.5" d="M0,-3.0v7 M-2.5,-0.5L0,-3.0L2.5,-0.5"/>
                </g>
        </g>
        <svg viewBox="0 0 15 15" width="100%" height="30px" preserveAspectRatio="xMaxYMin meet">
         <g id="arrow_out" transform="scale(0.3 0.3)">
          <a xlink:href="classmkr_1_1graphics__renderer__coll__graph_org.svg" target="_base">
           <rect id="button" ry="5" rx="5" y="6" x="6" height="38" width="38"
                fill="#f2f5e9" fill-opacity="0.5" stroke="#606060" stroke-width="1.0"/>
           <path id="arrow"
             d="M 11.500037,31.436501 C 11.940474,20.09759 22.043105,11.32322 32.158766,21.979434 L 37.068811,17.246167 C 37.068811,17.246167 37.088388,32 37.088388,32 L 22.160133,31.978069 C 22.160133,31.978069 26.997745,27.140456 26.997745,27.140456 C 18.528582,18.264221 13.291696,25.230495 11.500037,31.436501 z"
             style="fill:#404040;"/>
          </a>
         </g>
        </svg>
</svg>
