<?xml version="1.0" encoding="UTF-8" standalone="no"?>
<!DOCTYPE svg PUBLIC "-//W3C//DTD SVG 1.1//EN"
 "http://www.w3.org/Graphics/SVG/1.1/DTD/svg11.dtd">
<!-- Generated by graphviz version 2.43.0 (0)
 -->
<!-- Title: mkr::vao Pages: 1 -->
<svg width="360pt" height="259pt"
 viewBox="0.00 0.00 360.00 259.00" xmlns="http://www.w3.org/2000/svg" xmlns:xlink="http://www.w3.org/1999/xlink">
<g id="graph0" class="graph" transform="scale(1 1) rotate(0) translate(4 255)">
<title>mkr::vao</title>
<polygon fill="white" stroke="transparent" points="-4,4 -4,-255 356,-255 356,4 -4,4"/>
<!-- Node1 -->
<g id="node1" class="node">
<title>Node1</title>
<g id="a_node1"><a xlink:title=" ">
<polygon fill="#bfbfbf" stroke="black" points="182,-0.5 182,-145.5 256,-145.5 256,-0.5 182,-0.5"/>
<text text-anchor="middle" x="219" y="-133.5" font-family="Helvetica,sans-Serif" font-size="10.00">mkr::vao</text>
<polyline fill="none" stroke="black" points="182,-126.5 256,-126.5 "/>
<text text-anchor="middle" x="219" y="-114.5" font-family="Helvetica,sans-Serif" font-size="10.00"> </text>
<polyline fill="none" stroke="black" points="182,-107.5 256,-107.5 "/>
<text text-anchor="start" x="190" y="-95.5" font-family="Helvetica,sans-Serif" font-size="10.00">+ vao()</text>
<text text-anchor="start" x="190" y="-84.5" font-family="Helvetica,sans-Serif" font-size="10.00">+ ~vao()</text>
<text text-anchor="start" x="190" y="-73.5" font-family="Helvetica,sans-Serif" font-size="10.00">+ bind()</text>
<text text-anchor="start" x="190" y="-62.5" font-family="Helvetica,sans-Serif" font-size="10.00">+ get_ebo()</text>
<text text-anchor="start" x="190" y="-51.5" font-family="Helvetica,sans-Serif" font-size="10.00">+ get_ebo()</text>
<text text-anchor="start" x="190" y="-40.5" font-family="Helvetica,sans-Serif" font-size="10.00">+ set_ebo()</text>
<text text-anchor="start" x="190" y="-29.5" font-family="Helvetica,sans-Serif" font-size="10.00">+ get_vbo()</text>
<text text-anchor="start" x="190" y="-18.5" font-family="Helvetica,sans-Serif" font-size="10.00">+ get_vbo()</text>
<text text-anchor="start" x="190" y="-7.5" font-family="Helvetica,sans-Serif" font-size="10.00">+ set_vbo()</text>
</a>
</g>
</g>
<!-- Node2 -->
<g id="node2" class="node">
<title>Node2</title>
<g id="a_node2"><a xlink:title=" ">
<polygon fill="white" stroke="#bfbfbf" points="0,-193.5 0,-250.5 134,-250.5 134,-193.5 0,-193.5"/>
<text text-anchor="middle" x="67" y="-238.5" font-family="Helvetica,sans-Serif" font-size="10.00">shared_ptr&lt; mkr::vbo &gt;</text>
<polyline fill="none" stroke="#bfbfbf" points="0,-231.5 134,-231.5 "/>
<text text-anchor="middle" x="67" y="-219.5" font-family="Helvetica,sans-Serif" font-size="10.00"> </text>
<polyline fill="none" stroke="#bfbfbf" points="0,-212.5 134,-212.5 "/>
<text text-anchor="middle" x="67" y="-200.5" font-family="Helvetica,sans-Serif" font-size="10.00"> </text>
</a>
</g>
</g>
<!-- Node2&#45;&gt;Node1 -->
<g id="edge1" class="edge">
<title>Node2&#45;&gt;Node1</title>
<path fill="none" stroke="#404040" d="M95.59,-193.35C117.44,-172.22 147.99,-142.68 173.23,-118.27"/>
<polygon fill="none" stroke="#404040" points="173.28,-118.21 174.81,-111.17 181.91,-109.87 180.38,-116.92 173.28,-118.21"/>
<text text-anchor="middle" x="142.5" y="-167" font-family="Helvetica,sans-Serif" font-size="10.00"> &#45;vbos_</text>
</g>
<!-- Node3 -->
<g id="node3" class="node">
<title>Node3</title>
<g id="a_node3"><a xlink:title=" ">
<polygon fill="white" stroke="#bfbfbf" points="152,-193.5 152,-250.5 286,-250.5 286,-193.5 152,-193.5"/>
<text text-anchor="middle" x="219" y="-238.5" font-family="Helvetica,sans-Serif" font-size="10.00">shared_ptr&lt; mkr::ebo &gt;</text>
<polyline fill="none" stroke="#bfbfbf" points="152,-231.5 286,-231.5 "/>
<text text-anchor="middle" x="219" y="-219.5" font-family="Helvetica,sans-Serif" font-size="10.00"> </text>
<polyline fill="none" stroke="#bfbfbf" points="152,-212.5 286,-212.5 "/>
<text text-anchor="middle" x="219" y="-200.5" font-family="Helvetica,sans-Serif" font-size="10.00"> </text>
</a>
</g>
</g>
<!-- Node3&#45;&gt;Node1 -->
<g id="edge2" class="edge">
<title>Node3&#45;&gt;Node1</title>
<path fill="none" stroke="#404040" d="M219,-193.35C219,-183.01 219,-170.66 219,-157.89"/>
<polygon fill="none" stroke="#404040" points="219,-157.56 215,-151.56 219,-145.56 223,-151.56 219,-157.56"/>
<text text-anchor="middle" x="234.5" y="-167" font-family="Helvetica,sans-Serif" font-size="10.00"> &#45;ebo_</text>
</g>
<!-- Node4 -->
<g id="node4" class="node">
<title>Node4</title>
<g id="a_node4"><a xlink:title=" ">
<polygon fill="white" stroke="#bfbfbf" points="304,-193.5 304,-250.5 352,-250.5 352,-193.5 304,-193.5"/>
<text text-anchor="middle" x="328" y="-238.5" font-family="Helvetica,sans-Serif" font-size="10.00">GLuint</text>
<polyline fill="none" stroke="#bfbfbf" points="304,-231.5 352,-231.5 "/>
<text text-anchor="middle" x="328" y="-219.5" font-family="Helvetica,sans-Serif" font-size="10.00"> </text>
<polyline fill="none" stroke="#bfbfbf" points="304,-212.5 352,-212.5 "/>
<text text-anchor="middle" x="328" y="-200.5" font-family="Helvetica,sans-Serif" font-size="10.00"> </text>
</a>
</g>
</g>
<!-- Node4&#45;&gt;Node1 -->
<g id="edge3" class="edge">
<title>Node4&#45;&gt;Node1</title>
<path fill="none" stroke="#404040" d="M307.5,-193.35C295.04,-176.55 278.64,-154.43 263.34,-133.8"/>
<polygon fill="none" stroke="#404040" points="263.32,-133.78 256.54,-131.34 256.18,-124.14 262.96,-126.57 263.32,-133.78"/>
<text text-anchor="middle" x="315" y="-167" font-family="Helvetica,sans-Serif" font-size="10.00"> &#45;handle_</text>
</g>
</g>
</svg>
