<?xml version="1.0" encoding="UTF-8" standalone="no"?>
<!DOCTYPE svg PUBLIC "-//W3C//DTD SVG 1.1//EN"
 "http://www.w3.org/Graphics/SVG/1.1/DTD/svg11.dtd">
<!-- Generated by graphviz version 2.43.0 (0)
 -->
<!-- Title: mkr::event_dispatcher Pages: 1 -->
<svg width="182pt" height="204pt"
 viewBox="0.00 0.00 182.00 204.00" xmlns="http://www.w3.org/2000/svg" xmlns:xlink="http://www.w3.org/1999/xlink">
<g id="graph0" class="graph" transform="scale(1 1) rotate(0) translate(4 200)">
<title>mkr::event_dispatcher</title>
<polygon fill="white" stroke="transparent" points="-4,4 -4,-200 178,-200 178,4 -4,4"/>
<!-- Node1 -->
<g id="node1" class="node">
<title>Node1</title>
<g id="a_node1"><a xlink:title="An event_dispatcher is used to dispatch event(s) to event_listener(s) that are subscribed to this dis...">
<polygon fill="#bfbfbf" stroke="black" points="23,-0.5 23,-68.5 151,-68.5 151,-0.5 23,-0.5"/>
<text text-anchor="middle" x="87" y="-56.5" font-family="Helvetica,sans-Serif" font-size="10.00">mkr::event_dispatcher</text>
<polyline fill="none" stroke="black" points="23,-49.5 151,-49.5 "/>
<text text-anchor="middle" x="87" y="-37.5" font-family="Helvetica,sans-Serif" font-size="10.00"> </text>
<polyline fill="none" stroke="black" points="23,-30.5 151,-30.5 "/>
<text text-anchor="start" x="31" y="-18.5" font-family="Helvetica,sans-Serif" font-size="10.00">+ event_dispatcher()</text>
<text text-anchor="start" x="31" y="-7.5" font-family="Helvetica,sans-Serif" font-size="10.00">+ ~event_dispatcher()</text>
</a>
</g>
</g>
<!-- Node2 -->
<g id="node2" class="node">
<title>Node2</title>
<g id="a_node2"><a xlink:title=" ">
<polygon fill="white" stroke="#bfbfbf" points="0,-116.5 0,-195.5 174,-195.5 174,-116.5 0,-116.5"/>
<text text-anchor="start" x="8" y="-183.5" font-family="Helvetica,sans-Serif" font-size="10.00">unordered_map&lt; event</text>
<text text-anchor="start" x="8" y="-172.5" font-family="Helvetica,sans-Serif" font-size="10.00">_id_t, std::unordered</text>
<text text-anchor="middle" x="87" y="-161.5" font-family="Helvetica,sans-Serif" font-size="10.00">_set&lt; mkr::event_listener * &gt; &gt;</text>
<polyline fill="none" stroke="#bfbfbf" points="0,-154.5 174,-154.5 "/>
<text text-anchor="middle" x="87" y="-142.5" font-family="Helvetica,sans-Serif" font-size="10.00"> </text>
<polyline fill="none" stroke="#bfbfbf" points="0,-135.5 174,-135.5 "/>
<text text-anchor="middle" x="87" y="-123.5" font-family="Helvetica,sans-Serif" font-size="10.00"> </text>
</a>
</g>
</g>
<!-- Node2&#45;&gt;Node1 -->
<g id="edge1" class="edge">
<title>Node2&#45;&gt;Node1</title>
<path fill="none" stroke="#404040" d="M87,-116.2C87,-104.99 87,-92.65 87,-81.07"/>
<polygon fill="none" stroke="#404040" points="87,-80.89 83,-74.89 87,-68.89 91,-74.89 87,-80.89"/>
<text text-anchor="middle" x="114.5" y="-90" font-family="Helvetica,sans-Serif" font-size="10.00"> &#45;listeners_</text>
</g>
</g>
</svg>
