<?xml version="1.0" encoding="UTF-8" standalone="no"?>
<!DOCTYPE svg PUBLIC "-//W3C//DTD SVG 1.1//EN"
 "http://www.w3.org/Graphics/SVG/1.1/DTD/svg11.dtd">
<!-- Generated by graphviz version 2.43.0 (0)
 -->
<!-- Title: mkr::framebuffer Pages: 1 -->
<svg width="715pt" height="391pt"
 viewBox="0.00 0.00 715.00 391.00" xmlns="http://www.w3.org/2000/svg" xmlns:xlink="http://www.w3.org/1999/xlink">
<g id="graph0" class="graph" transform="scale(1 1) rotate(0) translate(4 387)">
<title>mkr::framebuffer</title>
<polygon fill="white" stroke="transparent" points="-4,4 -4,-387 711,-387 711,4 -4,4"/>
<!-- Node1 -->
<g id="node1" class="node">
<title>Node1</title>
<g id="a_node1"><a xlink:title=" ">
<polygon fill="#bfbfbf" stroke="black" points="283,-138.5 283,-382.5 466,-382.5 466,-138.5 283,-138.5"/>
<text text-anchor="middle" x="374.5" y="-370.5" font-family="Helvetica,sans-Serif" font-size="10.00">mkr::framebuffer</text>
<polyline fill="none" stroke="black" points="283,-363.5 466,-363.5 "/>
<text text-anchor="start" x="291" y="-351.5" font-family="Helvetica,sans-Serif" font-size="10.00"># colour_attachments_</text>
<text text-anchor="start" x="291" y="-340.5" font-family="Helvetica,sans-Serif" font-size="10.00"># depth_stencil_attachment_</text>
<text text-anchor="start" x="291" y="-329.5" font-family="Helvetica,sans-Serif" font-size="10.00"># handle_</text>
<polyline fill="none" stroke="black" points="283,-322.5 466,-322.5 "/>
<text text-anchor="start" x="291" y="-310.5" font-family="Helvetica,sans-Serif" font-size="10.00">+ ~framebuffer()</text>
<text text-anchor="start" x="291" y="-299.5" font-family="Helvetica,sans-Serif" font-size="10.00">+ is_complete()</text>
<text text-anchor="start" x="291" y="-288.5" font-family="Helvetica,sans-Serif" font-size="10.00">+ get_colour_attachment()</text>
<text text-anchor="start" x="291" y="-277.5" font-family="Helvetica,sans-Serif" font-size="10.00">+ get_colour_attachment()</text>
<text text-anchor="start" x="291" y="-266.5" font-family="Helvetica,sans-Serif" font-size="10.00">+ get_depth_stencil_attachment()</text>
<text text-anchor="start" x="291" y="-255.5" font-family="Helvetica,sans-Serif" font-size="10.00">+ get_depth_stencil_attachment()</text>
<text text-anchor="start" x="291" y="-244.5" font-family="Helvetica,sans-Serif" font-size="10.00">+ bind()</text>
<text text-anchor="start" x="291" y="-233.5" font-family="Helvetica,sans-Serif" font-size="10.00">+ blit_to()</text>
<text text-anchor="start" x="291" y="-222.5" font-family="Helvetica,sans-Serif" font-size="10.00">+ set_read_colour_attachment()</text>
<text text-anchor="start" x="291" y="-211.5" font-family="Helvetica,sans-Serif" font-size="10.00">+ set_draw_colour_attachment()</text>
<text text-anchor="start" x="291" y="-200.5" font-family="Helvetica,sans-Serif" font-size="10.00">+ set_draw_colour_attachment</text>
<text text-anchor="start" x="291" y="-189.5" font-family="Helvetica,sans-Serif" font-size="10.00">_all()</text>
<text text-anchor="start" x="291" y="-178.5" font-family="Helvetica,sans-Serif" font-size="10.00">+ clear_colour()</text>
<text text-anchor="start" x="291" y="-167.5" font-family="Helvetica,sans-Serif" font-size="10.00">+ clear_colour_all()</text>
<text text-anchor="start" x="291" y="-156.5" font-family="Helvetica,sans-Serif" font-size="10.00">+ clear_depth_stencil()</text>
<text text-anchor="start" x="291" y="-145.5" font-family="Helvetica,sans-Serif" font-size="10.00"># framebuffer()</text>
</a>
</g>
</g>
<!-- Node2 -->
<g id="node2" class="node">
<title>Node2</title>
<g id="a_node2"><a xlink:href="classmkr_1_1dbuffer.html" target="_top" xlink:title=" ">
<polygon fill="white" stroke="black" points="0,-0.5 0,-101.5 169,-101.5 169,-0.5 0,-0.5"/>
<text text-anchor="middle" x="84.5" y="-89.5" font-family="Helvetica,sans-Serif" font-size="10.00">mkr::dbuffer</text>
<polyline fill="none" stroke="black" points="0,-82.5 169,-82.5 "/>
<text text-anchor="middle" x="84.5" y="-70.5" font-family="Helvetica,sans-Serif" font-size="10.00"> </text>
<polyline fill="none" stroke="black" points="0,-63.5 169,-63.5 "/>
<text text-anchor="start" x="8" y="-51.5" font-family="Helvetica,sans-Serif" font-size="10.00">+ dbuffer()</text>
<text text-anchor="start" x="8" y="-40.5" font-family="Helvetica,sans-Serif" font-size="10.00">+ ~dbuffer()</text>
<text text-anchor="start" x="8" y="-29.5" font-family="Helvetica,sans-Serif" font-size="10.00">+ set_draw_colour_attachment</text>
<text text-anchor="start" x="8" y="-18.5" font-family="Helvetica,sans-Serif" font-size="10.00">_all()</text>
<text text-anchor="start" x="8" y="-7.5" font-family="Helvetica,sans-Serif" font-size="10.00">+ clear_colour_all()</text>
</a>
</g>
</g>
<!-- Node1&#45;&gt;Node2 -->
<g id="edge1" class="edge">
<title>Node1&#45;&gt;Node2</title>
<path fill="none" stroke="midnightblue" d="M274.36,-187.85C234.7,-159.47 190.07,-127.54 154.05,-101.77"/>
<polygon fill="none" stroke="midnightblue" points="272.57,-190.87 282.74,-193.85 276.65,-185.18 272.57,-190.87"/>
</g>
<!-- Node3 -->
<g id="node3" class="node">
<title>Node3</title>
<g id="a_node3"><a xlink:href="classmkr_1_1fbuffer.html" target="_top" xlink:title=" ">
<polygon fill="white" stroke="black" points="187.5,-17 187.5,-85 263.5,-85 263.5,-17 187.5,-17"/>
<text text-anchor="middle" x="225.5" y="-73" font-family="Helvetica,sans-Serif" font-size="10.00">mkr::fbuffer</text>
<polyline fill="none" stroke="black" points="187.5,-66 263.5,-66 "/>
<text text-anchor="middle" x="225.5" y="-54" font-family="Helvetica,sans-Serif" font-size="10.00"> </text>
<polyline fill="none" stroke="black" points="187.5,-47 263.5,-47 "/>
<text text-anchor="start" x="195.5" y="-35" font-family="Helvetica,sans-Serif" font-size="10.00">+ fbuffer()</text>
<text text-anchor="start" x="195.5" y="-24" font-family="Helvetica,sans-Serif" font-size="10.00">+ ~fbuffer()</text>
</a>
</g>
</g>
<!-- Node1&#45;&gt;Node3 -->
<g id="edge2" class="edge">
<title>Node1&#45;&gt;Node3</title>
<path fill="none" stroke="midnightblue" d="M281.73,-130.3C269.83,-113.74 258.61,-98.1 249.36,-85.22"/>
<polygon fill="none" stroke="midnightblue" points="278.93,-132.41 287.61,-138.5 284.62,-128.33 278.93,-132.41"/>
</g>
<!-- Node4 -->
<g id="node4" class="node">
<title>Node4</title>
<g id="a_node4"><a xlink:href="classmkr_1_1gbuffer.html" target="_top" xlink:title=" ">
<polygon fill="white" stroke="black" points="281.5,-17 281.5,-85 359.5,-85 359.5,-17 281.5,-17"/>
<text text-anchor="middle" x="320.5" y="-73" font-family="Helvetica,sans-Serif" font-size="10.00">mkr::gbuffer</text>
<polyline fill="none" stroke="black" points="281.5,-66 359.5,-66 "/>
<text text-anchor="middle" x="320.5" y="-54" font-family="Helvetica,sans-Serif" font-size="10.00"> </text>
<polyline fill="none" stroke="black" points="281.5,-47 359.5,-47 "/>
<text text-anchor="start" x="289.5" y="-35" font-family="Helvetica,sans-Serif" font-size="10.00">+ gbuffer()</text>
<text text-anchor="start" x="289.5" y="-24" font-family="Helvetica,sans-Serif" font-size="10.00">+ ~gbuffer()</text>
</a>
</g>
</g>
<!-- Node1&#45;&gt;Node4 -->
<g id="edge3" class="edge">
<title>Node1&#45;&gt;Node4</title>
<path fill="none" stroke="midnightblue" d="M340.41,-128.5C336.27,-112.61 332.38,-97.64 329.15,-85.22"/>
<polygon fill="none" stroke="midnightblue" points="337.1,-129.7 343.01,-138.5 343.88,-127.94 337.1,-129.7"/>
</g>
<!-- Node5 -->
<g id="node5" class="node">
<title>Node5</title>
<g id="a_node5"><a xlink:href="classmkr_1_1lbuffer.html" target="_top" xlink:title=" ">
<polygon fill="white" stroke="black" points="378,-6 378,-96 481,-96 481,-6 378,-6"/>
<text text-anchor="middle" x="429.5" y="-84" font-family="Helvetica,sans-Serif" font-size="10.00">mkr::lbuffer</text>
<polyline fill="none" stroke="black" points="378,-77 481,-77 "/>
<text text-anchor="start" x="386" y="-65" font-family="Helvetica,sans-Serif" font-size="10.00"># diffuse_back_</text>
<text text-anchor="start" x="386" y="-54" font-family="Helvetica,sans-Serif" font-size="10.00"># specular_back_</text>
<polyline fill="none" stroke="black" points="378,-47 481,-47 "/>
<text text-anchor="start" x="386" y="-35" font-family="Helvetica,sans-Serif" font-size="10.00">+ lbuffer()</text>
<text text-anchor="start" x="386" y="-24" font-family="Helvetica,sans-Serif" font-size="10.00">+ ~lbuffer()</text>
<text text-anchor="start" x="386" y="-13" font-family="Helvetica,sans-Serif" font-size="10.00">+ swap_buffers()</text>
</a>
</g>
</g>
<!-- Node1&#45;&gt;Node5 -->
<g id="edge4" class="edge">
<title>Node1&#45;&gt;Node5</title>
<path fill="none" stroke="midnightblue" d="M409.15,-128.78C412.19,-117.32 415.1,-106.34 417.72,-96.44"/>
<polygon fill="none" stroke="midnightblue" points="405.75,-127.93 406.57,-138.5 412.52,-129.73 405.75,-127.93"/>
</g>
<!-- Node6 -->
<g id="node6" class="node">
<title>Node6</title>
<g id="a_node6"><a xlink:href="classmkr_1_1pbuffer.html" target="_top" xlink:title=" ">
<polygon fill="white" stroke="black" points="499,-11.5 499,-90.5 612,-90.5 612,-11.5 499,-11.5"/>
<text text-anchor="middle" x="555.5" y="-78.5" font-family="Helvetica,sans-Serif" font-size="10.00">mkr::pbuffer</text>
<polyline fill="none" stroke="black" points="499,-71.5 612,-71.5 "/>
<text text-anchor="start" x="507" y="-59.5" font-family="Helvetica,sans-Serif" font-size="10.00"># composite_back_</text>
<polyline fill="none" stroke="black" points="499,-52.5 612,-52.5 "/>
<text text-anchor="start" x="507" y="-40.5" font-family="Helvetica,sans-Serif" font-size="10.00">+ pbuffer()</text>
<text text-anchor="start" x="507" y="-29.5" font-family="Helvetica,sans-Serif" font-size="10.00">+ ~pbuffer()</text>
<text text-anchor="start" x="507" y="-18.5" font-family="Helvetica,sans-Serif" font-size="10.00">+ swap_buffers()</text>
</a>
</g>
</g>
<!-- Node1&#45;&gt;Node6 -->
<g id="edge5" class="edge">
<title>Node1&#45;&gt;Node6</title>
<path fill="none" stroke="midnightblue" d="M472.79,-146.82C490.3,-126.74 507.42,-107.11 521.51,-90.97"/>
<polygon fill="none" stroke="midnightblue" points="470,-144.7 466.06,-154.53 475.27,-149.3 470,-144.7"/>
</g>
<!-- Node7 -->
<g id="node7" class="node">
<title>Node7</title>
<g id="a_node7"><a xlink:href="classmkr_1_1sbuffer.html" target="_top" xlink:title=" ">
<polygon fill="white" stroke="black" points="630,-17 630,-85 707,-85 707,-17 630,-17"/>
<text text-anchor="middle" x="668.5" y="-73" font-family="Helvetica,sans-Serif" font-size="10.00">mkr::sbuffer</text>
<polyline fill="none" stroke="black" points="630,-66 707,-66 "/>
<text text-anchor="middle" x="668.5" y="-54" font-family="Helvetica,sans-Serif" font-size="10.00"> </text>
<polyline fill="none" stroke="black" points="630,-47 707,-47 "/>
<text text-anchor="start" x="638" y="-35" font-family="Helvetica,sans-Serif" font-size="10.00">+ sbuffer()</text>
<text text-anchor="start" x="638" y="-24" font-family="Helvetica,sans-Serif" font-size="10.00">+ ~sbuffer()</text>
</a>
</g>
</g>
<!-- Node1&#45;&gt;Node7 -->
<g id="edge6" class="edge">
<title>Node1&#45;&gt;Node7</title>
<path fill="none" stroke="midnightblue" d="M475.1,-203.16C521.53,-175.23 576.25,-139.5 621.5,-102 627.65,-96.91 633.79,-91.05 639.52,-85.19"/>
<polygon fill="none" stroke="midnightblue" points="473.02,-200.32 466.23,-208.46 476.61,-206.33 473.02,-200.32"/>
</g>
</g>
</svg>
