<?xml version="1.0" encoding="UTF-8" standalone="no"?>
<!DOCTYPE svg PUBLIC "-//W3C//DTD SVG 1.1//EN"
 "http://www.w3.org/Graphics/SVG/1.1/DTD/svg11.dtd">
<!-- Generated by graphviz version 2.43.0 (0)
 -->
<!-- Title: mkr::default_buffer Pages: 1 -->
<svg width="439pt" height="486pt"
 viewBox="0.00 0.00 438.50 486.00" xmlns="http://www.w3.org/2000/svg" xmlns:xlink="http://www.w3.org/1999/xlink">
<g id="graph0" class="graph" transform="scale(1 1) rotate(0) translate(4 482)">
<title>mkr::default_buffer</title>
<polygon fill="white" stroke="transparent" points="-4,4 -4,-482 434.5,-482 434.5,4 -4,4"/>
<!-- Node1 -->
<g id="node1" class="node">
<title>Node1</title>
<g id="a_node1"><a xlink:title=" ">
<polygon fill="#bfbfbf" stroke="black" points="176,-0.5 176,-101.5 345,-101.5 345,-0.5 176,-0.5"/>
<text text-anchor="middle" x="260.5" y="-89.5" font-family="Helvetica,sans-Serif" font-size="10.00">mkr::default_buffer</text>
<polyline fill="none" stroke="black" points="176,-82.5 345,-82.5 "/>
<text text-anchor="middle" x="260.5" y="-70.5" font-family="Helvetica,sans-Serif" font-size="10.00"> </text>
<polyline fill="none" stroke="black" points="176,-63.5 345,-63.5 "/>
<text text-anchor="start" x="184" y="-51.5" font-family="Helvetica,sans-Serif" font-size="10.00">+ default_buffer()</text>
<text text-anchor="start" x="184" y="-40.5" font-family="Helvetica,sans-Serif" font-size="10.00">+ ~default_buffer()</text>
<text text-anchor="start" x="184" y="-29.5" font-family="Helvetica,sans-Serif" font-size="10.00">+ set_draw_colour_attachment</text>
<text text-anchor="start" x="184" y="-18.5" font-family="Helvetica,sans-Serif" font-size="10.00">_all()</text>
<text text-anchor="start" x="184" y="-7.5" font-family="Helvetica,sans-Serif" font-size="10.00">+ clear_colour_all()</text>
</a>
</g>
</g>
<!-- Node2 -->
<g id="node2" class="node">
<title>Node2</title>
<g id="a_node2"><a xlink:href="classmkr_1_1framebuffer.html" target="_top" xlink:title=" ">
<polygon fill="white" stroke="black" points="169,-139.5 169,-361.5 352,-361.5 352,-139.5 169,-139.5"/>
<text text-anchor="middle" x="260.5" y="-349.5" font-family="Helvetica,sans-Serif" font-size="10.00">mkr::framebuffer</text>
<polyline fill="none" stroke="black" points="169,-342.5 352,-342.5 "/>
<text text-anchor="middle" x="260.5" y="-330.5" font-family="Helvetica,sans-Serif" font-size="10.00"> </text>
<polyline fill="none" stroke="black" points="169,-323.5 352,-323.5 "/>
<text text-anchor="start" x="177" y="-311.5" font-family="Helvetica,sans-Serif" font-size="10.00">+ ~framebuffer()</text>
<text text-anchor="start" x="177" y="-300.5" font-family="Helvetica,sans-Serif" font-size="10.00">+ is_complete()</text>
<text text-anchor="start" x="177" y="-289.5" font-family="Helvetica,sans-Serif" font-size="10.00">+ get_colour_attachment()</text>
<text text-anchor="start" x="177" y="-278.5" font-family="Helvetica,sans-Serif" font-size="10.00">+ get_colour_attachment()</text>
<text text-anchor="start" x="177" y="-267.5" font-family="Helvetica,sans-Serif" font-size="10.00">+ get_depth_stencil_attachment()</text>
<text text-anchor="start" x="177" y="-256.5" font-family="Helvetica,sans-Serif" font-size="10.00">+ get_depth_stencil_attachment()</text>
<text text-anchor="start" x="177" y="-245.5" font-family="Helvetica,sans-Serif" font-size="10.00">+ bind()</text>
<text text-anchor="start" x="177" y="-234.5" font-family="Helvetica,sans-Serif" font-size="10.00">+ blit_to()</text>
<text text-anchor="start" x="177" y="-223.5" font-family="Helvetica,sans-Serif" font-size="10.00">+ set_read_colour_attachment()</text>
<text text-anchor="start" x="177" y="-212.5" font-family="Helvetica,sans-Serif" font-size="10.00">+ set_draw_colour_attachment()</text>
<text text-anchor="start" x="177" y="-201.5" font-family="Helvetica,sans-Serif" font-size="10.00">+ set_draw_colour_attachment</text>
<text text-anchor="start" x="177" y="-190.5" font-family="Helvetica,sans-Serif" font-size="10.00">_all()</text>
<text text-anchor="start" x="177" y="-179.5" font-family="Helvetica,sans-Serif" font-size="10.00">+ clear_colour()</text>
<text text-anchor="start" x="177" y="-168.5" font-family="Helvetica,sans-Serif" font-size="10.00">+ clear_colour_all()</text>
<text text-anchor="start" x="177" y="-157.5" font-family="Helvetica,sans-Serif" font-size="10.00">+ clear_depth_stencil()</text>
<text text-anchor="start" x="177" y="-146.5" font-family="Helvetica,sans-Serif" font-size="10.00"># framebuffer()</text>
</a>
</g>
</g>
<!-- Node2&#45;&gt;Node1 -->
<g id="edge1" class="edge">
<title>Node2&#45;&gt;Node1</title>
<path fill="none" stroke="midnightblue" d="M260.5,-129.42C260.5,-119.84 260.5,-110.54 260.5,-101.91"/>
<polygon fill="none" stroke="midnightblue" points="257,-129.49 260.5,-139.49 264,-129.49 257,-129.49"/>
</g>
<!-- Node3 -->
<g id="node3" class="node">
<title>Node3</title>
<g id="a_node3"><a xlink:title=" ">
<polygon fill="white" stroke="#bfbfbf" points="0,-415 0,-472 169,-472 169,-415 0,-415"/>
<text text-anchor="middle" x="84.5" y="-460" font-family="Helvetica,sans-Serif" font-size="10.00">unique_ptr&lt; mkr::texture_2d &gt;</text>
<polyline fill="none" stroke="#bfbfbf" points="0,-453 169,-453 "/>
<text text-anchor="middle" x="84.5" y="-441" font-family="Helvetica,sans-Serif" font-size="10.00"> </text>
<polyline fill="none" stroke="#bfbfbf" points="0,-434 169,-434 "/>
<text text-anchor="middle" x="84.5" y="-422" font-family="Helvetica,sans-Serif" font-size="10.00"> </text>
</a>
</g>
</g>
<!-- Node3&#45;&gt;Node2 -->
<g id="edge2" class="edge">
<title>Node3&#45;&gt;Node2</title>
<path fill="none" stroke="#404040" d="M93.83,-414.95C98.44,-403.52 104.71,-390.5 112.5,-380 126.06,-361.73 142.63,-344.25 159.71,-328.37"/>
<polygon fill="none" stroke="#404040" points="159.79,-328.3 161.54,-321.3 168.67,-320.23 166.92,-327.22 159.79,-328.3"/>
<text text-anchor="middle" x="184.5" y="-383" font-family="Helvetica,sans-Serif" font-size="10.00"> #depth_stencil_attachment_</text>
</g>
<!-- Node4 -->
<g id="node4" class="node">
<title>Node4</title>
<g id="a_node4"><a xlink:title=" ">
<polygon fill="white" stroke="#bfbfbf" points="187,-409.5 187,-477.5 334,-477.5 334,-409.5 187,-409.5"/>
<text text-anchor="start" x="195" y="-465.5" font-family="Helvetica,sans-Serif" font-size="10.00">vector&lt; std::unique</text>
<text text-anchor="middle" x="260.5" y="-454.5" font-family="Helvetica,sans-Serif" font-size="10.00">_ptr&lt; mkr::texture_2d &gt; &gt;</text>
<polyline fill="none" stroke="#bfbfbf" points="187,-447.5 334,-447.5 "/>
<text text-anchor="middle" x="260.5" y="-435.5" font-family="Helvetica,sans-Serif" font-size="10.00"> </text>
<polyline fill="none" stroke="#bfbfbf" points="187,-428.5 334,-428.5 "/>
<text text-anchor="middle" x="260.5" y="-416.5" font-family="Helvetica,sans-Serif" font-size="10.00"> </text>
</a>
</g>
</g>
<!-- Node4&#45;&gt;Node2 -->
<g id="edge3" class="edge">
<title>Node4&#45;&gt;Node2</title>
<path fill="none" stroke="#404040" d="M260.5,-409.23C260.5,-398.94 260.5,-386.95 260.5,-374.26"/>
<polygon fill="none" stroke="#404040" points="260.5,-373.91 256.5,-367.91 260.5,-361.91 264.5,-367.91 260.5,-373.91"/>
<text text-anchor="middle" x="317.5" y="-383" font-family="Helvetica,sans-Serif" font-size="10.00"> #colour_attachments_</text>
</g>
<!-- Node5 -->
<g id="node5" class="node">
<title>Node5</title>
<g id="a_node5"><a xlink:title=" ">
<polygon fill="white" stroke="#bfbfbf" points="373.5,-415 373.5,-472 421.5,-472 421.5,-415 373.5,-415"/>
<text text-anchor="middle" x="397.5" y="-460" font-family="Helvetica,sans-Serif" font-size="10.00">GLuint</text>
<polyline fill="none" stroke="#bfbfbf" points="373.5,-453 421.5,-453 "/>
<text text-anchor="middle" x="397.5" y="-441" font-family="Helvetica,sans-Serif" font-size="10.00"> </text>
<polyline fill="none" stroke="#bfbfbf" points="373.5,-434 421.5,-434 "/>
<text text-anchor="middle" x="397.5" y="-422" font-family="Helvetica,sans-Serif" font-size="10.00"> </text>
</a>
</g>
</g>
<!-- Node5&#45;&gt;Node2 -->
<g id="edge4" class="edge">
<title>Node5&#45;&gt;Node2</title>
<path fill="none" stroke="#404040" d="M390.29,-414.71C386.73,-403.49 381.83,-390.69 375.5,-380 370.62,-371.76 365.17,-363.57 359.36,-355.55"/>
<polygon fill="none" stroke="#404040" points="359.3,-355.46 352.5,-353.05 352.11,-345.85 358.91,-348.26 359.3,-355.46"/>
<text text-anchor="middle" x="405.5" y="-383" font-family="Helvetica,sans-Serif" font-size="10.00"> #handle_</text>
</g>
</g>
</svg>
