<?xml version="1.0" encoding="UTF-8" standalone="no"?>
<!DOCTYPE svg PUBLIC "-//W3C//DTD SVG 1.1//EN"
 "http://www.w3.org/Graphics/SVG/1.1/DTD/svg11.dtd">
<!-- Generated by graphviz version 2.43.0 (0)
 -->
<!-- Title: mkr::light Pages: 1 -->
<!--zoomable 556 -->
<svg id="main" version="1.1" xmlns="http://www.w3.org/2000/svg" xmlns:xlink="http://www.w3.org/1999/xlink" xml:space="preserve" onload="init(evt)">
<style type="text/css"><![CDATA[
.edge:hover path { stroke: red; }
.edge:hover polygon { stroke: red; fill: red; }
]]></style>
<script type="text/javascript"><![CDATA[
var edges = document.getElementsByTagName('g');
if (edges && edges.length) {
  for (var i=0;i<edges.length;i++) {
    if (edges[i].id.substr(0,4)=='edge') {
      edges[i].setAttribute('class','edge');
    }
  }
}
]]></script>
        <defs>
                <circle id="rim" cx="0" cy="0" r="7"/>
                <circle id="rim2" cx="0" cy="0" r="3.5"/>
                <g id="zoomPlus">
                        <use xlink:href="#rim" fill="#404040">
                                <set attributeName="fill" to="#808080" begin="zoomplus.mouseover" end="zoomplus.mouseout"/>
                        </use>
                        <path d="M-4,0h8M0,-4v8" fill="none" stroke="white" stroke-width="1.5" pointer-events="none"/>
                </g>
                <g id="zoomMin">
                        <use xlink:href="#rim" fill="#404040">
                                <set attributeName="fill" to="#808080" begin="zoomminus.mouseover" end="zoomminus.mouseout"/>
                        </use>
                        <path d="M-4,0h8" fill="none" stroke="white" stroke-width="1.5" pointer-events="none"/>
                </g>
                <g id="dirArrow">
                        <path fill="none" stroke="white" stroke-width="1.5" d="M0,-3.0v7 M-2.5,-0.5L0,-3.0L2.5,-0.5"/>
                </g>
               <g id="resetDef">
                       <use xlink:href="#rim2" fill="#404040">
                               <set attributeName="fill" to="#808080" begin="reset.mouseover" end="reset.mouseout"/>
                       </use>
               </g>
        </defs>

<script type="text/javascript">
var viewWidth = 275;
var viewHeight = 556;
var sectionId = 'dynsection-0';
</script>
<script xlink:href="svgpan.js"/>
<svg id="graph" class="graph">
<g id="viewport">
<title>mkr::light</title>
<polygon fill="white" stroke="transparent" points="-4,4 -4,-552 270.5,-552 270.5,4 -4,4"/>
<!-- Node1 -->
<g id="node1" class="node">
<title>Node1</title>
<g id="a_node1"><a xlink:title=" ">
<polygon fill="#bfbfbf" stroke="black" points="72,-0.5 72,-332.5 236,-332.5 236,-0.5 72,-0.5"/>
<text text-anchor="middle" x="154" y="-320.5" font-family="Helvetica,sans-Serif" font-size="10.00">mkr::light</text>
<polyline fill="none" stroke="black" points="72,-313.5 236,-313.5 "/>
<text text-anchor="middle" x="154" y="-301.5" font-family="Helvetica,sans-Serif" font-size="10.00"> </text>
<polyline fill="none" stroke="black" points="72,-294.5 236,-294.5 "/>
<text text-anchor="start" x="80" y="-282.5" font-family="Helvetica,sans-Serif" font-size="10.00">+ light()</text>
<text text-anchor="start" x="80" y="-271.5" font-family="Helvetica,sans-Serif" font-size="10.00">+ ~light()</text>
<text text-anchor="start" x="80" y="-260.5" font-family="Helvetica,sans-Serif" font-size="10.00">+ get_mode()</text>
<text text-anchor="start" x="80" y="-249.5" font-family="Helvetica,sans-Serif" font-size="10.00">+ set_mode()</text>
<text text-anchor="start" x="80" y="-238.5" font-family="Helvetica,sans-Serif" font-size="10.00">+ get_power()</text>
<text text-anchor="start" x="80" y="-227.5" font-family="Helvetica,sans-Serif" font-size="10.00">+ set_power()</text>
<text text-anchor="start" x="80" y="-216.5" font-family="Helvetica,sans-Serif" font-size="10.00">+ set_colour()</text>
<text text-anchor="start" x="80" y="-205.5" font-family="Helvetica,sans-Serif" font-size="10.00">+ get_colour()</text>
<text text-anchor="start" x="80" y="-194.5" font-family="Helvetica,sans-Serif" font-size="10.00">+ get_attenuation_constant()</text>
<text text-anchor="start" x="80" y="-183.5" font-family="Helvetica,sans-Serif" font-size="10.00">+ set_attenuation_constant()</text>
<text text-anchor="start" x="80" y="-172.5" font-family="Helvetica,sans-Serif" font-size="10.00">+ get_attenuation_linear()</text>
<text text-anchor="start" x="80" y="-161.5" font-family="Helvetica,sans-Serif" font-size="10.00">+ set_attenuation_linear()</text>
<text text-anchor="start" x="80" y="-150.5" font-family="Helvetica,sans-Serif" font-size="10.00">+ get_attenuation_quadratic()</text>
<text text-anchor="start" x="80" y="-139.5" font-family="Helvetica,sans-Serif" font-size="10.00">+ set_attenuation_quadratic()</text>
<text text-anchor="start" x="80" y="-128.5" font-family="Helvetica,sans-Serif" font-size="10.00">+ get_spotlight_inner</text>
<text text-anchor="start" x="80" y="-117.5" font-family="Helvetica,sans-Serif" font-size="10.00">_consine()</text>
<text text-anchor="start" x="80" y="-106.5" font-family="Helvetica,sans-Serif" font-size="10.00">+ get_spotlight_inner</text>
<text text-anchor="start" x="80" y="-95.5" font-family="Helvetica,sans-Serif" font-size="10.00">_angle()</text>
<text text-anchor="start" x="80" y="-84.5" font-family="Helvetica,sans-Serif" font-size="10.00">+ set_spotlight_inner</text>
<text text-anchor="start" x="80" y="-73.5" font-family="Helvetica,sans-Serif" font-size="10.00">_angle()</text>
<text text-anchor="start" x="80" y="-62.5" font-family="Helvetica,sans-Serif" font-size="10.00">+ get_spotlight_outer</text>
<text text-anchor="start" x="80" y="-51.5" font-family="Helvetica,sans-Serif" font-size="10.00">_consine()</text>
<text text-anchor="start" x="80" y="-40.5" font-family="Helvetica,sans-Serif" font-size="10.00">+ get_spotlight_outer</text>
<text text-anchor="start" x="80" y="-29.5" font-family="Helvetica,sans-Serif" font-size="10.00">_angle()</text>
<text text-anchor="start" x="80" y="-18.5" font-family="Helvetica,sans-Serif" font-size="10.00">+ set_spotlight_outer</text>
<text text-anchor="start" x="80" y="-7.5" font-family="Helvetica,sans-Serif" font-size="10.00">_angle()</text>
</a>
</g>
</g>
<!-- Node2 -->
<g id="node2" class="node">
<title>Node2</title>
<g id="a_node2"><a xlink:title=" ">
<polygon fill="white" stroke="#bfbfbf" points="0,-490.5 0,-547.5 38,-547.5 38,-490.5 0,-490.5"/>
<text text-anchor="middle" x="19" y="-535.5" font-family="Helvetica,sans-Serif" font-size="10.00">float</text>
<polyline fill="none" stroke="#bfbfbf" points="0,-528.5 38,-528.5 "/>
<text text-anchor="middle" x="19" y="-516.5" font-family="Helvetica,sans-Serif" font-size="10.00"> </text>
<polyline fill="none" stroke="#bfbfbf" points="0,-509.5 38,-509.5 "/>
<text text-anchor="middle" x="19" y="-497.5" font-family="Helvetica,sans-Serif" font-size="10.00"> </text>
</a>
</g>
</g>
<!-- Node2&#45;&gt;Node1 -->
<g id="edge1" class="edge">
<title>Node2&#45;&gt;Node1</title>
<path fill="none" stroke="#404040" d="M18.41,-490.26C18.54,-456.42 21.48,-397.93 38,-351 45.21,-330.51 55.06,-309.94 65.99,-290.37"/>
<polygon fill="none" stroke="#404040" points="66.01,-290.34 65.52,-283.14 71.98,-279.92 72.46,-287.12 66.01,-290.34"/>
<text text-anchor="start" x="38" y="-464" font-family="Helvetica,sans-Serif" font-size="10.00"> &#45;attenuation_constant</text>
<text text-anchor="middle" x="94" y="-453" font-family="Helvetica,sans-Serif" font-size="10.00">_</text>
<text text-anchor="start" x="38" y="-442" font-family="Helvetica,sans-Serif" font-size="10.00">&#45;attenuation_linear</text>
<text text-anchor="middle" x="94" y="-431" font-family="Helvetica,sans-Serif" font-size="10.00">_</text>
<text text-anchor="start" x="38" y="-420" font-family="Helvetica,sans-Serif" font-size="10.00">&#45;attenuation_quadratic</text>
<text text-anchor="middle" x="94" y="-409" font-family="Helvetica,sans-Serif" font-size="10.00">_</text>
<text text-anchor="middle" x="94" y="-398" font-family="Helvetica,sans-Serif" font-size="10.00">&#45;power_</text>
<text text-anchor="start" x="38" y="-387" font-family="Helvetica,sans-Serif" font-size="10.00">&#45;spotlight_inner</text>
<text text-anchor="middle" x="94" y="-376" font-family="Helvetica,sans-Serif" font-size="10.00">_angle_</text>
<text text-anchor="start" x="38" y="-365" font-family="Helvetica,sans-Serif" font-size="10.00">&#45;spotlight_outer</text>
<text text-anchor="middle" x="94" y="-354" font-family="Helvetica,sans-Serif" font-size="10.00">_angle_</text>
</g>
<!-- Node3 -->
<g id="node3" class="node">
<title>Node3</title>
<g id="a_node3"><a xlink:title=" ">
<polygon fill="white" stroke="#bfbfbf" points="130.5,-490.5 130.5,-547.5 177.5,-547.5 177.5,-490.5 130.5,-490.5"/>
<text text-anchor="middle" x="154" y="-535.5" font-family="Helvetica,sans-Serif" font-size="10.00">colour</text>
<polyline fill="none" stroke="#bfbfbf" points="130.5,-528.5 177.5,-528.5 "/>
<text text-anchor="middle" x="154" y="-516.5" font-family="Helvetica,sans-Serif" font-size="10.00"> </text>
<polyline fill="none" stroke="#bfbfbf" points="130.5,-509.5 177.5,-509.5 "/>
<text text-anchor="middle" x="154" y="-497.5" font-family="Helvetica,sans-Serif" font-size="10.00"> </text>
</a>
</g>
</g>
<!-- Node3&#45;&gt;Node1 -->
<g id="edge2" class="edge">
<title>Node3&#45;&gt;Node1</title>
<path fill="none" stroke="#404040" d="M154,-490.5C154,-458.18 154,-401.73 154,-344.97"/>
<polygon fill="none" stroke="#404040" points="154,-344.86 150,-338.86 154,-332.86 158,-338.86 154,-344.86"/>
<text text-anchor="middle" x="175.5" y="-409" font-family="Helvetica,sans-Serif" font-size="10.00"> &#45;colour_</text>
</g>
<!-- Node4 -->
<g id="node4" class="node">
<title>Node4</title>
<g id="a_node4"><a xlink:title=" ">
<polygon fill="white" stroke="#bfbfbf" points="195.5,-490.5 195.5,-547.5 266.5,-547.5 266.5,-490.5 195.5,-490.5"/>
<text text-anchor="middle" x="231" y="-535.5" font-family="Helvetica,sans-Serif" font-size="10.00">light_mode</text>
<polyline fill="none" stroke="#bfbfbf" points="195.5,-528.5 266.5,-528.5 "/>
<text text-anchor="middle" x="231" y="-516.5" font-family="Helvetica,sans-Serif" font-size="10.00"> </text>
<polyline fill="none" stroke="#bfbfbf" points="195.5,-509.5 266.5,-509.5 "/>
<text text-anchor="middle" x="231" y="-497.5" font-family="Helvetica,sans-Serif" font-size="10.00"> </text>
</a>
</g>
</g>
<!-- Node4&#45;&gt;Node1 -->
<g id="edge3" class="edge">
<title>Node4&#45;&gt;Node1</title>
<path fill="none" stroke="#404040" d="M226.68,-490.4C221.33,-457.18 211.62,-399.79 201,-351 200.56,-348.96 200.1,-346.9 199.65,-344.84"/>
<polygon fill="none" stroke="#404040" points="199.6,-344.62 194.38,-339.65 196.96,-332.91 202.18,-337.89 199.6,-344.62"/>
<text text-anchor="middle" x="243" y="-409" font-family="Helvetica,sans-Serif" font-size="10.00"> &#45;mode_</text>
</g>
</g>
</svg>
        <g id="navigator" transform="translate(0 0)" fill="#404254">
                <rect fill="#f2f5e9" fill-opacity="0.5" stroke="#606060" stroke-width=".5" x="0" y="0" width="60" height="60"/>
                <use id="zoomplus" xlink:href="#zoomPlus" x="17" y="9" onmousedown="handleZoom(evt,'in')"/>
                <use id="zoomminus" xlink:href="#zoomMin" x="42" y="9" onmousedown="handleZoom(evt,'out')"/>
                <use id="reset" xlink:href="#resetDef" x="30" y="36" onmousedown="handleReset()"/>
                <g id="arrowUp" xlink:href="#dirArrow" transform="translate(30 24)" onmousedown="handlePan(0,-1)">
                  <use xlink:href="#rim" fill="#404040">
                        <set attributeName="fill" to="#808080" begin="arrowUp.mouseover" end="arrowUp.mouseout"/>
                  </use>
                  <path fill="none" stroke="white" stroke-width="1.5" d="M0,-3.0v7 M-2.5,-0.5L0,-3.0L2.5,-0.5"/>
                </g>
                <g id="arrowRight" xlink:href="#dirArrow" transform="rotate(90) translate(36 -43)" onmousedown="handlePan(1,0)">
                  <use xlink:href="#rim" fill="#404040">
                        <set attributeName="fill" to="#808080" begin="arrowRight.mouseover" end="arrowRight.mouseout"/>
                  </use>
                  <path fill="none" stroke="white" stroke-width="1.5" d="M0,-3.0v7 M-2.5,-0.5L0,-3.0L2.5,-0.5"/>
                </g>
                <g id="arrowDown" xlink:href="#dirArrow" transform="rotate(180) translate(-30 -48)" onmousedown="handlePan(0,1)">
                  <use xlink:href="#rim" fill="#404040">
                        <set attributeName="fill" to="#808080" begin="arrowDown.mouseover" end="arrowDown.mouseout"/>
                  </use>
                  <path fill="none" stroke="white" stroke-width="1.5" d="M0,-3.0v7 M-2.5,-0.5L0,-3.0L2.5,-0.5"/>
                </g>
                <g id="arrowLeft" xlink:href="#dirArrow" transform="rotate(270) translate(-36 17)" onmousedown="handlePan(-1,0)">
                  <use xlink:href="#rim" fill="#404040">
                        <set attributeName="fill" to="#808080" begin="arrowLeft.mouseover" end="arrowLeft.mouseout"/>
                  </use>
                  <path fill="none" stroke="white" stroke-width="1.5" d="M0,-3.0v7 M-2.5,-0.5L0,-3.0L2.5,-0.5"/>
                </g>
        </g>
        <svg viewBox="0 0 15 15" width="100%" height="30px" preserveAspectRatio="xMaxYMin meet">
         <g id="arrow_out" transform="scale(0.3 0.3)">
          <a xlink:href="classmkr_1_1light__coll__graph_org.svg" target="_base">
           <rect id="button" ry="5" rx="5" y="6" x="6" height="38" width="38"
                fill="#f2f5e9" fill-opacity="0.5" stroke="#606060" stroke-width="1.0"/>
           <path id="arrow"
             d="M 11.500037,31.436501 C 11.940474,20.09759 22.043105,11.32322 32.158766,21.979434 L 37.068811,17.246167 C 37.068811,17.246167 37.088388,32 37.088388,32 L 22.160133,31.978069 C 22.160133,31.978069 26.997745,27.140456 26.997745,27.140456 C 18.528582,18.264221 13.291696,25.230495 11.500037,31.436501 z"
             style="fill:#404040;"/>
          </a>
         </g>
        </svg>
</svg>
