<?xml version="1.0" encoding="UTF-8" standalone="no"?>
<!DOCTYPE svg PUBLIC "-//W3C//DTD SVG 1.1//EN"
 "http://www.w3.org/Graphics/SVG/1.1/DTD/svg11.dtd">
<!-- Generated by graphviz version 2.43.0 (0)
 -->
<!-- Title: mkr::graphics_renderer Pages: 1 -->
<!--zoomable 424 -->
<svg id="main" version="1.1" xmlns="http://www.w3.org/2000/svg" xmlns:xlink="http://www.w3.org/1999/xlink" xml:space="preserve" onload="init(evt)">
<style type="text/css"><![CDATA[
.edge:hover path { stroke: red; }
.edge:hover polygon { stroke: red; fill: red; }
]]></style>
<script type="text/javascript"><![CDATA[
var edges = document.getElementsByTagName('g');
if (edges && edges.length) {
  for (var i=0;i<edges.length;i++) {
    if (edges[i].id.substr(0,4)=='edge') {
      edges[i].setAttribute('class','edge');
    }
  }
}
]]></script>
        <defs>
                <circle id="rim" cx="0" cy="0" r="7"/>
                <circle id="rim2" cx="0" cy="0" r="3.5"/>
                <g id="zoomPlus">
                        <use xlink:href="#rim" fill="#404040">
                                <set attributeName="fill" to="#808080" begin="zoomplus.mouseover" end="zoomplus.mouseout"/>
                        </use>
                        <path d="M-4,0h8M0,-4v8" fill="none" stroke="white" stroke-width="1.5" pointer-events="none"/>
                </g>
                <g id="zoomMin">
                        <use xlink:href="#rim" fill="#404040">
                                <set attributeName="fill" to="#808080" begin="zoomminus.mouseover" end="zoomminus.mouseout"/>
                        </use>
                        <path d="M-4,0h8" fill="none" stroke="white" stroke-width="1.5" pointer-events="none"/>
                </g>
                <g id="dirArrow">
                        <path fill="none" stroke="white" stroke-width="1.5" d="M0,-3.0v7 M-2.5,-0.5L0,-3.0L2.5,-0.5"/>
                </g>
               <g id="resetDef">
                       <use xlink:href="#rim2" fill="#404040">
                               <set attributeName="fill" to="#808080" begin="reset.mouseover" end="reset.mouseout"/>
                       </use>
               </g>
        </defs>

<script type="text/javascript">
var viewWidth = 1886;
var viewHeight = 424;
var sectionId = 'dynsection-1';
</script>
<script xlink:href="svgpan.js"/>
<svg id="graph" class="graph">
<g id="viewport">
<title>mkr::graphics_renderer</title>
<polygon fill="white" stroke="transparent" points="-4,4 -4,-420 1882,-420 1882,4 -4,4"/>
<!-- Node1 -->
<g id="node1" class="node">
<title>Node1</title>
<g id="a_node1"><a xlink:title=" ">
<polygon fill="#bfbfbf" stroke="black" points="907,-0.5 907,-233.5 1037,-233.5 1037,-0.5 907,-0.5"/>
<text text-anchor="middle" x="972" y="-221.5" font-family="Helvetica,sans-Serif" font-size="10.00">mkr::graphics_renderer</text>
<polyline fill="none" stroke="black" points="907,-214.5 1037,-214.5 "/>
<text text-anchor="middle" x="972" y="-202.5" font-family="Helvetica,sans-Serif" font-size="10.00"> </text>
<polyline fill="none" stroke="black" points="907,-195.5 1037,-195.5 "/>
<text text-anchor="start" x="915" y="-183.5" font-family="Helvetica,sans-Serif" font-size="10.00">+ init()</text>
<text text-anchor="start" x="915" y="-172.5" font-family="Helvetica,sans-Serif" font-size="10.00">+ start()</text>
<text text-anchor="start" x="915" y="-161.5" font-family="Helvetica,sans-Serif" font-size="10.00">+ update()</text>
<text text-anchor="start" x="915" y="-150.5" font-family="Helvetica,sans-Serif" font-size="10.00">+ exit()</text>
<text text-anchor="start" x="915" y="-139.5" font-family="Helvetica,sans-Serif" font-size="10.00">+ submit_camera()</text>
<text text-anchor="start" x="915" y="-128.5" font-family="Helvetica,sans-Serif" font-size="10.00">+ submit_light()</text>
<text text-anchor="start" x="915" y="-117.5" font-family="Helvetica,sans-Serif" font-size="10.00">+ submit_mesh()</text>
<text text-anchor="start" x="915" y="-106.5" font-family="Helvetica,sans-Serif" font-size="10.00">&#45; graphics_renderer()</text>
<text text-anchor="start" x="915" y="-95.5" font-family="Helvetica,sans-Serif" font-size="10.00">&#45; ~graphics_renderer()</text>
<text text-anchor="start" x="915" y="-84.5" font-family="Helvetica,sans-Serif" font-size="10.00">&#45; render()</text>
<text text-anchor="start" x="915" y="-73.5" font-family="Helvetica,sans-Serif" font-size="10.00">&#45; point_shadow()</text>
<text text-anchor="start" x="915" y="-62.5" font-family="Helvetica,sans-Serif" font-size="10.00">&#45; spot_shadow()</text>
<text text-anchor="start" x="915" y="-51.5" font-family="Helvetica,sans-Serif" font-size="10.00">&#45; directional_shadow()</text>
<text text-anchor="start" x="915" y="-40.5" font-family="Helvetica,sans-Serif" font-size="10.00">&#45; geometry_pass()</text>
<text text-anchor="start" x="915" y="-29.5" font-family="Helvetica,sans-Serif" font-size="10.00">&#45; lighting_pass()</text>
<text text-anchor="start" x="915" y="-18.5" font-family="Helvetica,sans-Serif" font-size="10.00">&#45; forward_pass()</text>
<text text-anchor="start" x="915" y="-7.5" font-family="Helvetica,sans-Serif" font-size="10.00">&#45; skybox_pass()</text>
</a>
</g>
</g>
<!-- Node2 -->
<g id="node2" class="node">
<title>Node2</title>
<g id="a_node2"><a xlink:href="classsingleton.html" target="_top" xlink:title=" ">
<polygon fill="white" stroke="black" points="0,-336.5 0,-404.5 114,-404.5 114,-336.5 0,-336.5"/>
<text text-anchor="start" x="8" y="-392.5" font-family="Helvetica,sans-Serif" font-size="10.00">singleton&lt; graphics</text>
<text text-anchor="middle" x="57" y="-381.5" font-family="Helvetica,sans-Serif" font-size="10.00">_renderer &gt;</text>
<polyline fill="none" stroke="black" points="0,-374.5 114,-374.5 "/>
<text text-anchor="middle" x="57" y="-362.5" font-family="Helvetica,sans-Serif" font-size="10.00"> </text>
<polyline fill="none" stroke="black" points="0,-355.5 114,-355.5 "/>
<text text-anchor="middle" x="57" y="-343.5" font-family="Helvetica,sans-Serif" font-size="10.00"> </text>
</a>
</g>
</g>
<!-- Node2&#45;&gt;Node1 -->
<g id="edge1" class="edge">
<title>Node2&#45;&gt;Node1</title>
<path fill="none" stroke="midnightblue" d="M112.16,-330.9C152.62,-304.49 209.89,-270.94 265,-252 493.31,-173.52 779.81,-137.17 906.54,-124.06"/>
<polygon fill="none" stroke="midnightblue" points="110.21,-327.99 103.78,-336.42 114.06,-333.84 110.21,-327.99"/>
</g>
<!-- Node3 -->
<g id="node3" class="node">
<title>Node3</title>
<g id="a_node3"><a xlink:title=" ">
<polygon fill="white" stroke="#bfbfbf" points="132,-331 132,-410 250,-410 250,-331 132,-331"/>
<text text-anchor="start" x="140" y="-398" font-family="Helvetica,sans-Serif" font-size="10.00">priority_queue&lt; mkr</text>
<text text-anchor="start" x="140" y="-387" font-family="Helvetica,sans-Serif" font-size="10.00">::graphics_renderer</text>
<text text-anchor="middle" x="191" y="-376" font-family="Helvetica,sans-Serif" font-size="10.00">::camera_data &gt;</text>
<polyline fill="none" stroke="#bfbfbf" points="132,-369 250,-369 "/>
<text text-anchor="middle" x="191" y="-357" font-family="Helvetica,sans-Serif" font-size="10.00"> </text>
<polyline fill="none" stroke="#bfbfbf" points="132,-350 250,-350 "/>
<text text-anchor="middle" x="191" y="-338" font-family="Helvetica,sans-Serif" font-size="10.00"> </text>
</a>
</g>
</g>
<!-- Node3&#45;&gt;Node1 -->
<g id="edge2" class="edge">
<title>Node3&#45;&gt;Node1</title>
<path fill="none" stroke="#404040" d="M235.8,-330.74C268.05,-304.78 313.68,-271.85 359,-252 541.15,-172.23 775.21,-138.09 894.54,-125.06"/>
<polygon fill="none" stroke="#404040" points="894.84,-125.03 900.38,-120.42 906.77,-123.76 901.23,-128.37 894.84,-125.03"/>
<text text-anchor="middle" x="386.5" y="-277" font-family="Helvetica,sans-Serif" font-size="10.00"> &#45;cameras_</text>
</g>
<!-- Node4 -->
<g id="node4" class="node">
<title>Node4</title>
<g id="a_node4"><a xlink:title=" ">
<polygon fill="white" stroke="#bfbfbf" points="268.5,-336.5 268.5,-404.5 391.5,-404.5 391.5,-336.5 268.5,-336.5"/>
<text text-anchor="start" x="276.5" y="-392.5" font-family="Helvetica,sans-Serif" font-size="10.00">unique_ptr&lt; mkr::app</text>
<text text-anchor="middle" x="330" y="-381.5" font-family="Helvetica,sans-Serif" font-size="10.00">_window &gt;</text>
<polyline fill="none" stroke="#bfbfbf" points="268.5,-374.5 391.5,-374.5 "/>
<text text-anchor="middle" x="330" y="-362.5" font-family="Helvetica,sans-Serif" font-size="10.00"> </text>
<polyline fill="none" stroke="#bfbfbf" points="268.5,-355.5 391.5,-355.5 "/>
<text text-anchor="middle" x="330" y="-343.5" font-family="Helvetica,sans-Serif" font-size="10.00"> </text>
</a>
</g>
</g>
<!-- Node4&#45;&gt;Node1 -->
<g id="edge3" class="edge">
<title>Node4&#45;&gt;Node1</title>
<path fill="none" stroke="#404040" d="M372.09,-336.4C406.87,-310.4 458.41,-274.88 508,-252 637.83,-192.1 800.58,-152.54 894.78,-132.81"/>
<polygon fill="none" stroke="#404040" points="895.01,-132.76 900.08,-127.62 906.77,-130.32 901.7,-135.46 895.01,-132.76"/>
<text text-anchor="middle" x="544.5" y="-277" font-family="Helvetica,sans-Serif" font-size="10.00"> &#45;app_window_</text>
</g>
<!-- Node5 -->
<g id="node5" class="node">
<title>Node5</title>
<g id="a_node5"><a xlink:title=" ">
<polygon fill="white" stroke="#bfbfbf" points="409.5,-336.5 409.5,-404.5 552.5,-404.5 552.5,-336.5 409.5,-336.5"/>
<text text-anchor="start" x="417.5" y="-392.5" font-family="Helvetica,sans-Serif" font-size="10.00">unique_ptr&lt; mkr::shadow</text>
<text text-anchor="middle" x="481" y="-381.5" font-family="Helvetica,sans-Serif" font-size="10.00">_2d_buffer &gt;</text>
<polyline fill="none" stroke="#bfbfbf" points="409.5,-374.5 552.5,-374.5 "/>
<text text-anchor="middle" x="481" y="-362.5" font-family="Helvetica,sans-Serif" font-size="10.00"> </text>
<polyline fill="none" stroke="#bfbfbf" points="409.5,-355.5 552.5,-355.5 "/>
<text text-anchor="middle" x="481" y="-343.5" font-family="Helvetica,sans-Serif" font-size="10.00"> </text>
</a>
</g>
</g>
<!-- Node5&#45;&gt;Node1 -->
<g id="edge4" class="edge">
<title>Node5&#45;&gt;Node1</title>
<path fill="none" stroke="#404040" d="M532.49,-336.44C571.49,-311.93 626.76,-278.36 677,-252 749.65,-213.88 835.27,-175.7 895.5,-149.9"/>
<polygon fill="none" stroke="#404040" points="895.79,-149.78 899.73,-143.75 906.82,-145.07 902.87,-151.11 895.79,-149.78"/>
<text text-anchor="middle" x="704" y="-277" font-family="Helvetica,sans-Serif" font-size="10.00"> &#45;s2d_buff_</text>
</g>
<!-- Node6 -->
<g id="node6" class="node">
<title>Node6</title>
<g id="a_node6"><a xlink:title=" ">
<polygon fill="white" stroke="#bfbfbf" points="571,-336.5 571,-404.5 723,-404.5 723,-336.5 571,-336.5"/>
<text text-anchor="start" x="579" y="-392.5" font-family="Helvetica,sans-Serif" font-size="10.00">unique_ptr&lt; mkr::geometry</text>
<text text-anchor="middle" x="647" y="-381.5" font-family="Helvetica,sans-Serif" font-size="10.00">_buffer &gt;</text>
<polyline fill="none" stroke="#bfbfbf" points="571,-374.5 723,-374.5 "/>
<text text-anchor="middle" x="647" y="-362.5" font-family="Helvetica,sans-Serif" font-size="10.00"> </text>
<polyline fill="none" stroke="#bfbfbf" points="571,-355.5 723,-355.5 "/>
<text text-anchor="middle" x="647" y="-343.5" font-family="Helvetica,sans-Serif" font-size="10.00"> </text>
</a>
</g>
</g>
<!-- Node6&#45;&gt;Node1 -->
<g id="edge5" class="edge">
<title>Node6&#45;&gt;Node1</title>
<path fill="none" stroke="#404040" d="M689.82,-336.36C742.53,-295.57 832.94,-225.61 897.21,-175.88"/>
<polygon fill="none" stroke="#404040" points="897.4,-175.73 899.7,-168.89 906.89,-168.38 904.6,-175.22 897.4,-175.73"/>
<text text-anchor="middle" x="812.5" y="-277" font-family="Helvetica,sans-Serif" font-size="10.00"> &#45;g_buff_</text>
</g>
<!-- Node7 -->
<g id="node7" class="node">
<title>Node7</title>
<g id="a_node7"><a xlink:title=" ">
<polygon fill="white" stroke="#bfbfbf" points="741.5,-342 741.5,-399 884.5,-399 884.5,-342 741.5,-342"/>
<text text-anchor="middle" x="813" y="-387" font-family="Helvetica,sans-Serif" font-size="10.00">unique_ptr&lt; mkr::mesh &gt;</text>
<polyline fill="none" stroke="#bfbfbf" points="741.5,-380 884.5,-380 "/>
<text text-anchor="middle" x="813" y="-368" font-family="Helvetica,sans-Serif" font-size="10.00"> </text>
<polyline fill="none" stroke="#bfbfbf" points="741.5,-361 884.5,-361 "/>
<text text-anchor="middle" x="813" y="-349" font-family="Helvetica,sans-Serif" font-size="10.00"> </text>
</a>
</g>
</g>
<!-- Node7&#45;&gt;Node1 -->
<g id="edge6" class="edge">
<title>Node7&#45;&gt;Node1</title>
<path fill="none" stroke="#404040" d="M830.62,-341.62C847.66,-314.68 874.6,-272.06 900.42,-231.21"/>
<polygon fill="none" stroke="#404040" points="900.55,-231.02 900.37,-223.81 906.96,-220.88 907.13,-228.09 900.55,-231.02"/>
<text text-anchor="middle" x="919" y="-282.5" font-family="Helvetica,sans-Serif" font-size="10.00"> &#45;screen_quad_</text>
<text text-anchor="middle" x="919" y="-271.5" font-family="Helvetica,sans-Serif" font-size="10.00">&#45;skybox_cube_</text>
</g>
<!-- Node8 -->
<g id="node8" class="node">
<title>Node8</title>
<g id="a_node8"><a xlink:title=" ">
<polygon fill="white" stroke="#bfbfbf" points="902.5,-325.5 902.5,-415.5 1075.5,-415.5 1075.5,-325.5 902.5,-325.5"/>
<text text-anchor="start" x="910.5" y="-403.5" font-family="Helvetica,sans-Serif" font-size="10.00">unordered_map&lt; mkr</text>
<text text-anchor="start" x="910.5" y="-392.5" font-family="Helvetica,sans-Serif" font-size="10.00">::material *, std::unordered</text>
<text text-anchor="start" x="910.5" y="-381.5" font-family="Helvetica,sans-Serif" font-size="10.00">_map&lt; mkr::mesh *, std::vector</text>
<text text-anchor="middle" x="989" y="-370.5" font-family="Helvetica,sans-Serif" font-size="10.00">&lt; matrix4x4 &gt; &gt; &gt;</text>
<polyline fill="none" stroke="#bfbfbf" points="902.5,-363.5 1075.5,-363.5 "/>
<text text-anchor="middle" x="989" y="-351.5" font-family="Helvetica,sans-Serif" font-size="10.00"> </text>
<polyline fill="none" stroke="#bfbfbf" points="902.5,-344.5 1075.5,-344.5 "/>
<text text-anchor="middle" x="989" y="-332.5" font-family="Helvetica,sans-Serif" font-size="10.00"> </text>
</a>
</g>
</g>
<!-- Node8&#45;&gt;Node1 -->
<g id="edge7" class="edge">
<title>Node8&#45;&gt;Node1</title>
<path fill="none" stroke="#404040" d="M976.28,-325.37C974.93,-319.25 973.77,-313 973,-307 970.46,-287.28 969.07,-266.3 968.42,-245.77"/>
<polygon fill="none" stroke="#404040" points="968.42,-245.74 964.28,-239.84 968.13,-233.74 972.27,-239.64 968.42,-245.74"/>
<text text-anchor="middle" x="1036.5" y="-299" font-family="Helvetica,sans-Serif" font-size="10.00"> &#45;deferred_meshes_</text>
<text text-anchor="start" x="973" y="-288" font-family="Helvetica,sans-Serif" font-size="10.00">&#45;forward_opaque_meshes</text>
<text text-anchor="middle" x="1036.5" y="-277" font-family="Helvetica,sans-Serif" font-size="10.00">_</text>
<text text-anchor="start" x="973" y="-266" font-family="Helvetica,sans-Serif" font-size="10.00">&#45;forward_transparent</text>
<text text-anchor="middle" x="1036.5" y="-255" font-family="Helvetica,sans-Serif" font-size="10.00">_meshes_</text>
</g>
<!-- Node9 -->
<g id="node9" class="node">
<title>Node9</title>
<g id="a_node9"><a xlink:title=" ">
<polygon fill="white" stroke="#bfbfbf" points="1094,-342 1094,-399 1150,-399 1150,-342 1094,-342"/>
<text text-anchor="middle" x="1122" y="-387" font-family="Helvetica,sans-Serif" font-size="10.00">uint32_t</text>
<polyline fill="none" stroke="#bfbfbf" points="1094,-380 1150,-380 "/>
<text text-anchor="middle" x="1122" y="-368" font-family="Helvetica,sans-Serif" font-size="10.00"> </text>
<polyline fill="none" stroke="#bfbfbf" points="1094,-361 1150,-361 "/>
<text text-anchor="middle" x="1122" y="-349" font-family="Helvetica,sans-Serif" font-size="10.00"> </text>
</a>
</g>
</g>
<!-- Node9&#45;&gt;Node1 -->
<g id="edge8" class="edge">
<title>Node9&#45;&gt;Node1</title>
<path fill="none" stroke="#404040" d="M1121.25,-341.95C1119.58,-317.18 1114.58,-280.44 1100,-252 1086.58,-225.82 1066.41,-201.25 1046.04,-180.48"/>
<polygon fill="none" stroke="#404040" points="1045.83,-180.27 1038.75,-178.88 1037.31,-171.81 1044.39,-173.2 1045.83,-180.27"/>
<text text-anchor="middle" x="1159" y="-282.5" font-family="Helvetica,sans-Serif" font-size="10.00"> &#45;window_height_</text>
<text text-anchor="middle" x="1159" y="-271.5" font-family="Helvetica,sans-Serif" font-size="10.00">&#45;window_width_</text>
</g>
<!-- Node10 -->
<g id="node10" class="node">
<title>Node10</title>
<g id="a_node10"><a xlink:title=" ">
<polygon fill="white" stroke="#bfbfbf" points="1168.5,-336.5 1168.5,-404.5 1297.5,-404.5 1297.5,-336.5 1168.5,-336.5"/>
<text text-anchor="start" x="1176.5" y="-392.5" font-family="Helvetica,sans-Serif" font-size="10.00">vector&lt; mkr::graphics</text>
<text text-anchor="middle" x="1233" y="-381.5" font-family="Helvetica,sans-Serif" font-size="10.00">_renderer::light_data &gt;</text>
<polyline fill="none" stroke="#bfbfbf" points="1168.5,-374.5 1297.5,-374.5 "/>
<text text-anchor="middle" x="1233" y="-362.5" font-family="Helvetica,sans-Serif" font-size="10.00"> </text>
<polyline fill="none" stroke="#bfbfbf" points="1168.5,-355.5 1297.5,-355.5 "/>
<text text-anchor="middle" x="1233" y="-343.5" font-family="Helvetica,sans-Serif" font-size="10.00"> </text>
</a>
</g>
</g>
<!-- Node10&#45;&gt;Node1 -->
<g id="edge9" class="edge">
<title>Node10&#45;&gt;Node1</title>
<path fill="none" stroke="#404040" d="M1232.39,-336.39C1230.39,-311.07 1224.15,-276.46 1206,-252 1166.89,-199.28 1100.43,-164.12 1048.3,-143.09"/>
<polygon fill="none" stroke="#404040" points="1048.25,-143.07 1041.2,-144.6 1037.08,-138.69 1044.13,-137.15 1048.25,-143.07"/>
<text text-anchor="middle" x="1248" y="-277" font-family="Helvetica,sans-Serif" font-size="10.00"> &#45;lights_</text>
</g>
<!-- Node11 -->
<g id="node11" class="node">
<title>Node11</title>
<g id="a_node11"><a xlink:title=" ">
<polygon fill="white" stroke="#bfbfbf" points="1315.5,-336.5 1315.5,-404.5 1458.5,-404.5 1458.5,-336.5 1315.5,-336.5"/>
<text text-anchor="start" x="1323.5" y="-392.5" font-family="Helvetica,sans-Serif" font-size="10.00">unique_ptr&lt; mkr::forward</text>
<text text-anchor="middle" x="1387" y="-381.5" font-family="Helvetica,sans-Serif" font-size="10.00">_buffer &gt;</text>
<polyline fill="none" stroke="#bfbfbf" points="1315.5,-374.5 1458.5,-374.5 "/>
<text text-anchor="middle" x="1387" y="-362.5" font-family="Helvetica,sans-Serif" font-size="10.00"> </text>
<polyline fill="none" stroke="#bfbfbf" points="1315.5,-355.5 1458.5,-355.5 "/>
<text text-anchor="middle" x="1387" y="-343.5" font-family="Helvetica,sans-Serif" font-size="10.00"> </text>
</a>
</g>
</g>
<!-- Node11&#45;&gt;Node1 -->
<g id="edge10" class="edge">
<title>Node11&#45;&gt;Node1</title>
<path fill="none" stroke="#404040" d="M1360.49,-336.25C1338.8,-310.68 1306.2,-275.81 1272,-252 1202.14,-203.37 1111.8,-165.91 1048.59,-143.11"/>
<polygon fill="none" stroke="#404040" points="1048.42,-143.05 1041.42,-144.81 1037.11,-139.03 1044.1,-137.27 1048.42,-143.05"/>
<text text-anchor="middle" x="1352" y="-277" font-family="Helvetica,sans-Serif" font-size="10.00"> &#45;f_buff_</text>
</g>
<!-- Node12 -->
<g id="node12" class="node">
<title>Node12</title>
<g id="a_node12"><a xlink:title=" ">
<polygon fill="white" stroke="#bfbfbf" points="1476.5,-336.5 1476.5,-404.5 1619.5,-404.5 1619.5,-336.5 1476.5,-336.5"/>
<text text-anchor="start" x="1484.5" y="-392.5" font-family="Helvetica,sans-Serif" font-size="10.00">unique_ptr&lt; mkr::shadow</text>
<text text-anchor="middle" x="1548" y="-381.5" font-family="Helvetica,sans-Serif" font-size="10.00">_cubemap_buffer &gt;</text>
<polyline fill="none" stroke="#bfbfbf" points="1476.5,-374.5 1619.5,-374.5 "/>
<text text-anchor="middle" x="1548" y="-362.5" font-family="Helvetica,sans-Serif" font-size="10.00"> </text>
<polyline fill="none" stroke="#bfbfbf" points="1476.5,-355.5 1619.5,-355.5 "/>
<text text-anchor="middle" x="1548" y="-343.5" font-family="Helvetica,sans-Serif" font-size="10.00"> </text>
</a>
</g>
</g>
<!-- Node12&#45;&gt;Node1 -->
<g id="edge11" class="edge">
<title>Node12&#45;&gt;Node1</title>
<path fill="none" stroke="#404040" d="M1506.57,-336.3C1472.94,-310.59 1423.48,-275.51 1376,-252 1267.33,-198.19 1131.97,-158.3 1048.79,-136.6"/>
<polygon fill="none" stroke="#404040" points="1048.77,-136.6 1041.97,-138.97 1037.16,-133.6 1043.97,-131.22 1048.77,-136.6"/>
<text text-anchor="middle" x="1495.5" y="-277" font-family="Helvetica,sans-Serif" font-size="10.00"> &#45;scube_buff_</text>
</g>
<!-- Node13 -->
<g id="node13" class="node">
<title>Node13</title>
<g id="a_node13"><a xlink:title=" ">
<polygon fill="white" stroke="#bfbfbf" points="1638,-336.5 1638,-404.5 1780,-404.5 1780,-336.5 1638,-336.5"/>
<text text-anchor="start" x="1646" y="-392.5" font-family="Helvetica,sans-Serif" font-size="10.00">unique_ptr&lt; mkr::lighting</text>
<text text-anchor="middle" x="1709" y="-381.5" font-family="Helvetica,sans-Serif" font-size="10.00">_buffer &gt;</text>
<polyline fill="none" stroke="#bfbfbf" points="1638,-374.5 1780,-374.5 "/>
<text text-anchor="middle" x="1709" y="-362.5" font-family="Helvetica,sans-Serif" font-size="10.00"> </text>
<polyline fill="none" stroke="#bfbfbf" points="1638,-355.5 1780,-355.5 "/>
<text text-anchor="middle" x="1709" y="-343.5" font-family="Helvetica,sans-Serif" font-size="10.00"> </text>
</a>
</g>
</g>
<!-- Node13&#45;&gt;Node1 -->
<g id="edge12" class="edge">
<title>Node13&#45;&gt;Node1</title>
<path fill="none" stroke="#404040" d="M1668.15,-336.3C1633.74,-309.89 1582.22,-273.86 1532,-252 1368.11,-180.68 1159.98,-143.62 1049.36,-127.75"/>
<polygon fill="none" stroke="#404040" points="1049.22,-127.73 1042.72,-130.85 1037.33,-126.05 1043.83,-122.93 1049.22,-127.73"/>
<text text-anchor="middle" x="1647" y="-277" font-family="Helvetica,sans-Serif" font-size="10.00"> &#45;l_buff_</text>
</g>
<!-- Node14 -->
<g id="node14" class="node">
<title>Node14</title>
<g id="a_node14"><a xlink:title=" ">
<polygon fill="white" stroke="#bfbfbf" points="1798.5,-342 1798.5,-399 1865.5,-399 1865.5,-342 1798.5,-342"/>
<text text-anchor="middle" x="1832" y="-387" font-family="Helvetica,sans-Serif" font-size="10.00">matrix4x4</text>
<polyline fill="none" stroke="#bfbfbf" points="1798.5,-380 1865.5,-380 "/>
<text text-anchor="middle" x="1832" y="-368" font-family="Helvetica,sans-Serif" font-size="10.00"> </text>
<polyline fill="none" stroke="#bfbfbf" points="1798.5,-361 1865.5,-361 "/>
<text text-anchor="middle" x="1832" y="-349" font-family="Helvetica,sans-Serif" font-size="10.00"> </text>
</a>
</g>
</g>
<!-- Node14&#45;&gt;Node1 -->
<g id="edge13" class="edge">
<title>Node14&#45;&gt;Node1</title>
<path fill="none" stroke="#404040" d="M1807.09,-341.57C1801.39,-335.81 1795.19,-329.99 1789,-325 1740.98,-286.31 1728.46,-274.4 1671,-252 1455.47,-167.98 1181.35,-135.18 1049.6,-123.63"/>
<polygon fill="none" stroke="#404040" points="1049.26,-123.6 1042.94,-127.07 1037.3,-122.57 1043.62,-119.1 1049.26,-123.6"/>
<text text-anchor="start" x="1766" y="-282.5" font-family="Helvetica,sans-Serif" font-size="10.00"> &#45;light_view_projection</text>
<text text-anchor="middle" x="1822" y="-271.5" font-family="Helvetica,sans-Serif" font-size="10.00">_matrix_</text>
</g>
</g>
</svg>
        <g id="navigator" transform="translate(0 0)" fill="#404254">
                <rect fill="#f2f5e9" fill-opacity="0.5" stroke="#606060" stroke-width=".5" x="0" y="0" width="60" height="60"/>
                <use id="zoomplus" xlink:href="#zoomPlus" x="17" y="9" onmousedown="handleZoom(evt,'in')"/>
                <use id="zoomminus" xlink:href="#zoomMin" x="42" y="9" onmousedown="handleZoom(evt,'out')"/>
                <use id="reset" xlink:href="#resetDef" x="30" y="36" onmousedown="handleReset()"/>
                <g id="arrowUp" xlink:href="#dirArrow" transform="translate(30 24)" onmousedown="handlePan(0,-1)">
                  <use xlink:href="#rim" fill="#404040">
                        <set attributeName="fill" to="#808080" begin="arrowUp.mouseover" end="arrowUp.mouseout"/>
                  </use>
                  <path fill="none" stroke="white" stroke-width="1.5" d="M0,-3.0v7 M-2.5,-0.5L0,-3.0L2.5,-0.5"/>
                </g>
                <g id="arrowRight" xlink:href="#dirArrow" transform="rotate(90) translate(36 -43)" onmousedown="handlePan(1,0)">
                  <use xlink:href="#rim" fill="#404040">
                        <set attributeName="fill" to="#808080" begin="arrowRight.mouseover" end="arrowRight.mouseout"/>
                  </use>
                  <path fill="none" stroke="white" stroke-width="1.5" d="M0,-3.0v7 M-2.5,-0.5L0,-3.0L2.5,-0.5"/>
                </g>
                <g id="arrowDown" xlink:href="#dirArrow" transform="rotate(180) translate(-30 -48)" onmousedown="handlePan(0,1)">
                  <use xlink:href="#rim" fill="#404040">
                        <set attributeName="fill" to="#808080" begin="arrowDown.mouseover" end="arrowDown.mouseout"/>
                  </use>
                  <path fill="none" stroke="white" stroke-width="1.5" d="M0,-3.0v7 M-2.5,-0.5L0,-3.0L2.5,-0.5"/>
                </g>
                <g id="arrowLeft" xlink:href="#dirArrow" transform="rotate(270) translate(-36 17)" onmousedown="handlePan(-1,0)">
                  <use xlink:href="#rim" fill="#404040">
                        <set attributeName="fill" to="#808080" begin="arrowLeft.mouseover" end="arrowLeft.mouseout"/>
                  </use>
                  <path fill="none" stroke="white" stroke-width="1.5" d="M0,-3.0v7 M-2.5,-0.5L0,-3.0L2.5,-0.5"/>
                </g>
        </g>
        <svg viewBox="0 0 15 15" width="100%" height="30px" preserveAspectRatio="xMaxYMin meet">
         <g id="arrow_out" transform="scale(0.3 0.3)">
          <a xlink:href="classmkr_1_1graphics__renderer__coll__graph_org.svg" target="_base">
           <rect id="button" ry="5" rx="5" y="6" x="6" height="38" width="38"
                fill="#f2f5e9" fill-opacity="0.5" stroke="#606060" stroke-width="1.0"/>
           <path id="arrow"
             d="M 11.500037,31.436501 C 11.940474,20.09759 22.043105,11.32322 32.158766,21.979434 L 37.068811,17.246167 C 37.068811,17.246167 37.088388,32 37.088388,32 L 22.160133,31.978069 C 22.160133,31.978069 26.997745,27.140456 26.997745,27.140456 C 18.528582,18.264221 13.291696,25.230495 11.500037,31.436501 z"
             style="fill:#404040;"/>
          </a>
         </g>
        </svg>
</svg>
