<?xml version="1.0" encoding="UTF-8" standalone="no"?>
<!DOCTYPE svg PUBLIC "-//W3C//DTD SVG 1.1//EN"
 "http://www.w3.org/Graphics/SVG/1.1/DTD/svg11.dtd">
<!-- Generated by graphviz version 2.43.0 (0)
 -->
<!-- Title: mkr::post_proc_buffer Pages: 1 -->
<svg width="527pt" height="552pt"
 viewBox="0.00 0.00 527.00 552.00" xmlns="http://www.w3.org/2000/svg" xmlns:xlink="http://www.w3.org/1999/xlink">
<g id="graph0" class="graph" transform="scale(1 1) rotate(0) translate(4 548)">
<title>mkr::post_proc_buffer</title>
<polygon fill="white" stroke="transparent" points="-4,4 -4,-548 523,-548 523,4 -4,4"/>
<!-- Node1 -->
<g id="node1" class="node">
<title>Node1</title>
<g id="a_node1"><a xlink:title=" ">
<polygon fill="#bfbfbf" stroke="black" points="54.5,-0.5 54.5,-79.5 179.5,-79.5 179.5,-0.5 54.5,-0.5"/>
<text text-anchor="middle" x="117" y="-67.5" font-family="Helvetica,sans-Serif" font-size="10.00">mkr::post_proc_buffer</text>
<polyline fill="none" stroke="black" points="54.5,-60.5 179.5,-60.5 "/>
<text text-anchor="middle" x="117" y="-48.5" font-family="Helvetica,sans-Serif" font-size="10.00"> </text>
<polyline fill="none" stroke="black" points="54.5,-41.5 179.5,-41.5 "/>
<text text-anchor="start" x="62.5" y="-29.5" font-family="Helvetica,sans-Serif" font-size="10.00">+ post_proc_buffer()</text>
<text text-anchor="start" x="62.5" y="-18.5" font-family="Helvetica,sans-Serif" font-size="10.00">+ ~post_proc_buffer()</text>
<text text-anchor="start" x="62.5" y="-7.5" font-family="Helvetica,sans-Serif" font-size="10.00">+ swap_buffers()</text>
</a>
</g>
</g>
<!-- Node2 -->
<g id="node2" class="node">
<title>Node2</title>
<g id="a_node2"><a xlink:href="classmkr_1_1framebuffer.html" target="_top" xlink:title=" ">
<polygon fill="white" stroke="black" points="174.5,-117.5 174.5,-416.5 357.5,-416.5 357.5,-117.5 174.5,-117.5"/>
<text text-anchor="middle" x="266" y="-404.5" font-family="Helvetica,sans-Serif" font-size="10.00">mkr::framebuffer</text>
<polyline fill="none" stroke="black" points="174.5,-397.5 357.5,-397.5 "/>
<text text-anchor="middle" x="266" y="-385.5" font-family="Helvetica,sans-Serif" font-size="10.00"> </text>
<polyline fill="none" stroke="black" points="174.5,-378.5 357.5,-378.5 "/>
<text text-anchor="start" x="182.5" y="-366.5" font-family="Helvetica,sans-Serif" font-size="10.00">+ ~framebuffer()</text>
<text text-anchor="start" x="182.5" y="-355.5" font-family="Helvetica,sans-Serif" font-size="10.00">+ is_complete()</text>
<text text-anchor="start" x="182.5" y="-344.5" font-family="Helvetica,sans-Serif" font-size="10.00">+ width()</text>
<text text-anchor="start" x="182.5" y="-333.5" font-family="Helvetica,sans-Serif" font-size="10.00">+ height()</text>
<text text-anchor="start" x="182.5" y="-322.5" font-family="Helvetica,sans-Serif" font-size="10.00">+ get_colour_attachment()</text>
<text text-anchor="start" x="182.5" y="-311.5" font-family="Helvetica,sans-Serif" font-size="10.00">+ get_colour_attachment()</text>
<text text-anchor="start" x="182.5" y="-300.5" font-family="Helvetica,sans-Serif" font-size="10.00">+ get_depth_stencil_attachment()</text>
<text text-anchor="start" x="182.5" y="-289.5" font-family="Helvetica,sans-Serif" font-size="10.00">+ get_depth_stencil_attachment()</text>
<text text-anchor="start" x="182.5" y="-278.5" font-family="Helvetica,sans-Serif" font-size="10.00">+ bind()</text>
<text text-anchor="start" x="182.5" y="-267.5" font-family="Helvetica,sans-Serif" font-size="10.00">+ blit_to()</text>
<text text-anchor="start" x="182.5" y="-256.5" font-family="Helvetica,sans-Serif" font-size="10.00">+ set_read_colour_attachment()</text>
<text text-anchor="start" x="182.5" y="-245.5" font-family="Helvetica,sans-Serif" font-size="10.00">+ set_draw_colour_attachment()</text>
<text text-anchor="start" x="182.5" y="-234.5" font-family="Helvetica,sans-Serif" font-size="10.00">+ set_draw_colour_attachment</text>
<text text-anchor="start" x="182.5" y="-223.5" font-family="Helvetica,sans-Serif" font-size="10.00">_all()</text>
<text text-anchor="start" x="182.5" y="-212.5" font-family="Helvetica,sans-Serif" font-size="10.00">+ clear_colour()</text>
<text text-anchor="start" x="182.5" y="-201.5" font-family="Helvetica,sans-Serif" font-size="10.00">+ clear_colour_all()</text>
<text text-anchor="start" x="182.5" y="-190.5" font-family="Helvetica,sans-Serif" font-size="10.00">+ clear_depth_stencil()</text>
<text text-anchor="start" x="182.5" y="-179.5" font-family="Helvetica,sans-Serif" font-size="10.00">+ bind_default_buffer()</text>
<text text-anchor="start" x="182.5" y="-168.5" font-family="Helvetica,sans-Serif" font-size="10.00">+ clear_default_buffer</text>
<text text-anchor="start" x="182.5" y="-157.5" font-family="Helvetica,sans-Serif" font-size="10.00">_colour()</text>
<text text-anchor="start" x="182.5" y="-146.5" font-family="Helvetica,sans-Serif" font-size="10.00">+ clear_default_depth</text>
<text text-anchor="start" x="182.5" y="-135.5" font-family="Helvetica,sans-Serif" font-size="10.00">_stencil()</text>
<text text-anchor="start" x="182.5" y="-124.5" font-family="Helvetica,sans-Serif" font-size="10.00"># framebuffer()</text>
</a>
</g>
</g>
<!-- Node2&#45;&gt;Node1 -->
<g id="edge1" class="edge">
<title>Node2&#45;&gt;Node1</title>
<path fill="none" stroke="midnightblue" d="M168.77,-119.18C159.32,-104.9 150.4,-91.44 142.72,-79.84"/>
<polygon fill="none" stroke="midnightblue" points="165.95,-121.26 174.39,-127.67 171.79,-117.4 165.95,-121.26"/>
</g>
<!-- Node3 -->
<g id="node3" class="node">
<title>Node3</title>
<g id="a_node3"><a xlink:title=" ">
<polygon fill="white" stroke="#bfbfbf" points="0,-481 0,-538 152,-538 152,-481 0,-481"/>
<text text-anchor="middle" x="76" y="-526" font-family="Helvetica,sans-Serif" font-size="10.00">unique_ptr&lt; mkr::texture &gt;</text>
<polyline fill="none" stroke="#bfbfbf" points="0,-519 152,-519 "/>
<text text-anchor="middle" x="76" y="-507" font-family="Helvetica,sans-Serif" font-size="10.00"> </text>
<polyline fill="none" stroke="#bfbfbf" points="0,-500 152,-500 "/>
<text text-anchor="middle" x="76" y="-488" font-family="Helvetica,sans-Serif" font-size="10.00"> </text>
</a>
</g>
</g>
<!-- Node3&#45;&gt;Node1 -->
<g id="edge6" class="edge">
<title>Node3&#45;&gt;Node1</title>
<path fill="none" stroke="#404040" d="M69.81,-480.69C56.48,-415.5 29.31,-248.41 68,-117 70.74,-107.69 75.02,-98.44 79.93,-89.76"/>
<polygon fill="none" stroke="#404040" points="79.94,-89.75 79.64,-82.55 86.17,-79.5 86.47,-86.71 79.94,-89.75"/>
<text text-anchor="middle" x="116.5" y="-264.5" font-family="Helvetica,sans-Serif" font-size="10.00"> #composite_back_</text>
</g>
<!-- Node3&#45;&gt;Node2 -->
<g id="edge2" class="edge">
<title>Node3&#45;&gt;Node2</title>
<path fill="none" stroke="#404040" d="M80.92,-480.78C84.97,-465.42 92.22,-447.04 105,-435 123.72,-417.36 139.28,-432.24 160,-417 161.67,-415.77 163.32,-414.51 164.96,-413.21"/>
<polygon fill="none" stroke="#404040" points="164.98,-413.2 166.99,-406.27 174.16,-405.47 172.14,-412.39 164.98,-413.2"/>
<text text-anchor="middle" x="177" y="-443.5" font-family="Helvetica,sans-Serif" font-size="10.00"> #depth_stencil_attachment_</text>
</g>
<!-- Node4 -->
<g id="node4" class="node">
<title>Node4</title>
<g id="a_node4"><a xlink:title=" ">
<polygon fill="white" stroke="#bfbfbf" points="221,-481 221,-538 277,-538 277,-481 221,-481"/>
<text text-anchor="middle" x="249" y="-526" font-family="Helvetica,sans-Serif" font-size="10.00">uint32_t</text>
<polyline fill="none" stroke="#bfbfbf" points="221,-519 277,-519 "/>
<text text-anchor="middle" x="249" y="-507" font-family="Helvetica,sans-Serif" font-size="10.00"> </text>
<polyline fill="none" stroke="#bfbfbf" points="221,-500 277,-500 "/>
<text text-anchor="middle" x="249" y="-488" font-family="Helvetica,sans-Serif" font-size="10.00"> </text>
</a>
</g>
</g>
<!-- Node4&#45;&gt;Node2 -->
<g id="edge3" class="edge">
<title>Node4&#45;&gt;Node2</title>
<path fill="none" stroke="#404040" d="M250.95,-480.91C251.94,-466.95 253.22,-448.76 254.63,-428.89"/>
<polygon fill="none" stroke="#404040" points="254.64,-428.65 251.08,-422.38 255.49,-416.68 259.06,-422.94 254.64,-428.65"/>
<text text-anchor="middle" x="279" y="-449" font-family="Helvetica,sans-Serif" font-size="10.00"> #height_</text>
<text text-anchor="middle" x="279" y="-438" font-family="Helvetica,sans-Serif" font-size="10.00">#width_</text>
</g>
<!-- Node5 -->
<g id="node5" class="node">
<title>Node5</title>
<g id="a_node5"><a xlink:title=" ">
<polygon fill="white" stroke="#bfbfbf" points="295,-475.5 295,-543.5 425,-543.5 425,-475.5 295,-475.5"/>
<text text-anchor="start" x="303" y="-531.5" font-family="Helvetica,sans-Serif" font-size="10.00">vector&lt; std::unique</text>
<text text-anchor="middle" x="360" y="-520.5" font-family="Helvetica,sans-Serif" font-size="10.00">_ptr&lt; mkr::texture &gt; &gt;</text>
<polyline fill="none" stroke="#bfbfbf" points="295,-513.5 425,-513.5 "/>
<text text-anchor="middle" x="360" y="-501.5" font-family="Helvetica,sans-Serif" font-size="10.00"> </text>
<polyline fill="none" stroke="#bfbfbf" points="295,-494.5 425,-494.5 "/>
<text text-anchor="middle" x="360" y="-482.5" font-family="Helvetica,sans-Serif" font-size="10.00"> </text>
</a>
</g>
</g>
<!-- Node5&#45;&gt;Node2 -->
<g id="edge4" class="edge">
<title>Node5&#45;&gt;Node2</title>
<path fill="none" stroke="#404040" d="M347.03,-475.31C341.81,-461.97 335.4,-445.55 328.48,-427.84"/>
<polygon fill="none" stroke="#404040" points="328.48,-427.84 322.57,-423.71 324.11,-416.67 330.02,-420.8 328.48,-427.84"/>
<text text-anchor="middle" x="397" y="-443.5" font-family="Helvetica,sans-Serif" font-size="10.00"> #colour_attachments_</text>
</g>
<!-- Node6 -->
<g id="node6" class="node">
<title>Node6</title>
<g id="a_node6"><a xlink:title=" ">
<polygon fill="white" stroke="#bfbfbf" points="463,-481 463,-538 511,-538 511,-481 463,-481"/>
<text text-anchor="middle" x="487" y="-526" font-family="Helvetica,sans-Serif" font-size="10.00">GLuint</text>
<polyline fill="none" stroke="#bfbfbf" points="463,-519 511,-519 "/>
<text text-anchor="middle" x="487" y="-507" font-family="Helvetica,sans-Serif" font-size="10.00"> </text>
<polyline fill="none" stroke="#bfbfbf" points="463,-500 511,-500 "/>
<text text-anchor="middle" x="487" y="-488" font-family="Helvetica,sans-Serif" font-size="10.00"> </text>
</a>
</g>
</g>
<!-- Node6&#45;&gt;Node2 -->
<g id="edge5" class="edge">
<title>Node6&#45;&gt;Node2</title>
<path fill="none" stroke="#404040" d="M479.54,-480.75C474.82,-466.28 467.74,-448.78 458,-435 433.16,-399.87 399.44,-367.3 367.18,-340.43"/>
<polygon fill="none" stroke="#404040" points="366.96,-340.24 359.79,-339.53 357.68,-332.64 364.86,-333.35 366.96,-340.24"/>
<text text-anchor="middle" x="494" y="-443.5" font-family="Helvetica,sans-Serif" font-size="10.00"> #handle_</text>
</g>
</g>
</svg>
