<?xml version="1.0" encoding="UTF-8" standalone="no"?>
<!DOCTYPE svg PUBLIC "-//W3C//DTD SVG 1.1//EN"
 "http://www.w3.org/Graphics/SVG/1.1/DTD/svg11.dtd">
<!-- Generated by graphviz version 2.43.0 (0)
 -->
<!-- Title: mkr::texture Pages: 1 -->
<svg width="206pt" height="292pt"
 viewBox="0.00 0.00 206.00 292.00" xmlns="http://www.w3.org/2000/svg" xmlns:xlink="http://www.w3.org/1999/xlink">
<g id="graph0" class="graph" transform="scale(1 1) rotate(0) translate(4 288)">
<title>mkr::texture</title>
<polygon fill="white" stroke="transparent" points="-4,4 -4,-288 202,-288 202,4 -4,4"/>
<!-- Node1 -->
<g id="node1" class="node">
<title>Node1</title>
<g id="a_node1"><a xlink:title=" ">
<polygon fill="#bfbfbf" stroke="black" points="43.5,-116.5 43.5,-283.5 153.5,-283.5 153.5,-116.5 43.5,-116.5"/>
<text text-anchor="middle" x="98.5" y="-271.5" font-family="Helvetica,sans-Serif" font-size="10.00">mkr::texture</text>
<polyline fill="none" stroke="black" points="43.5,-264.5 153.5,-264.5 "/>
<text text-anchor="start" x="51.5" y="-252.5" font-family="Helvetica,sans-Serif" font-size="10.00"># name_</text>
<text text-anchor="start" x="51.5" y="-241.5" font-family="Helvetica,sans-Serif" font-size="10.00"># width_</text>
<text text-anchor="start" x="51.5" y="-230.5" font-family="Helvetica,sans-Serif" font-size="10.00"># height_</text>
<text text-anchor="start" x="51.5" y="-219.5" font-family="Helvetica,sans-Serif" font-size="10.00"># handle_</text>
<polyline fill="none" stroke="black" points="43.5,-212.5 153.5,-212.5 "/>
<text text-anchor="start" x="51.5" y="-200.5" font-family="Helvetica,sans-Serif" font-size="10.00">+ ~texture()</text>
<text text-anchor="start" x="51.5" y="-189.5" font-family="Helvetica,sans-Serif" font-size="10.00">+ name()</text>
<text text-anchor="start" x="51.5" y="-178.5" font-family="Helvetica,sans-Serif" font-size="10.00">+ width()</text>
<text text-anchor="start" x="51.5" y="-167.5" font-family="Helvetica,sans-Serif" font-size="10.00">+ height()</text>
<text text-anchor="start" x="51.5" y="-156.5" font-family="Helvetica,sans-Serif" font-size="10.00">+ handle()</text>
<text text-anchor="start" x="51.5" y="-145.5" font-family="Helvetica,sans-Serif" font-size="10.00">+ bind()</text>
<text text-anchor="start" x="51.5" y="-134.5" font-family="Helvetica,sans-Serif" font-size="10.00"># texture()</text>
<text text-anchor="start" x="51.5" y="-123.5" font-family="Helvetica,sans-Serif" font-size="10.00"># mip_map_level()</text>
</a>
</g>
</g>
<!-- Node2 -->
<g id="node2" class="node">
<title>Node2</title>
<g id="a_node2"><a xlink:href="classmkr_1_1cubemap.html" target="_top" xlink:title=" ">
<polygon fill="white" stroke="black" points="0,-0.5 0,-79.5 89,-79.5 89,-0.5 0,-0.5"/>
<text text-anchor="middle" x="44.5" y="-67.5" font-family="Helvetica,sans-Serif" font-size="10.00">mkr::cubemap</text>
<polyline fill="none" stroke="black" points="0,-60.5 89,-60.5 "/>
<text text-anchor="middle" x="44.5" y="-48.5" font-family="Helvetica,sans-Serif" font-size="10.00"> </text>
<polyline fill="none" stroke="black" points="0,-41.5 89,-41.5 "/>
<text text-anchor="start" x="8" y="-29.5" font-family="Helvetica,sans-Serif" font-size="10.00">+ cubemap()</text>
<text text-anchor="start" x="8" y="-18.5" font-family="Helvetica,sans-Serif" font-size="10.00">+ cubemap()</text>
<text text-anchor="start" x="8" y="-7.5" font-family="Helvetica,sans-Serif" font-size="10.00">+ ~cubemap()</text>
</a>
</g>
</g>
<!-- Node1&#45;&gt;Node2 -->
<g id="edge1" class="edge">
<title>Node1&#45;&gt;Node2</title>
<path fill="none" stroke="midnightblue" d="M66.96,-106.71C63.71,-97.19 60.54,-87.94 57.67,-79.52"/>
<polygon fill="none" stroke="midnightblue" points="63.69,-107.97 70.23,-116.3 70.31,-105.7 63.69,-107.97"/>
</g>
<!-- Node3 -->
<g id="node3" class="node">
<title>Node3</title>
<g id="a_node3"><a xlink:href="classmkr_1_1texture2d.html" target="_top" xlink:title=" ">
<polygon fill="white" stroke="black" points="107,-0.5 107,-79.5 198,-79.5 198,-0.5 107,-0.5"/>
<text text-anchor="middle" x="152.5" y="-67.5" font-family="Helvetica,sans-Serif" font-size="10.00">mkr::texture2d</text>
<polyline fill="none" stroke="black" points="107,-60.5 198,-60.5 "/>
<text text-anchor="middle" x="152.5" y="-48.5" font-family="Helvetica,sans-Serif" font-size="10.00"> </text>
<polyline fill="none" stroke="black" points="107,-41.5 198,-41.5 "/>
<text text-anchor="start" x="115" y="-29.5" font-family="Helvetica,sans-Serif" font-size="10.00">+ texture2d()</text>
<text text-anchor="start" x="115" y="-18.5" font-family="Helvetica,sans-Serif" font-size="10.00">+ texture2d()</text>
<text text-anchor="start" x="115" y="-7.5" font-family="Helvetica,sans-Serif" font-size="10.00">+ ~texture2d()</text>
</a>
</g>
</g>
<!-- Node1&#45;&gt;Node3 -->
<g id="edge2" class="edge">
<title>Node1&#45;&gt;Node3</title>
<path fill="none" stroke="midnightblue" d="M130.04,-106.71C133.29,-97.19 136.46,-87.94 139.33,-79.52"/>
<polygon fill="none" stroke="midnightblue" points="126.69,-105.7 126.77,-116.3 133.31,-107.97 126.69,-105.7"/>
</g>
</g>
</svg>
