<?xml version="1.0" encoding="UTF-8" standalone="no"?>
<!DOCTYPE svg PUBLIC "-//W3C//DTD SVG 1.1//EN"
 "http://www.w3.org/Graphics/SVG/1.1/DTD/svg11.dtd">
<!-- Generated by graphviz version 2.43.0 (0)
 -->
<!-- Title: mkr::graphics_renderer Pages: 1 -->
<!--zoomable 391 -->
<svg id="main" version="1.1" xmlns="http://www.w3.org/2000/svg" xmlns:xlink="http://www.w3.org/1999/xlink" xml:space="preserve" onload="init(evt)">
<style type="text/css"><![CDATA[
.edge:hover path { stroke: red; }
.edge:hover polygon { stroke: red; fill: red; }
]]></style>
<script type="text/javascript"><![CDATA[
var edges = document.getElementsByTagName('g');
if (edges && edges.length) {
  for (var i=0;i<edges.length;i++) {
    if (edges[i].id.substr(0,4)=='edge') {
      edges[i].setAttribute('class','edge');
    }
  }
}
]]></script>
        <defs>
                <circle id="rim" cx="0" cy="0" r="7"/>
                <circle id="rim2" cx="0" cy="0" r="3.5"/>
                <g id="zoomPlus">
                        <use xlink:href="#rim" fill="#404040">
                                <set attributeName="fill" to="#808080" begin="zoomplus.mouseover" end="zoomplus.mouseout"/>
                        </use>
                        <path d="M-4,0h8M0,-4v8" fill="none" stroke="white" stroke-width="1.5" pointer-events="none"/>
                </g>
                <g id="zoomMin">
                        <use xlink:href="#rim" fill="#404040">
                                <set attributeName="fill" to="#808080" begin="zoomminus.mouseover" end="zoomminus.mouseout"/>
                        </use>
                        <path d="M-4,0h8" fill="none" stroke="white" stroke-width="1.5" pointer-events="none"/>
                </g>
                <g id="dirArrow">
                        <path fill="none" stroke="white" stroke-width="1.5" d="M0,-3.0v7 M-2.5,-0.5L0,-3.0L2.5,-0.5"/>
                </g>
               <g id="resetDef">
                       <use xlink:href="#rim2" fill="#404040">
                               <set attributeName="fill" to="#808080" begin="reset.mouseover" end="reset.mouseout"/>
                       </use>
               </g>
        </defs>

<script type="text/javascript">
var viewWidth = 1558;
var viewHeight = 391;
var sectionId = 'dynsection-1';
</script>
<script xlink:href="svgpan.js"/>
<svg id="graph" class="graph">
<g id="viewport">
<title>mkr::graphics_renderer</title>
<polygon fill="white" stroke="transparent" points="-4,4 -4,-387 1554,-387 1554,4 -4,4"/>
<!-- Node1 -->
<g id="node1" class="node">
<title>Node1</title>
<g id="a_node1"><a xlink:title=" ">
<polygon fill="#bfbfbf" stroke="black" points="736,-0.5 736,-200.5 866,-200.5 866,-0.5 736,-0.5"/>
<text text-anchor="middle" x="801" y="-188.5" font-family="Helvetica,sans-Serif" font-size="10.00">mkr::graphics_renderer</text>
<polyline fill="none" stroke="black" points="736,-181.5 866,-181.5 "/>
<text text-anchor="middle" x="801" y="-169.5" font-family="Helvetica,sans-Serif" font-size="10.00"> </text>
<polyline fill="none" stroke="black" points="736,-162.5 866,-162.5 "/>
<text text-anchor="start" x="744" y="-150.5" font-family="Helvetica,sans-Serif" font-size="10.00">+ init()</text>
<text text-anchor="start" x="744" y="-139.5" font-family="Helvetica,sans-Serif" font-size="10.00">+ start()</text>
<text text-anchor="start" x="744" y="-128.5" font-family="Helvetica,sans-Serif" font-size="10.00">+ update()</text>
<text text-anchor="start" x="744" y="-117.5" font-family="Helvetica,sans-Serif" font-size="10.00">+ exit()</text>
<text text-anchor="start" x="744" y="-106.5" font-family="Helvetica,sans-Serif" font-size="10.00">+ submit_camera()</text>
<text text-anchor="start" x="744" y="-95.5" font-family="Helvetica,sans-Serif" font-size="10.00">+ submit_light()</text>
<text text-anchor="start" x="744" y="-84.5" font-family="Helvetica,sans-Serif" font-size="10.00">+ submit_mesh()</text>
<text text-anchor="start" x="744" y="-73.5" font-family="Helvetica,sans-Serif" font-size="10.00">&#45; graphics_renderer()</text>
<text text-anchor="start" x="744" y="-62.5" font-family="Helvetica,sans-Serif" font-size="10.00">&#45; ~graphics_renderer()</text>
<text text-anchor="start" x="744" y="-51.5" font-family="Helvetica,sans-Serif" font-size="10.00">&#45; render()</text>
<text text-anchor="start" x="744" y="-40.5" font-family="Helvetica,sans-Serif" font-size="10.00">&#45; point_shadow()</text>
<text text-anchor="start" x="744" y="-29.5" font-family="Helvetica,sans-Serif" font-size="10.00">&#45; spot_shadow()</text>
<text text-anchor="start" x="744" y="-18.5" font-family="Helvetica,sans-Serif" font-size="10.00">&#45; directional_shadow()</text>
<text text-anchor="start" x="744" y="-7.5" font-family="Helvetica,sans-Serif" font-size="10.00">&#45; forward_pass()</text>
</a>
</g>
</g>
<!-- Node2 -->
<g id="node2" class="node">
<title>Node2</title>
<g id="a_node2"><a xlink:href="classsingleton.html" target="_top" xlink:title=" ">
<polygon fill="white" stroke="black" points="0,-303.5 0,-371.5 114,-371.5 114,-303.5 0,-303.5"/>
<text text-anchor="start" x="8" y="-359.5" font-family="Helvetica,sans-Serif" font-size="10.00">singleton&lt; graphics</text>
<text text-anchor="middle" x="57" y="-348.5" font-family="Helvetica,sans-Serif" font-size="10.00">_renderer &gt;</text>
<polyline fill="none" stroke="black" points="0,-341.5 114,-341.5 "/>
<text text-anchor="middle" x="57" y="-329.5" font-family="Helvetica,sans-Serif" font-size="10.00"> </text>
<polyline fill="none" stroke="black" points="0,-322.5 114,-322.5 "/>
<text text-anchor="middle" x="57" y="-310.5" font-family="Helvetica,sans-Serif" font-size="10.00"> </text>
</a>
</g>
</g>
<!-- Node2&#45;&gt;Node1 -->
<g id="edge1" class="edge">
<title>Node2&#45;&gt;Node1</title>
<path fill="none" stroke="midnightblue" d="M111.27,-297.52C150.08,-271.46 204.53,-238.5 257,-219 423.65,-157.07 631.77,-123.47 735.66,-109.46"/>
<polygon fill="none" stroke="midnightblue" points="109.05,-294.79 102.74,-303.3 112.98,-300.58 109.05,-294.79"/>
</g>
<!-- Node3 -->
<g id="node3" class="node">
<title>Node3</title>
<g id="a_node3"><a xlink:title=" ">
<polygon fill="white" stroke="#bfbfbf" points="132,-298 132,-377 250,-377 250,-298 132,-298"/>
<text text-anchor="start" x="140" y="-365" font-family="Helvetica,sans-Serif" font-size="10.00">priority_queue&lt; mkr</text>
<text text-anchor="start" x="140" y="-354" font-family="Helvetica,sans-Serif" font-size="10.00">::graphics_renderer</text>
<text text-anchor="middle" x="191" y="-343" font-family="Helvetica,sans-Serif" font-size="10.00">::camera_data &gt;</text>
<polyline fill="none" stroke="#bfbfbf" points="132,-336 250,-336 "/>
<text text-anchor="middle" x="191" y="-324" font-family="Helvetica,sans-Serif" font-size="10.00"> </text>
<polyline fill="none" stroke="#bfbfbf" points="132,-317 250,-317 "/>
<text text-anchor="middle" x="191" y="-305" font-family="Helvetica,sans-Serif" font-size="10.00"> </text>
</a>
</g>
</g>
<!-- Node3&#45;&gt;Node1 -->
<g id="edge2" class="edge">
<title>Node3&#45;&gt;Node1</title>
<path fill="none" stroke="#404040" d="M231.75,-297.8C260.94,-272.04 302.3,-239.31 344,-219 469.41,-157.91 630.19,-126.1 723.79,-111.65"/>
<polygon fill="none" stroke="#404040" points="723.84,-111.64 729.17,-106.79 735.7,-109.85 730.37,-114.7 723.84,-111.64"/>
<text text-anchor="middle" x="371.5" y="-244" font-family="Helvetica,sans-Serif" font-size="10.00"> &#45;cameras_</text>
</g>
<!-- Node4 -->
<g id="node4" class="node">
<title>Node4</title>
<g id="a_node4"><a xlink:title=" ">
<polygon fill="white" stroke="#bfbfbf" points="268.5,-303.5 268.5,-371.5 391.5,-371.5 391.5,-303.5 268.5,-303.5"/>
<text text-anchor="start" x="276.5" y="-359.5" font-family="Helvetica,sans-Serif" font-size="10.00">unique_ptr&lt; mkr::app</text>
<text text-anchor="middle" x="330" y="-348.5" font-family="Helvetica,sans-Serif" font-size="10.00">_window &gt;</text>
<polyline fill="none" stroke="#bfbfbf" points="268.5,-341.5 391.5,-341.5 "/>
<text text-anchor="middle" x="330" y="-329.5" font-family="Helvetica,sans-Serif" font-size="10.00"> </text>
<polyline fill="none" stroke="#bfbfbf" points="268.5,-322.5 391.5,-322.5 "/>
<text text-anchor="middle" x="330" y="-310.5" font-family="Helvetica,sans-Serif" font-size="10.00"> </text>
</a>
</g>
</g>
<!-- Node4&#45;&gt;Node1 -->
<g id="edge3" class="edge">
<title>Node4&#45;&gt;Node1</title>
<path fill="none" stroke="#404040" d="M365.61,-303.33C394.65,-277.64 437.65,-242.56 480,-219 558.89,-175.11 657.36,-141.89 724.29,-122.16"/>
<polygon fill="none" stroke="#404040" points="724.48,-122.11 729.12,-116.59 736,-118.75 731.36,-124.27 724.48,-122.11"/>
<text text-anchor="middle" x="516.5" y="-244" font-family="Helvetica,sans-Serif" font-size="10.00"> &#45;app_window_</text>
</g>
<!-- Node5 -->
<g id="node5" class="node">
<title>Node5</title>
<g id="a_node5"><a xlink:title=" ">
<polygon fill="white" stroke="#bfbfbf" points="409.5,-303.5 409.5,-371.5 552.5,-371.5 552.5,-303.5 409.5,-303.5"/>
<text text-anchor="start" x="417.5" y="-359.5" font-family="Helvetica,sans-Serif" font-size="10.00">unique_ptr&lt; mkr::shadow</text>
<text text-anchor="middle" x="481" y="-348.5" font-family="Helvetica,sans-Serif" font-size="10.00">_2d_buffer &gt;</text>
<polyline fill="none" stroke="#bfbfbf" points="409.5,-341.5 552.5,-341.5 "/>
<text text-anchor="middle" x="481" y="-329.5" font-family="Helvetica,sans-Serif" font-size="10.00"> </text>
<polyline fill="none" stroke="#bfbfbf" points="409.5,-322.5 552.5,-322.5 "/>
<text text-anchor="middle" x="481" y="-310.5" font-family="Helvetica,sans-Serif" font-size="10.00"> </text>
</a>
</g>
</g>
<!-- Node5&#45;&gt;Node1 -->
<g id="edge4" class="edge">
<title>Node5&#45;&gt;Node1</title>
<path fill="none" stroke="#404040" d="M518.99,-303.49C547.33,-279.32 587.32,-246.14 624,-219 656.51,-194.95 693.64,-169.95 725.46,-149.22"/>
<polygon fill="none" stroke="#404040" points="725.53,-149.18 728.39,-142.56 735.6,-142.65 732.74,-149.27 725.53,-149.18"/>
<text text-anchor="middle" x="651" y="-244" font-family="Helvetica,sans-Serif" font-size="10.00"> &#45;s2d_buff_</text>
</g>
<!-- Node6 -->
<g id="node6" class="node">
<title>Node6</title>
<g id="a_node6"><a xlink:title=" ">
<polygon fill="white" stroke="#bfbfbf" points="570.5,-309 570.5,-366 713.5,-366 713.5,-309 570.5,-309"/>
<text text-anchor="middle" x="642" y="-354" font-family="Helvetica,sans-Serif" font-size="10.00">unique_ptr&lt; mkr::mesh &gt;</text>
<polyline fill="none" stroke="#bfbfbf" points="570.5,-347 713.5,-347 "/>
<text text-anchor="middle" x="642" y="-335" font-family="Helvetica,sans-Serif" font-size="10.00"> </text>
<polyline fill="none" stroke="#bfbfbf" points="570.5,-328 713.5,-328 "/>
<text text-anchor="middle" x="642" y="-316" font-family="Helvetica,sans-Serif" font-size="10.00"> </text>
</a>
</g>
</g>
<!-- Node6&#45;&gt;Node1 -->
<g id="edge5" class="edge">
<title>Node6&#45;&gt;Node1</title>
<path fill="none" stroke="#404040" d="M659.82,-308.81C675.28,-284.9 698.37,-249.51 719,-219 722.23,-214.23 725.54,-209.36 728.9,-204.45"/>
<polygon fill="none" stroke="#404040" points="729.06,-204.22 729.15,-197.01 735.85,-194.33 735.75,-201.54 729.06,-204.22"/>
<text text-anchor="middle" x="756" y="-249.5" font-family="Helvetica,sans-Serif" font-size="10.00"> &#45;screen_quad_</text>
<text text-anchor="middle" x="756" y="-238.5" font-family="Helvetica,sans-Serif" font-size="10.00">&#45;skybox_cube_</text>
</g>
<!-- Node7 -->
<g id="node7" class="node">
<title>Node7</title>
<g id="a_node7"><a xlink:title=" ">
<polygon fill="white" stroke="#bfbfbf" points="731.5,-292.5 731.5,-382.5 904.5,-382.5 904.5,-292.5 731.5,-292.5"/>
<text text-anchor="start" x="739.5" y="-370.5" font-family="Helvetica,sans-Serif" font-size="10.00">unordered_map&lt; mkr</text>
<text text-anchor="start" x="739.5" y="-359.5" font-family="Helvetica,sans-Serif" font-size="10.00">::material *, std::unordered</text>
<text text-anchor="start" x="739.5" y="-348.5" font-family="Helvetica,sans-Serif" font-size="10.00">_map&lt; mkr::mesh *, std::vector</text>
<text text-anchor="middle" x="818" y="-337.5" font-family="Helvetica,sans-Serif" font-size="10.00">&lt; matrix4x4 &gt; &gt; &gt;</text>
<polyline fill="none" stroke="#bfbfbf" points="731.5,-330.5 904.5,-330.5 "/>
<text text-anchor="middle" x="818" y="-318.5" font-family="Helvetica,sans-Serif" font-size="10.00"> </text>
<polyline fill="none" stroke="#bfbfbf" points="731.5,-311.5 904.5,-311.5 "/>
<text text-anchor="middle" x="818" y="-299.5" font-family="Helvetica,sans-Serif" font-size="10.00"> </text>
</a>
</g>
</g>
<!-- Node7&#45;&gt;Node1 -->
<g id="edge6" class="edge">
<title>Node7&#45;&gt;Node1</title>
<path fill="none" stroke="#404040" d="M805.28,-292.37C803.93,-286.25 802.77,-280 802,-274 799.47,-254.35 798.18,-233.34 797.66,-212.98"/>
<polygon fill="none" stroke="#404040" points="797.65,-212.75 793.54,-206.82 797.43,-200.75 801.54,-206.68 797.65,-212.75"/>
<text text-anchor="middle" x="865.5" y="-266" font-family="Helvetica,sans-Serif" font-size="10.00"> &#45;deferred_meshes_</text>
<text text-anchor="start" x="802" y="-255" font-family="Helvetica,sans-Serif" font-size="10.00">&#45;forward_opaque_meshes</text>
<text text-anchor="middle" x="865.5" y="-244" font-family="Helvetica,sans-Serif" font-size="10.00">_</text>
<text text-anchor="start" x="802" y="-233" font-family="Helvetica,sans-Serif" font-size="10.00">&#45;forward_transparent</text>
<text text-anchor="middle" x="865.5" y="-222" font-family="Helvetica,sans-Serif" font-size="10.00">_meshes_</text>
</g>
<!-- Node8 -->
<g id="node8" class="node">
<title>Node8</title>
<g id="a_node8"><a xlink:title=" ">
<polygon fill="white" stroke="#bfbfbf" points="923,-309 923,-366 979,-366 979,-309 923,-309"/>
<text text-anchor="middle" x="951" y="-354" font-family="Helvetica,sans-Serif" font-size="10.00">uint32_t</text>
<polyline fill="none" stroke="#bfbfbf" points="923,-347 979,-347 "/>
<text text-anchor="middle" x="951" y="-335" font-family="Helvetica,sans-Serif" font-size="10.00"> </text>
<polyline fill="none" stroke="#bfbfbf" points="923,-328 979,-328 "/>
<text text-anchor="middle" x="951" y="-316" font-family="Helvetica,sans-Serif" font-size="10.00"> </text>
</a>
</g>
</g>
<!-- Node8&#45;&gt;Node1 -->
<g id="edge7" class="edge">
<title>Node8&#45;&gt;Node1</title>
<path fill="none" stroke="#404040" d="M950.69,-308.71C949.32,-283.79 944.51,-246.95 929,-219 915.67,-194.98 895.63,-173.19 875.34,-155.07"/>
<polygon fill="none" stroke="#404040" points="875.1,-154.86 867.94,-153.96 866.02,-147.01 873.18,-147.91 875.1,-154.86"/>
<text text-anchor="middle" x="989" y="-249.5" font-family="Helvetica,sans-Serif" font-size="10.00"> &#45;window_height_</text>
<text text-anchor="middle" x="989" y="-238.5" font-family="Helvetica,sans-Serif" font-size="10.00">&#45;window_width_</text>
</g>
<!-- Node9 -->
<g id="node9" class="node">
<title>Node9</title>
<g id="a_node9"><a xlink:title=" ">
<polygon fill="white" stroke="#bfbfbf" points="997.5,-303.5 997.5,-371.5 1126.5,-371.5 1126.5,-303.5 997.5,-303.5"/>
<text text-anchor="start" x="1005.5" y="-359.5" font-family="Helvetica,sans-Serif" font-size="10.00">vector&lt; mkr::graphics</text>
<text text-anchor="middle" x="1062" y="-348.5" font-family="Helvetica,sans-Serif" font-size="10.00">_renderer::light_data &gt;</text>
<polyline fill="none" stroke="#bfbfbf" points="997.5,-341.5 1126.5,-341.5 "/>
<text text-anchor="middle" x="1062" y="-329.5" font-family="Helvetica,sans-Serif" font-size="10.00"> </text>
<polyline fill="none" stroke="#bfbfbf" points="997.5,-322.5 1126.5,-322.5 "/>
<text text-anchor="middle" x="1062" y="-310.5" font-family="Helvetica,sans-Serif" font-size="10.00"> </text>
</a>
</g>
</g>
<!-- Node9&#45;&gt;Node1 -->
<g id="edge8" class="edge">
<title>Node9&#45;&gt;Node1</title>
<path fill="none" stroke="#404040" d="M1062.12,-303.38C1060.58,-277.89 1054.76,-243.05 1036,-219 996.68,-168.59 929.98,-138.16 877.66,-120.94"/>
<polygon fill="none" stroke="#404040" points="877.5,-120.89 870.57,-122.89 866.06,-117.26 872.99,-115.26 877.5,-120.89"/>
<text text-anchor="middle" x="1078" y="-244" font-family="Helvetica,sans-Serif" font-size="10.00"> &#45;lights_</text>
</g>
<!-- Node10 -->
<g id="node10" class="node">
<title>Node10</title>
<g id="a_node10"><a xlink:title=" ">
<polygon fill="white" stroke="#bfbfbf" points="1144.5,-303.5 1144.5,-371.5 1287.5,-371.5 1287.5,-303.5 1144.5,-303.5"/>
<text text-anchor="start" x="1152.5" y="-359.5" font-family="Helvetica,sans-Serif" font-size="10.00">unique_ptr&lt; mkr::forward</text>
<text text-anchor="middle" x="1216" y="-348.5" font-family="Helvetica,sans-Serif" font-size="10.00">_buffer &gt;</text>
<polyline fill="none" stroke="#bfbfbf" points="1144.5,-341.5 1287.5,-341.5 "/>
<text text-anchor="middle" x="1216" y="-329.5" font-family="Helvetica,sans-Serif" font-size="10.00"> </text>
<polyline fill="none" stroke="#bfbfbf" points="1144.5,-322.5 1287.5,-322.5 "/>
<text text-anchor="middle" x="1216" y="-310.5" font-family="Helvetica,sans-Serif" font-size="10.00"> </text>
</a>
</g>
</g>
<!-- Node10&#45;&gt;Node1 -->
<g id="edge9" class="edge">
<title>Node10&#45;&gt;Node1</title>
<path fill="none" stroke="#404040" d="M1190.53,-303.31C1169.23,-277.43 1136.8,-242.12 1102,-219 1032.17,-172.61 941.29,-140.34 877.73,-121.51"/>
<polygon fill="none" stroke="#404040" points="877.72,-121.51 870.84,-123.67 866.2,-118.15 873.07,-115.99 877.72,-121.51"/>
<text text-anchor="middle" x="1182" y="-244" font-family="Helvetica,sans-Serif" font-size="10.00"> &#45;f_buff_</text>
</g>
<!-- Node11 -->
<g id="node11" class="node">
<title>Node11</title>
<g id="a_node11"><a xlink:title=" ">
<polygon fill="white" stroke="#bfbfbf" points="1305.5,-303.5 1305.5,-371.5 1448.5,-371.5 1448.5,-303.5 1305.5,-303.5"/>
<text text-anchor="start" x="1313.5" y="-359.5" font-family="Helvetica,sans-Serif" font-size="10.00">unique_ptr&lt; mkr::shadow</text>
<text text-anchor="middle" x="1377" y="-348.5" font-family="Helvetica,sans-Serif" font-size="10.00">_cubemap_buffer &gt;</text>
<polyline fill="none" stroke="#bfbfbf" points="1305.5,-341.5 1448.5,-341.5 "/>
<text text-anchor="middle" x="1377" y="-329.5" font-family="Helvetica,sans-Serif" font-size="10.00"> </text>
<polyline fill="none" stroke="#bfbfbf" points="1305.5,-322.5 1448.5,-322.5 "/>
<text text-anchor="middle" x="1377" y="-310.5" font-family="Helvetica,sans-Serif" font-size="10.00"> </text>
</a>
</g>
</g>
<!-- Node11&#45;&gt;Node1 -->
<g id="edge10" class="edge">
<title>Node11&#45;&gt;Node1</title>
<path fill="none" stroke="#404040" d="M1336.76,-303.32C1303.47,-277.28 1254.02,-241.74 1206,-219 1097.37,-167.56 961.5,-133.78 878.01,-116.15"/>
<polygon fill="none" stroke="#404040" points="877.83,-116.12 871.14,-118.81 866.08,-113.67 872.77,-110.98 877.83,-116.12"/>
<text text-anchor="middle" x="1325.5" y="-244" font-family="Helvetica,sans-Serif" font-size="10.00"> &#45;scube_buff_</text>
</g>
<!-- Node12 -->
<g id="node12" class="node">
<title>Node12</title>
<g id="a_node12"><a xlink:title=" ">
<polygon fill="white" stroke="#bfbfbf" points="1466.5,-309 1466.5,-366 1533.5,-366 1533.5,-309 1466.5,-309"/>
<text text-anchor="middle" x="1500" y="-354" font-family="Helvetica,sans-Serif" font-size="10.00">matrix4x4</text>
<polyline fill="none" stroke="#bfbfbf" points="1466.5,-347 1533.5,-347 "/>
<text text-anchor="middle" x="1500" y="-335" font-family="Helvetica,sans-Serif" font-size="10.00"> </text>
<polyline fill="none" stroke="#bfbfbf" points="1466.5,-328 1533.5,-328 "/>
<text text-anchor="middle" x="1500" y="-316" font-family="Helvetica,sans-Serif" font-size="10.00"> </text>
</a>
</g>
</g>
<!-- Node12&#45;&gt;Node1 -->
<g id="edge11" class="edge">
<title>Node12&#45;&gt;Node1</title>
<path fill="none" stroke="#404040" d="M1476.37,-308.92C1451.05,-281.35 1408.23,-240.11 1362,-219 1199.71,-144.91 989.6,-116.96 878.23,-106.87"/>
<polygon fill="none" stroke="#404040" points="878.08,-106.86 871.76,-110.32 866.13,-105.81 872.46,-102.35 878.08,-106.86"/>
<text text-anchor="start" x="1438" y="-249.5" font-family="Helvetica,sans-Serif" font-size="10.00"> &#45;light_view_projection</text>
<text text-anchor="middle" x="1494" y="-238.5" font-family="Helvetica,sans-Serif" font-size="10.00">_matrix_</text>
</g>
</g>
</svg>
        <g id="navigator" transform="translate(0 0)" fill="#404254">
                <rect fill="#f2f5e9" fill-opacity="0.5" stroke="#606060" stroke-width=".5" x="0" y="0" width="60" height="60"/>
                <use id="zoomplus" xlink:href="#zoomPlus" x="17" y="9" onmousedown="handleZoom(evt,'in')"/>
                <use id="zoomminus" xlink:href="#zoomMin" x="42" y="9" onmousedown="handleZoom(evt,'out')"/>
                <use id="reset" xlink:href="#resetDef" x="30" y="36" onmousedown="handleReset()"/>
                <g id="arrowUp" xlink:href="#dirArrow" transform="translate(30 24)" onmousedown="handlePan(0,-1)">
                  <use xlink:href="#rim" fill="#404040">
                        <set attributeName="fill" to="#808080" begin="arrowUp.mouseover" end="arrowUp.mouseout"/>
                  </use>
                  <path fill="none" stroke="white" stroke-width="1.5" d="M0,-3.0v7 M-2.5,-0.5L0,-3.0L2.5,-0.5"/>
                </g>
                <g id="arrowRight" xlink:href="#dirArrow" transform="rotate(90) translate(36 -43)" onmousedown="handlePan(1,0)">
                  <use xlink:href="#rim" fill="#404040">
                        <set attributeName="fill" to="#808080" begin="arrowRight.mouseover" end="arrowRight.mouseout"/>
                  </use>
                  <path fill="none" stroke="white" stroke-width="1.5" d="M0,-3.0v7 M-2.5,-0.5L0,-3.0L2.5,-0.5"/>
                </g>
                <g id="arrowDown" xlink:href="#dirArrow" transform="rotate(180) translate(-30 -48)" onmousedown="handlePan(0,1)">
                  <use xlink:href="#rim" fill="#404040">
                        <set attributeName="fill" to="#808080" begin="arrowDown.mouseover" end="arrowDown.mouseout"/>
                  </use>
                  <path fill="none" stroke="white" stroke-width="1.5" d="M0,-3.0v7 M-2.5,-0.5L0,-3.0L2.5,-0.5"/>
                </g>
                <g id="arrowLeft" xlink:href="#dirArrow" transform="rotate(270) translate(-36 17)" onmousedown="handlePan(-1,0)">
                  <use xlink:href="#rim" fill="#404040">
                        <set attributeName="fill" to="#808080" begin="arrowLeft.mouseover" end="arrowLeft.mouseout"/>
                  </use>
                  <path fill="none" stroke="white" stroke-width="1.5" d="M0,-3.0v7 M-2.5,-0.5L0,-3.0L2.5,-0.5"/>
                </g>
        </g>
        <svg viewBox="0 0 15 15" width="100%" height="30px" preserveAspectRatio="xMaxYMin meet">
         <g id="arrow_out" transform="scale(0.3 0.3)">
          <a xlink:href="classmkr_1_1graphics__renderer__coll__graph_org.svg" target="_base">
           <rect id="button" ry="5" rx="5" y="6" x="6" height="38" width="38"
                fill="#f2f5e9" fill-opacity="0.5" stroke="#606060" stroke-width="1.0"/>
           <path id="arrow"
             d="M 11.500037,31.436501 C 11.940474,20.09759 22.043105,11.32322 32.158766,21.979434 L 37.068811,17.246167 C 37.068811,17.246167 37.088388,32 37.088388,32 L 22.160133,31.978069 C 22.160133,31.978069 26.997745,27.140456 26.997745,27.140456 C 18.528582,18.264221 13.291696,25.230495 11.500037,31.436501 z"
             style="fill:#404040;"/>
          </a>
         </g>
        </svg>
</svg>
