<?xml version="1.0" encoding="UTF-8" standalone="no"?>
<!DOCTYPE svg PUBLIC "-//W3C//DTD SVG 1.1//EN"
 "http://www.w3.org/Graphics/SVG/1.1/DTD/svg11.dtd">
<!-- Generated by graphviz version 2.43.0 (0)
 -->
<!-- Title: mkr::scene_manager Pages: 1 -->
<svg width="169pt" height="215pt"
 viewBox="0.00 0.00 169.00 215.00" xmlns="http://www.w3.org/2000/svg" xmlns:xlink="http://www.w3.org/1999/xlink">
<g id="graph0" class="graph" transform="scale(1 1) rotate(0) translate(4 211)">
<title>mkr::scene_manager</title>
<polygon fill="white" stroke="transparent" points="-4,4 -4,-211 165,-211 165,4 -4,4"/>
<!-- Node1 -->
<g id="node1" class="node">
<title>Node1</title>
<g id="a_node1"><a xlink:title=" ">
<polygon fill="#bfbfbf" stroke="black" points="21,-0.5 21,-112.5 140,-112.5 140,-0.5 21,-0.5"/>
<text text-anchor="middle" x="80.5" y="-100.5" font-family="Helvetica,sans-Serif" font-size="10.00">mkr::scene_manager</text>
<polyline fill="none" stroke="black" points="21,-93.5 140,-93.5 "/>
<text text-anchor="start" x="29" y="-81.5" font-family="Helvetica,sans-Serif" font-size="10.00">&#45; scene_</text>
<polyline fill="none" stroke="black" points="21,-74.5 140,-74.5 "/>
<text text-anchor="start" x="29" y="-62.5" font-family="Helvetica,sans-Serif" font-size="10.00">+ active_scene()</text>
<text text-anchor="start" x="29" y="-51.5" font-family="Helvetica,sans-Serif" font-size="10.00">+ init()</text>
<text text-anchor="start" x="29" y="-40.5" font-family="Helvetica,sans-Serif" font-size="10.00">+ update()</text>
<text text-anchor="start" x="29" y="-29.5" font-family="Helvetica,sans-Serif" font-size="10.00">+ exit()</text>
<text text-anchor="start" x="29" y="-18.5" font-family="Helvetica,sans-Serif" font-size="10.00">&#45; scene_manager()</text>
<text text-anchor="start" x="29" y="-7.5" font-family="Helvetica,sans-Serif" font-size="10.00">&#45; ~scene_manager()</text>
</a>
</g>
</g>
<!-- Node2 -->
<g id="node2" class="node">
<title>Node2</title>
<g id="a_node2"><a xlink:href="classsingleton.html" target="_top" xlink:title=" ">
<polygon fill="white" stroke="black" points="0,-149.5 0,-206.5 161,-206.5 161,-149.5 0,-149.5"/>
<text text-anchor="middle" x="80.5" y="-194.5" font-family="Helvetica,sans-Serif" font-size="10.00">singleton&lt; scene_manager &gt;</text>
<polyline fill="none" stroke="black" points="0,-187.5 161,-187.5 "/>
<text text-anchor="middle" x="80.5" y="-175.5" font-family="Helvetica,sans-Serif" font-size="10.00"> </text>
<polyline fill="none" stroke="black" points="0,-168.5 161,-168.5 "/>
<text text-anchor="middle" x="80.5" y="-156.5" font-family="Helvetica,sans-Serif" font-size="10.00"> </text>
</a>
</g>
</g>
<!-- Node2&#45;&gt;Node1 -->
<g id="edge1" class="edge">
<title>Node2&#45;&gt;Node1</title>
<path fill="none" stroke="midnightblue" d="M80.5,-139.11C80.5,-130.75 80.5,-121.73 80.5,-112.83"/>
<polygon fill="none" stroke="midnightblue" points="77,-139.28 80.5,-149.28 84,-139.28 77,-139.28"/>
</g>
</g>
</svg>
