<?xml version="1.0" encoding="UTF-8" standalone="no"?>
<!DOCTYPE svg PUBLIC "-//W3C//DTD SVG 1.1//EN"
 "http://www.w3.org/Graphics/SVG/1.1/DTD/svg11.dtd">
<!-- Generated by graphviz version 2.43.0 (0)
 -->
<!-- Title: mkr::material Pages: 1 -->
<!--zoomable 1185 -->
<svg id="main" version="1.1" xmlns="http://www.w3.org/2000/svg" xmlns:xlink="http://www.w3.org/1999/xlink" xml:space="preserve" onload="init(evt)">
<style type="text/css"><![CDATA[
.edge:hover path { stroke: red; }
.edge:hover polygon { stroke: red; fill: red; }
]]></style>
<script type="text/javascript"><![CDATA[
var edges = document.getElementsByTagName('g');
if (edges && edges.length) {
  for (var i=0;i<edges.length;i++) {
    if (edges[i].id.substr(0,4)=='edge') {
      edges[i].setAttribute('class','edge');
    }
  }
}
]]></script>
        <defs>
                <circle id="rim" cx="0" cy="0" r="7"/>
                <circle id="rim2" cx="0" cy="0" r="3.5"/>
                <g id="zoomPlus">
                        <use xlink:href="#rim" fill="#404040">
                                <set attributeName="fill" to="#808080" begin="zoomplus.mouseover" end="zoomplus.mouseout"/>
                        </use>
                        <path d="M-4,0h8M0,-4v8" fill="none" stroke="white" stroke-width="1.5" pointer-events="none"/>
                </g>
                <g id="zoomMin">
                        <use xlink:href="#rim" fill="#404040">
                                <set attributeName="fill" to="#808080" begin="zoomminus.mouseover" end="zoomminus.mouseout"/>
                        </use>
                        <path d="M-4,0h8" fill="none" stroke="white" stroke-width="1.5" pointer-events="none"/>
                </g>
                <g id="dirArrow">
                        <path fill="none" stroke="white" stroke-width="1.5" d="M0,-3.0v7 M-2.5,-0.5L0,-3.0L2.5,-0.5"/>
                </g>
               <g id="resetDef">
                       <use xlink:href="#rim2" fill="#404040">
                               <set attributeName="fill" to="#808080" begin="reset.mouseover" end="reset.mouseout"/>
                       </use>
               </g>
        </defs>

<script type="text/javascript">
var viewWidth = 881;
var viewHeight = 1185;
var sectionId = 'dynsection-0';
</script>
<script xlink:href="svgpan.js"/>
<svg id="graph" class="graph">
<g id="viewport">
<title>mkr::material</title>
<polygon fill="white" stroke="transparent" points="-4,4 -4,-1181 876.5,-1181 876.5,4 -4,4"/>
<!-- Node1 -->
<g id="node1" class="node">
<title>Node1</title>
<g id="a_node1"><a xlink:title=" ">
<polygon fill="#bfbfbf" stroke="black" points="418,-0.5 418,-68.5 503,-68.5 503,-0.5 418,-0.5"/>
<text text-anchor="middle" x="460.5" y="-56.5" font-family="Helvetica,sans-Serif" font-size="10.00">mkr::material</text>
<polyline fill="none" stroke="black" points="418,-49.5 503,-49.5 "/>
<text text-anchor="middle" x="460.5" y="-37.5" font-family="Helvetica,sans-Serif" font-size="10.00"> </text>
<polyline fill="none" stroke="black" points="418,-30.5 503,-30.5 "/>
<text text-anchor="start" x="426" y="-18.5" font-family="Helvetica,sans-Serif" font-size="10.00">+ material()</text>
<text text-anchor="start" x="426" y="-7.5" font-family="Helvetica,sans-Serif" font-size="10.00">+ ~material()</text>
</a>
</g>
</g>
<!-- Node2 -->
<g id="node2" class="node">
<title>Node2</title>
<g id="a_node2"><a xlink:title=" ">
<polygon fill="white" stroke="#bfbfbf" points="0,-193.5 0,-250.5 75,-250.5 75,-193.5 0,-193.5"/>
<text text-anchor="middle" x="37.5" y="-238.5" font-family="Helvetica,sans-Serif" font-size="10.00">render_path</text>
<polyline fill="none" stroke="#bfbfbf" points="0,-231.5 75,-231.5 "/>
<text text-anchor="middle" x="37.5" y="-219.5" font-family="Helvetica,sans-Serif" font-size="10.00"> </text>
<polyline fill="none" stroke="#bfbfbf" points="0,-212.5 75,-212.5 "/>
<text text-anchor="middle" x="37.5" y="-200.5" font-family="Helvetica,sans-Serif" font-size="10.00"> </text>
</a>
</g>
</g>
<!-- Node2&#45;&gt;Node1 -->
<g id="edge1" class="edge">
<title>Node2&#45;&gt;Node1</title>
<path fill="none" stroke="#404040" d="M30.68,-193.33C25.02,-163.01 21.69,-114.97 48.5,-87 72.82,-61.63 299.2,-45.02 405.66,-38.55"/>
<polygon fill="none" stroke="#404040" points="405.74,-38.55 411.49,-34.2 417.72,-37.83 411.97,-42.18 405.74,-38.55"/>
<text text-anchor="middle" x="86.5" y="-123" font-family="Helvetica,sans-Serif" font-size="10.00"> +render_path_</text>
</g>
<!-- Node3 -->
<g id="node3" class="node">
<title>Node3</title>
<g id="a_node3"><a xlink:href="classmkr_1_1texture__2d.html" target="_top" xlink:title=" ">
<polygon fill="white" stroke="black" points="117.5,-182.5 117.5,-261.5 213.5,-261.5 213.5,-182.5 117.5,-182.5"/>
<text text-anchor="middle" x="165.5" y="-249.5" font-family="Helvetica,sans-Serif" font-size="10.00">mkr::texture_2d</text>
<polyline fill="none" stroke="black" points="117.5,-242.5 213.5,-242.5 "/>
<text text-anchor="middle" x="165.5" y="-230.5" font-family="Helvetica,sans-Serif" font-size="10.00"> </text>
<polyline fill="none" stroke="black" points="117.5,-223.5 213.5,-223.5 "/>
<text text-anchor="start" x="125.5" y="-211.5" font-family="Helvetica,sans-Serif" font-size="10.00">+ texture_2d()</text>
<text text-anchor="start" x="125.5" y="-200.5" font-family="Helvetica,sans-Serif" font-size="10.00">+ texture_2d()</text>
<text text-anchor="start" x="125.5" y="-189.5" font-family="Helvetica,sans-Serif" font-size="10.00">+ ~texture_2d()</text>
</a>
</g>
</g>
<!-- Node3&#45;&gt;Node1 -->
<g id="edge2" class="edge">
<title>Node3&#45;&gt;Node1</title>
<path fill="none" stroke="#404040" d="M143.07,-182.3C129.3,-152.91 118.17,-113.21 140.5,-87 173.95,-47.73 323.62,-38.3 405.88,-36.1"/>
<polygon fill="none" stroke="#404040" points="405.99,-36.1 411.9,-31.96 417.99,-35.82 412.09,-39.96 405.99,-36.1"/>
<text text-anchor="middle" x="198" y="-156" font-family="Helvetica,sans-Serif" font-size="10.00"> +texture_albedo_</text>
<text text-anchor="start" x="140.5" y="-145" font-family="Helvetica,sans-Serif" font-size="10.00">+texture_displacement</text>
<text text-anchor="middle" x="198" y="-134" font-family="Helvetica,sans-Serif" font-size="10.00">_</text>
<text text-anchor="middle" x="198" y="-123" font-family="Helvetica,sans-Serif" font-size="10.00">+texture_gloss_</text>
<text text-anchor="start" x="140.5" y="-112" font-family="Helvetica,sans-Serif" font-size="10.00">+texture_normal</text>
<text text-anchor="middle" x="198" y="-101" font-family="Helvetica,sans-Serif" font-size="10.00">_</text>
<text text-anchor="middle" x="198" y="-90" font-family="Helvetica,sans-Serif" font-size="10.00">+texture_specular_</text>
</g>
<!-- Node4 -->
<g id="node4" class="node">
<title>Node4</title>
<g id="a_node4"><a xlink:href="classmkr_1_1texture.html" target="_top" xlink:title=" ">
<polygon fill="white" stroke="black" points="142.5,-607.5 142.5,-752.5 252.5,-752.5 252.5,-607.5 142.5,-607.5"/>
<text text-anchor="middle" x="197.5" y="-740.5" font-family="Helvetica,sans-Serif" font-size="10.00">mkr::texture</text>
<polyline fill="none" stroke="black" points="142.5,-733.5 252.5,-733.5 "/>
<text text-anchor="middle" x="197.5" y="-721.5" font-family="Helvetica,sans-Serif" font-size="10.00"> </text>
<polyline fill="none" stroke="black" points="142.5,-714.5 252.5,-714.5 "/>
<text text-anchor="start" x="150.5" y="-702.5" font-family="Helvetica,sans-Serif" font-size="10.00">+ ~texture()</text>
<text text-anchor="start" x="150.5" y="-691.5" font-family="Helvetica,sans-Serif" font-size="10.00">+ name()</text>
<text text-anchor="start" x="150.5" y="-680.5" font-family="Helvetica,sans-Serif" font-size="10.00">+ width()</text>
<text text-anchor="start" x="150.5" y="-669.5" font-family="Helvetica,sans-Serif" font-size="10.00">+ height()</text>
<text text-anchor="start" x="150.5" y="-658.5" font-family="Helvetica,sans-Serif" font-size="10.00">+ wrap_mode()</text>
<text text-anchor="start" x="150.5" y="-647.5" font-family="Helvetica,sans-Serif" font-size="10.00">+ handle()</text>
<text text-anchor="start" x="150.5" y="-636.5" font-family="Helvetica,sans-Serif" font-size="10.00">+ bind()</text>
<text text-anchor="start" x="150.5" y="-625.5" font-family="Helvetica,sans-Serif" font-size="10.00"># texture()</text>
<text text-anchor="start" x="150.5" y="-614.5" font-family="Helvetica,sans-Serif" font-size="10.00"># mip_map_level()</text>
</a>
</g>
</g>
<!-- Node4&#45;&gt;Node3 -->
<g id="edge3" class="edge">
<title>Node4&#45;&gt;Node3</title>
<path fill="none" stroke="midnightblue" d="M191.76,-597.24C184.82,-498.25 173.4,-335.65 168.22,-261.73"/>
<polygon fill="none" stroke="midnightblue" points="188.29,-597.77 192.48,-607.5 195.27,-597.28 188.29,-597.77"/>
</g>
<!-- Node5 -->
<g id="node5" class="node">
<title>Node5</title>
<g id="a_node5"><a xlink:title=" ">
<polygon fill="white" stroke="#bfbfbf" points="37.5,-1119.5 37.5,-1176.5 151.5,-1176.5 151.5,-1119.5 37.5,-1119.5"/>
<text text-anchor="middle" x="94.5" y="-1164.5" font-family="Helvetica,sans-Serif" font-size="10.00">texture_wrap_mode</text>
<polyline fill="none" stroke="#bfbfbf" points="37.5,-1157.5 151.5,-1157.5 "/>
<text text-anchor="middle" x="94.5" y="-1145.5" font-family="Helvetica,sans-Serif" font-size="10.00"> </text>
<polyline fill="none" stroke="#bfbfbf" points="37.5,-1138.5 151.5,-1138.5 "/>
<text text-anchor="middle" x="94.5" y="-1126.5" font-family="Helvetica,sans-Serif" font-size="10.00"> </text>
</a>
</g>
</g>
<!-- Node5&#45;&gt;Node4 -->
<g id="edge4" class="edge">
<title>Node5&#45;&gt;Node4</title>
<path fill="none" stroke="#404040" d="M100.63,-1119.25C115.77,-1050.76 155.39,-871.54 179,-764.69"/>
<polygon fill="none" stroke="#404040" points="179.07,-764.39 176.46,-757.67 181.66,-752.67 184.27,-759.39 179.07,-764.39"/>
<text text-anchor="middle" x="146.5" y="-1087.5" font-family="Helvetica,sans-Serif" font-size="10.00"> #wrap_mode_</text>
</g>
<!-- Node6 -->
<g id="node6" class="node">
<title>Node6</title>
<g id="a_node6"><a xlink:title=" ">
<polygon fill="white" stroke="#bfbfbf" points="169.5,-1119.5 169.5,-1176.5 225.5,-1176.5 225.5,-1119.5 169.5,-1119.5"/>
<text text-anchor="middle" x="197.5" y="-1164.5" font-family="Helvetica,sans-Serif" font-size="10.00">uint32_t</text>
<polyline fill="none" stroke="#bfbfbf" points="169.5,-1157.5 225.5,-1157.5 "/>
<text text-anchor="middle" x="197.5" y="-1145.5" font-family="Helvetica,sans-Serif" font-size="10.00"> </text>
<polyline fill="none" stroke="#bfbfbf" points="169.5,-1138.5 225.5,-1138.5 "/>
<text text-anchor="middle" x="197.5" y="-1126.5" font-family="Helvetica,sans-Serif" font-size="10.00"> </text>
</a>
</g>
</g>
<!-- Node6&#45;&gt;Node4 -->
<g id="edge5" class="edge">
<title>Node6&#45;&gt;Node4</title>
<path fill="none" stroke="#404040" d="M197.5,-1119.25C197.5,-1050.76 197.5,-871.54 197.5,-764.69"/>
<polygon fill="none" stroke="#404040" points="197.5,-764.67 193.5,-758.67 197.5,-752.67 201.5,-758.67 197.5,-764.67"/>
<text text-anchor="middle" x="221.5" y="-1093" font-family="Helvetica,sans-Serif" font-size="10.00"> #height_</text>
<text text-anchor="middle" x="221.5" y="-1082" font-family="Helvetica,sans-Serif" font-size="10.00">#width_</text>
</g>
<!-- Node7 -->
<g id="node7" class="node">
<title>Node7</title>
<g id="a_node7"><a xlink:title=" ">
<polygon fill="white" stroke="#bfbfbf" points="297.5,-1119.5 297.5,-1176.5 341.5,-1176.5 341.5,-1119.5 297.5,-1119.5"/>
<text text-anchor="middle" x="319.5" y="-1164.5" font-family="Helvetica,sans-Serif" font-size="10.00">string</text>
<polyline fill="none" stroke="#bfbfbf" points="297.5,-1157.5 341.5,-1157.5 "/>
<text text-anchor="middle" x="319.5" y="-1145.5" font-family="Helvetica,sans-Serif" font-size="10.00"> </text>
<polyline fill="none" stroke="#bfbfbf" points="297.5,-1138.5 341.5,-1138.5 "/>
<text text-anchor="middle" x="319.5" y="-1126.5" font-family="Helvetica,sans-Serif" font-size="10.00"> </text>
</a>
</g>
</g>
<!-- Node7&#45;&gt;Node4 -->
<g id="edge6" class="edge">
<title>Node7&#45;&gt;Node4</title>
<path fill="none" stroke="#404040" d="M297.38,-1131.97C287.3,-1123.95 276.15,-1113.23 269.5,-1101 211.83,-995.03 198.41,-853.63 196.28,-764.95"/>
<polygon fill="none" stroke="#404040" points="196.27,-764.79 192.16,-758.87 196.05,-752.79 200.16,-758.72 196.27,-764.79"/>
<text text-anchor="middle" x="292" y="-1087.5" font-family="Helvetica,sans-Serif" font-size="10.00"> #name_</text>
</g>
<!-- Node12 -->
<g id="node12" class="node">
<title>Node12</title>
<g id="a_node12"><a xlink:href="classmkr_1_1shader__program.html" target="_top" xlink:title=" ">
<polygon fill="white" stroke="black" points="520.5,-299.5 520.5,-1060.5 654.5,-1060.5 654.5,-299.5 520.5,-299.5"/>
<text text-anchor="middle" x="587.5" y="-1048.5" font-family="Helvetica,sans-Serif" font-size="10.00">mkr::shader_program</text>
<polyline fill="none" stroke="black" points="520.5,-1041.5 654.5,-1041.5 "/>
<text text-anchor="middle" x="587.5" y="-1029.5" font-family="Helvetica,sans-Serif" font-size="10.00"> </text>
<polyline fill="none" stroke="black" points="520.5,-1022.5 654.5,-1022.5 "/>
<text text-anchor="start" x="528.5" y="-1010.5" font-family="Helvetica,sans-Serif" font-size="10.00">+ shader_program()</text>
<text text-anchor="start" x="528.5" y="-999.5" font-family="Helvetica,sans-Serif" font-size="10.00">+ ~shader_program()</text>
<text text-anchor="start" x="528.5" y="-988.5" font-family="Helvetica,sans-Serif" font-size="10.00">+ name()</text>
<text text-anchor="start" x="528.5" y="-977.5" font-family="Helvetica,sans-Serif" font-size="10.00">+ use()</text>
<text text-anchor="start" x="528.5" y="-966.5" font-family="Helvetica,sans-Serif" font-size="10.00">+ set_uniform()</text>
<text text-anchor="start" x="528.5" y="-955.5" font-family="Helvetica,sans-Serif" font-size="10.00">+ set_uniform()</text>
<text text-anchor="start" x="528.5" y="-944.5" font-family="Helvetica,sans-Serif" font-size="10.00">+ set_uniform()</text>
<text text-anchor="start" x="528.5" y="-933.5" font-family="Helvetica,sans-Serif" font-size="10.00">+ set_uniform()</text>
<text text-anchor="start" x="528.5" y="-922.5" font-family="Helvetica,sans-Serif" font-size="10.00">+ set_uniform()</text>
<text text-anchor="start" x="528.5" y="-911.5" font-family="Helvetica,sans-Serif" font-size="10.00">+ set_uniform()</text>
<text text-anchor="start" x="528.5" y="-900.5" font-family="Helvetica,sans-Serif" font-size="10.00">+ set_uniform()</text>
<text text-anchor="start" x="528.5" y="-889.5" font-family="Helvetica,sans-Serif" font-size="10.00">+ set_uniform()</text>
<text text-anchor="start" x="528.5" y="-878.5" font-family="Helvetica,sans-Serif" font-size="10.00">+ set_uniform()</text>
<text text-anchor="start" x="528.5" y="-867.5" font-family="Helvetica,sans-Serif" font-size="10.00">+ set_uniform()</text>
<text text-anchor="start" x="528.5" y="-856.5" font-family="Helvetica,sans-Serif" font-size="10.00">+ set_uniform()</text>
<text text-anchor="start" x="528.5" y="-845.5" font-family="Helvetica,sans-Serif" font-size="10.00">+ set_uniform()</text>
<text text-anchor="start" x="528.5" y="-834.5" font-family="Helvetica,sans-Serif" font-size="10.00">+ set_uniform()</text>
<text text-anchor="start" x="528.5" y="-823.5" font-family="Helvetica,sans-Serif" font-size="10.00">+ set_uniform()</text>
<text text-anchor="start" x="528.5" y="-812.5" font-family="Helvetica,sans-Serif" font-size="10.00">+ set_uniform()</text>
<text text-anchor="start" x="528.5" y="-801.5" font-family="Helvetica,sans-Serif" font-size="10.00">+ set_uniform()</text>
<text text-anchor="start" x="528.5" y="-790.5" font-family="Helvetica,sans-Serif" font-size="10.00">+ set_uniform()</text>
<text text-anchor="start" x="528.5" y="-779.5" font-family="Helvetica,sans-Serif" font-size="10.00">+ set_uniform()</text>
<text text-anchor="start" x="528.5" y="-768.5" font-family="Helvetica,sans-Serif" font-size="10.00">+ set_uniform()</text>
<text text-anchor="start" x="528.5" y="-757.5" font-family="Helvetica,sans-Serif" font-size="10.00">+ set_uniform()</text>
<text text-anchor="start" x="528.5" y="-746.5" font-family="Helvetica,sans-Serif" font-size="10.00">+ set_uniform()</text>
<text text-anchor="start" x="528.5" y="-735.5" font-family="Helvetica,sans-Serif" font-size="10.00">+ set_uniform()</text>
<text text-anchor="start" x="528.5" y="-724.5" font-family="Helvetica,sans-Serif" font-size="10.00">+ set_uniform()</text>
<text text-anchor="start" x="528.5" y="-713.5" font-family="Helvetica,sans-Serif" font-size="10.00">+ set_uniform()</text>
<text text-anchor="start" x="528.5" y="-702.5" font-family="Helvetica,sans-Serif" font-size="10.00">+ set_uniform()</text>
<text text-anchor="start" x="528.5" y="-691.5" font-family="Helvetica,sans-Serif" font-size="10.00">+ set_uniform()</text>
<text text-anchor="start" x="528.5" y="-680.5" font-family="Helvetica,sans-Serif" font-size="10.00">+ set_uniform()</text>
<text text-anchor="start" x="528.5" y="-669.5" font-family="Helvetica,sans-Serif" font-size="10.00">+ set_uniform()</text>
<text text-anchor="start" x="528.5" y="-658.5" font-family="Helvetica,sans-Serif" font-size="10.00">+ set_uniform()</text>
<text text-anchor="start" x="528.5" y="-647.5" font-family="Helvetica,sans-Serif" font-size="10.00">+ set_uniform()</text>
<text text-anchor="start" x="528.5" y="-636.5" font-family="Helvetica,sans-Serif" font-size="10.00">+ set_uniform()</text>
<text text-anchor="start" x="528.5" y="-625.5" font-family="Helvetica,sans-Serif" font-size="10.00">+ set_uniform()</text>
<text text-anchor="start" x="528.5" y="-614.5" font-family="Helvetica,sans-Serif" font-size="10.00">+ set_uniform()</text>
<text text-anchor="start" x="528.5" y="-603.5" font-family="Helvetica,sans-Serif" font-size="10.00">+ set_uniform()</text>
<text text-anchor="start" x="528.5" y="-592.5" font-family="Helvetica,sans-Serif" font-size="10.00">+ set_uniform()</text>
<text text-anchor="start" x="528.5" y="-581.5" font-family="Helvetica,sans-Serif" font-size="10.00">+ set_uniform()</text>
<text text-anchor="start" x="528.5" y="-570.5" font-family="Helvetica,sans-Serif" font-size="10.00">+ set_uniform()</text>
<text text-anchor="start" x="528.5" y="-559.5" font-family="Helvetica,sans-Serif" font-size="10.00">+ set_uniform()</text>
<text text-anchor="start" x="528.5" y="-548.5" font-family="Helvetica,sans-Serif" font-size="10.00">+ set_uniform()</text>
<text text-anchor="start" x="528.5" y="-537.5" font-family="Helvetica,sans-Serif" font-size="10.00">+ set_uniform()</text>
<text text-anchor="start" x="528.5" y="-526.5" font-family="Helvetica,sans-Serif" font-size="10.00">+ set_uniform()</text>
<text text-anchor="start" x="528.5" y="-515.5" font-family="Helvetica,sans-Serif" font-size="10.00">+ set_uniform()</text>
<text text-anchor="start" x="528.5" y="-504.5" font-family="Helvetica,sans-Serif" font-size="10.00">+ set_uniform()</text>
<text text-anchor="start" x="528.5" y="-493.5" font-family="Helvetica,sans-Serif" font-size="10.00">+ set_uniform()</text>
<text text-anchor="start" x="528.5" y="-482.5" font-family="Helvetica,sans-Serif" font-size="10.00">+ set_uniform()</text>
<text text-anchor="start" x="528.5" y="-471.5" font-family="Helvetica,sans-Serif" font-size="10.00">+ set_uniform()</text>
<text text-anchor="start" x="528.5" y="-460.5" font-family="Helvetica,sans-Serif" font-size="10.00">+ set_uniform()</text>
<text text-anchor="start" x="528.5" y="-449.5" font-family="Helvetica,sans-Serif" font-size="10.00">+ set_uniform()</text>
<text text-anchor="start" x="528.5" y="-438.5" font-family="Helvetica,sans-Serif" font-size="10.00">+ set_uniform()</text>
<text text-anchor="start" x="528.5" y="-427.5" font-family="Helvetica,sans-Serif" font-size="10.00">+ set_uniform()</text>
<text text-anchor="start" x="528.5" y="-416.5" font-family="Helvetica,sans-Serif" font-size="10.00">+ set_uniform()</text>
<text text-anchor="start" x="528.5" y="-405.5" font-family="Helvetica,sans-Serif" font-size="10.00">+ set_uniform()</text>
<text text-anchor="start" x="528.5" y="-394.5" font-family="Helvetica,sans-Serif" font-size="10.00">+ set_uniform()</text>
<text text-anchor="start" x="528.5" y="-383.5" font-family="Helvetica,sans-Serif" font-size="10.00">+ set_uniform()</text>
<text text-anchor="start" x="528.5" y="-372.5" font-family="Helvetica,sans-Serif" font-size="10.00">+ set_uniform()</text>
<text text-anchor="start" x="528.5" y="-361.5" font-family="Helvetica,sans-Serif" font-size="10.00">+ set_uniform()</text>
<text text-anchor="start" x="528.5" y="-350.5" font-family="Helvetica,sans-Serif" font-size="10.00">&#45; get_uniform_location()</text>
<text text-anchor="start" x="528.5" y="-339.5" font-family="Helvetica,sans-Serif" font-size="10.00">&#45; get_attrib_location()</text>
<text text-anchor="start" x="528.5" y="-328.5" font-family="Helvetica,sans-Serif" font-size="10.00">&#45; assign_uniforms()</text>
<text text-anchor="start" x="528.5" y="-317.5" font-family="Helvetica,sans-Serif" font-size="10.00">&#45; assign_textures()</text>
<text text-anchor="start" x="528.5" y="-306.5" font-family="Helvetica,sans-Serif" font-size="10.00">&#45; create_shader()</text>
</a>
</g>
</g>
<!-- Node7&#45;&gt;Node12 -->
<g id="edge14" class="edge">
<title>Node7&#45;&gt;Node12</title>
<path fill="none" stroke="#404040" d="M326.33,-1119.28C329.86,-1106.7 334.66,-1091.82 340.5,-1079 388.58,-973.47 459.73,-862.02 513.34,-783.98"/>
<polygon fill="none" stroke="#404040" points="513.63,-783.55 513.75,-776.34 520.45,-773.68 520.33,-780.89 513.63,-783.55"/>
<text text-anchor="middle" x="360.5" y="-1087.5" font-family="Helvetica,sans-Serif" font-size="10.00"> &#45;name_</text>
</g>
<!-- Node8 -->
<g id="node8" class="node">
<title>Node8</title>
<g id="a_node8"><a xlink:title=" ">
<polygon fill="white" stroke="#bfbfbf" points="392.5,-1119.5 392.5,-1176.5 440.5,-1176.5 440.5,-1119.5 392.5,-1119.5"/>
<text text-anchor="middle" x="416.5" y="-1164.5" font-family="Helvetica,sans-Serif" font-size="10.00">GLuint</text>
<polyline fill="none" stroke="#bfbfbf" points="392.5,-1157.5 440.5,-1157.5 "/>
<text text-anchor="middle" x="416.5" y="-1145.5" font-family="Helvetica,sans-Serif" font-size="10.00"> </text>
<polyline fill="none" stroke="#bfbfbf" points="392.5,-1138.5 440.5,-1138.5 "/>
<text text-anchor="middle" x="416.5" y="-1126.5" font-family="Helvetica,sans-Serif" font-size="10.00"> </text>
</a>
</g>
</g>
<!-- Node8&#45;&gt;Node4 -->
<g id="edge7" class="edge">
<title>Node8&#45;&gt;Node4</title>
<path fill="none" stroke="#404040" d="M403.46,-1119.25C371.17,-1050.55 286.53,-870.45 236.37,-763.72"/>
<polygon fill="none" stroke="#404040" points="236.29,-763.53 230.11,-759.8 231.18,-752.67 237.35,-756.4 236.29,-763.53"/>
<text text-anchor="middle" x="418.5" y="-1087.5" font-family="Helvetica,sans-Serif" font-size="10.00"> #handle_</text>
</g>
<!-- Node8&#45;&gt;Node12 -->
<g id="edge15" class="edge">
<title>Node8&#45;&gt;Node12</title>
<path fill="none" stroke="#404040" d="M439.22,-1119.22C443.33,-1113.42 447.32,-1107.18 450.5,-1101 476.01,-1051.51 498.06,-996.32 516.57,-942.64"/>
<polygon fill="none" stroke="#404040" points="516.6,-942.57 514.75,-935.6 520.47,-931.21 522.32,-938.18 516.6,-942.57"/>
<text text-anchor="middle" x="506.5" y="-1087.5" font-family="Helvetica,sans-Serif" font-size="10.00"> &#45;program_handle_</text>
</g>
<!-- Node9 -->
<g id="node9" class="node">
<title>Node9</title>
<g id="a_node9"><a xlink:title=" ">
<polygon fill="white" stroke="#bfbfbf" points="255.5,-193.5 255.5,-250.5 293.5,-250.5 293.5,-193.5 255.5,-193.5"/>
<text text-anchor="middle" x="274.5" y="-238.5" font-family="Helvetica,sans-Serif" font-size="10.00">float</text>
<polyline fill="none" stroke="#bfbfbf" points="255.5,-231.5 293.5,-231.5 "/>
<text text-anchor="middle" x="274.5" y="-219.5" font-family="Helvetica,sans-Serif" font-size="10.00"> </text>
<polyline fill="none" stroke="#bfbfbf" points="255.5,-212.5 293.5,-212.5 "/>
<text text-anchor="middle" x="274.5" y="-200.5" font-family="Helvetica,sans-Serif" font-size="10.00"> </text>
</a>
</g>
</g>
<!-- Node9&#45;&gt;Node1 -->
<g id="edge8" class="edge">
<title>Node9&#45;&gt;Node1</title>
<path fill="none" stroke="#404040" d="M266.39,-193.48C259.5,-163.96 254.05,-117.25 277.5,-87 293.26,-66.66 357.72,-51.99 405.7,-43.63"/>
<polygon fill="none" stroke="#404040" points="405.98,-43.59 411.23,-38.65 417.81,-41.59 412.56,-46.53 405.98,-43.59"/>
<text text-anchor="start" x="277.5" y="-134" font-family="Helvetica,sans-Serif" font-size="10.00"> +displacement_scale</text>
<text text-anchor="middle" x="332" y="-123" font-family="Helvetica,sans-Serif" font-size="10.00">_</text>
<text text-anchor="middle" x="332" y="-112" font-family="Helvetica,sans-Serif" font-size="10.00">+gloss_</text>
</g>
<!-- Node10 -->
<g id="node10" class="node">
<title>Node10</title>
<g id="a_node10"><a xlink:title=" ">
<polygon fill="white" stroke="#bfbfbf" points="373,-193.5 373,-250.5 426,-250.5 426,-193.5 373,-193.5"/>
<text text-anchor="middle" x="399.5" y="-238.5" font-family="Helvetica,sans-Serif" font-size="10.00">vector2</text>
<polyline fill="none" stroke="#bfbfbf" points="373,-231.5 426,-231.5 "/>
<text text-anchor="middle" x="399.5" y="-219.5" font-family="Helvetica,sans-Serif" font-size="10.00"> </text>
<polyline fill="none" stroke="#bfbfbf" points="373,-212.5 426,-212.5 "/>
<text text-anchor="middle" x="399.5" y="-200.5" font-family="Helvetica,sans-Serif" font-size="10.00"> </text>
</a>
</g>
</g>
<!-- Node10&#45;&gt;Node1 -->
<g id="edge9" class="edge">
<title>Node10&#45;&gt;Node1</title>
<path fill="none" stroke="#404040" d="M394.25,-193.39C390.25,-165.25 387.78,-121.01 403.5,-87 405.29,-83.13 407.52,-79.42 410.05,-75.9"/>
<polygon fill="none" stroke="#404040" points="410.22,-75.7 410.98,-68.53 417.89,-66.47 417.13,-73.64 410.22,-75.7"/>
<text text-anchor="middle" x="446" y="-128.5" font-family="Helvetica,sans-Serif" font-size="10.00"> +texture_offset_</text>
<text text-anchor="middle" x="446" y="-117.5" font-family="Helvetica,sans-Serif" font-size="10.00">+texture_scale_</text>
</g>
<!-- Node11 -->
<g id="node11" class="node">
<title>Node11</title>
<g id="a_node11"><a xlink:title=" ">
<polygon fill="white" stroke="#bfbfbf" points="444,-188 444,-256 561,-256 561,-188 444,-188"/>
<text text-anchor="start" x="452" y="-244" font-family="Helvetica,sans-Serif" font-size="10.00">vector&lt; mkr::shader</text>
<text text-anchor="middle" x="502.5" y="-233" font-family="Helvetica,sans-Serif" font-size="10.00">_program * &gt;</text>
<polyline fill="none" stroke="#bfbfbf" points="444,-226 561,-226 "/>
<text text-anchor="middle" x="502.5" y="-214" font-family="Helvetica,sans-Serif" font-size="10.00"> </text>
<polyline fill="none" stroke="#bfbfbf" points="444,-207 561,-207 "/>
<text text-anchor="middle" x="502.5" y="-195" font-family="Helvetica,sans-Serif" font-size="10.00"> </text>
</a>
</g>
</g>
<!-- Node11&#45;&gt;Node1 -->
<g id="edge10" class="edge">
<title>Node11&#45;&gt;Node1</title>
<path fill="none" stroke="#404040" d="M504.36,-187.94C504.91,-160.29 503.31,-120.16 492.5,-87 491.71,-84.58 490.78,-82.15 489.75,-79.74"/>
<polygon fill="none" stroke="#404040" points="489.61,-79.47 483.37,-75.86 484.29,-68.71 490.54,-72.31 489.61,-79.47"/>
<text text-anchor="middle" x="534" y="-123" font-family="Helvetica,sans-Serif" font-size="10.00"> +pshaders_</text>
</g>
<!-- Node12&#45;&gt;Node1 -->
<g id="edge11" class="edge">
<title>Node12&#45;&gt;Node1</title>
<path fill="none" stroke="#404040" d="M605.72,-299.25C603.35,-207.59 593.4,-125.09 568.5,-87 556.19,-68.16 534.95,-56.05 514.55,-48.33"/>
<polygon fill="none" stroke="#404040" points="514.39,-48.28 507.42,-50.12 503.04,-44.39 510.01,-42.55 514.39,-48.28"/>
<text text-anchor="middle" x="630.5" y="-236" font-family="Helvetica,sans-Serif" font-size="10.00"> +fshader_</text>
<text text-anchor="middle" x="630.5" y="-225" font-family="Helvetica,sans-Serif" font-size="10.00">+gshader_</text>
<text text-anchor="middle" x="630.5" y="-214" font-family="Helvetica,sans-Serif" font-size="10.00">+lshader_</text>
<text text-anchor="middle" x="630.5" y="-203" font-family="Helvetica,sans-Serif" font-size="10.00">+sshader_</text>
</g>
<!-- Node13 -->
<g id="node13" class="node">
<title>Node13</title>
<g id="a_node13"><a xlink:title=" ">
<polygon fill="white" stroke="#bfbfbf" points="535,-1119.5 535,-1176.5 640,-1176.5 640,-1119.5 535,-1119.5"/>
<text text-anchor="middle" x="587.5" y="-1164.5" font-family="Helvetica,sans-Serif" font-size="10.00">const render_pass</text>
<polyline fill="none" stroke="#bfbfbf" points="535,-1157.5 640,-1157.5 "/>
<text text-anchor="middle" x="587.5" y="-1145.5" font-family="Helvetica,sans-Serif" font-size="10.00"> </text>
<polyline fill="none" stroke="#bfbfbf" points="535,-1138.5 640,-1138.5 "/>
<text text-anchor="middle" x="587.5" y="-1126.5" font-family="Helvetica,sans-Serif" font-size="10.00"> </text>
</a>
</g>
</g>
<!-- Node13&#45;&gt;Node12 -->
<g id="edge12" class="edge">
<title>Node13&#45;&gt;Node12</title>
<path fill="none" stroke="#404040" d="M587.5,-1119.25C587.5,-1106.97 587.5,-1091.14 587.5,-1072.81"/>
<polygon fill="none" stroke="#404040" points="587.5,-1072.75 583.5,-1066.75 587.5,-1060.75 591.5,-1066.75 587.5,-1072.75"/>
<text text-anchor="middle" x="623.5" y="-1087.5" font-family="Helvetica,sans-Serif" font-size="10.00"> &#45;render_pass_</text>
</g>
<!-- Node14 -->
<g id="node14" class="node">
<title>Node14</title>
<g id="a_node14"><a xlink:title=" ">
<polygon fill="white" stroke="#bfbfbf" points="661.5,-1119.5 661.5,-1176.5 703.5,-1176.5 703.5,-1119.5 661.5,-1119.5"/>
<text text-anchor="middle" x="682.5" y="-1164.5" font-family="Helvetica,sans-Serif" font-size="10.00">GLint</text>
<polyline fill="none" stroke="#bfbfbf" points="661.5,-1157.5 703.5,-1157.5 "/>
<text text-anchor="middle" x="682.5" y="-1145.5" font-family="Helvetica,sans-Serif" font-size="10.00"> </text>
<polyline fill="none" stroke="#bfbfbf" points="661.5,-1138.5 703.5,-1138.5 "/>
<text text-anchor="middle" x="682.5" y="-1126.5" font-family="Helvetica,sans-Serif" font-size="10.00"> </text>
</a>
</g>
</g>
<!-- Node14&#45;&gt;Node12 -->
<g id="edge13" class="edge">
<title>Node14&#45;&gt;Node12</title>
<path fill="none" stroke="#404040" d="M676.84,-1119.25C672.22,-1096.59 665.14,-1061.83 656.93,-1021.57"/>
<polygon fill="none" stroke="#404040" points="656.92,-1021.54 651.81,-1016.46 654.53,-1009.79 659.65,-1014.87 656.92,-1021.54"/>
<text text-anchor="middle" x="719.5" y="-1087.5" font-family="Helvetica,sans-Serif" font-size="10.00"> &#45;uniform_handles_</text>
</g>
<!-- Node15 -->
<g id="node15" class="node">
<title>Node15</title>
<g id="a_node15"><a xlink:title=" ">
<polygon fill="white" stroke="#bfbfbf" points="670,-193.5 670,-250.5 717,-250.5 717,-193.5 670,-193.5"/>
<text text-anchor="middle" x="693.5" y="-238.5" font-family="Helvetica,sans-Serif" font-size="10.00">colour</text>
<polyline fill="none" stroke="#bfbfbf" points="670,-231.5 717,-231.5 "/>
<text text-anchor="middle" x="693.5" y="-219.5" font-family="Helvetica,sans-Serif" font-size="10.00"> </text>
<polyline fill="none" stroke="#bfbfbf" points="670,-212.5 717,-212.5 "/>
<text text-anchor="middle" x="693.5" y="-200.5" font-family="Helvetica,sans-Serif" font-size="10.00"> </text>
</a>
</g>
</g>
<!-- Node15&#45;&gt;Node1 -->
<g id="edge16" class="edge">
<title>Node15&#45;&gt;Node1</title>
<path fill="none" stroke="#404040" d="M683.33,-193.45C670.83,-163.24 646.84,-115.3 611.5,-87 583.73,-64.76 545.81,-51.88 514.92,-44.55"/>
<polygon fill="none" stroke="#404040" points="514.75,-44.52 508.02,-47.12 503.03,-41.92 509.75,-39.31 514.75,-44.52"/>
<text text-anchor="middle" x="714.5" y="-128.5" font-family="Helvetica,sans-Serif" font-size="10.00"> +albedo_colour_</text>
<text text-anchor="middle" x="714.5" y="-117.5" font-family="Helvetica,sans-Serif" font-size="10.00">+ambient_colour_</text>
</g>
<!-- Node16 -->
<g id="node16" class="node">
<title>Node16</title>
<g id="a_node16"><a xlink:title=" ">
<polygon fill="white" stroke="#bfbfbf" points="753.5,-193.5 753.5,-250.5 821.5,-250.5 821.5,-193.5 753.5,-193.5"/>
<text text-anchor="middle" x="787.5" y="-238.5" font-family="Helvetica,sans-Serif" font-size="10.00">static bool</text>
<polyline fill="none" stroke="#bfbfbf" points="753.5,-231.5 821.5,-231.5 "/>
<text text-anchor="middle" x="787.5" y="-219.5" font-family="Helvetica,sans-Serif" font-size="10.00"> </text>
<polyline fill="none" stroke="#bfbfbf" points="753.5,-212.5 821.5,-212.5 "/>
<text text-anchor="middle" x="787.5" y="-200.5" font-family="Helvetica,sans-Serif" font-size="10.00"> </text>
</a>
</g>
</g>
<!-- Node16&#45;&gt;Node1 -->
<g id="edge17" class="edge">
<title>Node16&#45;&gt;Node1</title>
<path fill="none" stroke="#404040" d="M791,-193.47C793.19,-163.05 791.45,-114.7 763.5,-87 729.35,-53.15 593.12,-41.44 515.46,-37.47"/>
<polygon fill="none" stroke="#404040" points="515.05,-37.45 508.86,-41.16 503.06,-36.88 509.25,-33.17 515.05,-37.45"/>
<text text-anchor="middle" x="831.5" y="-123" font-family="Helvetica,sans-Serif" font-size="10.00"> +enable_lights_</text>
</g>
</g>
</svg>
        <g id="navigator" transform="translate(0 0)" fill="#404254">
                <rect fill="#f2f5e9" fill-opacity="0.5" stroke="#606060" stroke-width=".5" x="0" y="0" width="60" height="60"/>
                <use id="zoomplus" xlink:href="#zoomPlus" x="17" y="9" onmousedown="handleZoom(evt,'in')"/>
                <use id="zoomminus" xlink:href="#zoomMin" x="42" y="9" onmousedown="handleZoom(evt,'out')"/>
                <use id="reset" xlink:href="#resetDef" x="30" y="36" onmousedown="handleReset()"/>
                <g id="arrowUp" xlink:href="#dirArrow" transform="translate(30 24)" onmousedown="handlePan(0,-1)">
                  <use xlink:href="#rim" fill="#404040">
                        <set attributeName="fill" to="#808080" begin="arrowUp.mouseover" end="arrowUp.mouseout"/>
                  </use>
                  <path fill="none" stroke="white" stroke-width="1.5" d="M0,-3.0v7 M-2.5,-0.5L0,-3.0L2.5,-0.5"/>
                </g>
                <g id="arrowRight" xlink:href="#dirArrow" transform="rotate(90) translate(36 -43)" onmousedown="handlePan(1,0)">
                  <use xlink:href="#rim" fill="#404040">
                        <set attributeName="fill" to="#808080" begin="arrowRight.mouseover" end="arrowRight.mouseout"/>
                  </use>
                  <path fill="none" stroke="white" stroke-width="1.5" d="M0,-3.0v7 M-2.5,-0.5L0,-3.0L2.5,-0.5"/>
                </g>
                <g id="arrowDown" xlink:href="#dirArrow" transform="rotate(180) translate(-30 -48)" onmousedown="handlePan(0,1)">
                  <use xlink:href="#rim" fill="#404040">
                        <set attributeName="fill" to="#808080" begin="arrowDown.mouseover" end="arrowDown.mouseout"/>
                  </use>
                  <path fill="none" stroke="white" stroke-width="1.5" d="M0,-3.0v7 M-2.5,-0.5L0,-3.0L2.5,-0.5"/>
                </g>
                <g id="arrowLeft" xlink:href="#dirArrow" transform="rotate(270) translate(-36 17)" onmousedown="handlePan(-1,0)">
                  <use xlink:href="#rim" fill="#404040">
                        <set attributeName="fill" to="#808080" begin="arrowLeft.mouseover" end="arrowLeft.mouseout"/>
                  </use>
                  <path fill="none" stroke="white" stroke-width="1.5" d="M0,-3.0v7 M-2.5,-0.5L0,-3.0L2.5,-0.5"/>
                </g>
        </g>
        <svg viewBox="0 0 15 15" width="100%" height="30px" preserveAspectRatio="xMaxYMin meet">
         <g id="arrow_out" transform="scale(0.3 0.3)">
          <a xlink:href="classmkr_1_1material__coll__graph_org.svg" target="_base">
           <rect id="button" ry="5" rx="5" y="6" x="6" height="38" width="38"
                fill="#f2f5e9" fill-opacity="0.5" stroke="#606060" stroke-width="1.0"/>
           <path id="arrow"
             d="M 11.500037,31.436501 C 11.940474,20.09759 22.043105,11.32322 32.158766,21.979434 L 37.068811,17.246167 C 37.068811,17.246167 37.088388,32 37.088388,32 L 22.160133,31.978069 C 22.160133,31.978069 26.997745,27.140456 26.997745,27.140456 C 18.528582,18.264221 13.291696,25.230495 11.500037,31.436501 z"
             style="fill:#404040;"/>
          </a>
         </g>
        </svg>
</svg>
