<?xml version="1.0" encoding="UTF-8" standalone="no"?>
<!DOCTYPE svg PUBLIC "-//W3C//DTD SVG 1.1//EN"
 "http://www.w3.org/Graphics/SVG/1.1/DTD/svg11.dtd">
<!-- Generated by graphviz version 2.43.0 (0)
 -->
<!-- Title: singleton Pages: 1 -->
<!--zoomable 479 -->
<svg id="main" version="1.1" xmlns="http://www.w3.org/2000/svg" xmlns:xlink="http://www.w3.org/1999/xlink" xml:space="preserve" onload="init(evt)">
<style type="text/css"><![CDATA[
.edge:hover path { stroke: red; }
.edge:hover polygon { stroke: red; fill: red; }
]]></style>
<script type="text/javascript"><![CDATA[
var edges = document.getElementsByTagName('g');
if (edges && edges.length) {
  for (var i=0;i<edges.length;i++) {
    if (edges[i].id.substr(0,4)=='edge') {
      edges[i].setAttribute('class','edge');
    }
  }
}
]]></script>
        <defs>
                <circle id="rim" cx="0" cy="0" r="7"/>
                <circle id="rim2" cx="0" cy="0" r="3.5"/>
                <g id="zoomPlus">
                        <use xlink:href="#rim" fill="#404040">
                                <set attributeName="fill" to="#808080" begin="zoomplus.mouseover" end="zoomplus.mouseout"/>
                        </use>
                        <path d="M-4,0h8M0,-4v8" fill="none" stroke="white" stroke-width="1.5" pointer-events="none"/>
                </g>
                <g id="zoomMin">
                        <use xlink:href="#rim" fill="#404040">
                                <set attributeName="fill" to="#808080" begin="zoomminus.mouseover" end="zoomminus.mouseout"/>
                        </use>
                        <path d="M-4,0h8" fill="none" stroke="white" stroke-width="1.5" pointer-events="none"/>
                </g>
                <g id="dirArrow">
                        <path fill="none" stroke="white" stroke-width="1.5" d="M0,-3.0v7 M-2.5,-0.5L0,-3.0L2.5,-0.5"/>
                </g>
               <g id="resetDef">
                       <use xlink:href="#rim2" fill="#404040">
                               <set attributeName="fill" to="#808080" begin="reset.mouseover" end="reset.mouseout"/>
                       </use>
               </g>
        </defs>

<script type="text/javascript">
var viewWidth = 1388;
var viewHeight = 479;
var sectionId = 'dynsection-0';
</script>
<script xlink:href="svgpan.js"/>
<svg id="graph" class="graph">
<g id="viewport">
<title>singleton</title>
<polygon fill="white" stroke="transparent" points="-4,4 -4,-475 1383.5,-475 1383.5,4 -4,4"/>
<!-- Node1 -->
<g id="node1" class="node">
<title>Node1</title>
<g id="a_node1"><a xlink:title=" ">
<polygon fill="#bfbfbf" stroke="black" points="703.5,-413.5 703.5,-470.5 765.5,-470.5 765.5,-413.5 703.5,-413.5"/>
<text text-anchor="middle" x="734.5" y="-458.5" font-family="Helvetica,sans-Serif" font-size="10.00">singleton</text>
<polyline fill="none" stroke="black" points="703.5,-451.5 765.5,-451.5 "/>
<text text-anchor="middle" x="734.5" y="-439.5" font-family="Helvetica,sans-Serif" font-size="10.00"> </text>
<polyline fill="none" stroke="black" points="703.5,-432.5 765.5,-432.5 "/>
<text text-anchor="middle" x="734.5" y="-420.5" font-family="Helvetica,sans-Serif" font-size="10.00"> </text>
</a>
</g>
</g>
<!-- Node2 -->
<g id="node2" class="node">
<title>Node2</title>
<g id="a_node2"><a xlink:href="classmkr_1_1application.html" target="_top" xlink:title=" ">
<polygon fill="white" stroke="black" points="0,-94 0,-283 173,-283 173,-94 0,-94"/>
<text text-anchor="middle" x="86.5" y="-271" font-family="Helvetica,sans-Serif" font-size="10.00">mkr::application&lt; application &gt;</text>
<polyline fill="none" stroke="black" points="0,-264 173,-264 "/>
<text text-anchor="start" x="8" y="-252" font-family="Helvetica,sans-Serif" font-size="10.00">&#45; delta_time_</text>
<text text-anchor="start" x="8" y="-241" font-family="Helvetica,sans-Serif" font-size="10.00">&#45; time_elapsed_</text>
<text text-anchor="start" x="8" y="-230" font-family="Helvetica,sans-Serif" font-size="10.00">&#45; run_</text>
<polyline fill="none" stroke="black" points="0,-223 173,-223 "/>
<text text-anchor="start" x="8" y="-211" font-family="Helvetica,sans-Serif" font-size="10.00">+ delta_time()</text>
<text text-anchor="start" x="8" y="-200" font-family="Helvetica,sans-Serif" font-size="10.00">+ time_elapsed()</text>
<text text-anchor="start" x="8" y="-189" font-family="Helvetica,sans-Serif" font-size="10.00">+ terminate()</text>
<text text-anchor="start" x="8" y="-178" font-family="Helvetica,sans-Serif" font-size="10.00">+ run()</text>
<text text-anchor="start" x="8" y="-167" font-family="Helvetica,sans-Serif" font-size="10.00">&#45; application()</text>
<text text-anchor="start" x="8" y="-156" font-family="Helvetica,sans-Serif" font-size="10.00">&#45; ~application()</text>
<text text-anchor="start" x="8" y="-145" font-family="Helvetica,sans-Serif" font-size="10.00">&#45; init()</text>
<text text-anchor="start" x="8" y="-134" font-family="Helvetica,sans-Serif" font-size="10.00">&#45; start()</text>
<text text-anchor="start" x="8" y="-123" font-family="Helvetica,sans-Serif" font-size="10.00">&#45; update()</text>
<text text-anchor="start" x="8" y="-112" font-family="Helvetica,sans-Serif" font-size="10.00">&#45; stop()</text>
<text text-anchor="start" x="8" y="-101" font-family="Helvetica,sans-Serif" font-size="10.00">&#45; exit()</text>
</a>
</g>
</g>
<!-- Node1&#45;&gt;Node2 -->
<g id="edge1" class="edge">
<title>Node1&#45;&gt;Node2</title>
<path fill="none" stroke="midnightblue" d="M693.37,-441.16C579.71,-440.84 264.26,-434.66 181.5,-377 149.46,-354.68 127.61,-318.26 113.03,-283.43"/>
<polygon fill="none" stroke="midnightblue" points="693.41,-444.66 703.41,-441.17 693.42,-437.66 693.41,-444.66"/>
</g>
<!-- Node3 -->
<g id="node3" class="node">
<title>Node3</title>
<g id="a_node3"><a xlink:href="classmkr_1_1graphics__renderer.html" target="_top" xlink:title=" ">
<polygon fill="white" stroke="black" points="191,-0.5 191,-376.5 342,-376.5 342,-0.5 191,-0.5"/>
<text text-anchor="start" x="199" y="-364.5" font-family="Helvetica,sans-Serif" font-size="10.00">mkr::graphics_renderer</text>
<text text-anchor="middle" x="266.5" y="-353.5" font-family="Helvetica,sans-Serif" font-size="10.00">&lt; graphics_renderer &gt;</text>
<polyline fill="none" stroke="black" points="191,-346.5 342,-346.5 "/>
<text text-anchor="start" x="199" y="-334.5" font-family="Helvetica,sans-Serif" font-size="10.00">&#45; app_window_</text>
<text text-anchor="start" x="199" y="-323.5" font-family="Helvetica,sans-Serif" font-size="10.00">&#45; window_width_</text>
<text text-anchor="start" x="199" y="-312.5" font-family="Helvetica,sans-Serif" font-size="10.00">&#45; window_height_</text>
<text text-anchor="start" x="199" y="-301.5" font-family="Helvetica,sans-Serif" font-size="10.00">&#45; f_buff_</text>
<text text-anchor="start" x="199" y="-290.5" font-family="Helvetica,sans-Serif" font-size="10.00">&#45; s2d_buff_</text>
<text text-anchor="start" x="199" y="-279.5" font-family="Helvetica,sans-Serif" font-size="10.00">&#45; scube_buff_</text>
<text text-anchor="start" x="199" y="-268.5" font-family="Helvetica,sans-Serif" font-size="10.00">&#45; light_view_projection</text>
<text text-anchor="start" x="199" y="-257.5" font-family="Helvetica,sans-Serif" font-size="10.00">_matrix_</text>
<text text-anchor="start" x="199" y="-246.5" font-family="Helvetica,sans-Serif" font-size="10.00">&#45; screen_quad_</text>
<text text-anchor="start" x="199" y="-235.5" font-family="Helvetica,sans-Serif" font-size="10.00">&#45; skybox_cube_</text>
<text text-anchor="start" x="199" y="-224.5" font-family="Helvetica,sans-Serif" font-size="10.00">&#45; cameras_</text>
<text text-anchor="start" x="199" y="-213.5" font-family="Helvetica,sans-Serif" font-size="10.00">&#45; lights_</text>
<text text-anchor="start" x="199" y="-202.5" font-family="Helvetica,sans-Serif" font-size="10.00">&#45; deferred_meshes_</text>
<text text-anchor="start" x="199" y="-191.5" font-family="Helvetica,sans-Serif" font-size="10.00">&#45; forward_opaque_meshes_</text>
<text text-anchor="start" x="199" y="-180.5" font-family="Helvetica,sans-Serif" font-size="10.00">&#45; forward_transparent</text>
<text text-anchor="start" x="199" y="-169.5" font-family="Helvetica,sans-Serif" font-size="10.00">_meshes_</text>
<polyline fill="none" stroke="black" points="191,-162.5 342,-162.5 "/>
<text text-anchor="start" x="199" y="-150.5" font-family="Helvetica,sans-Serif" font-size="10.00">+ init()</text>
<text text-anchor="start" x="199" y="-139.5" font-family="Helvetica,sans-Serif" font-size="10.00">+ start()</text>
<text text-anchor="start" x="199" y="-128.5" font-family="Helvetica,sans-Serif" font-size="10.00">+ update()</text>
<text text-anchor="start" x="199" y="-117.5" font-family="Helvetica,sans-Serif" font-size="10.00">+ exit()</text>
<text text-anchor="start" x="199" y="-106.5" font-family="Helvetica,sans-Serif" font-size="10.00">+ submit_camera()</text>
<text text-anchor="start" x="199" y="-95.5" font-family="Helvetica,sans-Serif" font-size="10.00">+ submit_light()</text>
<text text-anchor="start" x="199" y="-84.5" font-family="Helvetica,sans-Serif" font-size="10.00">+ submit_mesh()</text>
<text text-anchor="start" x="199" y="-73.5" font-family="Helvetica,sans-Serif" font-size="10.00">&#45; graphics_renderer()</text>
<text text-anchor="start" x="199" y="-62.5" font-family="Helvetica,sans-Serif" font-size="10.00">&#45; ~graphics_renderer()</text>
<text text-anchor="start" x="199" y="-51.5" font-family="Helvetica,sans-Serif" font-size="10.00">&#45; render()</text>
<text text-anchor="start" x="199" y="-40.5" font-family="Helvetica,sans-Serif" font-size="10.00">&#45; point_shadow()</text>
<text text-anchor="start" x="199" y="-29.5" font-family="Helvetica,sans-Serif" font-size="10.00">&#45; spot_shadow()</text>
<text text-anchor="start" x="199" y="-18.5" font-family="Helvetica,sans-Serif" font-size="10.00">&#45; directional_shadow()</text>
<text text-anchor="start" x="199" y="-7.5" font-family="Helvetica,sans-Serif" font-size="10.00">&#45; forward_pass()</text>
</a>
</g>
</g>
<!-- Node1&#45;&gt;Node3 -->
<g id="edge2" class="edge">
<title>Node1&#45;&gt;Node3</title>
<path fill="none" stroke="midnightblue" d="M693.35,-438.98C605.58,-433.92 403.65,-418.02 350.5,-377 347.68,-374.82 344.95,-372.53 342.3,-370.13"/>
<polygon fill="none" stroke="midnightblue" points="693.29,-442.48 703.47,-439.55 693.68,-435.49 693.29,-442.48"/>
</g>
<!-- Node4 -->
<g id="node4" class="node">
<title>Node4</title>
<g id="a_node4"><a xlink:href="classmkr_1_1input__manager.html" target="_top" xlink:title=" ">
<polygon fill="white" stroke="black" points="360,-11.5 360,-365.5 503,-365.5 503,-11.5 360,-11.5"/>
<text text-anchor="start" x="368" y="-353.5" font-family="Helvetica,sans-Serif" font-size="10.00">mkr::input_manager</text>
<text text-anchor="middle" x="431.5" y="-342.5" font-family="Helvetica,sans-Serif" font-size="10.00">&lt; input_manager &gt;</text>
<polyline fill="none" stroke="black" points="360,-335.5 503,-335.5 "/>
<text text-anchor="start" x="368" y="-323.5" font-family="Helvetica,sans-Serif" font-size="10.00">&#45; input_context_</text>
<text text-anchor="start" x="368" y="-312.5" font-family="Helvetica,sans-Serif" font-size="10.00">&#45; sdl_event_listener</text>
<text text-anchor="start" x="368" y="-301.5" font-family="Helvetica,sans-Serif" font-size="10.00">&#45; input_event_dispatcher_</text>
<text text-anchor="start" x="368" y="-290.5" font-family="Helvetica,sans-Serif" font-size="10.00">&#45; button_handler_</text>
<text text-anchor="start" x="368" y="-279.5" font-family="Helvetica,sans-Serif" font-size="10.00">&#45; axis_handler_</text>
<text text-anchor="start" x="368" y="-268.5" font-family="Helvetica,sans-Serif" font-size="10.00">&#45; click_handler_</text>
<text text-anchor="start" x="368" y="-257.5" font-family="Helvetica,sans-Serif" font-size="10.00">&#45; motion_handler_</text>
<polyline fill="none" stroke="black" points="360,-250.5 503,-250.5 "/>
<text text-anchor="start" x="368" y="-238.5" font-family="Helvetica,sans-Serif" font-size="10.00">+ init()</text>
<text text-anchor="start" x="368" y="-227.5" font-family="Helvetica,sans-Serif" font-size="10.00">+ update()</text>
<text text-anchor="start" x="368" y="-216.5" font-family="Helvetica,sans-Serif" font-size="10.00">+ exit()</text>
<text text-anchor="start" x="368" y="-205.5" font-family="Helvetica,sans-Serif" font-size="10.00">+ set_input_context()</text>
<text text-anchor="start" x="368" y="-194.5" font-family="Helvetica,sans-Serif" font-size="10.00">+ get_input_context()</text>
<text text-anchor="start" x="368" y="-183.5" font-family="Helvetica,sans-Serif" font-size="10.00">+ get_event_dispatcher()</text>
<text text-anchor="start" x="368" y="-172.5" font-family="Helvetica,sans-Serif" font-size="10.00">+ get_event_dispatcher()</text>
<text text-anchor="start" x="368" y="-161.5" font-family="Helvetica,sans-Serif" font-size="10.00">+ set_relative_mouse()</text>
<text text-anchor="start" x="368" y="-150.5" font-family="Helvetica,sans-Serif" font-size="10.00">+ register_button()</text>
<text text-anchor="start" x="368" y="-139.5" font-family="Helvetica,sans-Serif" font-size="10.00">+ unregister_button()</text>
<text text-anchor="start" x="368" y="-128.5" font-family="Helvetica,sans-Serif" font-size="10.00">+ register_axis()</text>
<text text-anchor="start" x="368" y="-117.5" font-family="Helvetica,sans-Serif" font-size="10.00">+ unregister_axis()</text>
<text text-anchor="start" x="368" y="-106.5" font-family="Helvetica,sans-Serif" font-size="10.00">+ register_axis()</text>
<text text-anchor="start" x="368" y="-95.5" font-family="Helvetica,sans-Serif" font-size="10.00">+ unregister_axis()</text>
<text text-anchor="start" x="368" y="-84.5" font-family="Helvetica,sans-Serif" font-size="10.00">+ register_click()</text>
<text text-anchor="start" x="368" y="-73.5" font-family="Helvetica,sans-Serif" font-size="10.00">+ unregister_click()</text>
<text text-anchor="start" x="368" y="-62.5" font-family="Helvetica,sans-Serif" font-size="10.00">+ register_motion()</text>
<text text-anchor="start" x="368" y="-51.5" font-family="Helvetica,sans-Serif" font-size="10.00">+ unregister_motion()</text>
<text text-anchor="start" x="368" y="-40.5" font-family="Helvetica,sans-Serif" font-size="10.00">&#45; input_manager()</text>
<text text-anchor="start" x="368" y="-29.5" font-family="Helvetica,sans-Serif" font-size="10.00">&#45; ~input_manager()</text>
<text text-anchor="start" x="368" y="-18.5" font-family="Helvetica,sans-Serif" font-size="10.00">&#45; sdl_event_callback()</text>
</a>
</g>
</g>
<!-- Node1&#45;&gt;Node4 -->
<g id="edge3" class="edge">
<title>Node1&#45;&gt;Node4</title>
<path fill="none" stroke="midnightblue" d="M693.12,-439.41C644.36,-435.43 563.55,-421.94 512.5,-377 508.51,-373.49 504.71,-369.74 501.08,-365.8"/>
<polygon fill="none" stroke="midnightblue" points="693.09,-442.91 703.31,-440.14 693.59,-435.93 693.09,-442.91"/>
</g>
<!-- Node5 -->
<g id="node5" class="node">
<title>Node5</title>
<g id="a_node5"><a xlink:href="classmkr_1_1material__manager.html" target="_top" xlink:title=" ">
<polygon fill="white" stroke="black" points="521.5,-138 521.5,-239 653.5,-239 653.5,-138 521.5,-138"/>
<text text-anchor="start" x="529.5" y="-227" font-family="Helvetica,sans-Serif" font-size="10.00">mkr::material_manager</text>
<text text-anchor="middle" x="587.5" y="-216" font-family="Helvetica,sans-Serif" font-size="10.00">&lt; material_manager &gt;</text>
<polyline fill="none" stroke="black" points="521.5,-209 653.5,-209 "/>
<text text-anchor="start" x="529.5" y="-197" font-family="Helvetica,sans-Serif" font-size="10.00">&#45; materials_</text>
<polyline fill="none" stroke="black" points="521.5,-190 653.5,-190 "/>
<text text-anchor="start" x="529.5" y="-178" font-family="Helvetica,sans-Serif" font-size="10.00">+ get_material()</text>
<text text-anchor="start" x="529.5" y="-167" font-family="Helvetica,sans-Serif" font-size="10.00">+ make_material()</text>
<text text-anchor="start" x="529.5" y="-156" font-family="Helvetica,sans-Serif" font-size="10.00">&#45; material_manager()</text>
<text text-anchor="start" x="529.5" y="-145" font-family="Helvetica,sans-Serif" font-size="10.00">&#45; ~material_manager()</text>
</a>
</g>
</g>
<!-- Node1&#45;&gt;Node5 -->
<g id="edge4" class="edge">
<title>Node1&#45;&gt;Node5</title>
<path fill="none" stroke="midnightblue" d="M695.44,-412.09C683.71,-401.97 671.56,-389.9 662.5,-377 632.78,-334.68 612.41,-278.88 600.48,-239.19"/>
<polygon fill="none" stroke="midnightblue" points="693.53,-415.05 703.46,-418.76 698.01,-409.67 693.53,-415.05"/>
</g>
<!-- Node6 -->
<g id="node6" class="node">
<title>Node6</title>
<g id="a_node6"><a xlink:href="classmkr_1_1mesh__manager.html" target="_top" xlink:title=" ">
<polygon fill="white" stroke="black" points="671.5,-138 671.5,-239 797.5,-239 797.5,-138 671.5,-138"/>
<text text-anchor="start" x="679.5" y="-227" font-family="Helvetica,sans-Serif" font-size="10.00">mkr::mesh_manager&lt;</text>
<text text-anchor="middle" x="734.5" y="-216" font-family="Helvetica,sans-Serif" font-size="10.00"> mesh_manager &gt;</text>
<polyline fill="none" stroke="black" points="671.5,-209 797.5,-209 "/>
<text text-anchor="start" x="679.5" y="-197" font-family="Helvetica,sans-Serif" font-size="10.00">&#45; meshes_</text>
<polyline fill="none" stroke="black" points="671.5,-190 797.5,-190 "/>
<text text-anchor="start" x="679.5" y="-178" font-family="Helvetica,sans-Serif" font-size="10.00">+ get_mesh()</text>
<text text-anchor="start" x="679.5" y="-167" font-family="Helvetica,sans-Serif" font-size="10.00">+ make_mesh()</text>
<text text-anchor="start" x="679.5" y="-156" font-family="Helvetica,sans-Serif" font-size="10.00">&#45; mesh_manager()</text>
<text text-anchor="start" x="679.5" y="-145" font-family="Helvetica,sans-Serif" font-size="10.00">&#45; ~mesh_manager()</text>
</a>
</g>
</g>
<!-- Node1&#45;&gt;Node6 -->
<g id="edge5" class="edge">
<title>Node1&#45;&gt;Node6</title>
<path fill="none" stroke="midnightblue" d="M734.5,-402.91C734.5,-359.15 734.5,-287.23 734.5,-239.13"/>
<polygon fill="none" stroke="midnightblue" points="731,-403.12 734.5,-413.12 738,-403.12 731,-403.12"/>
</g>
<!-- Node7 -->
<g id="node7" class="node">
<title>Node7</title>
<g id="a_node7"><a xlink:href="classmkr_1_1scene__manager.html" target="_top" xlink:title=" ">
<polygon fill="white" stroke="black" points="816,-127 816,-250 935,-250 935,-127 816,-127"/>
<text text-anchor="start" x="824" y="-238" font-family="Helvetica,sans-Serif" font-size="10.00">mkr::scene_manager</text>
<text text-anchor="middle" x="875.5" y="-227" font-family="Helvetica,sans-Serif" font-size="10.00">&lt; scene_manager &gt;</text>
<polyline fill="none" stroke="black" points="816,-220 935,-220 "/>
<text text-anchor="start" x="824" y="-208" font-family="Helvetica,sans-Serif" font-size="10.00">&#45; scene_</text>
<polyline fill="none" stroke="black" points="816,-201 935,-201 "/>
<text text-anchor="start" x="824" y="-189" font-family="Helvetica,sans-Serif" font-size="10.00">+ active_scene()</text>
<text text-anchor="start" x="824" y="-178" font-family="Helvetica,sans-Serif" font-size="10.00">+ init()</text>
<text text-anchor="start" x="824" y="-167" font-family="Helvetica,sans-Serif" font-size="10.00">+ update()</text>
<text text-anchor="start" x="824" y="-156" font-family="Helvetica,sans-Serif" font-size="10.00">+ exit()</text>
<text text-anchor="start" x="824" y="-145" font-family="Helvetica,sans-Serif" font-size="10.00">&#45; scene_manager()</text>
<text text-anchor="start" x="824" y="-134" font-family="Helvetica,sans-Serif" font-size="10.00">&#45; ~scene_manager()</text>
</a>
</g>
</g>
<!-- Node1&#45;&gt;Node7 -->
<g id="edge6" class="edge">
<title>Node1&#45;&gt;Node7</title>
<path fill="none" stroke="midnightblue" d="M773.77,-412.24C785.52,-402.13 797.62,-390.02 806.5,-377 832.78,-338.45 850.49,-288.65 861.38,-250.07"/>
<polygon fill="none" stroke="midnightblue" points="771.21,-409.82 765.74,-418.9 775.67,-415.21 771.21,-409.82"/>
</g>
<!-- Node8 -->
<g id="node8" class="node">
<title>Node8</title>
<g id="a_node8"><a xlink:href="classmkr_1_1sdl__message__pump.html" target="_top" xlink:title=" ">
<polygon fill="white" stroke="black" points="953.5,-105 953.5,-272 1093.5,-272 1093.5,-105 953.5,-105"/>
<text text-anchor="start" x="961.5" y="-260" font-family="Helvetica,sans-Serif" font-size="10.00">mkr::sdl_message_pump</text>
<text text-anchor="middle" x="1023.5" y="-249" font-family="Helvetica,sans-Serif" font-size="10.00">&lt; sdl_message_pump &gt;</text>
<polyline fill="none" stroke="black" points="953.5,-242 1093.5,-242 "/>
<text text-anchor="start" x="961.5" y="-230" font-family="Helvetica,sans-Serif" font-size="10.00">&#45; event_dispatcher_</text>
<text text-anchor="start" x="961.5" y="-219" font-family="Helvetica,sans-Serif" font-size="10.00">&#45; worker_thread_</text>
<text text-anchor="start" x="961.5" y="-208" font-family="Helvetica,sans-Serif" font-size="10.00">&#45; run_</text>
<polyline fill="none" stroke="black" points="953.5,-201 1093.5,-201 "/>
<text text-anchor="start" x="961.5" y="-189" font-family="Helvetica,sans-Serif" font-size="10.00">+ get_event_dispatcher()</text>
<text text-anchor="start" x="961.5" y="-178" font-family="Helvetica,sans-Serif" font-size="10.00">+ get_event_dispatcher()</text>
<text text-anchor="start" x="961.5" y="-167" font-family="Helvetica,sans-Serif" font-size="10.00">+ init()</text>
<text text-anchor="start" x="961.5" y="-156" font-family="Helvetica,sans-Serif" font-size="10.00">+ start()</text>
<text text-anchor="start" x="961.5" y="-145" font-family="Helvetica,sans-Serif" font-size="10.00">+ stop()</text>
<text text-anchor="start" x="961.5" y="-134" font-family="Helvetica,sans-Serif" font-size="10.00">+ exit()</text>
<text text-anchor="start" x="961.5" y="-123" font-family="Helvetica,sans-Serif" font-size="10.00">&#45; sdl_message_pump()</text>
<text text-anchor="start" x="961.5" y="-112" font-family="Helvetica,sans-Serif" font-size="10.00">&#45; ~sdl_message_pump()</text>
</a>
</g>
</g>
<!-- Node1&#45;&gt;Node8 -->
<g id="edge7" class="edge">
<title>Node1&#45;&gt;Node8</title>
<path fill="none" stroke="midnightblue" d="M775.57,-438.66C821.96,-433.94 897.14,-419.72 944.5,-377 974.79,-349.67 993.83,-308.84 1005.61,-272.25"/>
<polygon fill="none" stroke="midnightblue" points="775.21,-435.18 765.57,-439.58 775.84,-442.15 775.21,-435.18"/>
</g>
<!-- Node9 -->
<g id="node9" class="node">
<title>Node9</title>
<g id="a_node9"><a xlink:href="classmkr_1_1shader__manager.html" target="_top" xlink:title=" ">
<polygon fill="white" stroke="black" points="1111.5,-143.5 1111.5,-233.5 1235.5,-233.5 1235.5,-143.5 1111.5,-143.5"/>
<text text-anchor="start" x="1119.5" y="-221.5" font-family="Helvetica,sans-Serif" font-size="10.00">mkr::shader_manager</text>
<text text-anchor="middle" x="1173.5" y="-210.5" font-family="Helvetica,sans-Serif" font-size="10.00">&lt; shader_manager &gt;</text>
<polyline fill="none" stroke="black" points="1111.5,-203.5 1235.5,-203.5 "/>
<text text-anchor="start" x="1119.5" y="-191.5" font-family="Helvetica,sans-Serif" font-size="10.00">&#45; shaders_</text>
<polyline fill="none" stroke="black" points="1111.5,-184.5 1235.5,-184.5 "/>
<text text-anchor="start" x="1119.5" y="-172.5" font-family="Helvetica,sans-Serif" font-size="10.00">+ get_shader()</text>
<text text-anchor="start" x="1119.5" y="-161.5" font-family="Helvetica,sans-Serif" font-size="10.00">&#45; shader_manager()</text>
<text text-anchor="start" x="1119.5" y="-150.5" font-family="Helvetica,sans-Serif" font-size="10.00">&#45; ~shader_manager()</text>
</a>
</g>
</g>
<!-- Node1&#45;&gt;Node9 -->
<g id="edge8" class="edge">
<title>Node1&#45;&gt;Node9</title>
<path fill="none" stroke="midnightblue" d="M775.62,-438.89C860.88,-433.73 1053.13,-417.79 1102.5,-377 1145.43,-341.53 1162.44,-277.15 1169.15,-233.86"/>
<polygon fill="none" stroke="midnightblue" points="775.3,-435.4 765.53,-439.48 775.71,-442.39 775.3,-435.4"/>
</g>
<!-- Node10 -->
<g id="node10" class="node">
<title>Node10</title>
<g id="a_node10"><a xlink:href="classmkr_1_1texture__manager.html" target="_top" xlink:title=" ">
<polygon fill="white" stroke="black" points="1253.5,-121.5 1253.5,-255.5 1379.5,-255.5 1379.5,-121.5 1253.5,-121.5"/>
<text text-anchor="start" x="1261.5" y="-243.5" font-family="Helvetica,sans-Serif" font-size="10.00">mkr::texture_manager</text>
<text text-anchor="middle" x="1316.5" y="-232.5" font-family="Helvetica,sans-Serif" font-size="10.00">&lt; texture_manager &gt;</text>
<polyline fill="none" stroke="black" points="1253.5,-225.5 1379.5,-225.5 "/>
<text text-anchor="start" x="1261.5" y="-213.5" font-family="Helvetica,sans-Serif" font-size="10.00">&#45; texture2ds_</text>
<text text-anchor="start" x="1261.5" y="-202.5" font-family="Helvetica,sans-Serif" font-size="10.00">&#45; cubemaps_</text>
<polyline fill="none" stroke="black" points="1253.5,-195.5 1379.5,-195.5 "/>
<text text-anchor="start" x="1261.5" y="-183.5" font-family="Helvetica,sans-Serif" font-size="10.00">+ get_texture2d()</text>
<text text-anchor="start" x="1261.5" y="-172.5" font-family="Helvetica,sans-Serif" font-size="10.00">+ make_texture2d()</text>
<text text-anchor="start" x="1261.5" y="-161.5" font-family="Helvetica,sans-Serif" font-size="10.00">+ get_cubemap()</text>
<text text-anchor="start" x="1261.5" y="-150.5" font-family="Helvetica,sans-Serif" font-size="10.00">+ make_cubemap()</text>
<text text-anchor="start" x="1261.5" y="-139.5" font-family="Helvetica,sans-Serif" font-size="10.00">&#45; texture_manager()</text>
<text text-anchor="start" x="1261.5" y="-128.5" font-family="Helvetica,sans-Serif" font-size="10.00">&#45; ~texture_manager()</text>
</a>
</g>
</g>
<!-- Node1&#45;&gt;Node10 -->
<g id="edge9" class="edge">
<title>Node1&#45;&gt;Node10</title>
<path fill="none" stroke="midnightblue" d="M776.01,-441.12C884.28,-440.62 1171.93,-433.85 1244.5,-377 1281.7,-347.86 1299.69,-297.04 1308.38,-255.65"/>
<polygon fill="none" stroke="midnightblue" points="775.79,-437.62 765.8,-441.15 775.81,-444.62 775.79,-437.62"/>
</g>
</g>
</svg>
        <g id="navigator" transform="translate(0 0)" fill="#404254">
                <rect fill="#f2f5e9" fill-opacity="0.5" stroke="#606060" stroke-width=".5" x="0" y="0" width="60" height="60"/>
                <use id="zoomplus" xlink:href="#zoomPlus" x="17" y="9" onmousedown="handleZoom(evt,'in')"/>
                <use id="zoomminus" xlink:href="#zoomMin" x="42" y="9" onmousedown="handleZoom(evt,'out')"/>
                <use id="reset" xlink:href="#resetDef" x="30" y="36" onmousedown="handleReset()"/>
                <g id="arrowUp" xlink:href="#dirArrow" transform="translate(30 24)" onmousedown="handlePan(0,-1)">
                  <use xlink:href="#rim" fill="#404040">
                        <set attributeName="fill" to="#808080" begin="arrowUp.mouseover" end="arrowUp.mouseout"/>
                  </use>
                  <path fill="none" stroke="white" stroke-width="1.5" d="M0,-3.0v7 M-2.5,-0.5L0,-3.0L2.5,-0.5"/>
                </g>
                <g id="arrowRight" xlink:href="#dirArrow" transform="rotate(90) translate(36 -43)" onmousedown="handlePan(1,0)">
                  <use xlink:href="#rim" fill="#404040">
                        <set attributeName="fill" to="#808080" begin="arrowRight.mouseover" end="arrowRight.mouseout"/>
                  </use>
                  <path fill="none" stroke="white" stroke-width="1.5" d="M0,-3.0v7 M-2.5,-0.5L0,-3.0L2.5,-0.5"/>
                </g>
                <g id="arrowDown" xlink:href="#dirArrow" transform="rotate(180) translate(-30 -48)" onmousedown="handlePan(0,1)">
                  <use xlink:href="#rim" fill="#404040">
                        <set attributeName="fill" to="#808080" begin="arrowDown.mouseover" end="arrowDown.mouseout"/>
                  </use>
                  <path fill="none" stroke="white" stroke-width="1.5" d="M0,-3.0v7 M-2.5,-0.5L0,-3.0L2.5,-0.5"/>
                </g>
                <g id="arrowLeft" xlink:href="#dirArrow" transform="rotate(270) translate(-36 17)" onmousedown="handlePan(-1,0)">
                  <use xlink:href="#rim" fill="#404040">
                        <set attributeName="fill" to="#808080" begin="arrowLeft.mouseover" end="arrowLeft.mouseout"/>
                  </use>
                  <path fill="none" stroke="white" stroke-width="1.5" d="M0,-3.0v7 M-2.5,-0.5L0,-3.0L2.5,-0.5"/>
                </g>
        </g>
        <svg viewBox="0 0 15 15" width="100%" height="30px" preserveAspectRatio="xMaxYMin meet">
         <g id="arrow_out" transform="scale(0.3 0.3)">
          <a xlink:href="classsingleton__inherit__graph_org.svg" target="_base">
           <rect id="button" ry="5" rx="5" y="6" x="6" height="38" width="38"
                fill="#f2f5e9" fill-opacity="0.5" stroke="#606060" stroke-width="1.0"/>
           <path id="arrow"
             d="M 11.500037,31.436501 C 11.940474,20.09759 22.043105,11.32322 32.158766,21.979434 L 37.068811,17.246167 C 37.068811,17.246167 37.088388,32 37.088388,32 L 22.160133,31.978069 C 22.160133,31.978069 26.997745,27.140456 26.997745,27.140456 C 18.528582,18.264221 13.291696,25.230495 11.500037,31.436501 z"
             style="fill:#404040;"/>
          </a>
         </g>
        </svg>
</svg>
