<?xml version="1.0" encoding="UTF-8" standalone="no"?>
<!DOCTYPE svg PUBLIC "-//W3C//DTD SVG 1.1//EN"
 "http://www.w3.org/Graphics/SVG/1.1/DTD/svg11.dtd">
<!-- Generated by graphviz version 2.43.0 (0)
 -->
<!-- Title: mkr::event Pages: 1 -->
<svg width="361pt" height="403pt"
 viewBox="0.00 0.00 361.00 403.00" xmlns="http://www.w3.org/2000/svg" xmlns:xlink="http://www.w3.org/1999/xlink">
<g id="graph0" class="graph" transform="scale(1 1) rotate(0) translate(4 399)">
<title>mkr::event</title>
<polygon fill="white" stroke="transparent" points="-4,4 -4,-399 357,-399 357,4 -4,4"/>
<!-- Node1 -->
<g id="node1" class="node">
<title>Node1</title>
<g id="a_node1"><a xlink:title="event(s) contain data that is dispatched by an event_dispatcher, and is received by an event_listener...">
<polygon fill="#bfbfbf" stroke="black" points="190,-326.5 190,-394.5 261,-394.5 261,-326.5 190,-326.5"/>
<text text-anchor="middle" x="225.5" y="-382.5" font-family="Helvetica,sans-Serif" font-size="10.00">mkr::event</text>
<polyline fill="none" stroke="black" points="190,-375.5 261,-375.5 "/>
<text text-anchor="middle" x="225.5" y="-363.5" font-family="Helvetica,sans-Serif" font-size="10.00"> </text>
<polyline fill="none" stroke="black" points="190,-356.5 261,-356.5 "/>
<text text-anchor="start" x="198" y="-344.5" font-family="Helvetica,sans-Serif" font-size="10.00">+ event()</text>
<text text-anchor="start" x="198" y="-333.5" font-family="Helvetica,sans-Serif" font-size="10.00">+ ~event()</text>
</a>
</g>
</g>
<!-- Node2 -->
<g id="node2" class="node">
<title>Node2</title>
<g id="a_node2"><a xlink:href="classmkr_1_1input__event.html" target="_top" xlink:title=" ">
<polygon fill="white" stroke="black" points="119,-221.5 119,-289.5 220,-289.5 220,-221.5 119,-221.5"/>
<text text-anchor="middle" x="169.5" y="-277.5" font-family="Helvetica,sans-Serif" font-size="10.00">mkr::input_event</text>
<polyline fill="none" stroke="black" points="119,-270.5 220,-270.5 "/>
<text text-anchor="start" x="127" y="-258.5" font-family="Helvetica,sans-Serif" font-size="10.00">+ action_</text>
<polyline fill="none" stroke="black" points="119,-251.5 220,-251.5 "/>
<text text-anchor="start" x="127" y="-239.5" font-family="Helvetica,sans-Serif" font-size="10.00">+ ~input_event()</text>
<text text-anchor="start" x="127" y="-228.5" font-family="Helvetica,sans-Serif" font-size="10.00"># input_event()</text>
</a>
</g>
</g>
<!-- Node1&#45;&gt;Node2 -->
<g id="edge1" class="edge">
<title>Node1&#45;&gt;Node2</title>
<path fill="none" stroke="midnightblue" d="M202.55,-317.29C197.53,-308.06 192.29,-298.41 187.49,-289.59"/>
<polygon fill="none" stroke="midnightblue" points="199.62,-319.23 207.47,-326.34 205.77,-315.89 199.62,-319.23"/>
</g>
<!-- Node7 -->
<g id="node7" class="node">
<title>Node7</title>
<g id="a_node7"><a xlink:href="classmkr_1_1sdl__event.html" target="_top" xlink:title=" ">
<polygon fill="white" stroke="black" points="238,-227 238,-284 327,-284 327,-227 238,-227"/>
<text text-anchor="middle" x="282.5" y="-272" font-family="Helvetica,sans-Serif" font-size="10.00">mkr::sdl_event</text>
<polyline fill="none" stroke="black" points="238,-265 327,-265 "/>
<text text-anchor="start" x="246" y="-253" font-family="Helvetica,sans-Serif" font-size="10.00">+ sdl_event_</text>
<polyline fill="none" stroke="black" points="238,-246 327,-246 "/>
<text text-anchor="middle" x="282.5" y="-234" font-family="Helvetica,sans-Serif" font-size="10.00"> </text>
</a>
</g>
</g>
<!-- Node1&#45;&gt;Node7 -->
<g id="edge6" class="edge">
<title>Node1&#45;&gt;Node7</title>
<path fill="none" stroke="midnightblue" d="M248.75,-317.49C254.98,-306.23 261.56,-294.34 267.24,-284.08"/>
<polygon fill="none" stroke="midnightblue" points="245.63,-315.9 243.85,-326.34 251.75,-319.29 245.63,-315.9"/>
</g>
<!-- Node3 -->
<g id="node3" class="node">
<title>Node3</title>
<g id="a_node3"><a xlink:href="classmkr_1_1axis__event.html" target="_top" xlink:title=" ">
<polygon fill="white" stroke="black" points="0,-111 0,-179 97,-179 97,-111 0,-111"/>
<text text-anchor="middle" x="48.5" y="-167" font-family="Helvetica,sans-Serif" font-size="10.00">mkr::axis_event</text>
<polyline fill="none" stroke="black" points="0,-160 97,-160 "/>
<text text-anchor="start" x="8" y="-148" font-family="Helvetica,sans-Serif" font-size="10.00">+ value_</text>
<polyline fill="none" stroke="black" points="0,-141 97,-141 "/>
<text text-anchor="start" x="8" y="-129" font-family="Helvetica,sans-Serif" font-size="10.00">+ axis_event()</text>
<text text-anchor="start" x="8" y="-118" font-family="Helvetica,sans-Serif" font-size="10.00">+ ~axis_event()</text>
</a>
</g>
</g>
<!-- Node2&#45;&gt;Node3 -->
<g id="edge2" class="edge">
<title>Node2&#45;&gt;Node3</title>
<path fill="none" stroke="midnightblue" d="M125.06,-214.65C112.11,-203.04 98.1,-190.48 85.65,-179.31"/>
<polygon fill="none" stroke="midnightblue" points="122.76,-217.29 132.54,-221.36 127.43,-212.07 122.76,-217.29"/>
</g>
<!-- Node4 -->
<g id="node4" class="node">
<title>Node4</title>
<g id="a_node4"><a xlink:href="classmkr_1_1button__event.html" target="_top" xlink:title=" ">
<polygon fill="white" stroke="black" points="115.5,-111 115.5,-179 223.5,-179 223.5,-111 115.5,-111"/>
<text text-anchor="middle" x="169.5" y="-167" font-family="Helvetica,sans-Serif" font-size="10.00">mkr::button_event</text>
<polyline fill="none" stroke="black" points="115.5,-160 223.5,-160 "/>
<text text-anchor="start" x="123.5" y="-148" font-family="Helvetica,sans-Serif" font-size="10.00">+ state_</text>
<polyline fill="none" stroke="black" points="115.5,-141 223.5,-141 "/>
<text text-anchor="start" x="123.5" y="-129" font-family="Helvetica,sans-Serif" font-size="10.00">+ button_event()</text>
<text text-anchor="start" x="123.5" y="-118" font-family="Helvetica,sans-Serif" font-size="10.00">+ ~button_event()</text>
</a>
</g>
</g>
<!-- Node2&#45;&gt;Node4 -->
<g id="edge3" class="edge">
<title>Node2&#45;&gt;Node4</title>
<path fill="none" stroke="midnightblue" d="M169.5,-211.04C169.5,-200.47 169.5,-189.33 169.5,-179.31"/>
<polygon fill="none" stroke="midnightblue" points="166,-211.36 169.5,-221.36 173,-211.36 166,-211.36"/>
</g>
<!-- Node6 -->
<g id="node6" class="node">
<title>Node6</title>
<g id="a_node6"><a xlink:href="classmkr_1_1motion__event.html" target="_top" xlink:title=" ">
<polygon fill="white" stroke="black" points="242,-105.5 242,-184.5 353,-184.5 353,-105.5 242,-105.5"/>
<text text-anchor="middle" x="297.5" y="-172.5" font-family="Helvetica,sans-Serif" font-size="10.00">mkr::motion_event</text>
<polyline fill="none" stroke="black" points="242,-165.5 353,-165.5 "/>
<text text-anchor="start" x="250" y="-153.5" font-family="Helvetica,sans-Serif" font-size="10.00">+ position_</text>
<text text-anchor="start" x="250" y="-142.5" font-family="Helvetica,sans-Serif" font-size="10.00">+ delta_</text>
<polyline fill="none" stroke="black" points="242,-135.5 353,-135.5 "/>
<text text-anchor="start" x="250" y="-123.5" font-family="Helvetica,sans-Serif" font-size="10.00">+ motion_event()</text>
<text text-anchor="start" x="250" y="-112.5" font-family="Helvetica,sans-Serif" font-size="10.00">+ ~motion_event()</text>
</a>
</g>
</g>
<!-- Node2&#45;&gt;Node6 -->
<g id="edge5" class="edge">
<title>Node2&#45;&gt;Node6</title>
<path fill="none" stroke="midnightblue" d="M216.46,-214.69C228.03,-204.89 240.4,-194.4 251.9,-184.65"/>
<polygon fill="none" stroke="midnightblue" points="213.96,-212.22 208.6,-221.36 218.49,-217.56 213.96,-212.22"/>
</g>
<!-- Node5 -->
<g id="node5" class="node">
<title>Node5</title>
<g id="a_node5"><a xlink:href="classmkr_1_1click__event.html" target="_top" xlink:title=" ">
<polygon fill="white" stroke="black" points="120,-0.5 120,-68.5 219,-68.5 219,-0.5 120,-0.5"/>
<text text-anchor="middle" x="169.5" y="-56.5" font-family="Helvetica,sans-Serif" font-size="10.00">mkr::click_event</text>
<polyline fill="none" stroke="black" points="120,-49.5 219,-49.5 "/>
<text text-anchor="start" x="128" y="-37.5" font-family="Helvetica,sans-Serif" font-size="10.00">+ position_</text>
<polyline fill="none" stroke="black" points="120,-30.5 219,-30.5 "/>
<text text-anchor="start" x="128" y="-18.5" font-family="Helvetica,sans-Serif" font-size="10.00">+ click_event()</text>
<text text-anchor="start" x="128" y="-7.5" font-family="Helvetica,sans-Serif" font-size="10.00">+ ~click_event()</text>
</a>
</g>
</g>
<!-- Node4&#45;&gt;Node5 -->
<g id="edge4" class="edge">
<title>Node4&#45;&gt;Node5</title>
<path fill="none" stroke="midnightblue" d="M169.5,-100.54C169.5,-89.97 169.5,-78.83 169.5,-68.81"/>
<polygon fill="none" stroke="midnightblue" points="166,-100.86 169.5,-110.86 173,-100.86 166,-100.86"/>
</g>
</g>
</svg>
