<?xml version="1.0" encoding="UTF-8" standalone="no"?>
<!DOCTYPE svg PUBLIC "-//W3C//DTD SVG 1.1//EN"
 "http://www.w3.org/Graphics/SVG/1.1/DTD/svg11.dtd">
<!-- Generated by graphviz version 2.43.0 (0)
 -->
<!-- Title: mkr::lbuffer Pages: 1 -->
<svg width="451pt" height="464pt"
 viewBox="0.00 0.00 450.50 464.00" xmlns="http://www.w3.org/2000/svg" xmlns:xlink="http://www.w3.org/1999/xlink">
<g id="graph0" class="graph" transform="scale(1 1) rotate(0) translate(4 460)">
<title>mkr::lbuffer</title>
<polygon fill="white" stroke="transparent" points="-4,4 -4,-460 446.5,-460 446.5,4 -4,4"/>
<!-- Node1 -->
<g id="node1" class="node">
<title>Node1</title>
<g id="a_node1"><a xlink:title=" ">
<polygon fill="#bfbfbf" stroke="black" points="77.5,-0.5 77.5,-79.5 177.5,-79.5 177.5,-0.5 77.5,-0.5"/>
<text text-anchor="middle" x="127.5" y="-67.5" font-family="Helvetica,sans-Serif" font-size="10.00">mkr::lbuffer</text>
<polyline fill="none" stroke="black" points="77.5,-60.5 177.5,-60.5 "/>
<text text-anchor="middle" x="127.5" y="-48.5" font-family="Helvetica,sans-Serif" font-size="10.00"> </text>
<polyline fill="none" stroke="black" points="77.5,-41.5 177.5,-41.5 "/>
<text text-anchor="start" x="85.5" y="-29.5" font-family="Helvetica,sans-Serif" font-size="10.00">+ lbuffer()</text>
<text text-anchor="start" x="85.5" y="-18.5" font-family="Helvetica,sans-Serif" font-size="10.00">+ ~lbuffer()</text>
<text text-anchor="start" x="85.5" y="-7.5" font-family="Helvetica,sans-Serif" font-size="10.00">+ swap_buffers()</text>
</a>
</g>
</g>
<!-- Node2 -->
<g id="node2" class="node">
<title>Node2</title>
<g id="a_node2"><a xlink:href="classmkr_1_1framebuffer.html" target="_top" xlink:title=" ">
<polygon fill="white" stroke="black" points="178,-117.5 178,-339.5 361,-339.5 361,-117.5 178,-117.5"/>
<text text-anchor="middle" x="269.5" y="-327.5" font-family="Helvetica,sans-Serif" font-size="10.00">mkr::framebuffer</text>
<polyline fill="none" stroke="black" points="178,-320.5 361,-320.5 "/>
<text text-anchor="middle" x="269.5" y="-308.5" font-family="Helvetica,sans-Serif" font-size="10.00"> </text>
<polyline fill="none" stroke="black" points="178,-301.5 361,-301.5 "/>
<text text-anchor="start" x="186" y="-289.5" font-family="Helvetica,sans-Serif" font-size="10.00">+ ~framebuffer()</text>
<text text-anchor="start" x="186" y="-278.5" font-family="Helvetica,sans-Serif" font-size="10.00">+ is_complete()</text>
<text text-anchor="start" x="186" y="-267.5" font-family="Helvetica,sans-Serif" font-size="10.00">+ get_colour_attachment()</text>
<text text-anchor="start" x="186" y="-256.5" font-family="Helvetica,sans-Serif" font-size="10.00">+ get_colour_attachment()</text>
<text text-anchor="start" x="186" y="-245.5" font-family="Helvetica,sans-Serif" font-size="10.00">+ get_depth_stencil_attachment()</text>
<text text-anchor="start" x="186" y="-234.5" font-family="Helvetica,sans-Serif" font-size="10.00">+ get_depth_stencil_attachment()</text>
<text text-anchor="start" x="186" y="-223.5" font-family="Helvetica,sans-Serif" font-size="10.00">+ bind()</text>
<text text-anchor="start" x="186" y="-212.5" font-family="Helvetica,sans-Serif" font-size="10.00">+ blit_to()</text>
<text text-anchor="start" x="186" y="-201.5" font-family="Helvetica,sans-Serif" font-size="10.00">+ set_read_colour_attachment()</text>
<text text-anchor="start" x="186" y="-190.5" font-family="Helvetica,sans-Serif" font-size="10.00">+ set_draw_colour_attachment()</text>
<text text-anchor="start" x="186" y="-179.5" font-family="Helvetica,sans-Serif" font-size="10.00">+ set_draw_colour_attachment</text>
<text text-anchor="start" x="186" y="-168.5" font-family="Helvetica,sans-Serif" font-size="10.00">_all()</text>
<text text-anchor="start" x="186" y="-157.5" font-family="Helvetica,sans-Serif" font-size="10.00">+ clear_colour()</text>
<text text-anchor="start" x="186" y="-146.5" font-family="Helvetica,sans-Serif" font-size="10.00">+ clear_colour_all()</text>
<text text-anchor="start" x="186" y="-135.5" font-family="Helvetica,sans-Serif" font-size="10.00">+ clear_depth_stencil()</text>
<text text-anchor="start" x="186" y="-124.5" font-family="Helvetica,sans-Serif" font-size="10.00"># framebuffer()</text>
</a>
</g>
</g>
<!-- Node2&#45;&gt;Node1 -->
<g id="edge1" class="edge">
<title>Node2&#45;&gt;Node1</title>
<path fill="none" stroke="midnightblue" d="M179.5,-109.29C171.51,-98.8 163.87,-88.77 157.02,-79.78"/>
<polygon fill="none" stroke="midnightblue" points="176.82,-111.56 185.67,-117.39 182.39,-107.32 176.82,-111.56"/>
</g>
<!-- Node3 -->
<g id="node3" class="node">
<title>Node3</title>
<g id="a_node3"><a xlink:title=" ">
<polygon fill="white" stroke="#bfbfbf" points="0,-393 0,-450 169,-450 169,-393 0,-393"/>
<text text-anchor="middle" x="84.5" y="-438" font-family="Helvetica,sans-Serif" font-size="10.00">shared_ptr&lt; mkr::texture_2d &gt;</text>
<polyline fill="none" stroke="#bfbfbf" points="0,-431 169,-431 "/>
<text text-anchor="middle" x="84.5" y="-419" font-family="Helvetica,sans-Serif" font-size="10.00"> </text>
<polyline fill="none" stroke="#bfbfbf" points="0,-412 169,-412 "/>
<text text-anchor="middle" x="84.5" y="-400" font-family="Helvetica,sans-Serif" font-size="10.00"> </text>
</a>
</g>
</g>
<!-- Node3&#45;&gt;Node1 -->
<g id="edge5" class="edge">
<title>Node3&#45;&gt;Node1</title>
<path fill="none" stroke="#404040" d="M79.86,-392.69C71.82,-338.54 58.54,-215.6 84.5,-117 86.89,-107.93 90.63,-98.8 94.94,-90.18"/>
<polygon fill="none" stroke="#404040" points="94.96,-90.14 94.28,-82.96 100.64,-79.56 101.33,-86.74 94.96,-90.14"/>
<text text-anchor="middle" x="126.5" y="-231.5" font-family="Helvetica,sans-Serif" font-size="10.00"> #diffuse_back_</text>
<text text-anchor="middle" x="126.5" y="-220.5" font-family="Helvetica,sans-Serif" font-size="10.00">#specular_back_</text>
</g>
<!-- Node3&#45;&gt;Node2 -->
<g id="edge2" class="edge">
<title>Node3&#45;&gt;Node2</title>
<path fill="none" stroke="#404040" d="M97.87,-392.9C104.62,-381.05 113.68,-367.74 124.5,-358 137.8,-346.04 146.02,-350.51 160.5,-340 163.12,-338.1 165.73,-336.13 168.33,-334.11"/>
<polygon fill="none" stroke="#404040" points="168.35,-334.1 170.51,-327.22 177.69,-326.58 175.53,-333.46 168.35,-334.1"/>
<text text-anchor="middle" x="196.5" y="-361" font-family="Helvetica,sans-Serif" font-size="10.00"> #depth_stencil_attachment_</text>
</g>
<!-- Node4 -->
<g id="node4" class="node">
<title>Node4</title>
<g id="a_node4"><a xlink:title=" ">
<polygon fill="white" stroke="#bfbfbf" points="199,-387.5 199,-455.5 346,-455.5 346,-387.5 199,-387.5"/>
<text text-anchor="start" x="207" y="-443.5" font-family="Helvetica,sans-Serif" font-size="10.00">vector&lt; std::shared</text>
<text text-anchor="middle" x="272.5" y="-432.5" font-family="Helvetica,sans-Serif" font-size="10.00">_ptr&lt; mkr::texture_2d &gt; &gt;</text>
<polyline fill="none" stroke="#bfbfbf" points="199,-425.5 346,-425.5 "/>
<text text-anchor="middle" x="272.5" y="-413.5" font-family="Helvetica,sans-Serif" font-size="10.00"> </text>
<polyline fill="none" stroke="#bfbfbf" points="199,-406.5 346,-406.5 "/>
<text text-anchor="middle" x="272.5" y="-394.5" font-family="Helvetica,sans-Serif" font-size="10.00"> </text>
</a>
</g>
</g>
<!-- Node4&#45;&gt;Node2 -->
<g id="edge3" class="edge">
<title>Node4&#45;&gt;Node2</title>
<path fill="none" stroke="#404040" d="M271.98,-387.23C271.82,-376.94 271.63,-364.95 271.43,-352.26"/>
<polygon fill="none" stroke="#404040" points="271.42,-351.9 267.33,-345.97 271.23,-339.91 275.33,-345.84 271.42,-351.9"/>
<text text-anchor="middle" x="329.5" y="-361" font-family="Helvetica,sans-Serif" font-size="10.00"> #colour_attachments_</text>
</g>
<!-- Node5 -->
<g id="node5" class="node">
<title>Node5</title>
<g id="a_node5"><a xlink:title=" ">
<polygon fill="white" stroke="#bfbfbf" points="385.5,-393 385.5,-450 433.5,-450 433.5,-393 385.5,-393"/>
<text text-anchor="middle" x="409.5" y="-438" font-family="Helvetica,sans-Serif" font-size="10.00">GLuint</text>
<polyline fill="none" stroke="#bfbfbf" points="385.5,-431 433.5,-431 "/>
<text text-anchor="middle" x="409.5" y="-419" font-family="Helvetica,sans-Serif" font-size="10.00"> </text>
<polyline fill="none" stroke="#bfbfbf" points="385.5,-412 433.5,-412 "/>
<text text-anchor="middle" x="409.5" y="-400" font-family="Helvetica,sans-Serif" font-size="10.00"> </text>
</a>
</g>
</g>
<!-- Node5&#45;&gt;Node2 -->
<g id="edge4" class="edge">
<title>Node5&#45;&gt;Node2</title>
<path fill="none" stroke="#404040" d="M402.45,-392.98C398.9,-381.68 393.95,-368.75 387.5,-358 381.89,-348.66 375.53,-339.4 368.73,-330.39"/>
<polygon fill="none" stroke="#404040" points="368.57,-330.19 361.73,-327.91 361.2,-320.72 368.04,-323 368.57,-330.19"/>
<text text-anchor="middle" x="417.5" y="-361" font-family="Helvetica,sans-Serif" font-size="10.00"> #handle_</text>
</g>
</g>
</svg>
