<?xml version="1.0" encoding="UTF-8" standalone="no"?>
<!DOCTYPE svg PUBLIC "-//W3C//DTD SVG 1.1//EN"
 "http://www.w3.org/Graphics/SVG/1.1/DTD/svg11.dtd">
<!-- Generated by graphviz version 2.43.0 (0)
 -->
<!-- Title: mkr::motion_handler Pages: 1 -->
<svg width="370pt" height="259pt"
 viewBox="0.00 0.00 370.00 259.00" xmlns="http://www.w3.org/2000/svg" xmlns:xlink="http://www.w3.org/1999/xlink">
<g id="graph0" class="graph" transform="scale(1 1) rotate(0) translate(4 255)">
<title>mkr::motion_handler</title>
<polygon fill="white" stroke="transparent" points="-4,4 -4,-255 366,-255 366,4 -4,4"/>
<!-- Node1 -->
<g id="node1" class="node">
<title>Node1</title>
<g id="a_node1"><a xlink:title=" ">
<polygon fill="#bfbfbf" stroke="black" points="72.5,-0.5 72.5,-112.5 197.5,-112.5 197.5,-0.5 72.5,-0.5"/>
<text text-anchor="middle" x="135" y="-100.5" font-family="Helvetica,sans-Serif" font-size="10.00">mkr::motion_handler</text>
<polyline fill="none" stroke="black" points="72.5,-93.5 197.5,-93.5 "/>
<text text-anchor="middle" x="135" y="-81.5" font-family="Helvetica,sans-Serif" font-size="10.00"> </text>
<polyline fill="none" stroke="black" points="72.5,-74.5 197.5,-74.5 "/>
<text text-anchor="start" x="80.5" y="-62.5" font-family="Helvetica,sans-Serif" font-size="10.00">+ motion_handler()</text>
<text text-anchor="start" x="80.5" y="-51.5" font-family="Helvetica,sans-Serif" font-size="10.00">+ ~motion_handler()</text>
<text text-anchor="start" x="80.5" y="-40.5" font-family="Helvetica,sans-Serif" font-size="10.00">+ dispatch_events()</text>
<text text-anchor="start" x="80.5" y="-29.5" font-family="Helvetica,sans-Serif" font-size="10.00">+ on_motion()</text>
<text text-anchor="start" x="80.5" y="-18.5" font-family="Helvetica,sans-Serif" font-size="10.00">+ register_motion()</text>
<text text-anchor="start" x="80.5" y="-7.5" font-family="Helvetica,sans-Serif" font-size="10.00">+ unregister_motion()</text>
</a>
</g>
</g>
<!-- Node2 -->
<g id="node2" class="node">
<title>Node2</title>
<g id="a_node2"><a xlink:title=" ">
<polygon fill="white" stroke="#bfbfbf" points="0,-182.5 0,-239.5 48,-239.5 48,-182.5 0,-182.5"/>
<text text-anchor="middle" x="24" y="-227.5" font-family="Helvetica,sans-Serif" font-size="10.00">mutex</text>
<polyline fill="none" stroke="#bfbfbf" points="0,-220.5 48,-220.5 "/>
<text text-anchor="middle" x="24" y="-208.5" font-family="Helvetica,sans-Serif" font-size="10.00"> </text>
<polyline fill="none" stroke="#bfbfbf" points="0,-201.5 48,-201.5 "/>
<text text-anchor="middle" x="24" y="-189.5" font-family="Helvetica,sans-Serif" font-size="10.00"> </text>
</a>
</g>
</g>
<!-- Node2&#45;&gt;Node1 -->
<g id="edge1" class="edge">
<title>Node2&#45;&gt;Node1</title>
<path fill="none" stroke="#404040" d="M33.69,-182.35C39.92,-166.55 48.92,-146.8 60,-131 62.13,-127.96 64.39,-124.95 66.76,-121.96"/>
<polygon fill="none" stroke="#404040" points="66.91,-121.78 67.69,-114.61 74.61,-112.57 73.83,-119.74 66.91,-121.78"/>
<text text-anchor="middle" x="95.5" y="-145" font-family="Helvetica,sans-Serif" font-size="10.00"> &#45;reg_mutex_</text>
<text text-anchor="middle" x="95.5" y="-134" font-family="Helvetica,sans-Serif" font-size="10.00">&#45;state_mutex_</text>
</g>
<!-- Node3 -->
<g id="node3" class="node">
<title>Node3</title>
<g id="a_node3"><a xlink:title=" ">
<polygon fill="white" stroke="#bfbfbf" points="66.5,-171.5 66.5,-250.5 203.5,-250.5 203.5,-171.5 66.5,-171.5"/>
<text text-anchor="start" x="74.5" y="-238.5" font-family="Helvetica,sans-Serif" font-size="10.00">unordered_map&lt; input</text>
<text text-anchor="start" x="74.5" y="-227.5" font-family="Helvetica,sans-Serif" font-size="10.00">_action_t, mkr::motion</text>
<text text-anchor="middle" x="135" y="-216.5" font-family="Helvetica,sans-Serif" font-size="10.00">_handler::motion_data &gt;</text>
<polyline fill="none" stroke="#bfbfbf" points="66.5,-209.5 203.5,-209.5 "/>
<text text-anchor="middle" x="135" y="-197.5" font-family="Helvetica,sans-Serif" font-size="10.00"> </text>
<polyline fill="none" stroke="#bfbfbf" points="66.5,-190.5 203.5,-190.5 "/>
<text text-anchor="middle" x="135" y="-178.5" font-family="Helvetica,sans-Serif" font-size="10.00"> </text>
</a>
</g>
</g>
<!-- Node3&#45;&gt;Node1 -->
<g id="edge2" class="edge">
<title>Node3&#45;&gt;Node1</title>
<path fill="none" stroke="#404040" d="M135,-171.12C135,-157.13 135,-140.9 135,-125.17"/>
<polygon fill="none" stroke="#404040" points="135,-124.71 131,-118.71 135,-112.71 139,-118.71 135,-124.71"/>
<text text-anchor="middle" x="153.5" y="-139.5" font-family="Helvetica,sans-Serif" font-size="10.00"> &#45;state_</text>
</g>
<!-- Node4 -->
<g id="node4" class="node">
<title>Node4</title>
<g id="a_node4"><a xlink:title=" ">
<polygon fill="white" stroke="#bfbfbf" points="222,-171.5 222,-250.5 362,-250.5 362,-171.5 222,-171.5"/>
<text text-anchor="start" x="230" y="-238.5" font-family="Helvetica,sans-Serif" font-size="10.00">unordered_map&lt; input</text>
<text text-anchor="start" x="230" y="-227.5" font-family="Helvetica,sans-Serif" font-size="10.00">_mask_t, std::unordered</text>
<text text-anchor="middle" x="292" y="-216.5" font-family="Helvetica,sans-Serif" font-size="10.00">_set&lt; input_action_t &gt; &gt;</text>
<polyline fill="none" stroke="#bfbfbf" points="222,-209.5 362,-209.5 "/>
<text text-anchor="middle" x="292" y="-197.5" font-family="Helvetica,sans-Serif" font-size="10.00"> </text>
<polyline fill="none" stroke="#bfbfbf" points="222,-190.5 362,-190.5 "/>
<text text-anchor="middle" x="292" y="-178.5" font-family="Helvetica,sans-Serif" font-size="10.00"> </text>
</a>
</g>
</g>
<!-- Node4&#45;&gt;Node1 -->
<g id="edge3" class="edge">
<title>Node4&#45;&gt;Node1</title>
<path fill="none" stroke="#404040" d="M251.98,-171.12C236.43,-156.02 218.2,-138.31 200.82,-121.44"/>
<polygon fill="none" stroke="#404040" points="200.44,-121.07 193.35,-119.75 191.83,-112.71 198.92,-114.02 200.44,-121.07"/>
<text text-anchor="middle" x="257" y="-139.5" font-family="Helvetica,sans-Serif" font-size="10.00"> &#45;registry_</text>
</g>
</g>
</svg>
