<?xml version="1.0" encoding="UTF-8" standalone="no"?>
<!DOCTYPE svg PUBLIC "-//W3C//DTD SVG 1.1//EN"
 "http://www.w3.org/Graphics/SVG/1.1/DTD/svg11.dtd">
<!-- Generated by graphviz version 2.43.0 (0)
 -->
<!-- Title: mkr::framebuffer Pages: 1 -->
<!--zoomable 391 -->
<svg id="main" version="1.1" xmlns="http://www.w3.org/2000/svg" xmlns:xlink="http://www.w3.org/1999/xlink" xml:space="preserve" onload="init(evt)">
<style type="text/css"><![CDATA[
.edge:hover path { stroke: red; }
.edge:hover polygon { stroke: red; fill: red; }
]]></style>
<script type="text/javascript"><![CDATA[
var edges = document.getElementsByTagName('g');
if (edges && edges.length) {
  for (var i=0;i<edges.length;i++) {
    if (edges[i].id.substr(0,4)=='edge') {
      edges[i].setAttribute('class','edge');
    }
  }
}
]]></script>
        <defs>
                <circle id="rim" cx="0" cy="0" r="7"/>
                <circle id="rim2" cx="0" cy="0" r="3.5"/>
                <g id="zoomPlus">
                        <use xlink:href="#rim" fill="#404040">
                                <set attributeName="fill" to="#808080" begin="zoomplus.mouseover" end="zoomplus.mouseout"/>
                        </use>
                        <path d="M-4,0h8M0,-4v8" fill="none" stroke="white" stroke-width="1.5" pointer-events="none"/>
                </g>
                <g id="zoomMin">
                        <use xlink:href="#rim" fill="#404040">
                                <set attributeName="fill" to="#808080" begin="zoomminus.mouseover" end="zoomminus.mouseout"/>
                        </use>
                        <path d="M-4,0h8" fill="none" stroke="white" stroke-width="1.5" pointer-events="none"/>
                </g>
                <g id="dirArrow">
                        <path fill="none" stroke="white" stroke-width="1.5" d="M0,-3.0v7 M-2.5,-0.5L0,-3.0L2.5,-0.5"/>
                </g>
               <g id="resetDef">
                       <use xlink:href="#rim2" fill="#404040">
                               <set attributeName="fill" to="#808080" begin="reset.mouseover" end="reset.mouseout"/>
                       </use>
               </g>
        </defs>

<script type="text/javascript">
var viewWidth = 850;
var viewHeight = 391;
var sectionId = 'dynsection-0';
</script>
<script xlink:href="svgpan.js"/>
<svg id="graph" class="graph">
<g id="viewport">
<title>mkr::framebuffer</title>
<polygon fill="white" stroke="transparent" points="-4,4 -4,-387 846,-387 846,4 -4,4"/>
<!-- Node1 -->
<g id="node1" class="node">
<title>Node1</title>
<g id="a_node1"><a xlink:title=" ">
<polygon fill="#bfbfbf" stroke="black" points="357,-138.5 357,-382.5 540,-382.5 540,-138.5 357,-138.5"/>
<text text-anchor="middle" x="448.5" y="-370.5" font-family="Helvetica,sans-Serif" font-size="10.00">mkr::framebuffer</text>
<polyline fill="none" stroke="black" points="357,-363.5 540,-363.5 "/>
<text text-anchor="start" x="365" y="-351.5" font-family="Helvetica,sans-Serif" font-size="10.00"># colour_attachments_</text>
<text text-anchor="start" x="365" y="-340.5" font-family="Helvetica,sans-Serif" font-size="10.00"># depth_stencil_attachment_</text>
<text text-anchor="start" x="365" y="-329.5" font-family="Helvetica,sans-Serif" font-size="10.00"># handle_</text>
<polyline fill="none" stroke="black" points="357,-322.5 540,-322.5 "/>
<text text-anchor="start" x="365" y="-310.5" font-family="Helvetica,sans-Serif" font-size="10.00">+ ~framebuffer()</text>
<text text-anchor="start" x="365" y="-299.5" font-family="Helvetica,sans-Serif" font-size="10.00">+ is_complete()</text>
<text text-anchor="start" x="365" y="-288.5" font-family="Helvetica,sans-Serif" font-size="10.00">+ get_colour_attachment()</text>
<text text-anchor="start" x="365" y="-277.5" font-family="Helvetica,sans-Serif" font-size="10.00">+ get_colour_attachment()</text>
<text text-anchor="start" x="365" y="-266.5" font-family="Helvetica,sans-Serif" font-size="10.00">+ get_depth_stencil_attachment()</text>
<text text-anchor="start" x="365" y="-255.5" font-family="Helvetica,sans-Serif" font-size="10.00">+ get_depth_stencil_attachment()</text>
<text text-anchor="start" x="365" y="-244.5" font-family="Helvetica,sans-Serif" font-size="10.00">+ bind()</text>
<text text-anchor="start" x="365" y="-233.5" font-family="Helvetica,sans-Serif" font-size="10.00">+ blit_to()</text>
<text text-anchor="start" x="365" y="-222.5" font-family="Helvetica,sans-Serif" font-size="10.00">+ set_read_colour_attachment()</text>
<text text-anchor="start" x="365" y="-211.5" font-family="Helvetica,sans-Serif" font-size="10.00">+ set_draw_colour_attachment()</text>
<text text-anchor="start" x="365" y="-200.5" font-family="Helvetica,sans-Serif" font-size="10.00">+ set_draw_colour_attachment</text>
<text text-anchor="start" x="365" y="-189.5" font-family="Helvetica,sans-Serif" font-size="10.00">_all()</text>
<text text-anchor="start" x="365" y="-178.5" font-family="Helvetica,sans-Serif" font-size="10.00">+ clear_colour()</text>
<text text-anchor="start" x="365" y="-167.5" font-family="Helvetica,sans-Serif" font-size="10.00">+ clear_colour_all()</text>
<text text-anchor="start" x="365" y="-156.5" font-family="Helvetica,sans-Serif" font-size="10.00">+ clear_depth_stencil()</text>
<text text-anchor="start" x="365" y="-145.5" font-family="Helvetica,sans-Serif" font-size="10.00"># framebuffer()</text>
</a>
</g>
</g>
<!-- Node2 -->
<g id="node2" class="node">
<title>Node2</title>
<g id="a_node2"><a xlink:href="classmkr_1_1default__buffer.html" target="_top" xlink:title=" ">
<polygon fill="white" stroke="black" points="0,-0.5 0,-101.5 169,-101.5 169,-0.5 0,-0.5"/>
<text text-anchor="middle" x="84.5" y="-89.5" font-family="Helvetica,sans-Serif" font-size="10.00">mkr::default_buffer</text>
<polyline fill="none" stroke="black" points="0,-82.5 169,-82.5 "/>
<text text-anchor="middle" x="84.5" y="-70.5" font-family="Helvetica,sans-Serif" font-size="10.00"> </text>
<polyline fill="none" stroke="black" points="0,-63.5 169,-63.5 "/>
<text text-anchor="start" x="8" y="-51.5" font-family="Helvetica,sans-Serif" font-size="10.00">+ default_buffer()</text>
<text text-anchor="start" x="8" y="-40.5" font-family="Helvetica,sans-Serif" font-size="10.00">+ ~default_buffer()</text>
<text text-anchor="start" x="8" y="-29.5" font-family="Helvetica,sans-Serif" font-size="10.00">+ set_draw_colour_attachment</text>
<text text-anchor="start" x="8" y="-18.5" font-family="Helvetica,sans-Serif" font-size="10.00">_all()</text>
<text text-anchor="start" x="8" y="-7.5" font-family="Helvetica,sans-Serif" font-size="10.00">+ clear_colour_all()</text>
</a>
</g>
</g>
<!-- Node1&#45;&gt;Node2 -->
<g id="edge1" class="edge">
<title>Node1&#45;&gt;Node2</title>
<path fill="none" stroke="midnightblue" d="M347.75,-202.07C291.6,-170.06 222.47,-130.65 169.15,-100.25"/>
<polygon fill="none" stroke="midnightblue" points="346.23,-205.23 356.65,-207.14 349.69,-199.15 346.23,-205.23"/>
</g>
<!-- Node3 -->
<g id="node3" class="node">
<title>Node3</title>
<g id="a_node3"><a xlink:href="classmkr_1_1forward__buffer.html" target="_top" xlink:title=" ">
<polygon fill="white" stroke="black" points="187,-17 187,-85 302,-85 302,-17 187,-17"/>
<text text-anchor="middle" x="244.5" y="-73" font-family="Helvetica,sans-Serif" font-size="10.00">mkr::forward_buffer</text>
<polyline fill="none" stroke="black" points="187,-66 302,-66 "/>
<text text-anchor="middle" x="244.5" y="-54" font-family="Helvetica,sans-Serif" font-size="10.00"> </text>
<polyline fill="none" stroke="black" points="187,-47 302,-47 "/>
<text text-anchor="start" x="195" y="-35" font-family="Helvetica,sans-Serif" font-size="10.00">+ forward_buffer()</text>
<text text-anchor="start" x="195" y="-24" font-family="Helvetica,sans-Serif" font-size="10.00">+ ~forward_buffer()</text>
</a>
</g>
</g>
<!-- Node1&#45;&gt;Node3 -->
<g id="edge2" class="edge">
<title>Node1&#45;&gt;Node3</title>
<path fill="none" stroke="midnightblue" d="M349.89,-159.2C323.52,-132.38 296.86,-105.26 276.95,-85"/>
<polygon fill="none" stroke="midnightblue" points="347.44,-161.69 356.94,-166.37 352.43,-156.79 347.44,-161.69"/>
</g>
<!-- Node4 -->
<g id="node4" class="node">
<title>Node4</title>
<g id="a_node4"><a xlink:href="classmkr_1_1geometry__buffer.html" target="_top" xlink:title=" ">
<polygon fill="white" stroke="black" points="320,-17 320,-85 445,-85 445,-17 320,-17"/>
<text text-anchor="middle" x="382.5" y="-73" font-family="Helvetica,sans-Serif" font-size="10.00">mkr::geometry_buffer</text>
<polyline fill="none" stroke="black" points="320,-66 445,-66 "/>
<text text-anchor="middle" x="382.5" y="-54" font-family="Helvetica,sans-Serif" font-size="10.00"> </text>
<polyline fill="none" stroke="black" points="320,-47 445,-47 "/>
<text text-anchor="start" x="328" y="-35" font-family="Helvetica,sans-Serif" font-size="10.00">+ geometry_buffer()</text>
<text text-anchor="start" x="328" y="-24" font-family="Helvetica,sans-Serif" font-size="10.00">+ ~geometry_buffer()</text>
</a>
</g>
</g>
<!-- Node1&#45;&gt;Node4 -->
<g id="edge3" class="edge">
<title>Node1&#45;&gt;Node4</title>
<path fill="none" stroke="midnightblue" d="M406.98,-128.95C401.87,-112.89 397.05,-97.75 393.07,-85.22"/>
<polygon fill="none" stroke="midnightblue" points="403.65,-130.03 410.01,-138.5 410.32,-127.91 403.65,-130.03"/>
</g>
<!-- Node5 -->
<g id="node5" class="node">
<title>Node5</title>
<g id="a_node5"><a xlink:href="classmkr_1_1light__buffer.html" target="_top" xlink:title=" ">
<polygon fill="white" stroke="black" points="463,-6 463,-96 566,-96 566,-6 463,-6"/>
<text text-anchor="middle" x="514.5" y="-84" font-family="Helvetica,sans-Serif" font-size="10.00">mkr::light_buffer</text>
<polyline fill="none" stroke="black" points="463,-77 566,-77 "/>
<text text-anchor="start" x="471" y="-65" font-family="Helvetica,sans-Serif" font-size="10.00"># diffuse_back_</text>
<text text-anchor="start" x="471" y="-54" font-family="Helvetica,sans-Serif" font-size="10.00"># specular_back_</text>
<polyline fill="none" stroke="black" points="463,-47 566,-47 "/>
<text text-anchor="start" x="471" y="-35" font-family="Helvetica,sans-Serif" font-size="10.00">+ light_buffer()</text>
<text text-anchor="start" x="471" y="-24" font-family="Helvetica,sans-Serif" font-size="10.00">+ ~light_buffer()</text>
<text text-anchor="start" x="471" y="-13" font-family="Helvetica,sans-Serif" font-size="10.00">+ swap_buffers()</text>
</a>
</g>
</g>
<!-- Node1&#45;&gt;Node5 -->
<g id="edge4" class="edge">
<title>Node1&#45;&gt;Node5</title>
<path fill="none" stroke="midnightblue" d="M490.08,-128.78C493.72,-117.32 497.22,-106.34 500.37,-96.44"/>
<polygon fill="none" stroke="midnightblue" points="486.68,-127.91 486.99,-138.5 493.35,-130.03 486.68,-127.91"/>
</g>
<!-- Node6 -->
<g id="node6" class="node">
<title>Node6</title>
<g id="a_node6"><a xlink:href="classmkr_1_1post__proc__buffer.html" target="_top" xlink:title=" ">
<polygon fill="white" stroke="black" points="584,-11.5 584,-90.5 709,-90.5 709,-11.5 584,-11.5"/>
<text text-anchor="middle" x="646.5" y="-78.5" font-family="Helvetica,sans-Serif" font-size="10.00">mkr::post_proc_buffer</text>
<polyline fill="none" stroke="black" points="584,-71.5 709,-71.5 "/>
<text text-anchor="start" x="592" y="-59.5" font-family="Helvetica,sans-Serif" font-size="10.00"># composite_back_</text>
<polyline fill="none" stroke="black" points="584,-52.5 709,-52.5 "/>
<text text-anchor="start" x="592" y="-40.5" font-family="Helvetica,sans-Serif" font-size="10.00">+ post_proc_buffer()</text>
<text text-anchor="start" x="592" y="-29.5" font-family="Helvetica,sans-Serif" font-size="10.00">+ ~post_proc_buffer()</text>
<text text-anchor="start" x="592" y="-18.5" font-family="Helvetica,sans-Serif" font-size="10.00">+ swap_buffers()</text>
</a>
</g>
</g>
<!-- Node1&#45;&gt;Node6 -->
<g id="edge5" class="edge">
<title>Node1&#45;&gt;Node6</title>
<path fill="none" stroke="midnightblue" d="M547.18,-156.09C569.51,-132.68 591.86,-109.26 609.69,-90.58"/>
<polygon fill="none" stroke="midnightblue" points="544.63,-153.69 540.25,-163.34 549.69,-158.52 544.63,-153.69"/>
</g>
<!-- Node7 -->
<g id="node7" class="node">
<title>Node7</title>
<g id="a_node7"><a xlink:href="classmkr_1_1shadow__buffer.html" target="_top" xlink:title=" ">
<polygon fill="white" stroke="black" points="727,-17 727,-85 842,-85 842,-17 727,-17"/>
<text text-anchor="middle" x="784.5" y="-73" font-family="Helvetica,sans-Serif" font-size="10.00">mkr::shadow_buffer</text>
<polyline fill="none" stroke="black" points="727,-66 842,-66 "/>
<text text-anchor="middle" x="784.5" y="-54" font-family="Helvetica,sans-Serif" font-size="10.00"> </text>
<polyline fill="none" stroke="black" points="727,-47 842,-47 "/>
<text text-anchor="start" x="735" y="-35" font-family="Helvetica,sans-Serif" font-size="10.00">+ shadow_buffer()</text>
<text text-anchor="start" x="735" y="-24" font-family="Helvetica,sans-Serif" font-size="10.00">+ ~shadow_buffer()</text>
</a>
</g>
</g>
<!-- Node1&#45;&gt;Node7 -->
<g id="edge6" class="edge">
<title>Node1&#45;&gt;Node7</title>
<path fill="none" stroke="midnightblue" d="M548.99,-204.69C600.57,-175.61 663.87,-138.43 718.5,-102 726.39,-96.74 734.6,-90.86 742.44,-85.04"/>
<polygon fill="none" stroke="midnightblue" points="547.16,-201.71 540.16,-209.66 550.59,-207.81 547.16,-201.71"/>
</g>
</g>
</svg>
        <g id="navigator" transform="translate(0 0)" fill="#404254">
                <rect fill="#f2f5e9" fill-opacity="0.5" stroke="#606060" stroke-width=".5" x="0" y="0" width="60" height="60"/>
                <use id="zoomplus" xlink:href="#zoomPlus" x="17" y="9" onmousedown="handleZoom(evt,'in')"/>
                <use id="zoomminus" xlink:href="#zoomMin" x="42" y="9" onmousedown="handleZoom(evt,'out')"/>
                <use id="reset" xlink:href="#resetDef" x="30" y="36" onmousedown="handleReset()"/>
                <g id="arrowUp" xlink:href="#dirArrow" transform="translate(30 24)" onmousedown="handlePan(0,-1)">
                  <use xlink:href="#rim" fill="#404040">
                        <set attributeName="fill" to="#808080" begin="arrowUp.mouseover" end="arrowUp.mouseout"/>
                  </use>
                  <path fill="none" stroke="white" stroke-width="1.5" d="M0,-3.0v7 M-2.5,-0.5L0,-3.0L2.5,-0.5"/>
                </g>
                <g id="arrowRight" xlink:href="#dirArrow" transform="rotate(90) translate(36 -43)" onmousedown="handlePan(1,0)">
                  <use xlink:href="#rim" fill="#404040">
                        <set attributeName="fill" to="#808080" begin="arrowRight.mouseover" end="arrowRight.mouseout"/>
                  </use>
                  <path fill="none" stroke="white" stroke-width="1.5" d="M0,-3.0v7 M-2.5,-0.5L0,-3.0L2.5,-0.5"/>
                </g>
                <g id="arrowDown" xlink:href="#dirArrow" transform="rotate(180) translate(-30 -48)" onmousedown="handlePan(0,1)">
                  <use xlink:href="#rim" fill="#404040">
                        <set attributeName="fill" to="#808080" begin="arrowDown.mouseover" end="arrowDown.mouseout"/>
                  </use>
                  <path fill="none" stroke="white" stroke-width="1.5" d="M0,-3.0v7 M-2.5,-0.5L0,-3.0L2.5,-0.5"/>
                </g>
                <g id="arrowLeft" xlink:href="#dirArrow" transform="rotate(270) translate(-36 17)" onmousedown="handlePan(-1,0)">
                  <use xlink:href="#rim" fill="#404040">
                        <set attributeName="fill" to="#808080" begin="arrowLeft.mouseover" end="arrowLeft.mouseout"/>
                  </use>
                  <path fill="none" stroke="white" stroke-width="1.5" d="M0,-3.0v7 M-2.5,-0.5L0,-3.0L2.5,-0.5"/>
                </g>
        </g>
        <svg viewBox="0 0 15 15" width="100%" height="30px" preserveAspectRatio="xMaxYMin meet">
         <g id="arrow_out" transform="scale(0.3 0.3)">
          <a xlink:href="classmkr_1_1framebuffer__inherit__graph_org.svg" target="_base">
           <rect id="button" ry="5" rx="5" y="6" x="6" height="38" width="38"
                fill="#f2f5e9" fill-opacity="0.5" stroke="#606060" stroke-width="1.0"/>
           <path id="arrow"
             d="M 11.500037,31.436501 C 11.940474,20.09759 22.043105,11.32322 32.158766,21.979434 L 37.068811,17.246167 C 37.068811,17.246167 37.088388,32 37.088388,32 L 22.160133,31.978069 C 22.160133,31.978069 26.997745,27.140456 26.997745,27.140456 C 18.528582,18.264221 13.291696,25.230495 11.500037,31.436501 z"
             style="fill:#404040;"/>
          </a>
         </g>
        </svg>
</svg>
