<?xml version="1.0" encoding="UTF-8" standalone="no"?>
<!DOCTYPE svg PUBLIC "-//W3C//DTD SVG 1.1//EN"
 "http://www.w3.org/Graphics/SVG/1.1/DTD/svg11.dtd">
<!-- Generated by graphviz version 2.43.0 (0)
 -->
<!-- Title: mkr::asset_loader Pages: 1 -->
<svg width="154pt" height="391pt"
 viewBox="0.00 0.00 154.00 391.00" xmlns="http://www.w3.org/2000/svg" xmlns:xlink="http://www.w3.org/1999/xlink">
<g id="graph0" class="graph" transform="scale(1 1) rotate(0) translate(4 387)">
<title>mkr::asset_loader</title>
<polygon fill="white" stroke="transparent" points="-4,4 -4,-387 150,-387 150,4 -4,4"/>
<!-- Node1 -->
<g id="node1" class="node">
<title>Node1</title>
<g id="a_node1"><a xlink:title=" ">
<polygon fill="#bfbfbf" stroke="black" points="5,-0.5 5,-288.5 141,-288.5 141,-0.5 5,-0.5"/>
<text text-anchor="middle" x="73" y="-276.5" font-family="Helvetica,sans-Serif" font-size="10.00">mkr::asset_loader</text>
<polyline fill="none" stroke="black" points="5,-269.5 141,-269.5 "/>
<text text-anchor="start" x="13" y="-257.5" font-family="Helvetica,sans-Serif" font-size="10.00">+ load_texture_2d</text>
<text text-anchor="start" x="13" y="-246.5" font-family="Helvetica,sans-Serif" font-size="10.00">&#45; shader_programs_</text>
<text text-anchor="start" x="13" y="-235.5" font-family="Helvetica,sans-Serif" font-size="10.00">&#45; texture_2ds_</text>
<text text-anchor="start" x="13" y="-224.5" font-family="Helvetica,sans-Serif" font-size="10.00">&#45; texture_cubes_</text>
<text text-anchor="start" x="13" y="-213.5" font-family="Helvetica,sans-Serif" font-size="10.00">&#45; materials_</text>
<text text-anchor="start" x="13" y="-202.5" font-family="Helvetica,sans-Serif" font-size="10.00">&#45; meshes_</text>
<polyline fill="none" stroke="black" points="5,-195.5 141,-195.5 "/>
<text text-anchor="start" x="13" y="-183.5" font-family="Helvetica,sans-Serif" font-size="10.00">+ init()</text>
<text text-anchor="start" x="13" y="-172.5" font-family="Helvetica,sans-Serif" font-size="10.00">+ exit()</text>
<text text-anchor="start" x="13" y="-161.5" font-family="Helvetica,sans-Serif" font-size="10.00">+ get_shader_program()</text>
<text text-anchor="start" x="13" y="-150.5" font-family="Helvetica,sans-Serif" font-size="10.00">+ get_texture_cube()</text>
<text text-anchor="start" x="13" y="-139.5" font-family="Helvetica,sans-Serif" font-size="10.00">+ load_texture_cube()</text>
<text text-anchor="start" x="13" y="-128.5" font-family="Helvetica,sans-Serif" font-size="10.00">+ get_material()</text>
<text text-anchor="start" x="13" y="-117.5" font-family="Helvetica,sans-Serif" font-size="10.00">+ make_material()</text>
<text text-anchor="start" x="13" y="-106.5" font-family="Helvetica,sans-Serif" font-size="10.00">+ load_obj()</text>
<text text-anchor="start" x="13" y="-95.5" font-family="Helvetica,sans-Serif" font-size="10.00">+ get_mesh()</text>
<text text-anchor="start" x="13" y="-84.5" font-family="Helvetica,sans-Serif" font-size="10.00">+ make_skybox()</text>
<text text-anchor="start" x="13" y="-73.5" font-family="Helvetica,sans-Serif" font-size="10.00">+ make_screen_quad()</text>
<text text-anchor="start" x="13" y="-62.5" font-family="Helvetica,sans-Serif" font-size="10.00">+ make_triangle()</text>
<text text-anchor="start" x="13" y="-51.5" font-family="Helvetica,sans-Serif" font-size="10.00">+ make_quad()</text>
<text text-anchor="start" x="13" y="-40.5" font-family="Helvetica,sans-Serif" font-size="10.00">&#45; asset_loader()</text>
<text text-anchor="start" x="13" y="-29.5" font-family="Helvetica,sans-Serif" font-size="10.00">&#45; ~asset_loader()</text>
<text text-anchor="start" x="13" y="-18.5" font-family="Helvetica,sans-Serif" font-size="10.00">&#45; flip_image_x()</text>
<text text-anchor="start" x="13" y="-7.5" font-family="Helvetica,sans-Serif" font-size="10.00">&#45; flip_image_y()</text>
</a>
</g>
</g>
<!-- Node2 -->
<g id="node2" class="node">
<title>Node2</title>
<g id="a_node2"><a xlink:href="classsingleton.html" target="_top" xlink:title=" ">
<polygon fill="white" stroke="black" points="0,-325.5 0,-382.5 146,-382.5 146,-325.5 0,-325.5"/>
<text text-anchor="middle" x="73" y="-370.5" font-family="Helvetica,sans-Serif" font-size="10.00">singleton&lt; asset_loader &gt;</text>
<polyline fill="none" stroke="black" points="0,-363.5 146,-363.5 "/>
<text text-anchor="middle" x="73" y="-351.5" font-family="Helvetica,sans-Serif" font-size="10.00"> </text>
<polyline fill="none" stroke="black" points="0,-344.5 146,-344.5 "/>
<text text-anchor="middle" x="73" y="-332.5" font-family="Helvetica,sans-Serif" font-size="10.00"> </text>
</a>
</g>
</g>
<!-- Node2&#45;&gt;Node1 -->
<g id="edge1" class="edge">
<title>Node2&#45;&gt;Node1</title>
<path fill="none" stroke="midnightblue" d="M73,-315.38C73,-307.29 73,-298.28 73,-288.76"/>
<polygon fill="none" stroke="midnightblue" points="69.5,-315.45 73,-325.45 76.5,-315.45 69.5,-315.45"/>
</g>
</g>
</svg>
