<?xml version="1.0" encoding="UTF-8" standalone="no"?>
<!DOCTYPE svg PUBLIC "-//W3C//DTD SVG 1.1//EN"
 "http://www.w3.org/Graphics/SVG/1.1/DTD/svg11.dtd">
<!-- Generated by graphviz version 2.43.0 (0)
 -->
<!-- Title: mkr::button_handler Pages: 1 -->
<svg width="354pt" height="270pt"
 viewBox="0.00 0.00 354.00 270.00" xmlns="http://www.w3.org/2000/svg" xmlns:xlink="http://www.w3.org/1999/xlink">
<g id="graph0" class="graph" transform="scale(1 1) rotate(0) translate(4 266)">
<title>mkr::button_handler</title>
<polygon fill="white" stroke="transparent" points="-4,4 -4,-266 350,-266 350,4 -4,4"/>
<!-- Node1 -->
<g id="node1" class="node">
<title>Node1</title>
<g id="a_node1"><a xlink:title=" ">
<polygon fill="#bfbfbf" stroke="black" points="103,-0.5 103,-123.5 225,-123.5 225,-0.5 103,-0.5"/>
<text text-anchor="middle" x="164" y="-111.5" font-family="Helvetica,sans-Serif" font-size="10.00">mkr::button_handler</text>
<polyline fill="none" stroke="black" points="103,-104.5 225,-104.5 "/>
<text text-anchor="middle" x="164" y="-92.5" font-family="Helvetica,sans-Serif" font-size="10.00"> </text>
<polyline fill="none" stroke="black" points="103,-85.5 225,-85.5 "/>
<text text-anchor="start" x="111" y="-73.5" font-family="Helvetica,sans-Serif" font-size="10.00">+ button_handler()</text>
<text text-anchor="start" x="111" y="-62.5" font-family="Helvetica,sans-Serif" font-size="10.00">+ ~button_handler()</text>
<text text-anchor="start" x="111" y="-51.5" font-family="Helvetica,sans-Serif" font-size="10.00">+ dispatch_events()</text>
<text text-anchor="start" x="111" y="-40.5" font-family="Helvetica,sans-Serif" font-size="10.00">+ on_key_down()</text>
<text text-anchor="start" x="111" y="-29.5" font-family="Helvetica,sans-Serif" font-size="10.00">+ on_key_up()</text>
<text text-anchor="start" x="111" y="-18.5" font-family="Helvetica,sans-Serif" font-size="10.00">+ register_button()</text>
<text text-anchor="start" x="111" y="-7.5" font-family="Helvetica,sans-Serif" font-size="10.00">+ unregister_button()</text>
</a>
</g>
</g>
<!-- Node2 -->
<g id="node2" class="node">
<title>Node2</title>
<g id="a_node2"><a xlink:title=" ">
<polygon fill="white" stroke="#bfbfbf" points="0,-188 0,-256 122,-256 122,-188 0,-188"/>
<text text-anchor="start" x="8" y="-244" font-family="Helvetica,sans-Serif" font-size="10.00">unordered_set&lt; input</text>
<text text-anchor="middle" x="61" y="-233" font-family="Helvetica,sans-Serif" font-size="10.00">_action_t &gt;</text>
<polyline fill="none" stroke="#bfbfbf" points="0,-226 122,-226 "/>
<text text-anchor="middle" x="61" y="-214" font-family="Helvetica,sans-Serif" font-size="10.00"> </text>
<polyline fill="none" stroke="#bfbfbf" points="0,-207 122,-207 "/>
<text text-anchor="middle" x="61" y="-195" font-family="Helvetica,sans-Serif" font-size="10.00"> </text>
</a>
</g>
</g>
<!-- Node2&#45;&gt;Node1 -->
<g id="edge1" class="edge">
<title>Node2&#45;&gt;Node1</title>
<path fill="none" stroke="#404040" d="M74.83,-187.77C81.4,-173.28 89.82,-156.37 99,-142 100.84,-139.12 102.77,-136.23 104.76,-133.35"/>
<polygon fill="none" stroke="#404040" points="104.77,-133.34 105.01,-126.13 111.76,-123.58 111.52,-130.79 104.77,-133.34"/>
<text text-anchor="middle" x="129.5" y="-156" font-family="Helvetica,sans-Serif" font-size="10.00"> &#45;curr_state_</text>
<text text-anchor="middle" x="129.5" y="-145" font-family="Helvetica,sans-Serif" font-size="10.00">&#45;prev_state_</text>
</g>
<!-- Node3 -->
<g id="node3" class="node">
<title>Node3</title>
<g id="a_node3"><a xlink:title=" ">
<polygon fill="white" stroke="#bfbfbf" points="140,-193.5 140,-250.5 188,-250.5 188,-193.5 140,-193.5"/>
<text text-anchor="middle" x="164" y="-238.5" font-family="Helvetica,sans-Serif" font-size="10.00">mutex</text>
<polyline fill="none" stroke="#bfbfbf" points="140,-231.5 188,-231.5 "/>
<text text-anchor="middle" x="164" y="-219.5" font-family="Helvetica,sans-Serif" font-size="10.00"> </text>
<polyline fill="none" stroke="#bfbfbf" points="140,-212.5 188,-212.5 "/>
<text text-anchor="middle" x="164" y="-200.5" font-family="Helvetica,sans-Serif" font-size="10.00"> </text>
</a>
</g>
</g>
<!-- Node3&#45;&gt;Node1 -->
<g id="edge2" class="edge">
<title>Node3&#45;&gt;Node1</title>
<path fill="none" stroke="#404040" d="M164,-193.48C164,-177.37 164,-156.19 164,-135.61"/>
<polygon fill="none" stroke="#404040" points="164,-135.59 160,-129.59 164,-123.59 168,-129.59 164,-135.59"/>
<text text-anchor="middle" x="199.5" y="-156" font-family="Helvetica,sans-Serif" font-size="10.00"> &#45;reg_mutex_</text>
<text text-anchor="middle" x="199.5" y="-145" font-family="Helvetica,sans-Serif" font-size="10.00">&#45;state_mutex_</text>
</g>
<!-- Node4 -->
<g id="node4" class="node">
<title>Node4</title>
<g id="a_node4"><a xlink:title=" ">
<polygon fill="white" stroke="#bfbfbf" points="206,-182.5 206,-261.5 346,-261.5 346,-182.5 206,-182.5"/>
<text text-anchor="start" x="214" y="-249.5" font-family="Helvetica,sans-Serif" font-size="10.00">unordered_map&lt; input</text>
<text text-anchor="start" x="214" y="-238.5" font-family="Helvetica,sans-Serif" font-size="10.00">_mask_t, std::unordered</text>
<text text-anchor="middle" x="276" y="-227.5" font-family="Helvetica,sans-Serif" font-size="10.00">_set&lt; input_action_t &gt; &gt;</text>
<polyline fill="none" stroke="#bfbfbf" points="206,-220.5 346,-220.5 "/>
<text text-anchor="middle" x="276" y="-208.5" font-family="Helvetica,sans-Serif" font-size="10.00"> </text>
<polyline fill="none" stroke="#bfbfbf" points="206,-201.5 346,-201.5 "/>
<text text-anchor="middle" x="276" y="-189.5" font-family="Helvetica,sans-Serif" font-size="10.00"> </text>
</a>
</g>
</g>
<!-- Node4&#45;&gt;Node1 -->
<g id="edge3" class="edge">
<title>Node4&#45;&gt;Node1</title>
<path fill="none" stroke="#404040" d="M260.86,-182.28C254.9,-169.01 247.45,-154.39 239,-142 237.05,-139.14 235,-136.29 232.87,-133.46"/>
<polygon fill="none" stroke="#404040" points="232.78,-133.35 225.92,-131.11 225.35,-123.93 232.2,-126.16 232.78,-133.35"/>
<text text-anchor="middle" x="276" y="-150.5" font-family="Helvetica,sans-Serif" font-size="10.00"> &#45;registry_</text>
</g>
</g>
</svg>
