<?xml version="1.0" encoding="UTF-8" standalone="no"?>
<!DOCTYPE svg PUBLIC "-//W3C//DTD SVG 1.1//EN"
 "http://www.w3.org/Graphics/SVG/1.1/DTD/svg11.dtd">
<!-- Generated by graphviz version 2.43.0 (0)
 -->
<!-- Title: mkr::axis_event Pages: 1 -->
<svg width="196pt" height="309pt"
 viewBox="0.00 0.00 195.50 309.00" xmlns="http://www.w3.org/2000/svg" xmlns:xlink="http://www.w3.org/1999/xlink">
<g id="graph0" class="graph" transform="scale(1 1) rotate(0) translate(4 305)">
<title>mkr::axis_event</title>
<polygon fill="white" stroke="transparent" points="-4,4 -4,-305 191.5,-305 191.5,4 -4,4"/>
<!-- Node1 -->
<g id="node1" class="node">
<title>Node1</title>
<g id="a_node1"><a xlink:title=" ">
<polygon fill="#bfbfbf" stroke="black" points="72,-0.5 72,-68.5 169,-68.5 169,-0.5 72,-0.5"/>
<text text-anchor="middle" x="120.5" y="-56.5" font-family="Helvetica,sans-Serif" font-size="10.00">mkr::axis_event</text>
<polyline fill="none" stroke="black" points="72,-49.5 169,-49.5 "/>
<text text-anchor="middle" x="120.5" y="-37.5" font-family="Helvetica,sans-Serif" font-size="10.00"> </text>
<polyline fill="none" stroke="black" points="72,-30.5 169,-30.5 "/>
<text text-anchor="start" x="80" y="-18.5" font-family="Helvetica,sans-Serif" font-size="10.00">+ axis_event()</text>
<text text-anchor="start" x="80" y="-7.5" font-family="Helvetica,sans-Serif" font-size="10.00">+ ~axis_event()</text>
</a>
</g>
</g>
<!-- Node2 -->
<g id="node2" class="node">
<title>Node2</title>
<g id="a_node2"><a xlink:href="classmkr_1_1input__event.html" target="_top" xlink:title=" ">
<polygon fill="white" stroke="black" points="26,-116.5 26,-184.5 127,-184.5 127,-116.5 26,-116.5"/>
<text text-anchor="middle" x="76.5" y="-172.5" font-family="Helvetica,sans-Serif" font-size="10.00">mkr::input_event</text>
<polyline fill="none" stroke="black" points="26,-165.5 127,-165.5 "/>
<text text-anchor="middle" x="76.5" y="-153.5" font-family="Helvetica,sans-Serif" font-size="10.00"> </text>
<polyline fill="none" stroke="black" points="26,-146.5 127,-146.5 "/>
<text text-anchor="start" x="34" y="-134.5" font-family="Helvetica,sans-Serif" font-size="10.00">+ ~input_event()</text>
<text text-anchor="start" x="34" y="-123.5" font-family="Helvetica,sans-Serif" font-size="10.00"># input_event()</text>
</a>
</g>
</g>
<!-- Node2&#45;&gt;Node1 -->
<g id="edge1" class="edge">
<title>Node2&#45;&gt;Node1</title>
<path fill="none" stroke="midnightblue" d="M92.98,-106.8C97.85,-94.18 103.11,-80.55 107.72,-68.62"/>
<polygon fill="none" stroke="midnightblue" points="89.68,-105.63 89.34,-116.22 96.21,-108.15 89.68,-105.63"/>
</g>
<!-- Node3 -->
<g id="node3" class="node">
<title>Node3</title>
<g id="a_node3"><a xlink:href="classmkr_1_1event.html" target="_top" xlink:title="event(s) contain data that is dispatched by an event_dispatcher, and is received by an event_listener...">
<polygon fill="white" stroke="black" points="0,-232.5 0,-300.5 71,-300.5 71,-232.5 0,-232.5"/>
<text text-anchor="middle" x="35.5" y="-288.5" font-family="Helvetica,sans-Serif" font-size="10.00">mkr::event</text>
<polyline fill="none" stroke="black" points="0,-281.5 71,-281.5 "/>
<text text-anchor="middle" x="35.5" y="-269.5" font-family="Helvetica,sans-Serif" font-size="10.00"> </text>
<polyline fill="none" stroke="black" points="0,-262.5 71,-262.5 "/>
<text text-anchor="start" x="8" y="-250.5" font-family="Helvetica,sans-Serif" font-size="10.00">+ event()</text>
<text text-anchor="start" x="8" y="-239.5" font-family="Helvetica,sans-Serif" font-size="10.00">+ ~event()</text>
</a>
</g>
</g>
<!-- Node3&#45;&gt;Node2 -->
<g id="edge2" class="edge">
<title>Node3&#45;&gt;Node2</title>
<path fill="none" stroke="midnightblue" d="M50.86,-222.8C55.4,-210.18 60.3,-196.55 64.59,-184.62"/>
<polygon fill="none" stroke="midnightblue" points="47.56,-221.63 47.47,-232.22 54.15,-223.99 47.56,-221.63"/>
</g>
<!-- Node4 -->
<g id="node4" class="node">
<title>Node4</title>
<g id="a_node4"><a xlink:title=" ">
<polygon fill="white" stroke="#bfbfbf" points="89.5,-238 89.5,-295 145.5,-295 145.5,-238 89.5,-238"/>
<text text-anchor="middle" x="117.5" y="-283" font-family="Helvetica,sans-Serif" font-size="10.00">uint32_t</text>
<polyline fill="none" stroke="#bfbfbf" points="89.5,-276 145.5,-276 "/>
<text text-anchor="middle" x="117.5" y="-264" font-family="Helvetica,sans-Serif" font-size="10.00"> </text>
<polyline fill="none" stroke="#bfbfbf" points="89.5,-257 145.5,-257 "/>
<text text-anchor="middle" x="117.5" y="-245" font-family="Helvetica,sans-Serif" font-size="10.00"> </text>
</a>
</g>
</g>
<!-- Node4&#45;&gt;Node2 -->
<g id="edge3" class="edge">
<title>Node4&#45;&gt;Node2</title>
<path fill="none" stroke="#404040" d="M107.58,-237.9C103.06,-225.34 97.6,-210.16 92.52,-196.04"/>
<polygon fill="none" stroke="#404040" points="92.44,-195.81 86.64,-191.52 88.38,-184.52 94.17,-188.81 92.44,-195.81"/>
<text text-anchor="middle" x="122" y="-206" font-family="Helvetica,sans-Serif" font-size="10.00"> +action_</text>
</g>
<!-- Node5 -->
<g id="node5" class="node">
<title>Node5</title>
<g id="a_node5"><a xlink:title=" ">
<polygon fill="white" stroke="#bfbfbf" points="145.5,-122 145.5,-179 183.5,-179 183.5,-122 145.5,-122"/>
<text text-anchor="middle" x="164.5" y="-167" font-family="Helvetica,sans-Serif" font-size="10.00">float</text>
<polyline fill="none" stroke="#bfbfbf" points="145.5,-160 183.5,-160 "/>
<text text-anchor="middle" x="164.5" y="-148" font-family="Helvetica,sans-Serif" font-size="10.00"> </text>
<polyline fill="none" stroke="#bfbfbf" points="145.5,-141 183.5,-141 "/>
<text text-anchor="middle" x="164.5" y="-129" font-family="Helvetica,sans-Serif" font-size="10.00"> </text>
</a>
</g>
</g>
<!-- Node5&#45;&gt;Node1 -->
<g id="edge4" class="edge">
<title>Node5&#45;&gt;Node1</title>
<path fill="none" stroke="#404040" d="M153.85,-121.9C149,-109.34 143.14,-94.16 137.69,-80.04"/>
<polygon fill="none" stroke="#404040" points="137.57,-79.72 131.67,-75.56 133.25,-68.52 139.14,-72.68 137.57,-79.72"/>
<text text-anchor="middle" x="165.5" y="-90" font-family="Helvetica,sans-Serif" font-size="10.00"> +value_</text>
</g>
</g>
</svg>
