<?xml version="1.0" encoding="UTF-8" standalone="no"?>
<!DOCTYPE svg PUBLIC "-//W3C//DTD SVG 1.1//EN"
 "http://www.w3.org/Graphics/SVG/1.1/DTD/svg11.dtd">
<!-- Generated by graphviz version 2.43.0 (0)
 -->
<!-- Title: mkr::game_scene Pages: 1 -->
<svg width="597pt" height="678pt"
 viewBox="0.00 0.00 597.00 678.00" xmlns="http://www.w3.org/2000/svg" xmlns:xlink="http://www.w3.org/1999/xlink">
<g id="graph0" class="graph" transform="scale(1 1) rotate(0) translate(4 674)">
<title>mkr::game_scene</title>
<polygon fill="white" stroke="transparent" points="-4,4 -4,-674 593,-674 593,4 -4,4"/>
<!-- Node1 -->
<g id="node1" class="node">
<title>Node1</title>
<g id="a_node1"><a xlink:title=" ">
<polygon fill="#bfbfbf" stroke="black" points="190,-0.5 190,-233.5 349,-233.5 349,-0.5 190,-0.5"/>
<text text-anchor="middle" x="269.5" y="-221.5" font-family="Helvetica,sans-Serif" font-size="10.00">mkr::game_scene</text>
<polyline fill="none" stroke="black" points="190,-214.5 349,-214.5 "/>
<text text-anchor="middle" x="269.5" y="-202.5" font-family="Helvetica,sans-Serif" font-size="10.00"> </text>
<polyline fill="none" stroke="black" points="190,-195.5 349,-195.5 "/>
<text text-anchor="start" x="198" y="-183.5" font-family="Helvetica,sans-Serif" font-size="10.00">+ game_scene()</text>
<text text-anchor="start" x="198" y="-172.5" font-family="Helvetica,sans-Serif" font-size="10.00">+ ~game_scene()</text>
<text text-anchor="start" x="198" y="-161.5" font-family="Helvetica,sans-Serif" font-size="10.00">+ init()</text>
<text text-anchor="start" x="198" y="-150.5" font-family="Helvetica,sans-Serif" font-size="10.00">+ pre_update()</text>
<text text-anchor="start" x="198" y="-139.5" font-family="Helvetica,sans-Serif" font-size="10.00">+ post_update()</text>
<text text-anchor="start" x="198" y="-128.5" font-family="Helvetica,sans-Serif" font-size="10.00">+ exit()</text>
<text text-anchor="start" x="198" y="-117.5" font-family="Helvetica,sans-Serif" font-size="10.00"># init_input()</text>
<text text-anchor="start" x="198" y="-106.5" font-family="Helvetica,sans-Serif" font-size="10.00"># exit_input()</text>
<text text-anchor="start" x="198" y="-95.5" font-family="Helvetica,sans-Serif" font-size="10.00"># init_systems()</text>
<text text-anchor="start" x="198" y="-84.5" font-family="Helvetica,sans-Serif" font-size="10.00"># init_shaders()</text>
<text text-anchor="start" x="198" y="-73.5" font-family="Helvetica,sans-Serif" font-size="10.00"># init_meshes()</text>
<text text-anchor="start" x="198" y="-62.5" font-family="Helvetica,sans-Serif" font-size="10.00"># init_materials()</text>
<text text-anchor="start" x="198" y="-51.5" font-family="Helvetica,sans-Serif" font-size="10.00"># init_levels()</text>
<text text-anchor="start" x="198" y="-40.5" font-family="Helvetica,sans-Serif" font-size="10.00"># init_player()</text>
<text text-anchor="start" x="198" y="-29.5" font-family="Helvetica,sans-Serif" font-size="10.00"># init_sphere_gallery()</text>
<text text-anchor="start" x="198" y="-18.5" font-family="Helvetica,sans-Serif" font-size="10.00"># init_transparency_gallery()</text>
<text text-anchor="start" x="198" y="-7.5" font-family="Helvetica,sans-Serif" font-size="10.00"># init_shadow_gallery()</text>
</a>
</g>
</g>
<!-- Node2 -->
<g id="node2" class="node">
<title>Node2</title>
<g id="a_node2"><a xlink:href="classmkr_1_1scene.html" target="_top" xlink:title=" ">
<polygon fill="white" stroke="black" points="0,-281.5 0,-404.5 95,-404.5 95,-281.5 0,-281.5"/>
<text text-anchor="middle" x="47.5" y="-392.5" font-family="Helvetica,sans-Serif" font-size="10.00">mkr::scene</text>
<polyline fill="none" stroke="black" points="0,-385.5 95,-385.5 "/>
<text text-anchor="middle" x="47.5" y="-373.5" font-family="Helvetica,sans-Serif" font-size="10.00"> </text>
<polyline fill="none" stroke="black" points="0,-366.5 95,-366.5 "/>
<text text-anchor="start" x="8" y="-354.5" font-family="Helvetica,sans-Serif" font-size="10.00">+ scene()</text>
<text text-anchor="start" x="8" y="-343.5" font-family="Helvetica,sans-Serif" font-size="10.00">+ ~scene()</text>
<text text-anchor="start" x="8" y="-332.5" font-family="Helvetica,sans-Serif" font-size="10.00">+ init()</text>
<text text-anchor="start" x="8" y="-321.5" font-family="Helvetica,sans-Serif" font-size="10.00">+ pre_update()</text>
<text text-anchor="start" x="8" y="-310.5" font-family="Helvetica,sans-Serif" font-size="10.00">+ update()</text>
<text text-anchor="start" x="8" y="-299.5" font-family="Helvetica,sans-Serif" font-size="10.00">+ post_update()</text>
<text text-anchor="start" x="8" y="-288.5" font-family="Helvetica,sans-Serif" font-size="10.00">+ exit()</text>
</a>
</g>
</g>
<!-- Node2&#45;&gt;Node1 -->
<g id="edge1" class="edge">
<title>Node2&#45;&gt;Node1</title>
<path fill="none" stroke="midnightblue" d="M102.21,-283.36C102.98,-282.57 103.74,-281.78 104.5,-281 132.01,-252.71 162.64,-222.19 189.97,-195.3"/>
<polygon fill="none" stroke="midnightblue" points="99.65,-280.97 95.25,-290.6 104.7,-285.82 99.65,-280.97"/>
</g>
<!-- Node3 -->
<g id="node3" class="node">
<title>Node3</title>
<g id="a_node3"><a xlink:title=" ">
<polygon fill="white" stroke="#bfbfbf" points="25.5,-480 25.5,-537 69.5,-537 69.5,-480 25.5,-480"/>
<text text-anchor="middle" x="47.5" y="-525" font-family="Helvetica,sans-Serif" font-size="10.00">world</text>
<polyline fill="none" stroke="#bfbfbf" points="25.5,-518 69.5,-518 "/>
<text text-anchor="middle" x="47.5" y="-506" font-family="Helvetica,sans-Serif" font-size="10.00"> </text>
<polyline fill="none" stroke="#bfbfbf" points="25.5,-499 69.5,-499 "/>
<text text-anchor="middle" x="47.5" y="-487" font-family="Helvetica,sans-Serif" font-size="10.00"> </text>
</a>
</g>
</g>
<!-- Node3&#45;&gt;Node2 -->
<g id="edge2" class="edge">
<title>Node3&#45;&gt;Node2</title>
<path fill="none" stroke="#404040" d="M47.5,-479.76C47.5,-462.47 47.5,-439.33 47.5,-417.07"/>
<polygon fill="none" stroke="#404040" points="47.5,-416.83 43.5,-410.83 47.5,-404.83 51.5,-410.83 47.5,-416.83"/>
<text text-anchor="middle" x="69.5" y="-431.5" font-family="Helvetica,sans-Serif" font-size="10.00"> #world_</text>
</g>
<!-- Node4 -->
<g id="node4" class="node">
<title>Node4</title>
<g id="a_node4"><a xlink:href="classmkr_1_1motion__test__system.html" target="_top" xlink:title=" ">
<polygon fill="white" stroke="black" points="446,-303.5 446,-382.5 589,-382.5 589,-303.5 446,-303.5"/>
<text text-anchor="middle" x="517.5" y="-370.5" font-family="Helvetica,sans-Serif" font-size="10.00">mkr::motion_test_system</text>
<polyline fill="none" stroke="black" points="446,-363.5 589,-363.5 "/>
<text text-anchor="middle" x="517.5" y="-351.5" font-family="Helvetica,sans-Serif" font-size="10.00"> </text>
<polyline fill="none" stroke="black" points="446,-344.5 589,-344.5 "/>
<text text-anchor="start" x="454" y="-332.5" font-family="Helvetica,sans-Serif" font-size="10.00">+ motion_test_system()</text>
<text text-anchor="start" x="454" y="-321.5" font-family="Helvetica,sans-Serif" font-size="10.00">+ ~motion_test_system()</text>
<text text-anchor="start" x="454" y="-310.5" font-family="Helvetica,sans-Serif" font-size="10.00">+ operator()()</text>
</a>
</g>
</g>
<!-- Node4&#45;&gt;Node1 -->
<g id="edge3" class="edge">
<title>Node4&#45;&gt;Node1</title>
<path fill="none" stroke="#404040" d="M474.87,-303.49C442.81,-274.54 397.76,-233.84 358.02,-197.95"/>
<polygon fill="none" stroke="#404040" points="358,-197.94 350.87,-196.88 349.1,-189.89 356.23,-190.95 358,-197.94"/>
<text text-anchor="middle" x="439" y="-255" font-family="Helvetica,sans-Serif" font-size="10.00"> &#45;mts_</text>
</g>
<!-- Node5 -->
<g id="node5" class="node">
<title>Node5</title>
<g id="a_node5"><a xlink:href="classmkr_1_1event__listener.html" target="_top" xlink:title="Used to subscribe to an event_dispatcher to receive event(s) from that event_dispatcher....">
<polygon fill="white" stroke="black" points="359,-463.5 359,-553.5 472,-553.5 472,-463.5 359,-463.5"/>
<text text-anchor="middle" x="415.5" y="-541.5" font-family="Helvetica,sans-Serif" font-size="10.00">mkr::event_listener</text>
<polyline fill="none" stroke="black" points="359,-534.5 472,-534.5 "/>
<text text-anchor="middle" x="415.5" y="-522.5" font-family="Helvetica,sans-Serif" font-size="10.00"> </text>
<polyline fill="none" stroke="black" points="359,-515.5 472,-515.5 "/>
<text text-anchor="start" x="367" y="-503.5" font-family="Helvetica,sans-Serif" font-size="10.00">+ event_listener()</text>
<text text-anchor="start" x="367" y="-492.5" font-family="Helvetica,sans-Serif" font-size="10.00">+ ~event_listener()</text>
<text text-anchor="start" x="367" y="-481.5" font-family="Helvetica,sans-Serif" font-size="10.00">+ set_callback()</text>
<text text-anchor="start" x="367" y="-470.5" font-family="Helvetica,sans-Serif" font-size="10.00">+ set_callback()</text>
</a>
</g>
</g>
<!-- Node5&#45;&gt;Node4 -->
<g id="edge4" class="edge">
<title>Node5&#45;&gt;Node4</title>
<path fill="none" stroke="#404040" d="M469.26,-463.18C474.5,-457.43 479.39,-451.32 483.5,-445 493.31,-429.89 500.58,-411.67 505.82,-394.88"/>
<polygon fill="none" stroke="#404040" points="505.93,-394.5 503.76,-387.62 509.28,-382.98 511.45,-389.85 505.93,-394.5"/>
<text text-anchor="middle" x="535" y="-431.5" font-family="Helvetica,sans-Serif" font-size="10.00"> &#45;input_listener_</text>
</g>
<!-- Node7 -->
<g id="node7" class="node">
<title>Node7</title>
<g id="a_node7"><a xlink:href="classmkr_1_1body__control__system.html" target="_top" xlink:title=" ">
<polygon fill="white" stroke="black" points="113.5,-303.5 113.5,-382.5 261.5,-382.5 261.5,-303.5 113.5,-303.5"/>
<text text-anchor="middle" x="187.5" y="-370.5" font-family="Helvetica,sans-Serif" font-size="10.00">mkr::body_control_system</text>
<polyline fill="none" stroke="black" points="113.5,-363.5 261.5,-363.5 "/>
<text text-anchor="middle" x="187.5" y="-351.5" font-family="Helvetica,sans-Serif" font-size="10.00"> </text>
<polyline fill="none" stroke="black" points="113.5,-344.5 261.5,-344.5 "/>
<text text-anchor="start" x="121.5" y="-332.5" font-family="Helvetica,sans-Serif" font-size="10.00">+ body_control_system()</text>
<text text-anchor="start" x="121.5" y="-321.5" font-family="Helvetica,sans-Serif" font-size="10.00">+ ~body_control_system()</text>
<text text-anchor="start" x="121.5" y="-310.5" font-family="Helvetica,sans-Serif" font-size="10.00">+ operator()()</text>
</a>
</g>
</g>
<!-- Node5&#45;&gt;Node7 -->
<g id="edge8" class="edge">
<title>Node5&#45;&gt;Node7</title>
<path fill="none" stroke="#404040" d="M358.76,-478.22C342.45,-468.63 325.13,-457.27 310.5,-445 300.6,-436.7 300.92,-431.84 291.5,-423 283.69,-415.67 267.48,-402.98 250.12,-389.9"/>
<polygon fill="none" stroke="#404040" points="250.02,-389.81 242.82,-389.42 240.41,-382.62 247.61,-383.02 250.02,-389.81"/>
<text text-anchor="middle" x="350" y="-431.5" font-family="Helvetica,sans-Serif" font-size="10.00"> &#45;input_listener_</text>
</g>
<!-- Node9 -->
<g id="node9" class="node">
<title>Node9</title>
<g id="a_node9"><a xlink:href="classmkr_1_1head__control__system.html" target="_top" xlink:title=" ">
<polygon fill="white" stroke="black" points="279.5,-303.5 279.5,-382.5 427.5,-382.5 427.5,-303.5 279.5,-303.5"/>
<text text-anchor="middle" x="353.5" y="-370.5" font-family="Helvetica,sans-Serif" font-size="10.00">mkr::head_control_system</text>
<polyline fill="none" stroke="black" points="279.5,-363.5 427.5,-363.5 "/>
<text text-anchor="middle" x="353.5" y="-351.5" font-family="Helvetica,sans-Serif" font-size="10.00"> </text>
<polyline fill="none" stroke="black" points="279.5,-344.5 427.5,-344.5 "/>
<text text-anchor="start" x="287.5" y="-332.5" font-family="Helvetica,sans-Serif" font-size="10.00">+ head_control_system()</text>
<text text-anchor="start" x="287.5" y="-321.5" font-family="Helvetica,sans-Serif" font-size="10.00">+ ~head_control_system()</text>
<text text-anchor="start" x="287.5" y="-310.5" font-family="Helvetica,sans-Serif" font-size="10.00">+ operator()()</text>
</a>
</g>
</g>
<!-- Node5&#45;&gt;Node9 -->
<g id="edge11" class="edge">
<title>Node5&#45;&gt;Node9</title>
<path fill="none" stroke="#404040" d="M405.84,-463.08C402.48,-449.99 398.33,-435.76 393.5,-423 389.82,-413.29 385.3,-403.2 380.64,-393.61"/>
<polygon fill="none" stroke="#404040" points="380.51,-393.36 374.25,-389.79 375.14,-382.63 381.4,-386.2 380.51,-393.36"/>
<text text-anchor="middle" x="440" y="-431.5" font-family="Helvetica,sans-Serif" font-size="10.00"> &#45;input_listener_</text>
</g>
<!-- Node6 -->
<g id="node6" class="node">
<title>Node6</title>
<g id="a_node6"><a xlink:title=" ">
<polygon fill="white" stroke="#bfbfbf" points="356,-601.5 356,-669.5 475,-669.5 475,-601.5 356,-601.5"/>
<text text-anchor="start" x="364" y="-657.5" font-family="Helvetica,sans-Serif" font-size="10.00">function&lt; void(const</text>
<text text-anchor="middle" x="415.5" y="-646.5" font-family="Helvetica,sans-Serif" font-size="10.00"> mkr::event *)&gt;</text>
<polyline fill="none" stroke="#bfbfbf" points="356,-639.5 475,-639.5 "/>
<text text-anchor="middle" x="415.5" y="-627.5" font-family="Helvetica,sans-Serif" font-size="10.00"> </text>
<polyline fill="none" stroke="#bfbfbf" points="356,-620.5 475,-620.5 "/>
<text text-anchor="middle" x="415.5" y="-608.5" font-family="Helvetica,sans-Serif" font-size="10.00"> </text>
</a>
</g>
</g>
<!-- Node6&#45;&gt;Node5 -->
<g id="edge5" class="edge">
<title>Node6&#45;&gt;Node5</title>
<path fill="none" stroke="#404040" d="M415.5,-601.33C415.5,-590.37 415.5,-577.86 415.5,-565.67"/>
<polygon fill="none" stroke="#404040" points="415.5,-565.66 411.5,-559.66 415.5,-553.66 419.5,-559.66 415.5,-565.66"/>
<text text-anchor="middle" x="442" y="-575" font-family="Helvetica,sans-Serif" font-size="10.00"> &#45;callback_</text>
</g>
<!-- Node7&#45;&gt;Node1 -->
<g id="edge6" class="edge">
<title>Node7&#45;&gt;Node1</title>
<path fill="none" stroke="#404040" d="M201.6,-303.49C207.69,-286.85 215.2,-266.32 222.99,-245.06"/>
<polygon fill="none" stroke="#404040" points="223.08,-244.81 221.38,-237.8 227.2,-233.54 228.9,-240.55 223.08,-244.81"/>
<text text-anchor="middle" x="234" y="-255" font-family="Helvetica,sans-Serif" font-size="10.00"> &#45;bcs_</text>
</g>
<!-- Node8 -->
<g id="node8" class="node">
<title>Node8</title>
<g id="a_node8"><a xlink:title=" ">
<polygon fill="white" stroke="#bfbfbf" points="170,-480 170,-537 223,-537 223,-480 170,-480"/>
<text text-anchor="middle" x="196.5" y="-525" font-family="Helvetica,sans-Serif" font-size="10.00">vector3</text>
<polyline fill="none" stroke="#bfbfbf" points="170,-518 223,-518 "/>
<text text-anchor="middle" x="196.5" y="-506" font-family="Helvetica,sans-Serif" font-size="10.00"> </text>
<polyline fill="none" stroke="#bfbfbf" points="170,-499 223,-499 "/>
<text text-anchor="middle" x="196.5" y="-487" font-family="Helvetica,sans-Serif" font-size="10.00"> </text>
</a>
</g>
</g>
<!-- Node8&#45;&gt;Node7 -->
<g id="edge7" class="edge">
<title>Node8&#45;&gt;Node7</title>
<path fill="none" stroke="#404040" d="M173.3,-479.7C166.14,-469.45 159.18,-457.31 155.5,-445 150.54,-428.41 153.56,-410.36 159.36,-394.17"/>
<polygon fill="none" stroke="#404040" points="159.48,-393.87 158.03,-386.81 163.99,-382.76 165.44,-389.82 159.48,-393.87"/>
<text text-anchor="middle" x="186.5" y="-437" font-family="Helvetica,sans-Serif" font-size="10.00"> &#45;rotation_</text>
<text text-anchor="middle" x="186.5" y="-426" font-family="Helvetica,sans-Serif" font-size="10.00">&#45;translation_</text>
</g>
<!-- Node8&#45;&gt;Node9 -->
<g id="edge10" class="edge">
<title>Node8&#45;&gt;Node9</title>
<path fill="none" stroke="#404040" d="M206.44,-479.61C213.8,-461.87 225.19,-439.26 240.5,-423 251.16,-411.68 257.55,-413.61 270.5,-405 277.77,-400.16 285.28,-394.96 292.68,-389.69"/>
<polygon fill="none" stroke="#404040" points="292.93,-389.51 295.47,-382.76 302.67,-382.51 300.14,-389.26 292.93,-389.51"/>
<text text-anchor="middle" x="266" y="-431.5" font-family="Helvetica,sans-Serif" font-size="10.00"> &#45;rotation_</text>
</g>
<!-- Node9&#45;&gt;Node1 -->
<g id="edge9" class="edge">
<title>Node9&#45;&gt;Node1</title>
<path fill="none" stroke="#404040" d="M339.06,-303.49C332.82,-286.85 325.12,-266.32 317.15,-245.06"/>
<polygon fill="none" stroke="#404040" points="317.04,-244.78 311.19,-240.56 312.83,-233.54 318.68,-237.75 317.04,-244.78"/>
<text text-anchor="middle" x="336" y="-255" font-family="Helvetica,sans-Serif" font-size="10.00"> &#45;hcs_</text>
</g>
</g>
</svg>
