<?xml version="1.0" encoding="UTF-8" standalone="no"?>
<!DOCTYPE svg PUBLIC "-//W3C//DTD SVG 1.1//EN"
 "http://www.w3.org/Graphics/SVG/1.1/DTD/svg11.dtd">
<!-- Generated by graphviz version 2.43.0 (0)
 -->
<!-- Title: mkr::click_event Pages: 1 -->
<svg width="301pt" height="425pt"
 viewBox="0.00 0.00 301.00 425.00" xmlns="http://www.w3.org/2000/svg" xmlns:xlink="http://www.w3.org/1999/xlink">
<g id="graph0" class="graph" transform="scale(1 1) rotate(0) translate(4 421)">
<title>mkr::click_event</title>
<polygon fill="white" stroke="transparent" points="-4,4 -4,-421 297,-421 297,4 -4,4"/>
<!-- Node1 -->
<g id="node1" class="node">
<title>Node1</title>
<g id="a_node1"><a xlink:title=" ">
<polygon fill="#bfbfbf" stroke="black" points="145,-0.5 145,-68.5 244,-68.5 244,-0.5 145,-0.5"/>
<text text-anchor="middle" x="194.5" y="-56.5" font-family="Helvetica,sans-Serif" font-size="10.00">mkr::click_event</text>
<polyline fill="none" stroke="black" points="145,-49.5 244,-49.5 "/>
<text text-anchor="middle" x="194.5" y="-37.5" font-family="Helvetica,sans-Serif" font-size="10.00"> </text>
<polyline fill="none" stroke="black" points="145,-30.5 244,-30.5 "/>
<text text-anchor="start" x="153" y="-18.5" font-family="Helvetica,sans-Serif" font-size="10.00">+ click_event()</text>
<text text-anchor="start" x="153" y="-7.5" font-family="Helvetica,sans-Serif" font-size="10.00">+ ~click_event()</text>
</a>
</g>
</g>
<!-- Node2 -->
<g id="node2" class="node">
<title>Node2</title>
<g id="a_node2"><a xlink:href="classmkr_1_1button__event.html" target="_top" xlink:title=" ">
<polygon fill="white" stroke="black" points="83.5,-116.5 83.5,-184.5 191.5,-184.5 191.5,-116.5 83.5,-116.5"/>
<text text-anchor="middle" x="137.5" y="-172.5" font-family="Helvetica,sans-Serif" font-size="10.00">mkr::button_event</text>
<polyline fill="none" stroke="black" points="83.5,-165.5 191.5,-165.5 "/>
<text text-anchor="middle" x="137.5" y="-153.5" font-family="Helvetica,sans-Serif" font-size="10.00"> </text>
<polyline fill="none" stroke="black" points="83.5,-146.5 191.5,-146.5 "/>
<text text-anchor="start" x="91.5" y="-134.5" font-family="Helvetica,sans-Serif" font-size="10.00">+ button_event()</text>
<text text-anchor="start" x="91.5" y="-123.5" font-family="Helvetica,sans-Serif" font-size="10.00">+ ~button_event()</text>
</a>
</g>
</g>
<!-- Node2&#45;&gt;Node1 -->
<g id="edge1" class="edge">
<title>Node2&#45;&gt;Node1</title>
<path fill="none" stroke="midnightblue" d="M158.66,-107.18C165.03,-94.45 171.92,-80.67 177.94,-68.62"/>
<polygon fill="none" stroke="midnightblue" points="155.48,-105.71 154.14,-116.22 161.74,-108.84 155.48,-105.71"/>
</g>
<!-- Node3 -->
<g id="node3" class="node">
<title>Node3</title>
<g id="a_node3"><a xlink:href="classmkr_1_1input__event.html" target="_top" xlink:title=" ">
<polygon fill="white" stroke="black" points="26,-232.5 26,-300.5 127,-300.5 127,-232.5 26,-232.5"/>
<text text-anchor="middle" x="76.5" y="-288.5" font-family="Helvetica,sans-Serif" font-size="10.00">mkr::input_event</text>
<polyline fill="none" stroke="black" points="26,-281.5 127,-281.5 "/>
<text text-anchor="middle" x="76.5" y="-269.5" font-family="Helvetica,sans-Serif" font-size="10.00"> </text>
<polyline fill="none" stroke="black" points="26,-262.5 127,-262.5 "/>
<text text-anchor="start" x="34" y="-250.5" font-family="Helvetica,sans-Serif" font-size="10.00">+ ~input_event()</text>
<text text-anchor="start" x="34" y="-239.5" font-family="Helvetica,sans-Serif" font-size="10.00"># input_event()</text>
</a>
</g>
</g>
<!-- Node3&#45;&gt;Node2 -->
<g id="edge2" class="edge">
<title>Node3&#45;&gt;Node2</title>
<path fill="none" stroke="midnightblue" d="M99.15,-223.18C105.96,-210.45 113.33,-196.67 119.78,-184.62"/>
<polygon fill="none" stroke="midnightblue" points="95.94,-221.75 94.31,-232.22 102.11,-225.05 95.94,-221.75"/>
</g>
<!-- Node4 -->
<g id="node4" class="node">
<title>Node4</title>
<g id="a_node4"><a xlink:href="classmkr_1_1event.html" target="_top" xlink:title="event(s) contain data that is dispatched by an event_dispatcher, and is received by an event_listener...">
<polygon fill="white" stroke="black" points="0,-348.5 0,-416.5 71,-416.5 71,-348.5 0,-348.5"/>
<text text-anchor="middle" x="35.5" y="-404.5" font-family="Helvetica,sans-Serif" font-size="10.00">mkr::event</text>
<polyline fill="none" stroke="black" points="0,-397.5 71,-397.5 "/>
<text text-anchor="middle" x="35.5" y="-385.5" font-family="Helvetica,sans-Serif" font-size="10.00"> </text>
<polyline fill="none" stroke="black" points="0,-378.5 71,-378.5 "/>
<text text-anchor="start" x="8" y="-366.5" font-family="Helvetica,sans-Serif" font-size="10.00">+ event()</text>
<text text-anchor="start" x="8" y="-355.5" font-family="Helvetica,sans-Serif" font-size="10.00">+ ~event()</text>
</a>
</g>
</g>
<!-- Node4&#45;&gt;Node3 -->
<g id="edge3" class="edge">
<title>Node4&#45;&gt;Node3</title>
<path fill="none" stroke="midnightblue" d="M50.86,-338.8C55.4,-326.18 60.3,-312.55 64.59,-300.62"/>
<polygon fill="none" stroke="midnightblue" points="47.56,-337.63 47.47,-348.22 54.15,-339.99 47.56,-337.63"/>
</g>
<!-- Node5 -->
<g id="node5" class="node">
<title>Node5</title>
<g id="a_node5"><a xlink:title=" ">
<polygon fill="white" stroke="#bfbfbf" points="89.5,-354 89.5,-411 145.5,-411 145.5,-354 89.5,-354"/>
<text text-anchor="middle" x="117.5" y="-399" font-family="Helvetica,sans-Serif" font-size="10.00">uint32_t</text>
<polyline fill="none" stroke="#bfbfbf" points="89.5,-392 145.5,-392 "/>
<text text-anchor="middle" x="117.5" y="-380" font-family="Helvetica,sans-Serif" font-size="10.00"> </text>
<polyline fill="none" stroke="#bfbfbf" points="89.5,-373 145.5,-373 "/>
<text text-anchor="middle" x="117.5" y="-361" font-family="Helvetica,sans-Serif" font-size="10.00"> </text>
</a>
</g>
</g>
<!-- Node5&#45;&gt;Node3 -->
<g id="edge4" class="edge">
<title>Node5&#45;&gt;Node3</title>
<path fill="none" stroke="#404040" d="M107.58,-353.9C103.06,-341.34 97.6,-326.16 92.52,-312.04"/>
<polygon fill="none" stroke="#404040" points="92.44,-311.81 86.64,-307.52 88.38,-300.52 94.17,-304.81 92.44,-311.81"/>
<text text-anchor="middle" x="122" y="-322" font-family="Helvetica,sans-Serif" font-size="10.00"> +action_</text>
</g>
<!-- Node6 -->
<g id="node6" class="node">
<title>Node6</title>
<g id="a_node6"><a xlink:title=" ">
<polygon fill="white" stroke="#bfbfbf" points="145,-238 145,-295 252,-295 252,-238 145,-238"/>
<text text-anchor="middle" x="198.5" y="-283" font-family="Helvetica,sans-Serif" font-size="10.00">const button_state</text>
<polyline fill="none" stroke="#bfbfbf" points="145,-276 252,-276 "/>
<text text-anchor="middle" x="198.5" y="-264" font-family="Helvetica,sans-Serif" font-size="10.00"> </text>
<polyline fill="none" stroke="#bfbfbf" points="145,-257 252,-257 "/>
<text text-anchor="middle" x="198.5" y="-245" font-family="Helvetica,sans-Serif" font-size="10.00"> </text>
</a>
</g>
</g>
<!-- Node6&#45;&gt;Node2 -->
<g id="edge5" class="edge">
<title>Node6&#45;&gt;Node2</title>
<path fill="none" stroke="#404040" d="M183.73,-237.9C176.88,-225.09 168.56,-209.55 160.88,-195.2"/>
<polygon fill="none" stroke="#404040" points="160.83,-195.1 154.47,-191.7 155.17,-184.52 161.53,-187.92 160.83,-195.1"/>
<text text-anchor="middle" x="191.5" y="-206" font-family="Helvetica,sans-Serif" font-size="10.00"> +state_</text>
</g>
<!-- Node7 -->
<g id="node7" class="node">
<title>Node7</title>
<g id="a_node7"><a xlink:title=" ">
<polygon fill="white" stroke="#bfbfbf" points="210,-122 210,-179 293,-179 293,-122 210,-122"/>
<text text-anchor="middle" x="251.5" y="-167" font-family="Helvetica,sans-Serif" font-size="10.00">const vector2</text>
<polyline fill="none" stroke="#bfbfbf" points="210,-160 293,-160 "/>
<text text-anchor="middle" x="251.5" y="-148" font-family="Helvetica,sans-Serif" font-size="10.00"> </text>
<polyline fill="none" stroke="#bfbfbf" points="210,-141 293,-141 "/>
<text text-anchor="middle" x="251.5" y="-129" font-family="Helvetica,sans-Serif" font-size="10.00"> </text>
</a>
</g>
</g>
<!-- Node7&#45;&gt;Node1 -->
<g id="edge6" class="edge">
<title>Node7&#45;&gt;Node1</title>
<path fill="none" stroke="#404040" d="M237.7,-121.9C231.36,-109.22 223.68,-93.85 216.56,-79.62"/>
<polygon fill="none" stroke="#404040" points="216.38,-79.25 210.12,-75.68 211.01,-68.52 217.27,-72.1 216.38,-79.25"/>
<text text-anchor="middle" x="252.5" y="-90" font-family="Helvetica,sans-Serif" font-size="10.00"> +position_</text>
</g>
</g>
</svg>
