<?xml version="1.0" encoding="UTF-8" standalone="no"?>
<!DOCTYPE svg PUBLIC "-//W3C//DTD SVG 1.1//EN"
 "http://www.w3.org/Graphics/SVG/1.1/DTD/svg11.dtd">
<!-- Generated by graphviz version 2.43.0 (0)
 -->
<!-- Title: mkr::scene_manager Pages: 1 -->
<svg width="332pt" height="226pt"
 viewBox="0.00 0.00 332.00 226.00" xmlns="http://www.w3.org/2000/svg" xmlns:xlink="http://www.w3.org/1999/xlink">
<g id="graph0" class="graph" transform="scale(1 1) rotate(0) translate(4 222)">
<title>mkr::scene_manager</title>
<polygon fill="white" stroke="transparent" points="-4,4 -4,-222 328,-222 328,4 -4,4"/>
<!-- Node1 -->
<g id="node1" class="node">
<title>Node1</title>
<g id="a_node1"><a xlink:title=" ">
<polygon fill="#bfbfbf" stroke="black" points="106,-0.5 106,-112.5 225,-112.5 225,-0.5 106,-0.5"/>
<text text-anchor="middle" x="165.5" y="-100.5" font-family="Helvetica,sans-Serif" font-size="10.00">mkr::scene_manager</text>
<polyline fill="none" stroke="black" points="106,-93.5 225,-93.5 "/>
<text text-anchor="middle" x="165.5" y="-81.5" font-family="Helvetica,sans-Serif" font-size="10.00"> </text>
<polyline fill="none" stroke="black" points="106,-74.5 225,-74.5 "/>
<text text-anchor="start" x="114" y="-62.5" font-family="Helvetica,sans-Serif" font-size="10.00">+ active_scene()</text>
<text text-anchor="start" x="114" y="-51.5" font-family="Helvetica,sans-Serif" font-size="10.00">+ init()</text>
<text text-anchor="start" x="114" y="-40.5" font-family="Helvetica,sans-Serif" font-size="10.00">+ update()</text>
<text text-anchor="start" x="114" y="-29.5" font-family="Helvetica,sans-Serif" font-size="10.00">+ exit()</text>
<text text-anchor="start" x="114" y="-18.5" font-family="Helvetica,sans-Serif" font-size="10.00">&#45; scene_manager()</text>
<text text-anchor="start" x="114" y="-7.5" font-family="Helvetica,sans-Serif" font-size="10.00">&#45; ~scene_manager()</text>
</a>
</g>
</g>
<!-- Node2 -->
<g id="node2" class="node">
<title>Node2</title>
<g id="a_node2"><a xlink:href="classsingleton.html" target="_top" xlink:title=" ">
<polygon fill="white" stroke="black" points="0,-160.5 0,-217.5 161,-217.5 161,-160.5 0,-160.5"/>
<text text-anchor="middle" x="80.5" y="-205.5" font-family="Helvetica,sans-Serif" font-size="10.00">singleton&lt; scene_manager &gt;</text>
<polyline fill="none" stroke="black" points="0,-198.5 161,-198.5 "/>
<text text-anchor="middle" x="80.5" y="-186.5" font-family="Helvetica,sans-Serif" font-size="10.00"> </text>
<polyline fill="none" stroke="black" points="0,-179.5 161,-179.5 "/>
<text text-anchor="middle" x="80.5" y="-167.5" font-family="Helvetica,sans-Serif" font-size="10.00"> </text>
</a>
</g>
</g>
<!-- Node2&#45;&gt;Node1 -->
<g id="edge1" class="edge">
<title>Node2&#45;&gt;Node1</title>
<path fill="none" stroke="midnightblue" d="M104.07,-151.81C111.99,-139.65 121,-125.81 129.64,-112.55"/>
<polygon fill="none" stroke="midnightblue" points="101.05,-150.03 98.53,-160.32 106.92,-153.86 101.05,-150.03"/>
</g>
<!-- Node3 -->
<g id="node3" class="node">
<title>Node3</title>
<g id="a_node3"><a xlink:title=" ">
<polygon fill="white" stroke="#bfbfbf" points="179,-160.5 179,-217.5 324,-217.5 324,-160.5 179,-160.5"/>
<text text-anchor="middle" x="251.5" y="-205.5" font-family="Helvetica,sans-Serif" font-size="10.00">unique_ptr&lt; mkr::scene &gt;</text>
<polyline fill="none" stroke="#bfbfbf" points="179,-198.5 324,-198.5 "/>
<text text-anchor="middle" x="251.5" y="-186.5" font-family="Helvetica,sans-Serif" font-size="10.00"> </text>
<polyline fill="none" stroke="#bfbfbf" points="179,-179.5 324,-179.5 "/>
<text text-anchor="middle" x="251.5" y="-167.5" font-family="Helvetica,sans-Serif" font-size="10.00"> </text>
</a>
</g>
</g>
<!-- Node3&#45;&gt;Node1 -->
<g id="edge2" class="edge">
<title>Node3&#45;&gt;Node1</title>
<path fill="none" stroke="#404040" d="M233.26,-160.32C225.95,-149.23 217.2,-135.95 208.45,-122.67"/>
<polygon fill="none" stroke="#404040" points="208.38,-122.57 201.74,-119.76 201.78,-112.55 208.42,-115.36 208.38,-122.57"/>
<text text-anchor="middle" x="239" y="-134" font-family="Helvetica,sans-Serif" font-size="10.00"> &#45;scene_</text>
</g>
</g>
</svg>
