<?xml version="1.0" encoding="UTF-8" standalone="no"?>
<!DOCTYPE svg PUBLIC "-//W3C//DTD SVG 1.1//EN"
 "http://www.w3.org/Graphics/SVG/1.1/DTD/svg11.dtd">
<!-- Generated by graphviz version 2.43.0 (0)
 -->
<!-- Title: mkr::transform Pages: 1 -->
<svg width="155pt" height="369pt"
 viewBox="0.00 0.00 154.50 369.00" xmlns="http://www.w3.org/2000/svg" xmlns:xlink="http://www.w3.org/1999/xlink">
<g id="graph0" class="graph" transform="scale(1 1) rotate(0) translate(4 365)">
<title>mkr::transform</title>
<polygon fill="white" stroke="transparent" points="-4,4 -4,-365 150.5,-365 150.5,4 -4,4"/>
<!-- Node1 -->
<g id="node1" class="node">
<title>Node1</title>
<g id="a_node1"><a xlink:title=" ">
<polygon fill="#bfbfbf" stroke="black" points="3,-0.5 3,-244.5 128,-244.5 128,-0.5 3,-0.5"/>
<text text-anchor="middle" x="65.5" y="-232.5" font-family="Helvetica,sans-Serif" font-size="10.00">mkr::transform</text>
<polyline fill="none" stroke="black" points="3,-225.5 128,-225.5 "/>
<text text-anchor="middle" x="65.5" y="-213.5" font-family="Helvetica,sans-Serif" font-size="10.00"> </text>
<polyline fill="none" stroke="black" points="3,-206.5 128,-206.5 "/>
<text text-anchor="start" x="11" y="-194.5" font-family="Helvetica,sans-Serif" font-size="10.00">+ transform()</text>
<text text-anchor="start" x="11" y="-183.5" font-family="Helvetica,sans-Serif" font-size="10.00">+ ~transform()</text>
<text text-anchor="start" x="11" y="-172.5" font-family="Helvetica,sans-Serif" font-size="10.00">+ get_position()</text>
<text text-anchor="start" x="11" y="-161.5" font-family="Helvetica,sans-Serif" font-size="10.00">+ set_position()</text>
<text text-anchor="start" x="11" y="-150.5" font-family="Helvetica,sans-Serif" font-size="10.00">+ translate()</text>
<text text-anchor="start" x="11" y="-139.5" font-family="Helvetica,sans-Serif" font-size="10.00">+ get_rotation()</text>
<text text-anchor="start" x="11" y="-128.5" font-family="Helvetica,sans-Serif" font-size="10.00">+ set_rotation()</text>
<text text-anchor="start" x="11" y="-117.5" font-family="Helvetica,sans-Serif" font-size="10.00">+ rotate()</text>
<text text-anchor="start" x="11" y="-106.5" font-family="Helvetica,sans-Serif" font-size="10.00">+ get_scale()</text>
<text text-anchor="start" x="11" y="-95.5" font-family="Helvetica,sans-Serif" font-size="10.00">+ set_scale()</text>
<text text-anchor="start" x="11" y="-84.5" font-family="Helvetica,sans-Serif" font-size="10.00">+ scale()</text>
<text text-anchor="start" x="11" y="-73.5" font-family="Helvetica,sans-Serif" font-size="10.00">+ left()</text>
<text text-anchor="start" x="11" y="-62.5" font-family="Helvetica,sans-Serif" font-size="10.00">+ up()</text>
<text text-anchor="start" x="11" y="-51.5" font-family="Helvetica,sans-Serif" font-size="10.00">+ forward()</text>
<text text-anchor="start" x="11" y="-40.5" font-family="Helvetica,sans-Serif" font-size="10.00">+ translation_matrix()</text>
<text text-anchor="start" x="11" y="-29.5" font-family="Helvetica,sans-Serif" font-size="10.00">+ rotation_matrix()</text>
<text text-anchor="start" x="11" y="-18.5" font-family="Helvetica,sans-Serif" font-size="10.00">+ scale_matrix()</text>
<text text-anchor="start" x="11" y="-7.5" font-family="Helvetica,sans-Serif" font-size="10.00">+ transform_matrix()</text>
</a>
</g>
</g>
<!-- Node2 -->
<g id="node2" class="node">
<title>Node2</title>
<g id="a_node2"><a xlink:title=" ">
<polygon fill="white" stroke="#bfbfbf" points="0,-303.5 0,-360.5 53,-360.5 53,-303.5 0,-303.5"/>
<text text-anchor="middle" x="26.5" y="-348.5" font-family="Helvetica,sans-Serif" font-size="10.00">vector3</text>
<polyline fill="none" stroke="#bfbfbf" points="0,-341.5 53,-341.5 "/>
<text text-anchor="middle" x="26.5" y="-329.5" font-family="Helvetica,sans-Serif" font-size="10.00"> </text>
<polyline fill="none" stroke="#bfbfbf" points="0,-322.5 53,-322.5 "/>
<text text-anchor="middle" x="26.5" y="-310.5" font-family="Helvetica,sans-Serif" font-size="10.00"> </text>
</a>
</g>
</g>
<!-- Node2&#45;&gt;Node1 -->
<g id="edge1" class="edge">
<title>Node2&#45;&gt;Node1</title>
<path fill="none" stroke="#404040" d="M27.49,-303.42C28.2,-291.01 29.42,-276.21 31.5,-263 31.84,-260.83 32.2,-258.65 32.57,-256.45"/>
<polygon fill="none" stroke="#404040" points="32.58,-256.42 29.71,-249.81 34.71,-244.61 37.58,-251.23 32.58,-256.42"/>
<text text-anchor="middle" x="57.5" y="-277" font-family="Helvetica,sans-Serif" font-size="10.00"> &#45;position_</text>
<text text-anchor="middle" x="57.5" y="-266" font-family="Helvetica,sans-Serif" font-size="10.00">&#45;scale_</text>
</g>
<!-- Node3 -->
<g id="node3" class="node">
<title>Node3</title>
<g id="a_node3"><a xlink:title=" ">
<polygon fill="white" stroke="#bfbfbf" points="71,-303.5 71,-360.5 140,-360.5 140,-303.5 71,-303.5"/>
<text text-anchor="middle" x="105.5" y="-348.5" font-family="Helvetica,sans-Serif" font-size="10.00">quaternion</text>
<polyline fill="none" stroke="#bfbfbf" points="71,-341.5 140,-341.5 "/>
<text text-anchor="middle" x="105.5" y="-329.5" font-family="Helvetica,sans-Serif" font-size="10.00"> </text>
<polyline fill="none" stroke="#bfbfbf" points="71,-322.5 140,-322.5 "/>
<text text-anchor="middle" x="105.5" y="-310.5" font-family="Helvetica,sans-Serif" font-size="10.00"> </text>
</a>
</g>
</g>
<!-- Node3&#45;&gt;Node1 -->
<g id="edge2" class="edge">
<title>Node3&#45;&gt;Node1</title>
<path fill="none" stroke="#404040" d="M100.19,-303.45C97.71,-290.58 94.55,-274.22 91.16,-256.63"/>
<polygon fill="none" stroke="#404040" points="91.12,-256.39 86.05,-251.26 88.85,-244.61 93.91,-249.74 91.12,-256.39"/>
<text text-anchor="middle" x="121" y="-271.5" font-family="Helvetica,sans-Serif" font-size="10.00"> &#45;rotation_</text>
</g>
</g>
</svg>
