<?xml version="1.0" encoding="UTF-8" standalone="no"?>
<!DOCTYPE svg PUBLIC "-//W3C//DTD SVG 1.1//EN"
 "http://www.w3.org/Graphics/SVG/1.1/DTD/svg11.dtd">
<!-- Generated by graphviz version 2.43.0 (0)
 -->
<!-- Title: mkr::mesh_manager Pages: 1 -->
<svg width="308pt" height="226pt"
 viewBox="0.00 0.00 308.00 226.00" xmlns="http://www.w3.org/2000/svg" xmlns:xlink="http://www.w3.org/1999/xlink">
<g id="graph0" class="graph" transform="scale(1 1) rotate(0) translate(4 222)">
<title>mkr::mesh_manager</title>
<polygon fill="white" stroke="transparent" points="-4,4 -4,-222 304,-222 304,4 -4,4"/>
<!-- Node1 -->
<g id="node1" class="node">
<title>Node1</title>
<g id="a_node1"><a xlink:title=" ">
<polygon fill="#bfbfbf" stroke="black" points="100,-0.5 100,-90.5 218,-90.5 218,-0.5 100,-0.5"/>
<text text-anchor="middle" x="159" y="-78.5" font-family="Helvetica,sans-Serif" font-size="10.00">mkr::mesh_manager</text>
<polyline fill="none" stroke="black" points="100,-71.5 218,-71.5 "/>
<text text-anchor="middle" x="159" y="-59.5" font-family="Helvetica,sans-Serif" font-size="10.00"> </text>
<polyline fill="none" stroke="black" points="100,-52.5 218,-52.5 "/>
<text text-anchor="start" x="108" y="-40.5" font-family="Helvetica,sans-Serif" font-size="10.00">+ get_mesh()</text>
<text text-anchor="start" x="108" y="-29.5" font-family="Helvetica,sans-Serif" font-size="10.00">+ make_mesh()</text>
<text text-anchor="start" x="108" y="-18.5" font-family="Helvetica,sans-Serif" font-size="10.00">&#45; mesh_manager()</text>
<text text-anchor="start" x="108" y="-7.5" font-family="Helvetica,sans-Serif" font-size="10.00">&#45; ~mesh_manager()</text>
</a>
</g>
</g>
<!-- Node2 -->
<g id="node2" class="node">
<title>Node2</title>
<g id="a_node2"><a xlink:href="classsingleton.html" target="_top" xlink:title=" ">
<polygon fill="white" stroke="black" points="0,-149.5 0,-206.5 160,-206.5 160,-149.5 0,-149.5"/>
<text text-anchor="middle" x="80" y="-194.5" font-family="Helvetica,sans-Serif" font-size="10.00">singleton&lt; mesh_manager &gt;</text>
<polyline fill="none" stroke="black" points="0,-187.5 160,-187.5 "/>
<text text-anchor="middle" x="80" y="-175.5" font-family="Helvetica,sans-Serif" font-size="10.00"> </text>
<polyline fill="none" stroke="black" points="0,-168.5 160,-168.5 "/>
<text text-anchor="middle" x="80" y="-156.5" font-family="Helvetica,sans-Serif" font-size="10.00"> </text>
</a>
</g>
</g>
<!-- Node2&#45;&gt;Node1 -->
<g id="edge1" class="edge">
<title>Node2&#45;&gt;Node1</title>
<path fill="none" stroke="midnightblue" d="M102.07,-140.54C111.46,-125.04 122.48,-106.82 132.32,-90.57"/>
<polygon fill="none" stroke="midnightblue" points="98.94,-138.96 96.75,-149.32 104.93,-142.58 98.94,-138.96"/>
</g>
<!-- Node3 -->
<g id="node3" class="node">
<title>Node3</title>
<g id="a_node3"><a xlink:title=" ">
<polygon fill="white" stroke="#bfbfbf" points="178,-138.5 178,-217.5 300,-217.5 300,-138.5 178,-138.5"/>
<text text-anchor="start" x="186" y="-205.5" font-family="Helvetica,sans-Serif" font-size="10.00">unordered_map&lt; std</text>
<text text-anchor="start" x="186" y="-194.5" font-family="Helvetica,sans-Serif" font-size="10.00">::string, std::unique</text>
<text text-anchor="middle" x="239" y="-183.5" font-family="Helvetica,sans-Serif" font-size="10.00">_ptr&lt; mkr::mesh &gt; &gt;</text>
<polyline fill="none" stroke="#bfbfbf" points="178,-176.5 300,-176.5 "/>
<text text-anchor="middle" x="239" y="-164.5" font-family="Helvetica,sans-Serif" font-size="10.00"> </text>
<polyline fill="none" stroke="#bfbfbf" points="178,-157.5 300,-157.5 "/>
<text text-anchor="middle" x="239" y="-145.5" font-family="Helvetica,sans-Serif" font-size="10.00"> </text>
</a>
</g>
</g>
<!-- Node3&#45;&gt;Node1 -->
<g id="edge2" class="edge">
<title>Node3&#45;&gt;Node1</title>
<path fill="none" stroke="#404040" d="M215.21,-138.2C208.09,-126.58 200.14,-113.61 192.51,-101.17"/>
<polygon fill="none" stroke="#404040" points="192.48,-101.11 185.93,-98.09 186.21,-90.88 192.75,-93.9 192.48,-101.11"/>
<text text-anchor="middle" x="229.5" y="-112" font-family="Helvetica,sans-Serif" font-size="10.00"> &#45;meshes_</text>
</g>
</g>
</svg>
