<?xml version="1.0" encoding="UTF-8" standalone="no"?>
<!DOCTYPE svg PUBLIC "-//W3C//DTD SVG 1.1//EN"
 "http://www.w3.org/Graphics/SVG/1.1/DTD/svg11.dtd">
<!-- Generated by graphviz version 2.43.0 (0)
 -->
<!-- Title: mkr::graphics_renderer Pages: 1 -->
<!--zoomable 424 -->
<svg id="main" version="1.1" xmlns="http://www.w3.org/2000/svg" xmlns:xlink="http://www.w3.org/1999/xlink" xml:space="preserve" onload="init(evt)">
<style type="text/css"><![CDATA[
.edge:hover path { stroke: red; }
.edge:hover polygon { stroke: red; fill: red; }
]]></style>
<script type="text/javascript"><![CDATA[
var edges = document.getElementsByTagName('g');
if (edges && edges.length) {
  for (var i=0;i<edges.length;i++) {
    if (edges[i].id.substr(0,4)=='edge') {
      edges[i].setAttribute('class','edge');
    }
  }
}
]]></script>
        <defs>
                <circle id="rim" cx="0" cy="0" r="7"/>
                <circle id="rim2" cx="0" cy="0" r="3.5"/>
                <g id="zoomPlus">
                        <use xlink:href="#rim" fill="#404040">
                                <set attributeName="fill" to="#808080" begin="zoomplus.mouseover" end="zoomplus.mouseout"/>
                        </use>
                        <path d="M-4,0h8M0,-4v8" fill="none" stroke="white" stroke-width="1.5" pointer-events="none"/>
                </g>
                <g id="zoomMin">
                        <use xlink:href="#rim" fill="#404040">
                                <set attributeName="fill" to="#808080" begin="zoomminus.mouseover" end="zoomminus.mouseout"/>
                        </use>
                        <path d="M-4,0h8" fill="none" stroke="white" stroke-width="1.5" pointer-events="none"/>
                </g>
                <g id="dirArrow">
                        <path fill="none" stroke="white" stroke-width="1.5" d="M0,-3.0v7 M-2.5,-0.5L0,-3.0L2.5,-0.5"/>
                </g>
               <g id="resetDef">
                       <use xlink:href="#rim2" fill="#404040">
                               <set attributeName="fill" to="#808080" begin="reset.mouseover" end="reset.mouseout"/>
                       </use>
               </g>
        </defs>

<script type="text/javascript">
var viewWidth = 2026;
var viewHeight = 424;
var sectionId = 'dynsection-1';
</script>
<script xlink:href="svgpan.js"/>
<svg id="graph" class="graph">
<g id="viewport">
<title>mkr::graphics_renderer</title>
<polygon fill="white" stroke="transparent" points="-4,4 -4,-420 2022,-420 2022,4 -4,4"/>
<!-- Node1 -->
<g id="node1" class="node">
<title>Node1</title>
<g id="a_node1"><a xlink:title=" ">
<polygon fill="#bfbfbf" stroke="black" points="987,-0.5 987,-255.5 1117,-255.5 1117,-0.5 987,-0.5"/>
<text text-anchor="middle" x="1052" y="-243.5" font-family="Helvetica,sans-Serif" font-size="10.00">mkr::graphics_renderer</text>
<polyline fill="none" stroke="black" points="987,-236.5 1117,-236.5 "/>
<text text-anchor="middle" x="1052" y="-224.5" font-family="Helvetica,sans-Serif" font-size="10.00"> </text>
<polyline fill="none" stroke="black" points="987,-217.5 1117,-217.5 "/>
<text text-anchor="start" x="995" y="-205.5" font-family="Helvetica,sans-Serif" font-size="10.00">+ init()</text>
<text text-anchor="start" x="995" y="-194.5" font-family="Helvetica,sans-Serif" font-size="10.00">+ start()</text>
<text text-anchor="start" x="995" y="-183.5" font-family="Helvetica,sans-Serif" font-size="10.00">+ update()</text>
<text text-anchor="start" x="995" y="-172.5" font-family="Helvetica,sans-Serif" font-size="10.00">+ exit()</text>
<text text-anchor="start" x="995" y="-161.5" font-family="Helvetica,sans-Serif" font-size="10.00">+ submit_camera()</text>
<text text-anchor="start" x="995" y="-150.5" font-family="Helvetica,sans-Serif" font-size="10.00">+ submit_light()</text>
<text text-anchor="start" x="995" y="-139.5" font-family="Helvetica,sans-Serif" font-size="10.00">+ submit_mesh()</text>
<text text-anchor="start" x="995" y="-128.5" font-family="Helvetica,sans-Serif" font-size="10.00">&#45; graphics_renderer()</text>
<text text-anchor="start" x="995" y="-117.5" font-family="Helvetica,sans-Serif" font-size="10.00">&#45; ~graphics_renderer()</text>
<text text-anchor="start" x="995" y="-106.5" font-family="Helvetica,sans-Serif" font-size="10.00">&#45; render()</text>
<text text-anchor="start" x="995" y="-95.5" font-family="Helvetica,sans-Serif" font-size="10.00">&#45; point_shadow()</text>
<text text-anchor="start" x="995" y="-84.5" font-family="Helvetica,sans-Serif" font-size="10.00">&#45; spot_shadow()</text>
<text text-anchor="start" x="995" y="-73.5" font-family="Helvetica,sans-Serif" font-size="10.00">&#45; directional_shadow()</text>
<text text-anchor="start" x="995" y="-62.5" font-family="Helvetica,sans-Serif" font-size="10.00">&#45; geometry_pass()</text>
<text text-anchor="start" x="995" y="-51.5" font-family="Helvetica,sans-Serif" font-size="10.00">&#45; lighting_pass()</text>
<text text-anchor="start" x="995" y="-40.5" font-family="Helvetica,sans-Serif" font-size="10.00">&#45; forward_pass()</text>
<text text-anchor="start" x="995" y="-29.5" font-family="Helvetica,sans-Serif" font-size="10.00">&#45; alpha_weight_pass()</text>
<text text-anchor="start" x="995" y="-18.5" font-family="Helvetica,sans-Serif" font-size="10.00">&#45; alpha_blend_pass()</text>
<text text-anchor="start" x="995" y="-7.5" font-family="Helvetica,sans-Serif" font-size="10.00">&#45; skybox_pass()</text>
</a>
</g>
</g>
<!-- Node2 -->
<g id="node2" class="node">
<title>Node2</title>
<g id="a_node2"><a xlink:href="classsingleton.html" target="_top" xlink:title=" ">
<polygon fill="white" stroke="black" points="0,-336.5 0,-404.5 114,-404.5 114,-336.5 0,-336.5"/>
<text text-anchor="start" x="8" y="-392.5" font-family="Helvetica,sans-Serif" font-size="10.00">singleton&lt; graphics</text>
<text text-anchor="middle" x="57" y="-381.5" font-family="Helvetica,sans-Serif" font-size="10.00">_renderer &gt;</text>
<polyline fill="none" stroke="black" points="0,-374.5 114,-374.5 "/>
<text text-anchor="middle" x="57" y="-362.5" font-family="Helvetica,sans-Serif" font-size="10.00"> </text>
<polyline fill="none" stroke="black" points="0,-355.5 114,-355.5 "/>
<text text-anchor="middle" x="57" y="-343.5" font-family="Helvetica,sans-Serif" font-size="10.00"> </text>
</a>
</g>
</g>
<!-- Node2&#45;&gt;Node1 -->
<g id="edge1" class="edge">
<title>Node2&#45;&gt;Node1</title>
<path fill="none" stroke="midnightblue" d="M111.38,-331.04C115.24,-328.87 119.14,-326.83 123,-325 194.29,-291.23 216.38,-292.76 293,-274 547.26,-211.75 854.87,-160.16 986.79,-139.14"/>
<polygon fill="none" stroke="midnightblue" points="109.3,-328.2 102.47,-336.3 112.86,-334.23 109.3,-328.2"/>
</g>
<!-- Node3 -->
<g id="node3" class="node">
<title>Node3</title>
<g id="a_node3"><a xlink:title=" ">
<polygon fill="white" stroke="#bfbfbf" points="132,-331 132,-410 250,-410 250,-331 132,-331"/>
<text text-anchor="start" x="140" y="-398" font-family="Helvetica,sans-Serif" font-size="10.00">priority_queue&lt; mkr</text>
<text text-anchor="start" x="140" y="-387" font-family="Helvetica,sans-Serif" font-size="10.00">::graphics_renderer</text>
<text text-anchor="middle" x="191" y="-376" font-family="Helvetica,sans-Serif" font-size="10.00">::camera_data &gt;</text>
<polyline fill="none" stroke="#bfbfbf" points="132,-369 250,-369 "/>
<text text-anchor="middle" x="191" y="-357" font-family="Helvetica,sans-Serif" font-size="10.00"> </text>
<polyline fill="none" stroke="#bfbfbf" points="132,-350 250,-350 "/>
<text text-anchor="middle" x="191" y="-338" font-family="Helvetica,sans-Serif" font-size="10.00"> </text>
</a>
</g>
</g>
<!-- Node3&#45;&gt;Node1 -->
<g id="edge2" class="edge">
<title>Node3&#45;&gt;Node1</title>
<path fill="none" stroke="#404040" d="M248.42,-330.86C251.96,-328.81 255.5,-326.84 259,-325 311.72,-297.23 326.1,-291.71 383,-274 593.02,-208.61 849.05,-161.98 974.78,-141.16"/>
<polygon fill="none" stroke="#404040" points="975.06,-141.12 980.33,-136.2 986.9,-139.17 981.63,-144.09 975.06,-141.12"/>
<text text-anchor="middle" x="410.5" y="-288" font-family="Helvetica,sans-Serif" font-size="10.00"> &#45;cameras_</text>
</g>
<!-- Node4 -->
<g id="node4" class="node">
<title>Node4</title>
<g id="a_node4"><a xlink:title=" ">
<polygon fill="white" stroke="#bfbfbf" points="268.5,-336.5 268.5,-404.5 391.5,-404.5 391.5,-336.5 268.5,-336.5"/>
<text text-anchor="start" x="276.5" y="-392.5" font-family="Helvetica,sans-Serif" font-size="10.00">unique_ptr&lt; mkr::app</text>
<text text-anchor="middle" x="330" y="-381.5" font-family="Helvetica,sans-Serif" font-size="10.00">_window &gt;</text>
<polyline fill="none" stroke="#bfbfbf" points="268.5,-374.5 391.5,-374.5 "/>
<text text-anchor="middle" x="330" y="-362.5" font-family="Helvetica,sans-Serif" font-size="10.00"> </text>
<polyline fill="none" stroke="#bfbfbf" points="268.5,-355.5 391.5,-355.5 "/>
<text text-anchor="middle" x="330" y="-343.5" font-family="Helvetica,sans-Serif" font-size="10.00"> </text>
</a>
</g>
</g>
<!-- Node4&#45;&gt;Node1 -->
<g id="edge3" class="edge">
<title>Node4&#45;&gt;Node1</title>
<path fill="none" stroke="#404040" d="M379.64,-336.47C386.67,-332.36 393.92,-328.41 401,-325 462.54,-295.34 480.91,-294.75 546,-274 697.01,-225.85 875.67,-176.38 975.2,-149.49"/>
<polygon fill="none" stroke="#404040" points="975.35,-149.45 980.1,-144.02 986.93,-146.32 982.18,-151.75 975.35,-149.45"/>
<text text-anchor="middle" x="582.5" y="-288" font-family="Helvetica,sans-Serif" font-size="10.00"> &#45;app_window_</text>
</g>
<!-- Node5 -->
<g id="node5" class="node">
<title>Node5</title>
<g id="a_node5"><a xlink:title=" ">
<polygon fill="white" stroke="#bfbfbf" points="410,-336.5 410,-404.5 562,-404.5 562,-336.5 410,-336.5"/>
<text text-anchor="start" x="418" y="-392.5" font-family="Helvetica,sans-Serif" font-size="10.00">unique_ptr&lt; mkr::geometry</text>
<text text-anchor="middle" x="486" y="-381.5" font-family="Helvetica,sans-Serif" font-size="10.00">_buffer &gt;</text>
<polyline fill="none" stroke="#bfbfbf" points="410,-374.5 562,-374.5 "/>
<text text-anchor="middle" x="486" y="-362.5" font-family="Helvetica,sans-Serif" font-size="10.00"> </text>
<polyline fill="none" stroke="#bfbfbf" points="410,-355.5 562,-355.5 "/>
<text text-anchor="middle" x="486" y="-343.5" font-family="Helvetica,sans-Serif" font-size="10.00"> </text>
</a>
</g>
</g>
<!-- Node5&#45;&gt;Node1 -->
<g id="edge4" class="edge">
<title>Node5&#45;&gt;Node1</title>
<path fill="none" stroke="#404040" d="M547.4,-336.48C555.29,-332.49 563.29,-328.58 571,-325 711.49,-259.78 880,-193.84 975.67,-157.51"/>
<polygon fill="none" stroke="#404040" points="975.75,-157.48 979.95,-151.62 986.97,-153.23 982.78,-159.1 975.75,-157.48"/>
<text text-anchor="middle" x="696.5" y="-288" font-family="Helvetica,sans-Serif" font-size="10.00"> &#45;g_buff_</text>
</g>
<!-- Node6 -->
<g id="node6" class="node">
<title>Node6</title>
<g id="a_node6"><a xlink:title=" ">
<polygon fill="white" stroke="#bfbfbf" points="580.5,-336.5 580.5,-404.5 723.5,-404.5 723.5,-336.5 580.5,-336.5"/>
<text text-anchor="start" x="588.5" y="-392.5" font-family="Helvetica,sans-Serif" font-size="10.00">unique_ptr&lt; mkr::shadow</text>
<text text-anchor="middle" x="652" y="-381.5" font-family="Helvetica,sans-Serif" font-size="10.00">_2d_buffer &gt;</text>
<polyline fill="none" stroke="#bfbfbf" points="580.5,-374.5 723.5,-374.5 "/>
<text text-anchor="middle" x="652" y="-362.5" font-family="Helvetica,sans-Serif" font-size="10.00"> </text>
<polyline fill="none" stroke="#bfbfbf" points="580.5,-355.5 723.5,-355.5 "/>
<text text-anchor="middle" x="652" y="-343.5" font-family="Helvetica,sans-Serif" font-size="10.00"> </text>
</a>
</g>
</g>
<!-- Node6&#45;&gt;Node1 -->
<g id="edge5" class="edge">
<title>Node6&#45;&gt;Node1</title>
<path fill="none" stroke="#404040" d="M707.2,-336.31C777.14,-294.26 898.01,-221.59 976.46,-174.42"/>
<polygon fill="none" stroke="#404040" points="976.48,-174.41 979.56,-167.89 986.76,-168.22 983.68,-174.74 976.48,-174.41"/>
<text text-anchor="middle" x="832" y="-288" font-family="Helvetica,sans-Serif" font-size="10.00"> &#45;s2d_buff_</text>
</g>
<!-- Node7 -->
<g id="node7" class="node">
<title>Node7</title>
<g id="a_node7"><a xlink:title=" ">
<polygon fill="white" stroke="#bfbfbf" points="742,-336.5 742,-404.5 874,-404.5 874,-336.5 742,-336.5"/>
<text text-anchor="start" x="750" y="-392.5" font-family="Helvetica,sans-Serif" font-size="10.00">unique_ptr&lt; mkr::alpha</text>
<text text-anchor="middle" x="808" y="-381.5" font-family="Helvetica,sans-Serif" font-size="10.00">_buffer &gt;</text>
<polyline fill="none" stroke="#bfbfbf" points="742,-374.5 874,-374.5 "/>
<text text-anchor="middle" x="808" y="-362.5" font-family="Helvetica,sans-Serif" font-size="10.00"> </text>
<polyline fill="none" stroke="#bfbfbf" points="742,-355.5 874,-355.5 "/>
<text text-anchor="middle" x="808" y="-343.5" font-family="Helvetica,sans-Serif" font-size="10.00"> </text>
</a>
</g>
</g>
<!-- Node7&#45;&gt;Node1 -->
<g id="edge6" class="edge">
<title>Node7&#45;&gt;Node1</title>
<path fill="none" stroke="#404040" d="M841.67,-336.31C876.67,-301.81 932.59,-246.7 977.97,-201.97"/>
<polygon fill="none" stroke="#404040" points="978.05,-201.89 979.52,-194.82 986.6,-193.46 985.14,-200.52 978.05,-201.89"/>
<text text-anchor="middle" x="922.5" y="-288" font-family="Helvetica,sans-Serif" font-size="10.00"> &#45;a_buff_</text>
</g>
<!-- Node8 -->
<g id="node8" class="node">
<title>Node8</title>
<g id="a_node8"><a xlink:title=" ">
<polygon fill="white" stroke="#bfbfbf" points="892.5,-342 892.5,-399 1035.5,-399 1035.5,-342 892.5,-342"/>
<text text-anchor="middle" x="964" y="-387" font-family="Helvetica,sans-Serif" font-size="10.00">unique_ptr&lt; mkr::mesh &gt;</text>
<polyline fill="none" stroke="#bfbfbf" points="892.5,-380 1035.5,-380 "/>
<text text-anchor="middle" x="964" y="-368" font-family="Helvetica,sans-Serif" font-size="10.00"> </text>
<polyline fill="none" stroke="#bfbfbf" points="892.5,-361 1035.5,-361 "/>
<text text-anchor="middle" x="964" y="-349" font-family="Helvetica,sans-Serif" font-size="10.00"> </text>
</a>
</g>
</g>
<!-- Node8&#45;&gt;Node1 -->
<g id="edge7" class="edge">
<title>Node8&#45;&gt;Node1</title>
<path fill="none" stroke="#404040" d="M974.09,-341.91C981.11,-322.74 991.04,-295.6 1001.47,-267.09"/>
<polygon fill="none" stroke="#404040" points="1001.52,-266.95 999.83,-259.94 1005.65,-255.68 1007.34,-262.69 1001.52,-266.95"/>
<text text-anchor="middle" x="1034" y="-293.5" font-family="Helvetica,sans-Serif" font-size="10.00"> &#45;screen_quad_</text>
<text text-anchor="middle" x="1034" y="-282.5" font-family="Helvetica,sans-Serif" font-size="10.00">&#45;skybox_cube_</text>
</g>
<!-- Node9 -->
<g id="node9" class="node">
<title>Node9</title>
<g id="a_node9"><a xlink:title=" ">
<polygon fill="white" stroke="#bfbfbf" points="1053.5,-325.5 1053.5,-415.5 1226.5,-415.5 1226.5,-325.5 1053.5,-325.5"/>
<text text-anchor="start" x="1061.5" y="-403.5" font-family="Helvetica,sans-Serif" font-size="10.00">unordered_map&lt; mkr</text>
<text text-anchor="start" x="1061.5" y="-392.5" font-family="Helvetica,sans-Serif" font-size="10.00">::material *, std::unordered</text>
<text text-anchor="start" x="1061.5" y="-381.5" font-family="Helvetica,sans-Serif" font-size="10.00">_map&lt; mkr::mesh *, std::vector</text>
<text text-anchor="middle" x="1140" y="-370.5" font-family="Helvetica,sans-Serif" font-size="10.00">&lt; matrix4x4 &gt; &gt; &gt;</text>
<polyline fill="none" stroke="#bfbfbf" points="1053.5,-363.5 1226.5,-363.5 "/>
<text text-anchor="middle" x="1140" y="-351.5" font-family="Helvetica,sans-Serif" font-size="10.00"> </text>
<polyline fill="none" stroke="#bfbfbf" points="1053.5,-344.5 1226.5,-344.5 "/>
<text text-anchor="middle" x="1140" y="-332.5" font-family="Helvetica,sans-Serif" font-size="10.00"> </text>
</a>
</g>
</g>
<!-- Node9&#45;&gt;Node1 -->
<g id="edge8" class="edge">
<title>Node9&#45;&gt;Node1</title>
<path fill="none" stroke="#404040" d="M1123.86,-325.39C1117.68,-308.49 1110.25,-288.19 1102.54,-267.13"/>
<polygon fill="none" stroke="#404040" points="1102.49,-267 1096.67,-262.74 1098.37,-255.73 1104.19,-259.99 1102.49,-267"/>
<text text-anchor="middle" x="1170.5" y="-299" font-family="Helvetica,sans-Serif" font-size="10.00"> &#45;deferred_meshes_</text>
<text text-anchor="middle" x="1170.5" y="-288" font-family="Helvetica,sans-Serif" font-size="10.00">&#45;forward_meshes_</text>
<text text-anchor="middle" x="1170.5" y="-277" font-family="Helvetica,sans-Serif" font-size="10.00">&#45;transparent_meshes_</text>
</g>
<!-- Node10 -->
<g id="node10" class="node">
<title>Node10</title>
<g id="a_node10"><a xlink:title=" ">
<polygon fill="white" stroke="#bfbfbf" points="1245,-342 1245,-399 1301,-399 1301,-342 1245,-342"/>
<text text-anchor="middle" x="1273" y="-387" font-family="Helvetica,sans-Serif" font-size="10.00">uint32_t</text>
<polyline fill="none" stroke="#bfbfbf" points="1245,-380 1301,-380 "/>
<text text-anchor="middle" x="1273" y="-368" font-family="Helvetica,sans-Serif" font-size="10.00"> </text>
<polyline fill="none" stroke="#bfbfbf" points="1245,-361 1301,-361 "/>
<text text-anchor="middle" x="1273" y="-349" font-family="Helvetica,sans-Serif" font-size="10.00"> </text>
</a>
</g>
</g>
<!-- Node10&#45;&gt;Node1 -->
<g id="edge9" class="edge">
<title>Node10&#45;&gt;Node1</title>
<path fill="none" stroke="#404040" d="M1264.03,-341.75C1256.66,-321.65 1244.85,-294.51 1229,-274 1200.7,-237.39 1161.5,-204.07 1127.18,-178.63"/>
<polygon fill="none" stroke="#404040" points="1126.87,-178.4 1119.67,-178.1 1117.18,-171.33 1124.38,-171.63 1126.87,-178.4"/>
<text text-anchor="middle" x="1291" y="-293.5" font-family="Helvetica,sans-Serif" font-size="10.00"> &#45;window_height_</text>
<text text-anchor="middle" x="1291" y="-282.5" font-family="Helvetica,sans-Serif" font-size="10.00">&#45;window_width_</text>
</g>
<!-- Node11 -->
<g id="node11" class="node">
<title>Node11</title>
<g id="a_node11"><a xlink:title=" ">
<polygon fill="white" stroke="#bfbfbf" points="1319.5,-336.5 1319.5,-404.5 1448.5,-404.5 1448.5,-336.5 1319.5,-336.5"/>
<text text-anchor="start" x="1327.5" y="-392.5" font-family="Helvetica,sans-Serif" font-size="10.00">vector&lt; mkr::graphics</text>
<text text-anchor="middle" x="1384" y="-381.5" font-family="Helvetica,sans-Serif" font-size="10.00">_renderer::light_data &gt;</text>
<polyline fill="none" stroke="#bfbfbf" points="1319.5,-374.5 1448.5,-374.5 "/>
<text text-anchor="middle" x="1384" y="-362.5" font-family="Helvetica,sans-Serif" font-size="10.00"> </text>
<polyline fill="none" stroke="#bfbfbf" points="1319.5,-355.5 1448.5,-355.5 "/>
<text text-anchor="middle" x="1384" y="-343.5" font-family="Helvetica,sans-Serif" font-size="10.00"> </text>
</a>
</g>
</g>
<!-- Node11&#45;&gt;Node1 -->
<g id="edge10" class="edge">
<title>Node11&#45;&gt;Node1</title>
<path fill="none" stroke="#404040" d="M1374.04,-336.2C1366.7,-316.2 1355,-291.35 1338,-274 1279.59,-214.39 1191.51,-174.87 1128.54,-152.35"/>
<polygon fill="none" stroke="#404040" points="1128.41,-152.31 1121.43,-154.1 1117.09,-148.34 1124.07,-146.55 1128.41,-152.31"/>
<text text-anchor="middle" x="1381" y="-288" font-family="Helvetica,sans-Serif" font-size="10.00"> &#45;lights_</text>
</g>
<!-- Node12 -->
<g id="node12" class="node">
<title>Node12</title>
<g id="a_node12"><a xlink:title=" ">
<polygon fill="white" stroke="#bfbfbf" points="1466.5,-336.5 1466.5,-404.5 1609.5,-404.5 1609.5,-336.5 1466.5,-336.5"/>
<text text-anchor="start" x="1474.5" y="-392.5" font-family="Helvetica,sans-Serif" font-size="10.00">unique_ptr&lt; mkr::forward</text>
<text text-anchor="middle" x="1538" y="-381.5" font-family="Helvetica,sans-Serif" font-size="10.00">_buffer &gt;</text>
<polyline fill="none" stroke="#bfbfbf" points="1466.5,-374.5 1609.5,-374.5 "/>
<text text-anchor="middle" x="1538" y="-362.5" font-family="Helvetica,sans-Serif" font-size="10.00"> </text>
<polyline fill="none" stroke="#bfbfbf" points="1466.5,-355.5 1609.5,-355.5 "/>
<text text-anchor="middle" x="1538" y="-343.5" font-family="Helvetica,sans-Serif" font-size="10.00"> </text>
</a>
</g>
</g>
<!-- Node12&#45;&gt;Node1 -->
<g id="edge11" class="edge">
<title>Node12&#45;&gt;Node1</title>
<path fill="none" stroke="#404040" d="M1497.13,-336.34C1471.63,-316.64 1437.57,-292.06 1405,-274 1313.97,-223.53 1201.73,-180.4 1128.6,-154.61"/>
<polygon fill="none" stroke="#404040" points="1128.53,-154.58 1121.54,-156.38 1117.2,-150.62 1124.19,-148.82 1128.53,-154.58"/>
<text text-anchor="middle" x="1474" y="-288" font-family="Helvetica,sans-Serif" font-size="10.00"> &#45;f_buff_</text>
</g>
<!-- Node13 -->
<g id="node13" class="node">
<title>Node13</title>
<g id="a_node13"><a xlink:title=" ">
<polygon fill="white" stroke="#bfbfbf" points="1627.5,-336.5 1627.5,-404.5 1770.5,-404.5 1770.5,-336.5 1627.5,-336.5"/>
<text text-anchor="start" x="1635.5" y="-392.5" font-family="Helvetica,sans-Serif" font-size="10.00">unique_ptr&lt; mkr::shadow</text>
<text text-anchor="middle" x="1699" y="-381.5" font-family="Helvetica,sans-Serif" font-size="10.00">_cubemap_buffer &gt;</text>
<polyline fill="none" stroke="#bfbfbf" points="1627.5,-374.5 1770.5,-374.5 "/>
<text text-anchor="middle" x="1699" y="-362.5" font-family="Helvetica,sans-Serif" font-size="10.00"> </text>
<polyline fill="none" stroke="#bfbfbf" points="1627.5,-355.5 1770.5,-355.5 "/>
<text text-anchor="middle" x="1699" y="-343.5" font-family="Helvetica,sans-Serif" font-size="10.00"> </text>
</a>
</g>
</g>
<!-- Node13&#45;&gt;Node1 -->
<g id="edge12" class="edge">
<title>Node13&#45;&gt;Node1</title>
<path fill="none" stroke="#404040" d="M1641.28,-336.42C1633.85,-332.45 1626.29,-328.55 1619,-325 1451.19,-243.26 1240.45,-179.91 1129.13,-149.26"/>
<polygon fill="none" stroke="#404040" points="1128.94,-149.21 1122.1,-151.48 1117.37,-146.04 1124.21,-143.76 1128.94,-149.21"/>
<text text-anchor="middle" x="1606.5" y="-288" font-family="Helvetica,sans-Serif" font-size="10.00"> &#45;scube_buff_</text>
</g>
<!-- Node14 -->
<g id="node14" class="node">
<title>Node14</title>
<g id="a_node14"><a xlink:title=" ">
<polygon fill="white" stroke="#bfbfbf" points="1789,-336.5 1789,-404.5 1931,-404.5 1931,-336.5 1789,-336.5"/>
<text text-anchor="start" x="1797" y="-392.5" font-family="Helvetica,sans-Serif" font-size="10.00">unique_ptr&lt; mkr::lighting</text>
<text text-anchor="middle" x="1860" y="-381.5" font-family="Helvetica,sans-Serif" font-size="10.00">_buffer &gt;</text>
<polyline fill="none" stroke="#bfbfbf" points="1789,-374.5 1931,-374.5 "/>
<text text-anchor="middle" x="1860" y="-362.5" font-family="Helvetica,sans-Serif" font-size="10.00"> </text>
<polyline fill="none" stroke="#bfbfbf" points="1789,-355.5 1931,-355.5 "/>
<text text-anchor="middle" x="1860" y="-343.5" font-family="Helvetica,sans-Serif" font-size="10.00"> </text>
</a>
</g>
</g>
<!-- Node14&#45;&gt;Node1 -->
<g id="edge13" class="edge">
<title>Node14&#45;&gt;Node1</title>
<path fill="none" stroke="#404040" d="M1802.86,-336.35C1795.26,-332.35 1787.51,-328.46 1780,-325 1721,-297.8 1705.1,-293.11 1643,-274 1461.3,-218.1 1243.04,-169.14 1129.39,-144.99"/>
<polygon fill="none" stroke="#404040" points="1129.13,-144.93 1122.43,-147.6 1117.39,-142.45 1124.08,-139.78 1129.13,-144.93"/>
<text text-anchor="middle" x="1758" y="-288" font-family="Helvetica,sans-Serif" font-size="10.00"> &#45;l_buff_</text>
</g>
<!-- Node15 -->
<g id="node15" class="node">
<title>Node15</title>
<g id="a_node15"><a xlink:title=" ">
<polygon fill="white" stroke="#bfbfbf" points="1949.5,-342 1949.5,-399 2016.5,-399 2016.5,-342 1949.5,-342"/>
<text text-anchor="middle" x="1983" y="-387" font-family="Helvetica,sans-Serif" font-size="10.00">matrix4x4</text>
<polyline fill="none" stroke="#bfbfbf" points="1949.5,-380 2016.5,-380 "/>
<text text-anchor="middle" x="1983" y="-368" font-family="Helvetica,sans-Serif" font-size="10.00"> </text>
<polyline fill="none" stroke="#bfbfbf" points="1949.5,-361 2016.5,-361 "/>
<text text-anchor="middle" x="1983" y="-349" font-family="Helvetica,sans-Serif" font-size="10.00"> </text>
</a>
</g>
</g>
<!-- Node15&#45;&gt;Node1 -->
<g id="edge14" class="edge">
<title>Node15&#45;&gt;Node1</title>
<path fill="none" stroke="#404040" d="M1960.32,-341.77C1954.23,-335.6 1947.29,-329.55 1940,-325 1877.38,-285.97 1853.42,-292.55 1782,-274 1546.73,-212.88 1263.02,-163.29 1129.12,-141.28"/>
<polygon fill="none" stroke="#404040" points="1128.86,-141.24 1122.3,-144.22 1117.02,-139.31 1123.59,-136.33 1128.86,-141.24"/>
<text text-anchor="start" x="1906" y="-293.5" font-family="Helvetica,sans-Serif" font-size="10.00"> &#45;light_view_projection</text>
<text text-anchor="middle" x="1962" y="-282.5" font-family="Helvetica,sans-Serif" font-size="10.00">_matrix_</text>
</g>
</g>
</svg>
        <g id="navigator" transform="translate(0 0)" fill="#404254">
                <rect fill="#f2f5e9" fill-opacity="0.5" stroke="#606060" stroke-width=".5" x="0" y="0" width="60" height="60"/>
                <use id="zoomplus" xlink:href="#zoomPlus" x="17" y="9" onmousedown="handleZoom(evt,'in')"/>
                <use id="zoomminus" xlink:href="#zoomMin" x="42" y="9" onmousedown="handleZoom(evt,'out')"/>
                <use id="reset" xlink:href="#resetDef" x="30" y="36" onmousedown="handleReset()"/>
                <g id="arrowUp" xlink:href="#dirArrow" transform="translate(30 24)" onmousedown="handlePan(0,-1)">
                  <use xlink:href="#rim" fill="#404040">
                        <set attributeName="fill" to="#808080" begin="arrowUp.mouseover" end="arrowUp.mouseout"/>
                  </use>
                  <path fill="none" stroke="white" stroke-width="1.5" d="M0,-3.0v7 M-2.5,-0.5L0,-3.0L2.5,-0.5"/>
                </g>
                <g id="arrowRight" xlink:href="#dirArrow" transform="rotate(90) translate(36 -43)" onmousedown="handlePan(1,0)">
                  <use xlink:href="#rim" fill="#404040">
                        <set attributeName="fill" to="#808080" begin="arrowRight.mouseover" end="arrowRight.mouseout"/>
                  </use>
                  <path fill="none" stroke="white" stroke-width="1.5" d="M0,-3.0v7 M-2.5,-0.5L0,-3.0L2.5,-0.5"/>
                </g>
                <g id="arrowDown" xlink:href="#dirArrow" transform="rotate(180) translate(-30 -48)" onmousedown="handlePan(0,1)">
                  <use xlink:href="#rim" fill="#404040">
                        <set attributeName="fill" to="#808080" begin="arrowDown.mouseover" end="arrowDown.mouseout"/>
                  </use>
                  <path fill="none" stroke="white" stroke-width="1.5" d="M0,-3.0v7 M-2.5,-0.5L0,-3.0L2.5,-0.5"/>
                </g>
                <g id="arrowLeft" xlink:href="#dirArrow" transform="rotate(270) translate(-36 17)" onmousedown="handlePan(-1,0)">
                  <use xlink:href="#rim" fill="#404040">
                        <set attributeName="fill" to="#808080" begin="arrowLeft.mouseover" end="arrowLeft.mouseout"/>
                  </use>
                  <path fill="none" stroke="white" stroke-width="1.5" d="M0,-3.0v7 M-2.5,-0.5L0,-3.0L2.5,-0.5"/>
                </g>
        </g>
        <svg viewBox="0 0 15 15" width="100%" height="30px" preserveAspectRatio="xMaxYMin meet">
         <g id="arrow_out" transform="scale(0.3 0.3)">
          <a xlink:href="classmkr_1_1graphics__renderer__coll__graph_org.svg" target="_base">
           <rect id="button" ry="5" rx="5" y="6" x="6" height="38" width="38"
                fill="#f2f5e9" fill-opacity="0.5" stroke="#606060" stroke-width="1.0"/>
           <path id="arrow"
             d="M 11.500037,31.436501 C 11.940474,20.09759 22.043105,11.32322 32.158766,21.979434 L 37.068811,17.246167 C 37.068811,17.246167 37.088388,32 37.088388,32 L 22.160133,31.978069 C 22.160133,31.978069 26.997745,27.140456 26.997745,27.140456 C 18.528582,18.264221 13.291696,25.230495 11.500037,31.436501 z"
             style="fill:#404040;"/>
          </a>
         </g>
        </svg>
</svg>
