<?xml version="1.0" encoding="UTF-8" standalone="no"?>
<!DOCTYPE svg PUBLIC "-//W3C//DTD SVG 1.1//EN"
 "http://www.w3.org/Graphics/SVG/1.1/DTD/svg11.dtd">
<!-- Generated by graphviz version 2.43.0 (0)
 -->
<!-- Title: mkr::pbuffer Pages: 1 -->
<!--zoomable 464 -->
<svg id="main" version="1.1" xmlns="http://www.w3.org/2000/svg" xmlns:xlink="http://www.w3.org/1999/xlink" xml:space="preserve" onload="init(evt)">
<style type="text/css"><![CDATA[
.edge:hover path { stroke: red; }
.edge:hover polygon { stroke: red; fill: red; }
]]></style>
<script type="text/javascript"><![CDATA[
var edges = document.getElementsByTagName('g');
if (edges && edges.length) {
  for (var i=0;i<edges.length;i++) {
    if (edges[i].id.substr(0,4)=='edge') {
      edges[i].setAttribute('class','edge');
    }
  }
}
]]></script>
        <defs>
                <circle id="rim" cx="0" cy="0" r="7"/>
                <circle id="rim2" cx="0" cy="0" r="3.5"/>
                <g id="zoomPlus">
                        <use xlink:href="#rim" fill="#404040">
                                <set attributeName="fill" to="#808080" begin="zoomplus.mouseover" end="zoomplus.mouseout"/>
                        </use>
                        <path d="M-4,0h8M0,-4v8" fill="none" stroke="white" stroke-width="1.5" pointer-events="none"/>
                </g>
                <g id="zoomMin">
                        <use xlink:href="#rim" fill="#404040">
                                <set attributeName="fill" to="#808080" begin="zoomminus.mouseover" end="zoomminus.mouseout"/>
                        </use>
                        <path d="M-4,0h8" fill="none" stroke="white" stroke-width="1.5" pointer-events="none"/>
                </g>
                <g id="dirArrow">
                        <path fill="none" stroke="white" stroke-width="1.5" d="M0,-3.0v7 M-2.5,-0.5L0,-3.0L2.5,-0.5"/>
                </g>
               <g id="resetDef">
                       <use xlink:href="#rim2" fill="#404040">
                               <set attributeName="fill" to="#808080" begin="reset.mouseover" end="reset.mouseout"/>
                       </use>
               </g>
        </defs>

<script type="text/javascript">
var viewWidth = 451;
var viewHeight = 464;
var sectionId = 'dynsection-1';
</script>
<script xlink:href="svgpan.js"/>
<svg id="graph" class="graph">
<g id="viewport">
<title>mkr::pbuffer</title>
<polygon fill="white" stroke="transparent" points="-4,4 -4,-460 446.5,-460 446.5,4 -4,4"/>
<!-- Node1 -->
<g id="node1" class="node">
<title>Node1</title>
<g id="a_node1"><a xlink:title=" ">
<polygon fill="#bfbfbf" stroke="black" points="75.5,-0.5 75.5,-79.5 175.5,-79.5 175.5,-0.5 75.5,-0.5"/>
<text text-anchor="middle" x="125.5" y="-67.5" font-family="Helvetica,sans-Serif" font-size="10.00">mkr::pbuffer</text>
<polyline fill="none" stroke="black" points="75.5,-60.5 175.5,-60.5 "/>
<text text-anchor="middle" x="125.5" y="-48.5" font-family="Helvetica,sans-Serif" font-size="10.00"> </text>
<polyline fill="none" stroke="black" points="75.5,-41.5 175.5,-41.5 "/>
<text text-anchor="start" x="83.5" y="-29.5" font-family="Helvetica,sans-Serif" font-size="10.00">+ pbuffer()</text>
<text text-anchor="start" x="83.5" y="-18.5" font-family="Helvetica,sans-Serif" font-size="10.00">+ ~pbuffer()</text>
<text text-anchor="start" x="83.5" y="-7.5" font-family="Helvetica,sans-Serif" font-size="10.00">+ swap_buffers()</text>
</a>
</g>
</g>
<!-- Node2 -->
<g id="node2" class="node">
<title>Node2</title>
<g id="a_node2"><a xlink:href="classmkr_1_1framebuffer.html" target="_top" xlink:title=" ">
<polygon fill="white" stroke="black" points="183,-117.5 183,-339.5 366,-339.5 366,-117.5 183,-117.5"/>
<text text-anchor="middle" x="274.5" y="-327.5" font-family="Helvetica,sans-Serif" font-size="10.00">mkr::framebuffer</text>
<polyline fill="none" stroke="black" points="183,-320.5 366,-320.5 "/>
<text text-anchor="middle" x="274.5" y="-308.5" font-family="Helvetica,sans-Serif" font-size="10.00"> </text>
<polyline fill="none" stroke="black" points="183,-301.5 366,-301.5 "/>
<text text-anchor="start" x="191" y="-289.5" font-family="Helvetica,sans-Serif" font-size="10.00">+ ~framebuffer()</text>
<text text-anchor="start" x="191" y="-278.5" font-family="Helvetica,sans-Serif" font-size="10.00">+ is_complete()</text>
<text text-anchor="start" x="191" y="-267.5" font-family="Helvetica,sans-Serif" font-size="10.00">+ get_colour_attachment()</text>
<text text-anchor="start" x="191" y="-256.5" font-family="Helvetica,sans-Serif" font-size="10.00">+ get_colour_attachment()</text>
<text text-anchor="start" x="191" y="-245.5" font-family="Helvetica,sans-Serif" font-size="10.00">+ get_depth_stencil_attachment()</text>
<text text-anchor="start" x="191" y="-234.5" font-family="Helvetica,sans-Serif" font-size="10.00">+ get_depth_stencil_attachment()</text>
<text text-anchor="start" x="191" y="-223.5" font-family="Helvetica,sans-Serif" font-size="10.00">+ bind()</text>
<text text-anchor="start" x="191" y="-212.5" font-family="Helvetica,sans-Serif" font-size="10.00">+ blit_to()</text>
<text text-anchor="start" x="191" y="-201.5" font-family="Helvetica,sans-Serif" font-size="10.00">+ set_read_colour_attachment()</text>
<text text-anchor="start" x="191" y="-190.5" font-family="Helvetica,sans-Serif" font-size="10.00">+ set_draw_colour_attachment()</text>
<text text-anchor="start" x="191" y="-179.5" font-family="Helvetica,sans-Serif" font-size="10.00">+ set_draw_colour_attachment</text>
<text text-anchor="start" x="191" y="-168.5" font-family="Helvetica,sans-Serif" font-size="10.00">_all()</text>
<text text-anchor="start" x="191" y="-157.5" font-family="Helvetica,sans-Serif" font-size="10.00">+ clear_colour()</text>
<text text-anchor="start" x="191" y="-146.5" font-family="Helvetica,sans-Serif" font-size="10.00">+ clear_colour_all()</text>
<text text-anchor="start" x="191" y="-135.5" font-family="Helvetica,sans-Serif" font-size="10.00">+ clear_depth_stencil()</text>
<text text-anchor="start" x="191" y="-124.5" font-family="Helvetica,sans-Serif" font-size="10.00"># framebuffer()</text>
</a>
</g>
</g>
<!-- Node2&#45;&gt;Node1 -->
<g id="edge1" class="edge">
<title>Node2&#45;&gt;Node1</title>
<path fill="none" stroke="midnightblue" d="M180.06,-109.29C171.68,-98.8 163.66,-88.77 156.48,-79.78"/>
<polygon fill="none" stroke="midnightblue" points="177.56,-111.77 186.53,-117.39 183.03,-107.4 177.56,-111.77"/>
</g>
<!-- Node3 -->
<g id="node3" class="node">
<title>Node3</title>
<g id="a_node3"><a xlink:title=" ">
<polygon fill="white" stroke="#bfbfbf" points="0,-393 0,-450 169,-450 169,-393 0,-393"/>
<text text-anchor="middle" x="84.5" y="-438" font-family="Helvetica,sans-Serif" font-size="10.00">shared_ptr&lt; mkr::texture_2d &gt;</text>
<polyline fill="none" stroke="#bfbfbf" points="0,-431 169,-431 "/>
<text text-anchor="middle" x="84.5" y="-419" font-family="Helvetica,sans-Serif" font-size="10.00"> </text>
<polyline fill="none" stroke="#bfbfbf" points="0,-412 169,-412 "/>
<text text-anchor="middle" x="84.5" y="-400" font-family="Helvetica,sans-Serif" font-size="10.00"> </text>
</a>
</g>
</g>
<!-- Node3&#45;&gt;Node1 -->
<g id="edge5" class="edge">
<title>Node3&#45;&gt;Node1</title>
<path fill="none" stroke="#404040" d="M78.24,-392.98C67.11,-338.81 47.62,-215.09 76.5,-117 79.24,-107.69 83.52,-98.44 88.43,-89.76"/>
<polygon fill="none" stroke="#404040" points="88.44,-89.75 88.14,-82.55 94.67,-79.5 94.97,-86.71 88.44,-89.75"/>
<text text-anchor="middle" x="125" y="-226" font-family="Helvetica,sans-Serif" font-size="10.00"> #composite_back_</text>
</g>
<!-- Node3&#45;&gt;Node2 -->
<g id="edge2" class="edge">
<title>Node3&#45;&gt;Node2</title>
<path fill="none" stroke="#404040" d="M97.85,-392.87C104.75,-380.88 114.12,-367.45 125.5,-358 141.43,-344.76 151.42,-351.72 168.5,-340 170.01,-338.97 171.51,-337.91 173.01,-336.83"/>
<polygon fill="none" stroke="#404040" points="173.24,-336.65 175.6,-329.84 182.8,-329.4 180.44,-336.21 173.24,-336.65"/>
<text text-anchor="middle" x="197.5" y="-361" font-family="Helvetica,sans-Serif" font-size="10.00"> #depth_stencil_attachment_</text>
</g>
<!-- Node4 -->
<g id="node4" class="node">
<title>Node4</title>
<g id="a_node4"><a xlink:title=" ">
<polygon fill="white" stroke="#bfbfbf" points="199,-387.5 199,-455.5 346,-455.5 346,-387.5 199,-387.5"/>
<text text-anchor="start" x="207" y="-443.5" font-family="Helvetica,sans-Serif" font-size="10.00">vector&lt; std::shared</text>
<text text-anchor="middle" x="272.5" y="-432.5" font-family="Helvetica,sans-Serif" font-size="10.00">_ptr&lt; mkr::texture_2d &gt; &gt;</text>
<polyline fill="none" stroke="#bfbfbf" points="199,-425.5 346,-425.5 "/>
<text text-anchor="middle" x="272.5" y="-413.5" font-family="Helvetica,sans-Serif" font-size="10.00"> </text>
<polyline fill="none" stroke="#bfbfbf" points="199,-406.5 346,-406.5 "/>
<text text-anchor="middle" x="272.5" y="-394.5" font-family="Helvetica,sans-Serif" font-size="10.00"> </text>
</a>
</g>
</g>
<!-- Node4&#45;&gt;Node2 -->
<g id="edge3" class="edge">
<title>Node4&#45;&gt;Node2</title>
<path fill="none" stroke="#404040" d="M272.85,-387.23C272.96,-376.94 273.08,-364.95 273.21,-352.26"/>
<polygon fill="none" stroke="#404040" points="273.22,-351.9 269.28,-345.86 273.34,-339.91 277.28,-345.95 273.22,-351.9"/>
<text text-anchor="middle" x="330.5" y="-361" font-family="Helvetica,sans-Serif" font-size="10.00"> #colour_attachments_</text>
</g>
<!-- Node5 -->
<g id="node5" class="node">
<title>Node5</title>
<g id="a_node5"><a xlink:title=" ">
<polygon fill="white" stroke="#bfbfbf" points="385.5,-393 385.5,-450 433.5,-450 433.5,-393 385.5,-393"/>
<text text-anchor="middle" x="409.5" y="-438" font-family="Helvetica,sans-Serif" font-size="10.00">GLuint</text>
<polyline fill="none" stroke="#bfbfbf" points="385.5,-431 433.5,-431 "/>
<text text-anchor="middle" x="409.5" y="-419" font-family="Helvetica,sans-Serif" font-size="10.00"> </text>
<polyline fill="none" stroke="#bfbfbf" points="385.5,-412 433.5,-412 "/>
<text text-anchor="middle" x="409.5" y="-400" font-family="Helvetica,sans-Serif" font-size="10.00"> </text>
</a>
</g>
</g>
<!-- Node5&#45;&gt;Node2 -->
<g id="edge4" class="edge">
<title>Node5&#45;&gt;Node2</title>
<path fill="none" stroke="#404040" d="M402.24,-392.73C398.68,-381.52 393.78,-368.72 387.5,-358 383.16,-350.6 378.37,-343.23 373.27,-335.99"/>
<polygon fill="none" stroke="#404040" points="373.21,-335.9 366.44,-333.39 366.15,-326.19 372.92,-328.69 373.21,-335.9"/>
<text text-anchor="middle" x="417.5" y="-361" font-family="Helvetica,sans-Serif" font-size="10.00"> #handle_</text>
</g>
</g>
</svg>
        <g id="navigator" transform="translate(0 0)" fill="#404254">
                <rect fill="#f2f5e9" fill-opacity="0.5" stroke="#606060" stroke-width=".5" x="0" y="0" width="60" height="60"/>
                <use id="zoomplus" xlink:href="#zoomPlus" x="17" y="9" onmousedown="handleZoom(evt,'in')"/>
                <use id="zoomminus" xlink:href="#zoomMin" x="42" y="9" onmousedown="handleZoom(evt,'out')"/>
                <use id="reset" xlink:href="#resetDef" x="30" y="36" onmousedown="handleReset()"/>
                <g id="arrowUp" xlink:href="#dirArrow" transform="translate(30 24)" onmousedown="handlePan(0,-1)">
                  <use xlink:href="#rim" fill="#404040">
                        <set attributeName="fill" to="#808080" begin="arrowUp.mouseover" end="arrowUp.mouseout"/>
                  </use>
                  <path fill="none" stroke="white" stroke-width="1.5" d="M0,-3.0v7 M-2.5,-0.5L0,-3.0L2.5,-0.5"/>
                </g>
                <g id="arrowRight" xlink:href="#dirArrow" transform="rotate(90) translate(36 -43)" onmousedown="handlePan(1,0)">
                  <use xlink:href="#rim" fill="#404040">
                        <set attributeName="fill" to="#808080" begin="arrowRight.mouseover" end="arrowRight.mouseout"/>
                  </use>
                  <path fill="none" stroke="white" stroke-width="1.5" d="M0,-3.0v7 M-2.5,-0.5L0,-3.0L2.5,-0.5"/>
                </g>
                <g id="arrowDown" xlink:href="#dirArrow" transform="rotate(180) translate(-30 -48)" onmousedown="handlePan(0,1)">
                  <use xlink:href="#rim" fill="#404040">
                        <set attributeName="fill" to="#808080" begin="arrowDown.mouseover" end="arrowDown.mouseout"/>
                  </use>
                  <path fill="none" stroke="white" stroke-width="1.5" d="M0,-3.0v7 M-2.5,-0.5L0,-3.0L2.5,-0.5"/>
                </g>
                <g id="arrowLeft" xlink:href="#dirArrow" transform="rotate(270) translate(-36 17)" onmousedown="handlePan(-1,0)">
                  <use xlink:href="#rim" fill="#404040">
                        <set attributeName="fill" to="#808080" begin="arrowLeft.mouseover" end="arrowLeft.mouseout"/>
                  </use>
                  <path fill="none" stroke="white" stroke-width="1.5" d="M0,-3.0v7 M-2.5,-0.5L0,-3.0L2.5,-0.5"/>
                </g>
        </g>
        <svg viewBox="0 0 15 15" width="100%" height="30px" preserveAspectRatio="xMaxYMin meet">
         <g id="arrow_out" transform="scale(0.3 0.3)">
          <a xlink:href="classmkr_1_1pbuffer__coll__graph_org.svg" target="_base">
           <rect id="button" ry="5" rx="5" y="6" x="6" height="38" width="38"
                fill="#f2f5e9" fill-opacity="0.5" stroke="#606060" stroke-width="1.0"/>
           <path id="arrow"
             d="M 11.500037,31.436501 C 11.940474,20.09759 22.043105,11.32322 32.158766,21.979434 L 37.068811,17.246167 C 37.068811,17.246167 37.088388,32 37.088388,32 L 22.160133,31.978069 C 22.160133,31.978069 26.997745,27.140456 26.997745,27.140456 C 18.528582,18.264221 13.291696,25.230495 11.500037,31.436501 z"
             style="fill:#404040;"/>
          </a>
         </g>
        </svg>
</svg>
