<?xml version="1.0" encoding="UTF-8" standalone="no"?>
<!DOCTYPE svg PUBLIC "-//W3C//DTD SVG 1.1//EN"
 "http://www.w3.org/Graphics/SVG/1.1/DTD/svg11.dtd">
<!-- Generated by graphviz version 2.43.0 (0)
 -->
<!-- Title: mkr::texture_manager Pages: 1 -->
<svg width="139pt" height="237pt"
 viewBox="0.00 0.00 139.00 237.00" xmlns="http://www.w3.org/2000/svg" xmlns:xlink="http://www.w3.org/1999/xlink">
<g id="graph0" class="graph" transform="scale(1 1) rotate(0) translate(4 233)">
<title>mkr::texture_manager</title>
<polygon fill="white" stroke="transparent" points="-4,4 -4,-233 135,-233 135,4 -4,4"/>
<!-- Node1 -->
<g id="node1" class="node">
<title>Node1</title>
<g id="a_node1"><a xlink:title=" ">
<polygon fill="#bfbfbf" stroke="black" points="0,-0.5 0,-123.5 131,-123.5 131,-0.5 0,-0.5"/>
<text text-anchor="middle" x="65.5" y="-111.5" font-family="Helvetica,sans-Serif" font-size="10.00">mkr::texture_manager</text>
<polyline fill="none" stroke="black" points="0,-104.5 131,-104.5 "/>
<text text-anchor="start" x="8" y="-92.5" font-family="Helvetica,sans-Serif" font-size="10.00">&#45; texture_2ds_</text>
<text text-anchor="start" x="8" y="-81.5" font-family="Helvetica,sans-Serif" font-size="10.00">&#45; texture_cubes_</text>
<polyline fill="none" stroke="black" points="0,-74.5 131,-74.5 "/>
<text text-anchor="start" x="8" y="-62.5" font-family="Helvetica,sans-Serif" font-size="10.00">+ get_texture_2d()</text>
<text text-anchor="start" x="8" y="-51.5" font-family="Helvetica,sans-Serif" font-size="10.00">+ make_texture_2d()</text>
<text text-anchor="start" x="8" y="-40.5" font-family="Helvetica,sans-Serif" font-size="10.00">+ get_texture_cube()</text>
<text text-anchor="start" x="8" y="-29.5" font-family="Helvetica,sans-Serif" font-size="10.00">+ make_texture_cube()</text>
<text text-anchor="start" x="8" y="-18.5" font-family="Helvetica,sans-Serif" font-size="10.00">&#45; texture_manager()</text>
<text text-anchor="start" x="8" y="-7.5" font-family="Helvetica,sans-Serif" font-size="10.00">&#45; ~texture_manager()</text>
</a>
</g>
</g>
<!-- Node2 -->
<g id="node2" class="node">
<title>Node2</title>
<g id="a_node2"><a xlink:href="classsingleton.html" target="_top" xlink:title=" ">
<polygon fill="white" stroke="black" points="11.5,-160.5 11.5,-228.5 119.5,-228.5 119.5,-160.5 11.5,-160.5"/>
<text text-anchor="start" x="19.5" y="-216.5" font-family="Helvetica,sans-Serif" font-size="10.00">singleton&lt; texture</text>
<text text-anchor="middle" x="65.5" y="-205.5" font-family="Helvetica,sans-Serif" font-size="10.00">_manager &gt;</text>
<polyline fill="none" stroke="black" points="11.5,-198.5 119.5,-198.5 "/>
<text text-anchor="middle" x="65.5" y="-186.5" font-family="Helvetica,sans-Serif" font-size="10.00"> </text>
<polyline fill="none" stroke="black" points="11.5,-179.5 119.5,-179.5 "/>
<text text-anchor="middle" x="65.5" y="-167.5" font-family="Helvetica,sans-Serif" font-size="10.00"> </text>
</a>
</g>
</g>
<!-- Node2&#45;&gt;Node1 -->
<g id="edge1" class="edge">
<title>Node2&#45;&gt;Node1</title>
<path fill="none" stroke="midnightblue" d="M65.5,-150.17C65.5,-141.65 65.5,-132.57 65.5,-123.61"/>
<polygon fill="none" stroke="midnightblue" points="62,-150.23 65.5,-160.23 69,-150.23 62,-150.23"/>
</g>
</g>
</svg>
