<?xml version="1.0" encoding="UTF-8" standalone="no"?>
<!DOCTYPE svg PUBLIC "-//W3C//DTD SVG 1.1//EN"
 "http://www.w3.org/Graphics/SVG/1.1/DTD/svg11.dtd">
<!-- Generated by graphviz version 2.43.0 (0)
 -->
<!-- Title: mkr::texture_manager Pages: 1 -->
<svg width="458pt" height="248pt"
 viewBox="0.00 0.00 457.50 248.00" xmlns="http://www.w3.org/2000/svg" xmlns:xlink="http://www.w3.org/1999/xlink">
<g id="graph0" class="graph" transform="scale(1 1) rotate(0) translate(4 244)">
<title>mkr::texture_manager</title>
<polygon fill="white" stroke="transparent" points="-4,4 -4,-244 453.5,-244 453.5,4 -4,4"/>
<!-- Node1 -->
<g id="node1" class="node">
<title>Node1</title>
<g id="a_node1"><a xlink:title=" ">
<polygon fill="#bfbfbf" stroke="black" points="139.5,-0.5 139.5,-112.5 270.5,-112.5 270.5,-0.5 139.5,-0.5"/>
<text text-anchor="middle" x="205" y="-100.5" font-family="Helvetica,sans-Serif" font-size="10.00">mkr::texture_manager</text>
<polyline fill="none" stroke="black" points="139.5,-93.5 270.5,-93.5 "/>
<text text-anchor="middle" x="205" y="-81.5" font-family="Helvetica,sans-Serif" font-size="10.00"> </text>
<polyline fill="none" stroke="black" points="139.5,-74.5 270.5,-74.5 "/>
<text text-anchor="start" x="147.5" y="-62.5" font-family="Helvetica,sans-Serif" font-size="10.00">+ get_texture_2d()</text>
<text text-anchor="start" x="147.5" y="-51.5" font-family="Helvetica,sans-Serif" font-size="10.00">+ make_texture_2d()</text>
<text text-anchor="start" x="147.5" y="-40.5" font-family="Helvetica,sans-Serif" font-size="10.00">+ get_texture_cube()</text>
<text text-anchor="start" x="147.5" y="-29.5" font-family="Helvetica,sans-Serif" font-size="10.00">+ make_texture_cube()</text>
<text text-anchor="start" x="147.5" y="-18.5" font-family="Helvetica,sans-Serif" font-size="10.00">&#45; texture_manager()</text>
<text text-anchor="start" x="147.5" y="-7.5" font-family="Helvetica,sans-Serif" font-size="10.00">&#45; ~texture_manager()</text>
</a>
</g>
</g>
<!-- Node2 -->
<g id="node2" class="node">
<title>Node2</title>
<g id="a_node2"><a xlink:href="classsingleton.html" target="_top" xlink:title=" ">
<polygon fill="white" stroke="black" points="0,-166 0,-234 108,-234 108,-166 0,-166"/>
<text text-anchor="start" x="8" y="-222" font-family="Helvetica,sans-Serif" font-size="10.00">singleton&lt; texture</text>
<text text-anchor="middle" x="54" y="-211" font-family="Helvetica,sans-Serif" font-size="10.00">_manager &gt;</text>
<polyline fill="none" stroke="black" points="0,-204 108,-204 "/>
<text text-anchor="middle" x="54" y="-192" font-family="Helvetica,sans-Serif" font-size="10.00"> </text>
<polyline fill="none" stroke="black" points="0,-185 108,-185 "/>
<text text-anchor="middle" x="54" y="-173" font-family="Helvetica,sans-Serif" font-size="10.00"> </text>
</a>
</g>
</g>
<!-- Node2&#45;&gt;Node1 -->
<g id="edge1" class="edge">
<title>Node2&#45;&gt;Node1</title>
<path fill="none" stroke="midnightblue" d="M96.75,-158.94C112.1,-144.55 129.7,-128.06 146.19,-112.61"/>
<polygon fill="none" stroke="midnightblue" points="94.31,-156.43 89.4,-165.82 99.09,-161.54 94.31,-156.43"/>
</g>
<!-- Node3 -->
<g id="node3" class="node">
<title>Node3</title>
<g id="a_node3"><a xlink:title=" ">
<polygon fill="white" stroke="#bfbfbf" points="126,-160.5 126,-239.5 284,-239.5 284,-160.5 126,-160.5"/>
<text text-anchor="start" x="134" y="-227.5" font-family="Helvetica,sans-Serif" font-size="10.00">unordered_map&lt; std</text>
<text text-anchor="start" x="134" y="-216.5" font-family="Helvetica,sans-Serif" font-size="10.00">::string, std::unique</text>
<text text-anchor="middle" x="205" y="-205.5" font-family="Helvetica,sans-Serif" font-size="10.00">_ptr&lt; mkr::texture_cube &gt; &gt;</text>
<polyline fill="none" stroke="#bfbfbf" points="126,-198.5 284,-198.5 "/>
<text text-anchor="middle" x="205" y="-186.5" font-family="Helvetica,sans-Serif" font-size="10.00"> </text>
<polyline fill="none" stroke="#bfbfbf" points="126,-179.5 284,-179.5 "/>
<text text-anchor="middle" x="205" y="-167.5" font-family="Helvetica,sans-Serif" font-size="10.00"> </text>
</a>
</g>
</g>
<!-- Node3&#45;&gt;Node1 -->
<g id="edge2" class="edge">
<title>Node3&#45;&gt;Node1</title>
<path fill="none" stroke="#404040" d="M205,-160.33C205,-149.29 205,-136.92 205,-124.69"/>
<polygon fill="none" stroke="#404040" points="205,-124.56 201,-118.56 205,-112.56 209,-118.56 205,-124.56"/>
<text text-anchor="middle" x="246" y="-134" font-family="Helvetica,sans-Serif" font-size="10.00"> &#45;texture_cubes_</text>
</g>
<!-- Node4 -->
<g id="node4" class="node">
<title>Node4</title>
<g id="a_node4"><a xlink:title=" ">
<polygon fill="white" stroke="#bfbfbf" points="302.5,-160.5 302.5,-239.5 449.5,-239.5 449.5,-160.5 302.5,-160.5"/>
<text text-anchor="start" x="310.5" y="-227.5" font-family="Helvetica,sans-Serif" font-size="10.00">unordered_map&lt; std</text>
<text text-anchor="start" x="310.5" y="-216.5" font-family="Helvetica,sans-Serif" font-size="10.00">::string, std::unique</text>
<text text-anchor="middle" x="376" y="-205.5" font-family="Helvetica,sans-Serif" font-size="10.00">_ptr&lt; mkr::texture_2d &gt; &gt;</text>
<polyline fill="none" stroke="#bfbfbf" points="302.5,-198.5 449.5,-198.5 "/>
<text text-anchor="middle" x="376" y="-186.5" font-family="Helvetica,sans-Serif" font-size="10.00"> </text>
<polyline fill="none" stroke="#bfbfbf" points="302.5,-179.5 449.5,-179.5 "/>
<text text-anchor="middle" x="376" y="-167.5" font-family="Helvetica,sans-Serif" font-size="10.00"> </text>
</a>
</g>
</g>
<!-- Node4&#45;&gt;Node1 -->
<g id="edge3" class="edge">
<title>Node4&#45;&gt;Node1</title>
<path fill="none" stroke="#404040" d="M329.27,-160.33C314,-147.7 296.64,-133.33 279.84,-119.43"/>
<polygon fill="none" stroke="#404040" points="279.82,-119.42 272.65,-118.67 270.58,-111.77 277.75,-112.51 279.82,-119.42"/>
<text text-anchor="middle" x="340" y="-134" font-family="Helvetica,sans-Serif" font-size="10.00"> &#45;texture_2ds_</text>
</g>
</g>
</svg>
