<?xml version="1.0" encoding="UTF-8" standalone="no"?>
<!DOCTYPE svg PUBLIC "-//W3C//DTD SVG 1.1//EN"
 "http://www.w3.org/Graphics/SVG/1.1/DTD/svg11.dtd">
<!-- Generated by graphviz version 2.43.0 (0)
 -->
<!-- Title: mkr::graphics_renderer Pages: 1 -->
<!--zoomable 391 -->
<svg id="main" version="1.1" xmlns="http://www.w3.org/2000/svg" xmlns:xlink="http://www.w3.org/1999/xlink" xml:space="preserve" onload="init(evt)">
<style type="text/css"><![CDATA[
.edge:hover path { stroke: red; }
.edge:hover polygon { stroke: red; fill: red; }
]]></style>
<script type="text/javascript"><![CDATA[
var edges = document.getElementsByTagName('g');
if (edges && edges.length) {
  for (var i=0;i<edges.length;i++) {
    if (edges[i].id.substr(0,4)=='edge') {
      edges[i].setAttribute('class','edge');
    }
  }
}
]]></script>
        <defs>
                <circle id="rim" cx="0" cy="0" r="7"/>
                <circle id="rim2" cx="0" cy="0" r="3.5"/>
                <g id="zoomPlus">
                        <use xlink:href="#rim" fill="#404040">
                                <set attributeName="fill" to="#808080" begin="zoomplus.mouseover" end="zoomplus.mouseout"/>
                        </use>
                        <path d="M-4,0h8M0,-4v8" fill="none" stroke="white" stroke-width="1.5" pointer-events="none"/>
                </g>
                <g id="zoomMin">
                        <use xlink:href="#rim" fill="#404040">
                                <set attributeName="fill" to="#808080" begin="zoomminus.mouseover" end="zoomminus.mouseout"/>
                        </use>
                        <path d="M-4,0h8" fill="none" stroke="white" stroke-width="1.5" pointer-events="none"/>
                </g>
                <g id="dirArrow">
                        <path fill="none" stroke="white" stroke-width="1.5" d="M0,-3.0v7 M-2.5,-0.5L0,-3.0L2.5,-0.5"/>
                </g>
               <g id="resetDef">
                       <use xlink:href="#rim2" fill="#404040">
                               <set attributeName="fill" to="#808080" begin="reset.mouseover" end="reset.mouseout"/>
                       </use>
               </g>
        </defs>

<script type="text/javascript">
var viewWidth = 1754;
var viewHeight = 391;
var sectionId = 'dynsection-1';
</script>
<script xlink:href="svgpan.js"/>
<svg id="graph" class="graph">
<g id="viewport">
<title>mkr::graphics_renderer</title>
<polygon fill="white" stroke="transparent" points="-4,4 -4,-387 1749.5,-387 1749.5,4 -4,4"/>
<!-- Node1 -->
<g id="node1" class="node">
<title>Node1</title>
<g id="a_node1"><a xlink:title=" ">
<polygon fill="#bfbfbf" stroke="black" points="806,-0.5 806,-200.5 936,-200.5 936,-0.5 806,-0.5"/>
<text text-anchor="middle" x="871" y="-188.5" font-family="Helvetica,sans-Serif" font-size="10.00">mkr::graphics_renderer</text>
<polyline fill="none" stroke="black" points="806,-181.5 936,-181.5 "/>
<text text-anchor="middle" x="871" y="-169.5" font-family="Helvetica,sans-Serif" font-size="10.00"> </text>
<polyline fill="none" stroke="black" points="806,-162.5 936,-162.5 "/>
<text text-anchor="start" x="814" y="-150.5" font-family="Helvetica,sans-Serif" font-size="10.00">+ init()</text>
<text text-anchor="start" x="814" y="-139.5" font-family="Helvetica,sans-Serif" font-size="10.00">+ start()</text>
<text text-anchor="start" x="814" y="-128.5" font-family="Helvetica,sans-Serif" font-size="10.00">+ update()</text>
<text text-anchor="start" x="814" y="-117.5" font-family="Helvetica,sans-Serif" font-size="10.00">+ exit()</text>
<text text-anchor="start" x="814" y="-106.5" font-family="Helvetica,sans-Serif" font-size="10.00">+ submit_camera()</text>
<text text-anchor="start" x="814" y="-95.5" font-family="Helvetica,sans-Serif" font-size="10.00">+ submit_light()</text>
<text text-anchor="start" x="814" y="-84.5" font-family="Helvetica,sans-Serif" font-size="10.00">+ submit_mesh()</text>
<text text-anchor="start" x="814" y="-73.5" font-family="Helvetica,sans-Serif" font-size="10.00">&#45; graphics_renderer()</text>
<text text-anchor="start" x="814" y="-62.5" font-family="Helvetica,sans-Serif" font-size="10.00">&#45; ~graphics_renderer()</text>
<text text-anchor="start" x="814" y="-51.5" font-family="Helvetica,sans-Serif" font-size="10.00">&#45; render()</text>
<text text-anchor="start" x="814" y="-40.5" font-family="Helvetica,sans-Serif" font-size="10.00">&#45; geometry_pass()</text>
<text text-anchor="start" x="814" y="-29.5" font-family="Helvetica,sans-Serif" font-size="10.00">&#45; light_pass()</text>
<text text-anchor="start" x="814" y="-18.5" font-family="Helvetica,sans-Serif" font-size="10.00">&#45; forward_pass()</text>
<text text-anchor="start" x="814" y="-7.5" font-family="Helvetica,sans-Serif" font-size="10.00">&#45; post_proc_pass()</text>
</a>
</g>
</g>
<!-- Node2 -->
<g id="node2" class="node">
<title>Node2</title>
<g id="a_node2"><a xlink:href="classsingleton.html" target="_top" xlink:title=" ">
<polygon fill="white" stroke="black" points="0,-303.5 0,-371.5 114,-371.5 114,-303.5 0,-303.5"/>
<text text-anchor="start" x="8" y="-359.5" font-family="Helvetica,sans-Serif" font-size="10.00">singleton&lt; graphics</text>
<text text-anchor="middle" x="57" y="-348.5" font-family="Helvetica,sans-Serif" font-size="10.00">_renderer &gt;</text>
<polyline fill="none" stroke="black" points="0,-341.5 114,-341.5 "/>
<text text-anchor="middle" x="57" y="-329.5" font-family="Helvetica,sans-Serif" font-size="10.00"> </text>
<polyline fill="none" stroke="black" points="0,-322.5 114,-322.5 "/>
<text text-anchor="middle" x="57" y="-310.5" font-family="Helvetica,sans-Serif" font-size="10.00"> </text>
</a>
</g>
</g>
<!-- Node2&#45;&gt;Node1 -->
<g id="edge1" class="edge">
<title>Node2&#45;&gt;Node1</title>
<path fill="none" stroke="midnightblue" d="M111.85,-297.81C151.9,-271.45 208.49,-238.02 263,-219 454.08,-152.31 692.91,-120.17 805.94,-107.82"/>
<polygon fill="none" stroke="midnightblue" points="109.7,-295.03 103.31,-303.48 113.58,-300.86 109.7,-295.03"/>
</g>
<!-- Node3 -->
<g id="node3" class="node">
<title>Node3</title>
<g id="a_node3"><a xlink:title=" ">
<polygon fill="white" stroke="#bfbfbf" points="132,-298 132,-377 250,-377 250,-298 132,-298"/>
<text text-anchor="start" x="140" y="-365" font-family="Helvetica,sans-Serif" font-size="10.00">priority_queue&lt; mkr</text>
<text text-anchor="start" x="140" y="-354" font-family="Helvetica,sans-Serif" font-size="10.00">::graphics_renderer</text>
<text text-anchor="middle" x="191" y="-343" font-family="Helvetica,sans-Serif" font-size="10.00">::camera_data &gt;</text>
<polyline fill="none" stroke="#bfbfbf" points="132,-336 250,-336 "/>
<text text-anchor="middle" x="191" y="-324" font-family="Helvetica,sans-Serif" font-size="10.00"> </text>
<polyline fill="none" stroke="#bfbfbf" points="132,-317 250,-317 "/>
<text text-anchor="middle" x="191" y="-305" font-family="Helvetica,sans-Serif" font-size="10.00"> </text>
</a>
</g>
</g>
<!-- Node3&#45;&gt;Node1 -->
<g id="edge2" class="edge">
<title>Node3&#45;&gt;Node1</title>
<path fill="none" stroke="#404040" d="M234.63,-297.82C266.07,-271.9 310.6,-238.98 355,-219 501.94,-152.89 689.71,-122.21 793.41,-109.45"/>
<polygon fill="none" stroke="#404040" points="793.72,-109.41 799.2,-104.73 805.63,-107.98 800.15,-112.67 793.72,-109.41"/>
<text text-anchor="middle" x="382.5" y="-244" font-family="Helvetica,sans-Serif" font-size="10.00"> &#45;cameras_</text>
</g>
<!-- Node4 -->
<g id="node4" class="node">
<title>Node4</title>
<g id="a_node4"><a xlink:title=" ">
<polygon fill="white" stroke="#bfbfbf" points="268.5,-303.5 268.5,-371.5 391.5,-371.5 391.5,-303.5 268.5,-303.5"/>
<text text-anchor="start" x="276.5" y="-359.5" font-family="Helvetica,sans-Serif" font-size="10.00">unique_ptr&lt; mkr::app</text>
<text text-anchor="middle" x="330" y="-348.5" font-family="Helvetica,sans-Serif" font-size="10.00">_window &gt;</text>
<polyline fill="none" stroke="#bfbfbf" points="268.5,-341.5 391.5,-341.5 "/>
<text text-anchor="middle" x="330" y="-329.5" font-family="Helvetica,sans-Serif" font-size="10.00"> </text>
<polyline fill="none" stroke="#bfbfbf" points="268.5,-322.5 391.5,-322.5 "/>
<text text-anchor="middle" x="330" y="-310.5" font-family="Helvetica,sans-Serif" font-size="10.00"> </text>
</a>
</g>
</g>
<!-- Node4&#45;&gt;Node1 -->
<g id="edge3" class="edge">
<title>Node4&#45;&gt;Node1</title>
<path fill="none" stroke="#404040" d="M370.46,-303.36C403.62,-277.51 452.64,-242.21 500,-219 596.74,-171.58 716.92,-137.64 793.8,-118.79"/>
<polygon fill="none" stroke="#404040" points="794.09,-118.72 798.98,-113.42 805.75,-115.9 800.86,-121.2 794.09,-118.72"/>
<text text-anchor="middle" x="536.5" y="-244" font-family="Helvetica,sans-Serif" font-size="10.00"> &#45;app_window_</text>
</g>
<!-- Node5 -->
<g id="node5" class="node">
<title>Node5</title>
<g id="a_node5"><a xlink:title=" ">
<polygon fill="white" stroke="#bfbfbf" points="410,-303.5 410,-371.5 562,-371.5 562,-303.5 410,-303.5"/>
<text text-anchor="start" x="418" y="-359.5" font-family="Helvetica,sans-Serif" font-size="10.00">unique_ptr&lt; mkr::geometry</text>
<text text-anchor="middle" x="486" y="-348.5" font-family="Helvetica,sans-Serif" font-size="10.00">_buffer &gt;</text>
<polyline fill="none" stroke="#bfbfbf" points="410,-341.5 562,-341.5 "/>
<text text-anchor="middle" x="486" y="-329.5" font-family="Helvetica,sans-Serif" font-size="10.00"> </text>
<polyline fill="none" stroke="#bfbfbf" points="410,-322.5 562,-322.5 "/>
<text text-anchor="middle" x="486" y="-310.5" font-family="Helvetica,sans-Serif" font-size="10.00"> </text>
</a>
</g>
</g>
<!-- Node5&#45;&gt;Node1 -->
<g id="edge4" class="edge">
<title>Node5&#45;&gt;Node1</title>
<path fill="none" stroke="#404040" d="M531.93,-303.36C566.13,-279.12 614.27,-245.92 658,-219 702.57,-191.57 753.9,-163.16 795.01,-141.15"/>
<polygon fill="none" stroke="#404040" points="795.18,-141.06 798.59,-134.7 805.77,-135.41 802.36,-141.76 795.18,-141.06"/>
<text text-anchor="middle" x="679.5" y="-244" font-family="Helvetica,sans-Serif" font-size="10.00"> &#45;g_buff_</text>
</g>
<!-- Node6 -->
<g id="node6" class="node">
<title>Node6</title>
<g id="a_node6"><a xlink:title=" ">
<polygon fill="white" stroke="#bfbfbf" points="580.5,-303.5 580.5,-371.5 707.5,-371.5 707.5,-303.5 580.5,-303.5"/>
<text text-anchor="start" x="588.5" y="-359.5" font-family="Helvetica,sans-Serif" font-size="10.00">unique_ptr&lt; mkr::light</text>
<text text-anchor="middle" x="644" y="-348.5" font-family="Helvetica,sans-Serif" font-size="10.00">_buffer &gt;</text>
<polyline fill="none" stroke="#bfbfbf" points="580.5,-341.5 707.5,-341.5 "/>
<text text-anchor="middle" x="644" y="-329.5" font-family="Helvetica,sans-Serif" font-size="10.00"> </text>
<polyline fill="none" stroke="#bfbfbf" points="580.5,-322.5 707.5,-322.5 "/>
<text text-anchor="middle" x="644" y="-310.5" font-family="Helvetica,sans-Serif" font-size="10.00"> </text>
</a>
</g>
</g>
<!-- Node6&#45;&gt;Node1 -->
<g id="edge5" class="edge">
<title>Node6&#45;&gt;Node1</title>
<path fill="none" stroke="#404040" d="M676.04,-303.33C707.48,-270.78 756.55,-219.98 797.6,-177.49"/>
<polygon fill="none" stroke="#404040" points="797.62,-177.47 798.91,-170.37 805.96,-168.84 804.67,-175.93 797.62,-177.47"/>
<text text-anchor="middle" x="778" y="-244" font-family="Helvetica,sans-Serif" font-size="10.00"> &#45;l_buff_</text>
</g>
<!-- Node7 -->
<g id="node7" class="node">
<title>Node7</title>
<g id="a_node7"><a xlink:title=" ">
<polygon fill="white" stroke="#bfbfbf" points="726,-303.5 726,-371.5 866,-371.5 866,-303.5 726,-303.5"/>
<text text-anchor="start" x="734" y="-359.5" font-family="Helvetica,sans-Serif" font-size="10.00">unique_ptr&lt; mkr::default</text>
<text text-anchor="middle" x="796" y="-348.5" font-family="Helvetica,sans-Serif" font-size="10.00">_buffer &gt;</text>
<polyline fill="none" stroke="#bfbfbf" points="726,-341.5 866,-341.5 "/>
<text text-anchor="middle" x="796" y="-329.5" font-family="Helvetica,sans-Serif" font-size="10.00"> </text>
<polyline fill="none" stroke="#bfbfbf" points="726,-322.5 866,-322.5 "/>
<text text-anchor="middle" x="796" y="-310.5" font-family="Helvetica,sans-Serif" font-size="10.00"> </text>
</a>
</g>
</g>
<!-- Node7&#45;&gt;Node1 -->
<g id="edge6" class="edge">
<title>Node7&#45;&gt;Node1</title>
<path fill="none" stroke="#404040" d="M806.59,-303.33C814.24,-279.34 825.07,-245.43 835.66,-212.24"/>
<polygon fill="none" stroke="#404040" points="835.74,-211.98 833.75,-205.05 839.39,-200.55 841.37,-207.48 835.74,-211.98"/>
<text text-anchor="middle" x="854.5" y="-244" font-family="Helvetica,sans-Serif" font-size="10.00"> &#45;d_buff_</text>
</g>
<!-- Node8 -->
<g id="node8" class="node">
<title>Node8</title>
<g id="a_node8"><a xlink:title=" ">
<polygon fill="white" stroke="#bfbfbf" points="884,-303.5 884,-371.5 1010,-371.5 1010,-303.5 884,-303.5"/>
<text text-anchor="start" x="892" y="-359.5" font-family="Helvetica,sans-Serif" font-size="10.00">unique_ptr&lt; mkr::post</text>
<text text-anchor="middle" x="947" y="-348.5" font-family="Helvetica,sans-Serif" font-size="10.00">_proc_buffer &gt;</text>
<polyline fill="none" stroke="#bfbfbf" points="884,-341.5 1010,-341.5 "/>
<text text-anchor="middle" x="947" y="-329.5" font-family="Helvetica,sans-Serif" font-size="10.00"> </text>
<polyline fill="none" stroke="#bfbfbf" points="884,-322.5 1010,-322.5 "/>
<text text-anchor="middle" x="947" y="-310.5" font-family="Helvetica,sans-Serif" font-size="10.00"> </text>
</a>
</g>
</g>
<!-- Node8&#45;&gt;Node1 -->
<g id="edge7" class="edge">
<title>Node8&#45;&gt;Node1</title>
<path fill="none" stroke="#404040" d="M936.27,-303.33C928.51,-279.34 917.55,-245.43 906.81,-212.24"/>
<polygon fill="none" stroke="#404040" points="906.73,-211.97 901.07,-207.49 903.03,-200.55 908.69,-205.03 906.73,-211.97"/>
<text text-anchor="middle" x="950.5" y="-244" font-family="Helvetica,sans-Serif" font-size="10.00"> &#45;pp_buff_</text>
</g>
<!-- Node9 -->
<g id="node9" class="node">
<title>Node9</title>
<g id="a_node9"><a xlink:title=" ">
<polygon fill="white" stroke="#bfbfbf" points="1028.5,-309 1028.5,-366 1171.5,-366 1171.5,-309 1028.5,-309"/>
<text text-anchor="middle" x="1100" y="-354" font-family="Helvetica,sans-Serif" font-size="10.00">unique_ptr&lt; mkr::mesh &gt;</text>
<polyline fill="none" stroke="#bfbfbf" points="1028.5,-347 1171.5,-347 "/>
<text text-anchor="middle" x="1100" y="-335" font-family="Helvetica,sans-Serif" font-size="10.00"> </text>
<polyline fill="none" stroke="#bfbfbf" points="1028.5,-328 1171.5,-328 "/>
<text text-anchor="middle" x="1100" y="-316" font-family="Helvetica,sans-Serif" font-size="10.00"> </text>
</a>
</g>
</g>
<!-- Node9&#45;&gt;Node1 -->
<g id="edge8" class="edge">
<title>Node9&#45;&gt;Node1</title>
<path fill="none" stroke="#404040" d="M1072.83,-308.62C1041.51,-276.48 988.72,-222.31 944.99,-177.42"/>
<polygon fill="none" stroke="#404040" points="944.74,-177.18 937.69,-175.67 936.37,-168.58 943.42,-170.09 944.74,-177.18"/>
<text text-anchor="middle" x="1076" y="-249.5" font-family="Helvetica,sans-Serif" font-size="10.00"> &#45;screen_quad_</text>
<text text-anchor="middle" x="1076" y="-238.5" font-family="Helvetica,sans-Serif" font-size="10.00">&#45;skybox_mesh_</text>
</g>
<!-- Node10 -->
<g id="node10" class="node">
<title>Node10</title>
<g id="a_node10"><a xlink:title=" ">
<polygon fill="white" stroke="#bfbfbf" points="1189.5,-292.5 1189.5,-382.5 1362.5,-382.5 1362.5,-292.5 1189.5,-292.5"/>
<text text-anchor="start" x="1197.5" y="-370.5" font-family="Helvetica,sans-Serif" font-size="10.00">unordered_map&lt; mkr</text>
<text text-anchor="start" x="1197.5" y="-359.5" font-family="Helvetica,sans-Serif" font-size="10.00">::material *, std::unordered</text>
<text text-anchor="start" x="1197.5" y="-348.5" font-family="Helvetica,sans-Serif" font-size="10.00">_map&lt; mkr::mesh *, std::vector</text>
<text text-anchor="middle" x="1276" y="-337.5" font-family="Helvetica,sans-Serif" font-size="10.00">&lt; matrix4x4 &gt; &gt; &gt;</text>
<polyline fill="none" stroke="#bfbfbf" points="1189.5,-330.5 1362.5,-330.5 "/>
<text text-anchor="middle" x="1276" y="-318.5" font-family="Helvetica,sans-Serif" font-size="10.00"> </text>
<polyline fill="none" stroke="#bfbfbf" points="1189.5,-311.5 1362.5,-311.5 "/>
<text text-anchor="middle" x="1276" y="-299.5" font-family="Helvetica,sans-Serif" font-size="10.00"> </text>
</a>
</g>
</g>
<!-- Node10&#45;&gt;Node1 -->
<g id="edge9" class="edge">
<title>Node10&#45;&gt;Node1</title>
<path fill="none" stroke="#404040" d="M1222.27,-292.43C1192.52,-269.11 1154.32,-240.86 1118,-219 1062.96,-185.88 997.12,-154.95 947.27,-133.15"/>
<polygon fill="none" stroke="#404040" points="947.25,-133.14 940.15,-134.42 936.24,-128.36 943.34,-127.08 947.25,-133.14"/>
<text text-anchor="middle" x="1260.5" y="-266" font-family="Helvetica,sans-Serif" font-size="10.00"> &#45;deferred_meshes_</text>
<text text-anchor="start" x="1197" y="-255" font-family="Helvetica,sans-Serif" font-size="10.00">&#45;forward_opaque_meshes</text>
<text text-anchor="middle" x="1260.5" y="-244" font-family="Helvetica,sans-Serif" font-size="10.00">_</text>
<text text-anchor="start" x="1197" y="-233" font-family="Helvetica,sans-Serif" font-size="10.00">&#45;forward_transparent</text>
<text text-anchor="middle" x="1260.5" y="-222" font-family="Helvetica,sans-Serif" font-size="10.00">_meshes_</text>
</g>
<!-- Node11 -->
<g id="node11" class="node">
<title>Node11</title>
<g id="a_node11"><a xlink:title=" ">
<polygon fill="white" stroke="#bfbfbf" points="1381,-309 1381,-366 1437,-366 1437,-309 1381,-309"/>
<text text-anchor="middle" x="1409" y="-354" font-family="Helvetica,sans-Serif" font-size="10.00">uint32_t</text>
<polyline fill="none" stroke="#bfbfbf" points="1381,-347 1437,-347 "/>
<text text-anchor="middle" x="1409" y="-335" font-family="Helvetica,sans-Serif" font-size="10.00"> </text>
<polyline fill="none" stroke="#bfbfbf" points="1381,-328 1437,-328 "/>
<text text-anchor="middle" x="1409" y="-316" font-family="Helvetica,sans-Serif" font-size="10.00"> </text>
</a>
</g>
</g>
<!-- Node11&#45;&gt;Node1 -->
<g id="edge10" class="edge">
<title>Node11&#45;&gt;Node1</title>
<path fill="none" stroke="#404040" d="M1397.08,-308.9C1384.02,-281.92 1360.51,-241.69 1328,-219 1212.21,-138.17 1045.15,-112.92 948.37,-105.05"/>
<polygon fill="none" stroke="#404040" points="948.31,-105.04 942.02,-108.57 936.34,-104.13 942.63,-100.6 948.31,-105.04"/>
<text text-anchor="middle" x="1419" y="-249.5" font-family="Helvetica,sans-Serif" font-size="10.00"> &#45;window_height_</text>
<text text-anchor="middle" x="1419" y="-238.5" font-family="Helvetica,sans-Serif" font-size="10.00">&#45;window_width_</text>
</g>
<!-- Node12 -->
<g id="node12" class="node">
<title>Node12</title>
<g id="a_node12"><a xlink:title=" ">
<polygon fill="white" stroke="#bfbfbf" points="1455.5,-303.5 1455.5,-371.5 1584.5,-371.5 1584.5,-303.5 1455.5,-303.5"/>
<text text-anchor="start" x="1463.5" y="-359.5" font-family="Helvetica,sans-Serif" font-size="10.00">vector&lt; mkr::graphics</text>
<text text-anchor="middle" x="1520" y="-348.5" font-family="Helvetica,sans-Serif" font-size="10.00">_renderer::light_data &gt;</text>
<polyline fill="none" stroke="#bfbfbf" points="1455.5,-341.5 1584.5,-341.5 "/>
<text text-anchor="middle" x="1520" y="-329.5" font-family="Helvetica,sans-Serif" font-size="10.00"> </text>
<polyline fill="none" stroke="#bfbfbf" points="1455.5,-322.5 1584.5,-322.5 "/>
<text text-anchor="middle" x="1520" y="-310.5" font-family="Helvetica,sans-Serif" font-size="10.00"> </text>
</a>
</g>
</g>
<!-- Node12&#45;&gt;Node1 -->
<g id="edge11" class="edge">
<title>Node12&#45;&gt;Node1</title>
<path fill="none" stroke="#404040" d="M1513.5,-303.47C1506.44,-276.6 1492.45,-239.85 1466,-219 1386.45,-156.3 1090.41,-121.48 948.21,-108.04"/>
<polygon fill="none" stroke="#404040" points="948.13,-108.04 941.78,-111.46 936.18,-106.92 942.52,-103.5 948.13,-108.04"/>
<text text-anchor="middle" x="1523" y="-244" font-family="Helvetica,sans-Serif" font-size="10.00"> &#45;lights_</text>
</g>
<!-- Node13 -->
<g id="node13" class="node">
<title>Node13</title>
<g id="a_node13"><a xlink:title=" ">
<polygon fill="white" stroke="#bfbfbf" points="1602.5,-303.5 1602.5,-371.5 1745.5,-371.5 1745.5,-303.5 1602.5,-303.5"/>
<text text-anchor="start" x="1610.5" y="-359.5" font-family="Helvetica,sans-Serif" font-size="10.00">unique_ptr&lt; mkr::forward</text>
<text text-anchor="middle" x="1674" y="-348.5" font-family="Helvetica,sans-Serif" font-size="10.00">_buffer &gt;</text>
<polyline fill="none" stroke="#bfbfbf" points="1602.5,-341.5 1745.5,-341.5 "/>
<text text-anchor="middle" x="1674" y="-329.5" font-family="Helvetica,sans-Serif" font-size="10.00"> </text>
<polyline fill="none" stroke="#bfbfbf" points="1602.5,-322.5 1745.5,-322.5 "/>
<text text-anchor="middle" x="1674" y="-310.5" font-family="Helvetica,sans-Serif" font-size="10.00"> </text>
</a>
</g>
</g>
<!-- Node13&#45;&gt;Node1 -->
<g id="edge12" class="edge">
<title>Node13&#45;&gt;Node1</title>
<path fill="none" stroke="#404040" d="M1647.72,-303.29C1624.29,-276.13 1587.52,-239.04 1547,-219 1347.37,-120.26 1078.75,-103.07 948.4,-100.98"/>
<polygon fill="none" stroke="#404040" points="948.23,-100.98 942.18,-104.9 936.23,-100.83 942.28,-96.9 948.23,-100.98"/>
<text text-anchor="middle" x="1638" y="-244" font-family="Helvetica,sans-Serif" font-size="10.00"> &#45;f_buff_</text>
</g>
</g>
</svg>
        <g id="navigator" transform="translate(0 0)" fill="#404254">
                <rect fill="#f2f5e9" fill-opacity="0.5" stroke="#606060" stroke-width=".5" x="0" y="0" width="60" height="60"/>
                <use id="zoomplus" xlink:href="#zoomPlus" x="17" y="9" onmousedown="handleZoom(evt,'in')"/>
                <use id="zoomminus" xlink:href="#zoomMin" x="42" y="9" onmousedown="handleZoom(evt,'out')"/>
                <use id="reset" xlink:href="#resetDef" x="30" y="36" onmousedown="handleReset()"/>
                <g id="arrowUp" xlink:href="#dirArrow" transform="translate(30 24)" onmousedown="handlePan(0,-1)">
                  <use xlink:href="#rim" fill="#404040">
                        <set attributeName="fill" to="#808080" begin="arrowUp.mouseover" end="arrowUp.mouseout"/>
                  </use>
                  <path fill="none" stroke="white" stroke-width="1.5" d="M0,-3.0v7 M-2.5,-0.5L0,-3.0L2.5,-0.5"/>
                </g>
                <g id="arrowRight" xlink:href="#dirArrow" transform="rotate(90) translate(36 -43)" onmousedown="handlePan(1,0)">
                  <use xlink:href="#rim" fill="#404040">
                        <set attributeName="fill" to="#808080" begin="arrowRight.mouseover" end="arrowRight.mouseout"/>
                  </use>
                  <path fill="none" stroke="white" stroke-width="1.5" d="M0,-3.0v7 M-2.5,-0.5L0,-3.0L2.5,-0.5"/>
                </g>
                <g id="arrowDown" xlink:href="#dirArrow" transform="rotate(180) translate(-30 -48)" onmousedown="handlePan(0,1)">
                  <use xlink:href="#rim" fill="#404040">
                        <set attributeName="fill" to="#808080" begin="arrowDown.mouseover" end="arrowDown.mouseout"/>
                  </use>
                  <path fill="none" stroke="white" stroke-width="1.5" d="M0,-3.0v7 M-2.5,-0.5L0,-3.0L2.5,-0.5"/>
                </g>
                <g id="arrowLeft" xlink:href="#dirArrow" transform="rotate(270) translate(-36 17)" onmousedown="handlePan(-1,0)">
                  <use xlink:href="#rim" fill="#404040">
                        <set attributeName="fill" to="#808080" begin="arrowLeft.mouseover" end="arrowLeft.mouseout"/>
                  </use>
                  <path fill="none" stroke="white" stroke-width="1.5" d="M0,-3.0v7 M-2.5,-0.5L0,-3.0L2.5,-0.5"/>
                </g>
        </g>
        <svg viewBox="0 0 15 15" width="100%" height="30px" preserveAspectRatio="xMaxYMin meet">
         <g id="arrow_out" transform="scale(0.3 0.3)">
          <a xlink:href="classmkr_1_1graphics__renderer__coll__graph_org.svg" target="_base">
           <rect id="button" ry="5" rx="5" y="6" x="6" height="38" width="38"
                fill="#f2f5e9" fill-opacity="0.5" stroke="#606060" stroke-width="1.0"/>
           <path id="arrow"
             d="M 11.500037,31.436501 C 11.940474,20.09759 22.043105,11.32322 32.158766,21.979434 L 37.068811,17.246167 C 37.068811,17.246167 37.088388,32 37.088388,32 L 22.160133,31.978069 C 22.160133,31.978069 26.997745,27.140456 26.997745,27.140456 C 18.528582,18.264221 13.291696,25.230495 11.500037,31.436501 z"
             style="fill:#404040;"/>
          </a>
         </g>
        </svg>
</svg>
