<?xml version="1.0" encoding="UTF-8" standalone="no"?>
<!DOCTYPE svg PUBLIC "-//W3C//DTD SVG 1.1//EN"
 "http://www.w3.org/Graphics/SVG/1.1/DTD/svg11.dtd">
<!-- Generated by graphviz version 2.43.0 (0)
 -->
<!-- Title: singleton Pages: 1 -->
<!--zoomable 534 -->
<svg id="main" version="1.1" xmlns="http://www.w3.org/2000/svg" xmlns:xlink="http://www.w3.org/1999/xlink" xml:space="preserve" onload="init(evt)">
<style type="text/css"><![CDATA[
.edge:hover path { stroke: red; }
.edge:hover polygon { stroke: red; fill: red; }
]]></style>
<script type="text/javascript"><![CDATA[
var edges = document.getElementsByTagName('g');
if (edges && edges.length) {
  for (var i=0;i<edges.length;i++) {
    if (edges[i].id.substr(0,4)=='edge') {
      edges[i].setAttribute('class','edge');
    }
  }
}
]]></script>
        <defs>
                <circle id="rim" cx="0" cy="0" r="7"/>
                <circle id="rim2" cx="0" cy="0" r="3.5"/>
                <g id="zoomPlus">
                        <use xlink:href="#rim" fill="#404040">
                                <set attributeName="fill" to="#808080" begin="zoomplus.mouseover" end="zoomplus.mouseout"/>
                        </use>
                        <path d="M-4,0h8M0,-4v8" fill="none" stroke="white" stroke-width="1.5" pointer-events="none"/>
                </g>
                <g id="zoomMin">
                        <use xlink:href="#rim" fill="#404040">
                                <set attributeName="fill" to="#808080" begin="zoomminus.mouseover" end="zoomminus.mouseout"/>
                        </use>
                        <path d="M-4,0h8" fill="none" stroke="white" stroke-width="1.5" pointer-events="none"/>
                </g>
                <g id="dirArrow">
                        <path fill="none" stroke="white" stroke-width="1.5" d="M0,-3.0v7 M-2.5,-0.5L0,-3.0L2.5,-0.5"/>
                </g>
               <g id="resetDef">
                       <use xlink:href="#rim2" fill="#404040">
                               <set attributeName="fill" to="#808080" begin="reset.mouseover" end="reset.mouseout"/>
                       </use>
               </g>
        </defs>

<script type="text/javascript">
var viewWidth = 1388;
var viewHeight = 534;
var sectionId = 'dynsection-0';
</script>
<script xlink:href="svgpan.js"/>
<svg id="graph" class="graph">
<g id="viewport">
<title>singleton</title>
<polygon fill="white" stroke="transparent" points="-4,4 -4,-530 1383.5,-530 1383.5,4 -4,4"/>
<!-- Node1 -->
<g id="node1" class="node">
<title>Node1</title>
<g id="a_node1"><a xlink:title=" ">
<polygon fill="#bfbfbf" stroke="black" points="703.5,-468.5 703.5,-525.5 765.5,-525.5 765.5,-468.5 703.5,-468.5"/>
<text text-anchor="middle" x="734.5" y="-513.5" font-family="Helvetica,sans-Serif" font-size="10.00">singleton</text>
<polyline fill="none" stroke="black" points="703.5,-506.5 765.5,-506.5 "/>
<text text-anchor="middle" x="734.5" y="-494.5" font-family="Helvetica,sans-Serif" font-size="10.00"> </text>
<polyline fill="none" stroke="black" points="703.5,-487.5 765.5,-487.5 "/>
<text text-anchor="middle" x="734.5" y="-475.5" font-family="Helvetica,sans-Serif" font-size="10.00"> </text>
</a>
</g>
</g>
<!-- Node2 -->
<g id="node2" class="node">
<title>Node2</title>
<g id="a_node2"><a xlink:href="classmkr_1_1application.html" target="_top" xlink:title=" ">
<polygon fill="white" stroke="black" points="0,-121.5 0,-310.5 173,-310.5 173,-121.5 0,-121.5"/>
<text text-anchor="middle" x="86.5" y="-298.5" font-family="Helvetica,sans-Serif" font-size="10.00">mkr::application&lt; application &gt;</text>
<polyline fill="none" stroke="black" points="0,-291.5 173,-291.5 "/>
<text text-anchor="start" x="8" y="-279.5" font-family="Helvetica,sans-Serif" font-size="10.00">&#45; delta_time_</text>
<text text-anchor="start" x="8" y="-268.5" font-family="Helvetica,sans-Serif" font-size="10.00">&#45; time_elapsed_</text>
<text text-anchor="start" x="8" y="-257.5" font-family="Helvetica,sans-Serif" font-size="10.00">&#45; run_</text>
<polyline fill="none" stroke="black" points="0,-250.5 173,-250.5 "/>
<text text-anchor="start" x="8" y="-238.5" font-family="Helvetica,sans-Serif" font-size="10.00">+ delta_time()</text>
<text text-anchor="start" x="8" y="-227.5" font-family="Helvetica,sans-Serif" font-size="10.00">+ time_elapsed()</text>
<text text-anchor="start" x="8" y="-216.5" font-family="Helvetica,sans-Serif" font-size="10.00">+ terminate()</text>
<text text-anchor="start" x="8" y="-205.5" font-family="Helvetica,sans-Serif" font-size="10.00">+ run()</text>
<text text-anchor="start" x="8" y="-194.5" font-family="Helvetica,sans-Serif" font-size="10.00">&#45; application()</text>
<text text-anchor="start" x="8" y="-183.5" font-family="Helvetica,sans-Serif" font-size="10.00">&#45; ~application()</text>
<text text-anchor="start" x="8" y="-172.5" font-family="Helvetica,sans-Serif" font-size="10.00">&#45; init()</text>
<text text-anchor="start" x="8" y="-161.5" font-family="Helvetica,sans-Serif" font-size="10.00">&#45; start()</text>
<text text-anchor="start" x="8" y="-150.5" font-family="Helvetica,sans-Serif" font-size="10.00">&#45; update()</text>
<text text-anchor="start" x="8" y="-139.5" font-family="Helvetica,sans-Serif" font-size="10.00">&#45; stop()</text>
<text text-anchor="start" x="8" y="-128.5" font-family="Helvetica,sans-Serif" font-size="10.00">&#45; exit()</text>
</a>
</g>
</g>
<!-- Node1&#45;&gt;Node2 -->
<g id="edge1" class="edge">
<title>Node1&#45;&gt;Node2</title>
<path fill="none" stroke="midnightblue" d="M693.21,-496.38C579.13,-496.64 262.71,-491.83 181.5,-432 142.24,-403.07 118.93,-354.31 105.24,-310.52"/>
<polygon fill="none" stroke="midnightblue" points="693.3,-499.88 703.29,-496.34 693.28,-492.88 693.3,-499.88"/>
</g>
<!-- Node3 -->
<g id="node3" class="node">
<title>Node3</title>
<g id="a_node3"><a xlink:href="classmkr_1_1graphics__renderer.html" target="_top" xlink:title=" ">
<polygon fill="white" stroke="black" points="191,-0.5 191,-431.5 342,-431.5 342,-0.5 191,-0.5"/>
<text text-anchor="start" x="199" y="-419.5" font-family="Helvetica,sans-Serif" font-size="10.00">mkr::graphics_renderer</text>
<text text-anchor="middle" x="266.5" y="-408.5" font-family="Helvetica,sans-Serif" font-size="10.00">&lt; graphics_renderer &gt;</text>
<polyline fill="none" stroke="black" points="191,-401.5 342,-401.5 "/>
<text text-anchor="start" x="199" y="-389.5" font-family="Helvetica,sans-Serif" font-size="10.00">&#45; app_window_</text>
<text text-anchor="start" x="199" y="-378.5" font-family="Helvetica,sans-Serif" font-size="10.00">&#45; window_width_</text>
<text text-anchor="start" x="199" y="-367.5" font-family="Helvetica,sans-Serif" font-size="10.00">&#45; window_height_</text>
<text text-anchor="start" x="199" y="-356.5" font-family="Helvetica,sans-Serif" font-size="10.00">&#45; g_buff_</text>
<text text-anchor="start" x="199" y="-345.5" font-family="Helvetica,sans-Serif" font-size="10.00">&#45; l_buff_</text>
<text text-anchor="start" x="199" y="-334.5" font-family="Helvetica,sans-Serif" font-size="10.00">&#45; f_buff_</text>
<text text-anchor="start" x="199" y="-323.5" font-family="Helvetica,sans-Serif" font-size="10.00">&#45; s2d_buff_</text>
<text text-anchor="start" x="199" y="-312.5" font-family="Helvetica,sans-Serif" font-size="10.00">&#45; scube_buff_</text>
<text text-anchor="start" x="199" y="-301.5" font-family="Helvetica,sans-Serif" font-size="10.00">&#45; light_view_projection</text>
<text text-anchor="start" x="199" y="-290.5" font-family="Helvetica,sans-Serif" font-size="10.00">_matrix_</text>
<text text-anchor="start" x="199" y="-279.5" font-family="Helvetica,sans-Serif" font-size="10.00">&#45; screen_quad_</text>
<text text-anchor="start" x="199" y="-268.5" font-family="Helvetica,sans-Serif" font-size="10.00">&#45; skybox_cube_</text>
<text text-anchor="start" x="199" y="-257.5" font-family="Helvetica,sans-Serif" font-size="10.00">&#45; cameras_</text>
<text text-anchor="start" x="199" y="-246.5" font-family="Helvetica,sans-Serif" font-size="10.00">&#45; lights_</text>
<text text-anchor="start" x="199" y="-235.5" font-family="Helvetica,sans-Serif" font-size="10.00">&#45; deferred_meshes_</text>
<text text-anchor="start" x="199" y="-224.5" font-family="Helvetica,sans-Serif" font-size="10.00">&#45; forward_opaque_meshes_</text>
<text text-anchor="start" x="199" y="-213.5" font-family="Helvetica,sans-Serif" font-size="10.00">&#45; forward_transparent</text>
<text text-anchor="start" x="199" y="-202.5" font-family="Helvetica,sans-Serif" font-size="10.00">_meshes_</text>
<polyline fill="none" stroke="black" points="191,-195.5 342,-195.5 "/>
<text text-anchor="start" x="199" y="-183.5" font-family="Helvetica,sans-Serif" font-size="10.00">+ init()</text>
<text text-anchor="start" x="199" y="-172.5" font-family="Helvetica,sans-Serif" font-size="10.00">+ start()</text>
<text text-anchor="start" x="199" y="-161.5" font-family="Helvetica,sans-Serif" font-size="10.00">+ update()</text>
<text text-anchor="start" x="199" y="-150.5" font-family="Helvetica,sans-Serif" font-size="10.00">+ exit()</text>
<text text-anchor="start" x="199" y="-139.5" font-family="Helvetica,sans-Serif" font-size="10.00">+ submit_camera()</text>
<text text-anchor="start" x="199" y="-128.5" font-family="Helvetica,sans-Serif" font-size="10.00">+ submit_light()</text>
<text text-anchor="start" x="199" y="-117.5" font-family="Helvetica,sans-Serif" font-size="10.00">+ submit_mesh()</text>
<text text-anchor="start" x="199" y="-106.5" font-family="Helvetica,sans-Serif" font-size="10.00">&#45; graphics_renderer()</text>
<text text-anchor="start" x="199" y="-95.5" font-family="Helvetica,sans-Serif" font-size="10.00">&#45; ~graphics_renderer()</text>
<text text-anchor="start" x="199" y="-84.5" font-family="Helvetica,sans-Serif" font-size="10.00">&#45; render()</text>
<text text-anchor="start" x="199" y="-73.5" font-family="Helvetica,sans-Serif" font-size="10.00">&#45; point_shadow()</text>
<text text-anchor="start" x="199" y="-62.5" font-family="Helvetica,sans-Serif" font-size="10.00">&#45; spot_shadow()</text>
<text text-anchor="start" x="199" y="-51.5" font-family="Helvetica,sans-Serif" font-size="10.00">&#45; directional_shadow()</text>
<text text-anchor="start" x="199" y="-40.5" font-family="Helvetica,sans-Serif" font-size="10.00">&#45; geometry_pass()</text>
<text text-anchor="start" x="199" y="-29.5" font-family="Helvetica,sans-Serif" font-size="10.00">&#45; lighting_pass()</text>
<text text-anchor="start" x="199" y="-18.5" font-family="Helvetica,sans-Serif" font-size="10.00">&#45; forward_pass()</text>
<text text-anchor="start" x="199" y="-7.5" font-family="Helvetica,sans-Serif" font-size="10.00">&#45; skybox_pass()</text>
</a>
</g>
</g>
<!-- Node1&#45;&gt;Node3 -->
<g id="edge2" class="edge">
<title>Node1&#45;&gt;Node3</title>
<path fill="none" stroke="midnightblue" d="M693.2,-494.17C605.12,-489.49 402.63,-474.31 350.5,-432 347.7,-429.73 344.99,-427.35 342.37,-424.87"/>
<polygon fill="none" stroke="midnightblue" points="693.19,-497.68 703.36,-494.69 693.55,-490.69 693.19,-497.68"/>
</g>
<!-- Node4 -->
<g id="node4" class="node">
<title>Node4</title>
<g id="a_node4"><a xlink:href="classmkr_1_1input__manager.html" target="_top" xlink:title=" ">
<polygon fill="white" stroke="black" points="360,-39 360,-393 503,-393 503,-39 360,-39"/>
<text text-anchor="start" x="368" y="-381" font-family="Helvetica,sans-Serif" font-size="10.00">mkr::input_manager</text>
<text text-anchor="middle" x="431.5" y="-370" font-family="Helvetica,sans-Serif" font-size="10.00">&lt; input_manager &gt;</text>
<polyline fill="none" stroke="black" points="360,-363 503,-363 "/>
<text text-anchor="start" x="368" y="-351" font-family="Helvetica,sans-Serif" font-size="10.00">&#45; input_context_</text>
<text text-anchor="start" x="368" y="-340" font-family="Helvetica,sans-Serif" font-size="10.00">&#45; sdl_event_listener</text>
<text text-anchor="start" x="368" y="-329" font-family="Helvetica,sans-Serif" font-size="10.00">&#45; input_event_dispatcher_</text>
<text text-anchor="start" x="368" y="-318" font-family="Helvetica,sans-Serif" font-size="10.00">&#45; button_handler_</text>
<text text-anchor="start" x="368" y="-307" font-family="Helvetica,sans-Serif" font-size="10.00">&#45; axis_handler_</text>
<text text-anchor="start" x="368" y="-296" font-family="Helvetica,sans-Serif" font-size="10.00">&#45; click_handler_</text>
<text text-anchor="start" x="368" y="-285" font-family="Helvetica,sans-Serif" font-size="10.00">&#45; motion_handler_</text>
<polyline fill="none" stroke="black" points="360,-278 503,-278 "/>
<text text-anchor="start" x="368" y="-266" font-family="Helvetica,sans-Serif" font-size="10.00">+ init()</text>
<text text-anchor="start" x="368" y="-255" font-family="Helvetica,sans-Serif" font-size="10.00">+ update()</text>
<text text-anchor="start" x="368" y="-244" font-family="Helvetica,sans-Serif" font-size="10.00">+ exit()</text>
<text text-anchor="start" x="368" y="-233" font-family="Helvetica,sans-Serif" font-size="10.00">+ set_input_context()</text>
<text text-anchor="start" x="368" y="-222" font-family="Helvetica,sans-Serif" font-size="10.00">+ get_input_context()</text>
<text text-anchor="start" x="368" y="-211" font-family="Helvetica,sans-Serif" font-size="10.00">+ get_event_dispatcher()</text>
<text text-anchor="start" x="368" y="-200" font-family="Helvetica,sans-Serif" font-size="10.00">+ get_event_dispatcher()</text>
<text text-anchor="start" x="368" y="-189" font-family="Helvetica,sans-Serif" font-size="10.00">+ set_relative_mouse()</text>
<text text-anchor="start" x="368" y="-178" font-family="Helvetica,sans-Serif" font-size="10.00">+ register_button()</text>
<text text-anchor="start" x="368" y="-167" font-family="Helvetica,sans-Serif" font-size="10.00">+ unregister_button()</text>
<text text-anchor="start" x="368" y="-156" font-family="Helvetica,sans-Serif" font-size="10.00">+ register_axis()</text>
<text text-anchor="start" x="368" y="-145" font-family="Helvetica,sans-Serif" font-size="10.00">+ unregister_axis()</text>
<text text-anchor="start" x="368" y="-134" font-family="Helvetica,sans-Serif" font-size="10.00">+ register_axis()</text>
<text text-anchor="start" x="368" y="-123" font-family="Helvetica,sans-Serif" font-size="10.00">+ unregister_axis()</text>
<text text-anchor="start" x="368" y="-112" font-family="Helvetica,sans-Serif" font-size="10.00">+ register_click()</text>
<text text-anchor="start" x="368" y="-101" font-family="Helvetica,sans-Serif" font-size="10.00">+ unregister_click()</text>
<text text-anchor="start" x="368" y="-90" font-family="Helvetica,sans-Serif" font-size="10.00">+ register_motion()</text>
<text text-anchor="start" x="368" y="-79" font-family="Helvetica,sans-Serif" font-size="10.00">+ unregister_motion()</text>
<text text-anchor="start" x="368" y="-68" font-family="Helvetica,sans-Serif" font-size="10.00">&#45; input_manager()</text>
<text text-anchor="start" x="368" y="-57" font-family="Helvetica,sans-Serif" font-size="10.00">&#45; ~input_manager()</text>
<text text-anchor="start" x="368" y="-46" font-family="Helvetica,sans-Serif" font-size="10.00">&#45; sdl_event_callback()</text>
</a>
</g>
</g>
<!-- Node1&#45;&gt;Node4 -->
<g id="edge3" class="edge">
<title>Node1&#45;&gt;Node4</title>
<path fill="none" stroke="midnightblue" d="M693.15,-494.85C644.08,-491.31 562.61,-478.27 512.5,-432 500.34,-420.77 489.99,-407.53 481.19,-393.23"/>
<polygon fill="none" stroke="midnightblue" points="693.21,-498.36 703.41,-495.48 693.64,-491.37 693.21,-498.36"/>
</g>
<!-- Node5 -->
<g id="node5" class="node">
<title>Node5</title>
<g id="a_node5"><a xlink:href="classmkr_1_1material__manager.html" target="_top" xlink:title=" ">
<polygon fill="white" stroke="black" points="521.5,-165.5 521.5,-266.5 653.5,-266.5 653.5,-165.5 521.5,-165.5"/>
<text text-anchor="start" x="529.5" y="-254.5" font-family="Helvetica,sans-Serif" font-size="10.00">mkr::material_manager</text>
<text text-anchor="middle" x="587.5" y="-243.5" font-family="Helvetica,sans-Serif" font-size="10.00">&lt; material_manager &gt;</text>
<polyline fill="none" stroke="black" points="521.5,-236.5 653.5,-236.5 "/>
<text text-anchor="start" x="529.5" y="-224.5" font-family="Helvetica,sans-Serif" font-size="10.00">&#45; materials_</text>
<polyline fill="none" stroke="black" points="521.5,-217.5 653.5,-217.5 "/>
<text text-anchor="start" x="529.5" y="-205.5" font-family="Helvetica,sans-Serif" font-size="10.00">+ get_material()</text>
<text text-anchor="start" x="529.5" y="-194.5" font-family="Helvetica,sans-Serif" font-size="10.00">+ make_material()</text>
<text text-anchor="start" x="529.5" y="-183.5" font-family="Helvetica,sans-Serif" font-size="10.00">&#45; material_manager()</text>
<text text-anchor="start" x="529.5" y="-172.5" font-family="Helvetica,sans-Serif" font-size="10.00">&#45; ~material_manager()</text>
</a>
</g>
</g>
<!-- Node1&#45;&gt;Node5 -->
<g id="edge4" class="edge">
<title>Node1&#45;&gt;Node5</title>
<path fill="none" stroke="midnightblue" d="M695.74,-467.88C683.78,-457.67 671.43,-445.34 662.5,-432 628.3,-380.92 607.98,-312.56 597.29,-266.77"/>
<polygon fill="none" stroke="midnightblue" points="693.55,-470.61 703.5,-474.27 698,-465.21 693.55,-470.61"/>
</g>
<!-- Node6 -->
<g id="node6" class="node">
<title>Node6</title>
<g id="a_node6"><a xlink:href="classmkr_1_1mesh__manager.html" target="_top" xlink:title=" ">
<polygon fill="white" stroke="black" points="671.5,-165.5 671.5,-266.5 797.5,-266.5 797.5,-165.5 671.5,-165.5"/>
<text text-anchor="start" x="679.5" y="-254.5" font-family="Helvetica,sans-Serif" font-size="10.00">mkr::mesh_manager&lt;</text>
<text text-anchor="middle" x="734.5" y="-243.5" font-family="Helvetica,sans-Serif" font-size="10.00"> mesh_manager &gt;</text>
<polyline fill="none" stroke="black" points="671.5,-236.5 797.5,-236.5 "/>
<text text-anchor="start" x="679.5" y="-224.5" font-family="Helvetica,sans-Serif" font-size="10.00">&#45; meshes_</text>
<polyline fill="none" stroke="black" points="671.5,-217.5 797.5,-217.5 "/>
<text text-anchor="start" x="679.5" y="-205.5" font-family="Helvetica,sans-Serif" font-size="10.00">+ get_mesh()</text>
<text text-anchor="start" x="679.5" y="-194.5" font-family="Helvetica,sans-Serif" font-size="10.00">+ make_mesh()</text>
<text text-anchor="start" x="679.5" y="-183.5" font-family="Helvetica,sans-Serif" font-size="10.00">&#45; mesh_manager()</text>
<text text-anchor="start" x="679.5" y="-172.5" font-family="Helvetica,sans-Serif" font-size="10.00">&#45; ~mesh_manager()</text>
</a>
</g>
</g>
<!-- Node1&#45;&gt;Node6 -->
<g id="edge5" class="edge">
<title>Node1&#45;&gt;Node6</title>
<path fill="none" stroke="midnightblue" d="M734.5,-458.21C734.5,-408.66 734.5,-321.59 734.5,-266.73"/>
<polygon fill="none" stroke="midnightblue" points="731,-458.48 734.5,-468.48 738,-458.48 731,-458.48"/>
</g>
<!-- Node7 -->
<g id="node7" class="node">
<title>Node7</title>
<g id="a_node7"><a xlink:href="classmkr_1_1scene__manager.html" target="_top" xlink:title=" ">
<polygon fill="white" stroke="black" points="816,-154.5 816,-277.5 935,-277.5 935,-154.5 816,-154.5"/>
<text text-anchor="start" x="824" y="-265.5" font-family="Helvetica,sans-Serif" font-size="10.00">mkr::scene_manager</text>
<text text-anchor="middle" x="875.5" y="-254.5" font-family="Helvetica,sans-Serif" font-size="10.00">&lt; scene_manager &gt;</text>
<polyline fill="none" stroke="black" points="816,-247.5 935,-247.5 "/>
<text text-anchor="start" x="824" y="-235.5" font-family="Helvetica,sans-Serif" font-size="10.00">&#45; scene_</text>
<polyline fill="none" stroke="black" points="816,-228.5 935,-228.5 "/>
<text text-anchor="start" x="824" y="-216.5" font-family="Helvetica,sans-Serif" font-size="10.00">+ active_scene()</text>
<text text-anchor="start" x="824" y="-205.5" font-family="Helvetica,sans-Serif" font-size="10.00">+ init()</text>
<text text-anchor="start" x="824" y="-194.5" font-family="Helvetica,sans-Serif" font-size="10.00">+ update()</text>
<text text-anchor="start" x="824" y="-183.5" font-family="Helvetica,sans-Serif" font-size="10.00">+ exit()</text>
<text text-anchor="start" x="824" y="-172.5" font-family="Helvetica,sans-Serif" font-size="10.00">&#45; scene_manager()</text>
<text text-anchor="start" x="824" y="-161.5" font-family="Helvetica,sans-Serif" font-size="10.00">&#45; ~scene_manager()</text>
</a>
</g>
</g>
<!-- Node1&#45;&gt;Node7 -->
<g id="edge6" class="edge">
<title>Node1&#45;&gt;Node7</title>
<path fill="none" stroke="midnightblue" d="M773.46,-468.01C785.43,-457.81 797.74,-445.45 806.5,-432 837.2,-384.86 855.17,-323.02 865.02,-277.76"/>
<polygon fill="none" stroke="midnightblue" points="771.19,-465.34 765.68,-474.39 775.63,-470.75 771.19,-465.34"/>
</g>
<!-- Node8 -->
<g id="node8" class="node">
<title>Node8</title>
<g id="a_node8"><a xlink:href="classmkr_1_1sdl__message__pump.html" target="_top" xlink:title=" ">
<polygon fill="white" stroke="black" points="953.5,-132.5 953.5,-299.5 1093.5,-299.5 1093.5,-132.5 953.5,-132.5"/>
<text text-anchor="start" x="961.5" y="-287.5" font-family="Helvetica,sans-Serif" font-size="10.00">mkr::sdl_message_pump</text>
<text text-anchor="middle" x="1023.5" y="-276.5" font-family="Helvetica,sans-Serif" font-size="10.00">&lt; sdl_message_pump &gt;</text>
<polyline fill="none" stroke="black" points="953.5,-269.5 1093.5,-269.5 "/>
<text text-anchor="start" x="961.5" y="-257.5" font-family="Helvetica,sans-Serif" font-size="10.00">&#45; event_dispatcher_</text>
<text text-anchor="start" x="961.5" y="-246.5" font-family="Helvetica,sans-Serif" font-size="10.00">&#45; worker_thread_</text>
<text text-anchor="start" x="961.5" y="-235.5" font-family="Helvetica,sans-Serif" font-size="10.00">&#45; run_</text>
<polyline fill="none" stroke="black" points="953.5,-228.5 1093.5,-228.5 "/>
<text text-anchor="start" x="961.5" y="-216.5" font-family="Helvetica,sans-Serif" font-size="10.00">+ get_event_dispatcher()</text>
<text text-anchor="start" x="961.5" y="-205.5" font-family="Helvetica,sans-Serif" font-size="10.00">+ get_event_dispatcher()</text>
<text text-anchor="start" x="961.5" y="-194.5" font-family="Helvetica,sans-Serif" font-size="10.00">+ init()</text>
<text text-anchor="start" x="961.5" y="-183.5" font-family="Helvetica,sans-Serif" font-size="10.00">+ start()</text>
<text text-anchor="start" x="961.5" y="-172.5" font-family="Helvetica,sans-Serif" font-size="10.00">+ stop()</text>
<text text-anchor="start" x="961.5" y="-161.5" font-family="Helvetica,sans-Serif" font-size="10.00">+ exit()</text>
<text text-anchor="start" x="961.5" y="-150.5" font-family="Helvetica,sans-Serif" font-size="10.00">&#45; sdl_message_pump()</text>
<text text-anchor="start" x="961.5" y="-139.5" font-family="Helvetica,sans-Serif" font-size="10.00">&#45; ~sdl_message_pump()</text>
</a>
</g>
</g>
<!-- Node1&#45;&gt;Node8 -->
<g id="edge7" class="edge">
<title>Node1&#45;&gt;Node8</title>
<path fill="none" stroke="midnightblue" d="M775.94,-494.05C822.66,-489.69 898.15,-475.81 944.5,-432 981.13,-397.38 1000.85,-344.33 1011.43,-299.6"/>
<polygon fill="none" stroke="midnightblue" points="775.53,-490.57 765.85,-494.89 776.11,-497.55 775.53,-490.57"/>
</g>
<!-- Node9 -->
<g id="node9" class="node">
<title>Node9</title>
<g id="a_node9"><a xlink:href="classmkr_1_1shader__manager.html" target="_top" xlink:title=" ">
<polygon fill="white" stroke="black" points="1111.5,-171 1111.5,-261 1235.5,-261 1235.5,-171 1111.5,-171"/>
<text text-anchor="start" x="1119.5" y="-249" font-family="Helvetica,sans-Serif" font-size="10.00">mkr::shader_manager</text>
<text text-anchor="middle" x="1173.5" y="-238" font-family="Helvetica,sans-Serif" font-size="10.00">&lt; shader_manager &gt;</text>
<polyline fill="none" stroke="black" points="1111.5,-231 1235.5,-231 "/>
<text text-anchor="start" x="1119.5" y="-219" font-family="Helvetica,sans-Serif" font-size="10.00">&#45; shaders_</text>
<polyline fill="none" stroke="black" points="1111.5,-212 1235.5,-212 "/>
<text text-anchor="start" x="1119.5" y="-200" font-family="Helvetica,sans-Serif" font-size="10.00">+ get_shader()</text>
<text text-anchor="start" x="1119.5" y="-189" font-family="Helvetica,sans-Serif" font-size="10.00">&#45; shader_manager()</text>
<text text-anchor="start" x="1119.5" y="-178" font-family="Helvetica,sans-Serif" font-size="10.00">&#45; ~shader_manager()</text>
</a>
</g>
</g>
<!-- Node1&#45;&gt;Node9 -->
<g id="edge8" class="edge">
<title>Node1&#45;&gt;Node9</title>
<path fill="none" stroke="midnightblue" d="M775.76,-494.06C861.29,-489.22 1054.02,-473.84 1102.5,-432 1152.2,-389.11 1167.27,-310.68 1171.74,-261.34"/>
<polygon fill="none" stroke="midnightblue" points="775.43,-490.57 765.63,-494.61 775.81,-497.56 775.43,-490.57"/>
</g>
<!-- Node10 -->
<g id="node10" class="node">
<title>Node10</title>
<g id="a_node10"><a xlink:href="classmkr_1_1texture__manager.html" target="_top" xlink:title=" ">
<polygon fill="white" stroke="black" points="1253.5,-149 1253.5,-283 1379.5,-283 1379.5,-149 1253.5,-149"/>
<text text-anchor="start" x="1261.5" y="-271" font-family="Helvetica,sans-Serif" font-size="10.00">mkr::texture_manager</text>
<text text-anchor="middle" x="1316.5" y="-260" font-family="Helvetica,sans-Serif" font-size="10.00">&lt; texture_manager &gt;</text>
<polyline fill="none" stroke="black" points="1253.5,-253 1379.5,-253 "/>
<text text-anchor="start" x="1261.5" y="-241" font-family="Helvetica,sans-Serif" font-size="10.00">&#45; texture2ds_</text>
<text text-anchor="start" x="1261.5" y="-230" font-family="Helvetica,sans-Serif" font-size="10.00">&#45; cubemaps_</text>
<polyline fill="none" stroke="black" points="1253.5,-223 1379.5,-223 "/>
<text text-anchor="start" x="1261.5" y="-211" font-family="Helvetica,sans-Serif" font-size="10.00">+ get_texture2d()</text>
<text text-anchor="start" x="1261.5" y="-200" font-family="Helvetica,sans-Serif" font-size="10.00">+ make_texture2d()</text>
<text text-anchor="start" x="1261.5" y="-189" font-family="Helvetica,sans-Serif" font-size="10.00">+ get_cubemap()</text>
<text text-anchor="start" x="1261.5" y="-178" font-family="Helvetica,sans-Serif" font-size="10.00">+ make_cubemap()</text>
<text text-anchor="start" x="1261.5" y="-167" font-family="Helvetica,sans-Serif" font-size="10.00">&#45; texture_manager()</text>
<text text-anchor="start" x="1261.5" y="-156" font-family="Helvetica,sans-Serif" font-size="10.00">&#45; ~texture_manager()</text>
</a>
</g>
</g>
<!-- Node1&#45;&gt;Node10 -->
<g id="edge9" class="edge">
<title>Node1&#45;&gt;Node10</title>
<path fill="none" stroke="midnightblue" d="M775.76,-496.3C884.08,-496.24 1173.1,-490.48 1244.5,-432 1288.58,-395.9 1305.83,-331.88 1312.5,-283.06"/>
<polygon fill="none" stroke="midnightblue" points="775.56,-492.8 765.56,-496.28 775.56,-499.8 775.56,-492.8"/>
</g>
</g>
</svg>
        <g id="navigator" transform="translate(0 0)" fill="#404254">
                <rect fill="#f2f5e9" fill-opacity="0.5" stroke="#606060" stroke-width=".5" x="0" y="0" width="60" height="60"/>
                <use id="zoomplus" xlink:href="#zoomPlus" x="17" y="9" onmousedown="handleZoom(evt,'in')"/>
                <use id="zoomminus" xlink:href="#zoomMin" x="42" y="9" onmousedown="handleZoom(evt,'out')"/>
                <use id="reset" xlink:href="#resetDef" x="30" y="36" onmousedown="handleReset()"/>
                <g id="arrowUp" xlink:href="#dirArrow" transform="translate(30 24)" onmousedown="handlePan(0,-1)">
                  <use xlink:href="#rim" fill="#404040">
                        <set attributeName="fill" to="#808080" begin="arrowUp.mouseover" end="arrowUp.mouseout"/>
                  </use>
                  <path fill="none" stroke="white" stroke-width="1.5" d="M0,-3.0v7 M-2.5,-0.5L0,-3.0L2.5,-0.5"/>
                </g>
                <g id="arrowRight" xlink:href="#dirArrow" transform="rotate(90) translate(36 -43)" onmousedown="handlePan(1,0)">
                  <use xlink:href="#rim" fill="#404040">
                        <set attributeName="fill" to="#808080" begin="arrowRight.mouseover" end="arrowRight.mouseout"/>
                  </use>
                  <path fill="none" stroke="white" stroke-width="1.5" d="M0,-3.0v7 M-2.5,-0.5L0,-3.0L2.5,-0.5"/>
                </g>
                <g id="arrowDown" xlink:href="#dirArrow" transform="rotate(180) translate(-30 -48)" onmousedown="handlePan(0,1)">
                  <use xlink:href="#rim" fill="#404040">
                        <set attributeName="fill" to="#808080" begin="arrowDown.mouseover" end="arrowDown.mouseout"/>
                  </use>
                  <path fill="none" stroke="white" stroke-width="1.5" d="M0,-3.0v7 M-2.5,-0.5L0,-3.0L2.5,-0.5"/>
                </g>
                <g id="arrowLeft" xlink:href="#dirArrow" transform="rotate(270) translate(-36 17)" onmousedown="handlePan(-1,0)">
                  <use xlink:href="#rim" fill="#404040">
                        <set attributeName="fill" to="#808080" begin="arrowLeft.mouseover" end="arrowLeft.mouseout"/>
                  </use>
                  <path fill="none" stroke="white" stroke-width="1.5" d="M0,-3.0v7 M-2.5,-0.5L0,-3.0L2.5,-0.5"/>
                </g>
        </g>
        <svg viewBox="0 0 15 15" width="100%" height="30px" preserveAspectRatio="xMaxYMin meet">
         <g id="arrow_out" transform="scale(0.3 0.3)">
          <a xlink:href="classsingleton__inherit__graph_org.svg" target="_base">
           <rect id="button" ry="5" rx="5" y="6" x="6" height="38" width="38"
                fill="#f2f5e9" fill-opacity="0.5" stroke="#606060" stroke-width="1.0"/>
           <path id="arrow"
             d="M 11.500037,31.436501 C 11.940474,20.09759 22.043105,11.32322 32.158766,21.979434 L 37.068811,17.246167 C 37.068811,17.246167 37.088388,32 37.088388,32 L 22.160133,31.978069 C 22.160133,31.978069 26.997745,27.140456 26.997745,27.140456 C 18.528582,18.264221 13.291696,25.230495 11.500037,31.436501 z"
             style="fill:#404040;"/>
          </a>
         </g>
        </svg>
</svg>
