<?xml version="1.0" encoding="UTF-8" standalone="no"?>
<!DOCTYPE svg PUBLIC "-//W3C//DTD SVG 1.1//EN"
 "http://www.w3.org/Graphics/SVG/1.1/DTD/svg11.dtd">
<!-- Generated by graphviz version 2.43.0 (0)
 -->
<!-- Title: mkr::sdl_message_pump Pages: 1 -->
<svg width="315pt" height="375pt"
 viewBox="0.00 0.00 314.50 375.00" xmlns="http://www.w3.org/2000/svg" xmlns:xlink="http://www.w3.org/1999/xlink">
<g id="graph0" class="graph" transform="scale(1 1) rotate(0) translate(4 371)">
<title>mkr::sdl_message_pump</title>
<polygon fill="white" stroke="transparent" points="-4,4 -4,-371 310.5,-371 310.5,4 -4,4"/>
<!-- Node1 -->
<g id="node1" class="node">
<title>Node1</title>
<g id="a_node1"><a xlink:title=" ">
<polygon fill="#bfbfbf" stroke="black" points="14.5,-0.5 14.5,-123.5 154.5,-123.5 154.5,-0.5 14.5,-0.5"/>
<text text-anchor="middle" x="84.5" y="-111.5" font-family="Helvetica,sans-Serif" font-size="10.00">mkr::sdl_message_pump</text>
<polyline fill="none" stroke="black" points="14.5,-104.5 154.5,-104.5 "/>
<text text-anchor="middle" x="84.5" y="-92.5" font-family="Helvetica,sans-Serif" font-size="10.00"> </text>
<polyline fill="none" stroke="black" points="14.5,-85.5 154.5,-85.5 "/>
<text text-anchor="start" x="22.5" y="-73.5" font-family="Helvetica,sans-Serif" font-size="10.00">+ get_event_dispatcher()</text>
<text text-anchor="start" x="22.5" y="-62.5" font-family="Helvetica,sans-Serif" font-size="10.00">+ get_event_dispatcher()</text>
<text text-anchor="start" x="22.5" y="-51.5" font-family="Helvetica,sans-Serif" font-size="10.00">+ init()</text>
<text text-anchor="start" x="22.5" y="-40.5" font-family="Helvetica,sans-Serif" font-size="10.00">+ update()</text>
<text text-anchor="start" x="22.5" y="-29.5" font-family="Helvetica,sans-Serif" font-size="10.00">+ exit()</text>
<text text-anchor="start" x="22.5" y="-18.5" font-family="Helvetica,sans-Serif" font-size="10.00">&#45; sdl_message_pump()</text>
<text text-anchor="start" x="22.5" y="-7.5" font-family="Helvetica,sans-Serif" font-size="10.00">&#45; ~sdl_message_pump()</text>
</a>
</g>
</g>
<!-- Node2 -->
<g id="node2" class="node">
<title>Node2</title>
<g id="a_node2"><a xlink:href="classsingleton.html" target="_top" xlink:title=" ">
<polygon fill="white" stroke="black" points="0,-171.5 0,-239.5 137,-239.5 137,-171.5 0,-171.5"/>
<text text-anchor="start" x="8" y="-227.5" font-family="Helvetica,sans-Serif" font-size="10.00">singleton&lt; sdl_message</text>
<text text-anchor="middle" x="68.5" y="-216.5" font-family="Helvetica,sans-Serif" font-size="10.00">_pump &gt;</text>
<polyline fill="none" stroke="black" points="0,-209.5 137,-209.5 "/>
<text text-anchor="middle" x="68.5" y="-197.5" font-family="Helvetica,sans-Serif" font-size="10.00"> </text>
<polyline fill="none" stroke="black" points="0,-190.5 137,-190.5 "/>
<text text-anchor="middle" x="68.5" y="-178.5" font-family="Helvetica,sans-Serif" font-size="10.00"> </text>
</a>
</g>
</g>
<!-- Node2&#45;&gt;Node1 -->
<g id="edge1" class="edge">
<title>Node2&#45;&gt;Node1</title>
<path fill="none" stroke="midnightblue" d="M73.39,-161.27C74.73,-149.42 76.21,-136.35 77.63,-123.71"/>
<polygon fill="none" stroke="midnightblue" points="69.9,-160.99 72.25,-171.32 76.85,-161.78 69.9,-160.99"/>
</g>
<!-- Node3 -->
<g id="node3" class="node">
<title>Node3</title>
<g id="a_node3"><a xlink:href="classmkr_1_1event__dispatcher.html" target="_top" xlink:title="An event_dispatcher is used to dispatch event(s) to event_listener(s) that are subscribed to this dis...">
<polygon fill="white" stroke="black" points="155.5,-171.5 155.5,-239.5 283.5,-239.5 283.5,-171.5 155.5,-171.5"/>
<text text-anchor="middle" x="219.5" y="-227.5" font-family="Helvetica,sans-Serif" font-size="10.00">mkr::event_dispatcher</text>
<polyline fill="none" stroke="black" points="155.5,-220.5 283.5,-220.5 "/>
<text text-anchor="middle" x="219.5" y="-208.5" font-family="Helvetica,sans-Serif" font-size="10.00"> </text>
<polyline fill="none" stroke="black" points="155.5,-201.5 283.5,-201.5 "/>
<text text-anchor="start" x="163.5" y="-189.5" font-family="Helvetica,sans-Serif" font-size="10.00">+ event_dispatcher()</text>
<text text-anchor="start" x="163.5" y="-178.5" font-family="Helvetica,sans-Serif" font-size="10.00">+ ~event_dispatcher()</text>
</a>
</g>
</g>
<!-- Node3&#45;&gt;Node1 -->
<g id="edge2" class="edge">
<title>Node3&#45;&gt;Node1</title>
<path fill="none" stroke="#404040" d="M187.85,-171.32C176.72,-159.67 163.77,-146.09 150.87,-132.57"/>
<polygon fill="none" stroke="#404040" points="150.71,-132.4 143.67,-130.82 142.42,-123.71 149.46,-125.29 150.71,-132.4"/>
<text text-anchor="middle" x="216" y="-145" font-family="Helvetica,sans-Serif" font-size="10.00"> &#45;event_dispatcher_</text>
</g>
<!-- Node4 -->
<g id="node4" class="node">
<title>Node4</title>
<g id="a_node4"><a xlink:title=" ">
<polygon fill="white" stroke="#bfbfbf" points="132.5,-287.5 132.5,-366.5 306.5,-366.5 306.5,-287.5 132.5,-287.5"/>
<text text-anchor="start" x="140.5" y="-354.5" font-family="Helvetica,sans-Serif" font-size="10.00">unordered_map&lt; event</text>
<text text-anchor="start" x="140.5" y="-343.5" font-family="Helvetica,sans-Serif" font-size="10.00">_id_t, std::unordered</text>
<text text-anchor="middle" x="219.5" y="-332.5" font-family="Helvetica,sans-Serif" font-size="10.00">_set&lt; mkr::event_listener * &gt; &gt;</text>
<polyline fill="none" stroke="#bfbfbf" points="132.5,-325.5 306.5,-325.5 "/>
<text text-anchor="middle" x="219.5" y="-313.5" font-family="Helvetica,sans-Serif" font-size="10.00"> </text>
<polyline fill="none" stroke="#bfbfbf" points="132.5,-306.5 306.5,-306.5 "/>
<text text-anchor="middle" x="219.5" y="-294.5" font-family="Helvetica,sans-Serif" font-size="10.00"> </text>
</a>
</g>
</g>
<!-- Node4&#45;&gt;Node3 -->
<g id="edge3" class="edge">
<title>Node4&#45;&gt;Node3</title>
<path fill="none" stroke="#404040" d="M219.5,-287.2C219.5,-275.99 219.5,-263.65 219.5,-252.07"/>
<polygon fill="none" stroke="#404040" points="219.5,-251.89 215.5,-245.89 219.5,-239.89 223.5,-245.89 219.5,-251.89"/>
<text text-anchor="middle" x="247" y="-261" font-family="Helvetica,sans-Serif" font-size="10.00"> &#45;listeners_</text>
</g>
</g>
</svg>
