<?xml version="1.0" encoding="UTF-8" standalone="no"?>
<!DOCTYPE svg PUBLIC "-//W3C//DTD SVG 1.1//EN"
 "http://www.w3.org/Graphics/SVG/1.1/DTD/svg11.dtd">
<!-- Generated by graphviz version 2.43.0 (0)
 -->
<!-- Title: mkr::framebuffer Pages: 1 -->
<svg width="864pt" height="479pt"
 viewBox="0.00 0.00 864.00 479.00" xmlns="http://www.w3.org/2000/svg" xmlns:xlink="http://www.w3.org/1999/xlink">
<g id="graph0" class="graph" transform="scale(1 1) rotate(0) translate(4 475)">
<title>mkr::framebuffer</title>
<polygon fill="white" stroke="transparent" points="-4,4 -4,-475 860,-475 860,4 -4,4"/>
<!-- Node1 -->
<g id="node1" class="node">
<title>Node1</title>
<g id="a_node1"><a xlink:title=" ">
<polygon fill="#bfbfbf" stroke="black" points="302,-127.5 302,-470.5 485,-470.5 485,-127.5 302,-127.5"/>
<text text-anchor="middle" x="393.5" y="-458.5" font-family="Helvetica,sans-Serif" font-size="10.00">mkr::framebuffer</text>
<polyline fill="none" stroke="black" points="302,-451.5 485,-451.5 "/>
<text text-anchor="start" x="310" y="-439.5" font-family="Helvetica,sans-Serif" font-size="10.00"># handle_</text>
<text text-anchor="start" x="310" y="-428.5" font-family="Helvetica,sans-Serif" font-size="10.00"># colour_attachments_</text>
<text text-anchor="start" x="310" y="-417.5" font-family="Helvetica,sans-Serif" font-size="10.00"># depth_stencil_attachment_</text>
<text text-anchor="start" x="310" y="-406.5" font-family="Helvetica,sans-Serif" font-size="10.00"># width_</text>
<text text-anchor="start" x="310" y="-395.5" font-family="Helvetica,sans-Serif" font-size="10.00"># height_</text>
<polyline fill="none" stroke="black" points="302,-388.5 485,-388.5 "/>
<text text-anchor="start" x="310" y="-376.5" font-family="Helvetica,sans-Serif" font-size="10.00">+ ~framebuffer()</text>
<text text-anchor="start" x="310" y="-365.5" font-family="Helvetica,sans-Serif" font-size="10.00">+ is_complete()</text>
<text text-anchor="start" x="310" y="-354.5" font-family="Helvetica,sans-Serif" font-size="10.00">+ width()</text>
<text text-anchor="start" x="310" y="-343.5" font-family="Helvetica,sans-Serif" font-size="10.00">+ height()</text>
<text text-anchor="start" x="310" y="-332.5" font-family="Helvetica,sans-Serif" font-size="10.00">+ get_colour_attachment()</text>
<text text-anchor="start" x="310" y="-321.5" font-family="Helvetica,sans-Serif" font-size="10.00">+ get_colour_attachment()</text>
<text text-anchor="start" x="310" y="-310.5" font-family="Helvetica,sans-Serif" font-size="10.00">+ get_depth_stencil_attachment()</text>
<text text-anchor="start" x="310" y="-299.5" font-family="Helvetica,sans-Serif" font-size="10.00">+ get_depth_stencil_attachment()</text>
<text text-anchor="start" x="310" y="-288.5" font-family="Helvetica,sans-Serif" font-size="10.00">+ bind()</text>
<text text-anchor="start" x="310" y="-277.5" font-family="Helvetica,sans-Serif" font-size="10.00">+ blit_to()</text>
<text text-anchor="start" x="310" y="-266.5" font-family="Helvetica,sans-Serif" font-size="10.00">+ set_read_colour_attachment()</text>
<text text-anchor="start" x="310" y="-255.5" font-family="Helvetica,sans-Serif" font-size="10.00">+ set_draw_colour_attachment()</text>
<text text-anchor="start" x="310" y="-244.5" font-family="Helvetica,sans-Serif" font-size="10.00">+ set_draw_colour_attachment</text>
<text text-anchor="start" x="310" y="-233.5" font-family="Helvetica,sans-Serif" font-size="10.00">_all()</text>
<text text-anchor="start" x="310" y="-222.5" font-family="Helvetica,sans-Serif" font-size="10.00">+ clear_colour()</text>
<text text-anchor="start" x="310" y="-211.5" font-family="Helvetica,sans-Serif" font-size="10.00">+ clear_colour_all()</text>
<text text-anchor="start" x="310" y="-200.5" font-family="Helvetica,sans-Serif" font-size="10.00">+ clear_depth_stencil()</text>
<text text-anchor="start" x="310" y="-189.5" font-family="Helvetica,sans-Serif" font-size="10.00">+ bind_default_buffer()</text>
<text text-anchor="start" x="310" y="-178.5" font-family="Helvetica,sans-Serif" font-size="10.00">+ clear_default_buffer</text>
<text text-anchor="start" x="310" y="-167.5" font-family="Helvetica,sans-Serif" font-size="10.00">_colour()</text>
<text text-anchor="start" x="310" y="-156.5" font-family="Helvetica,sans-Serif" font-size="10.00">+ clear_default_depth</text>
<text text-anchor="start" x="310" y="-145.5" font-family="Helvetica,sans-Serif" font-size="10.00">_stencil()</text>
<text text-anchor="start" x="310" y="-134.5" font-family="Helvetica,sans-Serif" font-size="10.00"># framebuffer()</text>
</a>
</g>
</g>
<!-- Node2 -->
<g id="node2" class="node">
<title>Node2</title>
<g id="a_node2"><a xlink:href="classmkr_1_1forward__buffer.html" target="_top" xlink:title=" ">
<polygon fill="white" stroke="black" points="0,-11.5 0,-79.5 115,-79.5 115,-11.5 0,-11.5"/>
<text text-anchor="middle" x="57.5" y="-67.5" font-family="Helvetica,sans-Serif" font-size="10.00">mkr::forward_buffer</text>
<polyline fill="none" stroke="black" points="0,-60.5 115,-60.5 "/>
<text text-anchor="middle" x="57.5" y="-48.5" font-family="Helvetica,sans-Serif" font-size="10.00"> </text>
<polyline fill="none" stroke="black" points="0,-41.5 115,-41.5 "/>
<text text-anchor="start" x="8" y="-29.5" font-family="Helvetica,sans-Serif" font-size="10.00">+ forward_buffer()</text>
<text text-anchor="start" x="8" y="-18.5" font-family="Helvetica,sans-Serif" font-size="10.00">+ ~forward_buffer()</text>
</a>
</g>
</g>
<!-- Node1&#45;&gt;Node2 -->
<g id="edge1" class="edge">
<title>Node1&#45;&gt;Node2</title>
<path fill="none" stroke="midnightblue" d="M293.61,-223.23C229.94,-175.58 150.57,-116.16 101.99,-79.8"/>
<polygon fill="none" stroke="midnightblue" points="291.58,-226.09 301.69,-229.28 295.78,-220.48 291.58,-226.09"/>
</g>
<!-- Node3 -->
<g id="node3" class="node">
<title>Node3</title>
<g id="a_node3"><a xlink:href="classmkr_1_1geometry__buffer.html" target="_top" xlink:title=" ">
<polygon fill="white" stroke="black" points="133,-11.5 133,-79.5 258,-79.5 258,-11.5 133,-11.5"/>
<text text-anchor="middle" x="195.5" y="-67.5" font-family="Helvetica,sans-Serif" font-size="10.00">mkr::geometry_buffer</text>
<polyline fill="none" stroke="black" points="133,-60.5 258,-60.5 "/>
<text text-anchor="middle" x="195.5" y="-48.5" font-family="Helvetica,sans-Serif" font-size="10.00"> </text>
<polyline fill="none" stroke="black" points="133,-41.5 258,-41.5 "/>
<text text-anchor="start" x="141" y="-29.5" font-family="Helvetica,sans-Serif" font-size="10.00">+ geometry_buffer()</text>
<text text-anchor="start" x="141" y="-18.5" font-family="Helvetica,sans-Serif" font-size="10.00">+ ~geometry_buffer()</text>
</a>
</g>
</g>
<!-- Node1&#45;&gt;Node3 -->
<g id="edge2" class="edge">
<title>Node1&#45;&gt;Node3</title>
<path fill="none" stroke="midnightblue" d="M295.55,-173.58C268.21,-138.86 240.77,-104 221.56,-79.6"/>
<polygon fill="none" stroke="midnightblue" points="292.81,-175.76 301.75,-181.45 298.31,-171.43 292.81,-175.76"/>
</g>
<!-- Node4 -->
<g id="node4" class="node">
<title>Node4</title>
<g id="a_node4"><a xlink:href="classmkr_1_1light__buffer.html" target="_top" xlink:title=" ">
<polygon fill="white" stroke="black" points="276,-0.5 276,-90.5 379,-90.5 379,-0.5 276,-0.5"/>
<text text-anchor="middle" x="327.5" y="-78.5" font-family="Helvetica,sans-Serif" font-size="10.00">mkr::light_buffer</text>
<polyline fill="none" stroke="black" points="276,-71.5 379,-71.5 "/>
<text text-anchor="start" x="284" y="-59.5" font-family="Helvetica,sans-Serif" font-size="10.00"># diffuse_back_</text>
<text text-anchor="start" x="284" y="-48.5" font-family="Helvetica,sans-Serif" font-size="10.00"># specular_back_</text>
<polyline fill="none" stroke="black" points="276,-41.5 379,-41.5 "/>
<text text-anchor="start" x="284" y="-29.5" font-family="Helvetica,sans-Serif" font-size="10.00">+ light_buffer()</text>
<text text-anchor="start" x="284" y="-18.5" font-family="Helvetica,sans-Serif" font-size="10.00">+ ~light_buffer()</text>
<text text-anchor="start" x="284" y="-7.5" font-family="Helvetica,sans-Serif" font-size="10.00">+ swap_buffers()</text>
</a>
</g>
</g>
<!-- Node1&#45;&gt;Node4 -->
<g id="edge3" class="edge">
<title>Node1&#45;&gt;Node4</title>
<path fill="none" stroke="midnightblue" d="M346.17,-117.63C343.63,-107.97 341.23,-98.84 339.06,-90.54"/>
<polygon fill="none" stroke="midnightblue" points="342.82,-118.68 348.75,-127.46 349.59,-116.9 342.82,-118.68"/>
</g>
<!-- Node5 -->
<g id="node5" class="node">
<title>Node5</title>
<g id="a_node5"><a xlink:href="classmkr_1_1post__proc__buffer.html" target="_top" xlink:title=" ">
<polygon fill="white" stroke="black" points="397,-6 397,-85 522,-85 522,-6 397,-6"/>
<text text-anchor="middle" x="459.5" y="-73" font-family="Helvetica,sans-Serif" font-size="10.00">mkr::post_proc_buffer</text>
<polyline fill="none" stroke="black" points="397,-66 522,-66 "/>
<text text-anchor="start" x="405" y="-54" font-family="Helvetica,sans-Serif" font-size="10.00"># composite_back_</text>
<polyline fill="none" stroke="black" points="397,-47 522,-47 "/>
<text text-anchor="start" x="405" y="-35" font-family="Helvetica,sans-Serif" font-size="10.00">+ post_proc_buffer()</text>
<text text-anchor="start" x="405" y="-24" font-family="Helvetica,sans-Serif" font-size="10.00">+ ~post_proc_buffer()</text>
<text text-anchor="start" x="405" y="-13" font-family="Helvetica,sans-Serif" font-size="10.00">+ swap_buffers()</text>
</a>
</g>
</g>
<!-- Node1&#45;&gt;Node5 -->
<g id="edge4" class="edge">
<title>Node1&#45;&gt;Node5</title>
<path fill="none" stroke="midnightblue" d="M440.8,-117.74C443.93,-105.83 446.84,-94.73 449.4,-85"/>
<polygon fill="none" stroke="midnightblue" points="437.41,-116.9 438.25,-127.46 444.18,-118.68 437.41,-116.9"/>
</g>
<!-- Node6 -->
<g id="node6" class="node">
<title>Node6</title>
<g id="a_node6"><a xlink:href="classmkr_1_1shadow__2d__buffer.html" target="_top" xlink:title=" ">
<polygon fill="white" stroke="black" points="540.5,-11.5 540.5,-79.5 672.5,-79.5 672.5,-11.5 540.5,-11.5"/>
<text text-anchor="middle" x="606.5" y="-67.5" font-family="Helvetica,sans-Serif" font-size="10.00">mkr::shadow_2d_buffer</text>
<polyline fill="none" stroke="black" points="540.5,-60.5 672.5,-60.5 "/>
<text text-anchor="middle" x="606.5" y="-48.5" font-family="Helvetica,sans-Serif" font-size="10.00"> </text>
<polyline fill="none" stroke="black" points="540.5,-41.5 672.5,-41.5 "/>
<text text-anchor="start" x="548.5" y="-29.5" font-family="Helvetica,sans-Serif" font-size="10.00">+ shadow_2d_buffer()</text>
<text text-anchor="start" x="548.5" y="-18.5" font-family="Helvetica,sans-Serif" font-size="10.00">+ ~shadow_2d_buffer()</text>
</a>
</g>
</g>
<!-- Node1&#45;&gt;Node6 -->
<g id="edge5" class="edge">
<title>Node1&#45;&gt;Node6</title>
<path fill="none" stroke="midnightblue" d="M491.81,-181.92C523.48,-144.53 556.12,-105.99 578.44,-79.63"/>
<polygon fill="none" stroke="midnightblue" points="488.86,-179.99 485.07,-189.88 494.2,-184.51 488.86,-179.99"/>
</g>
<!-- Node7 -->
<g id="node7" class="node">
<title>Node7</title>
<g id="a_node7"><a xlink:href="classmkr_1_1shadow__cubemap__buffer.html" target="_top" xlink:title=" ">
<polygon fill="white" stroke="black" points="691,-6 691,-85 856,-85 856,-6 691,-6"/>
<text text-anchor="start" x="699" y="-73" font-family="Helvetica,sans-Serif" font-size="10.00">mkr::shadow_cubemap</text>
<text text-anchor="middle" x="773.5" y="-62" font-family="Helvetica,sans-Serif" font-size="10.00">_buffer</text>
<polyline fill="none" stroke="black" points="691,-55 856,-55 "/>
<text text-anchor="middle" x="773.5" y="-43" font-family="Helvetica,sans-Serif" font-size="10.00"> </text>
<polyline fill="none" stroke="black" points="691,-36 856,-36 "/>
<text text-anchor="start" x="699" y="-24" font-family="Helvetica,sans-Serif" font-size="10.00">+ shadow_cubemap_buffer()</text>
<text text-anchor="start" x="699" y="-13" font-family="Helvetica,sans-Serif" font-size="10.00">+ ~shadow_cubemap_buffer()</text>
</a>
</g>
</g>
<!-- Node1&#45;&gt;Node7 -->
<g id="edge6" class="edge">
<title>Node1&#45;&gt;Node7</title>
<path fill="none" stroke="midnightblue" d="M493.51,-231.81C564.15,-185.06 656.37,-124.02 715.29,-85.03"/>
<polygon fill="none" stroke="midnightblue" points="491.41,-229 485,-237.44 495.27,-234.84 491.41,-229"/>
</g>
</g>
</svg>
