<?xml version="1.0" encoding="UTF-8" standalone="no"?>
<!DOCTYPE svg PUBLIC "-//W3C//DTD SVG 1.1//EN"
 "http://www.w3.org/Graphics/SVG/1.1/DTD/svg11.dtd">
<!-- Generated by graphviz version 2.43.0 (0)
 -->
<!-- Title: mkr::axis_event Pages: 1 -->
<svg width="109pt" height="287pt"
 viewBox="0.00 0.00 109.00 287.00" xmlns="http://www.w3.org/2000/svg" xmlns:xlink="http://www.w3.org/1999/xlink">
<g id="graph0" class="graph" transform="scale(1 1) rotate(0) translate(4 283)">
<title>mkr::axis_event</title>
<polygon fill="white" stroke="transparent" points="-4,4 -4,-283 105,-283 105,4 -4,4"/>
<!-- Node1 -->
<g id="node1" class="node">
<title>Node1</title>
<g id="a_node1"><a xlink:title=" ">
<polygon fill="#bfbfbf" stroke="black" points="2,-0.5 2,-68.5 99,-68.5 99,-0.5 2,-0.5"/>
<text text-anchor="middle" x="50.5" y="-56.5" font-family="Helvetica,sans-Serif" font-size="10.00">mkr::axis_event</text>
<polyline fill="none" stroke="black" points="2,-49.5 99,-49.5 "/>
<text text-anchor="start" x="10" y="-37.5" font-family="Helvetica,sans-Serif" font-size="10.00">+ value_</text>
<polyline fill="none" stroke="black" points="2,-30.5 99,-30.5 "/>
<text text-anchor="start" x="10" y="-18.5" font-family="Helvetica,sans-Serif" font-size="10.00">+ axis_event()</text>
<text text-anchor="start" x="10" y="-7.5" font-family="Helvetica,sans-Serif" font-size="10.00">+ ~axis_event()</text>
</a>
</g>
</g>
<!-- Node2 -->
<g id="node2" class="node">
<title>Node2</title>
<g id="a_node2"><a xlink:href="classmkr_1_1input__event.html" target="_top" xlink:title=" ">
<polygon fill="white" stroke="black" points="0,-105.5 0,-173.5 101,-173.5 101,-105.5 0,-105.5"/>
<text text-anchor="middle" x="50.5" y="-161.5" font-family="Helvetica,sans-Serif" font-size="10.00">mkr::input_event</text>
<polyline fill="none" stroke="black" points="0,-154.5 101,-154.5 "/>
<text text-anchor="start" x="8" y="-142.5" font-family="Helvetica,sans-Serif" font-size="10.00">+ action_</text>
<polyline fill="none" stroke="black" points="0,-135.5 101,-135.5 "/>
<text text-anchor="start" x="8" y="-123.5" font-family="Helvetica,sans-Serif" font-size="10.00">+ ~input_event()</text>
<text text-anchor="start" x="8" y="-112.5" font-family="Helvetica,sans-Serif" font-size="10.00"># input_event()</text>
</a>
</g>
</g>
<!-- Node2&#45;&gt;Node1 -->
<g id="edge1" class="edge">
<title>Node2&#45;&gt;Node1</title>
<path fill="none" stroke="midnightblue" d="M50.5,-95.14C50.5,-86.26 50.5,-77.04 50.5,-68.59"/>
<polygon fill="none" stroke="midnightblue" points="47,-95.34 50.5,-105.34 54,-95.34 47,-95.34"/>
</g>
<!-- Node3 -->
<g id="node3" class="node">
<title>Node3</title>
<g id="a_node3"><a xlink:href="classmkr_1_1event.html" target="_top" xlink:title="event(s) contain data that is dispatched by an event_dispatcher, and is received by an event_listener...">
<polygon fill="white" stroke="black" points="15,-210.5 15,-278.5 86,-278.5 86,-210.5 15,-210.5"/>
<text text-anchor="middle" x="50.5" y="-266.5" font-family="Helvetica,sans-Serif" font-size="10.00">mkr::event</text>
<polyline fill="none" stroke="black" points="15,-259.5 86,-259.5 "/>
<text text-anchor="middle" x="50.5" y="-247.5" font-family="Helvetica,sans-Serif" font-size="10.00"> </text>
<polyline fill="none" stroke="black" points="15,-240.5 86,-240.5 "/>
<text text-anchor="start" x="23" y="-228.5" font-family="Helvetica,sans-Serif" font-size="10.00">+ event()</text>
<text text-anchor="start" x="23" y="-217.5" font-family="Helvetica,sans-Serif" font-size="10.00">+ ~event()</text>
</a>
</g>
</g>
<!-- Node3&#45;&gt;Node2 -->
<g id="edge2" class="edge">
<title>Node3&#45;&gt;Node2</title>
<path fill="none" stroke="midnightblue" d="M50.5,-200.14C50.5,-191.26 50.5,-182.04 50.5,-173.59"/>
<polygon fill="none" stroke="midnightblue" points="47,-200.34 50.5,-210.34 54,-200.34 47,-200.34"/>
</g>
</g>
</svg>
