<?xml version="1.0" encoding="UTF-8" standalone="no"?>
<!DOCTYPE svg PUBLIC "-//W3C//DTD SVG 1.1//EN"
 "http://www.w3.org/Graphics/SVG/1.1/DTD/svg11.dtd">
<!-- Generated by graphviz version 2.43.0 (0)
 -->
<!-- Title: mkr::renderer Pages: 1 -->
<!--zoomable 391 -->
<svg id="main" version="1.1" xmlns="http://www.w3.org/2000/svg" xmlns:xlink="http://www.w3.org/1999/xlink" xml:space="preserve" onload="init(evt)">
<style type="text/css"><![CDATA[
.edge:hover path { stroke: red; }
.edge:hover polygon { stroke: red; fill: red; }
]]></style>
<script type="text/javascript"><![CDATA[
var edges = document.getElementsByTagName('g');
if (edges && edges.length) {
  for (var i=0;i<edges.length;i++) {
    if (edges[i].id.substr(0,4)=='edge') {
      edges[i].setAttribute('class','edge');
    }
  }
}
]]></script>
        <defs>
                <circle id="rim" cx="0" cy="0" r="7"/>
                <circle id="rim2" cx="0" cy="0" r="3.5"/>
                <g id="zoomPlus">
                        <use xlink:href="#rim" fill="#404040">
                                <set attributeName="fill" to="#808080" begin="zoomplus.mouseover" end="zoomplus.mouseout"/>
                        </use>
                        <path d="M-4,0h8M0,-4v8" fill="none" stroke="white" stroke-width="1.5" pointer-events="none"/>
                </g>
                <g id="zoomMin">
                        <use xlink:href="#rim" fill="#404040">
                                <set attributeName="fill" to="#808080" begin="zoomminus.mouseover" end="zoomminus.mouseout"/>
                        </use>
                        <path d="M-4,0h8" fill="none" stroke="white" stroke-width="1.5" pointer-events="none"/>
                </g>
                <g id="dirArrow">
                        <path fill="none" stroke="white" stroke-width="1.5" d="M0,-3.0v7 M-2.5,-0.5L0,-3.0L2.5,-0.5"/>
                </g>
               <g id="resetDef">
                       <use xlink:href="#rim2" fill="#404040">
                               <set attributeName="fill" to="#808080" begin="reset.mouseover" end="reset.mouseout"/>
                       </use>
               </g>
        </defs>

<script type="text/javascript">
var viewWidth = 1914;
var viewHeight = 391;
var sectionId = 'dynsection-1';
</script>
<script xlink:href="svgpan.js"/>
<svg id="graph" class="graph">
<g id="viewport">
<title>mkr::renderer</title>
<polygon fill="white" stroke="transparent" points="-4,4 -4,-387 1910,-387 1910,4 -4,4"/>
<!-- Node1 -->
<g id="node1" class="node">
<title>Node1</title>
<g id="a_node1"><a xlink:title=" ">
<polygon fill="#bfbfbf" stroke="black" points="827.5,-0.5 827.5,-200.5 943.5,-200.5 943.5,-0.5 827.5,-0.5"/>
<text text-anchor="middle" x="885.5" y="-188.5" font-family="Helvetica,sans-Serif" font-size="10.00">mkr::renderer</text>
<polyline fill="none" stroke="black" points="827.5,-181.5 943.5,-181.5 "/>
<text text-anchor="middle" x="885.5" y="-169.5" font-family="Helvetica,sans-Serif" font-size="10.00"> </text>
<polyline fill="none" stroke="black" points="827.5,-162.5 943.5,-162.5 "/>
<text text-anchor="start" x="835.5" y="-150.5" font-family="Helvetica,sans-Serif" font-size="10.00">+ init()</text>
<text text-anchor="start" x="835.5" y="-139.5" font-family="Helvetica,sans-Serif" font-size="10.00">+ start()</text>
<text text-anchor="start" x="835.5" y="-128.5" font-family="Helvetica,sans-Serif" font-size="10.00">+ update()</text>
<text text-anchor="start" x="835.5" y="-117.5" font-family="Helvetica,sans-Serif" font-size="10.00">+ exit()</text>
<text text-anchor="start" x="835.5" y="-106.5" font-family="Helvetica,sans-Serif" font-size="10.00">+ update_cameras()</text>
<text text-anchor="start" x="835.5" y="-95.5" font-family="Helvetica,sans-Serif" font-size="10.00">+ update_lights()</text>
<text text-anchor="start" x="835.5" y="-84.5" font-family="Helvetica,sans-Serif" font-size="10.00">+ update_objects()</text>
<text text-anchor="start" x="835.5" y="-73.5" font-family="Helvetica,sans-Serif" font-size="10.00">&#45; renderer()</text>
<text text-anchor="start" x="835.5" y="-62.5" font-family="Helvetica,sans-Serif" font-size="10.00">&#45; ~renderer()</text>
<text text-anchor="start" x="835.5" y="-51.5" font-family="Helvetica,sans-Serif" font-size="10.00">&#45; render()</text>
<text text-anchor="start" x="835.5" y="-40.5" font-family="Helvetica,sans-Serif" font-size="10.00">&#45; gpass()</text>
<text text-anchor="start" x="835.5" y="-29.5" font-family="Helvetica,sans-Serif" font-size="10.00">&#45; lpass()</text>
<text text-anchor="start" x="835.5" y="-18.5" font-family="Helvetica,sans-Serif" font-size="10.00">&#45; fpass()</text>
<text text-anchor="start" x="835.5" y="-7.5" font-family="Helvetica,sans-Serif" font-size="10.00">&#45; ppass()</text>
</a>
</g>
</g>
<!-- Node2 -->
<g id="node2" class="node">
<title>Node2</title>
<g id="a_node2"><a xlink:href="classsingleton.html" target="_top" xlink:title=" ">
<polygon fill="white" stroke="black" points="0,-309 0,-366 125,-366 125,-309 0,-309"/>
<text text-anchor="middle" x="62.5" y="-354" font-family="Helvetica,sans-Serif" font-size="10.00">singleton&lt; renderer &gt;</text>
<polyline fill="none" stroke="black" points="0,-347 125,-347 "/>
<text text-anchor="middle" x="62.5" y="-335" font-family="Helvetica,sans-Serif" font-size="10.00"> </text>
<polyline fill="none" stroke="black" points="0,-328 125,-328 "/>
<text text-anchor="middle" x="62.5" y="-316" font-family="Helvetica,sans-Serif" font-size="10.00"> </text>
</a>
</g>
</g>
<!-- Node2&#45;&gt;Node1 -->
<g id="edge1" class="edge">
<title>Node2&#45;&gt;Node1</title>
<path fill="none" stroke="midnightblue" d="M113.66,-303.78C120.58,-299.68 127.66,-295.64 134.5,-292 203.84,-255.05 220.7,-243.05 295.5,-219 485.41,-157.93 720.36,-122.58 827.44,-108.57"/>
<polygon fill="none" stroke="midnightblue" points="111.76,-300.84 105,-308.99 115.37,-306.84 111.76,-300.84"/>
</g>
<!-- Node3 -->
<g id="node3" class="node">
<title>Node3</title>
<g id="a_node3"><a xlink:title=" ">
<polygon fill="white" stroke="#bfbfbf" points="143.5,-309 143.5,-366 293.5,-366 293.5,-309 143.5,-309"/>
<text text-anchor="middle" x="218.5" y="-354" font-family="Helvetica,sans-Serif" font-size="10.00">shared_ptr&lt; mkr::sbuffer &gt;</text>
<polyline fill="none" stroke="#bfbfbf" points="143.5,-347 293.5,-347 "/>
<text text-anchor="middle" x="218.5" y="-335" font-family="Helvetica,sans-Serif" font-size="10.00"> </text>
<polyline fill="none" stroke="#bfbfbf" points="143.5,-328 293.5,-328 "/>
<text text-anchor="middle" x="218.5" y="-316" font-family="Helvetica,sans-Serif" font-size="10.00"> </text>
</a>
</g>
</g>
<!-- Node3&#45;&gt;Node1 -->
<g id="edge2" class="edge">
<title>Node3&#45;&gt;Node1</title>
<path fill="none" stroke="#404040" d="M251.34,-308.97C284.83,-282.24 339.27,-242.39 392.5,-219 535.42,-156.21 717.02,-124.02 815.05,-110.17"/>
<polygon fill="none" stroke="#404040" points="815.27,-110.14 820.67,-105.35 827.16,-108.49 821.77,-113.28 815.27,-110.14"/>
<text text-anchor="middle" x="415.5" y="-244" font-family="Helvetica,sans-Serif" font-size="10.00"> &#45;sbuffer_</text>
</g>
<!-- Node4 -->
<g id="node4" class="node">
<title>Node4</title>
<g id="a_node4"><a xlink:title=" ">
<polygon fill="white" stroke="#bfbfbf" points="312,-303.5 312,-371.5 435,-371.5 435,-303.5 312,-303.5"/>
<text text-anchor="start" x="320" y="-359.5" font-family="Helvetica,sans-Serif" font-size="10.00">unique_ptr&lt; mkr::app</text>
<text text-anchor="middle" x="373.5" y="-348.5" font-family="Helvetica,sans-Serif" font-size="10.00">_window &gt;</text>
<polyline fill="none" stroke="#bfbfbf" points="312,-341.5 435,-341.5 "/>
<text text-anchor="middle" x="373.5" y="-329.5" font-family="Helvetica,sans-Serif" font-size="10.00"> </text>
<polyline fill="none" stroke="#bfbfbf" points="312,-322.5 435,-322.5 "/>
<text text-anchor="middle" x="373.5" y="-310.5" font-family="Helvetica,sans-Serif" font-size="10.00"> </text>
</a>
</g>
</g>
<!-- Node4&#45;&gt;Node1 -->
<g id="edge3" class="edge">
<title>Node4&#45;&gt;Node1</title>
<path fill="none" stroke="#404040" d="M406.35,-303.27C433.73,-277.2 474.86,-241.64 516.5,-219 613.91,-166.03 738.96,-132.54 815.61,-115.42"/>
<polygon fill="none" stroke="#404040" points="815.76,-115.39 820.77,-110.19 827.49,-112.81 822.48,-118.01 815.76,-115.39"/>
<text text-anchor="middle" x="553" y="-244" font-family="Helvetica,sans-Serif" font-size="10.00"> &#45;app_window_</text>
</g>
<!-- Node5 -->
<g id="node5" class="node">
<title>Node5</title>
<g id="a_node5"><a xlink:title=" ">
<polygon fill="white" stroke="#bfbfbf" points="453.5,-303.5 453.5,-371.5 571.5,-371.5 571.5,-303.5 453.5,-303.5"/>
<text text-anchor="start" x="461.5" y="-359.5" font-family="Helvetica,sans-Serif" font-size="10.00">priority_queue&lt; mkr</text>
<text text-anchor="middle" x="512.5" y="-348.5" font-family="Helvetica,sans-Serif" font-size="10.00">::camera_data &gt;</text>
<polyline fill="none" stroke="#bfbfbf" points="453.5,-341.5 571.5,-341.5 "/>
<text text-anchor="middle" x="512.5" y="-329.5" font-family="Helvetica,sans-Serif" font-size="10.00"> </text>
<polyline fill="none" stroke="#bfbfbf" points="453.5,-322.5 571.5,-322.5 "/>
<text text-anchor="middle" x="512.5" y="-310.5" font-family="Helvetica,sans-Serif" font-size="10.00"> </text>
</a>
</g>
</g>
<!-- Node5&#45;&gt;Node1 -->
<g id="edge4" class="edge">
<title>Node5&#45;&gt;Node1</title>
<path fill="none" stroke="#404040" d="M552.39,-303.25C582.75,-278.65 626.07,-245.04 666.5,-219 714.99,-187.77 772.55,-157.12 816.49,-134.96"/>
<polygon fill="none" stroke="#404040" points="816.63,-134.89 820.2,-128.62 827.35,-129.51 823.78,-135.78 816.63,-134.89"/>
<text text-anchor="middle" x="694" y="-244" font-family="Helvetica,sans-Serif" font-size="10.00"> &#45;cameras_</text>
</g>
<!-- Node6 -->
<g id="node6" class="node">
<title>Node6</title>
<g id="a_node6"><a xlink:title=" ">
<polygon fill="white" stroke="#bfbfbf" points="590,-309 590,-366 741,-366 741,-309 590,-309"/>
<text text-anchor="middle" x="665.5" y="-354" font-family="Helvetica,sans-Serif" font-size="10.00">shared_ptr&lt; mkr::dbuffer &gt;</text>
<polyline fill="none" stroke="#bfbfbf" points="590,-347 741,-347 "/>
<text text-anchor="middle" x="665.5" y="-335" font-family="Helvetica,sans-Serif" font-size="10.00"> </text>
<polyline fill="none" stroke="#bfbfbf" points="590,-328 741,-328 "/>
<text text-anchor="middle" x="665.5" y="-316" font-family="Helvetica,sans-Serif" font-size="10.00"> </text>
</a>
</g>
</g>
<!-- Node6&#45;&gt;Node1 -->
<g id="edge5" class="edge">
<title>Node6&#45;&gt;Node1</title>
<path fill="none" stroke="#404040" d="M691.6,-308.62C722.76,-275.34 776.03,-218.44 818.86,-172.69"/>
<polygon fill="none" stroke="#404040" points="819.07,-172.46 820.25,-165.34 827.27,-163.7 826.09,-170.81 819.07,-172.46"/>
<text text-anchor="middle" x="799" y="-244" font-family="Helvetica,sans-Serif" font-size="10.00"> &#45;dbuffer_</text>
</g>
<!-- Node7 -->
<g id="node7" class="node">
<title>Node7</title>
<g id="a_node7"><a xlink:title=" ">
<polygon fill="white" stroke="#bfbfbf" points="759.5,-303.5 759.5,-371.5 865.5,-371.5 865.5,-303.5 759.5,-303.5"/>
<text text-anchor="start" x="767.5" y="-359.5" font-family="Helvetica,sans-Serif" font-size="10.00">vector&lt; mkr::light</text>
<text text-anchor="middle" x="812.5" y="-348.5" font-family="Helvetica,sans-Serif" font-size="10.00">_data &gt;</text>
<polyline fill="none" stroke="#bfbfbf" points="759.5,-341.5 865.5,-341.5 "/>
<text text-anchor="middle" x="812.5" y="-329.5" font-family="Helvetica,sans-Serif" font-size="10.00"> </text>
<polyline fill="none" stroke="#bfbfbf" points="759.5,-322.5 865.5,-322.5 "/>
<text text-anchor="middle" x="812.5" y="-310.5" font-family="Helvetica,sans-Serif" font-size="10.00"> </text>
</a>
</g>
</g>
<!-- Node7&#45;&gt;Node1 -->
<g id="edge6" class="edge">
<title>Node7&#45;&gt;Node1</title>
<path fill="none" stroke="#404040" d="M822.8,-303.33C830.26,-279.34 840.79,-245.43 851.1,-212.24"/>
<polygon fill="none" stroke="#404040" points="851.17,-212.01 849.13,-205.09 854.73,-200.55 856.77,-207.47 851.17,-212.01"/>
<text text-anchor="middle" x="869.5" y="-244" font-family="Helvetica,sans-Serif" font-size="10.00"> &#45;lights_</text>
</g>
<!-- Node8 -->
<g id="node8" class="node">
<title>Node8</title>
<g id="a_node8"><a xlink:title=" ">
<polygon fill="white" stroke="#bfbfbf" points="884,-309 884,-366 1035,-366 1035,-309 884,-309"/>
<text text-anchor="middle" x="959.5" y="-354" font-family="Helvetica,sans-Serif" font-size="10.00">shared_ptr&lt; mkr::pbuffer &gt;</text>
<polyline fill="none" stroke="#bfbfbf" points="884,-347 1035,-347 "/>
<text text-anchor="middle" x="959.5" y="-335" font-family="Helvetica,sans-Serif" font-size="10.00"> </text>
<polyline fill="none" stroke="#bfbfbf" points="884,-328 1035,-328 "/>
<text text-anchor="middle" x="959.5" y="-316" font-family="Helvetica,sans-Serif" font-size="10.00"> </text>
</a>
</g>
</g>
<!-- Node8&#45;&gt;Node1 -->
<g id="edge7" class="edge">
<title>Node8&#45;&gt;Node1</title>
<path fill="none" stroke="#404040" d="M950.72,-308.62C943.12,-284.48 931.61,-247.93 920.36,-212.21"/>
<polygon fill="none" stroke="#404040" points="920.33,-212.11 914.71,-207.59 916.73,-200.66 922.34,-205.18 920.33,-212.11"/>
<text text-anchor="middle" x="964" y="-244" font-family="Helvetica,sans-Serif" font-size="10.00"> &#45;pbuffer_</text>
</g>
<!-- Node9 -->
<g id="node9" class="node">
<title>Node9</title>
<g id="a_node9"><a xlink:title=" ">
<polygon fill="white" stroke="#bfbfbf" points="1053.5,-309 1053.5,-366 1201.5,-366 1201.5,-309 1053.5,-309"/>
<text text-anchor="middle" x="1127.5" y="-354" font-family="Helvetica,sans-Serif" font-size="10.00">shared_ptr&lt; mkr::lbuffer &gt;</text>
<polyline fill="none" stroke="#bfbfbf" points="1053.5,-347 1201.5,-347 "/>
<text text-anchor="middle" x="1127.5" y="-335" font-family="Helvetica,sans-Serif" font-size="10.00"> </text>
<polyline fill="none" stroke="#bfbfbf" points="1053.5,-328 1201.5,-328 "/>
<text text-anchor="middle" x="1127.5" y="-316" font-family="Helvetica,sans-Serif" font-size="10.00"> </text>
</a>
</g>
</g>
<!-- Node9&#45;&gt;Node1 -->
<g id="edge8" class="edge">
<title>Node9&#45;&gt;Node1</title>
<path fill="none" stroke="#404040" d="M1098.79,-308.62C1062.96,-273.82 1000.54,-213.22 952.46,-166.52"/>
<polygon fill="none" stroke="#404040" points="952.27,-166.34 945.18,-165.02 943.66,-157.98 950.75,-159.29 952.27,-166.34"/>
<text text-anchor="middle" x="1084.5" y="-244" font-family="Helvetica,sans-Serif" font-size="10.00"> &#45;lbuffer_</text>
</g>
<!-- Node10 -->
<g id="node10" class="node">
<title>Node10</title>
<g id="a_node10"><a xlink:title=" ">
<polygon fill="white" stroke="#bfbfbf" points="1220,-309 1220,-366 1363,-366 1363,-309 1220,-309"/>
<text text-anchor="middle" x="1291.5" y="-354" font-family="Helvetica,sans-Serif" font-size="10.00">shared_ptr&lt; mkr::mesh &gt;</text>
<polyline fill="none" stroke="#bfbfbf" points="1220,-347 1363,-347 "/>
<text text-anchor="middle" x="1291.5" y="-335" font-family="Helvetica,sans-Serif" font-size="10.00"> </text>
<polyline fill="none" stroke="#bfbfbf" points="1220,-328 1363,-328 "/>
<text text-anchor="middle" x="1291.5" y="-316" font-family="Helvetica,sans-Serif" font-size="10.00"> </text>
</a>
</g>
</g>
<!-- Node10&#45;&gt;Node1 -->
<g id="edge9" class="edge">
<title>Node10&#45;&gt;Node1</title>
<path fill="none" stroke="#404040" d="M1251.22,-308.78C1214.98,-284.23 1160,-247.9 1110.5,-219 1059.17,-189.03 999.47,-158.02 954.47,-135.39"/>
<polygon fill="none" stroke="#404040" points="954.38,-135.34 947.22,-136.23 943.65,-129.97 950.81,-129.08 954.38,-135.34"/>
<text text-anchor="middle" x="1233.5" y="-249.5" font-family="Helvetica,sans-Serif" font-size="10.00"> &#45;screen_quad_</text>
<text text-anchor="middle" x="1233.5" y="-238.5" font-family="Helvetica,sans-Serif" font-size="10.00">&#45;skybox_mesh_</text>
</g>
<!-- Node11 -->
<g id="node11" class="node">
<title>Node11</title>
<g id="a_node11"><a xlink:title=" ">
<polygon fill="white" stroke="#bfbfbf" points="1381.5,-292.5 1381.5,-382.5 1569.5,-382.5 1569.5,-292.5 1381.5,-292.5"/>
<text text-anchor="start" x="1389.5" y="-370.5" font-family="Helvetica,sans-Serif" font-size="10.00">unordered_map&lt; mkr</text>
<text text-anchor="start" x="1389.5" y="-359.5" font-family="Helvetica,sans-Serif" font-size="10.00">::material *, std::unordered</text>
<text text-anchor="start" x="1389.5" y="-348.5" font-family="Helvetica,sans-Serif" font-size="10.00">_map&lt; mkr::mesh *, std::vector</text>
<text text-anchor="middle" x="1475.5" y="-337.5" font-family="Helvetica,sans-Serif" font-size="10.00">&lt; mkr::mesh_instance_data &gt; &gt; &gt;</text>
<polyline fill="none" stroke="#bfbfbf" points="1381.5,-330.5 1569.5,-330.5 "/>
<text text-anchor="middle" x="1475.5" y="-318.5" font-family="Helvetica,sans-Serif" font-size="10.00"> </text>
<polyline fill="none" stroke="#bfbfbf" points="1381.5,-311.5 1569.5,-311.5 "/>
<text text-anchor="middle" x="1475.5" y="-299.5" font-family="Helvetica,sans-Serif" font-size="10.00"> </text>
</a>
</g>
</g>
<!-- Node11&#45;&gt;Node1 -->
<g id="edge10" class="edge">
<title>Node11&#45;&gt;Node1</title>
<path fill="none" stroke="#404040" d="M1409.58,-292.37C1371.56,-268.32 1322.18,-239.4 1275.5,-219 1167.48,-171.81 1034.78,-136.25 955.34,-117.19"/>
<polygon fill="none" stroke="#404040" points="955.21,-117.16 948.45,-119.67 943.53,-114.39 950.3,-111.88 955.21,-117.16"/>
<text text-anchor="middle" x="1430" y="-266" font-family="Helvetica,sans-Serif" font-size="10.00"> &#45;deferred_objs_</text>
<text text-anchor="start" x="1375.5" y="-255" font-family="Helvetica,sans-Serif" font-size="10.00">&#45;forward_opaque_objs</text>
<text text-anchor="middle" x="1430" y="-244" font-family="Helvetica,sans-Serif" font-size="10.00">_</text>
<text text-anchor="start" x="1375.5" y="-233" font-family="Helvetica,sans-Serif" font-size="10.00">&#45;forward_transparent</text>
<text text-anchor="middle" x="1430" y="-222" font-family="Helvetica,sans-Serif" font-size="10.00">_objs_</text>
</g>
<!-- Node12 -->
<g id="node12" class="node">
<title>Node12</title>
<g id="a_node12"><a xlink:title=" ">
<polygon fill="white" stroke="#bfbfbf" points="1588,-309 1588,-366 1737,-366 1737,-309 1588,-309"/>
<text text-anchor="middle" x="1662.5" y="-354" font-family="Helvetica,sans-Serif" font-size="10.00">shared_ptr&lt; mkr::fbuffer &gt;</text>
<polyline fill="none" stroke="#bfbfbf" points="1588,-347 1737,-347 "/>
<text text-anchor="middle" x="1662.5" y="-335" font-family="Helvetica,sans-Serif" font-size="10.00"> </text>
<polyline fill="none" stroke="#bfbfbf" points="1588,-328 1737,-328 "/>
<text text-anchor="middle" x="1662.5" y="-316" font-family="Helvetica,sans-Serif" font-size="10.00"> </text>
</a>
</g>
</g>
<!-- Node12&#45;&gt;Node1 -->
<g id="edge11" class="edge">
<title>Node12&#45;&gt;Node1</title>
<path fill="none" stroke="#404040" d="M1630.17,-308.75C1596.87,-281.66 1542.37,-241.35 1488.5,-219 1305.76,-143.2 1071.26,-115.56 955.94,-106.08"/>
<polygon fill="none" stroke="#404040" points="955.78,-106.07 949.49,-109.58 943.82,-105.11 950.12,-101.6 955.78,-106.07"/>
<text text-anchor="middle" x="1605" y="-244" font-family="Helvetica,sans-Serif" font-size="10.00"> &#45;fbuffer_</text>
</g>
<!-- Node13 -->
<g id="node13" class="node">
<title>Node13</title>
<g id="a_node13"><a xlink:title=" ">
<polygon fill="white" stroke="#bfbfbf" points="1755,-309 1755,-366 1906,-366 1906,-309 1755,-309"/>
<text text-anchor="middle" x="1830.5" y="-354" font-family="Helvetica,sans-Serif" font-size="10.00">shared_ptr&lt; mkr::gbuffer &gt;</text>
<polyline fill="none" stroke="#bfbfbf" points="1755,-347 1906,-347 "/>
<text text-anchor="middle" x="1830.5" y="-335" font-family="Helvetica,sans-Serif" font-size="10.00"> </text>
<polyline fill="none" stroke="#bfbfbf" points="1755,-328 1906,-328 "/>
<text text-anchor="middle" x="1830.5" y="-316" font-family="Helvetica,sans-Serif" font-size="10.00"> </text>
</a>
</g>
</g>
<!-- Node13&#45;&gt;Node1 -->
<g id="edge12" class="edge">
<title>Node13&#45;&gt;Node1</title>
<path fill="none" stroke="#404040" d="M1793.74,-308.99C1755.33,-281.68 1692.29,-240.83 1631.5,-219 1393.68,-133.59 1091.12,-110.18 956.09,-103.83"/>
<polygon fill="none" stroke="#404040" points="955.93,-103.83 949.76,-107.55 943.94,-103.29 950.12,-99.56 955.93,-103.83"/>
<text text-anchor="middle" x="1761" y="-244" font-family="Helvetica,sans-Serif" font-size="10.00"> &#45;gbuffer_</text>
</g>
</g>
</svg>
        <g id="navigator" transform="translate(0 0)" fill="#404254">
                <rect fill="#f2f5e9" fill-opacity="0.5" stroke="#606060" stroke-width=".5" x="0" y="0" width="60" height="60"/>
                <use id="zoomplus" xlink:href="#zoomPlus" x="17" y="9" onmousedown="handleZoom(evt,'in')"/>
                <use id="zoomminus" xlink:href="#zoomMin" x="42" y="9" onmousedown="handleZoom(evt,'out')"/>
                <use id="reset" xlink:href="#resetDef" x="30" y="36" onmousedown="handleReset()"/>
                <g id="arrowUp" xlink:href="#dirArrow" transform="translate(30 24)" onmousedown="handlePan(0,-1)">
                  <use xlink:href="#rim" fill="#404040">
                        <set attributeName="fill" to="#808080" begin="arrowUp.mouseover" end="arrowUp.mouseout"/>
                  </use>
                  <path fill="none" stroke="white" stroke-width="1.5" d="M0,-3.0v7 M-2.5,-0.5L0,-3.0L2.5,-0.5"/>
                </g>
                <g id="arrowRight" xlink:href="#dirArrow" transform="rotate(90) translate(36 -43)" onmousedown="handlePan(1,0)">
                  <use xlink:href="#rim" fill="#404040">
                        <set attributeName="fill" to="#808080" begin="arrowRight.mouseover" end="arrowRight.mouseout"/>
                  </use>
                  <path fill="none" stroke="white" stroke-width="1.5" d="M0,-3.0v7 M-2.5,-0.5L0,-3.0L2.5,-0.5"/>
                </g>
                <g id="arrowDown" xlink:href="#dirArrow" transform="rotate(180) translate(-30 -48)" onmousedown="handlePan(0,1)">
                  <use xlink:href="#rim" fill="#404040">
                        <set attributeName="fill" to="#808080" begin="arrowDown.mouseover" end="arrowDown.mouseout"/>
                  </use>
                  <path fill="none" stroke="white" stroke-width="1.5" d="M0,-3.0v7 M-2.5,-0.5L0,-3.0L2.5,-0.5"/>
                </g>
                <g id="arrowLeft" xlink:href="#dirArrow" transform="rotate(270) translate(-36 17)" onmousedown="handlePan(-1,0)">
                  <use xlink:href="#rim" fill="#404040">
                        <set attributeName="fill" to="#808080" begin="arrowLeft.mouseover" end="arrowLeft.mouseout"/>
                  </use>
                  <path fill="none" stroke="white" stroke-width="1.5" d="M0,-3.0v7 M-2.5,-0.5L0,-3.0L2.5,-0.5"/>
                </g>
        </g>
        <svg viewBox="0 0 15 15" width="100%" height="30px" preserveAspectRatio="xMaxYMin meet">
         <g id="arrow_out" transform="scale(0.3 0.3)">
          <a xlink:href="classmkr_1_1renderer__coll__graph_org.svg" target="_base">
           <rect id="button" ry="5" rx="5" y="6" x="6" height="38" width="38"
                fill="#f2f5e9" fill-opacity="0.5" stroke="#606060" stroke-width="1.0"/>
           <path id="arrow"
             d="M 11.500037,31.436501 C 11.940474,20.09759 22.043105,11.32322 32.158766,21.979434 L 37.068811,17.246167 C 37.068811,17.246167 37.088388,32 37.088388,32 L 22.160133,31.978069 C 22.160133,31.978069 26.997745,27.140456 26.997745,27.140456 C 18.528582,18.264221 13.291696,25.230495 11.500037,31.436501 z"
             style="fill:#404040;"/>
          </a>
         </g>
        </svg>
</svg>
