<?xml version="1.0" encoding="UTF-8" standalone="no"?>
<!DOCTYPE svg PUBLIC "-//W3C//DTD SVG 1.1//EN"
 "http://www.w3.org/Graphics/SVG/1.1/DTD/svg11.dtd">
<!-- Generated by graphviz version 2.43.0 (0)
 -->
<!-- Title: mkr::material Pages: 1 -->
<!--zoomable 1237 -->
<svg id="main" version="1.1" xmlns="http://www.w3.org/2000/svg" xmlns:xlink="http://www.w3.org/1999/xlink" xml:space="preserve" onload="init(evt)">
<style type="text/css"><![CDATA[
.edge:hover path { stroke: red; }
.edge:hover polygon { stroke: red; fill: red; }
]]></style>
<script type="text/javascript"><![CDATA[
var edges = document.getElementsByTagName('g');
if (edges && edges.length) {
  for (var i=0;i<edges.length;i++) {
    if (edges[i].id.substr(0,4)=='edge') {
      edges[i].setAttribute('class','edge');
    }
  }
}
]]></script>
        <defs>
                <circle id="rim" cx="0" cy="0" r="7"/>
                <circle id="rim2" cx="0" cy="0" r="3.5"/>
                <g id="zoomPlus">
                        <use xlink:href="#rim" fill="#404040">
                                <set attributeName="fill" to="#808080" begin="zoomplus.mouseover" end="zoomplus.mouseout"/>
                        </use>
                        <path d="M-4,0h8M0,-4v8" fill="none" stroke="white" stroke-width="1.5" pointer-events="none"/>
                </g>
                <g id="zoomMin">
                        <use xlink:href="#rim" fill="#404040">
                                <set attributeName="fill" to="#808080" begin="zoomminus.mouseover" end="zoomminus.mouseout"/>
                        </use>
                        <path d="M-4,0h8" fill="none" stroke="white" stroke-width="1.5" pointer-events="none"/>
                </g>
                <g id="dirArrow">
                        <path fill="none" stroke="white" stroke-width="1.5" d="M0,-3.0v7 M-2.5,-0.5L0,-3.0L2.5,-0.5"/>
                </g>
               <g id="resetDef">
                       <use xlink:href="#rim2" fill="#404040">
                               <set attributeName="fill" to="#808080" begin="reset.mouseover" end="reset.mouseout"/>
                       </use>
               </g>
        </defs>

<script type="text/javascript">
var viewWidth = 831;
var viewHeight = 1237;
var sectionId = 'dynsection-0';
</script>
<script xlink:href="svgpan.js"/>
<svg id="graph" class="graph">
<g id="viewport">
<title>mkr::material</title>
<polygon fill="white" stroke="transparent" points="-4,4 -4,-1233 826.5,-1233 826.5,4 -4,4"/>
<!-- Node1 -->
<g id="node1" class="node">
<title>Node1</title>
<g id="a_node1"><a xlink:title=" ">
<polygon fill="#bfbfbf" stroke="black" points="358,-0.5 358,-68.5 443,-68.5 443,-0.5 358,-0.5"/>
<text text-anchor="middle" x="400.5" y="-56.5" font-family="Helvetica,sans-Serif" font-size="10.00">mkr::material</text>
<polyline fill="none" stroke="black" points="358,-49.5 443,-49.5 "/>
<text text-anchor="middle" x="400.5" y="-37.5" font-family="Helvetica,sans-Serif" font-size="10.00"> </text>
<polyline fill="none" stroke="black" points="358,-30.5 443,-30.5 "/>
<text text-anchor="start" x="366" y="-18.5" font-family="Helvetica,sans-Serif" font-size="10.00">+ material()</text>
<text text-anchor="start" x="366" y="-7.5" font-family="Helvetica,sans-Serif" font-size="10.00">+ ~material()</text>
</a>
</g>
</g>
<!-- Node2 -->
<g id="node2" class="node">
<title>Node2</title>
<g id="a_node2"><a xlink:href="classmkr_1_1texture2d.html" target="_top" xlink:title=" ">
<polygon fill="white" stroke="black" points="0,-208.5 0,-287.5 91,-287.5 91,-208.5 0,-208.5"/>
<text text-anchor="middle" x="45.5" y="-275.5" font-family="Helvetica,sans-Serif" font-size="10.00">mkr::texture2d</text>
<polyline fill="none" stroke="black" points="0,-268.5 91,-268.5 "/>
<text text-anchor="middle" x="45.5" y="-256.5" font-family="Helvetica,sans-Serif" font-size="10.00"> </text>
<polyline fill="none" stroke="black" points="0,-249.5 91,-249.5 "/>
<text text-anchor="start" x="8" y="-237.5" font-family="Helvetica,sans-Serif" font-size="10.00">+ texture2d()</text>
<text text-anchor="start" x="8" y="-226.5" font-family="Helvetica,sans-Serif" font-size="10.00">+ texture2d()</text>
<text text-anchor="start" x="8" y="-215.5" font-family="Helvetica,sans-Serif" font-size="10.00">+ ~texture2d()</text>
</a>
</g>
</g>
<!-- Node2&#45;&gt;Node1 -->
<g id="edge1" class="edge">
<title>Node2&#45;&gt;Node1</title>
<path fill="none" stroke="#404040" d="M29.2,-208.18C17.03,-172.36 6.93,-119.88 35.5,-87 75.03,-41.51 253.96,-35.08 345.78,-34.86"/>
<polygon fill="none" stroke="#404040" points="345.86,-34.86 351.86,-30.86 357.86,-34.86 351.86,-38.86 345.86,-34.86"/>
<text text-anchor="middle" x="93" y="-145" font-family="Helvetica,sans-Serif" font-size="10.00"> +texture_diffuse_</text>
<text text-anchor="start" x="35.5" y="-134" font-family="Helvetica,sans-Serif" font-size="10.00">+texture_displacement</text>
<text text-anchor="middle" x="93" y="-123" font-family="Helvetica,sans-Serif" font-size="10.00">_</text>
<text text-anchor="start" x="35.5" y="-112" font-family="Helvetica,sans-Serif" font-size="10.00">+texture_normal</text>
<text text-anchor="middle" x="93" y="-101" font-family="Helvetica,sans-Serif" font-size="10.00">_</text>
<text text-anchor="middle" x="93" y="-90" font-family="Helvetica,sans-Serif" font-size="10.00">+texture_specular_</text>
</g>
<!-- Node3 -->
<g id="node3" class="node">
<title>Node3</title>
<g id="a_node3"><a xlink:href="classmkr_1_1texture.html" target="_top" xlink:title=" ">
<polygon fill="white" stroke="black" points="177.5,-670.5 177.5,-804.5 287.5,-804.5 287.5,-670.5 177.5,-670.5"/>
<text text-anchor="middle" x="232.5" y="-792.5" font-family="Helvetica,sans-Serif" font-size="10.00">mkr::texture</text>
<polyline fill="none" stroke="black" points="177.5,-785.5 287.5,-785.5 "/>
<text text-anchor="middle" x="232.5" y="-773.5" font-family="Helvetica,sans-Serif" font-size="10.00"> </text>
<polyline fill="none" stroke="black" points="177.5,-766.5 287.5,-766.5 "/>
<text text-anchor="start" x="185.5" y="-754.5" font-family="Helvetica,sans-Serif" font-size="10.00">+ ~texture()</text>
<text text-anchor="start" x="185.5" y="-743.5" font-family="Helvetica,sans-Serif" font-size="10.00">+ name()</text>
<text text-anchor="start" x="185.5" y="-732.5" font-family="Helvetica,sans-Serif" font-size="10.00">+ width()</text>
<text text-anchor="start" x="185.5" y="-721.5" font-family="Helvetica,sans-Serif" font-size="10.00">+ height()</text>
<text text-anchor="start" x="185.5" y="-710.5" font-family="Helvetica,sans-Serif" font-size="10.00">+ handle()</text>
<text text-anchor="start" x="185.5" y="-699.5" font-family="Helvetica,sans-Serif" font-size="10.00">+ bind()</text>
<text text-anchor="start" x="185.5" y="-688.5" font-family="Helvetica,sans-Serif" font-size="10.00"># texture()</text>
<text text-anchor="start" x="185.5" y="-677.5" font-family="Helvetica,sans-Serif" font-size="10.00"># mip_map_level()</text>
</a>
</g>
</g>
<!-- Node3&#45;&gt;Node2 -->
<g id="edge2" class="edge">
<title>Node3&#45;&gt;Node2</title>
<path fill="none" stroke="midnightblue" d="M203.39,-660.61C162.92,-555.11 91.16,-368.04 60.29,-287.57"/>
<polygon fill="none" stroke="midnightblue" points="200.24,-662.16 207.09,-670.25 206.77,-659.66 200.24,-662.16"/>
</g>
<!-- Node4 -->
<g id="node4" class="node">
<title>Node4</title>
<g id="a_node4"><a xlink:title=" ">
<polygon fill="white" stroke="#bfbfbf" points="169.5,-1171.5 169.5,-1228.5 225.5,-1228.5 225.5,-1171.5 169.5,-1171.5"/>
<text text-anchor="middle" x="197.5" y="-1216.5" font-family="Helvetica,sans-Serif" font-size="10.00">uint32_t</text>
<polyline fill="none" stroke="#bfbfbf" points="169.5,-1209.5 225.5,-1209.5 "/>
<text text-anchor="middle" x="197.5" y="-1197.5" font-family="Helvetica,sans-Serif" font-size="10.00"> </text>
<polyline fill="none" stroke="#bfbfbf" points="169.5,-1190.5 225.5,-1190.5 "/>
<text text-anchor="middle" x="197.5" y="-1178.5" font-family="Helvetica,sans-Serif" font-size="10.00"> </text>
</a>
</g>
</g>
<!-- Node4&#45;&gt;Node3 -->
<g id="edge3" class="edge">
<title>Node4&#45;&gt;Node3</title>
<path fill="none" stroke="#404040" d="M197.46,-1171.19C197.56,-1158.87 197.83,-1144.21 198.5,-1131 204.02,-1021.9 215.89,-896.17 224.03,-817.02"/>
<polygon fill="none" stroke="#404040" points="224.07,-816.66 220.71,-810.28 225.3,-804.72 228.66,-811.1 224.07,-816.66"/>
<text text-anchor="middle" x="222.5" y="-1145" font-family="Helvetica,sans-Serif" font-size="10.00"> #height_</text>
<text text-anchor="middle" x="222.5" y="-1134" font-family="Helvetica,sans-Serif" font-size="10.00">#width_</text>
</g>
<!-- Node5 -->
<g id="node5" class="node">
<title>Node5</title>
<g id="a_node5"><a xlink:title=" ">
<polygon fill="white" stroke="#bfbfbf" points="456.5,-1171.5 456.5,-1228.5 500.5,-1228.5 500.5,-1171.5 456.5,-1171.5"/>
<text text-anchor="middle" x="478.5" y="-1216.5" font-family="Helvetica,sans-Serif" font-size="10.00">string</text>
<polyline fill="none" stroke="#bfbfbf" points="456.5,-1209.5 500.5,-1209.5 "/>
<text text-anchor="middle" x="478.5" y="-1197.5" font-family="Helvetica,sans-Serif" font-size="10.00"> </text>
<polyline fill="none" stroke="#bfbfbf" points="456.5,-1190.5 500.5,-1190.5 "/>
<text text-anchor="middle" x="478.5" y="-1178.5" font-family="Helvetica,sans-Serif" font-size="10.00"> </text>
</a>
</g>
</g>
<!-- Node5&#45;&gt;Node3 -->
<g id="edge4" class="edge">
<title>Node5&#45;&gt;Node3</title>
<path fill="none" stroke="#404040" d="M463.67,-1171.23C426.69,-1102.02 329.42,-919.94 273.55,-815.34"/>
<polygon fill="none" stroke="#404040" points="273.43,-815.12 267.08,-811.71 267.78,-804.54 274.13,-807.94 273.43,-815.12"/>
<text text-anchor="middle" x="475" y="-1139.5" font-family="Helvetica,sans-Serif" font-size="10.00"> #name_</text>
</g>
<!-- Node11 -->
<g id="node11" class="node">
<title>Node11</title>
<g id="a_node11"><a xlink:href="classmkr_1_1shader__program.html" target="_top" xlink:title=" ">
<polygon fill="white" stroke="black" points="494,-362.5 494,-1112.5 633,-1112.5 633,-362.5 494,-362.5"/>
<text text-anchor="middle" x="563.5" y="-1100.5" font-family="Helvetica,sans-Serif" font-size="10.00">mkr::shader_program</text>
<polyline fill="none" stroke="black" points="494,-1093.5 633,-1093.5 "/>
<text text-anchor="middle" x="563.5" y="-1081.5" font-family="Helvetica,sans-Serif" font-size="10.00"> </text>
<polyline fill="none" stroke="black" points="494,-1074.5 633,-1074.5 "/>
<text text-anchor="start" x="502" y="-1062.5" font-family="Helvetica,sans-Serif" font-size="10.00">+ shader_program()</text>
<text text-anchor="start" x="502" y="-1051.5" font-family="Helvetica,sans-Serif" font-size="10.00">+ shader_program()</text>
<text text-anchor="start" x="502" y="-1040.5" font-family="Helvetica,sans-Serif" font-size="10.00">+ ~shader_program()</text>
<text text-anchor="start" x="502" y="-1029.5" font-family="Helvetica,sans-Serif" font-size="10.00">+ name()</text>
<text text-anchor="start" x="502" y="-1018.5" font-family="Helvetica,sans-Serif" font-size="10.00">+ use()</text>
<text text-anchor="start" x="502" y="-1007.5" font-family="Helvetica,sans-Serif" font-size="10.00">+ set_uniform()</text>
<text text-anchor="start" x="502" y="-996.5" font-family="Helvetica,sans-Serif" font-size="10.00">+ set_uniform()</text>
<text text-anchor="start" x="502" y="-985.5" font-family="Helvetica,sans-Serif" font-size="10.00">+ set_uniform()</text>
<text text-anchor="start" x="502" y="-974.5" font-family="Helvetica,sans-Serif" font-size="10.00">+ set_uniform()</text>
<text text-anchor="start" x="502" y="-963.5" font-family="Helvetica,sans-Serif" font-size="10.00">+ set_uniform()</text>
<text text-anchor="start" x="502" y="-952.5" font-family="Helvetica,sans-Serif" font-size="10.00">+ set_uniform()</text>
<text text-anchor="start" x="502" y="-941.5" font-family="Helvetica,sans-Serif" font-size="10.00">+ set_uniform()</text>
<text text-anchor="start" x="502" y="-930.5" font-family="Helvetica,sans-Serif" font-size="10.00">+ set_uniform()</text>
<text text-anchor="start" x="502" y="-919.5" font-family="Helvetica,sans-Serif" font-size="10.00">+ set_uniform()</text>
<text text-anchor="start" x="502" y="-908.5" font-family="Helvetica,sans-Serif" font-size="10.00">+ set_uniform()</text>
<text text-anchor="start" x="502" y="-897.5" font-family="Helvetica,sans-Serif" font-size="10.00">+ set_uniform()</text>
<text text-anchor="start" x="502" y="-886.5" font-family="Helvetica,sans-Serif" font-size="10.00">+ set_uniform()</text>
<text text-anchor="start" x="502" y="-875.5" font-family="Helvetica,sans-Serif" font-size="10.00">+ set_uniform()</text>
<text text-anchor="start" x="502" y="-864.5" font-family="Helvetica,sans-Serif" font-size="10.00">+ set_uniform()</text>
<text text-anchor="start" x="502" y="-853.5" font-family="Helvetica,sans-Serif" font-size="10.00">+ set_uniform()</text>
<text text-anchor="start" x="502" y="-842.5" font-family="Helvetica,sans-Serif" font-size="10.00">+ set_uniform()</text>
<text text-anchor="start" x="502" y="-831.5" font-family="Helvetica,sans-Serif" font-size="10.00">+ set_uniform()</text>
<text text-anchor="start" x="502" y="-820.5" font-family="Helvetica,sans-Serif" font-size="10.00">+ set_uniform()</text>
<text text-anchor="start" x="502" y="-809.5" font-family="Helvetica,sans-Serif" font-size="10.00">+ set_uniform()</text>
<text text-anchor="start" x="502" y="-798.5" font-family="Helvetica,sans-Serif" font-size="10.00">+ set_uniform()</text>
<text text-anchor="start" x="502" y="-787.5" font-family="Helvetica,sans-Serif" font-size="10.00">+ set_uniform()</text>
<text text-anchor="start" x="502" y="-776.5" font-family="Helvetica,sans-Serif" font-size="10.00">+ set_uniform()</text>
<text text-anchor="start" x="502" y="-765.5" font-family="Helvetica,sans-Serif" font-size="10.00">+ set_uniform()</text>
<text text-anchor="start" x="502" y="-754.5" font-family="Helvetica,sans-Serif" font-size="10.00">+ set_uniform()</text>
<text text-anchor="start" x="502" y="-743.5" font-family="Helvetica,sans-Serif" font-size="10.00">+ set_uniform()</text>
<text text-anchor="start" x="502" y="-732.5" font-family="Helvetica,sans-Serif" font-size="10.00">+ set_uniform()</text>
<text text-anchor="start" x="502" y="-721.5" font-family="Helvetica,sans-Serif" font-size="10.00">+ set_uniform()</text>
<text text-anchor="start" x="502" y="-710.5" font-family="Helvetica,sans-Serif" font-size="10.00">+ set_uniform()</text>
<text text-anchor="start" x="502" y="-699.5" font-family="Helvetica,sans-Serif" font-size="10.00">+ set_uniform()</text>
<text text-anchor="start" x="502" y="-688.5" font-family="Helvetica,sans-Serif" font-size="10.00">+ set_uniform()</text>
<text text-anchor="start" x="502" y="-677.5" font-family="Helvetica,sans-Serif" font-size="10.00">+ set_uniform()</text>
<text text-anchor="start" x="502" y="-666.5" font-family="Helvetica,sans-Serif" font-size="10.00">+ set_uniform()</text>
<text text-anchor="start" x="502" y="-655.5" font-family="Helvetica,sans-Serif" font-size="10.00">+ set_uniform()</text>
<text text-anchor="start" x="502" y="-644.5" font-family="Helvetica,sans-Serif" font-size="10.00">+ set_uniform()</text>
<text text-anchor="start" x="502" y="-633.5" font-family="Helvetica,sans-Serif" font-size="10.00">+ set_uniform()</text>
<text text-anchor="start" x="502" y="-622.5" font-family="Helvetica,sans-Serif" font-size="10.00">+ set_uniform()</text>
<text text-anchor="start" x="502" y="-611.5" font-family="Helvetica,sans-Serif" font-size="10.00">+ set_uniform()</text>
<text text-anchor="start" x="502" y="-600.5" font-family="Helvetica,sans-Serif" font-size="10.00">+ set_uniform()</text>
<text text-anchor="start" x="502" y="-589.5" font-family="Helvetica,sans-Serif" font-size="10.00">+ set_uniform()</text>
<text text-anchor="start" x="502" y="-578.5" font-family="Helvetica,sans-Serif" font-size="10.00">+ set_uniform()</text>
<text text-anchor="start" x="502" y="-567.5" font-family="Helvetica,sans-Serif" font-size="10.00">+ set_uniform()</text>
<text text-anchor="start" x="502" y="-556.5" font-family="Helvetica,sans-Serif" font-size="10.00">+ set_uniform()</text>
<text text-anchor="start" x="502" y="-545.5" font-family="Helvetica,sans-Serif" font-size="10.00">+ set_uniform()</text>
<text text-anchor="start" x="502" y="-534.5" font-family="Helvetica,sans-Serif" font-size="10.00">+ set_uniform()</text>
<text text-anchor="start" x="502" y="-523.5" font-family="Helvetica,sans-Serif" font-size="10.00">+ set_uniform()</text>
<text text-anchor="start" x="502" y="-512.5" font-family="Helvetica,sans-Serif" font-size="10.00">+ set_uniform()</text>
<text text-anchor="start" x="502" y="-501.5" font-family="Helvetica,sans-Serif" font-size="10.00">+ set_uniform()</text>
<text text-anchor="start" x="502" y="-490.5" font-family="Helvetica,sans-Serif" font-size="10.00">+ set_uniform()</text>
<text text-anchor="start" x="502" y="-479.5" font-family="Helvetica,sans-Serif" font-size="10.00">+ set_uniform()</text>
<text text-anchor="start" x="502" y="-468.5" font-family="Helvetica,sans-Serif" font-size="10.00">+ set_uniform()</text>
<text text-anchor="start" x="502" y="-457.5" font-family="Helvetica,sans-Serif" font-size="10.00">+ set_uniform()</text>
<text text-anchor="start" x="502" y="-446.5" font-family="Helvetica,sans-Serif" font-size="10.00">+ set_uniform()</text>
<text text-anchor="start" x="502" y="-435.5" font-family="Helvetica,sans-Serif" font-size="10.00">+ set_uniform()</text>
<text text-anchor="start" x="502" y="-424.5" font-family="Helvetica,sans-Serif" font-size="10.00">+ set_uniform()</text>
<text text-anchor="start" x="502" y="-413.5" font-family="Helvetica,sans-Serif" font-size="10.00">+ set_uniform()</text>
<text text-anchor="start" x="502" y="-402.5" font-family="Helvetica,sans-Serif" font-size="10.00">+ set_uniform()</text>
<text text-anchor="start" x="502" y="-391.5" font-family="Helvetica,sans-Serif" font-size="10.00"># get_uniform_location()</text>
<text text-anchor="start" x="502" y="-380.5" font-family="Helvetica,sans-Serif" font-size="10.00"># get_attrib_location()</text>
<text text-anchor="start" x="502" y="-369.5" font-family="Helvetica,sans-Serif" font-size="10.00"># create_shader()</text>
</a>
</g>
</g>
<!-- Node5&#45;&gt;Node11 -->
<g id="edge12" class="edge">
<title>Node5&#45;&gt;Node11</title>
<path fill="none" stroke="#404040" d="M498.61,-1171.27C502.05,-1165.47 505.24,-1159.21 507.5,-1153 510.93,-1143.56 514.15,-1133.92 517.18,-1124.15"/>
<polygon fill="none" stroke="#404040" points="517.19,-1124.1 515.09,-1117.21 520.65,-1112.61 522.75,-1119.51 517.19,-1124.1"/>
<text text-anchor="middle" x="537" y="-1139.5" font-family="Helvetica,sans-Serif" font-size="10.00"> #name_</text>
</g>
<!-- Node6 -->
<g id="node6" class="node">
<title>Node6</title>
<g id="a_node6"><a xlink:title=" ">
<polygon fill="white" stroke="#bfbfbf" points="280.5,-1171.5 280.5,-1228.5 328.5,-1228.5 328.5,-1171.5 280.5,-1171.5"/>
<text text-anchor="middle" x="304.5" y="-1216.5" font-family="Helvetica,sans-Serif" font-size="10.00">GLuint</text>
<polyline fill="none" stroke="#bfbfbf" points="280.5,-1209.5 328.5,-1209.5 "/>
<text text-anchor="middle" x="304.5" y="-1197.5" font-family="Helvetica,sans-Serif" font-size="10.00"> </text>
<polyline fill="none" stroke="#bfbfbf" points="280.5,-1190.5 328.5,-1190.5 "/>
<text text-anchor="middle" x="304.5" y="-1178.5" font-family="Helvetica,sans-Serif" font-size="10.00"> </text>
</a>
</g>
</g>
<!-- Node6&#45;&gt;Node3 -->
<g id="edge5" class="edge">
<title>Node6&#45;&gt;Node3</title>
<path fill="none" stroke="#404040" d="M280.29,-1172.31C276.02,-1166.32 272.11,-1159.74 269.5,-1153 226.51,-1042.08 223.52,-902.37 226.85,-816.8"/>
<polygon fill="none" stroke="#404040" points="226.86,-816.56 223.13,-810.39 227.39,-804.57 231.12,-810.74 226.86,-816.56"/>
<text text-anchor="middle" x="294.5" y="-1139.5" font-family="Helvetica,sans-Serif" font-size="10.00"> #handle_</text>
</g>
<!-- Node6&#45;&gt;Node11 -->
<g id="edge13" class="edge">
<title>Node6&#45;&gt;Node11</title>
<path fill="none" stroke="#404040" d="M319.34,-1171.48C326.06,-1159.09 334.13,-1144.28 341.5,-1131 389.75,-1044.04 444.77,-946.74 487.97,-870.78"/>
<polygon fill="none" stroke="#404040" points="488.05,-870.63 487.54,-863.44 493.98,-860.2 494.49,-867.39 488.05,-870.63"/>
<text text-anchor="middle" x="390" y="-1139.5" font-family="Helvetica,sans-Serif" font-size="10.00"> #program_handle_</text>
</g>
<!-- Node7 -->
<g id="node7" class="node">
<title>Node7</title>
<g id="a_node7"><a xlink:title=" ">
<polygon fill="white" stroke="#bfbfbf" points="127,-219.5 127,-276.5 202,-276.5 202,-219.5 127,-219.5"/>
<text text-anchor="middle" x="164.5" y="-264.5" font-family="Helvetica,sans-Serif" font-size="10.00">render_path</text>
<polyline fill="none" stroke="#bfbfbf" points="127,-257.5 202,-257.5 "/>
<text text-anchor="middle" x="164.5" y="-245.5" font-family="Helvetica,sans-Serif" font-size="10.00"> </text>
<polyline fill="none" stroke="#bfbfbf" points="127,-238.5 202,-238.5 "/>
<text text-anchor="middle" x="164.5" y="-226.5" font-family="Helvetica,sans-Serif" font-size="10.00"> </text>
</a>
</g>
</g>
<!-- Node7&#45;&gt;Node1 -->
<g id="edge6" class="edge">
<title>Node7&#45;&gt;Node1</title>
<path fill="none" stroke="#404040" d="M158.04,-219.24C151.62,-184.04 146.78,-123.53 178.5,-87 200.05,-62.18 287.17,-47.88 345.65,-40.9"/>
<polygon fill="none" stroke="#404040" points="345.74,-40.89 351.24,-36.24 357.66,-39.52 352.16,-44.18 345.74,-40.89"/>
<text text-anchor="middle" x="216.5" y="-117.5" font-family="Helvetica,sans-Serif" font-size="10.00"> +render_path_</text>
</g>
<!-- Node8 -->
<g id="node8" class="node">
<title>Node8</title>
<g id="a_node8"><a xlink:title=" ">
<polygon fill="white" stroke="#bfbfbf" points="244.5,-219.5 244.5,-276.5 282.5,-276.5 282.5,-219.5 244.5,-219.5"/>
<text text-anchor="middle" x="263.5" y="-264.5" font-family="Helvetica,sans-Serif" font-size="10.00">float</text>
<polyline fill="none" stroke="#bfbfbf" points="244.5,-257.5 282.5,-257.5 "/>
<text text-anchor="middle" x="263.5" y="-245.5" font-family="Helvetica,sans-Serif" font-size="10.00"> </text>
<polyline fill="none" stroke="#bfbfbf" points="244.5,-238.5 282.5,-238.5 "/>
<text text-anchor="middle" x="263.5" y="-226.5" font-family="Helvetica,sans-Serif" font-size="10.00"> </text>
</a>
</g>
</g>
<!-- Node8&#45;&gt;Node1 -->
<g id="edge7" class="edge">
<title>Node8&#45;&gt;Node1</title>
<path fill="none" stroke="#404040" d="M259.06,-219.4C255.11,-184.92 253.73,-125.74 282.5,-87 297.78,-66.43 323.03,-53.95 346.27,-46.45"/>
<polygon fill="none" stroke="#404040" points="346.3,-46.44 350.93,-40.91 357.81,-43.06 353.18,-48.59 346.3,-46.44"/>
<text text-anchor="middle" x="339.5" y="-117.5" font-family="Helvetica,sans-Serif" font-size="10.00"> +displacement_scale_</text>
</g>
<!-- Node9 -->
<g id="node9" class="node">
<title>Node9</title>
<g id="a_node9"><a xlink:title=" ">
<polygon fill="white" stroke="#bfbfbf" points="374,-219.5 374,-276.5 427,-276.5 427,-219.5 374,-219.5"/>
<text text-anchor="middle" x="400.5" y="-264.5" font-family="Helvetica,sans-Serif" font-size="10.00">vector2</text>
<polyline fill="none" stroke="#bfbfbf" points="374,-257.5 427,-257.5 "/>
<text text-anchor="middle" x="400.5" y="-245.5" font-family="Helvetica,sans-Serif" font-size="10.00"> </text>
<polyline fill="none" stroke="#bfbfbf" points="374,-238.5 427,-238.5 "/>
<text text-anchor="middle" x="400.5" y="-226.5" font-family="Helvetica,sans-Serif" font-size="10.00"> </text>
</a>
</g>
</g>
<!-- Node9&#45;&gt;Node1 -->
<g id="edge8" class="edge">
<title>Node9&#45;&gt;Node1</title>
<path fill="none" stroke="#404040" d="M400.5,-219.35C400.5,-184.16 400.5,-122.92 400.5,-80.85"/>
<polygon fill="none" stroke="#404040" points="400.5,-80.73 396.5,-74.73 400.5,-68.73 404.5,-74.73 400.5,-80.73"/>
<text text-anchor="middle" x="443" y="-123" font-family="Helvetica,sans-Serif" font-size="10.00"> +texture_offset_</text>
<text text-anchor="middle" x="443" y="-112" font-family="Helvetica,sans-Serif" font-size="10.00">+texture_scale_</text>
</g>
<!-- Node10 -->
<g id="node10" class="node">
<title>Node10</title>
<g id="a_node10"><a xlink:title=" ">
<polygon fill="white" stroke="#bfbfbf" points="450,-214 450,-282 567,-282 567,-214 450,-214"/>
<text text-anchor="start" x="458" y="-270" font-family="Helvetica,sans-Serif" font-size="10.00">vector&lt; mkr::shader</text>
<text text-anchor="middle" x="508.5" y="-259" font-family="Helvetica,sans-Serif" font-size="10.00">_program * &gt;</text>
<polyline fill="none" stroke="#bfbfbf" points="450,-252 567,-252 "/>
<text text-anchor="middle" x="508.5" y="-240" font-family="Helvetica,sans-Serif" font-size="10.00"> </text>
<polyline fill="none" stroke="#bfbfbf" points="450,-233 567,-233 "/>
<text text-anchor="middle" x="508.5" y="-221" font-family="Helvetica,sans-Serif" font-size="10.00"> </text>
</a>
</g>
</g>
<!-- Node10&#45;&gt;Node1 -->
<g id="edge9" class="edge">
<title>Node10&#45;&gt;Node1</title>
<path fill="none" stroke="#404040" d="M511.89,-213.77C513.71,-179.24 511.62,-125.01 486.5,-87 478.4,-74.75 466.3,-64.98 453.72,-57.39"/>
<polygon fill="none" stroke="#404040" points="453.61,-57.32 446.42,-57.92 443.11,-51.51 450.29,-50.92 453.61,-57.32"/>
<text text-anchor="middle" x="562.5" y="-117.5" font-family="Helvetica,sans-Serif" font-size="10.00"> +post_proc_shaders_</text>
</g>
<!-- Node11&#45;&gt;Node1 -->
<g id="edge10" class="edge">
<title>Node11&#45;&gt;Node1</title>
<path fill="none" stroke="#404040" d="M615.58,-362.09C629.73,-231.42 636.53,-111.08 617.5,-87 597.65,-61.88 512.9,-47.73 455.37,-40.85"/>
<polygon fill="none" stroke="#404040" points="455.11,-40.82 448.69,-44.11 443.19,-39.45 449.6,-36.16 455.11,-40.82"/>
<text text-anchor="start" x="628.5" y="-317" font-family="Helvetica,sans-Serif" font-size="10.00"> +alpha_blend_shader</text>
<text text-anchor="middle" x="684.5" y="-306" font-family="Helvetica,sans-Serif" font-size="10.00">_</text>
<text text-anchor="start" x="628.5" y="-295" font-family="Helvetica,sans-Serif" font-size="10.00">+alpha_weight_shader</text>
<text text-anchor="middle" x="684.5" y="-284" font-family="Helvetica,sans-Serif" font-size="10.00">_</text>
<text text-anchor="start" x="628.5" y="-273" font-family="Helvetica,sans-Serif" font-size="10.00">+forward_shader</text>
<text text-anchor="middle" x="684.5" y="-262" font-family="Helvetica,sans-Serif" font-size="10.00">_</text>
<text text-anchor="start" x="628.5" y="-251" font-family="Helvetica,sans-Serif" font-size="10.00">+geometry_shader</text>
<text text-anchor="middle" x="684.5" y="-240" font-family="Helvetica,sans-Serif" font-size="10.00">_</text>
<text text-anchor="start" x="628.5" y="-229" font-family="Helvetica,sans-Serif" font-size="10.00">+light_shader</text>
<text text-anchor="middle" x="684.5" y="-218" font-family="Helvetica,sans-Serif" font-size="10.00">_</text>
<text text-anchor="start" x="628.5" y="-207" font-family="Helvetica,sans-Serif" font-size="10.00">+shadow_shader</text>
<text text-anchor="middle" x="684.5" y="-196" font-family="Helvetica,sans-Serif" font-size="10.00">_2d_</text>
<text text-anchor="start" x="628.5" y="-185" font-family="Helvetica,sans-Serif" font-size="10.00">+shadow_shader</text>
<text text-anchor="middle" x="684.5" y="-174" font-family="Helvetica,sans-Serif" font-size="10.00">_cube_</text>
</g>
<!-- Node12 -->
<g id="node12" class="node">
<title>Node12</title>
<g id="a_node12"><a xlink:title=" ">
<polygon fill="white" stroke="#bfbfbf" points="537,-1171.5 537,-1228.5 658,-1228.5 658,-1171.5 537,-1171.5"/>
<text text-anchor="middle" x="597.5" y="-1216.5" font-family="Helvetica,sans-Serif" font-size="10.00">unique_ptr&lt; GLint[]&gt;</text>
<polyline fill="none" stroke="#bfbfbf" points="537,-1209.5 658,-1209.5 "/>
<text text-anchor="middle" x="597.5" y="-1197.5" font-family="Helvetica,sans-Serif" font-size="10.00"> </text>
<polyline fill="none" stroke="#bfbfbf" points="537,-1190.5 658,-1190.5 "/>
<text text-anchor="middle" x="597.5" y="-1178.5" font-family="Helvetica,sans-Serif" font-size="10.00"> </text>
</a>
</g>
</g>
<!-- Node12&#45;&gt;Node11 -->
<g id="edge11" class="edge">
<title>Node12&#45;&gt;Node11</title>
<path fill="none" stroke="#404040" d="M595.45,-1171.23C594.54,-1158.97 593.38,-1143.17 592.03,-1124.88"/>
<polygon fill="none" stroke="#404040" points="592.02,-1124.82 587.59,-1119.13 591.14,-1112.85 595.57,-1118.54 592.02,-1124.82"/>
<text text-anchor="middle" x="643" y="-1139.5" font-family="Helvetica,sans-Serif" font-size="10.00"> #uniform_handles_</text>
</g>
<!-- Node13 -->
<g id="node13" class="node">
<title>Node13</title>
<g id="a_node13"><a xlink:title=" ">
<polygon fill="white" stroke="#bfbfbf" points="762,-219.5 762,-276.5 809,-276.5 809,-219.5 762,-219.5"/>
<text text-anchor="middle" x="785.5" y="-264.5" font-family="Helvetica,sans-Serif" font-size="10.00">colour</text>
<polyline fill="none" stroke="#bfbfbf" points="762,-257.5 809,-257.5 "/>
<text text-anchor="middle" x="785.5" y="-245.5" font-family="Helvetica,sans-Serif" font-size="10.00"> </text>
<polyline fill="none" stroke="#bfbfbf" points="762,-238.5 809,-238.5 "/>
<text text-anchor="middle" x="785.5" y="-226.5" font-family="Helvetica,sans-Serif" font-size="10.00"> </text>
</a>
</g>
</g>
<!-- Node13&#45;&gt;Node1 -->
<g id="edge14" class="edge">
<title>Node13&#45;&gt;Node1</title>
<path fill="none" stroke="#404040" d="M775.02,-219.36C768.47,-204.18 759.08,-185.54 747.5,-171 710.9,-125.07 698.43,-112.44 645.5,-87 584.34,-57.6 506.65,-44.91 455.35,-39.48"/>
<polygon fill="none" stroke="#404040" points="455.16,-39.46 448.79,-42.85 443.22,-38.28 449.58,-34.89 455.16,-39.46"/>
<text text-anchor="middle" x="777" y="-123" font-family="Helvetica,sans-Serif" font-size="10.00"> +diffuse_colour_</text>
<text text-anchor="middle" x="777" y="-112" font-family="Helvetica,sans-Serif" font-size="10.00">+specular_colour_</text>
</g>
</g>
</svg>
        <g id="navigator" transform="translate(0 0)" fill="#404254">
                <rect fill="#f2f5e9" fill-opacity="0.5" stroke="#606060" stroke-width=".5" x="0" y="0" width="60" height="60"/>
                <use id="zoomplus" xlink:href="#zoomPlus" x="17" y="9" onmousedown="handleZoom(evt,'in')"/>
                <use id="zoomminus" xlink:href="#zoomMin" x="42" y="9" onmousedown="handleZoom(evt,'out')"/>
                <use id="reset" xlink:href="#resetDef" x="30" y="36" onmousedown="handleReset()"/>
                <g id="arrowUp" xlink:href="#dirArrow" transform="translate(30 24)" onmousedown="handlePan(0,-1)">
                  <use xlink:href="#rim" fill="#404040">
                        <set attributeName="fill" to="#808080" begin="arrowUp.mouseover" end="arrowUp.mouseout"/>
                  </use>
                  <path fill="none" stroke="white" stroke-width="1.5" d="M0,-3.0v7 M-2.5,-0.5L0,-3.0L2.5,-0.5"/>
                </g>
                <g id="arrowRight" xlink:href="#dirArrow" transform="rotate(90) translate(36 -43)" onmousedown="handlePan(1,0)">
                  <use xlink:href="#rim" fill="#404040">
                        <set attributeName="fill" to="#808080" begin="arrowRight.mouseover" end="arrowRight.mouseout"/>
                  </use>
                  <path fill="none" stroke="white" stroke-width="1.5" d="M0,-3.0v7 M-2.5,-0.5L0,-3.0L2.5,-0.5"/>
                </g>
                <g id="arrowDown" xlink:href="#dirArrow" transform="rotate(180) translate(-30 -48)" onmousedown="handlePan(0,1)">
                  <use xlink:href="#rim" fill="#404040">
                        <set attributeName="fill" to="#808080" begin="arrowDown.mouseover" end="arrowDown.mouseout"/>
                  </use>
                  <path fill="none" stroke="white" stroke-width="1.5" d="M0,-3.0v7 M-2.5,-0.5L0,-3.0L2.5,-0.5"/>
                </g>
                <g id="arrowLeft" xlink:href="#dirArrow" transform="rotate(270) translate(-36 17)" onmousedown="handlePan(-1,0)">
                  <use xlink:href="#rim" fill="#404040">
                        <set attributeName="fill" to="#808080" begin="arrowLeft.mouseover" end="arrowLeft.mouseout"/>
                  </use>
                  <path fill="none" stroke="white" stroke-width="1.5" d="M0,-3.0v7 M-2.5,-0.5L0,-3.0L2.5,-0.5"/>
                </g>
        </g>
        <svg viewBox="0 0 15 15" width="100%" height="30px" preserveAspectRatio="xMaxYMin meet">
         <g id="arrow_out" transform="scale(0.3 0.3)">
          <a xlink:href="classmkr_1_1material__coll__graph_org.svg" target="_base">
           <rect id="button" ry="5" rx="5" y="6" x="6" height="38" width="38"
                fill="#f2f5e9" fill-opacity="0.5" stroke="#606060" stroke-width="1.0"/>
           <path id="arrow"
             d="M 11.500037,31.436501 C 11.940474,20.09759 22.043105,11.32322 32.158766,21.979434 L 37.068811,17.246167 C 37.068811,17.246167 37.088388,32 37.088388,32 L 22.160133,31.978069 C 22.160133,31.978069 26.997745,27.140456 26.997745,27.140456 C 18.528582,18.264221 13.291696,25.230495 11.500037,31.436501 z"
             style="fill:#404040;"/>
          </a>
         </g>
        </svg>
</svg>
