<?xml version="1.0" encoding="UTF-8" standalone="no"?>
<!DOCTYPE svg PUBLIC "-//W3C//DTD SVG 1.1//EN"
 "http://www.w3.org/Graphics/SVG/1.1/DTD/svg11.dtd">
<!-- Generated by graphviz version 2.43.0 (0)
 -->
<!-- Title: mkr::game_scene Pages: 1 -->
<!--zoomable 656 -->
<svg id="main" version="1.1" xmlns="http://www.w3.org/2000/svg" xmlns:xlink="http://www.w3.org/1999/xlink" xml:space="preserve" onload="init(evt)">
<style type="text/css"><![CDATA[
.edge:hover path { stroke: red; }
.edge:hover polygon { stroke: red; fill: red; }
]]></style>
<script type="text/javascript"><![CDATA[
var edges = document.getElementsByTagName('g');
if (edges && edges.length) {
  for (var i=0;i<edges.length;i++) {
    if (edges[i].id.substr(0,4)=='edge') {
      edges[i].setAttribute('class','edge');
    }
  }
}
]]></script>
        <defs>
                <circle id="rim" cx="0" cy="0" r="7"/>
                <circle id="rim2" cx="0" cy="0" r="3.5"/>
                <g id="zoomPlus">
                        <use xlink:href="#rim" fill="#404040">
                                <set attributeName="fill" to="#808080" begin="zoomplus.mouseover" end="zoomplus.mouseout"/>
                        </use>
                        <path d="M-4,0h8M0,-4v8" fill="none" stroke="white" stroke-width="1.5" pointer-events="none"/>
                </g>
                <g id="zoomMin">
                        <use xlink:href="#rim" fill="#404040">
                                <set attributeName="fill" to="#808080" begin="zoomminus.mouseover" end="zoomminus.mouseout"/>
                        </use>
                        <path d="M-4,0h8" fill="none" stroke="white" stroke-width="1.5" pointer-events="none"/>
                </g>
                <g id="dirArrow">
                        <path fill="none" stroke="white" stroke-width="1.5" d="M0,-3.0v7 M-2.5,-0.5L0,-3.0L2.5,-0.5"/>
                </g>
               <g id="resetDef">
                       <use xlink:href="#rim2" fill="#404040">
                               <set attributeName="fill" to="#808080" begin="reset.mouseover" end="reset.mouseout"/>
                       </use>
               </g>
        </defs>

<script type="text/javascript">
var viewWidth = 597;
var viewHeight = 656;
var sectionId = 'dynsection-1';
</script>
<script xlink:href="svgpan.js"/>
<svg id="graph" class="graph">
<g id="viewport">
<title>mkr::game_scene</title>
<polygon fill="white" stroke="transparent" points="-4,4 -4,-652 593,-652 593,4 -4,4"/>
<!-- Node1 -->
<g id="node1" class="node">
<title>Node1</title>
<g id="a_node1"><a xlink:title=" ">
<polygon fill="#bfbfbf" stroke="black" points="217,-0.5 217,-211.5 322,-211.5 322,-0.5 217,-0.5"/>
<text text-anchor="middle" x="269.5" y="-199.5" font-family="Helvetica,sans-Serif" font-size="10.00">mkr::game_scene</text>
<polyline fill="none" stroke="black" points="217,-192.5 322,-192.5 "/>
<text text-anchor="middle" x="269.5" y="-180.5" font-family="Helvetica,sans-Serif" font-size="10.00"> </text>
<polyline fill="none" stroke="black" points="217,-173.5 322,-173.5 "/>
<text text-anchor="start" x="225" y="-161.5" font-family="Helvetica,sans-Serif" font-size="10.00">+ game_scene()</text>
<text text-anchor="start" x="225" y="-150.5" font-family="Helvetica,sans-Serif" font-size="10.00">+ ~game_scene()</text>
<text text-anchor="start" x="225" y="-139.5" font-family="Helvetica,sans-Serif" font-size="10.00">+ init()</text>
<text text-anchor="start" x="225" y="-128.5" font-family="Helvetica,sans-Serif" font-size="10.00">+ pre_update()</text>
<text text-anchor="start" x="225" y="-117.5" font-family="Helvetica,sans-Serif" font-size="10.00">+ update()</text>
<text text-anchor="start" x="225" y="-106.5" font-family="Helvetica,sans-Serif" font-size="10.00">+ post_update()</text>
<text text-anchor="start" x="225" y="-95.5" font-family="Helvetica,sans-Serif" font-size="10.00">+ exit()</text>
<text text-anchor="start" x="225" y="-84.5" font-family="Helvetica,sans-Serif" font-size="10.00"># init_input()</text>
<text text-anchor="start" x="225" y="-73.5" font-family="Helvetica,sans-Serif" font-size="10.00"># exit_input()</text>
<text text-anchor="start" x="225" y="-62.5" font-family="Helvetica,sans-Serif" font-size="10.00"># init_systems()</text>
<text text-anchor="start" x="225" y="-51.5" font-family="Helvetica,sans-Serif" font-size="10.00"># init_shaders()</text>
<text text-anchor="start" x="225" y="-40.5" font-family="Helvetica,sans-Serif" font-size="10.00"># init_meshes()</text>
<text text-anchor="start" x="225" y="-29.5" font-family="Helvetica,sans-Serif" font-size="10.00"># init_materials()</text>
<text text-anchor="start" x="225" y="-18.5" font-family="Helvetica,sans-Serif" font-size="10.00"># init_levels()</text>
<text text-anchor="start" x="225" y="-7.5" font-family="Helvetica,sans-Serif" font-size="10.00"># init_player()</text>
</a>
</g>
</g>
<!-- Node2 -->
<g id="node2" class="node">
<title>Node2</title>
<g id="a_node2"><a xlink:href="classmkr_1_1scene.html" target="_top" xlink:title=" ">
<polygon fill="white" stroke="black" points="0,-259.5 0,-382.5 95,-382.5 95,-259.5 0,-259.5"/>
<text text-anchor="middle" x="47.5" y="-370.5" font-family="Helvetica,sans-Serif" font-size="10.00">mkr::scene</text>
<polyline fill="none" stroke="black" points="0,-363.5 95,-363.5 "/>
<text text-anchor="middle" x="47.5" y="-351.5" font-family="Helvetica,sans-Serif" font-size="10.00"> </text>
<polyline fill="none" stroke="black" points="0,-344.5 95,-344.5 "/>
<text text-anchor="start" x="8" y="-332.5" font-family="Helvetica,sans-Serif" font-size="10.00">+ scene()</text>
<text text-anchor="start" x="8" y="-321.5" font-family="Helvetica,sans-Serif" font-size="10.00">+ ~scene()</text>
<text text-anchor="start" x="8" y="-310.5" font-family="Helvetica,sans-Serif" font-size="10.00">+ init()</text>
<text text-anchor="start" x="8" y="-299.5" font-family="Helvetica,sans-Serif" font-size="10.00">+ pre_update()</text>
<text text-anchor="start" x="8" y="-288.5" font-family="Helvetica,sans-Serif" font-size="10.00">+ update()</text>
<text text-anchor="start" x="8" y="-277.5" font-family="Helvetica,sans-Serif" font-size="10.00">+ post_update()</text>
<text text-anchor="start" x="8" y="-266.5" font-family="Helvetica,sans-Serif" font-size="10.00">+ exit()</text>
</a>
</g>
</g>
<!-- Node2&#45;&gt;Node1 -->
<g id="edge1" class="edge">
<title>Node2&#45;&gt;Node1</title>
<path fill="none" stroke="midnightblue" d="M102.18,-261.32C102.95,-260.54 103.73,-259.77 104.5,-259 141.12,-222.64 184.03,-183.2 216.92,-153.61"/>
<polygon fill="none" stroke="midnightblue" points="99.65,-258.9 95.12,-268.48 104.63,-263.81 99.65,-258.9"/>
</g>
<!-- Node3 -->
<g id="node3" class="node">
<title>Node3</title>
<g id="a_node3"><a xlink:title=" ">
<polygon fill="white" stroke="#bfbfbf" points="25.5,-458 25.5,-515 69.5,-515 69.5,-458 25.5,-458"/>
<text text-anchor="middle" x="47.5" y="-503" font-family="Helvetica,sans-Serif" font-size="10.00">world</text>
<polyline fill="none" stroke="#bfbfbf" points="25.5,-496 69.5,-496 "/>
<text text-anchor="middle" x="47.5" y="-484" font-family="Helvetica,sans-Serif" font-size="10.00"> </text>
<polyline fill="none" stroke="#bfbfbf" points="25.5,-477 69.5,-477 "/>
<text text-anchor="middle" x="47.5" y="-465" font-family="Helvetica,sans-Serif" font-size="10.00"> </text>
</a>
</g>
</g>
<!-- Node3&#45;&gt;Node2 -->
<g id="edge2" class="edge">
<title>Node3&#45;&gt;Node2</title>
<path fill="none" stroke="#404040" d="M47.5,-457.76C47.5,-440.47 47.5,-417.33 47.5,-395.07"/>
<polygon fill="none" stroke="#404040" points="47.5,-394.83 43.5,-388.83 47.5,-382.83 51.5,-388.83 47.5,-394.83"/>
<text text-anchor="middle" x="69.5" y="-409.5" font-family="Helvetica,sans-Serif" font-size="10.00"> #world_</text>
</g>
<!-- Node4 -->
<g id="node4" class="node">
<title>Node4</title>
<g id="a_node4"><a xlink:href="classmkr_1_1motion__test__system.html" target="_top" xlink:title=" ">
<polygon fill="white" stroke="black" points="446,-281.5 446,-360.5 589,-360.5 589,-281.5 446,-281.5"/>
<text text-anchor="middle" x="517.5" y="-348.5" font-family="Helvetica,sans-Serif" font-size="10.00">mkr::motion_test_system</text>
<polyline fill="none" stroke="black" points="446,-341.5 589,-341.5 "/>
<text text-anchor="middle" x="517.5" y="-329.5" font-family="Helvetica,sans-Serif" font-size="10.00"> </text>
<polyline fill="none" stroke="black" points="446,-322.5 589,-322.5 "/>
<text text-anchor="start" x="454" y="-310.5" font-family="Helvetica,sans-Serif" font-size="10.00">+ motion_test_system()</text>
<text text-anchor="start" x="454" y="-299.5" font-family="Helvetica,sans-Serif" font-size="10.00">+ ~motion_test_system()</text>
<text text-anchor="start" x="454" y="-288.5" font-family="Helvetica,sans-Serif" font-size="10.00">+ operator()()</text>
</a>
</g>
</g>
<!-- Node4&#45;&gt;Node1 -->
<g id="edge3" class="edge">
<title>Node4&#45;&gt;Node1</title>
<path fill="none" stroke="#404040" d="M472.59,-281.43C433.1,-247.51 375.26,-197.83 331.39,-160.15"/>
<polygon fill="none" stroke="#404040" points="331.36,-160.13 324.2,-159.25 322.25,-152.31 329.41,-153.18 331.36,-160.13"/>
<text text-anchor="middle" x="439" y="-233" font-family="Helvetica,sans-Serif" font-size="10.00"> &#45;mts_</text>
</g>
<!-- Node5 -->
<g id="node5" class="node">
<title>Node5</title>
<g id="a_node5"><a xlink:href="classmkr_1_1event__listener.html" target="_top" xlink:title="Used to subscribe to an event_dispatcher to receive event(s) from that event_dispatcher....">
<polygon fill="white" stroke="black" points="359,-441.5 359,-531.5 472,-531.5 472,-441.5 359,-441.5"/>
<text text-anchor="middle" x="415.5" y="-519.5" font-family="Helvetica,sans-Serif" font-size="10.00">mkr::event_listener</text>
<polyline fill="none" stroke="black" points="359,-512.5 472,-512.5 "/>
<text text-anchor="middle" x="415.5" y="-500.5" font-family="Helvetica,sans-Serif" font-size="10.00"> </text>
<polyline fill="none" stroke="black" points="359,-493.5 472,-493.5 "/>
<text text-anchor="start" x="367" y="-481.5" font-family="Helvetica,sans-Serif" font-size="10.00">+ event_listener()</text>
<text text-anchor="start" x="367" y="-470.5" font-family="Helvetica,sans-Serif" font-size="10.00">+ ~event_listener()</text>
<text text-anchor="start" x="367" y="-459.5" font-family="Helvetica,sans-Serif" font-size="10.00">+ set_callback()</text>
<text text-anchor="start" x="367" y="-448.5" font-family="Helvetica,sans-Serif" font-size="10.00">+ invoke_callback()</text>
</a>
</g>
</g>
<!-- Node5&#45;&gt;Node4 -->
<g id="edge4" class="edge">
<title>Node5&#45;&gt;Node4</title>
<path fill="none" stroke="#404040" d="M469.26,-441.18C474.5,-435.43 479.39,-429.32 483.5,-423 493.31,-407.89 500.58,-389.67 505.82,-372.88"/>
<polygon fill="none" stroke="#404040" points="505.93,-372.5 503.76,-365.62 509.28,-360.98 511.45,-367.85 505.93,-372.5"/>
<text text-anchor="middle" x="535" y="-409.5" font-family="Helvetica,sans-Serif" font-size="10.00"> &#45;input_listener_</text>
</g>
<!-- Node7 -->
<g id="node7" class="node">
<title>Node7</title>
<g id="a_node7"><a xlink:href="classmkr_1_1body__control__system.html" target="_top" xlink:title=" ">
<polygon fill="white" stroke="black" points="113.5,-281.5 113.5,-360.5 261.5,-360.5 261.5,-281.5 113.5,-281.5"/>
<text text-anchor="middle" x="187.5" y="-348.5" font-family="Helvetica,sans-Serif" font-size="10.00">mkr::body_control_system</text>
<polyline fill="none" stroke="black" points="113.5,-341.5 261.5,-341.5 "/>
<text text-anchor="middle" x="187.5" y="-329.5" font-family="Helvetica,sans-Serif" font-size="10.00"> </text>
<polyline fill="none" stroke="black" points="113.5,-322.5 261.5,-322.5 "/>
<text text-anchor="start" x="121.5" y="-310.5" font-family="Helvetica,sans-Serif" font-size="10.00">+ body_control_system()</text>
<text text-anchor="start" x="121.5" y="-299.5" font-family="Helvetica,sans-Serif" font-size="10.00">+ ~body_control_system()</text>
<text text-anchor="start" x="121.5" y="-288.5" font-family="Helvetica,sans-Serif" font-size="10.00">+ operator()()</text>
</a>
</g>
</g>
<!-- Node5&#45;&gt;Node7 -->
<g id="edge8" class="edge">
<title>Node5&#45;&gt;Node7</title>
<path fill="none" stroke="#404040" d="M358.76,-456.22C342.45,-446.63 325.13,-435.27 310.5,-423 300.6,-414.7 300.92,-409.84 291.5,-401 283.69,-393.67 267.48,-380.98 250.12,-367.9"/>
<polygon fill="none" stroke="#404040" points="250.02,-367.81 242.82,-367.42 240.41,-360.62 247.61,-361.02 250.02,-367.81"/>
<text text-anchor="middle" x="350" y="-409.5" font-family="Helvetica,sans-Serif" font-size="10.00"> &#45;input_listener_</text>
</g>
<!-- Node9 -->
<g id="node9" class="node">
<title>Node9</title>
<g id="a_node9"><a xlink:href="classmkr_1_1head__control__system.html" target="_top" xlink:title=" ">
<polygon fill="white" stroke="black" points="279.5,-281.5 279.5,-360.5 427.5,-360.5 427.5,-281.5 279.5,-281.5"/>
<text text-anchor="middle" x="353.5" y="-348.5" font-family="Helvetica,sans-Serif" font-size="10.00">mkr::head_control_system</text>
<polyline fill="none" stroke="black" points="279.5,-341.5 427.5,-341.5 "/>
<text text-anchor="middle" x="353.5" y="-329.5" font-family="Helvetica,sans-Serif" font-size="10.00"> </text>
<polyline fill="none" stroke="black" points="279.5,-322.5 427.5,-322.5 "/>
<text text-anchor="start" x="287.5" y="-310.5" font-family="Helvetica,sans-Serif" font-size="10.00">+ head_control_system()</text>
<text text-anchor="start" x="287.5" y="-299.5" font-family="Helvetica,sans-Serif" font-size="10.00">+ ~head_control_system()</text>
<text text-anchor="start" x="287.5" y="-288.5" font-family="Helvetica,sans-Serif" font-size="10.00">+ operator()()</text>
</a>
</g>
</g>
<!-- Node5&#45;&gt;Node9 -->
<g id="edge11" class="edge">
<title>Node5&#45;&gt;Node9</title>
<path fill="none" stroke="#404040" d="M405.84,-441.08C402.48,-427.99 398.33,-413.76 393.5,-401 389.82,-391.29 385.3,-381.2 380.64,-371.61"/>
<polygon fill="none" stroke="#404040" points="380.51,-371.36 374.25,-367.79 375.14,-360.63 381.4,-364.2 380.51,-371.36"/>
<text text-anchor="middle" x="440" y="-409.5" font-family="Helvetica,sans-Serif" font-size="10.00"> &#45;input_listener_</text>
</g>
<!-- Node6 -->
<g id="node6" class="node">
<title>Node6</title>
<g id="a_node6"><a xlink:title=" ">
<polygon fill="white" stroke="#bfbfbf" points="356,-579.5 356,-647.5 475,-647.5 475,-579.5 356,-579.5"/>
<text text-anchor="start" x="364" y="-635.5" font-family="Helvetica,sans-Serif" font-size="10.00">function&lt; void(const</text>
<text text-anchor="middle" x="415.5" y="-624.5" font-family="Helvetica,sans-Serif" font-size="10.00"> mkr::event *)&gt;</text>
<polyline fill="none" stroke="#bfbfbf" points="356,-617.5 475,-617.5 "/>
<text text-anchor="middle" x="415.5" y="-605.5" font-family="Helvetica,sans-Serif" font-size="10.00"> </text>
<polyline fill="none" stroke="#bfbfbf" points="356,-598.5 475,-598.5 "/>
<text text-anchor="middle" x="415.5" y="-586.5" font-family="Helvetica,sans-Serif" font-size="10.00"> </text>
</a>
</g>
</g>
<!-- Node6&#45;&gt;Node5 -->
<g id="edge5" class="edge">
<title>Node6&#45;&gt;Node5</title>
<path fill="none" stroke="#404040" d="M415.5,-579.33C415.5,-568.37 415.5,-555.86 415.5,-543.67"/>
<polygon fill="none" stroke="#404040" points="415.5,-543.66 411.5,-537.66 415.5,-531.66 419.5,-537.66 415.5,-543.66"/>
<text text-anchor="middle" x="442" y="-553" font-family="Helvetica,sans-Serif" font-size="10.00"> &#45;callback_</text>
</g>
<!-- Node7&#45;&gt;Node1 -->
<g id="edge6" class="edge">
<title>Node7&#45;&gt;Node1</title>
<path fill="none" stroke="#404040" d="M202.35,-281.43C208.8,-264.66 216.74,-244.04 224.87,-222.92"/>
<polygon fill="none" stroke="#404040" points="224.96,-222.7 223.38,-215.66 229.27,-211.5 230.85,-218.54 224.96,-222.7"/>
<text text-anchor="middle" x="236" y="-233" font-family="Helvetica,sans-Serif" font-size="10.00"> &#45;bcs_</text>
</g>
<!-- Node8 -->
<g id="node8" class="node">
<title>Node8</title>
<g id="a_node8"><a xlink:title=" ">
<polygon fill="white" stroke="#bfbfbf" points="170,-458 170,-515 223,-515 223,-458 170,-458"/>
<text text-anchor="middle" x="196.5" y="-503" font-family="Helvetica,sans-Serif" font-size="10.00">vector3</text>
<polyline fill="none" stroke="#bfbfbf" points="170,-496 223,-496 "/>
<text text-anchor="middle" x="196.5" y="-484" font-family="Helvetica,sans-Serif" font-size="10.00"> </text>
<polyline fill="none" stroke="#bfbfbf" points="170,-477 223,-477 "/>
<text text-anchor="middle" x="196.5" y="-465" font-family="Helvetica,sans-Serif" font-size="10.00"> </text>
</a>
</g>
</g>
<!-- Node8&#45;&gt;Node7 -->
<g id="edge7" class="edge">
<title>Node8&#45;&gt;Node7</title>
<path fill="none" stroke="#404040" d="M173.3,-457.7C166.14,-447.45 159.18,-435.31 155.5,-423 150.54,-406.41 153.56,-388.36 159.36,-372.17"/>
<polygon fill="none" stroke="#404040" points="159.48,-371.87 158.03,-364.81 163.99,-360.76 165.44,-367.82 159.48,-371.87"/>
<text text-anchor="middle" x="186.5" y="-415" font-family="Helvetica,sans-Serif" font-size="10.00"> &#45;rotation_</text>
<text text-anchor="middle" x="186.5" y="-404" font-family="Helvetica,sans-Serif" font-size="10.00">&#45;translation_</text>
</g>
<!-- Node8&#45;&gt;Node9 -->
<g id="edge10" class="edge">
<title>Node8&#45;&gt;Node9</title>
<path fill="none" stroke="#404040" d="M206.44,-457.61C213.8,-439.87 225.19,-417.26 240.5,-401 251.16,-389.68 257.55,-391.61 270.5,-383 277.77,-378.16 285.28,-372.96 292.68,-367.69"/>
<polygon fill="none" stroke="#404040" points="292.93,-367.51 295.47,-360.76 302.67,-360.51 300.14,-367.26 292.93,-367.51"/>
<text text-anchor="middle" x="266" y="-409.5" font-family="Helvetica,sans-Serif" font-size="10.00"> &#45;rotation_</text>
</g>
<!-- Node9&#45;&gt;Node1 -->
<g id="edge9" class="edge">
<title>Node9&#45;&gt;Node1</title>
<path fill="none" stroke="#404040" d="M338.29,-281.43C331.68,-264.66 323.54,-244.04 315.21,-222.92"/>
<polygon fill="none" stroke="#404040" points="315.11,-222.66 309.19,-218.55 310.71,-211.5 316.63,-215.61 315.11,-222.66"/>
<text text-anchor="middle" x="336" y="-233" font-family="Helvetica,sans-Serif" font-size="10.00"> &#45;hcs_</text>
</g>
</g>
</svg>
        <g id="navigator" transform="translate(0 0)" fill="#404254">
                <rect fill="#f2f5e9" fill-opacity="0.5" stroke="#606060" stroke-width=".5" x="0" y="0" width="60" height="60"/>
                <use id="zoomplus" xlink:href="#zoomPlus" x="17" y="9" onmousedown="handleZoom(evt,'in')"/>
                <use id="zoomminus" xlink:href="#zoomMin" x="42" y="9" onmousedown="handleZoom(evt,'out')"/>
                <use id="reset" xlink:href="#resetDef" x="30" y="36" onmousedown="handleReset()"/>
                <g id="arrowUp" xlink:href="#dirArrow" transform="translate(30 24)" onmousedown="handlePan(0,-1)">
                  <use xlink:href="#rim" fill="#404040">
                        <set attributeName="fill" to="#808080" begin="arrowUp.mouseover" end="arrowUp.mouseout"/>
                  </use>
                  <path fill="none" stroke="white" stroke-width="1.5" d="M0,-3.0v7 M-2.5,-0.5L0,-3.0L2.5,-0.5"/>
                </g>
                <g id="arrowRight" xlink:href="#dirArrow" transform="rotate(90) translate(36 -43)" onmousedown="handlePan(1,0)">
                  <use xlink:href="#rim" fill="#404040">
                        <set attributeName="fill" to="#808080" begin="arrowRight.mouseover" end="arrowRight.mouseout"/>
                  </use>
                  <path fill="none" stroke="white" stroke-width="1.5" d="M0,-3.0v7 M-2.5,-0.5L0,-3.0L2.5,-0.5"/>
                </g>
                <g id="arrowDown" xlink:href="#dirArrow" transform="rotate(180) translate(-30 -48)" onmousedown="handlePan(0,1)">
                  <use xlink:href="#rim" fill="#404040">
                        <set attributeName="fill" to="#808080" begin="arrowDown.mouseover" end="arrowDown.mouseout"/>
                  </use>
                  <path fill="none" stroke="white" stroke-width="1.5" d="M0,-3.0v7 M-2.5,-0.5L0,-3.0L2.5,-0.5"/>
                </g>
                <g id="arrowLeft" xlink:href="#dirArrow" transform="rotate(270) translate(-36 17)" onmousedown="handlePan(-1,0)">
                  <use xlink:href="#rim" fill="#404040">
                        <set attributeName="fill" to="#808080" begin="arrowLeft.mouseover" end="arrowLeft.mouseout"/>
                  </use>
                  <path fill="none" stroke="white" stroke-width="1.5" d="M0,-3.0v7 M-2.5,-0.5L0,-3.0L2.5,-0.5"/>
                </g>
        </g>
        <svg viewBox="0 0 15 15" width="100%" height="30px" preserveAspectRatio="xMaxYMin meet">
         <g id="arrow_out" transform="scale(0.3 0.3)">
          <a xlink:href="classmkr_1_1game__scene__coll__graph_org.svg" target="_base">
           <rect id="button" ry="5" rx="5" y="6" x="6" height="38" width="38"
                fill="#f2f5e9" fill-opacity="0.5" stroke="#606060" stroke-width="1.0"/>
           <path id="arrow"
             d="M 11.500037,31.436501 C 11.940474,20.09759 22.043105,11.32322 32.158766,21.979434 L 37.068811,17.246167 C 37.068811,17.246167 37.088388,32 37.088388,32 L 22.160133,31.978069 C 22.160133,31.978069 26.997745,27.140456 26.997745,27.140456 C 18.528582,18.264221 13.291696,25.230495 11.500037,31.436501 z"
             style="fill:#404040;"/>
          </a>
         </g>
        </svg>
</svg>
