<?xml version="1.0" encoding="UTF-8" standalone="no"?>
<!DOCTYPE svg PUBLIC "-//W3C//DTD SVG 1.1//EN"
 "http://www.w3.org/Graphics/SVG/1.1/DTD/svg11.dtd">
<!-- Generated by graphviz version 2.43.0 (0)
 -->
<!-- Title: mkr::sdl_event Pages: 1 -->
<svg width="174pt" height="182pt"
 viewBox="0.00 0.00 173.50 182.00" xmlns="http://www.w3.org/2000/svg" xmlns:xlink="http://www.w3.org/1999/xlink">
<g id="graph0" class="graph" transform="scale(1 1) rotate(0) translate(4 178)">
<title>mkr::sdl_event</title>
<polygon fill="white" stroke="transparent" points="-4,4 -4,-178 169.5,-178 169.5,4 -4,4"/>
<!-- Node1 -->
<g id="node1" class="node">
<title>Node1</title>
<g id="a_node1"><a xlink:title=" ">
<polygon fill="#bfbfbf" stroke="black" points="35,-0.5 35,-57.5 124,-57.5 124,-0.5 35,-0.5"/>
<text text-anchor="middle" x="79.5" y="-45.5" font-family="Helvetica,sans-Serif" font-size="10.00">mkr::sdl_event</text>
<polyline fill="none" stroke="black" points="35,-38.5 124,-38.5 "/>
<text text-anchor="middle" x="79.5" y="-26.5" font-family="Helvetica,sans-Serif" font-size="10.00"> </text>
<polyline fill="none" stroke="black" points="35,-19.5 124,-19.5 "/>
<text text-anchor="middle" x="79.5" y="-7.5" font-family="Helvetica,sans-Serif" font-size="10.00"> </text>
</a>
</g>
</g>
<!-- Node2 -->
<g id="node2" class="node">
<title>Node2</title>
<g id="a_node2"><a xlink:href="classmkr_1_1event.html" target="_top" xlink:title="event(s) contain data that is dispatched by an event_dispatcher, and is received by an event_listener...">
<polygon fill="white" stroke="black" points="0,-105.5 0,-173.5 71,-173.5 71,-105.5 0,-105.5"/>
<text text-anchor="middle" x="35.5" y="-161.5" font-family="Helvetica,sans-Serif" font-size="10.00">mkr::event</text>
<polyline fill="none" stroke="black" points="0,-154.5 71,-154.5 "/>
<text text-anchor="middle" x="35.5" y="-142.5" font-family="Helvetica,sans-Serif" font-size="10.00"> </text>
<polyline fill="none" stroke="black" points="0,-135.5 71,-135.5 "/>
<text text-anchor="start" x="8" y="-123.5" font-family="Helvetica,sans-Serif" font-size="10.00">+ event()</text>
<text text-anchor="start" x="8" y="-112.5" font-family="Helvetica,sans-Serif" font-size="10.00">+ ~event()</text>
</a>
</g>
</g>
<!-- Node2&#45;&gt;Node1 -->
<g id="edge1" class="edge">
<title>Node2&#45;&gt;Node1</title>
<path fill="none" stroke="midnightblue" d="M52.81,-95.82C57.99,-83.05 63.53,-69.38 68.22,-57.83"/>
<polygon fill="none" stroke="midnightblue" points="49.46,-94.77 48.94,-105.36 55.94,-97.41 49.46,-94.77"/>
</g>
<!-- Node3 -->
<g id="node3" class="node">
<title>Node3</title>
<g id="a_node3"><a xlink:title=" ">
<polygon fill="white" stroke="#bfbfbf" points="89.5,-111 89.5,-168 157.5,-168 157.5,-111 89.5,-111"/>
<text text-anchor="middle" x="123.5" y="-156" font-family="Helvetica,sans-Serif" font-size="10.00">SDL_Event</text>
<polyline fill="none" stroke="#bfbfbf" points="89.5,-149 157.5,-149 "/>
<text text-anchor="middle" x="123.5" y="-137" font-family="Helvetica,sans-Serif" font-size="10.00"> </text>
<polyline fill="none" stroke="#bfbfbf" points="89.5,-130 157.5,-130 "/>
<text text-anchor="middle" x="123.5" y="-118" font-family="Helvetica,sans-Serif" font-size="10.00"> </text>
</a>
</g>
</g>
<!-- Node3&#45;&gt;Node1 -->
<g id="edge2" class="edge">
<title>Node3&#45;&gt;Node1</title>
<path fill="none" stroke="#404040" d="M112.28,-110.84C107.11,-98.09 100.88,-82.73 95.25,-68.84"/>
<polygon fill="none" stroke="#404040" points="95.21,-68.73 89.24,-64.67 90.7,-57.61 96.66,-61.67 95.21,-68.73"/>
<text text-anchor="middle" x="133.5" y="-79" font-family="Helvetica,sans-Serif" font-size="10.00"> +sdl_event_</text>
</g>
</g>
</svg>
