<?xml version="1.0" encoding="UTF-8" standalone="no"?>
<!DOCTYPE svg PUBLIC "-//W3C//DTD SVG 1.1//EN"
 "http://www.w3.org/Graphics/SVG/1.1/DTD/svg11.dtd">
<!-- Generated by graphviz version 2.43.0 (0)
 -->
<!-- Title: mkr::texture_cube Pages: 1 -->
<svg width="338pt" height="376pt"
 viewBox="0.00 0.00 338.00 376.00" xmlns="http://www.w3.org/2000/svg" xmlns:xlink="http://www.w3.org/1999/xlink">
<g id="graph0" class="graph" transform="scale(1 1) rotate(0) translate(4 372)">
<title>mkr::texture_cube</title>
<polygon fill="white" stroke="transparent" points="-4,4 -4,-372 334,-372 334,4 -4,4"/>
<!-- Node1 -->
<g id="node1" class="node">
<title>Node1</title>
<g id="a_node1"><a xlink:title=" ">
<polygon fill="#bfbfbf" stroke="black" points="141.5,-0.5 141.5,-68.5 248.5,-68.5 248.5,-0.5 141.5,-0.5"/>
<text text-anchor="middle" x="195" y="-56.5" font-family="Helvetica,sans-Serif" font-size="10.00">mkr::texture_cube</text>
<polyline fill="none" stroke="black" points="141.5,-49.5 248.5,-49.5 "/>
<text text-anchor="middle" x="195" y="-37.5" font-family="Helvetica,sans-Serif" font-size="10.00"> </text>
<polyline fill="none" stroke="black" points="141.5,-30.5 248.5,-30.5 "/>
<text text-anchor="start" x="149.5" y="-18.5" font-family="Helvetica,sans-Serif" font-size="10.00">+ texture_cube()</text>
<text text-anchor="start" x="149.5" y="-7.5" font-family="Helvetica,sans-Serif" font-size="10.00">+ ~texture_cube()</text>
</a>
</g>
</g>
<!-- Node2 -->
<g id="node2" class="node">
<title>Node2</title>
<g id="a_node2"><a xlink:href="classmkr_1_1texture.html" target="_top" xlink:title=" ">
<polygon fill="white" stroke="black" points="140,-106.5 140,-251.5 250,-251.5 250,-106.5 140,-106.5"/>
<text text-anchor="middle" x="195" y="-239.5" font-family="Helvetica,sans-Serif" font-size="10.00">mkr::texture</text>
<polyline fill="none" stroke="black" points="140,-232.5 250,-232.5 "/>
<text text-anchor="middle" x="195" y="-220.5" font-family="Helvetica,sans-Serif" font-size="10.00"> </text>
<polyline fill="none" stroke="black" points="140,-213.5 250,-213.5 "/>
<text text-anchor="start" x="148" y="-201.5" font-family="Helvetica,sans-Serif" font-size="10.00">+ ~texture()</text>
<text text-anchor="start" x="148" y="-190.5" font-family="Helvetica,sans-Serif" font-size="10.00">+ name()</text>
<text text-anchor="start" x="148" y="-179.5" font-family="Helvetica,sans-Serif" font-size="10.00">+ width()</text>
<text text-anchor="start" x="148" y="-168.5" font-family="Helvetica,sans-Serif" font-size="10.00">+ height()</text>
<text text-anchor="start" x="148" y="-157.5" font-family="Helvetica,sans-Serif" font-size="10.00">+ wrap_mode()</text>
<text text-anchor="start" x="148" y="-146.5" font-family="Helvetica,sans-Serif" font-size="10.00">+ handle()</text>
<text text-anchor="start" x="148" y="-135.5" font-family="Helvetica,sans-Serif" font-size="10.00">+ bind()</text>
<text text-anchor="start" x="148" y="-124.5" font-family="Helvetica,sans-Serif" font-size="10.00"># texture()</text>
<text text-anchor="start" x="148" y="-113.5" font-family="Helvetica,sans-Serif" font-size="10.00"># mip_map_level()</text>
</a>
</g>
</g>
<!-- Node2&#45;&gt;Node1 -->
<g id="edge1" class="edge">
<title>Node2&#45;&gt;Node1</title>
<path fill="none" stroke="midnightblue" d="M195,-96.18C195,-86.5 195,-77.09 195,-68.68"/>
<polygon fill="none" stroke="midnightblue" points="191.5,-96.33 195,-106.33 198.5,-96.33 191.5,-96.33"/>
</g>
<!-- Node3 -->
<g id="node3" class="node">
<title>Node3</title>
<g id="a_node3"><a xlink:title=" ">
<polygon fill="white" stroke="#bfbfbf" points="0,-310.5 0,-367.5 114,-367.5 114,-310.5 0,-310.5"/>
<text text-anchor="middle" x="57" y="-355.5" font-family="Helvetica,sans-Serif" font-size="10.00">texture_wrap_mode</text>
<polyline fill="none" stroke="#bfbfbf" points="0,-348.5 114,-348.5 "/>
<text text-anchor="middle" x="57" y="-336.5" font-family="Helvetica,sans-Serif" font-size="10.00"> </text>
<polyline fill="none" stroke="#bfbfbf" points="0,-329.5 114,-329.5 "/>
<text text-anchor="middle" x="57" y="-317.5" font-family="Helvetica,sans-Serif" font-size="10.00"> </text>
</a>
</g>
</g>
<!-- Node3&#45;&gt;Node2 -->
<g id="edge2" class="edge">
<title>Node3&#45;&gt;Node2</title>
<path fill="none" stroke="#404040" d="M62.43,-310.48C65.95,-297.38 71.5,-282 80,-270 93.36,-251.15 111.77,-234.32 129.96,-220.45"/>
<polygon fill="none" stroke="#404040" points="130.05,-220.39 132.51,-213.61 139.71,-213.27 137.25,-220.05 130.05,-220.39"/>
<text text-anchor="middle" x="117" y="-278.5" font-family="Helvetica,sans-Serif" font-size="10.00"> #wrap_mode_</text>
</g>
<!-- Node4 -->
<g id="node4" class="node">
<title>Node4</title>
<g id="a_node4"><a xlink:title=" ">
<polygon fill="white" stroke="#bfbfbf" points="132,-310.5 132,-367.5 188,-367.5 188,-310.5 132,-310.5"/>
<text text-anchor="middle" x="160" y="-355.5" font-family="Helvetica,sans-Serif" font-size="10.00">uint32_t</text>
<polyline fill="none" stroke="#bfbfbf" points="132,-348.5 188,-348.5 "/>
<text text-anchor="middle" x="160" y="-336.5" font-family="Helvetica,sans-Serif" font-size="10.00"> </text>
<polyline fill="none" stroke="#bfbfbf" points="132,-329.5 188,-329.5 "/>
<text text-anchor="middle" x="160" y="-317.5" font-family="Helvetica,sans-Serif" font-size="10.00"> </text>
</a>
</g>
</g>
<!-- Node4&#45;&gt;Node2 -->
<g id="edge3" class="edge">
<title>Node4&#45;&gt;Node2</title>
<path fill="none" stroke="#404040" d="M158.25,-310.32C158.02,-297.89 158.51,-283.11 161,-270 161.41,-267.82 161.88,-265.62 162.38,-263.41"/>
<polygon fill="none" stroke="#404040" points="162.44,-263.19 160.08,-256.38 165.46,-251.57 167.82,-258.39 162.44,-263.19"/>
<text text-anchor="middle" x="185" y="-284" font-family="Helvetica,sans-Serif" font-size="10.00"> #height_</text>
<text text-anchor="middle" x="185" y="-273" font-family="Helvetica,sans-Serif" font-size="10.00">#width_</text>
</g>
<!-- Node5 -->
<g id="node5" class="node">
<title>Node5</title>
<g id="a_node5"><a xlink:title=" ">
<polygon fill="white" stroke="#bfbfbf" points="209,-310.5 209,-367.5 253,-367.5 253,-310.5 209,-310.5"/>
<text text-anchor="middle" x="231" y="-355.5" font-family="Helvetica,sans-Serif" font-size="10.00">string</text>
<polyline fill="none" stroke="#bfbfbf" points="209,-348.5 253,-348.5 "/>
<text text-anchor="middle" x="231" y="-336.5" font-family="Helvetica,sans-Serif" font-size="10.00"> </text>
<polyline fill="none" stroke="#bfbfbf" points="209,-329.5 253,-329.5 "/>
<text text-anchor="middle" x="231" y="-317.5" font-family="Helvetica,sans-Serif" font-size="10.00"> </text>
</a>
</g>
</g>
<!-- Node5&#45;&gt;Node2 -->
<g id="edge4" class="edge">
<title>Node5&#45;&gt;Node2</title>
<path fill="none" stroke="#404040" d="M224.73,-310.48C221.7,-297.19 217.89,-280.46 214.01,-263.45"/>
<polygon fill="none" stroke="#404040" points="214,-263.37 208.76,-258.41 211.33,-251.67 216.56,-256.63 214,-263.37"/>
<text text-anchor="middle" x="242.5" y="-278.5" font-family="Helvetica,sans-Serif" font-size="10.00"> #name_</text>
</g>
<!-- Node6 -->
<g id="node6" class="node">
<title>Node6</title>
<g id="a_node6"><a xlink:title=" ">
<polygon fill="white" stroke="#bfbfbf" points="275,-310.5 275,-367.5 323,-367.5 323,-310.5 275,-310.5"/>
<text text-anchor="middle" x="299" y="-355.5" font-family="Helvetica,sans-Serif" font-size="10.00">GLuint</text>
<polyline fill="none" stroke="#bfbfbf" points="275,-348.5 323,-348.5 "/>
<text text-anchor="middle" x="299" y="-336.5" font-family="Helvetica,sans-Serif" font-size="10.00"> </text>
<polyline fill="none" stroke="#bfbfbf" points="275,-329.5 323,-329.5 "/>
<text text-anchor="middle" x="299" y="-317.5" font-family="Helvetica,sans-Serif" font-size="10.00"> </text>
</a>
</g>
</g>
<!-- Node6&#45;&gt;Node2 -->
<g id="edge5" class="edge">
<title>Node6&#45;&gt;Node2</title>
<path fill="none" stroke="#404040" d="M288.8,-310.34C283.62,-297.64 276.78,-282.64 269,-270 265.37,-264.1 261.38,-258.16 257.2,-252.31"/>
<polygon fill="none" stroke="#404040" points="257.13,-252.21 250.35,-249.75 250.01,-242.55 256.79,-245.01 257.13,-252.21"/>
<text text-anchor="middle" x="305" y="-278.5" font-family="Helvetica,sans-Serif" font-size="10.00"> #handle_</text>
</g>
</g>
</svg>
