<?xml version="1.0" encoding="UTF-8" standalone="no"?>
<!DOCTYPE svg PUBLIC "-//W3C//DTD SVG 1.1//EN"
 "http://www.w3.org/Graphics/SVG/1.1/DTD/svg11.dtd">
<!-- Generated by graphviz version 2.43.0 (0)
 -->
<!-- Title: mkr::head_control_system Pages: 1 -->
<svg width="200pt" height="342pt"
 viewBox="0.00 0.00 199.50 342.00" xmlns="http://www.w3.org/2000/svg" xmlns:xlink="http://www.w3.org/1999/xlink">
<g id="graph0" class="graph" transform="scale(1 1) rotate(0) translate(4 338)">
<title>mkr::head_control_system</title>
<polygon fill="white" stroke="transparent" points="-4,4 -4,-338 195.5,-338 195.5,4 -4,4"/>
<!-- Node1 -->
<g id="node1" class="node">
<title>Node1</title>
<g id="a_node1"><a xlink:title=" ">
<polygon fill="#bfbfbf" stroke="black" points="0,-0.5 0,-79.5 148,-79.5 148,-0.5 0,-0.5"/>
<text text-anchor="middle" x="74" y="-67.5" font-family="Helvetica,sans-Serif" font-size="10.00">mkr::head_control_system</text>
<polyline fill="none" stroke="black" points="0,-60.5 148,-60.5 "/>
<text text-anchor="middle" x="74" y="-48.5" font-family="Helvetica,sans-Serif" font-size="10.00"> </text>
<polyline fill="none" stroke="black" points="0,-41.5 148,-41.5 "/>
<text text-anchor="start" x="8" y="-29.5" font-family="Helvetica,sans-Serif" font-size="10.00">+ head_control_system()</text>
<text text-anchor="start" x="8" y="-18.5" font-family="Helvetica,sans-Serif" font-size="10.00">+ ~head_control_system()</text>
<text text-anchor="start" x="8" y="-7.5" font-family="Helvetica,sans-Serif" font-size="10.00">+ operator()()</text>
</a>
</g>
</g>
<!-- Node2 -->
<g id="node2" class="node">
<title>Node2</title>
<g id="a_node2"><a xlink:title=" ">
<polygon fill="white" stroke="#bfbfbf" points="4.5,-144 4.5,-201 57.5,-201 57.5,-144 4.5,-144"/>
<text text-anchor="middle" x="31" y="-189" font-family="Helvetica,sans-Serif" font-size="10.00">vector3</text>
<polyline fill="none" stroke="#bfbfbf" points="4.5,-182 57.5,-182 "/>
<text text-anchor="middle" x="31" y="-170" font-family="Helvetica,sans-Serif" font-size="10.00"> </text>
<polyline fill="none" stroke="#bfbfbf" points="4.5,-163 57.5,-163 "/>
<text text-anchor="middle" x="31" y="-151" font-family="Helvetica,sans-Serif" font-size="10.00"> </text>
</a>
</g>
</g>
<!-- Node2&#45;&gt;Node1 -->
<g id="edge1" class="edge">
<title>Node2&#45;&gt;Node1</title>
<path fill="none" stroke="#404040" d="M34.39,-143.8C36.57,-129.82 39.96,-112.75 45,-98 45.81,-95.62 46.71,-93.21 47.67,-90.81"/>
<polygon fill="none" stroke="#404040" points="47.75,-90.62 46.47,-83.52 52.53,-79.61 53.81,-86.71 47.75,-90.62"/>
<text text-anchor="middle" x="70.5" y="-101" font-family="Helvetica,sans-Serif" font-size="10.00"> &#45;rotation_</text>
</g>
<!-- Node3 -->
<g id="node3" class="node">
<title>Node3</title>
<g id="a_node3"><a xlink:href="classmkr_1_1event__listener.html" target="_top" xlink:title="Used to subscribe to an event_dispatcher to receive event(s) from that event_dispatcher....">
<polygon fill="white" stroke="black" points="75.5,-127.5 75.5,-217.5 188.5,-217.5 188.5,-127.5 75.5,-127.5"/>
<text text-anchor="middle" x="132" y="-205.5" font-family="Helvetica,sans-Serif" font-size="10.00">mkr::event_listener</text>
<polyline fill="none" stroke="black" points="75.5,-198.5 188.5,-198.5 "/>
<text text-anchor="middle" x="132" y="-186.5" font-family="Helvetica,sans-Serif" font-size="10.00"> </text>
<polyline fill="none" stroke="black" points="75.5,-179.5 188.5,-179.5 "/>
<text text-anchor="start" x="83.5" y="-167.5" font-family="Helvetica,sans-Serif" font-size="10.00">+ event_listener()</text>
<text text-anchor="start" x="83.5" y="-156.5" font-family="Helvetica,sans-Serif" font-size="10.00">+ ~event_listener()</text>
<text text-anchor="start" x="83.5" y="-145.5" font-family="Helvetica,sans-Serif" font-size="10.00">+ set_callback()</text>
<text text-anchor="start" x="83.5" y="-134.5" font-family="Helvetica,sans-Serif" font-size="10.00">+ invoke_callback()</text>
</a>
</g>
</g>
<!-- Node3&#45;&gt;Node1 -->
<g id="edge2" class="edge">
<title>Node3&#45;&gt;Node1</title>
<path fill="none" stroke="#404040" d="M112.36,-127.32C107.18,-115.66 101.56,-103 96.25,-91.06"/>
<polygon fill="none" stroke="#404040" points="96.16,-90.85 90.07,-87 91.28,-79.89 97.38,-83.75 96.16,-90.85"/>
<text text-anchor="middle" x="142.5" y="-101" font-family="Helvetica,sans-Serif" font-size="10.00"> &#45;input_listener_</text>
</g>
<!-- Node4 -->
<g id="node4" class="node">
<title>Node4</title>
<g id="a_node4"><a xlink:title=" ">
<polygon fill="white" stroke="#bfbfbf" points="72.5,-265.5 72.5,-333.5 191.5,-333.5 191.5,-265.5 72.5,-265.5"/>
<text text-anchor="start" x="80.5" y="-321.5" font-family="Helvetica,sans-Serif" font-size="10.00">function&lt; void(const</text>
<text text-anchor="middle" x="132" y="-310.5" font-family="Helvetica,sans-Serif" font-size="10.00"> mkr::event *)&gt;</text>
<polyline fill="none" stroke="#bfbfbf" points="72.5,-303.5 191.5,-303.5 "/>
<text text-anchor="middle" x="132" y="-291.5" font-family="Helvetica,sans-Serif" font-size="10.00"> </text>
<polyline fill="none" stroke="#bfbfbf" points="72.5,-284.5 191.5,-284.5 "/>
<text text-anchor="middle" x="132" y="-272.5" font-family="Helvetica,sans-Serif" font-size="10.00"> </text>
</a>
</g>
</g>
<!-- Node4&#45;&gt;Node3 -->
<g id="edge3" class="edge">
<title>Node4&#45;&gt;Node3</title>
<path fill="none" stroke="#404040" d="M132,-265.33C132,-254.37 132,-241.86 132,-229.67"/>
<polygon fill="none" stroke="#404040" points="132,-229.66 128,-223.66 132,-217.66 136,-223.66 132,-229.66"/>
<text text-anchor="middle" x="158.5" y="-239" font-family="Helvetica,sans-Serif" font-size="10.00"> &#45;callback_</text>
</g>
</g>
</svg>
