<?xml version="1.0" encoding="UTF-8" standalone="no"?>
<!DOCTYPE svg PUBLIC "-//W3C//DTD SVG 1.1//EN"
 "http://www.w3.org/Graphics/SVG/1.1/DTD/svg11.dtd">
<!-- Generated by graphviz version 2.43.0 (0)
 -->
<!-- Title: mkr::sdl_message_pump Pages: 1 -->
<svg width="462pt" height="386pt"
 viewBox="0.00 0.00 461.50 386.00" xmlns="http://www.w3.org/2000/svg" xmlns:xlink="http://www.w3.org/1999/xlink">
<g id="graph0" class="graph" transform="scale(1 1) rotate(0) translate(4 382)">
<title>mkr::sdl_message_pump</title>
<polygon fill="white" stroke="transparent" points="-4,4 -4,-382 457.5,-382 457.5,4 -4,4"/>
<!-- Node1 -->
<g id="node1" class="node">
<title>Node1</title>
<g id="a_node1"><a xlink:title=" ">
<polygon fill="#bfbfbf" stroke="black" points="209.5,-0.5 209.5,-134.5 349.5,-134.5 349.5,-0.5 209.5,-0.5"/>
<text text-anchor="middle" x="279.5" y="-122.5" font-family="Helvetica,sans-Serif" font-size="10.00">mkr::sdl_message_pump</text>
<polyline fill="none" stroke="black" points="209.5,-115.5 349.5,-115.5 "/>
<text text-anchor="middle" x="279.5" y="-103.5" font-family="Helvetica,sans-Serif" font-size="10.00"> </text>
<polyline fill="none" stroke="black" points="209.5,-96.5 349.5,-96.5 "/>
<text text-anchor="start" x="217.5" y="-84.5" font-family="Helvetica,sans-Serif" font-size="10.00">+ get_event_dispatcher()</text>
<text text-anchor="start" x="217.5" y="-73.5" font-family="Helvetica,sans-Serif" font-size="10.00">+ get_event_dispatcher()</text>
<text text-anchor="start" x="217.5" y="-62.5" font-family="Helvetica,sans-Serif" font-size="10.00">+ init()</text>
<text text-anchor="start" x="217.5" y="-51.5" font-family="Helvetica,sans-Serif" font-size="10.00">+ start()</text>
<text text-anchor="start" x="217.5" y="-40.5" font-family="Helvetica,sans-Serif" font-size="10.00">+ stop()</text>
<text text-anchor="start" x="217.5" y="-29.5" font-family="Helvetica,sans-Serif" font-size="10.00">+ exit()</text>
<text text-anchor="start" x="217.5" y="-18.5" font-family="Helvetica,sans-Serif" font-size="10.00">&#45; sdl_message_pump()</text>
<text text-anchor="start" x="217.5" y="-7.5" font-family="Helvetica,sans-Serif" font-size="10.00">&#45; ~sdl_message_pump()</text>
</a>
</g>
</g>
<!-- Node2 -->
<g id="node2" class="node">
<title>Node2</title>
<g id="a_node2"><a xlink:href="classsingleton.html" target="_top" xlink:title=" ">
<polygon fill="white" stroke="black" points="0,-182.5 0,-250.5 137,-250.5 137,-182.5 0,-182.5"/>
<text text-anchor="start" x="8" y="-238.5" font-family="Helvetica,sans-Serif" font-size="10.00">singleton&lt; sdl_message</text>
<text text-anchor="middle" x="68.5" y="-227.5" font-family="Helvetica,sans-Serif" font-size="10.00">_pump &gt;</text>
<polyline fill="none" stroke="black" points="0,-220.5 137,-220.5 "/>
<text text-anchor="middle" x="68.5" y="-208.5" font-family="Helvetica,sans-Serif" font-size="10.00"> </text>
<polyline fill="none" stroke="black" points="0,-201.5 137,-201.5 "/>
<text text-anchor="middle" x="68.5" y="-189.5" font-family="Helvetica,sans-Serif" font-size="10.00"> </text>
</a>
</g>
</g>
<!-- Node2&#45;&gt;Node1 -->
<g id="edge1" class="edge">
<title>Node2&#45;&gt;Node1</title>
<path fill="none" stroke="midnightblue" d="M124.37,-176.58C150.39,-158.45 181.63,-136.69 209.23,-117.46"/>
<polygon fill="none" stroke="midnightblue" points="122.32,-173.74 116.12,-182.33 126.32,-179.48 122.32,-173.74"/>
</g>
<!-- Node3 -->
<g id="node3" class="node">
<title>Node3</title>
<g id="a_node3"><a xlink:href="classmkr_1_1event__dispatcher.html" target="_top" xlink:title="An event_dispatcher is used to dispatch event(s) to event_listener(s) that are subscribed to this dis...">
<polygon fill="white" stroke="black" points="155.5,-182.5 155.5,-250.5 283.5,-250.5 283.5,-182.5 155.5,-182.5"/>
<text text-anchor="middle" x="219.5" y="-238.5" font-family="Helvetica,sans-Serif" font-size="10.00">mkr::event_dispatcher</text>
<polyline fill="none" stroke="black" points="155.5,-231.5 283.5,-231.5 "/>
<text text-anchor="middle" x="219.5" y="-219.5" font-family="Helvetica,sans-Serif" font-size="10.00"> </text>
<polyline fill="none" stroke="black" points="155.5,-212.5 283.5,-212.5 "/>
<text text-anchor="start" x="163.5" y="-200.5" font-family="Helvetica,sans-Serif" font-size="10.00">+ event_dispatcher()</text>
<text text-anchor="start" x="163.5" y="-189.5" font-family="Helvetica,sans-Serif" font-size="10.00">+ ~event_dispatcher()</text>
</a>
</g>
</g>
<!-- Node3&#45;&gt;Node1 -->
<g id="edge2" class="edge">
<title>Node3&#45;&gt;Node1</title>
<path fill="none" stroke="#404040" d="M217.09,-182.45C217.31,-172.77 218.46,-162.28 221.5,-153 222.25,-150.72 223.08,-148.44 223.98,-146.18"/>
<polygon fill="none" stroke="#404040" points="224.1,-145.91 222.92,-138.79 229.04,-134.97 230.22,-142.09 224.1,-145.91"/>
<text text-anchor="middle" x="270" y="-156" font-family="Helvetica,sans-Serif" font-size="10.00"> &#45;event_dispatcher_</text>
</g>
<!-- Node4 -->
<g id="node4" class="node">
<title>Node4</title>
<g id="a_node4"><a xlink:title=" ">
<polygon fill="white" stroke="#bfbfbf" points="132.5,-298.5 132.5,-377.5 306.5,-377.5 306.5,-298.5 132.5,-298.5"/>
<text text-anchor="start" x="140.5" y="-365.5" font-family="Helvetica,sans-Serif" font-size="10.00">unordered_map&lt; event</text>
<text text-anchor="start" x="140.5" y="-354.5" font-family="Helvetica,sans-Serif" font-size="10.00">_id_t, std::unordered</text>
<text text-anchor="middle" x="219.5" y="-343.5" font-family="Helvetica,sans-Serif" font-size="10.00">_set&lt; mkr::event_listener * &gt; &gt;</text>
<polyline fill="none" stroke="#bfbfbf" points="132.5,-336.5 306.5,-336.5 "/>
<text text-anchor="middle" x="219.5" y="-324.5" font-family="Helvetica,sans-Serif" font-size="10.00"> </text>
<polyline fill="none" stroke="#bfbfbf" points="132.5,-317.5 306.5,-317.5 "/>
<text text-anchor="middle" x="219.5" y="-305.5" font-family="Helvetica,sans-Serif" font-size="10.00"> </text>
</a>
</g>
</g>
<!-- Node4&#45;&gt;Node3 -->
<g id="edge3" class="edge">
<title>Node4&#45;&gt;Node3</title>
<path fill="none" stroke="#404040" d="M219.5,-298.2C219.5,-286.99 219.5,-274.65 219.5,-263.07"/>
<polygon fill="none" stroke="#404040" points="219.5,-262.89 215.5,-256.89 219.5,-250.89 223.5,-256.89 219.5,-262.89"/>
<text text-anchor="middle" x="247" y="-272" font-family="Helvetica,sans-Serif" font-size="10.00"> &#45;listeners_</text>
</g>
<!-- Node5 -->
<g id="node5" class="node">
<title>Node5</title>
<g id="a_node5"><a xlink:title=" ">
<polygon fill="white" stroke="#bfbfbf" points="302,-188 302,-245 379,-245 379,-188 302,-188"/>
<text text-anchor="middle" x="340.5" y="-233" font-family="Helvetica,sans-Serif" font-size="10.00">atomic_bool</text>
<polyline fill="none" stroke="#bfbfbf" points="302,-226 379,-226 "/>
<text text-anchor="middle" x="340.5" y="-214" font-family="Helvetica,sans-Serif" font-size="10.00"> </text>
<polyline fill="none" stroke="#bfbfbf" points="302,-207 379,-207 "/>
<text text-anchor="middle" x="340.5" y="-195" font-family="Helvetica,sans-Serif" font-size="10.00"> </text>
</a>
</g>
</g>
<!-- Node5&#45;&gt;Node1 -->
<g id="edge4" class="edge">
<title>Node5&#45;&gt;Node1</title>
<path fill="none" stroke="#404040" d="M331.41,-187.91C327.64,-176.96 323.08,-164.3 318.5,-153 317.55,-150.66 316.57,-148.29 315.57,-145.91"/>
<polygon fill="none" stroke="#404040" points="315.48,-145.69 309.44,-141.76 310.75,-134.67 316.79,-138.6 315.48,-145.69"/>
<text text-anchor="middle" x="335.5" y="-156" font-family="Helvetica,sans-Serif" font-size="10.00"> &#45;run_</text>
</g>
<!-- Node6 -->
<g id="node6" class="node">
<title>Node6</title>
<g id="a_node6"><a xlink:title=" ">
<polygon fill="white" stroke="#bfbfbf" points="397.5,-188 397.5,-245 445.5,-245 445.5,-188 397.5,-188"/>
<text text-anchor="middle" x="421.5" y="-233" font-family="Helvetica,sans-Serif" font-size="10.00">thread</text>
<polyline fill="none" stroke="#bfbfbf" points="397.5,-226 445.5,-226 "/>
<text text-anchor="middle" x="421.5" y="-214" font-family="Helvetica,sans-Serif" font-size="10.00"> </text>
<polyline fill="none" stroke="#bfbfbf" points="397.5,-207 445.5,-207 "/>
<text text-anchor="middle" x="421.5" y="-195" font-family="Helvetica,sans-Serif" font-size="10.00"> </text>
</a>
</g>
</g>
<!-- Node6&#45;&gt;Node1 -->
<g id="edge5" class="edge">
<title>Node6&#45;&gt;Node1</title>
<path fill="none" stroke="#404040" d="M397.41,-190.56C384.74,-177.45 368.47,-160.6 352.08,-143.64"/>
<polygon fill="none" stroke="#404040" points="351.86,-143.41 344.81,-141.87 343.52,-134.78 350.57,-136.31 351.86,-143.41"/>
<text text-anchor="middle" x="412.5" y="-156" font-family="Helvetica,sans-Serif" font-size="10.00"> &#45;worker_thread_</text>
</g>
</g>
</svg>
