<?xml version="1.0" encoding="UTF-8" standalone="no"?>
<!DOCTYPE svg PUBLIC "-//W3C//DTD SVG 1.1//EN"
 "http://www.w3.org/Graphics/SVG/1.1/DTD/svg11.dtd">
<!-- Generated by graphviz version 2.43.0 (0)
 -->
<!-- Title: mkr::texture_2d Pages: 1 -->
<svg width="338pt" height="387pt"
 viewBox="0.00 0.00 338.00 387.00" xmlns="http://www.w3.org/2000/svg" xmlns:xlink="http://www.w3.org/1999/xlink">
<g id="graph0" class="graph" transform="scale(1 1) rotate(0) translate(4 383)">
<title>mkr::texture_2d</title>
<polygon fill="white" stroke="transparent" points="-4,4 -4,-383 334,-383 334,4 -4,4"/>
<!-- Node1 -->
<g id="node1" class="node">
<title>Node1</title>
<g id="a_node1"><a xlink:title=" ">
<polygon fill="#bfbfbf" stroke="black" points="147,-0.5 147,-79.5 243,-79.5 243,-0.5 147,-0.5"/>
<text text-anchor="middle" x="195" y="-67.5" font-family="Helvetica,sans-Serif" font-size="10.00">mkr::texture_2d</text>
<polyline fill="none" stroke="black" points="147,-60.5 243,-60.5 "/>
<text text-anchor="middle" x="195" y="-48.5" font-family="Helvetica,sans-Serif" font-size="10.00"> </text>
<polyline fill="none" stroke="black" points="147,-41.5 243,-41.5 "/>
<text text-anchor="start" x="155" y="-29.5" font-family="Helvetica,sans-Serif" font-size="10.00">+ texture_2d()</text>
<text text-anchor="start" x="155" y="-18.5" font-family="Helvetica,sans-Serif" font-size="10.00">+ texture_2d()</text>
<text text-anchor="start" x="155" y="-7.5" font-family="Helvetica,sans-Serif" font-size="10.00">+ ~texture_2d()</text>
</a>
</g>
</g>
<!-- Node2 -->
<g id="node2" class="node">
<title>Node2</title>
<g id="a_node2"><a xlink:href="classmkr_1_1texture.html" target="_top" xlink:title=" ">
<polygon fill="white" stroke="black" points="140,-117.5 140,-262.5 250,-262.5 250,-117.5 140,-117.5"/>
<text text-anchor="middle" x="195" y="-250.5" font-family="Helvetica,sans-Serif" font-size="10.00">mkr::texture</text>
<polyline fill="none" stroke="black" points="140,-243.5 250,-243.5 "/>
<text text-anchor="middle" x="195" y="-231.5" font-family="Helvetica,sans-Serif" font-size="10.00"> </text>
<polyline fill="none" stroke="black" points="140,-224.5 250,-224.5 "/>
<text text-anchor="start" x="148" y="-212.5" font-family="Helvetica,sans-Serif" font-size="10.00">+ ~texture()</text>
<text text-anchor="start" x="148" y="-201.5" font-family="Helvetica,sans-Serif" font-size="10.00">+ name()</text>
<text text-anchor="start" x="148" y="-190.5" font-family="Helvetica,sans-Serif" font-size="10.00">+ width()</text>
<text text-anchor="start" x="148" y="-179.5" font-family="Helvetica,sans-Serif" font-size="10.00">+ height()</text>
<text text-anchor="start" x="148" y="-168.5" font-family="Helvetica,sans-Serif" font-size="10.00">+ wrap_mode()</text>
<text text-anchor="start" x="148" y="-157.5" font-family="Helvetica,sans-Serif" font-size="10.00">+ handle()</text>
<text text-anchor="start" x="148" y="-146.5" font-family="Helvetica,sans-Serif" font-size="10.00">+ bind()</text>
<text text-anchor="start" x="148" y="-135.5" font-family="Helvetica,sans-Serif" font-size="10.00"># texture()</text>
<text text-anchor="start" x="148" y="-124.5" font-family="Helvetica,sans-Serif" font-size="10.00"># mip_map_level()</text>
</a>
</g>
</g>
<!-- Node2&#45;&gt;Node1 -->
<g id="edge1" class="edge">
<title>Node2&#45;&gt;Node1</title>
<path fill="none" stroke="midnightblue" d="M195,-107.15C195,-97.58 195,-88.18 195,-79.61"/>
<polygon fill="none" stroke="midnightblue" points="191.5,-107.17 195,-117.17 198.5,-107.17 191.5,-107.17"/>
</g>
<!-- Node3 -->
<g id="node3" class="node">
<title>Node3</title>
<g id="a_node3"><a xlink:title=" ">
<polygon fill="white" stroke="#bfbfbf" points="0,-321.5 0,-378.5 114,-378.5 114,-321.5 0,-321.5"/>
<text text-anchor="middle" x="57" y="-366.5" font-family="Helvetica,sans-Serif" font-size="10.00">texture_wrap_mode</text>
<polyline fill="none" stroke="#bfbfbf" points="0,-359.5 114,-359.5 "/>
<text text-anchor="middle" x="57" y="-347.5" font-family="Helvetica,sans-Serif" font-size="10.00"> </text>
<polyline fill="none" stroke="#bfbfbf" points="0,-340.5 114,-340.5 "/>
<text text-anchor="middle" x="57" y="-328.5" font-family="Helvetica,sans-Serif" font-size="10.00"> </text>
</a>
</g>
</g>
<!-- Node3&#45;&gt;Node2 -->
<g id="edge2" class="edge">
<title>Node3&#45;&gt;Node2</title>
<path fill="none" stroke="#404040" d="M62.43,-321.48C65.95,-308.38 71.5,-293 80,-281 93.36,-262.15 111.77,-245.32 129.96,-231.45"/>
<polygon fill="none" stroke="#404040" points="130.05,-231.39 132.51,-224.61 139.71,-224.27 137.25,-231.05 130.05,-231.39"/>
<text text-anchor="middle" x="117" y="-289.5" font-family="Helvetica,sans-Serif" font-size="10.00"> #wrap_mode_</text>
</g>
<!-- Node4 -->
<g id="node4" class="node">
<title>Node4</title>
<g id="a_node4"><a xlink:title=" ">
<polygon fill="white" stroke="#bfbfbf" points="132,-321.5 132,-378.5 188,-378.5 188,-321.5 132,-321.5"/>
<text text-anchor="middle" x="160" y="-366.5" font-family="Helvetica,sans-Serif" font-size="10.00">uint32_t</text>
<polyline fill="none" stroke="#bfbfbf" points="132,-359.5 188,-359.5 "/>
<text text-anchor="middle" x="160" y="-347.5" font-family="Helvetica,sans-Serif" font-size="10.00"> </text>
<polyline fill="none" stroke="#bfbfbf" points="132,-340.5 188,-340.5 "/>
<text text-anchor="middle" x="160" y="-328.5" font-family="Helvetica,sans-Serif" font-size="10.00"> </text>
</a>
</g>
</g>
<!-- Node4&#45;&gt;Node2 -->
<g id="edge3" class="edge">
<title>Node4&#45;&gt;Node2</title>
<path fill="none" stroke="#404040" d="M158.25,-321.32C158.02,-308.89 158.51,-294.11 161,-281 161.41,-278.82 161.88,-276.62 162.38,-274.41"/>
<polygon fill="none" stroke="#404040" points="162.44,-274.19 160.08,-267.38 165.46,-262.57 167.82,-269.39 162.44,-274.19"/>
<text text-anchor="middle" x="185" y="-295" font-family="Helvetica,sans-Serif" font-size="10.00"> #height_</text>
<text text-anchor="middle" x="185" y="-284" font-family="Helvetica,sans-Serif" font-size="10.00">#width_</text>
</g>
<!-- Node5 -->
<g id="node5" class="node">
<title>Node5</title>
<g id="a_node5"><a xlink:title=" ">
<polygon fill="white" stroke="#bfbfbf" points="209,-321.5 209,-378.5 253,-378.5 253,-321.5 209,-321.5"/>
<text text-anchor="middle" x="231" y="-366.5" font-family="Helvetica,sans-Serif" font-size="10.00">string</text>
<polyline fill="none" stroke="#bfbfbf" points="209,-359.5 253,-359.5 "/>
<text text-anchor="middle" x="231" y="-347.5" font-family="Helvetica,sans-Serif" font-size="10.00"> </text>
<polyline fill="none" stroke="#bfbfbf" points="209,-340.5 253,-340.5 "/>
<text text-anchor="middle" x="231" y="-328.5" font-family="Helvetica,sans-Serif" font-size="10.00"> </text>
</a>
</g>
</g>
<!-- Node5&#45;&gt;Node2 -->
<g id="edge4" class="edge">
<title>Node5&#45;&gt;Node2</title>
<path fill="none" stroke="#404040" d="M224.73,-321.48C221.7,-308.19 217.89,-291.46 214.01,-274.45"/>
<polygon fill="none" stroke="#404040" points="214,-274.37 208.76,-269.41 211.33,-262.67 216.56,-267.63 214,-274.37"/>
<text text-anchor="middle" x="242.5" y="-289.5" font-family="Helvetica,sans-Serif" font-size="10.00"> #name_</text>
</g>
<!-- Node6 -->
<g id="node6" class="node">
<title>Node6</title>
<g id="a_node6"><a xlink:title=" ">
<polygon fill="white" stroke="#bfbfbf" points="275,-321.5 275,-378.5 323,-378.5 323,-321.5 275,-321.5"/>
<text text-anchor="middle" x="299" y="-366.5" font-family="Helvetica,sans-Serif" font-size="10.00">GLuint</text>
<polyline fill="none" stroke="#bfbfbf" points="275,-359.5 323,-359.5 "/>
<text text-anchor="middle" x="299" y="-347.5" font-family="Helvetica,sans-Serif" font-size="10.00"> </text>
<polyline fill="none" stroke="#bfbfbf" points="275,-340.5 323,-340.5 "/>
<text text-anchor="middle" x="299" y="-328.5" font-family="Helvetica,sans-Serif" font-size="10.00"> </text>
</a>
</g>
</g>
<!-- Node6&#45;&gt;Node2 -->
<g id="edge5" class="edge">
<title>Node6&#45;&gt;Node2</title>
<path fill="none" stroke="#404040" d="M288.8,-321.34C283.62,-308.64 276.78,-293.64 269,-281 265.37,-275.1 261.38,-269.16 257.2,-263.31"/>
<polygon fill="none" stroke="#404040" points="257.13,-263.21 250.35,-260.75 250.01,-253.55 256.79,-256.01 257.13,-263.21"/>
<text text-anchor="middle" x="305" y="-289.5" font-family="Helvetica,sans-Serif" font-size="10.00"> #handle_</text>
</g>
</g>
</svg>
