<?xml version="1.0" encoding="UTF-8" standalone="no"?>
<!DOCTYPE svg PUBLIC "-//W3C//DTD SVG 1.1//EN"
 "http://www.w3.org/Graphics/SVG/1.1/DTD/svg11.dtd">
<!-- Generated by graphviz version 2.43.0 (0)
 -->
<!-- Title: mkr::app_window Pages: 1 -->
<svg width="342pt" height="270pt"
 viewBox="0.00 0.00 342.00 270.00" xmlns="http://www.w3.org/2000/svg" xmlns:xlink="http://www.w3.org/1999/xlink">
<g id="graph0" class="graph" transform="scale(1 1) rotate(0) translate(4 266)">
<title>mkr::app_window</title>
<polygon fill="white" stroke="transparent" points="-4,4 -4,-266 338,-266 338,4 -4,4"/>
<!-- Node1 -->
<g id="node1" class="node">
<title>Node1</title>
<g id="a_node1"><a xlink:title=" ">
<polygon fill="#bfbfbf" stroke="black" points="87,-0.5 87,-134.5 191,-134.5 191,-0.5 87,-0.5"/>
<text text-anchor="middle" x="139" y="-122.5" font-family="Helvetica,sans-Serif" font-size="10.00">mkr::app_window</text>
<polyline fill="none" stroke="black" points="87,-115.5 191,-115.5 "/>
<text text-anchor="middle" x="139" y="-103.5" font-family="Helvetica,sans-Serif" font-size="10.00"> </text>
<polyline fill="none" stroke="black" points="87,-96.5 191,-96.5 "/>
<text text-anchor="start" x="95" y="-84.5" font-family="Helvetica,sans-Serif" font-size="10.00">+ app_window()</text>
<text text-anchor="start" x="95" y="-73.5" font-family="Helvetica,sans-Serif" font-size="10.00">+ ~app_window()</text>
<text text-anchor="start" x="95" y="-62.5" font-family="Helvetica,sans-Serif" font-size="10.00">+ is_fullscreen()</text>
<text text-anchor="start" x="95" y="-51.5" font-family="Helvetica,sans-Serif" font-size="10.00">+ is_borderless()</text>
<text text-anchor="start" x="95" y="-40.5" font-family="Helvetica,sans-Serif" font-size="10.00">+ title()</text>
<text text-anchor="start" x="95" y="-29.5" font-family="Helvetica,sans-Serif" font-size="10.00">+ width()</text>
<text text-anchor="start" x="95" y="-18.5" font-family="Helvetica,sans-Serif" font-size="10.00">+ height()</text>
<text text-anchor="start" x="95" y="-7.5" font-family="Helvetica,sans-Serif" font-size="10.00">+ swap_buffers()</text>
</a>
</g>
</g>
<!-- Node2 -->
<g id="node2" class="node">
<title>Node2</title>
<g id="a_node2"><a xlink:title=" ">
<polygon fill="white" stroke="#bfbfbf" points="0,-204.5 0,-261.5 56,-261.5 56,-204.5 0,-204.5"/>
<text text-anchor="middle" x="28" y="-249.5" font-family="Helvetica,sans-Serif" font-size="10.00">uint32_t</text>
<polyline fill="none" stroke="#bfbfbf" points="0,-242.5 56,-242.5 "/>
<text text-anchor="middle" x="28" y="-230.5" font-family="Helvetica,sans-Serif" font-size="10.00"> </text>
<polyline fill="none" stroke="#bfbfbf" points="0,-223.5 56,-223.5 "/>
<text text-anchor="middle" x="28" y="-211.5" font-family="Helvetica,sans-Serif" font-size="10.00"> </text>
</a>
</g>
</g>
<!-- Node2&#45;&gt;Node1 -->
<g id="edge1" class="edge">
<title>Node2&#45;&gt;Node1</title>
<path fill="none" stroke="#404040" d="M38.26,-204.26C44.62,-188.61 53.56,-169.05 64,-153 68.63,-145.88 73.84,-138.75 79.31,-131.82"/>
<polygon fill="none" stroke="#404040" points="79.31,-131.81 79.99,-124.63 86.88,-122.5 86.2,-129.68 79.31,-131.81"/>
<text text-anchor="middle" x="84" y="-178" font-family="Helvetica,sans-Serif" font-size="10.00"> &#45;flags_</text>
<text text-anchor="middle" x="84" y="-167" font-family="Helvetica,sans-Serif" font-size="10.00">&#45;height_</text>
<text text-anchor="middle" x="84" y="-156" font-family="Helvetica,sans-Serif" font-size="10.00">&#45;width_</text>
</g>
<!-- Node3 -->
<g id="node3" class="node">
<title>Node3</title>
<g id="a_node3"><a xlink:title=" ">
<polygon fill="white" stroke="#bfbfbf" points="74,-204.5 74,-261.5 118,-261.5 118,-204.5 74,-204.5"/>
<text text-anchor="middle" x="96" y="-249.5" font-family="Helvetica,sans-Serif" font-size="10.00">string</text>
<polyline fill="none" stroke="#bfbfbf" points="74,-242.5 118,-242.5 "/>
<text text-anchor="middle" x="96" y="-230.5" font-family="Helvetica,sans-Serif" font-size="10.00"> </text>
<polyline fill="none" stroke="#bfbfbf" points="74,-223.5 118,-223.5 "/>
<text text-anchor="middle" x="96" y="-211.5" font-family="Helvetica,sans-Serif" font-size="10.00"> </text>
</a>
</g>
</g>
<!-- Node3&#45;&gt;Node1 -->
<g id="edge2" class="edge">
<title>Node3&#45;&gt;Node1</title>
<path fill="none" stroke="#404040" d="M103.29,-204.26C107.52,-188.2 113.07,-167.09 118.53,-146.32"/>
<polygon fill="none" stroke="#404040" points="118.59,-146.12 116.24,-139.3 121.64,-134.51 123.98,-141.33 118.59,-146.12"/>
<text text-anchor="middle" x="132" y="-167" font-family="Helvetica,sans-Serif" font-size="10.00"> &#45;title_</text>
</g>
<!-- Node4 -->
<g id="node4" class="node">
<title>Node4</title>
<g id="a_node4"><a xlink:title=" ">
<polygon fill="white" stroke="#bfbfbf" points="136,-204.5 136,-261.5 228,-261.5 228,-204.5 136,-204.5"/>
<text text-anchor="middle" x="182" y="-249.5" font-family="Helvetica,sans-Serif" font-size="10.00">SDL_GLContext</text>
<polyline fill="none" stroke="#bfbfbf" points="136,-242.5 228,-242.5 "/>
<text text-anchor="middle" x="182" y="-230.5" font-family="Helvetica,sans-Serif" font-size="10.00"> </text>
<polyline fill="none" stroke="#bfbfbf" points="136,-223.5 228,-223.5 "/>
<text text-anchor="middle" x="182" y="-211.5" font-family="Helvetica,sans-Serif" font-size="10.00"> </text>
</a>
</g>
</g>
<!-- Node4&#45;&gt;Node1 -->
<g id="edge3" class="edge">
<title>Node4&#45;&gt;Node1</title>
<path fill="none" stroke="#404040" d="M174.71,-204.26C170.48,-188.2 164.93,-167.09 159.47,-146.32"/>
<polygon fill="none" stroke="#404040" points="159.41,-146.12 154.02,-141.33 156.36,-134.51 161.76,-139.3 159.41,-146.12"/>
<text text-anchor="middle" x="201" y="-167" font-family="Helvetica,sans-Serif" font-size="10.00"> &#45;gl_context_</text>
</g>
<!-- Node5 -->
<g id="node5" class="node">
<title>Node5</title>
<g id="a_node5"><a xlink:title=" ">
<polygon fill="white" stroke="#bfbfbf" points="246,-204.5 246,-261.5 334,-261.5 334,-204.5 246,-204.5"/>
<text text-anchor="middle" x="290" y="-249.5" font-family="Helvetica,sans-Serif" font-size="10.00">SDL_Window *</text>
<polyline fill="none" stroke="#bfbfbf" points="246,-242.5 334,-242.5 "/>
<text text-anchor="middle" x="290" y="-230.5" font-family="Helvetica,sans-Serif" font-size="10.00"> </text>
<polyline fill="none" stroke="#bfbfbf" points="246,-223.5 334,-223.5 "/>
<text text-anchor="middle" x="290" y="-211.5" font-family="Helvetica,sans-Serif" font-size="10.00"> </text>
</a>
</g>
</g>
<!-- Node5&#45;&gt;Node1 -->
<g id="edge4" class="edge">
<title>Node5&#45;&gt;Node1</title>
<path fill="none" stroke="#404040" d="M274.02,-204.37C264.27,-188.57 251.02,-168.82 237,-153 225.97,-140.55 213.12,-128.24 200.43,-117.02"/>
<polygon fill="none" stroke="#404040" points="200.32,-116.92 193.16,-116.01 191.25,-109.06 198.4,-109.97 200.32,-116.92"/>
<text text-anchor="middle" x="285" y="-167" font-family="Helvetica,sans-Serif" font-size="10.00"> &#45;window_</text>
</g>
</g>
</svg>
