<?xml version="1.0" encoding="UTF-8" standalone="no"?>
<!DOCTYPE svg PUBLIC "-//W3C//DTD SVG 1.1//EN"
 "http://www.w3.org/Graphics/SVG/1.1/DTD/svg11.dtd">
<!-- Generated by graphviz version 2.43.0 (0)
 -->
<!-- Title: mkr::framebuffer Pages: 1 -->
<svg width="439pt" height="347pt"
 viewBox="0.00 0.00 438.50 347.00" xmlns="http://www.w3.org/2000/svg" xmlns:xlink="http://www.w3.org/1999/xlink">
<g id="graph0" class="graph" transform="scale(1 1) rotate(0) translate(4 343)">
<title>mkr::framebuffer</title>
<polygon fill="white" stroke="transparent" points="-4,4 -4,-343 434.5,-343 434.5,4 -4,4"/>
<!-- Node1 -->
<g id="node1" class="node">
<title>Node1</title>
<g id="a_node1"><a xlink:title=" ">
<polygon fill="#bfbfbf" stroke="black" points="169,-0.5 169,-222.5 352,-222.5 352,-0.5 169,-0.5"/>
<text text-anchor="middle" x="260.5" y="-210.5" font-family="Helvetica,sans-Serif" font-size="10.00">mkr::framebuffer</text>
<polyline fill="none" stroke="black" points="169,-203.5 352,-203.5 "/>
<text text-anchor="middle" x="260.5" y="-191.5" font-family="Helvetica,sans-Serif" font-size="10.00"> </text>
<polyline fill="none" stroke="black" points="169,-184.5 352,-184.5 "/>
<text text-anchor="start" x="177" y="-172.5" font-family="Helvetica,sans-Serif" font-size="10.00">+ ~framebuffer()</text>
<text text-anchor="start" x="177" y="-161.5" font-family="Helvetica,sans-Serif" font-size="10.00">+ is_complete()</text>
<text text-anchor="start" x="177" y="-150.5" font-family="Helvetica,sans-Serif" font-size="10.00">+ get_colour_attachment()</text>
<text text-anchor="start" x="177" y="-139.5" font-family="Helvetica,sans-Serif" font-size="10.00">+ get_colour_attachment()</text>
<text text-anchor="start" x="177" y="-128.5" font-family="Helvetica,sans-Serif" font-size="10.00">+ get_depth_stencil_attachment()</text>
<text text-anchor="start" x="177" y="-117.5" font-family="Helvetica,sans-Serif" font-size="10.00">+ get_depth_stencil_attachment()</text>
<text text-anchor="start" x="177" y="-106.5" font-family="Helvetica,sans-Serif" font-size="10.00">+ bind()</text>
<text text-anchor="start" x="177" y="-95.5" font-family="Helvetica,sans-Serif" font-size="10.00">+ blit_to()</text>
<text text-anchor="start" x="177" y="-84.5" font-family="Helvetica,sans-Serif" font-size="10.00">+ set_read_colour_attachment()</text>
<text text-anchor="start" x="177" y="-73.5" font-family="Helvetica,sans-Serif" font-size="10.00">+ set_draw_colour_attachment()</text>
<text text-anchor="start" x="177" y="-62.5" font-family="Helvetica,sans-Serif" font-size="10.00">+ set_draw_colour_attachment</text>
<text text-anchor="start" x="177" y="-51.5" font-family="Helvetica,sans-Serif" font-size="10.00">_all()</text>
<text text-anchor="start" x="177" y="-40.5" font-family="Helvetica,sans-Serif" font-size="10.00">+ clear_colour()</text>
<text text-anchor="start" x="177" y="-29.5" font-family="Helvetica,sans-Serif" font-size="10.00">+ clear_colour_all()</text>
<text text-anchor="start" x="177" y="-18.5" font-family="Helvetica,sans-Serif" font-size="10.00">+ clear_depth_stencil()</text>
<text text-anchor="start" x="177" y="-7.5" font-family="Helvetica,sans-Serif" font-size="10.00"># framebuffer()</text>
</a>
</g>
</g>
<!-- Node2 -->
<g id="node2" class="node">
<title>Node2</title>
<g id="a_node2"><a xlink:title=" ">
<polygon fill="white" stroke="#bfbfbf" points="0,-276 0,-333 169,-333 169,-276 0,-276"/>
<text text-anchor="middle" x="84.5" y="-321" font-family="Helvetica,sans-Serif" font-size="10.00">unique_ptr&lt; mkr::texture_2d &gt;</text>
<polyline fill="none" stroke="#bfbfbf" points="0,-314 169,-314 "/>
<text text-anchor="middle" x="84.5" y="-302" font-family="Helvetica,sans-Serif" font-size="10.00"> </text>
<polyline fill="none" stroke="#bfbfbf" points="0,-295 169,-295 "/>
<text text-anchor="middle" x="84.5" y="-283" font-family="Helvetica,sans-Serif" font-size="10.00"> </text>
</a>
</g>
</g>
<!-- Node2&#45;&gt;Node1 -->
<g id="edge1" class="edge">
<title>Node2&#45;&gt;Node1</title>
<path fill="none" stroke="#404040" d="M93.83,-275.95C98.44,-264.52 104.71,-251.5 112.5,-241 126.06,-222.73 142.63,-205.25 159.71,-189.37"/>
<polygon fill="none" stroke="#404040" points="159.79,-189.3 161.54,-182.3 168.67,-181.23 166.92,-188.22 159.79,-189.3"/>
<text text-anchor="middle" x="184.5" y="-244" font-family="Helvetica,sans-Serif" font-size="10.00"> #depth_stencil_attachment_</text>
</g>
<!-- Node3 -->
<g id="node3" class="node">
<title>Node3</title>
<g id="a_node3"><a xlink:title=" ">
<polygon fill="white" stroke="#bfbfbf" points="187,-270.5 187,-338.5 334,-338.5 334,-270.5 187,-270.5"/>
<text text-anchor="start" x="195" y="-326.5" font-family="Helvetica,sans-Serif" font-size="10.00">vector&lt; std::unique</text>
<text text-anchor="middle" x="260.5" y="-315.5" font-family="Helvetica,sans-Serif" font-size="10.00">_ptr&lt; mkr::texture_2d &gt; &gt;</text>
<polyline fill="none" stroke="#bfbfbf" points="187,-308.5 334,-308.5 "/>
<text text-anchor="middle" x="260.5" y="-296.5" font-family="Helvetica,sans-Serif" font-size="10.00"> </text>
<polyline fill="none" stroke="#bfbfbf" points="187,-289.5 334,-289.5 "/>
<text text-anchor="middle" x="260.5" y="-277.5" font-family="Helvetica,sans-Serif" font-size="10.00"> </text>
</a>
</g>
</g>
<!-- Node3&#45;&gt;Node1 -->
<g id="edge2" class="edge">
<title>Node3&#45;&gt;Node1</title>
<path fill="none" stroke="#404040" d="M260.5,-270.23C260.5,-259.94 260.5,-247.95 260.5,-235.26"/>
<polygon fill="none" stroke="#404040" points="260.5,-234.91 256.5,-228.91 260.5,-222.91 264.5,-228.91 260.5,-234.91"/>
<text text-anchor="middle" x="317.5" y="-244" font-family="Helvetica,sans-Serif" font-size="10.00"> #colour_attachments_</text>
</g>
<!-- Node4 -->
<g id="node4" class="node">
<title>Node4</title>
<g id="a_node4"><a xlink:title=" ">
<polygon fill="white" stroke="#bfbfbf" points="373.5,-276 373.5,-333 421.5,-333 421.5,-276 373.5,-276"/>
<text text-anchor="middle" x="397.5" y="-321" font-family="Helvetica,sans-Serif" font-size="10.00">GLuint</text>
<polyline fill="none" stroke="#bfbfbf" points="373.5,-314 421.5,-314 "/>
<text text-anchor="middle" x="397.5" y="-302" font-family="Helvetica,sans-Serif" font-size="10.00"> </text>
<polyline fill="none" stroke="#bfbfbf" points="373.5,-295 421.5,-295 "/>
<text text-anchor="middle" x="397.5" y="-283" font-family="Helvetica,sans-Serif" font-size="10.00"> </text>
</a>
</g>
</g>
<!-- Node4&#45;&gt;Node1 -->
<g id="edge3" class="edge">
<title>Node4&#45;&gt;Node1</title>
<path fill="none" stroke="#404040" d="M390.29,-275.71C386.73,-264.49 381.83,-251.69 375.5,-241 370.62,-232.76 365.17,-224.57 359.36,-216.55"/>
<polygon fill="none" stroke="#404040" points="359.3,-216.46 352.5,-214.05 352.11,-206.85 358.91,-209.26 359.3,-216.46"/>
<text text-anchor="middle" x="405.5" y="-244" font-family="Helvetica,sans-Serif" font-size="10.00"> #handle_</text>
</g>
</g>
</svg>
