<?xml version="1.0" encoding="UTF-8" standalone="no"?>
<!DOCTYPE svg PUBLIC "-//W3C//DTD SVG 1.1//EN"
 "http://www.w3.org/Graphics/SVG/1.1/DTD/svg11.dtd">
<!-- Generated by graphviz version 2.43.0 (0)
 -->
<!-- Title: singleton Pages: 1 -->
<svg width="1388pt" height="523pt"
 viewBox="0.00 0.00 1387.50 523.00" xmlns="http://www.w3.org/2000/svg" xmlns:xlink="http://www.w3.org/1999/xlink">
<g id="graph0" class="graph" transform="scale(1 1) rotate(0) translate(4 519)">
<title>singleton</title>
<polygon fill="white" stroke="transparent" points="-4,4 -4,-519 1383.5,-519 1383.5,4 -4,4"/>
<!-- Node1 -->
<g id="node1" class="node">
<title>Node1</title>
<g id="a_node1"><a xlink:title=" ">
<polygon fill="#bfbfbf" stroke="black" points="703.5,-457.5 703.5,-514.5 765.5,-514.5 765.5,-457.5 703.5,-457.5"/>
<text text-anchor="middle" x="734.5" y="-502.5" font-family="Helvetica,sans-Serif" font-size="10.00">singleton</text>
<polyline fill="none" stroke="black" points="703.5,-495.5 765.5,-495.5 "/>
<text text-anchor="middle" x="734.5" y="-483.5" font-family="Helvetica,sans-Serif" font-size="10.00"> </text>
<polyline fill="none" stroke="black" points="703.5,-476.5 765.5,-476.5 "/>
<text text-anchor="middle" x="734.5" y="-464.5" font-family="Helvetica,sans-Serif" font-size="10.00"> </text>
</a>
</g>
</g>
<!-- Node2 -->
<g id="node2" class="node">
<title>Node2</title>
<g id="a_node2"><a xlink:href="classmkr_1_1application.html" target="_top" xlink:title=" ">
<polygon fill="white" stroke="black" points="0,-116 0,-305 173,-305 173,-116 0,-116"/>
<text text-anchor="middle" x="86.5" y="-293" font-family="Helvetica,sans-Serif" font-size="10.00">mkr::application&lt; application &gt;</text>
<polyline fill="none" stroke="black" points="0,-286 173,-286 "/>
<text text-anchor="start" x="8" y="-274" font-family="Helvetica,sans-Serif" font-size="10.00">&#45; delta_time_</text>
<text text-anchor="start" x="8" y="-263" font-family="Helvetica,sans-Serif" font-size="10.00">&#45; time_elapsed_</text>
<text text-anchor="start" x="8" y="-252" font-family="Helvetica,sans-Serif" font-size="10.00">&#45; run_</text>
<polyline fill="none" stroke="black" points="0,-245 173,-245 "/>
<text text-anchor="start" x="8" y="-233" font-family="Helvetica,sans-Serif" font-size="10.00">+ delta_time()</text>
<text text-anchor="start" x="8" y="-222" font-family="Helvetica,sans-Serif" font-size="10.00">+ time_elapsed()</text>
<text text-anchor="start" x="8" y="-211" font-family="Helvetica,sans-Serif" font-size="10.00">+ terminate()</text>
<text text-anchor="start" x="8" y="-200" font-family="Helvetica,sans-Serif" font-size="10.00">+ run()</text>
<text text-anchor="start" x="8" y="-189" font-family="Helvetica,sans-Serif" font-size="10.00">&#45; application()</text>
<text text-anchor="start" x="8" y="-178" font-family="Helvetica,sans-Serif" font-size="10.00">&#45; ~application()</text>
<text text-anchor="start" x="8" y="-167" font-family="Helvetica,sans-Serif" font-size="10.00">&#45; init()</text>
<text text-anchor="start" x="8" y="-156" font-family="Helvetica,sans-Serif" font-size="10.00">&#45; start()</text>
<text text-anchor="start" x="8" y="-145" font-family="Helvetica,sans-Serif" font-size="10.00">&#45; update()</text>
<text text-anchor="start" x="8" y="-134" font-family="Helvetica,sans-Serif" font-size="10.00">&#45; stop()</text>
<text text-anchor="start" x="8" y="-123" font-family="Helvetica,sans-Serif" font-size="10.00">&#45; exit()</text>
</a>
</g>
</g>
<!-- Node1&#45;&gt;Node2 -->
<g id="edge1" class="edge">
<title>Node1&#45;&gt;Node2</title>
<path fill="none" stroke="midnightblue" d="M693.24,-485.34C579.24,-485.5 263,-480.44 181.5,-421 143.67,-393.41 120.56,-347.14 106.63,-305.1"/>
<polygon fill="none" stroke="midnightblue" points="693.32,-488.84 703.31,-485.31 693.3,-481.84 693.32,-488.84"/>
</g>
<!-- Node3 -->
<g id="node3" class="node">
<title>Node3</title>
<g id="a_node3"><a xlink:href="classmkr_1_1graphics__renderer.html" target="_top" xlink:title=" ">
<polygon fill="white" stroke="black" points="191,-0.5 191,-420.5 342,-420.5 342,-0.5 191,-0.5"/>
<text text-anchor="start" x="199" y="-408.5" font-family="Helvetica,sans-Serif" font-size="10.00">mkr::graphics_renderer</text>
<text text-anchor="middle" x="266.5" y="-397.5" font-family="Helvetica,sans-Serif" font-size="10.00">&lt; graphics_renderer &gt;</text>
<polyline fill="none" stroke="black" points="191,-390.5 342,-390.5 "/>
<text text-anchor="start" x="199" y="-378.5" font-family="Helvetica,sans-Serif" font-size="10.00">&#45; app_window_</text>
<text text-anchor="start" x="199" y="-367.5" font-family="Helvetica,sans-Serif" font-size="10.00">&#45; window_width_</text>
<text text-anchor="start" x="199" y="-356.5" font-family="Helvetica,sans-Serif" font-size="10.00">&#45; window_height_</text>
<text text-anchor="start" x="199" y="-345.5" font-family="Helvetica,sans-Serif" font-size="10.00">&#45; g_buff_</text>
<text text-anchor="start" x="199" y="-334.5" font-family="Helvetica,sans-Serif" font-size="10.00">&#45; l_buff_</text>
<text text-anchor="start" x="199" y="-323.5" font-family="Helvetica,sans-Serif" font-size="10.00">&#45; f_buff_</text>
<text text-anchor="start" x="199" y="-312.5" font-family="Helvetica,sans-Serif" font-size="10.00">&#45; s2d_buff_</text>
<text text-anchor="start" x="199" y="-301.5" font-family="Helvetica,sans-Serif" font-size="10.00">&#45; scube_buff_</text>
<text text-anchor="start" x="199" y="-290.5" font-family="Helvetica,sans-Serif" font-size="10.00">&#45; light_view_projection</text>
<text text-anchor="start" x="199" y="-279.5" font-family="Helvetica,sans-Serif" font-size="10.00">_matrix_</text>
<text text-anchor="start" x="199" y="-268.5" font-family="Helvetica,sans-Serif" font-size="10.00">&#45; screen_quad_</text>
<text text-anchor="start" x="199" y="-257.5" font-family="Helvetica,sans-Serif" font-size="10.00">&#45; skybox_cube_</text>
<text text-anchor="start" x="199" y="-246.5" font-family="Helvetica,sans-Serif" font-size="10.00">&#45; cameras_</text>
<text text-anchor="start" x="199" y="-235.5" font-family="Helvetica,sans-Serif" font-size="10.00">&#45; lights_</text>
<text text-anchor="start" x="199" y="-224.5" font-family="Helvetica,sans-Serif" font-size="10.00">&#45; deferred_meshes_</text>
<text text-anchor="start" x="199" y="-213.5" font-family="Helvetica,sans-Serif" font-size="10.00">&#45; forward_opaque_meshes_</text>
<text text-anchor="start" x="199" y="-202.5" font-family="Helvetica,sans-Serif" font-size="10.00">&#45; forward_transparent</text>
<text text-anchor="start" x="199" y="-191.5" font-family="Helvetica,sans-Serif" font-size="10.00">_meshes_</text>
<polyline fill="none" stroke="black" points="191,-184.5 342,-184.5 "/>
<text text-anchor="start" x="199" y="-172.5" font-family="Helvetica,sans-Serif" font-size="10.00">+ init()</text>
<text text-anchor="start" x="199" y="-161.5" font-family="Helvetica,sans-Serif" font-size="10.00">+ start()</text>
<text text-anchor="start" x="199" y="-150.5" font-family="Helvetica,sans-Serif" font-size="10.00">+ update()</text>
<text text-anchor="start" x="199" y="-139.5" font-family="Helvetica,sans-Serif" font-size="10.00">+ exit()</text>
<text text-anchor="start" x="199" y="-128.5" font-family="Helvetica,sans-Serif" font-size="10.00">+ submit_camera()</text>
<text text-anchor="start" x="199" y="-117.5" font-family="Helvetica,sans-Serif" font-size="10.00">+ submit_light()</text>
<text text-anchor="start" x="199" y="-106.5" font-family="Helvetica,sans-Serif" font-size="10.00">+ submit_mesh()</text>
<text text-anchor="start" x="199" y="-95.5" font-family="Helvetica,sans-Serif" font-size="10.00">&#45; graphics_renderer()</text>
<text text-anchor="start" x="199" y="-84.5" font-family="Helvetica,sans-Serif" font-size="10.00">&#45; ~graphics_renderer()</text>
<text text-anchor="start" x="199" y="-73.5" font-family="Helvetica,sans-Serif" font-size="10.00">&#45; render()</text>
<text text-anchor="start" x="199" y="-62.5" font-family="Helvetica,sans-Serif" font-size="10.00">&#45; point_shadow()</text>
<text text-anchor="start" x="199" y="-51.5" font-family="Helvetica,sans-Serif" font-size="10.00">&#45; spot_shadow()</text>
<text text-anchor="start" x="199" y="-40.5" font-family="Helvetica,sans-Serif" font-size="10.00">&#45; directional_shadow()</text>
<text text-anchor="start" x="199" y="-29.5" font-family="Helvetica,sans-Serif" font-size="10.00">&#45; geometry_pass()</text>
<text text-anchor="start" x="199" y="-18.5" font-family="Helvetica,sans-Serif" font-size="10.00">&#45; lighting_pass()</text>
<text text-anchor="start" x="199" y="-7.5" font-family="Helvetica,sans-Serif" font-size="10.00">&#45; forward_pass()</text>
</a>
</g>
</g>
<!-- Node1&#45;&gt;Node3 -->
<g id="edge2" class="edge">
<title>Node1&#45;&gt;Node3</title>
<path fill="none" stroke="midnightblue" d="M693.23,-483.14C605.21,-478.39 402.82,-463.08 350.5,-421 347.6,-418.67 344.8,-416.22 342.09,-413.67"/>
<polygon fill="none" stroke="midnightblue" points="693.21,-486.64 703.38,-483.67 693.57,-479.65 693.21,-486.64"/>
</g>
<!-- Node4 -->
<g id="node4" class="node">
<title>Node4</title>
<g id="a_node4"><a xlink:href="classmkr_1_1input__manager.html" target="_top" xlink:title=" ">
<polygon fill="white" stroke="black" points="360,-33.5 360,-387.5 503,-387.5 503,-33.5 360,-33.5"/>
<text text-anchor="start" x="368" y="-375.5" font-family="Helvetica,sans-Serif" font-size="10.00">mkr::input_manager</text>
<text text-anchor="middle" x="431.5" y="-364.5" font-family="Helvetica,sans-Serif" font-size="10.00">&lt; input_manager &gt;</text>
<polyline fill="none" stroke="black" points="360,-357.5 503,-357.5 "/>
<text text-anchor="start" x="368" y="-345.5" font-family="Helvetica,sans-Serif" font-size="10.00">&#45; input_context_</text>
<text text-anchor="start" x="368" y="-334.5" font-family="Helvetica,sans-Serif" font-size="10.00">&#45; sdl_event_listener</text>
<text text-anchor="start" x="368" y="-323.5" font-family="Helvetica,sans-Serif" font-size="10.00">&#45; input_event_dispatcher_</text>
<text text-anchor="start" x="368" y="-312.5" font-family="Helvetica,sans-Serif" font-size="10.00">&#45; button_handler_</text>
<text text-anchor="start" x="368" y="-301.5" font-family="Helvetica,sans-Serif" font-size="10.00">&#45; axis_handler_</text>
<text text-anchor="start" x="368" y="-290.5" font-family="Helvetica,sans-Serif" font-size="10.00">&#45; click_handler_</text>
<text text-anchor="start" x="368" y="-279.5" font-family="Helvetica,sans-Serif" font-size="10.00">&#45; motion_handler_</text>
<polyline fill="none" stroke="black" points="360,-272.5 503,-272.5 "/>
<text text-anchor="start" x="368" y="-260.5" font-family="Helvetica,sans-Serif" font-size="10.00">+ init()</text>
<text text-anchor="start" x="368" y="-249.5" font-family="Helvetica,sans-Serif" font-size="10.00">+ update()</text>
<text text-anchor="start" x="368" y="-238.5" font-family="Helvetica,sans-Serif" font-size="10.00">+ exit()</text>
<text text-anchor="start" x="368" y="-227.5" font-family="Helvetica,sans-Serif" font-size="10.00">+ set_input_context()</text>
<text text-anchor="start" x="368" y="-216.5" font-family="Helvetica,sans-Serif" font-size="10.00">+ get_input_context()</text>
<text text-anchor="start" x="368" y="-205.5" font-family="Helvetica,sans-Serif" font-size="10.00">+ get_event_dispatcher()</text>
<text text-anchor="start" x="368" y="-194.5" font-family="Helvetica,sans-Serif" font-size="10.00">+ get_event_dispatcher()</text>
<text text-anchor="start" x="368" y="-183.5" font-family="Helvetica,sans-Serif" font-size="10.00">+ set_relative_mouse()</text>
<text text-anchor="start" x="368" y="-172.5" font-family="Helvetica,sans-Serif" font-size="10.00">+ register_button()</text>
<text text-anchor="start" x="368" y="-161.5" font-family="Helvetica,sans-Serif" font-size="10.00">+ unregister_button()</text>
<text text-anchor="start" x="368" y="-150.5" font-family="Helvetica,sans-Serif" font-size="10.00">+ register_axis()</text>
<text text-anchor="start" x="368" y="-139.5" font-family="Helvetica,sans-Serif" font-size="10.00">+ unregister_axis()</text>
<text text-anchor="start" x="368" y="-128.5" font-family="Helvetica,sans-Serif" font-size="10.00">+ register_axis()</text>
<text text-anchor="start" x="368" y="-117.5" font-family="Helvetica,sans-Serif" font-size="10.00">+ unregister_axis()</text>
<text text-anchor="start" x="368" y="-106.5" font-family="Helvetica,sans-Serif" font-size="10.00">+ register_click()</text>
<text text-anchor="start" x="368" y="-95.5" font-family="Helvetica,sans-Serif" font-size="10.00">+ unregister_click()</text>
<text text-anchor="start" x="368" y="-84.5" font-family="Helvetica,sans-Serif" font-size="10.00">+ register_motion()</text>
<text text-anchor="start" x="368" y="-73.5" font-family="Helvetica,sans-Serif" font-size="10.00">+ unregister_motion()</text>
<text text-anchor="start" x="368" y="-62.5" font-family="Helvetica,sans-Serif" font-size="10.00">&#45; input_manager()</text>
<text text-anchor="start" x="368" y="-51.5" font-family="Helvetica,sans-Serif" font-size="10.00">&#45; ~input_manager()</text>
<text text-anchor="start" x="368" y="-40.5" font-family="Helvetica,sans-Serif" font-size="10.00">&#45; sdl_event_callback()</text>
</a>
</g>
</g>
<!-- Node1&#45;&gt;Node4 -->
<g id="edge3" class="edge">
<title>Node1&#45;&gt;Node4</title>
<path fill="none" stroke="midnightblue" d="M693.22,-483.77C644.21,-480.16 562.8,-467.05 512.5,-421 501.86,-411.26 492.6,-399.96 484.55,-387.75"/>
<polygon fill="none" stroke="midnightblue" points="693.26,-487.28 703.46,-484.43 693.7,-480.3 693.26,-487.28"/>
</g>
<!-- Node5 -->
<g id="node5" class="node">
<title>Node5</title>
<g id="a_node5"><a xlink:href="classmkr_1_1material__manager.html" target="_top" xlink:title=" ">
<polygon fill="white" stroke="black" points="521.5,-160 521.5,-261 653.5,-261 653.5,-160 521.5,-160"/>
<text text-anchor="start" x="529.5" y="-249" font-family="Helvetica,sans-Serif" font-size="10.00">mkr::material_manager</text>
<text text-anchor="middle" x="587.5" y="-238" font-family="Helvetica,sans-Serif" font-size="10.00">&lt; material_manager &gt;</text>
<polyline fill="none" stroke="black" points="521.5,-231 653.5,-231 "/>
<text text-anchor="start" x="529.5" y="-219" font-family="Helvetica,sans-Serif" font-size="10.00">&#45; materials_</text>
<polyline fill="none" stroke="black" points="521.5,-212 653.5,-212 "/>
<text text-anchor="start" x="529.5" y="-200" font-family="Helvetica,sans-Serif" font-size="10.00">+ get_material()</text>
<text text-anchor="start" x="529.5" y="-189" font-family="Helvetica,sans-Serif" font-size="10.00">+ make_material()</text>
<text text-anchor="start" x="529.5" y="-178" font-family="Helvetica,sans-Serif" font-size="10.00">&#45; material_manager()</text>
<text text-anchor="start" x="529.5" y="-167" font-family="Helvetica,sans-Serif" font-size="10.00">&#45; ~material_manager()</text>
</a>
</g>
</g>
<!-- Node1&#45;&gt;Node5 -->
<g id="edge4" class="edge">
<title>Node1&#45;&gt;Node5</title>
<path fill="none" stroke="midnightblue" d="M695.16,-456.28C683.41,-446.18 671.32,-434.06 662.5,-421 629.2,-371.7 608.83,-305.9 597.87,-261.29"/>
<polygon fill="none" stroke="midnightblue" points="693.26,-459.26 703.19,-462.94 697.72,-453.86 693.26,-459.26"/>
</g>
<!-- Node6 -->
<g id="node6" class="node">
<title>Node6</title>
<g id="a_node6"><a xlink:href="classmkr_1_1mesh__manager.html" target="_top" xlink:title=" ">
<polygon fill="white" stroke="black" points="671.5,-160 671.5,-261 797.5,-261 797.5,-160 671.5,-160"/>
<text text-anchor="start" x="679.5" y="-249" font-family="Helvetica,sans-Serif" font-size="10.00">mkr::mesh_manager&lt;</text>
<text text-anchor="middle" x="734.5" y="-238" font-family="Helvetica,sans-Serif" font-size="10.00"> mesh_manager &gt;</text>
<polyline fill="none" stroke="black" points="671.5,-231 797.5,-231 "/>
<text text-anchor="start" x="679.5" y="-219" font-family="Helvetica,sans-Serif" font-size="10.00">&#45; meshes_</text>
<polyline fill="none" stroke="black" points="671.5,-212 797.5,-212 "/>
<text text-anchor="start" x="679.5" y="-200" font-family="Helvetica,sans-Serif" font-size="10.00">+ get_mesh()</text>
<text text-anchor="start" x="679.5" y="-189" font-family="Helvetica,sans-Serif" font-size="10.00">+ make_mesh()</text>
<text text-anchor="start" x="679.5" y="-178" font-family="Helvetica,sans-Serif" font-size="10.00">&#45; mesh_manager()</text>
<text text-anchor="start" x="679.5" y="-167" font-family="Helvetica,sans-Serif" font-size="10.00">&#45; ~mesh_manager()</text>
</a>
</g>
</g>
<!-- Node1&#45;&gt;Node6 -->
<g id="edge5" class="edge">
<title>Node1&#45;&gt;Node6</title>
<path fill="none" stroke="midnightblue" d="M734.5,-447.22C734.5,-398.8 734.5,-314.76 734.5,-261.2"/>
<polygon fill="none" stroke="midnightblue" points="731,-447.27 734.5,-457.27 738,-447.27 731,-447.27"/>
</g>
<!-- Node7 -->
<g id="node7" class="node">
<title>Node7</title>
<g id="a_node7"><a xlink:href="classmkr_1_1scene__manager.html" target="_top" xlink:title=" ">
<polygon fill="white" stroke="black" points="816,-149 816,-272 935,-272 935,-149 816,-149"/>
<text text-anchor="start" x="824" y="-260" font-family="Helvetica,sans-Serif" font-size="10.00">mkr::scene_manager</text>
<text text-anchor="middle" x="875.5" y="-249" font-family="Helvetica,sans-Serif" font-size="10.00">&lt; scene_manager &gt;</text>
<polyline fill="none" stroke="black" points="816,-242 935,-242 "/>
<text text-anchor="start" x="824" y="-230" font-family="Helvetica,sans-Serif" font-size="10.00">&#45; scene_</text>
<polyline fill="none" stroke="black" points="816,-223 935,-223 "/>
<text text-anchor="start" x="824" y="-211" font-family="Helvetica,sans-Serif" font-size="10.00">+ active_scene()</text>
<text text-anchor="start" x="824" y="-200" font-family="Helvetica,sans-Serif" font-size="10.00">+ init()</text>
<text text-anchor="start" x="824" y="-189" font-family="Helvetica,sans-Serif" font-size="10.00">+ update()</text>
<text text-anchor="start" x="824" y="-178" font-family="Helvetica,sans-Serif" font-size="10.00">+ exit()</text>
<text text-anchor="start" x="824" y="-167" font-family="Helvetica,sans-Serif" font-size="10.00">&#45; scene_manager()</text>
<text text-anchor="start" x="824" y="-156" font-family="Helvetica,sans-Serif" font-size="10.00">&#45; ~scene_manager()</text>
</a>
</g>
</g>
<!-- Node1&#45;&gt;Node7 -->
<g id="edge6" class="edge">
<title>Node1&#45;&gt;Node7</title>
<path fill="none" stroke="midnightblue" d="M773.4,-456.97C785.36,-446.77 797.69,-434.42 806.5,-421 836.35,-375.55 854.32,-316.06 864.4,-272.09"/>
<polygon fill="none" stroke="midnightblue" points="771.13,-454.3 765.63,-463.35 775.58,-459.71 771.13,-454.3"/>
</g>
<!-- Node8 -->
<g id="node8" class="node">
<title>Node8</title>
<g id="a_node8"><a xlink:href="classmkr_1_1sdl__message__pump.html" target="_top" xlink:title=" ">
<polygon fill="white" stroke="black" points="953.5,-127 953.5,-294 1093.5,-294 1093.5,-127 953.5,-127"/>
<text text-anchor="start" x="961.5" y="-282" font-family="Helvetica,sans-Serif" font-size="10.00">mkr::sdl_message_pump</text>
<text text-anchor="middle" x="1023.5" y="-271" font-family="Helvetica,sans-Serif" font-size="10.00">&lt; sdl_message_pump &gt;</text>
<polyline fill="none" stroke="black" points="953.5,-264 1093.5,-264 "/>
<text text-anchor="start" x="961.5" y="-252" font-family="Helvetica,sans-Serif" font-size="10.00">&#45; event_dispatcher_</text>
<text text-anchor="start" x="961.5" y="-241" font-family="Helvetica,sans-Serif" font-size="10.00">&#45; worker_thread_</text>
<text text-anchor="start" x="961.5" y="-230" font-family="Helvetica,sans-Serif" font-size="10.00">&#45; run_</text>
<polyline fill="none" stroke="black" points="953.5,-223 1093.5,-223 "/>
<text text-anchor="start" x="961.5" y="-211" font-family="Helvetica,sans-Serif" font-size="10.00">+ get_event_dispatcher()</text>
<text text-anchor="start" x="961.5" y="-200" font-family="Helvetica,sans-Serif" font-size="10.00">+ get_event_dispatcher()</text>
<text text-anchor="start" x="961.5" y="-189" font-family="Helvetica,sans-Serif" font-size="10.00">+ init()</text>
<text text-anchor="start" x="961.5" y="-178" font-family="Helvetica,sans-Serif" font-size="10.00">+ start()</text>
<text text-anchor="start" x="961.5" y="-167" font-family="Helvetica,sans-Serif" font-size="10.00">+ stop()</text>
<text text-anchor="start" x="961.5" y="-156" font-family="Helvetica,sans-Serif" font-size="10.00">+ exit()</text>
<text text-anchor="start" x="961.5" y="-145" font-family="Helvetica,sans-Serif" font-size="10.00">&#45; sdl_message_pump()</text>
<text text-anchor="start" x="961.5" y="-134" font-family="Helvetica,sans-Serif" font-size="10.00">&#45; ~sdl_message_pump()</text>
</a>
</g>
</g>
<!-- Node1&#45;&gt;Node8 -->
<g id="edge7" class="edge">
<title>Node1&#45;&gt;Node8</title>
<path fill="none" stroke="midnightblue" d="M775.87,-482.98C822.53,-478.56 897.96,-464.62 944.5,-421 979.88,-387.84 999.54,-337.25 1010.4,-294.09"/>
<polygon fill="none" stroke="midnightblue" points="775.47,-479.5 765.8,-483.83 776.06,-486.48 775.47,-479.5"/>
</g>
<!-- Node9 -->
<g id="node9" class="node">
<title>Node9</title>
<g id="a_node9"><a xlink:href="classmkr_1_1shader__manager.html" target="_top" xlink:title=" ">
<polygon fill="white" stroke="black" points="1111.5,-165.5 1111.5,-255.5 1235.5,-255.5 1235.5,-165.5 1111.5,-165.5"/>
<text text-anchor="start" x="1119.5" y="-243.5" font-family="Helvetica,sans-Serif" font-size="10.00">mkr::shader_manager</text>
<text text-anchor="middle" x="1173.5" y="-232.5" font-family="Helvetica,sans-Serif" font-size="10.00">&lt; shader_manager &gt;</text>
<polyline fill="none" stroke="black" points="1111.5,-225.5 1235.5,-225.5 "/>
<text text-anchor="start" x="1119.5" y="-213.5" font-family="Helvetica,sans-Serif" font-size="10.00">&#45; shaders_</text>
<polyline fill="none" stroke="black" points="1111.5,-206.5 1235.5,-206.5 "/>
<text text-anchor="start" x="1119.5" y="-194.5" font-family="Helvetica,sans-Serif" font-size="10.00">+ get_shader()</text>
<text text-anchor="start" x="1119.5" y="-183.5" font-family="Helvetica,sans-Serif" font-size="10.00">&#45; shader_manager()</text>
<text text-anchor="start" x="1119.5" y="-172.5" font-family="Helvetica,sans-Serif" font-size="10.00">&#45; ~shader_manager()</text>
</a>
</g>
</g>
<!-- Node1&#45;&gt;Node9 -->
<g id="edge8" class="edge">
<title>Node1&#45;&gt;Node9</title>
<path fill="none" stroke="midnightblue" d="M775.73,-483.03C861.22,-478.13 1053.86,-462.65 1102.5,-421 1150.92,-379.54 1166.4,-303.76 1171.3,-255.6"/>
<polygon fill="none" stroke="midnightblue" points="775.4,-479.54 765.61,-483.59 775.79,-486.53 775.4,-479.54"/>
</g>
<!-- Node10 -->
<g id="node10" class="node">
<title>Node10</title>
<g id="a_node10"><a xlink:href="classmkr_1_1texture__manager.html" target="_top" xlink:title=" ">
<polygon fill="white" stroke="black" points="1253.5,-143.5 1253.5,-277.5 1379.5,-277.5 1379.5,-143.5 1253.5,-143.5"/>
<text text-anchor="start" x="1261.5" y="-265.5" font-family="Helvetica,sans-Serif" font-size="10.00">mkr::texture_manager</text>
<text text-anchor="middle" x="1316.5" y="-254.5" font-family="Helvetica,sans-Serif" font-size="10.00">&lt; texture_manager &gt;</text>
<polyline fill="none" stroke="black" points="1253.5,-247.5 1379.5,-247.5 "/>
<text text-anchor="start" x="1261.5" y="-235.5" font-family="Helvetica,sans-Serif" font-size="10.00">&#45; texture2ds_</text>
<text text-anchor="start" x="1261.5" y="-224.5" font-family="Helvetica,sans-Serif" font-size="10.00">&#45; cubemaps_</text>
<polyline fill="none" stroke="black" points="1253.5,-217.5 1379.5,-217.5 "/>
<text text-anchor="start" x="1261.5" y="-205.5" font-family="Helvetica,sans-Serif" font-size="10.00">+ get_texture2d()</text>
<text text-anchor="start" x="1261.5" y="-194.5" font-family="Helvetica,sans-Serif" font-size="10.00">+ make_texture2d()</text>
<text text-anchor="start" x="1261.5" y="-183.5" font-family="Helvetica,sans-Serif" font-size="10.00">+ get_cubemap()</text>
<text text-anchor="start" x="1261.5" y="-172.5" font-family="Helvetica,sans-Serif" font-size="10.00">+ make_cubemap()</text>
<text text-anchor="start" x="1261.5" y="-161.5" font-family="Helvetica,sans-Serif" font-size="10.00">&#45; texture_manager()</text>
<text text-anchor="start" x="1261.5" y="-150.5" font-family="Helvetica,sans-Serif" font-size="10.00">&#45; ~texture_manager()</text>
</a>
</g>
</g>
<!-- Node1&#45;&gt;Node10 -->
<g id="edge9" class="edge">
<title>Node1&#45;&gt;Node10</title>
<path fill="none" stroke="midnightblue" d="M775.74,-485.26C884,-485.13 1172.87,-479.2 1244.5,-421 1287.18,-386.32 1304.65,-325.01 1311.75,-277.65"/>
<polygon fill="none" stroke="midnightblue" points="775.54,-481.76 765.54,-485.26 775.54,-488.76 775.54,-481.76"/>
</g>
</g>
</svg>
