<?xml version="1.0" encoding="UTF-8" standalone="no"?>
<!DOCTYPE svg PUBLIC "-//W3C//DTD SVG 1.1//EN"
 "http://www.w3.org/Graphics/SVG/1.1/DTD/svg11.dtd">
<!-- Generated by graphviz version 2.43.0 (0)
 -->
<!-- Title: mkr::material_manager Pages: 1 -->
<svg width="276pt" height="226pt"
 viewBox="0.00 0.00 276.00 226.00" xmlns="http://www.w3.org/2000/svg" xmlns:xlink="http://www.w3.org/1999/xlink">
<g id="graph0" class="graph" transform="scale(1 1) rotate(0) translate(4 222)">
<title>mkr::material_manager</title>
<polygon fill="white" stroke="transparent" points="-4,4 -4,-222 272,-222 272,4 -4,4"/>
<!-- Node1 -->
<g id="node1" class="node">
<title>Node1</title>
<g id="a_node1"><a xlink:title=" ">
<polygon fill="#bfbfbf" stroke="black" points="62,-0.5 62,-90.5 194,-90.5 194,-0.5 62,-0.5"/>
<text text-anchor="middle" x="128" y="-78.5" font-family="Helvetica,sans-Serif" font-size="10.00">mkr::material_manager</text>
<polyline fill="none" stroke="black" points="62,-71.5 194,-71.5 "/>
<text text-anchor="middle" x="128" y="-59.5" font-family="Helvetica,sans-Serif" font-size="10.00"> </text>
<polyline fill="none" stroke="black" points="62,-52.5 194,-52.5 "/>
<text text-anchor="start" x="70" y="-40.5" font-family="Helvetica,sans-Serif" font-size="10.00">+ get_material()</text>
<text text-anchor="start" x="70" y="-29.5" font-family="Helvetica,sans-Serif" font-size="10.00">+ make_material()</text>
<text text-anchor="start" x="70" y="-18.5" font-family="Helvetica,sans-Serif" font-size="10.00">&#45; material_manager()</text>
<text text-anchor="start" x="70" y="-7.5" font-family="Helvetica,sans-Serif" font-size="10.00">&#45; ~material_manager()</text>
</a>
</g>
</g>
<!-- Node2 -->
<g id="node2" class="node">
<title>Node2</title>
<g id="a_node2"><a xlink:href="classsingleton.html" target="_top" xlink:title=" ">
<polygon fill="white" stroke="black" points="0,-144 0,-212 114,-212 114,-144 0,-144"/>
<text text-anchor="start" x="8" y="-200" font-family="Helvetica,sans-Serif" font-size="10.00">singleton&lt; material</text>
<text text-anchor="middle" x="57" y="-189" font-family="Helvetica,sans-Serif" font-size="10.00">_manager &gt;</text>
<polyline fill="none" stroke="black" points="0,-182 114,-182 "/>
<text text-anchor="middle" x="57" y="-170" font-family="Helvetica,sans-Serif" font-size="10.00"> </text>
<polyline fill="none" stroke="black" points="0,-163 114,-163 "/>
<text text-anchor="middle" x="57" y="-151" font-family="Helvetica,sans-Serif" font-size="10.00"> </text>
</a>
</g>
</g>
<!-- Node2&#45;&gt;Node1 -->
<g id="edge1" class="edge">
<title>Node2&#45;&gt;Node1</title>
<path fill="none" stroke="midnightblue" d="M80,-134.72C87.69,-120.59 96.28,-104.81 104.03,-90.55"/>
<polygon fill="none" stroke="midnightblue" points="76.8,-133.27 75.1,-143.73 82.95,-136.62 76.8,-133.27"/>
</g>
<!-- Node3 -->
<g id="node3" class="node">
<title>Node3</title>
<g id="a_node3"><a xlink:title=" ">
<polygon fill="white" stroke="#bfbfbf" points="132,-138.5 132,-217.5 268,-217.5 268,-138.5 132,-138.5"/>
<text text-anchor="start" x="140" y="-205.5" font-family="Helvetica,sans-Serif" font-size="10.00">unordered_map&lt; std</text>
<text text-anchor="start" x="140" y="-194.5" font-family="Helvetica,sans-Serif" font-size="10.00">::string, std::unique</text>
<text text-anchor="middle" x="200" y="-183.5" font-family="Helvetica,sans-Serif" font-size="10.00">_ptr&lt; mkr::material &gt; &gt;</text>
<polyline fill="none" stroke="#bfbfbf" points="132,-176.5 268,-176.5 "/>
<text text-anchor="middle" x="200" y="-164.5" font-family="Helvetica,sans-Serif" font-size="10.00"> </text>
<polyline fill="none" stroke="#bfbfbf" points="132,-157.5 268,-157.5 "/>
<text text-anchor="middle" x="200" y="-145.5" font-family="Helvetica,sans-Serif" font-size="10.00"> </text>
</a>
</g>
</g>
<!-- Node3&#45;&gt;Node1 -->
<g id="edge2" class="edge">
<title>Node3&#45;&gt;Node1</title>
<path fill="none" stroke="#404040" d="M178.59,-138.2C172.24,-126.69 165.17,-113.87 158.37,-101.54"/>
<polygon fill="none" stroke="#404040" points="158.28,-101.39 151.88,-98.06 152.49,-90.88 158.89,-94.2 158.28,-101.39"/>
<text text-anchor="middle" x="197.5" y="-112" font-family="Helvetica,sans-Serif" font-size="10.00"> &#45;materials_</text>
</g>
</g>
</svg>
