<?xml version="1.0" encoding="UTF-8" standalone="no"?>
<!DOCTYPE svg PUBLIC "-//W3C//DTD SVG 1.1//EN"
 "http://www.w3.org/Graphics/SVG/1.1/DTD/svg11.dtd">
<!-- Generated by graphviz version 2.43.0 (0)
 -->
<!-- Title: mkr::button_event Pages: 1 -->
<svg width="116pt" height="392pt"
 viewBox="0.00 0.00 116.00 392.00" xmlns="http://www.w3.org/2000/svg" xmlns:xlink="http://www.w3.org/1999/xlink">
<g id="graph0" class="graph" transform="scale(1 1) rotate(0) translate(4 388)">
<title>mkr::button_event</title>
<polygon fill="white" stroke="transparent" points="-4,4 -4,-388 112,-388 112,4 -4,4"/>
<!-- Node1 -->
<g id="node1" class="node">
<title>Node1</title>
<g id="a_node1"><a xlink:title=" ">
<polygon fill="#bfbfbf" stroke="black" points="0,-105.5 0,-173.5 108,-173.5 108,-105.5 0,-105.5"/>
<text text-anchor="middle" x="54" y="-161.5" font-family="Helvetica,sans-Serif" font-size="10.00">mkr::button_event</text>
<polyline fill="none" stroke="black" points="0,-154.5 108,-154.5 "/>
<text text-anchor="start" x="8" y="-142.5" font-family="Helvetica,sans-Serif" font-size="10.00">+ state_</text>
<polyline fill="none" stroke="black" points="0,-135.5 108,-135.5 "/>
<text text-anchor="start" x="8" y="-123.5" font-family="Helvetica,sans-Serif" font-size="10.00">+ button_event()</text>
<text text-anchor="start" x="8" y="-112.5" font-family="Helvetica,sans-Serif" font-size="10.00">+ ~button_event()</text>
</a>
</g>
</g>
<!-- Node4 -->
<g id="node4" class="node">
<title>Node4</title>
<g id="a_node4"><a xlink:href="classmkr_1_1click__event.html" target="_top" xlink:title=" ">
<polygon fill="white" stroke="black" points="4.5,-0.5 4.5,-68.5 103.5,-68.5 103.5,-0.5 4.5,-0.5"/>
<text text-anchor="middle" x="54" y="-56.5" font-family="Helvetica,sans-Serif" font-size="10.00">mkr::click_event</text>
<polyline fill="none" stroke="black" points="4.5,-49.5 103.5,-49.5 "/>
<text text-anchor="start" x="12.5" y="-37.5" font-family="Helvetica,sans-Serif" font-size="10.00">+ position_</text>
<polyline fill="none" stroke="black" points="4.5,-30.5 103.5,-30.5 "/>
<text text-anchor="start" x="12.5" y="-18.5" font-family="Helvetica,sans-Serif" font-size="10.00">+ click_event()</text>
<text text-anchor="start" x="12.5" y="-7.5" font-family="Helvetica,sans-Serif" font-size="10.00">+ ~click_event()</text>
</a>
</g>
</g>
<!-- Node1&#45;&gt;Node4 -->
<g id="edge3" class="edge">
<title>Node1&#45;&gt;Node4</title>
<path fill="none" stroke="midnightblue" d="M54,-95.14C54,-86.26 54,-77.04 54,-68.59"/>
<polygon fill="none" stroke="midnightblue" points="50.5,-95.34 54,-105.34 57.5,-95.34 50.5,-95.34"/>
</g>
<!-- Node2 -->
<g id="node2" class="node">
<title>Node2</title>
<g id="a_node2"><a xlink:href="classmkr_1_1input__event.html" target="_top" xlink:title=" ">
<polygon fill="white" stroke="black" points="3.5,-210.5 3.5,-278.5 104.5,-278.5 104.5,-210.5 3.5,-210.5"/>
<text text-anchor="middle" x="54" y="-266.5" font-family="Helvetica,sans-Serif" font-size="10.00">mkr::input_event</text>
<polyline fill="none" stroke="black" points="3.5,-259.5 104.5,-259.5 "/>
<text text-anchor="start" x="11.5" y="-247.5" font-family="Helvetica,sans-Serif" font-size="10.00">+ action_</text>
<polyline fill="none" stroke="black" points="3.5,-240.5 104.5,-240.5 "/>
<text text-anchor="start" x="11.5" y="-228.5" font-family="Helvetica,sans-Serif" font-size="10.00">+ ~input_event()</text>
<text text-anchor="start" x="11.5" y="-217.5" font-family="Helvetica,sans-Serif" font-size="10.00"># input_event()</text>
</a>
</g>
</g>
<!-- Node2&#45;&gt;Node1 -->
<g id="edge1" class="edge">
<title>Node2&#45;&gt;Node1</title>
<path fill="none" stroke="midnightblue" d="M54,-200.14C54,-191.26 54,-182.04 54,-173.59"/>
<polygon fill="none" stroke="midnightblue" points="50.5,-200.34 54,-210.34 57.5,-200.34 50.5,-200.34"/>
</g>
<!-- Node3 -->
<g id="node3" class="node">
<title>Node3</title>
<g id="a_node3"><a xlink:href="classmkr_1_1event.html" target="_top" xlink:title="event(s) contain data that is dispatched by an event_dispatcher, and is received by an event_listener...">
<polygon fill="white" stroke="black" points="18.5,-315.5 18.5,-383.5 89.5,-383.5 89.5,-315.5 18.5,-315.5"/>
<text text-anchor="middle" x="54" y="-371.5" font-family="Helvetica,sans-Serif" font-size="10.00">mkr::event</text>
<polyline fill="none" stroke="black" points="18.5,-364.5 89.5,-364.5 "/>
<text text-anchor="middle" x="54" y="-352.5" font-family="Helvetica,sans-Serif" font-size="10.00"> </text>
<polyline fill="none" stroke="black" points="18.5,-345.5 89.5,-345.5 "/>
<text text-anchor="start" x="26.5" y="-333.5" font-family="Helvetica,sans-Serif" font-size="10.00">+ event()</text>
<text text-anchor="start" x="26.5" y="-322.5" font-family="Helvetica,sans-Serif" font-size="10.00">+ ~event()</text>
</a>
</g>
</g>
<!-- Node3&#45;&gt;Node2 -->
<g id="edge2" class="edge">
<title>Node3&#45;&gt;Node2</title>
<path fill="none" stroke="midnightblue" d="M54,-305.14C54,-296.26 54,-287.04 54,-278.59"/>
<polygon fill="none" stroke="midnightblue" points="50.5,-305.34 54,-315.34 57.5,-305.34 50.5,-305.34"/>
</g>
</g>
</svg>
