<?xml version="1.0" encoding="UTF-8" standalone="no"?>
<!DOCTYPE svg PUBLIC "-//W3C//DTD SVG 1.1//EN"
 "http://www.w3.org/Graphics/SVG/1.1/DTD/svg11.dtd">
<!-- Generated by graphviz version 2.43.0 (0)
 -->
<!-- Title: mkr::texture_manager Pages: 1 -->
<svg width="434pt" height="248pt"
 viewBox="0.00 0.00 434.00 248.00" xmlns="http://www.w3.org/2000/svg" xmlns:xlink="http://www.w3.org/1999/xlink">
<g id="graph0" class="graph" transform="scale(1 1) rotate(0) translate(4 244)">
<title>mkr::texture_manager</title>
<polygon fill="white" stroke="transparent" points="-4,4 -4,-244 430,-244 430,4 -4,4"/>
<!-- Node1 -->
<g id="node1" class="node">
<title>Node1</title>
<g id="a_node1"><a xlink:title=" ">
<polygon fill="#bfbfbf" stroke="black" points="133,-0.5 133,-112.5 259,-112.5 259,-0.5 133,-0.5"/>
<text text-anchor="middle" x="196" y="-100.5" font-family="Helvetica,sans-Serif" font-size="10.00">mkr::texture_manager</text>
<polyline fill="none" stroke="black" points="133,-93.5 259,-93.5 "/>
<text text-anchor="middle" x="196" y="-81.5" font-family="Helvetica,sans-Serif" font-size="10.00"> </text>
<polyline fill="none" stroke="black" points="133,-74.5 259,-74.5 "/>
<text text-anchor="start" x="141" y="-62.5" font-family="Helvetica,sans-Serif" font-size="10.00">+ get_texture2d()</text>
<text text-anchor="start" x="141" y="-51.5" font-family="Helvetica,sans-Serif" font-size="10.00">+ make_texture2d()</text>
<text text-anchor="start" x="141" y="-40.5" font-family="Helvetica,sans-Serif" font-size="10.00">+ get_cubemap()</text>
<text text-anchor="start" x="141" y="-29.5" font-family="Helvetica,sans-Serif" font-size="10.00">+ make_cubemap()</text>
<text text-anchor="start" x="141" y="-18.5" font-family="Helvetica,sans-Serif" font-size="10.00">&#45; texture_manager()</text>
<text text-anchor="start" x="141" y="-7.5" font-family="Helvetica,sans-Serif" font-size="10.00">&#45; ~texture_manager()</text>
</a>
</g>
</g>
<!-- Node2 -->
<g id="node2" class="node">
<title>Node2</title>
<g id="a_node2"><a xlink:href="classsingleton.html" target="_top" xlink:title=" ">
<polygon fill="white" stroke="black" points="0,-166 0,-234 108,-234 108,-166 0,-166"/>
<text text-anchor="start" x="8" y="-222" font-family="Helvetica,sans-Serif" font-size="10.00">singleton&lt; texture</text>
<text text-anchor="middle" x="54" y="-211" font-family="Helvetica,sans-Serif" font-size="10.00">_manager &gt;</text>
<polyline fill="none" stroke="black" points="0,-204 108,-204 "/>
<text text-anchor="middle" x="54" y="-192" font-family="Helvetica,sans-Serif" font-size="10.00"> </text>
<polyline fill="none" stroke="black" points="0,-185 108,-185 "/>
<text text-anchor="middle" x="54" y="-173" font-family="Helvetica,sans-Serif" font-size="10.00"> </text>
</a>
</g>
</g>
<!-- Node2&#45;&gt;Node1 -->
<g id="edge1" class="edge">
<title>Node2&#45;&gt;Node1</title>
<path fill="none" stroke="midnightblue" d="M94.59,-158.55C108.94,-144.25 125.33,-127.92 140.69,-112.61"/>
<polygon fill="none" stroke="midnightblue" points="91.91,-156.29 87.29,-165.82 96.85,-161.25 91.91,-156.29"/>
</g>
<!-- Node3 -->
<g id="node3" class="node">
<title>Node3</title>
<g id="a_node3"><a xlink:title=" ">
<polygon fill="white" stroke="#bfbfbf" points="126,-160.5 126,-239.5 266,-239.5 266,-160.5 126,-160.5"/>
<text text-anchor="start" x="134" y="-227.5" font-family="Helvetica,sans-Serif" font-size="10.00">unordered_map&lt; std</text>
<text text-anchor="start" x="134" y="-216.5" font-family="Helvetica,sans-Serif" font-size="10.00">::string, std::unique</text>
<text text-anchor="middle" x="196" y="-205.5" font-family="Helvetica,sans-Serif" font-size="10.00">_ptr&lt; mkr::cubemap &gt; &gt;</text>
<polyline fill="none" stroke="#bfbfbf" points="126,-198.5 266,-198.5 "/>
<text text-anchor="middle" x="196" y="-186.5" font-family="Helvetica,sans-Serif" font-size="10.00"> </text>
<polyline fill="none" stroke="#bfbfbf" points="126,-179.5 266,-179.5 "/>
<text text-anchor="middle" x="196" y="-167.5" font-family="Helvetica,sans-Serif" font-size="10.00"> </text>
</a>
</g>
</g>
<!-- Node3&#45;&gt;Node1 -->
<g id="edge2" class="edge">
<title>Node3&#45;&gt;Node1</title>
<path fill="none" stroke="#404040" d="M196,-160.33C196,-149.29 196,-136.92 196,-124.69"/>
<polygon fill="none" stroke="#404040" points="196,-124.56 192,-118.56 196,-112.56 200,-118.56 196,-124.56"/>
<text text-anchor="middle" x="227.5" y="-134" font-family="Helvetica,sans-Serif" font-size="10.00"> &#45;cubemaps_</text>
</g>
<!-- Node4 -->
<g id="node4" class="node">
<title>Node4</title>
<g id="a_node4"><a xlink:title=" ">
<polygon fill="white" stroke="#bfbfbf" points="284,-160.5 284,-239.5 426,-239.5 426,-160.5 284,-160.5"/>
<text text-anchor="start" x="292" y="-227.5" font-family="Helvetica,sans-Serif" font-size="10.00">unordered_map&lt; std</text>
<text text-anchor="start" x="292" y="-216.5" font-family="Helvetica,sans-Serif" font-size="10.00">::string, std::unique</text>
<text text-anchor="middle" x="355" y="-205.5" font-family="Helvetica,sans-Serif" font-size="10.00">_ptr&lt; mkr::texture2d &gt; &gt;</text>
<polyline fill="none" stroke="#bfbfbf" points="284,-198.5 426,-198.5 "/>
<text text-anchor="middle" x="355" y="-186.5" font-family="Helvetica,sans-Serif" font-size="10.00"> </text>
<polyline fill="none" stroke="#bfbfbf" points="284,-179.5 426,-179.5 "/>
<text text-anchor="middle" x="355" y="-167.5" font-family="Helvetica,sans-Serif" font-size="10.00"> </text>
</a>
</g>
</g>
<!-- Node4&#45;&gt;Node1 -->
<g id="edge3" class="edge">
<title>Node4&#45;&gt;Node1</title>
<path fill="none" stroke="#404040" d="M311.55,-160.33C297.85,-148.14 282.33,-134.33 267.21,-120.87"/>
<polygon fill="none" stroke="#404040" points="266.84,-120.54 259.69,-119.54 257.87,-112.56 265.01,-113.56 266.84,-120.54"/>
<text text-anchor="middle" x="321.5" y="-134" font-family="Helvetica,sans-Serif" font-size="10.00"> &#45;texture2ds_</text>
</g>
</g>
</svg>
