<?xml version="1.0" encoding="UTF-8" standalone="no"?>
<!DOCTYPE svg PUBLIC "-//W3C//DTD SVG 1.1//EN"
 "http://www.w3.org/Graphics/SVG/1.1/DTD/svg11.dtd">
<!-- Generated by graphviz version 2.43.0 (0)
 -->
<!-- Title: mkr::skybox Pages: 1 -->
<!--zoomable 1075 -->
<svg id="main" version="1.1" xmlns="http://www.w3.org/2000/svg" xmlns:xlink="http://www.w3.org/1999/xlink" xml:space="preserve" onload="init(evt)">
<style type="text/css"><![CDATA[
.edge:hover path { stroke: red; }
.edge:hover polygon { stroke: red; fill: red; }
]]></style>
<script type="text/javascript"><![CDATA[
var edges = document.getElementsByTagName('g');
if (edges && edges.length) {
  for (var i=0;i<edges.length;i++) {
    if (edges[i].id.substr(0,4)=='edge') {
      edges[i].setAttribute('class','edge');
    }
  }
}
]]></script>
        <defs>
                <circle id="rim" cx="0" cy="0" r="7"/>
                <circle id="rim2" cx="0" cy="0" r="3.5"/>
                <g id="zoomPlus">
                        <use xlink:href="#rim" fill="#404040">
                                <set attributeName="fill" to="#808080" begin="zoomplus.mouseover" end="zoomplus.mouseout"/>
                        </use>
                        <path d="M-4,0h8M0,-4v8" fill="none" stroke="white" stroke-width="1.5" pointer-events="none"/>
                </g>
                <g id="zoomMin">
                        <use xlink:href="#rim" fill="#404040">
                                <set attributeName="fill" to="#808080" begin="zoomminus.mouseover" end="zoomminus.mouseout"/>
                        </use>
                        <path d="M-4,0h8" fill="none" stroke="white" stroke-width="1.5" pointer-events="none"/>
                </g>
                <g id="dirArrow">
                        <path fill="none" stroke="white" stroke-width="1.5" d="M0,-3.0v7 M-2.5,-0.5L0,-3.0L2.5,-0.5"/>
                </g>
               <g id="resetDef">
                       <use xlink:href="#rim2" fill="#404040">
                               <set attributeName="fill" to="#808080" begin="reset.mouseover" end="reset.mouseout"/>
                       </use>
               </g>
        </defs>

<script type="text/javascript">
var viewWidth = 653;
var viewHeight = 1075;
var sectionId = 'dynsection-0';
</script>
<script xlink:href="svgpan.js"/>
<svg id="graph" class="graph">
<g id="viewport">
<title>mkr::skybox</title>
<polygon fill="white" stroke="transparent" points="-4,4 -4,-1071 649,-1071 649,4 -4,4"/>
<!-- Node1 -->
<g id="node1" class="node">
<title>Node1</title>
<g id="a_node1"><a xlink:title=" ">
<polygon fill="#bfbfbf" stroke="black" points="357.5,-0.5 357.5,-57.5 434.5,-57.5 434.5,-0.5 357.5,-0.5"/>
<text text-anchor="middle" x="396" y="-45.5" font-family="Helvetica,sans-Serif" font-size="10.00">mkr::skybox</text>
<polyline fill="none" stroke="black" points="357.5,-38.5 434.5,-38.5 "/>
<text text-anchor="middle" x="396" y="-26.5" font-family="Helvetica,sans-Serif" font-size="10.00"> </text>
<polyline fill="none" stroke="black" points="357.5,-19.5 434.5,-19.5 "/>
<text text-anchor="middle" x="396" y="-7.5" font-family="Helvetica,sans-Serif" font-size="10.00"> </text>
</a>
</g>
</g>
<!-- Node2 -->
<g id="node2" class="node">
<title>Node2</title>
<g id="a_node2"><a xlink:href="classmkr_1_1texture__cube.html" target="_top" xlink:title=" ">
<polygon fill="white" stroke="black" points="216.5,-105.5 216.5,-173.5 323.5,-173.5 323.5,-105.5 216.5,-105.5"/>
<text text-anchor="middle" x="270" y="-161.5" font-family="Helvetica,sans-Serif" font-size="10.00">mkr::texture_cube</text>
<polyline fill="none" stroke="black" points="216.5,-154.5 323.5,-154.5 "/>
<text text-anchor="middle" x="270" y="-142.5" font-family="Helvetica,sans-Serif" font-size="10.00"> </text>
<polyline fill="none" stroke="black" points="216.5,-135.5 323.5,-135.5 "/>
<text text-anchor="start" x="224.5" y="-123.5" font-family="Helvetica,sans-Serif" font-size="10.00">+ texture_cube()</text>
<text text-anchor="start" x="224.5" y="-112.5" font-family="Helvetica,sans-Serif" font-size="10.00">+ ~texture_cube()</text>
</a>
</g>
</g>
<!-- Node2&#45;&gt;Node1 -->
<g id="edge1" class="edge">
<title>Node2&#45;&gt;Node1</title>
<path fill="none" stroke="#404040" d="M299.37,-105.48C308.77,-95.59 319.48,-84.99 330,-76 335.44,-71.35 341.35,-66.72 347.32,-62.28"/>
<polygon fill="none" stroke="#404040" points="347.62,-62.06 350.15,-55.31 357.35,-55.04 354.83,-61.79 347.62,-62.06"/>
<text text-anchor="middle" x="356" y="-79" font-family="Helvetica,sans-Serif" font-size="10.00"> +texture_</text>
</g>
<!-- Node3 -->
<g id="node3" class="node">
<title>Node3</title>
<g id="a_node3"><a xlink:href="classmkr_1_1texture.html" target="_top" xlink:title=" ">
<polygon fill="white" stroke="black" points="176,-508.5 176,-653.5 286,-653.5 286,-508.5 176,-508.5"/>
<text text-anchor="middle" x="231" y="-641.5" font-family="Helvetica,sans-Serif" font-size="10.00">mkr::texture</text>
<polyline fill="none" stroke="black" points="176,-634.5 286,-634.5 "/>
<text text-anchor="middle" x="231" y="-622.5" font-family="Helvetica,sans-Serif" font-size="10.00"> </text>
<polyline fill="none" stroke="black" points="176,-615.5 286,-615.5 "/>
<text text-anchor="start" x="184" y="-603.5" font-family="Helvetica,sans-Serif" font-size="10.00">+ ~texture()</text>
<text text-anchor="start" x="184" y="-592.5" font-family="Helvetica,sans-Serif" font-size="10.00">+ name()</text>
<text text-anchor="start" x="184" y="-581.5" font-family="Helvetica,sans-Serif" font-size="10.00">+ width()</text>
<text text-anchor="start" x="184" y="-570.5" font-family="Helvetica,sans-Serif" font-size="10.00">+ height()</text>
<text text-anchor="start" x="184" y="-559.5" font-family="Helvetica,sans-Serif" font-size="10.00">+ wrap_mode()</text>
<text text-anchor="start" x="184" y="-548.5" font-family="Helvetica,sans-Serif" font-size="10.00">+ handle()</text>
<text text-anchor="start" x="184" y="-537.5" font-family="Helvetica,sans-Serif" font-size="10.00">+ bind()</text>
<text text-anchor="start" x="184" y="-526.5" font-family="Helvetica,sans-Serif" font-size="10.00"># texture()</text>
<text text-anchor="start" x="184" y="-515.5" font-family="Helvetica,sans-Serif" font-size="10.00"># mip_map_level()</text>
</a>
</g>
</g>
<!-- Node3&#45;&gt;Node2 -->
<g id="edge2" class="edge">
<title>Node3&#45;&gt;Node2</title>
<path fill="none" stroke="midnightblue" d="M238.25,-498.29C246.91,-400.76 260.97,-242.25 267.05,-173.76"/>
<polygon fill="none" stroke="midnightblue" points="234.75,-498.14 237.35,-508.41 241.72,-498.76 234.75,-498.14"/>
</g>
<!-- Node4 -->
<g id="node4" class="node">
<title>Node4</title>
<g id="a_node4"><a xlink:title=" ">
<polygon fill="white" stroke="#bfbfbf" points="0,-1009.5 0,-1066.5 114,-1066.5 114,-1009.5 0,-1009.5"/>
<text text-anchor="middle" x="57" y="-1054.5" font-family="Helvetica,sans-Serif" font-size="10.00">texture_wrap_mode</text>
<polyline fill="none" stroke="#bfbfbf" points="0,-1047.5 114,-1047.5 "/>
<text text-anchor="middle" x="57" y="-1035.5" font-family="Helvetica,sans-Serif" font-size="10.00"> </text>
<polyline fill="none" stroke="#bfbfbf" points="0,-1028.5 114,-1028.5 "/>
<text text-anchor="middle" x="57" y="-1016.5" font-family="Helvetica,sans-Serif" font-size="10.00"> </text>
</a>
</g>
</g>
<!-- Node4&#45;&gt;Node3 -->
<g id="edge3" class="edge">
<title>Node4&#45;&gt;Node3</title>
<path fill="none" stroke="#404040" d="M67.62,-1009.22C93.26,-942.18 159.35,-769.37 199.17,-665.22"/>
<polygon fill="none" stroke="#404040" points="199.25,-665.02 197.66,-657.99 203.54,-653.81 205.13,-660.84 199.25,-665.02"/>
<text text-anchor="middle" x="120" y="-977.5" font-family="Helvetica,sans-Serif" font-size="10.00"> #wrap_mode_</text>
</g>
<!-- Node5 -->
<g id="node5" class="node">
<title>Node5</title>
<g id="a_node5"><a xlink:title=" ">
<polygon fill="white" stroke="#bfbfbf" points="132,-1009.5 132,-1066.5 188,-1066.5 188,-1009.5 132,-1009.5"/>
<text text-anchor="middle" x="160" y="-1054.5" font-family="Helvetica,sans-Serif" font-size="10.00">uint32_t</text>
<polyline fill="none" stroke="#bfbfbf" points="132,-1047.5 188,-1047.5 "/>
<text text-anchor="middle" x="160" y="-1035.5" font-family="Helvetica,sans-Serif" font-size="10.00"> </text>
<polyline fill="none" stroke="#bfbfbf" points="132,-1028.5 188,-1028.5 "/>
<text text-anchor="middle" x="160" y="-1016.5" font-family="Helvetica,sans-Serif" font-size="10.00"> </text>
</a>
</g>
</g>
<!-- Node5&#45;&gt;Node3 -->
<g id="edge4" class="edge">
<title>Node5&#45;&gt;Node3</title>
<path fill="none" stroke="#404040" d="M164.33,-1009.22C174.77,-942.32 201.65,-770.07 217.91,-665.86"/>
<polygon fill="none" stroke="#404040" points="217.94,-665.67 214.92,-659.12 219.79,-653.81 222.82,-660.36 217.94,-665.67"/>
<text text-anchor="middle" x="195" y="-983" font-family="Helvetica,sans-Serif" font-size="10.00"> #height_</text>
<text text-anchor="middle" x="195" y="-972" font-family="Helvetica,sans-Serif" font-size="10.00">#width_</text>
</g>
<!-- Node6 -->
<g id="node6" class="node">
<title>Node6</title>
<g id="a_node6"><a xlink:title=" ">
<polygon fill="white" stroke="#bfbfbf" points="419,-1009.5 419,-1066.5 463,-1066.5 463,-1009.5 419,-1009.5"/>
<text text-anchor="middle" x="441" y="-1054.5" font-family="Helvetica,sans-Serif" font-size="10.00">string</text>
<polyline fill="none" stroke="#bfbfbf" points="419,-1047.5 463,-1047.5 "/>
<text text-anchor="middle" x="441" y="-1035.5" font-family="Helvetica,sans-Serif" font-size="10.00"> </text>
<polyline fill="none" stroke="#bfbfbf" points="419,-1028.5 463,-1028.5 "/>
<text text-anchor="middle" x="441" y="-1016.5" font-family="Helvetica,sans-Serif" font-size="10.00"> </text>
</a>
</g>
</g>
<!-- Node6&#45;&gt;Node3 -->
<g id="edge5" class="edge">
<title>Node6&#45;&gt;Node3</title>
<path fill="none" stroke="#404040" d="M426.04,-1009.21C417.71,-995.73 406.33,-980.09 393,-969 378.33,-956.79 366.73,-965.22 354,-951 282.17,-870.75 252.1,-747.28 239.64,-665.58"/>
<polygon fill="none" stroke="#404040" points="239.62,-665.46 234.8,-660.1 237.89,-653.59 242.71,-658.95 239.62,-665.46"/>
<text text-anchor="middle" x="435.5" y="-977.5" font-family="Helvetica,sans-Serif" font-size="10.00"> #name_</text>
</g>
<!-- Node8 -->
<g id="node8" class="node">
<title>Node8</title>
<g id="a_node8"><a xlink:href="classmkr_1_1shader__program.html" target="_top" xlink:title=" ">
<polygon fill="white" stroke="black" points="363.5,-211.5 363.5,-950.5 502.5,-950.5 502.5,-211.5 363.5,-211.5"/>
<text text-anchor="middle" x="433" y="-938.5" font-family="Helvetica,sans-Serif" font-size="10.00">mkr::shader_program</text>
<polyline fill="none" stroke="black" points="363.5,-931.5 502.5,-931.5 "/>
<text text-anchor="middle" x="433" y="-919.5" font-family="Helvetica,sans-Serif" font-size="10.00"> </text>
<polyline fill="none" stroke="black" points="363.5,-912.5 502.5,-912.5 "/>
<text text-anchor="start" x="371.5" y="-900.5" font-family="Helvetica,sans-Serif" font-size="10.00">+ shader_program()</text>
<text text-anchor="start" x="371.5" y="-889.5" font-family="Helvetica,sans-Serif" font-size="10.00">+ ~shader_program()</text>
<text text-anchor="start" x="371.5" y="-878.5" font-family="Helvetica,sans-Serif" font-size="10.00">+ name()</text>
<text text-anchor="start" x="371.5" y="-867.5" font-family="Helvetica,sans-Serif" font-size="10.00">+ use()</text>
<text text-anchor="start" x="371.5" y="-856.5" font-family="Helvetica,sans-Serif" font-size="10.00">+ set_uniform()</text>
<text text-anchor="start" x="371.5" y="-845.5" font-family="Helvetica,sans-Serif" font-size="10.00">+ set_uniform()</text>
<text text-anchor="start" x="371.5" y="-834.5" font-family="Helvetica,sans-Serif" font-size="10.00">+ set_uniform()</text>
<text text-anchor="start" x="371.5" y="-823.5" font-family="Helvetica,sans-Serif" font-size="10.00">+ set_uniform()</text>
<text text-anchor="start" x="371.5" y="-812.5" font-family="Helvetica,sans-Serif" font-size="10.00">+ set_uniform()</text>
<text text-anchor="start" x="371.5" y="-801.5" font-family="Helvetica,sans-Serif" font-size="10.00">+ set_uniform()</text>
<text text-anchor="start" x="371.5" y="-790.5" font-family="Helvetica,sans-Serif" font-size="10.00">+ set_uniform()</text>
<text text-anchor="start" x="371.5" y="-779.5" font-family="Helvetica,sans-Serif" font-size="10.00">+ set_uniform()</text>
<text text-anchor="start" x="371.5" y="-768.5" font-family="Helvetica,sans-Serif" font-size="10.00">+ set_uniform()</text>
<text text-anchor="start" x="371.5" y="-757.5" font-family="Helvetica,sans-Serif" font-size="10.00">+ set_uniform()</text>
<text text-anchor="start" x="371.5" y="-746.5" font-family="Helvetica,sans-Serif" font-size="10.00">+ set_uniform()</text>
<text text-anchor="start" x="371.5" y="-735.5" font-family="Helvetica,sans-Serif" font-size="10.00">+ set_uniform()</text>
<text text-anchor="start" x="371.5" y="-724.5" font-family="Helvetica,sans-Serif" font-size="10.00">+ set_uniform()</text>
<text text-anchor="start" x="371.5" y="-713.5" font-family="Helvetica,sans-Serif" font-size="10.00">+ set_uniform()</text>
<text text-anchor="start" x="371.5" y="-702.5" font-family="Helvetica,sans-Serif" font-size="10.00">+ set_uniform()</text>
<text text-anchor="start" x="371.5" y="-691.5" font-family="Helvetica,sans-Serif" font-size="10.00">+ set_uniform()</text>
<text text-anchor="start" x="371.5" y="-680.5" font-family="Helvetica,sans-Serif" font-size="10.00">+ set_uniform()</text>
<text text-anchor="start" x="371.5" y="-669.5" font-family="Helvetica,sans-Serif" font-size="10.00">+ set_uniform()</text>
<text text-anchor="start" x="371.5" y="-658.5" font-family="Helvetica,sans-Serif" font-size="10.00">+ set_uniform()</text>
<text text-anchor="start" x="371.5" y="-647.5" font-family="Helvetica,sans-Serif" font-size="10.00">+ set_uniform()</text>
<text text-anchor="start" x="371.5" y="-636.5" font-family="Helvetica,sans-Serif" font-size="10.00">+ set_uniform()</text>
<text text-anchor="start" x="371.5" y="-625.5" font-family="Helvetica,sans-Serif" font-size="10.00">+ set_uniform()</text>
<text text-anchor="start" x="371.5" y="-614.5" font-family="Helvetica,sans-Serif" font-size="10.00">+ set_uniform()</text>
<text text-anchor="start" x="371.5" y="-603.5" font-family="Helvetica,sans-Serif" font-size="10.00">+ set_uniform()</text>
<text text-anchor="start" x="371.5" y="-592.5" font-family="Helvetica,sans-Serif" font-size="10.00">+ set_uniform()</text>
<text text-anchor="start" x="371.5" y="-581.5" font-family="Helvetica,sans-Serif" font-size="10.00">+ set_uniform()</text>
<text text-anchor="start" x="371.5" y="-570.5" font-family="Helvetica,sans-Serif" font-size="10.00">+ set_uniform()</text>
<text text-anchor="start" x="371.5" y="-559.5" font-family="Helvetica,sans-Serif" font-size="10.00">+ set_uniform()</text>
<text text-anchor="start" x="371.5" y="-548.5" font-family="Helvetica,sans-Serif" font-size="10.00">+ set_uniform()</text>
<text text-anchor="start" x="371.5" y="-537.5" font-family="Helvetica,sans-Serif" font-size="10.00">+ set_uniform()</text>
<text text-anchor="start" x="371.5" y="-526.5" font-family="Helvetica,sans-Serif" font-size="10.00">+ set_uniform()</text>
<text text-anchor="start" x="371.5" y="-515.5" font-family="Helvetica,sans-Serif" font-size="10.00">+ set_uniform()</text>
<text text-anchor="start" x="371.5" y="-504.5" font-family="Helvetica,sans-Serif" font-size="10.00">+ set_uniform()</text>
<text text-anchor="start" x="371.5" y="-493.5" font-family="Helvetica,sans-Serif" font-size="10.00">+ set_uniform()</text>
<text text-anchor="start" x="371.5" y="-482.5" font-family="Helvetica,sans-Serif" font-size="10.00">+ set_uniform()</text>
<text text-anchor="start" x="371.5" y="-471.5" font-family="Helvetica,sans-Serif" font-size="10.00">+ set_uniform()</text>
<text text-anchor="start" x="371.5" y="-460.5" font-family="Helvetica,sans-Serif" font-size="10.00">+ set_uniform()</text>
<text text-anchor="start" x="371.5" y="-449.5" font-family="Helvetica,sans-Serif" font-size="10.00">+ set_uniform()</text>
<text text-anchor="start" x="371.5" y="-438.5" font-family="Helvetica,sans-Serif" font-size="10.00">+ set_uniform()</text>
<text text-anchor="start" x="371.5" y="-427.5" font-family="Helvetica,sans-Serif" font-size="10.00">+ set_uniform()</text>
<text text-anchor="start" x="371.5" y="-416.5" font-family="Helvetica,sans-Serif" font-size="10.00">+ set_uniform()</text>
<text text-anchor="start" x="371.5" y="-405.5" font-family="Helvetica,sans-Serif" font-size="10.00">+ set_uniform()</text>
<text text-anchor="start" x="371.5" y="-394.5" font-family="Helvetica,sans-Serif" font-size="10.00">+ set_uniform()</text>
<text text-anchor="start" x="371.5" y="-383.5" font-family="Helvetica,sans-Serif" font-size="10.00">+ set_uniform()</text>
<text text-anchor="start" x="371.5" y="-372.5" font-family="Helvetica,sans-Serif" font-size="10.00">+ set_uniform()</text>
<text text-anchor="start" x="371.5" y="-361.5" font-family="Helvetica,sans-Serif" font-size="10.00">+ set_uniform()</text>
<text text-anchor="start" x="371.5" y="-350.5" font-family="Helvetica,sans-Serif" font-size="10.00">+ set_uniform()</text>
<text text-anchor="start" x="371.5" y="-339.5" font-family="Helvetica,sans-Serif" font-size="10.00">+ set_uniform()</text>
<text text-anchor="start" x="371.5" y="-328.5" font-family="Helvetica,sans-Serif" font-size="10.00">+ set_uniform()</text>
<text text-anchor="start" x="371.5" y="-317.5" font-family="Helvetica,sans-Serif" font-size="10.00">+ set_uniform()</text>
<text text-anchor="start" x="371.5" y="-306.5" font-family="Helvetica,sans-Serif" font-size="10.00">+ set_uniform()</text>
<text text-anchor="start" x="371.5" y="-295.5" font-family="Helvetica,sans-Serif" font-size="10.00">+ set_uniform()</text>
<text text-anchor="start" x="371.5" y="-284.5" font-family="Helvetica,sans-Serif" font-size="10.00">+ set_uniform()</text>
<text text-anchor="start" x="371.5" y="-273.5" font-family="Helvetica,sans-Serif" font-size="10.00">+ set_uniform()</text>
<text text-anchor="start" x="371.5" y="-262.5" font-family="Helvetica,sans-Serif" font-size="10.00">+ set_uniform()</text>
<text text-anchor="start" x="371.5" y="-251.5" font-family="Helvetica,sans-Serif" font-size="10.00">+ set_uniform()</text>
<text text-anchor="start" x="371.5" y="-240.5" font-family="Helvetica,sans-Serif" font-size="10.00"># get_uniform_location()</text>
<text text-anchor="start" x="371.5" y="-229.5" font-family="Helvetica,sans-Serif" font-size="10.00"># get_attrib_location()</text>
<text text-anchor="start" x="371.5" y="-218.5" font-family="Helvetica,sans-Serif" font-size="10.00"># create_shader()</text>
</a>
</g>
</g>
<!-- Node6&#45;&gt;Node8 -->
<g id="edge9" class="edge">
<title>Node6&#45;&gt;Node8</title>
<path fill="none" stroke="#404040" d="M461.78,-1009.49C465.17,-1003.66 468.17,-997.35 470,-991 472.71,-981.61 470.47,-978.77 470,-969 469.9,-966.91 469.8,-964.82 469.69,-962.72"/>
<polygon fill="none" stroke="#404040" points="469.69,-962.64 465.38,-956.86 469.06,-950.65 473.37,-956.44 469.69,-962.64"/>
<text text-anchor="middle" x="493.5" y="-977.5" font-family="Helvetica,sans-Serif" font-size="10.00"> #name_</text>
</g>
<!-- Node7 -->
<g id="node7" class="node">
<title>Node7</title>
<g id="a_node7"><a xlink:title=" ">
<polygon fill="white" stroke="#bfbfbf" points="244,-1009.5 244,-1066.5 292,-1066.5 292,-1009.5 244,-1009.5"/>
<text text-anchor="middle" x="268" y="-1054.5" font-family="Helvetica,sans-Serif" font-size="10.00">GLuint</text>
<polyline fill="none" stroke="#bfbfbf" points="244,-1047.5 292,-1047.5 "/>
<text text-anchor="middle" x="268" y="-1035.5" font-family="Helvetica,sans-Serif" font-size="10.00"> </text>
<polyline fill="none" stroke="#bfbfbf" points="244,-1028.5 292,-1028.5 "/>
<text text-anchor="middle" x="268" y="-1016.5" font-family="Helvetica,sans-Serif" font-size="10.00"> </text>
</a>
</g>
</g>
<!-- Node7&#45;&gt;Node3 -->
<g id="edge6" class="edge">
<title>Node7&#45;&gt;Node3</title>
<path fill="none" stroke="#404040" d="M243.74,-1012.05C238.94,-1005.67 234.59,-998.47 232,-991 194.81,-883.55 203.75,-750.51 215.67,-665.92"/>
<polygon fill="none" stroke="#404040" points="215.7,-665.67 212.61,-659.16 217.44,-653.8 220.53,-660.32 215.7,-665.67"/>
<text text-anchor="middle" x="257" y="-977.5" font-family="Helvetica,sans-Serif" font-size="10.00"> #handle_</text>
</g>
<!-- Node7&#45;&gt;Node8 -->
<g id="edge10" class="edge">
<title>Node7&#45;&gt;Node8</title>
<path fill="none" stroke="#404040" d="M278.07,-1009.22C294.31,-964.44 327.66,-872.48 359.27,-785.31"/>
<polygon fill="none" stroke="#404040" points="359.33,-785.16 357.61,-778.16 363.42,-773.88 365.13,-780.89 359.33,-785.16"/>
<text text-anchor="middle" x="340.5" y="-977.5" font-family="Helvetica,sans-Serif" font-size="10.00"> #program_handle_</text>
</g>
<!-- Node8&#45;&gt;Node1 -->
<g id="edge7" class="edge">
<title>Node8&#45;&gt;Node1</title>
<path fill="none" stroke="#404040" d="M408.19,-211.23C404.35,-154.15 400.92,-103.19 398.69,-69.96"/>
<polygon fill="none" stroke="#404040" points="398.67,-69.67 394.27,-63.95 397.86,-57.69 402.26,-63.41 398.67,-69.67"/>
<text text-anchor="middle" x="430" y="-137" font-family="Helvetica,sans-Serif" font-size="10.00"> +shader_</text>
</g>
<!-- Node9 -->
<g id="node9" class="node">
<title>Node9</title>
<g id="a_node9"><a xlink:title=" ">
<polygon fill="white" stroke="#bfbfbf" points="499.5,-1009.5 499.5,-1066.5 620.5,-1066.5 620.5,-1009.5 499.5,-1009.5"/>
<text text-anchor="middle" x="560" y="-1054.5" font-family="Helvetica,sans-Serif" font-size="10.00">unique_ptr&lt; GLint[]&gt;</text>
<polyline fill="none" stroke="#bfbfbf" points="499.5,-1047.5 620.5,-1047.5 "/>
<text text-anchor="middle" x="560" y="-1035.5" font-family="Helvetica,sans-Serif" font-size="10.00"> </text>
<polyline fill="none" stroke="#bfbfbf" points="499.5,-1028.5 620.5,-1028.5 "/>
<text text-anchor="middle" x="560" y="-1016.5" font-family="Helvetica,sans-Serif" font-size="10.00"> </text>
</a>
</g>
</g>
<!-- Node9&#45;&gt;Node8 -->
<g id="edge8" class="edge">
<title>Node9&#45;&gt;Node8</title>
<path fill="none" stroke="#404040" d="M552.25,-1009.22C542.5,-974.29 524.74,-910.66 505.84,-842.98"/>
<polygon fill="none" stroke="#404040" points="505.78,-842.76 500.32,-838.05 502.56,-831.2 508.02,-835.9 505.78,-842.76"/>
<text text-anchor="middle" x="595.5" y="-977.5" font-family="Helvetica,sans-Serif" font-size="10.00"> #uniform_handles_</text>
</g>
<!-- Node10 -->
<g id="node10" class="node">
<title>Node10</title>
<g id="a_node10"><a xlink:title=" ">
<polygon fill="white" stroke="#bfbfbf" points="464.5,-111 464.5,-168 511.5,-168 511.5,-111 464.5,-111"/>
<text text-anchor="middle" x="488" y="-156" font-family="Helvetica,sans-Serif" font-size="10.00">colour</text>
<polyline fill="none" stroke="#bfbfbf" points="464.5,-149 511.5,-149 "/>
<text text-anchor="middle" x="488" y="-137" font-family="Helvetica,sans-Serif" font-size="10.00"> </text>
<polyline fill="none" stroke="#bfbfbf" points="464.5,-130 511.5,-130 "/>
<text text-anchor="middle" x="488" y="-118" font-family="Helvetica,sans-Serif" font-size="10.00"> </text>
</a>
</g>
</g>
<!-- Node10&#45;&gt;Node1 -->
<g id="edge11" class="edge">
<title>Node10&#45;&gt;Node1</title>
<path fill="none" stroke="#404040" d="M464.55,-110.84C453.19,-97.45 439.4,-81.19 427.18,-66.77"/>
<polygon fill="none" stroke="#404040" points="427.17,-66.76 420.24,-64.77 419.41,-57.61 426.34,-59.6 427.17,-66.76"/>
<text text-anchor="middle" x="465.5" y="-79" font-family="Helvetica,sans-Serif" font-size="10.00"> +colour_</text>
</g>
</g>
</svg>
        <g id="navigator" transform="translate(0 0)" fill="#404254">
                <rect fill="#f2f5e9" fill-opacity="0.5" stroke="#606060" stroke-width=".5" x="0" y="0" width="60" height="60"/>
                <use id="zoomplus" xlink:href="#zoomPlus" x="17" y="9" onmousedown="handleZoom(evt,'in')"/>
                <use id="zoomminus" xlink:href="#zoomMin" x="42" y="9" onmousedown="handleZoom(evt,'out')"/>
                <use id="reset" xlink:href="#resetDef" x="30" y="36" onmousedown="handleReset()"/>
                <g id="arrowUp" xlink:href="#dirArrow" transform="translate(30 24)" onmousedown="handlePan(0,-1)">
                  <use xlink:href="#rim" fill="#404040">
                        <set attributeName="fill" to="#808080" begin="arrowUp.mouseover" end="arrowUp.mouseout"/>
                  </use>
                  <path fill="none" stroke="white" stroke-width="1.5" d="M0,-3.0v7 M-2.5,-0.5L0,-3.0L2.5,-0.5"/>
                </g>
                <g id="arrowRight" xlink:href="#dirArrow" transform="rotate(90) translate(36 -43)" onmousedown="handlePan(1,0)">
                  <use xlink:href="#rim" fill="#404040">
                        <set attributeName="fill" to="#808080" begin="arrowRight.mouseover" end="arrowRight.mouseout"/>
                  </use>
                  <path fill="none" stroke="white" stroke-width="1.5" d="M0,-3.0v7 M-2.5,-0.5L0,-3.0L2.5,-0.5"/>
                </g>
                <g id="arrowDown" xlink:href="#dirArrow" transform="rotate(180) translate(-30 -48)" onmousedown="handlePan(0,1)">
                  <use xlink:href="#rim" fill="#404040">
                        <set attributeName="fill" to="#808080" begin="arrowDown.mouseover" end="arrowDown.mouseout"/>
                  </use>
                  <path fill="none" stroke="white" stroke-width="1.5" d="M0,-3.0v7 M-2.5,-0.5L0,-3.0L2.5,-0.5"/>
                </g>
                <g id="arrowLeft" xlink:href="#dirArrow" transform="rotate(270) translate(-36 17)" onmousedown="handlePan(-1,0)">
                  <use xlink:href="#rim" fill="#404040">
                        <set attributeName="fill" to="#808080" begin="arrowLeft.mouseover" end="arrowLeft.mouseout"/>
                  </use>
                  <path fill="none" stroke="white" stroke-width="1.5" d="M0,-3.0v7 M-2.5,-0.5L0,-3.0L2.5,-0.5"/>
                </g>
        </g>
        <svg viewBox="0 0 15 15" width="100%" height="30px" preserveAspectRatio="xMaxYMin meet">
         <g id="arrow_out" transform="scale(0.3 0.3)">
          <a xlink:href="classmkr_1_1skybox__coll__graph_org.svg" target="_base">
           <rect id="button" ry="5" rx="5" y="6" x="6" height="38" width="38"
                fill="#f2f5e9" fill-opacity="0.5" stroke="#606060" stroke-width="1.0"/>
           <path id="arrow"
             d="M 11.500037,31.436501 C 11.940474,20.09759 22.043105,11.32322 32.158766,21.979434 L 37.068811,17.246167 C 37.068811,17.246167 37.088388,32 37.088388,32 L 22.160133,31.978069 C 22.160133,31.978069 26.997745,27.140456 26.997745,27.140456 C 18.528582,18.264221 13.291696,25.230495 11.500037,31.436501 z"
             style="fill:#404040;"/>
          </a>
         </g>
        </svg>
</svg>
