<?xml version="1.0" encoding="UTF-8" standalone="no"?>
<!DOCTYPE svg PUBLIC "-//W3C//DTD SVG 1.1//EN"
 "http://www.w3.org/Graphics/SVG/1.1/DTD/svg11.dtd">
<!-- Generated by graphviz version 2.43.0 (0)
 -->
<!-- Title: mkr::framebuffer Pages: 1 -->
<svg width="717pt" height="391pt"
 viewBox="0.00 0.00 717.00 391.00" xmlns="http://www.w3.org/2000/svg" xmlns:xlink="http://www.w3.org/1999/xlink">
<g id="graph0" class="graph" transform="scale(1 1) rotate(0) translate(4 387)">
<title>mkr::framebuffer</title>
<polygon fill="white" stroke="transparent" points="-4,4 -4,-387 713,-387 713,4 -4,4"/>
<!-- Node1 -->
<g id="node1" class="node">
<title>Node1</title>
<g id="a_node1"><a xlink:title=" ">
<polygon fill="#bfbfbf" stroke="black" points="291,-138.5 291,-382.5 474,-382.5 474,-138.5 291,-138.5"/>
<text text-anchor="middle" x="382.5" y="-370.5" font-family="Helvetica,sans-Serif" font-size="10.00">mkr::framebuffer</text>
<polyline fill="none" stroke="black" points="291,-363.5 474,-363.5 "/>
<text text-anchor="start" x="299" y="-351.5" font-family="Helvetica,sans-Serif" font-size="10.00"># handle_</text>
<text text-anchor="start" x="299" y="-340.5" font-family="Helvetica,sans-Serif" font-size="10.00"># colour_attachments_</text>
<text text-anchor="start" x="299" y="-329.5" font-family="Helvetica,sans-Serif" font-size="10.00"># depth_stencil_attachment_</text>
<polyline fill="none" stroke="black" points="291,-322.5 474,-322.5 "/>
<text text-anchor="start" x="299" y="-310.5" font-family="Helvetica,sans-Serif" font-size="10.00">+ ~framebuffer()</text>
<text text-anchor="start" x="299" y="-299.5" font-family="Helvetica,sans-Serif" font-size="10.00">+ is_complete()</text>
<text text-anchor="start" x="299" y="-288.5" font-family="Helvetica,sans-Serif" font-size="10.00">+ get_colour_attachment()</text>
<text text-anchor="start" x="299" y="-277.5" font-family="Helvetica,sans-Serif" font-size="10.00">+ get_colour_attachment()</text>
<text text-anchor="start" x="299" y="-266.5" font-family="Helvetica,sans-Serif" font-size="10.00">+ get_depth_stencil_attachment()</text>
<text text-anchor="start" x="299" y="-255.5" font-family="Helvetica,sans-Serif" font-size="10.00">+ get_depth_stencil_attachment()</text>
<text text-anchor="start" x="299" y="-244.5" font-family="Helvetica,sans-Serif" font-size="10.00">+ bind()</text>
<text text-anchor="start" x="299" y="-233.5" font-family="Helvetica,sans-Serif" font-size="10.00">+ blit_to()</text>
<text text-anchor="start" x="299" y="-222.5" font-family="Helvetica,sans-Serif" font-size="10.00">+ set_read_colour_attachment()</text>
<text text-anchor="start" x="299" y="-211.5" font-family="Helvetica,sans-Serif" font-size="10.00">+ set_draw_colour_attachment()</text>
<text text-anchor="start" x="299" y="-200.5" font-family="Helvetica,sans-Serif" font-size="10.00">+ set_draw_colour_attachment</text>
<text text-anchor="start" x="299" y="-189.5" font-family="Helvetica,sans-Serif" font-size="10.00">_all()</text>
<text text-anchor="start" x="299" y="-178.5" font-family="Helvetica,sans-Serif" font-size="10.00">+ clear_colour()</text>
<text text-anchor="start" x="299" y="-167.5" font-family="Helvetica,sans-Serif" font-size="10.00">+ clear_colour_all()</text>
<text text-anchor="start" x="299" y="-156.5" font-family="Helvetica,sans-Serif" font-size="10.00">+ clear_depth_stencil()</text>
<text text-anchor="start" x="299" y="-145.5" font-family="Helvetica,sans-Serif" font-size="10.00"># framebuffer()</text>
</a>
</g>
</g>
<!-- Node2 -->
<g id="node2" class="node">
<title>Node2</title>
<g id="a_node2"><a xlink:href="classmkr_1_1default__buffer.html" target="_top" xlink:title=" ">
<polygon fill="white" stroke="black" points="0,-0.5 0,-101.5 169,-101.5 169,-0.5 0,-0.5"/>
<text text-anchor="middle" x="84.5" y="-89.5" font-family="Helvetica,sans-Serif" font-size="10.00">mkr::default_buffer</text>
<polyline fill="none" stroke="black" points="0,-82.5 169,-82.5 "/>
<text text-anchor="middle" x="84.5" y="-70.5" font-family="Helvetica,sans-Serif" font-size="10.00"> </text>
<polyline fill="none" stroke="black" points="0,-63.5 169,-63.5 "/>
<text text-anchor="start" x="8" y="-51.5" font-family="Helvetica,sans-Serif" font-size="10.00">+ default_buffer()</text>
<text text-anchor="start" x="8" y="-40.5" font-family="Helvetica,sans-Serif" font-size="10.00">+ ~default_buffer()</text>
<text text-anchor="start" x="8" y="-29.5" font-family="Helvetica,sans-Serif" font-size="10.00">+ set_draw_colour_attachment</text>
<text text-anchor="start" x="8" y="-18.5" font-family="Helvetica,sans-Serif" font-size="10.00">_all()</text>
<text text-anchor="start" x="8" y="-7.5" font-family="Helvetica,sans-Serif" font-size="10.00">+ clear_colour_all()</text>
</a>
</g>
</g>
<!-- Node1&#45;&gt;Node2 -->
<g id="edge1" class="edge">
<title>Node1&#45;&gt;Node2</title>
<path fill="none" stroke="midnightblue" d="M282.43,-189.82C240.88,-160.89 193.62,-127.98 155.7,-101.58"/>
<polygon fill="none" stroke="midnightblue" points="280.45,-192.71 290.66,-195.55 284.45,-186.96 280.45,-192.71"/>
</g>
<!-- Node3 -->
<g id="node3" class="node">
<title>Node3</title>
<g id="a_node3"><a xlink:href="classmkr_1_1forward__buffer.html" target="_top" xlink:title=" ">
<polygon fill="white" stroke="black" points="187,-17 187,-85 302,-85 302,-17 187,-17"/>
<text text-anchor="middle" x="244.5" y="-73" font-family="Helvetica,sans-Serif" font-size="10.00">mkr::forward_buffer</text>
<polyline fill="none" stroke="black" points="187,-66 302,-66 "/>
<text text-anchor="middle" x="244.5" y="-54" font-family="Helvetica,sans-Serif" font-size="10.00"> </text>
<polyline fill="none" stroke="black" points="187,-47 302,-47 "/>
<text text-anchor="start" x="195" y="-35" font-family="Helvetica,sans-Serif" font-size="10.00">+ forward_buffer()</text>
<text text-anchor="start" x="195" y="-24" font-family="Helvetica,sans-Serif" font-size="10.00">+ ~forward_buffer()</text>
</a>
</g>
</g>
<!-- Node1&#45;&gt;Node3 -->
<g id="edge2" class="edge">
<title>Node1&#45;&gt;Node3</title>
<path fill="none" stroke="midnightblue" d="M296.27,-129.85C285.37,-113.46 275.08,-97.99 266.59,-85.22"/>
<polygon fill="none" stroke="midnightblue" points="293.57,-132.11 302.03,-138.5 299.4,-128.23 293.57,-132.11"/>
</g>
<!-- Node4 -->
<g id="node4" class="node">
<title>Node4</title>
<g id="a_node4"><a xlink:href="classmkr_1_1geometry__buffer.html" target="_top" xlink:title=" ">
<polygon fill="white" stroke="black" points="320,-17 320,-85 445,-85 445,-17 320,-17"/>
<text text-anchor="middle" x="382.5" y="-73" font-family="Helvetica,sans-Serif" font-size="10.00">mkr::geometry_buffer</text>
<polyline fill="none" stroke="black" points="320,-66 445,-66 "/>
<text text-anchor="middle" x="382.5" y="-54" font-family="Helvetica,sans-Serif" font-size="10.00"> </text>
<polyline fill="none" stroke="black" points="320,-47 445,-47 "/>
<text text-anchor="start" x="328" y="-35" font-family="Helvetica,sans-Serif" font-size="10.00">+ geometry_buffer()</text>
<text text-anchor="start" x="328" y="-24" font-family="Helvetica,sans-Serif" font-size="10.00">+ ~geometry_buffer()</text>
</a>
</g>
</g>
<!-- Node1&#45;&gt;Node4 -->
<g id="edge3" class="edge">
<title>Node1&#45;&gt;Node4</title>
<path fill="none" stroke="midnightblue" d="M382.5,-128.05C382.5,-112.33 382.5,-97.52 382.5,-85.22"/>
<polygon fill="none" stroke="midnightblue" points="379,-128.5 382.5,-138.5 386,-128.5 379,-128.5"/>
</g>
<!-- Node5 -->
<g id="node5" class="node">
<title>Node5</title>
<g id="a_node5"><a xlink:href="classmkr_1_1light__buffer.html" target="_top" xlink:title=" ">
<polygon fill="white" stroke="black" points="463,-6 463,-96 566,-96 566,-6 463,-6"/>
<text text-anchor="middle" x="514.5" y="-84" font-family="Helvetica,sans-Serif" font-size="10.00">mkr::light_buffer</text>
<polyline fill="none" stroke="black" points="463,-77 566,-77 "/>
<text text-anchor="start" x="471" y="-65" font-family="Helvetica,sans-Serif" font-size="10.00"># diffuse_back_</text>
<text text-anchor="start" x="471" y="-54" font-family="Helvetica,sans-Serif" font-size="10.00"># specular_back_</text>
<polyline fill="none" stroke="black" points="463,-47 566,-47 "/>
<text text-anchor="start" x="471" y="-35" font-family="Helvetica,sans-Serif" font-size="10.00">+ light_buffer()</text>
<text text-anchor="start" x="471" y="-24" font-family="Helvetica,sans-Serif" font-size="10.00">+ ~light_buffer()</text>
<text text-anchor="start" x="471" y="-13" font-family="Helvetica,sans-Serif" font-size="10.00">+ swap_buffers()</text>
</a>
</g>
</g>
<!-- Node1&#45;&gt;Node5 -->
<g id="edge4" class="edge">
<title>Node1&#45;&gt;Node5</title>
<path fill="none" stroke="midnightblue" d="M465,-129.81C472.53,-117.98 479.74,-106.63 486.23,-96.44"/>
<polygon fill="none" stroke="midnightblue" points="461.89,-128.18 459.48,-138.5 467.8,-131.94 461.89,-128.18"/>
</g>
<!-- Node6 -->
<g id="node6" class="node">
<title>Node6</title>
<g id="a_node6"><a xlink:href="classmkr_1_1post__proc__buffer.html" target="_top" xlink:title=" ">
<polygon fill="white" stroke="black" points="584,-11.5 584,-90.5 709,-90.5 709,-11.5 584,-11.5"/>
<text text-anchor="middle" x="646.5" y="-78.5" font-family="Helvetica,sans-Serif" font-size="10.00">mkr::post_proc_buffer</text>
<polyline fill="none" stroke="black" points="584,-71.5 709,-71.5 "/>
<text text-anchor="start" x="592" y="-59.5" font-family="Helvetica,sans-Serif" font-size="10.00"># composite_back_</text>
<polyline fill="none" stroke="black" points="584,-52.5 709,-52.5 "/>
<text text-anchor="start" x="592" y="-40.5" font-family="Helvetica,sans-Serif" font-size="10.00">+ post_proc_buffer()</text>
<text text-anchor="start" x="592" y="-29.5" font-family="Helvetica,sans-Serif" font-size="10.00">+ ~post_proc_buffer()</text>
<text text-anchor="start" x="592" y="-18.5" font-family="Helvetica,sans-Serif" font-size="10.00">+ swap_buffers()</text>
</a>
</g>
</g>
<!-- Node1&#45;&gt;Node6 -->
<g id="edge5" class="edge">
<title>Node1&#45;&gt;Node6</title>
<path fill="none" stroke="midnightblue" d="M482.41,-180.97C521.72,-150.08 565.06,-116.01 597.32,-90.65"/>
<polygon fill="none" stroke="midnightblue" points="479.79,-178.58 474.09,-187.51 484.12,-184.08 479.79,-178.58"/>
</g>
</g>
</svg>
