<?xml version="1.0" encoding="UTF-8" standalone="no"?>
<!DOCTYPE svg PUBLIC "-//W3C//DTD SVG 1.1//EN"
 "http://www.w3.org/Graphics/SVG/1.1/DTD/svg11.dtd">
<!-- Generated by graphviz version 2.43.0 (0)
 -->
<!-- Title: src/graphics/asset_loader Pages: 1 -->
<svg width="292pt" height="239pt"
 viewBox="0.00 0.00 292.00 239.00" xmlns="http://www.w3.org/2000/svg" xmlns:xlink="http://www.w3.org/1999/xlink">
<g id="graph0" class="graph" transform="scale(1 1) rotate(0) translate(4 235)">
<title>src/graphics/asset_loader</title>
<polygon fill="white" stroke="transparent" points="-4,4 -4,-235 288,-235 288,4 -4,4"/>
<g id="clust1" class="cluster">
<title>clusterdir_560415a5d2bc4999842279f4fc1debef</title>
<g id="a_clust1"><a xlink:href="dir_560415a5d2bc4999842279f4fc1debef.html" target="_top" xlink:title="graphics">
<polygon fill="#ddddee" stroke="black" points="8,-8 8,-223 222,-223 222,-8 8,-8"/>
<text text-anchor="middle" x="115" y="-211" font-family="Helvetica,sans-Serif" font-size="10.00">graphics</text>
</a>
</g>
</g>
<!-- dir_197fd57399807dedf8b39125c6572e99 -->
<g id="node1" class="node">
<title>dir_197fd57399807dedf8b39125c6572e99</title>
<g id="a_node1"><a xlink:href="dir_197fd57399807dedf8b39125c6572e99.html" target="_top" xlink:title="material">
<polygon fill="none" stroke="black" points="94,-124 36,-124 36,-88 94,-88 94,-124"/>
<text text-anchor="middle" x="65" y="-103.5" font-family="Helvetica,sans-Serif" font-size="10.00">material</text>
</a>
</g>
</g>
<!-- dir_b4c964e5db30d266dfe13cf364455343 -->
<g id="node3" class="node">
<title>dir_b4c964e5db30d266dfe13cf364455343</title>
<g id="a_node3"><a xlink:href="dir_b4c964e5db30d266dfe13cf364455343.html" target="_top" xlink:title="texture">
<polygon fill="none" stroke="black" points="70,-52 16,-52 16,-16 70,-16 70,-52"/>
<text text-anchor="middle" x="43" y="-31.5" font-family="Helvetica,sans-Serif" font-size="10.00">texture</text>
</a>
</g>
</g>
<!-- dir_197fd57399807dedf8b39125c6572e99&#45;&gt;dir_b4c964e5db30d266dfe13cf364455343 -->
<g id="edge4" class="edge">
<title>dir_197fd57399807dedf8b39125c6572e99&#45;&gt;dir_b4c964e5db30d266dfe13cf364455343</title>
<path fill="none" stroke="black" d="M59.56,-87.7C57.11,-79.9 54.16,-70.51 51.43,-61.83"/>
<polygon fill="black" stroke="black" points="54.71,-60.59 48.38,-52.1 48.04,-62.69 54.71,-60.59"/>
<g id="a_edge4&#45;headlabel"><a xlink:href="dir_000013_000017.html" target="_top" xlink:title="1">
<text text-anchor="middle" x="58.5" y="-60.67" font-family="Helvetica,sans-Serif" font-size="10.00">1</text>
</a>
</g>
</g>
<!-- dir_da8b8e215de8683a35c92e7f25a1c594 -->
<g id="node5" class="node">
<title>dir_da8b8e215de8683a35c92e7f25a1c594</title>
<g id="a_node5"><a xlink:href="dir_da8b8e215de8683a35c92e7f25a1c594.html" target="_top" xlink:title="shader">
<polygon fill="none" stroke="black" points="142,-52 88,-52 88,-16 142,-16 142,-52"/>
<text text-anchor="middle" x="115" y="-31.5" font-family="Helvetica,sans-Serif" font-size="10.00">shader</text>
</a>
</g>
</g>
<!-- dir_197fd57399807dedf8b39125c6572e99&#45;&gt;dir_da8b8e215de8683a35c92e7f25a1c594 -->
<g id="edge5" class="edge">
<title>dir_197fd57399807dedf8b39125c6572e99&#45;&gt;dir_da8b8e215de8683a35c92e7f25a1c594</title>
<path fill="none" stroke="black" d="M77.36,-87.7C83.23,-79.47 90.37,-69.48 96.84,-60.42"/>
<polygon fill="black" stroke="black" points="99.82,-62.28 102.78,-52.1 94.12,-58.21 99.82,-62.28"/>
<g id="a_edge5&#45;headlabel"><a xlink:href="dir_000013_000016.html" target="_top" xlink:title="1">
<text text-anchor="middle" x="100.04" y="-64.35" font-family="Helvetica,sans-Serif" font-size="10.00">1</text>
</a>
</g>
</g>
<!-- dir_47b12e1bae536e4f381849bb96188680 -->
<g id="node2" class="node">
<title>dir_47b12e1bae536e4f381849bb96188680</title>
<g id="a_node2"><a xlink:href="dir_47b12e1bae536e4f381849bb96188680.html" target="_top" xlink:title="lighting">
<polygon fill="none" stroke="black" points="166,-124 112,-124 112,-88 166,-88 166,-124"/>
<text text-anchor="middle" x="139" y="-103.5" font-family="Helvetica,sans-Serif" font-size="10.00">lighting</text>
</a>
</g>
</g>
<!-- dir_47b12e1bae536e4f381849bb96188680&#45;&gt;dir_b4c964e5db30d266dfe13cf364455343 -->
<g id="edge1" class="edge">
<title>dir_47b12e1bae536e4f381849bb96188680&#45;&gt;dir_b4c964e5db30d266dfe13cf364455343</title>
<path fill="none" stroke="black" d="M115.27,-87.7C103.06,-78.8 88.01,-67.82 74.82,-58.2"/>
<polygon fill="black" stroke="black" points="76.6,-55.17 66.46,-52.1 72.48,-60.82 76.6,-55.17"/>
<g id="a_edge1&#45;headlabel"><a xlink:href="dir_000012_000017.html" target="_top" xlink:title="1">
<text text-anchor="middle" x="81.18" y="-52.49" font-family="Helvetica,sans-Serif" font-size="10.00">1</text>
</a>
</g>
</g>
<!-- dir_bcb01f256a1b1966d449763e10e0e243 -->
<g id="node4" class="node">
<title>dir_bcb01f256a1b1966d449763e10e0e243</title>
<g id="a_node4"><a xlink:href="dir_bcb01f256a1b1966d449763e10e0e243.html" target="_top" xlink:title="mesh">
<polygon fill="none" stroke="black" points="214,-52 160,-52 160,-16 214,-16 214,-52"/>
<text text-anchor="middle" x="187" y="-31.5" font-family="Helvetica,sans-Serif" font-size="10.00">mesh</text>
</a>
</g>
</g>
<!-- dir_47b12e1bae536e4f381849bb96188680&#45;&gt;dir_bcb01f256a1b1966d449763e10e0e243 -->
<g id="edge2" class="edge">
<title>dir_47b12e1bae536e4f381849bb96188680&#45;&gt;dir_bcb01f256a1b1966d449763e10e0e243</title>
<path fill="none" stroke="black" d="M150.87,-87.7C156.5,-79.47 163.35,-69.48 169.57,-60.42"/>
<polygon fill="black" stroke="black" points="172.5,-62.33 175.27,-52.1 166.73,-58.37 172.5,-62.33"/>
<g id="a_edge2&#45;headlabel"><a xlink:href="dir_000012_000014.html" target="_top" xlink:title="1">
<text text-anchor="middle" x="172.81" y="-64.4" font-family="Helvetica,sans-Serif" font-size="10.00">1</text>
</a>
</g>
</g>
<!-- dir_47b12e1bae536e4f381849bb96188680&#45;&gt;dir_da8b8e215de8683a35c92e7f25a1c594 -->
<g id="edge3" class="edge">
<title>dir_47b12e1bae536e4f381849bb96188680&#45;&gt;dir_da8b8e215de8683a35c92e7f25a1c594</title>
<path fill="none" stroke="black" d="M133.07,-87.7C130.39,-79.9 127.17,-70.51 124.2,-61.83"/>
<polygon fill="black" stroke="black" points="127.42,-60.43 120.86,-52.1 120.8,-62.7 127.42,-60.43"/>
<g id="a_edge3&#45;headlabel"><a xlink:href="dir_000012_000016.html" target="_top" xlink:title="1">
<text text-anchor="middle" x="131.27" y="-60.41" font-family="Helvetica,sans-Serif" font-size="10.00">1</text>
</a>
</g>
</g>
<!-- dir_27243ffbf0f48067260dfa2df2b84548 -->
<g id="node6" class="node">
<title>dir_27243ffbf0f48067260dfa2df2b84548</title>
<g id="a_node6"><a xlink:href="dir_27243ffbf0f48067260dfa2df2b84548.html" target="_top" xlink:title="asset_loader">
<polygon fill="#eeeeff" stroke="black" points="196.5,-196 117.5,-196 117.5,-160 196.5,-160 196.5,-196"/>
<text text-anchor="middle" x="157" y="-175.5" font-family="Helvetica,sans-Serif" font-size="10.00">asset_loader</text>
</a>
</g>
</g>
<!-- dir_27243ffbf0f48067260dfa2df2b84548&#45;&gt;dir_197fd57399807dedf8b39125c6572e99 -->
<g id="edge6" class="edge">
<title>dir_27243ffbf0f48067260dfa2df2b84548&#45;&gt;dir_197fd57399807dedf8b39125c6572e99</title>
<path fill="none" stroke="black" d="M134.26,-159.7C122.56,-150.8 108.14,-139.82 95.49,-130.2"/>
<polygon fill="black" stroke="black" points="97.56,-127.37 87.48,-124.1 93.32,-132.94 97.56,-127.37"/>
<g id="a_edge6&#45;headlabel"><a xlink:href="dir_000010_000013.html" target="_top" xlink:title="1">
<text text-anchor="middle" x="102.14" y="-124.79" font-family="Helvetica,sans-Serif" font-size="10.00">1</text>
</a>
</g>
</g>
<!-- dir_27243ffbf0f48067260dfa2df2b84548&#45;&gt;dir_47b12e1bae536e4f381849bb96188680 -->
<g id="edge7" class="edge">
<title>dir_27243ffbf0f48067260dfa2df2b84548&#45;&gt;dir_47b12e1bae536e4f381849bb96188680</title>
<path fill="none" stroke="black" d="M152.55,-159.7C150.55,-151.9 148.13,-142.51 145.9,-133.83"/>
<polygon fill="black" stroke="black" points="149.28,-132.92 143.4,-124.1 142.5,-134.66 149.28,-132.92"/>
<g id="a_edge7&#45;headlabel"><a xlink:href="dir_000010_000012.html" target="_top" xlink:title="1">
<text text-anchor="middle" x="152.92" y="-133.19" font-family="Helvetica,sans-Serif" font-size="10.00">1</text>
</a>
</g>
</g>
<!-- dir_27243ffbf0f48067260dfa2df2b84548&#45;&gt;dir_b4c964e5db30d266dfe13cf364455343 -->
<g id="edge8" class="edge">
<title>dir_27243ffbf0f48067260dfa2df2b84548&#45;&gt;dir_b4c964e5db30d266dfe13cf364455343</title>
<path fill="none" stroke="black" d="M117.24,-172.53C86.89,-166.8 46.99,-153.73 27,-124 14.62,-105.58 20.79,-80.37 28.8,-61.48"/>
<polygon fill="black" stroke="black" points="32.05,-62.79 33.07,-52.25 25.69,-59.85 32.05,-62.79"/>
<g id="a_edge8&#45;headlabel"><a xlink:href="dir_000010_000017.html" target="_top" xlink:title="1">
<text text-anchor="middle" x="33.12" y="-64.75" font-family="Helvetica,sans-Serif" font-size="10.00">1</text>
</a>
</g>
</g>
<!-- dir_27243ffbf0f48067260dfa2df2b84548&#45;&gt;dir_bcb01f256a1b1966d449763e10e0e243 -->
<g id="edge10" class="edge">
<title>dir_27243ffbf0f48067260dfa2df2b84548&#45;&gt;dir_bcb01f256a1b1966d449763e10e0e243</title>
<path fill="none" stroke="black" d="M171.33,-159.57C178.45,-149.76 186.31,-136.92 190,-124 195.76,-103.84 194.58,-80.06 192.19,-62.16"/>
<polygon fill="black" stroke="black" points="195.62,-61.46 190.64,-52.11 188.7,-62.53 195.62,-61.46"/>
<g id="a_edge10&#45;headlabel"><a xlink:href="dir_000010_000014.html" target="_top" xlink:title="1">
<text text-anchor="middle" x="198.98" y="-62.08" font-family="Helvetica,sans-Serif" font-size="10.00">1</text>
</a>
</g>
</g>
<!-- dir_27243ffbf0f48067260dfa2df2b84548&#45;&gt;dir_da8b8e215de8683a35c92e7f25a1c594 -->
<g id="edge11" class="edge">
<title>dir_27243ffbf0f48067260dfa2df2b84548&#45;&gt;dir_da8b8e215de8683a35c92e7f25a1c594</title>
<path fill="none" stroke="black" d="M166.42,-159.91C175.25,-141.47 185.63,-111.57 175,-88 169.59,-76 159.97,-65.63 150,-57.32"/>
<polygon fill="black" stroke="black" points="152.05,-54.48 142,-51.11 147.75,-60.01 152.05,-54.48"/>
<g id="a_edge11&#45;headlabel"><a xlink:href="dir_000010_000016.html" target="_top" xlink:title="1">
<text text-anchor="middle" x="156.63" y="-51.94" font-family="Helvetica,sans-Serif" font-size="10.00">1</text>
</a>
</g>
</g>
<!-- dir_b7878ad5ecbf2506f4125b9d34c97e45 -->
<g id="node7" class="node">
<title>dir_b7878ad5ecbf2506f4125b9d34c97e45</title>
<g id="a_node7"><a xlink:href="dir_b7878ad5ecbf2506f4125b9d34c97e45.html" target="_top" xlink:title="util">
<polygon fill="none" stroke="black" points="284,-124 230,-124 230,-88 284,-88 284,-124"/>
<text text-anchor="middle" x="257" y="-103.5" font-family="Helvetica,sans-Serif" font-size="10.00">util</text>
</a>
</g>
</g>
<!-- dir_27243ffbf0f48067260dfa2df2b84548&#45;&gt;dir_b7878ad5ecbf2506f4125b9d34c97e45 -->
<g id="edge9" class="edge">
<title>dir_27243ffbf0f48067260dfa2df2b84548&#45;&gt;dir_b7878ad5ecbf2506f4125b9d34c97e45</title>
<path fill="none" stroke="black" d="M181.46,-159.88C194.3,-150.89 210.2,-139.76 224.09,-130.03"/>
<polygon fill="black" stroke="black" points="226.26,-132.79 232.44,-124.19 222.24,-127.06 226.26,-132.79"/>
<g id="a_edge9&#45;headlabel"><a xlink:href="dir_000010_000021.html" target="_top" xlink:title="2">
<text text-anchor="middle" x="224.94" y="-134.68" font-family="Helvetica,sans-Serif" font-size="10.00">2</text>
</a>
</g>
</g>
</g>
</svg>
