<?xml version="1.0" encoding="UTF-8" standalone="no"?>
<!DOCTYPE svg PUBLIC "-//W3C//DTD SVG 1.1//EN"
 "http://www.w3.org/Graphics/SVG/1.1/DTD/svg11.dtd">
<!-- Generated by graphviz version 2.43.0 (0)
 -->
<!-- Title: src/input Pages: 1 -->
<svg width="114pt" height="239pt"
 viewBox="0.00 0.00 114.00 239.00" xmlns="http://www.w3.org/2000/svg" xmlns:xlink="http://www.w3.org/1999/xlink">
<g id="graph0" class="graph" transform="scale(1 1) rotate(0) translate(4 235)">
<title>src/input</title>
<polygon fill="white" stroke="transparent" points="-4,4 -4,-235 110,-235 110,4 -4,4"/>
<g id="clust1" class="cluster">
<title>clusterdir_68267d1309a1af8e8297ef4c3efbcdba</title>
<g id="a_clust1"><a xlink:href="dir_68267d1309a1af8e8297ef4c3efbcdba.html" target="_top" xlink:title="src">
<polygon fill="#ddddee" stroke="black" points="8,-8 8,-223 98,-223 98,-8 8,-8"/>
<text text-anchor="middle" x="53" y="-211" font-family="Helvetica,sans-Serif" font-size="10.00">src</text>
</a>
</g>
</g>
<!-- dir_844f6ab5c2ae79211596f3dcdd81adb7 -->
<g id="node1" class="node">
<title>dir_844f6ab5c2ae79211596f3dcdd81adb7</title>
<g id="a_node1"><a xlink:href="dir_844f6ab5c2ae79211596f3dcdd81adb7.html" target="_top" xlink:title="application">
<polygon fill="none" stroke="black" points="89.5,-196 18.5,-196 18.5,-160 89.5,-160 89.5,-196"/>
<text text-anchor="middle" x="54" y="-175.5" font-family="Helvetica,sans-Serif" font-size="10.00">application</text>
</a>
</g>
</g>
<!-- dir_f278fbcf62338d746f20818c09b59427 -->
<g id="node2" class="node">
<title>dir_f278fbcf62338d746f20818c09b59427</title>
<g id="a_node2"><a xlink:href="dir_f278fbcf62338d746f20818c09b59427.html" target="_top" xlink:title="event">
<polygon fill="none" stroke="black" points="80,-52 26,-52 26,-16 80,-16 80,-52"/>
<text text-anchor="middle" x="53" y="-31.5" font-family="Helvetica,sans-Serif" font-size="10.00">event</text>
</a>
</g>
</g>
<!-- dir_844f6ab5c2ae79211596f3dcdd81adb7&#45;&gt;dir_f278fbcf62338d746f20818c09b59427 -->
<g id="edge4" class="edge">
<title>dir_844f6ab5c2ae79211596f3dcdd81adb7&#45;&gt;dir_f278fbcf62338d746f20818c09b59427</title>
<path fill="none" stroke="black" d="M42.53,-159.67C36.63,-149.69 30.04,-136.65 27,-124 23.27,-108.44 23.38,-103.59 27,-88 29.1,-78.96 32.97,-69.68 37.09,-61.47"/>
<polygon fill="black" stroke="black" points="40.31,-62.86 41.95,-52.39 34.14,-59.55 40.31,-62.86"/>
<g id="a_edge4&#45;headlabel"><a xlink:href="dir_000001_000003.html" target="_top" xlink:title="1">
<text text-anchor="middle" x="41.12" y="-64.87" font-family="Helvetica,sans-Serif" font-size="10.00">1</text>
</a>
</g>
</g>
<!-- dir_d365e15d984c8d0205117ee0c40d6716 -->
<g id="node3" class="node">
<title>dir_d365e15d984c8d0205117ee0c40d6716</title>
<g id="a_node3"><a xlink:href="dir_d365e15d984c8d0205117ee0c40d6716.html" target="_top" xlink:title="input">
<polygon fill="#eeeeff" stroke="black" points="90,-124 36,-124 36,-88 90,-88 90,-124"/>
<text text-anchor="middle" x="63" y="-103.5" font-family="Helvetica,sans-Serif" font-size="10.00">input</text>
</a>
</g>
</g>
<!-- dir_844f6ab5c2ae79211596f3dcdd81adb7&#45;&gt;dir_d365e15d984c8d0205117ee0c40d6716 -->
<g id="edge3" class="edge">
<title>dir_844f6ab5c2ae79211596f3dcdd81adb7&#45;&gt;dir_d365e15d984c8d0205117ee0c40d6716</title>
<path fill="none" stroke="black" d="M50.31,-159.7C50.51,-151.98 51.47,-142.71 52.92,-134.11"/>
<polygon fill="black" stroke="black" points="56.39,-134.59 54.91,-124.1 49.53,-133.23 56.39,-134.59"/>
<g id="a_edge3&#45;headlabel"><a xlink:href="dir_000001_000018.html" target="_top" xlink:title="1">
<text text-anchor="middle" x="58.48" y="-136.17" font-family="Helvetica,sans-Serif" font-size="10.00">1</text>
</a>
</g>
</g>
<!-- dir_d365e15d984c8d0205117ee0c40d6716&#45;&gt;dir_844f6ab5c2ae79211596f3dcdd81adb7 -->
<g id="edge1" class="edge">
<title>dir_d365e15d984c8d0205117ee0c40d6716&#45;&gt;dir_844f6ab5c2ae79211596f3dcdd81adb7</title>
<path fill="none" stroke="black" d="M66.7,-124.1C66.51,-131.79 65.56,-141.05 64.12,-149.67"/>
<polygon fill="black" stroke="black" points="60.64,-149.21 62.14,-159.7 67.51,-150.56 60.64,-149.21"/>
<g id="a_edge1&#45;headlabel"><a xlink:href="dir_000018_000001.html" target="_top" xlink:title="1">
<text text-anchor="middle" x="58.55" y="-142.63" font-family="Helvetica,sans-Serif" font-size="10.00">1</text>
</a>
</g>
</g>
<!-- dir_d365e15d984c8d0205117ee0c40d6716&#45;&gt;dir_f278fbcf62338d746f20818c09b59427 -->
<g id="edge2" class="edge">
<title>dir_d365e15d984c8d0205117ee0c40d6716&#45;&gt;dir_f278fbcf62338d746f20818c09b59427</title>
<path fill="none" stroke="black" d="M60.53,-87.7C59.43,-79.98 58.1,-70.71 56.87,-62.11"/>
<polygon fill="black" stroke="black" points="60.32,-61.51 55.44,-52.1 53.39,-62.5 60.32,-61.51"/>
<g id="a_edge2&#45;headlabel"><a xlink:href="dir_000018_000003.html" target="_top" xlink:title="5">
<text text-anchor="middle" x="63.64" y="-62.17" font-family="Helvetica,sans-Serif" font-size="10.00">5</text>
</a>
</g>
</g>
</g>
</svg>
