<?xml version="1.0" encoding="UTF-8" standalone="no"?>
<!DOCTYPE svg PUBLIC "-//W3C//DTD SVG 1.1//EN"
 "http://www.w3.org/Graphics/SVG/1.1/DTD/svg11.dtd">
<!-- Generated by graphviz version 2.43.0 (0)
 -->
<!-- Title: src/graphics Pages: 1 -->
<svg width="470pt" height="338pt"
 viewBox="0.00 0.00 470.00 338.34" xmlns="http://www.w3.org/2000/svg" xmlns:xlink="http://www.w3.org/1999/xlink">
<g id="graph0" class="graph" transform="scale(1 1) rotate(0) translate(4 334.34)">
<title>src/graphics</title>
<polygon fill="white" stroke="transparent" points="-4,4 -4,-334.34 466,-334.34 466,4 -4,4"/>
<g id="clust1" class="cluster">
<title>clusterdir_68267d1309a1af8e8297ef4c3efbcdba</title>
<g id="a_clust1"><a xlink:href="dir_68267d1309a1af8e8297ef4c3efbcdba.html" target="_top" xlink:title="src">
<polygon fill="#ddddee" stroke="black" points="8,-8 8,-303 454,-303 454,-8 8,-8"/>
<text text-anchor="middle" x="231" y="-291" font-family="Helvetica,sans-Serif" font-size="10.00">src</text>
</a>
</g>
</g>
<g id="clust2" class="cluster">
<title>clusterdir_560415a5d2bc4999842279f4fc1debef</title>
<g id="a_clust2"><a xlink:href="dir_560415a5d2bc4999842279f4fc1debef.html" target="_top">
<polygon fill="#eeeeff" stroke="black" points="96,-80 96,-276 446,-276 446,-80 96,-80"/>
</a>
</g>
</g>
<!-- dir_b7878ad5ecbf2506f4125b9d34c97e45 -->
<g id="node1" class="node">
<title>dir_b7878ad5ecbf2506f4125b9d34c97e45</title>
<g id="a_node1"><a xlink:href="dir_b7878ad5ecbf2506f4125b9d34c97e45.html" target="_top" xlink:title="util">
<polygon fill="none" stroke="black" points="194,-52 140,-52 140,-16 194,-16 194,-52"/>
<text text-anchor="middle" x="167" y="-31.5" font-family="Helvetica,sans-Serif" font-size="10.00">util</text>
</a>
</g>
</g>
<!-- dir_9b051f5a462ebc902d5afef8d9317d03 -->
<g id="node2" class="node">
<title>dir_9b051f5a462ebc902d5afef8d9317d03</title>
<g id="a_node2"><a xlink:href="dir_9b051f5a462ebc902d5afef8d9317d03.html" target="_top" xlink:title="component">
<polygon fill="none" stroke="black" points="87.5,-268 16.5,-268 16.5,-232 87.5,-232 87.5,-268"/>
<text text-anchor="middle" x="52" y="-247.5" font-family="Helvetica,sans-Serif" font-size="10.00">component</text>
</a>
</g>
</g>
<!-- dir_560415a5d2bc4999842279f4fc1debef -->
<g id="node3" class="node">
<title>dir_560415a5d2bc4999842279f4fc1debef</title>
<text text-anchor="middle" x="135" y="-247.5" font-family="Helvetica,sans-Serif" font-size="10.00">graphics</text>
</g>
<!-- dir_9b051f5a462ebc902d5afef8d9317d03&#45;&gt;dir_560415a5d2bc4999842279f4fc1debef -->
<g id="edge5" class="edge">
<title>dir_9b051f5a462ebc902d5afef8d9317d03&#45;&gt;dir_560415a5d2bc4999842279f4fc1debef</title>
<path fill="none" stroke="black" d="M87.66,-250C90.31,-250 92.95,-250 95.59,-250"/>
<polygon fill="black" stroke="black" points="95.78,-253.5 105.78,-250 95.78,-246.5 95.78,-253.5"/>
<g id="a_edge5&#45;headlabel"><a xlink:href="dir_000002_000009.html" target="_top" xlink:title="5">
<text text-anchor="middle" x="92.19" y="-253.84" font-family="Helvetica,sans-Serif" font-size="10.00">5</text>
</a>
</g>
</g>
<!-- dir_47b12e1bae536e4f381849bb96188680 -->
<g id="node5" class="node">
<title>dir_47b12e1bae536e4f381849bb96188680</title>
<g id="a_node5"><a xlink:href="dir_47b12e1bae536e4f381849bb96188680.html" target="_top" xlink:title="lighting">
<polygon fill="white" stroke="black" points="178,-196 124,-196 124,-160 178,-160 178,-196"/>
<text text-anchor="middle" x="151" y="-175.5" font-family="Helvetica,sans-Serif" font-size="10.00">lighting</text>
</a>
</g>
</g>
<!-- dir_9b051f5a462ebc902d5afef8d9317d03&#45;&gt;dir_47b12e1bae536e4f381849bb96188680 -->
<g id="edge4" class="edge">
<title>dir_9b051f5a462ebc902d5afef8d9317d03&#45;&gt;dir_47b12e1bae536e4f381849bb96188680</title>
<path fill="none" stroke="black" d="M76.22,-231.88C88.92,-222.89 104.66,-211.76 118.42,-202.03"/>
<polygon fill="black" stroke="black" points="120.54,-204.82 126.69,-196.19 116.5,-199.11 120.54,-204.82"/>
<g id="a_edge4&#45;headlabel"><a xlink:href="dir_000002_000011.html" target="_top" xlink:title="1">
<text text-anchor="middle" x="119.25" y="-206.71" font-family="Helvetica,sans-Serif" font-size="10.00">1</text>
</a>
</g>
</g>
<!-- dir_197fd57399807dedf8b39125c6572e99 -->
<g id="node6" class="node">
<title>dir_197fd57399807dedf8b39125c6572e99</title>
<g id="a_node6"><a xlink:href="dir_197fd57399807dedf8b39125c6572e99.html" target="_top" xlink:title="material">
<polygon fill="white" stroke="black" points="254,-196 196,-196 196,-160 254,-160 254,-196"/>
<text text-anchor="middle" x="225" y="-175.5" font-family="Helvetica,sans-Serif" font-size="10.00">material</text>
</a>
</g>
</g>
<!-- dir_9b051f5a462ebc902d5afef8d9317d03&#45;&gt;dir_197fd57399807dedf8b39125c6572e99 -->
<g id="edge3" class="edge">
<title>dir_9b051f5a462ebc902d5afef8d9317d03&#45;&gt;dir_197fd57399807dedf8b39125c6572e99</title>
<path fill="none" stroke="black" d="M87.74,-233.73C89.17,-233.14 90.6,-232.56 92,-232 131.2,-216.25 143.67,-213.54 186.35,-196.16"/>
<polygon fill="black" stroke="black" points="187.7,-199.39 195.62,-192.35 185.04,-192.91 187.7,-199.39"/>
<g id="a_edge3&#45;headlabel"><a xlink:href="dir_000002_000012.html" target="_top" xlink:title="1">
<text text-anchor="middle" x="185.45" y="-200.88" font-family="Helvetica,sans-Serif" font-size="10.00">1</text>
</a>
</g>
</g>
<!-- dir_bcb01f256a1b1966d449763e10e0e243 -->
<g id="node7" class="node">
<title>dir_bcb01f256a1b1966d449763e10e0e243</title>
<g id="a_node7"><a xlink:href="dir_bcb01f256a1b1966d449763e10e0e243.html" target="_top" xlink:title="mesh">
<polygon fill="white" stroke="black" points="158,-124 104,-124 104,-88 158,-88 158,-124"/>
<text text-anchor="middle" x="131" y="-103.5" font-family="Helvetica,sans-Serif" font-size="10.00">mesh</text>
</a>
</g>
</g>
<!-- dir_9b051f5a462ebc902d5afef8d9317d03&#45;&gt;dir_bcb01f256a1b1966d449763e10e0e243 -->
<g id="edge7" class="edge">
<title>dir_9b051f5a462ebc902d5afef8d9317d03&#45;&gt;dir_bcb01f256a1b1966d449763e10e0e243</title>
<path fill="none" stroke="black" d="M49.58,-231.73C47.8,-212.86 47.51,-182.35 60,-160 68.06,-145.57 81.87,-133.92 95.17,-125.25"/>
<polygon fill="black" stroke="black" points="97.07,-128.19 103.78,-119.99 93.42,-122.22 97.07,-128.19"/>
<g id="a_edge7&#45;headlabel"><a xlink:href="dir_000002_000013.html" target="_top" xlink:title="1">
<text text-anchor="middle" x="95.49" y="-129.99" font-family="Helvetica,sans-Serif" font-size="10.00">1</text>
</a>
</g>
</g>
<!-- dir_da8b8e215de8683a35c92e7f25a1c594 -->
<g id="node9" class="node">
<title>dir_da8b8e215de8683a35c92e7f25a1c594</title>
<g id="a_node9"><a xlink:href="dir_da8b8e215de8683a35c92e7f25a1c594.html" target="_top" xlink:title="shader">
<polygon fill="white" stroke="black" points="230,-124 176,-124 176,-88 230,-88 230,-124"/>
<text text-anchor="middle" x="203" y="-103.5" font-family="Helvetica,sans-Serif" font-size="10.00">shader</text>
</a>
</g>
</g>
<!-- dir_9b051f5a462ebc902d5afef8d9317d03&#45;&gt;dir_da8b8e215de8683a35c92e7f25a1c594 -->
<g id="edge8" class="edge">
<title>dir_9b051f5a462ebc902d5afef8d9317d03&#45;&gt;dir_da8b8e215de8683a35c92e7f25a1c594</title>
<path fill="none" stroke="black" d="M53.13,-231.79C55.3,-212.12 61.62,-180.07 80,-160 106.33,-131.25 125.9,-139.53 166.62,-123.82"/>
<polygon fill="black" stroke="black" points="168.05,-127.02 175.94,-119.95 165.36,-120.55 168.05,-127.02"/>
<g id="a_edge8&#45;headlabel"><a xlink:href="dir_000002_000015.html" target="_top" xlink:title="1">
<text text-anchor="middle" x="165.81" y="-128.52" font-family="Helvetica,sans-Serif" font-size="10.00">1</text>
</a>
</g>
</g>
<!-- dir_b4c964e5db30d266dfe13cf364455343 -->
<g id="node11" class="node">
<title>dir_b4c964e5db30d266dfe13cf364455343</title>
<g id="a_node11"><a xlink:href="dir_b4c964e5db30d266dfe13cf364455343.html" target="_top" xlink:title="texture">
<polygon fill="white" stroke="black" points="302,-124 248,-124 248,-88 302,-88 302,-124"/>
<text text-anchor="middle" x="275" y="-103.5" font-family="Helvetica,sans-Serif" font-size="10.00">texture</text>
</a>
</g>
</g>
<!-- dir_9b051f5a462ebc902d5afef8d9317d03&#45;&gt;dir_b4c964e5db30d266dfe13cf364455343 -->
<g id="edge6" class="edge">
<title>dir_9b051f5a462ebc902d5afef8d9317d03&#45;&gt;dir_b4c964e5db30d266dfe13cf364455343</title>
<path fill="none" stroke="black" d="M59.68,-231.94C69.6,-211.79 88.78,-178.66 115,-160 159.28,-128.47 182.78,-142.6 238.13,-123.89"/>
<polygon fill="black" stroke="black" points="239.46,-127.14 247.68,-120.45 237.08,-120.55 239.46,-127.14"/>
<g id="a_edge6&#45;headlabel"><a xlink:href="dir_000002_000017.html" target="_top" xlink:title="1">
<text text-anchor="middle" x="237.04" y="-128.53" font-family="Helvetica,sans-Serif" font-size="10.00">1</text>
</a>
</g>
</g>
<!-- dir_b168724af4cacac856f463e92d5d2abe -->
<g id="node4" class="node">
<title>dir_b168724af4cacac856f463e92d5d2abe</title>
<g id="a_node4"><a xlink:href="dir_b168724af4cacac856f463e92d5d2abe.html" target="_top" xlink:title="framebuffer">
<polygon fill="white" stroke="black" points="438,-196 364,-196 364,-160 438,-160 438,-196"/>
<text text-anchor="middle" x="401" y="-175.5" font-family="Helvetica,sans-Serif" font-size="10.00">framebuffer</text>
</a>
</g>
</g>
<!-- dir_b168724af4cacac856f463e92d5d2abe&#45;&gt;dir_b4c964e5db30d266dfe13cf364455343 -->
<g id="edge22" class="edge">
<title>dir_b168724af4cacac856f463e92d5d2abe&#45;&gt;dir_b4c964e5db30d266dfe13cf364455343</title>
<path fill="none" stroke="black" d="M370.18,-159.88C352.27,-149.93 329.62,-137.35 310.91,-126.95"/>
<polygon fill="black" stroke="black" points="312.52,-123.84 302.08,-122.05 309.12,-129.96 312.52,-123.84"/>
<g id="a_edge22&#45;headlabel"><a xlink:href="dir_000010_000017.html" target="_top" xlink:title="1">
<text text-anchor="middle" x="317.04" y="-120.61" font-family="Helvetica,sans-Serif" font-size="10.00">1</text>
</a>
</g>
</g>
<!-- dir_47b12e1bae536e4f381849bb96188680&#45;&gt;dir_bcb01f256a1b1966d449763e10e0e243 -->
<g id="edge10" class="edge">
<title>dir_47b12e1bae536e4f381849bb96188680&#45;&gt;dir_bcb01f256a1b1966d449763e10e0e243</title>
<path fill="none" stroke="black" d="M146.06,-159.7C143.83,-151.9 141.15,-142.51 138.67,-133.83"/>
<polygon fill="black" stroke="black" points="142,-132.76 135.89,-124.1 135.27,-134.68 142,-132.76"/>
<g id="a_edge10&#45;headlabel"><a xlink:href="dir_000011_000013.html" target="_top" xlink:title="1">
<text text-anchor="middle" x="145.72" y="-132.93" font-family="Helvetica,sans-Serif" font-size="10.00">1</text>
</a>
</g>
</g>
<!-- dir_47b12e1bae536e4f381849bb96188680&#45;&gt;dir_da8b8e215de8683a35c92e7f25a1c594 -->
<g id="edge11" class="edge">
<title>dir_47b12e1bae536e4f381849bb96188680&#45;&gt;dir_da8b8e215de8683a35c92e7f25a1c594</title>
<path fill="none" stroke="black" d="M157.94,-159.7C163.31,-151.3 170.72,-141.07 178.04,-131.86"/>
<polygon fill="black" stroke="black" points="180.77,-134.06 184.4,-124.1 175.35,-129.62 180.77,-134.06"/>
<g id="a_edge11&#45;headlabel"><a xlink:href="dir_000011_000015.html" target="_top" xlink:title="1">
<text text-anchor="middle" x="180.68" y="-136.14" font-family="Helvetica,sans-Serif" font-size="10.00">1</text>
</a>
</g>
</g>
<!-- dir_47b12e1bae536e4f381849bb96188680&#45;&gt;dir_b4c964e5db30d266dfe13cf364455343 -->
<g id="edge9" class="edge">
<title>dir_47b12e1bae536e4f381849bb96188680&#45;&gt;dir_b4c964e5db30d266dfe13cf364455343</title>
<path fill="none" stroke="black" d="M178.21,-161.64C196.06,-151.56 219.6,-138.28 238.99,-127.33"/>
<polygon fill="black" stroke="black" points="240.86,-130.29 247.85,-122.33 237.42,-124.19 240.86,-130.29"/>
<g id="a_edge9&#45;headlabel"><a xlink:href="dir_000011_000017.html" target="_top" xlink:title="1">
<text text-anchor="middle" x="239.13" y="-132.03" font-family="Helvetica,sans-Serif" font-size="10.00">1</text>
</a>
</g>
</g>
<!-- dir_197fd57399807dedf8b39125c6572e99&#45;&gt;dir_da8b8e215de8683a35c92e7f25a1c594 -->
<g id="edge13" class="edge">
<title>dir_197fd57399807dedf8b39125c6572e99&#45;&gt;dir_da8b8e215de8683a35c92e7f25a1c594</title>
<path fill="none" stroke="black" d="M219.56,-159.7C217.11,-151.9 214.16,-142.51 211.43,-133.83"/>
<polygon fill="black" stroke="black" points="214.71,-132.59 208.38,-124.1 208.04,-134.69 214.71,-132.59"/>
<g id="a_edge13&#45;headlabel"><a xlink:href="dir_000012_000015.html" target="_top" xlink:title="1">
<text text-anchor="middle" x="218.5" y="-132.67" font-family="Helvetica,sans-Serif" font-size="10.00">1</text>
</a>
</g>
</g>
<!-- dir_197fd57399807dedf8b39125c6572e99&#45;&gt;dir_b4c964e5db30d266dfe13cf364455343 -->
<g id="edge12" class="edge">
<title>dir_197fd57399807dedf8b39125c6572e99&#45;&gt;dir_b4c964e5db30d266dfe13cf364455343</title>
<path fill="none" stroke="black" d="M237.36,-159.7C243.23,-151.47 250.37,-141.48 256.84,-132.42"/>
<polygon fill="black" stroke="black" points="259.82,-134.28 262.78,-124.1 254.12,-130.21 259.82,-134.28"/>
<g id="a_edge12&#45;headlabel"><a xlink:href="dir_000012_000017.html" target="_top" xlink:title="1">
<text text-anchor="middle" x="260.04" y="-136.35" font-family="Helvetica,sans-Serif" font-size="10.00">1</text>
</a>
</g>
</g>
<!-- dir_bcb01f256a1b1966d449763e10e0e243&#45;&gt;dir_b7878ad5ecbf2506f4125b9d34c97e45 -->
<g id="edge14" class="edge">
<title>dir_bcb01f256a1b1966d449763e10e0e243&#45;&gt;dir_b7878ad5ecbf2506f4125b9d34c97e45</title>
<path fill="none" stroke="black" d="M139.9,-87.7C144,-79.73 148.95,-70.1 153.49,-61.26"/>
<polygon fill="black" stroke="black" points="156.74,-62.6 158.2,-52.1 150.52,-59.4 156.74,-62.6"/>
<g id="a_edge14&#45;headlabel"><a xlink:href="dir_000013_000021.html" target="_top" xlink:title="2">
<text text-anchor="middle" x="157.62" y="-64.59" font-family="Helvetica,sans-Serif" font-size="10.00">2</text>
</a>
</g>
</g>
<!-- dir_3be91838934054dc8688592bc1b65481 -->
<g id="node8" class="node">
<title>dir_3be91838934054dc8688592bc1b65481</title>
<g id="a_node8"><a xlink:href="dir_3be91838934054dc8688592bc1b65481.html" target="_top" xlink:title="renderer">
<polygon fill="white" stroke="black" points="254,-268 196,-268 196,-232 254,-232 254,-268"/>
<text text-anchor="middle" x="225" y="-247.5" font-family="Helvetica,sans-Serif" font-size="10.00">renderer</text>
</a>
</g>
</g>
<!-- dir_3be91838934054dc8688592bc1b65481&#45;&gt;dir_9b051f5a462ebc902d5afef8d9317d03 -->
<g id="edge18" class="edge">
<title>dir_3be91838934054dc8688592bc1b65481&#45;&gt;dir_9b051f5a462ebc902d5afef8d9317d03</title>
<path fill="none" stroke="black" d="M215.48,-268.21C205.33,-285.44 187.48,-310.22 164,-321 138.55,-332.69 125.79,-334.01 101,-321 83.54,-311.83 71.08,-293.31 63.09,-277.49"/>
<polygon fill="black" stroke="black" points="66.1,-275.66 58.69,-268.09 59.76,-278.63 66.1,-275.66"/>
<g id="a_edge18&#45;headlabel"><a xlink:href="dir_000014_000002.html" target="_top" xlink:title="5">
<text text-anchor="middle" x="70.2" y="-275.21" font-family="Helvetica,sans-Serif" font-size="10.00">5</text>
</a>
</g>
</g>
<!-- dir_3be91838934054dc8688592bc1b65481&#45;&gt;dir_b168724af4cacac856f463e92d5d2abe -->
<g id="edge19" class="edge">
<title>dir_3be91838934054dc8688592bc1b65481&#45;&gt;dir_b168724af4cacac856f463e92d5d2abe</title>
<path fill="none" stroke="black" d="M254.06,-237.44C281.32,-226.6 322.52,-210.21 354.37,-197.55"/>
<polygon fill="black" stroke="black" points="355.93,-200.69 363.93,-193.74 353.34,-194.19 355.93,-200.69"/>
<g id="a_edge19&#45;headlabel"><a xlink:href="dir_000014_000010.html" target="_top" xlink:title="6">
<text text-anchor="middle" x="353.64" y="-202.16" font-family="Helvetica,sans-Serif" font-size="10.00">6</text>
</a>
</g>
</g>
<!-- dir_3be91838934054dc8688592bc1b65481&#45;&gt;dir_47b12e1bae536e4f381849bb96188680 -->
<g id="edge16" class="edge">
<title>dir_3be91838934054dc8688592bc1b65481&#45;&gt;dir_47b12e1bae536e4f381849bb96188680</title>
<path fill="none" stroke="black" d="M206.71,-231.7C197.57,-223.05 186.36,-212.45 176.4,-203.03"/>
<polygon fill="black" stroke="black" points="178.75,-200.43 169.08,-196.1 173.94,-205.52 178.75,-200.43"/>
<g id="a_edge16&#45;headlabel"><a xlink:href="dir_000014_000011.html" target="_top" xlink:title="1">
<text text-anchor="middle" x="183.31" y="-198.34" font-family="Helvetica,sans-Serif" font-size="10.00">1</text>
</a>
</g>
</g>
<!-- dir_3be91838934054dc8688592bc1b65481&#45;&gt;dir_197fd57399807dedf8b39125c6572e99 -->
<g id="edge15" class="edge">
<title>dir_3be91838934054dc8688592bc1b65481&#45;&gt;dir_197fd57399807dedf8b39125c6572e99</title>
<path fill="none" stroke="black" d="M225,-231.7C225,-223.98 225,-214.71 225,-206.11"/>
<polygon fill="black" stroke="black" points="228.5,-206.1 225,-196.1 221.5,-206.1 228.5,-206.1"/>
<g id="a_edge15&#45;headlabel"><a xlink:href="dir_000014_000012.html" target="_top" xlink:title="1">
<text text-anchor="middle" x="231.34" y="-207.2" font-family="Helvetica,sans-Serif" font-size="10.00">1</text>
</a>
</g>
</g>
<!-- dir_3be91838934054dc8688592bc1b65481&#45;&gt;dir_bcb01f256a1b1966d449763e10e0e243 -->
<g id="edge20" class="edge">
<title>dir_3be91838934054dc8688592bc1b65481&#45;&gt;dir_bcb01f256a1b1966d449763e10e0e243</title>
<path fill="none" stroke="black" d="M195.9,-238.99C166.53,-228.22 124.22,-210.67 115,-196 103.19,-177.21 109.31,-152.03 117.15,-133.25"/>
<polygon fill="black" stroke="black" points="120.36,-134.64 121.32,-124.08 113.99,-131.74 120.36,-134.64"/>
<g id="a_edge20&#45;headlabel"><a xlink:href="dir_000014_000013.html" target="_top" xlink:title="2">
<text text-anchor="middle" x="121.46" y="-136.58" font-family="Helvetica,sans-Serif" font-size="10.00">2</text>
</a>
</g>
</g>
<!-- dir_3be91838934054dc8688592bc1b65481&#45;&gt;dir_da8b8e215de8683a35c92e7f25a1c594 -->
<g id="edge21" class="edge">
<title>dir_3be91838934054dc8688592bc1b65481&#45;&gt;dir_da8b8e215de8683a35c92e7f25a1c594</title>
<path fill="none" stroke="black" d="M241.46,-231.92C249.65,-222.22 258.7,-209.37 263,-196 267.9,-180.77 269.58,-174.59 263,-160 257.59,-148 247.97,-137.63 238,-129.32"/>
<polygon fill="black" stroke="black" points="240.05,-126.48 230,-123.11 235.75,-132.01 240.05,-126.48"/>
<g id="a_edge21&#45;headlabel"><a xlink:href="dir_000014_000015.html" target="_top" xlink:title="8">
<text text-anchor="middle" x="244.63" y="-123.94" font-family="Helvetica,sans-Serif" font-size="10.00">8</text>
</a>
</g>
</g>
<!-- dir_618d288e0cb5f5ed7198eb8ed8bd40bc -->
<g id="node10" class="node">
<title>dir_618d288e0cb5f5ed7198eb8ed8bd40bc</title>
<g id="a_node10"><a xlink:href="dir_618d288e0cb5f5ed7198eb8ed8bd40bc.html" target="_top" xlink:title="shadow">
<polygon fill="white" stroke="black" points="346,-196 292,-196 292,-160 346,-160 346,-196"/>
<text text-anchor="middle" x="319" y="-175.5" font-family="Helvetica,sans-Serif" font-size="10.00">shadow</text>
</a>
</g>
</g>
<!-- dir_3be91838934054dc8688592bc1b65481&#45;&gt;dir_618d288e0cb5f5ed7198eb8ed8bd40bc -->
<g id="edge17" class="edge">
<title>dir_3be91838934054dc8688592bc1b65481&#45;&gt;dir_618d288e0cb5f5ed7198eb8ed8bd40bc</title>
<path fill="none" stroke="black" d="M248.24,-231.7C260.19,-222.8 274.92,-211.82 287.85,-202.2"/>
<polygon fill="black" stroke="black" points="290.1,-204.88 296.03,-196.1 285.92,-199.27 290.1,-204.88"/>
<g id="a_edge17&#45;headlabel"><a xlink:href="dir_000014_000016.html" target="_top" xlink:title="1">
<text text-anchor="middle" x="288.91" y="-206.81" font-family="Helvetica,sans-Serif" font-size="10.00">1</text>
</a>
</g>
</g>
<!-- dir_da8b8e215de8683a35c92e7f25a1c594&#45;&gt;dir_b7878ad5ecbf2506f4125b9d34c97e45 -->
<g id="edge2" class="edge">
<title>dir_da8b8e215de8683a35c92e7f25a1c594&#45;&gt;dir_b7878ad5ecbf2506f4125b9d34c97e45</title>
<path fill="none" stroke="black" d="M194.1,-87.7C190,-79.73 185.05,-70.1 180.51,-61.26"/>
<polygon fill="black" stroke="black" points="183.48,-59.4 175.8,-52.1 177.26,-62.6 183.48,-59.4"/>
<g id="a_edge2&#45;headlabel"><a xlink:href="dir_000015_000021.html" target="_top" xlink:title="1">
<text text-anchor="middle" x="187.65" y="-58.79" font-family="Helvetica,sans-Serif" font-size="10.00">1</text>
</a>
</g>
</g>
<!-- dir_da8b8e215de8683a35c92e7f25a1c594&#45;&gt;dir_47b12e1bae536e4f381849bb96188680 -->
<g id="edge1" class="edge">
<title>dir_da8b8e215de8683a35c92e7f25a1c594&#45;&gt;dir_47b12e1bae536e4f381849bb96188680</title>
<path fill="none" stroke="black" d="M196.19,-124.1C190.85,-132.47 183.46,-142.69 176.13,-151.92"/>
<polygon fill="black" stroke="black" points="173.39,-149.74 169.77,-159.7 178.81,-154.17 173.39,-149.74"/>
<g id="a_edge1&#45;headlabel"><a xlink:href="dir_000015_000011.html" target="_top" xlink:title="3">
<text text-anchor="middle" x="173.47" y="-142.66" font-family="Helvetica,sans-Serif" font-size="10.00">3</text>
</a>
</g>
</g>
</g>
</svg>
