<?xml version="1.0" encoding="UTF-8" standalone="no"?>
<!DOCTYPE svg PUBLIC "-//W3C//DTD SVG 1.1//EN"
 "http://www.w3.org/Graphics/SVG/1.1/DTD/svg11.dtd">
<!-- Generated by graphviz version 2.43.0 (0)
 -->
<!-- Title: src/graphics/renderer Pages: 1 -->
<svg width="365pt" height="311pt"
 viewBox="0.00 0.00 364.50 311.00" xmlns="http://www.w3.org/2000/svg" xmlns:xlink="http://www.w3.org/1999/xlink">
<g id="graph0" class="graph" transform="scale(1 1) rotate(0) translate(4 307)">
<title>src/graphics/renderer</title>
<polygon fill="white" stroke="transparent" points="-4,4 -4,-307 360.5,-307 360.5,4 -4,4"/>
<g id="clust1" class="cluster">
<title>clusterdir_560415a5d2bc4999842279f4fc1debef</title>
<g id="a_clust1"><a xlink:href="dir_560415a5d2bc4999842279f4fc1debef.html" target="_top" xlink:title="graphics">
<polygon fill="#ddddee" stroke="black" points="8,-8 8,-295 275,-295 275,-8 8,-8"/>
<text text-anchor="middle" x="141.5" y="-283" font-family="Helvetica,sans-Serif" font-size="10.00">graphics</text>
</a>
</g>
</g>
<!-- dir_197fd57399807dedf8b39125c6572e99 -->
<g id="node1" class="node">
<title>dir_197fd57399807dedf8b39125c6572e99</title>
<g id="a_node1"><a xlink:href="dir_197fd57399807dedf8b39125c6572e99.html" target="_top" xlink:title="material">
<polygon fill="none" stroke="black" points="155,-124 97,-124 97,-88 155,-88 155,-124"/>
<text text-anchor="middle" x="126" y="-103.5" font-family="Helvetica,sans-Serif" font-size="10.00">material</text>
</a>
</g>
</g>
<!-- dir_da8b8e215de8683a35c92e7f25a1c594 -->
<g id="node6" class="node">
<title>dir_da8b8e215de8683a35c92e7f25a1c594</title>
<g id="a_node6"><a xlink:href="dir_da8b8e215de8683a35c92e7f25a1c594.html" target="_top" xlink:title="shader">
<polygon fill="none" stroke="black" points="153,-52 99,-52 99,-16 153,-16 153,-52"/>
<text text-anchor="middle" x="126" y="-31.5" font-family="Helvetica,sans-Serif" font-size="10.00">shader</text>
</a>
</g>
</g>
<!-- dir_197fd57399807dedf8b39125c6572e99&#45;&gt;dir_da8b8e215de8683a35c92e7f25a1c594 -->
<g id="edge7" class="edge">
<title>dir_197fd57399807dedf8b39125c6572e99&#45;&gt;dir_da8b8e215de8683a35c92e7f25a1c594</title>
<path fill="none" stroke="black" d="M126,-87.7C126,-79.98 126,-70.71 126,-62.11"/>
<polygon fill="black" stroke="black" points="129.5,-62.1 126,-52.1 122.5,-62.1 129.5,-62.1"/>
<g id="a_edge7&#45;headlabel"><a xlink:href="dir_000013_000016.html" target="_top" xlink:title="1">
<text text-anchor="middle" x="132.34" y="-63.2" font-family="Helvetica,sans-Serif" font-size="10.00">1</text>
</a>
</g>
</g>
<!-- dir_27243ffbf0f48067260dfa2df2b84548 -->
<g id="node2" class="node">
<title>dir_27243ffbf0f48067260dfa2df2b84548</title>
<g id="a_node2"><a xlink:href="dir_27243ffbf0f48067260dfa2df2b84548.html" target="_top" xlink:title="asset_loader">
<polygon fill="none" stroke="black" points="134.5,-196 55.5,-196 55.5,-160 134.5,-160 134.5,-196"/>
<text text-anchor="middle" x="95" y="-175.5" font-family="Helvetica,sans-Serif" font-size="10.00">asset_loader</text>
</a>
</g>
</g>
<!-- dir_27243ffbf0f48067260dfa2df2b84548&#45;&gt;dir_197fd57399807dedf8b39125c6572e99 -->
<g id="edge15" class="edge">
<title>dir_27243ffbf0f48067260dfa2df2b84548&#45;&gt;dir_197fd57399807dedf8b39125c6572e99</title>
<path fill="none" stroke="black" d="M102.66,-159.7C106.19,-151.73 110.46,-142.1 114.37,-133.26"/>
<polygon fill="black" stroke="black" points="117.58,-134.67 118.43,-124.1 111.18,-131.83 117.58,-134.67"/>
<g id="a_edge15&#45;headlabel"><a xlink:href="dir_000010_000013.html" target="_top" xlink:title="1">
<text text-anchor="middle" x="118.72" y="-136.6" font-family="Helvetica,sans-Serif" font-size="10.00">1</text>
</a>
</g>
</g>
<!-- dir_47b12e1bae536e4f381849bb96188680 -->
<g id="node3" class="node">
<title>dir_47b12e1bae536e4f381849bb96188680</title>
<g id="a_node3"><a xlink:href="dir_47b12e1bae536e4f381849bb96188680.html" target="_top" xlink:title="lighting">
<polygon fill="none" stroke="black" points="247,-124 193,-124 193,-88 247,-88 247,-124"/>
<text text-anchor="middle" x="220" y="-103.5" font-family="Helvetica,sans-Serif" font-size="10.00">lighting</text>
</a>
</g>
</g>
<!-- dir_27243ffbf0f48067260dfa2df2b84548&#45;&gt;dir_47b12e1bae536e4f381849bb96188680 -->
<g id="edge16" class="edge">
<title>dir_27243ffbf0f48067260dfa2df2b84548&#45;&gt;dir_47b12e1bae536e4f381849bb96188680</title>
<path fill="none" stroke="black" d="M125.58,-159.88C143.22,-150 165.5,-137.52 183.98,-127.17"/>
<polygon fill="black" stroke="black" points="185.7,-130.22 192.72,-122.28 182.28,-124.11 185.7,-130.22"/>
<g id="a_edge16&#45;headlabel"><a xlink:href="dir_000010_000012.html" target="_top" xlink:title="1">
<text text-anchor="middle" x="183.95" y="-131.95" font-family="Helvetica,sans-Serif" font-size="10.00">1</text>
</a>
</g>
</g>
<!-- dir_bcb01f256a1b1966d449763e10e0e243 -->
<g id="node5" class="node">
<title>dir_bcb01f256a1b1966d449763e10e0e243</title>
<g id="a_node5"><a xlink:href="dir_bcb01f256a1b1966d449763e10e0e243.html" target="_top" xlink:title="mesh">
<polygon fill="none" stroke="black" points="257,-52 203,-52 203,-16 257,-16 257,-52"/>
<text text-anchor="middle" x="230" y="-31.5" font-family="Helvetica,sans-Serif" font-size="10.00">mesh</text>
</a>
</g>
</g>
<!-- dir_27243ffbf0f48067260dfa2df2b84548&#45;&gt;dir_bcb01f256a1b1966d449763e10e0e243 -->
<g id="edge17" class="edge">
<title>dir_27243ffbf0f48067260dfa2df2b84548&#45;&gt;dir_bcb01f256a1b1966d449763e10e0e243</title>
<path fill="none" stroke="black" d="M122.37,-159.88C136,-150.44 152.07,-137.84 164,-124 175.95,-110.14 173.5,-102.99 184,-88 190.74,-78.37 198.94,-68.48 206.53,-59.88"/>
<polygon fill="black" stroke="black" points="209.18,-62.16 213.27,-52.39 203.98,-57.48 209.18,-62.16"/>
<g id="a_edge17&#45;headlabel"><a xlink:href="dir_000010_000014.html" target="_top" xlink:title="1">
<text text-anchor="middle" x="208.88" y="-64.24" font-family="Helvetica,sans-Serif" font-size="10.00">1</text>
</a>
</g>
</g>
<!-- dir_27243ffbf0f48067260dfa2df2b84548&#45;&gt;dir_da8b8e215de8683a35c92e7f25a1c594 -->
<g id="edge18" class="edge">
<title>dir_27243ffbf0f48067260dfa2df2b84548&#45;&gt;dir_da8b8e215de8683a35c92e7f25a1c594</title>
<path fill="none" stroke="black" d="M89.84,-159.82C85.22,-141.56 80.27,-112.05 88,-88 91.19,-78.08 97,-68.44 103.13,-60.17"/>
<polygon fill="black" stroke="black" points="106.07,-62.09 109.54,-52.08 100.58,-57.74 106.07,-62.09"/>
<g id="a_edge18&#45;headlabel"><a xlink:href="dir_000010_000016.html" target="_top" xlink:title="1">
<text text-anchor="middle" x="106.06" y="-64.17" font-family="Helvetica,sans-Serif" font-size="10.00">1</text>
</a>
</g>
</g>
<!-- dir_47b12e1bae536e4f381849bb96188680&#45;&gt;dir_bcb01f256a1b1966d449763e10e0e243 -->
<g id="edge5" class="edge">
<title>dir_47b12e1bae536e4f381849bb96188680&#45;&gt;dir_bcb01f256a1b1966d449763e10e0e243</title>
<path fill="none" stroke="black" d="M222.47,-87.7C223.57,-79.98 224.9,-70.71 226.13,-62.11"/>
<polygon fill="black" stroke="black" points="229.61,-62.5 227.56,-52.1 222.68,-61.51 229.61,-62.5"/>
<g id="a_edge5&#45;headlabel"><a xlink:href="dir_000012_000014.html" target="_top" xlink:title="1">
<text text-anchor="middle" x="231.91" y="-63.96" font-family="Helvetica,sans-Serif" font-size="10.00">1</text>
</a>
</g>
</g>
<!-- dir_47b12e1bae536e4f381849bb96188680&#45;&gt;dir_da8b8e215de8683a35c92e7f25a1c594 -->
<g id="edge6" class="edge">
<title>dir_47b12e1bae536e4f381849bb96188680&#45;&gt;dir_da8b8e215de8683a35c92e7f25a1c594</title>
<path fill="none" stroke="black" d="M196.76,-87.7C184.81,-78.8 170.08,-67.82 157.15,-58.2"/>
<polygon fill="black" stroke="black" points="159.08,-55.27 148.97,-52.1 154.9,-60.88 159.08,-55.27"/>
<g id="a_edge6&#45;headlabel"><a xlink:href="dir_000012_000016.html" target="_top" xlink:title="1">
<text text-anchor="middle" x="163.66" y="-52.64" font-family="Helvetica,sans-Serif" font-size="10.00">1</text>
</a>
</g>
</g>
<!-- dir_b168724af4cacac856f463e92d5d2abe -->
<g id="node4" class="node">
<title>dir_b168724af4cacac856f463e92d5d2abe</title>
<g id="a_node4"><a xlink:href="dir_b168724af4cacac856f463e92d5d2abe.html" target="_top" xlink:title="framebuffer">
<polygon fill="none" stroke="black" points="227,-196 153,-196 153,-160 227,-160 227,-196"/>
<text text-anchor="middle" x="190" y="-175.5" font-family="Helvetica,sans-Serif" font-size="10.00">framebuffer</text>
</a>
</g>
</g>
<!-- dir_3be91838934054dc8688592bc1b65481 -->
<g id="node7" class="node">
<title>dir_3be91838934054dc8688592bc1b65481</title>
<g id="a_node7"><a xlink:href="dir_3be91838934054dc8688592bc1b65481.html" target="_top" xlink:title="renderer">
<polygon fill="#eeeeff" stroke="black" points="219,-268 161,-268 161,-232 219,-232 219,-268"/>
<text text-anchor="middle" x="190" y="-247.5" font-family="Helvetica,sans-Serif" font-size="10.00">renderer</text>
</a>
</g>
</g>
<!-- dir_3be91838934054dc8688592bc1b65481&#45;&gt;dir_197fd57399807dedf8b39125c6572e99 -->
<g id="edge8" class="edge">
<title>dir_3be91838934054dc8688592bc1b65481&#45;&gt;dir_197fd57399807dedf8b39125c6572e99</title>
<path fill="none" stroke="black" d="M160.83,-247.55C127.01,-244.13 72.63,-232.84 47,-196 37.86,-182.87 39.47,-174.12 47,-160 55.77,-143.55 72.16,-131.31 87.75,-122.76"/>
<polygon fill="black" stroke="black" points="89.46,-125.81 96.77,-118.14 86.27,-119.58 89.46,-125.81"/>
<g id="a_edge8&#45;headlabel"><a xlink:href="dir_000015_000013.html" target="_top" xlink:title="1">
<text text-anchor="middle" x="87.55" y="-127.48" font-family="Helvetica,sans-Serif" font-size="10.00">1</text>
</a>
</g>
</g>
<!-- dir_3be91838934054dc8688592bc1b65481&#45;&gt;dir_27243ffbf0f48067260dfa2df2b84548 -->
<g id="edge9" class="edge">
<title>dir_3be91838934054dc8688592bc1b65481&#45;&gt;dir_27243ffbf0f48067260dfa2df2b84548</title>
<path fill="none" stroke="black" d="M166.52,-231.7C154.44,-222.8 139.55,-211.82 126.48,-202.2"/>
<polygon fill="black" stroke="black" points="128.34,-199.22 118.21,-196.1 124.19,-204.85 128.34,-199.22"/>
<g id="a_edge9&#45;headlabel"><a xlink:href="dir_000015_000010.html" target="_top" xlink:title="1">
<text text-anchor="middle" x="132.92" y="-196.57" font-family="Helvetica,sans-Serif" font-size="10.00">1</text>
</a>
</g>
</g>
<!-- dir_3be91838934054dc8688592bc1b65481&#45;&gt;dir_47b12e1bae536e4f381849bb96188680 -->
<g id="edge10" class="edge">
<title>dir_3be91838934054dc8688592bc1b65481&#45;&gt;dir_47b12e1bae536e4f381849bb96188680</title>
<path fill="none" stroke="black" d="M210.82,-231.62C220.46,-222.2 230.89,-209.7 236,-196 243.55,-175.77 238.37,-151.59 231.96,-133.54"/>
<polygon fill="black" stroke="black" points="235.22,-132.27 228.34,-124.21 228.69,-134.8 235.22,-132.27"/>
<g id="a_edge10&#45;headlabel"><a xlink:href="dir_000015_000012.html" target="_top" xlink:title="1">
<text text-anchor="middle" x="239.17" y="-132.1" font-family="Helvetica,sans-Serif" font-size="10.00">1</text>
</a>
</g>
</g>
<!-- dir_3be91838934054dc8688592bc1b65481&#45;&gt;dir_b168724af4cacac856f463e92d5d2abe -->
<g id="edge12" class="edge">
<title>dir_3be91838934054dc8688592bc1b65481&#45;&gt;dir_b168724af4cacac856f463e92d5d2abe</title>
<path fill="none" stroke="black" d="M190,-231.7C190,-223.98 190,-214.71 190,-206.11"/>
<polygon fill="black" stroke="black" points="193.5,-206.1 190,-196.1 186.5,-206.1 193.5,-206.1"/>
<g id="a_edge12&#45;headlabel"><a xlink:href="dir_000015_000011.html" target="_top" xlink:title="6">
<text text-anchor="middle" x="196.34" y="-207.2" font-family="Helvetica,sans-Serif" font-size="10.00">6</text>
</a>
</g>
</g>
<!-- dir_3be91838934054dc8688592bc1b65481&#45;&gt;dir_bcb01f256a1b1966d449763e10e0e243 -->
<g id="edge13" class="edge">
<title>dir_3be91838934054dc8688592bc1b65481&#45;&gt;dir_bcb01f256a1b1966d449763e10e0e243</title>
<path fill="none" stroke="black" d="M212.08,-231.85C222.73,-222.4 234.74,-209.81 242,-196 264.52,-153.16 266.94,-135.15 256,-88 253.9,-78.96 250.03,-69.68 245.91,-61.47"/>
<polygon fill="black" stroke="black" points="248.86,-59.55 241.05,-52.39 242.69,-62.86 248.86,-59.55"/>
<g id="a_edge13&#45;headlabel"><a xlink:href="dir_000015_000014.html" target="_top" xlink:title="1">
<text text-anchor="middle" x="253.06" y="-58.88" font-family="Helvetica,sans-Serif" font-size="10.00">1</text>
</a>
</g>
</g>
<!-- dir_3be91838934054dc8688592bc1b65481&#45;&gt;dir_da8b8e215de8683a35c92e7f25a1c594 -->
<g id="edge14" class="edge">
<title>dir_3be91838934054dc8688592bc1b65481&#45;&gt;dir_da8b8e215de8683a35c92e7f25a1c594</title>
<path fill="none" stroke="black" d="M160.76,-248.37C124.81,-245.83 65.12,-235.5 37,-196 4.45,-150.28 58.51,-91.48 95.62,-59.09"/>
<polygon fill="black" stroke="black" points="98.36,-61.35 103.71,-52.21 93.82,-56.02 98.36,-61.35"/>
<g id="a_edge14&#45;headlabel"><a xlink:href="dir_000015_000016.html" target="_top" xlink:title="6">
<text text-anchor="middle" x="97.46" y="-63.34" font-family="Helvetica,sans-Serif" font-size="10.00">6</text>
</a>
</g>
</g>
<!-- dir_9b051f5a462ebc902d5afef8d9317d03 -->
<g id="node8" class="node">
<title>dir_9b051f5a462ebc902d5afef8d9317d03</title>
<g id="a_node8"><a xlink:href="dir_9b051f5a462ebc902d5afef8d9317d03.html" target="_top" xlink:title="component">
<polygon fill="none" stroke="black" points="356.5,-196 285.5,-196 285.5,-160 356.5,-160 356.5,-196"/>
<text text-anchor="middle" x="321" y="-175.5" font-family="Helvetica,sans-Serif" font-size="10.00">component</text>
</a>
</g>
</g>
<!-- dir_3be91838934054dc8688592bc1b65481&#45;&gt;dir_9b051f5a462ebc902d5afef8d9317d03 -->
<g id="edge11" class="edge">
<title>dir_3be91838934054dc8688592bc1b65481&#45;&gt;dir_9b051f5a462ebc902d5afef8d9317d03</title>
<path fill="none" stroke="black" d="M219.07,-233.46C236.9,-223.94 260.01,-211.59 279.72,-201.06"/>
<polygon fill="black" stroke="black" points="281.62,-204.01 288.79,-196.21 278.32,-197.84 281.62,-204.01"/>
<g id="a_edge11&#45;headlabel"><a xlink:href="dir_000015_000002.html" target="_top" xlink:title="5">
<text text-anchor="middle" x="279.79" y="-205.71" font-family="Helvetica,sans-Serif" font-size="10.00">5</text>
</a>
</g>
</g>
<!-- dir_9b051f5a462ebc902d5afef8d9317d03&#45;&gt;dir_197fd57399807dedf8b39125c6572e99 -->
<g id="edge1" class="edge">
<title>dir_9b051f5a462ebc902d5afef8d9317d03&#45;&gt;dir_197fd57399807dedf8b39125c6572e99</title>
<path fill="none" stroke="black" d="M285.3,-162.41C283.18,-161.58 281.06,-160.77 279,-160 240.41,-145.52 195.83,-130.24 164.78,-119.82"/>
<polygon fill="black" stroke="black" points="165.8,-116.47 155.21,-116.62 163.58,-123.11 165.8,-116.47"/>
<g id="a_edge1&#45;headlabel"><a xlink:href="dir_000002_000013.html" target="_top" xlink:title="1">
<text text-anchor="middle" x="170.11" y="-112.42" font-family="Helvetica,sans-Serif" font-size="10.00">1</text>
</a>
</g>
</g>
<!-- dir_9b051f5a462ebc902d5afef8d9317d03&#45;&gt;dir_47b12e1bae536e4f381849bb96188680 -->
<g id="edge2" class="edge">
<title>dir_9b051f5a462ebc902d5afef8d9317d03&#45;&gt;dir_47b12e1bae536e4f381849bb96188680</title>
<path fill="none" stroke="black" d="M296.29,-159.88C283.33,-150.89 267.27,-139.76 253.23,-130.03"/>
<polygon fill="black" stroke="black" points="255.02,-127.01 244.8,-124.19 251.03,-132.76 255.02,-127.01"/>
<g id="a_edge2&#45;headlabel"><a xlink:href="dir_000002_000012.html" target="_top" xlink:title="1">
<text text-anchor="middle" x="259.59" y="-124.22" font-family="Helvetica,sans-Serif" font-size="10.00">1</text>
</a>
</g>
</g>
<!-- dir_9b051f5a462ebc902d5afef8d9317d03&#45;&gt;dir_bcb01f256a1b1966d449763e10e0e243 -->
<g id="edge3" class="edge">
<title>dir_9b051f5a462ebc902d5afef8d9317d03&#45;&gt;dir_bcb01f256a1b1966d449763e10e0e243</title>
<path fill="none" stroke="black" d="M322.67,-159.88C323.67,-140.87 322.68,-109.97 309,-88 298.93,-71.83 281.89,-59.47 266.21,-50.77"/>
<polygon fill="black" stroke="black" points="267.69,-47.59 257.2,-46.07 264.45,-53.8 267.69,-47.59"/>
<g id="a_edge3&#45;headlabel"><a xlink:href="dir_000002_000014.html" target="_top" xlink:title="1">
<text text-anchor="middle" x="272.19" y="-44.23" font-family="Helvetica,sans-Serif" font-size="10.00">1</text>
</a>
</g>
</g>
<!-- dir_9b051f5a462ebc902d5afef8d9317d03&#45;&gt;dir_da8b8e215de8683a35c92e7f25a1c594 -->
<g id="edge4" class="edge">
<title>dir_9b051f5a462ebc902d5afef8d9317d03&#45;&gt;dir_da8b8e215de8683a35c92e7f25a1c594</title>
<path fill="none" stroke="black" d="M312.22,-159.7C301.4,-139.94 281.32,-107.8 256,-88 228.3,-66.34 190.53,-52.26 162.84,-44.1"/>
<polygon fill="black" stroke="black" points="163.7,-40.7 153.13,-41.35 161.8,-47.44 163.7,-40.7"/>
<g id="a_edge4&#45;headlabel"><a xlink:href="dir_000002_000016.html" target="_top" xlink:title="1">
<text text-anchor="middle" x="167.94" y="-36.45" font-family="Helvetica,sans-Serif" font-size="10.00">1</text>
</a>
</g>
</g>
</g>
</svg>
