<?xml version="1.0" encoding="UTF-8" standalone="no"?>
<!DOCTYPE svg PUBLIC "-//W3C//DTD SVG 1.1//EN"
 "http://www.w3.org/Graphics/SVG/1.1/DTD/svg11.dtd">
<!-- Generated by graphviz version 2.43.0 (0)
 -->
<!-- Title: src/graphics/renderer Pages: 1 -->
<svg width="374pt" height="239pt"
 viewBox="0.00 0.00 373.50 239.00" xmlns="http://www.w3.org/2000/svg" xmlns:xlink="http://www.w3.org/1999/xlink">
<g id="graph0" class="graph" transform="scale(1 1) rotate(0) translate(4 235)">
<title>src/graphics/renderer</title>
<polygon fill="white" stroke="transparent" points="-4,4 -4,-235 369.5,-235 369.5,4 -4,4"/>
<g id="clust1" class="cluster">
<title>clusterdir_560415a5d2bc4999842279f4fc1debef</title>
<g id="a_clust1"><a xlink:href="dir_560415a5d2bc4999842279f4fc1debef.html" target="_top" xlink:title="graphics">
<polygon fill="#ddddee" stroke="black" points="8,-8 8,-223 286,-223 286,-8 8,-8"/>
<text text-anchor="middle" x="147" y="-211" font-family="Helvetica,sans-Serif" font-size="10.00">graphics</text>
</a>
</g>
</g>
<!-- dir_197fd57399807dedf8b39125c6572e99 -->
<g id="node1" class="node">
<title>dir_197fd57399807dedf8b39125c6572e99</title>
<g id="a_node1"><a xlink:href="dir_197fd57399807dedf8b39125c6572e99.html" target="_top" xlink:title="material">
<polygon fill="none" stroke="black" points="278,-124 220,-124 220,-88 278,-88 278,-124"/>
<text text-anchor="middle" x="249" y="-103.5" font-family="Helvetica,sans-Serif" font-size="10.00">material</text>
</a>
</g>
</g>
<!-- dir_da8b8e215de8683a35c92e7f25a1c594 -->
<g id="node5" class="node">
<title>dir_da8b8e215de8683a35c92e7f25a1c594</title>
<g id="a_node5"><a xlink:href="dir_da8b8e215de8683a35c92e7f25a1c594.html" target="_top" xlink:title="shader">
<polygon fill="none" stroke="black" points="275,-52 221,-52 221,-16 275,-16 275,-52"/>
<text text-anchor="middle" x="248" y="-31.5" font-family="Helvetica,sans-Serif" font-size="10.00">shader</text>
</a>
</g>
</g>
<!-- dir_197fd57399807dedf8b39125c6572e99&#45;&gt;dir_da8b8e215de8683a35c92e7f25a1c594 -->
<g id="edge7" class="edge">
<title>dir_197fd57399807dedf8b39125c6572e99&#45;&gt;dir_da8b8e215de8683a35c92e7f25a1c594</title>
<path fill="none" stroke="black" d="M248.75,-87.7C248.64,-79.98 248.51,-70.71 248.39,-62.11"/>
<polygon fill="black" stroke="black" points="251.89,-62.05 248.24,-52.1 244.89,-62.15 251.89,-62.05"/>
<g id="a_edge7&#45;headlabel"><a xlink:href="dir_000012_000015.html" target="_top" xlink:title="1">
<text text-anchor="middle" x="254.78" y="-63.11" font-family="Helvetica,sans-Serif" font-size="10.00">1</text>
</a>
</g>
</g>
<!-- dir_47b12e1bae536e4f381849bb96188680 -->
<g id="node2" class="node">
<title>dir_47b12e1bae536e4f381849bb96188680</title>
<g id="a_node2"><a xlink:href="dir_47b12e1bae536e4f381849bb96188680.html" target="_top" xlink:title="lighting">
<polygon fill="none" stroke="black" points="202,-124 148,-124 148,-88 202,-88 202,-124"/>
<text text-anchor="middle" x="175" y="-103.5" font-family="Helvetica,sans-Serif" font-size="10.00">lighting</text>
</a>
</g>
</g>
<!-- dir_bcb01f256a1b1966d449763e10e0e243 -->
<g id="node4" class="node">
<title>dir_bcb01f256a1b1966d449763e10e0e243</title>
<g id="a_node4"><a xlink:href="dir_bcb01f256a1b1966d449763e10e0e243.html" target="_top" xlink:title="mesh">
<polygon fill="none" stroke="black" points="202,-52 148,-52 148,-16 202,-16 202,-52"/>
<text text-anchor="middle" x="175" y="-31.5" font-family="Helvetica,sans-Serif" font-size="10.00">mesh</text>
</a>
</g>
</g>
<!-- dir_47b12e1bae536e4f381849bb96188680&#45;&gt;dir_bcb01f256a1b1966d449763e10e0e243 -->
<g id="edge5" class="edge">
<title>dir_47b12e1bae536e4f381849bb96188680&#45;&gt;dir_bcb01f256a1b1966d449763e10e0e243</title>
<path fill="none" stroke="black" d="M175,-87.7C175,-79.98 175,-70.71 175,-62.11"/>
<polygon fill="black" stroke="black" points="178.5,-62.1 175,-52.1 171.5,-62.1 178.5,-62.1"/>
<g id="a_edge5&#45;headlabel"><a xlink:href="dir_000011_000013.html" target="_top" xlink:title="1">
<text text-anchor="middle" x="181.34" y="-63.2" font-family="Helvetica,sans-Serif" font-size="10.00">1</text>
</a>
</g>
</g>
<!-- dir_47b12e1bae536e4f381849bb96188680&#45;&gt;dir_da8b8e215de8683a35c92e7f25a1c594 -->
<g id="edge6" class="edge">
<title>dir_47b12e1bae536e4f381849bb96188680&#45;&gt;dir_da8b8e215de8683a35c92e7f25a1c594</title>
<path fill="none" stroke="black" d="M193.04,-87.7C202.06,-79.05 213.12,-68.45 222.94,-59.03"/>
<polygon fill="black" stroke="black" points="225.37,-61.55 230.16,-52.1 220.52,-56.5 225.37,-61.55"/>
<g id="a_edge6&#45;headlabel"><a xlink:href="dir_000011_000015.html" target="_top" xlink:title="1">
<text text-anchor="middle" x="224.74" y="-63.59" font-family="Helvetica,sans-Serif" font-size="10.00">1</text>
</a>
</g>
</g>
<!-- dir_b168724af4cacac856f463e92d5d2abe -->
<g id="node3" class="node">
<title>dir_b168724af4cacac856f463e92d5d2abe</title>
<g id="a_node3"><a xlink:href="dir_b168724af4cacac856f463e92d5d2abe.html" target="_top" xlink:title="framebuffer">
<polygon fill="none" stroke="black" points="90,-124 16,-124 16,-88 90,-88 90,-124"/>
<text text-anchor="middle" x="53" y="-103.5" font-family="Helvetica,sans-Serif" font-size="10.00">framebuffer</text>
</a>
</g>
</g>
<!-- dir_3be91838934054dc8688592bc1b65481 -->
<g id="node6" class="node">
<title>dir_3be91838934054dc8688592bc1b65481</title>
<g id="a_node6"><a xlink:href="dir_3be91838934054dc8688592bc1b65481.html" target="_top" xlink:title="renderer">
<polygon fill="#eeeeff" stroke="black" points="181,-196 123,-196 123,-160 181,-160 181,-196"/>
<text text-anchor="middle" x="152" y="-175.5" font-family="Helvetica,sans-Serif" font-size="10.00">renderer</text>
</a>
</g>
</g>
<!-- dir_3be91838934054dc8688592bc1b65481&#45;&gt;dir_197fd57399807dedf8b39125c6572e99 -->
<g id="edge8" class="edge">
<title>dir_3be91838934054dc8688592bc1b65481&#45;&gt;dir_197fd57399807dedf8b39125c6572e99</title>
<path fill="none" stroke="black" d="M175.98,-159.7C188.31,-150.8 203.52,-139.82 216.85,-130.2"/>
<polygon fill="black" stroke="black" points="219.24,-132.79 225.3,-124.1 215.14,-127.12 219.24,-132.79"/>
<g id="a_edge8&#45;headlabel"><a xlink:href="dir_000014_000012.html" target="_top" xlink:title="1">
<text text-anchor="middle" x="217.98" y="-134.7" font-family="Helvetica,sans-Serif" font-size="10.00">1</text>
</a>
</g>
</g>
<!-- dir_3be91838934054dc8688592bc1b65481&#45;&gt;dir_47b12e1bae536e4f381849bb96188680 -->
<g id="edge9" class="edge">
<title>dir_3be91838934054dc8688592bc1b65481&#45;&gt;dir_47b12e1bae536e4f381849bb96188680</title>
<path fill="none" stroke="black" d="M157.69,-159.7C160.25,-151.9 163.33,-142.51 166.18,-133.83"/>
<polygon fill="black" stroke="black" points="169.58,-134.7 169.38,-124.1 162.93,-132.51 169.58,-134.7"/>
<g id="a_edge9&#45;headlabel"><a xlink:href="dir_000014_000011.html" target="_top" xlink:title="1">
<text text-anchor="middle" x="171.16" y="-136.5" font-family="Helvetica,sans-Serif" font-size="10.00">1</text>
</a>
</g>
</g>
<!-- dir_3be91838934054dc8688592bc1b65481&#45;&gt;dir_b168724af4cacac856f463e92d5d2abe -->
<g id="edge11" class="edge">
<title>dir_3be91838934054dc8688592bc1b65481&#45;&gt;dir_b168724af4cacac856f463e92d5d2abe</title>
<path fill="none" stroke="black" d="M127.78,-159.88C115.08,-150.89 99.34,-139.76 85.58,-130.03"/>
<polygon fill="black" stroke="black" points="87.5,-127.11 77.31,-124.19 83.46,-132.82 87.5,-127.11"/>
<g id="a_edge11&#45;headlabel"><a xlink:href="dir_000014_000010.html" target="_top" xlink:title="5">
<text text-anchor="middle" x="92.07" y="-124.36" font-family="Helvetica,sans-Serif" font-size="10.00">5</text>
</a>
</g>
</g>
<!-- dir_3be91838934054dc8688592bc1b65481&#45;&gt;dir_bcb01f256a1b1966d449763e10e0e243 -->
<g id="edge12" class="edge">
<title>dir_3be91838934054dc8688592bc1b65481&#45;&gt;dir_bcb01f256a1b1966d449763e10e0e243</title>
<path fill="none" stroke="black" d="M139.69,-159.99C128.18,-141.87 114.13,-112.49 124,-88 128.35,-77.21 136.06,-67.39 144.19,-59.21"/>
<polygon fill="black" stroke="black" points="146.79,-61.57 151.7,-52.18 142,-56.46 146.79,-61.57"/>
<g id="a_edge12&#45;headlabel"><a xlink:href="dir_000014_000013.html" target="_top" xlink:title="2">
<text text-anchor="middle" x="146.11" y="-63.6" font-family="Helvetica,sans-Serif" font-size="10.00">2</text>
</a>
</g>
</g>
<!-- dir_3be91838934054dc8688592bc1b65481&#45;&gt;dir_da8b8e215de8683a35c92e7f25a1c594 -->
<g id="edge13" class="edge">
<title>dir_3be91838934054dc8688592bc1b65481&#45;&gt;dir_da8b8e215de8683a35c92e7f25a1c594</title>
<path fill="none" stroke="black" d="M143.21,-159.88C134.8,-140.87 125.25,-109.97 139,-88 140.09,-86.26 180.26,-66.99 211.52,-52.18"/>
<polygon fill="black" stroke="black" points="213.34,-55.19 220.88,-47.75 210.35,-48.87 213.34,-55.19"/>
<g id="a_edge13&#45;headlabel"><a xlink:href="dir_000014_000015.html" target="_top" xlink:title="6">
<text text-anchor="middle" x="211.3" y="-56.8" font-family="Helvetica,sans-Serif" font-size="10.00">6</text>
</a>
</g>
</g>
<!-- dir_9b051f5a462ebc902d5afef8d9317d03 -->
<g id="node7" class="node">
<title>dir_9b051f5a462ebc902d5afef8d9317d03</title>
<g id="a_node7"><a xlink:href="dir_9b051f5a462ebc902d5afef8d9317d03.html" target="_top" xlink:title="component">
<polygon fill="none" stroke="black" points="365.5,-196 294.5,-196 294.5,-160 365.5,-160 365.5,-196"/>
<text text-anchor="middle" x="330" y="-175.5" font-family="Helvetica,sans-Serif" font-size="10.00">component</text>
</a>
</g>
</g>
<!-- dir_3be91838934054dc8688592bc1b65481&#45;&gt;dir_9b051f5a462ebc902d5afef8d9317d03 -->
<g id="edge10" class="edge">
<title>dir_3be91838934054dc8688592bc1b65481&#45;&gt;dir_9b051f5a462ebc902d5afef8d9317d03</title>
<path fill="none" stroke="black" d="M181.2,-178C215.5,-178 249.8,-178 284.1,-178"/>
<polygon fill="black" stroke="black" points="284.25,-181.5 294.25,-178 284.25,-174.5 284.25,-181.5"/>
<g id="a_edge10&#45;headlabel"><a xlink:href="dir_000014_000002.html" target="_top" xlink:title="5">
<text text-anchor="middle" x="280.66" y="-181.84" font-family="Helvetica,sans-Serif" font-size="10.00">5</text>
</a>
</g>
</g>
<!-- dir_9b051f5a462ebc902d5afef8d9317d03&#45;&gt;dir_197fd57399807dedf8b39125c6572e99 -->
<g id="edge1" class="edge">
<title>dir_9b051f5a462ebc902d5afef8d9317d03&#45;&gt;dir_197fd57399807dedf8b39125c6572e99</title>
<path fill="none" stroke="black" d="M309.98,-159.7C299.87,-150.97 287.46,-140.24 276.48,-130.75"/>
<polygon fill="black" stroke="black" points="278.65,-127.99 268.79,-124.1 274.07,-133.29 278.65,-127.99"/>
<g id="a_edge1&#45;headlabel"><a xlink:href="dir_000002_000012.html" target="_top" xlink:title="1">
<text text-anchor="middle" x="283.22" y="-125.7" font-family="Helvetica,sans-Serif" font-size="10.00">1</text>
</a>
</g>
</g>
<!-- dir_9b051f5a462ebc902d5afef8d9317d03&#45;&gt;dir_47b12e1bae536e4f381849bb96188680 -->
<g id="edge2" class="edge">
<title>dir_9b051f5a462ebc902d5afef8d9317d03&#45;&gt;dir_47b12e1bae536e4f381849bb96188680</title>
<path fill="none" stroke="black" d="M294.5,-161.43C272.83,-151.88 244.37,-139.23 211.49,-124.18"/>
<polygon fill="black" stroke="black" points="212.65,-120.86 202.1,-119.87 209.73,-127.23 212.65,-120.86"/>
<g id="a_edge2&#45;headlabel"><a xlink:href="dir_000002_000011.html" target="_top" xlink:title="1">
<text text-anchor="middle" x="217.1" y="-117.28" font-family="Helvetica,sans-Serif" font-size="10.00">1</text>
</a>
</g>
</g>
<!-- dir_9b051f5a462ebc902d5afef8d9317d03&#45;&gt;dir_bcb01f256a1b1966d449763e10e0e243 -->
<g id="edge3" class="edge">
<title>dir_9b051f5a462ebc902d5afef8d9317d03&#45;&gt;dir_bcb01f256a1b1966d449763e10e0e243</title>
<path fill="none" stroke="black" d="M325.51,-159.88C319.59,-140.29 307.47,-108.3 287,-88 285.5,-86.51 243.47,-66.8 211.34,-51.85"/>
<polygon fill="black" stroke="black" points="212.71,-48.63 202.16,-47.58 209.76,-54.97 212.71,-48.63"/>
<g id="a_edge3&#45;headlabel"><a xlink:href="dir_000002_000013.html" target="_top" xlink:title="1">
<text text-anchor="middle" x="217.16" y="-45.07" font-family="Helvetica,sans-Serif" font-size="10.00">1</text>
</a>
</g>
</g>
<!-- dir_9b051f5a462ebc902d5afef8d9317d03&#45;&gt;dir_da8b8e215de8683a35c92e7f25a1c594 -->
<g id="edge4" class="edge">
<title>dir_9b051f5a462ebc902d5afef8d9317d03&#45;&gt;dir_da8b8e215de8683a35c92e7f25a1c594</title>
<path fill="none" stroke="black" d="M331.97,-159.68C333.28,-140.76 332.84,-110.21 320,-88 311.59,-73.45 297.41,-61.73 283.85,-53.04"/>
<polygon fill="black" stroke="black" points="285.47,-49.93 275.1,-47.77 281.86,-55.93 285.47,-49.93"/>
<g id="a_edge4&#45;headlabel"><a xlink:href="dir_000002_000015.html" target="_top" xlink:title="1">
<text text-anchor="middle" x="290.01" y="-46.85" font-family="Helvetica,sans-Serif" font-size="10.00">1</text>
</a>
</g>
</g>
</g>
</svg>
