<?xml version="1.0" encoding="UTF-8" standalone="no"?>
<!DOCTYPE svg PUBLIC "-//W3C//DTD SVG 1.1//EN"
 "http://www.w3.org/Graphics/SVG/1.1/DTD/svg11.dtd">
<!-- Generated by graphviz version 2.43.0 (0)
 -->
<!-- Title: src/graphics/shader Pages: 1 -->
<svg width="134pt" height="223pt"
 viewBox="0.00 0.00 134.00 223.00" xmlns="http://www.w3.org/2000/svg" xmlns:xlink="http://www.w3.org/1999/xlink">
<g id="graph0" class="graph" transform="scale(1 1) rotate(0) translate(4 219)">
<title>src/graphics/shader</title>
<polygon fill="white" stroke="transparent" points="-4,4 -4,-219 130,-219 130,4 -4,4"/>
<g id="clust1" class="cluster">
<title>clusterdir_560415a5d2bc4999842279f4fc1debef</title>
<g id="a_clust1"><a xlink:href="dir_560415a5d2bc4999842279f4fc1debef.html" target="_top" xlink:title="graphics">
<polygon fill="#ddddee" stroke="black" points="28,-64 28,-207 98,-207 98,-64 28,-64"/>
<text text-anchor="middle" x="63" y="-195" font-family="Helvetica,sans-Serif" font-size="10.00">graphics</text>
</a>
</g>
</g>
<!-- dir_47b12e1bae536e4f381849bb96188680 -->
<g id="node1" class="node">
<title>dir_47b12e1bae536e4f381849bb96188680</title>
<g id="a_node1"><a xlink:href="dir_47b12e1bae536e4f381849bb96188680.html" target="_top" xlink:title="lighting">
<polygon fill="none" stroke="black" points="90,-180 36,-180 36,-144 90,-144 90,-180"/>
<text text-anchor="middle" x="63" y="-159.5" font-family="Helvetica,sans-Serif" font-size="10.00">lighting</text>
</a>
</g>
</g>
<!-- dir_da8b8e215de8683a35c92e7f25a1c594 -->
<g id="node2" class="node">
<title>dir_da8b8e215de8683a35c92e7f25a1c594</title>
<g id="a_node2"><a xlink:href="dir_da8b8e215de8683a35c92e7f25a1c594.html" target="_top" xlink:title="shader">
<polygon fill="#eeeeff" stroke="black" points="90,-108 36,-108 36,-72 90,-72 90,-108"/>
<text text-anchor="middle" x="63" y="-87.5" font-family="Helvetica,sans-Serif" font-size="10.00">shader</text>
</a>
</g>
</g>
<!-- dir_47b12e1bae536e4f381849bb96188680&#45;&gt;dir_da8b8e215de8683a35c92e7f25a1c594 -->
<g id="edge4" class="edge">
<title>dir_47b12e1bae536e4f381849bb96188680&#45;&gt;dir_da8b8e215de8683a35c92e7f25a1c594</title>
<path fill="none" stroke="black" d="M57.08,-143.7C56.29,-135.98 56.06,-126.71 56.4,-118.11"/>
<polygon fill="black" stroke="black" points="59.9,-118.32 57.1,-108.1 52.92,-117.84 59.9,-118.32"/>
<g id="a_edge4&#45;headlabel"><a xlink:href="dir_000011_000015.html" target="_top" xlink:title="1">
<text text-anchor="middle" x="62.48" y="-119.61" font-family="Helvetica,sans-Serif" font-size="10.00">1</text>
</a>
</g>
</g>
<!-- dir_da8b8e215de8683a35c92e7f25a1c594&#45;&gt;dir_47b12e1bae536e4f381849bb96188680 -->
<g id="edge2" class="edge">
<title>dir_da8b8e215de8683a35c92e7f25a1c594&#45;&gt;dir_47b12e1bae536e4f381849bb96188680</title>
<path fill="none" stroke="black" d="M68.9,-108.1C69.7,-115.79 69.94,-125.05 69.6,-133.67"/>
<polygon fill="black" stroke="black" points="66.11,-133.48 68.92,-143.7 73.09,-133.96 66.11,-133.48"/>
<g id="a_edge2&#45;headlabel"><a xlink:href="dir_000015_000011.html" target="_top" xlink:title="5">
<text text-anchor="middle" x="63.52" y="-127.2" font-family="Helvetica,sans-Serif" font-size="10.00">5</text>
</a>
</g>
</g>
<!-- dir_2241064965c8d9ca993f08b926076f7d -->
<g id="node3" class="node">
<title>dir_2241064965c8d9ca993f08b926076f7d</title>
<g id="a_node3"><a xlink:href="dir_2241064965c8d9ca993f08b926076f7d.html" target="_top" xlink:title="log">
<polygon fill="none" stroke="black" points="54,-36 0,-36 0,0 54,0 54,-36"/>
<text text-anchor="middle" x="27" y="-15.5" font-family="Helvetica,sans-Serif" font-size="10.00">log</text>
</a>
</g>
</g>
<!-- dir_da8b8e215de8683a35c92e7f25a1c594&#45;&gt;dir_2241064965c8d9ca993f08b926076f7d -->
<g id="edge1" class="edge">
<title>dir_da8b8e215de8683a35c92e7f25a1c594&#45;&gt;dir_2241064965c8d9ca993f08b926076f7d</title>
<path fill="none" stroke="black" d="M54.1,-71.7C50,-63.73 45.05,-54.1 40.51,-45.26"/>
<polygon fill="black" stroke="black" points="43.48,-43.4 35.8,-36.1 37.26,-46.6 43.48,-43.4"/>
<g id="a_edge1&#45;headlabel"><a xlink:href="dir_000015_000019.html" target="_top" xlink:title="1">
<text text-anchor="middle" x="47.65" y="-42.79" font-family="Helvetica,sans-Serif" font-size="10.00">1</text>
</a>
</g>
</g>
<!-- dir_b7878ad5ecbf2506f4125b9d34c97e45 -->
<g id="node4" class="node">
<title>dir_b7878ad5ecbf2506f4125b9d34c97e45</title>
<g id="a_node4"><a xlink:href="dir_b7878ad5ecbf2506f4125b9d34c97e45.html" target="_top" xlink:title="util">
<polygon fill="none" stroke="black" points="126,-36 72,-36 72,0 126,0 126,-36"/>
<text text-anchor="middle" x="99" y="-15.5" font-family="Helvetica,sans-Serif" font-size="10.00">util</text>
</a>
</g>
</g>
<!-- dir_da8b8e215de8683a35c92e7f25a1c594&#45;&gt;dir_b7878ad5ecbf2506f4125b9d34c97e45 -->
<g id="edge3" class="edge">
<title>dir_da8b8e215de8683a35c92e7f25a1c594&#45;&gt;dir_b7878ad5ecbf2506f4125b9d34c97e45</title>
<path fill="none" stroke="black" d="M71.9,-71.7C76,-63.73 80.95,-54.1 85.49,-45.26"/>
<polygon fill="black" stroke="black" points="88.74,-46.6 90.2,-36.1 82.52,-43.4 88.74,-46.6"/>
<g id="a_edge3&#45;headlabel"><a xlink:href="dir_000015_000022.html" target="_top" xlink:title="1">
<text text-anchor="middle" x="89.62" y="-48.59" font-family="Helvetica,sans-Serif" font-size="10.00">1</text>
</a>
</g>
</g>
</g>
</svg>
