<?xml version="1.0" encoding="UTF-8" standalone="no"?>
<!DOCTYPE svg PUBLIC "-//W3C//DTD SVG 1.1//EN"
 "http://www.w3.org/Graphics/SVG/1.1/DTD/svg11.dtd">
<!-- Generated by graphviz version 2.43.0 (0)
 -->
<!-- Title: src/game Pages: 1 -->
<svg width="488pt" height="391pt"
 viewBox="0.00 0.00 488.00 391.00" xmlns="http://www.w3.org/2000/svg" xmlns:xlink="http://www.w3.org/1999/xlink">
<g id="graph0" class="graph" transform="scale(1 1) rotate(0) translate(4 387)">
<title>src/game</title>
<polygon fill="white" stroke="transparent" points="-4,4 -4,-387 484,-387 484,4 -4,4"/>
<g id="clust1" class="cluster">
<title>clusterdir_68267d1309a1af8e8297ef4c3efbcdba</title>
<g id="a_clust1"><a xlink:href="dir_68267d1309a1af8e8297ef4c3efbcdba.html" target="_top" xlink:title="src">
<polygon fill="#ddddee" stroke="black" points="8,-8 8,-375 472,-375 472,-8 8,-8"/>
<text text-anchor="middle" x="240" y="-363" font-family="Helvetica,sans-Serif" font-size="10.00">src</text>
</a>
</g>
</g>
<g id="clust2" class="cluster">
<title>clusterdir_1699be727a800b1d059c6f7f2b91d2ee</title>
<g id="a_clust2"><a xlink:href="dir_1699be727a800b1d059c6f7f2b91d2ee.html" target="_top">
<polygon fill="#eeeeff" stroke="black" points="158,-152 158,-348 300,-348 300,-152 158,-152"/>
</a>
</g>
</g>
<!-- dir_d365e15d984c8d0205117ee0c40d6716 -->
<g id="node1" class="node">
<title>dir_d365e15d984c8d0205117ee0c40d6716</title>
<g id="a_node1"><a xlink:href="dir_d365e15d984c8d0205117ee0c40d6716.html" target="_top" xlink:title="input">
<polygon fill="none" stroke="black" points="143,-268 89,-268 89,-232 143,-232 143,-268"/>
<text text-anchor="middle" x="116" y="-247.5" font-family="Helvetica,sans-Serif" font-size="10.00">input</text>
</a>
</g>
</g>
<!-- dir_844f6ab5c2ae79211596f3dcdd81adb7 -->
<g id="node2" class="node">
<title>dir_844f6ab5c2ae79211596f3dcdd81adb7</title>
<g id="a_node2"><a xlink:href="dir_844f6ab5c2ae79211596f3dcdd81adb7.html" target="_top" xlink:title="application">
<polygon fill="none" stroke="black" points="147.5,-196 76.5,-196 76.5,-160 147.5,-160 147.5,-196"/>
<text text-anchor="middle" x="112" y="-175.5" font-family="Helvetica,sans-Serif" font-size="10.00">application</text>
</a>
</g>
</g>
<!-- dir_d365e15d984c8d0205117ee0c40d6716&#45;&gt;dir_844f6ab5c2ae79211596f3dcdd81adb7 -->
<g id="edge2" class="edge">
<title>dir_d365e15d984c8d0205117ee0c40d6716&#45;&gt;dir_844f6ab5c2ae79211596f3dcdd81adb7</title>
<path fill="none" stroke="black" d="M109.1,-231.7C107.86,-223.98 107.1,-214.71 106.95,-206.11"/>
<polygon fill="black" stroke="black" points="110.45,-206.15 107.08,-196.1 103.45,-206.06 110.45,-206.15"/>
<g id="a_edge2&#45;headlabel"><a xlink:href="dir_000010_000001.html" target="_top" xlink:title="1">
<text text-anchor="middle" x="113.25" y="-207.28" font-family="Helvetica,sans-Serif" font-size="10.00">1</text>
</a>
</g>
</g>
<!-- dir_f278fbcf62338d746f20818c09b59427 -->
<g id="node6" class="node">
<title>dir_f278fbcf62338d746f20818c09b59427</title>
<g id="a_node6"><a xlink:href="dir_f278fbcf62338d746f20818c09b59427.html" target="_top" xlink:title="event">
<polygon fill="none" stroke="black" points="166,-124 112,-124 112,-88 166,-88 166,-124"/>
<text text-anchor="middle" x="139" y="-103.5" font-family="Helvetica,sans-Serif" font-size="10.00">event</text>
</a>
</g>
</g>
<!-- dir_d365e15d984c8d0205117ee0c40d6716&#45;&gt;dir_f278fbcf62338d746f20818c09b59427 -->
<g id="edge3" class="edge">
<title>dir_d365e15d984c8d0205117ee0c40d6716&#45;&gt;dir_f278fbcf62338d746f20818c09b59427</title>
<path fill="none" stroke="black" d="M93.85,-231.87C83.59,-222.52 72.48,-210 67,-196 59.87,-177.79 57.52,-169.1 67,-152 71.24,-144.35 87.03,-134.12 102.74,-125.34"/>
<polygon fill="black" stroke="black" points="104.78,-128.22 111.9,-120.38 101.44,-122.07 104.78,-128.22"/>
<g id="a_edge3&#45;headlabel"><a xlink:href="dir_000010_000003.html" target="_top" xlink:title="5">
<text text-anchor="middle" x="102.97" y="-129.93" font-family="Helvetica,sans-Serif" font-size="10.00">5</text>
</a>
</g>
</g>
<!-- dir_844f6ab5c2ae79211596f3dcdd81adb7&#45;&gt;dir_d365e15d984c8d0205117ee0c40d6716 -->
<g id="edge23" class="edge">
<title>dir_844f6ab5c2ae79211596f3dcdd81adb7&#45;&gt;dir_d365e15d984c8d0205117ee0c40d6716</title>
<path fill="none" stroke="black" d="M118.87,-196.1C120.12,-203.79 120.88,-213.05 121.04,-221.67"/>
<polygon fill="black" stroke="black" points="117.54,-221.66 120.93,-231.7 124.54,-221.74 117.54,-221.66"/>
<g id="a_edge23&#45;headlabel"><a xlink:href="dir_000001_000010.html" target="_top" xlink:title="1">
<text text-anchor="middle" x="114.74" y="-215.53" font-family="Helvetica,sans-Serif" font-size="10.00">1</text>
</a>
</g>
</g>
<!-- dir_560415a5d2bc4999842279f4fc1debef -->
<g id="node3" class="node">
<title>dir_560415a5d2bc4999842279f4fc1debef</title>
<g id="a_node3"><a xlink:href="dir_560415a5d2bc4999842279f4fc1debef.html" target="_top" xlink:title="graphics">
<polygon fill="none" stroke="black" points="94,-124 36,-124 36,-88 94,-88 94,-124"/>
<text text-anchor="middle" x="65" y="-103.5" font-family="Helvetica,sans-Serif" font-size="10.00">graphics</text>
</a>
</g>
</g>
<!-- dir_844f6ab5c2ae79211596f3dcdd81adb7&#45;&gt;dir_560415a5d2bc4999842279f4fc1debef -->
<g id="edge22" class="edge">
<title>dir_844f6ab5c2ae79211596f3dcdd81adb7&#45;&gt;dir_560415a5d2bc4999842279f4fc1debef</title>
<path fill="none" stroke="black" d="M100.38,-159.7C94.86,-151.47 88.15,-141.48 82.07,-132.42"/>
<polygon fill="black" stroke="black" points="84.96,-130.46 76.48,-124.1 79.15,-134.36 84.96,-130.46"/>
<g id="a_edge22&#45;headlabel"><a xlink:href="dir_000001_000009.html" target="_top" xlink:title="1">
<text text-anchor="middle" x="89.33" y="-129.36" font-family="Helvetica,sans-Serif" font-size="10.00">1</text>
</a>
</g>
</g>
<!-- dir_35781f0e74aa8deac19fa31b37174dc2 -->
<g id="node5" class="node">
<title>dir_35781f0e74aa8deac19fa31b37174dc2</title>
<g id="a_node5"><a xlink:href="dir_35781f0e74aa8deac19fa31b37174dc2.html" target="_top" xlink:title="scene">
<polygon fill="none" stroke="black" points="457,-124 403,-124 403,-88 457,-88 457,-124"/>
<text text-anchor="middle" x="430" y="-103.5" font-family="Helvetica,sans-Serif" font-size="10.00">scene</text>
</a>
</g>
</g>
<!-- dir_844f6ab5c2ae79211596f3dcdd81adb7&#45;&gt;dir_35781f0e74aa8deac19fa31b37174dc2 -->
<g id="edge21" class="edge">
<title>dir_844f6ab5c2ae79211596f3dcdd81adb7&#45;&gt;dir_35781f0e74aa8deac19fa31b37174dc2</title>
<path fill="none" stroke="black" d="M137.46,-159.8C142.75,-156.82 148.42,-154.03 154,-152 235.9,-122.17 338.67,-112.05 392.76,-108.66"/>
<polygon fill="black" stroke="black" points="393.12,-112.15 402.9,-108.07 392.72,-105.16 393.12,-112.15"/>
<g id="a_edge21&#45;headlabel"><a xlink:href="dir_000001_000011.html" target="_top" xlink:title="1">
<text text-anchor="middle" x="389.7" y="-112.69" font-family="Helvetica,sans-Serif" font-size="10.00">1</text>
</a>
</g>
</g>
<!-- dir_844f6ab5c2ae79211596f3dcdd81adb7&#45;&gt;dir_f278fbcf62338d746f20818c09b59427 -->
<g id="edge24" class="edge">
<title>dir_844f6ab5c2ae79211596f3dcdd81adb7&#45;&gt;dir_f278fbcf62338d746f20818c09b59427</title>
<path fill="none" stroke="black" d="M118.67,-159.7C121.71,-151.81 125.38,-142.3 128.76,-133.55"/>
<polygon fill="black" stroke="black" points="132.07,-134.69 132.4,-124.1 125.54,-132.17 132.07,-134.69"/>
<g id="a_edge24&#45;headlabel"><a xlink:href="dir_000001_000003.html" target="_top" xlink:title="1">
<text text-anchor="middle" x="133.42" y="-136.57" font-family="Helvetica,sans-Serif" font-size="10.00">1</text>
</a>
</g>
</g>
<!-- dir_9b051f5a462ebc902d5afef8d9317d03 -->
<g id="node4" class="node">
<title>dir_9b051f5a462ebc902d5afef8d9317d03</title>
<g id="a_node4"><a xlink:href="dir_9b051f5a462ebc902d5afef8d9317d03.html" target="_top" xlink:title="component">
<polygon fill="none" stroke="black" points="100.5,-52 29.5,-52 29.5,-16 100.5,-16 100.5,-52"/>
<text text-anchor="middle" x="65" y="-31.5" font-family="Helvetica,sans-Serif" font-size="10.00">component</text>
</a>
</g>
</g>
<!-- dir_560415a5d2bc4999842279f4fc1debef&#45;&gt;dir_9b051f5a462ebc902d5afef8d9317d03 -->
<g id="edge20" class="edge">
<title>dir_560415a5d2bc4999842279f4fc1debef&#45;&gt;dir_9b051f5a462ebc902d5afef8d9317d03</title>
<path fill="none" stroke="black" d="M59.08,-87.7C58.29,-79.98 58.06,-70.71 58.4,-62.11"/>
<polygon fill="black" stroke="black" points="61.9,-62.32 59.1,-52.1 54.92,-61.84 61.9,-62.32"/>
<g id="a_edge20&#45;headlabel"><a xlink:href="dir_000009_000002.html" target="_top" xlink:title="5">
<text text-anchor="middle" x="64.48" y="-63.61" font-family="Helvetica,sans-Serif" font-size="10.00">5</text>
</a>
</g>
</g>
<!-- dir_9b051f5a462ebc902d5afef8d9317d03&#45;&gt;dir_560415a5d2bc4999842279f4fc1debef -->
<g id="edge1" class="edge">
<title>dir_9b051f5a462ebc902d5afef8d9317d03&#45;&gt;dir_560415a5d2bc4999842279f4fc1debef</title>
<path fill="none" stroke="black" d="M70.9,-52.1C71.7,-59.79 71.94,-69.05 71.6,-77.67"/>
<polygon fill="black" stroke="black" points="68.11,-77.48 70.92,-87.7 75.09,-77.96 68.11,-77.48"/>
<g id="a_edge1&#45;headlabel"><a xlink:href="dir_000002_000009.html" target="_top" xlink:title="3">
<text text-anchor="middle" x="65.52" y="-71.2" font-family="Helvetica,sans-Serif" font-size="10.00">3</text>
</a>
</g>
</g>
<!-- dir_1699be727a800b1d059c6f7f2b91d2ee -->
<g id="node8" class="node">
<title>dir_1699be727a800b1d059c6f7f2b91d2ee</title>
<text text-anchor="middle" x="265" y="-319.5" font-family="Helvetica,sans-Serif" font-size="10.00">game</text>
</g>
<!-- dir_35781f0e74aa8deac19fa31b37174dc2&#45;&gt;dir_1699be727a800b1d059c6f7f2b91d2ee -->
<g id="edge25" class="edge">
<title>dir_35781f0e74aa8deac19fa31b37174dc2&#45;&gt;dir_1699be727a800b1d059c6f7f2b91d2ee</title>
<path fill="none" stroke="black" d="M438.9,-124.06C454.1,-155.85 480.44,-224.83 448,-268 430.51,-291.28 350.5,-307.61 302.26,-315.54"/>
<polygon fill="black" stroke="black" points="301.51,-312.11 292.18,-317.14 302.61,-319.02 301.51,-312.11"/>
<g id="a_edge25&#45;headlabel"><a xlink:href="dir_000011_000004.html" target="_top" xlink:title="1">
<text text-anchor="middle" x="304.61" y="-306.24" font-family="Helvetica,sans-Serif" font-size="10.00">1</text>
</a>
</g>
</g>
<!-- dir_5e41e096db7e811af24d49ae6b11260b -->
<g id="node10" class="node">
<title>dir_5e41e096db7e811af24d49ae6b11260b</title>
<g id="a_node10"><a xlink:href="dir_5e41e096db7e811af24d49ae6b11260b.html" target="_top" xlink:title="scene">
<polygon fill="white" stroke="black" points="220,-340 166,-340 166,-304 220,-304 220,-340"/>
<text text-anchor="middle" x="193" y="-319.5" font-family="Helvetica,sans-Serif" font-size="10.00">scene</text>
</a>
</g>
</g>
<!-- dir_35781f0e74aa8deac19fa31b37174dc2&#45;&gt;dir_5e41e096db7e811af24d49ae6b11260b -->
<g id="edge26" class="edge">
<title>dir_35781f0e74aa8deac19fa31b37174dc2&#45;&gt;dir_5e41e096db7e811af24d49ae6b11260b</title>
<path fill="none" stroke="black" d="M430.64,-124.27C430.52,-143.43 427.75,-174.45 413,-196 378.95,-245.77 350.53,-238.38 298,-268 275.58,-280.64 249.79,-293.68 229.37,-303.66"/>
<polygon fill="black" stroke="black" points="227.58,-300.64 220.11,-308.16 230.64,-306.94 227.58,-300.64"/>
<g id="a_edge26&#45;headlabel"><a xlink:href="dir_000011_000006.html" target="_top" xlink:title="1">
<text text-anchor="middle" x="229.57" y="-294.02" font-family="Helvetica,sans-Serif" font-size="10.00">1</text>
</a>
</g>
</g>
<!-- dir_d501334aeb1b78ad67cd3c72c37b1e87 -->
<g id="node7" class="node">
<title>dir_d501334aeb1b78ad67cd3c72c37b1e87</title>
<g id="a_node7"><a xlink:href="dir_d501334aeb1b78ad67cd3c72c37b1e87.html" target="_top" xlink:title="system">
<polygon fill="none" stroke="black" points="404,-196 350,-196 350,-160 404,-160 404,-196"/>
<text text-anchor="middle" x="377" y="-175.5" font-family="Helvetica,sans-Serif" font-size="10.00">system</text>
</a>
</g>
</g>
<!-- dir_4ecc7ac2b9161d9736e08b42aeb2594a -->
<g id="node9" class="node">
<title>dir_4ecc7ac2b9161d9736e08b42aeb2594a</title>
<g id="a_node9"><a xlink:href="dir_4ecc7ac2b9161d9736e08b42aeb2594a.html" target="_top" xlink:title="input">
<polygon fill="white" stroke="black" points="220,-196 166,-196 166,-160 220,-160 220,-196"/>
<text text-anchor="middle" x="193" y="-175.5" font-family="Helvetica,sans-Serif" font-size="10.00">input</text>
</a>
</g>
</g>
<!-- dir_4ecc7ac2b9161d9736e08b42aeb2594a&#45;&gt;dir_d365e15d984c8d0205117ee0c40d6716 -->
<g id="edge4" class="edge">
<title>dir_4ecc7ac2b9161d9736e08b42aeb2594a&#45;&gt;dir_d365e15d984c8d0205117ee0c40d6716</title>
<path fill="none" stroke="black" d="M174.19,-196.1C164.71,-204.72 153.05,-215.32 142.67,-224.76"/>
<polygon fill="black" stroke="black" points="140.08,-222.38 135.03,-231.7 144.79,-227.56 140.08,-222.38"/>
<g id="a_edge4&#45;headlabel"><a xlink:href="dir_000005_000010.html" target="_top" xlink:title="1">
<text text-anchor="middle" x="140.83" y="-215.36" font-family="Helvetica,sans-Serif" font-size="10.00">1</text>
</a>
</g>
</g>
<!-- dir_5e41e096db7e811af24d49ae6b11260b&#45;&gt;dir_d365e15d984c8d0205117ee0c40d6716 -->
<g id="edge18" class="edge">
<title>dir_5e41e096db7e811af24d49ae6b11260b&#45;&gt;dir_d365e15d984c8d0205117ee0c40d6716</title>
<path fill="none" stroke="black" d="M173.97,-303.7C164.46,-295.05 152.79,-284.45 142.43,-275.03"/>
<polygon fill="black" stroke="black" points="144.57,-272.24 134.81,-268.1 139.86,-277.42 144.57,-272.24"/>
<g id="a_edge18&#45;headlabel"><a xlink:href="dir_000006_000010.html" target="_top" xlink:title="1">
<text text-anchor="middle" x="149.14" y="-270.06" font-family="Helvetica,sans-Serif" font-size="10.00">1</text>
</a>
</g>
</g>
<!-- dir_5e41e096db7e811af24d49ae6b11260b&#45;&gt;dir_844f6ab5c2ae79211596f3dcdd81adb7 -->
<g id="edge16" class="edge">
<title>dir_5e41e096db7e811af24d49ae6b11260b&#45;&gt;dir_844f6ab5c2ae79211596f3dcdd81adb7</title>
<path fill="none" stroke="black" d="M186.33,-303.72C178.96,-285.37 166.24,-255.8 152,-232 146.32,-222.5 139.27,-212.68 132.69,-204.1"/>
<polygon fill="black" stroke="black" points="135.25,-201.7 126.32,-196 129.75,-206.03 135.25,-201.7"/>
<g id="a_edge16&#45;headlabel"><a xlink:href="dir_000006_000001.html" target="_top" xlink:title="1">
<text text-anchor="middle" x="139.7" y="-200.27" font-family="Helvetica,sans-Serif" font-size="10.00">1</text>
</a>
</g>
</g>
<!-- dir_5e41e096db7e811af24d49ae6b11260b&#45;&gt;dir_560415a5d2bc4999842279f4fc1debef -->
<g id="edge15" class="edge">
<title>dir_5e41e096db7e811af24d49ae6b11260b&#45;&gt;dir_560415a5d2bc4999842279f4fc1debef</title>
<path fill="none" stroke="black" d="M165.93,-314.95C140.34,-307.88 102.59,-293.72 80,-268 47.6,-231.11 52.47,-169.47 58.81,-134.13"/>
<polygon fill="black" stroke="black" points="62.29,-134.54 60.78,-124.06 55.42,-133.2 62.29,-134.54"/>
<g id="a_edge15&#45;headlabel"><a xlink:href="dir_000006_000009.html" target="_top" xlink:title="2">
<text text-anchor="middle" x="64.39" y="-136.12" font-family="Helvetica,sans-Serif" font-size="10.00">2</text>
</a>
</g>
</g>
<!-- dir_5e41e096db7e811af24d49ae6b11260b&#45;&gt;dir_9b051f5a462ebc902d5afef8d9317d03 -->
<g id="edge17" class="edge">
<title>dir_5e41e096db7e811af24d49ae6b11260b&#45;&gt;dir_9b051f5a462ebc902d5afef8d9317d03</title>
<path fill="none" stroke="black" d="M165.82,-317.94C134.97,-312.99 85.39,-300.23 58,-268 5.43,-206.14 2.16,-165.28 27,-88 30.19,-78.08 36,-68.44 42.13,-60.17"/>
<polygon fill="black" stroke="black" points="45.07,-62.09 48.54,-52.08 39.58,-57.74 45.07,-62.09"/>
<g id="a_edge17&#45;headlabel"><a xlink:href="dir_000006_000002.html" target="_top" xlink:title="5">
<text text-anchor="middle" x="45.06" y="-64.17" font-family="Helvetica,sans-Serif" font-size="10.00">5</text>
</a>
</g>
</g>
<!-- dir_5e41e096db7e811af24d49ae6b11260b&#45;&gt;dir_35781f0e74aa8deac19fa31b37174dc2 -->
<g id="edge13" class="edge">
<title>dir_5e41e096db7e811af24d49ae6b11260b&#45;&gt;dir_35781f0e74aa8deac19fa31b37174dc2</title>
<path fill="none" stroke="black" d="M220.22,-307.24C223.14,-306.04 226.1,-304.93 229,-304 314.59,-276.57 369.95,-336.62 428,-268 444.49,-248.51 438.46,-174.85 433.66,-134.26"/>
<polygon fill="black" stroke="black" points="437.12,-133.73 432.42,-124.23 430.17,-134.59 437.12,-133.73"/>
<g id="a_edge13&#45;headlabel"><a xlink:href="dir_000006_000011.html" target="_top" xlink:title="1">
<text text-anchor="middle" x="440.38" y="-134.45" font-family="Helvetica,sans-Serif" font-size="10.00">1</text>
</a>
</g>
</g>
<!-- dir_5e41e096db7e811af24d49ae6b11260b&#45;&gt;dir_4ecc7ac2b9161d9736e08b42aeb2594a -->
<g id="edge14" class="edge">
<title>dir_5e41e096db7e811af24d49ae6b11260b&#45;&gt;dir_4ecc7ac2b9161d9736e08b42aeb2594a</title>
<path fill="none" stroke="black" d="M193,-303.87C193,-279.67 193,-235.21 193,-206.39"/>
<polygon fill="black" stroke="black" points="196.5,-206.19 193,-196.19 189.5,-206.19 196.5,-206.19"/>
<g id="a_edge14&#45;headlabel"><a xlink:href="dir_000006_000005.html" target="_top" xlink:title="1">
<text text-anchor="middle" x="199.34" y="-207.28" font-family="Helvetica,sans-Serif" font-size="10.00">1</text>
</a>
</g>
</g>
<!-- dir_1d56c4648b887634557841a50e4691f5 -->
<g id="node11" class="node">
<title>dir_1d56c4648b887634557841a50e4691f5</title>
<g id="a_node11"><a xlink:href="dir_1d56c4648b887634557841a50e4691f5.html" target="_top" xlink:title="system">
<polygon fill="white" stroke="black" points="289,-268 235,-268 235,-232 289,-232 289,-268"/>
<text text-anchor="middle" x="262" y="-247.5" font-family="Helvetica,sans-Serif" font-size="10.00">system</text>
</a>
</g>
</g>
<!-- dir_5e41e096db7e811af24d49ae6b11260b&#45;&gt;dir_1d56c4648b887634557841a50e4691f5 -->
<g id="edge12" class="edge">
<title>dir_5e41e096db7e811af24d49ae6b11260b&#45;&gt;dir_1d56c4648b887634557841a50e4691f5</title>
<path fill="none" stroke="black" d="M210.06,-303.7C218.5,-295.14 228.82,-284.66 238.04,-275.3"/>
<polygon fill="black" stroke="black" points="240.61,-277.68 245.14,-268.1 235.63,-272.77 240.61,-277.68"/>
<g id="a_edge12&#45;headlabel"><a xlink:href="dir_000006_000007.html" target="_top" xlink:title="3">
<text text-anchor="middle" x="240.11" y="-279.74" font-family="Helvetica,sans-Serif" font-size="10.00">3</text>
</a>
</g>
</g>
<!-- dir_f8b6674c777273c859b7a6c9383ab39f -->
<g id="node12" class="node">
<title>dir_f8b6674c777273c859b7a6c9383ab39f</title>
<g id="a_node12"><a xlink:href="dir_f8b6674c777273c859b7a6c9383ab39f.html" target="_top" xlink:title="tag">
<polygon fill="white" stroke="black" points="292,-196 238,-196 238,-160 292,-160 292,-196"/>
<text text-anchor="middle" x="265" y="-175.5" font-family="Helvetica,sans-Serif" font-size="10.00">tag</text>
</a>
</g>
</g>
<!-- dir_5e41e096db7e811af24d49ae6b11260b&#45;&gt;dir_f8b6674c777273c859b7a6c9383ab39f -->
<g id="edge19" class="edge">
<title>dir_5e41e096db7e811af24d49ae6b11260b&#45;&gt;dir_f8b6674c777273c859b7a6c9383ab39f</title>
<path fill="none" stroke="black" d="M197.75,-303.99C203.23,-285.62 213.17,-255.79 226,-232 231.13,-222.5 237.78,-212.79 244.14,-204.32"/>
<polygon fill="black" stroke="black" points="246.98,-206.37 250.33,-196.32 241.44,-202.09 246.98,-206.37"/>
<g id="a_edge19&#45;headlabel"><a xlink:href="dir_000006_000008.html" target="_top" xlink:title="1">
<text text-anchor="middle" x="247.02" y="-208.45" font-family="Helvetica,sans-Serif" font-size="10.00">1</text>
</a>
</g>
</g>
<!-- dir_1d56c4648b887634557841a50e4691f5&#45;&gt;dir_d365e15d984c8d0205117ee0c40d6716 -->
<g id="edge8" class="edge">
<title>dir_1d56c4648b887634557841a50e4691f5&#45;&gt;dir_d365e15d984c8d0205117ee0c40d6716</title>
<path fill="none" stroke="black" d="M234.59,-250C207.43,-250 180.26,-250 153.1,-250"/>
<polygon fill="black" stroke="black" points="153.09,-246.5 143.09,-250 153.09,-253.5 153.09,-246.5"/>
<g id="a_edge8&#45;headlabel"><a xlink:href="dir_000007_000010.html" target="_top" xlink:title="4">
<text text-anchor="middle" x="156.68" y="-241.16" font-family="Helvetica,sans-Serif" font-size="10.00">4</text>
</a>
</g>
</g>
<!-- dir_1d56c4648b887634557841a50e4691f5&#45;&gt;dir_844f6ab5c2ae79211596f3dcdd81adb7 -->
<g id="edge6" class="edge">
<title>dir_1d56c4648b887634557841a50e4691f5&#45;&gt;dir_844f6ab5c2ae79211596f3dcdd81adb7</title>
<path fill="none" stroke="black" d="M234.68,-233.86C233.44,-233.22 232.21,-232.6 231,-232 206.8,-220 179.28,-207.66 156.8,-197.91"/>
<polygon fill="black" stroke="black" points="158.07,-194.65 147.5,-193.9 155.3,-201.07 158.07,-194.65"/>
<g id="a_edge6&#45;headlabel"><a xlink:href="dir_000007_000001.html" target="_top" xlink:title="2">
<text text-anchor="middle" x="162.5" y="-190.96" font-family="Helvetica,sans-Serif" font-size="10.00">2</text>
</a>
</g>
</g>
<!-- dir_1d56c4648b887634557841a50e4691f5&#45;&gt;dir_9b051f5a462ebc902d5afef8d9317d03 -->
<g id="edge7" class="edge">
<title>dir_1d56c4648b887634557841a50e4691f5&#45;&gt;dir_9b051f5a462ebc902d5afef8d9317d03</title>
<path fill="none" stroke="black" d="M283.71,-231.79C293.76,-222.41 304.64,-209.9 310,-196 317.03,-177.75 320.43,-168.54 310,-152 266.24,-82.61 168.73,-53.49 110.79,-41.96"/>
<polygon fill="black" stroke="black" points="111.28,-38.49 100.8,-40.07 109.98,-45.37 111.28,-38.49"/>
<g id="a_edge7&#45;headlabel"><a xlink:href="dir_000007_000002.html" target="_top" xlink:title="2">
<text text-anchor="middle" x="115.34" y="-33.87" font-family="Helvetica,sans-Serif" font-size="10.00">2</text>
</a>
</g>
</g>
<!-- dir_1d56c4648b887634557841a50e4691f5&#45;&gt;dir_f278fbcf62338d746f20818c09b59427 -->
<g id="edge10" class="edge">
<title>dir_1d56c4648b887634557841a50e4691f5&#45;&gt;dir_f278fbcf62338d746f20818c09b59427</title>
<path fill="none" stroke="black" d="M278.57,-231.83C296.35,-211.28 319.67,-176.57 301,-152 285.95,-132.2 219.12,-118.81 176.14,-112.08"/>
<polygon fill="black" stroke="black" points="176.45,-108.59 166.04,-110.55 175.4,-115.51 176.45,-108.59"/>
<g id="a_edge10&#45;headlabel"><a xlink:href="dir_000007_000003.html" target="_top" xlink:title="3">
<text text-anchor="middle" x="180.43" y="-103.82" font-family="Helvetica,sans-Serif" font-size="10.00">3</text>
</a>
</g>
</g>
<!-- dir_1d56c4648b887634557841a50e4691f5&#45;&gt;dir_d501334aeb1b78ad67cd3c72c37b1e87 -->
<g id="edge9" class="edge">
<title>dir_1d56c4648b887634557841a50e4691f5&#45;&gt;dir_d501334aeb1b78ad67cd3c72c37b1e87</title>
<path fill="none" stroke="black" d="M289.25,-232.41C304.72,-223 324.27,-211.1 340.99,-200.92"/>
<polygon fill="black" stroke="black" points="343.22,-203.66 349.94,-195.47 339.58,-197.68 343.22,-203.66"/>
<g id="a_edge9&#45;headlabel"><a xlink:href="dir_000007_000012.html" target="_top" xlink:title="2">
<text text-anchor="middle" x="341.63" y="-205.45" font-family="Helvetica,sans-Serif" font-size="10.00">2</text>
</a>
</g>
</g>
<!-- dir_1d56c4648b887634557841a50e4691f5&#45;&gt;dir_4ecc7ac2b9161d9736e08b42aeb2594a -->
<g id="edge5" class="edge">
<title>dir_1d56c4648b887634557841a50e4691f5&#45;&gt;dir_4ecc7ac2b9161d9736e08b42aeb2594a</title>
<path fill="none" stroke="black" d="M244.94,-231.7C236.5,-223.14 226.18,-212.66 216.96,-203.3"/>
<polygon fill="black" stroke="black" points="219.37,-200.77 209.86,-196.1 214.39,-205.68 219.37,-200.77"/>
<g id="a_edge5&#45;headlabel"><a xlink:href="dir_000007_000005.html" target="_top" xlink:title="2">
<text text-anchor="middle" x="223.92" y="-198.84" font-family="Helvetica,sans-Serif" font-size="10.00">2</text>
</a>
</g>
</g>
<!-- dir_1d56c4648b887634557841a50e4691f5&#45;&gt;dir_f8b6674c777273c859b7a6c9383ab39f -->
<g id="edge11" class="edge">
<title>dir_1d56c4648b887634557841a50e4691f5&#45;&gt;dir_f8b6674c777273c859b7a6c9383ab39f</title>
<path fill="none" stroke="black" d="M262.74,-231.7C263.07,-223.98 263.47,-214.71 263.84,-206.11"/>
<polygon fill="black" stroke="black" points="267.34,-206.25 264.27,-196.1 260.34,-205.95 267.34,-206.25"/>
<g id="a_edge11&#45;headlabel"><a xlink:href="dir_000007_000008.html" target="_top" xlink:title="2">
<text text-anchor="middle" x="270.02" y="-207.46" font-family="Helvetica,sans-Serif" font-size="10.00">2</text>
</a>
</g>
</g>
</g>
</svg>
