<?xml version="1.0" encoding="UTF-8" standalone="no"?>
<!DOCTYPE svg PUBLIC "-//W3C//DTD SVG 1.1//EN"
 "http://www.w3.org/Graphics/SVG/1.1/DTD/svg11.dtd">
<!-- Generated by graphviz version 2.43.0 (0)
 -->
<!-- Title: src/game/system Pages: 1 -->
<svg width="431pt" height="367pt"
 viewBox="0.00 0.00 430.69 367.00" xmlns="http://www.w3.org/2000/svg" xmlns:xlink="http://www.w3.org/1999/xlink">
<g id="graph0" class="graph" transform="scale(1 1) rotate(0) translate(4 363)">
<title>src/game/system</title>
<polygon fill="white" stroke="transparent" points="-4,4 -4,-363 426.69,-363 426.69,4 -4,4"/>
<g id="clust1" class="cluster">
<title>clusterdir_1699be727a800b1d059c6f7f2b91d2ee</title>
<g id="a_clust1"><a xlink:href="dir_1699be727a800b1d059c6f7f2b91d2ee.html" target="_top" xlink:title="game">
<polygon fill="#ddddee" stroke="black" points="89.19,-208 89.19,-351 231.19,-351 231.19,-208 89.19,-208"/>
<text text-anchor="middle" x="160.19" y="-339" font-family="Helvetica,sans-Serif" font-size="10.00">game</text>
</a>
</g>
</g>
<!-- dir_4ecc7ac2b9161d9736e08b42aeb2594a -->
<g id="node1" class="node">
<title>dir_4ecc7ac2b9161d9736e08b42aeb2594a</title>
<g id="a_node1"><a xlink:href="dir_4ecc7ac2b9161d9736e08b42aeb2594a.html" target="_top" xlink:title="input">
<polygon fill="none" stroke="black" points="151.19,-252 97.19,-252 97.19,-216 151.19,-216 151.19,-252"/>
<text text-anchor="middle" x="124.19" y="-231.5" font-family="Helvetica,sans-Serif" font-size="10.00">input</text>
</a>
</g>
</g>
<!-- dir_d365e15d984c8d0205117ee0c40d6716 -->
<g id="node7" class="node">
<title>dir_d365e15d984c8d0205117ee0c40d6716</title>
<g id="a_node7"><a xlink:href="dir_d365e15d984c8d0205117ee0c40d6716.html" target="_top" xlink:title="input">
<polygon fill="none" stroke="black" points="131.19,-180 77.19,-180 77.19,-144 131.19,-144 131.19,-180"/>
<text text-anchor="middle" x="104.19" y="-159.5" font-family="Helvetica,sans-Serif" font-size="10.00">input</text>
</a>
</g>
</g>
<!-- dir_4ecc7ac2b9161d9736e08b42aeb2594a&#45;&gt;dir_d365e15d984c8d0205117ee0c40d6716 -->
<g id="edge4" class="edge">
<title>dir_4ecc7ac2b9161d9736e08b42aeb2594a&#45;&gt;dir_d365e15d984c8d0205117ee0c40d6716</title>
<path fill="none" stroke="black" d="M119.24,-215.7C117.01,-207.9 114.33,-198.51 111.85,-189.83"/>
<polygon fill="black" stroke="black" points="115.19,-188.76 109.07,-180.1 108.45,-190.68 115.19,-188.76"/>
<g id="a_edge4&#45;headlabel"><a xlink:href="dir_000005_000018.html" target="_top" xlink:title="1">
<text text-anchor="middle" x="118.9" y="-188.93" font-family="Helvetica,sans-Serif" font-size="10.00">1</text>
</a>
</g>
</g>
<!-- dir_f8b6674c777273c859b7a6c9383ab39f -->
<g id="node2" class="node">
<title>dir_f8b6674c777273c859b7a6c9383ab39f</title>
<g id="a_node2"><a xlink:href="dir_f8b6674c777273c859b7a6c9383ab39f.html" target="_top" xlink:title="tag">
<polygon fill="none" stroke="black" points="223.19,-252 169.19,-252 169.19,-216 223.19,-216 223.19,-252"/>
<text text-anchor="middle" x="196.19" y="-231.5" font-family="Helvetica,sans-Serif" font-size="10.00">tag</text>
</a>
</g>
</g>
<!-- dir_1d56c4648b887634557841a50e4691f5 -->
<g id="node3" class="node">
<title>dir_1d56c4648b887634557841a50e4691f5</title>
<g id="a_node3"><a xlink:href="dir_1d56c4648b887634557841a50e4691f5.html" target="_top" xlink:title="system">
<polygon fill="#eeeeff" stroke="black" points="187.19,-324 133.19,-324 133.19,-288 187.19,-288 187.19,-324"/>
<text text-anchor="middle" x="160.19" y="-303.5" font-family="Helvetica,sans-Serif" font-size="10.00">system</text>
</a>
</g>
</g>
<!-- dir_1d56c4648b887634557841a50e4691f5&#45;&gt;dir_4ecc7ac2b9161d9736e08b42aeb2594a -->
<g id="edge6" class="edge">
<title>dir_1d56c4648b887634557841a50e4691f5&#45;&gt;dir_4ecc7ac2b9161d9736e08b42aeb2594a</title>
<path fill="none" stroke="black" d="M151.29,-287.7C147.19,-279.73 142.24,-270.1 137.69,-261.26"/>
<polygon fill="black" stroke="black" points="140.67,-259.4 132.98,-252.1 134.44,-262.6 140.67,-259.4"/>
<g id="a_edge6&#45;headlabel"><a xlink:href="dir_000007_000005.html" target="_top" xlink:title="2">
<text text-anchor="middle" x="144.84" y="-258.79" font-family="Helvetica,sans-Serif" font-size="10.00">2</text>
</a>
</g>
</g>
<!-- dir_1d56c4648b887634557841a50e4691f5&#45;&gt;dir_f8b6674c777273c859b7a6c9383ab39f -->
<g id="edge12" class="edge">
<title>dir_1d56c4648b887634557841a50e4691f5&#45;&gt;dir_f8b6674c777273c859b7a6c9383ab39f</title>
<path fill="none" stroke="black" d="M169.08,-287.7C173.18,-279.73 178.13,-270.1 182.68,-261.26"/>
<polygon fill="black" stroke="black" points="185.93,-262.6 187.39,-252.1 179.7,-259.4 185.93,-262.6"/>
<g id="a_edge12&#45;headlabel"><a xlink:href="dir_000007_000008.html" target="_top" xlink:title="2">
<text text-anchor="middle" x="186.81" y="-264.59" font-family="Helvetica,sans-Serif" font-size="10.00">2</text>
</a>
</g>
</g>
<!-- dir_2241064965c8d9ca993f08b926076f7d -->
<g id="node4" class="node">
<title>dir_2241064965c8d9ca993f08b926076f7d</title>
<g id="a_node4"><a xlink:href="dir_2241064965c8d9ca993f08b926076f7d.html" target="_top" xlink:title="log">
<polygon fill="none" stroke="black" points="84.19,-36 30.19,-36 30.19,0 84.19,0 84.19,-36"/>
<text text-anchor="middle" x="57.19" y="-15.5" font-family="Helvetica,sans-Serif" font-size="10.00">log</text>
</a>
</g>
</g>
<!-- dir_1d56c4648b887634557841a50e4691f5&#45;&gt;dir_2241064965c8d9ca993f08b926076f7d -->
<g id="edge5" class="edge">
<title>dir_1d56c4648b887634557841a50e4691f5&#45;&gt;dir_2241064965c8d9ca993f08b926076f7d</title>
<path fill="none" stroke="black" d="M132.87,-297.73C109.31,-290.1 76.04,-275.82 56.19,-252 3.52,-188.82 -14.74,-149.36 13.19,-72 16.94,-61.6 23.72,-51.8 30.85,-43.52"/>
<polygon fill="black" stroke="black" points="33.51,-45.81 37.71,-36.08 28.36,-41.06 33.51,-45.81"/>
<g id="a_edge5&#45;headlabel"><a xlink:href="dir_000007_000019.html" target="_top" xlink:title="2">
<text text-anchor="middle" x="33.16" y="-47.87" font-family="Helvetica,sans-Serif" font-size="10.00">2</text>
</a>
</g>
</g>
<!-- dir_844f6ab5c2ae79211596f3dcdd81adb7 -->
<g id="node5" class="node">
<title>dir_844f6ab5c2ae79211596f3dcdd81adb7</title>
<g id="a_node5"><a xlink:href="dir_844f6ab5c2ae79211596f3dcdd81adb7.html" target="_top" xlink:title="application">
<polygon fill="none" stroke="black" points="92.69,-108 21.69,-108 21.69,-72 92.69,-72 92.69,-108"/>
<text text-anchor="middle" x="57.19" y="-87.5" font-family="Helvetica,sans-Serif" font-size="10.00">application</text>
</a>
</g>
</g>
<!-- dir_1d56c4648b887634557841a50e4691f5&#45;&gt;dir_844f6ab5c2ae79211596f3dcdd81adb7 -->
<g id="edge7" class="edge">
<title>dir_1d56c4648b887634557841a50e4691f5&#45;&gt;dir_844f6ab5c2ae79211596f3dcdd81adb7</title>
<path fill="none" stroke="black" d="M132.79,-294.54C114.27,-285.99 90.94,-272.01 78.19,-252 52.07,-211.03 51.6,-152.26 54.08,-118.22"/>
<polygon fill="black" stroke="black" points="57.58,-118.35 54.96,-108.09 50.61,-117.75 57.58,-118.35"/>
<g id="a_edge7&#45;headlabel"><a xlink:href="dir_000007_000001.html" target="_top" xlink:title="2">
<text text-anchor="middle" x="60.1" y="-119.68" font-family="Helvetica,sans-Serif" font-size="10.00">2</text>
</a>
</g>
</g>
<!-- dir_9b051f5a462ebc902d5afef8d9317d03 -->
<g id="node6" class="node">
<title>dir_9b051f5a462ebc902d5afef8d9317d03</title>
<g id="a_node6"><a xlink:href="dir_9b051f5a462ebc902d5afef8d9317d03.html" target="_top" xlink:title="component">
<polygon fill="none" stroke="black" points="422.69,-252 351.69,-252 351.69,-216 422.69,-216 422.69,-252"/>
<text text-anchor="middle" x="387.19" y="-231.5" font-family="Helvetica,sans-Serif" font-size="10.00">component</text>
</a>
</g>
</g>
<!-- dir_1d56c4648b887634557841a50e4691f5&#45;&gt;dir_9b051f5a462ebc902d5afef8d9317d03 -->
<g id="edge8" class="edge">
<title>dir_1d56c4648b887634557841a50e4691f5&#45;&gt;dir_9b051f5a462ebc902d5afef8d9317d03</title>
<path fill="none" stroke="black" d="M187.27,-297.23C222.08,-287.16 284.33,-268.89 337.19,-252 338.63,-251.54 340.1,-251.06 341.58,-250.58"/>
<polygon fill="black" stroke="black" points="343.06,-253.78 351.46,-247.33 340.87,-247.13 343.06,-253.78"/>
<g id="a_edge8&#45;headlabel"><a xlink:href="dir_000007_000002.html" target="_top" xlink:title="2">
<text text-anchor="middle" x="340.53" y="-255.1" font-family="Helvetica,sans-Serif" font-size="10.00">2</text>
</a>
</g>
</g>
<!-- dir_1d56c4648b887634557841a50e4691f5&#45;&gt;dir_d365e15d984c8d0205117ee0c40d6716 -->
<g id="edge9" class="edge">
<title>dir_1d56c4648b887634557841a50e4691f5&#45;&gt;dir_d365e15d984c8d0205117ee0c40d6716</title>
<path fill="none" stroke="black" d="M133.11,-293.01C116.86,-284.21 97.57,-270.56 88.19,-252 78.34,-232.52 83.9,-207.96 91.05,-189.57"/>
<polygon fill="black" stroke="black" points="94.29,-190.89 94.97,-180.32 87.84,-188.16 94.29,-190.89"/>
<g id="a_edge9&#45;headlabel"><a xlink:href="dir_000007_000018.html" target="_top" xlink:title="4">
<text text-anchor="middle" x="95.5" y="-192.81" font-family="Helvetica,sans-Serif" font-size="10.00">4</text>
</a>
</g>
</g>
<!-- dir_d501334aeb1b78ad67cd3c72c37b1e87 -->
<g id="node8" class="node">
<title>dir_d501334aeb1b78ad67cd3c72c37b1e87</title>
<g id="a_node8"><a xlink:href="dir_d501334aeb1b78ad67cd3c72c37b1e87.html" target="_top" xlink:title="system">
<polygon fill="none" stroke="black" points="295.19,-252 241.19,-252 241.19,-216 295.19,-216 295.19,-252"/>
<text text-anchor="middle" x="268.19" y="-231.5" font-family="Helvetica,sans-Serif" font-size="10.00">system</text>
</a>
</g>
</g>
<!-- dir_1d56c4648b887634557841a50e4691f5&#45;&gt;dir_d501334aeb1b78ad67cd3c72c37b1e87 -->
<g id="edge10" class="edge">
<title>dir_1d56c4648b887634557841a50e4691f5&#45;&gt;dir_d501334aeb1b78ad67cd3c72c37b1e87</title>
<path fill="none" stroke="black" d="M186.61,-287.88C200.6,-278.81 217.96,-267.55 233.07,-257.76"/>
<polygon fill="black" stroke="black" points="235.18,-260.57 241.66,-252.19 231.37,-254.69 235.18,-260.57"/>
<g id="a_edge10&#45;headlabel"><a xlink:href="dir_000007_000021.html" target="_top" xlink:title="2">
<text text-anchor="middle" x="233.7" y="-262.4" font-family="Helvetica,sans-Serif" font-size="10.00">2</text>
</a>
</g>
</g>
<!-- dir_f278fbcf62338d746f20818c09b59427 -->
<g id="node9" class="node">
<title>dir_f278fbcf62338d746f20818c09b59427</title>
<g id="a_node9"><a xlink:href="dir_f278fbcf62338d746f20818c09b59427.html" target="_top" xlink:title="event">
<polygon fill="none" stroke="black" points="186.19,-36 132.19,-36 132.19,0 186.19,0 186.19,-36"/>
<text text-anchor="middle" x="159.19" y="-15.5" font-family="Helvetica,sans-Serif" font-size="10.00">event</text>
</a>
</g>
</g>
<!-- dir_1d56c4648b887634557841a50e4691f5&#45;&gt;dir_f278fbcf62338d746f20818c09b59427 -->
<g id="edge11" class="edge">
<title>dir_1d56c4648b887634557841a50e4691f5&#45;&gt;dir_f278fbcf62338d746f20818c09b59427</title>
<path fill="none" stroke="black" d="M187.47,-303.82C221.33,-300.71 277.82,-289.8 304.19,-252 356.17,-177.48 250.23,-84.68 192.81,-42.19"/>
<polygon fill="black" stroke="black" points="194.53,-39.11 184.38,-36.06 190.41,-44.77 194.53,-39.11"/>
<g id="a_edge11&#45;headlabel"><a xlink:href="dir_000007_000003.html" target="_top" xlink:title="3">
<text text-anchor="middle" x="199.1" y="-36.43" font-family="Helvetica,sans-Serif" font-size="10.00">3</text>
</a>
</g>
</g>
<!-- dir_844f6ab5c2ae79211596f3dcdd81adb7&#45;&gt;dir_2241064965c8d9ca993f08b926076f7d -->
<g id="edge13" class="edge">
<title>dir_844f6ab5c2ae79211596f3dcdd81adb7&#45;&gt;dir_2241064965c8d9ca993f08b926076f7d</title>
<path fill="none" stroke="black" d="M57.19,-71.7C57.19,-63.98 57.19,-54.71 57.19,-46.11"/>
<polygon fill="black" stroke="black" points="60.69,-46.1 57.19,-36.1 53.69,-46.1 60.69,-46.1"/>
<g id="a_edge13&#45;headlabel"><a xlink:href="dir_000001_000019.html" target="_top" xlink:title="2">
<text text-anchor="middle" x="63.52" y="-47.2" font-family="Helvetica,sans-Serif" font-size="10.00">2</text>
</a>
</g>
</g>
<!-- dir_844f6ab5c2ae79211596f3dcdd81adb7&#45;&gt;dir_d365e15d984c8d0205117ee0c40d6716 -->
<g id="edge14" class="edge">
<title>dir_844f6ab5c2ae79211596f3dcdd81adb7&#45;&gt;dir_d365e15d984c8d0205117ee0c40d6716</title>
<path fill="none" stroke="black" d="M74.56,-108.1C80.86,-116.21 87.7,-126.08 93.32,-135.08"/>
<polygon fill="black" stroke="black" points="90.34,-136.91 98.48,-143.7 96.35,-133.32 90.34,-136.91"/>
<g id="a_edge14&#45;headlabel"><a xlink:href="dir_000001_000018.html" target="_top" xlink:title="1">
<text text-anchor="middle" x="86.06" y="-132.79" font-family="Helvetica,sans-Serif" font-size="10.00">1</text>
</a>
</g>
</g>
<!-- dir_844f6ab5c2ae79211596f3dcdd81adb7&#45;&gt;dir_f278fbcf62338d746f20818c09b59427 -->
<g id="edge15" class="edge">
<title>dir_844f6ab5c2ae79211596f3dcdd81adb7&#45;&gt;dir_f278fbcf62338d746f20818c09b59427</title>
<path fill="none" stroke="black" d="M82.14,-71.88C95.23,-62.89 111.45,-51.76 125.62,-42.03"/>
<polygon fill="black" stroke="black" points="127.87,-44.73 134.14,-36.19 123.91,-38.96 127.87,-44.73"/>
<g id="a_edge15&#45;headlabel"><a xlink:href="dir_000001_000003.html" target="_top" xlink:title="1">
<text text-anchor="middle" x="126.52" y="-46.61" font-family="Helvetica,sans-Serif" font-size="10.00">1</text>
</a>
</g>
</g>
<!-- dir_d365e15d984c8d0205117ee0c40d6716&#45;&gt;dir_2241064965c8d9ca993f08b926076f7d -->
<g id="edge1" class="edge">
<title>dir_d365e15d984c8d0205117ee0c40d6716&#45;&gt;dir_2241064965c8d9ca993f08b926076f7d</title>
<path fill="none" stroke="black" d="M107.09,-143.96C109.48,-125.56 111.19,-95.69 102.19,-72 98.22,-61.57 91.25,-51.76 83.96,-43.48"/>
<polygon fill="black" stroke="black" points="86.37,-40.93 76.97,-36.05 81.27,-45.73 86.37,-40.93"/>
<g id="a_edge1&#45;headlabel"><a xlink:href="dir_000018_000019.html" target="_top" xlink:title="1">
<text text-anchor="middle" x="90.9" y="-39.1" font-family="Helvetica,sans-Serif" font-size="10.00">1</text>
</a>
</g>
</g>
<!-- dir_d365e15d984c8d0205117ee0c40d6716&#45;&gt;dir_844f6ab5c2ae79211596f3dcdd81adb7 -->
<g id="edge2" class="edge">
<title>dir_d365e15d984c8d0205117ee0c40d6716&#45;&gt;dir_844f6ab5c2ae79211596f3dcdd81adb7</title>
<path fill="none" stroke="black" d="M86.65,-143.7C80.35,-135.56 73.52,-125.69 67.91,-116.7"/>
<polygon fill="black" stroke="black" points="70.91,-114.9 62.77,-108.1 64.9,-118.48 70.91,-114.9"/>
<g id="a_edge2&#45;headlabel"><a xlink:href="dir_000018_000001.html" target="_top" xlink:title="1">
<text text-anchor="middle" x="75.19" y="-114.03" font-family="Helvetica,sans-Serif" font-size="10.00">1</text>
</a>
</g>
</g>
<!-- dir_d365e15d984c8d0205117ee0c40d6716&#45;&gt;dir_f278fbcf62338d746f20818c09b59427 -->
<g id="edge3" class="edge">
<title>dir_d365e15d984c8d0205117ee0c40d6716&#45;&gt;dir_f278fbcf62338d746f20818c09b59427</title>
<path fill="none" stroke="black" d="M110.82,-143.87C120.28,-119.46 137.72,-74.43 148.87,-45.64"/>
<polygon fill="black" stroke="black" points="152.18,-46.78 152.53,-36.19 145.65,-44.25 152.18,-46.78"/>
<g id="a_edge3&#45;headlabel"><a xlink:href="dir_000018_000003.html" target="_top" xlink:title="5">
<text text-anchor="middle" x="153.53" y="-48.66" font-family="Helvetica,sans-Serif" font-size="10.00">5</text>
</a>
</g>
</g>
</g>
</svg>
