<?xml version="1.0" encoding="UTF-8" standalone="no"?>
<!DOCTYPE svg PUBLIC "-//W3C//DTD SVG 1.1//EN"
 "http://www.w3.org/Graphics/SVG/1.1/DTD/svg11.dtd">
<!-- Generated by graphviz version 2.43.0 (0)
 -->
<!-- Title: src/game Pages: 1 -->
<!--zoomable 391 -->
<svg id="main" version="1.1" xmlns="http://www.w3.org/2000/svg" xmlns:xlink="http://www.w3.org/1999/xlink" xml:space="preserve" onload="init(evt)">
<style type="text/css"><![CDATA[
.edge:hover path { stroke: red; }
.edge:hover polygon { stroke: red; fill: red; }
]]></style>
<script type="text/javascript"><![CDATA[
var edges = document.getElementsByTagName('g');
if (edges && edges.length) {
  for (var i=0;i<edges.length;i++) {
    if (edges[i].id.substr(0,4)=='edge') {
      edges[i].setAttribute('class','edge');
    }
  }
}
]]></script>
        <defs>
                <circle id="rim" cx="0" cy="0" r="7"/>
                <circle id="rim2" cx="0" cy="0" r="3.5"/>
                <g id="zoomPlus">
                        <use xlink:href="#rim" fill="#404040">
                                <set attributeName="fill" to="#808080" begin="zoomplus.mouseover" end="zoomplus.mouseout"/>
                        </use>
                        <path d="M-4,0h8M0,-4v8" fill="none" stroke="white" stroke-width="1.5" pointer-events="none"/>
                </g>
                <g id="zoomMin">
                        <use xlink:href="#rim" fill="#404040">
                                <set attributeName="fill" to="#808080" begin="zoomminus.mouseover" end="zoomminus.mouseout"/>
                        </use>
                        <path d="M-4,0h8" fill="none" stroke="white" stroke-width="1.5" pointer-events="none"/>
                </g>
                <g id="dirArrow">
                        <path fill="none" stroke="white" stroke-width="1.5" d="M0,-3.0v7 M-2.5,-0.5L0,-3.0L2.5,-0.5"/>
                </g>
               <g id="resetDef">
                       <use xlink:href="#rim2" fill="#404040">
                               <set attributeName="fill" to="#808080" begin="reset.mouseover" end="reset.mouseout"/>
                       </use>
               </g>
        </defs>

<script type="text/javascript">
var viewWidth = 528;
var viewHeight = 391;
var sectionId = 'dynsection-0';
</script>
<script xlink:href="svgpan.js"/>
<svg id="graph" class="graph">
<g id="viewport">
<title>src/game</title>
<polygon fill="white" stroke="transparent" points="-4,4 -4,-387 524,-387 524,4 -4,4"/>
<g id="clust1" class="cluster">
<title>clusterdir_68267d1309a1af8e8297ef4c3efbcdba</title>
<g id="a_clust1"><a xlink:href="dir_68267d1309a1af8e8297ef4c3efbcdba.html" target="_top" xlink:title="src">
<polygon fill="#ddddee" stroke="black" points="8,-8 8,-375 512,-375 512,-8 8,-8"/>
<text text-anchor="middle" x="260" y="-363" font-family="Helvetica,sans-Serif" font-size="10.00">src</text>
</a>
</g>
</g>
<g id="clust2" class="cluster">
<title>clusterdir_1699be727a800b1d059c6f7f2b91d2ee</title>
<g id="a_clust2"><a xlink:href="dir_1699be727a800b1d059c6f7f2b91d2ee.html" target="_top">
<polygon fill="#eeeeff" stroke="black" points="140,-152 140,-348 282,-348 282,-152 140,-152"/>
</a>
</g>
</g>
<!-- dir_d365e15d984c8d0205117ee0c40d6716 -->
<g id="node1" class="node">
<title>dir_d365e15d984c8d0205117ee0c40d6716</title>
<g id="a_node1"><a xlink:href="dir_d365e15d984c8d0205117ee0c40d6716.html" target="_top" xlink:title="input">
<polygon fill="none" stroke="black" points="344,-268 290,-268 290,-232 344,-232 344,-268"/>
<text text-anchor="middle" x="317" y="-247.5" font-family="Helvetica,sans-Serif" font-size="10.00">input</text>
</a>
</g>
</g>
<!-- dir_844f6ab5c2ae79211596f3dcdd81adb7 -->
<g id="node2" class="node">
<title>dir_844f6ab5c2ae79211596f3dcdd81adb7</title>
<g id="a_node2"><a xlink:href="dir_844f6ab5c2ae79211596f3dcdd81adb7.html" target="_top" xlink:title="application">
<polygon fill="none" stroke="black" points="403.5,-196 332.5,-196 332.5,-160 403.5,-160 403.5,-196"/>
<text text-anchor="middle" x="368" y="-175.5" font-family="Helvetica,sans-Serif" font-size="10.00">application</text>
</a>
</g>
</g>
<!-- dir_d365e15d984c8d0205117ee0c40d6716&#45;&gt;dir_844f6ab5c2ae79211596f3dcdd81adb7 -->
<g id="edge3" class="edge">
<title>dir_d365e15d984c8d0205117ee0c40d6716&#45;&gt;dir_844f6ab5c2ae79211596f3dcdd81adb7</title>
<path fill="none" stroke="black" d="M323.69,-231.7C328.89,-223.39 336.06,-213.28 343.18,-204.14"/>
<polygon fill="black" stroke="black" points="346.1,-206.09 349.64,-196.1 340.65,-201.7 346.1,-206.09"/>
<g id="a_edge3&#45;headlabel"><a xlink:href="dir_000018_000001.html" target="_top" xlink:title="1">
<text text-anchor="middle" x="346.06" y="-208.17" font-family="Helvetica,sans-Serif" font-size="10.00">1</text>
</a>
</g>
</g>
<!-- dir_f278fbcf62338d746f20818c09b59427 -->
<g id="node6" class="node">
<title>dir_f278fbcf62338d746f20818c09b59427</title>
<g id="a_node6"><a xlink:href="dir_f278fbcf62338d746f20818c09b59427.html" target="_top" xlink:title="event">
<polygon fill="none" stroke="black" points="294,-124 240,-124 240,-88 294,-88 294,-124"/>
<text text-anchor="middle" x="267" y="-103.5" font-family="Helvetica,sans-Serif" font-size="10.00">event</text>
</a>
</g>
</g>
<!-- dir_d365e15d984c8d0205117ee0c40d6716&#45;&gt;dir_f278fbcf62338d746f20818c09b59427 -->
<g id="edge4" class="edge">
<title>dir_d365e15d984c8d0205117ee0c40d6716&#45;&gt;dir_f278fbcf62338d746f20818c09b59427</title>
<path fill="none" stroke="black" d="M311.98,-231.67C306.2,-212.14 296.19,-179.52 286,-152 283.81,-146.09 281.29,-139.82 278.82,-133.89"/>
<polygon fill="black" stroke="black" points="281.91,-132.21 274.77,-124.38 275.47,-134.95 281.91,-132.21"/>
<g id="a_edge4&#45;headlabel"><a xlink:href="dir_000018_000003.html" target="_top" xlink:title="5">
<text text-anchor="middle" x="285.93" y="-131.9" font-family="Helvetica,sans-Serif" font-size="10.00">5</text>
</a>
</g>
</g>
<!-- dir_2241064965c8d9ca993f08b926076f7d -->
<g id="node8" class="node">
<title>dir_2241064965c8d9ca993f08b926076f7d</title>
<g id="a_node8"><a xlink:href="dir_2241064965c8d9ca993f08b926076f7d.html" target="_top" xlink:title="log">
<polygon fill="none" stroke="black" points="361,-52 307,-52 307,-16 361,-16 361,-52"/>
<text text-anchor="middle" x="334" y="-31.5" font-family="Helvetica,sans-Serif" font-size="10.00">log</text>
</a>
</g>
</g>
<!-- dir_d365e15d984c8d0205117ee0c40d6716&#45;&gt;dir_2241064965c8d9ca993f08b926076f7d -->
<g id="edge2" class="edge">
<title>dir_d365e15d984c8d0205117ee0c40d6716&#45;&gt;dir_2241064965c8d9ca993f08b926076f7d</title>
<path fill="none" stroke="black" d="M317.9,-231.82C318.95,-212.42 320.82,-179.92 323,-152 325.41,-121.13 328.82,-85.75 331.21,-62.05"/>
<polygon fill="black" stroke="black" points="334.7,-62.34 332.23,-52.04 327.73,-61.63 334.7,-62.34"/>
<g id="a_edge2&#45;headlabel"><a xlink:href="dir_000018_000019.html" target="_top" xlink:title="1">
<text text-anchor="middle" x="337.16" y="-63.7" font-family="Helvetica,sans-Serif" font-size="10.00">1</text>
</a>
</g>
</g>
<!-- dir_844f6ab5c2ae79211596f3dcdd81adb7&#45;&gt;dir_d365e15d984c8d0205117ee0c40d6716 -->
<g id="edge27" class="edge">
<title>dir_844f6ab5c2ae79211596f3dcdd81adb7&#45;&gt;dir_d365e15d984c8d0205117ee0c40d6716</title>
<path fill="none" stroke="black" d="M361.43,-196.1C356.27,-204.38 349.11,-214.49 341.99,-223.64"/>
<polygon fill="black" stroke="black" points="339.06,-221.71 335.52,-231.7 344.51,-226.09 339.06,-221.71"/>
<g id="a_edge27&#45;headlabel"><a xlink:href="dir_000001_000018.html" target="_top" xlink:title="1">
<text text-anchor="middle" x="339.09" y="-214.63" font-family="Helvetica,sans-Serif" font-size="10.00">1</text>
</a>
</g>
</g>
<!-- dir_560415a5d2bc4999842279f4fc1debef -->
<g id="node3" class="node">
<title>dir_560415a5d2bc4999842279f4fc1debef</title>
<g id="a_node3"><a xlink:href="dir_560415a5d2bc4999842279f4fc1debef.html" target="_top" xlink:title="graphics">
<polygon fill="white" stroke="red" points="483,-124 425,-124 425,-88 483,-88 483,-124"/>
<text text-anchor="middle" x="454" y="-103.5" font-family="Helvetica,sans-Serif" font-size="10.00">graphics</text>
</a>
</g>
</g>
<!-- dir_844f6ab5c2ae79211596f3dcdd81adb7&#45;&gt;dir_560415a5d2bc4999842279f4fc1debef -->
<g id="edge26" class="edge">
<title>dir_844f6ab5c2ae79211596f3dcdd81adb7&#45;&gt;dir_560415a5d2bc4999842279f4fc1debef</title>
<path fill="none" stroke="black" d="M389.26,-159.7C400.09,-150.88 413.42,-140.03 425.16,-130.47"/>
<polygon fill="black" stroke="black" points="427.44,-133.13 432.99,-124.1 423.02,-127.7 427.44,-133.13"/>
<g id="a_edge26&#45;headlabel"><a xlink:href="dir_000001_000009.html" target="_top" xlink:title="2">
<text text-anchor="middle" x="426.44" y="-135.1" font-family="Helvetica,sans-Serif" font-size="10.00">2</text>
</a>
</g>
</g>
<!-- dir_35781f0e74aa8deac19fa31b37174dc2 -->
<g id="node5" class="node">
<title>dir_35781f0e74aa8deac19fa31b37174dc2</title>
<g id="a_node5"><a xlink:href="dir_35781f0e74aa8deac19fa31b37174dc2.html" target="_top" xlink:title="scene">
<polygon fill="none" stroke="black" points="407,-124 353,-124 353,-88 407,-88 407,-124"/>
<text text-anchor="middle" x="380" y="-103.5" font-family="Helvetica,sans-Serif" font-size="10.00">scene</text>
</a>
</g>
</g>
<!-- dir_844f6ab5c2ae79211596f3dcdd81adb7&#45;&gt;dir_35781f0e74aa8deac19fa31b37174dc2 -->
<g id="edge25" class="edge">
<title>dir_844f6ab5c2ae79211596f3dcdd81adb7&#45;&gt;dir_35781f0e74aa8deac19fa31b37174dc2</title>
<path fill="none" stroke="black" d="M365.05,-159.7C365.58,-151.9 366.97,-142.51 368.82,-133.83"/>
<polygon fill="black" stroke="black" points="372.22,-134.65 371.17,-124.1 365.42,-133 372.22,-134.65"/>
<g id="a_edge25&#45;headlabel"><a xlink:href="dir_000001_000020.html" target="_top" xlink:title="1">
<text text-anchor="middle" x="374.13" y="-136.31" font-family="Helvetica,sans-Serif" font-size="10.00">1</text>
</a>
</g>
</g>
<!-- dir_844f6ab5c2ae79211596f3dcdd81adb7&#45;&gt;dir_f278fbcf62338d746f20818c09b59427 -->
<g id="edge28" class="edge">
<title>dir_844f6ab5c2ae79211596f3dcdd81adb7&#45;&gt;dir_f278fbcf62338d746f20818c09b59427</title>
<path fill="none" stroke="black" d="M343.29,-159.88C330.33,-150.89 314.27,-139.76 300.23,-130.03"/>
<polygon fill="black" stroke="black" points="302.02,-127.01 291.8,-124.19 298.03,-132.76 302.02,-127.01"/>
<g id="a_edge28&#45;headlabel"><a xlink:href="dir_000001_000003.html" target="_top" xlink:title="1">
<text text-anchor="middle" x="306.59" y="-124.22" font-family="Helvetica,sans-Serif" font-size="10.00">1</text>
</a>
</g>
</g>
<!-- dir_844f6ab5c2ae79211596f3dcdd81adb7&#45;&gt;dir_2241064965c8d9ca993f08b926076f7d -->
<g id="edge24" class="edge">
<title>dir_844f6ab5c2ae79211596f3dcdd81adb7&#45;&gt;dir_2241064965c8d9ca993f08b926076f7d</title>
<path fill="none" stroke="black" d="M358.57,-159.85C353.43,-149.72 347.43,-136.47 344,-124 338.4,-103.67 335.93,-79.9 334.84,-62.04"/>
<polygon fill="black" stroke="black" points="338.34,-61.84 334.34,-52.03 331.35,-62.19 338.34,-61.84"/>
<g id="a_edge24&#45;headlabel"><a xlink:href="dir_000001_000019.html" target="_top" xlink:title="2">
<text text-anchor="middle" x="341.35" y="-62.79" font-family="Helvetica,sans-Serif" font-size="10.00">2</text>
</a>
</g>
</g>
<!-- dir_9b051f5a462ebc902d5afef8d9317d03 -->
<g id="node4" class="node">
<title>dir_9b051f5a462ebc902d5afef8d9317d03</title>
<g id="a_node4"><a xlink:href="dir_9b051f5a462ebc902d5afef8d9317d03.html" target="_top" xlink:title="component">
<polygon fill="none" stroke="black" points="489.5,-52 418.5,-52 418.5,-16 489.5,-16 489.5,-52"/>
<text text-anchor="middle" x="454" y="-31.5" font-family="Helvetica,sans-Serif" font-size="10.00">component</text>
</a>
</g>
</g>
<!-- dir_560415a5d2bc4999842279f4fc1debef&#45;&gt;dir_9b051f5a462ebc902d5afef8d9317d03 -->
<g id="edge23" class="edge">
<title>dir_560415a5d2bc4999842279f4fc1debef&#45;&gt;dir_9b051f5a462ebc902d5afef8d9317d03</title>
<path fill="none" stroke="black" d="M448.08,-87.7C447.29,-79.98 447.06,-70.71 447.4,-62.11"/>
<polygon fill="black" stroke="black" points="450.9,-62.32 448.1,-52.1 443.92,-61.84 450.9,-62.32"/>
<g id="a_edge23&#45;headlabel"><a xlink:href="dir_000009_000002.html" target="_top" xlink:title="5">
<text text-anchor="middle" x="453.48" y="-63.61" font-family="Helvetica,sans-Serif" font-size="10.00">5</text>
</a>
</g>
</g>
<!-- dir_560415a5d2bc4999842279f4fc1debef&#45;&gt;dir_2241064965c8d9ca993f08b926076f7d -->
<g id="edge22" class="edge">
<title>dir_560415a5d2bc4999842279f4fc1debef&#45;&gt;dir_2241064965c8d9ca993f08b926076f7d</title>
<path fill="none" stroke="black" d="M424.95,-88.05C408.41,-78.41 387.55,-66.24 369.98,-55.99"/>
<polygon fill="black" stroke="black" points="371.54,-52.84 361.14,-50.83 368.01,-58.89 371.54,-52.84"/>
<g id="a_edge22&#45;headlabel"><a xlink:href="dir_000009_000019.html" target="_top" xlink:title="4">
<text text-anchor="middle" x="376.07" y="-49.7" font-family="Helvetica,sans-Serif" font-size="10.00">4</text>
</a>
</g>
</g>
<!-- dir_9b051f5a462ebc902d5afef8d9317d03&#45;&gt;dir_560415a5d2bc4999842279f4fc1debef -->
<g id="edge1" class="edge">
<title>dir_9b051f5a462ebc902d5afef8d9317d03&#45;&gt;dir_560415a5d2bc4999842279f4fc1debef</title>
<path fill="none" stroke="black" d="M459.9,-52.1C460.7,-59.79 460.94,-69.05 460.6,-77.67"/>
<polygon fill="black" stroke="black" points="457.11,-77.48 459.92,-87.7 464.09,-77.96 457.11,-77.48"/>
<g id="a_edge1&#45;headlabel"><a xlink:href="dir_000002_000009.html" target="_top" xlink:title="5">
<text text-anchor="middle" x="454.52" y="-71.2" font-family="Helvetica,sans-Serif" font-size="10.00">5</text>
</a>
</g>
</g>
<!-- dir_35781f0e74aa8deac19fa31b37174dc2&#45;&gt;dir_844f6ab5c2ae79211596f3dcdd81adb7 -->
<g id="edge32" class="edge">
<title>dir_35781f0e74aa8deac19fa31b37174dc2&#45;&gt;dir_844f6ab5c2ae79211596f3dcdd81adb7</title>
<path fill="none" stroke="black" d="M382.96,-124.1C382.44,-131.88 381.07,-141.26 379.23,-149.95"/>
<polygon fill="black" stroke="black" points="375.82,-149.16 376.88,-159.7 382.63,-150.79 375.82,-149.16"/>
<g id="a_edge32&#45;headlabel"><a xlink:href="dir_000020_000001.html" target="_top" xlink:title="1">
<text text-anchor="middle" x="373.9" y="-142.5" font-family="Helvetica,sans-Serif" font-size="10.00">1</text>
</a>
</g>
</g>
<!-- dir_35781f0e74aa8deac19fa31b37174dc2&#45;&gt;dir_9b051f5a462ebc902d5afef8d9317d03 -->
<g id="edge33" class="edge">
<title>dir_35781f0e74aa8deac19fa31b37174dc2&#45;&gt;dir_9b051f5a462ebc902d5afef8d9317d03</title>
<path fill="none" stroke="black" d="M398.29,-87.7C407.43,-79.05 418.64,-68.45 428.6,-59.03"/>
<polygon fill="black" stroke="black" points="431.06,-61.52 435.92,-52.1 426.25,-56.43 431.06,-61.52"/>
<g id="a_edge33&#45;headlabel"><a xlink:href="dir_000020_000002.html" target="_top" xlink:title="5">
<text text-anchor="middle" x="430.4" y="-63.55" font-family="Helvetica,sans-Serif" font-size="10.00">5</text>
</a>
</g>
</g>
<!-- dir_35781f0e74aa8deac19fa31b37174dc2&#45;&gt;dir_2241064965c8d9ca993f08b926076f7d -->
<g id="edge30" class="edge">
<title>dir_35781f0e74aa8deac19fa31b37174dc2&#45;&gt;dir_2241064965c8d9ca993f08b926076f7d</title>
<path fill="none" stroke="black" d="M368.63,-87.7C363.28,-79.56 356.8,-69.69 350.89,-60.7"/>
<polygon fill="black" stroke="black" points="353.66,-58.54 345.24,-52.1 347.81,-62.38 353.66,-58.54"/>
<g id="a_edge30&#45;headlabel"><a xlink:href="dir_000020_000019.html" target="_top" xlink:title="1">
<text text-anchor="middle" x="358" y="-57.48" font-family="Helvetica,sans-Serif" font-size="10.00">1</text>
</a>
</g>
</g>
<!-- dir_1699be727a800b1d059c6f7f2b91d2ee -->
<g id="node9" class="node">
<title>dir_1699be727a800b1d059c6f7f2b91d2ee</title>
<text text-anchor="middle" x="247" y="-319.5" font-family="Helvetica,sans-Serif" font-size="10.00">game</text>
</g>
<!-- dir_35781f0e74aa8deac19fa31b37174dc2&#45;&gt;dir_1699be727a800b1d059c6f7f2b91d2ee -->
<g id="edge29" class="edge">
<title>dir_35781f0e74aa8deac19fa31b37174dc2&#45;&gt;dir_1699be727a800b1d059c6f7f2b91d2ee</title>
<path fill="none" stroke="black" d="M405.42,-124.01C414.3,-131.45 423.23,-140.99 428,-152 448.49,-199.31 458.91,-226.74 428,-268 410.76,-291.01 332,-307.39 284.23,-315.41"/>
<polygon fill="black" stroke="black" points="283.56,-311.97 274.26,-317.04 284.69,-318.88 283.56,-311.97"/>
<g id="a_edge29&#45;headlabel"><a xlink:href="dir_000020_000004.html" target="_top" xlink:title="1">
<text text-anchor="middle" x="286.65" y="-306.09" font-family="Helvetica,sans-Serif" font-size="10.00">1</text>
</a>
</g>
</g>
<!-- dir_5e41e096db7e811af24d49ae6b11260b -->
<g id="node11" class="node">
<title>dir_5e41e096db7e811af24d49ae6b11260b</title>
<g id="a_node11"><a xlink:href="dir_5e41e096db7e811af24d49ae6b11260b.html" target="_top" xlink:title="scene">
<polygon fill="white" stroke="black" points="202,-340 148,-340 148,-304 202,-304 202,-340"/>
<text text-anchor="middle" x="175" y="-319.5" font-family="Helvetica,sans-Serif" font-size="10.00">scene</text>
</a>
</g>
</g>
<!-- dir_35781f0e74aa8deac19fa31b37174dc2&#45;&gt;dir_5e41e096db7e811af24d49ae6b11260b -->
<g id="edge31" class="edge">
<title>dir_35781f0e74aa8deac19fa31b37174dc2&#45;&gt;dir_5e41e096db7e811af24d49ae6b11260b</title>
<path fill="none" stroke="black" d="M396.72,-124.33C403.13,-132.14 409.68,-141.87 413,-152 430.31,-204.87 411.58,-236.12 366,-268 310.65,-306.71 280.57,-283.13 212.18,-304.12"/>
<polygon fill="black" stroke="black" points="210.67,-300.93 202.27,-307.39 212.86,-307.58 210.67,-300.93"/>
<g id="a_edge31&#45;headlabel"><a xlink:href="dir_000020_000006.html" target="_top" xlink:title="1">
<text text-anchor="middle" x="213.19" y="-294.61" font-family="Helvetica,sans-Serif" font-size="10.00">1</text>
</a>
</g>
</g>
<!-- dir_d501334aeb1b78ad67cd3c72c37b1e87 -->
<g id="node7" class="node">
<title>dir_d501334aeb1b78ad67cd3c72c37b1e87</title>
<g id="a_node7"><a xlink:href="dir_d501334aeb1b78ad67cd3c72c37b1e87.html" target="_top" xlink:title="system">
<polygon fill="none" stroke="black" points="130,-196 76,-196 76,-160 130,-160 130,-196"/>
<text text-anchor="middle" x="103" y="-175.5" font-family="Helvetica,sans-Serif" font-size="10.00">system</text>
</a>
</g>
</g>
<!-- dir_4ecc7ac2b9161d9736e08b42aeb2594a -->
<g id="node10" class="node">
<title>dir_4ecc7ac2b9161d9736e08b42aeb2594a</title>
<g id="a_node10"><a xlink:href="dir_4ecc7ac2b9161d9736e08b42aeb2594a.html" target="_top" xlink:title="input">
<polygon fill="white" stroke="black" points="274,-196 220,-196 220,-160 274,-160 274,-196"/>
<text text-anchor="middle" x="247" y="-175.5" font-family="Helvetica,sans-Serif" font-size="10.00">input</text>
</a>
</g>
</g>
<!-- dir_4ecc7ac2b9161d9736e08b42aeb2594a&#45;&gt;dir_d365e15d984c8d0205117ee0c40d6716 -->
<g id="edge5" class="edge">
<title>dir_4ecc7ac2b9161d9736e08b42aeb2594a&#45;&gt;dir_d365e15d984c8d0205117ee0c40d6716</title>
<path fill="none" stroke="black" d="M264.1,-196.1C272.64,-204.64 283.11,-215.11 292.48,-224.48"/>
<polygon fill="black" stroke="black" points="290.15,-227.1 299.7,-231.7 295.1,-222.15 290.15,-227.1"/>
<g id="a_edge5&#45;headlabel"><a xlink:href="dir_000005_000018.html" target="_top" xlink:title="1">
<text text-anchor="middle" x="285.6" y="-224.07" font-family="Helvetica,sans-Serif" font-size="10.00">1</text>
</a>
</g>
</g>
<!-- dir_5e41e096db7e811af24d49ae6b11260b&#45;&gt;dir_d365e15d984c8d0205117ee0c40d6716 -->
<g id="edge20" class="edge">
<title>dir_5e41e096db7e811af24d49ae6b11260b&#45;&gt;dir_d365e15d984c8d0205117ee0c40d6716</title>
<path fill="none" stroke="black" d="M202.23,-308.1C227.13,-296.28 262.45,-279.49 280.82,-270.49"/>
<polygon fill="black" stroke="black" points="282.61,-273.52 290,-265.92 279.48,-267.25 282.61,-273.52"/>
<g id="a_edge20&#45;headlabel"><a xlink:href="dir_000006_000018.html" target="_top" xlink:title="1">
<text text-anchor="middle" x="280.65" y="-275.16" font-family="Helvetica,sans-Serif" font-size="10.00">1</text>
</a>
</g>
</g>
<!-- dir_5e41e096db7e811af24d49ae6b11260b&#45;&gt;dir_844f6ab5c2ae79211596f3dcdd81adb7 -->
<g id="edge18" class="edge">
<title>dir_5e41e096db7e811af24d49ae6b11260b&#45;&gt;dir_844f6ab5c2ae79211596f3dcdd81adb7</title>
<path fill="none" stroke="black" d="M202.29,-307.45C205.2,-306.2 208.14,-305.03 211,-304 272.28,-282 308.87,-315.87 353,-268 368.14,-251.57 371.07,-225.83 370.69,-206.25"/>
<polygon fill="black" stroke="black" points="374.18,-205.92 370.2,-196.1 367.19,-206.26 374.18,-205.92"/>
<g id="a_edge18&#45;headlabel"><a xlink:href="dir_000006_000001.html" target="_top" xlink:title="1">
<text text-anchor="middle" x="377.19" y="-206.87" font-family="Helvetica,sans-Serif" font-size="10.00">1</text>
</a>
</g>
</g>
<!-- dir_5e41e096db7e811af24d49ae6b11260b&#45;&gt;dir_560415a5d2bc4999842279f4fc1debef -->
<g id="edge17" class="edge">
<title>dir_5e41e096db7e811af24d49ae6b11260b&#45;&gt;dir_560415a5d2bc4999842279f4fc1debef</title>
<path fill="none" stroke="black" d="M202.19,-307.17C205.12,-305.98 208.09,-304.89 211,-304 260.66,-288.75 406.77,-306.18 442,-268 475.25,-231.97 468.67,-170.02 461.16,-134.39"/>
<polygon fill="black" stroke="black" points="464.48,-133.2 458.84,-124.23 457.65,-134.76 464.48,-133.2"/>
<g id="a_edge17&#45;headlabel"><a xlink:href="dir_000006_000009.html" target="_top" xlink:title="14">
<text text-anchor="middle" x="468.05" y="-133.57" font-family="Helvetica,sans-Serif" font-size="10.00">14</text>
</a>
</g>
</g>
<!-- dir_5e41e096db7e811af24d49ae6b11260b&#45;&gt;dir_9b051f5a462ebc902d5afef8d9317d03 -->
<g id="edge19" class="edge">
<title>dir_5e41e096db7e811af24d49ae6b11260b&#45;&gt;dir_9b051f5a462ebc902d5afef8d9317d03</title>
<path fill="none" stroke="black" d="M202.19,-307.14C205.11,-305.96 208.09,-304.88 211,-304 316.35,-272.16 374.42,-341.87 456,-268 516.47,-213.24 516.97,-165.67 492,-88 488.81,-78.08 483,-68.44 476.87,-60.17"/>
<polygon fill="black" stroke="black" points="479.42,-57.74 470.46,-52.08 473.93,-62.09 479.42,-57.74"/>
<g id="a_edge19&#45;headlabel"><a xlink:href="dir_000006_000002.html" target="_top" xlink:title="5">
<text text-anchor="middle" x="483.88" y="-56.3" font-family="Helvetica,sans-Serif" font-size="10.00">5</text>
</a>
</g>
</g>
<!-- dir_5e41e096db7e811af24d49ae6b11260b&#45;&gt;dir_35781f0e74aa8deac19fa31b37174dc2 -->
<g id="edge15" class="edge">
<title>dir_5e41e096db7e811af24d49ae6b11260b&#45;&gt;dir_35781f0e74aa8deac19fa31b37174dc2</title>
<path fill="none" stroke="black" d="M202.2,-307.2C205.13,-306 208.1,-304.91 211,-304 257.66,-289.42 396.39,-305.29 428,-268 461.34,-228.67 448.49,-199.31 428,-152 424.57,-144.09 419,-136.93 412.83,-130.77"/>
<polygon fill="black" stroke="black" points="415.17,-128.17 405.42,-124.01 410.45,-133.34 415.17,-128.17"/>
<g id="a_edge15&#45;headlabel"><a xlink:href="dir_000006_000020.html" target="_top" xlink:title="1">
<text text-anchor="middle" x="419.74" y="-125.99" font-family="Helvetica,sans-Serif" font-size="10.00">1</text>
</a>
</g>
</g>
<!-- dir_5e41e096db7e811af24d49ae6b11260b&#45;&gt;dir_4ecc7ac2b9161d9736e08b42aeb2594a -->
<g id="edge16" class="edge">
<title>dir_5e41e096db7e811af24d49ae6b11260b&#45;&gt;dir_4ecc7ac2b9161d9736e08b42aeb2594a</title>
<path fill="none" stroke="black" d="M191.91,-303.55C200.67,-293.74 210.98,-280.91 218,-268 228.65,-248.43 236.21,-224.3 240.93,-206.1"/>
<polygon fill="black" stroke="black" points="244.39,-206.7 243.39,-196.15 237.6,-205.02 244.39,-206.7"/>
<g id="a_edge16&#45;headlabel"><a xlink:href="dir_000006_000005.html" target="_top" xlink:title="1">
<text text-anchor="middle" x="246.29" y="-208.37" font-family="Helvetica,sans-Serif" font-size="10.00">1</text>
</a>
</g>
</g>
<!-- dir_1d56c4648b887634557841a50e4691f5 -->
<g id="node12" class="node">
<title>dir_1d56c4648b887634557841a50e4691f5</title>
<g id="a_node12"><a xlink:href="dir_1d56c4648b887634557841a50e4691f5.html" target="_top" xlink:title="system">
<polygon fill="white" stroke="black" points="202,-268 148,-268 148,-232 202,-232 202,-268"/>
<text text-anchor="middle" x="175" y="-247.5" font-family="Helvetica,sans-Serif" font-size="10.00">system</text>
</a>
</g>
</g>
<!-- dir_5e41e096db7e811af24d49ae6b11260b&#45;&gt;dir_1d56c4648b887634557841a50e4691f5 -->
<g id="edge14" class="edge">
<title>dir_5e41e096db7e811af24d49ae6b11260b&#45;&gt;dir_1d56c4648b887634557841a50e4691f5</title>
<path fill="none" stroke="black" d="M175,-303.7C175,-295.98 175,-286.71 175,-278.11"/>
<polygon fill="black" stroke="black" points="178.5,-278.1 175,-268.1 171.5,-278.1 178.5,-278.1"/>
<g id="a_edge14&#45;headlabel"><a xlink:href="dir_000006_000007.html" target="_top" xlink:title="3">
<text text-anchor="middle" x="181.34" y="-279.2" font-family="Helvetica,sans-Serif" font-size="10.00">3</text>
</a>
</g>
</g>
<!-- dir_f8b6674c777273c859b7a6c9383ab39f -->
<g id="node13" class="node">
<title>dir_f8b6674c777273c859b7a6c9383ab39f</title>
<g id="a_node13"><a xlink:href="dir_f8b6674c777273c859b7a6c9383ab39f.html" target="_top" xlink:title="tag">
<polygon fill="white" stroke="black" points="202,-196 148,-196 148,-160 202,-160 202,-196"/>
<text text-anchor="middle" x="175" y="-175.5" font-family="Helvetica,sans-Serif" font-size="10.00">tag</text>
</a>
</g>
</g>
<!-- dir_5e41e096db7e811af24d49ae6b11260b&#45;&gt;dir_f8b6674c777273c859b7a6c9383ab39f -->
<g id="edge21" class="edge">
<title>dir_5e41e096db7e811af24d49ae6b11260b&#45;&gt;dir_f8b6674c777273c859b7a6c9383ab39f</title>
<path fill="none" stroke="black" d="M190.61,-303.77C198.37,-294.03 206.95,-281.18 211,-268 215.7,-252.71 215.7,-247.29 211,-232 207.99,-222.22 202.49,-212.62 196.68,-204.33"/>
<polygon fill="black" stroke="black" points="199.41,-202.13 190.61,-196.23 193.81,-206.33 199.41,-202.13"/>
<g id="a_edge21&#45;headlabel"><a xlink:href="dir_000006_000008.html" target="_top" xlink:title="1">
<text text-anchor="middle" x="203.83" y="-200.8" font-family="Helvetica,sans-Serif" font-size="10.00">1</text>
</a>
</g>
</g>
<!-- dir_1d56c4648b887634557841a50e4691f5&#45;&gt;dir_d365e15d984c8d0205117ee0c40d6716 -->
<g id="edge10" class="edge">
<title>dir_1d56c4648b887634557841a50e4691f5&#45;&gt;dir_d365e15d984c8d0205117ee0c40d6716</title>
<path fill="none" stroke="black" d="M202.18,-250C227.92,-250 253.65,-250 279.39,-250"/>
<polygon fill="black" stroke="black" points="279.64,-253.5 289.64,-250 279.64,-246.5 279.64,-253.5"/>
<g id="a_edge10&#45;headlabel"><a xlink:href="dir_000007_000018.html" target="_top" xlink:title="4">
<text text-anchor="middle" x="276.05" y="-253.84" font-family="Helvetica,sans-Serif" font-size="10.00">4</text>
</a>
</g>
</g>
<!-- dir_1d56c4648b887634557841a50e4691f5&#45;&gt;dir_844f6ab5c2ae79211596f3dcdd81adb7 -->
<g id="edge8" class="edge">
<title>dir_1d56c4648b887634557841a50e4691f5&#45;&gt;dir_844f6ab5c2ae79211596f3dcdd81adb7</title>
<path fill="none" stroke="black" d="M202.25,-233.7C203.51,-233.11 204.76,-232.54 206,-232 244.26,-215.42 289.49,-201.03 322.42,-191.45"/>
<polygon fill="black" stroke="black" points="323.58,-194.76 332.22,-188.63 321.65,-188.03 323.58,-194.76"/>
<g id="a_edge8&#45;headlabel"><a xlink:href="dir_000007_000001.html" target="_top" xlink:title="2">
<text text-anchor="middle" x="320.91" y="-195.98" font-family="Helvetica,sans-Serif" font-size="10.00">2</text>
</a>
</g>
</g>
<!-- dir_1d56c4648b887634557841a50e4691f5&#45;&gt;dir_9b051f5a462ebc902d5afef8d9317d03 -->
<g id="edge9" class="edge">
<title>dir_1d56c4648b887634557841a50e4691f5&#45;&gt;dir_9b051f5a462ebc902d5afef8d9317d03</title>
<path fill="none" stroke="black" d="M147.81,-245.56C119.17,-240.32 75.45,-227.39 55,-196 44.32,-179.62 43.78,-168.02 55,-152 75.75,-122.38 308.45,-67.45 408.6,-44.98"/>
<polygon fill="black" stroke="black" points="409.44,-48.38 418.44,-42.78 407.92,-41.55 409.44,-48.38"/>
<g id="a_edge9&#45;headlabel"><a xlink:href="dir_000007_000002.html" target="_top" xlink:title="2">
<text text-anchor="middle" x="406.55" y="-49.43" font-family="Helvetica,sans-Serif" font-size="10.00">2</text>
</a>
</g>
</g>
<!-- dir_1d56c4648b887634557841a50e4691f5&#45;&gt;dir_f278fbcf62338d746f20818c09b59427 -->
<g id="edge12" class="edge">
<title>dir_1d56c4648b887634557841a50e4691f5&#45;&gt;dir_f278fbcf62338d746f20818c09b59427</title>
<path fill="none" stroke="black" d="M147.8,-244.08C121.97,-237.8 84.56,-224.18 67,-196 56.66,-179.4 54.78,-167.27 67,-152 86.97,-127.04 177.38,-114.95 229.55,-109.96"/>
<polygon fill="black" stroke="black" points="230.11,-113.42 239.75,-109.03 229.47,-106.45 230.11,-113.42"/>
<g id="a_edge12&#45;headlabel"><a xlink:href="dir_000007_000003.html" target="_top" xlink:title="3">
<text text-anchor="middle" x="226.79" y="-114.08" font-family="Helvetica,sans-Serif" font-size="10.00">3</text>
</a>
</g>
</g>
<!-- dir_1d56c4648b887634557841a50e4691f5&#45;&gt;dir_d501334aeb1b78ad67cd3c72c37b1e87 -->
<g id="edge11" class="edge">
<title>dir_1d56c4648b887634557841a50e4691f5&#45;&gt;dir_d501334aeb1b78ad67cd3c72c37b1e87</title>
<path fill="none" stroke="black" d="M157.2,-231.7C148.4,-223.14 137.62,-212.66 128,-203.3"/>
<polygon fill="black" stroke="black" points="130.2,-200.57 120.59,-196.1 125.32,-205.58 130.2,-200.57"/>
<g id="a_edge11&#45;headlabel"><a xlink:href="dir_000007_000021.html" target="_top" xlink:title="2">
<text text-anchor="middle" x="134.76" y="-198.54" font-family="Helvetica,sans-Serif" font-size="10.00">2</text>
</a>
</g>
</g>
<!-- dir_1d56c4648b887634557841a50e4691f5&#45;&gt;dir_2241064965c8d9ca993f08b926076f7d -->
<g id="edge6" class="edge">
<title>dir_1d56c4648b887634557841a50e4691f5&#45;&gt;dir_2241064965c8d9ca993f08b926076f7d</title>
<path fill="none" stroke="black" d="M147.9,-247.76C114.27,-244.58 58.16,-233.6 32,-196 4.58,-156.6 1.13,-124.76 32,-88 65.44,-48.18 223.76,-38.27 296.86,-35.81"/>
<polygon fill="black" stroke="black" points="297.11,-39.3 307,-35.5 296.89,-32.31 297.11,-39.3"/>
<g id="a_edge6&#45;headlabel"><a xlink:href="dir_000007_000019.html" target="_top" xlink:title="2">
<text text-anchor="middle" x="293.6" y="-39.75" font-family="Helvetica,sans-Serif" font-size="10.00">2</text>
</a>
</g>
</g>
<!-- dir_1d56c4648b887634557841a50e4691f5&#45;&gt;dir_4ecc7ac2b9161d9736e08b42aeb2594a -->
<g id="edge7" class="edge">
<title>dir_1d56c4648b887634557841a50e4691f5&#45;&gt;dir_4ecc7ac2b9161d9736e08b42aeb2594a</title>
<path fill="none" stroke="black" d="M192.8,-231.7C201.6,-223.14 212.38,-212.66 222,-203.3"/>
<polygon fill="black" stroke="black" points="224.68,-205.58 229.41,-196.1 219.8,-200.57 224.68,-205.58"/>
<g id="a_edge7&#45;headlabel"><a xlink:href="dir_000007_000005.html" target="_top" xlink:title="2">
<text text-anchor="middle" x="224.08" y="-207.63" font-family="Helvetica,sans-Serif" font-size="10.00">2</text>
</a>
</g>
</g>
<!-- dir_1d56c4648b887634557841a50e4691f5&#45;&gt;dir_f8b6674c777273c859b7a6c9383ab39f -->
<g id="edge13" class="edge">
<title>dir_1d56c4648b887634557841a50e4691f5&#45;&gt;dir_f8b6674c777273c859b7a6c9383ab39f</title>
<path fill="none" stroke="black" d="M175,-231.7C175,-223.98 175,-214.71 175,-206.11"/>
<polygon fill="black" stroke="black" points="178.5,-206.1 175,-196.1 171.5,-206.1 178.5,-206.1"/>
<g id="a_edge13&#45;headlabel"><a xlink:href="dir_000007_000008.html" target="_top" xlink:title="2">
<text text-anchor="middle" x="181.34" y="-207.2" font-family="Helvetica,sans-Serif" font-size="10.00">2</text>
</a>
</g>
</g>
</g>
</svg>
        <g id="navigator" transform="translate(0 0)" fill="#404254">
                <rect fill="#f2f5e9" fill-opacity="0.5" stroke="#606060" stroke-width=".5" x="0" y="0" width="60" height="60"/>
                <use id="zoomplus" xlink:href="#zoomPlus" x="17" y="9" onmousedown="handleZoom(evt,'in')"/>
                <use id="zoomminus" xlink:href="#zoomMin" x="42" y="9" onmousedown="handleZoom(evt,'out')"/>
                <use id="reset" xlink:href="#resetDef" x="30" y="36" onmousedown="handleReset()"/>
                <g id="arrowUp" xlink:href="#dirArrow" transform="translate(30 24)" onmousedown="handlePan(0,-1)">
                  <use xlink:href="#rim" fill="#404040">
                        <set attributeName="fill" to="#808080" begin="arrowUp.mouseover" end="arrowUp.mouseout"/>
                  </use>
                  <path fill="none" stroke="white" stroke-width="1.5" d="M0,-3.0v7 M-2.5,-0.5L0,-3.0L2.5,-0.5"/>
                </g>
                <g id="arrowRight" xlink:href="#dirArrow" transform="rotate(90) translate(36 -43)" onmousedown="handlePan(1,0)">
                  <use xlink:href="#rim" fill="#404040">
                        <set attributeName="fill" to="#808080" begin="arrowRight.mouseover" end="arrowRight.mouseout"/>
                  </use>
                  <path fill="none" stroke="white" stroke-width="1.5" d="M0,-3.0v7 M-2.5,-0.5L0,-3.0L2.5,-0.5"/>
                </g>
                <g id="arrowDown" xlink:href="#dirArrow" transform="rotate(180) translate(-30 -48)" onmousedown="handlePan(0,1)">
                  <use xlink:href="#rim" fill="#404040">
                        <set attributeName="fill" to="#808080" begin="arrowDown.mouseover" end="arrowDown.mouseout"/>
                  </use>
                  <path fill="none" stroke="white" stroke-width="1.5" d="M0,-3.0v7 M-2.5,-0.5L0,-3.0L2.5,-0.5"/>
                </g>
                <g id="arrowLeft" xlink:href="#dirArrow" transform="rotate(270) translate(-36 17)" onmousedown="handlePan(-1,0)">
                  <use xlink:href="#rim" fill="#404040">
                        <set attributeName="fill" to="#808080" begin="arrowLeft.mouseover" end="arrowLeft.mouseout"/>
                  </use>
                  <path fill="none" stroke="white" stroke-width="1.5" d="M0,-3.0v7 M-2.5,-0.5L0,-3.0L2.5,-0.5"/>
                </g>
        </g>
        <svg viewBox="0 0 15 15" width="100%" height="30px" preserveAspectRatio="xMaxYMin meet">
         <g id="arrow_out" transform="scale(0.3 0.3)">
          <a xlink:href="dir_1699be727a800b1d059c6f7f2b91d2ee_dep_org.svg" target="_base">
           <rect id="button" ry="5" rx="5" y="6" x="6" height="38" width="38"
                fill="#f2f5e9" fill-opacity="0.5" stroke="#606060" stroke-width="1.0"/>
           <path id="arrow"
             d="M 11.500037,31.436501 C 11.940474,20.09759 22.043105,11.32322 32.158766,21.979434 L 37.068811,17.246167 C 37.068811,17.246167 37.088388,32 37.088388,32 L 22.160133,31.978069 C 22.160133,31.978069 26.997745,27.140456 26.997745,27.140456 C 18.528582,18.264221 13.291696,25.230495 11.500037,31.436501 z"
             style="fill:#404040;"/>
          </a>
         </g>
        </svg>
</svg>
