<?xml version="1.0" encoding="UTF-8" standalone="no"?>
<!DOCTYPE svg PUBLIC "-//W3C//DTD SVG 1.1//EN"
 "http://www.w3.org/Graphics/SVG/1.1/DTD/svg11.dtd">
<!-- Generated by graphviz version 2.43.0 (0)
 -->
<!-- Title: src/graphics Pages: 1 -->
<svg width="450pt" height="471pt"
 viewBox="0.00 0.00 450.00 471.00" xmlns="http://www.w3.org/2000/svg" xmlns:xlink="http://www.w3.org/1999/xlink">
<g id="graph0" class="graph" transform="scale(1 1) rotate(0) translate(4 467)">
<title>src/graphics</title>
<polygon fill="white" stroke="transparent" points="-4,4 -4,-467 446,-467 446,4 -4,4"/>
<g id="clust1" class="cluster">
<title>clusterdir_68267d1309a1af8e8297ef4c3efbcdba</title>
<g id="a_clust1"><a xlink:href="dir_68267d1309a1af8e8297ef4c3efbcdba.html" target="_top" xlink:title="src">
<polygon fill="#ddddee" stroke="black" points="8,-8 8,-455 434,-455 434,-8 8,-8"/>
<text text-anchor="middle" x="221" y="-443" font-family="Helvetica,sans-Serif" font-size="10.00">src</text>
</a>
</g>
</g>
<g id="clust2" class="cluster">
<title>clusterdir_560415a5d2bc4999842279f4fc1debef</title>
<g id="a_clust2"><a xlink:href="dir_560415a5d2bc4999842279f4fc1debef.html" target="_top">
<polygon fill="#eeeeff" stroke="black" points="80,-16 80,-428 346,-428 346,-16 80,-16"/>
</a>
</g>
</g>
<!-- dir_b7878ad5ecbf2506f4125b9d34c97e45 -->
<g id="node1" class="node">
<title>dir_b7878ad5ecbf2506f4125b9d34c97e45</title>
<g id="a_node1"><a xlink:href="dir_b7878ad5ecbf2506f4125b9d34c97e45.html" target="_top" xlink:title="util">
<polygon fill="none" stroke="black" points="70,-276 16,-276 16,-240 70,-240 70,-276"/>
<text text-anchor="middle" x="43" y="-255.5" font-family="Helvetica,sans-Serif" font-size="10.00">util</text>
</a>
</g>
</g>
<!-- dir_9b051f5a462ebc902d5afef8d9317d03 -->
<g id="node2" class="node">
<title>dir_9b051f5a462ebc902d5afef8d9317d03</title>
<g id="a_node2"><a xlink:href="dir_9b051f5a462ebc902d5afef8d9317d03.html" target="_top" xlink:title="component">
<polygon fill="none" stroke="black" points="425.5,-348 354.5,-348 354.5,-312 425.5,-312 425.5,-348"/>
<text text-anchor="middle" x="390" y="-327.5" font-family="Helvetica,sans-Serif" font-size="10.00">component</text>
</a>
</g>
</g>
<!-- dir_560415a5d2bc4999842279f4fc1debef -->
<g id="node3" class="node">
<title>dir_560415a5d2bc4999842279f4fc1debef</title>
<text text-anchor="middle" x="309" y="-399.5" font-family="Helvetica,sans-Serif" font-size="10.00">graphics</text>
</g>
<!-- dir_9b051f5a462ebc902d5afef8d9317d03&#45;&gt;dir_560415a5d2bc4999842279f4fc1debef -->
<g id="edge5" class="edge">
<title>dir_9b051f5a462ebc902d5afef8d9317d03&#45;&gt;dir_560415a5d2bc4999842279f4fc1debef</title>
<path fill="none" stroke="black" d="M370.21,-348.1C360.14,-356.8 347.74,-367.52 336.73,-377.03"/>
<polygon fill="black" stroke="black" points="334.3,-374.51 329.02,-383.7 338.88,-379.81 334.3,-374.51"/>
<g id="a_edge5&#45;headlabel"><a xlink:href="dir_000002_000009.html" target="_top" xlink:title="5">
<text text-anchor="middle" x="335.16" y="-367.51" font-family="Helvetica,sans-Serif" font-size="10.00">5</text>
</a>
</g>
</g>
<!-- dir_197fd57399807dedf8b39125c6572e99 -->
<g id="node7" class="node">
<title>dir_197fd57399807dedf8b39125c6572e99</title>
<g id="a_node7"><a xlink:href="dir_197fd57399807dedf8b39125c6572e99.html" target="_top" xlink:title="material">
<polygon fill="white" stroke="black" points="318,-276 260,-276 260,-240 318,-240 318,-276"/>
<text text-anchor="middle" x="289" y="-255.5" font-family="Helvetica,sans-Serif" font-size="10.00">material</text>
</a>
</g>
</g>
<!-- dir_9b051f5a462ebc902d5afef8d9317d03&#45;&gt;dir_197fd57399807dedf8b39125c6572e99 -->
<g id="edge4" class="edge">
<title>dir_9b051f5a462ebc902d5afef8d9317d03&#45;&gt;dir_197fd57399807dedf8b39125c6572e99</title>
<path fill="none" stroke="black" d="M365.29,-311.88C352.33,-302.89 336.27,-291.76 322.23,-282.03"/>
<polygon fill="black" stroke="black" points="324.02,-279.01 313.8,-276.19 320.03,-284.76 324.02,-279.01"/>
<g id="a_edge4&#45;headlabel"><a xlink:href="dir_000002_000013.html" target="_top" xlink:title="1">
<text text-anchor="middle" x="328.59" y="-276.22" font-family="Helvetica,sans-Serif" font-size="10.00">1</text>
</a>
</g>
</g>
<!-- dir_bcb01f256a1b1966d449763e10e0e243 -->
<g id="node8" class="node">
<title>dir_bcb01f256a1b1966d449763e10e0e243</title>
<g id="a_node8"><a xlink:href="dir_bcb01f256a1b1966d449763e10e0e243.html" target="_top" xlink:title="mesh">
<polygon fill="white" stroke="black" points="306,-60 252,-60 252,-24 306,-24 306,-60"/>
<text text-anchor="middle" x="279" y="-39.5" font-family="Helvetica,sans-Serif" font-size="10.00">mesh</text>
</a>
</g>
</g>
<!-- dir_9b051f5a462ebc902d5afef8d9317d03&#45;&gt;dir_bcb01f256a1b1966d449763e10e0e243 -->
<g id="edge7" class="edge">
<title>dir_9b051f5a462ebc902d5afef8d9317d03&#45;&gt;dir_bcb01f256a1b1966d449763e10e0e243</title>
<path fill="none" stroke="black" d="M390.19,-311.84C389.9,-271.31 384.7,-167.67 342,-96 335.07,-84.37 324.65,-74.1 314.27,-65.76"/>
<polygon fill="black" stroke="black" points="316.1,-62.76 306.02,-59.51 311.87,-68.34 316.1,-62.76"/>
<g id="a_edge7&#45;headlabel"><a xlink:href="dir_000002_000014.html" target="_top" xlink:title="1">
<text text-anchor="middle" x="320.68" y="-60.17" font-family="Helvetica,sans-Serif" font-size="10.00">1</text>
</a>
</g>
</g>
<!-- dir_da8b8e215de8683a35c92e7f25a1c594 -->
<g id="node10" class="node">
<title>dir_da8b8e215de8683a35c92e7f25a1c594</title>
<g id="a_node10"><a xlink:href="dir_da8b8e215de8683a35c92e7f25a1c594.html" target="_top" xlink:title="shader">
<polygon fill="white" stroke="black" points="274,-204 220,-204 220,-168 274,-168 274,-204"/>
<text text-anchor="middle" x="247" y="-183.5" font-family="Helvetica,sans-Serif" font-size="10.00">shader</text>
</a>
</g>
</g>
<!-- dir_9b051f5a462ebc902d5afef8d9317d03&#45;&gt;dir_da8b8e215de8683a35c92e7f25a1c594 -->
<g id="edge8" class="edge">
<title>dir_9b051f5a462ebc902d5afef8d9317d03&#45;&gt;dir_da8b8e215de8683a35c92e7f25a1c594</title>
<path fill="none" stroke="black" d="M380.48,-311.85C369.35,-292.8 349.56,-261.88 327,-240 319.55,-232.77 300.4,-220.03 282.7,-208.84"/>
<polygon fill="black" stroke="black" points="284.52,-205.85 274.19,-203.51 280.8,-211.78 284.52,-205.85"/>
<g id="a_edge8&#45;headlabel"><a xlink:href="dir_000002_000016.html" target="_top" xlink:title="1">
<text text-anchor="middle" x="289.07" y="-202.85" font-family="Helvetica,sans-Serif" font-size="10.00">1</text>
</a>
</g>
</g>
<!-- dir_b4c964e5db30d266dfe13cf364455343 -->
<g id="node11" class="node">
<title>dir_b4c964e5db30d266dfe13cf364455343</title>
<g id="a_node11"><a xlink:href="dir_b4c964e5db30d266dfe13cf364455343.html" target="_top" xlink:title="texture">
<polygon fill="white" stroke="black" points="274,-132 220,-132 220,-96 274,-96 274,-132"/>
<text text-anchor="middle" x="247" y="-111.5" font-family="Helvetica,sans-Serif" font-size="10.00">texture</text>
</a>
</g>
</g>
<!-- dir_9b051f5a462ebc902d5afef8d9317d03&#45;&gt;dir_b4c964e5db30d266dfe13cf364455343 -->
<g id="edge6" class="edge">
<title>dir_9b051f5a462ebc902d5afef8d9317d03&#45;&gt;dir_b4c964e5db30d266dfe13cf364455343</title>
<path fill="none" stroke="black" d="M382.9,-311.73C375.08,-293.39 361.65,-263.83 347,-240 325.91,-205.7 317.26,-199.36 292,-168 284.58,-158.79 276.25,-148.86 268.78,-140.12"/>
<polygon fill="black" stroke="black" points="271.4,-137.79 262.23,-132.48 266.08,-142.35 271.4,-137.79"/>
<g id="a_edge6&#45;headlabel"><a xlink:href="dir_000002_000017.html" target="_top" xlink:title="2">
<text text-anchor="middle" x="275.89" y="-136.17" font-family="Helvetica,sans-Serif" font-size="10.00">2</text>
</a>
</g>
</g>
<!-- dir_27243ffbf0f48067260dfa2df2b84548 -->
<g id="node4" class="node">
<title>dir_27243ffbf0f48067260dfa2df2b84548</title>
<g id="a_node4"><a xlink:href="dir_27243ffbf0f48067260dfa2df2b84548.html" target="_top" xlink:title="asset_loader">
<polygon fill="white" stroke="black" points="258.5,-348 179.5,-348 179.5,-312 258.5,-312 258.5,-348"/>
<text text-anchor="middle" x="219" y="-327.5" font-family="Helvetica,sans-Serif" font-size="10.00">asset_loader</text>
</a>
</g>
</g>
<!-- dir_27243ffbf0f48067260dfa2df2b84548&#45;&gt;dir_b7878ad5ecbf2506f4125b9d34c97e45 -->
<g id="edge21" class="edge">
<title>dir_27243ffbf0f48067260dfa2df2b84548&#45;&gt;dir_b7878ad5ecbf2506f4125b9d34c97e45</title>
<path fill="none" stroke="black" d="M179.34,-315.75C152.62,-306.5 116.47,-293.37 79.63,-277.46"/>
<polygon fill="black" stroke="black" points="80.81,-274.16 70.25,-273.36 78.01,-280.57 80.81,-274.16"/>
<g id="a_edge21&#45;headlabel"><a xlink:href="dir_000010_000021.html" target="_top" xlink:title="2">
<text text-anchor="middle" x="85.24" y="-270.5" font-family="Helvetica,sans-Serif" font-size="10.00">2</text>
</a>
</g>
</g>
<!-- dir_27243ffbf0f48067260dfa2df2b84548&#45;&gt;dir_197fd57399807dedf8b39125c6572e99 -->
<g id="edge19" class="edge">
<title>dir_27243ffbf0f48067260dfa2df2b84548&#45;&gt;dir_197fd57399807dedf8b39125c6572e99</title>
<path fill="none" stroke="black" d="M236.3,-311.7C244.86,-303.14 255.34,-292.66 264.7,-283.3"/>
<polygon fill="black" stroke="black" points="267.3,-285.65 271.9,-276.1 262.35,-280.7 267.3,-285.65"/>
<g id="a_edge19&#45;headlabel"><a xlink:href="dir_000010_000013.html" target="_top" xlink:title="1">
<text text-anchor="middle" x="266.77" y="-287.7" font-family="Helvetica,sans-Serif" font-size="10.00">1</text>
</a>
</g>
</g>
<!-- dir_27243ffbf0f48067260dfa2df2b84548&#45;&gt;dir_bcb01f256a1b1966d449763e10e0e243 -->
<g id="edge22" class="edge">
<title>dir_27243ffbf0f48067260dfa2df2b84548&#45;&gt;dir_bcb01f256a1b1966d449763e10e0e243</title>
<path fill="none" stroke="black" d="M211.11,-311.75C206.89,-301.58 202.14,-288.33 200,-276 186.27,-197.03 170.94,-165.42 211,-96 218.72,-82.62 231.26,-71.42 243.49,-62.81"/>
<polygon fill="black" stroke="black" points="245.44,-65.71 251.84,-57.27 241.57,-59.88 245.44,-65.71"/>
<g id="a_edge22&#45;headlabel"><a xlink:href="dir_000010_000014.html" target="_top" xlink:title="1">
<text text-anchor="middle" x="244.02" y="-67.57" font-family="Helvetica,sans-Serif" font-size="10.00">1</text>
</a>
</g>
</g>
<!-- dir_27243ffbf0f48067260dfa2df2b84548&#45;&gt;dir_da8b8e215de8683a35c92e7f25a1c594 -->
<g id="edge23" class="edge">
<title>dir_27243ffbf0f48067260dfa2df2b84548&#45;&gt;dir_da8b8e215de8683a35c92e7f25a1c594</title>
<path fill="none" stroke="black" d="M222.18,-311.92C225.54,-293.99 231.02,-264.99 236,-240 237.68,-231.58 239.56,-222.41 241.29,-214.11"/>
<polygon fill="black" stroke="black" points="244.74,-214.68 243.36,-204.17 237.89,-213.24 244.74,-214.68"/>
<g id="a_edge23&#45;headlabel"><a xlink:href="dir_000010_000016.html" target="_top" xlink:title="1">
<text text-anchor="middle" x="246.79" y="-216.28" font-family="Helvetica,sans-Serif" font-size="10.00">1</text>
</a>
</g>
</g>
<!-- dir_27243ffbf0f48067260dfa2df2b84548&#45;&gt;dir_b4c964e5db30d266dfe13cf364455343 -->
<g id="edge20" class="edge">
<title>dir_27243ffbf0f48067260dfa2df2b84548&#45;&gt;dir_b4c964e5db30d266dfe13cf364455343</title>
<path fill="none" stroke="black" d="M214.33,-311.6C207.1,-281.54 195.54,-218.29 211,-168 214.01,-158.22 219.51,-148.62 225.32,-140.33"/>
<polygon fill="black" stroke="black" points="228.19,-142.33 231.39,-132.23 222.59,-138.13 228.19,-142.33"/>
<g id="a_edge20&#45;headlabel"><a xlink:href="dir_000010_000017.html" target="_top" xlink:title="2">
<text text-anchor="middle" x="228.31" y="-144.41" font-family="Helvetica,sans-Serif" font-size="10.00">2</text>
</a>
</g>
</g>
<!-- dir_b168724af4cacac856f463e92d5d2abe -->
<g id="node5" class="node">
<title>dir_b168724af4cacac856f463e92d5d2abe</title>
<g id="a_node5"><a xlink:href="dir_b168724af4cacac856f463e92d5d2abe.html" target="_top" xlink:title="framebuffer">
<polygon fill="white" stroke="black" points="162,-276 88,-276 88,-240 162,-240 162,-276"/>
<text text-anchor="middle" x="125" y="-255.5" font-family="Helvetica,sans-Serif" font-size="10.00">framebuffer</text>
</a>
</g>
</g>
<!-- dir_b168724af4cacac856f463e92d5d2abe&#45;&gt;dir_b4c964e5db30d266dfe13cf364455343 -->
<g id="edge18" class="edge">
<title>dir_b168724af4cacac856f463e92d5d2abe&#45;&gt;dir_b4c964e5db30d266dfe13cf364455343</title>
<path fill="none" stroke="black" d="M137.89,-239.89C151.78,-221.68 174.76,-192.23 196,-168 204.33,-158.49 213.85,-148.41 222.39,-139.63"/>
<polygon fill="black" stroke="black" points="225.08,-141.87 229.58,-132.28 220.08,-136.98 225.08,-141.87"/>
<g id="a_edge18&#45;headlabel"><a xlink:href="dir_000011_000017.html" target="_top" xlink:title="1">
<text text-anchor="middle" x="224.59" y="-143.93" font-family="Helvetica,sans-Serif" font-size="10.00">1</text>
</a>
</g>
</g>
<!-- dir_47b12e1bae536e4f381849bb96188680 -->
<g id="node6" class="node">
<title>dir_47b12e1bae536e4f381849bb96188680</title>
<g id="a_node6"><a xlink:href="dir_47b12e1bae536e4f381849bb96188680.html" target="_top" xlink:title="lighting">
<polygon fill="white" stroke="black" points="142,-348 88,-348 88,-312 142,-312 142,-348"/>
<text text-anchor="middle" x="115" y="-327.5" font-family="Helvetica,sans-Serif" font-size="10.00">lighting</text>
</a>
</g>
</g>
<!-- dir_197fd57399807dedf8b39125c6572e99&#45;&gt;dir_da8b8e215de8683a35c92e7f25a1c594 -->
<g id="edge10" class="edge">
<title>dir_197fd57399807dedf8b39125c6572e99&#45;&gt;dir_da8b8e215de8683a35c92e7f25a1c594</title>
<path fill="none" stroke="black" d="M278.62,-239.7C273.74,-231.56 267.81,-221.69 262.42,-212.7"/>
<polygon fill="black" stroke="black" points="265.41,-210.88 257.26,-204.1 259.41,-214.48 265.41,-210.88"/>
<g id="a_edge10&#45;headlabel"><a xlink:href="dir_000013_000016.html" target="_top" xlink:title="1">
<text text-anchor="middle" x="269.69" y="-210" font-family="Helvetica,sans-Serif" font-size="10.00">1</text>
</a>
</g>
</g>
<!-- dir_197fd57399807dedf8b39125c6572e99&#45;&gt;dir_b4c964e5db30d266dfe13cf364455343 -->
<g id="edge9" class="edge">
<title>dir_197fd57399807dedf8b39125c6572e99&#45;&gt;dir_b4c964e5db30d266dfe13cf364455343</title>
<path fill="none" stroke="black" d="M290.46,-239.75C291.41,-221.42 291.23,-191.86 283,-168 279.66,-158.32 274.07,-148.75 268.28,-140.47"/>
<polygon fill="black" stroke="black" points="271.03,-138.29 262.26,-132.34 265.4,-142.46 271.03,-138.29"/>
<g id="a_edge9&#45;headlabel"><a xlink:href="dir_000013_000017.html" target="_top" xlink:title="1">
<text text-anchor="middle" x="275.45" y="-136.99" font-family="Helvetica,sans-Serif" font-size="10.00">1</text>
</a>
</g>
</g>
<!-- dir_3be91838934054dc8688592bc1b65481 -->
<g id="node9" class="node">
<title>dir_3be91838934054dc8688592bc1b65481</title>
<g id="a_node9"><a xlink:href="dir_3be91838934054dc8688592bc1b65481.html" target="_top" xlink:title="renderer">
<polygon fill="white" stroke="black" points="262,-420 204,-420 204,-384 262,-384 262,-420"/>
<text text-anchor="middle" x="233" y="-399.5" font-family="Helvetica,sans-Serif" font-size="10.00">renderer</text>
</a>
</g>
</g>
<!-- dir_3be91838934054dc8688592bc1b65481&#45;&gt;dir_9b051f5a462ebc902d5afef8d9317d03 -->
<g id="edge14" class="edge">
<title>dir_3be91838934054dc8688592bc1b65481&#45;&gt;dir_9b051f5a462ebc902d5afef8d9317d03</title>
<path fill="none" stroke="black" d="M262.04,-388C265.07,-386.65 268.1,-385.3 271,-384 295.49,-373.07 322.82,-360.9 345.1,-350.97"/>
<polygon fill="black" stroke="black" points="346.61,-354.13 354.32,-346.87 343.76,-347.74 346.61,-354.13"/>
<g id="a_edge14&#45;headlabel"><a xlink:href="dir_000015_000002.html" target="_top" xlink:title="5">
<text text-anchor="middle" x="344.48" y="-355.69" font-family="Helvetica,sans-Serif" font-size="10.00">5</text>
</a>
</g>
</g>
<!-- dir_3be91838934054dc8688592bc1b65481&#45;&gt;dir_27243ffbf0f48067260dfa2df2b84548 -->
<g id="edge12" class="edge">
<title>dir_3be91838934054dc8688592bc1b65481&#45;&gt;dir_27243ffbf0f48067260dfa2df2b84548</title>
<path fill="none" stroke="black" d="M229.54,-383.7C228,-375.98 226.14,-366.71 224.42,-358.11"/>
<polygon fill="black" stroke="black" points="227.81,-357.22 222.42,-348.1 220.95,-358.6 227.81,-357.22"/>
<g id="a_edge12&#45;headlabel"><a xlink:href="dir_000015_000010.html" target="_top" xlink:title="1">
<text text-anchor="middle" x="231.3" y="-357.69" font-family="Helvetica,sans-Serif" font-size="10.00">1</text>
</a>
</g>
</g>
<!-- dir_3be91838934054dc8688592bc1b65481&#45;&gt;dir_b168724af4cacac856f463e92d5d2abe -->
<g id="edge15" class="edge">
<title>dir_3be91838934054dc8688592bc1b65481&#45;&gt;dir_b168724af4cacac856f463e92d5d2abe</title>
<path fill="none" stroke="black" d="M208.18,-383.87C195.64,-374.35 180.83,-361.67 170,-348 167.83,-345.26 150.51,-310.61 138.01,-285.36"/>
<polygon fill="black" stroke="black" points="141.06,-283.65 133.49,-276.24 134.79,-286.75 141.06,-283.65"/>
<g id="a_edge15&#45;headlabel"><a xlink:href="dir_000015_000011.html" target="_top" xlink:title="6">
<text text-anchor="middle" x="145.2" y="-283.11" font-family="Helvetica,sans-Serif" font-size="10.00">6</text>
</a>
</g>
</g>
<!-- dir_3be91838934054dc8688592bc1b65481&#45;&gt;dir_47b12e1bae536e4f381849bb96188680 -->
<g id="edge13" class="edge">
<title>dir_3be91838934054dc8688592bc1b65481&#45;&gt;dir_47b12e1bae536e4f381849bb96188680</title>
<path fill="none" stroke="black" d="M204.13,-383.88C188.24,-374.45 168.37,-362.66 151.42,-352.61"/>
<polygon fill="black" stroke="black" points="152.74,-349.32 142.35,-347.23 149.17,-355.34 152.74,-349.32"/>
<g id="a_edge13&#45;headlabel"><a xlink:href="dir_000015_000012.html" target="_top" xlink:title="1">
<text text-anchor="middle" x="157.28" y="-346.21" font-family="Helvetica,sans-Serif" font-size="10.00">1</text>
</a>
</g>
</g>
<!-- dir_3be91838934054dc8688592bc1b65481&#45;&gt;dir_197fd57399807dedf8b39125c6572e99 -->
<g id="edge11" class="edge">
<title>dir_3be91838934054dc8688592bc1b65481&#45;&gt;dir_197fd57399807dedf8b39125c6572e99</title>
<path fill="none" stroke="black" d="M254.44,-383.92C264.64,-374.49 275.92,-361.89 282,-348 290.48,-328.62 291.9,-304.62 291.39,-286.42"/>
<polygon fill="black" stroke="black" points="294.88,-286.01 290.88,-276.2 287.88,-286.36 294.88,-286.01"/>
<g id="a_edge11&#45;headlabel"><a xlink:href="dir_000015_000013.html" target="_top" xlink:title="1">
<text text-anchor="middle" x="297.89" y="-286.96" font-family="Helvetica,sans-Serif" font-size="10.00">1</text>
</a>
</g>
</g>
<!-- dir_3be91838934054dc8688592bc1b65481&#45;&gt;dir_bcb01f256a1b1966d449763e10e0e243 -->
<g id="edge16" class="edge">
<title>dir_3be91838934054dc8688592bc1b65481&#45;&gt;dir_bcb01f256a1b1966d449763e10e0e243</title>
<path fill="none" stroke="black" d="M255.98,-383.9C267.79,-374.29 281.81,-361.53 292,-348 313.41,-319.58 319.02,-310.67 327,-276 344.19,-201.32 311.25,-112.49 291.81,-69.26"/>
<polygon fill="black" stroke="black" points="294.91,-67.63 287.55,-60.01 288.56,-70.56 294.91,-67.63"/>
<g id="a_edge16&#45;headlabel"><a xlink:href="dir_000015_000014.html" target="_top" xlink:title="1">
<text text-anchor="middle" x="299" y="-67.2" font-family="Helvetica,sans-Serif" font-size="10.00">1</text>
</a>
</g>
</g>
<!-- dir_3be91838934054dc8688592bc1b65481&#45;&gt;dir_da8b8e215de8683a35c92e7f25a1c594 -->
<g id="edge17" class="edge">
<title>dir_3be91838934054dc8688592bc1b65481&#45;&gt;dir_da8b8e215de8683a35c92e7f25a1c594</title>
<path fill="none" stroke="black" d="M247.75,-383.63C255.09,-373.85 263.19,-361.01 267,-348 271.5,-332.65 270.32,-327.65 267,-312 263.37,-294.87 255.02,-293.04 251,-276 246.24,-255.8 245.37,-232.33 245.62,-214.57"/>
<polygon fill="black" stroke="black" points="249.12,-214.41 245.9,-204.32 242.13,-214.22 249.12,-214.41"/>
<g id="a_edge17&#45;headlabel"><a xlink:href="dir_000015_000016.html" target="_top" xlink:title="5">
<text text-anchor="middle" x="251.87" y="-215.58" font-family="Helvetica,sans-Serif" font-size="10.00">5</text>
</a>
</g>
</g>
<!-- dir_da8b8e215de8683a35c92e7f25a1c594&#45;&gt;dir_b4c964e5db30d266dfe13cf364455343 -->
<g id="edge3" class="edge">
<title>dir_da8b8e215de8683a35c92e7f25a1c594&#45;&gt;dir_b4c964e5db30d266dfe13cf364455343</title>
<path fill="none" stroke="black" d="M241.08,-167.7C240.29,-159.98 240.06,-150.71 240.4,-142.11"/>
<polygon fill="black" stroke="black" points="243.9,-142.32 241.1,-132.1 236.92,-141.84 243.9,-142.32"/>
<g id="a_edge3&#45;headlabel"><a xlink:href="dir_000016_000017.html" target="_top" xlink:title="1">
<text text-anchor="middle" x="246.48" y="-143.61" font-family="Helvetica,sans-Serif" font-size="10.00">1</text>
</a>
</g>
</g>
<!-- dir_b4c964e5db30d266dfe13cf364455343&#45;&gt;dir_bcb01f256a1b1966d449763e10e0e243 -->
<g id="edge1" class="edge">
<title>dir_b4c964e5db30d266dfe13cf364455343&#45;&gt;dir_bcb01f256a1b1966d449763e10e0e243</title>
<path fill="none" stroke="black" d="M254.91,-95.7C258.55,-87.73 262.95,-78.1 266.99,-69.26"/>
<polygon fill="black" stroke="black" points="270.21,-70.65 271.18,-60.1 263.84,-67.74 270.21,-70.65"/>
<g id="a_edge1&#45;headlabel"><a xlink:href="dir_000017_000014.html" target="_top" xlink:title="1">
<text text-anchor="middle" x="271.29" y="-72.6" font-family="Helvetica,sans-Serif" font-size="10.00">1</text>
</a>
</g>
</g>
<!-- dir_b4c964e5db30d266dfe13cf364455343&#45;&gt;dir_da8b8e215de8683a35c92e7f25a1c594 -->
<g id="edge2" class="edge">
<title>dir_b4c964e5db30d266dfe13cf364455343&#45;&gt;dir_da8b8e215de8683a35c92e7f25a1c594</title>
<path fill="none" stroke="black" d="M252.9,-132.1C253.7,-139.79 253.94,-149.05 253.6,-157.67"/>
<polygon fill="black" stroke="black" points="250.11,-157.48 252.92,-167.7 257.09,-157.96 250.11,-157.48"/>
<g id="a_edge2&#45;headlabel"><a xlink:href="dir_000017_000016.html" target="_top" xlink:title="1">
<text text-anchor="middle" x="247.52" y="-151.2" font-family="Helvetica,sans-Serif" font-size="10.00">1</text>
</a>
</g>
</g>
</g>
</svg>
