<?xml version="1.0" encoding="UTF-8" standalone="no"?>
<!DOCTYPE svg PUBLIC "-//W3C//DTD SVG 1.1//EN"
 "http://www.w3.org/Graphics/SVG/1.1/DTD/svg11.dtd">
<!-- Generated by graphviz version 2.43.0 (0)
 -->
<!-- Title: src/graphics/material Pages: 1 -->
<svg width="166pt" height="167pt"
 viewBox="0.00 0.00 166.00 167.00" xmlns="http://www.w3.org/2000/svg" xmlns:xlink="http://www.w3.org/1999/xlink">
<g id="graph0" class="graph" transform="scale(1 1) rotate(0) translate(4 163)">
<title>src/graphics/material</title>
<polygon fill="white" stroke="transparent" points="-4,4 -4,-163 162,-163 162,4 -4,4"/>
<g id="clust1" class="cluster">
<title>clusterdir_560415a5d2bc4999842279f4fc1debef</title>
<g id="a_clust1"><a xlink:href="dir_560415a5d2bc4999842279f4fc1debef.html" target="_top" xlink:title="graphics">
<polygon fill="#ddddee" stroke="black" points="8,-8 8,-151 150,-151 150,-8 8,-8"/>
<text text-anchor="middle" x="79" y="-139" font-family="Helvetica,sans-Serif" font-size="10.00">graphics</text>
</a>
</g>
</g>
<!-- dir_b4c964e5db30d266dfe13cf364455343 -->
<g id="node1" class="node">
<title>dir_b4c964e5db30d266dfe13cf364455343</title>
<g id="a_node1"><a xlink:href="dir_b4c964e5db30d266dfe13cf364455343.html" target="_top" xlink:title="texture">
<polygon fill="none" stroke="black" points="70,-52 16,-52 16,-16 70,-16 70,-52"/>
<text text-anchor="middle" x="43" y="-31.5" font-family="Helvetica,sans-Serif" font-size="10.00">texture</text>
</a>
</g>
</g>
<!-- dir_da8b8e215de8683a35c92e7f25a1c594 -->
<g id="node2" class="node">
<title>dir_da8b8e215de8683a35c92e7f25a1c594</title>
<g id="a_node2"><a xlink:href="dir_da8b8e215de8683a35c92e7f25a1c594.html" target="_top" xlink:title="shader">
<polygon fill="none" stroke="black" points="142,-52 88,-52 88,-16 142,-16 142,-52"/>
<text text-anchor="middle" x="115" y="-31.5" font-family="Helvetica,sans-Serif" font-size="10.00">shader</text>
</a>
</g>
</g>
<!-- dir_197fd57399807dedf8b39125c6572e99 -->
<g id="node3" class="node">
<title>dir_197fd57399807dedf8b39125c6572e99</title>
<g id="a_node3"><a xlink:href="dir_197fd57399807dedf8b39125c6572e99.html" target="_top" xlink:title="material">
<polygon fill="#eeeeff" stroke="black" points="108,-124 50,-124 50,-88 108,-88 108,-124"/>
<text text-anchor="middle" x="79" y="-103.5" font-family="Helvetica,sans-Serif" font-size="10.00">material</text>
</a>
</g>
</g>
<!-- dir_197fd57399807dedf8b39125c6572e99&#45;&gt;dir_b4c964e5db30d266dfe13cf364455343 -->
<g id="edge1" class="edge">
<title>dir_197fd57399807dedf8b39125c6572e99&#45;&gt;dir_b4c964e5db30d266dfe13cf364455343</title>
<path fill="none" stroke="black" d="M70.1,-87.7C66,-79.73 61.05,-70.1 56.51,-61.26"/>
<polygon fill="black" stroke="black" points="59.48,-59.4 51.8,-52.1 53.26,-62.6 59.48,-59.4"/>
<g id="a_edge1&#45;headlabel"><a xlink:href="dir_000013_000017.html" target="_top" xlink:title="1">
<text text-anchor="middle" x="63.65" y="-58.79" font-family="Helvetica,sans-Serif" font-size="10.00">1</text>
</a>
</g>
</g>
<!-- dir_197fd57399807dedf8b39125c6572e99&#45;&gt;dir_da8b8e215de8683a35c92e7f25a1c594 -->
<g id="edge2" class="edge">
<title>dir_197fd57399807dedf8b39125c6572e99&#45;&gt;dir_da8b8e215de8683a35c92e7f25a1c594</title>
<path fill="none" stroke="black" d="M87.9,-87.7C92,-79.73 96.95,-70.1 101.49,-61.26"/>
<polygon fill="black" stroke="black" points="104.74,-62.6 106.2,-52.1 98.52,-59.4 104.74,-62.6"/>
<g id="a_edge2&#45;headlabel"><a xlink:href="dir_000013_000016.html" target="_top" xlink:title="1">
<text text-anchor="middle" x="105.62" y="-64.59" font-family="Helvetica,sans-Serif" font-size="10.00">1</text>
</a>
</g>
</g>
</g>
</svg>
