<?xml version="1.0" encoding="UTF-8" standalone="no"?>
<!DOCTYPE svg PUBLIC "-//W3C//DTD SVG 1.1//EN"
 "http://www.w3.org/Graphics/SVG/1.1/DTD/svg11.dtd">
<!-- Generated by graphviz version 2.43.0 (0)
 -->
<!-- Title: src/application Pages: 1 -->
<svg width="230pt" height="311pt"
 viewBox="0.00 0.00 230.00 311.00" xmlns="http://www.w3.org/2000/svg" xmlns:xlink="http://www.w3.org/1999/xlink">
<g id="graph0" class="graph" transform="scale(1 1) rotate(0) translate(4 307)">
<title>src/application</title>
<polygon fill="white" stroke="transparent" points="-4,4 -4,-307 226,-307 226,4 -4,4"/>
<g id="clust1" class="cluster">
<title>clusterdir_68267d1309a1af8e8297ef4c3efbcdba</title>
<g id="a_clust1"><a xlink:href="dir_68267d1309a1af8e8297ef4c3efbcdba.html" target="_top" xlink:title="src">
<polygon fill="#ddddee" stroke="black" points="8,-8 8,-295 214,-295 214,-8 8,-8"/>
<text text-anchor="middle" x="111" y="-283" font-family="Helvetica,sans-Serif" font-size="10.00">src</text>
</a>
</g>
</g>
<!-- dir_2241064965c8d9ca993f08b926076f7d -->
<g id="node1" class="node">
<title>dir_2241064965c8d9ca993f08b926076f7d</title>
<g id="a_node1"><a xlink:href="dir_2241064965c8d9ca993f08b926076f7d.html" target="_top" xlink:title="log">
<polygon fill="none" stroke="black" points="91,-52 37,-52 37,-16 91,-16 91,-52"/>
<text text-anchor="middle" x="64" y="-31.5" font-family="Helvetica,sans-Serif" font-size="10.00">log</text>
</a>
</g>
</g>
<!-- dir_35781f0e74aa8deac19fa31b37174dc2 -->
<g id="node2" class="node">
<title>dir_35781f0e74aa8deac19fa31b37174dc2</title>
<g id="a_node2"><a xlink:href="dir_35781f0e74aa8deac19fa31b37174dc2.html" target="_top" xlink:title="scene">
<polygon fill="none" stroke="black" points="149,-268 95,-268 95,-232 149,-232 149,-268"/>
<text text-anchor="middle" x="122" y="-247.5" font-family="Helvetica,sans-Serif" font-size="10.00">scene</text>
</a>
</g>
</g>
<!-- dir_35781f0e74aa8deac19fa31b37174dc2&#45;&gt;dir_2241064965c8d9ca993f08b926076f7d -->
<g id="edge10" class="edge">
<title>dir_35781f0e74aa8deac19fa31b37174dc2&#45;&gt;dir_2241064965c8d9ca993f08b926076f7d</title>
<path fill="none" stroke="black" d="M104.81,-231.91C83.72,-209.48 49.35,-167.79 38,-124 33.99,-108.51 34.38,-103.59 38,-88 40.1,-78.96 43.97,-69.68 48.09,-61.47"/>
<polygon fill="black" stroke="black" points="51.31,-62.86 52.95,-52.39 45.14,-59.55 51.31,-62.86"/>
<g id="a_edge10&#45;headlabel"><a xlink:href="dir_000020_000019.html" target="_top" xlink:title="1">
<text text-anchor="middle" x="52.12" y="-64.87" font-family="Helvetica,sans-Serif" font-size="10.00">1</text>
</a>
</g>
</g>
<!-- dir_844f6ab5c2ae79211596f3dcdd81adb7 -->
<g id="node6" class="node">
<title>dir_844f6ab5c2ae79211596f3dcdd81adb7</title>
<g id="a_node6"><a xlink:href="dir_844f6ab5c2ae79211596f3dcdd81adb7.html" target="_top" xlink:title="application">
<polygon fill="#eeeeff" stroke="black" points="157.5,-196 86.5,-196 86.5,-160 157.5,-160 157.5,-196"/>
<text text-anchor="middle" x="122" y="-175.5" font-family="Helvetica,sans-Serif" font-size="10.00">application</text>
</a>
</g>
</g>
<!-- dir_35781f0e74aa8deac19fa31b37174dc2&#45;&gt;dir_844f6ab5c2ae79211596f3dcdd81adb7 -->
<g id="edge11" class="edge">
<title>dir_35781f0e74aa8deac19fa31b37174dc2&#45;&gt;dir_844f6ab5c2ae79211596f3dcdd81adb7</title>
<path fill="none" stroke="black" d="M116.08,-231.7C115.29,-223.98 115.06,-214.71 115.4,-206.11"/>
<polygon fill="black" stroke="black" points="118.9,-206.32 116.1,-196.1 111.92,-205.84 118.9,-206.32"/>
<g id="a_edge11&#45;headlabel"><a xlink:href="dir_000020_000001.html" target="_top" xlink:title="1">
<text text-anchor="middle" x="121.48" y="-207.61" font-family="Helvetica,sans-Serif" font-size="10.00">1</text>
</a>
</g>
</g>
<!-- dir_560415a5d2bc4999842279f4fc1debef -->
<g id="node3" class="node">
<title>dir_560415a5d2bc4999842279f4fc1debef</title>
<g id="a_node3"><a xlink:href="dir_560415a5d2bc4999842279f4fc1debef.html" target="_top" xlink:title="graphics">
<polygon fill="white" stroke="red" points="114,-124 56,-124 56,-88 114,-88 114,-124"/>
<text text-anchor="middle" x="85" y="-103.5" font-family="Helvetica,sans-Serif" font-size="10.00">graphics</text>
</a>
</g>
</g>
<!-- dir_560415a5d2bc4999842279f4fc1debef&#45;&gt;dir_2241064965c8d9ca993f08b926076f7d -->
<g id="edge4" class="edge">
<title>dir_560415a5d2bc4999842279f4fc1debef&#45;&gt;dir_2241064965c8d9ca993f08b926076f7d</title>
<path fill="none" stroke="black" d="M79.81,-87.7C77.47,-79.9 74.65,-70.51 72.05,-61.83"/>
<polygon fill="black" stroke="black" points="75.36,-60.68 69.13,-52.1 68.65,-62.69 75.36,-60.68"/>
<g id="a_edge4&#45;headlabel"><a xlink:href="dir_000009_000019.html" target="_top" xlink:title="4">
<text text-anchor="middle" x="79.11" y="-60.8" font-family="Helvetica,sans-Serif" font-size="10.00">4</text>
</a>
</g>
</g>
<!-- dir_d365e15d984c8d0205117ee0c40d6716 -->
<g id="node4" class="node">
<title>dir_d365e15d984c8d0205117ee0c40d6716</title>
<g id="a_node4"><a xlink:href="dir_d365e15d984c8d0205117ee0c40d6716.html" target="_top" xlink:title="input">
<polygon fill="none" stroke="black" points="186,-124 132,-124 132,-88 186,-88 186,-124"/>
<text text-anchor="middle" x="159" y="-103.5" font-family="Helvetica,sans-Serif" font-size="10.00">input</text>
</a>
</g>
</g>
<!-- dir_d365e15d984c8d0205117ee0c40d6716&#45;&gt;dir_2241064965c8d9ca993f08b926076f7d -->
<g id="edge1" class="edge">
<title>dir_d365e15d984c8d0205117ee0c40d6716&#45;&gt;dir_2241064965c8d9ca993f08b926076f7d</title>
<path fill="none" stroke="black" d="M135.52,-87.7C123.44,-78.8 108.55,-67.82 95.48,-58.2"/>
<polygon fill="black" stroke="black" points="97.34,-55.22 87.21,-52.1 93.19,-60.85 97.34,-55.22"/>
<g id="a_edge1&#45;headlabel"><a xlink:href="dir_000018_000019.html" target="_top" xlink:title="1">
<text text-anchor="middle" x="101.92" y="-52.57" font-family="Helvetica,sans-Serif" font-size="10.00">1</text>
</a>
</g>
</g>
<!-- dir_f278fbcf62338d746f20818c09b59427 -->
<g id="node5" class="node">
<title>dir_f278fbcf62338d746f20818c09b59427</title>
<g id="a_node5"><a xlink:href="dir_f278fbcf62338d746f20818c09b59427.html" target="_top" xlink:title="event">
<polygon fill="none" stroke="black" points="196,-52 142,-52 142,-16 196,-16 196,-52"/>
<text text-anchor="middle" x="169" y="-31.5" font-family="Helvetica,sans-Serif" font-size="10.00">event</text>
</a>
</g>
</g>
<!-- dir_d365e15d984c8d0205117ee0c40d6716&#45;&gt;dir_f278fbcf62338d746f20818c09b59427 -->
<g id="edge3" class="edge">
<title>dir_d365e15d984c8d0205117ee0c40d6716&#45;&gt;dir_f278fbcf62338d746f20818c09b59427</title>
<path fill="none" stroke="black" d="M161.47,-87.7C162.57,-79.98 163.9,-70.71 165.13,-62.11"/>
<polygon fill="black" stroke="black" points="168.61,-62.5 166.56,-52.1 161.68,-61.51 168.61,-62.5"/>
<g id="a_edge3&#45;headlabel"><a xlink:href="dir_000018_000003.html" target="_top" xlink:title="5">
<text text-anchor="middle" x="170.91" y="-63.96" font-family="Helvetica,sans-Serif" font-size="10.00">5</text>
</a>
</g>
</g>
<!-- dir_d365e15d984c8d0205117ee0c40d6716&#45;&gt;dir_844f6ab5c2ae79211596f3dcdd81adb7 -->
<g id="edge2" class="edge">
<title>dir_d365e15d984c8d0205117ee0c40d6716&#45;&gt;dir_844f6ab5c2ae79211596f3dcdd81adb7</title>
<path fill="none" stroke="black" d="M155.85,-124.1C152.42,-132.21 147.42,-142.08 142.25,-151.08"/>
<polygon fill="black" stroke="black" points="139.22,-149.32 137.06,-159.7 145.22,-152.93 139.22,-149.32"/>
<g id="a_edge2&#45;headlabel"><a xlink:href="dir_000018_000001.html" target="_top" xlink:title="1">
<text text-anchor="middle" x="138.64" y="-142.28" font-family="Helvetica,sans-Serif" font-size="10.00">1</text>
</a>
</g>
</g>
<!-- dir_844f6ab5c2ae79211596f3dcdd81adb7&#45;&gt;dir_2241064965c8d9ca993f08b926076f7d -->
<g id="edge5" class="edge">
<title>dir_844f6ab5c2ae79211596f3dcdd81adb7&#45;&gt;dir_2241064965c8d9ca993f08b926076f7d</title>
<path fill="none" stroke="black" d="M86.48,-161.29C71.42,-152.63 55.43,-140.28 47,-124 36.88,-104.46 42.89,-79.71 50.43,-61.27"/>
<polygon fill="black" stroke="black" points="53.69,-62.56 54.56,-52.01 47.29,-59.72 53.69,-62.56"/>
<g id="a_edge5&#45;headlabel"><a xlink:href="dir_000001_000019.html" target="_top" xlink:title="2">
<text text-anchor="middle" x="54.82" y="-64.5" font-family="Helvetica,sans-Serif" font-size="10.00">2</text>
</a>
</g>
</g>
<!-- dir_844f6ab5c2ae79211596f3dcdd81adb7&#45;&gt;dir_35781f0e74aa8deac19fa31b37174dc2 -->
<g id="edge6" class="edge">
<title>dir_844f6ab5c2ae79211596f3dcdd81adb7&#45;&gt;dir_35781f0e74aa8deac19fa31b37174dc2</title>
<path fill="none" stroke="black" d="M127.9,-196.1C128.7,-203.79 128.94,-213.05 128.6,-221.67"/>
<polygon fill="black" stroke="black" points="125.11,-221.48 127.92,-231.7 132.09,-221.96 125.11,-221.48"/>
<g id="a_edge6&#45;headlabel"><a xlink:href="dir_000001_000020.html" target="_top" xlink:title="1">
<text text-anchor="middle" x="122.52" y="-215.2" font-family="Helvetica,sans-Serif" font-size="10.00">1</text>
</a>
</g>
</g>
<!-- dir_844f6ab5c2ae79211596f3dcdd81adb7&#45;&gt;dir_560415a5d2bc4999842279f4fc1debef -->
<g id="edge7" class="edge">
<title>dir_844f6ab5c2ae79211596f3dcdd81adb7&#45;&gt;dir_560415a5d2bc4999842279f4fc1debef</title>
<path fill="none" stroke="black" d="M112.85,-159.7C108.6,-151.64 103.44,-141.89 98.73,-132.98"/>
<polygon fill="black" stroke="black" points="101.81,-131.31 94.04,-124.1 95.62,-134.58 101.81,-131.31"/>
<g id="a_edge7&#45;headlabel"><a xlink:href="dir_000001_000009.html" target="_top" xlink:title="2">
<text text-anchor="middle" x="106" y="-130.66" font-family="Helvetica,sans-Serif" font-size="10.00">2</text>
</a>
</g>
</g>
<!-- dir_844f6ab5c2ae79211596f3dcdd81adb7&#45;&gt;dir_d365e15d984c8d0205117ee0c40d6716 -->
<g id="edge8" class="edge">
<title>dir_844f6ab5c2ae79211596f3dcdd81adb7&#45;&gt;dir_d365e15d984c8d0205117ee0c40d6716</title>
<path fill="none" stroke="black" d="M125.23,-159.7C128.69,-151.56 133.7,-141.69 138.88,-132.7"/>
<polygon fill="black" stroke="black" points="141.9,-134.48 144.06,-124.1 135.9,-130.86 141.9,-134.48"/>
<g id="a_edge8&#45;headlabel"><a xlink:href="dir_000001_000018.html" target="_top" xlink:title="1">
<text text-anchor="middle" x="142.47" y="-136.52" font-family="Helvetica,sans-Serif" font-size="10.00">1</text>
</a>
</g>
</g>
<!-- dir_844f6ab5c2ae79211596f3dcdd81adb7&#45;&gt;dir_f278fbcf62338d746f20818c09b59427 -->
<g id="edge9" class="edge">
<title>dir_844f6ab5c2ae79211596f3dcdd81adb7&#45;&gt;dir_f278fbcf62338d746f20818c09b59427</title>
<path fill="none" stroke="black" d="M157.75,-160.39C172.07,-151.73 187.03,-139.63 195,-124 205.26,-103.88 196.46,-79.08 186.42,-60.78"/>
<polygon fill="black" stroke="black" points="189.4,-58.94 181.31,-52.11 183.37,-62.5 189.4,-58.94"/>
<g id="a_edge9&#45;headlabel"><a xlink:href="dir_000001_000003.html" target="_top" xlink:title="1">
<text text-anchor="middle" x="193.67" y="-58.1" font-family="Helvetica,sans-Serif" font-size="10.00">1</text>
</a>
</g>
</g>
</g>
</svg>
