<?xml version="1.0" encoding="UTF-8" standalone="no"?>
<!DOCTYPE svg PUBLIC "-//W3C//DTD SVG 1.1//EN"
 "http://www.w3.org/Graphics/SVG/1.1/DTD/svg11.dtd">
<!-- Generated by graphviz version 2.43.0 (0)
 -->
<!-- Title: src/game/scene Pages: 1 -->
<svg width="443pt" height="367pt"
 viewBox="0.00 0.00 443.06 367.00" xmlns="http://www.w3.org/2000/svg" xmlns:xlink="http://www.w3.org/1999/xlink">
<g id="graph0" class="graph" transform="scale(1 1) rotate(0) translate(4 363)">
<title>src/game/scene</title>
<polygon fill="white" stroke="transparent" points="-4,4 -4,-363 439.06,-363 439.06,4 -4,4"/>
<g id="clust1" class="cluster">
<title>clusterdir_1699be727a800b1d059c6f7f2b91d2ee</title>
<g id="a_clust1"><a xlink:href="dir_1699be727a800b1d059c6f7f2b91d2ee.html" target="_top" xlink:title="game">
<polygon fill="#ddddee" stroke="black" points="9.31,-136 9.31,-351 151.31,-351 151.31,-136 9.31,-136"/>
<text text-anchor="middle" x="80.31" y="-339" font-family="Helvetica,sans-Serif" font-size="10.00">game</text>
</a>
</g>
</g>
<!-- dir_1d56c4648b887634557841a50e4691f5 -->
<g id="node1" class="node">
<title>dir_1d56c4648b887634557841a50e4691f5</title>
<g id="a_node1"><a xlink:href="dir_1d56c4648b887634557841a50e4691f5.html" target="_top" xlink:title="system">
<polygon fill="none" stroke="black" points="120.31,-252 66.31,-252 66.31,-216 120.31,-216 120.31,-252"/>
<text text-anchor="middle" x="93.31" y="-231.5" font-family="Helvetica,sans-Serif" font-size="10.00">system</text>
</a>
</g>
</g>
<!-- dir_4ecc7ac2b9161d9736e08b42aeb2594a -->
<g id="node2" class="node">
<title>dir_4ecc7ac2b9161d9736e08b42aeb2594a</title>
<g id="a_node2"><a xlink:href="dir_4ecc7ac2b9161d9736e08b42aeb2594a.html" target="_top" xlink:title="input">
<polygon fill="none" stroke="black" points="71.31,-180 17.31,-180 17.31,-144 71.31,-144 71.31,-180"/>
<text text-anchor="middle" x="44.31" y="-159.5" font-family="Helvetica,sans-Serif" font-size="10.00">input</text>
</a>
</g>
</g>
<!-- dir_1d56c4648b887634557841a50e4691f5&#45;&gt;dir_4ecc7ac2b9161d9736e08b42aeb2594a -->
<g id="edge4" class="edge">
<title>dir_1d56c4648b887634557841a50e4691f5&#45;&gt;dir_4ecc7ac2b9161d9736e08b42aeb2594a</title>
<path fill="none" stroke="black" d="M81.2,-215.7C75.45,-207.47 68.45,-197.48 62.11,-188.42"/>
<polygon fill="black" stroke="black" points="64.89,-186.29 56.29,-180.1 59.15,-190.3 64.89,-186.29"/>
<g id="a_edge4&#45;headlabel"><a xlink:href="dir_000007_000005.html" target="_top" xlink:title="2">
<text text-anchor="middle" x="69.28" y="-185.11" font-family="Helvetica,sans-Serif" font-size="10.00">2</text>
</a>
</g>
</g>
<!-- dir_f8b6674c777273c859b7a6c9383ab39f -->
<g id="node3" class="node">
<title>dir_f8b6674c777273c859b7a6c9383ab39f</title>
<g id="a_node3"><a xlink:href="dir_f8b6674c777273c859b7a6c9383ab39f.html" target="_top" xlink:title="tag">
<polygon fill="none" stroke="black" points="143.31,-180 89.31,-180 89.31,-144 143.31,-144 143.31,-180"/>
<text text-anchor="middle" x="116.31" y="-159.5" font-family="Helvetica,sans-Serif" font-size="10.00">tag</text>
</a>
</g>
</g>
<!-- dir_1d56c4648b887634557841a50e4691f5&#45;&gt;dir_f8b6674c777273c859b7a6c9383ab39f -->
<g id="edge8" class="edge">
<title>dir_1d56c4648b887634557841a50e4691f5&#45;&gt;dir_f8b6674c777273c859b7a6c9383ab39f</title>
<path fill="none" stroke="black" d="M99,-215.7C101.56,-207.9 104.65,-198.51 107.5,-189.83"/>
<polygon fill="black" stroke="black" points="110.9,-190.7 110.69,-180.1 104.25,-188.51 110.9,-190.7"/>
<g id="a_edge8&#45;headlabel"><a xlink:href="dir_000007_000008.html" target="_top" xlink:title="2">
<text text-anchor="middle" x="112.47" y="-192.5" font-family="Helvetica,sans-Serif" font-size="10.00">2</text>
</a>
</g>
</g>
<!-- dir_844f6ab5c2ae79211596f3dcdd81adb7 -->
<g id="node7" class="node">
<title>dir_844f6ab5c2ae79211596f3dcdd81adb7</title>
<g id="a_node7"><a xlink:href="dir_844f6ab5c2ae79211596f3dcdd81adb7.html" target="_top" xlink:title="application">
<polygon fill="none" stroke="black" points="299.81,-252 228.81,-252 228.81,-216 299.81,-216 299.81,-252"/>
<text text-anchor="middle" x="264.31" y="-231.5" font-family="Helvetica,sans-Serif" font-size="10.00">application</text>
</a>
</g>
</g>
<!-- dir_1d56c4648b887634557841a50e4691f5&#45;&gt;dir_844f6ab5c2ae79211596f3dcdd81adb7 -->
<g id="edge5" class="edge">
<title>dir_1d56c4648b887634557841a50e4691f5&#45;&gt;dir_844f6ab5c2ae79211596f3dcdd81adb7</title>
<path fill="none" stroke="black" d="M120.37,-234C153.06,-234 185.76,-234 218.46,-234"/>
<polygon fill="black" stroke="black" points="218.61,-237.5 228.61,-234 218.61,-230.5 218.61,-237.5"/>
<g id="a_edge5&#45;headlabel"><a xlink:href="dir_000007_000001.html" target="_top" xlink:title="2">
<text text-anchor="middle" x="215.01" y="-237.84" font-family="Helvetica,sans-Serif" font-size="10.00">2</text>
</a>
</g>
</g>
<!-- dir_9b051f5a462ebc902d5afef8d9317d03 -->
<g id="node8" class="node">
<title>dir_9b051f5a462ebc902d5afef8d9317d03</title>
<g id="a_node8"><a xlink:href="dir_9b051f5a462ebc902d5afef8d9317d03.html" target="_top" xlink:title="component">
<polygon fill="none" stroke="black" points="402.81,-108 331.81,-108 331.81,-72 402.81,-72 402.81,-108"/>
<text text-anchor="middle" x="367.31" y="-87.5" font-family="Helvetica,sans-Serif" font-size="10.00">component</text>
</a>
</g>
</g>
<!-- dir_1d56c4648b887634557841a50e4691f5&#45;&gt;dir_9b051f5a462ebc902d5afef8d9317d03 -->
<g id="edge6" class="edge">
<title>dir_1d56c4648b887634557841a50e4691f5&#45;&gt;dir_9b051f5a462ebc902d5afef8d9317d03</title>
<path fill="none" stroke="black" d="M120.59,-218.87C168.54,-194.01 268.26,-142.33 325.15,-112.85"/>
<polygon fill="black" stroke="black" points="326.97,-115.85 334.24,-108.14 323.75,-109.64 326.97,-115.85"/>
<g id="a_edge6&#45;headlabel"><a xlink:href="dir_000007_000002.html" target="_top" xlink:title="2">
<text text-anchor="middle" x="325.08" y="-117.53" font-family="Helvetica,sans-Serif" font-size="10.00">2</text>
</a>
</g>
</g>
<!-- dir_d365e15d984c8d0205117ee0c40d6716 -->
<g id="node9" class="node">
<title>dir_d365e15d984c8d0205117ee0c40d6716</title>
<g id="a_node9"><a xlink:href="dir_d365e15d984c8d0205117ee0c40d6716.html" target="_top" xlink:title="input">
<polygon fill="none" stroke="black" points="236.31,-108 182.31,-108 182.31,-72 236.31,-72 236.31,-108"/>
<text text-anchor="middle" x="209.31" y="-87.5" font-family="Helvetica,sans-Serif" font-size="10.00">input</text>
</a>
</g>
</g>
<!-- dir_1d56c4648b887634557841a50e4691f5&#45;&gt;dir_d365e15d984c8d0205117ee0c40d6716 -->
<g id="edge7" class="edge">
<title>dir_1d56c4648b887634557841a50e4691f5&#45;&gt;dir_d365e15d984c8d0205117ee0c40d6716</title>
<path fill="none" stroke="black" d="M66.13,-224.18C46.19,-216.12 20.55,-202.05 8.31,-180 -1.18,-162.9 -3.91,-151.26 8.31,-136 28.39,-110.93 119.25,-98.89 171.68,-93.93"/>
<polygon fill="black" stroke="black" points="172.29,-97.39 181.93,-93.01 171.66,-90.42 172.29,-97.39"/>
<g id="a_edge7&#45;headlabel"><a xlink:href="dir_000007_000018.html" target="_top" xlink:title="4">
<text text-anchor="middle" x="168.96" y="-98.04" font-family="Helvetica,sans-Serif" font-size="10.00">4</text>
</a>
</g>
</g>
<!-- dir_4ecc7ac2b9161d9736e08b42aeb2594a&#45;&gt;dir_d365e15d984c8d0205117ee0c40d6716 -->
<g id="edge3" class="edge">
<title>dir_4ecc7ac2b9161d9736e08b42aeb2594a&#45;&gt;dir_d365e15d984c8d0205117ee0c40d6716</title>
<path fill="none" stroke="black" d="M66.97,-143.9C71.28,-141.05 75.84,-138.28 80.31,-136 110.11,-120.82 146.21,-108.71 172.64,-100.89"/>
<polygon fill="black" stroke="black" points="173.63,-104.25 182.26,-98.11 171.68,-97.53 173.63,-104.25"/>
<g id="a_edge3&#45;headlabel"><a xlink:href="dir_000005_000018.html" target="_top" xlink:title="1">
<text text-anchor="middle" x="170.96" y="-105.48" font-family="Helvetica,sans-Serif" font-size="10.00">1</text>
</a>
</g>
</g>
<!-- dir_5e41e096db7e811af24d49ae6b11260b -->
<g id="node4" class="node">
<title>dir_5e41e096db7e811af24d49ae6b11260b</title>
<g id="a_node4"><a xlink:href="dir_5e41e096db7e811af24d49ae6b11260b.html" target="_top" xlink:title="scene">
<polygon fill="#eeeeff" stroke="black" points="143.31,-324 89.31,-324 89.31,-288 143.31,-288 143.31,-324"/>
<text text-anchor="middle" x="116.31" y="-303.5" font-family="Helvetica,sans-Serif" font-size="10.00">scene</text>
</a>
</g>
</g>
<!-- dir_5e41e096db7e811af24d49ae6b11260b&#45;&gt;dir_1d56c4648b887634557841a50e4691f5 -->
<g id="edge9" class="edge">
<title>dir_5e41e096db7e811af24d49ae6b11260b&#45;&gt;dir_1d56c4648b887634557841a50e4691f5</title>
<path fill="none" stroke="black" d="M110.63,-287.7C108.07,-279.9 104.98,-270.51 102.13,-261.83"/>
<polygon fill="black" stroke="black" points="105.38,-260.51 98.93,-252.1 98.73,-262.7 105.38,-260.51"/>
<g id="a_edge9&#45;headlabel"><a xlink:href="dir_000006_000007.html" target="_top" xlink:title="3">
<text text-anchor="middle" x="109.2" y="-260.54" font-family="Helvetica,sans-Serif" font-size="10.00">3</text>
</a>
</g>
</g>
<!-- dir_5e41e096db7e811af24d49ae6b11260b&#45;&gt;dir_4ecc7ac2b9161d9736e08b42aeb2594a -->
<g id="edge11" class="edge">
<title>dir_5e41e096db7e811af24d49ae6b11260b&#45;&gt;dir_4ecc7ac2b9161d9736e08b42aeb2594a</title>
<path fill="none" stroke="black" d="M90.05,-287.88C78.12,-278.7 64.99,-266.32 57.31,-252 47.14,-233.02 44.15,-208.65 43.57,-190.22"/>
<polygon fill="black" stroke="black" points="47.07,-190.1 43.46,-180.13 40.07,-190.17 47.07,-190.1"/>
<g id="a_edge11&#45;headlabel"><a xlink:href="dir_000006_000005.html" target="_top" xlink:title="1">
<text text-anchor="middle" x="49.94" y="-191.16" font-family="Helvetica,sans-Serif" font-size="10.00">1</text>
</a>
</g>
</g>
<!-- dir_5e41e096db7e811af24d49ae6b11260b&#45;&gt;dir_f8b6674c777273c859b7a6c9383ab39f -->
<g id="edge16" class="edge">
<title>dir_5e41e096db7e811af24d49ae6b11260b&#45;&gt;dir_f8b6674c777273c859b7a6c9383ab39f</title>
<path fill="none" stroke="black" d="M121.72,-287.53C124.61,-277.29 127.86,-264.04 129.31,-252 131.23,-236.12 131.23,-231.88 129.31,-216 128.29,-207.53 126.38,-198.47 124.33,-190.28"/>
<polygon fill="black" stroke="black" points="127.68,-189.23 121.72,-180.47 120.91,-191.03 127.68,-189.23"/>
<g id="a_edge16&#45;headlabel"><a xlink:href="dir_000006_000008.html" target="_top" xlink:title="1">
<text text-anchor="middle" x="131.35" y="-189.48" font-family="Helvetica,sans-Serif" font-size="10.00">1</text>
</a>
</g>
</g>
<!-- dir_35781f0e74aa8deac19fa31b37174dc2 -->
<g id="node5" class="node">
<title>dir_35781f0e74aa8deac19fa31b37174dc2</title>
<g id="a_node5"><a xlink:href="dir_35781f0e74aa8deac19fa31b37174dc2.html" target="_top" xlink:title="scene">
<polygon fill="none" stroke="black" points="385.31,-180 331.31,-180 331.31,-144 385.31,-144 385.31,-180"/>
<text text-anchor="middle" x="358.31" y="-159.5" font-family="Helvetica,sans-Serif" font-size="10.00">scene</text>
</a>
</g>
</g>
<!-- dir_5e41e096db7e811af24d49ae6b11260b&#45;&gt;dir_35781f0e74aa8deac19fa31b37174dc2 -->
<g id="edge10" class="edge">
<title>dir_5e41e096db7e811af24d49ae6b11260b&#45;&gt;dir_35781f0e74aa8deac19fa31b37174dc2</title>
<path fill="none" stroke="black" d="M143.67,-302.31C197.7,-296.42 315.2,-280.58 342.31,-252 357.72,-235.76 360.93,-210 360.75,-190.36"/>
<polygon fill="black" stroke="black" points="364.24,-190.04 360.35,-180.18 357.24,-190.31 364.24,-190.04"/>
<g id="a_edge10&#45;headlabel"><a xlink:href="dir_000006_000019.html" target="_top" xlink:title="1">
<text text-anchor="middle" x="367.21" y="-191.02" font-family="Helvetica,sans-Serif" font-size="10.00">1</text>
</a>
</g>
</g>
<!-- dir_560415a5d2bc4999842279f4fc1debef -->
<g id="node6" class="node">
<title>dir_560415a5d2bc4999842279f4fc1debef</title>
<g id="a_node6"><a xlink:href="dir_560415a5d2bc4999842279f4fc1debef.html" target="_top" xlink:title="graphics">
<polygon fill="white" stroke="red" points="396.31,-36 338.31,-36 338.31,0 396.31,0 396.31,-36"/>
<text text-anchor="middle" x="367.31" y="-15.5" font-family="Helvetica,sans-Serif" font-size="10.00">graphics</text>
</a>
</g>
</g>
<!-- dir_5e41e096db7e811af24d49ae6b11260b&#45;&gt;dir_560415a5d2bc4999842279f4fc1debef -->
<g id="edge12" class="edge">
<title>dir_5e41e096db7e811af24d49ae6b11260b&#45;&gt;dir_560415a5d2bc4999842279f4fc1debef</title>
<path fill="none" stroke="black" d="M143.63,-303.38C206.02,-299.12 356.39,-285.55 392.31,-252 451.14,-197.06 440.06,-147.56 412.31,-72 408.53,-61.7 401.76,-52.02 394.59,-43.84"/>
<polygon fill="black" stroke="black" points="397.08,-41.38 387.69,-36.47 391.97,-46.16 397.08,-41.38"/>
<g id="a_edge12&#45;headlabel"><a xlink:href="dir_000006_000009.html" target="_top" xlink:title="12">
<text text-anchor="middle" x="401.61" y="-39.56" font-family="Helvetica,sans-Serif" font-size="10.00">12</text>
</a>
</g>
</g>
<!-- dir_5e41e096db7e811af24d49ae6b11260b&#45;&gt;dir_844f6ab5c2ae79211596f3dcdd81adb7 -->
<g id="edge13" class="edge">
<title>dir_5e41e096db7e811af24d49ae6b11260b&#45;&gt;dir_844f6ab5c2ae79211596f3dcdd81adb7</title>
<path fill="none" stroke="black" d="M143.46,-292.16C164.7,-282.12 194.68,-267.94 219.47,-256.21"/>
<polygon fill="black" stroke="black" points="221.14,-259.29 228.68,-251.85 218.15,-252.96 221.14,-259.29"/>
<g id="a_edge13&#45;headlabel"><a xlink:href="dir_000006_000001.html" target="_top" xlink:title="1">
<text text-anchor="middle" x="219.11" y="-260.89" font-family="Helvetica,sans-Serif" font-size="10.00">1</text>
</a>
</g>
</g>
<!-- dir_5e41e096db7e811af24d49ae6b11260b&#45;&gt;dir_9b051f5a462ebc902d5afef8d9317d03 -->
<g id="edge14" class="edge">
<title>dir_5e41e096db7e811af24d49ae6b11260b&#45;&gt;dir_9b051f5a462ebc902d5afef8d9317d03</title>
<path fill="none" stroke="black" d="M143.57,-302.36C200.77,-296.33 330.79,-279.85 364.31,-252 405.27,-217.97 408.53,-187.32 394.31,-136 392.53,-129.55 389.54,-123.09 386.19,-117.16"/>
<polygon fill="black" stroke="black" points="388.98,-115.03 380.75,-108.36 383.03,-118.71 388.98,-115.03"/>
<g id="a_edge14&#45;headlabel"><a xlink:href="dir_000006_000002.html" target="_top" xlink:title="5">
<text text-anchor="middle" x="393.29" y="-114.09" font-family="Helvetica,sans-Serif" font-size="10.00">5</text>
</a>
</g>
</g>
<!-- dir_5e41e096db7e811af24d49ae6b11260b&#45;&gt;dir_d365e15d984c8d0205117ee0c40d6716 -->
<g id="edge15" class="edge">
<title>dir_5e41e096db7e811af24d49ae6b11260b&#45;&gt;dir_d365e15d984c8d0205117ee0c40d6716</title>
<path fill="none" stroke="black" d="M123.77,-287.85C139.96,-250.6 178.43,-162.07 197.78,-117.54"/>
<polygon fill="black" stroke="black" points="201.05,-118.8 201.82,-108.23 194.63,-116.01 201.05,-118.8"/>
<g id="a_edge15&#45;headlabel"><a xlink:href="dir_000006_000018.html" target="_top" xlink:title="1">
<text text-anchor="middle" x="202.22" y="-120.73" font-family="Helvetica,sans-Serif" font-size="10.00">1</text>
</a>
</g>
</g>
<!-- dir_35781f0e74aa8deac19fa31b37174dc2&#45;&gt;dir_5e41e096db7e811af24d49ae6b11260b -->
<g id="edge21" class="edge">
<title>dir_35781f0e74aa8deac19fa31b37174dc2&#45;&gt;dir_5e41e096db7e811af24d49ae6b11260b</title>
<path fill="none" stroke="black" d="M353.41,-180.1C346.74,-200.28 332.86,-233.43 309.31,-252 263.79,-287.9 195.62,-299.52 153.66,-303.26"/>
<polygon fill="black" stroke="black" points="153.28,-299.77 143.59,-304.05 153.83,-306.75 153.28,-299.77"/>
<g id="a_edge21&#45;headlabel"><a xlink:href="dir_000019_000006.html" target="_top" xlink:title="1">
<text text-anchor="middle" x="156.64" y="-294.16" font-family="Helvetica,sans-Serif" font-size="10.00">1</text>
</a>
</g>
</g>
<!-- dir_35781f0e74aa8deac19fa31b37174dc2&#45;&gt;dir_844f6ab5c2ae79211596f3dcdd81adb7 -->
<g id="edge22" class="edge">
<title>dir_35781f0e74aa8deac19fa31b37174dc2&#45;&gt;dir_844f6ab5c2ae79211596f3dcdd81adb7</title>
<path fill="none" stroke="black" d="M341.13,-180.19C329.99,-189.18 315.2,-200.32 301.53,-210.04"/>
<polygon fill="black" stroke="black" points="299.38,-207.27 293.21,-215.88 303.4,-213 299.38,-207.27"/>
<g id="a_edge22&#45;headlabel"><a xlink:href="dir_000019_000001.html" target="_top" xlink:title="1">
<text text-anchor="middle" x="300.7" y="-200.38" font-family="Helvetica,sans-Serif" font-size="10.00">1</text>
</a>
</g>
</g>
<!-- dir_35781f0e74aa8deac19fa31b37174dc2&#45;&gt;dir_9b051f5a462ebc902d5afef8d9317d03 -->
<g id="edge23" class="edge">
<title>dir_35781f0e74aa8deac19fa31b37174dc2&#45;&gt;dir_9b051f5a462ebc902d5afef8d9317d03</title>
<path fill="none" stroke="black" d="M360.54,-143.7C361.53,-135.98 362.72,-126.71 363.83,-118.11"/>
<polygon fill="black" stroke="black" points="367.31,-118.47 365.11,-108.1 360.37,-117.58 367.31,-118.47"/>
<g id="a_edge23&#45;headlabel"><a xlink:href="dir_000019_000002.html" target="_top" xlink:title="5">
<text text-anchor="middle" x="369.67" y="-119.9" font-family="Helvetica,sans-Serif" font-size="10.00">5</text>
</a>
</g>
</g>
<!-- dir_560415a5d2bc4999842279f4fc1debef&#45;&gt;dir_9b051f5a462ebc902d5afef8d9317d03 -->
<g id="edge17" class="edge">
<title>dir_560415a5d2bc4999842279f4fc1debef&#45;&gt;dir_9b051f5a462ebc902d5afef8d9317d03</title>
<path fill="none" stroke="black" d="M373.21,-36.1C374.01,-43.79 374.25,-53.05 373.92,-61.67"/>
<polygon fill="black" stroke="black" points="370.42,-61.48 373.23,-71.7 377.41,-61.96 370.42,-61.48"/>
<g id="a_edge17&#45;headlabel"><a xlink:href="dir_000009_000002.html" target="_top" xlink:title="5">
<text text-anchor="middle" x="367.84" y="-55.2" font-family="Helvetica,sans-Serif" font-size="10.00">5</text>
</a>
</g>
</g>
<!-- dir_844f6ab5c2ae79211596f3dcdd81adb7&#45;&gt;dir_35781f0e74aa8deac19fa31b37174dc2 -->
<g id="edge18" class="edge">
<title>dir_844f6ab5c2ae79211596f3dcdd81adb7&#45;&gt;dir_35781f0e74aa8deac19fa31b37174dc2</title>
<path fill="none" stroke="black" d="M281.63,-215.7C293.19,-206.38 308.63,-194.78 322.67,-184.85"/>
<polygon fill="black" stroke="black" points="324.99,-187.5 331.19,-178.91 320.98,-181.76 324.99,-187.5"/>
<g id="a_edge18&#45;headlabel"><a xlink:href="dir_000001_000019.html" target="_top" xlink:title="1">
<text text-anchor="middle" x="323.66" y="-189.38" font-family="Helvetica,sans-Serif" font-size="10.00">1</text>
</a>
</g>
</g>
<!-- dir_844f6ab5c2ae79211596f3dcdd81adb7&#45;&gt;dir_560415a5d2bc4999842279f4fc1debef -->
<g id="edge19" class="edge">
<title>dir_844f6ab5c2ae79211596f3dcdd81adb7&#45;&gt;dir_560415a5d2bc4999842279f4fc1debef</title>
<path fill="none" stroke="black" d="M268.56,-215.71C276.47,-185.28 295.26,-120.77 323.31,-72 329.01,-62.1 336.58,-52.21 343.83,-43.71"/>
<polygon fill="black" stroke="black" points="346.62,-45.83 350.61,-36.02 341.37,-41.2 346.62,-45.83"/>
<g id="a_edge19&#45;headlabel"><a xlink:href="dir_000001_000009.html" target="_top" xlink:title="2">
<text text-anchor="middle" x="346.37" y="-47.91" font-family="Helvetica,sans-Serif" font-size="10.00">2</text>
</a>
</g>
</g>
<!-- dir_844f6ab5c2ae79211596f3dcdd81adb7&#45;&gt;dir_d365e15d984c8d0205117ee0c40d6716 -->
<g id="edge20" class="edge">
<title>dir_844f6ab5c2ae79211596f3dcdd81adb7&#45;&gt;dir_d365e15d984c8d0205117ee0c40d6716</title>
<path fill="none" stroke="black" d="M253.09,-215.87C241.11,-191.56 223.5,-146.82 214.34,-118.01"/>
<polygon fill="black" stroke="black" points="217.62,-116.75 211.38,-108.19 210.92,-118.77 217.62,-116.75"/>
<g id="a_edge20&#45;headlabel"><a xlink:href="dir_000001_000018.html" target="_top" xlink:title="1">
<text text-anchor="middle" x="221.38" y="-116.87" font-family="Helvetica,sans-Serif" font-size="10.00">1</text>
</a>
</g>
</g>
<!-- dir_9b051f5a462ebc902d5afef8d9317d03&#45;&gt;dir_560415a5d2bc4999842279f4fc1debef -->
<g id="edge1" class="edge">
<title>dir_9b051f5a462ebc902d5afef8d9317d03&#45;&gt;dir_560415a5d2bc4999842279f4fc1debef</title>
<path fill="none" stroke="black" d="M361.4,-71.7C360.6,-63.98 360.38,-54.71 360.72,-46.11"/>
<polygon fill="black" stroke="black" points="364.21,-46.32 361.42,-36.1 357.23,-45.84 364.21,-46.32"/>
<g id="a_edge1&#45;headlabel"><a xlink:href="dir_000002_000009.html" target="_top" xlink:title="5">
<text text-anchor="middle" x="366.79" y="-47.61" font-family="Helvetica,sans-Serif" font-size="10.00">5</text>
</a>
</g>
</g>
<!-- dir_d365e15d984c8d0205117ee0c40d6716&#45;&gt;dir_844f6ab5c2ae79211596f3dcdd81adb7 -->
<g id="edge2" class="edge">
<title>dir_d365e15d984c8d0205117ee0c40d6716&#45;&gt;dir_844f6ab5c2ae79211596f3dcdd81adb7</title>
<path fill="none" stroke="black" d="M220.56,-108.19C232.56,-132.53 250.17,-177.28 259.31,-206.06"/>
<polygon fill="black" stroke="black" points="256.03,-207.31 262.26,-215.87 262.73,-205.29 256.03,-207.31"/>
<g id="a_edge2&#45;headlabel"><a xlink:href="dir_000018_000001.html" target="_top" xlink:title="1">
<text text-anchor="middle" x="252.27" y="-202.18" font-family="Helvetica,sans-Serif" font-size="10.00">1</text>
</a>
</g>
</g>
</g>
</svg>
