<?xml version="1.0" encoding="UTF-8" standalone="no"?>
<!DOCTYPE svg PUBLIC "-//W3C//DTD SVG 1.1//EN"
 "http://www.w3.org/Graphics/SVG/1.1/DTD/svg11.dtd">
<!-- Generated by graphviz version 2.43.0 (0)
 -->
<!-- Title: src/graphics/mesh/ebo.h Pages: 1 -->
<!--zoomable 408 -->
<svg id="main" version="1.1" xmlns="http://www.w3.org/2000/svg" xmlns:xlink="http://www.w3.org/1999/xlink" xml:space="preserve" onload="init(evt)">
<style type="text/css"><![CDATA[
.edge:hover path { stroke: red; }
.edge:hover polygon { stroke: red; fill: red; }
]]></style>
<script type="text/javascript"><![CDATA[
var edges = document.getElementsByTagName('g');
if (edges && edges.length) {
  for (var i=0;i<edges.length;i++) {
    if (edges[i].id.substr(0,4)=='edge') {
      edges[i].setAttribute('class','edge');
    }
  }
}
]]></script>
        <defs>
                <circle id="rim" cx="0" cy="0" r="7"/>
                <circle id="rim2" cx="0" cy="0" r="3.5"/>
                <g id="zoomPlus">
                        <use xlink:href="#rim" fill="#404040">
                                <set attributeName="fill" to="#808080" begin="zoomplus.mouseover" end="zoomplus.mouseout"/>
                        </use>
                        <path d="M-4,0h8M0,-4v8" fill="none" stroke="white" stroke-width="1.5" pointer-events="none"/>
                </g>
                <g id="zoomMin">
                        <use xlink:href="#rim" fill="#404040">
                                <set attributeName="fill" to="#808080" begin="zoomminus.mouseover" end="zoomminus.mouseout"/>
                        </use>
                        <path d="M-4,0h8" fill="none" stroke="white" stroke-width="1.5" pointer-events="none"/>
                </g>
                <g id="dirArrow">
                        <path fill="none" stroke="white" stroke-width="1.5" d="M0,-3.0v7 M-2.5,-0.5L0,-3.0L2.5,-0.5"/>
                </g>
               <g id="resetDef">
                       <use xlink:href="#rim2" fill="#404040">
                               <set attributeName="fill" to="#808080" begin="reset.mouseover" end="reset.mouseout"/>
                       </use>
               </g>
        </defs>

<script type="text/javascript">
var viewWidth = 539;
var viewHeight = 408;
var sectionId = 'dynsection-1';
</script>
<script xlink:href="svgpan.js"/>
<svg id="graph" class="graph">
<g id="viewport">
<title>src/graphics/mesh/ebo.h</title>
<polygon fill="white" stroke="transparent" points="-4,4 -4,-404 535,-404 535,4 -4,4"/>
<!-- Node1 -->
<g id="node1" class="node">
<title>Node1</title>
<g id="a_node1"><a xlink:title=" ">
<polygon fill="#bfbfbf" stroke="black" points="144,-380.5 144,-399.5 279,-399.5 279,-380.5 144,-380.5"/>
<text text-anchor="middle" x="211.5" y="-387.5" font-family="Helvetica,sans-Serif" font-size="10.00">src/graphics/mesh/ebo.h</text>
</a>
</g>
</g>
<!-- Node2 -->
<g id="node2" class="node">
<title>Node2</title>
<g id="a_node2"><a xlink:href="vao_8h.html" target="_top" xlink:title=" ">
<polygon fill="white" stroke="black" points="144,-324.5 144,-343.5 279,-343.5 279,-324.5 144,-324.5"/>
<text text-anchor="middle" x="211.5" y="-331.5" font-family="Helvetica,sans-Serif" font-size="10.00">src/graphics/mesh/vao.h</text>
</a>
</g>
</g>
<!-- Node1&#45;&gt;Node2 -->
<g id="edge1" class="edge">
<title>Node1&#45;&gt;Node2</title>
<path fill="none" stroke="midnightblue" d="M211.5,-369.8C211.5,-360.91 211.5,-350.78 211.5,-343.75"/>
<polygon fill="midnightblue" stroke="midnightblue" points="208,-370.08 211.5,-380.08 215,-370.08 208,-370.08"/>
</g>
<!-- Node3 -->
<g id="node3" class="node">
<title>Node3</title>
<g id="a_node3"><a xlink:href="mesh_8h.html" target="_top" xlink:title=" ">
<polygon fill="white" stroke="black" points="139.5,-268.5 139.5,-287.5 283.5,-287.5 283.5,-268.5 139.5,-268.5"/>
<text text-anchor="middle" x="211.5" y="-275.5" font-family="Helvetica,sans-Serif" font-size="10.00">src/graphics/mesh/mesh.h</text>
</a>
</g>
</g>
<!-- Node2&#45;&gt;Node3 -->
<g id="edge2" class="edge">
<title>Node2&#45;&gt;Node3</title>
<path fill="none" stroke="midnightblue" d="M211.5,-313.8C211.5,-304.91 211.5,-294.78 211.5,-287.75"/>
<polygon fill="midnightblue" stroke="midnightblue" points="208,-314.08 211.5,-324.08 215,-314.08 208,-314.08"/>
</g>
<!-- Node4 -->
<g id="node4" class="node">
<title>Node4</title>
<g id="a_node4"><a xlink:href="render__mesh_8h.html" target="_top" xlink:title=" ">
<polygon fill="white" stroke="black" points="153,-134.5 153,-164.5 276,-164.5 276,-134.5 153,-134.5"/>
<text text-anchor="start" x="161" y="-152.5" font-family="Helvetica,sans-Serif" font-size="10.00">src/component/render</text>
<text text-anchor="middle" x="214.5" y="-141.5" font-family="Helvetica,sans-Serif" font-size="10.00">_mesh.h</text>
</a>
</g>
</g>
<!-- Node3&#45;&gt;Node4 -->
<g id="edge3" class="edge">
<title>Node3&#45;&gt;Node4</title>
<path fill="none" stroke="midnightblue" d="M225.49,-260.37C231.35,-252.34 237.49,-242.24 240.5,-232 244.39,-218.78 243.74,-214.39 240.5,-201 237.34,-187.97 230.2,-174.53 224.2,-164.79"/>
<polygon fill="midnightblue" stroke="midnightblue" points="222.57,-258.42 219.17,-268.46 228.09,-262.73 222.57,-258.42"/>
</g>
<!-- Node10 -->
<g id="node10" class="node">
<title>Node10</title>
<g id="a_node10"><a xlink:href="skybox_8h.html" target="_top" xlink:title=" ">
<polygon fill="white" stroke="black" points="296,-201.5 296,-231.5 411,-231.5 411,-201.5 296,-201.5"/>
<text text-anchor="start" x="304" y="-219.5" font-family="Helvetica,sans-Serif" font-size="10.00">src/graphics/lighting</text>
<text text-anchor="middle" x="353.5" y="-208.5" font-family="Helvetica,sans-Serif" font-size="10.00">/skybox.h</text>
</a>
</g>
</g>
<!-- Node3&#45;&gt;Node10 -->
<g id="edge10" class="edge">
<title>Node3&#45;&gt;Node10</title>
<path fill="none" stroke="midnightblue" d="M241.12,-264.59C264.14,-254.94 296.09,-241.56 320.03,-231.52"/>
<polygon fill="midnightblue" stroke="midnightblue" points="239.72,-261.38 231.85,-268.48 242.42,-267.84 239.72,-261.38"/>
</g>
<!-- Node12 -->
<g id="node12" class="node">
<title>Node12</title>
<g id="a_node12"><a xlink:href="mesh__builder_8h.html" target="_top" xlink:title=" ">
<polygon fill="white" stroke="black" points="96,-201.5 96,-231.5 231,-231.5 231,-201.5 96,-201.5"/>
<text text-anchor="start" x="104" y="-219.5" font-family="Helvetica,sans-Serif" font-size="10.00">src/graphics/mesh/mesh</text>
<text text-anchor="middle" x="163.5" y="-208.5" font-family="Helvetica,sans-Serif" font-size="10.00">_builder.h</text>
</a>
</g>
</g>
<!-- Node3&#45;&gt;Node12 -->
<g id="edge15" class="edge">
<title>Node3&#45;&gt;Node12</title>
<path fill="none" stroke="midnightblue" d="M198.21,-260.53C190.86,-251.42 181.82,-240.21 174.81,-231.52"/>
<polygon fill="midnightblue" stroke="midnightblue" points="195.62,-262.89 204.62,-268.48 201.07,-258.49 195.62,-262.89"/>
</g>
<!-- Node13 -->
<g id="node13" class="node">
<title>Node13</title>
<g id="a_node13"><a xlink:href="mesh__manager_8h.html" target="_top" xlink:title=" ">
<polygon fill="white" stroke="black" points="0,-134.5 0,-164.5 135,-164.5 135,-134.5 0,-134.5"/>
<text text-anchor="start" x="8" y="-152.5" font-family="Helvetica,sans-Serif" font-size="10.00">src/graphics/mesh/mesh</text>
<text text-anchor="middle" x="67.5" y="-141.5" font-family="Helvetica,sans-Serif" font-size="10.00">_manager.h</text>
</a>
</g>
</g>
<!-- Node3&#45;&gt;Node13 -->
<g id="edge19" class="edge">
<title>Node3&#45;&gt;Node13</title>
<path fill="none" stroke="midnightblue" d="M144.39,-265.55C123.6,-258.93 102.29,-248.48 87.5,-232 70.66,-213.25 67.45,-182.62 67.13,-164.73"/>
<polygon fill="midnightblue" stroke="midnightblue" points="143.62,-268.97 154.2,-268.42 145.59,-262.25 143.62,-268.97"/>
</g>
<!-- Node5 -->
<g id="node5" class="node">
<title>Node5</title>
<g id="a_node5"><a xlink:href="game__scene_8cpp.html" target="_top" xlink:title=" ">
<polygon fill="white" stroke="black" points="69.5,-0.5 69.5,-30.5 193.5,-30.5 193.5,-0.5 69.5,-0.5"/>
<text text-anchor="start" x="77.5" y="-18.5" font-family="Helvetica,sans-Serif" font-size="10.00">src/game/scene/game</text>
<text text-anchor="middle" x="131.5" y="-7.5" font-family="Helvetica,sans-Serif" font-size="10.00">_scene.cpp</text>
</a>
</g>
</g>
<!-- Node4&#45;&gt;Node5 -->
<g id="edge4" class="edge">
<title>Node4&#45;&gt;Node5</title>
<path fill="none" stroke="midnightblue" d="M173.51,-129.35C160.9,-121.42 148.31,-111 140.5,-98 127.96,-77.13 128.16,-47.78 129.67,-30.59"/>
<polygon fill="midnightblue" stroke="midnightblue" points="171.78,-132.39 182.17,-134.43 175.32,-126.35 171.78,-132.39"/>
</g>
<!-- Node6 -->
<g id="node6" class="node">
<title>Node6</title>
<g id="a_node6"><a xlink:href="graphics__renderer_8h.html" target="_top" xlink:title=" ">
<polygon fill="white" stroke="black" points="320,-67.5 320,-97.5 439,-97.5 439,-67.5 320,-67.5"/>
<text text-anchor="start" x="328" y="-85.5" font-family="Helvetica,sans-Serif" font-size="10.00">src/graphics/renderer</text>
<text text-anchor="middle" x="379.5" y="-74.5" font-family="Helvetica,sans-Serif" font-size="10.00">/graphics_renderer.h</text>
</a>
</g>
</g>
<!-- Node4&#45;&gt;Node6 -->
<g id="edge5" class="edge">
<title>Node4&#45;&gt;Node6</title>
<path fill="none" stroke="midnightblue" d="M259.73,-130.68C286.19,-120.26 319.13,-107.28 343.77,-97.58"/>
<polygon fill="midnightblue" stroke="midnightblue" points="258.32,-127.47 250.3,-134.4 260.89,-133.99 258.32,-127.47"/>
</g>
<!-- Node9 -->
<g id="node9" class="node">
<title>Node9</title>
<g id="a_node9"><a xlink:href="scene_8cpp.html" target="_top" xlink:title=" ">
<polygon fill="white" stroke="black" points="149.5,-73 149.5,-92 263.5,-92 263.5,-73 149.5,-73"/>
<text text-anchor="middle" x="206.5" y="-80" font-family="Helvetica,sans-Serif" font-size="10.00">src/scene/scene.cpp</text>
</a>
</g>
</g>
<!-- Node4&#45;&gt;Node9 -->
<g id="edge9" class="edge">
<title>Node4&#45;&gt;Node9</title>
<path fill="none" stroke="midnightblue" d="M211.52,-124.25C210.13,-113.02 208.58,-100.38 207.57,-92.19"/>
<polygon fill="midnightblue" stroke="midnightblue" points="208.07,-124.9 212.76,-134.4 215.02,-124.04 208.07,-124.9"/>
</g>
<!-- Node6&#45;&gt;Node5 -->
<g id="edge7" class="edge">
<title>Node6&#45;&gt;Node5</title>
<path fill="none" stroke="midnightblue" d="M316.23,-64.92C275.76,-54.31 223.83,-40.7 185.34,-30.61"/>
<polygon fill="midnightblue" stroke="midnightblue" points="315.43,-68.33 325.99,-67.48 317.21,-61.55 315.43,-68.33"/>
</g>
<!-- Node7 -->
<g id="node7" class="node">
<title>Node7</title>
<g id="a_node7"><a xlink:href="application_8cpp.html" target="_top" xlink:title=" ">
<polygon fill="white" stroke="black" points="221,-6 221,-25 386,-25 386,-6 221,-6"/>
<text text-anchor="middle" x="303.5" y="-13" font-family="Helvetica,sans-Serif" font-size="10.00">src/application/application.cpp</text>
</a>
</g>
</g>
<!-- Node6&#45;&gt;Node7 -->
<g id="edge6" class="edge">
<title>Node6&#45;&gt;Node7</title>
<path fill="none" stroke="midnightblue" d="M355.15,-60.67C341.11,-48.67 324.22,-34.22 313.67,-25.19"/>
<polygon fill="midnightblue" stroke="midnightblue" points="353.13,-63.56 363.01,-67.4 357.68,-58.24 353.13,-63.56"/>
</g>
<!-- Node8 -->
<g id="node8" class="node">
<title>Node8</title>
<g id="a_node8"><a xlink:href="graphics__renderer_8cpp.html" target="_top" xlink:title=" ">
<polygon fill="white" stroke="black" points="404,-0.5 404,-30.5 531,-30.5 531,-0.5 404,-0.5"/>
<text text-anchor="start" x="412" y="-18.5" font-family="Helvetica,sans-Serif" font-size="10.00">src/graphics/renderer</text>
<text text-anchor="middle" x="467.5" y="-7.5" font-family="Helvetica,sans-Serif" font-size="10.00">/graphics_renderer.cpp</text>
</a>
</g>
</g>
<!-- Node6&#45;&gt;Node8 -->
<g id="edge8" class="edge">
<title>Node6&#45;&gt;Node8</title>
<path fill="none" stroke="midnightblue" d="M406.64,-61.45C420.18,-51.45 436.23,-39.6 448.44,-30.58"/>
<polygon fill="midnightblue" stroke="midnightblue" points="404.56,-58.64 398.59,-67.4 408.72,-64.27 404.56,-58.64"/>
</g>
<!-- Node11 -->
<g id="node11" class="node">
<title>Node11</title>
<g id="a_node11"><a xlink:href="camera_8h.html" target="_top" xlink:title=" ">
<polygon fill="white" stroke="black" points="294,-140 294,-159 431,-159 431,-140 294,-140"/>
<text text-anchor="middle" x="362.5" y="-147" font-family="Helvetica,sans-Serif" font-size="10.00">src/component/camera.h</text>
</a>
</g>
</g>
<!-- Node10&#45;&gt;Node11 -->
<g id="edge11" class="edge">
<title>Node10&#45;&gt;Node11</title>
<path fill="none" stroke="midnightblue" d="M356.86,-191.25C358.41,-180.02 360.16,-167.38 361.3,-159.19"/>
<polygon fill="midnightblue" stroke="midnightblue" points="353.36,-191.01 355.45,-201.4 360.29,-191.97 353.36,-191.01"/>
</g>
<!-- Node11&#45;&gt;Node5 -->
<g id="edge12" class="edge">
<title>Node11&#45;&gt;Node5</title>
<path fill="none" stroke="midnightblue" d="M346.45,-132.55C325.17,-111.66 288.45,-76.56 272.5,-67 245.74,-50.96 213.08,-38.86 185.94,-30.53"/>
<polygon fill="midnightblue" stroke="midnightblue" points="344.2,-135.25 353.78,-139.78 349.12,-130.27 344.2,-135.25"/>
</g>
<!-- Node11&#45;&gt;Node6 -->
<g id="edge13" class="edge">
<title>Node11&#45;&gt;Node6</title>
<path fill="none" stroke="midnightblue" d="M367.41,-129.74C370.09,-119.49 373.35,-107 375.82,-97.59"/>
<polygon fill="midnightblue" stroke="midnightblue" points="363.94,-129.17 364.79,-139.73 370.71,-130.94 363.94,-129.17"/>
</g>
<!-- Node11&#45;&gt;Node9 -->
<g id="edge14" class="edge">
<title>Node11&#45;&gt;Node9</title>
<path fill="none" stroke="midnightblue" d="M332.38,-135.95C301.49,-123.08 254.27,-103.4 227.3,-92.17"/>
<polygon fill="midnightblue" stroke="midnightblue" points="331.21,-139.25 341.78,-139.87 333.9,-132.79 331.21,-139.25"/>
</g>
<!-- Node12&#45;&gt;Node8 -->
<g id="edge18" class="edge">
<title>Node12&#45;&gt;Node8</title>
<path fill="none" stroke="midnightblue" d="M241.47,-205.87C318.37,-195.65 426.44,-179.06 440.5,-165 476.99,-128.49 473.31,-60.23 469.67,-30.71"/>
<polygon fill="midnightblue" stroke="midnightblue" points="240.76,-202.43 231.31,-207.21 241.68,-209.37 240.76,-202.43"/>
</g>
<!-- Node12&#45;&gt;Node13 -->
<g id="edge16" class="edge">
<title>Node12&#45;&gt;Node13</title>
<path fill="none" stroke="midnightblue" d="M134.31,-195.73C119.45,-185.68 101.74,-173.68 88.29,-164.58"/>
<polygon fill="midnightblue" stroke="midnightblue" points="132.43,-198.69 142.67,-201.4 136.35,-192.89 132.43,-198.69"/>
</g>
<!-- Node13&#45;&gt;Node5 -->
<g id="edge17" class="edge">
<title>Node13&#45;&gt;Node5</title>
<path fill="none" stroke="midnightblue" d="M78.84,-125.12C92.14,-97.68 113.76,-53.09 124.7,-30.52"/>
<polygon fill="midnightblue" stroke="midnightblue" points="75.56,-123.85 74.35,-134.37 81.86,-126.9 75.56,-123.85"/>
</g>
</g>
</svg>
        <g id="navigator" transform="translate(0 0)" fill="#404254">
                <rect fill="#f2f5e9" fill-opacity="0.5" stroke="#606060" stroke-width=".5" x="0" y="0" width="60" height="60"/>
                <use id="zoomplus" xlink:href="#zoomPlus" x="17" y="9" onmousedown="handleZoom(evt,'in')"/>
                <use id="zoomminus" xlink:href="#zoomMin" x="42" y="9" onmousedown="handleZoom(evt,'out')"/>
                <use id="reset" xlink:href="#resetDef" x="30" y="36" onmousedown="handleReset()"/>
                <g id="arrowUp" xlink:href="#dirArrow" transform="translate(30 24)" onmousedown="handlePan(0,-1)">
                  <use xlink:href="#rim" fill="#404040">
                        <set attributeName="fill" to="#808080" begin="arrowUp.mouseover" end="arrowUp.mouseout"/>
                  </use>
                  <path fill="none" stroke="white" stroke-width="1.5" d="M0,-3.0v7 M-2.5,-0.5L0,-3.0L2.5,-0.5"/>
                </g>
                <g id="arrowRight" xlink:href="#dirArrow" transform="rotate(90) translate(36 -43)" onmousedown="handlePan(1,0)">
                  <use xlink:href="#rim" fill="#404040">
                        <set attributeName="fill" to="#808080" begin="arrowRight.mouseover" end="arrowRight.mouseout"/>
                  </use>
                  <path fill="none" stroke="white" stroke-width="1.5" d="M0,-3.0v7 M-2.5,-0.5L0,-3.0L2.5,-0.5"/>
                </g>
                <g id="arrowDown" xlink:href="#dirArrow" transform="rotate(180) translate(-30 -48)" onmousedown="handlePan(0,1)">
                  <use xlink:href="#rim" fill="#404040">
                        <set attributeName="fill" to="#808080" begin="arrowDown.mouseover" end="arrowDown.mouseout"/>
                  </use>
                  <path fill="none" stroke="white" stroke-width="1.5" d="M0,-3.0v7 M-2.5,-0.5L0,-3.0L2.5,-0.5"/>
                </g>
                <g id="arrowLeft" xlink:href="#dirArrow" transform="rotate(270) translate(-36 17)" onmousedown="handlePan(-1,0)">
                  <use xlink:href="#rim" fill="#404040">
                        <set attributeName="fill" to="#808080" begin="arrowLeft.mouseover" end="arrowLeft.mouseout"/>
                  </use>
                  <path fill="none" stroke="white" stroke-width="1.5" d="M0,-3.0v7 M-2.5,-0.5L0,-3.0L2.5,-0.5"/>
                </g>
        </g>
        <svg viewBox="0 0 15 15" width="100%" height="30px" preserveAspectRatio="xMaxYMin meet">
         <g id="arrow_out" transform="scale(0.3 0.3)">
          <a xlink:href="ebo_8h__dep__incl_org.svg" target="_base">
           <rect id="button" ry="5" rx="5" y="6" x="6" height="38" width="38"
                fill="#f2f5e9" fill-opacity="0.5" stroke="#606060" stroke-width="1.0"/>
           <path id="arrow"
             d="M 11.500037,31.436501 C 11.940474,20.09759 22.043105,11.32322 32.158766,21.979434 L 37.068811,17.246167 C 37.068811,17.246167 37.088388,32 37.088388,32 L 22.160133,31.978069 C 22.160133,31.978069 26.997745,27.140456 26.997745,27.140456 C 18.528582,18.264221 13.291696,25.230495 11.500037,31.436501 z"
             style="fill:#404040;"/>
          </a>
         </g>
        </svg>
</svg>
