<?xml version="1.0" encoding="UTF-8" standalone="no"?>
<!DOCTYPE svg PUBLIC "-//W3C//DTD SVG 1.1//EN"
 "http://www.w3.org/Graphics/SVG/1.1/DTD/svg11.dtd">
<!-- Generated by graphviz version 2.43.0 (0)
 -->
<!-- Title: src/event/event_listener.h Pages: 1 -->
<svg width="326pt" height="84pt"
 viewBox="0.00 0.00 325.50 84.00" xmlns="http://www.w3.org/2000/svg" xmlns:xlink="http://www.w3.org/1999/xlink">
<g id="graph0" class="graph" transform="scale(1 1) rotate(0) translate(4 80)">
<title>src/event/event_listener.h</title>
<polygon fill="white" stroke="transparent" points="-4,4 -4,-80 321.5,-80 321.5,4 -4,4"/>
<!-- Node1 -->
<g id="node1" class="node">
<title>Node1</title>
<g id="a_node1"><a xlink:title=" ">
<polygon fill="#bfbfbf" stroke="black" points="83,-56.5 83,-75.5 226,-75.5 226,-56.5 83,-56.5"/>
<text text-anchor="middle" x="154.5" y="-63.5" font-family="Helvetica,sans-Serif" font-size="10.00">src/event/event_listener.h</text>
</a>
</g>
</g>
<!-- Node2 -->
<g id="node2" class="node">
<title>Node2</title>
<g id="a_node2"><a xlink:title=" ">
<polygon fill="white" stroke="#bfbfbf" points="0,-0.5 0,-19.5 65,-19.5 65,-0.5 0,-0.5"/>
<text text-anchor="middle" x="32.5" y="-7.5" font-family="Helvetica,sans-Serif" font-size="10.00">functional</text>
</a>
</g>
</g>
<!-- Node1&#45;&gt;Node2 -->
<g id="edge1" class="edge">
<title>Node1&#45;&gt;Node2</title>
<path fill="none" stroke="midnightblue" d="M135.17,-56.44C115.18,-47.6 83.76,-33.69 60.94,-23.59"/>
<polygon fill="midnightblue" stroke="midnightblue" points="62.3,-20.36 51.74,-19.52 59.47,-26.76 62.3,-20.36"/>
</g>
<!-- Node3 -->
<g id="node3" class="node">
<title>Node3</title>
<g id="a_node3"><a xlink:title=" ">
<polygon fill="white" stroke="#bfbfbf" points="83,-0.5 83,-19.5 152,-19.5 152,-0.5 83,-0.5"/>
<text text-anchor="middle" x="117.5" y="-7.5" font-family="Helvetica,sans-Serif" font-size="10.00">type_traits</text>
</a>
</g>
</g>
<!-- Node1&#45;&gt;Node3 -->
<g id="edge2" class="edge">
<title>Node1&#45;&gt;Node3</title>
<path fill="none" stroke="midnightblue" d="M148.39,-56.08C143.22,-48.53 135.65,-37.49 129.31,-28.23"/>
<polygon fill="midnightblue" stroke="midnightblue" points="132.04,-26.02 123.5,-19.75 126.26,-29.98 132.04,-26.02"/>
</g>
<!-- Node4 -->
<g id="node4" class="node">
<title>Node4</title>
<g id="a_node4"><a xlink:title=" ">
<polygon fill="white" stroke="#bfbfbf" points="170,-0.5 170,-19.5 215,-19.5 215,-0.5 170,-0.5"/>
<text text-anchor="middle" x="192.5" y="-7.5" font-family="Helvetica,sans-Serif" font-size="10.00">utility</text>
</a>
</g>
</g>
<!-- Node1&#45;&gt;Node4 -->
<g id="edge3" class="edge">
<title>Node1&#45;&gt;Node4</title>
<path fill="none" stroke="midnightblue" d="M160.77,-56.08C166.14,-48.46 174.02,-37.26 180.58,-27.94"/>
<polygon fill="midnightblue" stroke="midnightblue" points="183.45,-29.94 186.34,-19.75 177.72,-25.91 183.45,-29.94"/>
</g>
<!-- Node5 -->
<g id="node5" class="node">
<title>Node5</title>
<g id="a_node5"><a xlink:href="event_8h.html" target="_top" xlink:title=" ">
<polygon fill="white" stroke="black" points="233.5,-0.5 233.5,-19.5 317.5,-19.5 317.5,-0.5 233.5,-0.5"/>
<text text-anchor="middle" x="275.5" y="-7.5" font-family="Helvetica,sans-Serif" font-size="10.00">event/event.h</text>
</a>
</g>
</g>
<!-- Node1&#45;&gt;Node5 -->
<g id="edge4" class="edge">
<title>Node1&#45;&gt;Node5</title>
<path fill="none" stroke="midnightblue" d="M173.67,-56.44C193.41,-47.64 224.39,-33.81 246.99,-23.72"/>
<polygon fill="midnightblue" stroke="midnightblue" points="248.71,-26.79 256.42,-19.52 245.86,-20.4 248.71,-26.79"/>
</g>
</g>
</svg>
