<?xml version="1.0" encoding="UTF-8" standalone="no"?>
<!DOCTYPE svg PUBLIC "-//W3C//DTD SVG 1.1//EN"
 "http://www.w3.org/Graphics/SVG/1.1/DTD/svg11.dtd">
<!-- Generated by graphviz version 2.43.0 (0)
 -->
<!-- Title: src/event/event_dispatcher.h Pages: 1 -->
<svg width="715pt" height="140pt"
 viewBox="0.00 0.00 715.00 140.00" xmlns="http://www.w3.org/2000/svg" xmlns:xlink="http://www.w3.org/1999/xlink">
<g id="graph0" class="graph" transform="scale(1 1) rotate(0) translate(4 136)">
<title>src/event/event_dispatcher.h</title>
<polygon fill="white" stroke="transparent" points="-4,4 -4,-136 711,-136 711,4 -4,4"/>
<!-- Node1 -->
<g id="node1" class="node">
<title>Node1</title>
<g id="a_node1"><a xlink:title=" ">
<polygon fill="#bfbfbf" stroke="black" points="194.5,-112.5 194.5,-131.5 351.5,-131.5 351.5,-112.5 194.5,-112.5"/>
<text text-anchor="middle" x="273" y="-119.5" font-family="Helvetica,sans-Serif" font-size="10.00">src/event/event_dispatcher.h</text>
</a>
</g>
</g>
<!-- Node2 -->
<g id="node2" class="node">
<title>Node2</title>
<g id="a_node2"><a xlink:title=" ">
<polygon fill="white" stroke="#bfbfbf" points="0,-56.5 0,-75.5 58,-75.5 58,-56.5 0,-56.5"/>
<text text-anchor="middle" x="29" y="-63.5" font-family="Helvetica,sans-Serif" font-size="10.00">memory</text>
</a>
</g>
</g>
<!-- Node1&#45;&gt;Node2 -->
<g id="edge1" class="edge">
<title>Node1&#45;&gt;Node2</title>
<path fill="none" stroke="midnightblue" d="M233.08,-112.5C193.57,-104.03 131.12,-90.52 67.79,-76.15"/>
<polygon fill="midnightblue" stroke="midnightblue" points="68.56,-72.74 58.03,-73.93 67.01,-79.56 68.56,-72.74"/>
</g>
<!-- Node3 -->
<g id="node3" class="node">
<title>Node3</title>
<g id="a_node3"><a xlink:title=" ">
<polygon fill="white" stroke="#bfbfbf" points="76.5,-56.5 76.5,-75.5 169.5,-75.5 169.5,-56.5 76.5,-56.5"/>
<text text-anchor="middle" x="123" y="-63.5" font-family="Helvetica,sans-Serif" font-size="10.00">unordered_map</text>
</a>
</g>
</g>
<!-- Node1&#45;&gt;Node3 -->
<g id="edge2" class="edge">
<title>Node1&#45;&gt;Node3</title>
<path fill="none" stroke="midnightblue" d="M249.23,-112.44C224.11,-103.4 184.29,-89.06 156.1,-78.92"/>
<polygon fill="midnightblue" stroke="midnightblue" points="157.25,-75.61 146.66,-75.52 154.88,-82.2 157.25,-75.61"/>
</g>
<!-- Node4 -->
<g id="node4" class="node">
<title>Node4</title>
<g id="a_node4"><a xlink:title=" ">
<polygon fill="white" stroke="#bfbfbf" points="188,-56.5 188,-75.5 274,-75.5 274,-56.5 188,-56.5"/>
<text text-anchor="middle" x="231" y="-63.5" font-family="Helvetica,sans-Serif" font-size="10.00">unordered_set</text>
</a>
</g>
</g>
<!-- Node1&#45;&gt;Node4 -->
<g id="edge3" class="edge">
<title>Node1&#45;&gt;Node4</title>
<path fill="none" stroke="midnightblue" d="M266.06,-112.08C260.07,-104.38 251.25,-93.03 243.95,-83.65"/>
<polygon fill="midnightblue" stroke="midnightblue" points="246.71,-81.5 237.81,-75.75 241.18,-85.79 246.71,-81.5"/>
</g>
<!-- Node5 -->
<g id="node5" class="node">
<title>Node5</title>
<g id="a_node5"><a xlink:title=" ">
<polygon fill="white" stroke="#bfbfbf" points="292.5,-56.5 292.5,-75.5 339.5,-75.5 339.5,-56.5 292.5,-56.5"/>
<text text-anchor="middle" x="316" y="-63.5" font-family="Helvetica,sans-Serif" font-size="10.00">vector</text>
</a>
</g>
</g>
<!-- Node1&#45;&gt;Node5 -->
<g id="edge4" class="edge">
<title>Node1&#45;&gt;Node5</title>
<path fill="none" stroke="midnightblue" d="M280.1,-112.08C286.24,-104.38 295.27,-93.03 302.74,-83.65"/>
<polygon fill="midnightblue" stroke="midnightblue" points="305.54,-85.75 309.03,-75.75 300.06,-81.39 305.54,-85.75"/>
</g>
<!-- Node6 -->
<g id="node6" class="node">
<title>Node6</title>
<g id="a_node6"><a xlink:title=" ">
<polygon fill="white" stroke="#bfbfbf" points="357.5,-56.5 357.5,-75.5 464.5,-75.5 464.5,-56.5 357.5,-56.5"/>
<text text-anchor="middle" x="411" y="-63.5" font-family="Helvetica,sans-Serif" font-size="10.00">common/type_id.h</text>
</a>
</g>
</g>
<!-- Node1&#45;&gt;Node6 -->
<g id="edge5" class="edge">
<title>Node1&#45;&gt;Node6</title>
<path fill="none" stroke="midnightblue" d="M294.87,-112.44C317.78,-103.48 353.98,-89.31 379.87,-79.18"/>
<polygon fill="midnightblue" stroke="midnightblue" points="381.2,-82.42 389.24,-75.52 378.65,-75.9 381.2,-82.42"/>
</g>
<!-- Node7 -->
<g id="node7" class="node">
<title>Node7</title>
<g id="a_node7"><a xlink:href="event__listener_8h.html" target="_top" xlink:title=" ">
<polygon fill="white" stroke="black" points="482.5,-56.5 482.5,-75.5 607.5,-75.5 607.5,-56.5 482.5,-56.5"/>
<text text-anchor="middle" x="545" y="-63.5" font-family="Helvetica,sans-Serif" font-size="10.00">event/event_listener.h</text>
</a>
</g>
</g>
<!-- Node1&#45;&gt;Node7 -->
<g id="edge6" class="edge">
<title>Node1&#45;&gt;Node7</title>
<path fill="none" stroke="midnightblue" d="M316.1,-112.44C363.85,-102.96 440.86,-87.67 492.19,-77.48"/>
<polygon fill="midnightblue" stroke="midnightblue" points="492.98,-80.9 502.1,-75.52 491.61,-74.03 492.98,-80.9"/>
</g>
<!-- Node8 -->
<g id="node8" class="node">
<title>Node8</title>
<g id="a_node8"><a xlink:title=" ">
<polygon fill="white" stroke="#bfbfbf" points="389.5,-0.5 389.5,-19.5 454.5,-19.5 454.5,-0.5 389.5,-0.5"/>
<text text-anchor="middle" x="422" y="-7.5" font-family="Helvetica,sans-Serif" font-size="10.00">functional</text>
</a>
</g>
</g>
<!-- Node7&#45;&gt;Node8 -->
<g id="edge7" class="edge">
<title>Node7&#45;&gt;Node8</title>
<path fill="none" stroke="midnightblue" d="M525.51,-56.44C505.36,-47.6 473.68,-33.69 450.67,-23.59"/>
<polygon fill="midnightblue" stroke="midnightblue" points="451.96,-20.33 441.4,-19.52 449.15,-26.74 451.96,-20.33"/>
</g>
<!-- Node9 -->
<g id="node9" class="node">
<title>Node9</title>
<g id="a_node9"><a xlink:title=" ">
<polygon fill="white" stroke="#bfbfbf" points="472.5,-0.5 472.5,-19.5 541.5,-19.5 541.5,-0.5 472.5,-0.5"/>
<text text-anchor="middle" x="507" y="-7.5" font-family="Helvetica,sans-Serif" font-size="10.00">type_traits</text>
</a>
</g>
</g>
<!-- Node7&#45;&gt;Node9 -->
<g id="edge8" class="edge">
<title>Node7&#45;&gt;Node9</title>
<path fill="none" stroke="midnightblue" d="M538.73,-56.08C533.36,-48.46 525.48,-37.26 518.92,-27.94"/>
<polygon fill="midnightblue" stroke="midnightblue" points="521.78,-25.91 513.16,-19.75 516.05,-29.94 521.78,-25.91"/>
</g>
<!-- Node10 -->
<g id="node10" class="node">
<title>Node10</title>
<g id="a_node10"><a xlink:title=" ">
<polygon fill="white" stroke="#bfbfbf" points="559.5,-0.5 559.5,-19.5 604.5,-19.5 604.5,-0.5 559.5,-0.5"/>
<text text-anchor="middle" x="582" y="-7.5" font-family="Helvetica,sans-Serif" font-size="10.00">utility</text>
</a>
</g>
</g>
<!-- Node7&#45;&gt;Node10 -->
<g id="edge9" class="edge">
<title>Node7&#45;&gt;Node10</title>
<path fill="none" stroke="midnightblue" d="M551.11,-56.08C556.28,-48.53 563.85,-37.49 570.19,-28.23"/>
<polygon fill="midnightblue" stroke="midnightblue" points="573.24,-29.98 576,-19.75 567.46,-26.02 573.24,-29.98"/>
</g>
<!-- Node11 -->
<g id="node11" class="node">
<title>Node11</title>
<g id="a_node11"><a xlink:href="event_8h.html" target="_top" xlink:title=" ">
<polygon fill="white" stroke="black" points="623,-0.5 623,-19.5 707,-19.5 707,-0.5 623,-0.5"/>
<text text-anchor="middle" x="665" y="-7.5" font-family="Helvetica,sans-Serif" font-size="10.00">event/event.h</text>
</a>
</g>
</g>
<!-- Node7&#45;&gt;Node11 -->
<g id="edge10" class="edge">
<title>Node7&#45;&gt;Node11</title>
<path fill="none" stroke="midnightblue" d="M564.01,-56.44C583.59,-47.64 614.31,-33.81 636.73,-23.72"/>
<polygon fill="midnightblue" stroke="midnightblue" points="638.39,-26.81 646.07,-19.52 635.52,-20.43 638.39,-26.81"/>
</g>
</g>
</svg>
