<?xml version="1.0" encoding="UTF-8" standalone="no"?>
<!DOCTYPE svg PUBLIC "-//W3C//DTD SVG 1.1//EN"
 "http://www.w3.org/Graphics/SVG/1.1/DTD/svg11.dtd">
<!-- Generated by graphviz version 2.43.0 (0)
 -->
<!-- Title: src/event/event.h Pages: 1 -->
<!--zoomable 464 -->
<svg id="main" version="1.1" xmlns="http://www.w3.org/2000/svg" xmlns:xlink="http://www.w3.org/1999/xlink" xml:space="preserve" onload="init(evt)">
<style type="text/css"><![CDATA[
.edge:hover path { stroke: red; }
.edge:hover polygon { stroke: red; fill: red; }
]]></style>
<script type="text/javascript"><![CDATA[
var edges = document.getElementsByTagName('g');
if (edges && edges.length) {
  for (var i=0;i<edges.length;i++) {
    if (edges[i].id.substr(0,4)=='edge') {
      edges[i].setAttribute('class','edge');
    }
  }
}
]]></script>
        <defs>
                <circle id="rim" cx="0" cy="0" r="7"/>
                <circle id="rim2" cx="0" cy="0" r="3.5"/>
                <g id="zoomPlus">
                        <use xlink:href="#rim" fill="#404040">
                                <set attributeName="fill" to="#808080" begin="zoomplus.mouseover" end="zoomplus.mouseout"/>
                        </use>
                        <path d="M-4,0h8M0,-4v8" fill="none" stroke="white" stroke-width="1.5" pointer-events="none"/>
                </g>
                <g id="zoomMin">
                        <use xlink:href="#rim" fill="#404040">
                                <set attributeName="fill" to="#808080" begin="zoomminus.mouseover" end="zoomminus.mouseout"/>
                        </use>
                        <path d="M-4,0h8" fill="none" stroke="white" stroke-width="1.5" pointer-events="none"/>
                </g>
                <g id="dirArrow">
                        <path fill="none" stroke="white" stroke-width="1.5" d="M0,-3.0v7 M-2.5,-0.5L0,-3.0L2.5,-0.5"/>
                </g>
               <g id="resetDef">
                       <use xlink:href="#rim2" fill="#404040">
                               <set attributeName="fill" to="#808080" begin="reset.mouseover" end="reset.mouseout"/>
                       </use>
               </g>
        </defs>

<script type="text/javascript">
var viewWidth = 1115;
var viewHeight = 464;
var sectionId = 'dynsection-0';
</script>
<script xlink:href="svgpan.js"/>
<svg id="graph" class="graph">
<g id="viewport">
<title>src/event/event.h</title>
<polygon fill="white" stroke="transparent" points="-4,4 -4,-460 1110.5,-460 1110.5,4 -4,4"/>
<!-- Node1 -->
<g id="node1" class="node">
<title>Node1</title>
<g id="a_node1"><a xlink:title=" ">
<polygon fill="#bfbfbf" stroke="black" points="128.5,-436.5 128.5,-455.5 229.5,-455.5 229.5,-436.5 128.5,-436.5"/>
<text text-anchor="middle" x="179" y="-443.5" font-family="Helvetica,sans-Serif" font-size="10.00">src/event/event.h</text>
</a>
</g>
</g>
<!-- Node2 -->
<g id="node2" class="node">
<title>Node2</title>
<g id="a_node2"><a xlink:href="event__listener_8h.html" target="_top" xlink:title=" ">
<polygon fill="white" stroke="black" points="57.5,-380.5 57.5,-399.5 200.5,-399.5 200.5,-380.5 57.5,-380.5"/>
<text text-anchor="middle" x="129" y="-387.5" font-family="Helvetica,sans-Serif" font-size="10.00">src/event/event_listener.h</text>
</a>
</g>
</g>
<!-- Node1&#45;&gt;Node2 -->
<g id="edge1" class="edge">
<title>Node1&#45;&gt;Node2</title>
<path fill="none" stroke="midnightblue" d="M163.92,-428.72C155.11,-419.2 144.33,-407.56 137.1,-399.75"/>
<polygon fill="midnightblue" stroke="midnightblue" points="161.38,-431.12 170.74,-436.08 166.52,-426.37 161.38,-431.12"/>
</g>
<!-- Node23 -->
<g id="node23" class="node">
<title>Node23</title>
<g id="a_node23"><a xlink:href="input__event_8h.html" target="_top" xlink:title=" ">
<polygon fill="white" stroke="black" points="224,-324.5 224,-343.5 352,-343.5 352,-324.5 224,-324.5"/>
<text text-anchor="middle" x="288" y="-331.5" font-family="Helvetica,sans-Serif" font-size="10.00">src/input/input_event.h</text>
</a>
</g>
</g>
<!-- Node1&#45;&gt;Node23 -->
<g id="edge33" class="edge">
<title>Node1&#45;&gt;Node23</title>
<path fill="none" stroke="midnightblue" d="M194.65,-429.21C218.01,-405.63 261.22,-362.03 279.49,-343.59"/>
<polygon fill="midnightblue" stroke="midnightblue" points="192.11,-426.8 187.55,-436.37 197.08,-431.73 192.11,-426.8"/>
</g>
<!-- Node3 -->
<g id="node3" class="node">
<title>Node3</title>
<g id="a_node3"><a xlink:href="event__dispatcher_8h.html" target="_top" xlink:title=" ">
<polygon fill="white" stroke="black" points="446.5,-324.5 446.5,-343.5 603.5,-343.5 603.5,-324.5 446.5,-324.5"/>
<text text-anchor="middle" x="525" y="-331.5" font-family="Helvetica,sans-Serif" font-size="10.00">src/event/event_dispatcher.h</text>
</a>
</g>
</g>
<!-- Node2&#45;&gt;Node3 -->
<g id="edge2" class="edge">
<title>Node2&#45;&gt;Node3</title>
<path fill="none" stroke="midnightblue" d="M202.02,-379.04C276.82,-368.84 391.85,-353.16 462.55,-343.52"/>
<polygon fill="midnightblue" stroke="midnightblue" points="201.18,-375.62 191.75,-380.44 202.13,-382.56 201.18,-375.62"/>
</g>
<!-- Node12 -->
<g id="node12" class="node">
<title>Node12</title>
<g id="a_node12"><a xlink:href="body__control__system_8h.html" target="_top" xlink:title=" ">
<polygon fill="white" stroke="black" points="302,-134.5 302,-164.5 430,-164.5 430,-134.5 302,-134.5"/>
<text text-anchor="start" x="310" y="-152.5" font-family="Helvetica,sans-Serif" font-size="10.00">src/game/system/body</text>
<text text-anchor="middle" x="366" y="-141.5" font-family="Helvetica,sans-Serif" font-size="10.00">_control_system.h</text>
</a>
</g>
</g>
<!-- Node2&#45;&gt;Node12 -->
<g id="edge30" class="edge">
<title>Node2&#45;&gt;Node12</title>
<path fill="none" stroke="midnightblue" d="M124.5,-370.15C116.81,-332.83 105.76,-248.97 148,-201 153.21,-195.09 239.38,-176.38 301.8,-163.48"/>
<polygon fill="midnightblue" stroke="midnightblue" points="121.14,-371.15 126.72,-380.15 127.97,-369.63 121.14,-371.15"/>
</g>
<!-- Node15 -->
<g id="node15" class="node">
<title>Node15</title>
<g id="a_node15"><a xlink:href="head__control__system_8h.html" target="_top" xlink:title=" ">
<polygon fill="white" stroke="black" points="0,-134.5 0,-164.5 128,-164.5 128,-134.5 0,-134.5"/>
<text text-anchor="start" x="8" y="-152.5" font-family="Helvetica,sans-Serif" font-size="10.00">src/game/system/head</text>
<text text-anchor="middle" x="64" y="-141.5" font-family="Helvetica,sans-Serif" font-size="10.00">_control_system.h</text>
</a>
</g>
</g>
<!-- Node2&#45;&gt;Node15 -->
<g id="edge31" class="edge">
<title>Node2&#45;&gt;Node15</title>
<path fill="none" stroke="midnightblue" d="M105.22,-374.7C94.66,-367.01 83.24,-356.52 77,-344 46.67,-283.13 56.11,-197.84 61.44,-164.57"/>
<polygon fill="midnightblue" stroke="midnightblue" points="103.5,-377.77 113.74,-380.49 107.44,-371.98 103.5,-377.77"/>
</g>
<!-- Node16 -->
<g id="node16" class="node">
<title>Node16</title>
<g id="a_node16"><a xlink:href="motion__test__system_8h.html" target="_top" xlink:title=" ">
<polygon fill="white" stroke="black" points="146,-134.5 146,-164.5 284,-164.5 284,-134.5 146,-134.5"/>
<text text-anchor="start" x="154" y="-152.5" font-family="Helvetica,sans-Serif" font-size="10.00">src/game/system/motion</text>
<text text-anchor="middle" x="215" y="-141.5" font-family="Helvetica,sans-Serif" font-size="10.00">_test_system.h</text>
</a>
</g>
</g>
<!-- Node2&#45;&gt;Node16 -->
<g id="edge32" class="edge">
<title>Node2&#45;&gt;Node16</title>
<path fill="none" stroke="midnightblue" d="M121.07,-370.74C106.91,-335.11 81.74,-255.06 115,-201 125.6,-183.77 144.09,-172.21 162.31,-164.55"/>
<polygon fill="midnightblue" stroke="midnightblue" points="117.96,-372.4 125.03,-380.3 124.43,-369.72 117.96,-372.4"/>
</g>
<!-- Node4 -->
<g id="node4" class="node">
<title>Node4</title>
<g id="a_node4"><a xlink:href="sdl__message__pump_8h.html" target="_top" xlink:title=" ">
<polygon fill="white" stroke="black" points="993,-201.5 993,-231.5 1101,-231.5 1101,-201.5 993,-201.5"/>
<text text-anchor="start" x="1001" y="-219.5" font-family="Helvetica,sans-Serif" font-size="10.00">src/application/sdl</text>
<text text-anchor="middle" x="1047" y="-208.5" font-family="Helvetica,sans-Serif" font-size="10.00">_message_pump.h</text>
</a>
</g>
</g>
<!-- Node3&#45;&gt;Node4 -->
<g id="edge3" class="edge">
<title>Node3&#45;&gt;Node4</title>
<path fill="none" stroke="midnightblue" d="M598.31,-323.04C653.08,-315.07 729.61,-302.79 796,-288 869.12,-271.71 952.6,-247.02 1002.49,-231.6"/>
<polygon fill="midnightblue" stroke="midnightblue" points="597.75,-319.59 588.35,-324.48 598.75,-326.52 597.75,-319.59"/>
</g>
<!-- Node8 -->
<g id="node8" class="node">
<title>Node8</title>
<g id="a_node8"><a xlink:href="axis__handler_8h.html" target="_top" xlink:title=" ">
<polygon fill="white" stroke="black" points="341,-268.5 341,-287.5 473,-287.5 473,-268.5 341,-268.5"/>
<text text-anchor="middle" x="407" y="-275.5" font-family="Helvetica,sans-Serif" font-size="10.00">src/input/axis_handler.h</text>
</a>
</g>
</g>
<!-- Node3&#45;&gt;Node8 -->
<g id="edge7" class="edge">
<title>Node3&#45;&gt;Node8</title>
<path fill="none" stroke="midnightblue" d="M497.1,-320.23C475.03,-310.13 444.82,-296.31 425.61,-287.52"/>
<polygon fill="midnightblue" stroke="midnightblue" points="495.75,-323.46 506.3,-324.44 498.67,-317.1 495.75,-323.46"/>
</g>
<!-- Node17 -->
<g id="node17" class="node">
<title>Node17</title>
<g id="a_node17"><a xlink:href="button__handler_8h.html" target="_top" xlink:title=" ">
<polygon fill="white" stroke="black" points="491.5,-268.5 491.5,-287.5 634.5,-287.5 634.5,-268.5 491.5,-268.5"/>
<text text-anchor="middle" x="563" y="-275.5" font-family="Helvetica,sans-Serif" font-size="10.00">src/input/button_handler.h</text>
</a>
</g>
</g>
<!-- Node3&#45;&gt;Node17 -->
<g id="edge21" class="edge">
<title>Node3&#45;&gt;Node17</title>
<path fill="none" stroke="midnightblue" d="M537.06,-315.86C543.64,-306.5 551.51,-295.33 556.84,-287.75"/>
<polygon fill="midnightblue" stroke="midnightblue" points="534.17,-313.89 531.27,-324.08 539.89,-317.92 534.17,-313.89"/>
</g>
<!-- Node19 -->
<g id="node19" class="node">
<title>Node19</title>
<g id="a_node19"><a xlink:href="click__handler_8h.html" target="_top" xlink:title=" ">
<polygon fill="white" stroke="black" points="653,-268.5 653,-287.5 787,-287.5 787,-268.5 653,-268.5"/>
<text text-anchor="middle" x="720" y="-275.5" font-family="Helvetica,sans-Serif" font-size="10.00">src/input/click_handler.h</text>
</a>
</g>
</g>
<!-- Node3&#45;&gt;Node19 -->
<g id="edge24" class="edge">
<title>Node3&#45;&gt;Node19</title>
<path fill="none" stroke="midnightblue" d="M565.81,-321.7C602.61,-311.51 655.93,-296.74 689.25,-287.52"/>
<polygon fill="midnightblue" stroke="midnightblue" points="564.6,-318.4 555.9,-324.44 566.47,-325.15 564.6,-318.4"/>
</g>
<!-- Node21 -->
<g id="node21" class="node">
<title>Node21</title>
<g id="a_node21"><a xlink:href="motion__handler_8h.html" target="_top" xlink:title=" ">
<polygon fill="white" stroke="black" points="177,-268.5 177,-287.5 323,-287.5 323,-268.5 177,-268.5"/>
<text text-anchor="middle" x="250" y="-275.5" font-family="Helvetica,sans-Serif" font-size="10.00">src/input/motion_handler.h</text>
</a>
</g>
</g>
<!-- Node3&#45;&gt;Node21 -->
<g id="edge27" class="edge">
<title>Node3&#45;&gt;Node21</title>
<path fill="none" stroke="midnightblue" d="M471.39,-322.47C419.42,-312.27 341.56,-296.98 293.37,-287.52"/>
<polygon fill="midnightblue" stroke="midnightblue" points="470.94,-325.95 481.43,-324.44 472.29,-319.08 470.94,-325.95"/>
</g>
<!-- Node5 -->
<g id="node5" class="node">
<title>Node5</title>
<g id="a_node5"><a xlink:href="application_8cpp.html" target="_top" xlink:title=" ">
<polygon fill="white" stroke="black" points="520.5,-140 520.5,-159 685.5,-159 685.5,-140 520.5,-140"/>
<text text-anchor="middle" x="603" y="-147" font-family="Helvetica,sans-Serif" font-size="10.00">src/application/application.cpp</text>
</a>
</g>
</g>
<!-- Node4&#45;&gt;Node5 -->
<g id="edge4" class="edge">
<title>Node4&#45;&gt;Node5</title>
<path fill="none" stroke="midnightblue" d="M982.78,-200.91C911.17,-188.64 762.08,-169.89 673.25,-159"/>
<polygon fill="midnightblue" stroke="midnightblue" points="982.31,-204.39 992.77,-202.68 983.53,-197.49 982.31,-204.39"/>
</g>
<!-- Node6 -->
<g id="node6" class="node">
<title>Node6</title>
<g id="a_node6"><a xlink:href="sdl__message__pump_8cpp.html" target="_top" xlink:title=" ">
<polygon fill="white" stroke="black" points="987.5,-134.5 987.5,-164.5 1106.5,-164.5 1106.5,-134.5 987.5,-134.5"/>
<text text-anchor="start" x="995.5" y="-152.5" font-family="Helvetica,sans-Serif" font-size="10.00">src/application/sdl</text>
<text text-anchor="middle" x="1047" y="-141.5" font-family="Helvetica,sans-Serif" font-size="10.00">_message_pump.cpp</text>
</a>
</g>
</g>
<!-- Node4&#45;&gt;Node6 -->
<g id="edge5" class="edge">
<title>Node4&#45;&gt;Node6</title>
<path fill="none" stroke="midnightblue" d="M1047,-191.11C1047,-182.15 1047,-172.32 1047,-164.58"/>
<polygon fill="midnightblue" stroke="midnightblue" points="1043.5,-191.4 1047,-201.4 1050.5,-191.4 1043.5,-191.4"/>
</g>
<!-- Node7 -->
<g id="node7" class="node">
<title>Node7</title>
<g id="a_node7"><a xlink:href="input__manager_8cpp.html" target="_top" xlink:title=" ">
<polygon fill="white" stroke="black" points="740.5,-140 740.5,-159 895.5,-159 895.5,-140 740.5,-140"/>
<text text-anchor="middle" x="818" y="-147" font-family="Helvetica,sans-Serif" font-size="10.00">src/input/input_manager.cpp</text>
</a>
</g>
</g>
<!-- Node4&#45;&gt;Node7 -->
<g id="edge6" class="edge">
<title>Node4&#45;&gt;Node7</title>
<path fill="none" stroke="midnightblue" d="M987.71,-198.67C942.95,-185.97 883.4,-169.06 848.05,-159.03"/>
<polygon fill="midnightblue" stroke="midnightblue" points="987.02,-202.11 997.59,-201.48 988.93,-195.38 987.02,-202.11"/>
</g>
<!-- Node9 -->
<g id="node9" class="node">
<title>Node9</title>
<g id="a_node9"><a xlink:href="axis__handler_8cpp.html" target="_top" xlink:title=" ">
<polygon fill="white" stroke="black" points="333.5,-207 333.5,-226 476.5,-226 476.5,-207 333.5,-207"/>
<text text-anchor="middle" x="405" y="-214" font-family="Helvetica,sans-Serif" font-size="10.00">src/input/axis_handler.cpp</text>
</a>
</g>
</g>
<!-- Node8&#45;&gt;Node9 -->
<g id="edge8" class="edge">
<title>Node8&#45;&gt;Node9</title>
<path fill="none" stroke="midnightblue" d="M406.37,-258.32C406.01,-247.5 405.57,-234.4 405.29,-226.01"/>
<polygon fill="midnightblue" stroke="midnightblue" points="402.88,-258.6 406.71,-268.48 409.88,-258.36 402.88,-258.6"/>
</g>
<!-- Node10 -->
<g id="node10" class="node">
<title>Node10</title>
<g id="a_node10"><a xlink:href="input__manager_8h.html" target="_top" xlink:title=" ">
<polygon fill="white" stroke="black" points="494.5,-207 494.5,-226 637.5,-226 637.5,-207 494.5,-207"/>
<text text-anchor="middle" x="566" y="-214" font-family="Helvetica,sans-Serif" font-size="10.00">src/input/input_manager.h</text>
</a>
</g>
</g>
<!-- Node8&#45;&gt;Node10 -->
<g id="edge9" class="edge">
<title>Node8&#45;&gt;Node10</title>
<path fill="none" stroke="midnightblue" d="M439.25,-264.93C470.15,-253.37 516.01,-236.21 543.26,-226.01"/>
<polygon fill="midnightblue" stroke="midnightblue" points="437.92,-261.69 429.78,-268.48 440.37,-268.25 437.92,-261.69"/>
</g>
<!-- Node10&#45;&gt;Node5 -->
<g id="edge10" class="edge">
<title>Node10&#45;&gt;Node5</title>
<path fill="none" stroke="midnightblue" d="M575.94,-198.03C583.11,-185.45 592.47,-169.01 598.09,-159.13"/>
<polygon fill="midnightblue" stroke="midnightblue" points="572.9,-196.31 570.99,-206.73 578.98,-199.77 572.9,-196.31"/>
</g>
<!-- Node10&#45;&gt;Node7 -->
<g id="edge20" class="edge">
<title>Node10&#45;&gt;Node7</title>
<path fill="none" stroke="midnightblue" d="M609.02,-204.4C658.75,-191.58 739.55,-170.74 784.72,-159.08"/>
<polygon fill="midnightblue" stroke="midnightblue" points="608.01,-201.05 599.2,-206.94 609.76,-207.83 608.01,-201.05"/>
</g>
<!-- Node11 -->
<g id="node11" class="node">
<title>Node11</title>
<g id="a_node11"><a xlink:href="game__scene_8cpp.html" target="_top" xlink:title=" ">
<polygon fill="white" stroke="black" points="387,-0.5 387,-30.5 511,-30.5 511,-0.5 387,-0.5"/>
<text text-anchor="start" x="395" y="-18.5" font-family="Helvetica,sans-Serif" font-size="10.00">src/game/scene/game</text>
<text text-anchor="middle" x="449" y="-7.5" font-family="Helvetica,sans-Serif" font-size="10.00">_scene.cpp</text>
</a>
</g>
</g>
<!-- Node10&#45;&gt;Node11 -->
<g id="edge11" class="edge">
<title>Node10&#45;&gt;Node11</title>
<path fill="none" stroke="midnightblue" d="M546.34,-200.59C535.14,-191.31 521.49,-178.58 512,-165 480.87,-120.47 460.74,-58.15 452.82,-30.58"/>
<polygon fill="midnightblue" stroke="midnightblue" points="544.33,-203.45 554.32,-206.97 548.7,-197.99 544.33,-203.45"/>
</g>
<!-- Node10&#45;&gt;Node12 -->
<g id="edge12" class="edge">
<title>Node10&#45;&gt;Node12</title>
<path fill="none" stroke="midnightblue" d="M529.92,-203.77C496.01,-192.75 445.21,-176.24 409.16,-164.53"/>
<polygon fill="midnightblue" stroke="midnightblue" points="528.85,-207.11 539.44,-206.87 531.01,-200.45 528.85,-207.11"/>
</g>
<!-- Node10&#45;&gt;Node15 -->
<g id="edge16" class="edge">
<title>Node10&#45;&gt;Node15</title>
<path fill="none" stroke="midnightblue" d="M512.63,-205.24C503.75,-203.7 494.63,-202.23 486,-201 331.61,-179.08 291.2,-188.22 137,-165 134.06,-164.56 131.06,-164.08 128.03,-163.57"/>
<polygon fill="midnightblue" stroke="midnightblue" points="512.04,-208.69 522.5,-206.99 513.27,-201.8 512.04,-208.69"/>
</g>
<!-- Node10&#45;&gt;Node16 -->
<g id="edge18" class="edge">
<title>Node10&#45;&gt;Node16</title>
<path fill="none" stroke="midnightblue" d="M509.69,-205.1C454.49,-194.9 367.95,-178.9 293,-165 290.16,-164.47 287.25,-163.93 284.32,-163.39"/>
<polygon fill="midnightblue" stroke="midnightblue" points="509.16,-208.56 519.63,-206.93 510.43,-201.68 509.16,-208.56"/>
</g>
<!-- Node13 -->
<g id="node13" class="node">
<title>Node13</title>
<g id="a_node13"><a xlink:href="game__scene_8h.html" target="_top" xlink:title=" ">
<polygon fill="white" stroke="black" points="185,-67.5 185,-97.5 309,-97.5 309,-67.5 185,-67.5"/>
<text text-anchor="start" x="193" y="-85.5" font-family="Helvetica,sans-Serif" font-size="10.00">src/game/scene/game</text>
<text text-anchor="middle" x="247" y="-74.5" font-family="Helvetica,sans-Serif" font-size="10.00">_scene.h</text>
</a>
</g>
</g>
<!-- Node12&#45;&gt;Node13 -->
<g id="edge13" class="edge">
<title>Node12&#45;&gt;Node13</title>
<path fill="none" stroke="midnightblue" d="M331.35,-129.57C312.63,-119.35 289.91,-106.94 272.77,-97.58"/>
<polygon fill="midnightblue" stroke="midnightblue" points="329.72,-132.67 340.18,-134.4 333.08,-126.53 329.72,-132.67"/>
</g>
<!-- Node13&#45;&gt;Node11 -->
<g id="edge14" class="edge">
<title>Node13&#45;&gt;Node11</title>
<path fill="none" stroke="midnightblue" d="M300.68,-64.23C333.35,-53.71 374.57,-40.45 405.25,-30.58"/>
<polygon fill="midnightblue" stroke="midnightblue" points="299.28,-61 290.83,-67.4 301.42,-67.66 299.28,-61"/>
</g>
<!-- Node14 -->
<g id="node14" class="node">
<title>Node14</title>
<g id="a_node14"><a xlink:href="scene__manager_8cpp.html" target="_top" xlink:title=" ">
<polygon fill="white" stroke="black" points="166,-6 166,-25 328,-25 328,-6 166,-6"/>
<text text-anchor="middle" x="247" y="-13" font-family="Helvetica,sans-Serif" font-size="10.00">src/scene/scene_manager.cpp</text>
</a>
</g>
</g>
<!-- Node13&#45;&gt;Node14 -->
<g id="edge15" class="edge">
<title>Node13&#45;&gt;Node14</title>
<path fill="none" stroke="midnightblue" d="M247,-57.25C247,-46.02 247,-33.38 247,-25.19"/>
<polygon fill="midnightblue" stroke="midnightblue" points="243.5,-57.4 247,-67.4 250.5,-57.4 243.5,-57.4"/>
</g>
<!-- Node15&#45;&gt;Node13 -->
<g id="edge17" class="edge">
<title>Node15&#45;&gt;Node13</title>
<path fill="none" stroke="midnightblue" d="M113.4,-130.96C142.87,-120.48 179.81,-107.37 207.37,-97.58"/>
<polygon fill="midnightblue" stroke="midnightblue" points="111.96,-127.75 103.71,-134.4 114.3,-134.35 111.96,-127.75"/>
</g>
<!-- Node16&#45;&gt;Node13 -->
<g id="edge19" class="edge">
<title>Node16&#45;&gt;Node13</title>
<path fill="none" stroke="midnightblue" d="M226.43,-125.28C230.99,-116.02 236.09,-105.66 240.07,-97.58"/>
<polygon fill="midnightblue" stroke="midnightblue" points="223.22,-123.88 221.94,-134.4 229.5,-126.97 223.22,-123.88"/>
</g>
<!-- Node17&#45;&gt;Node10 -->
<g id="edge23" class="edge">
<title>Node17&#45;&gt;Node10</title>
<path fill="none" stroke="midnightblue" d="M563.94,-258.32C564.49,-247.5 565.15,-234.4 565.57,-226.01"/>
<polygon fill="midnightblue" stroke="midnightblue" points="560.44,-258.31 563.43,-268.48 567.43,-258.66 560.44,-258.31"/>
</g>
<!-- Node18 -->
<g id="node18" class="node">
<title>Node18</title>
<g id="a_node18"><a xlink:href="button__handler_8cpp.html" target="_top" xlink:title=" ">
<polygon fill="white" stroke="black" points="655.5,-207 655.5,-226 810.5,-226 810.5,-207 655.5,-207"/>
<text text-anchor="middle" x="733" y="-214" font-family="Helvetica,sans-Serif" font-size="10.00">src/input/button_handler.cpp</text>
</a>
</g>
</g>
<!-- Node17&#45;&gt;Node18 -->
<g id="edge22" class="edge">
<title>Node17&#45;&gt;Node18</title>
<path fill="none" stroke="midnightblue" d="M597.05,-265.08C630.09,-253.52 679.42,-236.25 708.69,-226.01"/>
<polygon fill="midnightblue" stroke="midnightblue" points="595.64,-261.87 587.36,-268.48 597.95,-268.48 595.64,-261.87"/>
</g>
<!-- Node19&#45;&gt;Node10 -->
<g id="edge26" class="edge">
<title>Node19&#45;&gt;Node10</title>
<path fill="none" stroke="midnightblue" d="M688.38,-264.78C658.45,-253.22 614.31,-236.16 588.02,-226.01"/>
<polygon fill="midnightblue" stroke="midnightblue" points="687.35,-268.14 697.94,-268.48 689.87,-261.61 687.35,-268.14"/>
</g>
<!-- Node20 -->
<g id="node20" class="node">
<title>Node20</title>
<g id="a_node20"><a xlink:href="click__handler_8cpp.html" target="_top" xlink:title=" ">
<polygon fill="white" stroke="black" points="829,-207 829,-226 975,-226 975,-207 829,-207"/>
<text text-anchor="middle" x="902" y="-214" font-family="Helvetica,sans-Serif" font-size="10.00">src/input/click_handler.cpp</text>
</a>
</g>
</g>
<!-- Node19&#45;&gt;Node20 -->
<g id="edge25" class="edge">
<title>Node19&#45;&gt;Node20</title>
<path fill="none" stroke="midnightblue" d="M756,-265.23C791.37,-253.67 844.5,-236.3 875.97,-226.01"/>
<polygon fill="midnightblue" stroke="midnightblue" points="754.49,-262.04 746.08,-268.48 756.67,-268.69 754.49,-262.04"/>
</g>
<!-- Node21&#45;&gt;Node10 -->
<g id="edge28" class="edge">
<title>Node21&#45;&gt;Node10</title>
<path fill="none" stroke="midnightblue" d="M305.14,-266.62C366.34,-255.09 463.95,-236.72 520.81,-226.01"/>
<polygon fill="midnightblue" stroke="midnightblue" points="304.45,-263.19 295.28,-268.48 305.75,-270.06 304.45,-263.19"/>
</g>
<!-- Node22 -->
<g id="node22" class="node">
<title>Node22</title>
<g id="a_node22"><a xlink:href="motion__handler_8cpp.html" target="_top" xlink:title=" ">
<polygon fill="white" stroke="black" points="157,-207 157,-226 315,-226 315,-207 157,-207"/>
<text text-anchor="middle" x="236" y="-214" font-family="Helvetica,sans-Serif" font-size="10.00">src/input/motion_handler.cpp</text>
</a>
</g>
</g>
<!-- Node21&#45;&gt;Node22 -->
<g id="edge29" class="edge">
<title>Node21&#45;&gt;Node22</title>
<path fill="none" stroke="midnightblue" d="M245.68,-258.66C243.12,-247.77 240,-234.49 238,-226.01"/>
<polygon fill="midnightblue" stroke="midnightblue" points="242.3,-259.54 247.99,-268.48 249.11,-257.94 242.3,-259.54"/>
</g>
<!-- Node23&#45;&gt;Node8 -->
<g id="edge35" class="edge">
<title>Node23&#45;&gt;Node8</title>
<path fill="none" stroke="midnightblue" d="M316.14,-320.23C338.4,-310.13 368.86,-296.31 388.23,-287.52"/>
<polygon fill="midnightblue" stroke="midnightblue" points="314.52,-317.12 306.86,-324.44 317.41,-323.5 314.52,-317.12"/>
</g>
<!-- Node23&#45;&gt;Node16 -->
<g id="edge34" class="edge">
<title>Node23&#45;&gt;Node16</title>
<path fill="none" stroke="midnightblue" d="M228.26,-321.62C206.92,-314.93 184.18,-304.43 168,-288 140.17,-259.73 130.3,-236.51 148,-201 155.86,-185.23 171.26,-173.08 185.31,-164.66"/>
<polygon fill="midnightblue" stroke="midnightblue" points="227.36,-325 237.94,-324.42 229.31,-318.28 227.36,-325"/>
</g>
<!-- Node23&#45;&gt;Node17 -->
<g id="edge36" class="edge">
<title>Node23&#45;&gt;Node17</title>
<path fill="none" stroke="midnightblue" d="M341.61,-322.47C393.58,-312.27 471.44,-296.98 519.63,-287.52"/>
<polygon fill="midnightblue" stroke="midnightblue" points="340.71,-319.08 331.57,-324.44 342.06,-325.95 340.71,-319.08"/>
</g>
<!-- Node23&#45;&gt;Node19 -->
<g id="edge37" class="edge">
<title>Node23&#45;&gt;Node19</title>
<path fill="none" stroke="midnightblue" d="M362.17,-323.73C443.9,-313.51 574.18,-297.23 652.95,-287.38"/>
<polygon fill="midnightblue" stroke="midnightblue" points="361.7,-320.26 352.21,-324.97 362.57,-327.21 361.7,-320.26"/>
</g>
<!-- Node23&#45;&gt;Node21 -->
<g id="edge38" class="edge">
<title>Node23&#45;&gt;Node21</title>
<path fill="none" stroke="midnightblue" d="M275.94,-315.86C269.36,-306.5 261.49,-295.33 256.16,-287.75"/>
<polygon fill="midnightblue" stroke="midnightblue" points="273.11,-317.92 281.73,-324.08 278.83,-313.89 273.11,-317.92"/>
</g>
</g>
</svg>
        <g id="navigator" transform="translate(0 0)" fill="#404254">
                <rect fill="#f2f5e9" fill-opacity="0.5" stroke="#606060" stroke-width=".5" x="0" y="0" width="60" height="60"/>
                <use id="zoomplus" xlink:href="#zoomPlus" x="17" y="9" onmousedown="handleZoom(evt,'in')"/>
                <use id="zoomminus" xlink:href="#zoomMin" x="42" y="9" onmousedown="handleZoom(evt,'out')"/>
                <use id="reset" xlink:href="#resetDef" x="30" y="36" onmousedown="handleReset()"/>
                <g id="arrowUp" xlink:href="#dirArrow" transform="translate(30 24)" onmousedown="handlePan(0,-1)">
                  <use xlink:href="#rim" fill="#404040">
                        <set attributeName="fill" to="#808080" begin="arrowUp.mouseover" end="arrowUp.mouseout"/>
                  </use>
                  <path fill="none" stroke="white" stroke-width="1.5" d="M0,-3.0v7 M-2.5,-0.5L0,-3.0L2.5,-0.5"/>
                </g>
                <g id="arrowRight" xlink:href="#dirArrow" transform="rotate(90) translate(36 -43)" onmousedown="handlePan(1,0)">
                  <use xlink:href="#rim" fill="#404040">
                        <set attributeName="fill" to="#808080" begin="arrowRight.mouseover" end="arrowRight.mouseout"/>
                  </use>
                  <path fill="none" stroke="white" stroke-width="1.5" d="M0,-3.0v7 M-2.5,-0.5L0,-3.0L2.5,-0.5"/>
                </g>
                <g id="arrowDown" xlink:href="#dirArrow" transform="rotate(180) translate(-30 -48)" onmousedown="handlePan(0,1)">
                  <use xlink:href="#rim" fill="#404040">
                        <set attributeName="fill" to="#808080" begin="arrowDown.mouseover" end="arrowDown.mouseout"/>
                  </use>
                  <path fill="none" stroke="white" stroke-width="1.5" d="M0,-3.0v7 M-2.5,-0.5L0,-3.0L2.5,-0.5"/>
                </g>
                <g id="arrowLeft" xlink:href="#dirArrow" transform="rotate(270) translate(-36 17)" onmousedown="handlePan(-1,0)">
                  <use xlink:href="#rim" fill="#404040">
                        <set attributeName="fill" to="#808080" begin="arrowLeft.mouseover" end="arrowLeft.mouseout"/>
                  </use>
                  <path fill="none" stroke="white" stroke-width="1.5" d="M0,-3.0v7 M-2.5,-0.5L0,-3.0L2.5,-0.5"/>
                </g>
        </g>
        <svg viewBox="0 0 15 15" width="100%" height="30px" preserveAspectRatio="xMaxYMin meet">
         <g id="arrow_out" transform="scale(0.3 0.3)">
          <a xlink:href="event_8h__dep__incl_org.svg" target="_base">
           <rect id="button" ry="5" rx="5" y="6" x="6" height="38" width="38"
                fill="#f2f5e9" fill-opacity="0.5" stroke="#606060" stroke-width="1.0"/>
           <path id="arrow"
             d="M 11.500037,31.436501 C 11.940474,20.09759 22.043105,11.32322 32.158766,21.979434 L 37.068811,17.246167 C 37.068811,17.246167 37.088388,32 37.088388,32 L 22.160133,31.978069 C 22.160133,31.978069 26.997745,27.140456 26.997745,27.140456 C 18.528582,18.264221 13.291696,25.230495 11.500037,31.436501 z"
             style="fill:#404040;"/>
          </a>
         </g>
        </svg>
</svg>
