<?xml version="1.0" encoding="UTF-8" standalone="no"?>
<!DOCTYPE svg PUBLIC "-//W3C//DTD SVG 1.1//EN"
 "http://www.w3.org/Graphics/SVG/1.1/DTD/svg11.dtd">
<!-- Generated by graphviz version 2.43.0 (0)
 -->
<!-- Title: src/util/file_util.h Pages: 1 -->
<svg width="371pt" height="229pt"
 viewBox="0.00 0.00 371.00 229.00" xmlns="http://www.w3.org/2000/svg" xmlns:xlink="http://www.w3.org/1999/xlink">
<g id="graph0" class="graph" transform="scale(1 1) rotate(0) translate(4 225)">
<title>src/util/file_util.h</title>
<polygon fill="white" stroke="transparent" points="-4,4 -4,-225 367,-225 367,4 -4,4"/>
<!-- Node1 -->
<g id="node1" class="node">
<title>Node1</title>
<g id="a_node1"><a xlink:title=" ">
<polygon fill="#bfbfbf" stroke="black" points="117.5,-201.5 117.5,-220.5 215.5,-220.5 215.5,-201.5 117.5,-201.5"/>
<text text-anchor="middle" x="166.5" y="-208.5" font-family="Helvetica,sans-Serif" font-size="10.00">src/util/file_util.h</text>
</a>
</g>
</g>
<!-- Node2 -->
<g id="node2" class="node">
<title>Node2</title>
<g id="a_node2"><a xlink:href="mesh__builder_8h.html" target="_top" xlink:title=" ">
<polygon fill="white" stroke="black" points="99,-134.5 99,-164.5 234,-164.5 234,-134.5 99,-134.5"/>
<text text-anchor="start" x="107" y="-152.5" font-family="Helvetica,sans-Serif" font-size="10.00">src/graphics/mesh/mesh</text>
<text text-anchor="middle" x="166.5" y="-141.5" font-family="Helvetica,sans-Serif" font-size="10.00">_builder.h</text>
</a>
</g>
</g>
<!-- Node1&#45;&gt;Node2 -->
<g id="edge1" class="edge">
<title>Node1&#45;&gt;Node2</title>
<path fill="none" stroke="midnightblue" d="M166.5,-191.23C166.5,-182.59 166.5,-172.5 166.5,-164.52"/>
<polygon fill="midnightblue" stroke="midnightblue" points="163,-191.48 166.5,-201.48 170,-191.48 163,-191.48"/>
</g>
<!-- Node3 -->
<g id="node3" class="node">
<title>Node3</title>
<g id="a_node3"><a xlink:href="mesh__manager_8h.html" target="_top" xlink:title=" ">
<polygon fill="white" stroke="black" points="0,-67.5 0,-97.5 135,-97.5 135,-67.5 0,-67.5"/>
<text text-anchor="start" x="8" y="-85.5" font-family="Helvetica,sans-Serif" font-size="10.00">src/graphics/mesh/mesh</text>
<text text-anchor="middle" x="67.5" y="-74.5" font-family="Helvetica,sans-Serif" font-size="10.00">_manager.h</text>
</a>
</g>
</g>
<!-- Node1&#45;&gt;Node3 -->
<g id="edge5" class="edge">
<title>Node1&#45;&gt;Node3</title>
<path fill="none" stroke="midnightblue" d="M132.69,-197.29C117.46,-189.98 100.48,-179.36 89.5,-165 74.19,-144.97 69.52,-115.07 68.11,-97.6"/>
<polygon fill="midnightblue" stroke="midnightblue" points="131.32,-200.51 141.87,-201.42 134.18,-194.13 131.32,-200.51"/>
</g>
<!-- Node6 -->
<g id="node6" class="node">
<title>Node6</title>
<g id="a_node6"><a xlink:href="shader__manager_8h.html" target="_top" xlink:title=" ">
<polygon fill="white" stroke="black" points="252,-134.5 252,-164.5 363,-164.5 363,-134.5 252,-134.5"/>
<text text-anchor="start" x="260" y="-152.5" font-family="Helvetica,sans-Serif" font-size="10.00">src/graphics/shader</text>
<text text-anchor="middle" x="307.5" y="-141.5" font-family="Helvetica,sans-Serif" font-size="10.00">/shader_manager.h</text>
</a>
</g>
</g>
<!-- Node1&#45;&gt;Node6 -->
<g id="edge6" class="edge">
<title>Node1&#45;&gt;Node6</title>
<path fill="none" stroke="midnightblue" d="M196.22,-197.46C219.05,-187.82 250.6,-174.51 274.27,-164.52"/>
<polygon fill="midnightblue" stroke="midnightblue" points="194.55,-194.36 186.7,-201.48 197.28,-200.81 194.55,-194.36"/>
</g>
<!-- Node2&#45;&gt;Node3 -->
<g id="edge2" class="edge">
<title>Node2&#45;&gt;Node3</title>
<path fill="none" stroke="midnightblue" d="M136.39,-128.73C121.08,-118.68 102.81,-106.68 88.94,-97.58"/>
<polygon fill="midnightblue" stroke="midnightblue" points="134.74,-131.83 145.02,-134.4 138.58,-125.98 134.74,-131.83"/>
</g>
<!-- Node5 -->
<g id="node5" class="node">
<title>Node5</title>
<g id="a_node5"><a xlink:href="graphics__renderer_8cpp.html" target="_top" xlink:title=" ">
<polygon fill="white" stroke="black" points="153,-67.5 153,-97.5 280,-97.5 280,-67.5 153,-67.5"/>
<text text-anchor="start" x="161" y="-85.5" font-family="Helvetica,sans-Serif" font-size="10.00">src/graphics/renderer</text>
<text text-anchor="middle" x="216.5" y="-74.5" font-family="Helvetica,sans-Serif" font-size="10.00">/graphics_renderer.cpp</text>
</a>
</g>
</g>
<!-- Node2&#45;&gt;Node5 -->
<g id="edge4" class="edge">
<title>Node2&#45;&gt;Node5</title>
<path fill="none" stroke="midnightblue" d="M183.46,-126.45C190.81,-116.9 199.19,-106 205.67,-97.58"/>
<polygon fill="midnightblue" stroke="midnightblue" points="180.67,-124.34 177.35,-134.4 186.22,-128.6 180.67,-124.34"/>
</g>
<!-- Node4 -->
<g id="node4" class="node">
<title>Node4</title>
<g id="a_node4"><a xlink:href="game__scene_8cpp.html" target="_top" xlink:title=" ">
<polygon fill="white" stroke="black" points="125.5,-0.5 125.5,-30.5 249.5,-30.5 249.5,-0.5 125.5,-0.5"/>
<text text-anchor="start" x="133.5" y="-18.5" font-family="Helvetica,sans-Serif" font-size="10.00">src/game/scene/game</text>
<text text-anchor="middle" x="187.5" y="-7.5" font-family="Helvetica,sans-Serif" font-size="10.00">_scene.cpp</text>
</a>
</g>
</g>
<!-- Node3&#45;&gt;Node4 -->
<g id="edge3" class="edge">
<title>Node3&#45;&gt;Node4</title>
<path fill="none" stroke="midnightblue" d="M102.44,-62.57C121.32,-52.35 144.23,-39.94 161.51,-30.58"/>
<polygon fill="midnightblue" stroke="midnightblue" points="100.66,-59.56 93.54,-67.4 104,-65.71 100.66,-59.56"/>
</g>
<!-- Node6&#45;&gt;Node4 -->
<g id="edge7" class="edge">
<title>Node6&#45;&gt;Node4</title>
<path fill="none" stroke="midnightblue" d="M307.17,-124.21C305.76,-106.64 301.32,-83.25 288.5,-67 275.14,-50.07 254.61,-38.37 235.55,-30.52"/>
<polygon fill="midnightblue" stroke="midnightblue" points="303.68,-124.47 307.71,-134.27 310.67,-124.1 303.68,-124.47"/>
</g>
</g>
</svg>
