<?xml version="1.0" encoding="UTF-8" standalone="no"?>
<!DOCTYPE svg PUBLIC "-//W3C//DTD SVG 1.1//EN"
 "http://www.w3.org/Graphics/SVG/1.1/DTD/svg11.dtd">
<!-- Generated by graphviz version 2.43.0 (0)
 -->
<!-- Title: src/graphics/shader/forward_shader.h Pages: 1 -->
<svg width="790pt" height="162pt"
 viewBox="0.00 0.00 790.00 162.00" xmlns="http://www.w3.org/2000/svg" xmlns:xlink="http://www.w3.org/1999/xlink">
<g id="graph0" class="graph" transform="scale(1 1) rotate(0) translate(4 158)">
<title>src/graphics/shader/forward_shader.h</title>
<polygon fill="white" stroke="transparent" points="-4,4 -4,-158 786,-158 786,4 -4,4"/>
<!-- Node1 -->
<g id="node1" class="node">
<title>Node1</title>
<g id="a_node1"><a xlink:title=" ">
<polygon fill="#bfbfbf" stroke="black" points="445.5,-123.5 445.5,-153.5 556.5,-153.5 556.5,-123.5 445.5,-123.5"/>
<text text-anchor="start" x="453.5" y="-141.5" font-family="Helvetica,sans-Serif" font-size="10.00">src/graphics/shader</text>
<text text-anchor="middle" x="501" y="-130.5" font-family="Helvetica,sans-Serif" font-size="10.00">/forward_shader.h</text>
</a>
</g>
</g>
<!-- Node2 -->
<g id="node2" class="node">
<title>Node2</title>
<g id="a_node2"><a xlink:href="shader__program_8h.html" target="_top" xlink:title=" ">
<polygon fill="white" stroke="black" points="269,-56.5 269,-86.5 399,-86.5 399,-56.5 269,-56.5"/>
<text text-anchor="start" x="277" y="-74.5" font-family="Helvetica,sans-Serif" font-size="10.00">graphics/shader/shader</text>
<text text-anchor="middle" x="334" y="-63.5" font-family="Helvetica,sans-Serif" font-size="10.00">_program.h</text>
</a>
</g>
</g>
<!-- Node1&#45;&gt;Node2 -->
<g id="edge1" class="edge">
<title>Node1&#45;&gt;Node2</title>
<path fill="none" stroke="midnightblue" d="M464.76,-123.4C439.82,-113.69 406.47,-100.71 379.7,-90.29"/>
<polygon fill="midnightblue" stroke="midnightblue" points="380.75,-86.94 370.17,-86.58 378.22,-93.47 380.75,-86.94"/>
</g>
<!-- Node11 -->
<g id="node11" class="node">
<title>Node11</title>
<g id="a_node11"><a xlink:href="lighting_8h.html" target="_top" xlink:title=" ">
<polygon fill="white" stroke="black" points="596,-62 596,-81 742,-81 742,-62 596,-62"/>
<text text-anchor="middle" x="669" y="-69" font-family="Helvetica,sans-Serif" font-size="10.00">graphics/lighting/lighting.h</text>
</a>
</g>
</g>
<!-- Node1&#45;&gt;Node11 -->
<g id="edge10" class="edge">
<title>Node1&#45;&gt;Node11</title>
<path fill="none" stroke="midnightblue" d="M537.45,-123.4C567.32,-111.84 609.15,-95.66 637.56,-84.66"/>
<polygon fill="midnightblue" stroke="midnightblue" points="638.95,-87.88 647.01,-81.01 636.42,-81.35 638.95,-87.88"/>
</g>
<!-- Node3 -->
<g id="node3" class="node">
<title>Node3</title>
<g id="a_node3"><a xlink:title=" ">
<polygon fill="white" stroke="#bfbfbf" points="0,-0.5 0,-19.5 58,-19.5 58,-0.5 0,-0.5"/>
<text text-anchor="middle" x="29" y="-7.5" font-family="Helvetica,sans-Serif" font-size="10.00">memory</text>
</a>
</g>
</g>
<!-- Node2&#45;&gt;Node3 -->
<g id="edge2" class="edge">
<title>Node2&#45;&gt;Node3</title>
<path fill="none" stroke="midnightblue" d="M268.82,-59.03C216.98,-49.71 142.38,-35.86 68.03,-20.14"/>
<polygon fill="midnightblue" stroke="midnightblue" points="68.52,-16.67 58.02,-18.02 67.07,-23.52 68.52,-16.67"/>
</g>
<!-- Node4 -->
<g id="node4" class="node">
<title>Node4</title>
<g id="a_node4"><a xlink:title=" ">
<polygon fill="white" stroke="#bfbfbf" points="76,-0.5 76,-19.5 120,-19.5 120,-0.5 76,-0.5"/>
<text text-anchor="middle" x="98" y="-7.5" font-family="Helvetica,sans-Serif" font-size="10.00">string</text>
</a>
</g>
</g>
<!-- Node2&#45;&gt;Node4 -->
<g id="edge3" class="edge">
<title>Node2&#45;&gt;Node4</title>
<path fill="none" stroke="midnightblue" d="M274.18,-56.45C235.53,-47.21 183.92,-34.58 130.05,-20.21"/>
<polygon fill="midnightblue" stroke="midnightblue" points="130.89,-16.81 120.32,-17.6 129.07,-23.57 130.89,-16.81"/>
</g>
<!-- Node5 -->
<g id="node5" class="node">
<title>Node5</title>
<g id="a_node5"><a xlink:title=" ">
<polygon fill="white" stroke="#bfbfbf" points="138.5,-0.5 138.5,-19.5 185.5,-19.5 185.5,-0.5 138.5,-0.5"/>
<text text-anchor="middle" x="162" y="-7.5" font-family="Helvetica,sans-Serif" font-size="10.00">vector</text>
</a>
</g>
</g>
<!-- Node2&#45;&gt;Node5 -->
<g id="edge4" class="edge">
<title>Node2&#45;&gt;Node5</title>
<path fill="none" stroke="midnightblue" d="M293.24,-56.4C263.33,-46.05 223.23,-32.18 195.25,-22.5"/>
<polygon fill="midnightblue" stroke="midnightblue" points="196.13,-19.1 185.54,-19.14 193.84,-25.72 196.13,-19.1"/>
</g>
<!-- Node6 -->
<g id="node6" class="node">
<title>Node6</title>
<g id="a_node6"><a xlink:title=" ">
<polygon fill="white" stroke="#bfbfbf" points="204,-0.5 204,-19.5 268,-19.5 268,-0.5 204,-0.5"/>
<text text-anchor="middle" x="236" y="-7.5" font-family="Helvetica,sans-Serif" font-size="10.00">GL/glew.h</text>
</a>
</g>
</g>
<!-- Node2&#45;&gt;Node6 -->
<g id="edge5" class="edge">
<title>Node2&#45;&gt;Node6</title>
<path fill="none" stroke="midnightblue" d="M310.78,-56.4C295.21,-46.95 274.8,-34.56 259.24,-25.11"/>
<polygon fill="midnightblue" stroke="midnightblue" points="260.62,-21.86 250.26,-19.66 256.99,-27.84 260.62,-21.86"/>
</g>
<!-- Node7 -->
<g id="node7" class="node">
<title>Node7</title>
<g id="a_node7"><a xlink:title=" ">
<polygon fill="white" stroke="#bfbfbf" points="624.5,-0.5 624.5,-19.5 713.5,-19.5 713.5,-0.5 624.5,-0.5"/>
<text text-anchor="middle" x="669" y="-7.5" font-family="Helvetica,sans-Serif" font-size="10.00">maths/colour.h</text>
</a>
</g>
</g>
<!-- Node2&#45;&gt;Node7 -->
<g id="edge6" class="edge">
<title>Node2&#45;&gt;Node7</title>
<path fill="none" stroke="midnightblue" d="M399.39,-58.89C462.03,-47.76 555.48,-31.16 614.28,-20.72"/>
<polygon fill="midnightblue" stroke="midnightblue" points="614.9,-24.16 624.13,-18.97 613.67,-17.27 614.9,-24.16"/>
</g>
<!-- Node8 -->
<g id="node8" class="node">
<title>Node8</title>
<g id="a_node8"><a xlink:title=" ">
<polygon fill="white" stroke="#bfbfbf" points="286,-0.5 286,-19.5 382,-19.5 382,-0.5 286,-0.5"/>
<text text-anchor="middle" x="334" y="-7.5" font-family="Helvetica,sans-Serif" font-size="10.00">maths/vector2.h</text>
</a>
</g>
</g>
<!-- Node2&#45;&gt;Node8 -->
<g id="edge7" class="edge">
<title>Node2&#45;&gt;Node8</title>
<path fill="none" stroke="midnightblue" d="M334,-56.4C334,-48.47 334,-38.46 334,-29.86"/>
<polygon fill="midnightblue" stroke="midnightblue" points="337.5,-29.66 334,-19.66 330.5,-29.66 337.5,-29.66"/>
</g>
<!-- Node9 -->
<g id="node9" class="node">
<title>Node9</title>
<g id="a_node9"><a xlink:title=" ">
<polygon fill="white" stroke="#bfbfbf" points="400,-0.5 400,-19.5 496,-19.5 496,-0.5 400,-0.5"/>
<text text-anchor="middle" x="448" y="-7.5" font-family="Helvetica,sans-Serif" font-size="10.00">maths/vector3.h</text>
</a>
</g>
</g>
<!-- Node2&#45;&gt;Node9 -->
<g id="edge8" class="edge">
<title>Node2&#45;&gt;Node9</title>
<path fill="none" stroke="midnightblue" d="M361.02,-56.4C379.63,-46.68 404.21,-33.86 422.49,-24.31"/>
<polygon fill="midnightblue" stroke="midnightblue" points="424.17,-27.39 431.41,-19.66 420.93,-21.18 424.17,-27.39"/>
</g>
<!-- Node10 -->
<g id="node10" class="node">
<title>Node10</title>
<g id="a_node10"><a xlink:title=" ">
<polygon fill="white" stroke="#bfbfbf" points="514,-0.5 514,-19.5 606,-19.5 606,-0.5 514,-0.5"/>
<text text-anchor="middle" x="560" y="-7.5" font-family="Helvetica,sans-Serif" font-size="10.00">maths/matrix.h</text>
</a>
</g>
</g>
<!-- Node2&#45;&gt;Node10 -->
<g id="edge9" class="edge">
<title>Node2&#45;&gt;Node10</title>
<path fill="none" stroke="midnightblue" d="M387.27,-56.47C427.11,-45.99 480.86,-31.84 517.75,-22.12"/>
<polygon fill="midnightblue" stroke="midnightblue" points="518.91,-25.44 527.69,-19.51 517.13,-18.67 518.91,-25.44"/>
</g>
<!-- Node11&#45;&gt;Node7 -->
<g id="edge12" class="edge">
<title>Node11&#45;&gt;Node7</title>
<path fill="none" stroke="midnightblue" d="M669,-61.98C669,-53.58 669,-40.48 669,-29.66"/>
<polygon fill="midnightblue" stroke="midnightblue" points="672.5,-29.51 669,-19.51 665.5,-29.51 672.5,-29.51"/>
</g>
<!-- Node12 -->
<g id="node12" class="node">
<title>Node12</title>
<g id="a_node12"><a xlink:title=" ">
<polygon fill="white" stroke="#bfbfbf" points="732,-0.5 732,-19.5 782,-19.5 782,-0.5 732,-0.5"/>
<text text-anchor="middle" x="757" y="-7.5" font-family="Helvetica,sans-Serif" font-size="10.00">cstdint</text>
</a>
</g>
</g>
<!-- Node11&#45;&gt;Node12 -->
<g id="edge11" class="edge">
<title>Node11&#45;&gt;Node12</title>
<path fill="none" stroke="midnightblue" d="M681.61,-61.98C695.72,-52.43 718.83,-36.81 735.75,-25.37"/>
<polygon fill="midnightblue" stroke="midnightblue" points="738.09,-28.01 744.42,-19.51 734.17,-22.21 738.09,-28.01"/>
</g>
</g>
</svg>
