<?xml version="1.0" encoding="UTF-8" standalone="no"?>
<!DOCTYPE svg PUBLIC "-//W3C//DTD SVG 1.1//EN"
 "http://www.w3.org/Graphics/SVG/1.1/DTD/svg11.dtd">
<!-- Generated by graphviz version 2.43.0 (0)
 -->
<!-- Title: src/graphics/framebuffer/framebuffer.h Pages: 1 -->
<svg width="1082pt" height="240pt"
 viewBox="0.00 0.00 1082.00 240.00" xmlns="http://www.w3.org/2000/svg" xmlns:xlink="http://www.w3.org/1999/xlink">
<g id="graph0" class="graph" transform="scale(1 1) rotate(0) translate(4 236)">
<title>src/graphics/framebuffer/framebuffer.h</title>
<polygon fill="white" stroke="transparent" points="-4,4 -4,-236 1078,-236 1078,4 -4,4"/>
<!-- Node1 -->
<g id="node1" class="node">
<title>Node1</title>
<g id="a_node1"><a xlink:title=" ">
<polygon fill="#bfbfbf" stroke="black" points="462,-201.5 462,-231.5 598,-231.5 598,-201.5 462,-201.5"/>
<text text-anchor="start" x="470" y="-219.5" font-family="Helvetica,sans-Serif" font-size="10.00">src/graphics/framebuffer</text>
<text text-anchor="middle" x="530" y="-208.5" font-family="Helvetica,sans-Serif" font-size="10.00">/framebuffer.h</text>
</a>
</g>
</g>
<!-- Node2 -->
<g id="node2" class="node">
<title>Node2</title>
<g id="a_node2"><a xlink:href="forward__buffer_8h.html" target="_top" xlink:title=" ">
<polygon fill="white" stroke="black" points="308,-134.5 308,-164.5 444,-164.5 444,-134.5 308,-134.5"/>
<text text-anchor="start" x="316" y="-152.5" font-family="Helvetica,sans-Serif" font-size="10.00">src/graphics/framebuffer</text>
<text text-anchor="middle" x="376" y="-141.5" font-family="Helvetica,sans-Serif" font-size="10.00">/forward_buffer.h</text>
</a>
</g>
</g>
<!-- Node1&#45;&gt;Node2 -->
<g id="edge1" class="edge">
<title>Node1&#45;&gt;Node2</title>
<path fill="none" stroke="midnightblue" d="M487.13,-197.41C462.55,-187.03 432.14,-174.2 409.35,-164.58"/>
<polygon fill="midnightblue" stroke="midnightblue" points="486.01,-200.73 496.58,-201.4 488.73,-194.28 486.01,-200.73"/>
</g>
<!-- Node7 -->
<g id="node7" class="node">
<title>Node7</title>
<g id="a_node7"><a xlink:href="framebuffer_8cpp.html" target="_top" xlink:title=" ">
<polygon fill="white" stroke="black" points="938,-134.5 938,-164.5 1074,-164.5 1074,-134.5 938,-134.5"/>
<text text-anchor="start" x="946" y="-152.5" font-family="Helvetica,sans-Serif" font-size="10.00">src/graphics/framebuffer</text>
<text text-anchor="middle" x="1006" y="-141.5" font-family="Helvetica,sans-Serif" font-size="10.00">/framebuffer.cpp</text>
</a>
</g>
</g>
<!-- Node1&#45;&gt;Node7 -->
<g id="edge6" class="edge">
<title>Node1&#45;&gt;Node7</title>
<path fill="none" stroke="midnightblue" d="M608.38,-206.99C688.98,-197.91 818.04,-182.45 929,-165 931.82,-164.56 934.7,-164.09 937.6,-163.6"/>
<polygon fill="midnightblue" stroke="midnightblue" points="607.85,-203.53 598.31,-208.12 608.63,-210.49 607.85,-203.53"/>
</g>
<!-- Node8 -->
<g id="node8" class="node">
<title>Node8</title>
<g id="a_node8"><a xlink:href="geometry__buffer_8h.html" target="_top" xlink:title=" ">
<polygon fill="white" stroke="black" points="0,-134.5 0,-164.5 136,-164.5 136,-134.5 0,-134.5"/>
<text text-anchor="start" x="8" y="-152.5" font-family="Helvetica,sans-Serif" font-size="10.00">src/graphics/framebuffer</text>
<text text-anchor="middle" x="68" y="-141.5" font-family="Helvetica,sans-Serif" font-size="10.00">/geometry_buffer.h</text>
</a>
</g>
</g>
<!-- Node1&#45;&gt;Node8 -->
<g id="edge7" class="edge">
<title>Node1&#45;&gt;Node8</title>
<path fill="none" stroke="midnightblue" d="M451.46,-206.5C373.52,-197.26 250.76,-181.88 145,-165 142.18,-164.55 139.3,-164.08 136.4,-163.59"/>
<polygon fill="midnightblue" stroke="midnightblue" points="451.34,-210.01 461.68,-207.7 452.16,-203.06 451.34,-210.01"/>
</g>
<!-- Node10 -->
<g id="node10" class="node">
<title>Node10</title>
<g id="a_node10"><a xlink:href="light__buffer_8h.html" target="_top" xlink:title=" ">
<polygon fill="white" stroke="black" points="154,-134.5 154,-164.5 290,-164.5 290,-134.5 154,-134.5"/>
<text text-anchor="start" x="162" y="-152.5" font-family="Helvetica,sans-Serif" font-size="10.00">src/graphics/framebuffer</text>
<text text-anchor="middle" x="222" y="-141.5" font-family="Helvetica,sans-Serif" font-size="10.00">/light_buffer.h</text>
</a>
</g>
</g>
<!-- Node1&#45;&gt;Node10 -->
<g id="edge10" class="edge">
<title>Node1&#45;&gt;Node10</title>
<path fill="none" stroke="midnightblue" d="M453.63,-199.38C402.97,-188.69 337.13,-174.8 288.6,-164.55"/>
<polygon fill="midnightblue" stroke="midnightblue" points="453.04,-202.84 463.55,-201.48 454.49,-195.99 453.04,-202.84"/>
</g>
<!-- Node12 -->
<g id="node12" class="node">
<title>Node12</title>
<g id="a_node12"><a xlink:href="post__proc__buffer_8h.html" target="_top" xlink:title=" ">
<polygon fill="white" stroke="black" points="784,-134.5 784,-164.5 920,-164.5 920,-134.5 784,-134.5"/>
<text text-anchor="start" x="792" y="-152.5" font-family="Helvetica,sans-Serif" font-size="10.00">src/graphics/framebuffer</text>
<text text-anchor="middle" x="852" y="-141.5" font-family="Helvetica,sans-Serif" font-size="10.00">/post_proc_buffer.h</text>
</a>
</g>
</g>
<!-- Node1&#45;&gt;Node12 -->
<g id="edge13" class="edge">
<title>Node1&#45;&gt;Node12</title>
<path fill="none" stroke="midnightblue" d="M608.11,-199.73C661.79,-188.9 732.39,-174.64 783.81,-164.26"/>
<polygon fill="midnightblue" stroke="midnightblue" points="607.4,-196.31 598.29,-201.72 608.78,-203.17 607.4,-196.31"/>
</g>
<!-- Node14 -->
<g id="node14" class="node">
<title>Node14</title>
<g id="a_node14"><a xlink:href="shadow__2d__buffer_8h.html" target="_top" xlink:title=" ">
<polygon fill="white" stroke="black" points="462,-134.5 462,-164.5 598,-164.5 598,-134.5 462,-134.5"/>
<text text-anchor="start" x="470" y="-152.5" font-family="Helvetica,sans-Serif" font-size="10.00">src/graphics/framebuffer</text>
<text text-anchor="middle" x="530" y="-141.5" font-family="Helvetica,sans-Serif" font-size="10.00">/shadow_2d_buffer.h</text>
</a>
</g>
</g>
<!-- Node1&#45;&gt;Node14 -->
<g id="edge16" class="edge">
<title>Node1&#45;&gt;Node14</title>
<path fill="none" stroke="midnightblue" d="M530,-191.11C530,-182.15 530,-172.32 530,-164.58"/>
<polygon fill="midnightblue" stroke="midnightblue" points="526.5,-191.4 530,-201.4 533.5,-191.4 526.5,-191.4"/>
</g>
<!-- Node15 -->
<g id="node15" class="node">
<title>Node15</title>
<g id="a_node15"><a xlink:href="shadow__cubemap__buffer_8h.html" target="_top" xlink:title=" ">
<polygon fill="white" stroke="black" points="616.5,-134.5 616.5,-164.5 765.5,-164.5 765.5,-134.5 616.5,-134.5"/>
<text text-anchor="start" x="624.5" y="-152.5" font-family="Helvetica,sans-Serif" font-size="10.00">src/graphics/framebuffer</text>
<text text-anchor="middle" x="691" y="-141.5" font-family="Helvetica,sans-Serif" font-size="10.00">/shadow_cubemap_buffer.h</text>
</a>
</g>
</g>
<!-- Node1&#45;&gt;Node15 -->
<g id="edge18" class="edge">
<title>Node1&#45;&gt;Node15</title>
<path fill="none" stroke="midnightblue" d="M574.48,-197.54C600.24,-187.14 632.2,-174.24 656.13,-164.58"/>
<polygon fill="midnightblue" stroke="midnightblue" points="572.9,-194.41 564.93,-201.4 575.52,-200.9 572.9,-194.41"/>
</g>
<!-- Node3 -->
<g id="node3" class="node">
<title>Node3</title>
<g id="a_node3"><a xlink:href="graphics__renderer_8h.html" target="_top" xlink:title=" ">
<polygon fill="white" stroke="black" points="393.5,-67.5 393.5,-97.5 512.5,-97.5 512.5,-67.5 393.5,-67.5"/>
<text text-anchor="start" x="401.5" y="-85.5" font-family="Helvetica,sans-Serif" font-size="10.00">src/graphics/renderer</text>
<text text-anchor="middle" x="453" y="-74.5" font-family="Helvetica,sans-Serif" font-size="10.00">/graphics_renderer.h</text>
</a>
</g>
</g>
<!-- Node2&#45;&gt;Node3 -->
<g id="edge2" class="edge">
<title>Node2&#45;&gt;Node3</title>
<path fill="none" stroke="midnightblue" d="M400.42,-127.88C412.12,-118.01 425.84,-106.43 436.32,-97.58"/>
<polygon fill="midnightblue" stroke="midnightblue" points="398.09,-125.27 392.71,-134.4 402.61,-130.62 398.09,-125.27"/>
</g>
<!-- Node4 -->
<g id="node4" class="node">
<title>Node4</title>
<g id="a_node4"><a xlink:href="application_8cpp.html" target="_top" xlink:title=" ">
<polygon fill="white" stroke="black" points="207.5,-6 207.5,-25 372.5,-25 372.5,-6 207.5,-6"/>
<text text-anchor="middle" x="290" y="-13" font-family="Helvetica,sans-Serif" font-size="10.00">src/application/application.cpp</text>
</a>
</g>
</g>
<!-- Node3&#45;&gt;Node4 -->
<g id="edge3" class="edge">
<title>Node3&#45;&gt;Node4</title>
<path fill="none" stroke="midnightblue" d="M408.17,-63.62C376.62,-51.04 335.81,-34.77 311.33,-25.01"/>
<polygon fill="midnightblue" stroke="midnightblue" points="407.05,-66.94 417.63,-67.4 409.64,-60.44 407.05,-66.94"/>
</g>
<!-- Node5 -->
<g id="node5" class="node">
<title>Node5</title>
<g id="a_node5"><a xlink:href="game__scene_8cpp.html" target="_top" xlink:title=" ">
<polygon fill="white" stroke="black" points="391,-0.5 391,-30.5 515,-30.5 515,-0.5 391,-0.5"/>
<text text-anchor="start" x="399" y="-18.5" font-family="Helvetica,sans-Serif" font-size="10.00">src/game/scene/game</text>
<text text-anchor="middle" x="453" y="-7.5" font-family="Helvetica,sans-Serif" font-size="10.00">_scene.cpp</text>
</a>
</g>
</g>
<!-- Node3&#45;&gt;Node5 -->
<g id="edge4" class="edge">
<title>Node3&#45;&gt;Node5</title>
<path fill="none" stroke="midnightblue" d="M453,-57.11C453,-48.15 453,-38.32 453,-30.58"/>
<polygon fill="midnightblue" stroke="midnightblue" points="449.5,-57.4 453,-67.4 456.5,-57.4 449.5,-57.4"/>
</g>
<!-- Node6 -->
<g id="node6" class="node">
<title>Node6</title>
<g id="a_node6"><a xlink:href="graphics__renderer_8cpp.html" target="_top" xlink:title=" ">
<polygon fill="white" stroke="black" points="533.5,-0.5 533.5,-30.5 660.5,-30.5 660.5,-0.5 533.5,-0.5"/>
<text text-anchor="start" x="541.5" y="-18.5" font-family="Helvetica,sans-Serif" font-size="10.00">src/graphics/renderer</text>
<text text-anchor="middle" x="597" y="-7.5" font-family="Helvetica,sans-Serif" font-size="10.00">/graphics_renderer.cpp</text>
</a>
</g>
</g>
<!-- Node3&#45;&gt;Node6 -->
<g id="edge5" class="edge">
<title>Node3&#45;&gt;Node6</title>
<path fill="none" stroke="midnightblue" d="M493.39,-63.27C516.32,-52.92 544.6,-40.15 565.82,-30.58"/>
<polygon fill="midnightblue" stroke="midnightblue" points="491.92,-60.09 484.25,-67.4 494.8,-66.47 491.92,-60.09"/>
</g>
<!-- Node8&#45;&gt;Node3 -->
<g id="edge9" class="edge">
<title>Node8&#45;&gt;Node3</title>
<path fill="none" stroke="midnightblue" d="M146.06,-133.84C238.17,-117.7 333.39,-102.35 393.31,-92.86"/>
<polygon fill="midnightblue" stroke="midnightblue" points="145.25,-130.43 136,-135.6 146.46,-137.32 145.25,-130.43"/>
</g>
<!-- Node9 -->
<g id="node9" class="node">
<title>Node9</title>
<g id="a_node9"><a xlink:href="geometry__buffer_8cpp.html" target="_top" xlink:title=" ">
<polygon fill="white" stroke="black" points="0,-67.5 0,-97.5 136,-97.5 136,-67.5 0,-67.5"/>
<text text-anchor="start" x="8" y="-85.5" font-family="Helvetica,sans-Serif" font-size="10.00">src/graphics/framebuffer</text>
<text text-anchor="middle" x="68" y="-74.5" font-family="Helvetica,sans-Serif" font-size="10.00">/geometry_buffer.cpp</text>
</a>
</g>
</g>
<!-- Node8&#45;&gt;Node9 -->
<g id="edge8" class="edge">
<title>Node8&#45;&gt;Node9</title>
<path fill="none" stroke="midnightblue" d="M68,-124.11C68,-115.15 68,-105.32 68,-97.58"/>
<polygon fill="midnightblue" stroke="midnightblue" points="64.5,-124.4 68,-134.4 71.5,-124.4 64.5,-124.4"/>
</g>
<!-- Node10&#45;&gt;Node3 -->
<g id="edge12" class="edge">
<title>Node10&#45;&gt;Node3</title>
<path fill="none" stroke="midnightblue" d="M281.65,-131.71C319.24,-121.14 367.23,-107.63 402.85,-97.61"/>
<polygon fill="midnightblue" stroke="midnightblue" points="280.52,-128.4 271.84,-134.48 282.41,-135.14 280.52,-128.4"/>
</g>
<!-- Node11 -->
<g id="node11" class="node">
<title>Node11</title>
<g id="a_node11"><a xlink:href="light__buffer_8cpp.html" target="_top" xlink:title=" ">
<polygon fill="white" stroke="black" points="154,-67.5 154,-97.5 290,-97.5 290,-67.5 154,-67.5"/>
<text text-anchor="start" x="162" y="-85.5" font-family="Helvetica,sans-Serif" font-size="10.00">src/graphics/framebuffer</text>
<text text-anchor="middle" x="222" y="-74.5" font-family="Helvetica,sans-Serif" font-size="10.00">/light_buffer.cpp</text>
</a>
</g>
</g>
<!-- Node10&#45;&gt;Node11 -->
<g id="edge11" class="edge">
<title>Node10&#45;&gt;Node11</title>
<path fill="none" stroke="midnightblue" d="M222,-124.11C222,-115.15 222,-105.32 222,-97.58"/>
<polygon fill="midnightblue" stroke="midnightblue" points="218.5,-124.4 222,-134.4 225.5,-124.4 218.5,-124.4"/>
</g>
<!-- Node12&#45;&gt;Node3 -->
<g id="edge15" class="edge">
<title>Node12&#45;&gt;Node3</title>
<path fill="none" stroke="midnightblue" d="M773.62,-133.79C676.68,-117.17 575.3,-101.66 512.73,-92.31"/>
<polygon fill="midnightblue" stroke="midnightblue" points="773.14,-137.26 783.59,-135.5 774.32,-130.36 773.14,-137.26"/>
</g>
<!-- Node13 -->
<g id="node13" class="node">
<title>Node13</title>
<g id="a_node13"><a xlink:href="post__proc__buffer_8cpp.html" target="_top" xlink:title=" ">
<polygon fill="white" stroke="black" points="784,-67.5 784,-97.5 920,-97.5 920,-67.5 784,-67.5"/>
<text text-anchor="start" x="792" y="-85.5" font-family="Helvetica,sans-Serif" font-size="10.00">src/graphics/framebuffer</text>
<text text-anchor="middle" x="852" y="-74.5" font-family="Helvetica,sans-Serif" font-size="10.00">/post_proc_buffer.cpp</text>
</a>
</g>
</g>
<!-- Node12&#45;&gt;Node13 -->
<g id="edge14" class="edge">
<title>Node12&#45;&gt;Node13</title>
<path fill="none" stroke="midnightblue" d="M852,-124.11C852,-115.15 852,-105.32 852,-97.58"/>
<polygon fill="midnightblue" stroke="midnightblue" points="848.5,-124.4 852,-134.4 855.5,-124.4 848.5,-124.4"/>
</g>
<!-- Node14&#45;&gt;Node3 -->
<g id="edge17" class="edge">
<title>Node14&#45;&gt;Node3</title>
<path fill="none" stroke="midnightblue" d="M505.58,-127.88C493.88,-118.01 480.16,-106.43 469.68,-97.58"/>
<polygon fill="midnightblue" stroke="midnightblue" points="503.39,-130.62 513.29,-134.4 507.91,-125.27 503.39,-130.62"/>
</g>
<!-- Node15&#45;&gt;Node3 -->
<g id="edge19" class="edge">
<title>Node15&#45;&gt;Node3</title>
<path fill="none" stroke="midnightblue" d="M629.54,-131.71C590.81,-121.14 541.37,-107.63 504.67,-97.61"/>
<polygon fill="midnightblue" stroke="midnightblue" points="629.08,-135.22 639.65,-134.48 630.93,-128.46 629.08,-135.22"/>
</g>
</g>
</svg>
