<?xml version="1.0" encoding="UTF-8" standalone="no"?>
<!DOCTYPE svg PUBLIC "-//W3C//DTD SVG 1.1//EN"
 "http://www.w3.org/Graphics/SVG/1.1/DTD/svg11.dtd">
<!-- Generated by graphviz version 2.43.0 (0)
 -->
<!-- Title: src/graphics/framebuffer.h Pages: 1 -->
<svg width="473pt" height="151pt"
 viewBox="0.00 0.00 473.00 151.00" xmlns="http://www.w3.org/2000/svg" xmlns:xlink="http://www.w3.org/1999/xlink">
<g id="graph0" class="graph" transform="scale(1 1) rotate(0) translate(4 147)">
<title>src/graphics/framebuffer.h</title>
<polygon fill="white" stroke="transparent" points="-4,4 -4,-147 469,-147 469,4 -4,4"/>
<!-- Node1 -->
<g id="node1" class="node">
<title>Node1</title>
<g id="a_node1"><a xlink:title=" ">
<polygon fill="#bfbfbf" stroke="black" points="93.5,-123.5 93.5,-142.5 237.5,-142.5 237.5,-123.5 93.5,-123.5"/>
<text text-anchor="middle" x="165.5" y="-130.5" font-family="Helvetica,sans-Serif" font-size="10.00">src/graphics/framebuffer.h</text>
</a>
</g>
</g>
<!-- Node2 -->
<g id="node2" class="node">
<title>Node2</title>
<g id="a_node2"><a xlink:href="framebuffer_8cpp.html" target="_top" xlink:title=" ">
<polygon fill="white" stroke="black" points="8,-67.5 8,-86.5 163,-86.5 163,-67.5 8,-67.5"/>
<text text-anchor="middle" x="85.5" y="-74.5" font-family="Helvetica,sans-Serif" font-size="10.00">src/graphics/framebuffer.cpp</text>
</a>
</g>
</g>
<!-- Node1&#45;&gt;Node2 -->
<g id="edge1" class="edge">
<title>Node1&#45;&gt;Node2</title>
<path fill="none" stroke="midnightblue" d="M144.2,-117.62C129.58,-107.76 110.67,-94.99 98.32,-86.65"/>
<polygon fill="midnightblue" stroke="midnightblue" points="142.4,-120.63 152.65,-123.32 146.32,-114.83 142.4,-120.63"/>
</g>
<!-- Node3 -->
<g id="node3" class="node">
<title>Node3</title>
<g id="a_node3"><a xlink:href="renderer_8h.html" target="_top" xlink:title=" ">
<polygon fill="white" stroke="black" points="181.5,-67.5 181.5,-86.5 309.5,-86.5 309.5,-67.5 181.5,-67.5"/>
<text text-anchor="middle" x="245.5" y="-74.5" font-family="Helvetica,sans-Serif" font-size="10.00">src/graphics/renderer.h</text>
</a>
</g>
</g>
<!-- Node1&#45;&gt;Node3 -->
<g id="edge2" class="edge">
<title>Node1&#45;&gt;Node3</title>
<path fill="none" stroke="midnightblue" d="M186.8,-117.62C201.42,-107.76 220.33,-94.99 232.68,-86.65"/>
<polygon fill="midnightblue" stroke="midnightblue" points="184.68,-114.83 178.35,-123.32 188.6,-120.63 184.68,-114.83"/>
</g>
<!-- Node4 -->
<g id="node4" class="node">
<title>Node4</title>
<g id="a_node4"><a xlink:href="application_8cpp.html" target="_top" xlink:title=" ">
<polygon fill="white" stroke="black" points="0,-6 0,-25 165,-25 165,-6 0,-6"/>
<text text-anchor="middle" x="82.5" y="-13" font-family="Helvetica,sans-Serif" font-size="10.00">src/application/application.cpp</text>
</a>
</g>
</g>
<!-- Node3&#45;&gt;Node4 -->
<g id="edge3" class="edge">
<title>Node3&#45;&gt;Node4</title>
<path fill="none" stroke="midnightblue" d="M212.44,-63.93C180.76,-52.37 133.75,-35.21 105.81,-25.01"/>
<polygon fill="midnightblue" stroke="midnightblue" points="211.55,-67.33 222.15,-67.48 213.95,-60.76 211.55,-67.33"/>
</g>
<!-- Node5 -->
<g id="node5" class="node">
<title>Node5</title>
<g id="a_node5"><a xlink:href="game__scene_8cpp.html" target="_top" xlink:title=" ">
<polygon fill="white" stroke="black" points="183.5,-0.5 183.5,-30.5 307.5,-30.5 307.5,-0.5 183.5,-0.5"/>
<text text-anchor="start" x="191.5" y="-18.5" font-family="Helvetica,sans-Serif" font-size="10.00">src/game/scene/game</text>
<text text-anchor="middle" x="245.5" y="-7.5" font-family="Helvetica,sans-Serif" font-size="10.00">_scene.cpp</text>
</a>
</g>
</g>
<!-- Node3&#45;&gt;Node5 -->
<g id="edge4" class="edge">
<title>Node3&#45;&gt;Node5</title>
<path fill="none" stroke="midnightblue" d="M245.5,-57.23C245.5,-48.59 245.5,-38.5 245.5,-30.52"/>
<polygon fill="midnightblue" stroke="midnightblue" points="242,-57.48 245.5,-67.48 249,-57.48 242,-57.48"/>
</g>
<!-- Node6 -->
<g id="node6" class="node">
<title>Node6</title>
<g id="a_node6"><a xlink:href="renderer_8cpp.html" target="_top" xlink:title=" ">
<polygon fill="white" stroke="black" points="326,-6 326,-25 465,-25 465,-6 326,-6"/>
<text text-anchor="middle" x="395.5" y="-13" font-family="Helvetica,sans-Serif" font-size="10.00">src/graphics/renderer.cpp</text>
</a>
</g>
</g>
<!-- Node3&#45;&gt;Node6 -->
<g id="edge5" class="edge">
<title>Node3&#45;&gt;Node6</title>
<path fill="none" stroke="midnightblue" d="M276.3,-63.78C305.45,-52.22 348.45,-35.16 374.05,-25.01"/>
<polygon fill="midnightblue" stroke="midnightblue" points="275,-60.53 266.99,-67.48 277.58,-67.04 275,-60.53"/>
</g>
</g>
</svg>
