<?xml version="1.0" encoding="UTF-8" standalone="no"?>
<!DOCTYPE svg PUBLIC "-//W3C//DTD SVG 1.1//EN"
 "http://www.w3.org/Graphics/SVG/1.1/DTD/svg11.dtd">
<!-- Generated by graphviz version 2.43.0 (0)
 -->
<!-- Title: src/graphics/framebuffer/geometry_buffer.cpp Pages: 1 -->
<!--zoomable 352 -->
<svg id="main" version="1.1" xmlns="http://www.w3.org/2000/svg" xmlns:xlink="http://www.w3.org/1999/xlink" xml:space="preserve" onload="init(evt)">
<style type="text/css"><![CDATA[
.edge:hover path { stroke: red; }
.edge:hover polygon { stroke: red; fill: red; }
]]></style>
<script type="text/javascript"><![CDATA[
var edges = document.getElementsByTagName('g');
if (edges && edges.length) {
  for (var i=0;i<edges.length;i++) {
    if (edges[i].id.substr(0,4)=='edge') {
      edges[i].setAttribute('class','edge');
    }
  }
}
]]></script>
        <defs>
                <circle id="rim" cx="0" cy="0" r="7"/>
                <circle id="rim2" cx="0" cy="0" r="3.5"/>
                <g id="zoomPlus">
                        <use xlink:href="#rim" fill="#404040">
                                <set attributeName="fill" to="#808080" begin="zoomplus.mouseover" end="zoomplus.mouseout"/>
                        </use>
                        <path d="M-4,0h8M0,-4v8" fill="none" stroke="white" stroke-width="1.5" pointer-events="none"/>
                </g>
                <g id="zoomMin">
                        <use xlink:href="#rim" fill="#404040">
                                <set attributeName="fill" to="#808080" begin="zoomminus.mouseover" end="zoomminus.mouseout"/>
                        </use>
                        <path d="M-4,0h8" fill="none" stroke="white" stroke-width="1.5" pointer-events="none"/>
                </g>
                <g id="dirArrow">
                        <path fill="none" stroke="white" stroke-width="1.5" d="M0,-3.0v7 M-2.5,-0.5L0,-3.0L2.5,-0.5"/>
                </g>
               <g id="resetDef">
                       <use xlink:href="#rim2" fill="#404040">
                               <set attributeName="fill" to="#808080" begin="reset.mouseover" end="reset.mouseout"/>
                       </use>
               </g>
        </defs>

<script type="text/javascript">
var viewWidth = 860;
var viewHeight = 352;
var sectionId = 'dynsection-0';
</script>
<script xlink:href="svgpan.js"/>
<svg id="graph" class="graph">
<g id="viewport">
<title>src/graphics/framebuffer/geometry_buffer.cpp</title>
<polygon fill="white" stroke="transparent" points="-4,4 -4,-348 856,-348 856,4 -4,4"/>
<!-- Node1 -->
<g id="node1" class="node">
<title>Node1</title>
<g id="a_node1"><a xlink:title=" ">
<polygon fill="#bfbfbf" stroke="black" points="60,-313.5 60,-343.5 196,-343.5 196,-313.5 60,-313.5"/>
<text text-anchor="start" x="68" y="-331.5" font-family="Helvetica,sans-Serif" font-size="10.00">src/graphics/framebuffer</text>
<text text-anchor="middle" x="128" y="-320.5" font-family="Helvetica,sans-Serif" font-size="10.00">/geometry_buffer.cpp</text>
</a>
</g>
</g>
<!-- Node2 -->
<g id="node2" class="node">
<title>Node2</title>
<g id="a_node2"><a xlink:href="geometry__buffer_8h.html" target="_top" xlink:title=" ">
<polygon fill="white" stroke="black" points="68.5,-246.5 68.5,-276.5 187.5,-276.5 187.5,-246.5 68.5,-246.5"/>
<text text-anchor="start" x="76.5" y="-264.5" font-family="Helvetica,sans-Serif" font-size="10.00">graphics/framebuffer</text>
<text text-anchor="middle" x="128" y="-253.5" font-family="Helvetica,sans-Serif" font-size="10.00">/geometry_buffer.h</text>
</a>
</g>
</g>
<!-- Node1&#45;&gt;Node2 -->
<g id="edge1" class="edge">
<title>Node1&#45;&gt;Node2</title>
<path fill="none" stroke="midnightblue" d="M128,-313.4C128,-305.64 128,-295.81 128,-286.86"/>
<polygon fill="midnightblue" stroke="midnightblue" points="131.5,-286.58 128,-276.58 124.5,-286.58 131.5,-286.58"/>
</g>
<!-- Node3 -->
<g id="node3" class="node">
<title>Node3</title>
<g id="a_node3"><a xlink:title=" ">
<polygon fill="white" stroke="#bfbfbf" points="0,-123.5 0,-142.5 50,-142.5 50,-123.5 0,-123.5"/>
<text text-anchor="middle" x="25" y="-130.5" font-family="Helvetica,sans-Serif" font-size="10.00">cstdint</text>
</a>
</g>
</g>
<!-- Node2&#45;&gt;Node3 -->
<g id="edge2" class="edge">
<title>Node2&#45;&gt;Node3</title>
<path fill="none" stroke="midnightblue" d="M116.58,-246.48C97.47,-223 59.07,-175.84 38.59,-150.69"/>
<polygon fill="midnightblue" stroke="midnightblue" points="41.18,-148.33 32.16,-142.79 35.76,-152.75 41.18,-148.33"/>
</g>
<!-- Node4 -->
<g id="node4" class="node">
<title>Node4</title>
<g id="a_node4"><a xlink:href="framebuffer_8h.html" target="_top" xlink:title=" ">
<polygon fill="white" stroke="black" points="138.5,-179.5 138.5,-209.5 257.5,-209.5 257.5,-179.5 138.5,-179.5"/>
<text text-anchor="start" x="146.5" y="-197.5" font-family="Helvetica,sans-Serif" font-size="10.00">graphics/framebuffer</text>
<text text-anchor="middle" x="198" y="-186.5" font-family="Helvetica,sans-Serif" font-size="10.00">/framebuffer.h</text>
</a>
</g>
</g>
<!-- Node2&#45;&gt;Node4 -->
<g id="edge3" class="edge">
<title>Node2&#45;&gt;Node4</title>
<path fill="none" stroke="midnightblue" d="M143.19,-246.4C152.55,-237.71 164.72,-226.4 175.21,-216.66"/>
<polygon fill="midnightblue" stroke="midnightblue" points="177.89,-218.95 182.84,-209.58 173.13,-213.82 177.89,-218.95"/>
</g>
<!-- Node4&#45;&gt;Node3 -->
<g id="edge4" class="edge">
<title>Node4&#45;&gt;Node3</title>
<path fill="none" stroke="midnightblue" d="M157,-179.4C127.37,-169.21 87.77,-155.59 59.7,-145.93"/>
<polygon fill="midnightblue" stroke="midnightblue" points="60.52,-142.51 49.92,-142.57 58.24,-149.13 60.52,-142.51"/>
</g>
<!-- Node5 -->
<g id="node5" class="node">
<title>Node5</title>
<g id="a_node5"><a xlink:title=" ">
<polygon fill="white" stroke="#bfbfbf" points="68,-123.5 68,-142.5 126,-142.5 126,-123.5 68,-123.5"/>
<text text-anchor="middle" x="97" y="-130.5" font-family="Helvetica,sans-Serif" font-size="10.00">memory</text>
</a>
</g>
</g>
<!-- Node4&#45;&gt;Node5 -->
<g id="edge5" class="edge">
<title>Node4&#45;&gt;Node5</title>
<path fill="none" stroke="midnightblue" d="M174.06,-179.4C157.87,-169.86 136.59,-157.32 120.5,-147.84"/>
<polygon fill="midnightblue" stroke="midnightblue" points="122.09,-144.72 111.7,-142.66 118.54,-150.75 122.09,-144.72"/>
</g>
<!-- Node6 -->
<g id="node6" class="node">
<title>Node6</title>
<g id="a_node6"><a xlink:title=" ">
<polygon fill="white" stroke="#bfbfbf" points="144,-123.5 144,-142.5 188,-142.5 188,-123.5 144,-123.5"/>
<text text-anchor="middle" x="166" y="-130.5" font-family="Helvetica,sans-Serif" font-size="10.00">string</text>
</a>
</g>
</g>
<!-- Node4&#45;&gt;Node6 -->
<g id="edge6" class="edge">
<title>Node4&#45;&gt;Node6</title>
<path fill="none" stroke="midnightblue" d="M190.42,-179.4C185.96,-171.11 180.28,-160.55 175.52,-151.71"/>
<polygon fill="midnightblue" stroke="midnightblue" points="178.48,-149.81 170.66,-142.66 172.31,-153.12 178.48,-149.81"/>
</g>
<!-- Node7 -->
<g id="node7" class="node">
<title>Node7</title>
<g id="a_node7"><a xlink:title=" ">
<polygon fill="white" stroke="#bfbfbf" points="206.5,-123.5 206.5,-142.5 253.5,-142.5 253.5,-123.5 206.5,-123.5"/>
<text text-anchor="middle" x="230" y="-130.5" font-family="Helvetica,sans-Serif" font-size="10.00">vector</text>
</a>
</g>
</g>
<!-- Node4&#45;&gt;Node7 -->
<g id="edge7" class="edge">
<title>Node4&#45;&gt;Node7</title>
<path fill="none" stroke="midnightblue" d="M205.58,-179.4C210.04,-171.11 215.72,-160.55 220.48,-151.71"/>
<polygon fill="midnightblue" stroke="midnightblue" points="223.69,-153.12 225.34,-142.66 217.52,-149.81 223.69,-153.12"/>
</g>
<!-- Node8 -->
<g id="node8" class="node">
<title>Node8</title>
<g id="a_node8"><a xlink:title=" ">
<polygon fill="white" stroke="#bfbfbf" points="288,-0.5 288,-19.5 352,-19.5 352,-0.5 288,-0.5"/>
<text text-anchor="middle" x="320" y="-7.5" font-family="Helvetica,sans-Serif" font-size="10.00">GL/glew.h</text>
</a>
</g>
</g>
<!-- Node4&#45;&gt;Node8 -->
<g id="edge8" class="edge">
<title>Node4&#45;&gt;Node8</title>
<path fill="none" stroke="midnightblue" d="M221.07,-179.42C234.41,-170.35 250.74,-157.55 262,-143 289.59,-107.33 307.08,-56.48 315.01,-29.49"/>
<polygon fill="midnightblue" stroke="midnightblue" points="318.4,-30.37 317.75,-19.8 311.66,-28.47 318.4,-30.37"/>
</g>
<!-- Node9 -->
<g id="node9" class="node">
<title>Node9</title>
<g id="a_node9"><a xlink:title=" ">
<polygon fill="white" stroke="#bfbfbf" points="310.5,-123.5 310.5,-142.5 399.5,-142.5 399.5,-123.5 310.5,-123.5"/>
<text text-anchor="middle" x="355" y="-130.5" font-family="Helvetica,sans-Serif" font-size="10.00">maths/colour.h</text>
</a>
</g>
</g>
<!-- Node4&#45;&gt;Node9 -->
<g id="edge9" class="edge">
<title>Node4&#45;&gt;Node9</title>
<path fill="none" stroke="midnightblue" d="M235.21,-179.4C261.78,-169.33 297.19,-155.91 322.61,-146.28"/>
<polygon fill="midnightblue" stroke="midnightblue" points="324.04,-149.47 332.16,-142.66 321.56,-142.93 324.04,-149.47"/>
</g>
<!-- Node10 -->
<g id="node10" class="node">
<title>Node10</title>
<g id="a_node10"><a xlink:href="texture_8h.html" target="_top" xlink:title=" ">
<polygon fill="white" stroke="black" points="417.5,-123.5 417.5,-142.5 560.5,-142.5 560.5,-123.5 417.5,-123.5"/>
<text text-anchor="middle" x="489" y="-130.5" font-family="Helvetica,sans-Serif" font-size="10.00">graphics/texture/texture.h</text>
</a>
</g>
</g>
<!-- Node4&#45;&gt;Node10 -->
<g id="edge10" class="edge">
<title>Node4&#45;&gt;Node10</title>
<path fill="none" stroke="midnightblue" d="M257.59,-181.32C310.48,-170.5 386.97,-154.86 437.32,-144.57"/>
<polygon fill="midnightblue" stroke="midnightblue" points="438.24,-147.95 447.34,-142.52 436.84,-141.09 438.24,-147.95"/>
</g>
<!-- Node10&#45;&gt;Node8 -->
<g id="edge14" class="edge">
<title>Node10&#45;&gt;Node8</title>
<path fill="none" stroke="midnightblue" d="M443.42,-123.47C404.8,-115.35 353.46,-102.14 339,-87 324.43,-71.73 320.54,-47.05 319.74,-29.97"/>
<polygon fill="midnightblue" stroke="midnightblue" points="323.23,-29.52 319.58,-19.58 316.23,-29.63 323.23,-29.52"/>
</g>
<!-- Node11 -->
<g id="node11" class="node">
<title>Node11</title>
<g id="a_node11"><a xlink:title=" ">
<polygon fill="white" stroke="#bfbfbf" points="348,-62 348,-81 390,-81 390,-62 348,-62"/>
<text text-anchor="middle" x="369" y="-69" font-family="Helvetica,sans-Serif" font-size="10.00">array</text>
</a>
</g>
</g>
<!-- Node10&#45;&gt;Node11 -->
<g id="edge11" class="edge">
<title>Node10&#45;&gt;Node11</title>
<path fill="none" stroke="midnightblue" d="M471.81,-123.48C451.76,-113.53 418.4,-96.99 395.14,-85.46"/>
<polygon fill="midnightblue" stroke="midnightblue" points="396.68,-82.32 386.16,-81.01 393.57,-88.59 396.68,-82.32"/>
</g>
<!-- Node12 -->
<g id="node12" class="node">
<title>Node12</title>
<g id="a_node12"><a xlink:title=" ">
<polygon fill="white" stroke="#bfbfbf" points="408.5,-62 408.5,-81 455.5,-81 455.5,-62 408.5,-62"/>
<text text-anchor="middle" x="432" y="-69" font-family="Helvetica,sans-Serif" font-size="10.00">cmath</text>
</a>
</g>
</g>
<!-- Node10&#45;&gt;Node12 -->
<g id="edge12" class="edge">
<title>Node10&#45;&gt;Node12</title>
<path fill="none" stroke="midnightblue" d="M480.83,-123.48C472.11,-114.37 458.1,-99.74 447.31,-88.48"/>
<polygon fill="midnightblue" stroke="midnightblue" points="449.6,-85.81 440.15,-81.01 444.54,-90.65 449.6,-85.81"/>
</g>
<!-- Node13 -->
<g id="node13" class="node">
<title>Node13</title>
<g id="a_node13"><a xlink:title=" ">
<polygon fill="white" stroke="#bfbfbf" points="474,-62 474,-81 582,-81 582,-62 474,-62"/>
<text text-anchor="middle" x="528" y="-69" font-family="Helvetica,sans-Serif" font-size="10.00">SDL2/SDL_image.h</text>
</a>
</g>
</g>
<!-- Node10&#45;&gt;Node13 -->
<g id="edge13" class="edge">
<title>Node10&#45;&gt;Node13</title>
<path fill="none" stroke="midnightblue" d="M494.59,-123.48C500.38,-114.64 509.59,-100.59 516.87,-89.48"/>
<polygon fill="midnightblue" stroke="midnightblue" points="519.87,-91.29 522.42,-81.01 514.01,-87.45 519.87,-91.29"/>
</g>
<!-- Node14 -->
<g id="node14" class="node">
<title>Node14</title>
<g id="a_node14"><a xlink:title=" ">
<polygon fill="white" stroke="#bfbfbf" points="600.5,-62 600.5,-81 711.5,-81 711.5,-62 600.5,-62"/>
<text text-anchor="middle" x="656" y="-69" font-family="Helvetica,sans-Serif" font-size="10.00">maths/maths_util.h</text>
</a>
</g>
</g>
<!-- Node10&#45;&gt;Node14 -->
<g id="edge15" class="edge">
<title>Node10&#45;&gt;Node14</title>
<path fill="none" stroke="midnightblue" d="M512.93,-123.48C541.7,-113.22 590.16,-95.96 622.6,-84.4"/>
<polygon fill="midnightblue" stroke="midnightblue" points="623.87,-87.66 632.12,-81.01 621.52,-81.07 623.87,-87.66"/>
</g>
<!-- Node15 -->
<g id="node15" class="node">
<title>Node15</title>
<g id="a_node15"><a xlink:href="pixel__format_8h.html" target="_top" xlink:title=" ">
<polygon fill="white" stroke="black" points="730,-56.5 730,-86.5 852,-86.5 852,-56.5 730,-56.5"/>
<text text-anchor="start" x="738" y="-74.5" font-family="Helvetica,sans-Serif" font-size="10.00">graphics/texture/pixel</text>
<text text-anchor="middle" x="791" y="-63.5" font-family="Helvetica,sans-Serif" font-size="10.00">_format.h</text>
</a>
</g>
</g>
<!-- Node10&#45;&gt;Node15 -->
<g id="edge16" class="edge">
<title>Node10&#45;&gt;Node15</title>
<path fill="none" stroke="midnightblue" d="M533.31,-123.49C579.83,-114.53 655.09,-99.95 720,-87 720.1,-86.98 720.2,-86.96 720.3,-86.94"/>
<polygon fill="midnightblue" stroke="midnightblue" points="720.7,-90.43 729.82,-85.03 719.32,-83.57 720.7,-90.43"/>
</g>
<!-- Node15&#45;&gt;Node8 -->
<g id="edge18" class="edge">
<title>Node15&#45;&gt;Node8</title>
<path fill="none" stroke="midnightblue" d="M729.87,-57.65C726.54,-57.07 723.23,-56.51 720,-56 590.23,-35.49 435.33,-20.84 362.2,-14.5"/>
<polygon fill="midnightblue" stroke="midnightblue" points="362.28,-10.99 352.02,-13.62 361.68,-17.97 362.28,-10.99"/>
</g>
<!-- Node16 -->
<g id="node16" class="node">
<title>Node16</title>
<g id="a_node16"><a xlink:title=" ">
<polygon fill="white" stroke="#bfbfbf" points="758.5,-0.5 758.5,-19.5 823.5,-19.5 823.5,-0.5 758.5,-0.5"/>
<text text-anchor="middle" x="791" y="-7.5" font-family="Helvetica,sans-Serif" font-size="10.00">stdexcept</text>
</a>
</g>
</g>
<!-- Node15&#45;&gt;Node16 -->
<g id="edge17" class="edge">
<title>Node15&#45;&gt;Node16</title>
<path fill="none" stroke="midnightblue" d="M791,-56.4C791,-48.47 791,-38.46 791,-29.86"/>
<polygon fill="midnightblue" stroke="midnightblue" points="794.5,-29.66 791,-19.66 787.5,-29.66 794.5,-29.66"/>
</g>
</g>
</svg>
        <g id="navigator" transform="translate(0 0)" fill="#404254">
                <rect fill="#f2f5e9" fill-opacity="0.5" stroke="#606060" stroke-width=".5" x="0" y="0" width="60" height="60"/>
                <use id="zoomplus" xlink:href="#zoomPlus" x="17" y="9" onmousedown="handleZoom(evt,'in')"/>
                <use id="zoomminus" xlink:href="#zoomMin" x="42" y="9" onmousedown="handleZoom(evt,'out')"/>
                <use id="reset" xlink:href="#resetDef" x="30" y="36" onmousedown="handleReset()"/>
                <g id="arrowUp" xlink:href="#dirArrow" transform="translate(30 24)" onmousedown="handlePan(0,-1)">
                  <use xlink:href="#rim" fill="#404040">
                        <set attributeName="fill" to="#808080" begin="arrowUp.mouseover" end="arrowUp.mouseout"/>
                  </use>
                  <path fill="none" stroke="white" stroke-width="1.5" d="M0,-3.0v7 M-2.5,-0.5L0,-3.0L2.5,-0.5"/>
                </g>
                <g id="arrowRight" xlink:href="#dirArrow" transform="rotate(90) translate(36 -43)" onmousedown="handlePan(1,0)">
                  <use xlink:href="#rim" fill="#404040">
                        <set attributeName="fill" to="#808080" begin="arrowRight.mouseover" end="arrowRight.mouseout"/>
                  </use>
                  <path fill="none" stroke="white" stroke-width="1.5" d="M0,-3.0v7 M-2.5,-0.5L0,-3.0L2.5,-0.5"/>
                </g>
                <g id="arrowDown" xlink:href="#dirArrow" transform="rotate(180) translate(-30 -48)" onmousedown="handlePan(0,1)">
                  <use xlink:href="#rim" fill="#404040">
                        <set attributeName="fill" to="#808080" begin="arrowDown.mouseover" end="arrowDown.mouseout"/>
                  </use>
                  <path fill="none" stroke="white" stroke-width="1.5" d="M0,-3.0v7 M-2.5,-0.5L0,-3.0L2.5,-0.5"/>
                </g>
                <g id="arrowLeft" xlink:href="#dirArrow" transform="rotate(270) translate(-36 17)" onmousedown="handlePan(-1,0)">
                  <use xlink:href="#rim" fill="#404040">
                        <set attributeName="fill" to="#808080" begin="arrowLeft.mouseover" end="arrowLeft.mouseout"/>
                  </use>
                  <path fill="none" stroke="white" stroke-width="1.5" d="M0,-3.0v7 M-2.5,-0.5L0,-3.0L2.5,-0.5"/>
                </g>
        </g>
        <svg viewBox="0 0 15 15" width="100%" height="30px" preserveAspectRatio="xMaxYMin meet">
         <g id="arrow_out" transform="scale(0.3 0.3)">
          <a xlink:href="geometry__buffer_8cpp__incl_org.svg" target="_base">
           <rect id="button" ry="5" rx="5" y="6" x="6" height="38" width="38"
                fill="#f2f5e9" fill-opacity="0.5" stroke="#606060" stroke-width="1.0"/>
           <path id="arrow"
             d="M 11.500037,31.436501 C 11.940474,20.09759 22.043105,11.32322 32.158766,21.979434 L 37.068811,17.246167 C 37.068811,17.246167 37.088388,32 37.088388,32 L 22.160133,31.978069 C 22.160133,31.978069 26.997745,27.140456 26.997745,27.140456 C 18.528582,18.264221 13.291696,25.230495 11.500037,31.436501 z"
             style="fill:#404040;"/>
          </a>
         </g>
        </svg>
</svg>
