<?xml version="1.0" encoding="UTF-8" standalone="no"?>
<!DOCTYPE svg PUBLIC "-//W3C//DTD SVG 1.1//EN"
 "http://www.w3.org/Graphics/SVG/1.1/DTD/svg11.dtd">
<!-- Generated by graphviz version 2.43.0 (0)
 -->
<!-- Title: src/game/system/head_control_system.h Pages: 1 -->
<!--zoomable 319 -->
<svg id="main" version="1.1" xmlns="http://www.w3.org/2000/svg" xmlns:xlink="http://www.w3.org/1999/xlink" xml:space="preserve" onload="init(evt)">
<style type="text/css"><![CDATA[
.edge:hover path { stroke: red; }
.edge:hover polygon { stroke: red; fill: red; }
]]></style>
<script type="text/javascript"><![CDATA[
var edges = document.getElementsByTagName('g');
if (edges && edges.length) {
  for (var i=0;i<edges.length;i++) {
    if (edges[i].id.substr(0,4)=='edge') {
      edges[i].setAttribute('class','edge');
    }
  }
}
]]></script>
        <defs>
                <circle id="rim" cx="0" cy="0" r="7"/>
                <circle id="rim2" cx="0" cy="0" r="3.5"/>
                <g id="zoomPlus">
                        <use xlink:href="#rim" fill="#404040">
                                <set attributeName="fill" to="#808080" begin="zoomplus.mouseover" end="zoomplus.mouseout"/>
                        </use>
                        <path d="M-4,0h8M0,-4v8" fill="none" stroke="white" stroke-width="1.5" pointer-events="none"/>
                </g>
                <g id="zoomMin">
                        <use xlink:href="#rim" fill="#404040">
                                <set attributeName="fill" to="#808080" begin="zoomminus.mouseover" end="zoomminus.mouseout"/>
                        </use>
                        <path d="M-4,0h8" fill="none" stroke="white" stroke-width="1.5" pointer-events="none"/>
                </g>
                <g id="dirArrow">
                        <path fill="none" stroke="white" stroke-width="1.5" d="M0,-3.0v7 M-2.5,-0.5L0,-3.0L2.5,-0.5"/>
                </g>
               <g id="resetDef">
                       <use xlink:href="#rim2" fill="#404040">
                               <set attributeName="fill" to="#808080" begin="reset.mouseover" end="reset.mouseout"/>
                       </use>
               </g>
        </defs>

<script type="text/javascript">
var viewWidth = 1699;
var viewHeight = 319;
var sectionId = 'dynsection-0';
</script>
<script xlink:href="svgpan.js"/>
<svg id="graph" class="graph">
<g id="viewport">
<title>src/game/system/head_control_system.h</title>
<polygon fill="white" stroke="transparent" points="-4,4 -4,-315 1694.5,-315 1694.5,4 -4,4"/>
<!-- Node1 -->
<g id="node1" class="node">
<title>Node1</title>
<g id="a_node1"><a xlink:title=" ">
<polygon fill="#bfbfbf" stroke="black" points="926,-280.5 926,-310.5 1054,-310.5 1054,-280.5 926,-280.5"/>
<text text-anchor="start" x="934" y="-298.5" font-family="Helvetica,sans-Serif" font-size="10.00">src/game/system/head</text>
<text text-anchor="middle" x="990" y="-287.5" font-family="Helvetica,sans-Serif" font-size="10.00">_control_system.h</text>
</a>
</g>
</g>
<!-- Node2 -->
<g id="node2" class="node">
<title>Node2</title>
<g id="a_node2"><a xlink:title=" ">
<polygon fill="white" stroke="#bfbfbf" points="120.5,-224.5 120.5,-243.5 179.5,-243.5 179.5,-224.5 120.5,-224.5"/>
<text text-anchor="middle" x="150" y="-231.5" font-family="Helvetica,sans-Serif" font-size="10.00">log/log.h</text>
</a>
</g>
</g>
<!-- Node1&#45;&gt;Node2 -->
<g id="edge1" class="edge">
<title>Node1&#45;&gt;Node2</title>
<path fill="none" stroke="midnightblue" d="M925.99,-293.44C790.42,-290.54 464.57,-280.08 194,-244 192.55,-243.81 191.08,-243.59 189.59,-243.36"/>
<polygon fill="midnightblue" stroke="midnightblue" points="190.18,-239.91 179.73,-241.66 188.99,-246.81 190.18,-239.91"/>
</g>
<!-- Node3 -->
<g id="node3" class="node">
<title>Node3</title>
<g id="a_node3"><a xlink:title=" ">
<polygon fill="white" stroke="#bfbfbf" points="0,-168.5 0,-187.5 96,-187.5 96,-168.5 0,-168.5"/>
<text text-anchor="middle" x="48" y="-175.5" font-family="Helvetica,sans-Serif" font-size="10.00">maths/vector3.h</text>
</a>
</g>
</g>
<!-- Node1&#45;&gt;Node3 -->
<g id="edge2" class="edge">
<title>Node1&#45;&gt;Node3</title>
<path fill="none" stroke="midnightblue" d="M925.96,-293.59C767.03,-290.8 357.91,-280.22 227,-244 208.23,-238.8 206,-231.45 188,-224 155.65,-210.61 117.77,-198.65 89.58,-190.43"/>
<polygon fill="midnightblue" stroke="midnightblue" points="90.24,-186.98 79.66,-187.58 88.31,-193.71 90.24,-186.98"/>
</g>
<!-- Node4 -->
<g id="node4" class="node">
<title>Node4</title>
<g id="a_node4"><a xlink:href="application_8h.html" target="_top" xlink:title=" ">
<polygon fill="white" stroke="black" points="444.5,-224.5 444.5,-243.5 581.5,-243.5 581.5,-224.5 444.5,-224.5"/>
<text text-anchor="middle" x="513" y="-231.5" font-family="Helvetica,sans-Serif" font-size="10.00">application/application.h</text>
</a>
</g>
</g>
<!-- Node1&#45;&gt;Node4 -->
<g id="edge3" class="edge">
<title>Node1&#45;&gt;Node4</title>
<path fill="none" stroke="midnightblue" d="M925.67,-286.48C838.94,-275.66 684.63,-256.41 591.27,-244.76"/>
<polygon fill="midnightblue" stroke="midnightblue" points="591.67,-241.29 581.31,-243.52 590.8,-248.23 591.67,-241.29"/>
</g>
<!-- Node8 -->
<g id="node8" class="node">
<title>Node8</title>
<g id="a_node8"><a xlink:href="input__manager_8h.html" target="_top" xlink:title=" ">
<polygon fill="white" stroke="black" points="927,-224.5 927,-243.5 1053,-243.5 1053,-224.5 927,-224.5"/>
<text text-anchor="middle" x="990" y="-231.5" font-family="Helvetica,sans-Serif" font-size="10.00">input/input_manager.h</text>
</a>
</g>
</g>
<!-- Node1&#45;&gt;Node8 -->
<g id="edge7" class="edge">
<title>Node1&#45;&gt;Node8</title>
<path fill="none" stroke="midnightblue" d="M990,-280.4C990,-272.47 990,-262.46 990,-253.86"/>
<polygon fill="midnightblue" stroke="midnightblue" points="993.5,-253.66 990,-243.66 986.5,-253.66 993.5,-253.66"/>
</g>
<!-- Node20 -->
<g id="node20" class="node">
<title>Node20</title>
<g id="a_node20"><a xlink:href="event__listener_8h.html" target="_top" xlink:title=" ">
<polygon fill="white" stroke="black" points="1050.5,-56.5 1050.5,-75.5 1175.5,-75.5 1175.5,-56.5 1050.5,-56.5"/>
<text text-anchor="middle" x="1113" y="-63.5" font-family="Helvetica,sans-Serif" font-size="10.00">event/event_listener.h</text>
</a>
</g>
</g>
<!-- Node1&#45;&gt;Node20 -->
<g id="edge52" class="edge">
<title>Node1&#45;&gt;Node20</title>
<path fill="none" stroke="midnightblue" d="M1054.14,-293.04C1140.36,-287.94 1294.41,-267.38 1395,-188 1417.17,-170.51 1418.13,-159.39 1425,-132 1427.16,-123.38 1430.82,-118.72 1425,-112 1421.08,-107.48 1276.82,-88.12 1185.85,-76.32"/>
<polygon fill="midnightblue" stroke="midnightblue" points="1186.22,-72.84 1175.86,-75.02 1185.33,-79.78 1186.22,-72.84"/>
</g>
<!-- Node29 -->
<g id="node29" class="node">
<title>Node29</title>
<g id="a_node29"><a xlink:href="transform_8h.html" target="_top" xlink:title=" ">
<polygon fill="white" stroke="black" points="236.5,-224.5 236.5,-243.5 367.5,-243.5 367.5,-224.5 236.5,-224.5"/>
<text text-anchor="middle" x="302" y="-231.5" font-family="Helvetica,sans-Serif" font-size="10.00">component/transform.h</text>
</a>
</g>
</g>
<!-- Node1&#45;&gt;Node29 -->
<g id="edge53" class="edge">
<title>Node1&#45;&gt;Node29</title>
<path fill="none" stroke="midnightblue" d="M925.89,-288.96C798.61,-277.95 514.54,-253.38 378.07,-241.58"/>
<polygon fill="midnightblue" stroke="midnightblue" points="377.97,-238.06 367.7,-240.68 377.37,-245.03 377.97,-238.06"/>
</g>
<!-- Node32 -->
<g id="node32" class="node">
<title>Node32</title>
<g id="a_node32"><a xlink:href="system_8h.html" target="_top" xlink:title=" ">
<polygon fill="white" stroke="black" points="1480.5,-224.5 1480.5,-243.5 1581.5,-243.5 1581.5,-224.5 1480.5,-224.5"/>
<text text-anchor="middle" x="1531" y="-231.5" font-family="Helvetica,sans-Serif" font-size="10.00">system/system.h</text>
</a>
</g>
</g>
<!-- Node1&#45;&gt;Node32 -->
<g id="edge57" class="edge">
<title>Node1&#45;&gt;Node32</title>
<path fill="none" stroke="midnightblue" d="M1054.36,-288.33C1145.91,-279.4 1318.96,-261.97 1466,-244 1467.3,-243.84 1468.62,-243.68 1469.95,-243.51"/>
<polygon fill="midnightblue" stroke="midnightblue" points="1470.81,-246.93 1480.28,-242.18 1469.91,-239.99 1470.81,-246.93"/>
</g>
<!-- Node34 -->
<g id="node34" class="node">
<title>Node34</title>
<g id="a_node34"><a xlink:href="tag_8h.html" target="_top" xlink:title=" ">
<polygon fill="white" stroke="black" points="1599.5,-224.5 1599.5,-243.5 1690.5,-243.5 1690.5,-224.5 1599.5,-224.5"/>
<text text-anchor="middle" x="1645" y="-231.5" font-family="Helvetica,sans-Serif" font-size="10.00">game/tag/tag.h</text>
</a>
</g>
</g>
<!-- Node1&#45;&gt;Node34 -->
<g id="edge59" class="edge">
<title>Node1&#45;&gt;Node34</title>
<path fill="none" stroke="midnightblue" d="M1054.22,-290.82C1162.52,-284.25 1388.53,-268.9 1589.23,-244.13"/>
<polygon fill="midnightblue" stroke="midnightblue" points="1589.88,-247.58 1599.37,-242.87 1589.02,-240.63 1589.88,-247.58"/>
</g>
<!-- Node35 -->
<g id="node35" class="node">
<title>Node35</title>
<g id="a_node35"><a xlink:href="game__controls_8h.html" target="_top" xlink:title=" ">
<polygon fill="white" stroke="black" points="1480,-112.5 1480,-131.5 1636,-131.5 1636,-112.5 1480,-112.5"/>
<text text-anchor="middle" x="1558" y="-119.5" font-family="Helvetica,sans-Serif" font-size="10.00">game/input/game_controls.h</text>
</a>
</g>
</g>
<!-- Node1&#45;&gt;Node35 -->
<g id="edge60" class="edge">
<title>Node1&#45;&gt;Node35</title>
<path fill="none" stroke="midnightblue" d="M1053.14,-280.43C1133.41,-261.96 1275.89,-227.25 1395,-188 1442.99,-172.19 1497.21,-149.58 1529.45,-135.62"/>
<polygon fill="midnightblue" stroke="midnightblue" points="1530.94,-138.79 1538.71,-131.59 1528.15,-132.37 1530.94,-138.79"/>
</g>
<!-- Node5 -->
<g id="node5" class="node">
<title>Node5</title>
<g id="a_node5"><a xlink:title=" ">
<polygon fill="white" stroke="#bfbfbf" points="438,-168.5 438,-187.5 488,-187.5 488,-168.5 438,-168.5"/>
<text text-anchor="middle" x="463" y="-175.5" font-family="Helvetica,sans-Serif" font-size="10.00">atomic</text>
</a>
</g>
</g>
<!-- Node4&#45;&gt;Node5 -->
<g id="edge4" class="edge">
<title>Node4&#45;&gt;Node5</title>
<path fill="none" stroke="midnightblue" d="M504.74,-224.08C497.54,-216.3 486.89,-204.8 478.15,-195.37"/>
<polygon fill="midnightblue" stroke="midnightblue" points="480.47,-192.71 471.1,-187.75 475.33,-197.47 480.47,-192.71"/>
</g>
<!-- Node6 -->
<g id="node6" class="node">
<title>Node6</title>
<g id="a_node6"><a xlink:title=" ">
<polygon fill="white" stroke="#bfbfbf" points="376,-168.5 376,-187.5 420,-187.5 420,-168.5 376,-168.5"/>
<text text-anchor="middle" x="398" y="-175.5" font-family="Helvetica,sans-Serif" font-size="10.00">string</text>
</a>
</g>
</g>
<!-- Node4&#45;&gt;Node6 -->
<g id="edge5" class="edge">
<title>Node4&#45;&gt;Node6</title>
<path fill="none" stroke="midnightblue" d="M494.78,-224.44C476.1,-215.68 446.84,-201.94 425.38,-191.86"/>
<polygon fill="midnightblue" stroke="midnightblue" points="426.68,-188.6 416.14,-187.52 423.7,-194.93 426.68,-188.6"/>
</g>
<!-- Node7 -->
<g id="node7" class="node">
<title>Node7</title>
<g id="a_node7"><a xlink:title=" ">
<polygon fill="white" stroke="#bfbfbf" points="506,-168.5 506,-187.5 622,-187.5 622,-168.5 506,-168.5"/>
<text text-anchor="middle" x="564" y="-175.5" font-family="Helvetica,sans-Serif" font-size="10.00">common/singleton.h</text>
</a>
</g>
</g>
<!-- Node4&#45;&gt;Node7 -->
<g id="edge6" class="edge">
<title>Node4&#45;&gt;Node7</title>
<path fill="none" stroke="midnightblue" d="M521.42,-224.08C528.85,-216.22 539.85,-204.57 548.81,-195.08"/>
<polygon fill="midnightblue" stroke="midnightblue" points="551.41,-197.42 555.74,-187.75 546.32,-192.62 551.41,-197.42"/>
</g>
<!-- Node8&#45;&gt;Node7 -->
<g id="edge9" class="edge">
<title>Node8&#45;&gt;Node7</title>
<path fill="none" stroke="midnightblue" d="M926.75,-225.24C857.19,-216.67 741.81,-202.35 632.33,-188.16"/>
<polygon fill="midnightblue" stroke="midnightblue" points="632.47,-184.65 622.1,-186.84 631.57,-191.59 632.47,-184.65"/>
</g>
<!-- Node9 -->
<g id="node9" class="node">
<title>Node9</title>
<g id="a_node9"><a xlink:title=" ">
<polygon fill="white" stroke="#bfbfbf" points="1066,-168.5 1066,-187.5 1138,-187.5 1138,-168.5 1066,-168.5"/>
<text text-anchor="middle" x="1102" y="-175.5" font-family="Helvetica,sans-Serif" font-size="10.00">SDL2/SDL.h</text>
</a>
</g>
</g>
<!-- Node8&#45;&gt;Node9 -->
<g id="edge8" class="edge">
<title>Node8&#45;&gt;Node9</title>
<path fill="none" stroke="midnightblue" d="M1007.99,-224.32C1026.04,-215.62 1054.05,-202.12 1074.8,-192.11"/>
<polygon fill="midnightblue" stroke="midnightblue" points="1076.56,-195.15 1084.05,-187.65 1073.52,-188.84 1076.56,-195.15"/>
</g>
<!-- Node10 -->
<g id="node10" class="node">
<title>Node10</title>
<g id="a_node10"><a xlink:href="keycode_8h.html" target="_top" xlink:title=" ">
<polygon fill="white" stroke="black" points="1292,-168.5 1292,-187.5 1386,-187.5 1386,-168.5 1292,-168.5"/>
<text text-anchor="middle" x="1339" y="-175.5" font-family="Helvetica,sans-Serif" font-size="10.00">input/keycode.h</text>
</a>
</g>
</g>
<!-- Node8&#45;&gt;Node10 -->
<g id="edge10" class="edge">
<title>Node8&#45;&gt;Node10</title>
<path fill="none" stroke="midnightblue" d="M1045.72,-224.48C1102.36,-215.8 1192.93,-201.88 1281.75,-188.03"/>
<polygon fill="midnightblue" stroke="midnightblue" points="1282.38,-191.48 1291.72,-186.48 1281.3,-184.56 1282.38,-191.48"/>
</g>
<!-- Node12 -->
<g id="node12" class="node">
<title>Node12</title>
<g id="a_node12"><a xlink:href="button__handler_8h.html" target="_top" xlink:title=" ">
<polygon fill="white" stroke="black" points="788,-168.5 788,-187.5 914,-187.5 914,-168.5 788,-168.5"/>
<text text-anchor="middle" x="851" y="-175.5" font-family="Helvetica,sans-Serif" font-size="10.00">input/button_handler.h</text>
</a>
</g>
</g>
<!-- Node8&#45;&gt;Node12 -->
<g id="edge12" class="edge">
<title>Node8&#45;&gt;Node12</title>
<path fill="none" stroke="midnightblue" d="M967.98,-224.44C944.9,-215.48 908.44,-201.31 882.36,-191.18"/>
<polygon fill="midnightblue" stroke="midnightblue" points="883.51,-187.88 872.92,-187.52 880.98,-194.4 883.51,-187.88"/>
</g>
<!-- Node26 -->
<g id="node26" class="node">
<title>Node26</title>
<g id="a_node26"><a xlink:href="axis__handler_8h.html" target="_top" xlink:title=" ">
<polygon fill="white" stroke="black" points="932.5,-168.5 932.5,-187.5 1047.5,-187.5 1047.5,-168.5 932.5,-168.5"/>
<text text-anchor="middle" x="990" y="-175.5" font-family="Helvetica,sans-Serif" font-size="10.00">input/axis_handler.h</text>
</a>
</g>
</g>
<!-- Node8&#45;&gt;Node26 -->
<g id="edge30" class="edge">
<title>Node8&#45;&gt;Node26</title>
<path fill="none" stroke="midnightblue" d="M990,-224.08C990,-217.01 990,-206.86 990,-197.99"/>
<polygon fill="midnightblue" stroke="midnightblue" points="993.5,-197.75 990,-187.75 986.5,-197.75 993.5,-197.75"/>
</g>
<!-- Node27 -->
<g id="node27" class="node">
<title>Node27</title>
<g id="a_node27"><a xlink:href="click__handler_8h.html" target="_top" xlink:title=" ">
<polygon fill="white" stroke="black" points="1156.5,-168.5 1156.5,-187.5 1273.5,-187.5 1273.5,-168.5 1156.5,-168.5"/>
<text text-anchor="middle" x="1215" y="-175.5" font-family="Helvetica,sans-Serif" font-size="10.00">input/click_handler.h</text>
</a>
</g>
</g>
<!-- Node8&#45;&gt;Node27 -->
<g id="edge37" class="edge">
<title>Node8&#45;&gt;Node27</title>
<path fill="none" stroke="midnightblue" d="M1025.65,-224.44C1064.66,-215.08 1127.27,-200.06 1169.72,-189.87"/>
<polygon fill="midnightblue" stroke="midnightblue" points="1170.61,-193.25 1179.51,-187.52 1168.97,-186.45 1170.61,-193.25"/>
</g>
<!-- Node28 -->
<g id="node28" class="node">
<title>Node28</title>
<g id="a_node28"><a xlink:href="motion__handler_8h.html" target="_top" xlink:title=" ">
<polygon fill="white" stroke="black" points="640.5,-168.5 640.5,-187.5 769.5,-187.5 769.5,-168.5 640.5,-168.5"/>
<text text-anchor="middle" x="705" y="-175.5" font-family="Helvetica,sans-Serif" font-size="10.00">input/motion_handler.h</text>
</a>
</g>
</g>
<!-- Node8&#45;&gt;Node28 -->
<g id="edge45" class="edge">
<title>Node8&#45;&gt;Node28</title>
<path fill="none" stroke="midnightblue" d="M944.84,-224.44C894.71,-214.94 813.78,-199.61 759.99,-189.42"/>
<polygon fill="midnightblue" stroke="midnightblue" points="760.42,-185.94 749.95,-187.52 759.12,-192.82 760.42,-185.94"/>
</g>
<!-- Node11 -->
<g id="node11" class="node">
<title>Node11</title>
<g id="a_node11"><a xlink:title=" ">
<polygon fill="white" stroke="#bfbfbf" points="1366,-112.5 1366,-131.5 1416,-131.5 1416,-112.5 1366,-112.5"/>
<text text-anchor="middle" x="1391" y="-119.5" font-family="Helvetica,sans-Serif" font-size="10.00">cstdint</text>
</a>
</g>
</g>
<!-- Node10&#45;&gt;Node11 -->
<g id="edge11" class="edge">
<title>Node10&#45;&gt;Node11</title>
<path fill="none" stroke="midnightblue" d="M1347.59,-168.08C1355.16,-160.22 1366.38,-148.57 1375.51,-139.08"/>
<polygon fill="midnightblue" stroke="midnightblue" points="1378.16,-141.38 1382.57,-131.75 1373.12,-136.53 1378.16,-141.38"/>
</g>
<!-- Node13 -->
<g id="node13" class="node">
<title>Node13</title>
<g id="a_node13"><a xlink:title=" ">
<polygon fill="white" stroke="#bfbfbf" points="499.5,-56.5 499.5,-75.5 592.5,-75.5 592.5,-56.5 499.5,-56.5"/>
<text text-anchor="middle" x="546" y="-63.5" font-family="Helvetica,sans-Serif" font-size="10.00">unordered_map</text>
</a>
</g>
</g>
<!-- Node12&#45;&gt;Node13 -->
<g id="edge13" class="edge">
<title>Node12&#45;&gt;Node13</title>
<path fill="none" stroke="midnightblue" d="M787.97,-169.14C714.67,-159.57 601.54,-143.29 585,-132 568.73,-120.89 558.16,-100.56 552.18,-85.58"/>
<polygon fill="midnightblue" stroke="midnightblue" points="555.33,-84.02 548.62,-75.83 548.76,-86.42 555.33,-84.02"/>
</g>
<!-- Node14 -->
<g id="node14" class="node">
<title>Node14</title>
<g id="a_node14"><a xlink:title=" ">
<polygon fill="white" stroke="#bfbfbf" points="878,-56.5 878,-75.5 964,-75.5 964,-56.5 878,-56.5"/>
<text text-anchor="middle" x="921" y="-63.5" font-family="Helvetica,sans-Serif" font-size="10.00">unordered_set</text>
</a>
</g>
</g>
<!-- Node12&#45;&gt;Node14 -->
<g id="edge14" class="edge">
<title>Node12&#45;&gt;Node14</title>
<path fill="none" stroke="midnightblue" d="M850.53,-168.32C850.21,-155.16 851.23,-129.83 862,-112 869.86,-99 883,-88.42 894.88,-80.8"/>
<polygon fill="midnightblue" stroke="midnightblue" points="896.85,-83.7 903.62,-75.56 893.25,-77.7 896.85,-83.7"/>
</g>
<!-- Node15 -->
<g id="node15" class="node">
<title>Node15</title>
<g id="a_node15"><a xlink:title=" ">
<polygon fill="white" stroke="#bfbfbf" points="904,-112.5 904,-131.5 952,-131.5 952,-112.5 904,-112.5"/>
<text text-anchor="middle" x="928" y="-119.5" font-family="Helvetica,sans-Serif" font-size="10.00">mutex</text>
</a>
</g>
</g>
<!-- Node12&#45;&gt;Node15 -->
<g id="edge15" class="edge">
<title>Node12&#45;&gt;Node15</title>
<path fill="none" stroke="midnightblue" d="M863.37,-168.32C875.16,-160.06 893.13,-147.45 907.14,-137.63"/>
<polygon fill="midnightblue" stroke="midnightblue" points="909.48,-140.26 915.66,-131.65 905.46,-134.53 909.48,-140.26"/>
</g>
<!-- Node16 -->
<g id="node16" class="node">
<title>Node16</title>
<g id="a_node16"><a xlink:href="event__dispatcher_8h.html" target="_top" xlink:title=" ">
<polygon fill="white" stroke="black" points="594,-112.5 594,-131.5 734,-131.5 734,-112.5 594,-112.5"/>
<text text-anchor="middle" x="664" y="-119.5" font-family="Helvetica,sans-Serif" font-size="10.00">event/event_dispatcher.h</text>
</a>
</g>
</g>
<!-- Node12&#45;&gt;Node16 -->
<g id="edge16" class="edge">
<title>Node12&#45;&gt;Node16</title>
<path fill="none" stroke="midnightblue" d="M821.37,-168.44C789.5,-159.24 738.67,-144.56 703.44,-134.39"/>
<polygon fill="midnightblue" stroke="midnightblue" points="704.07,-130.93 693.49,-131.52 702.13,-137.65 704.07,-130.93"/>
</g>
<!-- Node23 -->
<g id="node23" class="node">
<title>Node23</title>
<g id="a_node23"><a xlink:href="input_8h.html" target="_top" xlink:title="When making games, for portability purposes, as well as our own sanity, we do not want to hardcode ph...">
<polygon fill="white" stroke="black" points="1194,-56.5 1194,-75.5 1272,-75.5 1272,-56.5 1194,-56.5"/>
<text text-anchor="middle" x="1233" y="-63.5" font-family="Helvetica,sans-Serif" font-size="10.00">input/input.h</text>
</a>
</g>
</g>
<!-- Node12&#45;&gt;Node23 -->
<g id="edge25" class="edge">
<title>Node12&#45;&gt;Node23</title>
<path fill="none" stroke="midnightblue" d="M854.22,-168.05C859.95,-153.56 873.39,-125.24 895,-112 950.18,-78.18 1120.04,-85.85 1184,-76 1184.1,-75.98 1184.2,-75.97 1184.3,-75.95"/>
<polygon fill="midnightblue" stroke="midnightblue" points="1184.68,-79.44 1193.99,-74.38 1183.55,-72.53 1184.68,-79.44"/>
</g>
<!-- Node24 -->
<g id="node24" class="node">
<title>Node24</title>
<g id="a_node24"><a xlink:href="input__event_8h.html" target="_top" xlink:title=" ">
<polygon fill="white" stroke="black" points="1046.5,-112.5 1046.5,-131.5 1157.5,-131.5 1157.5,-112.5 1046.5,-112.5"/>
<text text-anchor="middle" x="1102" y="-119.5" font-family="Helvetica,sans-Serif" font-size="10.00">input/input_event.h</text>
</a>
</g>
</g>
<!-- Node12&#45;&gt;Node24 -->
<g id="edge26" class="edge">
<title>Node12&#45;&gt;Node24</title>
<path fill="none" stroke="midnightblue" d="M890.77,-168.44C934.56,-159.02 1005.01,-143.87 1052.38,-133.68"/>
<polygon fill="midnightblue" stroke="midnightblue" points="1053.37,-137.04 1062.41,-131.52 1051.9,-130.2 1053.37,-137.04"/>
</g>
<!-- Node16&#45;&gt;Node13 -->
<g id="edge18" class="edge">
<title>Node16&#45;&gt;Node13</title>
<path fill="none" stroke="midnightblue" d="M645.3,-112.44C626.06,-103.64 595.85,-89.81 573.8,-79.72"/>
<polygon fill="midnightblue" stroke="midnightblue" points="575.16,-76.5 564.61,-75.52 572.25,-82.86 575.16,-76.5"/>
</g>
<!-- Node16&#45;&gt;Node14 -->
<g id="edge19" class="edge">
<title>Node16&#45;&gt;Node14</title>
<path fill="none" stroke="midnightblue" d="M704.72,-112.44C749.65,-103 822,-87.8 870.5,-77.61"/>
<polygon fill="midnightblue" stroke="midnightblue" points="871.4,-81 880.47,-75.52 869.96,-74.15 871.4,-81"/>
</g>
<!-- Node17 -->
<g id="node17" class="node">
<title>Node17</title>
<g id="a_node17"><a xlink:title=" ">
<polygon fill="white" stroke="#bfbfbf" points="736,-56.5 736,-75.5 794,-75.5 794,-56.5 736,-56.5"/>
<text text-anchor="middle" x="765" y="-63.5" font-family="Helvetica,sans-Serif" font-size="10.00">memory</text>
</a>
</g>
</g>
<!-- Node16&#45;&gt;Node17 -->
<g id="edge17" class="edge">
<title>Node16&#45;&gt;Node17</title>
<path fill="none" stroke="midnightblue" d="M680.23,-112.32C696.35,-103.7 721.3,-90.36 739.96,-80.39"/>
<polygon fill="midnightblue" stroke="midnightblue" points="741.64,-83.46 748.81,-75.65 738.34,-77.28 741.64,-83.46"/>
</g>
<!-- Node18 -->
<g id="node18" class="node">
<title>Node18</title>
<g id="a_node18"><a xlink:title=" ">
<polygon fill="white" stroke="#bfbfbf" points="812.5,-56.5 812.5,-75.5 859.5,-75.5 859.5,-56.5 812.5,-56.5"/>
<text text-anchor="middle" x="836" y="-63.5" font-family="Helvetica,sans-Serif" font-size="10.00">vector</text>
</a>
</g>
</g>
<!-- Node16&#45;&gt;Node18 -->
<g id="edge20" class="edge">
<title>Node16&#45;&gt;Node18</title>
<path fill="none" stroke="midnightblue" d="M691.25,-112.44C721.43,-102.97 770.08,-87.7 802.54,-77.5"/>
<polygon fill="midnightblue" stroke="midnightblue" points="803.97,-80.72 812.47,-74.39 801.88,-74.04 803.97,-80.72"/>
</g>
<!-- Node19 -->
<g id="node19" class="node">
<title>Node19</title>
<g id="a_node19"><a xlink:title=" ">
<polygon fill="white" stroke="#bfbfbf" points="610.5,-56.5 610.5,-75.5 717.5,-75.5 717.5,-56.5 610.5,-56.5"/>
<text text-anchor="middle" x="664" y="-63.5" font-family="Helvetica,sans-Serif" font-size="10.00">common/type_id.h</text>
</a>
</g>
</g>
<!-- Node16&#45;&gt;Node19 -->
<g id="edge21" class="edge">
<title>Node16&#45;&gt;Node19</title>
<path fill="none" stroke="midnightblue" d="M664,-112.08C664,-105.01 664,-94.86 664,-85.99"/>
<polygon fill="midnightblue" stroke="midnightblue" points="667.5,-85.75 664,-75.75 660.5,-85.75 667.5,-85.75"/>
</g>
<!-- Node16&#45;&gt;Node20 -->
<g id="edge22" class="edge">
<title>Node16&#45;&gt;Node20</title>
<path fill="none" stroke="midnightblue" d="M734.16,-112.56C817.46,-102.54 955.73,-85.91 1040.19,-75.76"/>
<polygon fill="midnightblue" stroke="midnightblue" points="1040.7,-79.22 1050.21,-74.55 1039.87,-72.27 1040.7,-79.22"/>
</g>
<!-- Node21 -->
<g id="node21" class="node">
<title>Node21</title>
<g id="a_node21"><a xlink:title=" ">
<polygon fill="white" stroke="#bfbfbf" points="1082.5,-0.5 1082.5,-19.5 1147.5,-19.5 1147.5,-0.5 1082.5,-0.5"/>
<text text-anchor="middle" x="1115" y="-7.5" font-family="Helvetica,sans-Serif" font-size="10.00">functional</text>
</a>
</g>
</g>
<!-- Node20&#45;&gt;Node21 -->
<g id="edge23" class="edge">
<title>Node20&#45;&gt;Node21</title>
<path fill="none" stroke="midnightblue" d="M1113.33,-56.08C1113.59,-49.01 1113.97,-38.86 1114.3,-29.99"/>
<polygon fill="midnightblue" stroke="midnightblue" points="1117.8,-29.87 1114.68,-19.75 1110.81,-29.61 1117.8,-29.87"/>
</g>
<!-- Node22 -->
<g id="node22" class="node">
<title>Node22</title>
<g id="a_node22"><a xlink:href="event_8h.html" target="_top" xlink:title=" ">
<polygon fill="white" stroke="black" points="980,-0.5 980,-19.5 1064,-19.5 1064,-0.5 980,-0.5"/>
<text text-anchor="middle" x="1022" y="-7.5" font-family="Helvetica,sans-Serif" font-size="10.00">event/event.h</text>
</a>
</g>
</g>
<!-- Node20&#45;&gt;Node22 -->
<g id="edge24" class="edge">
<title>Node20&#45;&gt;Node22</title>
<path fill="none" stroke="midnightblue" d="M1098.38,-56.32C1084.05,-47.82 1061.99,-34.73 1045.25,-24.8"/>
<polygon fill="midnightblue" stroke="midnightblue" points="1046.97,-21.75 1036.58,-19.65 1043.4,-27.77 1046.97,-21.75"/>
</g>
<!-- Node24&#45;&gt;Node22 -->
<g id="edge28" class="edge">
<title>Node24&#45;&gt;Node22</title>
<path fill="none" stroke="midnightblue" d="M1084.82,-112.41C1071.05,-104.68 1052.23,-92.07 1041,-76 1031.43,-62.3 1026.63,-43.76 1024.25,-29.99"/>
<polygon fill="midnightblue" stroke="midnightblue" points="1027.67,-29.15 1022.77,-19.76 1020.74,-30.15 1027.67,-29.15"/>
</g>
<!-- Node24&#45;&gt;Node23 -->
<g id="edge29" class="edge">
<title>Node24&#45;&gt;Node23</title>
<path fill="none" stroke="midnightblue" d="M1122.76,-112.44C1144.32,-103.56 1178.26,-89.56 1202.79,-79.45"/>
<polygon fill="midnightblue" stroke="midnightblue" points="1204.43,-82.56 1212.34,-75.52 1201.76,-76.09 1204.43,-82.56"/>
</g>
<!-- Node25 -->
<g id="node25" class="node">
<title>Node25</title>
<g id="a_node25"><a xlink:title=" ">
<polygon fill="white" stroke="#bfbfbf" points="1290,-56.5 1290,-75.5 1386,-75.5 1386,-56.5 1290,-56.5"/>
<text text-anchor="middle" x="1338" y="-63.5" font-family="Helvetica,sans-Serif" font-size="10.00">maths/vector2.h</text>
</a>
</g>
</g>
<!-- Node24&#45;&gt;Node25 -->
<g id="edge27" class="edge">
<title>Node24&#45;&gt;Node25</title>
<path fill="none" stroke="midnightblue" d="M1139.39,-112.44C1180.39,-103.06 1246.25,-87.99 1290.78,-77.8"/>
<polygon fill="midnightblue" stroke="midnightblue" points="1291.81,-81.16 1300.78,-75.52 1290.25,-74.34 1291.81,-81.16"/>
</g>
<!-- Node26&#45;&gt;Node13 -->
<g id="edge31" class="edge">
<title>Node26&#45;&gt;Node13</title>
<path fill="none" stroke="midnightblue" d="M988.86,-168.1C986.5,-153.67 979.63,-125.46 961,-112 898.17,-66.63 696.06,-85.03 602.8,-76"/>
<polygon fill="midnightblue" stroke="midnightblue" points="603.11,-72.51 592.78,-74.86 602.32,-79.46 603.11,-72.51"/>
</g>
<!-- Node26&#45;&gt;Node14 -->
<g id="edge32" class="edge">
<title>Node26&#45;&gt;Node14</title>
<path fill="none" stroke="midnightblue" d="M993.32,-168.35C997.78,-155.24 1004.03,-129.97 994,-112 985.84,-97.39 970.78,-86.94 956.45,-79.8"/>
<polygon fill="midnightblue" stroke="midnightblue" points="957.76,-76.56 947.21,-75.59 954.85,-82.92 957.76,-76.56"/>
</g>
<!-- Node26&#45;&gt;Node15 -->
<g id="edge33" class="edge">
<title>Node26&#45;&gt;Node15</title>
<path fill="none" stroke="midnightblue" d="M980.04,-168.32C970.87,-160.34 957.06,-148.31 945.97,-138.65"/>
<polygon fill="midnightblue" stroke="midnightblue" points="947.98,-135.76 938.14,-131.83 943.38,-141.04 947.98,-135.76"/>
</g>
<!-- Node26&#45;&gt;Node16 -->
<g id="edge34" class="edge">
<title>Node26&#45;&gt;Node16</title>
<path fill="none" stroke="midnightblue" d="M938.34,-168.44C880.52,-158.87 786.89,-143.36 725.38,-133.17"/>
<polygon fill="midnightblue" stroke="midnightblue" points="725.85,-129.7 715.41,-131.52 724.71,-136.6 725.85,-129.7"/>
</g>
<!-- Node26&#45;&gt;Node23 -->
<g id="edge35" class="edge">
<title>Node26&#45;&gt;Node23</title>
<path fill="none" stroke="midnightblue" d="M1033.93,-168.47C1078.35,-159.37 1143.57,-144.55 1166,-132 1187.99,-119.69 1207.98,-98.36 1220.29,-83.5"/>
<polygon fill="midnightblue" stroke="midnightblue" points="1223.09,-85.61 1226.61,-75.62 1217.63,-81.23 1223.09,-85.61"/>
</g>
<!-- Node26&#45;&gt;Node24 -->
<g id="edge36" class="edge">
<title>Node26&#45;&gt;Node24</title>
<path fill="none" stroke="midnightblue" d="M1007.99,-168.32C1026.04,-159.62 1054.05,-146.12 1074.8,-136.11"/>
<polygon fill="midnightblue" stroke="midnightblue" points="1076.56,-139.15 1084.05,-131.65 1073.52,-132.84 1076.56,-139.15"/>
</g>
<!-- Node27&#45;&gt;Node13 -->
<g id="edge38" class="edge">
<title>Node27&#45;&gt;Node13</title>
<path fill="none" stroke="midnightblue" d="M1211.42,-168.35C1204.85,-153.75 1189.39,-124.6 1166,-112 1057.95,-53.78 741.95,-88.39 602.87,-75.99"/>
<polygon fill="midnightblue" stroke="midnightblue" points="603.07,-72.5 592.76,-74.97 602.36,-79.46 603.07,-72.5"/>
</g>
<!-- Node27&#45;&gt;Node14 -->
<g id="edge39" class="edge">
<title>Node27&#45;&gt;Node14</title>
<path fill="none" stroke="midnightblue" d="M1215.78,-168.38C1216.52,-154.36 1215.73,-126.71 1200,-112 1183.79,-96.84 1051.05,-80.62 974.65,-72.42"/>
<polygon fill="midnightblue" stroke="midnightblue" points="974.58,-68.89 964.26,-71.32 973.84,-75.85 974.58,-68.89"/>
</g>
<!-- Node27&#45;&gt;Node15 -->
<g id="edge40" class="edge">
<title>Node27&#45;&gt;Node15</title>
<path fill="none" stroke="midnightblue" d="M1169.52,-168.44C1111.85,-157.59 1013.72,-139.13 962.09,-129.41"/>
<polygon fill="midnightblue" stroke="midnightblue" points="962.58,-125.94 952.1,-127.54 961.28,-132.82 962.58,-125.94"/>
</g>
<!-- Node27&#45;&gt;Node16 -->
<g id="edge42" class="edge">
<title>Node27&#45;&gt;Node16</title>
<path fill="none" stroke="midnightblue" d="M1156.41,-169.1C1153.23,-168.72 1150.08,-168.35 1147,-168 1005.49,-152.05 840.2,-137.54 744.28,-129.52"/>
<polygon fill="midnightblue" stroke="midnightblue" points="744.33,-126.02 734.08,-128.67 743.75,-132.99 744.33,-126.02"/>
</g>
<!-- Node27&#45;&gt;Node23 -->
<g id="edge43" class="edge">
<title>Node27&#45;&gt;Node23</title>
<path fill="none" stroke="midnightblue" d="M1234.91,-168.41C1249.22,-161.04 1267.46,-148.92 1276,-132 1285.11,-113.96 1268.96,-94.85 1253.92,-82.05"/>
<polygon fill="midnightblue" stroke="midnightblue" points="1255.85,-79.12 1245.84,-75.64 1251.5,-84.6 1255.85,-79.12"/>
</g>
<!-- Node27&#45;&gt;Node24 -->
<g id="edge44" class="edge">
<title>Node27&#45;&gt;Node24</title>
<path fill="none" stroke="midnightblue" d="M1197.09,-168.44C1178.75,-159.68 1149.99,-145.94 1128.91,-135.86"/>
<polygon fill="midnightblue" stroke="midnightblue" points="1130.35,-132.67 1119.82,-131.52 1127.33,-138.99 1130.35,-132.67"/>
</g>
<!-- Node27&#45;&gt;Node25 -->
<g id="edge41" class="edge">
<title>Node27&#45;&gt;Node25</title>
<path fill="none" stroke="midnightblue" d="M1234.54,-168.47C1251.07,-160.62 1274.76,-147.8 1292,-132 1307.07,-118.19 1320.08,-98.64 1328.38,-84.6"/>
<polygon fill="midnightblue" stroke="midnightblue" points="1331.43,-86.31 1333.34,-75.89 1325.35,-82.85 1331.43,-86.31"/>
</g>
<!-- Node28&#45;&gt;Node13 -->
<g id="edge46" class="edge">
<title>Node28&#45;&gt;Node13</title>
<path fill="none" stroke="midnightblue" d="M654.81,-168.49C615.45,-160.73 565.19,-148.04 552,-132 541.55,-119.29 541.02,-100.09 542.52,-85.85"/>
<polygon fill="midnightblue" stroke="midnightblue" points="546.02,-86.11 544.01,-75.71 539.1,-85.1 546.02,-86.11"/>
</g>
<!-- Node28&#45;&gt;Node14 -->
<g id="edge47" class="edge">
<title>Node28&#45;&gt;Node14</title>
<path fill="none" stroke="midnightblue" d="M713.7,-168.23C727.77,-154.51 756.87,-127.88 786,-112 813.7,-96.9 847.35,-85.67 874.13,-78.21"/>
<polygon fill="midnightblue" stroke="midnightblue" points="875.29,-81.52 884.03,-75.53 873.46,-74.76 875.29,-81.52"/>
</g>
<!-- Node28&#45;&gt;Node15 -->
<g id="edge48" class="edge">
<title>Node28&#45;&gt;Node15</title>
<path fill="none" stroke="midnightblue" d="M740.34,-168.44C782.45,-158.24 852.34,-141.32 893.9,-131.26"/>
<polygon fill="midnightblue" stroke="midnightblue" points="894.93,-134.61 903.83,-128.85 893.28,-127.81 894.93,-134.61"/>
</g>
<!-- Node28&#45;&gt;Node16 -->
<g id="edge49" class="edge">
<title>Node28&#45;&gt;Node16</title>
<path fill="none" stroke="midnightblue" d="M698.23,-168.08C692.44,-160.46 683.94,-149.26 676.86,-139.94"/>
<polygon fill="midnightblue" stroke="midnightblue" points="679.48,-137.6 670.64,-131.75 673.9,-141.83 679.48,-137.6"/>
</g>
<!-- Node28&#45;&gt;Node23 -->
<g id="edge50" class="edge">
<title>Node28&#45;&gt;Node23</title>
<path fill="none" stroke="midnightblue" d="M722.44,-168.42C752.15,-154.22 814.84,-125.97 871,-112 1006.89,-78.19 1045.5,-96.66 1184,-76 1184.1,-75.98 1184.2,-75.97 1184.31,-75.95"/>
<polygon fill="midnightblue" stroke="midnightblue" points="1184.67,-79.44 1193.99,-74.41 1183.56,-72.53 1184.67,-79.44"/>
</g>
<!-- Node28&#45;&gt;Node24 -->
<g id="edge51" class="edge">
<title>Node28&#45;&gt;Node24</title>
<path fill="none" stroke="midnightblue" d="M767.91,-168.44C841.2,-158.47 961.74,-142.08 1036.24,-131.94"/>
<polygon fill="midnightblue" stroke="midnightblue" points="1037,-135.37 1046.43,-130.56 1036.05,-128.44 1037,-135.37"/>
</g>
<!-- Node29&#45;&gt;Node3 -->
<g id="edge54" class="edge">
<title>Node29&#45;&gt;Node3</title>
<path fill="none" stroke="midnightblue" d="M261.75,-224.44C217.35,-215 145.85,-199.8 97.91,-189.61"/>
<polygon fill="midnightblue" stroke="midnightblue" points="98.57,-186.17 88.06,-187.52 97.11,-193.02 98.57,-186.17"/>
</g>
<!-- Node30 -->
<g id="node30" class="node">
<title>Node30</title>
<g id="a_node30"><a xlink:title=" ">
<polygon fill="white" stroke="#bfbfbf" points="246,-168.5 246,-187.5 358,-187.5 358,-168.5 246,-168.5"/>
<text text-anchor="middle" x="302" y="-175.5" font-family="Helvetica,sans-Serif" font-size="10.00">maths/quaternion.h</text>
</a>
</g>
</g>
<!-- Node29&#45;&gt;Node30 -->
<g id="edge55" class="edge">
<title>Node29&#45;&gt;Node30</title>
<path fill="none" stroke="midnightblue" d="M302,-224.08C302,-217.01 302,-206.86 302,-197.99"/>
<polygon fill="midnightblue" stroke="midnightblue" points="305.5,-197.75 302,-187.75 298.5,-197.75 305.5,-197.75"/>
</g>
<!-- Node31 -->
<g id="node31" class="node">
<title>Node31</title>
<g id="a_node31"><a xlink:title=" ">
<polygon fill="white" stroke="#bfbfbf" points="114.5,-168.5 114.5,-187.5 227.5,-187.5 227.5,-168.5 114.5,-168.5"/>
<text text-anchor="middle" x="171" y="-175.5" font-family="Helvetica,sans-Serif" font-size="10.00">maths/matrix_util.h</text>
</a>
</g>
</g>
<!-- Node29&#45;&gt;Node31 -->
<g id="edge56" class="edge">
<title>Node29&#45;&gt;Node31</title>
<path fill="none" stroke="midnightblue" d="M281.24,-224.44C259.68,-215.56 225.74,-201.56 201.21,-191.45"/>
<polygon fill="midnightblue" stroke="midnightblue" points="202.24,-188.09 191.66,-187.52 199.57,-194.56 202.24,-188.09"/>
</g>
<!-- Node33 -->
<g id="node33" class="node">
<title>Node33</title>
<g id="a_node33"><a xlink:title=" ">
<polygon fill="white" stroke="#bfbfbf" points="1508.5,-168.5 1508.5,-187.5 1553.5,-187.5 1553.5,-168.5 1508.5,-168.5"/>
<text text-anchor="middle" x="1531" y="-175.5" font-family="Helvetica,sans-Serif" font-size="10.00">utility</text>
</a>
</g>
</g>
<!-- Node32&#45;&gt;Node33 -->
<g id="edge58" class="edge">
<title>Node32&#45;&gt;Node33</title>
<path fill="none" stroke="midnightblue" d="M1531,-224.08C1531,-217.01 1531,-206.86 1531,-197.99"/>
<polygon fill="midnightblue" stroke="midnightblue" points="1534.5,-197.75 1531,-187.75 1527.5,-197.75 1534.5,-197.75"/>
</g>
<!-- Node35&#45;&gt;Node23 -->
<g id="edge61" class="edge">
<title>Node35&#45;&gt;Node23</title>
<path fill="none" stroke="midnightblue" d="M1503.01,-112.47C1449.26,-104.04 1364.82,-90.56 1282.1,-76.16"/>
<polygon fill="midnightblue" stroke="midnightblue" points="1282.47,-72.67 1272.02,-74.4 1281.27,-79.57 1282.47,-72.67"/>
</g>
</g>
</svg>
        <g id="navigator" transform="translate(0 0)" fill="#404254">
                <rect fill="#f2f5e9" fill-opacity="0.5" stroke="#606060" stroke-width=".5" x="0" y="0" width="60" height="60"/>
                <use id="zoomplus" xlink:href="#zoomPlus" x="17" y="9" onmousedown="handleZoom(evt,'in')"/>
                <use id="zoomminus" xlink:href="#zoomMin" x="42" y="9" onmousedown="handleZoom(evt,'out')"/>
                <use id="reset" xlink:href="#resetDef" x="30" y="36" onmousedown="handleReset()"/>
                <g id="arrowUp" xlink:href="#dirArrow" transform="translate(30 24)" onmousedown="handlePan(0,-1)">
                  <use xlink:href="#rim" fill="#404040">
                        <set attributeName="fill" to="#808080" begin="arrowUp.mouseover" end="arrowUp.mouseout"/>
                  </use>
                  <path fill="none" stroke="white" stroke-width="1.5" d="M0,-3.0v7 M-2.5,-0.5L0,-3.0L2.5,-0.5"/>
                </g>
                <g id="arrowRight" xlink:href="#dirArrow" transform="rotate(90) translate(36 -43)" onmousedown="handlePan(1,0)">
                  <use xlink:href="#rim" fill="#404040">
                        <set attributeName="fill" to="#808080" begin="arrowRight.mouseover" end="arrowRight.mouseout"/>
                  </use>
                  <path fill="none" stroke="white" stroke-width="1.5" d="M0,-3.0v7 M-2.5,-0.5L0,-3.0L2.5,-0.5"/>
                </g>
                <g id="arrowDown" xlink:href="#dirArrow" transform="rotate(180) translate(-30 -48)" onmousedown="handlePan(0,1)">
                  <use xlink:href="#rim" fill="#404040">
                        <set attributeName="fill" to="#808080" begin="arrowDown.mouseover" end="arrowDown.mouseout"/>
                  </use>
                  <path fill="none" stroke="white" stroke-width="1.5" d="M0,-3.0v7 M-2.5,-0.5L0,-3.0L2.5,-0.5"/>
                </g>
                <g id="arrowLeft" xlink:href="#dirArrow" transform="rotate(270) translate(-36 17)" onmousedown="handlePan(-1,0)">
                  <use xlink:href="#rim" fill="#404040">
                        <set attributeName="fill" to="#808080" begin="arrowLeft.mouseover" end="arrowLeft.mouseout"/>
                  </use>
                  <path fill="none" stroke="white" stroke-width="1.5" d="M0,-3.0v7 M-2.5,-0.5L0,-3.0L2.5,-0.5"/>
                </g>
        </g>
        <svg viewBox="0 0 15 15" width="100%" height="30px" preserveAspectRatio="xMaxYMin meet">
         <g id="arrow_out" transform="scale(0.3 0.3)">
          <a xlink:href="head__control__system_8h__incl_org.svg" target="_base">
           <rect id="button" ry="5" rx="5" y="6" x="6" height="38" width="38"
                fill="#f2f5e9" fill-opacity="0.5" stroke="#606060" stroke-width="1.0"/>
           <path id="arrow"
             d="M 11.500037,31.436501 C 11.940474,20.09759 22.043105,11.32322 32.158766,21.979434 L 37.068811,17.246167 C 37.068811,17.246167 37.088388,32 37.088388,32 L 22.160133,31.978069 C 22.160133,31.978069 26.997745,27.140456 26.997745,27.140456 C 18.528582,18.264221 13.291696,25.230495 11.500037,31.436501 z"
             style="fill:#404040;"/>
          </a>
         </g>
        </svg>
</svg>
