<?xml version="1.0" encoding="UTF-8" standalone="no"?>
<!DOCTYPE svg PUBLIC "-//W3C//DTD SVG 1.1//EN"
 "http://www.w3.org/Graphics/SVG/1.1/DTD/svg11.dtd">
<!-- Generated by graphviz version 2.43.0 (0)
 -->
<!-- Title: src/game/system/head_control_system.h Pages: 1 -->
<svg width="2244pt" height="330pt"
 viewBox="0.00 0.00 2244.00 330.00" xmlns="http://www.w3.org/2000/svg" xmlns:xlink="http://www.w3.org/1999/xlink">
<g id="graph0" class="graph" transform="scale(1 1) rotate(0) translate(4 326)">
<title>src/game/system/head_control_system.h</title>
<polygon fill="white" stroke="transparent" points="-4,4 -4,-326 2240,-326 2240,4 -4,4"/>
<!-- Node1 -->
<g id="node1" class="node">
<title>Node1</title>
<g id="a_node1"><a xlink:title=" ">
<polygon fill="#bfbfbf" stroke="black" points="1289.5,-291.5 1289.5,-321.5 1417.5,-321.5 1417.5,-291.5 1289.5,-291.5"/>
<text text-anchor="start" x="1297.5" y="-309.5" font-family="Helvetica,sans-Serif" font-size="10.00">src/game/system/head</text>
<text text-anchor="middle" x="1353.5" y="-298.5" font-family="Helvetica,sans-Serif" font-size="10.00">_control_system.h</text>
</a>
</g>
</g>
<!-- Node2 -->
<g id="node2" class="node">
<title>Node2</title>
<g id="a_node2"><a xlink:href="log_8h.html" target="_top" xlink:title=" ">
<polygon fill="white" stroke="black" points="1411,-235.5 1411,-254.5 1470,-254.5 1470,-235.5 1411,-235.5"/>
<text text-anchor="middle" x="1440.5" y="-242.5" font-family="Helvetica,sans-Serif" font-size="10.00">log/log.h</text>
</a>
</g>
</g>
<!-- Node1&#45;&gt;Node2 -->
<g id="edge1" class="edge">
<title>Node1&#45;&gt;Node2</title>
<path fill="none" stroke="midnightblue" d="M1374.12,-291.4C1387.8,-282.04 1405.71,-269.79 1419.48,-260.38"/>
<polygon fill="midnightblue" stroke="midnightblue" points="1421.56,-263.19 1427.84,-254.66 1417.61,-257.41 1421.56,-263.19"/>
</g>
<!-- Node9 -->
<g id="node9" class="node">
<title>Node9</title>
<g id="a_node9"><a xlink:title=" ">
<polygon fill="white" stroke="#bfbfbf" points="1878.5,-174 1878.5,-193 1974.5,-193 1974.5,-174 1878.5,-174"/>
<text text-anchor="middle" x="1926.5" y="-181" font-family="Helvetica,sans-Serif" font-size="10.00">maths/vector3.h</text>
</a>
</g>
</g>
<!-- Node1&#45;&gt;Node9 -->
<g id="edge8" class="edge">
<title>Node1&#45;&gt;Node9</title>
<path fill="none" stroke="midnightblue" d="M1417.51,-293.14C1515.07,-274.11 1706.72,-235.93 1868.5,-199 1873.43,-197.87 1878.59,-196.65 1883.71,-195.41"/>
<polygon fill="midnightblue" stroke="midnightblue" points="1884.56,-198.8 1893.43,-193.02 1882.88,-192.01 1884.56,-198.8"/>
</g>
<!-- Node10 -->
<g id="node10" class="node">
<title>Node10</title>
<g id="a_node10"><a xlink:href="application_8h.html" target="_top" xlink:title=" ">
<polygon fill="white" stroke="black" points="1188,-235.5 1188,-254.5 1325,-254.5 1325,-235.5 1188,-235.5"/>
<text text-anchor="middle" x="1256.5" y="-242.5" font-family="Helvetica,sans-Serif" font-size="10.00">application/application.h</text>
</a>
</g>
</g>
<!-- Node1&#45;&gt;Node10 -->
<g id="edge9" class="edge">
<title>Node1&#45;&gt;Node10</title>
<path fill="none" stroke="midnightblue" d="M1330.51,-291.4C1315.11,-281.95 1294.91,-269.56 1279.5,-260.11"/>
<polygon fill="midnightblue" stroke="midnightblue" points="1280.97,-256.9 1270.61,-254.66 1277.31,-262.87 1280.97,-256.9"/>
</g>
<!-- Node13 -->
<g id="node13" class="node">
<title>Node13</title>
<g id="a_node13"><a xlink:href="input__manager_8h.html" target="_top" xlink:title=" ">
<polygon fill="white" stroke="black" points="730.5,-235.5 730.5,-254.5 856.5,-254.5 856.5,-235.5 730.5,-235.5"/>
<text text-anchor="middle" x="793.5" y="-242.5" font-family="Helvetica,sans-Serif" font-size="10.00">input/input_manager.h</text>
</a>
</g>
</g>
<!-- Node1&#45;&gt;Node13 -->
<g id="edge13" class="edge">
<title>Node1&#45;&gt;Node13</title>
<path fill="none" stroke="midnightblue" d="M1289.26,-298.67C1184.37,-287.53 976.98,-265.49 866.61,-253.77"/>
<polygon fill="midnightblue" stroke="midnightblue" points="866.88,-250.28 856.56,-252.7 866.14,-257.24 866.88,-250.28"/>
</g>
<!-- Node25 -->
<g id="node25" class="node">
<title>Node25</title>
<g id="a_node25"><a xlink:href="event__listener_8h.html" target="_top" xlink:title=" ">
<polygon fill="white" stroke="black" points="12,-56.5 12,-75.5 137,-75.5 137,-56.5 12,-56.5"/>
<text text-anchor="middle" x="74.5" y="-63.5" font-family="Helvetica,sans-Serif" font-size="10.00">event/event_listener.h</text>
</a>
</g>
</g>
<!-- Node1&#45;&gt;Node25 -->
<g id="edge60" class="edge">
<title>Node1&#45;&gt;Node25</title>
<path fill="none" stroke="midnightblue" d="M1289.24,-303.09C1083.16,-294.77 440.82,-264.13 244.5,-199 187.99,-180.25 174.01,-170.39 128.5,-132 111.76,-117.88 96.18,-98.12 86.1,-84.1"/>
<polygon fill="midnightblue" stroke="midnightblue" points="88.91,-82.02 80.31,-75.84 83.18,-86.04 88.91,-82.02"/>
</g>
<!-- Node35 -->
<g id="node35" class="node">
<title>Node35</title>
<g id="a_node35"><a xlink:href="transform_8h.html" target="_top" xlink:title=" ">
<polygon fill="white" stroke="black" points="1861,-235.5 1861,-254.5 1992,-254.5 1992,-235.5 1861,-235.5"/>
<text text-anchor="middle" x="1926.5" y="-242.5" font-family="Helvetica,sans-Serif" font-size="10.00">component/transform.h</text>
</a>
</g>
</g>
<!-- Node1&#45;&gt;Node35 -->
<g id="edge61" class="edge">
<title>Node1&#45;&gt;Node35</title>
<path fill="none" stroke="midnightblue" d="M1417.56,-298.85C1524.01,-287.79 1736.83,-265.69 1850.62,-253.88"/>
<polygon fill="midnightblue" stroke="midnightblue" points="1851.07,-257.35 1860.65,-252.84 1850.34,-250.39 1851.07,-257.35"/>
</g>
<!-- Node38 -->
<g id="node38" class="node">
<title>Node38</title>
<g id="a_node38"><a xlink:href="system_8h.html" target="_top" xlink:title=" ">
<polygon fill="white" stroke="black" points="1236,-112.5 1236,-131.5 1337,-131.5 1337,-112.5 1236,-112.5"/>
<text text-anchor="middle" x="1286.5" y="-119.5" font-family="Helvetica,sans-Serif" font-size="10.00">system/system.h</text>
</a>
</g>
</g>
<!-- Node1&#45;&gt;Node38 -->
<g id="edge65" class="edge">
<title>Node1&#45;&gt;Node38</title>
<path fill="none" stroke="midnightblue" d="M1349.85,-291.35C1346.07,-277.05 1339.84,-254.34 1333.5,-235 1323.6,-204.8 1321.05,-197.2 1308.5,-168 1304.55,-158.8 1299.7,-148.77 1295.56,-140.52"/>
<polygon fill="midnightblue" stroke="midnightblue" points="1298.63,-138.83 1290.97,-131.51 1292.39,-142.01 1298.63,-138.83"/>
</g>
<!-- Node39 -->
<g id="node39" class="node">
<title>Node39</title>
<g id="a_node39"><a xlink:href="tag_8h.html" target="_top" xlink:title=" ">
<polygon fill="white" stroke="black" points="2010,-235.5 2010,-254.5 2101,-254.5 2101,-235.5 2010,-235.5"/>
<text text-anchor="middle" x="2055.5" y="-242.5" font-family="Helvetica,sans-Serif" font-size="10.00">game/tag/tag.h</text>
</a>
</g>
</g>
<!-- Node1&#45;&gt;Node39 -->
<g id="edge67" class="edge">
<title>Node1&#45;&gt;Node39</title>
<path fill="none" stroke="midnightblue" d="M1417.61,-302.36C1532.39,-296.34 1780.74,-281.47 1999.8,-255.12"/>
<polygon fill="midnightblue" stroke="midnightblue" points="2000.37,-258.57 2009.88,-253.89 1999.53,-251.62 2000.37,-258.57"/>
</g>
<!-- Node40 -->
<g id="node40" class="node">
<title>Node40</title>
<g id="a_node40"><a xlink:href="game__controls_8h.html" target="_top" xlink:title=" ">
<polygon fill="white" stroke="black" points="1040.5,-112.5 1040.5,-131.5 1196.5,-131.5 1196.5,-112.5 1040.5,-112.5"/>
<text text-anchor="middle" x="1118.5" y="-119.5" font-family="Helvetica,sans-Serif" font-size="10.00">game/input/game_controls.h</text>
</a>
</g>
</g>
<!-- Node1&#45;&gt;Node40 -->
<g id="edge68" class="edge">
<title>Node1&#45;&gt;Node40</title>
<path fill="none" stroke="midnightblue" d="M1289.25,-300.34C1253.02,-294.41 1209.05,-281.79 1178.5,-255 1146.78,-227.18 1158.21,-206.3 1140.5,-168 1136.3,-158.91 1131.42,-148.89 1127.33,-140.62"/>
<polygon fill="midnightblue" stroke="midnightblue" points="1130.42,-138.97 1122.83,-131.57 1124.15,-142.09 1130.42,-138.97"/>
</g>
<!-- Node3 -->
<g id="node3" class="node">
<title>Node3</title>
<g id="a_node3"><a xlink:title=" ">
<polygon fill="white" stroke="#bfbfbf" points="1264,-0.5 1264,-19.5 1309,-19.5 1309,-0.5 1264,-0.5"/>
<text text-anchor="middle" x="1286.5" y="-7.5" font-family="Helvetica,sans-Serif" font-size="10.00">utility</text>
</a>
</g>
</g>
<!-- Node2&#45;&gt;Node3 -->
<g id="edge2" class="edge">
<title>Node2&#45;&gt;Node3</title>
<path fill="none" stroke="midnightblue" d="M1426.02,-235.18C1413.66,-227.05 1396.09,-214 1384.5,-199 1358.6,-165.46 1364.88,-149.68 1345.5,-112 1330.01,-81.89 1309.68,-48.16 1297.37,-28.3"/>
<polygon fill="midnightblue" stroke="midnightblue" points="1300.3,-26.37 1292.03,-19.74 1294.36,-30.08 1300.3,-26.37"/>
</g>
<!-- Node4 -->
<g id="node4" class="node">
<title>Node4</title>
<g id="a_node4"><a xlink:title=" ">
<polygon fill="white" stroke="#bfbfbf" points="1255.5,-174 1255.5,-193 1299.5,-193 1299.5,-174 1255.5,-174"/>
<text text-anchor="middle" x="1277.5" y="-181" font-family="Helvetica,sans-Serif" font-size="10.00">string</text>
</a>
</g>
</g>
<!-- Node2&#45;&gt;Node4 -->
<g id="edge3" class="edge">
<title>Node2&#45;&gt;Node4</title>
<path fill="none" stroke="midnightblue" d="M1417.15,-235.48C1388.79,-225.12 1340.83,-207.62 1309.17,-196.06"/>
<polygon fill="midnightblue" stroke="midnightblue" points="1310.1,-192.67 1299.51,-192.53 1307.7,-199.25 1310.1,-192.67"/>
</g>
<!-- Node5 -->
<g id="node5" class="node">
<title>Node5</title>
<g id="a_node5"><a xlink:title=" ">
<polygon fill="white" stroke="#bfbfbf" points="1394,-174 1394,-193 1487,-193 1487,-174 1394,-174"/>
<text text-anchor="middle" x="1440.5" y="-181" font-family="Helvetica,sans-Serif" font-size="10.00">spdlog/spdlog.h</text>
</a>
</g>
</g>
<!-- Node2&#45;&gt;Node5 -->
<g id="edge4" class="edge">
<title>Node2&#45;&gt;Node5</title>
<path fill="none" stroke="midnightblue" d="M1440.5,-235.48C1440.5,-227.08 1440.5,-213.98 1440.5,-203.16"/>
<polygon fill="midnightblue" stroke="midnightblue" points="1444,-203.01 1440.5,-193.01 1437,-203.01 1444,-203.01"/>
</g>
<!-- Node6 -->
<g id="node6" class="node">
<title>Node6</title>
<g id="a_node6"><a xlink:title=" ">
<polygon fill="white" stroke="#bfbfbf" points="1505,-174 1505,-193 1594,-193 1594,-174 1505,-174"/>
<text text-anchor="middle" x="1549.5" y="-181" font-family="Helvetica,sans-Serif" font-size="10.00">spdlog/async.h</text>
</a>
</g>
</g>
<!-- Node2&#45;&gt;Node6 -->
<g id="edge5" class="edge">
<title>Node2&#45;&gt;Node6</title>
<path fill="none" stroke="midnightblue" d="M1456.12,-235.48C1474.09,-225.67 1503.82,-209.43 1524.91,-197.92"/>
<polygon fill="midnightblue" stroke="midnightblue" points="1526.81,-200.87 1533.91,-193.01 1523.46,-194.73 1526.81,-200.87"/>
</g>
<!-- Node7 -->
<g id="node7" class="node">
<title>Node7</title>
<g id="a_node7"><a xlink:title=" ">
<polygon fill="white" stroke="#bfbfbf" points="1612,-168.5 1612,-198.5 1731,-198.5 1731,-168.5 1612,-168.5"/>
<text text-anchor="start" x="1620" y="-186.5" font-family="Helvetica,sans-Serif" font-size="10.00">spdlog/sinks/rotating</text>
<text text-anchor="middle" x="1671.5" y="-175.5" font-family="Helvetica,sans-Serif" font-size="10.00">_file_sink.h</text>
</a>
</g>
</g>
<!-- Node2&#45;&gt;Node7 -->
<g id="edge6" class="edge">
<title>Node2&#45;&gt;Node7</title>
<path fill="none" stroke="midnightblue" d="M1470.23,-236.34C1504.55,-227.5 1562.03,-212.7 1606.8,-201.17"/>
<polygon fill="midnightblue" stroke="midnightblue" points="1607.91,-204.49 1616.72,-198.61 1606.17,-197.71 1607.91,-204.49"/>
</g>
<!-- Node8 -->
<g id="node8" class="node">
<title>Node8</title>
<g id="a_node8"><a xlink:title=" ">
<polygon fill="white" stroke="#bfbfbf" points="1749,-168.5 1749,-198.5 1860,-198.5 1860,-168.5 1749,-168.5"/>
<text text-anchor="start" x="1757" y="-186.5" font-family="Helvetica,sans-Serif" font-size="10.00">spdlog/sinks/stdout</text>
<text text-anchor="middle" x="1804.5" y="-175.5" font-family="Helvetica,sans-Serif" font-size="10.00">_color_sinks.h</text>
</a>
</g>
</g>
<!-- Node2&#45;&gt;Node8 -->
<g id="edge7" class="edge">
<title>Node2&#45;&gt;Node8</title>
<path fill="none" stroke="midnightblue" d="M1470.32,-240.22C1522.56,-233.44 1634.19,-218.28 1738.79,-199.05"/>
<polygon fill="midnightblue" stroke="midnightblue" points="1739.69,-202.44 1748.88,-197.18 1738.41,-195.56 1739.69,-202.44"/>
</g>
<!-- Node10&#45;&gt;Node4 -->
<g id="edge11" class="edge">
<title>Node10&#45;&gt;Node4</title>
<path fill="none" stroke="midnightblue" d="M1259.51,-235.48C1262.53,-226.9 1267.29,-213.43 1271.15,-202.48"/>
<polygon fill="midnightblue" stroke="midnightblue" points="1274.47,-203.6 1274.5,-193.01 1267.87,-201.27 1274.47,-203.6"/>
</g>
<!-- Node11 -->
<g id="node11" class="node">
<title>Node11</title>
<g id="a_node11"><a xlink:title=" ">
<polygon fill="white" stroke="#bfbfbf" points="1187.5,-174 1187.5,-193 1237.5,-193 1237.5,-174 1187.5,-174"/>
<text text-anchor="middle" x="1212.5" y="-181" font-family="Helvetica,sans-Serif" font-size="10.00">atomic</text>
</a>
</g>
</g>
<!-- Node10&#45;&gt;Node11 -->
<g id="edge10" class="edge">
<title>Node10&#45;&gt;Node11</title>
<path fill="none" stroke="midnightblue" d="M1250.2,-235.48C1243.6,-226.55 1233.06,-212.31 1224.81,-201.14"/>
<polygon fill="midnightblue" stroke="midnightblue" points="1227.55,-198.97 1218.79,-193.01 1221.92,-203.13 1227.55,-198.97"/>
</g>
<!-- Node12 -->
<g id="node12" class="node">
<title>Node12</title>
<g id="a_node12"><a xlink:title=" ">
<polygon fill="white" stroke="#bfbfbf" points="1015.5,-174 1015.5,-193 1131.5,-193 1131.5,-174 1015.5,-174"/>
<text text-anchor="middle" x="1073.5" y="-181" font-family="Helvetica,sans-Serif" font-size="10.00">common/singleton.h</text>
</a>
</g>
</g>
<!-- Node10&#45;&gt;Node12 -->
<g id="edge12" class="edge">
<title>Node10&#45;&gt;Node12</title>
<path fill="none" stroke="midnightblue" d="M1230.28,-235.48C1198.48,-225.14 1144.73,-207.66 1109.18,-196.1"/>
<polygon fill="midnightblue" stroke="midnightblue" points="1110.26,-192.77 1099.67,-193.01 1108.1,-199.43 1110.26,-192.77"/>
</g>
<!-- Node13&#45;&gt;Node12 -->
<g id="edge15" class="edge">
<title>Node13&#45;&gt;Node12</title>
<path fill="none" stroke="midnightblue" d="M834.35,-235.43C877.23,-226.42 946.63,-211.8 1006.5,-199 1012.24,-197.77 1018.26,-196.48 1024.23,-195.19"/>
<polygon fill="midnightblue" stroke="midnightblue" points="1025.15,-198.57 1034.18,-193.04 1023.67,-191.73 1025.15,-198.57"/>
</g>
<!-- Node14 -->
<g id="node14" class="node">
<title>Node14</title>
<g id="a_node14"><a xlink:title=" ">
<polygon fill="white" stroke="#bfbfbf" points="813.5,-174 813.5,-193 885.5,-193 885.5,-174 813.5,-174"/>
<text text-anchor="middle" x="849.5" y="-181" font-family="Helvetica,sans-Serif" font-size="10.00">SDL2/SDL.h</text>
</a>
</g>
</g>
<!-- Node13&#45;&gt;Node14 -->
<g id="edge14" class="edge">
<title>Node13&#45;&gt;Node14</title>
<path fill="none" stroke="midnightblue" d="M801.52,-235.48C810.09,-226.37 823.86,-211.74 834.46,-200.48"/>
<polygon fill="midnightblue" stroke="midnightblue" points="837.19,-202.69 841.49,-193.01 832.09,-197.89 837.19,-202.69"/>
</g>
<!-- Node15 -->
<g id="node15" class="node">
<title>Node15</title>
<g id="a_node15"><a xlink:href="keycode_8h.html" target="_top" xlink:title=" ">
<polygon fill="white" stroke="black" points="903.5,-174 903.5,-193 997.5,-193 997.5,-174 903.5,-174"/>
<text text-anchor="middle" x="950.5" y="-181" font-family="Helvetica,sans-Serif" font-size="10.00">input/keycode.h</text>
</a>
</g>
</g>
<!-- Node13&#45;&gt;Node15 -->
<g id="edge16" class="edge">
<title>Node13&#45;&gt;Node15</title>
<path fill="none" stroke="midnightblue" d="M815.99,-235.48C842.81,-225.31 887.82,-208.26 918.31,-196.7"/>
<polygon fill="midnightblue" stroke="midnightblue" points="919.94,-199.83 928.05,-193.01 917.46,-193.28 919.94,-199.83"/>
</g>
<!-- Node17 -->
<g id="node17" class="node">
<title>Node17</title>
<g id="a_node17"><a xlink:href="button__handler_8h.html" target="_top" xlink:title=" ">
<polygon fill="white" stroke="black" points="253.5,-174 253.5,-193 379.5,-193 379.5,-174 253.5,-174"/>
<text text-anchor="middle" x="316.5" y="-181" font-family="Helvetica,sans-Serif" font-size="10.00">input/button_handler.h</text>
</a>
</g>
</g>
<!-- Node13&#45;&gt;Node17 -->
<g id="edge18" class="edge">
<title>Node13&#45;&gt;Node17</title>
<path fill="none" stroke="midnightblue" d="M730.48,-238.73C650.63,-231.66 508.9,-217.78 388.5,-199 381.05,-197.84 373.21,-196.44 365.54,-194.98"/>
<polygon fill="midnightblue" stroke="midnightblue" points="366.11,-191.52 355.62,-193.03 364.76,-198.39 366.11,-191.52"/>
</g>
<!-- Node32 -->
<g id="node32" class="node">
<title>Node32</title>
<g id="a_node32"><a xlink:href="axis__handler_8h.html" target="_top" xlink:title=" ">
<polygon fill="white" stroke="black" points="545,-174 545,-193 660,-193 660,-174 545,-174"/>
<text text-anchor="middle" x="602.5" y="-181" font-family="Helvetica,sans-Serif" font-size="10.00">input/axis_handler.h</text>
</a>
</g>
</g>
<!-- Node13&#45;&gt;Node32 -->
<g id="edge38" class="edge">
<title>Node13&#45;&gt;Node32</title>
<path fill="none" stroke="midnightblue" d="M766.13,-235.48C732.95,-225.14 676.85,-207.66 639.74,-196.1"/>
<polygon fill="midnightblue" stroke="midnightblue" points="640.4,-192.64 629.81,-193.01 638.32,-199.32 640.4,-192.64"/>
</g>
<!-- Node33 -->
<g id="node33" class="node">
<title>Node33</title>
<g id="a_node33"><a xlink:href="click__handler_8h.html" target="_top" xlink:title=" ">
<polygon fill="white" stroke="black" points="678,-174 678,-193 795,-193 795,-174 678,-174"/>
<text text-anchor="middle" x="736.5" y="-181" font-family="Helvetica,sans-Serif" font-size="10.00">input/click_handler.h</text>
</a>
</g>
</g>
<!-- Node13&#45;&gt;Node33 -->
<g id="edge45" class="edge">
<title>Node13&#45;&gt;Node33</title>
<path fill="none" stroke="midnightblue" d="M785.33,-235.48C776.61,-226.37 762.6,-211.74 751.81,-200.48"/>
<polygon fill="midnightblue" stroke="midnightblue" points="754.1,-197.81 744.65,-193.01 749.04,-202.65 754.1,-197.81"/>
</g>
<!-- Node34 -->
<g id="node34" class="node">
<title>Node34</title>
<g id="a_node34"><a xlink:href="motion__handler_8h.html" target="_top" xlink:title=" ">
<polygon fill="white" stroke="black" points="398,-174 398,-193 527,-193 527,-174 398,-174"/>
<text text-anchor="middle" x="462.5" y="-181" font-family="Helvetica,sans-Serif" font-size="10.00">input/motion_handler.h</text>
</a>
</g>
</g>
<!-- Node13&#45;&gt;Node34 -->
<g id="edge53" class="edge">
<title>Node13&#45;&gt;Node34</title>
<path fill="none" stroke="midnightblue" d="M742.53,-235.47C690.44,-226.67 607.24,-212.38 535.5,-199 528.76,-197.74 521.67,-196.38 514.68,-195.02"/>
<polygon fill="midnightblue" stroke="midnightblue" points="515.03,-191.52 504.54,-193.03 513.68,-198.39 515.03,-191.52"/>
</g>
<!-- Node16 -->
<g id="node16" class="node">
<title>Node16</title>
<g id="a_node16"><a xlink:title=" ">
<polygon fill="white" stroke="#bfbfbf" points="950.5,-112.5 950.5,-131.5 1000.5,-131.5 1000.5,-112.5 950.5,-112.5"/>
<text text-anchor="middle" x="975.5" y="-119.5" font-family="Helvetica,sans-Serif" font-size="10.00">cstdint</text>
</a>
</g>
</g>
<!-- Node15&#45;&gt;Node16 -->
<g id="edge17" class="edge">
<title>Node15&#45;&gt;Node16</title>
<path fill="none" stroke="midnightblue" d="M954.08,-173.98C957.68,-165.4 963.35,-151.93 967.94,-140.98"/>
<polygon fill="midnightblue" stroke="midnightblue" points="971.28,-142.08 971.92,-131.51 964.82,-139.37 971.28,-142.08"/>
</g>
<!-- Node18 -->
<g id="node18" class="node">
<title>Node18</title>
<g id="a_node18"><a xlink:title=" ">
<polygon fill="white" stroke="#bfbfbf" points="527,-56.5 527,-75.5 620,-75.5 620,-56.5 527,-56.5"/>
<text text-anchor="middle" x="573.5" y="-63.5" font-family="Helvetica,sans-Serif" font-size="10.00">unordered_map</text>
</a>
</g>
</g>
<!-- Node17&#45;&gt;Node18 -->
<g id="edge19" class="edge">
<title>Node17&#45;&gt;Node18</title>
<path fill="none" stroke="midnightblue" d="M334.81,-173.9C363.45,-160.47 420.63,-133.83 469.5,-112 494.47,-100.85 522.98,-88.54 543.83,-79.62"/>
<polygon fill="midnightblue" stroke="midnightblue" points="545.29,-82.8 553.11,-75.65 542.54,-76.36 545.29,-82.8"/>
</g>
<!-- Node19 -->
<g id="node19" class="node">
<title>Node19</title>
<g id="a_node19"><a xlink:title=" ">
<polygon fill="white" stroke="#bfbfbf" points="155.5,-56.5 155.5,-75.5 241.5,-75.5 241.5,-56.5 155.5,-56.5"/>
<text text-anchor="middle" x="198.5" y="-63.5" font-family="Helvetica,sans-Serif" font-size="10.00">unordered_set</text>
</a>
</g>
</g>
<!-- Node17&#45;&gt;Node19 -->
<g id="edge20" class="edge">
<title>Node17&#45;&gt;Node19</title>
<path fill="none" stroke="midnightblue" d="M258.43,-173.92C211.67,-165.68 151.35,-151.59 136.5,-132 121.93,-112.78 147.6,-93.05 170.21,-80.45"/>
<polygon fill="midnightblue" stroke="midnightblue" points="172.05,-83.43 179.26,-75.67 168.79,-77.24 172.05,-83.43"/>
</g>
<!-- Node20 -->
<g id="node20" class="node">
<title>Node20</title>
<g id="a_node20"><a xlink:title=" ">
<polygon fill="white" stroke="#bfbfbf" points="526.5,-112.5 526.5,-131.5 574.5,-131.5 574.5,-112.5 526.5,-112.5"/>
<text text-anchor="middle" x="550.5" y="-119.5" font-family="Helvetica,sans-Serif" font-size="10.00">mutex</text>
</a>
</g>
</g>
<!-- Node17&#45;&gt;Node20 -->
<g id="edge21" class="edge">
<title>Node17&#45;&gt;Node20</title>
<path fill="none" stroke="midnightblue" d="M350.03,-173.98C394.34,-162.71 472,-142.96 516.54,-131.64"/>
<polygon fill="midnightblue" stroke="midnightblue" points="517.48,-135.01 526.31,-129.15 515.75,-128.22 517.48,-135.01"/>
</g>
<!-- Node21 -->
<g id="node21" class="node">
<title>Node21</title>
<g id="a_node21"><a xlink:href="event__dispatcher_8h.html" target="_top" xlink:title=" ">
<polygon fill="white" stroke="black" points="216.5,-112.5 216.5,-131.5 356.5,-131.5 356.5,-112.5 216.5,-112.5"/>
<text text-anchor="middle" x="286.5" y="-119.5" font-family="Helvetica,sans-Serif" font-size="10.00">event/event_dispatcher.h</text>
</a>
</g>
</g>
<!-- Node17&#45;&gt;Node21 -->
<g id="edge22" class="edge">
<title>Node17&#45;&gt;Node21</title>
<path fill="none" stroke="midnightblue" d="M312.2,-173.98C307.84,-165.32 300.94,-151.65 295.4,-140.65"/>
<polygon fill="midnightblue" stroke="midnightblue" points="298.42,-138.86 290.79,-131.51 292.17,-142.01 298.42,-138.86"/>
</g>
<!-- Node29 -->
<g id="node29" class="node">
<title>Node29</title>
<g id="a_node29"><a xlink:href="input_8h.html" target="_top" xlink:title="When making games, for portability purposes, as well as our own sanity, we do not want to hardcode ph...">
<polygon fill="white" stroke="black" points="732.5,-56.5 732.5,-75.5 810.5,-75.5 810.5,-56.5 732.5,-56.5"/>
<text text-anchor="middle" x="771.5" y="-63.5" font-family="Helvetica,sans-Serif" font-size="10.00">input/input.h</text>
</a>
</g>
</g>
<!-- Node17&#45;&gt;Node29 -->
<g id="edge33" class="edge">
<title>Node17&#45;&gt;Node29</title>
<path fill="none" stroke="midnightblue" d="M339.65,-173.89C365.75,-164.09 409.39,-147.44 446.5,-132 466.71,-123.59 470.52,-118.23 491.5,-112 570.36,-88.57 665.57,-76.55 722.18,-71.03"/>
<polygon fill="midnightblue" stroke="midnightblue" points="722.67,-74.5 732.29,-70.08 722.01,-67.54 722.67,-74.5"/>
</g>
<!-- Node30 -->
<g id="node30" class="node">
<title>Node30</title>
<g id="a_node30"><a xlink:href="input__event_8h.html" target="_top" xlink:title=" ">
<polygon fill="white" stroke="black" points="631,-112.5 631,-131.5 742,-131.5 742,-112.5 631,-112.5"/>
<text text-anchor="middle" x="686.5" y="-119.5" font-family="Helvetica,sans-Serif" font-size="10.00">input/input_event.h</text>
</a>
</g>
</g>
<!-- Node17&#45;&gt;Node30 -->
<g id="edge34" class="edge">
<title>Node17&#45;&gt;Node30</title>
<path fill="none" stroke="midnightblue" d="M357.18,-173.95C367.39,-171.9 378.33,-169.79 388.5,-168 468.14,-153.98 560.24,-140.48 620.72,-131.99"/>
<polygon fill="midnightblue" stroke="midnightblue" points="621.48,-135.42 630.9,-130.57 620.51,-128.49 621.48,-135.42"/>
</g>
<!-- Node21&#45;&gt;Node18 -->
<g id="edge24" class="edge">
<title>Node21&#45;&gt;Node18</title>
<path fill="none" stroke="midnightblue" d="M331.98,-112.44C382.46,-102.94 463.96,-87.61 518.12,-77.42"/>
<polygon fill="midnightblue" stroke="midnightblue" points="519.06,-80.81 528.24,-75.52 517.76,-73.93 519.06,-80.81"/>
</g>
<!-- Node21&#45;&gt;Node19 -->
<g id="edge25" class="edge">
<title>Node21&#45;&gt;Node19</title>
<path fill="none" stroke="midnightblue" d="M272.36,-112.32C258.63,-103.9 237.56,-90.97 221.44,-81.07"/>
<polygon fill="midnightblue" stroke="midnightblue" points="222.96,-77.9 212.6,-75.65 219.3,-83.87 222.96,-77.9"/>
</g>
<!-- Node22 -->
<g id="node22" class="node">
<title>Node22</title>
<g id="a_node22"><a xlink:title=" ">
<polygon fill="white" stroke="#bfbfbf" points="450.5,-56.5 450.5,-75.5 508.5,-75.5 508.5,-56.5 450.5,-56.5"/>
<text text-anchor="middle" x="479.5" y="-63.5" font-family="Helvetica,sans-Serif" font-size="10.00">memory</text>
</a>
</g>
</g>
<!-- Node21&#45;&gt;Node22 -->
<g id="edge23" class="edge">
<title>Node21&#45;&gt;Node22</title>
<path fill="none" stroke="midnightblue" d="M317.08,-112.44C350.5,-103.09 404.13,-88.09 440.54,-77.9"/>
<polygon fill="midnightblue" stroke="midnightblue" points="441.64,-81.23 450.33,-75.16 439.75,-74.49 441.64,-81.23"/>
</g>
<!-- Node23 -->
<g id="node23" class="node">
<title>Node23</title>
<g id="a_node23"><a xlink:title=" ">
<polygon fill="white" stroke="#bfbfbf" points="260,-56.5 260,-75.5 307,-75.5 307,-56.5 260,-56.5"/>
<text text-anchor="middle" x="283.5" y="-63.5" font-family="Helvetica,sans-Serif" font-size="10.00">vector</text>
</a>
</g>
</g>
<!-- Node21&#45;&gt;Node23 -->
<g id="edge26" class="edge">
<title>Node21&#45;&gt;Node23</title>
<path fill="none" stroke="midnightblue" d="M286,-112.08C285.61,-105.01 285.05,-94.86 284.55,-85.99"/>
<polygon fill="midnightblue" stroke="midnightblue" points="288.04,-85.54 283.99,-75.75 281.05,-85.93 288.04,-85.54"/>
</g>
<!-- Node24 -->
<g id="node24" class="node">
<title>Node24</title>
<g id="a_node24"><a xlink:title=" ">
<polygon fill="white" stroke="#bfbfbf" points="325,-56.5 325,-75.5 432,-75.5 432,-56.5 325,-56.5"/>
<text text-anchor="middle" x="378.5" y="-63.5" font-family="Helvetica,sans-Serif" font-size="10.00">common/type_id.h</text>
</a>
</g>
</g>
<!-- Node21&#45;&gt;Node24 -->
<g id="edge27" class="edge">
<title>Node21&#45;&gt;Node24</title>
<path fill="none" stroke="midnightblue" d="M301.28,-112.32C315.77,-103.82 338.07,-90.73 354.99,-80.8"/>
<polygon fill="midnightblue" stroke="midnightblue" points="356.9,-83.74 363.76,-75.65 353.36,-77.7 356.9,-83.74"/>
</g>
<!-- Node21&#45;&gt;Node25 -->
<g id="edge28" class="edge">
<title>Node21&#45;&gt;Node25</title>
<path fill="none" stroke="midnightblue" d="M252.91,-112.44C216.31,-103.12 157.66,-88.18 117.67,-78"/>
<polygon fill="midnightblue" stroke="midnightblue" points="118.49,-74.59 107.93,-75.52 116.76,-81.38 118.49,-74.59"/>
</g>
<!-- Node25&#45;&gt;Node3 -->
<g id="edge31" class="edge">
<title>Node25&#45;&gt;Node3</title>
<path fill="none" stroke="midnightblue" d="M137.3,-56.83C140.41,-56.53 143.49,-56.25 146.5,-56 583.76,-20.11 1117.8,-12.64 1253.79,-11.28"/>
<polygon fill="midnightblue" stroke="midnightblue" points="1253.99,-14.77 1263.96,-11.18 1253.92,-7.77 1253.99,-14.77"/>
</g>
<!-- Node26 -->
<g id="node26" class="node">
<title>Node26</title>
<g id="a_node26"><a xlink:title=" ">
<polygon fill="white" stroke="#bfbfbf" points="0,-0.5 0,-19.5 65,-19.5 65,-0.5 0,-0.5"/>
<text text-anchor="middle" x="32.5" y="-7.5" font-family="Helvetica,sans-Serif" font-size="10.00">functional</text>
</a>
</g>
</g>
<!-- Node25&#45;&gt;Node26 -->
<g id="edge29" class="edge">
<title>Node25&#45;&gt;Node26</title>
<path fill="none" stroke="midnightblue" d="M67.56,-56.08C61.57,-48.38 52.75,-37.03 45.45,-27.65"/>
<polygon fill="midnightblue" stroke="midnightblue" points="48.21,-25.5 39.31,-19.75 42.68,-29.79 48.21,-25.5"/>
</g>
<!-- Node27 -->
<g id="node27" class="node">
<title>Node27</title>
<g id="a_node27"><a xlink:title=" ">
<polygon fill="white" stroke="#bfbfbf" points="83,-0.5 83,-19.5 152,-19.5 152,-0.5 83,-0.5"/>
<text text-anchor="middle" x="117.5" y="-7.5" font-family="Helvetica,sans-Serif" font-size="10.00">type_traits</text>
</a>
</g>
</g>
<!-- Node25&#45;&gt;Node27 -->
<g id="edge30" class="edge">
<title>Node25&#45;&gt;Node27</title>
<path fill="none" stroke="midnightblue" d="M81.6,-56.08C87.74,-48.38 96.77,-37.03 104.24,-27.65"/>
<polygon fill="midnightblue" stroke="midnightblue" points="107.04,-29.75 110.53,-19.75 101.56,-25.39 107.04,-29.75"/>
</g>
<!-- Node28 -->
<g id="node28" class="node">
<title>Node28</title>
<g id="a_node28"><a xlink:href="event_8h.html" target="_top" xlink:title=" ">
<polygon fill="white" stroke="black" points="388.5,-0.5 388.5,-19.5 472.5,-19.5 472.5,-0.5 388.5,-0.5"/>
<text text-anchor="middle" x="430.5" y="-7.5" font-family="Helvetica,sans-Serif" font-size="10.00">event/event.h</text>
</a>
</g>
</g>
<!-- Node25&#45;&gt;Node28 -->
<g id="edge32" class="edge">
<title>Node25&#45;&gt;Node28</title>
<path fill="none" stroke="midnightblue" d="M130.91,-56.44C198.84,-46.14 312.02,-28.97 378.1,-18.95"/>
<polygon fill="midnightblue" stroke="midnightblue" points="378.93,-22.36 388.29,-17.4 377.88,-15.44 378.93,-22.36"/>
</g>
<!-- Node30&#45;&gt;Node28 -->
<g id="edge36" class="edge">
<title>Node30&#45;&gt;Node28</title>
<path fill="none" stroke="midnightblue" d="M681.3,-112.28C672.37,-98.13 652.73,-70.29 628.5,-56 583.62,-29.53 524.56,-18.62 482.65,-14.14"/>
<polygon fill="midnightblue" stroke="midnightblue" points="482.95,-10.65 472.65,-13.15 482.26,-17.61 482.95,-10.65"/>
</g>
<!-- Node30&#45;&gt;Node29 -->
<g id="edge37" class="edge">
<title>Node30&#45;&gt;Node29</title>
<path fill="none" stroke="midnightblue" d="M700.16,-112.32C713.42,-103.9 733.77,-90.97 749.35,-81.07"/>
<polygon fill="midnightblue" stroke="midnightblue" points="751.31,-83.97 757.88,-75.65 747.56,-78.06 751.31,-83.97"/>
</g>
<!-- Node31 -->
<g id="node31" class="node">
<title>Node31</title>
<g id="a_node31"><a xlink:title=" ">
<polygon fill="white" stroke="#bfbfbf" points="851.5,-56.5 851.5,-75.5 947.5,-75.5 947.5,-56.5 851.5,-56.5"/>
<text text-anchor="middle" x="899.5" y="-63.5" font-family="Helvetica,sans-Serif" font-size="10.00">maths/vector2.h</text>
</a>
</g>
</g>
<!-- Node30&#45;&gt;Node31 -->
<g id="edge35" class="edge">
<title>Node30&#45;&gt;Node31</title>
<path fill="none" stroke="midnightblue" d="M720.25,-112.44C757.02,-103.12 815.95,-88.18 856.12,-78"/>
<polygon fill="midnightblue" stroke="midnightblue" points="857.07,-81.37 865.91,-75.52 855.35,-74.58 857.07,-81.37"/>
</g>
<!-- Node32&#45;&gt;Node18 -->
<g id="edge39" class="edge">
<title>Node32&#45;&gt;Node18</title>
<path fill="none" stroke="midnightblue" d="M600.32,-173.82C595.64,-155.17 584.53,-110.94 578.18,-85.63"/>
<polygon fill="midnightblue" stroke="midnightblue" points="581.53,-84.63 575.71,-75.78 574.75,-86.33 581.53,-84.63"/>
</g>
<!-- Node32&#45;&gt;Node19 -->
<g id="edge40" class="edge">
<title>Node32&#45;&gt;Node19</title>
<path fill="none" stroke="midnightblue" d="M566.47,-173.98C556.48,-171.82 545.6,-169.64 535.5,-168 463.12,-156.23 260.08,-183.11 207.5,-132 195.39,-120.23 194.29,-100.3 195.5,-85.6"/>
<polygon fill="midnightblue" stroke="midnightblue" points="198.99,-85.96 196.74,-75.61 192.04,-85.1 198.99,-85.96"/>
</g>
<!-- Node32&#45;&gt;Node20 -->
<g id="edge41" class="edge">
<title>Node32&#45;&gt;Node20</title>
<path fill="none" stroke="midnightblue" d="M595.05,-173.98C587.17,-164.96 574.56,-150.52 564.76,-139.31"/>
<polygon fill="midnightblue" stroke="midnightblue" points="567.15,-136.74 557.94,-131.51 561.88,-141.34 567.15,-136.74"/>
</g>
<!-- Node32&#45;&gt;Node21 -->
<g id="edge42" class="edge">
<title>Node32&#45;&gt;Node21</title>
<path fill="none" stroke="midnightblue" d="M564.28,-173.99C554.88,-171.97 544.84,-169.85 535.5,-168 471.2,-155.24 397.26,-142.06 346.77,-133.29"/>
<polygon fill="midnightblue" stroke="midnightblue" points="347.12,-129.8 336.67,-131.55 345.93,-136.7 347.12,-129.8"/>
</g>
<!-- Node32&#45;&gt;Node29 -->
<g id="edge43" class="edge">
<title>Node32&#45;&gt;Node29</title>
<path fill="none" stroke="midnightblue" d="M639.35,-173.95C677.85,-164.33 734.79,-147.97 750.5,-132 762.58,-119.73 767.71,-100.47 769.89,-86.09"/>
<polygon fill="midnightblue" stroke="midnightblue" points="773.4,-86.18 771.08,-75.84 766.45,-85.37 773.4,-86.18"/>
</g>
<!-- Node32&#45;&gt;Node30 -->
<g id="edge44" class="edge">
<title>Node32&#45;&gt;Node30</title>
<path fill="none" stroke="midnightblue" d="M614.54,-173.98C628.01,-164.43 650.07,-148.81 666.22,-137.37"/>
<polygon fill="midnightblue" stroke="midnightblue" points="668.35,-140.15 674.49,-131.51 664.3,-134.43 668.35,-140.15"/>
</g>
<!-- Node33&#45;&gt;Node18 -->
<g id="edge46" class="edge">
<title>Node33&#45;&gt;Node18</title>
<path fill="none" stroke="midnightblue" d="M749.82,-173.93C769.34,-160.33 801.64,-133.18 784.5,-112 765.42,-88.43 686.07,-76.67 630.31,-71.21"/>
<polygon fill="midnightblue" stroke="midnightblue" points="630.48,-67.71 620.2,-70.27 629.83,-74.68 630.48,-67.71"/>
</g>
<!-- Node33&#45;&gt;Node19 -->
<g id="edge47" class="edge">
<title>Node33&#45;&gt;Node19</title>
<path fill="none" stroke="midnightblue" d="M742.32,-173.86C751.44,-159.14 766.48,-129.17 750.5,-112 714.19,-72.98 340.06,-81.86 251.7,-75.72"/>
<polygon fill="midnightblue" stroke="midnightblue" points="251.86,-72.22 241.58,-74.8 251.22,-79.19 251.86,-72.22"/>
</g>
<!-- Node33&#45;&gt;Node20 -->
<g id="edge48" class="edge">
<title>Node33&#45;&gt;Node20</title>
<path fill="none" stroke="midnightblue" d="M709.85,-173.98C676.8,-163.4 620.41,-145.36 584.33,-133.82"/>
<polygon fill="midnightblue" stroke="midnightblue" points="585.32,-130.47 574.73,-130.75 583.19,-137.13 585.32,-130.47"/>
</g>
<!-- Node33&#45;&gt;Node21 -->
<g id="edge50" class="edge">
<title>Node33&#45;&gt;Node21</title>
<path fill="none" stroke="midnightblue" d="M699.56,-173.97C689.52,-171.83 678.62,-169.67 668.5,-168 564.93,-150.9 444.53,-137.83 367.01,-130.29"/>
<polygon fill="midnightblue" stroke="midnightblue" points="367.12,-126.79 356.83,-129.31 366.45,-133.75 367.12,-126.79"/>
</g>
<!-- Node33&#45;&gt;Node29 -->
<g id="edge51" class="edge">
<title>Node33&#45;&gt;Node29</title>
<path fill="none" stroke="midnightblue" d="M768.31,-173.93C801.38,-164.29 849.8,-147.91 860.5,-132 876.54,-108.15 843.1,-89.9 812.73,-78.9"/>
<polygon fill="midnightblue" stroke="midnightblue" points="813.64,-75.51 803.05,-75.59 811.37,-82.14 813.64,-75.51"/>
</g>
<!-- Node33&#45;&gt;Node30 -->
<g id="edge52" class="edge">
<title>Node33&#45;&gt;Node30</title>
<path fill="none" stroke="midnightblue" d="M729.34,-173.98C721.76,-164.96 709.63,-150.52 700.21,-139.31"/>
<polygon fill="midnightblue" stroke="midnightblue" points="702.76,-136.91 693.65,-131.51 697.4,-141.42 702.76,-136.91"/>
</g>
<!-- Node33&#45;&gt;Node31 -->
<g id="edge49" class="edge">
<title>Node33&#45;&gt;Node31</title>
<path fill="none" stroke="midnightblue" d="M770.59,-173.96C807.25,-164.16 862.33,-147.44 877.5,-132 889.62,-119.66 895.07,-100.41 897.52,-86.06"/>
<polygon fill="midnightblue" stroke="midnightblue" points="901.03,-86.2 898.9,-75.82 894.09,-85.26 901.03,-86.2"/>
</g>
<!-- Node34&#45;&gt;Node18 -->
<g id="edge54" class="edge">
<title>Node34&#45;&gt;Node18</title>
<path fill="none" stroke="midnightblue" d="M463.08,-173.65C464.46,-159.17 469.09,-130.2 484.5,-112 497.34,-96.84 516.55,-86.23 533.84,-79.13"/>
<polygon fill="midnightblue" stroke="midnightblue" points="535.11,-82.39 543.2,-75.55 532.61,-75.86 535.11,-82.39"/>
</g>
<!-- Node34&#45;&gt;Node19 -->
<g id="edge55" class="edge">
<title>Node34&#45;&gt;Node19</title>
<path fill="none" stroke="midnightblue" d="M419.88,-173.95C409.62,-171.94 398.68,-169.85 388.5,-168 341.06,-159.36 205.64,-168.82 174.5,-132 162.66,-118.01 173.42,-97.64 184.07,-83.45"/>
<polygon fill="midnightblue" stroke="midnightblue" points="186.91,-85.5 190.48,-75.52 181.47,-81.1 186.91,-85.5"/>
</g>
<!-- Node34&#45;&gt;Node20 -->
<g id="edge56" class="edge">
<title>Node34&#45;&gt;Node20</title>
<path fill="none" stroke="midnightblue" d="M475.11,-173.98C489.22,-164.43 512.33,-148.81 529.25,-137.37"/>
<polygon fill="midnightblue" stroke="midnightblue" points="531.59,-140.01 537.92,-131.51 527.67,-134.21 531.59,-140.01"/>
</g>
<!-- Node34&#45;&gt;Node21 -->
<g id="edge57" class="edge">
<title>Node34&#45;&gt;Node21</title>
<path fill="none" stroke="midnightblue" d="M437.28,-173.98C406.83,-163.68 355.45,-146.31 321.26,-134.75"/>
<polygon fill="midnightblue" stroke="midnightblue" points="322.26,-131.4 311.67,-131.51 320.02,-138.03 322.26,-131.4"/>
</g>
<!-- Node34&#45;&gt;Node29 -->
<g id="edge58" class="edge">
<title>Node34&#45;&gt;Node29</title>
<path fill="none" stroke="midnightblue" d="M466.54,-173.89C474.17,-158.68 492.23,-127.21 517.5,-112 551.21,-91.71 658.31,-78.07 722.17,-71.51"/>
<polygon fill="midnightblue" stroke="midnightblue" points="722.82,-74.97 732.42,-70.49 722.12,-68 722.82,-74.97"/>
</g>
<!-- Node34&#45;&gt;Node30 -->
<g id="edge59" class="edge">
<title>Node34&#45;&gt;Node30</title>
<path fill="none" stroke="midnightblue" d="M494.59,-173.98C534.1,-163.48 601.28,-145.64 644.76,-134.09"/>
<polygon fill="midnightblue" stroke="midnightblue" points="645.7,-137.46 654.47,-131.51 643.9,-130.69 645.7,-137.46"/>
</g>
<!-- Node35&#45;&gt;Node9 -->
<g id="edge62" class="edge">
<title>Node35&#45;&gt;Node9</title>
<path fill="none" stroke="midnightblue" d="M1926.5,-235.48C1926.5,-227.08 1926.5,-213.98 1926.5,-203.16"/>
<polygon fill="midnightblue" stroke="midnightblue" points="1930,-203.01 1926.5,-193.01 1923,-203.01 1930,-203.01"/>
</g>
<!-- Node36 -->
<g id="node36" class="node">
<title>Node36</title>
<g id="a_node36"><a xlink:title=" ">
<polygon fill="white" stroke="#bfbfbf" points="1992.5,-174 1992.5,-193 2104.5,-193 2104.5,-174 1992.5,-174"/>
<text text-anchor="middle" x="2048.5" y="-181" font-family="Helvetica,sans-Serif" font-size="10.00">maths/quaternion.h</text>
</a>
</g>
</g>
<!-- Node35&#45;&gt;Node36 -->
<g id="edge63" class="edge">
<title>Node35&#45;&gt;Node36</title>
<path fill="none" stroke="midnightblue" d="M1943.98,-235.48C1964.36,-225.53 1998.28,-208.99 2021.92,-197.46"/>
<polygon fill="midnightblue" stroke="midnightblue" points="2023.6,-200.54 2031.05,-193.01 2020.53,-194.25 2023.6,-200.54"/>
</g>
<!-- Node37 -->
<g id="node37" class="node">
<title>Node37</title>
<g id="a_node37"><a xlink:title=" ">
<polygon fill="white" stroke="#bfbfbf" points="2123,-174 2123,-193 2236,-193 2236,-174 2123,-174"/>
<text text-anchor="middle" x="2179.5" y="-181" font-family="Helvetica,sans-Serif" font-size="10.00">maths/matrix_util.h</text>
</a>
</g>
</g>
<!-- Node35&#45;&gt;Node37 -->
<g id="edge64" class="edge">
<title>Node35&#45;&gt;Node37</title>
<path fill="none" stroke="midnightblue" d="M1962.75,-235.48C2007.65,-224.92 2084.21,-206.91 2133.28,-195.37"/>
<polygon fill="midnightblue" stroke="midnightblue" points="2134.39,-198.71 2143.32,-193.01 2132.78,-191.89 2134.39,-198.71"/>
</g>
<!-- Node38&#45;&gt;Node3 -->
<g id="edge66" class="edge">
<title>Node38&#45;&gt;Node3</title>
<path fill="none" stroke="midnightblue" d="M1286.5,-112.37C1286.5,-94.62 1286.5,-53.67 1286.5,-29.6"/>
<polygon fill="midnightblue" stroke="midnightblue" points="1290,-29.59 1286.5,-19.59 1283,-29.59 1290,-29.59"/>
</g>
<!-- Node40&#45;&gt;Node29 -->
<g id="edge69" class="edge">
<title>Node40&#45;&gt;Node29</title>
<path fill="none" stroke="midnightblue" d="M1063.52,-112.44C996.72,-102.05 885.02,-84.67 820.87,-74.68"/>
<polygon fill="midnightblue" stroke="midnightblue" points="821.03,-71.17 810.61,-73.09 819.95,-78.08 821.03,-71.17"/>
</g>
</g>
</svg>
