<?xml version="1.0" encoding="UTF-8" standalone="no"?>
<!DOCTYPE svg PUBLIC "-//W3C//DTD SVG 1.1//EN"
 "http://www.w3.org/Graphics/SVG/1.1/DTD/svg11.dtd">
<!-- Generated by graphviz version 2.43.0 (0)
 -->
<!-- Title: src/game/system/head_control_system.h Pages: 1 -->
<svg width="2191pt" height="330pt"
 viewBox="0.00 0.00 2190.50 330.00" xmlns="http://www.w3.org/2000/svg" xmlns:xlink="http://www.w3.org/1999/xlink">
<g id="graph0" class="graph" transform="scale(1 1) rotate(0) translate(4 326)">
<title>src/game/system/head_control_system.h</title>
<polygon fill="white" stroke="transparent" points="-4,4 -4,-326 2186.5,-326 2186.5,4 -4,4"/>
<!-- Node1 -->
<g id="node1" class="node">
<title>Node1</title>
<g id="a_node1"><a xlink:title=" ">
<polygon fill="#bfbfbf" stroke="black" points="1520.5,-291.5 1520.5,-321.5 1648.5,-321.5 1648.5,-291.5 1520.5,-291.5"/>
<text text-anchor="start" x="1528.5" y="-309.5" font-family="Helvetica,sans-Serif" font-size="10.00">src/game/system/head</text>
<text text-anchor="middle" x="1584.5" y="-298.5" font-family="Helvetica,sans-Serif" font-size="10.00">_control_system.h</text>
</a>
</g>
</g>
<!-- Node2 -->
<g id="node2" class="node">
<title>Node2</title>
<g id="a_node2"><a xlink:href="log_8h.html" target="_top" xlink:title=" ">
<polygon fill="white" stroke="black" points="377,-235.5 377,-254.5 436,-254.5 436,-235.5 377,-235.5"/>
<text text-anchor="middle" x="406.5" y="-242.5" font-family="Helvetica,sans-Serif" font-size="10.00">log/log.h</text>
</a>
</g>
</g>
<!-- Node1&#45;&gt;Node2 -->
<g id="edge1" class="edge">
<title>Node1&#45;&gt;Node2</title>
<path fill="none" stroke="midnightblue" d="M1520.24,-304.76C1349.06,-302.32 867.89,-292.39 469.5,-255 461.93,-254.29 453.87,-253.31 446.14,-252.26"/>
<polygon fill="midnightblue" stroke="midnightblue" points="446.63,-248.79 436.23,-250.85 445.64,-255.72 446.63,-248.79"/>
</g>
<!-- Node9 -->
<g id="node9" class="node">
<title>Node9</title>
<g id="a_node9"><a xlink:title=" ">
<polygon fill="white" stroke="#bfbfbf" points="1612.5,-174 1612.5,-193 1708.5,-193 1708.5,-174 1612.5,-174"/>
<text text-anchor="middle" x="1660.5" y="-181" font-family="Helvetica,sans-Serif" font-size="10.00">maths/vector3.h</text>
</a>
</g>
</g>
<!-- Node1&#45;&gt;Node9 -->
<g id="edge8" class="edge">
<title>Node1&#45;&gt;Node9</title>
<path fill="none" stroke="midnightblue" d="M1593.52,-291.14C1607.55,-268.81 1634.56,-225.8 1649.64,-201.79"/>
<polygon fill="midnightblue" stroke="midnightblue" points="1652.77,-203.38 1655.13,-193.05 1646.85,-199.66 1652.77,-203.38"/>
</g>
<!-- Node10 -->
<g id="node10" class="node">
<title>Node10</title>
<g id="a_node10"><a xlink:href="application_8h.html" target="_top" xlink:title=" ">
<polygon fill="white" stroke="black" points="644,-235.5 644,-254.5 781,-254.5 781,-235.5 644,-235.5"/>
<text text-anchor="middle" x="712.5" y="-242.5" font-family="Helvetica,sans-Serif" font-size="10.00">application/application.h</text>
</a>
</g>
</g>
<!-- Node1&#45;&gt;Node10 -->
<g id="edge9" class="edge">
<title>Node1&#45;&gt;Node10</title>
<path fill="none" stroke="midnightblue" d="M1520.38,-301.12C1363.79,-290.44 962.26,-263.04 791.39,-251.38"/>
<polygon fill="midnightblue" stroke="midnightblue" points="791.42,-247.88 781.21,-250.69 790.95,-254.86 791.42,-247.88"/>
</g>
<!-- Node13 -->
<g id="node13" class="node">
<title>Node13</title>
<g id="a_node13"><a xlink:href="input__manager_8h.html" target="_top" xlink:title=" ">
<polygon fill="white" stroke="black" points="1150.5,-235.5 1150.5,-254.5 1276.5,-254.5 1276.5,-235.5 1150.5,-235.5"/>
<text text-anchor="middle" x="1213.5" y="-242.5" font-family="Helvetica,sans-Serif" font-size="10.00">input/input_manager.h</text>
</a>
</g>
</g>
<!-- Node1&#45;&gt;Node13 -->
<g id="edge13" class="edge">
<title>Node1&#45;&gt;Node13</title>
<path fill="none" stroke="midnightblue" d="M1520.3,-295.2C1452.05,-284.26 1344.78,-267.05 1276.85,-256.16"/>
<polygon fill="midnightblue" stroke="midnightblue" points="1277.14,-252.66 1266.71,-254.53 1276.03,-259.57 1277.14,-252.66"/>
</g>
<!-- Node25 -->
<g id="node25" class="node">
<title>Node25</title>
<g id="a_node25"><a xlink:href="event__listener_8h.html" target="_top" xlink:title=" ">
<polygon fill="white" stroke="black" points="1217,-56.5 1217,-75.5 1342,-75.5 1342,-56.5 1217,-56.5"/>
<text text-anchor="middle" x="1279.5" y="-63.5" font-family="Helvetica,sans-Serif" font-size="10.00">event/event_listener.h</text>
</a>
</g>
</g>
<!-- Node1&#45;&gt;Node25 -->
<g id="edge58" class="edge">
<title>Node1&#45;&gt;Node25</title>
<path fill="none" stroke="midnightblue" d="M1648.6,-304.33C1782.94,-299.73 2074.1,-277.23 1979.5,-168 1969.23,-156.14 1529.08,-98.83 1352.08,-76.21"/>
<polygon fill="midnightblue" stroke="midnightblue" points="1352.44,-72.73 1342.08,-74.93 1351.55,-79.67 1352.44,-72.73"/>
</g>
<!-- Node34 -->
<g id="node34" class="node">
<title>Node34</title>
<g id="a_node34"><a xlink:href="transform_8h.html" target="_top" xlink:title=" ">
<polygon fill="white" stroke="black" points="1651,-235.5 1651,-254.5 1782,-254.5 1782,-235.5 1651,-235.5"/>
<text text-anchor="middle" x="1716.5" y="-242.5" font-family="Helvetica,sans-Serif" font-size="10.00">component/transform.h</text>
</a>
</g>
</g>
<!-- Node1&#45;&gt;Node34 -->
<g id="edge59" class="edge">
<title>Node1&#45;&gt;Node34</title>
<path fill="none" stroke="midnightblue" d="M1615.78,-291.4C1637.73,-281.51 1666.84,-268.38 1688.12,-258.79"/>
<polygon fill="midnightblue" stroke="midnightblue" points="1689.61,-261.96 1697.29,-254.66 1686.74,-255.58 1689.61,-261.96"/>
</g>
<!-- Node37 -->
<g id="node37" class="node">
<title>Node37</title>
<g id="a_node37"><a xlink:href="system_8h.html" target="_top" xlink:title=" ">
<polygon fill="white" stroke="black" points="479,-235.5 479,-254.5 580,-254.5 580,-235.5 479,-235.5"/>
<text text-anchor="middle" x="529.5" y="-242.5" font-family="Helvetica,sans-Serif" font-size="10.00">system/system.h</text>
</a>
</g>
</g>
<!-- Node1&#45;&gt;Node37 -->
<g id="edge63" class="edge">
<title>Node1&#45;&gt;Node37</title>
<path fill="none" stroke="midnightblue" d="M1520.24,-302.8C1366.89,-296.21 967.54,-278.12 634.5,-255 620.25,-254.01 604.93,-252.79 590.52,-251.57"/>
<polygon fill="midnightblue" stroke="midnightblue" points="590.47,-248.05 580.21,-250.68 589.87,-255.02 590.47,-248.05"/>
</g>
<!-- Node38 -->
<g id="node38" class="node">
<title>Node38</title>
<g id="a_node38"><a xlink:href="tag_8h.html" target="_top" xlink:title=" ">
<polygon fill="white" stroke="black" points="1800,-235.5 1800,-254.5 1891,-254.5 1891,-235.5 1800,-235.5"/>
<text text-anchor="middle" x="1845.5" y="-242.5" font-family="Helvetica,sans-Serif" font-size="10.00">game/tag/tag.h</text>
</a>
</g>
</g>
<!-- Node1&#45;&gt;Node38 -->
<g id="edge65" class="edge">
<title>Node1&#45;&gt;Node38</title>
<path fill="none" stroke="midnightblue" d="M1646.02,-291.47C1692.62,-280.85 1755.69,-266.47 1798.34,-256.75"/>
<polygon fill="midnightblue" stroke="midnightblue" points="1799.21,-260.14 1808.19,-254.51 1797.66,-253.32 1799.21,-260.14"/>
</g>
<!-- Node39 -->
<g id="node39" class="node">
<title>Node39</title>
<g id="a_node39"><a xlink:href="game__controls_8h.html" target="_top" xlink:title=" ">
<polygon fill="white" stroke="black" points="2026.5,-112.5 2026.5,-131.5 2182.5,-131.5 2182.5,-112.5 2026.5,-112.5"/>
<text text-anchor="middle" x="2104.5" y="-119.5" font-family="Helvetica,sans-Serif" font-size="10.00">game/input/game_controls.h</text>
</a>
</g>
</g>
<!-- Node1&#45;&gt;Node39 -->
<g id="edge66" class="edge">
<title>Node1&#45;&gt;Node39</title>
<path fill="none" stroke="midnightblue" d="M1581.43,-291.32C1576.27,-263.23 1569.49,-200.43 1603.5,-168 1632.66,-140.2 1880.19,-129.09 2016.06,-125.06"/>
<polygon fill="midnightblue" stroke="midnightblue" points="2016.55,-128.55 2026.44,-124.76 2016.34,-121.55 2016.55,-128.55"/>
</g>
<!-- Node3 -->
<g id="node3" class="node">
<title>Node3</title>
<g id="a_node3"><a xlink:title=" ">
<polygon fill="white" stroke="#bfbfbf" points="484,-174 484,-193 529,-193 529,-174 484,-174"/>
<text text-anchor="middle" x="506.5" y="-181" font-family="Helvetica,sans-Serif" font-size="10.00">utility</text>
</a>
</g>
</g>
<!-- Node2&#45;&gt;Node3 -->
<g id="edge2" class="edge">
<title>Node2&#45;&gt;Node3</title>
<path fill="none" stroke="midnightblue" d="M420.83,-235.48C437.16,-225.75 464.1,-209.73 483.41,-198.24"/>
<polygon fill="midnightblue" stroke="midnightblue" points="485.39,-201.13 492.2,-193.01 481.82,-195.11 485.39,-201.13"/>
</g>
<!-- Node4 -->
<g id="node4" class="node">
<title>Node4</title>
<g id="a_node4"><a xlink:title=" ">
<polygon fill="white" stroke="#bfbfbf" points="547.5,-174 547.5,-193 591.5,-193 591.5,-174 547.5,-174"/>
<text text-anchor="middle" x="569.5" y="-181" font-family="Helvetica,sans-Serif" font-size="10.00">string</text>
</a>
</g>
</g>
<!-- Node2&#45;&gt;Node4 -->
<g id="edge3" class="edge">
<title>Node2&#45;&gt;Node4</title>
<path fill="none" stroke="midnightblue" d="M433.87,-235.43C460.56,-226.88 502.19,-213.03 537.5,-199 538.92,-198.44 540.36,-197.85 541.82,-197.24"/>
<polygon fill="midnightblue" stroke="midnightblue" points="543.58,-200.29 551.35,-193.08 540.79,-193.87 543.58,-200.29"/>
</g>
<!-- Node5 -->
<g id="node5" class="node">
<title>Node5</title>
<g id="a_node5"><a xlink:title=" ">
<polygon fill="white" stroke="#bfbfbf" points="129,-174 129,-193 222,-193 222,-174 129,-174"/>
<text text-anchor="middle" x="175.5" y="-181" font-family="Helvetica,sans-Serif" font-size="10.00">spdlog/spdlog.h</text>
</a>
</g>
</g>
<!-- Node2&#45;&gt;Node5 -->
<g id="edge4" class="edge">
<title>Node2&#45;&gt;Node5</title>
<path fill="none" stroke="midnightblue" d="M376.9,-236.5C341.91,-227.63 281.94,-212.36 230.5,-199 226.36,-197.93 222.05,-196.8 217.74,-195.67"/>
<polygon fill="midnightblue" stroke="midnightblue" points="218.33,-192.21 207.77,-193.05 216.55,-198.98 218.33,-192.21"/>
</g>
<!-- Node6 -->
<g id="node6" class="node">
<title>Node6</title>
<g id="a_node6"><a xlink:title=" ">
<polygon fill="white" stroke="#bfbfbf" points="240,-174 240,-193 329,-193 329,-174 240,-174"/>
<text text-anchor="middle" x="284.5" y="-181" font-family="Helvetica,sans-Serif" font-size="10.00">spdlog/async.h</text>
</a>
</g>
</g>
<!-- Node2&#45;&gt;Node6 -->
<g id="edge5" class="edge">
<title>Node2&#45;&gt;Node6</title>
<path fill="none" stroke="midnightblue" d="M389.02,-235.48C368.64,-225.53 334.72,-208.99 311.08,-197.46"/>
<polygon fill="midnightblue" stroke="midnightblue" points="312.47,-194.25 301.95,-193.01 309.4,-200.54 312.47,-194.25"/>
</g>
<!-- Node7 -->
<g id="node7" class="node">
<title>Node7</title>
<g id="a_node7"><a xlink:title=" ">
<polygon fill="white" stroke="#bfbfbf" points="347,-168.5 347,-198.5 466,-198.5 466,-168.5 347,-168.5"/>
<text text-anchor="start" x="355" y="-186.5" font-family="Helvetica,sans-Serif" font-size="10.00">spdlog/sinks/rotating</text>
<text text-anchor="middle" x="406.5" y="-175.5" font-family="Helvetica,sans-Serif" font-size="10.00">_file_sink.h</text>
</a>
</g>
</g>
<!-- Node2&#45;&gt;Node7 -->
<g id="edge6" class="edge">
<title>Node2&#45;&gt;Node7</title>
<path fill="none" stroke="midnightblue" d="M406.5,-235.48C406.5,-228.47 406.5,-218.19 406.5,-208.7"/>
<polygon fill="midnightblue" stroke="midnightblue" points="410,-208.52 406.5,-198.52 403,-208.52 410,-208.52"/>
</g>
<!-- Node8 -->
<g id="node8" class="node">
<title>Node8</title>
<g id="a_node8"><a xlink:title=" ">
<polygon fill="white" stroke="#bfbfbf" points="0,-168.5 0,-198.5 111,-198.5 111,-168.5 0,-168.5"/>
<text text-anchor="start" x="8" y="-186.5" font-family="Helvetica,sans-Serif" font-size="10.00">spdlog/sinks/stdout</text>
<text text-anchor="middle" x="55.5" y="-175.5" font-family="Helvetica,sans-Serif" font-size="10.00">_color_sinks.h</text>
</a>
</g>
</g>
<!-- Node2&#45;&gt;Node8 -->
<g id="edge7" class="edge">
<title>Node2&#45;&gt;Node8</title>
<path fill="none" stroke="midnightblue" d="M376.64,-239.99C326.03,-233.06 220,-217.9 121.15,-199.25"/>
<polygon fill="midnightblue" stroke="midnightblue" points="121.78,-195.81 111.3,-197.37 120.47,-202.68 121.78,-195.81"/>
</g>
<!-- Node10&#45;&gt;Node4 -->
<g id="edge11" class="edge">
<title>Node10&#45;&gt;Node4</title>
<path fill="none" stroke="midnightblue" d="M690.04,-235.4C667.31,-226.6 631.25,-212.36 600.5,-199 599.3,-198.48 598.09,-197.94 596.86,-197.4"/>
<polygon fill="midnightblue" stroke="midnightblue" points="598.01,-194.07 587.45,-193.1 595.1,-200.44 598.01,-194.07"/>
</g>
<!-- Node11 -->
<g id="node11" class="node">
<title>Node11</title>
<g id="a_node11"><a xlink:title=" ">
<polygon fill="white" stroke="#bfbfbf" points="609.5,-174 609.5,-193 659.5,-193 659.5,-174 609.5,-174"/>
<text text-anchor="middle" x="634.5" y="-181" font-family="Helvetica,sans-Serif" font-size="10.00">atomic</text>
</a>
</g>
</g>
<!-- Node10&#45;&gt;Node11 -->
<g id="edge10" class="edge">
<title>Node10&#45;&gt;Node11</title>
<path fill="none" stroke="midnightblue" d="M701.32,-235.48C688.93,-226.02 668.71,-210.6 653.75,-199.19"/>
<polygon fill="midnightblue" stroke="midnightblue" points="655.73,-196.29 645.65,-193.01 651.48,-201.86 655.73,-196.29"/>
</g>
<!-- Node12 -->
<g id="node12" class="node">
<title>Node12</title>
<g id="a_node12"><a xlink:title=" ">
<polygon fill="white" stroke="#bfbfbf" points="677.5,-174 677.5,-193 793.5,-193 793.5,-174 677.5,-174"/>
<text text-anchor="middle" x="735.5" y="-181" font-family="Helvetica,sans-Serif" font-size="10.00">common/singleton.h</text>
</a>
</g>
</g>
<!-- Node10&#45;&gt;Node12 -->
<g id="edge12" class="edge">
<title>Node10&#45;&gt;Node12</title>
<path fill="none" stroke="midnightblue" d="M715.8,-235.48C719.11,-226.9 724.32,-213.43 728.55,-202.48"/>
<polygon fill="midnightblue" stroke="midnightblue" points="731.87,-203.6 732.21,-193.01 725.34,-201.07 731.87,-203.6"/>
</g>
<!-- Node13&#45;&gt;Node12 -->
<g id="edge15" class="edge">
<title>Node13&#45;&gt;Node12</title>
<path fill="none" stroke="midnightblue" d="M1150.21,-239.13C1069.26,-232.43 924.9,-218.89 802.5,-199 795.71,-197.9 788.58,-196.55 781.59,-195.13"/>
<polygon fill="midnightblue" stroke="midnightblue" points="782.04,-191.65 771.53,-193.02 780.6,-198.5 782.04,-191.65"/>
</g>
<!-- Node14 -->
<g id="node14" class="node">
<title>Node14</title>
<g id="a_node14"><a xlink:title=" ">
<polygon fill="white" stroke="#bfbfbf" points="1236.5,-174 1236.5,-193 1308.5,-193 1308.5,-174 1236.5,-174"/>
<text text-anchor="middle" x="1272.5" y="-181" font-family="Helvetica,sans-Serif" font-size="10.00">SDL2/SDL.h</text>
</a>
</g>
</g>
<!-- Node13&#45;&gt;Node14 -->
<g id="edge14" class="edge">
<title>Node13&#45;&gt;Node14</title>
<path fill="none" stroke="midnightblue" d="M1221.95,-235.48C1231.07,-226.28 1245.77,-211.46 1256.98,-200.16"/>
<polygon fill="midnightblue" stroke="midnightblue" points="1259.51,-202.57 1264.06,-193.01 1254.54,-197.65 1259.51,-202.57"/>
</g>
<!-- Node15 -->
<g id="node15" class="node">
<title>Node15</title>
<g id="a_node15"><a xlink:href="keycode_8h.html" target="_top" xlink:title=" ">
<polygon fill="white" stroke="black" points="1462.5,-174 1462.5,-193 1556.5,-193 1556.5,-174 1462.5,-174"/>
<text text-anchor="middle" x="1509.5" y="-181" font-family="Helvetica,sans-Serif" font-size="10.00">input/keycode.h</text>
</a>
</g>
</g>
<!-- Node13&#45;&gt;Node15 -->
<g id="edge16" class="edge">
<title>Node13&#45;&gt;Node15</title>
<path fill="none" stroke="midnightblue" d="M1264.04,-235.44C1312.55,-226.99 1387.77,-213.31 1452.5,-199 1457.3,-197.94 1462.3,-196.77 1467.27,-195.56"/>
<polygon fill="midnightblue" stroke="midnightblue" points="1468.47,-198.87 1477.33,-193.06 1466.78,-192.07 1468.47,-198.87"/>
</g>
<!-- Node17 -->
<g id="node17" class="node">
<title>Node17</title>
<g id="a_node17"><a xlink:href="button__handler_8h.html" target="_top" xlink:title=" ">
<polygon fill="white" stroke="black" points="1092.5,-174 1092.5,-193 1218.5,-193 1218.5,-174 1092.5,-174"/>
<text text-anchor="middle" x="1155.5" y="-181" font-family="Helvetica,sans-Serif" font-size="10.00">input/button_handler.h</text>
</a>
</g>
</g>
<!-- Node13&#45;&gt;Node17 -->
<g id="edge18" class="edge">
<title>Node13&#45;&gt;Node17</title>
<path fill="none" stroke="midnightblue" d="M1205.19,-235.48C1196.32,-226.37 1182.05,-211.74 1171.08,-200.48"/>
<polygon fill="midnightblue" stroke="midnightblue" points="1173.28,-197.73 1163.79,-193.01 1168.27,-202.61 1173.28,-197.73"/>
</g>
<!-- Node31 -->
<g id="node31" class="node">
<title>Node31</title>
<g id="a_node31"><a xlink:href="axis__handler_8h.html" target="_top" xlink:title=" ">
<polygon fill="white" stroke="black" points="812,-174 812,-193 927,-193 927,-174 812,-174"/>
<text text-anchor="middle" x="869.5" y="-181" font-family="Helvetica,sans-Serif" font-size="10.00">input/axis_handler.h</text>
</a>
</g>
</g>
<!-- Node13&#45;&gt;Node31 -->
<g id="edge36" class="edge">
<title>Node13&#45;&gt;Node31</title>
<path fill="none" stroke="midnightblue" d="M1154.76,-235.46C1098.38,-227.04 1010.9,-213.37 935.5,-199 929.37,-197.83 922.95,-196.52 916.61,-195.18"/>
<polygon fill="midnightblue" stroke="midnightblue" points="917.29,-191.75 906.77,-193.07 915.81,-198.59 917.29,-191.75"/>
</g>
<!-- Node32 -->
<g id="node32" class="node">
<title>Node32</title>
<g id="a_node32"><a xlink:href="click__handler_8h.html" target="_top" xlink:title=" ">
<polygon fill="white" stroke="black" points="1327,-174 1327,-193 1444,-193 1444,-174 1327,-174"/>
<text text-anchor="middle" x="1385.5" y="-181" font-family="Helvetica,sans-Serif" font-size="10.00">input/click_handler.h</text>
</a>
</g>
</g>
<!-- Node13&#45;&gt;Node32 -->
<g id="edge43" class="edge">
<title>Node13&#45;&gt;Node32</title>
<path fill="none" stroke="midnightblue" d="M1238.14,-235.48C1267.78,-225.22 1317.68,-207.96 1351.1,-196.4"/>
<polygon fill="midnightblue" stroke="midnightblue" points="1352.6,-199.59 1360.9,-193.01 1350.31,-192.97 1352.6,-199.59"/>
</g>
<!-- Node33 -->
<g id="node33" class="node">
<title>Node33</title>
<g id="a_node33"><a xlink:href="motion__handler_8h.html" target="_top" xlink:title=" ">
<polygon fill="white" stroke="black" points="945,-174 945,-193 1074,-193 1074,-174 945,-174"/>
<text text-anchor="middle" x="1009.5" y="-181" font-family="Helvetica,sans-Serif" font-size="10.00">input/motion_handler.h</text>
</a>
</g>
</g>
<!-- Node13&#45;&gt;Node33 -->
<g id="edge51" class="edge">
<title>Node13&#45;&gt;Node33</title>
<path fill="none" stroke="midnightblue" d="M1184.27,-235.48C1148.6,-225.07 1088.14,-207.44 1048.52,-195.88"/>
<polygon fill="midnightblue" stroke="midnightblue" points="1049.25,-192.45 1038.67,-193.01 1047.29,-199.17 1049.25,-192.45"/>
</g>
<!-- Node16 -->
<g id="node16" class="node">
<title>Node16</title>
<g id="a_node16"><a xlink:title=" ">
<polygon fill="white" stroke="#bfbfbf" points="1532.5,-112.5 1532.5,-131.5 1582.5,-131.5 1582.5,-112.5 1532.5,-112.5"/>
<text text-anchor="middle" x="1557.5" y="-119.5" font-family="Helvetica,sans-Serif" font-size="10.00">cstdint</text>
</a>
</g>
</g>
<!-- Node15&#45;&gt;Node16 -->
<g id="edge17" class="edge">
<title>Node15&#45;&gt;Node16</title>
<path fill="none" stroke="midnightblue" d="M1516.38,-173.98C1523.65,-164.96 1535.3,-150.52 1544.34,-139.31"/>
<polygon fill="midnightblue" stroke="midnightblue" points="1547.08,-141.49 1550.64,-131.51 1541.63,-137.09 1547.08,-141.49"/>
</g>
<!-- Node18 -->
<g id="node18" class="node">
<title>Node18</title>
<g id="a_node18"><a xlink:title=" ">
<polygon fill="white" stroke="#bfbfbf" points="1044,-56.5 1044,-75.5 1137,-75.5 1137,-56.5 1044,-56.5"/>
<text text-anchor="middle" x="1090.5" y="-63.5" font-family="Helvetica,sans-Serif" font-size="10.00">unordered_map</text>
</a>
</g>
</g>
<!-- Node17&#45;&gt;Node18 -->
<g id="edge19" class="edge">
<title>Node17&#45;&gt;Node18</title>
<path fill="none" stroke="midnightblue" d="M1159.03,-173.61C1164,-159.57 1171.32,-131.82 1160.5,-112 1152.68,-97.68 1138.14,-87.24 1124.32,-80.04"/>
<polygon fill="midnightblue" stroke="midnightblue" points="1125.5,-76.72 1114.97,-75.56 1122.48,-83.03 1125.5,-76.72"/>
</g>
<!-- Node19 -->
<g id="node19" class="node">
<title>Node19</title>
<g id="a_node19"><a xlink:title=" ">
<polygon fill="white" stroke="#bfbfbf" points="672.5,-56.5 672.5,-75.5 758.5,-75.5 758.5,-56.5 672.5,-56.5"/>
<text text-anchor="middle" x="715.5" y="-63.5" font-family="Helvetica,sans-Serif" font-size="10.00">unordered_set</text>
</a>
</g>
</g>
<!-- Node17&#45;&gt;Node19 -->
<g id="edge20" class="edge">
<title>Node17&#45;&gt;Node19</title>
<path fill="none" stroke="midnightblue" d="M1154.86,-173.86C1153.22,-158.6 1147.48,-127.07 1127.5,-112 1065.63,-65.34 862.58,-85.27 768.68,-75.89"/>
<polygon fill="midnightblue" stroke="midnightblue" points="768.93,-72.39 758.59,-74.7 768.12,-79.35 768.93,-72.39"/>
</g>
<!-- Node20 -->
<g id="node20" class="node">
<title>Node20</title>
<g id="a_node20"><a xlink:title=" ">
<polygon fill="white" stroke="#bfbfbf" points="1070.5,-112.5 1070.5,-131.5 1118.5,-131.5 1118.5,-112.5 1070.5,-112.5"/>
<text text-anchor="middle" x="1094.5" y="-119.5" font-family="Helvetica,sans-Serif" font-size="10.00">mutex</text>
</a>
</g>
</g>
<!-- Node17&#45;&gt;Node20 -->
<g id="edge21" class="edge">
<title>Node17&#45;&gt;Node20</title>
<path fill="none" stroke="midnightblue" d="M1146.76,-173.98C1137.34,-164.78 1122.14,-149.96 1110.55,-138.66"/>
<polygon fill="midnightblue" stroke="midnightblue" points="1112.83,-135.99 1103.22,-131.51 1107.94,-141 1112.83,-135.99"/>
</g>
<!-- Node21 -->
<g id="node21" class="node">
<title>Node21</title>
<g id="a_node21"><a xlink:href="event__dispatcher_8h.html" target="_top" xlink:title=" ">
<polygon fill="white" stroke="black" points="760.5,-112.5 760.5,-131.5 900.5,-131.5 900.5,-112.5 760.5,-112.5"/>
<text text-anchor="middle" x="830.5" y="-119.5" font-family="Helvetica,sans-Serif" font-size="10.00">event/event_dispatcher.h</text>
</a>
</g>
</g>
<!-- Node17&#45;&gt;Node21 -->
<g id="edge22" class="edge">
<title>Node17&#45;&gt;Node21</title>
<path fill="none" stroke="midnightblue" d="M1113.07,-173.93C1103.05,-171.94 1092.4,-169.87 1082.5,-168 1016.58,-155.57 940.79,-142.15 889.69,-133.24"/>
<polygon fill="midnightblue" stroke="midnightblue" points="890.26,-129.78 879.8,-131.51 889.06,-136.68 890.26,-129.78"/>
</g>
<!-- Node28 -->
<g id="node28" class="node">
<title>Node28</title>
<g id="a_node28"><a xlink:href="input_8h.html" target="_top" xlink:title="When making games, for portability purposes, as well as our own sanity, we do not want to hardcode ph...">
<polygon fill="white" stroke="black" points="1360.5,-56.5 1360.5,-75.5 1438.5,-75.5 1438.5,-56.5 1360.5,-56.5"/>
<text text-anchor="middle" x="1399.5" y="-63.5" font-family="Helvetica,sans-Serif" font-size="10.00">input/input.h</text>
</a>
</g>
</g>
<!-- Node17&#45;&gt;Node28 -->
<g id="edge31" class="edge">
<title>Node17&#45;&gt;Node28</title>
<path fill="none" stroke="midnightblue" d="M1193.65,-173.93C1238.23,-163.51 1308.91,-145.63 1332.5,-132 1354.32,-119.39 1374.35,-98.12 1386.71,-83.36"/>
<polygon fill="midnightblue" stroke="midnightblue" points="1389.48,-85.51 1393.07,-75.54 1384.04,-81.1 1389.48,-85.51"/>
</g>
<!-- Node29 -->
<g id="node29" class="node">
<title>Node29</title>
<g id="a_node29"><a xlink:href="input__event_8h.html" target="_top" xlink:title=" ">
<polygon fill="white" stroke="black" points="1213,-112.5 1213,-131.5 1324,-131.5 1324,-112.5 1213,-112.5"/>
<text text-anchor="middle" x="1268.5" y="-119.5" font-family="Helvetica,sans-Serif" font-size="10.00">input/input_event.h</text>
</a>
</g>
</g>
<!-- Node17&#45;&gt;Node29 -->
<g id="edge32" class="edge">
<title>Node17&#45;&gt;Node29</title>
<path fill="none" stroke="midnightblue" d="M1171.69,-173.98C1190.4,-164.12 1221.42,-147.79 1243.3,-136.27"/>
<polygon fill="midnightblue" stroke="midnightblue" points="1245.12,-139.27 1252.34,-131.51 1241.86,-133.07 1245.12,-139.27"/>
</g>
<!-- Node21&#45;&gt;Node18 -->
<g id="edge24" class="edge">
<title>Node21&#45;&gt;Node18</title>
<path fill="none" stroke="midnightblue" d="M871.7,-112.44C917.15,-103 990.34,-87.8 1039.41,-77.61"/>
<polygon fill="midnightblue" stroke="midnightblue" points="1040.42,-80.98 1049.49,-75.52 1038.99,-74.12 1040.42,-80.98"/>
</g>
<!-- Node21&#45;&gt;Node19 -->
<g id="edge25" class="edge">
<title>Node21&#45;&gt;Node19</title>
<path fill="none" stroke="midnightblue" d="M812.28,-112.44C793.6,-103.68 764.34,-89.94 742.88,-79.86"/>
<polygon fill="midnightblue" stroke="midnightblue" points="744.18,-76.6 733.64,-75.52 741.2,-82.93 744.18,-76.6"/>
</g>
<!-- Node22 -->
<g id="node22" class="node">
<title>Node22</title>
<g id="a_node22"><a xlink:title=" ">
<polygon fill="white" stroke="#bfbfbf" points="902.5,-56.5 902.5,-75.5 960.5,-75.5 960.5,-56.5 902.5,-56.5"/>
<text text-anchor="middle" x="931.5" y="-63.5" font-family="Helvetica,sans-Serif" font-size="10.00">memory</text>
</a>
</g>
</g>
<!-- Node21&#45;&gt;Node22 -->
<g id="edge23" class="edge">
<title>Node21&#45;&gt;Node22</title>
<path fill="none" stroke="midnightblue" d="M846.73,-112.32C862.85,-103.7 887.8,-90.36 906.46,-80.39"/>
<polygon fill="midnightblue" stroke="midnightblue" points="908.14,-83.46 915.31,-75.65 904.84,-77.28 908.14,-83.46"/>
</g>
<!-- Node23 -->
<g id="node23" class="node">
<title>Node23</title>
<g id="a_node23"><a xlink:title=" ">
<polygon fill="white" stroke="#bfbfbf" points="979,-56.5 979,-75.5 1026,-75.5 1026,-56.5 979,-56.5"/>
<text text-anchor="middle" x="1002.5" y="-63.5" font-family="Helvetica,sans-Serif" font-size="10.00">vector</text>
</a>
</g>
</g>
<!-- Node21&#45;&gt;Node23 -->
<g id="edge26" class="edge">
<title>Node21&#45;&gt;Node23</title>
<path fill="none" stroke="midnightblue" d="M857.75,-112.44C887.93,-102.97 936.58,-87.7 969.04,-77.5"/>
<polygon fill="midnightblue" stroke="midnightblue" points="970.47,-80.72 978.97,-74.39 968.38,-74.04 970.47,-80.72"/>
</g>
<!-- Node24 -->
<g id="node24" class="node">
<title>Node24</title>
<g id="a_node24"><a xlink:title=" ">
<polygon fill="white" stroke="#bfbfbf" points="777,-56.5 777,-75.5 884,-75.5 884,-56.5 777,-56.5"/>
<text text-anchor="middle" x="830.5" y="-63.5" font-family="Helvetica,sans-Serif" font-size="10.00">common/type_id.h</text>
</a>
</g>
</g>
<!-- Node21&#45;&gt;Node24 -->
<g id="edge27" class="edge">
<title>Node21&#45;&gt;Node24</title>
<path fill="none" stroke="midnightblue" d="M830.5,-112.08C830.5,-105.01 830.5,-94.86 830.5,-85.99"/>
<polygon fill="midnightblue" stroke="midnightblue" points="834,-85.75 830.5,-75.75 827,-85.75 834,-85.75"/>
</g>
<!-- Node21&#45;&gt;Node25 -->
<g id="edge28" class="edge">
<title>Node21&#45;&gt;Node25</title>
<path fill="none" stroke="midnightblue" d="M900.66,-112.56C983.96,-102.54 1122.23,-85.91 1206.69,-75.76"/>
<polygon fill="midnightblue" stroke="midnightblue" points="1207.2,-79.22 1216.71,-74.55 1206.37,-72.27 1207.2,-79.22"/>
</g>
<!-- Node26 -->
<g id="node26" class="node">
<title>Node26</title>
<g id="a_node26"><a xlink:title=" ">
<polygon fill="white" stroke="#bfbfbf" points="1249,-0.5 1249,-19.5 1314,-19.5 1314,-0.5 1249,-0.5"/>
<text text-anchor="middle" x="1281.5" y="-7.5" font-family="Helvetica,sans-Serif" font-size="10.00">functional</text>
</a>
</g>
</g>
<!-- Node25&#45;&gt;Node26 -->
<g id="edge29" class="edge">
<title>Node25&#45;&gt;Node26</title>
<path fill="none" stroke="midnightblue" d="M1279.83,-56.08C1280.09,-49.01 1280.47,-38.86 1280.8,-29.99"/>
<polygon fill="midnightblue" stroke="midnightblue" points="1284.3,-29.87 1281.18,-19.75 1277.31,-29.61 1284.3,-29.87"/>
</g>
<!-- Node27 -->
<g id="node27" class="node">
<title>Node27</title>
<g id="a_node27"><a xlink:href="event_8h.html" target="_top" xlink:title=" ">
<polygon fill="white" stroke="black" points="1146.5,-0.5 1146.5,-19.5 1230.5,-19.5 1230.5,-0.5 1146.5,-0.5"/>
<text text-anchor="middle" x="1188.5" y="-7.5" font-family="Helvetica,sans-Serif" font-size="10.00">event/event.h</text>
</a>
</g>
</g>
<!-- Node25&#45;&gt;Node27 -->
<g id="edge30" class="edge">
<title>Node25&#45;&gt;Node27</title>
<path fill="none" stroke="midnightblue" d="M1264.88,-56.32C1250.55,-47.82 1228.49,-34.73 1211.75,-24.8"/>
<polygon fill="midnightblue" stroke="midnightblue" points="1213.47,-21.75 1203.08,-19.65 1209.9,-27.77 1213.47,-21.75"/>
</g>
<!-- Node29&#45;&gt;Node27 -->
<g id="edge34" class="edge">
<title>Node29&#45;&gt;Node27</title>
<path fill="none" stroke="midnightblue" d="M1251.32,-112.41C1237.55,-104.68 1218.73,-92.07 1207.5,-76 1197.93,-62.3 1193.13,-43.76 1190.75,-29.99"/>
<polygon fill="midnightblue" stroke="midnightblue" points="1194.17,-29.15 1189.27,-19.76 1187.24,-30.15 1194.17,-29.15"/>
</g>
<!-- Node29&#45;&gt;Node28 -->
<g id="edge35" class="edge">
<title>Node29&#45;&gt;Node28</title>
<path fill="none" stroke="midnightblue" d="M1289.26,-112.44C1310.82,-103.56 1344.76,-89.56 1369.29,-79.45"/>
<polygon fill="midnightblue" stroke="midnightblue" points="1370.93,-82.56 1378.84,-75.52 1368.26,-76.09 1370.93,-82.56"/>
</g>
<!-- Node30 -->
<g id="node30" class="node">
<title>Node30</title>
<g id="a_node30"><a xlink:title=" ">
<polygon fill="white" stroke="#bfbfbf" points="1456.5,-56.5 1456.5,-75.5 1552.5,-75.5 1552.5,-56.5 1456.5,-56.5"/>
<text text-anchor="middle" x="1504.5" y="-63.5" font-family="Helvetica,sans-Serif" font-size="10.00">maths/vector2.h</text>
</a>
</g>
</g>
<!-- Node29&#45;&gt;Node30 -->
<g id="edge33" class="edge">
<title>Node29&#45;&gt;Node30</title>
<path fill="none" stroke="midnightblue" d="M1305.89,-112.44C1346.89,-103.06 1412.75,-87.99 1457.28,-77.8"/>
<polygon fill="midnightblue" stroke="midnightblue" points="1458.31,-81.16 1467.28,-75.52 1456.75,-74.34 1458.31,-81.16"/>
</g>
<!-- Node31&#45;&gt;Node18 -->
<g id="edge37" class="edge">
<title>Node31&#45;&gt;Node18</title>
<path fill="none" stroke="midnightblue" d="M877.39,-173.89C891.25,-159.23 921.47,-129.34 952.5,-112 980.22,-96.51 1014.09,-85.36 1041.34,-78.04"/>
<polygon fill="midnightblue" stroke="midnightblue" points="1042.26,-81.42 1051.06,-75.51 1040.5,-74.64 1042.26,-81.42"/>
</g>
<!-- Node31&#45;&gt;Node19 -->
<g id="edge38" class="edge">
<title>Node31&#45;&gt;Node19</title>
<path fill="none" stroke="midnightblue" d="M827.35,-173.96C787.48,-164.96 731.83,-149.64 718.5,-132 708.61,-118.91 708.97,-99.76 711.14,-85.64"/>
<polygon fill="midnightblue" stroke="midnightblue" points="714.62,-86.08 713.1,-75.6 707.75,-84.74 714.62,-86.08"/>
</g>
<!-- Node31&#45;&gt;Node20 -->
<g id="edge39" class="edge">
<title>Node31&#45;&gt;Node20</title>
<path fill="none" stroke="midnightblue" d="M901.74,-173.98C943.92,-162.82 1017.53,-143.36 1060.54,-131.98"/>
<polygon fill="midnightblue" stroke="midnightblue" points="1061.5,-135.35 1070.27,-129.41 1059.71,-128.58 1061.5,-135.35"/>
</g>
<!-- Node31&#45;&gt;Node21 -->
<g id="edge40" class="edge">
<title>Node31&#45;&gt;Node21</title>
<path fill="none" stroke="midnightblue" d="M863.91,-173.98C858.12,-165.14 848.91,-151.09 841.63,-139.98"/>
<polygon fill="midnightblue" stroke="midnightblue" points="844.49,-137.95 836.08,-131.51 838.63,-141.79 844.49,-137.95"/>
</g>
<!-- Node31&#45;&gt;Node28 -->
<g id="edge41" class="edge">
<title>Node31&#45;&gt;Node28</title>
<path fill="none" stroke="midnightblue" d="M885.54,-173.89C914.69,-158.67 978.67,-127.19 1036.5,-112 1172.36,-76.32 1211.56,-96.7 1350.5,-76 1350.6,-75.98 1350.7,-75.97 1350.81,-75.95"/>
<polygon fill="midnightblue" stroke="midnightblue" points="1351.17,-79.44 1360.49,-74.41 1350.06,-72.53 1351.17,-79.44"/>
</g>
<!-- Node31&#45;&gt;Node29 -->
<g id="edge42" class="edge">
<title>Node31&#45;&gt;Node29</title>
<path fill="none" stroke="midnightblue" d="M905.7,-173.99C915.35,-171.87 925.8,-169.72 935.5,-168 1027.84,-151.65 1135.51,-138.09 1202.85,-130.26"/>
<polygon fill="midnightblue" stroke="midnightblue" points="1203.37,-133.73 1212.9,-129.1 1202.56,-126.77 1203.37,-133.73"/>
</g>
<!-- Node32&#45;&gt;Node18 -->
<g id="edge44" class="edge">
<title>Node32&#45;&gt;Node18</title>
<path fill="none" stroke="midnightblue" d="M1385.93,-173.6C1386.14,-158.51 1384.19,-127.97 1366.5,-112 1350.48,-97.53 1223.46,-81.44 1147.44,-72.97"/>
<polygon fill="midnightblue" stroke="midnightblue" points="1147.39,-69.44 1137.07,-71.83 1146.62,-76.4 1147.39,-69.44"/>
</g>
<!-- Node32&#45;&gt;Node19 -->
<g id="edge45" class="edge">
<title>Node32&#45;&gt;Node19</title>
<path fill="none" stroke="midnightblue" d="M1381.85,-173.61C1374.9,-157.96 1358.1,-125.82 1332.5,-112 1224.49,-53.71 908.39,-88.93 768.73,-75.9"/>
<polygon fill="midnightblue" stroke="midnightblue" points="768.89,-72.39 758.58,-74.82 768.16,-79.35 768.89,-72.39"/>
</g>
<!-- Node32&#45;&gt;Node20 -->
<g id="edge46" class="edge">
<title>Node32&#45;&gt;Node20</title>
<path fill="none" stroke="midnightblue" d="M1345.96,-173.99C1336.63,-172.01 1326.72,-169.91 1317.5,-168 1250.55,-154.11 1172.17,-138.43 1128.43,-129.73"/>
<polygon fill="midnightblue" stroke="midnightblue" points="1129.1,-126.29 1118.61,-127.77 1127.73,-133.16 1129.1,-126.29"/>
</g>
<!-- Node32&#45;&gt;Node21 -->
<g id="edge48" class="edge">
<title>Node32&#45;&gt;Node21</title>
<path fill="none" stroke="midnightblue" d="M1349.3,-173.95C1339.06,-171.76 1327.88,-169.58 1317.5,-168 1175.02,-146.3 1007.37,-133.59 910.58,-127.49"/>
<polygon fill="midnightblue" stroke="midnightblue" points="910.77,-124 900.57,-126.87 910.34,-130.99 910.77,-124"/>
</g>
<!-- Node32&#45;&gt;Node28 -->
<g id="edge49" class="edge">
<title>Node32&#45;&gt;Node28</title>
<path fill="none" stroke="midnightblue" d="M1401.19,-173.85C1414.97,-165.26 1434.09,-150.69 1442.5,-132 1450.79,-113.57 1434.78,-94.52 1419.99,-81.85"/>
<polygon fill="midnightblue" stroke="midnightblue" points="1422.06,-79.02 1412.07,-75.51 1417.69,-84.49 1422.06,-79.02"/>
</g>
<!-- Node32&#45;&gt;Node29 -->
<g id="edge50" class="edge">
<title>Node32&#45;&gt;Node29</title>
<path fill="none" stroke="midnightblue" d="M1368.74,-173.98C1349.28,-164.08 1316.95,-147.64 1294.29,-136.12"/>
<polygon fill="midnightblue" stroke="midnightblue" points="1295.73,-132.92 1285.23,-131.51 1292.56,-139.16 1295.73,-132.92"/>
</g>
<!-- Node32&#45;&gt;Node30 -->
<g id="edge47" class="edge">
<title>Node32&#45;&gt;Node30</title>
<path fill="none" stroke="midnightblue" d="M1401.2,-173.84C1416.84,-164.73 1440.97,-149.34 1458.5,-132 1472.89,-117.76 1485.87,-98.54 1494.35,-84.7"/>
<polygon fill="midnightblue" stroke="midnightblue" points="1497.58,-86.1 1499.67,-75.72 1491.56,-82.53 1497.58,-86.1"/>
</g>
<!-- Node33&#45;&gt;Node18 -->
<g id="edge52" class="edge">
<title>Node33&#45;&gt;Node18</title>
<path fill="none" stroke="midnightblue" d="M1009.99,-173.92C1011.16,-159.84 1015.13,-131.42 1028.5,-112 1037.48,-98.95 1051.53,-88.31 1063.98,-80.65"/>
<polygon fill="midnightblue" stroke="midnightblue" points="1065.77,-83.66 1072.67,-75.61 1062.26,-77.6 1065.77,-83.66"/>
</g>
<!-- Node33&#45;&gt;Node19 -->
<g id="edge53" class="edge">
<title>Node33&#45;&gt;Node19</title>
<path fill="none" stroke="midnightblue" d="M966.07,-173.99C956.03,-172.02 945.39,-169.94 935.5,-168 853.72,-151.99 818.88,-181.03 751.5,-132 735.89,-120.64 726.23,-100.34 720.89,-85.45"/>
<polygon fill="midnightblue" stroke="midnightblue" points="724.16,-84.19 717.75,-75.76 717.51,-86.35 724.16,-84.19"/>
</g>
<!-- Node33&#45;&gt;Node20 -->
<g id="edge54" class="edge">
<title>Node33&#45;&gt;Node20</title>
<path fill="none" stroke="midnightblue" d="M1021.68,-173.98C1035.31,-164.43 1057.63,-148.81 1073.97,-137.37"/>
<polygon fill="midnightblue" stroke="midnightblue" points="1076.16,-140.11 1082.34,-131.51 1072.14,-134.38 1076.16,-140.11"/>
</g>
<!-- Node33&#45;&gt;Node21 -->
<g id="edge55" class="edge">
<title>Node33&#45;&gt;Node21</title>
<path fill="none" stroke="midnightblue" d="M983.85,-173.98C952.88,-163.68 900.63,-146.31 865.85,-134.75"/>
<polygon fill="midnightblue" stroke="midnightblue" points="866.69,-131.34 856.1,-131.51 864.48,-137.98 866.69,-131.34"/>
</g>
<!-- Node33&#45;&gt;Node28 -->
<g id="edge56" class="edge">
<title>Node33&#45;&gt;Node28</title>
<path fill="none" stroke="midnightblue" d="M1013.11,-173.77C1020,-158.36 1036.56,-126.6 1061.5,-112 1173.2,-46.61 1222.57,-95.7 1350.5,-76 1350.6,-75.98 1350.7,-75.97 1350.8,-75.95"/>
<polygon fill="midnightblue" stroke="midnightblue" points="1351.18,-79.44 1360.49,-74.38 1350.05,-72.53 1351.18,-79.44"/>
</g>
<!-- Node33&#45;&gt;Node29 -->
<g id="edge57" class="edge">
<title>Node33&#45;&gt;Node29</title>
<path fill="none" stroke="midnightblue" d="M1046.61,-173.98C1092.67,-163.39 1171.27,-145.34 1221.5,-133.8"/>
<polygon fill="midnightblue" stroke="midnightblue" points="1222.5,-137.16 1231.46,-131.51 1220.93,-130.34 1222.5,-137.16"/>
</g>
<!-- Node34&#45;&gt;Node9 -->
<g id="edge60" class="edge">
<title>Node34&#45;&gt;Node9</title>
<path fill="none" stroke="midnightblue" d="M1708.48,-235.48C1699.91,-226.37 1686.14,-211.74 1675.54,-200.48"/>
<polygon fill="midnightblue" stroke="midnightblue" points="1677.91,-197.89 1668.51,-193.01 1672.81,-202.69 1677.91,-197.89"/>
</g>
<!-- Node35 -->
<g id="node35" class="node">
<title>Node35</title>
<g id="a_node35"><a xlink:title=" ">
<polygon fill="white" stroke="#bfbfbf" points="1858.5,-174 1858.5,-193 1970.5,-193 1970.5,-174 1858.5,-174"/>
<text text-anchor="middle" x="1914.5" y="-181" font-family="Helvetica,sans-Serif" font-size="10.00">maths/quaternion.h</text>
</a>
</g>
</g>
<!-- Node34&#45;&gt;Node35 -->
<g id="edge61" class="edge">
<title>Node34&#45;&gt;Node35</title>
<path fill="none" stroke="midnightblue" d="M1744.87,-235.48C1779.42,-225.09 1837.92,-207.51 1876.38,-195.95"/>
<polygon fill="midnightblue" stroke="midnightblue" points="1877.61,-199.24 1886.18,-193.01 1875.6,-192.54 1877.61,-199.24"/>
</g>
<!-- Node36 -->
<g id="node36" class="node">
<title>Node36</title>
<g id="a_node36"><a xlink:title=" ">
<polygon fill="white" stroke="#bfbfbf" points="1727,-174 1727,-193 1840,-193 1840,-174 1727,-174"/>
<text text-anchor="middle" x="1783.5" y="-181" font-family="Helvetica,sans-Serif" font-size="10.00">maths/matrix_util.h</text>
</a>
</g>
</g>
<!-- Node34&#45;&gt;Node36 -->
<g id="edge62" class="edge">
<title>Node34&#45;&gt;Node36</title>
<path fill="none" stroke="midnightblue" d="M1726.1,-235.48C1736.55,-226.2 1753.47,-211.17 1766.24,-199.83"/>
<polygon fill="midnightblue" stroke="midnightblue" points="1768.77,-202.27 1773.92,-193.01 1764.12,-197.03 1768.77,-202.27"/>
</g>
<!-- Node37&#45;&gt;Node3 -->
<g id="edge64" class="edge">
<title>Node37&#45;&gt;Node3</title>
<path fill="none" stroke="midnightblue" d="M526.2,-235.48C522.89,-226.9 517.68,-213.43 513.45,-202.48"/>
<polygon fill="midnightblue" stroke="midnightblue" points="516.66,-201.07 509.79,-193.01 510.13,-203.6 516.66,-201.07"/>
</g>
<!-- Node39&#45;&gt;Node28 -->
<g id="edge67" class="edge">
<title>Node39&#45;&gt;Node28</title>
<path fill="none" stroke="midnightblue" d="M2026.22,-113.16C2021.58,-112.75 2016.98,-112.36 2012.5,-112 1765,-92.02 1698.91,-106.84 1448.85,-76.02"/>
<polygon fill="midnightblue" stroke="midnightblue" points="1449.09,-72.52 1438.73,-74.76 1448.22,-79.47 1449.09,-72.52"/>
</g>
</g>
</svg>
