<?xml version="1.0" encoding="UTF-8" standalone="no"?>
<!DOCTYPE svg PUBLIC "-//W3C//DTD SVG 1.1//EN"
 "http://www.w3.org/Graphics/SVG/1.1/DTD/svg11.dtd">
<!-- Generated by graphviz version 2.43.0 (0)
 -->
<!-- Title: Graphical Class Hierarchy Pages: 1 -->
<svg width="312pt" height="344pt"
 viewBox="0.00 0.00 312.00 344.00" xmlns="http://www.w3.org/2000/svg" xmlns:xlink="http://www.w3.org/1999/xlink">
<g id="graph0" class="graph" transform="scale(1 1) rotate(0) translate(4 340)">
<title>Graphical Class Hierarchy</title>
<polygon fill="white" stroke="transparent" points="-4,4 -4,-340 308,-340 308,4 -4,4"/>
<!-- Node0 -->
<g id="node1" class="node">
<title>Node0</title>
<g id="a_node1"><a xlink:href="classmkr_1_1shader__program.html" target="_top" xlink:title=" ">
<polygon fill="white" stroke="black" points="0,-164.5 0,-183.5 122,-183.5 122,-164.5 0,-164.5"/>
<text text-anchor="middle" x="61" y="-171.5" font-family="Helvetica,sans-Serif" font-size="10.00">mkr::shader_program</text>
</a>
</g>
</g>
<!-- Node1 -->
<g id="node2" class="node">
<title>Node1</title>
<g id="a_node2"><a xlink:href="classmkr_1_1alpha__blend__shader.html" target="_top" xlink:title=" ">
<polygon fill="white" stroke="black" points="161,-316.5 161,-335.5 301,-335.5 301,-316.5 161,-316.5"/>
<text text-anchor="middle" x="231" y="-323.5" font-family="Helvetica,sans-Serif" font-size="10.00">mkr::alpha_blend_shader</text>
</a>
</g>
</g>
<!-- Node0&#45;&gt;Node1 -->
<g id="edge1" class="edge">
<title>Node0&#45;&gt;Node1</title>
<path fill="none" stroke="midnightblue" d="M70.4,-192.9C84.32,-221.98 114.95,-277.44 158,-307 163.65,-310.88 170.04,-313.97 176.63,-316.42"/>
<polygon fill="midnightblue" stroke="midnightblue" points="73.56,-191.4 66.18,-183.8 67.21,-194.34 73.56,-191.4"/>
</g>
<!-- Node2 -->
<g id="node3" class="node">
<title>Node2</title>
<g id="a_node3"><a xlink:href="classmkr_1_1alpha__weight__shader.html" target="_top" xlink:title=" ">
<polygon fill="white" stroke="black" points="158,-278.5 158,-297.5 304,-297.5 304,-278.5 158,-278.5"/>
<text text-anchor="middle" x="231" y="-285.5" font-family="Helvetica,sans-Serif" font-size="10.00">mkr::alpha_weight_shader</text>
</a>
</g>
</g>
<!-- Node0&#45;&gt;Node2 -->
<g id="edge2" class="edge">
<title>Node0&#45;&gt;Node2</title>
<path fill="none" stroke="midnightblue" d="M75.09,-191.74C91.91,-213.24 123.11,-249.06 158,-269 164.73,-272.85 172.27,-275.94 179.86,-278.41"/>
<polygon fill="midnightblue" stroke="midnightblue" points="77.84,-189.57 68.99,-183.75 72.28,-193.82 77.84,-189.57"/>
</g>
<!-- Node3 -->
<g id="node4" class="node">
<title>Node3</title>
<g id="a_node4"><a xlink:href="classmkr_1_1forward__shader.html" target="_top" xlink:title=" ">
<polygon fill="white" stroke="black" points="172,-240.5 172,-259.5 290,-259.5 290,-240.5 172,-240.5"/>
<text text-anchor="middle" x="231" y="-247.5" font-family="Helvetica,sans-Serif" font-size="10.00">mkr::forward_shader</text>
</a>
</g>
</g>
<!-- Node0&#45;&gt;Node3 -->
<g id="edge3" class="edge">
<title>Node0&#45;&gt;Node3</title>
<path fill="none" stroke="midnightblue" d="M83.81,-189.34C102.69,-202.03 131.12,-219.73 158,-231 166.82,-234.7 176.56,-237.85 185.95,-240.45"/>
<polygon fill="midnightblue" stroke="midnightblue" points="85.59,-186.32 75.36,-183.57 81.64,-192.1 85.59,-186.32"/>
</g>
<!-- Node4 -->
<g id="node5" class="node">
<title>Node4</title>
<g id="a_node5"><a xlink:href="classmkr_1_1geometry__shader.html" target="_top" xlink:title=" ">
<polygon fill="white" stroke="black" points="167,-202.5 167,-221.5 295,-221.5 295,-202.5 167,-202.5"/>
<text text-anchor="middle" x="231" y="-209.5" font-family="Helvetica,sans-Serif" font-size="10.00">mkr::geometry_shader</text>
</a>
</g>
</g>
<!-- Node0&#45;&gt;Node4 -->
<g id="edge4" class="edge">
<title>Node0&#45;&gt;Node4</title>
<path fill="none" stroke="midnightblue" d="M114.28,-185.82C137.96,-191.18 165.59,-197.43 187.91,-202.48"/>
<polygon fill="midnightblue" stroke="midnightblue" points="114.92,-182.38 104.39,-183.59 113.37,-189.21 114.92,-182.38"/>
</g>
<!-- Node5 -->
<g id="node6" class="node">
<title>Node5</title>
<g id="a_node6"><a xlink:href="classmkr_1_1lighting__shader.html" target="_top" xlink:title=" ">
<polygon fill="white" stroke="black" points="172.5,-164.5 172.5,-183.5 289.5,-183.5 289.5,-164.5 172.5,-164.5"/>
<text text-anchor="middle" x="231" y="-171.5" font-family="Helvetica,sans-Serif" font-size="10.00">mkr::lighting_shader</text>
</a>
</g>
</g>
<!-- Node0&#45;&gt;Node5 -->
<g id="edge5" class="edge">
<title>Node0&#45;&gt;Node5</title>
<path fill="none" stroke="midnightblue" d="M132.3,-174C145.69,-174 159.56,-174 172.49,-174"/>
<polygon fill="midnightblue" stroke="midnightblue" points="132.18,-170.5 122.18,-174 132.18,-177.5 132.18,-170.5"/>
</g>
<!-- Node6 -->
<g id="node7" class="node">
<title>Node6</title>
<g id="a_node7"><a xlink:href="classmkr_1_1post__proc__shader.html" target="_top" xlink:title=" ">
<polygon fill="white" stroke="black" points="167,-126.5 167,-145.5 295,-145.5 295,-126.5 167,-126.5"/>
<text text-anchor="middle" x="231" y="-133.5" font-family="Helvetica,sans-Serif" font-size="10.00">mkr::post_proc_shader</text>
</a>
</g>
</g>
<!-- Node0&#45;&gt;Node6 -->
<g id="edge6" class="edge">
<title>Node0&#45;&gt;Node6</title>
<path fill="none" stroke="midnightblue" d="M114.28,-162.18C137.96,-156.82 165.59,-150.57 187.91,-145.52"/>
<polygon fill="midnightblue" stroke="midnightblue" points="113.37,-158.79 104.39,-164.41 114.92,-165.62 113.37,-158.79"/>
</g>
<!-- Node7 -->
<g id="node8" class="node">
<title>Node7</title>
<g id="a_node8"><a xlink:href="classmkr_1_1shadow__2d__shader.html" target="_top" xlink:title=" ">
<polygon fill="white" stroke="black" points="163.5,-88.5 163.5,-107.5 298.5,-107.5 298.5,-88.5 163.5,-88.5"/>
<text text-anchor="middle" x="231" y="-95.5" font-family="Helvetica,sans-Serif" font-size="10.00">mkr::shadow_2d_shader</text>
</a>
</g>
</g>
<!-- Node0&#45;&gt;Node7 -->
<g id="edge7" class="edge">
<title>Node0&#45;&gt;Node7</title>
<path fill="none" stroke="midnightblue" d="M83.81,-158.66C102.69,-145.97 131.12,-128.27 158,-117 166.82,-113.3 176.56,-110.15 185.95,-107.55"/>
<polygon fill="midnightblue" stroke="midnightblue" points="81.64,-155.9 75.36,-164.43 85.59,-161.68 81.64,-155.9"/>
</g>
<!-- Node8 -->
<g id="node9" class="node">
<title>Node8</title>
<g id="a_node9"><a xlink:href="classmkr_1_1shadow__cubemap__shader.html" target="_top" xlink:title=" ">
<polygon fill="white" stroke="black" points="166,-39 166,-69 296,-69 296,-39 166,-39"/>
<text text-anchor="start" x="174" y="-57" font-family="Helvetica,sans-Serif" font-size="10.00">mkr::shadow_cubemap</text>
<text text-anchor="middle" x="231" y="-46" font-family="Helvetica,sans-Serif" font-size="10.00">_shader</text>
</a>
</g>
</g>
<!-- Node0&#45;&gt;Node8 -->
<g id="edge8" class="edge">
<title>Node0&#45;&gt;Node8</title>
<path fill="none" stroke="midnightblue" d="M75.62,-156.37C92.75,-135.26 124.07,-100.14 158,-79 164.06,-75.22 170.77,-71.92 177.59,-69.07"/>
<polygon fill="midnightblue" stroke="midnightblue" points="72.86,-154.21 69.37,-164.22 78.34,-158.57 72.86,-154.21"/>
</g>
<!-- Node9 -->
<g id="node10" class="node">
<title>Node9</title>
<g id="a_node10"><a xlink:href="classmkr_1_1skybox__shader.html" target="_top" xlink:title=" ">
<polygon fill="white" stroke="black" points="173.5,-0.5 173.5,-19.5 288.5,-19.5 288.5,-0.5 173.5,-0.5"/>
<text text-anchor="middle" x="231" y="-7.5" font-family="Helvetica,sans-Serif" font-size="10.00">mkr::skybox_shader</text>
</a>
</g>
</g>
<!-- Node0&#45;&gt;Node9 -->
<g id="edge9" class="edge">
<title>Node0&#45;&gt;Node9</title>
<path fill="none" stroke="midnightblue" d="M69.46,-154.93C82.58,-123.93 112.75,-62.78 158,-30 163.99,-25.66 170.88,-22.26 177.98,-19.6"/>
<polygon fill="midnightblue" stroke="midnightblue" points="66.21,-153.62 65.67,-164.2 72.69,-156.27 66.21,-153.62"/>
</g>
</g>
</svg>
