<?xml version="1.0" encoding="UTF-8" standalone="no"?>
<!DOCTYPE svg PUBLIC "-//W3C//DTD SVG 1.1//EN"
 "http://www.w3.org/Graphics/SVG/1.1/DTD/svg11.dtd">
<!-- Generated by graphviz version 2.43.0 (0)
 -->
<!-- Title: Graphical Class Hierarchy Pages: 1 -->
<svg width="221pt" height="218pt"
 viewBox="0.00 0.00 221.00 218.00" xmlns="http://www.w3.org/2000/svg" xmlns:xlink="http://www.w3.org/1999/xlink">
<g id="graph0" class="graph" transform="scale(1 1) rotate(0) translate(4 214)">
<title>Graphical Class Hierarchy</title>
<polygon fill="white" stroke="transparent" points="-4,4 -4,-214 217,-214 217,4 -4,4"/>
<!-- Node0 -->
<g id="node1" class="node">
<title>Node0</title>
<g id="a_node1"><a xlink:href="classmkr_1_1framebuffer.html" target="_top" xlink:title=" ">
<polygon fill="white" stroke="black" points="0,-95.5 0,-114.5 100,-114.5 100,-95.5 0,-95.5"/>
<text text-anchor="middle" x="50" y="-102.5" font-family="Helvetica,sans-Serif" font-size="10.00">mkr::framebuffer</text>
</a>
</g>
</g>
<!-- Node1 -->
<g id="node2" class="node">
<title>Node1</title>
<g id="a_node2"><a xlink:href="classmkr_1_1dbuffer.html" target="_top" xlink:title=" ">
<polygon fill="white" stroke="black" points="136,-190.5 136,-209.5 213,-209.5 213,-190.5 136,-190.5"/>
<text text-anchor="middle" x="174.5" y="-197.5" font-family="Helvetica,sans-Serif" font-size="10.00">mkr::dbuffer</text>
</a>
</g>
</g>
<!-- Node0&#45;&gt;Node1 -->
<g id="edge1" class="edge">
<title>Node0&#45;&gt;Node1</title>
<path fill="none" stroke="midnightblue" d="M67.44,-122.09C83.81,-138.5 110.15,-163.34 136,-181 141.06,-184.46 146.84,-187.69 152.32,-190.48"/>
<polygon fill="midnightblue" stroke="midnightblue" points="69.76,-119.46 60.25,-114.78 64.77,-124.36 69.76,-119.46"/>
</g>
<!-- Node2 -->
<g id="node3" class="node">
<title>Node2</title>
<g id="a_node3"><a xlink:href="classmkr_1_1fbuffer.html" target="_top" xlink:title=" ">
<polygon fill="white" stroke="black" points="137.5,-152.5 137.5,-171.5 211.5,-171.5 211.5,-152.5 137.5,-152.5"/>
<text text-anchor="middle" x="174.5" y="-159.5" font-family="Helvetica,sans-Serif" font-size="10.00">mkr::fbuffer</text>
</a>
</g>
</g>
<!-- Node0&#45;&gt;Node2 -->
<g id="edge2" class="edge">
<title>Node0&#45;&gt;Node2</title>
<path fill="none" stroke="midnightblue" d="M80.87,-118.9C103.22,-129.3 133.21,-143.25 152.93,-152.43"/>
<polygon fill="midnightblue" stroke="midnightblue" points="82.05,-115.59 71.5,-114.54 79.09,-121.93 82.05,-115.59"/>
</g>
<!-- Node3 -->
<g id="node4" class="node">
<title>Node3</title>
<g id="a_node4"><a xlink:href="classmkr_1_1gbuffer.html" target="_top" xlink:title=" ">
<polygon fill="white" stroke="black" points="136,-114.5 136,-133.5 213,-133.5 213,-114.5 136,-114.5"/>
<text text-anchor="middle" x="174.5" y="-121.5" font-family="Helvetica,sans-Serif" font-size="10.00">mkr::gbuffer</text>
</a>
</g>
</g>
<!-- Node0&#45;&gt;Node3 -->
<g id="edge3" class="edge">
<title>Node0&#45;&gt;Node3</title>
<path fill="none" stroke="midnightblue" d="M110.22,-114.19C118.89,-115.53 127.61,-116.88 135.69,-118.14"/>
<polygon fill="midnightblue" stroke="midnightblue" points="110.54,-110.69 100.12,-112.62 109.46,-117.61 110.54,-110.69"/>
</g>
<!-- Node4 -->
<g id="node5" class="node">
<title>Node4</title>
<g id="a_node5"><a xlink:href="classmkr_1_1lbuffer.html" target="_top" xlink:title=" ">
<polygon fill="white" stroke="black" points="137.5,-76.5 137.5,-95.5 211.5,-95.5 211.5,-76.5 137.5,-76.5"/>
<text text-anchor="middle" x="174.5" y="-83.5" font-family="Helvetica,sans-Serif" font-size="10.00">mkr::lbuffer</text>
</a>
</g>
</g>
<!-- Node0&#45;&gt;Node4 -->
<g id="edge4" class="edge">
<title>Node0&#45;&gt;Node4</title>
<path fill="none" stroke="midnightblue" d="M110.09,-95.83C119.34,-94.4 128.66,-92.96 137.19,-91.63"/>
<polygon fill="midnightblue" stroke="midnightblue" points="109.46,-92.39 100.12,-97.38 110.54,-99.31 109.46,-92.39"/>
</g>
<!-- Node5 -->
<g id="node6" class="node">
<title>Node5</title>
<g id="a_node6"><a xlink:href="classmkr_1_1pbuffer.html" target="_top" xlink:title=" ">
<polygon fill="white" stroke="black" points="136,-38.5 136,-57.5 213,-57.5 213,-38.5 136,-38.5"/>
<text text-anchor="middle" x="174.5" y="-45.5" font-family="Helvetica,sans-Serif" font-size="10.00">mkr::pbuffer</text>
</a>
</g>
</g>
<!-- Node0&#45;&gt;Node5 -->
<g id="edge5" class="edge">
<title>Node0&#45;&gt;Node5</title>
<path fill="none" stroke="midnightblue" d="M80.87,-91.1C103.22,-80.7 133.21,-66.75 152.93,-57.57"/>
<polygon fill="midnightblue" stroke="midnightblue" points="79.09,-88.07 71.5,-95.46 82.05,-94.41 79.09,-88.07"/>
</g>
<!-- Node6 -->
<g id="node7" class="node">
<title>Node6</title>
<g id="a_node7"><a xlink:href="classmkr_1_1sbuffer.html" target="_top" xlink:title=" ">
<polygon fill="white" stroke="black" points="136.5,-0.5 136.5,-19.5 212.5,-19.5 212.5,-0.5 136.5,-0.5"/>
<text text-anchor="middle" x="174.5" y="-7.5" font-family="Helvetica,sans-Serif" font-size="10.00">mkr::sbuffer</text>
</a>
</g>
</g>
<!-- Node0&#45;&gt;Node6 -->
<g id="edge6" class="edge">
<title>Node0&#45;&gt;Node6</title>
<path fill="none" stroke="midnightblue" d="M67.44,-87.91C83.81,-71.5 110.15,-46.66 136,-29 141.06,-25.54 146.84,-22.31 152.32,-19.52"/>
<polygon fill="midnightblue" stroke="midnightblue" points="64.77,-85.64 60.25,-95.22 69.76,-90.54 64.77,-85.64"/>
</g>
</g>
</svg>
