<?xml version="1.0" encoding="UTF-8" standalone="no"?>
<!DOCTYPE svg PUBLIC "-//W3C//DTD SVG 1.1//EN"
 "http://www.w3.org/Graphics/SVG/1.1/DTD/svg11.dtd">
<!-- Generated by graphviz version 2.43.0 (0)
 -->
<!-- Title: Graphical Class Hierarchy Pages: 1 -->
<svg width="275pt" height="268pt"
 viewBox="0.00 0.00 275.00 267.50" xmlns="http://www.w3.org/2000/svg" xmlns:xlink="http://www.w3.org/1999/xlink">
<g id="graph0" class="graph" transform="scale(1 1) rotate(0) translate(4 263.5)">
<title>Graphical Class Hierarchy</title>
<polygon fill="white" stroke="transparent" points="-4,4 -4,-263.5 271,-263.5 271,4 -4,4"/>
<!-- Node0 -->
<g id="node1" class="node">
<title>Node0</title>
<g id="a_node1"><a xlink:href="classmkr_1_1framebuffer.html" target="_top" xlink:title=" ">
<polygon fill="white" stroke="black" points="0,-126 0,-145 100,-145 100,-126 0,-126"/>
<text text-anchor="middle" x="50" y="-133" font-family="Helvetica,sans-Serif" font-size="10.00">mkr::framebuffer</text>
</a>
</g>
</g>
<!-- Node1 -->
<g id="node2" class="node">
<title>Node1</title>
<g id="a_node2"><a xlink:href="classmkr_1_1alpha__buffer.html" target="_top" xlink:title=" ">
<polygon fill="white" stroke="black" points="150,-240 150,-259 253,-259 253,-240 150,-240"/>
<text text-anchor="middle" x="201.5" y="-247" font-family="Helvetica,sans-Serif" font-size="10.00">mkr::alpha_buffer</text>
</a>
</g>
</g>
<!-- Node0&#45;&gt;Node1 -->
<g id="edge1" class="edge">
<title>Node0&#45;&gt;Node1</title>
<path fill="none" stroke="midnightblue" d="M62.6,-153.71C77.19,-175.16 104.22,-210.41 136,-230.5 142.12,-234.37 149.06,-237.48 156.06,-239.97"/>
<polygon fill="midnightblue" stroke="midnightblue" points="65.4,-151.59 56.96,-145.18 59.56,-155.46 65.4,-151.59"/>
</g>
<!-- Node2 -->
<g id="node3" class="node">
<title>Node2</title>
<g id="a_node3"><a xlink:href="classmkr_1_1forward__buffer.html" target="_top" xlink:title=" ">
<polygon fill="white" stroke="black" points="145,-202 145,-221 258,-221 258,-202 145,-202"/>
<text text-anchor="middle" x="201.5" y="-209" font-family="Helvetica,sans-Serif" font-size="10.00">mkr::forward_buffer</text>
</a>
</g>
</g>
<!-- Node0&#45;&gt;Node2 -->
<g id="edge2" class="edge">
<title>Node0&#45;&gt;Node2</title>
<path fill="none" stroke="midnightblue" d="M71.02,-151.5C87.62,-164.11 112.25,-181.36 136,-192.5 143.82,-196.17 152.51,-199.3 160.91,-201.91"/>
<polygon fill="midnightblue" stroke="midnightblue" points="72.74,-148.4 62.69,-145.04 68.45,-153.93 72.74,-148.4"/>
</g>
<!-- Node3 -->
<g id="node4" class="node">
<title>Node3</title>
<g id="a_node4"><a xlink:href="classmkr_1_1geometry__buffer.html" target="_top" xlink:title=" ">
<polygon fill="white" stroke="black" points="140,-164 140,-183 263,-183 263,-164 140,-164"/>
<text text-anchor="middle" x="201.5" y="-171" font-family="Helvetica,sans-Serif" font-size="10.00">mkr::geometry_buffer</text>
</a>
</g>
</g>
<!-- Node0&#45;&gt;Node3 -->
<g id="edge3" class="edge">
<title>Node0&#45;&gt;Node3</title>
<path fill="none" stroke="midnightblue" d="M98.65,-147.61C119.47,-152.9 143.54,-159.02 163.05,-163.98"/>
<polygon fill="midnightblue" stroke="midnightblue" points="99.28,-144.16 88.73,-145.09 97.55,-150.94 99.28,-144.16"/>
</g>
<!-- Node4 -->
<g id="node5" class="node">
<title>Node4</title>
<g id="a_node5"><a xlink:href="classmkr_1_1lighting__buffer.html" target="_top" xlink:title=" ">
<polygon fill="white" stroke="black" points="145,-126 145,-145 258,-145 258,-126 145,-126"/>
<text text-anchor="middle" x="201.5" y="-133" font-family="Helvetica,sans-Serif" font-size="10.00">mkr::lighting_buffer</text>
</a>
</g>
</g>
<!-- Node0&#45;&gt;Node4 -->
<g id="edge4" class="edge">
<title>Node0&#45;&gt;Node4</title>
<path fill="none" stroke="midnightblue" d="M110.61,-135.5C121.95,-135.5 133.78,-135.5 144.98,-135.5"/>
<polygon fill="midnightblue" stroke="midnightblue" points="110.37,-132 100.37,-135.5 110.37,-139 110.37,-132"/>
</g>
<!-- Node5 -->
<g id="node6" class="node">
<title>Node5</title>
<g id="a_node6"><a xlink:href="classmkr_1_1post__buffer.html" target="_top" xlink:title=" ">
<polygon fill="white" stroke="black" points="153,-88 153,-107 250,-107 250,-88 153,-88"/>
<text text-anchor="middle" x="201.5" y="-95" font-family="Helvetica,sans-Serif" font-size="10.00">mkr::post_buffer</text>
</a>
</g>
</g>
<!-- Node0&#45;&gt;Node5 -->
<g id="edge5" class="edge">
<title>Node0&#45;&gt;Node5</title>
<path fill="none" stroke="midnightblue" d="M98.65,-123.39C119.47,-118.1 143.54,-111.98 163.05,-107.02"/>
<polygon fill="midnightblue" stroke="midnightblue" points="97.55,-120.06 88.73,-125.91 99.28,-126.84 97.55,-120.06"/>
</g>
<!-- Node6 -->
<g id="node7" class="node">
<title>Node6</title>
<g id="a_node7"><a xlink:href="classmkr_1_1shadow__2d__buffer.html" target="_top" xlink:title=" ">
<polygon fill="white" stroke="black" points="136,-50 136,-69 267,-69 267,-50 136,-50"/>
<text text-anchor="middle" x="201.5" y="-57" font-family="Helvetica,sans-Serif" font-size="10.00">mkr::shadow_2d_buffer</text>
</a>
</g>
</g>
<!-- Node0&#45;&gt;Node6 -->
<g id="edge6" class="edge">
<title>Node0&#45;&gt;Node6</title>
<path fill="none" stroke="midnightblue" d="M71.02,-119.5C87.62,-106.89 112.25,-89.64 136,-78.5 143.82,-74.83 152.51,-71.7 160.91,-69.09"/>
<polygon fill="midnightblue" stroke="midnightblue" points="68.45,-117.07 62.69,-125.96 72.74,-122.6 68.45,-117.07"/>
</g>
<!-- Node7 -->
<g id="node8" class="node">
<title>Node7</title>
<g id="a_node8"><a xlink:href="classmkr_1_1shadow__cubemap__buffer.html" target="_top" xlink:title=" ">
<polygon fill="white" stroke="black" points="136.5,-0.5 136.5,-30.5 266.5,-30.5 266.5,-0.5 136.5,-0.5"/>
<text text-anchor="start" x="144.5" y="-18.5" font-family="Helvetica,sans-Serif" font-size="10.00">mkr::shadow_cubemap</text>
<text text-anchor="middle" x="201.5" y="-7.5" font-family="Helvetica,sans-Serif" font-size="10.00">_buffer</text>
</a>
</g>
</g>
<!-- Node0&#45;&gt;Node7 -->
<g id="edge7" class="edge">
<title>Node0&#45;&gt;Node7</title>
<path fill="none" stroke="midnightblue" d="M63.12,-117.41C78.05,-96.36 105.25,-61.78 136,-40.5 141.43,-36.74 147.51,-33.44 153.7,-30.58"/>
<polygon fill="midnightblue" stroke="midnightblue" points="60.14,-115.57 57.33,-125.78 65.9,-119.55 60.14,-115.57"/>
</g>
</g>
</svg>
