<?xml version="1.0" encoding="UTF-8" standalone="no"?>
<!DOCTYPE svg PUBLIC "-//W3C//DTD SVG 1.1//EN"
 "http://www.w3.org/Graphics/SVG/1.1/DTD/svg11.dtd">
<!-- Generated by graphviz version 2.43.0 (0)
 -->
<!-- Title: Graphical Class Hierarchy Pages: 1 -->
<svg width="245pt" height="332pt"
 viewBox="0.00 0.00 245.00 332.00" xmlns="http://www.w3.org/2000/svg" xmlns:xlink="http://www.w3.org/1999/xlink">
<g id="graph0" class="graph" transform="scale(1 1) rotate(0) translate(4 328)">
<title>Graphical Class Hierarchy</title>
<polygon fill="white" stroke="transparent" points="-4,4 -4,-328 241,-328 241,4 -4,4"/>
<!-- Node0 -->
<g id="node1" class="node">
<title>Node0</title>
<g id="a_node1"><a xlink:href="classsingleton.html" target="_top" xlink:title=" ">
<polygon fill="white" stroke="black" points="0,-152.5 0,-171.5 62,-171.5 62,-152.5 0,-152.5"/>
<text text-anchor="middle" x="31" y="-159.5" font-family="Helvetica,sans-Serif" font-size="10.00">singleton</text>
</a>
</g>
</g>
<!-- Node1 -->
<g id="node2" class="node">
<title>Node1</title>
<g id="a_node2"><a xlink:href="classmkr_1_1application.html" target="_top" xlink:title=" ">
<polygon fill="white" stroke="black" points="119.5,-304.5 119.5,-323.5 215.5,-323.5 215.5,-304.5 119.5,-304.5"/>
<text text-anchor="middle" x="167.5" y="-311.5" font-family="Helvetica,sans-Serif" font-size="10.00">mkr::application</text>
</a>
</g>
</g>
<!-- Node0&#45;&gt;Node1 -->
<g id="edge1" class="edge">
<title>Node0&#45;&gt;Node1</title>
<path fill="none" stroke="midnightblue" d="M36.32,-181.53C43.77,-210.64 61.87,-265.16 98,-295 104.18,-300.11 111.65,-303.85 119.33,-306.58"/>
<polygon fill="midnightblue" stroke="midnightblue" points="39.7,-180.63 33.96,-171.73 32.89,-182.27 39.7,-180.63"/>
</g>
<!-- Node2 -->
<g id="node3" class="node">
<title>Node2</title>
<g id="a_node3"><a xlink:href="classmkr_1_1graphics__renderer.html" target="_top" xlink:title=" ">
<polygon fill="white" stroke="black" points="102.5,-266.5 102.5,-285.5 232.5,-285.5 232.5,-266.5 102.5,-266.5"/>
<text text-anchor="middle" x="167.5" y="-273.5" font-family="Helvetica,sans-Serif" font-size="10.00">mkr::graphics_renderer</text>
</a>
</g>
</g>
<!-- Node0&#45;&gt;Node2 -->
<g id="edge2" class="edge">
<title>Node0&#45;&gt;Node2</title>
<path fill="none" stroke="midnightblue" d="M40.22,-180.91C50.58,-202.52 70.43,-237.44 98,-257 103.44,-260.86 109.63,-263.93 116.01,-266.38"/>
<polygon fill="midnightblue" stroke="midnightblue" points="43.37,-179.38 36.02,-171.75 37.01,-182.3 43.37,-179.38"/>
</g>
<!-- Node3 -->
<g id="node4" class="node">
<title>Node3</title>
<g id="a_node4"><a xlink:href="classmkr_1_1input__manager.html" target="_top" xlink:title=" ">
<polygon fill="white" stroke="black" points="109.5,-228.5 109.5,-247.5 225.5,-247.5 225.5,-228.5 109.5,-228.5"/>
<text text-anchor="middle" x="167.5" y="-235.5" font-family="Helvetica,sans-Serif" font-size="10.00">mkr::input_manager</text>
</a>
</g>
</g>
<!-- Node0&#45;&gt;Node3 -->
<g id="edge3" class="edge">
<title>Node0&#45;&gt;Node3</title>
<path fill="none" stroke="midnightblue" d="M47.35,-178.82C59.85,-191.55 78.55,-208.59 98,-219 105.18,-222.84 113.21,-225.97 121.18,-228.49"/>
<polygon fill="midnightblue" stroke="midnightblue" points="49.86,-176.37 40.42,-171.54 44.79,-181.19 49.86,-176.37"/>
</g>
<!-- Node4 -->
<g id="node5" class="node">
<title>Node4</title>
<g id="a_node5"><a xlink:href="classmkr_1_1material__manager.html" target="_top" xlink:title=" ">
<polygon fill="white" stroke="black" points="101.5,-190.5 101.5,-209.5 233.5,-209.5 233.5,-190.5 101.5,-190.5"/>
<text text-anchor="middle" x="167.5" y="-197.5" font-family="Helvetica,sans-Serif" font-size="10.00">mkr::material_manager</text>
</a>
</g>
</g>
<!-- Node0&#45;&gt;Node4 -->
<g id="edge4" class="edge">
<title>Node0&#45;&gt;Node4</title>
<path fill="none" stroke="midnightblue" d="M72.01,-173.59C80.58,-176.05 89.59,-178.62 98,-181 109.04,-184.12 121.11,-187.48 131.99,-190.5"/>
<polygon fill="midnightblue" stroke="midnightblue" points="72.79,-170.17 62.21,-170.76 70.85,-176.89 72.79,-170.17"/>
</g>
<!-- Node5 -->
<g id="node6" class="node">
<title>Node5</title>
<g id="a_node6"><a xlink:href="classmkr_1_1mesh__manager.html" target="_top" xlink:title=" ">
<polygon fill="white" stroke="black" points="108.5,-152.5 108.5,-171.5 226.5,-171.5 226.5,-152.5 108.5,-152.5"/>
<text text-anchor="middle" x="167.5" y="-159.5" font-family="Helvetica,sans-Serif" font-size="10.00">mkr::mesh_manager</text>
</a>
</g>
</g>
<!-- Node0&#45;&gt;Node5 -->
<g id="edge5" class="edge">
<title>Node0&#45;&gt;Node5</title>
<path fill="none" stroke="midnightblue" d="M72.21,-162C83.55,-162 96.13,-162 108.3,-162"/>
<polygon fill="midnightblue" stroke="midnightblue" points="72.18,-158.5 62.18,-162 72.18,-165.5 72.18,-158.5"/>
</g>
<!-- Node6 -->
<g id="node7" class="node">
<title>Node6</title>
<g id="a_node7"><a xlink:href="classmkr_1_1scene__manager.html" target="_top" xlink:title=" ">
<polygon fill="white" stroke="black" points="108,-114.5 108,-133.5 227,-133.5 227,-114.5 108,-114.5"/>
<text text-anchor="middle" x="167.5" y="-121.5" font-family="Helvetica,sans-Serif" font-size="10.00">mkr::scene_manager</text>
</a>
</g>
</g>
<!-- Node0&#45;&gt;Node6 -->
<g id="edge6" class="edge">
<title>Node0&#45;&gt;Node6</title>
<path fill="none" stroke="midnightblue" d="M72.01,-150.41C80.58,-147.95 89.59,-145.38 98,-143 109.04,-139.88 121.11,-136.52 131.99,-133.5"/>
<polygon fill="midnightblue" stroke="midnightblue" points="70.85,-147.11 62.21,-153.24 72.79,-153.83 70.85,-147.11"/>
</g>
<!-- Node7 -->
<g id="node8" class="node">
<title>Node7</title>
<g id="a_node8"><a xlink:href="classmkr_1_1sdl__message__pump.html" target="_top" xlink:title=" ">
<polygon fill="white" stroke="black" points="98,-76.5 98,-95.5 237,-95.5 237,-76.5 98,-76.5"/>
<text text-anchor="middle" x="167.5" y="-83.5" font-family="Helvetica,sans-Serif" font-size="10.00">mkr::sdl_message_pump</text>
</a>
</g>
</g>
<!-- Node0&#45;&gt;Node7 -->
<g id="edge7" class="edge">
<title>Node0&#45;&gt;Node7</title>
<path fill="none" stroke="midnightblue" d="M47.35,-145.18C59.85,-132.45 78.55,-115.41 98,-105 105.18,-101.16 113.21,-98.03 121.18,-95.51"/>
<polygon fill="midnightblue" stroke="midnightblue" points="44.79,-142.81 40.42,-152.46 49.86,-147.63 44.79,-142.81"/>
</g>
<!-- Node8 -->
<g id="node9" class="node">
<title>Node8</title>
<g id="a_node9"><a xlink:href="classmkr_1_1shader__manager.html" target="_top" xlink:title=" ">
<polygon fill="white" stroke="black" points="105.5,-38.5 105.5,-57.5 229.5,-57.5 229.5,-38.5 105.5,-38.5"/>
<text text-anchor="middle" x="167.5" y="-45.5" font-family="Helvetica,sans-Serif" font-size="10.00">mkr::shader_manager</text>
</a>
</g>
</g>
<!-- Node0&#45;&gt;Node8 -->
<g id="edge8" class="edge">
<title>Node0&#45;&gt;Node8</title>
<path fill="none" stroke="midnightblue" d="M40.22,-143.09C50.58,-121.48 70.43,-86.56 98,-67 103.44,-63.14 109.63,-60.07 116.01,-57.62"/>
<polygon fill="midnightblue" stroke="midnightblue" points="37.01,-141.7 36.02,-152.25 43.37,-144.62 37.01,-141.7"/>
</g>
<!-- Node9 -->
<g id="node10" class="node">
<title>Node9</title>
<g id="a_node10"><a xlink:href="classmkr_1_1texture__manager.html" target="_top" xlink:title=" ">
<polygon fill="white" stroke="black" points="104.5,-0.5 104.5,-19.5 230.5,-19.5 230.5,-0.5 104.5,-0.5"/>
<text text-anchor="middle" x="167.5" y="-7.5" font-family="Helvetica,sans-Serif" font-size="10.00">mkr::texture_manager</text>
</a>
</g>
</g>
<!-- Node0&#45;&gt;Node9 -->
<g id="edge9" class="edge">
<title>Node0&#45;&gt;Node9</title>
<path fill="none" stroke="midnightblue" d="M36.32,-142.47C43.77,-113.36 61.87,-58.84 98,-29 102.66,-25.15 108.05,-22.08 113.71,-19.62"/>
<polygon fill="midnightblue" stroke="midnightblue" points="32.89,-141.73 33.96,-152.27 39.7,-143.37 32.89,-141.73"/>
</g>
</g>
</svg>
