<?xml version="1.0" encoding="UTF-8" standalone="no"?>
<!DOCTYPE svg PUBLIC "-//W3C//DTD SVG 1.1//EN"
 "http://www.w3.org/Graphics/SVG/1.1/DTD/svg11.dtd">
<!-- Generated by graphviz version 2.43.0 (0)
 -->
<!-- Title: Graphical Class Hierarchy Pages: 1 -->
<svg width="294pt" height="180pt"
 viewBox="0.00 0.00 294.00 180.00" xmlns="http://www.w3.org/2000/svg" xmlns:xlink="http://www.w3.org/1999/xlink">
<g id="graph0" class="graph" transform="scale(1 1) rotate(0) translate(4 176)">
<title>Graphical Class Hierarchy</title>
<polygon fill="white" stroke="transparent" points="-4,4 -4,-176 290,-176 290,4 -4,4"/>
<!-- Node0 -->
<g id="node1" class="node">
<title>Node0</title>
<g id="a_node1"><a xlink:href="classmkr_1_1shader__program.html" target="_top" xlink:title=" ">
<polygon fill="white" stroke="black" points="0,-76.5 0,-95.5 122,-95.5 122,-76.5 0,-76.5"/>
<text text-anchor="middle" x="61" y="-83.5" font-family="Helvetica,sans-Serif" font-size="10.00">mkr::shader_program</text>
</a>
</g>
</g>
<!-- Node1 -->
<g id="node2" class="node">
<title>Node1</title>
<g id="a_node2"><a xlink:href="classmkr_1_1forward__shader.html" target="_top" xlink:title=" ">
<polygon fill="white" stroke="black" points="163,-152.5 163,-171.5 281,-171.5 281,-152.5 163,-152.5"/>
<text text-anchor="middle" x="222" y="-159.5" font-family="Helvetica,sans-Serif" font-size="10.00">mkr::forward_shader</text>
</a>
</g>
</g>
<!-- Node0&#45;&gt;Node1 -->
<g id="edge1" class="edge">
<title>Node0&#45;&gt;Node1</title>
<path fill="none" stroke="midnightblue" d="M84.24,-101.32C103.18,-113.85 131.47,-131.33 158,-143 166.16,-146.59 175.19,-149.75 183.81,-152.42"/>
<polygon fill="midnightblue" stroke="midnightblue" points="85.99,-98.28 75.74,-95.62 82.09,-104.1 85.99,-98.28"/>
</g>
<!-- Node2 -->
<g id="node3" class="node">
<title>Node2</title>
<g id="a_node3"><a xlink:href="classmkr_1_1geometry__shader.html" target="_top" xlink:title=" ">
<polygon fill="white" stroke="black" points="158,-114.5 158,-133.5 286,-133.5 286,-114.5 158,-114.5"/>
<text text-anchor="middle" x="222" y="-121.5" font-family="Helvetica,sans-Serif" font-size="10.00">mkr::geometry_shader</text>
</a>
</g>
</g>
<!-- Node0&#45;&gt;Node2 -->
<g id="edge2" class="edge">
<title>Node0&#45;&gt;Node2</title>
<path fill="none" stroke="midnightblue" d="M112.08,-97.97C134.36,-103.29 160.23,-109.48 181.17,-114.48"/>
<polygon fill="midnightblue" stroke="midnightblue" points="112.66,-94.51 102.12,-95.59 111.03,-101.32 112.66,-94.51"/>
</g>
<!-- Node3 -->
<g id="node4" class="node">
<title>Node3</title>
<g id="a_node4"><a xlink:href="classmkr_1_1light__shader.html" target="_top" xlink:title=" ">
<polygon fill="white" stroke="black" points="171,-76.5 171,-95.5 273,-95.5 273,-76.5 171,-76.5"/>
<text text-anchor="middle" x="222" y="-83.5" font-family="Helvetica,sans-Serif" font-size="10.00">mkr::light_shader</text>
</a>
</g>
</g>
<!-- Node0&#45;&gt;Node3 -->
<g id="edge3" class="edge">
<title>Node0&#45;&gt;Node3</title>
<path fill="none" stroke="midnightblue" d="M132.42,-86C145.39,-86 158.69,-86 170.91,-86"/>
<polygon fill="midnightblue" stroke="midnightblue" points="132.11,-82.5 122.11,-86 132.11,-89.5 132.11,-82.5"/>
</g>
<!-- Node4 -->
<g id="node5" class="node">
<title>Node4</title>
<g id="a_node5"><a xlink:href="classmkr_1_1post__proc__shader.html" target="_top" xlink:title=" ">
<polygon fill="white" stroke="black" points="158,-38.5 158,-57.5 286,-57.5 286,-38.5 158,-38.5"/>
<text text-anchor="middle" x="222" y="-45.5" font-family="Helvetica,sans-Serif" font-size="10.00">mkr::post_proc_shader</text>
</a>
</g>
</g>
<!-- Node0&#45;&gt;Node4 -->
<g id="edge4" class="edge">
<title>Node0&#45;&gt;Node4</title>
<path fill="none" stroke="midnightblue" d="M112.08,-74.03C134.36,-68.71 160.23,-62.52 181.17,-57.52"/>
<polygon fill="midnightblue" stroke="midnightblue" points="111.03,-70.68 102.12,-76.41 112.66,-77.49 111.03,-70.68"/>
</g>
<!-- Node5 -->
<g id="node6" class="node">
<title>Node5</title>
<g id="a_node6"><a xlink:href="classmkr_1_1skybox__shader.html" target="_top" xlink:title=" ">
<polygon fill="white" stroke="black" points="164.5,-0.5 164.5,-19.5 279.5,-19.5 279.5,-0.5 164.5,-0.5"/>
<text text-anchor="middle" x="222" y="-7.5" font-family="Helvetica,sans-Serif" font-size="10.00">mkr::skybox_shader</text>
</a>
</g>
</g>
<!-- Node0&#45;&gt;Node5 -->
<g id="edge5" class="edge">
<title>Node0&#45;&gt;Node5</title>
<path fill="none" stroke="midnightblue" d="M84.24,-70.68C103.18,-58.15 131.47,-40.67 158,-29 166.16,-25.41 175.19,-22.25 183.81,-19.58"/>
<polygon fill="midnightblue" stroke="midnightblue" points="82.09,-67.9 75.74,-76.38 85.99,-73.72 82.09,-67.9"/>
</g>
</g>
</svg>
