<?xml version="1.0" encoding="UTF-8" standalone="no"?>
<!DOCTYPE svg PUBLIC "-//W3C//DTD SVG 1.1//EN"
 "http://www.w3.org/Graphics/SVG/1.1/DTD/svg11.dtd">
<!-- Generated by graphviz version 2.43.0 (0)
 -->
<!-- Title: Graphical Class Hierarchy Pages: 1 -->
<svg width="301pt" height="268pt"
 viewBox="0.00 0.00 301.00 268.00" xmlns="http://www.w3.org/2000/svg" xmlns:xlink="http://www.w3.org/1999/xlink">
<g id="graph0" class="graph" transform="scale(1 1) rotate(0) translate(4 264)">
<title>Graphical Class Hierarchy</title>
<polygon fill="white" stroke="transparent" points="-4,4 -4,-264 297,-264 297,4 -4,4"/>
<!-- Node0 -->
<g id="node1" class="node">
<title>Node0</title>
<g id="a_node1"><a xlink:href="classmkr_1_1shader__program.html" target="_top" xlink:title=" ">
<polygon fill="white" stroke="black" points="0,-126.5 0,-145.5 122,-145.5 122,-126.5 0,-126.5"/>
<text text-anchor="middle" x="61" y="-133.5" font-family="Helvetica,sans-Serif" font-size="10.00">mkr::shader_program</text>
</a>
</g>
</g>
<!-- Node1 -->
<g id="node2" class="node">
<title>Node1</title>
<g id="a_node2"><a xlink:href="classmkr_1_1forward__shader.html" target="_top" xlink:title=" ">
<polygon fill="white" stroke="black" points="166.5,-240.5 166.5,-259.5 284.5,-259.5 284.5,-240.5 166.5,-240.5"/>
<text text-anchor="middle" x="225.5" y="-247.5" font-family="Helvetica,sans-Serif" font-size="10.00">mkr::forward_shader</text>
</a>
</g>
</g>
<!-- Node0&#45;&gt;Node1 -->
<g id="edge1" class="edge">
<title>Node0&#45;&gt;Node1</title>
<path fill="none" stroke="midnightblue" d="M75.16,-153.62C92.04,-175.01 123.31,-210.71 158,-231 164.53,-234.82 171.87,-237.91 179.23,-240.4"/>
<polygon fill="midnightblue" stroke="midnightblue" points="77.91,-151.46 69.03,-145.68 72.37,-155.73 77.91,-151.46"/>
</g>
<!-- Node2 -->
<g id="node3" class="node">
<title>Node2</title>
<g id="a_node3"><a xlink:href="classmkr_1_1geometry__shader.html" target="_top" xlink:title=" ">
<polygon fill="white" stroke="black" points="161.5,-202.5 161.5,-221.5 289.5,-221.5 289.5,-202.5 161.5,-202.5"/>
<text text-anchor="middle" x="225.5" y="-209.5" font-family="Helvetica,sans-Serif" font-size="10.00">mkr::geometry_shader</text>
</a>
</g>
</g>
<!-- Node0&#45;&gt;Node2 -->
<g id="edge2" class="edge">
<title>Node0&#45;&gt;Node2</title>
<path fill="none" stroke="midnightblue" d="M84.19,-151.42C103.11,-164.01 131.38,-181.53 158,-193 166.49,-196.66 175.89,-199.84 184.88,-202.49"/>
<polygon fill="midnightblue" stroke="midnightblue" points="85.95,-148.39 75.71,-145.69 82.03,-154.19 85.95,-148.39"/>
</g>
<!-- Node3 -->
<g id="node4" class="node">
<title>Node3</title>
<g id="a_node4"><a xlink:href="classmkr_1_1lighting__shader.html" target="_top" xlink:title=" ">
<polygon fill="white" stroke="black" points="167,-164.5 167,-183.5 284,-183.5 284,-164.5 167,-164.5"/>
<text text-anchor="middle" x="225.5" y="-171.5" font-family="Helvetica,sans-Serif" font-size="10.00">mkr::lighting_shader</text>
</a>
</g>
</g>
<!-- Node0&#45;&gt;Node3 -->
<g id="edge3" class="edge">
<title>Node0&#45;&gt;Node3</title>
<path fill="none" stroke="midnightblue" d="M112.87,-147.9C135.71,-153.24 162.3,-159.45 183.79,-164.48"/>
<polygon fill="midnightblue" stroke="midnightblue" points="113.54,-144.46 103.01,-145.59 111.95,-151.27 113.54,-144.46"/>
</g>
<!-- Node4 -->
<g id="node5" class="node">
<title>Node4</title>
<g id="a_node5"><a xlink:href="classmkr_1_1post__proc__shader.html" target="_top" xlink:title=" ">
<polygon fill="white" stroke="black" points="161.5,-126.5 161.5,-145.5 289.5,-145.5 289.5,-126.5 161.5,-126.5"/>
<text text-anchor="middle" x="225.5" y="-133.5" font-family="Helvetica,sans-Serif" font-size="10.00">mkr::post_proc_shader</text>
</a>
</g>
</g>
<!-- Node0&#45;&gt;Node4 -->
<g id="edge4" class="edge">
<title>Node0&#45;&gt;Node4</title>
<path fill="none" stroke="midnightblue" d="M132.1,-136C141.85,-136 151.82,-136 161.43,-136"/>
<polygon fill="midnightblue" stroke="midnightblue" points="132.05,-132.5 122.05,-136 132.05,-139.5 132.05,-132.5"/>
</g>
<!-- Node5 -->
<g id="node6" class="node">
<title>Node5</title>
<g id="a_node6"><a xlink:href="classmkr_1_1shadow__2d__shader.html" target="_top" xlink:title=" ">
<polygon fill="white" stroke="black" points="158,-88.5 158,-107.5 293,-107.5 293,-88.5 158,-88.5"/>
<text text-anchor="middle" x="225.5" y="-95.5" font-family="Helvetica,sans-Serif" font-size="10.00">mkr::shadow_2d_shader</text>
</a>
</g>
</g>
<!-- Node0&#45;&gt;Node5 -->
<g id="edge5" class="edge">
<title>Node0&#45;&gt;Node5</title>
<path fill="none" stroke="midnightblue" d="M112.87,-124.1C135.71,-118.76 162.3,-112.55 183.79,-107.52"/>
<polygon fill="midnightblue" stroke="midnightblue" points="111.95,-120.73 103.01,-126.41 113.54,-127.54 111.95,-120.73"/>
</g>
<!-- Node6 -->
<g id="node7" class="node">
<title>Node6</title>
<g id="a_node7"><a xlink:href="classmkr_1_1shadow__cubemap__shader.html" target="_top" xlink:title=" ">
<polygon fill="white" stroke="black" points="160.5,-39 160.5,-69 290.5,-69 290.5,-39 160.5,-39"/>
<text text-anchor="start" x="168.5" y="-57" font-family="Helvetica,sans-Serif" font-size="10.00">mkr::shadow_cubemap</text>
<text text-anchor="middle" x="225.5" y="-46" font-family="Helvetica,sans-Serif" font-size="10.00">_shader</text>
</a>
</g>
</g>
<!-- Node0&#45;&gt;Node6 -->
<g id="edge6" class="edge">
<title>Node0&#45;&gt;Node6</title>
<path fill="none" stroke="midnightblue" d="M84.78,-120.92C103.84,-108.68 132.02,-91.47 158,-79 165.34,-75.48 173.31,-72.11 181.11,-69.05"/>
<polygon fill="midnightblue" stroke="midnightblue" points="82.68,-118.11 76.2,-126.49 86.49,-123.98 82.68,-118.11"/>
</g>
<!-- Node7 -->
<g id="node8" class="node">
<title>Node7</title>
<g id="a_node8"><a xlink:href="classmkr_1_1skybox__shader.html" target="_top" xlink:title=" ">
<polygon fill="white" stroke="black" points="168,-0.5 168,-19.5 283,-19.5 283,-0.5 168,-0.5"/>
<text text-anchor="middle" x="225.5" y="-7.5" font-family="Helvetica,sans-Serif" font-size="10.00">mkr::skybox_shader</text>
</a>
</g>
</g>
<!-- Node0&#45;&gt;Node7 -->
<g id="edge7" class="edge">
<title>Node0&#45;&gt;Node7</title>
<path fill="none" stroke="midnightblue" d="M73.78,-117.77C89.97,-94.13 121.31,-53.18 158,-30 164.83,-25.69 172.64,-22.26 180.45,-19.55"/>
<polygon fill="midnightblue" stroke="midnightblue" points="70.8,-115.93 68.15,-126.19 76.62,-119.82 70.8,-115.93"/>
</g>
</g>
</svg>
