<?xml version="1.0" encoding="UTF-8" standalone="no"?>
<!DOCTYPE svg PUBLIC "-//W3C//DTD SVG 1.1//EN"
 "http://www.w3.org/Graphics/SVG/1.1/DTD/svg11.dtd">
<!-- Generated by graphviz version 2.43.0 (0)
 -->
<!-- Title: src/input/input_manager.cpp Pages: 1 -->
<svg width="2408pt" height="330pt"
 viewBox="0.00 0.00 2407.50 330.00" xmlns="http://www.w3.org/2000/svg" xmlns:xlink="http://www.w3.org/1999/xlink">
<g id="graph0" class="graph" transform="scale(1 1) rotate(0) translate(4 326)">
<title>src/input/input_manager.cpp</title>
<polygon fill="white" stroke="transparent" points="-4,4 -4,-326 2403.5,-326 2403.5,4 -4,4"/>
<!-- Node1 -->
<g id="node1" class="node">
<title>Node1</title>
<g id="a_node1"><a xlink:title=" ">
<polygon fill="#bfbfbf" stroke="black" points="1436,-302.5 1436,-321.5 1591,-321.5 1591,-302.5 1436,-302.5"/>
<text text-anchor="middle" x="1513.5" y="-309.5" font-family="Helvetica,sans-Serif" font-size="10.00">src/input/input_manager.cpp</text>
</a>
</g>
</g>
<!-- Node2 -->
<g id="node2" class="node">
<title>Node2</title>
<g id="a_node2"><a xlink:href="log_8h.html" target="_top" xlink:title=" ">
<polygon fill="white" stroke="black" points="354,-241 354,-260 413,-260 413,-241 354,-241"/>
<text text-anchor="middle" x="383.5" y="-248" font-family="Helvetica,sans-Serif" font-size="10.00">log/log.h</text>
</a>
</g>
</g>
<!-- Node1&#45;&gt;Node2 -->
<g id="edge1" class="edge">
<title>Node1&#45;&gt;Node2</title>
<path fill="none" stroke="midnightblue" d="M1435.83,-306.91C1214.8,-295.27 587.73,-262.25 423.35,-253.6"/>
<polygon fill="midnightblue" stroke="midnightblue" points="423.37,-250.09 413.2,-253.06 423,-257.09 423.37,-250.09"/>
</g>
<!-- Node9 -->
<g id="node9" class="node">
<title>Node9</title>
<g id="a_node9"><a xlink:href="sdl__message__pump_8h.html" target="_top" xlink:title=" ">
<polygon fill="white" stroke="black" points="683,-235.5 683,-265.5 820,-265.5 820,-235.5 683,-235.5"/>
<text text-anchor="start" x="691" y="-253.5" font-family="Helvetica,sans-Serif" font-size="10.00">application/sdl_message</text>
<text text-anchor="middle" x="751.5" y="-242.5" font-family="Helvetica,sans-Serif" font-size="10.00">_pump.h</text>
</a>
</g>
</g>
<!-- Node1&#45;&gt;Node9 -->
<g id="edge8" class="edge">
<title>Node1&#45;&gt;Node9</title>
<path fill="none" stroke="midnightblue" d="M1435.89,-304.94C1290.12,-293.56 976.94,-269.1 830.28,-257.65"/>
<polygon fill="midnightblue" stroke="midnightblue" points="830.26,-254.14 820.01,-256.85 829.71,-261.12 830.26,-254.14"/>
</g>
<!-- Node25 -->
<g id="node25" class="node">
<title>Node25</title>
<g id="a_node25"><a xlink:href="input__helper_8h.html" target="_top" xlink:title=" ">
<polygon fill="white" stroke="black" points="1749,-241 1749,-260 1862,-260 1862,-241 1749,-241"/>
<text text-anchor="middle" x="1805.5" y="-248" font-family="Helvetica,sans-Serif" font-size="10.00">input/input_helper.h</text>
</a>
</g>
</g>
<!-- Node1&#45;&gt;Node25 -->
<g id="edge25" class="edge">
<title>Node1&#45;&gt;Node25</title>
<path fill="none" stroke="midnightblue" d="M1555.34,-302.48C1607.7,-291.8 1697.37,-273.53 1753.93,-262.01"/>
<polygon fill="midnightblue" stroke="midnightblue" points="1754.64,-265.44 1763.74,-260.01 1753.24,-258.58 1754.64,-265.44"/>
</g>
<!-- Node29 -->
<g id="node29" class="node">
<title>Node29</title>
<g id="a_node29"><a xlink:href="input__manager_8h.html" target="_top" xlink:title=" ">
<polygon fill="white" stroke="black" points="1208.5,-241 1208.5,-260 1334.5,-260 1334.5,-241 1208.5,-241"/>
<text text-anchor="middle" x="1271.5" y="-248" font-family="Helvetica,sans-Serif" font-size="10.00">input/input_manager.h</text>
</a>
</g>
</g>
<!-- Node1&#45;&gt;Node29 -->
<g id="edge29" class="edge">
<title>Node1&#45;&gt;Node29</title>
<path fill="none" stroke="midnightblue" d="M1478.83,-302.48C1435.97,-291.94 1362.96,-273.99 1316,-262.44"/>
<polygon fill="midnightblue" stroke="midnightblue" points="1316.65,-259 1306.11,-260.01 1314.98,-265.8 1316.65,-259"/>
</g>
<!-- Node36 -->
<g id="node36" class="node">
<title>Node36</title>
<g id="a_node36"><a xlink:href="sdl__to__keycode_8h.html" target="_top" xlink:title=" ">
<polygon fill="white" stroke="black" points="1932.5,-241 1932.5,-260 2060.5,-260 2060.5,-241 1932.5,-241"/>
<text text-anchor="middle" x="1996.5" y="-248" font-family="Helvetica,sans-Serif" font-size="10.00">input/sdl_to_keycode.h</text>
</a>
</g>
</g>
<!-- Node1&#45;&gt;Node36 -->
<g id="edge65" class="edge">
<title>Node1&#45;&gt;Node36</title>
<path fill="none" stroke="midnightblue" d="M1582.7,-302.48C1672.84,-291.37 1829.79,-272.04 1922.31,-260.64"/>
<polygon fill="midnightblue" stroke="midnightblue" points="1922.94,-264.09 1932.44,-259.39 1922.08,-257.14 1922.94,-264.09"/>
</g>
<!-- Node40 -->
<g id="node40" class="node">
<title>Node40</title>
<g id="a_node40"><a xlink:href="sdl__to__controller__index_8h.html" target="_top" xlink:title=" ">
<polygon fill="white" stroke="black" points="1620,-168.5 1620,-198.5 1745,-198.5 1745,-168.5 1620,-168.5"/>
<text text-anchor="start" x="1628" y="-186.5" font-family="Helvetica,sans-Serif" font-size="10.00">input/sdl_to_controller</text>
<text text-anchor="middle" x="1682.5" y="-175.5" font-family="Helvetica,sans-Serif" font-size="10.00">_index.h</text>
</a>
</g>
</g>
<!-- Node1&#45;&gt;Node40 -->
<g id="edge71" class="edge">
<title>Node1&#45;&gt;Node40</title>
<path fill="none" stroke="midnightblue" d="M1525.12,-302.31C1551.7,-282.41 1617.54,-233.12 1655.1,-205.01"/>
<polygon fill="midnightblue" stroke="midnightblue" points="1657.64,-207.48 1663.55,-198.68 1653.45,-201.87 1657.64,-207.48"/>
</g>
<!-- Node3 -->
<g id="node3" class="node">
<title>Node3</title>
<g id="a_node3"><a xlink:title=" ">
<polygon fill="white" stroke="#bfbfbf" points="422,-0.5 422,-19.5 467,-19.5 467,-0.5 422,-0.5"/>
<text text-anchor="middle" x="444.5" y="-7.5" font-family="Helvetica,sans-Serif" font-size="10.00">utility</text>
</a>
</g>
</g>
<!-- Node2&#45;&gt;Node3 -->
<g id="edge2" class="edge">
<title>Node2&#45;&gt;Node3</title>
<path fill="none" stroke="midnightblue" d="M385.41,-240.91C388.73,-226.03 395.87,-194.5 402.5,-168 415.07,-117.76 431.21,-58.85 439.33,-29.53"/>
<polygon fill="midnightblue" stroke="midnightblue" points="442.73,-30.4 442.03,-19.83 435.98,-28.52 442.73,-30.4"/>
</g>
<!-- Node4 -->
<g id="node4" class="node">
<title>Node4</title>
<g id="a_node4"><a xlink:title=" ">
<polygon fill="white" stroke="#bfbfbf" points="411.5,-174 411.5,-193 455.5,-193 455.5,-174 411.5,-174"/>
<text text-anchor="middle" x="433.5" y="-181" font-family="Helvetica,sans-Serif" font-size="10.00">string</text>
</a>
</g>
</g>
<!-- Node2&#45;&gt;Node4 -->
<g id="edge3" class="edge">
<title>Node2&#45;&gt;Node4</title>
<path fill="none" stroke="midnightblue" d="M390.24,-240.73C398.04,-230.6 411.05,-213.69 420.76,-201.06"/>
<polygon fill="midnightblue" stroke="midnightblue" points="423.54,-203.19 426.86,-193.13 417.99,-198.92 423.54,-203.19"/>
</g>
<!-- Node5 -->
<g id="node5" class="node">
<title>Node5</title>
<g id="a_node5"><a xlink:title=" ">
<polygon fill="white" stroke="#bfbfbf" points="474,-174 474,-193 567,-193 567,-174 474,-174"/>
<text text-anchor="middle" x="520.5" y="-181" font-family="Helvetica,sans-Serif" font-size="10.00">spdlog/spdlog.h</text>
</a>
</g>
</g>
<!-- Node2&#45;&gt;Node5 -->
<g id="edge4" class="edge">
<title>Node2&#45;&gt;Node5</title>
<path fill="none" stroke="midnightblue" d="M401.69,-240.87C425.03,-229.8 465.73,-210.49 492.89,-197.6"/>
<polygon fill="midnightblue" stroke="midnightblue" points="494.7,-200.62 502.23,-193.17 491.7,-194.29 494.7,-200.62"/>
</g>
<!-- Node6 -->
<g id="node6" class="node">
<title>Node6</title>
<g id="a_node6"><a xlink:title=" ">
<polygon fill="white" stroke="#bfbfbf" points="0,-174 0,-193 89,-193 89,-174 0,-174"/>
<text text-anchor="middle" x="44.5" y="-181" font-family="Helvetica,sans-Serif" font-size="10.00">spdlog/async.h</text>
</a>
</g>
</g>
<!-- Node2&#45;&gt;Node6 -->
<g id="edge5" class="edge">
<title>Node2&#45;&gt;Node6</title>
<path fill="none" stroke="midnightblue" d="M353.68,-245.16C301.47,-237.36 190.23,-219.83 97.5,-199 93.03,-198 88.38,-196.86 83.77,-195.68"/>
<polygon fill="midnightblue" stroke="midnightblue" points="84.38,-192.22 73.81,-193.04 82.58,-198.98 84.38,-192.22"/>
</g>
<!-- Node7 -->
<g id="node7" class="node">
<title>Node7</title>
<g id="a_node7"><a xlink:title=" ">
<polygon fill="white" stroke="#bfbfbf" points="107,-168.5 107,-198.5 226,-198.5 226,-168.5 107,-168.5"/>
<text text-anchor="start" x="115" y="-186.5" font-family="Helvetica,sans-Serif" font-size="10.00">spdlog/sinks/rotating</text>
<text text-anchor="middle" x="166.5" y="-175.5" font-family="Helvetica,sans-Serif" font-size="10.00">_file_sink.h</text>
</a>
</g>
</g>
<!-- Node2&#45;&gt;Node7 -->
<g id="edge6" class="edge">
<title>Node2&#45;&gt;Node7</title>
<path fill="none" stroke="midnightblue" d="M354.68,-240.87C321.21,-230.84 265.17,-214.06 222.93,-201.4"/>
<polygon fill="midnightblue" stroke="midnightblue" points="223.92,-198.04 213.33,-198.53 221.91,-204.75 223.92,-198.04"/>
</g>
<!-- Node8 -->
<g id="node8" class="node">
<title>Node8</title>
<g id="a_node8"><a xlink:title=" ">
<polygon fill="white" stroke="#bfbfbf" points="244,-168.5 244,-198.5 355,-198.5 355,-168.5 244,-168.5"/>
<text text-anchor="start" x="252" y="-186.5" font-family="Helvetica,sans-Serif" font-size="10.00">spdlog/sinks/stdout</text>
<text text-anchor="middle" x="299.5" y="-175.5" font-family="Helvetica,sans-Serif" font-size="10.00">_color_sinks.h</text>
</a>
</g>
</g>
<!-- Node2&#45;&gt;Node8 -->
<g id="edge7" class="edge">
<title>Node2&#45;&gt;Node8</title>
<path fill="none" stroke="midnightblue" d="M372.17,-240.73C360.38,-231.61 341.5,-217 325.94,-204.96"/>
<polygon fill="midnightblue" stroke="midnightblue" points="327.76,-201.94 317.71,-198.59 323.47,-207.48 327.76,-201.94"/>
</g>
<!-- Node10 -->
<g id="node10" class="node">
<title>Node10</title>
<g id="a_node10"><a xlink:title=" ">
<polygon fill="white" stroke="#bfbfbf" points="1096.5,-112.5 1096.5,-131.5 1144.5,-131.5 1144.5,-112.5 1096.5,-112.5"/>
<text text-anchor="middle" x="1120.5" y="-119.5" font-family="Helvetica,sans-Serif" font-size="10.00">mutex</text>
</a>
</g>
</g>
<!-- Node9&#45;&gt;Node10 -->
<g id="edge9" class="edge">
<title>Node9&#45;&gt;Node10</title>
<path fill="none" stroke="midnightblue" d="M737.52,-235.26C721.91,-217.63 701,-187.57 718.5,-168 742.87,-140.75 993.55,-128.06 1086.27,-124.27"/>
<polygon fill="midnightblue" stroke="midnightblue" points="1086.41,-127.77 1096.26,-123.87 1086.13,-120.77 1086.41,-127.77"/>
</g>
<!-- Node11 -->
<g id="node11" class="node">
<title>Node11</title>
<g id="a_node11"><a xlink:title=" ">
<polygon fill="white" stroke="#bfbfbf" points="728,-174 728,-193 775,-193 775,-174 728,-174"/>
<text text-anchor="middle" x="751.5" y="-181" font-family="Helvetica,sans-Serif" font-size="10.00">queue</text>
</a>
</g>
</g>
<!-- Node9&#45;&gt;Node11 -->
<g id="edge10" class="edge">
<title>Node9&#45;&gt;Node11</title>
<path fill="none" stroke="midnightblue" d="M751.5,-235.4C751.5,-226.06 751.5,-213.71 751.5,-203.52"/>
<polygon fill="midnightblue" stroke="midnightblue" points="755,-203.19 751.5,-193.19 748,-203.19 755,-203.19"/>
</g>
<!-- Node12 -->
<g id="node12" class="node">
<title>Node12</title>
<g id="a_node12"><a xlink:title=" ">
<polygon fill="white" stroke="#bfbfbf" points="585.5,-174 585.5,-193 633.5,-193 633.5,-174 585.5,-174"/>
<text text-anchor="middle" x="609.5" y="-181" font-family="Helvetica,sans-Serif" font-size="10.00">thread</text>
</a>
</g>
</g>
<!-- Node9&#45;&gt;Node12 -->
<g id="edge11" class="edge">
<title>Node9&#45;&gt;Node12</title>
<path fill="none" stroke="midnightblue" d="M720.69,-235.4C695.88,-224.04 661.32,-208.22 637.34,-197.24"/>
<polygon fill="midnightblue" stroke="midnightblue" points="638.63,-193.99 628.08,-193.01 635.72,-200.35 638.63,-193.99"/>
</g>
<!-- Node13 -->
<g id="node13" class="node">
<title>Node13</title>
<g id="a_node13"><a xlink:title=" ">
<polygon fill="white" stroke="#bfbfbf" points="793.5,-174 793.5,-193 865.5,-193 865.5,-174 793.5,-174"/>
<text text-anchor="middle" x="829.5" y="-181" font-family="Helvetica,sans-Serif" font-size="10.00">SDL2/SDL.h</text>
</a>
</g>
</g>
<!-- Node9&#45;&gt;Node13 -->
<g id="edge12" class="edge">
<title>Node9&#45;&gt;Node13</title>
<path fill="none" stroke="midnightblue" d="M768.42,-235.4C781.07,-224.86 798.33,-210.48 811.27,-199.69"/>
<polygon fill="midnightblue" stroke="midnightblue" points="813.62,-202.29 819.07,-193.19 809.14,-196.91 813.62,-202.29"/>
</g>
<!-- Node14 -->
<g id="node14" class="node">
<title>Node14</title>
<g id="a_node14"><a xlink:title=" ">
<polygon fill="white" stroke="#bfbfbf" points="883.5,-174 883.5,-193 999.5,-193 999.5,-174 883.5,-174"/>
<text text-anchor="middle" x="941.5" y="-181" font-family="Helvetica,sans-Serif" font-size="10.00">common/singleton.h</text>
</a>
</g>
</g>
<!-- Node9&#45;&gt;Node14 -->
<g id="edge13" class="edge">
<title>Node9&#45;&gt;Node14</title>
<path fill="none" stroke="midnightblue" d="M792.73,-235.4C826.8,-223.74 874.64,-207.37 906.79,-196.38"/>
<polygon fill="midnightblue" stroke="midnightblue" points="908.3,-199.56 916.63,-193.01 906.04,-192.93 908.3,-199.56"/>
</g>
<!-- Node15 -->
<g id="node15" class="node">
<title>Node15</title>
<g id="a_node15"><a xlink:href="event__dispatcher_8h.html" target="_top" xlink:title=" ">
<polygon fill="white" stroke="black" points="786.5,-112.5 786.5,-131.5 926.5,-131.5 926.5,-112.5 786.5,-112.5"/>
<text text-anchor="middle" x="856.5" y="-119.5" font-family="Helvetica,sans-Serif" font-size="10.00">event/event_dispatcher.h</text>
</a>
</g>
</g>
<!-- Node9&#45;&gt;Node15 -->
<g id="edge14" class="edge">
<title>Node9&#45;&gt;Node15</title>
<path fill="none" stroke="midnightblue" d="M725.92,-235.24C700.28,-219.1 667.05,-191.94 685.5,-168 697.79,-152.05 742.39,-140.63 782.96,-133.29"/>
<polygon fill="midnightblue" stroke="midnightblue" points="783.64,-136.72 792.89,-131.55 782.43,-129.83 783.64,-136.72"/>
</g>
<!-- Node16 -->
<g id="node16" class="node">
<title>Node16</title>
<g id="a_node16"><a xlink:title=" ">
<polygon fill="white" stroke="#bfbfbf" points="755.5,-56.5 755.5,-75.5 813.5,-75.5 813.5,-56.5 755.5,-56.5"/>
<text text-anchor="middle" x="784.5" y="-63.5" font-family="Helvetica,sans-Serif" font-size="10.00">memory</text>
</a>
</g>
</g>
<!-- Node15&#45;&gt;Node16 -->
<g id="edge15" class="edge">
<title>Node15&#45;&gt;Node16</title>
<path fill="none" stroke="midnightblue" d="M844.93,-112.32C834.08,-104.18 817.62,-91.84 804.62,-82.09"/>
<polygon fill="midnightblue" stroke="midnightblue" points="806.38,-79.03 796.28,-75.83 802.18,-84.63 806.38,-79.03"/>
</g>
<!-- Node17 -->
<g id="node17" class="node">
<title>Node17</title>
<g id="a_node17"><a xlink:title=" ">
<polygon fill="white" stroke="#bfbfbf" points="1127,-56.5 1127,-75.5 1220,-75.5 1220,-56.5 1127,-56.5"/>
<text text-anchor="middle" x="1173.5" y="-63.5" font-family="Helvetica,sans-Serif" font-size="10.00">unordered_map</text>
</a>
</g>
</g>
<!-- Node15&#45;&gt;Node17 -->
<g id="edge16" class="edge">
<title>Node15&#45;&gt;Node17</title>
<path fill="none" stroke="midnightblue" d="M906.73,-112.44C963.91,-102.7 1057.11,-86.83 1116.84,-76.65"/>
<polygon fill="midnightblue" stroke="midnightblue" points="1117.59,-80.07 1126.86,-74.94 1116.41,-73.17 1117.59,-80.07"/>
</g>
<!-- Node18 -->
<g id="node18" class="node">
<title>Node18</title>
<g id="a_node18"><a xlink:title=" ">
<polygon fill="white" stroke="#bfbfbf" points="1022.5,-56.5 1022.5,-75.5 1108.5,-75.5 1108.5,-56.5 1022.5,-56.5"/>
<text text-anchor="middle" x="1065.5" y="-63.5" font-family="Helvetica,sans-Serif" font-size="10.00">unordered_set</text>
</a>
</g>
</g>
<!-- Node15&#45;&gt;Node18 -->
<g id="edge17" class="edge">
<title>Node15&#45;&gt;Node18</title>
<path fill="none" stroke="midnightblue" d="M889.62,-112.44C925.62,-103.14 983.27,-88.25 1022.69,-78.06"/>
<polygon fill="midnightblue" stroke="midnightblue" points="1023.73,-81.41 1032.54,-75.52 1021.98,-74.63 1023.73,-81.41"/>
</g>
<!-- Node19 -->
<g id="node19" class="node">
<title>Node19</title>
<g id="a_node19"><a xlink:title=" ">
<polygon fill="white" stroke="#bfbfbf" points="832,-56.5 832,-75.5 879,-75.5 879,-56.5 832,-56.5"/>
<text text-anchor="middle" x="855.5" y="-63.5" font-family="Helvetica,sans-Serif" font-size="10.00">vector</text>
</a>
</g>
</g>
<!-- Node15&#45;&gt;Node19 -->
<g id="edge18" class="edge">
<title>Node15&#45;&gt;Node19</title>
<path fill="none" stroke="midnightblue" d="M856.33,-112.08C856.2,-105.01 856.02,-94.86 855.85,-85.99"/>
<polygon fill="midnightblue" stroke="midnightblue" points="859.35,-85.68 855.66,-75.75 852.35,-85.81 859.35,-85.68"/>
</g>
<!-- Node20 -->
<g id="node20" class="node">
<title>Node20</title>
<g id="a_node20"><a xlink:title=" ">
<polygon fill="white" stroke="#bfbfbf" points="897,-56.5 897,-75.5 1004,-75.5 1004,-56.5 897,-56.5"/>
<text text-anchor="middle" x="950.5" y="-63.5" font-family="Helvetica,sans-Serif" font-size="10.00">common/type_id.h</text>
</a>
</g>
</g>
<!-- Node15&#45;&gt;Node20 -->
<g id="edge19" class="edge">
<title>Node15&#45;&gt;Node20</title>
<path fill="none" stroke="midnightblue" d="M871.6,-112.32C886.4,-103.82 909.19,-90.73 926.48,-80.8"/>
<polygon fill="midnightblue" stroke="midnightblue" points="928.51,-83.67 935.43,-75.65 925.02,-77.6 928.51,-83.67"/>
</g>
<!-- Node21 -->
<g id="node21" class="node">
<title>Node21</title>
<g id="a_node21"><a xlink:href="event__listener_8h.html" target="_top" xlink:title=" ">
<polygon fill="white" stroke="black" points="612,-56.5 612,-75.5 737,-75.5 737,-56.5 612,-56.5"/>
<text text-anchor="middle" x="674.5" y="-63.5" font-family="Helvetica,sans-Serif" font-size="10.00">event/event_listener.h</text>
</a>
</g>
</g>
<!-- Node15&#45;&gt;Node21 -->
<g id="edge20" class="edge">
<title>Node15&#45;&gt;Node21</title>
<path fill="none" stroke="midnightblue" d="M827.66,-112.44C796.64,-103.24 747.17,-88.56 712.88,-78.39"/>
<polygon fill="midnightblue" stroke="midnightblue" points="713.79,-75.01 703.2,-75.52 711.79,-81.72 713.79,-75.01"/>
</g>
<!-- Node21&#45;&gt;Node3 -->
<g id="edge23" class="edge">
<title>Node21&#45;&gt;Node3</title>
<path fill="none" stroke="midnightblue" d="M638.06,-56.44C593.71,-46.03 519.5,-28.61 477.01,-18.63"/>
<polygon fill="midnightblue" stroke="midnightblue" points="477.71,-15.2 467.18,-16.32 476.11,-22.02 477.71,-15.2"/>
</g>
<!-- Node22 -->
<g id="node22" class="node">
<title>Node22</title>
<g id="a_node22"><a xlink:title=" ">
<polygon fill="white" stroke="#bfbfbf" points="599,-0.5 599,-19.5 664,-19.5 664,-0.5 599,-0.5"/>
<text text-anchor="middle" x="631.5" y="-7.5" font-family="Helvetica,sans-Serif" font-size="10.00">functional</text>
</a>
</g>
</g>
<!-- Node21&#45;&gt;Node22 -->
<g id="edge21" class="edge">
<title>Node21&#45;&gt;Node22</title>
<path fill="none" stroke="midnightblue" d="M667.4,-56.08C661.26,-48.38 652.23,-37.03 644.76,-27.65"/>
<polygon fill="midnightblue" stroke="midnightblue" points="647.44,-25.39 638.47,-19.75 641.96,-29.75 647.44,-25.39"/>
</g>
<!-- Node23 -->
<g id="node23" class="node">
<title>Node23</title>
<g id="a_node23"><a xlink:title=" ">
<polygon fill="white" stroke="#bfbfbf" points="682,-0.5 682,-19.5 751,-19.5 751,-0.5 682,-0.5"/>
<text text-anchor="middle" x="716.5" y="-7.5" font-family="Helvetica,sans-Serif" font-size="10.00">type_traits</text>
</a>
</g>
</g>
<!-- Node21&#45;&gt;Node23 -->
<g id="edge22" class="edge">
<title>Node21&#45;&gt;Node23</title>
<path fill="none" stroke="midnightblue" d="M681.44,-56.08C687.43,-48.38 696.25,-37.03 703.55,-27.65"/>
<polygon fill="midnightblue" stroke="midnightblue" points="706.32,-29.79 709.69,-19.75 700.79,-25.5 706.32,-29.79"/>
</g>
<!-- Node24 -->
<g id="node24" class="node">
<title>Node24</title>
<g id="a_node24"><a xlink:href="event_8h.html" target="_top" xlink:title=" ">
<polygon fill="white" stroke="black" points="1020.5,-0.5 1020.5,-19.5 1104.5,-19.5 1104.5,-0.5 1020.5,-0.5"/>
<text text-anchor="middle" x="1062.5" y="-7.5" font-family="Helvetica,sans-Serif" font-size="10.00">event/event.h</text>
</a>
</g>
</g>
<!-- Node21&#45;&gt;Node24 -->
<g id="edge24" class="edge">
<title>Node21&#45;&gt;Node24</title>
<path fill="none" stroke="midnightblue" d="M735.98,-56.44C811.74,-45.9 939.16,-28.17 1010.36,-18.26"/>
<polygon fill="midnightblue" stroke="midnightblue" points="1011.02,-21.7 1020.44,-16.85 1010.05,-14.77 1011.02,-21.7"/>
</g>
<!-- Node26 -->
<g id="node26" class="node">
<title>Node26</title>
<g id="a_node26"><a xlink:href="input_8h.html" target="_top" xlink:title="When making games, for portability purposes, as well as our own sanity, we do not want to hardcode ph...">
<polygon fill="white" stroke="black" points="1453.5,-56.5 1453.5,-75.5 1531.5,-75.5 1531.5,-56.5 1453.5,-56.5"/>
<text text-anchor="middle" x="1492.5" y="-63.5" font-family="Helvetica,sans-Serif" font-size="10.00">input/input.h</text>
</a>
</g>
</g>
<!-- Node25&#45;&gt;Node26 -->
<g id="edge26" class="edge">
<title>Node25&#45;&gt;Node26</title>
<path fill="none" stroke="midnightblue" d="M1808.3,-240.68C1815.37,-216.53 1831.08,-148.69 1797.5,-112 1763.99,-75.39 1619.01,-68.21 1541.62,-67.03"/>
<polygon fill="midnightblue" stroke="midnightblue" points="1541.66,-63.53 1531.62,-66.9 1541.58,-70.53 1541.66,-63.53"/>
</g>
<!-- Node27 -->
<g id="node27" class="node">
<title>Node27</title>
<g id="a_node27"><a xlink:href="keycode_8h.html" target="_top" xlink:title=" ">
<polygon fill="white" stroke="black" points="1833.5,-174 1833.5,-193 1927.5,-193 1927.5,-174 1833.5,-174"/>
<text text-anchor="middle" x="1880.5" y="-181" font-family="Helvetica,sans-Serif" font-size="10.00">input/keycode.h</text>
</a>
</g>
</g>
<!-- Node25&#45;&gt;Node27 -->
<g id="edge27" class="edge">
<title>Node25&#45;&gt;Node27</title>
<path fill="none" stroke="midnightblue" d="M1815.61,-240.73C1827.65,-230.31 1847.95,-212.71 1862.65,-199.97"/>
<polygon fill="midnightblue" stroke="midnightblue" points="1865.28,-202.32 1870.55,-193.13 1860.7,-197.03 1865.28,-202.32"/>
</g>
<!-- Node28 -->
<g id="node28" class="node">
<title>Node28</title>
<g id="a_node28"><a xlink:title=" ">
<polygon fill="white" stroke="#bfbfbf" points="1855.5,-112.5 1855.5,-131.5 1905.5,-131.5 1905.5,-112.5 1855.5,-112.5"/>
<text text-anchor="middle" x="1880.5" y="-119.5" font-family="Helvetica,sans-Serif" font-size="10.00">cstdint</text>
</a>
</g>
</g>
<!-- Node27&#45;&gt;Node28 -->
<g id="edge28" class="edge">
<title>Node27&#45;&gt;Node28</title>
<path fill="none" stroke="midnightblue" d="M1880.5,-173.98C1880.5,-165.58 1880.5,-152.48 1880.5,-141.66"/>
<polygon fill="midnightblue" stroke="midnightblue" points="1884,-141.51 1880.5,-131.51 1877,-141.51 1884,-141.51"/>
</g>
<!-- Node29&#45;&gt;Node13 -->
<g id="edge30" class="edge">
<title>Node29&#45;&gt;Node13</title>
<path fill="none" stroke="midnightblue" d="M1208.31,-245.09C1129.45,-238.76 990.81,-224.9 874.5,-199 870.64,-198.14 866.65,-197.09 862.7,-195.96"/>
<polygon fill="midnightblue" stroke="midnightblue" points="863.68,-192.6 853.09,-193.01 861.63,-199.29 863.68,-192.6"/>
</g>
<!-- Node29&#45;&gt;Node14 -->
<g id="edge31" class="edge">
<title>Node29&#45;&gt;Node14</title>
<path fill="none" stroke="midnightblue" d="M1225.35,-240.98C1172.78,-231.19 1084.35,-214.49 1008.5,-199 1002.6,-197.8 996.41,-196.5 990.28,-195.2"/>
<polygon fill="midnightblue" stroke="midnightblue" points="990.6,-191.68 980.09,-193.01 989.13,-198.53 990.6,-191.68"/>
</g>
<!-- Node29&#45;&gt;Node27 -->
<g id="edge32" class="edge">
<title>Node29&#45;&gt;Node27</title>
<path fill="none" stroke="midnightblue" d="M1334.82,-243.09C1427.13,-233.7 1604.07,-215.52 1754.5,-199 1776.99,-196.53 1801.71,-193.71 1823.27,-191.21"/>
<polygon fill="midnightblue" stroke="midnightblue" points="1823.72,-194.69 1833.24,-190.06 1822.91,-187.73 1823.72,-194.69"/>
</g>
<!-- Node30 -->
<g id="node30" class="node">
<title>Node30</title>
<g id="a_node30"><a xlink:href="button__handler_8h.html" target="_top" xlink:title=" ">
<polygon fill="white" stroke="black" points="1017.5,-174 1017.5,-193 1143.5,-193 1143.5,-174 1017.5,-174"/>
<text text-anchor="middle" x="1080.5" y="-181" font-family="Helvetica,sans-Serif" font-size="10.00">input/button_handler.h</text>
</a>
</g>
</g>
<!-- Node29&#45;&gt;Node30 -->
<g id="edge33" class="edge">
<title>Node29&#45;&gt;Node30</title>
<path fill="none" stroke="midnightblue" d="M1246.14,-240.87C1212.51,-229.42 1153.02,-209.18 1115.24,-196.32"/>
<polygon fill="midnightblue" stroke="midnightblue" points="1116.26,-192.97 1105.66,-193.06 1114,-199.6 1116.26,-192.97"/>
</g>
<!-- Node33 -->
<g id="node33" class="node">
<title>Node33</title>
<g id="a_node33"><a xlink:href="axis__handler_8h.html" target="_top" xlink:title=" ">
<polygon fill="white" stroke="black" points="1162,-174 1162,-193 1277,-193 1277,-174 1162,-174"/>
<text text-anchor="middle" x="1219.5" y="-181" font-family="Helvetica,sans-Serif" font-size="10.00">input/axis_handler.h</text>
</a>
</g>
</g>
<!-- Node29&#45;&gt;Node33 -->
<g id="edge43" class="edge">
<title>Node29&#45;&gt;Node33</title>
<path fill="none" stroke="midnightblue" d="M1264.49,-240.73C1256.38,-230.6 1242.85,-213.69 1232.74,-201.06"/>
<polygon fill="midnightblue" stroke="midnightblue" points="1235.38,-198.75 1226.4,-193.13 1229.92,-203.12 1235.38,-198.75"/>
</g>
<!-- Node34 -->
<g id="node34" class="node">
<title>Node34</title>
<g id="a_node34"><a xlink:href="click__handler_8h.html" target="_top" xlink:title=" ">
<polygon fill="white" stroke="black" points="1442,-174 1442,-193 1559,-193 1559,-174 1442,-174"/>
<text text-anchor="middle" x="1500.5" y="-181" font-family="Helvetica,sans-Serif" font-size="10.00">input/click_handler.h</text>
</a>
</g>
</g>
<!-- Node29&#45;&gt;Node34 -->
<g id="edge50" class="edge">
<title>Node29&#45;&gt;Node34</title>
<path fill="none" stroke="midnightblue" d="M1301.91,-240.87C1342.74,-229.28 1415.37,-208.66 1460.57,-195.83"/>
<polygon fill="midnightblue" stroke="midnightblue" points="1461.67,-199.16 1470.33,-193.06 1459.75,-192.43 1461.67,-199.16"/>
</g>
<!-- Node35 -->
<g id="node35" class="node">
<title>Node35</title>
<g id="a_node35"><a xlink:href="motion__handler_8h.html" target="_top" xlink:title=" ">
<polygon fill="white" stroke="black" points="1295,-174 1295,-193 1424,-193 1424,-174 1295,-174"/>
<text text-anchor="middle" x="1359.5" y="-181" font-family="Helvetica,sans-Serif" font-size="10.00">input/motion_handler.h</text>
</a>
</g>
</g>
<!-- Node29&#45;&gt;Node35 -->
<g id="edge58" class="edge">
<title>Node29&#45;&gt;Node35</title>
<path fill="none" stroke="midnightblue" d="M1283.37,-240.73C1297.75,-230.11 1322.2,-212.05 1339.51,-199.26"/>
<polygon fill="midnightblue" stroke="midnightblue" points="1341.86,-201.88 1347.82,-193.13 1337.7,-196.25 1341.86,-201.88"/>
</g>
<!-- Node30&#45;&gt;Node10 -->
<g id="edge36" class="edge">
<title>Node30&#45;&gt;Node10</title>
<path fill="none" stroke="midnightblue" d="M1086.23,-173.98C1092.17,-165.14 1101.62,-151.09 1109.09,-139.98"/>
<polygon fill="midnightblue" stroke="midnightblue" points="1112.11,-141.76 1114.78,-131.51 1106.3,-137.86 1112.11,-141.76"/>
</g>
<!-- Node30&#45;&gt;Node15 -->
<g id="edge37" class="edge">
<title>Node30&#45;&gt;Node15</title>
<path fill="none" stroke="midnightblue" d="M1048.41,-173.98C1008.9,-163.48 941.72,-145.64 898.24,-134.09"/>
<polygon fill="midnightblue" stroke="midnightblue" points="899.1,-130.69 888.53,-131.51 897.3,-137.46 899.1,-130.69"/>
</g>
<!-- Node30&#45;&gt;Node17 -->
<g id="edge34" class="edge">
<title>Node30&#45;&gt;Node17</title>
<path fill="none" stroke="midnightblue" d="M1072.25,-173.59C1060.26,-159.53 1040.85,-131.75 1054.5,-112 1063.38,-99.14 1098.8,-86.75 1128.71,-78.24"/>
<polygon fill="midnightblue" stroke="midnightblue" points="1129.89,-81.54 1138.6,-75.5 1128.03,-74.8 1129.89,-81.54"/>
</g>
<!-- Node30&#45;&gt;Node18 -->
<g id="edge35" class="edge">
<title>Node30&#45;&gt;Node18</title>
<path fill="none" stroke="midnightblue" d="M1041.31,-173.95C1018.74,-166.8 992.2,-154.08 978.5,-132 963.67,-108.11 995.65,-89.99 1024.93,-79.03"/>
<polygon fill="midnightblue" stroke="midnightblue" points="1026.42,-82.22 1034.68,-75.59 1024.09,-75.62 1026.42,-82.22"/>
</g>
<!-- Node30&#45;&gt;Node26 -->
<g id="edge38" class="edge">
<title>Node30&#45;&gt;Node26</title>
<path fill="none" stroke="midnightblue" d="M1078.26,-173.69C1075.06,-158.72 1071.18,-128.38 1087.5,-112 1142.53,-56.76 1359.2,-86.19 1436.5,-76 1438.72,-75.71 1440.99,-75.4 1443.28,-75.07"/>
<polygon fill="midnightblue" stroke="midnightblue" points="1444,-78.5 1453.38,-73.58 1442.97,-71.58 1444,-78.5"/>
</g>
<!-- Node31 -->
<g id="node31" class="node">
<title>Node31</title>
<g id="a_node31"><a xlink:href="input__event_8h.html" target="_top" xlink:title=" ">
<polygon fill="white" stroke="black" points="1315,-112.5 1315,-131.5 1426,-131.5 1426,-112.5 1315,-112.5"/>
<text text-anchor="middle" x="1370.5" y="-119.5" font-family="Helvetica,sans-Serif" font-size="10.00">input/input_event.h</text>
</a>
</g>
</g>
<!-- Node30&#45;&gt;Node31 -->
<g id="edge39" class="edge">
<title>Node30&#45;&gt;Node31</title>
<path fill="none" stroke="midnightblue" d="M1122.05,-173.98C1173.95,-163.33 1262.74,-145.11 1318.93,-133.58"/>
<polygon fill="midnightblue" stroke="midnightblue" points="1319.93,-136.95 1329.03,-131.51 1318.53,-130.09 1319.93,-136.95"/>
</g>
<!-- Node31&#45;&gt;Node24 -->
<g id="edge41" class="edge">
<title>Node31&#45;&gt;Node24</title>
<path fill="none" stroke="midnightblue" d="M1354.38,-112.48C1328.57,-99.08 1276.13,-72.89 1229.5,-56 1190.61,-41.91 1145.22,-29.95 1111.59,-21.92"/>
<polygon fill="midnightblue" stroke="midnightblue" points="1112.08,-18.44 1101.54,-19.55 1110.47,-25.25 1112.08,-18.44"/>
</g>
<!-- Node31&#45;&gt;Node26 -->
<g id="edge42" class="edge">
<title>Node31&#45;&gt;Node26</title>
<path fill="none" stroke="midnightblue" d="M1389.83,-112.44C1409.82,-103.6 1441.24,-89.69 1464.06,-79.59"/>
<polygon fill="midnightblue" stroke="midnightblue" points="1465.53,-82.76 1473.26,-75.52 1462.7,-76.36 1465.53,-82.76"/>
</g>
<!-- Node32 -->
<g id="node32" class="node">
<title>Node32</title>
<g id="a_node32"><a xlink:title=" ">
<polygon fill="white" stroke="#bfbfbf" points="1331.5,-56.5 1331.5,-75.5 1427.5,-75.5 1427.5,-56.5 1331.5,-56.5"/>
<text text-anchor="middle" x="1379.5" y="-63.5" font-family="Helvetica,sans-Serif" font-size="10.00">maths/vector2.h</text>
</a>
</g>
</g>
<!-- Node31&#45;&gt;Node32 -->
<g id="edge40" class="edge">
<title>Node31&#45;&gt;Node32</title>
<path fill="none" stroke="midnightblue" d="M1371.99,-112.08C1373.18,-104.93 1374.89,-94.64 1376.38,-85.69"/>
<polygon fill="midnightblue" stroke="midnightblue" points="1379.85,-86.19 1378.04,-75.75 1372.95,-85.04 1379.85,-86.19"/>
</g>
<!-- Node33&#45;&gt;Node10 -->
<g id="edge46" class="edge">
<title>Node33&#45;&gt;Node10</title>
<path fill="none" stroke="midnightblue" d="M1205.32,-173.98C1189.14,-164.25 1162.47,-148.23 1143.36,-136.74"/>
<polygon fill="midnightblue" stroke="midnightblue" points="1145.03,-133.66 1134.66,-131.51 1141.43,-139.66 1145.03,-133.66"/>
</g>
<!-- Node33&#45;&gt;Node15 -->
<g id="edge47" class="edge">
<title>Node33&#45;&gt;Node15</title>
<path fill="none" stroke="midnightblue" d="M1182.02,-173.96C1172.42,-171.89 1162.1,-169.77 1152.5,-168 1077.11,-154.13 990.36,-141.3 930.35,-132.93"/>
<polygon fill="midnightblue" stroke="midnightblue" points="930.59,-129.43 920.21,-131.52 929.63,-136.36 930.59,-129.43"/>
</g>
<!-- Node33&#45;&gt;Node17 -->
<g id="edge44" class="edge">
<title>Node33&#45;&gt;Node17</title>
<path fill="none" stroke="midnightblue" d="M1216.04,-173.82C1208.58,-155.09 1190.84,-110.55 1180.79,-85.29"/>
<polygon fill="midnightblue" stroke="midnightblue" points="1183.95,-83.78 1177,-75.78 1177.45,-86.37 1183.95,-83.78"/>
</g>
<!-- Node33&#45;&gt;Node18 -->
<g id="edge45" class="edge">
<title>Node33&#45;&gt;Node18</title>
<path fill="none" stroke="midnightblue" d="M1188.49,-173.97C1154.17,-163.96 1101.79,-146.86 1087.5,-132 1075.51,-119.53 1070.04,-100.3 1067.56,-85.99"/>
<polygon fill="midnightblue" stroke="midnightblue" points="1070.98,-85.2 1066.14,-75.78 1064.05,-86.17 1070.98,-85.2"/>
</g>
<!-- Node33&#45;&gt;Node26 -->
<g id="edge48" class="edge">
<title>Node33&#45;&gt;Node26</title>
<path fill="none" stroke="midnightblue" d="M1258.85,-173.95C1319.05,-160.78 1427.88,-136.57 1435.5,-132 1455.14,-120.22 1471.62,-99.39 1481.72,-84.49"/>
<polygon fill="midnightblue" stroke="midnightblue" points="1484.92,-86 1487.42,-75.7 1479.04,-82.19 1484.92,-86"/>
</g>
<!-- Node33&#45;&gt;Node31 -->
<g id="edge49" class="edge">
<title>Node33&#45;&gt;Node31</title>
<path fill="none" stroke="midnightblue" d="M1241.13,-173.98C1266.92,-163.81 1310.21,-146.76 1339.54,-135.2"/>
<polygon fill="midnightblue" stroke="midnightblue" points="1340.88,-138.43 1348.91,-131.51 1338.32,-131.92 1340.88,-138.43"/>
</g>
<!-- Node34&#45;&gt;Node10 -->
<g id="edge53" class="edge">
<title>Node34&#45;&gt;Node10</title>
<path fill="none" stroke="midnightblue" d="M1463.38,-173.98C1453.68,-171.89 1443.22,-169.75 1433.5,-168 1332.53,-149.84 1212.19,-134.21 1154.56,-127.1"/>
<polygon fill="midnightblue" stroke="midnightblue" points="1154.9,-123.61 1144.55,-125.87 1154.05,-130.56 1154.9,-123.61"/>
</g>
<!-- Node34&#45;&gt;Node15 -->
<g id="edge55" class="edge">
<title>Node34&#45;&gt;Node15</title>
<path fill="none" stroke="midnightblue" d="M1465.54,-174C1455.27,-171.76 1443.98,-169.54 1433.5,-168 1257.32,-142.19 1048.55,-130.55 936.75,-125.83"/>
<polygon fill="midnightblue" stroke="midnightblue" points="936.7,-122.32 926.56,-125.41 936.41,-129.32 936.7,-122.32"/>
</g>
<!-- Node34&#45;&gt;Node17 -->
<g id="edge51" class="edge">
<title>Node34&#45;&gt;Node17</title>
<path fill="none" stroke="midnightblue" d="M1495.31,-173.87C1485.63,-158.63 1463.29,-127.11 1435.5,-112 1401.01,-93.24 1296.63,-79.54 1230.5,-72.46"/>
<polygon fill="midnightblue" stroke="midnightblue" points="1230.54,-68.95 1220.23,-71.38 1229.81,-75.91 1230.54,-68.95"/>
</g>
<!-- Node34&#45;&gt;Node18 -->
<g id="edge52" class="edge">
<title>Node34&#45;&gt;Node18</title>
<path fill="none" stroke="midnightblue" d="M1467.18,-173.92C1428.51,-163.94 1362.85,-146.93 1306.5,-132 1236.11,-113.35 1154.28,-91.17 1106.37,-78.14"/>
<polygon fill="midnightblue" stroke="midnightblue" points="1107.24,-74.75 1096.67,-75.5 1105.4,-81.5 1107.24,-74.75"/>
</g>
<!-- Node34&#45;&gt;Node26 -->
<g id="edge56" class="edge">
<title>Node34&#45;&gt;Node26</title>
<path fill="none" stroke="midnightblue" d="M1525.64,-173.99C1555.62,-162.37 1599.67,-139.79 1582.5,-112 1572.83,-96.35 1555.88,-85.96 1539.28,-79.15"/>
<polygon fill="midnightblue" stroke="midnightblue" points="1540.19,-75.76 1529.6,-75.54 1537.75,-82.32 1540.19,-75.76"/>
</g>
<!-- Node34&#45;&gt;Node31 -->
<g id="edge57" class="edge">
<title>Node34&#45;&gt;Node31</title>
<path fill="none" stroke="midnightblue" d="M1481.87,-173.98C1460.06,-163.99 1423.7,-147.35 1398.48,-135.81"/>
<polygon fill="midnightblue" stroke="midnightblue" points="1399.64,-132.49 1389.09,-131.51 1396.73,-138.85 1399.64,-132.49"/>
</g>
<!-- Node34&#45;&gt;Node32 -->
<g id="edge54" class="edge">
<title>Node34&#45;&gt;Node32</title>
<path fill="none" stroke="midnightblue" d="M1512.81,-173.91C1530.83,-160.29 1560.61,-133.1 1544.5,-112 1531.36,-94.8 1479.66,-82.59 1437.59,-75.27"/>
<polygon fill="midnightblue" stroke="midnightblue" points="1438.12,-71.81 1427.68,-73.61 1436.96,-78.72 1438.12,-71.81"/>
</g>
<!-- Node35&#45;&gt;Node10 -->
<g id="edge61" class="edge">
<title>Node35&#45;&gt;Node10</title>
<path fill="none" stroke="midnightblue" d="M1325.26,-173.98C1279.75,-162.65 1199.84,-142.75 1154.47,-131.46"/>
<polygon fill="midnightblue" stroke="midnightblue" points="1155.08,-128 1144.53,-128.98 1153.39,-134.79 1155.08,-128"/>
</g>
<!-- Node35&#45;&gt;Node15 -->
<g id="edge62" class="edge">
<title>Node35&#45;&gt;Node15</title>
<path fill="none" stroke="midnightblue" d="M1319.84,-173.93C1309.06,-171.79 1297.36,-169.64 1286.5,-168 1165.14,-149.64 1023.37,-136.37 936.78,-129.18"/>
<polygon fill="midnightblue" stroke="midnightblue" points="937.02,-125.69 926.76,-128.36 936.44,-132.67 937.02,-125.69"/>
</g>
<!-- Node35&#45;&gt;Node17 -->
<g id="edge59" class="edge">
<title>Node35&#45;&gt;Node17</title>
<path fill="none" stroke="midnightblue" d="M1345.52,-173.82C1313.61,-154 1235.16,-105.29 1196.21,-81.1"/>
<polygon fill="midnightblue" stroke="midnightblue" points="1197.98,-78.08 1187.64,-75.78 1194.29,-84.03 1197.98,-78.08"/>
</g>
<!-- Node35&#45;&gt;Node18 -->
<g id="edge60" class="edge">
<title>Node35&#45;&gt;Node18</title>
<path fill="none" stroke="midnightblue" d="M1337.4,-173.82C1285.66,-153.49 1156.54,-102.76 1096.77,-79.28"/>
<polygon fill="midnightblue" stroke="midnightblue" points="1098.04,-76.02 1087.45,-75.62 1095.48,-82.54 1098.04,-76.02"/>
</g>
<!-- Node35&#45;&gt;Node26 -->
<g id="edge63" class="edge">
<title>Node35&#45;&gt;Node26</title>
<path fill="none" stroke="midnightblue" d="M1394.42,-173.93C1418.17,-166.45 1448.77,-153.38 1468.5,-132 1480.34,-119.17 1486.47,-99.98 1489.56,-85.78"/>
<polygon fill="midnightblue" stroke="midnightblue" points="1493.05,-86.14 1491.43,-75.67 1486.17,-84.87 1493.05,-86.14"/>
</g>
<!-- Node35&#45;&gt;Node31 -->
<g id="edge64" class="edge">
<title>Node35&#45;&gt;Node31</title>
<path fill="none" stroke="midnightblue" d="M1361.08,-173.98C1362.63,-165.58 1365.05,-152.48 1367.05,-141.66"/>
<polygon fill="midnightblue" stroke="midnightblue" points="1370.55,-141.98 1368.93,-131.51 1363.67,-140.71 1370.55,-141.98"/>
</g>
<!-- Node36&#45;&gt;Node27 -->
<g id="edge70" class="edge">
<title>Node36&#45;&gt;Node27</title>
<path fill="none" stroke="midnightblue" d="M1980.86,-240.73C1961.29,-229.77 1927.58,-210.88 1904.68,-198.05"/>
<polygon fill="midnightblue" stroke="midnightblue" points="1906.33,-194.96 1895.9,-193.13 1902.91,-201.07 1906.33,-194.96"/>
</g>
<!-- Node36&#45;&gt;Node28 -->
<g id="edge66" class="edge">
<title>Node36&#45;&gt;Node28</title>
<path fill="none" stroke="midnightblue" d="M1991.2,-240.85C1981.46,-225.32 1959.6,-192.1 1936.5,-168 1925.88,-156.92 1912.52,-146.09 1901.52,-137.83"/>
<polygon fill="midnightblue" stroke="midnightblue" points="1903.43,-134.89 1893.3,-131.81 1899.29,-140.54 1903.43,-134.89"/>
</g>
<!-- Node37 -->
<g id="node37" class="node">
<title>Node37</title>
<g id="a_node37"><a xlink:title=" ">
<polygon fill="white" stroke="#bfbfbf" points="2281.5,-174 2281.5,-193 2399.5,-193 2399.5,-174 2281.5,-174"/>
<text text-anchor="middle" x="2340.5" y="-181" font-family="Helvetica,sans-Serif" font-size="10.00">SDL2/SDL_keycode.h</text>
</a>
</g>
</g>
<!-- Node36&#45;&gt;Node37 -->
<g id="edge67" class="edge">
<title>Node36&#45;&gt;Node37</title>
<path fill="none" stroke="midnightblue" d="M2045.44,-240.99C2100.68,-231.28 2193.18,-214.71 2272.5,-199 2278.64,-197.78 2285.08,-196.47 2291.45,-195.14"/>
<polygon fill="midnightblue" stroke="midnightblue" points="2292.28,-198.54 2301.35,-193.05 2290.84,-191.69 2292.28,-198.54"/>
</g>
<!-- Node38 -->
<g id="node38" class="node">
<title>Node38</title>
<g id="a_node38"><a xlink:title=" ">
<polygon fill="white" stroke="#bfbfbf" points="1983.5,-174 1983.5,-193 2093.5,-193 2093.5,-174 1983.5,-174"/>
<text text-anchor="middle" x="2038.5" y="-181" font-family="Helvetica,sans-Serif" font-size="10.00">SDL2/SDL_mouse.h</text>
</a>
</g>
</g>
<!-- Node36&#45;&gt;Node38 -->
<g id="edge68" class="edge">
<title>Node36&#45;&gt;Node38</title>
<path fill="none" stroke="midnightblue" d="M2002.16,-240.73C2008.59,-230.79 2019.22,-214.34 2027.33,-201.79"/>
<polygon fill="midnightblue" stroke="midnightblue" points="2030.44,-203.43 2032.93,-193.13 2024.56,-199.63 2030.44,-203.43"/>
</g>
<!-- Node39 -->
<g id="node39" class="node">
<title>Node39</title>
<g id="a_node39"><a xlink:title=" ">
<polygon fill="white" stroke="#bfbfbf" points="2112,-174 2112,-193 2263,-193 2263,-174 2112,-174"/>
<text text-anchor="middle" x="2187.5" y="-181" font-family="Helvetica,sans-Serif" font-size="10.00">SDL2/SDL_gamecontroller.h</text>
</a>
</g>
</g>
<!-- Node36&#45;&gt;Node39 -->
<g id="edge69" class="edge">
<title>Node36&#45;&gt;Node39</title>
<path fill="none" stroke="midnightblue" d="M2021.86,-240.87C2055.49,-229.42 2114.98,-209.18 2152.76,-196.32"/>
<polygon fill="midnightblue" stroke="midnightblue" points="2154,-199.6 2162.34,-193.06 2151.74,-192.97 2154,-199.6"/>
</g>
<!-- Node40&#45;&gt;Node26 -->
<g id="edge74" class="edge">
<title>Node40&#45;&gt;Node26</title>
<path fill="none" stroke="midnightblue" d="M1668.15,-168.36C1652,-153.02 1624.49,-128.5 1597.5,-112 1575.44,-98.52 1548.62,-87.1 1527.61,-79.14"/>
<polygon fill="midnightblue" stroke="midnightblue" points="1528.7,-75.81 1518.11,-75.62 1526.27,-82.37 1528.7,-75.81"/>
</g>
<!-- Node40&#45;&gt;Node28 -->
<g id="edge72" class="edge">
<title>Node40&#45;&gt;Node28</title>
<path fill="none" stroke="midnightblue" d="M1729.17,-168.47C1764.76,-157.78 1813.02,-143.28 1845.38,-133.55"/>
<polygon fill="midnightblue" stroke="midnightblue" points="1846.72,-136.8 1855.29,-130.57 1844.71,-130.1 1846.72,-136.8"/>
</g>
<!-- Node41 -->
<g id="node41" class="node">
<title>Node41</title>
<g id="a_node41"><a xlink:title=" ">
<polygon fill="white" stroke="#bfbfbf" points="1672.5,-112.5 1672.5,-131.5 1788.5,-131.5 1788.5,-112.5 1672.5,-112.5"/>
<text text-anchor="middle" x="1730.5" y="-119.5" font-family="Helvetica,sans-Serif" font-size="10.00">SDL2/SDL_joystick.h</text>
</a>
</g>
</g>
<!-- Node40&#45;&gt;Node41 -->
<g id="edge73" class="edge">
<title>Node40&#45;&gt;Node41</title>
<path fill="none" stroke="midnightblue" d="M1693.88,-168.4C1700.85,-159.75 1709.81,-148.64 1717.13,-139.58"/>
<polygon fill="midnightblue" stroke="midnightblue" points="1719.96,-141.64 1723.52,-131.66 1714.51,-137.24 1719.96,-141.64"/>
</g>
</g>
</svg>
