<?xml version="1.0" encoding="UTF-8" standalone="no"?>
<!DOCTYPE svg PUBLIC "-//W3C//DTD SVG 1.1//EN"
 "http://www.w3.org/Graphics/SVG/1.1/DTD/svg11.dtd">
<!-- Generated by graphviz version 2.43.0 (0)
 -->
<!-- Title: src/input/input.h Pages: 1 -->
<!--zoomable 419 -->
<svg id="main" version="1.1" xmlns="http://www.w3.org/2000/svg" xmlns:xlink="http://www.w3.org/1999/xlink" xml:space="preserve" onload="init(evt)">
<style type="text/css"><![CDATA[
.edge:hover path { stroke: red; }
.edge:hover polygon { stroke: red; fill: red; }
]]></style>
<script type="text/javascript"><![CDATA[
var edges = document.getElementsByTagName('g');
if (edges && edges.length) {
  for (var i=0;i<edges.length;i++) {
    if (edges[i].id.substr(0,4)=='edge') {
      edges[i].setAttribute('class','edge');
    }
  }
}
]]></script>
        <defs>
                <circle id="rim" cx="0" cy="0" r="7"/>
                <circle id="rim2" cx="0" cy="0" r="3.5"/>
                <g id="zoomPlus">
                        <use xlink:href="#rim" fill="#404040">
                                <set attributeName="fill" to="#808080" begin="zoomplus.mouseover" end="zoomplus.mouseout"/>
                        </use>
                        <path d="M-4,0h8M0,-4v8" fill="none" stroke="white" stroke-width="1.5" pointer-events="none"/>
                </g>
                <g id="zoomMin">
                        <use xlink:href="#rim" fill="#404040">
                                <set attributeName="fill" to="#808080" begin="zoomminus.mouseover" end="zoomminus.mouseout"/>
                        </use>
                        <path d="M-4,0h8" fill="none" stroke="white" stroke-width="1.5" pointer-events="none"/>
                </g>
                <g id="dirArrow">
                        <path fill="none" stroke="white" stroke-width="1.5" d="M0,-3.0v7 M-2.5,-0.5L0,-3.0L2.5,-0.5"/>
                </g>
               <g id="resetDef">
                       <use xlink:href="#rim2" fill="#404040">
                               <set attributeName="fill" to="#808080" begin="reset.mouseover" end="reset.mouseout"/>
                       </use>
               </g>
        </defs>

<script type="text/javascript">
var viewWidth = 1236;
var viewHeight = 419;
var sectionId = 'dynsection-0';
</script>
<script xlink:href="svgpan.js"/>
<svg id="graph" class="graph">
<g id="viewport">
<title>src/input/input.h</title>
<polygon fill="white" stroke="transparent" points="-4,4 -4,-415 1232.42,-415 1232.42,4 -4,4"/>
<!-- Node1 -->
<g id="node1" class="node">
<title>Node1</title>
<g id="a_node1"><a xlink:title="When making games, for portability purposes, as well as our own sanity, we do not want to hardcode ph...">
<polygon fill="#bfbfbf" stroke="black" points="609.42,-391.5 609.42,-410.5 704.42,-410.5 704.42,-391.5 609.42,-391.5"/>
<text text-anchor="middle" x="656.92" y="-398.5" font-family="Helvetica,sans-Serif" font-size="10.00">src/input/input.h</text>
</a>
</g>
</g>
<!-- Node2 -->
<g id="node2" class="node">
<title>Node2</title>
<g id="a_node2"><a xlink:href="game__controls_8h.html" target="_top" xlink:title=" ">
<polygon fill="white" stroke="black" points="74.92,-201.5 74.92,-231.5 194.92,-231.5 194.92,-201.5 74.92,-201.5"/>
<text text-anchor="start" x="82.92" y="-219.5" font-family="Helvetica,sans-Serif" font-size="10.00">src/game/input/game</text>
<text text-anchor="middle" x="134.92" y="-208.5" font-family="Helvetica,sans-Serif" font-size="10.00">_controls.h</text>
</a>
</g>
</g>
<!-- Node1&#45;&gt;Node2 -->
<g id="edge1" class="edge">
<title>Node1&#45;&gt;Node2</title>
<path fill="none" stroke="midnightblue" d="M599.15,-393.92C548.99,-387.57 474.87,-375.59 412.92,-355 313.28,-321.89 204.13,-259.44 157.77,-231.56"/>
<polygon fill="midnightblue" stroke="midnightblue" points="598.81,-397.41 609.17,-395.16 599.67,-390.46 598.81,-397.41"/>
</g>
<!-- Node8 -->
<g id="node8" class="node">
<title>Node8</title>
<g id="a_node8"><a xlink:href="axis__handler_8h.html" target="_top" xlink:title=" ">
<polygon fill="white" stroke="black" points="307.92,-268.5 307.92,-287.5 439.92,-287.5 439.92,-268.5 307.92,-268.5"/>
<text text-anchor="middle" x="373.92" y="-275.5" font-family="Helvetica,sans-Serif" font-size="10.00">src/input/axis_handler.h</text>
</a>
</g>
</g>
<!-- Node1&#45;&gt;Node8 -->
<g id="edge9" class="edge">
<title>Node1&#45;&gt;Node8</title>
<path fill="none" stroke="midnightblue" d="M599.25,-394.48C558.53,-388.8 503.65,-377.45 459.92,-355 425.88,-337.53 394.52,-303.52 380.97,-287.6"/>
<polygon fill="midnightblue" stroke="midnightblue" points="598.91,-397.97 609.28,-395.81 599.83,-391.03 598.91,-397.97"/>
</g>
<!-- Node14 -->
<g id="node14" class="node">
<title>Node14</title>
<g id="a_node14"><a xlink:href="button__handler_8h.html" target="_top" xlink:title=" ">
<polygon fill="white" stroke="black" points="458.42,-268.5 458.42,-287.5 601.42,-287.5 601.42,-268.5 458.42,-268.5"/>
<text text-anchor="middle" x="529.92" y="-275.5" font-family="Helvetica,sans-Serif" font-size="10.00">src/input/button_handler.h</text>
</a>
</g>
</g>
<!-- Node1&#45;&gt;Node14 -->
<g id="edge19" class="edge">
<title>Node1&#45;&gt;Node14</title>
<path fill="none" stroke="midnightblue" d="M647.84,-381.96C638.87,-365.43 623.89,-340.99 605.92,-324 589.2,-308.2 565.98,-295.47 549.62,-287.63"/>
<polygon fill="midnightblue" stroke="midnightblue" points="644.89,-383.87 652.63,-391.11 651.09,-380.62 644.89,-383.87"/>
</g>
<!-- Node16 -->
<g id="node16" class="node">
<title>Node16</title>
<g id="a_node16"><a xlink:href="click__handler_8h.html" target="_top" xlink:title=" ">
<polygon fill="white" stroke="black" points="619.92,-268.5 619.92,-287.5 753.92,-287.5 753.92,-268.5 619.92,-268.5"/>
<text text-anchor="middle" x="686.92" y="-275.5" font-family="Helvetica,sans-Serif" font-size="10.00">src/input/click_handler.h</text>
</a>
</g>
</g>
<!-- Node1&#45;&gt;Node16 -->
<g id="edge22" class="edge">
<title>Node1&#45;&gt;Node16</title>
<path fill="none" stroke="midnightblue" d="M661.54,-381.35C668.13,-354.77 679.95,-307.08 684.78,-287.62"/>
<polygon fill="midnightblue" stroke="midnightblue" points="658.08,-380.75 659.07,-391.3 664.88,-382.43 658.08,-380.75"/>
</g>
<!-- Node18 -->
<g id="node18" class="node">
<title>Node18</title>
<g id="a_node18"><a xlink:href="input__event_8h.html" target="_top" xlink:title=" ">
<polygon fill="white" stroke="black" points="468.92,-330 468.92,-349 596.92,-349 596.92,-330 468.92,-330"/>
<text text-anchor="middle" x="532.92" y="-337" font-family="Helvetica,sans-Serif" font-size="10.00">src/input/input_event.h</text>
</a>
</g>
</g>
<!-- Node1&#45;&gt;Node18 -->
<g id="edge25" class="edge">
<title>Node1&#45;&gt;Node18</title>
<path fill="none" stroke="midnightblue" d="M629.87,-387.02C605.82,-375.48 571.35,-358.94 550.65,-349.01"/>
<polygon fill="midnightblue" stroke="midnightblue" points="628.62,-390.3 639.15,-391.48 631.65,-383.99 628.62,-390.3"/>
</g>
<!-- Node19 -->
<g id="node19" class="node">
<title>Node19</title>
<g id="a_node19"><a xlink:href="motion__handler_8h.html" target="_top" xlink:title=" ">
<polygon fill="white" stroke="black" points="771.92,-268.5 771.92,-287.5 917.92,-287.5 917.92,-268.5 771.92,-268.5"/>
<text text-anchor="middle" x="844.92" y="-275.5" font-family="Helvetica,sans-Serif" font-size="10.00">src/input/motion_handler.h</text>
</a>
</g>
</g>
<!-- Node1&#45;&gt;Node19 -->
<g id="edge39" class="edge">
<title>Node1&#45;&gt;Node19</title>
<path fill="none" stroke="midnightblue" d="M678.71,-385.97C717.94,-360.72 799.34,-308.34 831.46,-287.66"/>
<polygon fill="midnightblue" stroke="midnightblue" points="676.65,-383.14 670.14,-391.49 680.44,-389.02 676.65,-383.14"/>
</g>
<!-- Node21 -->
<g id="node21" class="node">
<title>Node21</title>
<g id="a_node21"><a xlink:href="input__helper_8h.html" target="_top" xlink:title=" ">
<polygon fill="white" stroke="black" points="936.42,-268.5 936.42,-287.5 1067.42,-287.5 1067.42,-268.5 936.42,-268.5"/>
<text text-anchor="middle" x="1001.92" y="-275.5" font-family="Helvetica,sans-Serif" font-size="10.00">src/input/input_helper.h</text>
</a>
</g>
</g>
<!-- Node1&#45;&gt;Node21 -->
<g id="edge33" class="edge">
<title>Node1&#45;&gt;Node21</title>
<path fill="none" stroke="midnightblue" d="M690.74,-388.14C760,-363.85 916.53,-308.95 977.22,-287.66"/>
<polygon fill="midnightblue" stroke="midnightblue" points="689.45,-384.88 681.18,-391.49 691.77,-391.48 689.45,-384.88"/>
</g>
<!-- Node22 -->
<g id="node22" class="node">
<title>Node22</title>
<g id="a_node22"><a xlink:href="sdl__to__controller__index_8h.html" target="_top" xlink:title=" ">
<polygon fill="white" stroke="black" points="1029.42,-324.5 1029.42,-354.5 1172.42,-354.5 1172.42,-324.5 1029.42,-324.5"/>
<text text-anchor="start" x="1037.42" y="-342.5" font-family="Helvetica,sans-Serif" font-size="10.00">src/input/sdl_to_controller</text>
<text text-anchor="middle" x="1100.92" y="-331.5" font-family="Helvetica,sans-Serif" font-size="10.00">_index.h</text>
</a>
</g>
</g>
<!-- Node1&#45;&gt;Node22 -->
<g id="edge40" class="edge">
<title>Node1&#45;&gt;Node22</title>
<path fill="none" stroke="midnightblue" d="M714.41,-392.3C795.04,-381.49 941.66,-361.84 1029.29,-350.1"/>
<polygon fill="midnightblue" stroke="midnightblue" points="713.88,-388.84 704.43,-393.63 714.81,-395.77 713.88,-388.84"/>
</g>
<!-- Node3 -->
<g id="node3" class="node">
<title>Node3</title>
<g id="a_node3"><a xlink:href="game__scene_8h.html" target="_top" xlink:title=" ">
<polygon fill="white" stroke="black" points="163.92,-67.5 163.92,-97.5 287.92,-97.5 287.92,-67.5 163.92,-67.5"/>
<text text-anchor="start" x="171.92" y="-85.5" font-family="Helvetica,sans-Serif" font-size="10.00">src/game/scene/game</text>
<text text-anchor="middle" x="225.92" y="-74.5" font-family="Helvetica,sans-Serif" font-size="10.00">_scene.h</text>
</a>
</g>
</g>
<!-- Node2&#45;&gt;Node3 -->
<g id="edge2" class="edge">
<title>Node2&#45;&gt;Node3</title>
<path fill="none" stroke="midnightblue" d="M66.23,-198.4C24.71,-184.7 -16.14,-162.98 6.92,-134 26.23,-109.73 106.03,-96.12 163.74,-89.3"/>
<polygon fill="midnightblue" stroke="midnightblue" points="65.33,-201.79 75.92,-201.46 67.44,-195.11 65.33,-201.79"/>
</g>
<!-- Node6 -->
<g id="node6" class="node">
<title>Node6</title>
<g id="a_node6"><a xlink:href="body__control__system_8h.html" target="_top" xlink:title=" ">
<polygon fill="white" stroke="black" points="15.92,-134.5 15.92,-164.5 143.92,-164.5 143.92,-134.5 15.92,-134.5"/>
<text text-anchor="start" x="23.92" y="-152.5" font-family="Helvetica,sans-Serif" font-size="10.00">src/game/system/body</text>
<text text-anchor="middle" x="79.92" y="-141.5" font-family="Helvetica,sans-Serif" font-size="10.00">_control_system.h</text>
</a>
</g>
</g>
<!-- Node2&#45;&gt;Node6 -->
<g id="edge5" class="edge">
<title>Node2&#45;&gt;Node6</title>
<path fill="none" stroke="midnightblue" d="M116.5,-193.74C108.36,-184.12 99.03,-173.09 91.83,-164.58"/>
<polygon fill="midnightblue" stroke="midnightblue" points="113.85,-196.02 122.98,-201.4 119.19,-191.5 113.85,-196.02"/>
</g>
<!-- Node7 -->
<g id="node7" class="node">
<title>Node7</title>
<g id="a_node7"><a xlink:href="head__control__system_8h.html" target="_top" xlink:title=" ">
<polygon fill="white" stroke="black" points="161.92,-134.5 161.92,-164.5 289.92,-164.5 289.92,-134.5 161.92,-134.5"/>
<text text-anchor="start" x="169.92" y="-152.5" font-family="Helvetica,sans-Serif" font-size="10.00">src/game/system/head</text>
<text text-anchor="middle" x="225.92" y="-141.5" font-family="Helvetica,sans-Serif" font-size="10.00">_control_system.h</text>
</a>
</g>
</g>
<!-- Node2&#45;&gt;Node7 -->
<g id="edge7" class="edge">
<title>Node2&#45;&gt;Node7</title>
<path fill="none" stroke="midnightblue" d="M162.98,-195.45C176.98,-185.45 193.58,-173.6 206.21,-164.58"/>
<polygon fill="midnightblue" stroke="midnightblue" points="160.76,-192.74 154.66,-201.4 164.83,-198.43 160.76,-192.74"/>
</g>
<!-- Node4 -->
<g id="node4" class="node">
<title>Node4</title>
<g id="a_node4"><a xlink:href="game__scene_8cpp.html" target="_top" xlink:title=" ">
<polygon fill="white" stroke="black" points="460.92,-0.5 460.92,-30.5 584.92,-30.5 584.92,-0.5 460.92,-0.5"/>
<text text-anchor="start" x="468.92" y="-18.5" font-family="Helvetica,sans-Serif" font-size="10.00">src/game/scene/game</text>
<text text-anchor="middle" x="522.92" y="-7.5" font-family="Helvetica,sans-Serif" font-size="10.00">_scene.cpp</text>
</a>
</g>
</g>
<!-- Node3&#45;&gt;Node4 -->
<g id="edge3" class="edge">
<title>Node3&#45;&gt;Node4</title>
<path fill="none" stroke="midnightblue" d="M298.22,-65.68C347.96,-54.79 413.34,-40.48 460.74,-30.11"/>
<polygon fill="midnightblue" stroke="midnightblue" points="297.2,-62.32 288.18,-67.87 298.69,-69.15 297.2,-62.32"/>
</g>
<!-- Node5 -->
<g id="node5" class="node">
<title>Node5</title>
<g id="a_node5"><a xlink:href="scene__manager_8cpp.html" target="_top" xlink:title=" ">
<polygon fill="white" stroke="black" points="144.92,-6 144.92,-25 306.92,-25 306.92,-6 144.92,-6"/>
<text text-anchor="middle" x="225.92" y="-13" font-family="Helvetica,sans-Serif" font-size="10.00">src/scene/scene_manager.cpp</text>
</a>
</g>
</g>
<!-- Node3&#45;&gt;Node5 -->
<g id="edge4" class="edge">
<title>Node3&#45;&gt;Node5</title>
<path fill="none" stroke="midnightblue" d="M225.92,-57.25C225.92,-46.02 225.92,-33.38 225.92,-25.19"/>
<polygon fill="midnightblue" stroke="midnightblue" points="222.42,-57.4 225.92,-67.4 229.42,-57.4 222.42,-57.4"/>
</g>
<!-- Node6&#45;&gt;Node3 -->
<g id="edge6" class="edge">
<title>Node6&#45;&gt;Node3</title>
<path fill="none" stroke="midnightblue" d="M120.87,-130.27C144.12,-119.92 172.79,-107.15 194.3,-97.58"/>
<polygon fill="midnightblue" stroke="midnightblue" points="119.31,-127.13 111.6,-134.4 122.15,-133.53 119.31,-127.13"/>
</g>
<!-- Node7&#45;&gt;Node3 -->
<g id="edge8" class="edge">
<title>Node7&#45;&gt;Node3</title>
<path fill="none" stroke="midnightblue" d="M225.92,-124.11C225.92,-115.15 225.92,-105.32 225.92,-97.58"/>
<polygon fill="midnightblue" stroke="midnightblue" points="222.42,-124.4 225.92,-134.4 229.42,-124.4 222.42,-124.4"/>
</g>
<!-- Node9 -->
<g id="node9" class="node">
<title>Node9</title>
<g id="a_node9"><a xlink:href="axis__handler_8cpp.html" target="_top" xlink:title=" ">
<polygon fill="white" stroke="black" points="466.42,-207 466.42,-226 609.42,-226 609.42,-207 466.42,-207"/>
<text text-anchor="middle" x="537.92" y="-214" font-family="Helvetica,sans-Serif" font-size="10.00">src/input/axis_handler.cpp</text>
</a>
</g>
</g>
<!-- Node8&#45;&gt;Node9 -->
<g id="edge10" class="edge">
<title>Node8&#45;&gt;Node9</title>
<path fill="none" stroke="midnightblue" d="M407.18,-264.93C439.05,-253.37 486.35,-236.21 514.46,-226.01"/>
<polygon fill="midnightblue" stroke="midnightblue" points="405.62,-261.77 397.41,-268.48 408.01,-268.35 405.62,-261.77"/>
</g>
<!-- Node10 -->
<g id="node10" class="node">
<title>Node10</title>
<g id="a_node10"><a xlink:href="input__manager_8h.html" target="_top" xlink:title=" ">
<polygon fill="white" stroke="black" points="305.42,-207 305.42,-226 448.42,-226 448.42,-207 305.42,-207"/>
<text text-anchor="middle" x="376.92" y="-214" font-family="Helvetica,sans-Serif" font-size="10.00">src/input/input_manager.h</text>
</a>
</g>
</g>
<!-- Node8&#45;&gt;Node10 -->
<g id="edge11" class="edge">
<title>Node8&#45;&gt;Node10</title>
<path fill="none" stroke="midnightblue" d="M374.86,-258.32C375.4,-247.5 376.06,-234.4 376.49,-226.01"/>
<polygon fill="midnightblue" stroke="midnightblue" points="371.35,-258.31 374.35,-268.48 378.34,-258.66 371.35,-258.31"/>
</g>
<!-- Node10&#45;&gt;Node4 -->
<g id="edge13" class="edge">
<title>Node10&#45;&gt;Node4</title>
<path fill="none" stroke="midnightblue" d="M432.84,-205.13C509.03,-190.94 636.27,-166.99 637.92,-165 677.76,-116.71 593.15,-57.32 548.35,-30.65"/>
<polygon fill="midnightblue" stroke="midnightblue" points="432.1,-201.71 422.9,-206.98 433.38,-208.59 432.1,-201.71"/>
</g>
<!-- Node10&#45;&gt;Node6 -->
<g id="edge14" class="edge">
<title>Node10&#45;&gt;Node6</title>
<path fill="none" stroke="midnightblue" d="M327.82,-204.75C277.58,-193.76 199.29,-176.63 144.15,-164.56"/>
<polygon fill="midnightblue" stroke="midnightblue" points="327.27,-208.22 337.78,-206.94 328.76,-201.38 327.27,-208.22"/>
</g>
<!-- Node10&#45;&gt;Node7 -->
<g id="edge15" class="edge">
<title>Node10&#45;&gt;Node7</title>
<path fill="none" stroke="midnightblue" d="M347.67,-202.91C322.11,-191.91 285.02,-175.94 258.5,-164.53"/>
<polygon fill="midnightblue" stroke="midnightblue" points="346.29,-206.13 356.86,-206.87 349.06,-199.7 346.29,-206.13"/>
</g>
<!-- Node11 -->
<g id="node11" class="node">
<title>Node11</title>
<g id="a_node11"><a xlink:href="application_8cpp.html" target="_top" xlink:title=" ">
<polygon fill="white" stroke="black" points="464.42,-140 464.42,-159 629.42,-159 629.42,-140 464.42,-140"/>
<text text-anchor="middle" x="546.92" y="-147" font-family="Helvetica,sans-Serif" font-size="10.00">src/application/application.cpp</text>
</a>
</g>
</g>
<!-- Node10&#45;&gt;Node11 -->
<g id="edge12" class="edge">
<title>Node10&#45;&gt;Node11</title>
<path fill="none" stroke="midnightblue" d="M408.9,-203.27C442.64,-190.37 494.93,-170.38 524.52,-159.06"/>
<polygon fill="midnightblue" stroke="midnightblue" points="407.58,-200.03 399.49,-206.87 410.08,-206.57 407.58,-200.03"/>
</g>
<!-- Node12 -->
<g id="node12" class="node">
<title>Node12</title>
<g id="a_node12"><a xlink:href="motion__test__system_8h.html" target="_top" xlink:title=" ">
<polygon fill="white" stroke="black" points="307.92,-134.5 307.92,-164.5 445.92,-164.5 445.92,-134.5 307.92,-134.5"/>
<text text-anchor="start" x="315.92" y="-152.5" font-family="Helvetica,sans-Serif" font-size="10.00">src/game/system/motion</text>
<text text-anchor="middle" x="376.92" y="-141.5" font-family="Helvetica,sans-Serif" font-size="10.00">_test_system.h</text>
</a>
</g>
</g>
<!-- Node10&#45;&gt;Node12 -->
<g id="edge16" class="edge">
<title>Node10&#45;&gt;Node12</title>
<path fill="none" stroke="midnightblue" d="M376.92,-196.41C376.92,-186.22 376.92,-173.9 376.92,-164.59"/>
<polygon fill="midnightblue" stroke="midnightblue" points="373.42,-196.73 376.92,-206.73 380.42,-196.73 373.42,-196.73"/>
</g>
<!-- Node13 -->
<g id="node13" class="node">
<title>Node13</title>
<g id="a_node13"><a xlink:href="input__manager_8cpp.html" target="_top" xlink:title=" ">
<polygon fill="white" stroke="black" points="1073.42,-140 1073.42,-159 1228.42,-159 1228.42,-140 1073.42,-140"/>
<text text-anchor="middle" x="1150.92" y="-147" font-family="Helvetica,sans-Serif" font-size="10.00">src/input/input_manager.cpp</text>
</a>
</g>
</g>
<!-- Node10&#45;&gt;Node13 -->
<g id="edge18" class="edge">
<title>Node10&#45;&gt;Node13</title>
<path fill="none" stroke="midnightblue" d="M429.02,-205.23C438.29,-203.64 447.87,-202.15 456.92,-201 679.68,-172.79 944.82,-158.92 1073.37,-153.44"/>
<polygon fill="midnightblue" stroke="midnightblue" points="428.37,-201.79 419.13,-206.98 429.59,-208.68 428.37,-201.79"/>
</g>
<!-- Node12&#45;&gt;Node3 -->
<g id="edge17" class="edge">
<title>Node12&#45;&gt;Node3</title>
<path fill="none" stroke="midnightblue" d="M334.88,-130.41C310.78,-120.03 280.96,-107.2 258.62,-97.58"/>
<polygon fill="midnightblue" stroke="midnightblue" points="333.58,-133.66 344.15,-134.4 336.35,-127.23 333.58,-133.66"/>
</g>
<!-- Node14&#45;&gt;Node10 -->
<g id="edge21" class="edge">
<title>Node14&#45;&gt;Node10</title>
<path fill="none" stroke="midnightblue" d="M498.5,-264.78C468.77,-253.22 424.91,-236.16 398.8,-226.01"/>
<polygon fill="midnightblue" stroke="midnightblue" points="497.41,-268.11 507.99,-268.48 499.94,-261.59 497.41,-268.11"/>
</g>
<!-- Node15 -->
<g id="node15" class="node">
<title>Node15</title>
<g id="a_node15"><a xlink:href="button__handler_8cpp.html" target="_top" xlink:title=" ">
<polygon fill="white" stroke="black" points="627.42,-207 627.42,-226 782.42,-226 782.42,-207 627.42,-207"/>
<text text-anchor="middle" x="704.92" y="-214" font-family="Helvetica,sans-Serif" font-size="10.00">src/input/button_handler.cpp</text>
</a>
</g>
</g>
<!-- Node14&#45;&gt;Node15 -->
<g id="edge20" class="edge">
<title>Node14&#45;&gt;Node15</title>
<path fill="none" stroke="midnightblue" d="M564.53,-265.23C598.54,-253.67 649.63,-236.3 679.89,-226.01"/>
<polygon fill="midnightblue" stroke="midnightblue" points="563.33,-261.94 554.99,-268.48 565.58,-268.57 563.33,-261.94"/>
</g>
<!-- Node16&#45;&gt;Node10 -->
<g id="edge24" class="edge">
<title>Node16&#45;&gt;Node10</title>
<path fill="none" stroke="midnightblue" d="M632.45,-266.55C572.39,-255.02 476.92,-236.69 421.25,-226.01"/>
<polygon fill="midnightblue" stroke="midnightblue" points="632.02,-270.03 642.5,-268.48 633.34,-263.15 632.02,-270.03"/>
</g>
<!-- Node17 -->
<g id="node17" class="node">
<title>Node17</title>
<g id="a_node17"><a xlink:href="click__handler_8cpp.html" target="_top" xlink:title=" ">
<polygon fill="white" stroke="black" points="800.92,-207 800.92,-226 946.92,-226 946.92,-207 800.92,-207"/>
<text text-anchor="middle" x="873.92" y="-214" font-family="Helvetica,sans-Serif" font-size="10.00">src/input/click_handler.cpp</text>
</a>
</g>
</g>
<!-- Node16&#45;&gt;Node17 -->
<g id="edge23" class="edge">
<title>Node16&#45;&gt;Node17</title>
<path fill="none" stroke="midnightblue" d="M723.43,-265.38C759.78,-253.82 814.7,-236.34 847.17,-226.01"/>
<polygon fill="midnightblue" stroke="midnightblue" points="722.18,-262.11 713.71,-268.48 724.3,-268.78 722.18,-262.11"/>
</g>
<!-- Node18&#45;&gt;Node8 -->
<g id="edge27" class="edge">
<title>Node18&#45;&gt;Node8</title>
<path fill="none" stroke="midnightblue" d="M500.67,-326.43C469.77,-314.87 423.91,-297.71 396.65,-287.51"/>
<polygon fill="midnightblue" stroke="midnightblue" points="499.54,-329.75 510.13,-329.98 502,-323.19 499.54,-329.75"/>
</g>
<!-- Node18&#45;&gt;Node12 -->
<g id="edge26" class="edge">
<title>Node18&#45;&gt;Node12</title>
<path fill="none" stroke="midnightblue" d="M458.53,-332.16C398.02,-325.33 319.4,-312.03 298.92,-288 273.82,-258.56 277.14,-234.83 295.92,-201 305.08,-184.48 322.15,-172.66 338.26,-164.63"/>
<polygon fill="midnightblue" stroke="midnightblue" points="458.52,-335.68 468.84,-333.29 459.28,-328.72 458.52,-335.68"/>
</g>
<!-- Node18&#45;&gt;Node14 -->
<g id="edge28" class="edge">
<title>Node18&#45;&gt;Node14</title>
<path fill="none" stroke="midnightblue" d="M531.97,-319.82C531.43,-309 530.77,-295.9 530.34,-287.51"/>
<polygon fill="midnightblue" stroke="midnightblue" points="528.49,-320.16 532.49,-329.98 535.48,-319.81 528.49,-320.16"/>
</g>
<!-- Node18&#45;&gt;Node16 -->
<g id="edge29" class="edge">
<title>Node18&#45;&gt;Node16</title>
<path fill="none" stroke="midnightblue" d="M564.54,-326.28C594.46,-314.72 638.61,-297.66 664.89,-287.51"/>
<polygon fill="midnightblue" stroke="midnightblue" points="563.05,-323.11 554.98,-329.98 565.57,-329.64 563.05,-323.11"/>
</g>
<!-- Node18&#45;&gt;Node19 -->
<g id="edge30" class="edge">
<title>Node18&#45;&gt;Node19</title>
<path fill="none" stroke="midnightblue" d="M587.74,-328.05C648.18,-316.52 744.27,-298.19 800.3,-287.51"/>
<polygon fill="midnightblue" stroke="midnightblue" points="586.78,-324.66 577.62,-329.98 588.1,-331.54 586.78,-324.66"/>
</g>
<!-- Node19&#45;&gt;Node10 -->
<g id="edge31" class="edge">
<title>Node19&#45;&gt;Node10</title>
<path fill="none" stroke="midnightblue" d="M761.96,-267.66C657,-255.81 486.28,-236.36 456.92,-232 445.33,-230.28 432.84,-228.15 421.26,-226.06"/>
<polygon fill="midnightblue" stroke="midnightblue" points="761.58,-271.14 771.91,-268.79 762.36,-264.19 761.58,-271.14"/>
</g>
<!-- Node20 -->
<g id="node20" class="node">
<title>Node20</title>
<g id="a_node20"><a xlink:href="motion__handler_8cpp.html" target="_top" xlink:title=" ">
<polygon fill="white" stroke="black" points="964.92,-207 964.92,-226 1122.92,-226 1122.92,-207 964.92,-207"/>
<text text-anchor="middle" x="1043.92" y="-214" font-family="Helvetica,sans-Serif" font-size="10.00">src/input/motion_handler.cpp</text>
</a>
</g>
</g>
<!-- Node19&#45;&gt;Node20 -->
<g id="edge32" class="edge">
<title>Node19&#45;&gt;Node20</title>
<path fill="none" stroke="midnightblue" d="M883.28,-265.53C921.96,-253.96 980.75,-236.38 1015.46,-226.01"/>
<polygon fill="midnightblue" stroke="midnightblue" points="882.01,-262.26 873.43,-268.48 884.01,-268.96 882.01,-262.26"/>
</g>
<!-- Node21&#45;&gt;Node9 -->
<g id="edge34" class="edge">
<title>Node21&#45;&gt;Node9</title>
<path fill="none" stroke="midnightblue" d="M925.95,-267.9C787.92,-251.78 751.47,-251.86 617.92,-232 606.33,-230.28 593.84,-228.15 582.26,-226.05"/>
<polygon fill="midnightblue" stroke="midnightblue" points="925.73,-271.39 936.07,-269.09 926.54,-264.44 925.73,-271.39"/>
</g>
<!-- Node21&#45;&gt;Node13 -->
<g id="edge37" class="edge">
<title>Node21&#45;&gt;Node13</title>
<path fill="none" stroke="midnightblue" d="M1074.39,-265.71C1095.53,-259.1 1116.94,-248.62 1131.92,-232 1150.59,-211.27 1151.94,-175.79 1151.45,-159.35"/>
<polygon fill="midnightblue" stroke="midnightblue" points="1073.36,-262.36 1064.71,-268.49 1075.29,-269.09 1073.36,-262.36"/>
</g>
<!-- Node21&#45;&gt;Node15 -->
<g id="edge35" class="edge">
<title>Node21&#45;&gt;Node15</title>
<path fill="none" stroke="midnightblue" d="M949.37,-266.47C891.81,-254.94 800.61,-236.67 747.39,-226.01"/>
<polygon fill="midnightblue" stroke="midnightblue" points="948.87,-269.94 959.36,-268.48 950.24,-263.08 948.87,-269.94"/>
</g>
<!-- Node21&#45;&gt;Node17 -->
<g id="edge36" class="edge">
<title>Node21&#45;&gt;Node17</title>
<path fill="none" stroke="midnightblue" d="M974.32,-264.17C949.49,-252.63 913.69,-235.99 892.22,-226.01"/>
<polygon fill="midnightblue" stroke="midnightblue" points="973.03,-267.43 983.58,-268.48 975.98,-261.09 973.03,-267.43"/>
</g>
<!-- Node21&#45;&gt;Node20 -->
<g id="edge38" class="edge">
<title>Node21&#45;&gt;Node20</title>
<path fill="none" stroke="midnightblue" d="M1013.91,-260.01C1021.76,-248.89 1031.68,-234.84 1037.91,-226.01"/>
<polygon fill="midnightblue" stroke="midnightblue" points="1010.84,-258.29 1007.93,-268.48 1016.56,-262.32 1010.84,-258.29"/>
</g>
<!-- Node22&#45;&gt;Node13 -->
<g id="edge41" class="edge">
<title>Node22&#45;&gt;Node13</title>
<path fill="none" stroke="midnightblue" d="M1115.83,-315.75C1128.53,-294.93 1145.8,-262.77 1152.92,-232 1158.91,-206.07 1155.02,-174.27 1152.53,-159.21"/>
<polygon fill="midnightblue" stroke="midnightblue" points="1112.71,-314.14 1110.37,-324.47 1118.64,-317.85 1112.71,-314.14"/>
</g>
</g>
</svg>
        <g id="navigator" transform="translate(0 0)" fill="#404254">
                <rect fill="#f2f5e9" fill-opacity="0.5" stroke="#606060" stroke-width=".5" x="0" y="0" width="60" height="60"/>
                <use id="zoomplus" xlink:href="#zoomPlus" x="17" y="9" onmousedown="handleZoom(evt,'in')"/>
                <use id="zoomminus" xlink:href="#zoomMin" x="42" y="9" onmousedown="handleZoom(evt,'out')"/>
                <use id="reset" xlink:href="#resetDef" x="30" y="36" onmousedown="handleReset()"/>
                <g id="arrowUp" xlink:href="#dirArrow" transform="translate(30 24)" onmousedown="handlePan(0,-1)">
                  <use xlink:href="#rim" fill="#404040">
                        <set attributeName="fill" to="#808080" begin="arrowUp.mouseover" end="arrowUp.mouseout"/>
                  </use>
                  <path fill="none" stroke="white" stroke-width="1.5" d="M0,-3.0v7 M-2.5,-0.5L0,-3.0L2.5,-0.5"/>
                </g>
                <g id="arrowRight" xlink:href="#dirArrow" transform="rotate(90) translate(36 -43)" onmousedown="handlePan(1,0)">
                  <use xlink:href="#rim" fill="#404040">
                        <set attributeName="fill" to="#808080" begin="arrowRight.mouseover" end="arrowRight.mouseout"/>
                  </use>
                  <path fill="none" stroke="white" stroke-width="1.5" d="M0,-3.0v7 M-2.5,-0.5L0,-3.0L2.5,-0.5"/>
                </g>
                <g id="arrowDown" xlink:href="#dirArrow" transform="rotate(180) translate(-30 -48)" onmousedown="handlePan(0,1)">
                  <use xlink:href="#rim" fill="#404040">
                        <set attributeName="fill" to="#808080" begin="arrowDown.mouseover" end="arrowDown.mouseout"/>
                  </use>
                  <path fill="none" stroke="white" stroke-width="1.5" d="M0,-3.0v7 M-2.5,-0.5L0,-3.0L2.5,-0.5"/>
                </g>
                <g id="arrowLeft" xlink:href="#dirArrow" transform="rotate(270) translate(-36 17)" onmousedown="handlePan(-1,0)">
                  <use xlink:href="#rim" fill="#404040">
                        <set attributeName="fill" to="#808080" begin="arrowLeft.mouseover" end="arrowLeft.mouseout"/>
                  </use>
                  <path fill="none" stroke="white" stroke-width="1.5" d="M0,-3.0v7 M-2.5,-0.5L0,-3.0L2.5,-0.5"/>
                </g>
        </g>
        <svg viewBox="0 0 15 15" width="100%" height="30px" preserveAspectRatio="xMaxYMin meet">
         <g id="arrow_out" transform="scale(0.3 0.3)">
          <a xlink:href="input_8h__dep__incl_org.svg" target="_base">
           <rect id="button" ry="5" rx="5" y="6" x="6" height="38" width="38"
                fill="#f2f5e9" fill-opacity="0.5" stroke="#606060" stroke-width="1.0"/>
           <path id="arrow"
             d="M 11.500037,31.436501 C 11.940474,20.09759 22.043105,11.32322 32.158766,21.979434 L 37.068811,17.246167 C 37.068811,17.246167 37.088388,32 37.088388,32 L 22.160133,31.978069 C 22.160133,31.978069 26.997745,27.140456 26.997745,27.140456 C 18.528582,18.264221 13.291696,25.230495 11.500037,31.436501 z"
             style="fill:#404040;"/>
          </a>
         </g>
        </svg>
</svg>
