<?xml version="1.0" encoding="UTF-8" standalone="no"?>
<!DOCTYPE svg PUBLIC "-//W3C//DTD SVG 1.1//EN"
 "http://www.w3.org/Graphics/SVG/1.1/DTD/svg11.dtd">
<!-- Generated by graphviz version 2.43.0 (0)
 -->
<!-- Title: src/input/input_manager.cpp Pages: 1 -->
<!--zoomable 330 -->
<svg id="main" version="1.1" xmlns="http://www.w3.org/2000/svg" xmlns:xlink="http://www.w3.org/1999/xlink" xml:space="preserve" onload="init(evt)">
<style type="text/css"><![CDATA[
.edge:hover path { stroke: red; }
.edge:hover polygon { stroke: red; fill: red; }
]]></style>
<script type="text/javascript"><![CDATA[
var edges = document.getElementsByTagName('g');
if (edges && edges.length) {
  for (var i=0;i<edges.length;i++) {
    if (edges[i].id.substr(0,4)=='edge') {
      edges[i].setAttribute('class','edge');
    }
  }
}
]]></script>
        <defs>
                <circle id="rim" cx="0" cy="0" r="7"/>
                <circle id="rim2" cx="0" cy="0" r="3.5"/>
                <g id="zoomPlus">
                        <use xlink:href="#rim" fill="#404040">
                                <set attributeName="fill" to="#808080" begin="zoomplus.mouseover" end="zoomplus.mouseout"/>
                        </use>
                        <path d="M-4,0h8M0,-4v8" fill="none" stroke="white" stroke-width="1.5" pointer-events="none"/>
                </g>
                <g id="zoomMin">
                        <use xlink:href="#rim" fill="#404040">
                                <set attributeName="fill" to="#808080" begin="zoomminus.mouseover" end="zoomminus.mouseout"/>
                        </use>
                        <path d="M-4,0h8" fill="none" stroke="white" stroke-width="1.5" pointer-events="none"/>
                </g>
                <g id="dirArrow">
                        <path fill="none" stroke="white" stroke-width="1.5" d="M0,-3.0v7 M-2.5,-0.5L0,-3.0L2.5,-0.5"/>
                </g>
               <g id="resetDef">
                       <use xlink:href="#rim2" fill="#404040">
                               <set attributeName="fill" to="#808080" begin="reset.mouseover" end="reset.mouseout"/>
                       </use>
               </g>
        </defs>

<script type="text/javascript">
var viewWidth = 2478;
var viewHeight = 330;
var sectionId = 'dynsection-0';
</script>
<script xlink:href="svgpan.js"/>
<svg id="graph" class="graph">
<g id="viewport">
<title>src/input/input_manager.cpp</title>
<polygon fill="white" stroke="transparent" points="-4,4 -4,-326 2473.5,-326 2473.5,4 -4,4"/>
<!-- Node1 -->
<g id="node1" class="node">
<title>Node1</title>
<g id="a_node1"><a xlink:title=" ">
<polygon fill="#bfbfbf" stroke="black" points="1493,-302.5 1493,-321.5 1648,-321.5 1648,-302.5 1493,-302.5"/>
<text text-anchor="middle" x="1570.5" y="-309.5" font-family="Helvetica,sans-Serif" font-size="10.00">src/input/input_manager.cpp</text>
</a>
</g>
</g>
<!-- Node2 -->
<g id="node2" class="node">
<title>Node2</title>
<g id="a_node2"><a xlink:href="log_8h.html" target="_top" xlink:title=" ">
<polygon fill="white" stroke="black" points="366,-241 366,-260 425,-260 425,-241 366,-241"/>
<text text-anchor="middle" x="395.5" y="-248" font-family="Helvetica,sans-Serif" font-size="10.00">log/log.h</text>
</a>
</g>
</g>
<!-- Node1&#45;&gt;Node2 -->
<g id="edge1" class="edge">
<title>Node1&#45;&gt;Node2</title>
<path fill="none" stroke="midnightblue" d="M1492.95,-307.07C1265.33,-295.55 604.48,-262.08 435.31,-253.52"/>
<polygon fill="midnightblue" stroke="midnightblue" points="435.28,-250.01 425.12,-253 434.93,-257 435.28,-250.01"/>
</g>
<!-- Node9 -->
<g id="node9" class="node">
<title>Node9</title>
<g id="a_node9"><a xlink:href="sdl__message__pump_8h.html" target="_top" xlink:title=" ">
<polygon fill="white" stroke="black" points="708,-235.5 708,-265.5 845,-265.5 845,-235.5 708,-235.5"/>
<text text-anchor="start" x="716" y="-253.5" font-family="Helvetica,sans-Serif" font-size="10.00">application/sdl_message</text>
<text text-anchor="middle" x="776.5" y="-242.5" font-family="Helvetica,sans-Serif" font-size="10.00">_pump.h</text>
</a>
</g>
</g>
<!-- Node1&#45;&gt;Node9 -->
<g id="edge8" class="edge">
<title>Node1&#45;&gt;Node9</title>
<path fill="none" stroke="midnightblue" d="M1492.92,-305.19C1341.49,-293.84 1008.02,-268.85 855.47,-257.42"/>
<polygon fill="midnightblue" stroke="midnightblue" points="855.48,-253.91 845.25,-256.65 854.96,-260.89 855.48,-253.91"/>
</g>
<!-- Node24 -->
<g id="node24" class="node">
<title>Node24</title>
<g id="a_node24"><a xlink:href="input__helper_8h.html" target="_top" xlink:title=" ">
<polygon fill="white" stroke="black" points="1819,-241 1819,-260 1932,-260 1932,-241 1819,-241"/>
<text text-anchor="middle" x="1875.5" y="-248" font-family="Helvetica,sans-Serif" font-size="10.00">input/input_helper.h</text>
</a>
</g>
</g>
<!-- Node1&#45;&gt;Node24 -->
<g id="edge23" class="edge">
<title>Node1&#45;&gt;Node24</title>
<path fill="none" stroke="midnightblue" d="M1614.2,-302.48C1669.01,-291.78 1762.94,-273.46 1822,-261.94"/>
<polygon fill="midnightblue" stroke="midnightblue" points="1822.74,-265.36 1831.88,-260.01 1821.4,-258.49 1822.74,-265.36"/>
</g>
<!-- Node28 -->
<g id="node28" class="node">
<title>Node28</title>
<g id="a_node28"><a xlink:href="input__manager_8h.html" target="_top" xlink:title=" ">
<polygon fill="white" stroke="black" points="1235.5,-241 1235.5,-260 1361.5,-260 1361.5,-241 1235.5,-241"/>
<text text-anchor="middle" x="1298.5" y="-248" font-family="Helvetica,sans-Serif" font-size="10.00">input/input_manager.h</text>
</a>
</g>
</g>
<!-- Node1&#45;&gt;Node28 -->
<g id="edge27" class="edge">
<title>Node1&#45;&gt;Node28</title>
<path fill="none" stroke="midnightblue" d="M1531.53,-302.48C1482.95,-291.85 1399.92,-273.68 1347.2,-262.15"/>
<polygon fill="midnightblue" stroke="midnightblue" points="1347.92,-258.73 1337.4,-260.01 1346.42,-265.57 1347.92,-258.73"/>
</g>
<!-- Node35 -->
<g id="node35" class="node">
<title>Node35</title>
<g id="a_node35"><a xlink:href="sdl__to__keycode_8h.html" target="_top" xlink:title=" ">
<polygon fill="white" stroke="black" points="2002.5,-241 2002.5,-260 2130.5,-260 2130.5,-241 2002.5,-241"/>
<text text-anchor="middle" x="2066.5" y="-248" font-family="Helvetica,sans-Serif" font-size="10.00">input/sdl_to_keycode.h</text>
</a>
</g>
</g>
<!-- Node1&#45;&gt;Node35 -->
<g id="edge63" class="edge">
<title>Node1&#45;&gt;Node35</title>
<path fill="none" stroke="midnightblue" d="M1641.56,-302.48C1734.74,-291.3 1897.43,-271.78 1992.19,-260.41"/>
<polygon fill="midnightblue" stroke="midnightblue" points="1992.75,-263.87 2002.27,-259.21 1991.92,-256.92 1992.75,-263.87"/>
</g>
<!-- Node39 -->
<g id="node39" class="node">
<title>Node39</title>
<g id="a_node39"><a xlink:href="sdl__to__controller__index_8h.html" target="_top" xlink:title=" ">
<polygon fill="white" stroke="black" points="1687,-168.5 1687,-198.5 1812,-198.5 1812,-168.5 1687,-168.5"/>
<text text-anchor="start" x="1695" y="-186.5" font-family="Helvetica,sans-Serif" font-size="10.00">input/sdl_to_controller</text>
<text text-anchor="middle" x="1749.5" y="-175.5" font-family="Helvetica,sans-Serif" font-size="10.00">_index.h</text>
</a>
</g>
</g>
<!-- Node1&#45;&gt;Node39 -->
<g id="edge69" class="edge">
<title>Node1&#45;&gt;Node39</title>
<path fill="none" stroke="midnightblue" d="M1582.8,-302.31C1611.08,-282.33 1681.29,-232.71 1720.98,-204.65"/>
<polygon fill="midnightblue" stroke="midnightblue" points="1723.29,-207.31 1729.43,-198.68 1719.25,-201.6 1723.29,-207.31"/>
</g>
<!-- Node3 -->
<g id="node3" class="node">
<title>Node3</title>
<g id="a_node3"><a xlink:title=" ">
<polygon fill="white" stroke="#bfbfbf" points="373,-174 373,-193 418,-193 418,-174 373,-174"/>
<text text-anchor="middle" x="395.5" y="-181" font-family="Helvetica,sans-Serif" font-size="10.00">utility</text>
</a>
</g>
</g>
<!-- Node2&#45;&gt;Node3 -->
<g id="edge2" class="edge">
<title>Node2&#45;&gt;Node3</title>
<path fill="none" stroke="midnightblue" d="M395.5,-240.73C395.5,-231.18 395.5,-215.62 395.5,-203.28"/>
<polygon fill="midnightblue" stroke="midnightblue" points="399,-203.13 395.5,-193.13 392,-203.13 399,-203.13"/>
</g>
<!-- Node4 -->
<g id="node4" class="node">
<title>Node4</title>
<g id="a_node4"><a xlink:title=" ">
<polygon fill="white" stroke="#bfbfbf" points="436.5,-174 436.5,-193 480.5,-193 480.5,-174 436.5,-174"/>
<text text-anchor="middle" x="458.5" y="-181" font-family="Helvetica,sans-Serif" font-size="10.00">string</text>
</a>
</g>
</g>
<!-- Node2&#45;&gt;Node4 -->
<g id="edge3" class="edge">
<title>Node2&#45;&gt;Node4</title>
<path fill="none" stroke="midnightblue" d="M404,-240.73C414.01,-230.4 430.84,-213.04 443.16,-200.33"/>
<polygon fill="midnightblue" stroke="midnightblue" points="445.69,-202.74 450.14,-193.13 440.67,-197.87 445.69,-202.74"/>
</g>
<!-- Node5 -->
<g id="node5" class="node">
<title>Node5</title>
<g id="a_node5"><a xlink:title=" ">
<polygon fill="white" stroke="#bfbfbf" points="499,-174 499,-193 592,-193 592,-174 499,-174"/>
<text text-anchor="middle" x="545.5" y="-181" font-family="Helvetica,sans-Serif" font-size="10.00">spdlog/spdlog.h</text>
</a>
</g>
</g>
<!-- Node2&#45;&gt;Node5 -->
<g id="edge4" class="edge">
<title>Node2&#45;&gt;Node5</title>
<path fill="none" stroke="midnightblue" d="M415.42,-240.87C441.19,-229.7 486.32,-210.15 516.05,-197.26"/>
<polygon fill="midnightblue" stroke="midnightblue" points="517.71,-200.35 525.5,-193.17 514.93,-193.93 517.71,-200.35"/>
</g>
<!-- Node6 -->
<g id="node6" class="node">
<title>Node6</title>
<g id="a_node6"><a xlink:title=" ">
<polygon fill="white" stroke="#bfbfbf" points="0,-174 0,-193 89,-193 89,-174 0,-174"/>
<text text-anchor="middle" x="44.5" y="-181" font-family="Helvetica,sans-Serif" font-size="10.00">spdlog/async.h</text>
</a>
</g>
</g>
<!-- Node2&#45;&gt;Node6 -->
<g id="edge5" class="edge">
<title>Node2&#45;&gt;Node6</title>
<path fill="none" stroke="midnightblue" d="M365.7,-245.45C311.85,-237.91 194.85,-220.51 97.5,-199 93.03,-198.01 88.37,-196.89 83.76,-195.71"/>
<polygon fill="midnightblue" stroke="midnightblue" points="84.37,-192.25 73.81,-193.08 82.58,-199.02 84.37,-192.25"/>
</g>
<!-- Node7 -->
<g id="node7" class="node">
<title>Node7</title>
<g id="a_node7"><a xlink:title=" ">
<polygon fill="white" stroke="#bfbfbf" points="107,-168.5 107,-198.5 226,-198.5 226,-168.5 107,-168.5"/>
<text text-anchor="start" x="115" y="-186.5" font-family="Helvetica,sans-Serif" font-size="10.00">spdlog/sinks/rotating</text>
<text text-anchor="middle" x="166.5" y="-175.5" font-family="Helvetica,sans-Serif" font-size="10.00">_file_sink.h</text>
</a>
</g>
</g>
<!-- Node2&#45;&gt;Node7 -->
<g id="edge6" class="edge">
<title>Node2&#45;&gt;Node7</title>
<path fill="none" stroke="midnightblue" d="M365.56,-241C330.28,-230.99 270.81,-214.11 226.03,-201.4"/>
<polygon fill="midnightblue" stroke="midnightblue" points="226.72,-197.95 216.14,-198.59 224.81,-204.69 226.72,-197.95"/>
</g>
<!-- Node8 -->
<g id="node8" class="node">
<title>Node8</title>
<g id="a_node8"><a xlink:title=" ">
<polygon fill="white" stroke="#bfbfbf" points="244,-168.5 244,-198.5 355,-198.5 355,-168.5 244,-168.5"/>
<text text-anchor="start" x="252" y="-186.5" font-family="Helvetica,sans-Serif" font-size="10.00">spdlog/sinks/stdout</text>
<text text-anchor="middle" x="299.5" y="-175.5" font-family="Helvetica,sans-Serif" font-size="10.00">_color_sinks.h</text>
</a>
</g>
</g>
<!-- Node2&#45;&gt;Node8 -->
<g id="edge7" class="edge">
<title>Node2&#45;&gt;Node8</title>
<path fill="none" stroke="midnightblue" d="M382.55,-240.73C368.83,-231.44 346.7,-216.46 328.74,-204.3"/>
<polygon fill="midnightblue" stroke="midnightblue" points="330.55,-201.3 320.31,-198.59 326.63,-207.09 330.55,-201.3"/>
</g>
<!-- Node10 -->
<g id="node10" class="node">
<title>Node10</title>
<g id="a_node10"><a xlink:title=" ">
<polygon fill="white" stroke="#bfbfbf" points="1166.5,-112.5 1166.5,-131.5 1214.5,-131.5 1214.5,-112.5 1166.5,-112.5"/>
<text text-anchor="middle" x="1190.5" y="-119.5" font-family="Helvetica,sans-Serif" font-size="10.00">mutex</text>
</a>
</g>
</g>
<!-- Node9&#45;&gt;Node10 -->
<g id="edge9" class="edge">
<title>Node9&#45;&gt;Node10</title>
<path fill="none" stroke="midnightblue" d="M762.48,-235.22C746.84,-217.57 725.89,-187.47 743.5,-168 757.35,-152.69 1054.13,-131.92 1156.3,-125.2"/>
<polygon fill="midnightblue" stroke="midnightblue" points="1156.65,-128.68 1166.4,-124.54 1156.19,-121.7 1156.65,-128.68"/>
</g>
<!-- Node11 -->
<g id="node11" class="node">
<title>Node11</title>
<g id="a_node11"><a xlink:title=" ">
<polygon fill="white" stroke="#bfbfbf" points="753,-174 753,-193 800,-193 800,-174 753,-174"/>
<text text-anchor="middle" x="776.5" y="-181" font-family="Helvetica,sans-Serif" font-size="10.00">queue</text>
</a>
</g>
</g>
<!-- Node9&#45;&gt;Node11 -->
<g id="edge10" class="edge">
<title>Node9&#45;&gt;Node11</title>
<path fill="none" stroke="midnightblue" d="M776.5,-235.4C776.5,-226.06 776.5,-213.71 776.5,-203.52"/>
<polygon fill="midnightblue" stroke="midnightblue" points="780,-203.19 776.5,-193.19 773,-203.19 780,-203.19"/>
</g>
<!-- Node12 -->
<g id="node12" class="node">
<title>Node12</title>
<g id="a_node12"><a xlink:title=" ">
<polygon fill="white" stroke="#bfbfbf" points="610.5,-174 610.5,-193 658.5,-193 658.5,-174 610.5,-174"/>
<text text-anchor="middle" x="634.5" y="-181" font-family="Helvetica,sans-Serif" font-size="10.00">thread</text>
</a>
</g>
</g>
<!-- Node9&#45;&gt;Node12 -->
<g id="edge11" class="edge">
<title>Node9&#45;&gt;Node12</title>
<path fill="none" stroke="midnightblue" d="M745.69,-235.4C720.88,-224.04 686.32,-208.22 662.34,-197.24"/>
<polygon fill="midnightblue" stroke="midnightblue" points="663.63,-193.99 653.08,-193.01 660.72,-200.35 663.63,-193.99"/>
</g>
<!-- Node13 -->
<g id="node13" class="node">
<title>Node13</title>
<g id="a_node13"><a xlink:title=" ">
<polygon fill="white" stroke="#bfbfbf" points="818.5,-174 818.5,-193 890.5,-193 890.5,-174 818.5,-174"/>
<text text-anchor="middle" x="854.5" y="-181" font-family="Helvetica,sans-Serif" font-size="10.00">SDL2/SDL.h</text>
</a>
</g>
</g>
<!-- Node9&#45;&gt;Node13 -->
<g id="edge12" class="edge">
<title>Node9&#45;&gt;Node13</title>
<path fill="none" stroke="midnightblue" d="M793.42,-235.4C806.07,-224.86 823.33,-210.48 836.27,-199.69"/>
<polygon fill="midnightblue" stroke="midnightblue" points="838.62,-202.29 844.07,-193.19 834.14,-196.91 838.62,-202.29"/>
</g>
<!-- Node14 -->
<g id="node14" class="node">
<title>Node14</title>
<g id="a_node14"><a xlink:title=" ">
<polygon fill="white" stroke="#bfbfbf" points="908.5,-174 908.5,-193 1024.5,-193 1024.5,-174 908.5,-174"/>
<text text-anchor="middle" x="966.5" y="-181" font-family="Helvetica,sans-Serif" font-size="10.00">common/singleton.h</text>
</a>
</g>
</g>
<!-- Node9&#45;&gt;Node14 -->
<g id="edge13" class="edge">
<title>Node9&#45;&gt;Node14</title>
<path fill="none" stroke="midnightblue" d="M817.73,-235.4C851.8,-223.74 899.64,-207.37 931.79,-196.38"/>
<polygon fill="midnightblue" stroke="midnightblue" points="933.3,-199.56 941.63,-193.01 931.04,-192.93 933.3,-199.56"/>
</g>
<!-- Node15 -->
<g id="node15" class="node">
<title>Node15</title>
<g id="a_node15"><a xlink:href="event__dispatcher_8h.html" target="_top" xlink:title=" ">
<polygon fill="white" stroke="black" points="856.5,-112.5 856.5,-131.5 996.5,-131.5 996.5,-112.5 856.5,-112.5"/>
<text text-anchor="middle" x="926.5" y="-119.5" font-family="Helvetica,sans-Serif" font-size="10.00">event/event_dispatcher.h</text>
</a>
</g>
</g>
<!-- Node9&#45;&gt;Node15 -->
<g id="edge14" class="edge">
<title>Node9&#45;&gt;Node15</title>
<path fill="none" stroke="midnightblue" d="M751.16,-235.35C725.25,-219.09 691.32,-191.59 710.5,-168 727.65,-146.91 792.16,-135.37 846.26,-129.28"/>
<polygon fill="midnightblue" stroke="midnightblue" points="846.66,-132.76 856.23,-128.21 845.91,-125.8 846.66,-132.76"/>
</g>
<!-- Node16 -->
<g id="node16" class="node">
<title>Node16</title>
<g id="a_node16"><a xlink:title=" ">
<polygon fill="white" stroke="#bfbfbf" points="1007.5,-56.5 1007.5,-75.5 1065.5,-75.5 1065.5,-56.5 1007.5,-56.5"/>
<text text-anchor="middle" x="1036.5" y="-63.5" font-family="Helvetica,sans-Serif" font-size="10.00">memory</text>
</a>
</g>
</g>
<!-- Node15&#45;&gt;Node16 -->
<g id="edge15" class="edge">
<title>Node15&#45;&gt;Node16</title>
<path fill="none" stroke="midnightblue" d="M944.17,-112.32C961.89,-103.62 989.4,-90.12 1009.79,-80.11"/>
<polygon fill="midnightblue" stroke="midnightblue" points="1011.44,-83.2 1018.87,-75.65 1008.35,-76.92 1011.44,-83.2"/>
</g>
<!-- Node17 -->
<g id="node17" class="node">
<title>Node17</title>
<g id="a_node17"><a xlink:title=" ">
<polygon fill="white" stroke="#bfbfbf" points="1188,-56.5 1188,-75.5 1281,-75.5 1281,-56.5 1188,-56.5"/>
<text text-anchor="middle" x="1234.5" y="-63.5" font-family="Helvetica,sans-Serif" font-size="10.00">unordered_map</text>
</a>
</g>
</g>
<!-- Node15&#45;&gt;Node17 -->
<g id="edge16" class="edge">
<title>Node15&#45;&gt;Node17</title>
<path fill="none" stroke="midnightblue" d="M975.3,-112.44C1030.35,-102.79 1119.74,-87.12 1177.83,-76.94"/>
<polygon fill="midnightblue" stroke="midnightblue" points="1178.7,-80.34 1187.94,-75.16 1177.49,-73.44 1178.7,-80.34"/>
</g>
<!-- Node18 -->
<g id="node18" class="node">
<title>Node18</title>
<g id="a_node18"><a xlink:title=" ">
<polygon fill="white" stroke="#bfbfbf" points="1083.5,-56.5 1083.5,-75.5 1169.5,-75.5 1169.5,-56.5 1083.5,-56.5"/>
<text text-anchor="middle" x="1126.5" y="-63.5" font-family="Helvetica,sans-Serif" font-size="10.00">unordered_set</text>
</a>
</g>
</g>
<!-- Node15&#45;&gt;Node18 -->
<g id="edge17" class="edge">
<title>Node15&#45;&gt;Node18</title>
<path fill="none" stroke="midnightblue" d="M958.19,-112.44C992.57,-103.16 1047.58,-88.31 1085.29,-78.13"/>
<polygon fill="midnightblue" stroke="midnightblue" points="1086.22,-81.5 1094.96,-75.52 1084.39,-74.74 1086.22,-81.5"/>
</g>
<!-- Node19 -->
<g id="node19" class="node">
<title>Node19</title>
<g id="a_node19"><a xlink:title=" ">
<polygon fill="white" stroke="#bfbfbf" points="674,-56.5 674,-75.5 721,-75.5 721,-56.5 674,-56.5"/>
<text text-anchor="middle" x="697.5" y="-63.5" font-family="Helvetica,sans-Serif" font-size="10.00">vector</text>
</a>
</g>
</g>
<!-- Node15&#45;&gt;Node19 -->
<g id="edge18" class="edge">
<title>Node15&#45;&gt;Node19</title>
<path fill="none" stroke="midnightblue" d="M886.37,-112.44C848.56,-104.25 790.13,-91.23 731.09,-76.32"/>
<polygon fill="midnightblue" stroke="midnightblue" points="731.78,-72.89 721.23,-73.82 730.06,-79.67 731.78,-72.89"/>
</g>
<!-- Node20 -->
<g id="node20" class="node">
<title>Node20</title>
<g id="a_node20"><a xlink:title=" ">
<polygon fill="white" stroke="#bfbfbf" points="739,-56.5 739,-75.5 846,-75.5 846,-56.5 739,-56.5"/>
<text text-anchor="middle" x="792.5" y="-63.5" font-family="Helvetica,sans-Serif" font-size="10.00">common/type_id.h</text>
</a>
</g>
</g>
<!-- Node15&#45;&gt;Node20 -->
<g id="edge19" class="edge">
<title>Node15&#45;&gt;Node20</title>
<path fill="none" stroke="midnightblue" d="M905.27,-112.44C883.12,-103.52 848.18,-89.44 823.06,-79.32"/>
<polygon fill="midnightblue" stroke="midnightblue" points="824.22,-76.01 813.63,-75.52 821.6,-82.5 824.22,-76.01"/>
</g>
<!-- Node21 -->
<g id="node21" class="node">
<title>Node21</title>
<g id="a_node21"><a xlink:href="event__listener_8h.html" target="_top" xlink:title=" ">
<polygon fill="white" stroke="black" points="864,-56.5 864,-75.5 989,-75.5 989,-56.5 864,-56.5"/>
<text text-anchor="middle" x="926.5" y="-63.5" font-family="Helvetica,sans-Serif" font-size="10.00">event/event_listener.h</text>
</a>
</g>
</g>
<!-- Node15&#45;&gt;Node21 -->
<g id="edge20" class="edge">
<title>Node15&#45;&gt;Node21</title>
<path fill="none" stroke="midnightblue" d="M926.5,-112.08C926.5,-105.01 926.5,-94.86 926.5,-85.99"/>
<polygon fill="midnightblue" stroke="midnightblue" points="930,-85.75 926.5,-75.75 923,-85.75 930,-85.75"/>
</g>
<!-- Node22 -->
<g id="node22" class="node">
<title>Node22</title>
<g id="a_node22"><a xlink:title=" ">
<polygon fill="white" stroke="#bfbfbf" points="894,-0.5 894,-19.5 959,-19.5 959,-0.5 894,-0.5"/>
<text text-anchor="middle" x="926.5" y="-7.5" font-family="Helvetica,sans-Serif" font-size="10.00">functional</text>
</a>
</g>
</g>
<!-- Node21&#45;&gt;Node22 -->
<g id="edge21" class="edge">
<title>Node21&#45;&gt;Node22</title>
<path fill="none" stroke="midnightblue" d="M926.5,-56.08C926.5,-49.01 926.5,-38.86 926.5,-29.99"/>
<polygon fill="midnightblue" stroke="midnightblue" points="930,-29.75 926.5,-19.75 923,-29.75 930,-29.75"/>
</g>
<!-- Node23 -->
<g id="node23" class="node">
<title>Node23</title>
<g id="a_node23"><a xlink:href="event_8h.html" target="_top" xlink:title=" ">
<polygon fill="white" stroke="black" points="1136.5,-0.5 1136.5,-19.5 1220.5,-19.5 1220.5,-0.5 1136.5,-0.5"/>
<text text-anchor="middle" x="1178.5" y="-7.5" font-family="Helvetica,sans-Serif" font-size="10.00">event/event.h</text>
</a>
</g>
</g>
<!-- Node21&#45;&gt;Node23 -->
<g id="edge22" class="edge">
<title>Node21&#45;&gt;Node23</title>
<path fill="none" stroke="midnightblue" d="M966.43,-56.44C1010.39,-47.02 1081.13,-31.87 1128.68,-21.68"/>
<polygon fill="midnightblue" stroke="midnightblue" points="1129.71,-25.03 1138.76,-19.52 1128.25,-18.19 1129.71,-25.03"/>
</g>
<!-- Node25 -->
<g id="node25" class="node">
<title>Node25</title>
<g id="a_node25"><a xlink:href="input_8h.html" target="_top" xlink:title="When making games, for portability purposes, as well as our own sanity, we do not want to hardcode ph...">
<polygon fill="white" stroke="black" points="1561.5,-56.5 1561.5,-75.5 1639.5,-75.5 1639.5,-56.5 1561.5,-56.5"/>
<text text-anchor="middle" x="1600.5" y="-63.5" font-family="Helvetica,sans-Serif" font-size="10.00">input/input.h</text>
</a>
</g>
</g>
<!-- Node24&#45;&gt;Node25 -->
<g id="edge24" class="edge">
<title>Node24&#45;&gt;Node25</title>
<path fill="none" stroke="midnightblue" d="M1878.26,-240.72C1885.23,-216.66 1900.7,-149.03 1867.5,-112 1839.29,-80.54 1719.04,-71.07 1649.92,-68.23"/>
<polygon fill="midnightblue" stroke="midnightblue" points="1649.82,-64.72 1639.7,-67.84 1649.56,-71.71 1649.82,-64.72"/>
</g>
<!-- Node26 -->
<g id="node26" class="node">
<title>Node26</title>
<g id="a_node26"><a xlink:href="keycode_8h.html" target="_top" xlink:title=" ">
<polygon fill="white" stroke="black" points="1903.5,-174 1903.5,-193 1997.5,-193 1997.5,-174 1903.5,-174"/>
<text text-anchor="middle" x="1950.5" y="-181" font-family="Helvetica,sans-Serif" font-size="10.00">input/keycode.h</text>
</a>
</g>
</g>
<!-- Node24&#45;&gt;Node26 -->
<g id="edge25" class="edge">
<title>Node24&#45;&gt;Node26</title>
<path fill="none" stroke="midnightblue" d="M1885.61,-240.73C1897.65,-230.31 1917.95,-212.71 1932.65,-199.97"/>
<polygon fill="midnightblue" stroke="midnightblue" points="1935.28,-202.32 1940.55,-193.13 1930.7,-197.03 1935.28,-202.32"/>
</g>
<!-- Node27 -->
<g id="node27" class="node">
<title>Node27</title>
<g id="a_node27"><a xlink:title=" ">
<polygon fill="white" stroke="#bfbfbf" points="1925.5,-112.5 1925.5,-131.5 1975.5,-131.5 1975.5,-112.5 1925.5,-112.5"/>
<text text-anchor="middle" x="1950.5" y="-119.5" font-family="Helvetica,sans-Serif" font-size="10.00">cstdint</text>
</a>
</g>
</g>
<!-- Node26&#45;&gt;Node27 -->
<g id="edge26" class="edge">
<title>Node26&#45;&gt;Node27</title>
<path fill="none" stroke="midnightblue" d="M1950.5,-173.98C1950.5,-165.58 1950.5,-152.48 1950.5,-141.66"/>
<polygon fill="midnightblue" stroke="midnightblue" points="1954,-141.51 1950.5,-131.51 1947,-141.51 1954,-141.51"/>
</g>
<!-- Node28&#45;&gt;Node13 -->
<g id="edge28" class="edge">
<title>Node28&#45;&gt;Node13</title>
<path fill="none" stroke="midnightblue" d="M1235.34,-245.15C1156.14,-238.86 1016.56,-225.03 899.5,-199 895.64,-198.14 891.65,-197.1 887.7,-195.96"/>
<polygon fill="midnightblue" stroke="midnightblue" points="888.68,-192.6 878.09,-193.01 886.63,-199.29 888.68,-192.6"/>
</g>
<!-- Node28&#45;&gt;Node14 -->
<g id="edge29" class="edge">
<title>Node28&#45;&gt;Node14</title>
<path fill="none" stroke="midnightblue" d="M1252.18,-240.95C1199.42,-231.13 1110.65,-214.4 1034.5,-199 1028.59,-197.8 1022.39,-196.52 1016.25,-195.24"/>
<polygon fill="midnightblue" stroke="midnightblue" points="1016.53,-191.72 1006.02,-193.08 1015.08,-198.57 1016.53,-191.72"/>
</g>
<!-- Node28&#45;&gt;Node26 -->
<g id="edge30" class="edge">
<title>Node28&#45;&gt;Node26</title>
<path fill="none" stroke="midnightblue" d="M1361.73,-243.72C1460.09,-234.65 1655.7,-216.32 1821.5,-199 1845.02,-196.54 1870.93,-193.66 1893.32,-191.12"/>
<polygon fill="midnightblue" stroke="midnightblue" points="1893.8,-194.59 1903.34,-189.98 1893.01,-187.63 1893.8,-194.59"/>
</g>
<!-- Node29 -->
<g id="node29" class="node">
<title>Node29</title>
<g id="a_node29"><a xlink:href="button__handler_8h.html" target="_top" xlink:title=" ">
<polygon fill="white" stroke="black" points="1176.5,-174 1176.5,-193 1302.5,-193 1302.5,-174 1176.5,-174"/>
<text text-anchor="middle" x="1239.5" y="-181" font-family="Helvetica,sans-Serif" font-size="10.00">input/button_handler.h</text>
</a>
</g>
</g>
<!-- Node28&#45;&gt;Node29 -->
<g id="edge31" class="edge">
<title>Node28&#45;&gt;Node29</title>
<path fill="none" stroke="midnightblue" d="M1290.54,-240.73C1281.25,-230.5 1265.7,-213.36 1254.2,-200.69"/>
<polygon fill="midnightblue" stroke="midnightblue" points="1256.64,-198.18 1247.33,-193.13 1251.46,-202.88 1256.64,-198.18"/>
</g>
<!-- Node32 -->
<g id="node32" class="node">
<title>Node32</title>
<g id="a_node32"><a xlink:href="axis__handler_8h.html" target="_top" xlink:title=" ">
<polygon fill="white" stroke="black" points="1043,-174 1043,-193 1158,-193 1158,-174 1043,-174"/>
<text text-anchor="middle" x="1100.5" y="-181" font-family="Helvetica,sans-Serif" font-size="10.00">input/axis_handler.h</text>
</a>
</g>
</g>
<!-- Node28&#45;&gt;Node32 -->
<g id="edge41" class="edge">
<title>Node28&#45;&gt;Node32</title>
<path fill="none" stroke="midnightblue" d="M1272.21,-240.87C1237.27,-229.4 1175.42,-209.09 1136.26,-196.24"/>
<polygon fill="midnightblue" stroke="midnightblue" points="1137.18,-192.86 1126.59,-193.06 1135,-199.51 1137.18,-192.86"/>
</g>
<!-- Node33 -->
<g id="node33" class="node">
<title>Node33</title>
<g id="a_node33"><a xlink:href="click__handler_8h.html" target="_top" xlink:title=" ">
<polygon fill="white" stroke="black" points="1468,-174 1468,-193 1585,-193 1585,-174 1468,-174"/>
<text text-anchor="middle" x="1526.5" y="-181" font-family="Helvetica,sans-Serif" font-size="10.00">input/click_handler.h</text>
</a>
</g>
</g>
<!-- Node28&#45;&gt;Node33 -->
<g id="edge48" class="edge">
<title>Node28&#45;&gt;Node33</title>
<path fill="none" stroke="midnightblue" d="M1328.78,-240.87C1369.43,-229.28 1441.75,-208.66 1486.75,-195.83"/>
<polygon fill="midnightblue" stroke="midnightblue" points="1487.8,-199.17 1496.46,-193.06 1485.88,-192.44 1487.8,-199.17"/>
</g>
<!-- Node34 -->
<g id="node34" class="node">
<title>Node34</title>
<g id="a_node34"><a xlink:href="motion__handler_8h.html" target="_top" xlink:title=" ">
<polygon fill="white" stroke="black" points="1321,-174 1321,-193 1450,-193 1450,-174 1321,-174"/>
<text text-anchor="middle" x="1385.5" y="-181" font-family="Helvetica,sans-Serif" font-size="10.00">input/motion_handler.h</text>
</a>
</g>
</g>
<!-- Node28&#45;&gt;Node34 -->
<g id="edge56" class="edge">
<title>Node28&#45;&gt;Node34</title>
<path fill="none" stroke="midnightblue" d="M1310.23,-240.73C1324.45,-230.11 1348.63,-212.05 1365.74,-199.26"/>
<polygon fill="midnightblue" stroke="midnightblue" points="1368.04,-201.92 1373.95,-193.13 1363.85,-196.31 1368.04,-201.92"/>
</g>
<!-- Node29&#45;&gt;Node10 -->
<g id="edge34" class="edge">
<title>Node29&#45;&gt;Node10</title>
<path fill="none" stroke="midnightblue" d="M1232.48,-173.98C1225.06,-164.96 1213.17,-150.52 1203.93,-139.31"/>
<polygon fill="midnightblue" stroke="midnightblue" points="1206.57,-137 1197.51,-131.51 1201.16,-141.45 1206.57,-137"/>
</g>
<!-- Node29&#45;&gt;Node15 -->
<g id="edge35" class="edge">
<title>Node29&#45;&gt;Node15</title>
<path fill="none" stroke="midnightblue" d="M1197.64,-173.97C1187.76,-171.98 1177.26,-169.89 1167.5,-168 1104.5,-155.78 1032.11,-142.34 983.25,-133.36"/>
<polygon fill="midnightblue" stroke="midnightblue" points="983.66,-129.88 973.19,-131.52 982.39,-136.76 983.66,-129.88"/>
</g>
<!-- Node29&#45;&gt;Node17 -->
<g id="edge32" class="edge">
<title>Node29&#45;&gt;Node17</title>
<path fill="none" stroke="midnightblue" d="M1212.49,-173.87C1193.38,-166.18 1169.16,-152.87 1157.5,-132 1144.74,-109.15 1173.2,-90.8 1199.05,-79.5"/>
<polygon fill="midnightblue" stroke="midnightblue" points="1200.46,-82.71 1208.38,-75.67 1197.8,-76.24 1200.46,-82.71"/>
</g>
<!-- Node29&#45;&gt;Node18 -->
<g id="edge33" class="edge">
<title>Node29&#45;&gt;Node18</title>
<path fill="none" stroke="midnightblue" d="M1214.08,-173.95C1193.99,-165.99 1166.58,-152.28 1149.5,-132 1138.31,-118.7 1132.41,-99.58 1129.41,-85.52"/>
<polygon fill="midnightblue" stroke="midnightblue" points="1132.82,-84.74 1127.57,-75.53 1125.94,-86 1132.82,-84.74"/>
</g>
<!-- Node29&#45;&gt;Node25 -->
<g id="edge36" class="edge">
<title>Node29&#45;&gt;Node25</title>
<path fill="none" stroke="midnightblue" d="M1281.94,-173.98C1291.96,-172 1302.6,-169.91 1312.5,-168 1398.18,-151.5 1424.87,-165.35 1505.5,-132 1535.18,-119.72 1565.03,-97.25 1583.14,-82.21"/>
<polygon fill="midnightblue" stroke="midnightblue" points="1585.68,-84.65 1591.04,-75.51 1581.15,-79.31 1585.68,-84.65"/>
</g>
<!-- Node30 -->
<g id="node30" class="node">
<title>Node30</title>
<g id="a_node30"><a xlink:href="input__event_8h.html" target="_top" xlink:title=" ">
<polygon fill="white" stroke="black" points="1385,-112.5 1385,-131.5 1496,-131.5 1496,-112.5 1385,-112.5"/>
<text text-anchor="middle" x="1440.5" y="-119.5" font-family="Helvetica,sans-Serif" font-size="10.00">input/input_event.h</text>
</a>
</g>
</g>
<!-- Node29&#45;&gt;Node30 -->
<g id="edge37" class="edge">
<title>Node29&#45;&gt;Node30</title>
<path fill="none" stroke="midnightblue" d="M1268.3,-173.98C1303.37,-163.59 1362.76,-146.01 1401.81,-134.45"/>
<polygon fill="midnightblue" stroke="midnightblue" points="1403.16,-137.7 1411.76,-131.51 1401.17,-130.99 1403.16,-137.7"/>
</g>
<!-- Node30&#45;&gt;Node23 -->
<g id="edge39" class="edge">
<title>Node30&#45;&gt;Node23</title>
<path fill="none" stroke="midnightblue" d="M1421.15,-112.42C1392.65,-99.82 1337.64,-75.68 1290.5,-56 1263.38,-44.68 1232.36,-32.26 1209.85,-23.34"/>
<polygon fill="midnightblue" stroke="midnightblue" points="1211.05,-20.04 1200.46,-19.62 1208.47,-26.55 1211.05,-20.04"/>
</g>
<!-- Node30&#45;&gt;Node25 -->
<g id="edge40" class="edge">
<title>Node30&#45;&gt;Node25</title>
<path fill="none" stroke="midnightblue" d="M1465.85,-112.44C1492.77,-103.36 1535.5,-88.94 1565.59,-78.78"/>
<polygon fill="midnightblue" stroke="midnightblue" points="1566.91,-82.03 1575.27,-75.52 1564.67,-75.4 1566.91,-82.03"/>
</g>
<!-- Node31 -->
<g id="node31" class="node">
<title>Node31</title>
<g id="a_node31"><a xlink:title=" ">
<polygon fill="white" stroke="#bfbfbf" points="1420.5,-56.5 1420.5,-75.5 1516.5,-75.5 1516.5,-56.5 1420.5,-56.5"/>
<text text-anchor="middle" x="1468.5" y="-63.5" font-family="Helvetica,sans-Serif" font-size="10.00">maths/vector2.h</text>
</a>
</g>
</g>
<!-- Node30&#45;&gt;Node31 -->
<g id="edge38" class="edge">
<title>Node30&#45;&gt;Node31</title>
<path fill="none" stroke="midnightblue" d="M1445.12,-112.08C1448.96,-104.69 1454.52,-93.95 1459.26,-84.81"/>
<polygon fill="midnightblue" stroke="midnightblue" points="1462.47,-86.24 1463.96,-75.75 1456.25,-83.02 1462.47,-86.24"/>
</g>
<!-- Node32&#45;&gt;Node10 -->
<g id="edge44" class="edge">
<title>Node32&#45;&gt;Node10</title>
<path fill="none" stroke="midnightblue" d="M1113.39,-173.98C1127.96,-164.34 1151.9,-148.52 1169.25,-137.05"/>
<polygon fill="midnightblue" stroke="midnightblue" points="1171.22,-139.94 1177.63,-131.51 1167.36,-134.1 1171.22,-139.94"/>
</g>
<!-- Node32&#45;&gt;Node15 -->
<g id="edge45" class="edge">
<title>Node32&#45;&gt;Node15</title>
<path fill="none" stroke="midnightblue" d="M1075.57,-173.98C1045.46,-163.68 994.67,-146.31 960.86,-134.75"/>
<polygon fill="midnightblue" stroke="midnightblue" points="961.98,-131.43 951.38,-131.51 959.71,-138.06 961.98,-131.43"/>
</g>
<!-- Node32&#45;&gt;Node17 -->
<g id="edge42" class="edge">
<title>Node32&#45;&gt;Node17</title>
<path fill="none" stroke="midnightblue" d="M1104.83,-173.69C1112.29,-159.27 1128.75,-130.39 1149.5,-112 1164.96,-98.3 1185.33,-87.33 1202.25,-79.65"/>
<polygon fill="midnightblue" stroke="midnightblue" points="1203.98,-82.72 1211.75,-75.52 1201.19,-76.3 1203.98,-82.72"/>
</g>
<!-- Node32&#45;&gt;Node18 -->
<g id="edge43" class="edge">
<title>Node32&#45;&gt;Node18</title>
<path fill="none" stroke="midnightblue" d="M1085.85,-173.82C1066.08,-160.93 1034.81,-135.71 1048.5,-112 1057.18,-96.98 1072.99,-86.52 1088.12,-79.5"/>
<polygon fill="midnightblue" stroke="midnightblue" points="1089.55,-82.69 1097.38,-75.56 1086.81,-76.25 1089.55,-82.69"/>
</g>
<!-- Node32&#45;&gt;Node25 -->
<g id="edge46" class="edge">
<title>Node32&#45;&gt;Node25</title>
<path fill="none" stroke="midnightblue" d="M1131.83,-173.93C1182.88,-160.1 1287.3,-132.34 1376.5,-112 1436.36,-98.35 1505.73,-84.76 1551.22,-76.14"/>
<polygon fill="midnightblue" stroke="midnightblue" points="1551.94,-79.56 1561.12,-74.27 1550.64,-72.69 1551.94,-79.56"/>
</g>
<!-- Node32&#45;&gt;Node30 -->
<g id="edge47" class="edge">
<title>Node32&#45;&gt;Node30</title>
<path fill="none" stroke="midnightblue" d="M1138.35,-173.97C1147.85,-171.92 1158.03,-169.8 1167.5,-168 1238.13,-154.54 1319.5,-141.44 1374.9,-132.88"/>
<polygon fill="midnightblue" stroke="midnightblue" points="1375.58,-136.31 1384.93,-131.33 1374.52,-129.39 1375.58,-136.31"/>
</g>
<!-- Node33&#45;&gt;Node10 -->
<g id="edge51" class="edge">
<title>Node33&#45;&gt;Node10</title>
<path fill="none" stroke="midnightblue" d="M1488.65,-173.98C1479.15,-171.93 1468.97,-169.82 1459.5,-168 1375.49,-151.89 1276.09,-136.11 1224.86,-128.21"/>
<polygon fill="midnightblue" stroke="midnightblue" points="1225.1,-124.71 1214.68,-126.65 1224.03,-131.63 1225.1,-124.71"/>
</g>
<!-- Node33&#45;&gt;Node15 -->
<g id="edge53" class="edge">
<title>Node33&#45;&gt;Node15</title>
<path fill="none" stroke="midnightblue" d="M1491.19,-173.97C1481.01,-171.75 1469.86,-169.55 1459.5,-168 1299.96,-144.1 1111.51,-131.92 1006.85,-126.55"/>
<polygon fill="midnightblue" stroke="midnightblue" points="1006.84,-123.05 996.68,-126.04 1006.49,-130.04 1006.84,-123.05"/>
</g>
<!-- Node33&#45;&gt;Node17 -->
<g id="edge49" class="edge">
<title>Node33&#45;&gt;Node17</title>
<path fill="none" stroke="midnightblue" d="M1526.65,-173.58C1526.39,-158.46 1523.5,-127.88 1505.5,-112 1474.54,-84.69 1361.53,-73.74 1291.6,-69.51"/>
<polygon fill="midnightblue" stroke="midnightblue" points="1291.37,-65.99 1281.18,-68.91 1290.97,-72.98 1291.37,-65.99"/>
</g>
<!-- Node33&#45;&gt;Node18 -->
<g id="edge50" class="edge">
<title>Node33&#45;&gt;Node18</title>
<path fill="none" stroke="midnightblue" d="M1496.76,-173.91C1425.66,-153.38 1245.81,-101.45 1165.86,-78.36"/>
<polygon fill="midnightblue" stroke="midnightblue" points="1166.74,-74.98 1156.16,-75.56 1164.8,-81.7 1166.74,-74.98"/>
</g>
<!-- Node33&#45;&gt;Node25 -->
<g id="edge54" class="edge">
<title>Node33&#45;&gt;Node25</title>
<path fill="none" stroke="midnightblue" d="M1532.06,-173.82C1544.22,-154.84 1573.37,-109.35 1589.42,-84.29"/>
<polygon fill="midnightblue" stroke="midnightblue" points="1592.43,-86.09 1594.87,-75.78 1586.53,-82.31 1592.43,-86.09"/>
</g>
<!-- Node33&#45;&gt;Node30 -->
<g id="edge55" class="edge">
<title>Node33&#45;&gt;Node30</title>
<path fill="none" stroke="midnightblue" d="M1514.18,-173.98C1500.38,-164.43 1477.8,-148.81 1461.27,-137.37"/>
<polygon fill="midnightblue" stroke="midnightblue" points="1463.01,-134.32 1452.8,-131.51 1459.03,-140.08 1463.01,-134.32"/>
</g>
<!-- Node33&#45;&gt;Node31 -->
<g id="edge52" class="edge">
<title>Node33&#45;&gt;Node31</title>
<path fill="none" stroke="midnightblue" d="M1531.41,-173.67C1538.46,-159.7 1549.45,-132.05 1538.5,-112 1530.68,-97.68 1516.14,-87.24 1502.32,-80.04"/>
<polygon fill="midnightblue" stroke="midnightblue" points="1503.5,-76.72 1492.97,-75.56 1500.48,-83.03 1503.5,-76.72"/>
</g>
<!-- Node34&#45;&gt;Node10 -->
<g id="edge59" class="edge">
<title>Node34&#45;&gt;Node10</title>
<path fill="none" stroke="midnightblue" d="M1357.56,-173.98C1322.52,-163.28 1262.47,-144.96 1224.72,-133.44"/>
<polygon fill="midnightblue" stroke="midnightblue" points="1225.28,-129.95 1214.7,-130.38 1223.24,-136.65 1225.28,-129.95"/>
</g>
<!-- Node34&#45;&gt;Node15 -->
<g id="edge60" class="edge">
<title>Node34&#45;&gt;Node15</title>
<path fill="none" stroke="midnightblue" d="M1344.89,-173.96C1334.07,-171.84 1322.37,-169.7 1311.5,-168 1206.67,-151.63 1084.92,-138.35 1006.87,-130.57"/>
<polygon fill="midnightblue" stroke="midnightblue" points="1006.92,-127.06 996.62,-129.56 1006.23,-134.02 1006.92,-127.06"/>
</g>
<!-- Node34&#45;&gt;Node17 -->
<g id="edge57" class="edge">
<title>Node34&#45;&gt;Node17</title>
<path fill="none" stroke="midnightblue" d="M1374.15,-173.82C1348.57,-154.25 1286.16,-106.52 1254.15,-82.03"/>
<polygon fill="midnightblue" stroke="midnightblue" points="1256.05,-79.08 1245.98,-75.78 1251.8,-84.64 1256.05,-79.08"/>
</g>
<!-- Node34&#45;&gt;Node18 -->
<g id="edge58" class="edge">
<title>Node34&#45;&gt;Node18</title>
<path fill="none" stroke="midnightblue" d="M1366.03,-173.82C1320.74,-153.62 1208.1,-103.39 1155.03,-79.72"/>
<polygon fill="midnightblue" stroke="midnightblue" points="1156.4,-76.5 1145.84,-75.62 1153.55,-82.89 1156.4,-76.5"/>
</g>
<!-- Node34&#45;&gt;Node25 -->
<g id="edge61" class="edge">
<title>Node34&#45;&gt;Node25</title>
<path fill="none" stroke="midnightblue" d="M1425.63,-173.96C1478.26,-162.44 1565.27,-142.21 1576.5,-132 1589.69,-120.01 1595.65,-100.11 1598.34,-85.49"/>
<polygon fill="midnightblue" stroke="midnightblue" points="1601.8,-85.95 1599.81,-75.55 1594.88,-84.92 1601.8,-85.95"/>
</g>
<!-- Node34&#45;&gt;Node30 -->
<g id="edge62" class="edge">
<title>Node34&#45;&gt;Node30</title>
<path fill="none" stroke="midnightblue" d="M1393.38,-173.98C1401.79,-164.87 1415.32,-150.24 1425.73,-138.98"/>
<polygon fill="midnightblue" stroke="midnightblue" points="1428.42,-141.23 1432.63,-131.51 1423.28,-136.48 1428.42,-141.23"/>
</g>
<!-- Node35&#45;&gt;Node26 -->
<g id="edge68" class="edge">
<title>Node35&#45;&gt;Node26</title>
<path fill="none" stroke="midnightblue" d="M2050.86,-240.73C2031.29,-229.77 1997.58,-210.88 1974.68,-198.05"/>
<polygon fill="midnightblue" stroke="midnightblue" points="1976.33,-194.96 1965.9,-193.13 1972.91,-201.07 1976.33,-194.96"/>
</g>
<!-- Node35&#45;&gt;Node27 -->
<g id="edge64" class="edge">
<title>Node35&#45;&gt;Node27</title>
<path fill="none" stroke="midnightblue" d="M2061.2,-240.85C2051.46,-225.32 2029.6,-192.1 2006.5,-168 1995.88,-156.92 1982.52,-146.09 1971.52,-137.83"/>
<polygon fill="midnightblue" stroke="midnightblue" points="1973.43,-134.89 1963.3,-131.81 1969.29,-140.54 1973.43,-134.89"/>
</g>
<!-- Node36 -->
<g id="node36" class="node">
<title>Node36</title>
<g id="a_node36"><a xlink:title=" ">
<polygon fill="white" stroke="#bfbfbf" points="2351.5,-174 2351.5,-193 2469.5,-193 2469.5,-174 2351.5,-174"/>
<text text-anchor="middle" x="2410.5" y="-181" font-family="Helvetica,sans-Serif" font-size="10.00">SDL2/SDL_keycode.h</text>
</a>
</g>
</g>
<!-- Node35&#45;&gt;Node36 -->
<g id="edge65" class="edge">
<title>Node35&#45;&gt;Node36</title>
<path fill="none" stroke="midnightblue" d="M2115.44,-240.99C2170.68,-231.28 2263.18,-214.71 2342.5,-199 2348.64,-197.78 2355.08,-196.47 2361.45,-195.14"/>
<polygon fill="midnightblue" stroke="midnightblue" points="2362.28,-198.54 2371.35,-193.05 2360.84,-191.69 2362.28,-198.54"/>
</g>
<!-- Node37 -->
<g id="node37" class="node">
<title>Node37</title>
<g id="a_node37"><a xlink:title=" ">
<polygon fill="white" stroke="#bfbfbf" points="2053.5,-174 2053.5,-193 2163.5,-193 2163.5,-174 2053.5,-174"/>
<text text-anchor="middle" x="2108.5" y="-181" font-family="Helvetica,sans-Serif" font-size="10.00">SDL2/SDL_mouse.h</text>
</a>
</g>
</g>
<!-- Node35&#45;&gt;Node37 -->
<g id="edge66" class="edge">
<title>Node35&#45;&gt;Node37</title>
<path fill="none" stroke="midnightblue" d="M2072.16,-240.73C2078.59,-230.79 2089.22,-214.34 2097.33,-201.79"/>
<polygon fill="midnightblue" stroke="midnightblue" points="2100.44,-203.43 2102.93,-193.13 2094.56,-199.63 2100.44,-203.43"/>
</g>
<!-- Node38 -->
<g id="node38" class="node">
<title>Node38</title>
<g id="a_node38"><a xlink:title=" ">
<polygon fill="white" stroke="#bfbfbf" points="2182,-174 2182,-193 2333,-193 2333,-174 2182,-174"/>
<text text-anchor="middle" x="2257.5" y="-181" font-family="Helvetica,sans-Serif" font-size="10.00">SDL2/SDL_gamecontroller.h</text>
</a>
</g>
</g>
<!-- Node35&#45;&gt;Node38 -->
<g id="edge67" class="edge">
<title>Node35&#45;&gt;Node38</title>
<path fill="none" stroke="midnightblue" d="M2091.86,-240.87C2125.49,-229.42 2184.98,-209.18 2222.76,-196.32"/>
<polygon fill="midnightblue" stroke="midnightblue" points="2224,-199.6 2232.34,-193.06 2221.74,-192.97 2224,-199.6"/>
</g>
<!-- Node39&#45;&gt;Node25 -->
<g id="edge72" class="edge">
<title>Node39&#45;&gt;Node25</title>
<path fill="none" stroke="midnightblue" d="M1731.23,-168.34C1702.92,-146.39 1648.71,-104.37 1619.79,-81.95"/>
<polygon fill="midnightblue" stroke="midnightblue" points="1621.73,-79.03 1611.68,-75.67 1617.44,-84.56 1621.73,-79.03"/>
</g>
<!-- Node39&#45;&gt;Node27 -->
<g id="edge70" class="edge">
<title>Node39&#45;&gt;Node27</title>
<path fill="none" stroke="midnightblue" d="M1796.88,-168.47C1833.38,-157.67 1882.99,-142.98 1915.84,-133.26"/>
<polygon fill="midnightblue" stroke="midnightblue" points="1916.87,-136.6 1925.47,-130.41 1914.89,-129.89 1916.87,-136.6"/>
</g>
<!-- Node40 -->
<g id="node40" class="node">
<title>Node40</title>
<g id="a_node40"><a xlink:title=" ">
<polygon fill="white" stroke="#bfbfbf" points="1742.5,-112.5 1742.5,-131.5 1858.5,-131.5 1858.5,-112.5 1742.5,-112.5"/>
<text text-anchor="middle" x="1800.5" y="-119.5" font-family="Helvetica,sans-Serif" font-size="10.00">SDL2/SDL_joystick.h</text>
</a>
</g>
</g>
<!-- Node39&#45;&gt;Node40 -->
<g id="edge71" class="edge">
<title>Node39&#45;&gt;Node40</title>
<path fill="none" stroke="midnightblue" d="M1761.59,-168.4C1769.07,-159.66 1778.72,-148.41 1786.53,-139.3"/>
<polygon fill="midnightblue" stroke="midnightblue" points="1789.23,-141.53 1793.08,-131.66 1783.91,-136.97 1789.23,-141.53"/>
</g>
</g>
</svg>
        <g id="navigator" transform="translate(0 0)" fill="#404254">
                <rect fill="#f2f5e9" fill-opacity="0.5" stroke="#606060" stroke-width=".5" x="0" y="0" width="60" height="60"/>
                <use id="zoomplus" xlink:href="#zoomPlus" x="17" y="9" onmousedown="handleZoom(evt,'in')"/>
                <use id="zoomminus" xlink:href="#zoomMin" x="42" y="9" onmousedown="handleZoom(evt,'out')"/>
                <use id="reset" xlink:href="#resetDef" x="30" y="36" onmousedown="handleReset()"/>
                <g id="arrowUp" xlink:href="#dirArrow" transform="translate(30 24)" onmousedown="handlePan(0,-1)">
                  <use xlink:href="#rim" fill="#404040">
                        <set attributeName="fill" to="#808080" begin="arrowUp.mouseover" end="arrowUp.mouseout"/>
                  </use>
                  <path fill="none" stroke="white" stroke-width="1.5" d="M0,-3.0v7 M-2.5,-0.5L0,-3.0L2.5,-0.5"/>
                </g>
                <g id="arrowRight" xlink:href="#dirArrow" transform="rotate(90) translate(36 -43)" onmousedown="handlePan(1,0)">
                  <use xlink:href="#rim" fill="#404040">
                        <set attributeName="fill" to="#808080" begin="arrowRight.mouseover" end="arrowRight.mouseout"/>
                  </use>
                  <path fill="none" stroke="white" stroke-width="1.5" d="M0,-3.0v7 M-2.5,-0.5L0,-3.0L2.5,-0.5"/>
                </g>
                <g id="arrowDown" xlink:href="#dirArrow" transform="rotate(180) translate(-30 -48)" onmousedown="handlePan(0,1)">
                  <use xlink:href="#rim" fill="#404040">
                        <set attributeName="fill" to="#808080" begin="arrowDown.mouseover" end="arrowDown.mouseout"/>
                  </use>
                  <path fill="none" stroke="white" stroke-width="1.5" d="M0,-3.0v7 M-2.5,-0.5L0,-3.0L2.5,-0.5"/>
                </g>
                <g id="arrowLeft" xlink:href="#dirArrow" transform="rotate(270) translate(-36 17)" onmousedown="handlePan(-1,0)">
                  <use xlink:href="#rim" fill="#404040">
                        <set attributeName="fill" to="#808080" begin="arrowLeft.mouseover" end="arrowLeft.mouseout"/>
                  </use>
                  <path fill="none" stroke="white" stroke-width="1.5" d="M0,-3.0v7 M-2.5,-0.5L0,-3.0L2.5,-0.5"/>
                </g>
        </g>
        <svg viewBox="0 0 15 15" width="100%" height="30px" preserveAspectRatio="xMaxYMin meet">
         <g id="arrow_out" transform="scale(0.3 0.3)">
          <a xlink:href="input__manager_8cpp__incl_org.svg" target="_base">
           <rect id="button" ry="5" rx="5" y="6" x="6" height="38" width="38"
                fill="#f2f5e9" fill-opacity="0.5" stroke="#606060" stroke-width="1.0"/>
           <path id="arrow"
             d="M 11.500037,31.436501 C 11.940474,20.09759 22.043105,11.32322 32.158766,21.979434 L 37.068811,17.246167 C 37.068811,17.246167 37.088388,32 37.088388,32 L 22.160133,31.978069 C 22.160133,31.978069 26.997745,27.140456 26.997745,27.140456 C 18.528582,18.264221 13.291696,25.230495 11.500037,31.436501 z"
             style="fill:#404040;"/>
          </a>
         </g>
        </svg>
</svg>
