<?xml version="1.0" encoding="UTF-8" standalone="no"?>
<!DOCTYPE svg PUBLIC "-//W3C//DTD SVG 1.1//EN"
 "http://www.w3.org/Graphics/SVG/1.1/DTD/svg11.dtd">
<!-- Generated by graphviz version 2.43.0 (0)
 -->
<!-- Title: src/input/input_manager.cpp Pages: 1 -->
<!--zoomable 330 -->
<svg id="main" version="1.1" xmlns="http://www.w3.org/2000/svg" xmlns:xlink="http://www.w3.org/1999/xlink" xml:space="preserve" onload="init(evt)">
<style type="text/css"><![CDATA[
.edge:hover path { stroke: red; }
.edge:hover polygon { stroke: red; fill: red; }
]]></style>
<script type="text/javascript"><![CDATA[
var edges = document.getElementsByTagName('g');
if (edges && edges.length) {
  for (var i=0;i<edges.length;i++) {
    if (edges[i].id.substr(0,4)=='edge') {
      edges[i].setAttribute('class','edge');
    }
  }
}
]]></script>
        <defs>
                <circle id="rim" cx="0" cy="0" r="7"/>
                <circle id="rim2" cx="0" cy="0" r="3.5"/>
                <g id="zoomPlus">
                        <use xlink:href="#rim" fill="#404040">
                                <set attributeName="fill" to="#808080" begin="zoomplus.mouseover" end="zoomplus.mouseout"/>
                        </use>
                        <path d="M-4,0h8M0,-4v8" fill="none" stroke="white" stroke-width="1.5" pointer-events="none"/>
                </g>
                <g id="zoomMin">
                        <use xlink:href="#rim" fill="#404040">
                                <set attributeName="fill" to="#808080" begin="zoomminus.mouseover" end="zoomminus.mouseout"/>
                        </use>
                        <path d="M-4,0h8" fill="none" stroke="white" stroke-width="1.5" pointer-events="none"/>
                </g>
                <g id="dirArrow">
                        <path fill="none" stroke="white" stroke-width="1.5" d="M0,-3.0v7 M-2.5,-0.5L0,-3.0L2.5,-0.5"/>
                </g>
               <g id="resetDef">
                       <use xlink:href="#rim2" fill="#404040">
                               <set attributeName="fill" to="#808080" begin="reset.mouseover" end="reset.mouseout"/>
                       </use>
               </g>
        </defs>

<script type="text/javascript">
var viewWidth = 1831;
var viewHeight = 330;
var sectionId = 'dynsection-0';
</script>
<script xlink:href="svgpan.js"/>
<svg id="graph" class="graph">
<g id="viewport">
<title>src/input/input_manager.cpp</title>
<polygon fill="white" stroke="transparent" points="-4,4 -4,-326 1827,-326 1827,4 -4,4"/>
<!-- Node1 -->
<g id="node1" class="node">
<title>Node1</title>
<g id="a_node1"><a xlink:title=" ">
<polygon fill="#bfbfbf" stroke="black" points="839.5,-302.5 839.5,-321.5 994.5,-321.5 994.5,-302.5 839.5,-302.5"/>
<text text-anchor="middle" x="917" y="-309.5" font-family="Helvetica,sans-Serif" font-size="10.00">src/input/input_manager.cpp</text>
</a>
</g>
</g>
<!-- Node2 -->
<g id="node2" class="node">
<title>Node2</title>
<g id="a_node2"><a xlink:title=" ">
<polygon fill="white" stroke="#bfbfbf" points="77.5,-241 77.5,-260 136.5,-260 136.5,-241 77.5,-241"/>
<text text-anchor="middle" x="107" y="-248" font-family="Helvetica,sans-Serif" font-size="10.00">log/log.h</text>
</a>
</g>
</g>
<!-- Node1&#45;&gt;Node2 -->
<g id="edge1" class="edge">
<title>Node1&#45;&gt;Node2</title>
<path fill="none" stroke="midnightblue" d="M839.29,-309.48C670.64,-305.7 275.77,-294.06 145,-266 141.92,-265.34 138.77,-264.47 135.65,-263.48"/>
<polygon fill="midnightblue" stroke="midnightblue" points="136.58,-260.1 125.98,-260.05 134.24,-266.7 136.58,-260.1"/>
</g>
<!-- Node3 -->
<g id="node3" class="node">
<title>Node3</title>
<g id="a_node3"><a xlink:href="sdl__message__pump_8h.html" target="_top" xlink:title=" ">
<polygon fill="white" stroke="black" points="154.5,-235.5 154.5,-265.5 291.5,-265.5 291.5,-235.5 154.5,-235.5"/>
<text text-anchor="start" x="162.5" y="-253.5" font-family="Helvetica,sans-Serif" font-size="10.00">application/sdl_message</text>
<text text-anchor="middle" x="223" y="-242.5" font-family="Helvetica,sans-Serif" font-size="10.00">_pump.h</text>
</a>
</g>
</g>
<!-- Node1&#45;&gt;Node3 -->
<g id="edge2" class="edge">
<title>Node1&#45;&gt;Node3</title>
<path fill="none" stroke="midnightblue" d="M839.41,-304.35C706.26,-292.93 435.69,-269.73 301.75,-258.25"/>
<polygon fill="midnightblue" stroke="midnightblue" points="301.82,-254.75 291.56,-257.38 301.23,-261.72 301.82,-254.75"/>
</g>
<!-- Node18 -->
<g id="node18" class="node">
<title>Node18</title>
<g id="a_node18"><a xlink:href="input__helper_8h.html" target="_top" xlink:title=" ">
<polygon fill="white" stroke="black" points="1172.5,-241 1172.5,-260 1285.5,-260 1285.5,-241 1172.5,-241"/>
<text text-anchor="middle" x="1229" y="-248" font-family="Helvetica,sans-Serif" font-size="10.00">input/input_helper.h</text>
</a>
</g>
</g>
<!-- Node1&#45;&gt;Node18 -->
<g id="edge17" class="edge">
<title>Node1&#45;&gt;Node18</title>
<path fill="none" stroke="midnightblue" d="M961.7,-302.48C1017.77,-291.78 1113.86,-273.46 1174.27,-261.94"/>
<polygon fill="midnightblue" stroke="midnightblue" points="1175.21,-265.32 1184.38,-260.01 1173.9,-258.44 1175.21,-265.32"/>
</g>
<!-- Node22 -->
<g id="node22" class="node">
<title>Node22</title>
<g id="a_node22"><a xlink:href="input__manager_8h.html" target="_top" xlink:title=" ">
<polygon fill="white" stroke="black" points="642,-241 642,-260 768,-260 768,-241 642,-241"/>
<text text-anchor="middle" x="705" y="-248" font-family="Helvetica,sans-Serif" font-size="10.00">input/input_manager.h</text>
</a>
</g>
</g>
<!-- Node1&#45;&gt;Node22 -->
<g id="edge21" class="edge">
<title>Node1&#45;&gt;Node22</title>
<path fill="none" stroke="midnightblue" d="M886.63,-302.48C849.39,-292.03 786.19,-274.29 745.02,-262.73"/>
<polygon fill="midnightblue" stroke="midnightblue" points="745.89,-259.34 735.32,-260.01 744,-266.08 745.89,-259.34"/>
</g>
<!-- Node29 -->
<g id="node29" class="node">
<title>Node29</title>
<g id="a_node29"><a xlink:href="sdl__to__keycode_8h.html" target="_top" xlink:title=" ">
<polygon fill="white" stroke="black" points="1356,-241 1356,-260 1484,-260 1484,-241 1356,-241"/>
<text text-anchor="middle" x="1420" y="-248" font-family="Helvetica,sans-Serif" font-size="10.00">input/sdl_to_keycode.h</text>
</a>
</g>
</g>
<!-- Node1&#45;&gt;Node29 -->
<g id="edge57" class="edge">
<title>Node1&#45;&gt;Node29</title>
<path fill="none" stroke="midnightblue" d="M989.07,-302.48C1083.82,-291.27 1249.46,-271.67 1345.43,-260.32"/>
<polygon fill="midnightblue" stroke="midnightblue" points="1346.12,-263.76 1355.64,-259.11 1345.3,-256.81 1346.12,-263.76"/>
</g>
<!-- Node33 -->
<g id="node33" class="node">
<title>Node33</title>
<g id="a_node33"><a xlink:href="sdl__to__controller__index_8h.html" target="_top" xlink:title=" ">
<polygon fill="white" stroke="black" points="1040.5,-168.5 1040.5,-198.5 1165.5,-198.5 1165.5,-168.5 1040.5,-168.5"/>
<text text-anchor="start" x="1048.5" y="-186.5" font-family="Helvetica,sans-Serif" font-size="10.00">input/sdl_to_controller</text>
<text text-anchor="middle" x="1103" y="-175.5" font-family="Helvetica,sans-Serif" font-size="10.00">_index.h</text>
</a>
</g>
</g>
<!-- Node1&#45;&gt;Node33 -->
<g id="edge63" class="edge">
<title>Node1&#45;&gt;Node33</title>
<path fill="none" stroke="midnightblue" d="M929.78,-302.31C959.22,-282.28 1032.42,-232.5 1073.62,-204.48"/>
<polygon fill="midnightblue" stroke="midnightblue" points="1075.85,-207.2 1082.15,-198.68 1071.91,-201.41 1075.85,-207.2"/>
</g>
<!-- Node4 -->
<g id="node4" class="node">
<title>Node4</title>
<g id="a_node4"><a xlink:title=" ">
<polygon fill="white" stroke="#bfbfbf" points="482,-112.5 482,-131.5 530,-131.5 530,-112.5 482,-112.5"/>
<text text-anchor="middle" x="506" y="-119.5" font-family="Helvetica,sans-Serif" font-size="10.00">mutex</text>
</a>
</g>
</g>
<!-- Node3&#45;&gt;Node4 -->
<g id="edge3" class="edge">
<title>Node3&#45;&gt;Node4</title>
<path fill="none" stroke="midnightblue" d="M211.81,-235.44C199.14,-217.74 182.32,-187.31 199,-168 216.66,-147.56 395.09,-131.53 471.53,-125.54"/>
<polygon fill="midnightblue" stroke="midnightblue" points="471.92,-129.02 481.62,-124.76 471.38,-122.04 471.92,-129.02"/>
</g>
<!-- Node5 -->
<g id="node5" class="node">
<title>Node5</title>
<g id="a_node5"><a xlink:title=" ">
<polygon fill="white" stroke="#bfbfbf" points="104.5,-174 104.5,-193 151.5,-193 151.5,-174 104.5,-174"/>
<text text-anchor="middle" x="128" y="-181" font-family="Helvetica,sans-Serif" font-size="10.00">queue</text>
</a>
</g>
</g>
<!-- Node3&#45;&gt;Node5 -->
<g id="edge4" class="edge">
<title>Node3&#45;&gt;Node5</title>
<path fill="none" stroke="midnightblue" d="M202.39,-235.4C186.6,-224.6 164.91,-209.76 149.03,-198.89"/>
<polygon fill="midnightblue" stroke="midnightblue" points="150.66,-195.77 140.43,-193.01 146.71,-201.54 150.66,-195.77"/>
</g>
<!-- Node6 -->
<g id="node6" class="node">
<title>Node6</title>
<g id="a_node6"><a xlink:title=" ">
<polygon fill="white" stroke="#bfbfbf" points="0,-174 0,-193 48,-193 48,-174 0,-174"/>
<text text-anchor="middle" x="24" y="-181" font-family="Helvetica,sans-Serif" font-size="10.00">thread</text>
</a>
</g>
</g>
<!-- Node3&#45;&gt;Node6 -->
<g id="edge5" class="edge">
<title>Node3&#45;&gt;Node6</title>
<path fill="none" stroke="midnightblue" d="M175.55,-235.44C143.36,-225.7 99.91,-212.17 62,-199 59.75,-198.22 57.43,-197.39 55.1,-196.54"/>
<polygon fill="midnightblue" stroke="midnightblue" points="56.21,-193.22 45.62,-193.01 53.77,-199.78 56.21,-193.22"/>
</g>
<!-- Node7 -->
<g id="node7" class="node">
<title>Node7</title>
<g id="a_node7"><a xlink:title=" ">
<polygon fill="white" stroke="#bfbfbf" points="342,-174 342,-193 414,-193 414,-174 342,-174"/>
<text text-anchor="middle" x="378" y="-181" font-family="Helvetica,sans-Serif" font-size="10.00">SDL2/SDL.h</text>
</a>
</g>
</g>
<!-- Node3&#45;&gt;Node7 -->
<g id="edge6" class="edge">
<title>Node3&#45;&gt;Node7</title>
<path fill="none" stroke="midnightblue" d="M256.63,-235.4C283.95,-223.94 322.11,-207.94 348.31,-196.95"/>
<polygon fill="midnightblue" stroke="midnightblue" points="349.85,-200.1 357.71,-193.01 347.14,-193.65 349.85,-200.1"/>
</g>
<!-- Node8 -->
<g id="node8" class="node">
<title>Node8</title>
<g id="a_node8"><a xlink:title=" ">
<polygon fill="white" stroke="#bfbfbf" points="208,-174 208,-193 324,-193 324,-174 208,-174"/>
<text text-anchor="middle" x="266" y="-181" font-family="Helvetica,sans-Serif" font-size="10.00">common/singleton.h</text>
</a>
</g>
</g>
<!-- Node3&#45;&gt;Node8 -->
<g id="edge7" class="edge">
<title>Node3&#45;&gt;Node8</title>
<path fill="none" stroke="midnightblue" d="M232.33,-235.4C238.9,-225.46 247.74,-212.11 254.71,-201.57"/>
<polygon fill="midnightblue" stroke="midnightblue" points="257.65,-203.47 260.25,-193.19 251.81,-199.6 257.65,-203.47"/>
</g>
<!-- Node9 -->
<g id="node9" class="node">
<title>Node9</title>
<g id="a_node9"><a xlink:href="event__dispatcher_8h.html" target="_top" xlink:title=" ">
<polygon fill="white" stroke="black" points="210,-112.5 210,-131.5 350,-131.5 350,-112.5 210,-112.5"/>
<text text-anchor="middle" x="280" y="-119.5" font-family="Helvetica,sans-Serif" font-size="10.00">event/event_dispatcher.h</text>
</a>
</g>
</g>
<!-- Node3&#45;&gt;Node9 -->
<g id="edge8" class="edge">
<title>Node3&#45;&gt;Node9</title>
<path fill="none" stroke="midnightblue" d="M163.66,-235.4C119.37,-222.01 70.42,-199.28 95,-168 108.31,-151.06 156.03,-139.71 199.66,-132.64"/>
<polygon fill="midnightblue" stroke="midnightblue" points="200.43,-136.06 209.77,-131.07 199.35,-129.15 200.43,-136.06"/>
</g>
<!-- Node10 -->
<g id="node10" class="node">
<title>Node10</title>
<g id="a_node10"><a xlink:title=" ">
<polygon fill="white" stroke="#bfbfbf" points="438,-56.5 438,-75.5 496,-75.5 496,-56.5 438,-56.5"/>
<text text-anchor="middle" x="467" y="-63.5" font-family="Helvetica,sans-Serif" font-size="10.00">memory</text>
</a>
</g>
</g>
<!-- Node9&#45;&gt;Node10 -->
<g id="edge9" class="edge">
<title>Node9&#45;&gt;Node10</title>
<path fill="none" stroke="midnightblue" d="M309.63,-112.44C341.59,-103.21 392.63,-88.48 427.87,-78.3"/>
<polygon fill="midnightblue" stroke="midnightblue" points="429.18,-81.56 437.82,-75.43 427.24,-74.84 429.18,-81.56"/>
</g>
<!-- Node11 -->
<g id="node11" class="node">
<title>Node11</title>
<g id="a_node11"><a xlink:title=" ">
<polygon fill="white" stroke="#bfbfbf" points="514.5,-56.5 514.5,-75.5 607.5,-75.5 607.5,-56.5 514.5,-56.5"/>
<text text-anchor="middle" x="561" y="-63.5" font-family="Helvetica,sans-Serif" font-size="10.00">unordered_map</text>
</a>
</g>
</g>
<!-- Node9&#45;&gt;Node11 -->
<g id="edge10" class="edge">
<title>Node9&#45;&gt;Node11</title>
<path fill="none" stroke="midnightblue" d="M324.53,-112.44C373.96,-102.94 453.75,-87.61 506.78,-77.42"/>
<polygon fill="midnightblue" stroke="midnightblue" points="507.52,-80.84 516.68,-75.52 506.2,-73.97 507.52,-80.84"/>
</g>
<!-- Node12 -->
<g id="node12" class="node">
<title>Node12</title>
<g id="a_node12"><a xlink:title=" ">
<polygon fill="white" stroke="#bfbfbf" points="629,-56.5 629,-75.5 715,-75.5 715,-56.5 629,-56.5"/>
<text text-anchor="middle" x="672" y="-63.5" font-family="Helvetica,sans-Serif" font-size="10.00">unordered_set</text>
</a>
</g>
</g>
<!-- Node9&#45;&gt;Node12 -->
<g id="edge11" class="edge">
<title>Node9&#45;&gt;Node12</title>
<path fill="none" stroke="midnightblue" d="M347.65,-112.47C415.55,-103.78 523.13,-89.68 616,-76 616.92,-75.87 617.84,-75.73 618.77,-75.59"/>
<polygon fill="midnightblue" stroke="midnightblue" points="619.55,-79.01 628.91,-74.04 618.5,-72.09 619.55,-79.01"/>
</g>
<!-- Node13 -->
<g id="node13" class="node">
<title>Node13</title>
<g id="a_node13"><a xlink:title=" ">
<polygon fill="white" stroke="#bfbfbf" points="104.5,-56.5 104.5,-75.5 151.5,-75.5 151.5,-56.5 104.5,-56.5"/>
<text text-anchor="middle" x="128" y="-63.5" font-family="Helvetica,sans-Serif" font-size="10.00">vector</text>
</a>
</g>
</g>
<!-- Node9&#45;&gt;Node13 -->
<g id="edge12" class="edge">
<title>Node9&#45;&gt;Node13</title>
<path fill="none" stroke="midnightblue" d="M255.92,-112.44C230.46,-103.4 190.11,-89.06 161.54,-78.92"/>
<polygon fill="midnightblue" stroke="midnightblue" points="162.57,-75.57 151.97,-75.52 160.22,-82.16 162.57,-75.57"/>
</g>
<!-- Node14 -->
<g id="node14" class="node">
<title>Node14</title>
<g id="a_node14"><a xlink:title=" ">
<polygon fill="white" stroke="#bfbfbf" points="169.5,-56.5 169.5,-75.5 276.5,-75.5 276.5,-56.5 169.5,-56.5"/>
<text text-anchor="middle" x="223" y="-63.5" font-family="Helvetica,sans-Serif" font-size="10.00">common/type_id.h</text>
</a>
</g>
</g>
<!-- Node9&#45;&gt;Node14 -->
<g id="edge13" class="edge">
<title>Node9&#45;&gt;Node14</title>
<path fill="none" stroke="midnightblue" d="M270.84,-112.32C262.5,-104.42 249.97,-92.55 239.82,-82.94"/>
<polygon fill="midnightblue" stroke="midnightblue" points="241.99,-80.17 232.32,-75.83 237.18,-85.25 241.99,-80.17"/>
</g>
<!-- Node15 -->
<g id="node15" class="node">
<title>Node15</title>
<g id="a_node15"><a xlink:href="event__listener_8h.html" target="_top" xlink:title=" ">
<polygon fill="white" stroke="black" points="294.5,-56.5 294.5,-75.5 419.5,-75.5 419.5,-56.5 294.5,-56.5"/>
<text text-anchor="middle" x="357" y="-63.5" font-family="Helvetica,sans-Serif" font-size="10.00">event/event_listener.h</text>
</a>
</g>
</g>
<!-- Node9&#45;&gt;Node15 -->
<g id="edge14" class="edge">
<title>Node9&#45;&gt;Node15</title>
<path fill="none" stroke="midnightblue" d="M292.37,-112.32C304.16,-104.06 322.13,-91.45 336.14,-81.63"/>
<polygon fill="midnightblue" stroke="midnightblue" points="338.48,-84.26 344.66,-75.65 334.46,-78.53 338.48,-84.26"/>
</g>
<!-- Node16 -->
<g id="node16" class="node">
<title>Node16</title>
<g id="a_node16"><a xlink:title=" ">
<polygon fill="white" stroke="#bfbfbf" points="324.5,-0.5 324.5,-19.5 389.5,-19.5 389.5,-0.5 324.5,-0.5"/>
<text text-anchor="middle" x="357" y="-7.5" font-family="Helvetica,sans-Serif" font-size="10.00">functional</text>
</a>
</g>
</g>
<!-- Node15&#45;&gt;Node16 -->
<g id="edge15" class="edge">
<title>Node15&#45;&gt;Node16</title>
<path fill="none" stroke="midnightblue" d="M357,-56.08C357,-49.01 357,-38.86 357,-29.99"/>
<polygon fill="midnightblue" stroke="midnightblue" points="360.5,-29.75 357,-19.75 353.5,-29.75 360.5,-29.75"/>
</g>
<!-- Node17 -->
<g id="node17" class="node">
<title>Node17</title>
<g id="a_node17"><a xlink:href="event_8h.html" target="_top" xlink:title=" ">
<polygon fill="white" stroke="black" points="580,-0.5 580,-19.5 664,-19.5 664,-0.5 580,-0.5"/>
<text text-anchor="middle" x="622" y="-7.5" font-family="Helvetica,sans-Serif" font-size="10.00">event/event.h</text>
</a>
</g>
</g>
<!-- Node15&#45;&gt;Node17 -->
<g id="edge16" class="edge">
<title>Node15&#45;&gt;Node17</title>
<path fill="none" stroke="midnightblue" d="M398.99,-56.44C445.41,-46.98 520.23,-31.74 570.24,-21.55"/>
<polygon fill="midnightblue" stroke="midnightblue" points="571.11,-24.94 580.21,-19.52 569.71,-18.08 571.11,-24.94"/>
</g>
<!-- Node19 -->
<g id="node19" class="node">
<title>Node19</title>
<g id="a_node19"><a xlink:href="input_8h.html" target="_top" xlink:title="When making games, for portability purposes, as well as our own sanity, we do not want to hardcode ph...">
<polygon fill="white" stroke="black" points="953,-56.5 953,-75.5 1031,-75.5 1031,-56.5 953,-56.5"/>
<text text-anchor="middle" x="992" y="-63.5" font-family="Helvetica,sans-Serif" font-size="10.00">input/input.h</text>
</a>
</g>
</g>
<!-- Node18&#45;&gt;Node19 -->
<g id="edge18" class="edge">
<title>Node18&#45;&gt;Node19</title>
<path fill="none" stroke="midnightblue" d="M1231.71,-240.76C1238.54,-216.83 1253.7,-149.48 1221,-112 1197.96,-85.59 1101.49,-74.33 1041.35,-69.8"/>
<polygon fill="midnightblue" stroke="midnightblue" points="1041.52,-66.3 1031.3,-69.08 1041.02,-73.28 1041.52,-66.3"/>
</g>
<!-- Node20 -->
<g id="node20" class="node">
<title>Node20</title>
<g id="a_node20"><a xlink:href="keycode_8h.html" target="_top" xlink:title=" ">
<polygon fill="white" stroke="black" points="1257,-174 1257,-193 1351,-193 1351,-174 1257,-174"/>
<text text-anchor="middle" x="1304" y="-181" font-family="Helvetica,sans-Serif" font-size="10.00">input/keycode.h</text>
</a>
</g>
</g>
<!-- Node18&#45;&gt;Node20 -->
<g id="edge19" class="edge">
<title>Node18&#45;&gt;Node20</title>
<path fill="none" stroke="midnightblue" d="M1239.11,-240.73C1251.15,-230.31 1271.45,-212.71 1286.15,-199.97"/>
<polygon fill="midnightblue" stroke="midnightblue" points="1288.78,-202.32 1294.05,-193.13 1284.2,-197.03 1288.78,-202.32"/>
</g>
<!-- Node21 -->
<g id="node21" class="node">
<title>Node21</title>
<g id="a_node21"><a xlink:title=" ">
<polygon fill="white" stroke="#bfbfbf" points="1279,-112.5 1279,-131.5 1329,-131.5 1329,-112.5 1279,-112.5"/>
<text text-anchor="middle" x="1304" y="-119.5" font-family="Helvetica,sans-Serif" font-size="10.00">cstdint</text>
</a>
</g>
</g>
<!-- Node20&#45;&gt;Node21 -->
<g id="edge20" class="edge">
<title>Node20&#45;&gt;Node21</title>
<path fill="none" stroke="midnightblue" d="M1304,-173.98C1304,-165.58 1304,-152.48 1304,-141.66"/>
<polygon fill="midnightblue" stroke="midnightblue" points="1307.5,-141.51 1304,-131.51 1300.5,-141.51 1307.5,-141.51"/>
</g>
<!-- Node22&#45;&gt;Node7 -->
<g id="edge22" class="edge">
<title>Node22&#45;&gt;Node7</title>
<path fill="none" stroke="midnightblue" d="M643.99,-241C586.53,-232.42 498.28,-217.78 423,-199 419.55,-198.14 415.98,-197.16 412.43,-196.11"/>
<polygon fill="midnightblue" stroke="midnightblue" points="413.17,-192.68 402.58,-193.08 411.11,-199.37 413.17,-192.68"/>
</g>
<!-- Node22&#45;&gt;Node8 -->
<g id="edge23" class="edge">
<title>Node22&#45;&gt;Node8</title>
<path fill="none" stroke="midnightblue" d="M641.91,-242.46C567.72,-233.83 441,-217.99 333,-199 326.62,-197.88 319.91,-196.58 313.32,-195.22"/>
<polygon fill="midnightblue" stroke="midnightblue" points="313.62,-191.71 303.11,-193.07 312.17,-198.56 313.62,-191.71"/>
</g>
<!-- Node22&#45;&gt;Node20 -->
<g id="edge24" class="edge">
<title>Node22&#45;&gt;Node20</title>
<path fill="none" stroke="midnightblue" d="M768.11,-242.82C858.33,-233.24 1029.39,-215.01 1175,-199 1198.51,-196.42 1224.42,-193.51 1246.81,-190.99"/>
<polygon fill="midnightblue" stroke="midnightblue" points="1247.28,-194.46 1256.83,-189.86 1246.5,-187.5 1247.28,-194.46"/>
</g>
<!-- Node23 -->
<g id="node23" class="node">
<title>Node23</title>
<g id="a_node23"><a xlink:href="button__handler_8h.html" target="_top" xlink:title=" ">
<polygon fill="white" stroke="black" points="580,-174 580,-193 706,-193 706,-174 580,-174"/>
<text text-anchor="middle" x="643" y="-181" font-family="Helvetica,sans-Serif" font-size="10.00">input/button_handler.h</text>
</a>
</g>
</g>
<!-- Node22&#45;&gt;Node23 -->
<g id="edge25" class="edge">
<title>Node22&#45;&gt;Node23</title>
<path fill="none" stroke="midnightblue" d="M696.64,-240.73C686.88,-230.5 670.53,-213.36 658.45,-200.69"/>
<polygon fill="midnightblue" stroke="midnightblue" points="660.66,-197.95 651.23,-193.13 655.6,-202.78 660.66,-197.95"/>
</g>
<!-- Node26 -->
<g id="node26" class="node">
<title>Node26</title>
<g id="a_node26"><a xlink:href="axis__handler_8h.html" target="_top" xlink:title=" ">
<polygon fill="white" stroke="black" points="724.5,-174 724.5,-193 839.5,-193 839.5,-174 724.5,-174"/>
<text text-anchor="middle" x="782" y="-181" font-family="Helvetica,sans-Serif" font-size="10.00">input/axis_handler.h</text>
</a>
</g>
</g>
<!-- Node22&#45;&gt;Node26 -->
<g id="edge35" class="edge">
<title>Node22&#45;&gt;Node26</title>
<path fill="none" stroke="midnightblue" d="M715.38,-240.73C727.85,-230.21 748.97,-212.38 764.09,-199.62"/>
<polygon fill="midnightblue" stroke="midnightblue" points="766.4,-202.25 771.78,-193.13 761.88,-196.9 766.4,-202.25"/>
</g>
<!-- Node27 -->
<g id="node27" class="node">
<title>Node27</title>
<g id="a_node27"><a xlink:href="click__handler_8h.html" target="_top" xlink:title=" ">
<polygon fill="white" stroke="black" points="857.5,-174 857.5,-193 974.5,-193 974.5,-174 857.5,-174"/>
<text text-anchor="middle" x="916" y="-181" font-family="Helvetica,sans-Serif" font-size="10.00">input/click_handler.h</text>
</a>
</g>
</g>
<!-- Node22&#45;&gt;Node27 -->
<g id="edge42" class="edge">
<title>Node22&#45;&gt;Node27</title>
<path fill="none" stroke="midnightblue" d="M733.02,-240.87C770.41,-229.35 836.72,-208.92 878.42,-196.08"/>
<polygon fill="midnightblue" stroke="midnightblue" points="879.67,-199.35 888.2,-193.06 877.61,-192.66 879.67,-199.35"/>
</g>
<!-- Node28 -->
<g id="node28" class="node">
<title>Node28</title>
<g id="a_node28"><a xlink:href="motion__handler_8h.html" target="_top" xlink:title=" ">
<polygon fill="white" stroke="black" points="432.5,-174 432.5,-193 561.5,-193 561.5,-174 432.5,-174"/>
<text text-anchor="middle" x="497" y="-181" font-family="Helvetica,sans-Serif" font-size="10.00">input/motion_handler.h</text>
</a>
</g>
</g>
<!-- Node22&#45;&gt;Node28 -->
<g id="edge50" class="edge">
<title>Node22&#45;&gt;Node28</title>
<path fill="none" stroke="midnightblue" d="M677.38,-240.87C640.52,-229.35 575.15,-208.92 534.05,-196.08"/>
<polygon fill="midnightblue" stroke="midnightblue" points="534.99,-192.71 524.4,-193.06 532.9,-199.39 534.99,-192.71"/>
</g>
<!-- Node23&#45;&gt;Node4 -->
<g id="edge28" class="edge">
<title>Node23&#45;&gt;Node4</title>
<path fill="none" stroke="midnightblue" d="M623.37,-173.98C600.18,-163.9 561.38,-147.05 534.79,-135.5"/>
<polygon fill="midnightblue" stroke="midnightblue" points="536.16,-132.28 525.59,-131.51 533.37,-138.7 536.16,-132.28"/>
</g>
<!-- Node23&#45;&gt;Node9 -->
<g id="edge29" class="edge">
<title>Node23&#45;&gt;Node9</title>
<path fill="none" stroke="midnightblue" d="M601.75,-173.99C591.4,-171.94 580.31,-169.82 570,-168 494.95,-154.73 408.58,-141.6 349.75,-132.98"/>
<polygon fill="midnightblue" stroke="midnightblue" points="350.23,-129.51 339.83,-131.53 349.22,-136.44 350.23,-129.51"/>
</g>
<!-- Node23&#45;&gt;Node11 -->
<g id="edge26" class="edge">
<title>Node23&#45;&gt;Node11</title>
<path fill="none" stroke="midnightblue" d="M628.39,-173.87C614.57,-165 594.19,-149.98 582,-132 572.54,-118.04 567.11,-99.54 564.15,-85.84"/>
<polygon fill="midnightblue" stroke="midnightblue" points="567.52,-84.84 562.21,-75.68 560.65,-86.15 567.52,-84.84"/>
</g>
<!-- Node23&#45;&gt;Node12 -->
<g id="edge27" class="edge">
<title>Node23&#45;&gt;Node12</title>
<path fill="none" stroke="midnightblue" d="M645.18,-173.82C649.86,-155.17 660.97,-110.94 667.32,-85.63"/>
<polygon fill="midnightblue" stroke="midnightblue" points="670.75,-86.33 669.79,-75.78 663.97,-84.63 670.75,-86.33"/>
</g>
<!-- Node23&#45;&gt;Node19 -->
<g id="edge30" class="edge">
<title>Node23&#45;&gt;Node19</title>
<path fill="none" stroke="midnightblue" d="M682.64,-173.94C740.45,-161.35 842.78,-138.62 859,-132 874.88,-125.52 876.82,-119.98 892,-112 914.88,-99.97 941.62,-88.05 961.69,-79.5"/>
<polygon fill="midnightblue" stroke="midnightblue" points="963.11,-82.7 970.96,-75.58 960.39,-76.25 963.11,-82.7"/>
</g>
<!-- Node24 -->
<g id="node24" class="node">
<title>Node24</title>
<g id="a_node24"><a xlink:href="input__event_8h.html" target="_top" xlink:title=" ">
<polygon fill="white" stroke="black" points="738.5,-112.5 738.5,-131.5 849.5,-131.5 849.5,-112.5 738.5,-112.5"/>
<text text-anchor="middle" x="794" y="-119.5" font-family="Helvetica,sans-Serif" font-size="10.00">input/input_event.h</text>
</a>
</g>
</g>
<!-- Node23&#45;&gt;Node24 -->
<g id="edge31" class="edge">
<title>Node23&#45;&gt;Node24</title>
<path fill="none" stroke="midnightblue" d="M664.63,-173.98C690.42,-163.81 733.71,-146.76 763.04,-135.2"/>
<polygon fill="midnightblue" stroke="midnightblue" points="764.38,-138.43 772.41,-131.51 761.82,-131.92 764.38,-138.43"/>
</g>
<!-- Node24&#45;&gt;Node17 -->
<g id="edge33" class="edge">
<title>Node24&#45;&gt;Node17</title>
<path fill="none" stroke="midnightblue" d="M786.55,-112.45C774.5,-99.01 749.49,-72.77 724,-56 703.16,-42.29 677.44,-30.97 657.05,-23.12"/>
<polygon fill="midnightblue" stroke="midnightblue" points="658.1,-19.78 647.51,-19.55 655.64,-26.33 658.1,-19.78"/>
</g>
<!-- Node24&#45;&gt;Node19 -->
<g id="edge34" class="edge">
<title>Node24&#45;&gt;Node19</title>
<path fill="none" stroke="midnightblue" d="M825.37,-112.44C859.26,-103.2 913.4,-88.44 950.72,-78.26"/>
<polygon fill="midnightblue" stroke="midnightblue" points="952.05,-81.52 960.77,-75.52 950.2,-74.77 952.05,-81.52"/>
</g>
<!-- Node25 -->
<g id="node25" class="node">
<title>Node25</title>
<g id="a_node25"><a xlink:title=" ">
<polygon fill="white" stroke="#bfbfbf" points="831,-56.5 831,-75.5 927,-75.5 927,-56.5 831,-56.5"/>
<text text-anchor="middle" x="879" y="-63.5" font-family="Helvetica,sans-Serif" font-size="10.00">maths/vector2.h</text>
</a>
</g>
</g>
<!-- Node24&#45;&gt;Node25 -->
<g id="edge32" class="edge">
<title>Node24&#45;&gt;Node25</title>
<path fill="none" stroke="midnightblue" d="M807.66,-112.32C820.92,-103.9 841.27,-90.97 856.85,-81.07"/>
<polygon fill="midnightblue" stroke="midnightblue" points="858.81,-83.97 865.38,-75.65 855.06,-78.06 858.81,-83.97"/>
</g>
<!-- Node26&#45;&gt;Node4 -->
<g id="edge38" class="edge">
<title>Node26&#45;&gt;Node4</title>
<path fill="none" stroke="midnightblue" d="M742.68,-173.98C733.59,-172.02 723.96,-169.93 715,-168 653.29,-154.68 581.32,-139.2 539.97,-130.3"/>
<polygon fill="midnightblue" stroke="midnightblue" points="540.65,-126.87 530.14,-128.19 539.18,-133.71 540.65,-126.87"/>
</g>
<!-- Node26&#45;&gt;Node9 -->
<g id="edge39" class="edge">
<title>Node26&#45;&gt;Node9</title>
<path fill="none" stroke="midnightblue" d="M745.97,-173.94C735.99,-171.78 725.11,-169.61 715,-168 592.03,-148.39 448.09,-135.44 360.51,-128.66"/>
<polygon fill="midnightblue" stroke="midnightblue" points="360.62,-125.16 350.38,-127.89 360.08,-132.14 360.62,-125.16"/>
</g>
<!-- Node26&#45;&gt;Node11 -->
<g id="edge36" class="edge">
<title>Node26&#45;&gt;Node11</title>
<path fill="none" stroke="midnightblue" d="M747.3,-173.98C706.38,-163.53 641.23,-145.55 620,-132 600.21,-119.37 582.88,-98.41 572.21,-83.71"/>
<polygon fill="midnightblue" stroke="midnightblue" points="575.06,-81.69 566.46,-75.5 569.33,-85.7 575.06,-81.69"/>
</g>
<!-- Node26&#45;&gt;Node12 -->
<g id="edge37" class="edge">
<title>Node26&#45;&gt;Node12</title>
<path fill="none" stroke="midnightblue" d="M772.6,-173.76C762.03,-163.84 744.46,-147.08 730,-132 714.55,-115.88 697.62,-96.73 686.07,-83.41"/>
<polygon fill="midnightblue" stroke="midnightblue" points="688.5,-80.87 679.32,-75.59 683.2,-85.45 688.5,-80.87"/>
</g>
<!-- Node26&#45;&gt;Node19 -->
<g id="edge40" class="edge">
<title>Node26&#45;&gt;Node19</title>
<path fill="none" stroke="midnightblue" d="M803.12,-173.89C825.61,-164.48 862,-148.52 892,-132 920.63,-116.24 951.96,-95.2 971.79,-81.39"/>
<polygon fill="midnightblue" stroke="midnightblue" points="973.87,-84.21 980.04,-75.6 969.84,-78.48 973.87,-84.21"/>
</g>
<!-- Node26&#45;&gt;Node24 -->
<g id="edge41" class="edge">
<title>Node26&#45;&gt;Node24</title>
<path fill="none" stroke="midnightblue" d="M783.72,-173.98C785.43,-165.49 788.11,-152.2 790.3,-141.32"/>
<polygon fill="midnightblue" stroke="midnightblue" points="793.74,-142 792.28,-131.51 786.88,-140.62 793.74,-142"/>
</g>
<!-- Node27&#45;&gt;Node4 -->
<g id="edge45" class="edge">
<title>Node27&#45;&gt;Node4</title>
<path fill="none" stroke="midnightblue" d="M878.69,-173.99C868.75,-171.87 857.99,-169.72 848,-168 735.86,-148.7 601.78,-133.26 540.11,-126.58"/>
<polygon fill="midnightblue" stroke="midnightblue" points="540.46,-123.1 530.15,-125.51 539.72,-130.06 540.46,-123.1"/>
</g>
<!-- Node27&#45;&gt;Node9 -->
<g id="edge47" class="edge">
<title>Node27&#45;&gt;Node9</title>
<path fill="none" stroke="midnightblue" d="M880.16,-173.94C869.83,-171.72 858.51,-169.53 848,-168 675.24,-142.85 470.72,-130.99 360.34,-126.05"/>
<polygon fill="midnightblue" stroke="midnightblue" points="360.43,-122.55 350.28,-125.6 360.12,-129.54 360.43,-122.55"/>
</g>
<!-- Node27&#45;&gt;Node11 -->
<g id="edge43" class="edge">
<title>Node27&#45;&gt;Node11</title>
<path fill="none" stroke="midnightblue" d="M880.37,-173.98C842.69,-164.7 781.68,-148.9 730,-132 680.59,-115.84 624.48,-93.43 590.96,-79.59"/>
<polygon fill="midnightblue" stroke="midnightblue" points="591.89,-76.19 581.31,-75.59 589.2,-82.65 591.89,-76.19"/>
</g>
<!-- Node27&#45;&gt;Node12 -->
<g id="edge44" class="edge">
<title>Node27&#45;&gt;Node12</title>
<path fill="none" stroke="midnightblue" d="M911.37,-173.57C903.03,-158.42 884.02,-127.81 859,-112 818.49,-86.4 764.63,-75.36 725.12,-70.6"/>
<polygon fill="midnightblue" stroke="midnightblue" points="725.48,-67.12 715.15,-69.5 724.7,-74.08 725.48,-67.12"/>
</g>
<!-- Node27&#45;&gt;Node19 -->
<g id="edge48" class="edge">
<title>Node27&#45;&gt;Node19</title>
<path fill="none" stroke="midnightblue" d="M947.33,-173.96C967.96,-166.53 993.42,-153.49 1006,-132 1014.54,-117.41 1008.73,-98.24 1002.19,-84.51"/>
<polygon fill="midnightblue" stroke="midnightblue" points="1005.26,-82.82 997.49,-75.61 999.07,-86.09 1005.26,-82.82"/>
</g>
<!-- Node27&#45;&gt;Node24 -->
<g id="edge49" class="edge">
<title>Node27&#45;&gt;Node24</title>
<path fill="none" stroke="midnightblue" d="M898.52,-173.98C878.14,-164.03 844.22,-147.49 820.58,-135.96"/>
<polygon fill="midnightblue" stroke="midnightblue" points="821.97,-132.75 811.45,-131.51 818.9,-139.04 821.97,-132.75"/>
</g>
<!-- Node27&#45;&gt;Node25 -->
<g id="edge46" class="edge">
<title>Node27&#45;&gt;Node25</title>
<path fill="none" stroke="midnightblue" d="M920.94,-173.87C928.08,-160.19 939.44,-132.93 930,-112 924.38,-99.56 913.44,-89.17 903.12,-81.53"/>
<polygon fill="midnightblue" stroke="midnightblue" points="904.96,-78.54 894.73,-75.76 900.99,-84.31 904.96,-78.54"/>
</g>
<!-- Node28&#45;&gt;Node4 -->
<g id="edge53" class="edge">
<title>Node28&#45;&gt;Node4</title>
<path fill="none" stroke="midnightblue" d="M498.29,-173.98C499.56,-165.58 501.54,-152.48 503.18,-141.66"/>
<polygon fill="midnightblue" stroke="midnightblue" points="506.68,-141.92 504.71,-131.51 499.76,-140.87 506.68,-141.92"/>
</g>
<!-- Node28&#45;&gt;Node9 -->
<g id="edge54" class="edge">
<title>Node28&#45;&gt;Node9</title>
<path fill="none" stroke="midnightblue" d="M465.91,-173.98C427.72,-163.5 362.83,-145.71 320.7,-134.16"/>
<polygon fill="midnightblue" stroke="midnightblue" points="321.6,-130.78 311.03,-131.51 319.75,-137.53 321.6,-130.78"/>
</g>
<!-- Node28&#45;&gt;Node11 -->
<g id="edge51" class="edge">
<title>Node28&#45;&gt;Node11</title>
<path fill="none" stroke="midnightblue" d="M466.45,-173.91C431.19,-162.44 380.63,-140.26 402,-112 408.82,-102.98 467.59,-87.99 511.7,-77.82"/>
<polygon fill="midnightblue" stroke="midnightblue" points="512.74,-81.17 521.71,-75.53 511.19,-74.34 512.74,-81.17"/>
</g>
<!-- Node28&#45;&gt;Node12 -->
<g id="edge52" class="edge">
<title>Node28&#45;&gt;Node12</title>
<path fill="none" stroke="midnightblue" d="M481.27,-173.99C458.68,-160.7 421.67,-134.22 440,-112 445.72,-105.07 552.34,-86.54 619.02,-75.54"/>
<polygon fill="midnightblue" stroke="midnightblue" points="619.66,-78.98 628.96,-73.91 618.52,-72.07 619.66,-78.98"/>
</g>
<!-- Node28&#45;&gt;Node19 -->
<g id="edge55" class="edge">
<title>Node28&#45;&gt;Node19</title>
<path fill="none" stroke="midnightblue" d="M489.33,-174C477.17,-159.5 456.49,-129.84 473,-112 508.04,-74.13 884.76,-82.1 936,-76 938.22,-75.74 940.5,-75.45 942.79,-75.14"/>
<polygon fill="midnightblue" stroke="midnightblue" points="943.49,-78.58 952.89,-73.7 942.5,-71.65 943.49,-78.58"/>
</g>
<!-- Node28&#45;&gt;Node24 -->
<g id="edge56" class="edge">
<title>Node28&#45;&gt;Node24</title>
<path fill="none" stroke="midnightblue" d="M539.55,-173.98C592.81,-163.3 684.02,-145.03 741.54,-133.51"/>
<polygon fill="midnightblue" stroke="midnightblue" points="742.41,-136.91 751.53,-131.51 741.03,-130.04 742.41,-136.91"/>
</g>
<!-- Node29&#45;&gt;Node20 -->
<g id="edge62" class="edge">
<title>Node29&#45;&gt;Node20</title>
<path fill="none" stroke="midnightblue" d="M1404.36,-240.73C1384.79,-229.77 1351.08,-210.88 1328.18,-198.05"/>
<polygon fill="midnightblue" stroke="midnightblue" points="1329.83,-194.96 1319.4,-193.13 1326.41,-201.07 1329.83,-194.96"/>
</g>
<!-- Node29&#45;&gt;Node21 -->
<g id="edge58" class="edge">
<title>Node29&#45;&gt;Node21</title>
<path fill="none" stroke="midnightblue" d="M1414.7,-240.85C1404.96,-225.32 1383.1,-192.1 1360,-168 1349.38,-156.92 1336.02,-146.09 1325.02,-137.83"/>
<polygon fill="midnightblue" stroke="midnightblue" points="1326.93,-134.89 1316.8,-131.81 1322.79,-140.54 1326.93,-134.89"/>
</g>
<!-- Node30 -->
<g id="node30" class="node">
<title>Node30</title>
<g id="a_node30"><a xlink:title=" ">
<polygon fill="white" stroke="#bfbfbf" points="1705,-174 1705,-193 1823,-193 1823,-174 1705,-174"/>
<text text-anchor="middle" x="1764" y="-181" font-family="Helvetica,sans-Serif" font-size="10.00">SDL2/SDL_keycode.h</text>
</a>
</g>
</g>
<!-- Node29&#45;&gt;Node30 -->
<g id="edge59" class="edge">
<title>Node29&#45;&gt;Node30</title>
<path fill="none" stroke="midnightblue" d="M1468.94,-240.99C1524.18,-231.28 1616.68,-214.71 1696,-199 1702.14,-197.78 1708.58,-196.47 1714.95,-195.14"/>
<polygon fill="midnightblue" stroke="midnightblue" points="1715.78,-198.54 1724.85,-193.05 1714.34,-191.69 1715.78,-198.54"/>
</g>
<!-- Node31 -->
<g id="node31" class="node">
<title>Node31</title>
<g id="a_node31"><a xlink:title=" ">
<polygon fill="white" stroke="#bfbfbf" points="1407,-174 1407,-193 1517,-193 1517,-174 1407,-174"/>
<text text-anchor="middle" x="1462" y="-181" font-family="Helvetica,sans-Serif" font-size="10.00">SDL2/SDL_mouse.h</text>
</a>
</g>
</g>
<!-- Node29&#45;&gt;Node31 -->
<g id="edge60" class="edge">
<title>Node29&#45;&gt;Node31</title>
<path fill="none" stroke="midnightblue" d="M1425.66,-240.73C1432.09,-230.79 1442.72,-214.34 1450.83,-201.79"/>
<polygon fill="midnightblue" stroke="midnightblue" points="1453.94,-203.43 1456.43,-193.13 1448.06,-199.63 1453.94,-203.43"/>
</g>
<!-- Node32 -->
<g id="node32" class="node">
<title>Node32</title>
<g id="a_node32"><a xlink:title=" ">
<polygon fill="white" stroke="#bfbfbf" points="1535.5,-174 1535.5,-193 1686.5,-193 1686.5,-174 1535.5,-174"/>
<text text-anchor="middle" x="1611" y="-181" font-family="Helvetica,sans-Serif" font-size="10.00">SDL2/SDL_gamecontroller.h</text>
</a>
</g>
</g>
<!-- Node29&#45;&gt;Node32 -->
<g id="edge61" class="edge">
<title>Node29&#45;&gt;Node32</title>
<path fill="none" stroke="midnightblue" d="M1445.36,-240.87C1478.99,-229.42 1538.48,-209.18 1576.26,-196.32"/>
<polygon fill="midnightblue" stroke="midnightblue" points="1577.5,-199.6 1585.84,-193.06 1575.24,-192.97 1577.5,-199.6"/>
</g>
<!-- Node33&#45;&gt;Node19 -->
<g id="edge66" class="edge">
<title>Node33&#45;&gt;Node19</title>
<path fill="none" stroke="midnightblue" d="M1089.39,-168.34C1068.66,-146.77 1029.3,-105.81 1007.5,-83.13"/>
<polygon fill="midnightblue" stroke="midnightblue" points="1009.78,-80.45 1000.33,-75.67 1004.74,-85.3 1009.78,-80.45"/>
</g>
<!-- Node33&#45;&gt;Node21 -->
<g id="edge64" class="edge">
<title>Node33&#45;&gt;Node21</title>
<path fill="none" stroke="midnightblue" d="M1150.38,-168.47C1186.88,-157.67 1236.49,-142.98 1269.34,-133.26"/>
<polygon fill="midnightblue" stroke="midnightblue" points="1270.37,-136.6 1278.97,-130.41 1268.39,-129.89 1270.37,-136.6"/>
</g>
<!-- Node34 -->
<g id="node34" class="node">
<title>Node34</title>
<g id="a_node34"><a xlink:title=" ">
<polygon fill="white" stroke="#bfbfbf" points="1096,-112.5 1096,-131.5 1212,-131.5 1212,-112.5 1096,-112.5"/>
<text text-anchor="middle" x="1154" y="-119.5" font-family="Helvetica,sans-Serif" font-size="10.00">SDL2/SDL_joystick.h</text>
</a>
</g>
</g>
<!-- Node33&#45;&gt;Node34 -->
<g id="edge65" class="edge">
<title>Node33&#45;&gt;Node34</title>
<path fill="none" stroke="midnightblue" d="M1115.09,-168.4C1122.57,-159.66 1132.22,-148.41 1140.03,-139.3"/>
<polygon fill="midnightblue" stroke="midnightblue" points="1142.73,-141.53 1146.58,-131.66 1137.41,-136.97 1142.73,-141.53"/>
</g>
</g>
</svg>
        <g id="navigator" transform="translate(0 0)" fill="#404254">
                <rect fill="#f2f5e9" fill-opacity="0.5" stroke="#606060" stroke-width=".5" x="0" y="0" width="60" height="60"/>
                <use id="zoomplus" xlink:href="#zoomPlus" x="17" y="9" onmousedown="handleZoom(evt,'in')"/>
                <use id="zoomminus" xlink:href="#zoomMin" x="42" y="9" onmousedown="handleZoom(evt,'out')"/>
                <use id="reset" xlink:href="#resetDef" x="30" y="36" onmousedown="handleReset()"/>
                <g id="arrowUp" xlink:href="#dirArrow" transform="translate(30 24)" onmousedown="handlePan(0,-1)">
                  <use xlink:href="#rim" fill="#404040">
                        <set attributeName="fill" to="#808080" begin="arrowUp.mouseover" end="arrowUp.mouseout"/>
                  </use>
                  <path fill="none" stroke="white" stroke-width="1.5" d="M0,-3.0v7 M-2.5,-0.5L0,-3.0L2.5,-0.5"/>
                </g>
                <g id="arrowRight" xlink:href="#dirArrow" transform="rotate(90) translate(36 -43)" onmousedown="handlePan(1,0)">
                  <use xlink:href="#rim" fill="#404040">
                        <set attributeName="fill" to="#808080" begin="arrowRight.mouseover" end="arrowRight.mouseout"/>
                  </use>
                  <path fill="none" stroke="white" stroke-width="1.5" d="M0,-3.0v7 M-2.5,-0.5L0,-3.0L2.5,-0.5"/>
                </g>
                <g id="arrowDown" xlink:href="#dirArrow" transform="rotate(180) translate(-30 -48)" onmousedown="handlePan(0,1)">
                  <use xlink:href="#rim" fill="#404040">
                        <set attributeName="fill" to="#808080" begin="arrowDown.mouseover" end="arrowDown.mouseout"/>
                  </use>
                  <path fill="none" stroke="white" stroke-width="1.5" d="M0,-3.0v7 M-2.5,-0.5L0,-3.0L2.5,-0.5"/>
                </g>
                <g id="arrowLeft" xlink:href="#dirArrow" transform="rotate(270) translate(-36 17)" onmousedown="handlePan(-1,0)">
                  <use xlink:href="#rim" fill="#404040">
                        <set attributeName="fill" to="#808080" begin="arrowLeft.mouseover" end="arrowLeft.mouseout"/>
                  </use>
                  <path fill="none" stroke="white" stroke-width="1.5" d="M0,-3.0v7 M-2.5,-0.5L0,-3.0L2.5,-0.5"/>
                </g>
        </g>
        <svg viewBox="0 0 15 15" width="100%" height="30px" preserveAspectRatio="xMaxYMin meet">
         <g id="arrow_out" transform="scale(0.3 0.3)">
          <a xlink:href="input__manager_8cpp__incl_org.svg" target="_base">
           <rect id="button" ry="5" rx="5" y="6" x="6" height="38" width="38"
                fill="#f2f5e9" fill-opacity="0.5" stroke="#606060" stroke-width="1.0"/>
           <path id="arrow"
             d="M 11.500037,31.436501 C 11.940474,20.09759 22.043105,11.32322 32.158766,21.979434 L 37.068811,17.246167 C 37.068811,17.246167 37.088388,32 37.088388,32 L 22.160133,31.978069 C 22.160133,31.978069 26.997745,27.140456 26.997745,27.140456 C 18.528582,18.264221 13.291696,25.230495 11.500037,31.436501 z"
             style="fill:#404040;"/>
          </a>
         </g>
        </svg>
</svg>
