<?xml version="1.0" encoding="UTF-8" standalone="no"?>
<!DOCTYPE svg PUBLIC "-//W3C//DTD SVG 1.1//EN"
 "http://www.w3.org/Graphics/SVG/1.1/DTD/svg11.dtd">
<!-- Generated by graphviz version 2.43.0 (0)
 -->
<!-- Title: src/input/input_manager.h Pages: 1 -->
<!--zoomable 252 -->
<svg id="main" version="1.1" xmlns="http://www.w3.org/2000/svg" xmlns:xlink="http://www.w3.org/1999/xlink" xml:space="preserve" onload="init(evt)">
<style type="text/css"><![CDATA[
.edge:hover path { stroke: red; }
.edge:hover polygon { stroke: red; fill: red; }
]]></style>
<script type="text/javascript"><![CDATA[
var edges = document.getElementsByTagName('g');
if (edges && edges.length) {
  for (var i=0;i<edges.length;i++) {
    if (edges[i].id.substr(0,4)=='edge') {
      edges[i].setAttribute('class','edge');
    }
  }
}
]]></script>
        <defs>
                <circle id="rim" cx="0" cy="0" r="7"/>
                <circle id="rim2" cx="0" cy="0" r="3.5"/>
                <g id="zoomPlus">
                        <use xlink:href="#rim" fill="#404040">
                                <set attributeName="fill" to="#808080" begin="zoomplus.mouseover" end="zoomplus.mouseout"/>
                        </use>
                        <path d="M-4,0h8M0,-4v8" fill="none" stroke="white" stroke-width="1.5" pointer-events="none"/>
                </g>
                <g id="zoomMin">
                        <use xlink:href="#rim" fill="#404040">
                                <set attributeName="fill" to="#808080" begin="zoomminus.mouseover" end="zoomminus.mouseout"/>
                        </use>
                        <path d="M-4,0h8" fill="none" stroke="white" stroke-width="1.5" pointer-events="none"/>
                </g>
                <g id="dirArrow">
                        <path fill="none" stroke="white" stroke-width="1.5" d="M0,-3.0v7 M-2.5,-0.5L0,-3.0L2.5,-0.5"/>
                </g>
               <g id="resetDef">
                       <use xlink:href="#rim2" fill="#404040">
                               <set attributeName="fill" to="#808080" begin="reset.mouseover" end="reset.mouseout"/>
                       </use>
               </g>
        </defs>

<script type="text/javascript">
var viewWidth = 1050;
var viewHeight = 252;
var sectionId = 'dynsection-0';
</script>
<script xlink:href="svgpan.js"/>
<svg id="graph" class="graph">
<g id="viewport">
<title>src/input/input_manager.h</title>
<polygon fill="white" stroke="transparent" points="-4,4 -4,-248 1046,-248 1046,4 -4,4"/>
<!-- Node1 -->
<g id="node1" class="node">
<title>Node1</title>
<g id="a_node1"><a xlink:title=" ">
<polygon fill="#bfbfbf" stroke="black" points="322.5,-224.5 322.5,-243.5 465.5,-243.5 465.5,-224.5 322.5,-224.5"/>
<text text-anchor="middle" x="394" y="-231.5" font-family="Helvetica,sans-Serif" font-size="10.00">src/input/input_manager.h</text>
</a>
</g>
</g>
<!-- Node2 -->
<g id="node2" class="node">
<title>Node2</title>
<g id="a_node2"><a xlink:title=" ">
<polygon fill="white" stroke="#bfbfbf" points="0,-168.5 0,-187.5 72,-187.5 72,-168.5 0,-168.5"/>
<text text-anchor="middle" x="36" y="-175.5" font-family="Helvetica,sans-Serif" font-size="10.00">SDL2/SDL.h</text>
</a>
</g>
</g>
<!-- Node1&#45;&gt;Node2 -->
<g id="edge1" class="edge">
<title>Node1&#45;&gt;Node2</title>
<path fill="none" stroke="midnightblue" d="M327.28,-224.48C266.03,-216.42 172.53,-203.49 82.18,-188.13"/>
<polygon fill="midnightblue" stroke="midnightblue" points="82.76,-184.68 72.32,-186.44 81.58,-191.58 82.76,-184.68"/>
</g>
<!-- Node3 -->
<g id="node3" class="node">
<title>Node3</title>
<g id="a_node3"><a xlink:title=" ">
<polygon fill="white" stroke="#bfbfbf" points="90,-168.5 90,-187.5 206,-187.5 206,-168.5 90,-168.5"/>
<text text-anchor="middle" x="148" y="-175.5" font-family="Helvetica,sans-Serif" font-size="10.00">common/singleton.h</text>
</a>
</g>
</g>
<!-- Node1&#45;&gt;Node3 -->
<g id="edge2" class="edge">
<title>Node1&#45;&gt;Node3</title>
<path fill="none" stroke="midnightblue" d="M355.02,-224.44C312.11,-215.02 243.05,-199.87 196.63,-189.68"/>
<polygon fill="midnightblue" stroke="midnightblue" points="197.31,-186.24 186.8,-187.52 195.81,-193.08 197.31,-186.24"/>
</g>
<!-- Node4 -->
<g id="node4" class="node">
<title>Node4</title>
<g id="a_node4"><a xlink:href="keycode_8h.html" target="_top" xlink:title=" ">
<polygon fill="white" stroke="black" points="224,-168.5 224,-187.5 318,-187.5 318,-168.5 224,-168.5"/>
<text text-anchor="middle" x="271" y="-175.5" font-family="Helvetica,sans-Serif" font-size="10.00">input/keycode.h</text>
</a>
</g>
</g>
<!-- Node1&#45;&gt;Node4 -->
<g id="edge3" class="edge">
<title>Node1&#45;&gt;Node4</title>
<path fill="none" stroke="midnightblue" d="M374.51,-224.44C354.36,-215.6 322.68,-201.69 299.67,-191.59"/>
<polygon fill="midnightblue" stroke="midnightblue" points="300.96,-188.33 290.4,-187.52 298.15,-194.74 300.96,-188.33"/>
</g>
<!-- Node6 -->
<g id="node6" class="node">
<title>Node6</title>
<g id="a_node6"><a xlink:href="button__handler_8h.html" target="_top" xlink:title=" ">
<polygon fill="white" stroke="black" points="470,-168.5 470,-187.5 596,-187.5 596,-168.5 470,-168.5"/>
<text text-anchor="middle" x="533" y="-175.5" font-family="Helvetica,sans-Serif" font-size="10.00">input/button_handler.h</text>
</a>
</g>
</g>
<!-- Node1&#45;&gt;Node6 -->
<g id="edge5" class="edge">
<title>Node1&#45;&gt;Node6</title>
<path fill="none" stroke="midnightblue" d="M416.02,-224.44C439.1,-215.48 475.56,-201.31 501.64,-191.18"/>
<polygon fill="midnightblue" stroke="midnightblue" points="503.02,-194.4 511.08,-187.52 500.49,-187.88 503.02,-194.4"/>
</g>
<!-- Node20 -->
<g id="node20" class="node">
<title>Node20</title>
<g id="a_node20"><a xlink:href="axis__handler_8h.html" target="_top" xlink:title=" ">
<polygon fill="white" stroke="black" points="336.5,-168.5 336.5,-187.5 451.5,-187.5 451.5,-168.5 336.5,-168.5"/>
<text text-anchor="middle" x="394" y="-175.5" font-family="Helvetica,sans-Serif" font-size="10.00">input/axis_handler.h</text>
</a>
</g>
</g>
<!-- Node1&#45;&gt;Node20 -->
<g id="edge23" class="edge">
<title>Node1&#45;&gt;Node20</title>
<path fill="none" stroke="midnightblue" d="M394,-224.08C394,-217.01 394,-206.86 394,-197.99"/>
<polygon fill="midnightblue" stroke="midnightblue" points="397.5,-197.75 394,-187.75 390.5,-197.75 397.5,-197.75"/>
</g>
<!-- Node21 -->
<g id="node21" class="node">
<title>Node21</title>
<g id="a_node21"><a xlink:href="click__handler_8h.html" target="_top" xlink:title=" ">
<polygon fill="white" stroke="black" points="761.5,-168.5 761.5,-187.5 878.5,-187.5 878.5,-168.5 761.5,-168.5"/>
<text text-anchor="middle" x="820" y="-175.5" font-family="Helvetica,sans-Serif" font-size="10.00">input/click_handler.h</text>
</a>
</g>
</g>
<!-- Node1&#45;&gt;Node21 -->
<g id="edge30" class="edge">
<title>Node1&#45;&gt;Node21</title>
<path fill="none" stroke="midnightblue" d="M462.98,-224.46C532.9,-215.78 644.5,-201.84 751.4,-188.07"/>
<polygon fill="midnightblue" stroke="midnightblue" points="751.93,-191.53 761.4,-186.78 751.03,-184.59 751.93,-191.53"/>
</g>
<!-- Node22 -->
<g id="node22" class="node">
<title>Node22</title>
<g id="a_node22"><a xlink:href="motion__handler_8h.html" target="_top" xlink:title=" ">
<polygon fill="white" stroke="black" points="614.5,-168.5 614.5,-187.5 743.5,-187.5 743.5,-168.5 614.5,-168.5"/>
<text text-anchor="middle" x="679" y="-175.5" font-family="Helvetica,sans-Serif" font-size="10.00">input/motion_handler.h</text>
</a>
</g>
</g>
<!-- Node1&#45;&gt;Node22 -->
<g id="edge38" class="edge">
<title>Node1&#45;&gt;Node22</title>
<path fill="none" stroke="midnightblue" d="M439.16,-224.44C489.29,-214.94 570.22,-199.61 624.01,-189.42"/>
<polygon fill="midnightblue" stroke="midnightblue" points="624.88,-192.82 634.05,-187.52 623.58,-185.94 624.88,-192.82"/>
</g>
<!-- Node5 -->
<g id="node5" class="node">
<title>Node5</title>
<g id="a_node5"><a xlink:title=" ">
<polygon fill="white" stroke="#bfbfbf" points="133,-112.5 133,-131.5 183,-131.5 183,-112.5 133,-112.5"/>
<text text-anchor="middle" x="158" y="-119.5" font-family="Helvetica,sans-Serif" font-size="10.00">cstdint</text>
</a>
</g>
</g>
<!-- Node4&#45;&gt;Node5 -->
<g id="edge4" class="edge">
<title>Node4&#45;&gt;Node5</title>
<path fill="none" stroke="midnightblue" d="M253.09,-168.44C234.75,-159.68 205.99,-145.94 184.91,-135.86"/>
<polygon fill="midnightblue" stroke="midnightblue" points="186.35,-132.67 175.82,-131.52 183.33,-138.99 186.35,-132.67"/>
</g>
<!-- Node7 -->
<g id="node7" class="node">
<title>Node7</title>
<g id="a_node7"><a xlink:title=" ">
<polygon fill="white" stroke="#bfbfbf" points="544.5,-56.5 544.5,-75.5 637.5,-75.5 637.5,-56.5 544.5,-56.5"/>
<text text-anchor="middle" x="591" y="-63.5" font-family="Helvetica,sans-Serif" font-size="10.00">unordered_map</text>
</a>
</g>
</g>
<!-- Node6&#45;&gt;Node7 -->
<g id="edge6" class="edge">
<title>Node6&#45;&gt;Node7</title>
<path fill="none" stroke="midnightblue" d="M532.97,-168.47C533.26,-155.51 535.18,-130.43 545,-112 551.19,-100.37 561.44,-89.91 570.69,-82.01"/>
<polygon fill="midnightblue" stroke="midnightblue" points="573.17,-84.5 578.76,-75.51 568.78,-79.05 573.17,-84.5"/>
</g>
<!-- Node8 -->
<g id="node8" class="node">
<title>Node8</title>
<g id="a_node8"><a xlink:title=" ">
<polygon fill="white" stroke="#bfbfbf" points="440,-56.5 440,-75.5 526,-75.5 526,-56.5 440,-56.5"/>
<text text-anchor="middle" x="483" y="-63.5" font-family="Helvetica,sans-Serif" font-size="10.00">unordered_set</text>
</a>
</g>
</g>
<!-- Node6&#45;&gt;Node8 -->
<g id="edge7" class="edge">
<title>Node6&#45;&gt;Node8</title>
<path fill="none" stroke="midnightblue" d="M527.36,-168.28C521.76,-159.38 513.13,-145.07 507,-132 499.81,-116.69 493.28,-98.58 488.85,-85.38"/>
<polygon fill="midnightblue" stroke="midnightblue" points="492.09,-84.02 485.66,-75.6 485.44,-86.19 492.09,-84.02"/>
</g>
<!-- Node9 -->
<g id="node9" class="node">
<title>Node9</title>
<g id="a_node9"><a xlink:title=" ">
<polygon fill="white" stroke="#bfbfbf" points="587,-112.5 587,-131.5 635,-131.5 635,-112.5 587,-112.5"/>
<text text-anchor="middle" x="611" y="-119.5" font-family="Helvetica,sans-Serif" font-size="10.00">mutex</text>
</a>
</g>
</g>
<!-- Node6&#45;&gt;Node9 -->
<g id="edge8" class="edge">
<title>Node6&#45;&gt;Node9</title>
<path fill="none" stroke="midnightblue" d="M545.53,-168.32C557.59,-159.98 576.03,-147.21 590.27,-137.35"/>
<polygon fill="midnightblue" stroke="midnightblue" points="592.27,-140.22 598.5,-131.65 588.28,-134.47 592.27,-140.22"/>
</g>
<!-- Node10 -->
<g id="node10" class="node">
<title>Node10</title>
<g id="a_node10"><a xlink:href="event__dispatcher_8h.html" target="_top" xlink:title=" ">
<polygon fill="white" stroke="black" points="201,-112.5 201,-131.5 341,-131.5 341,-112.5 201,-112.5"/>
<text text-anchor="middle" x="271" y="-119.5" font-family="Helvetica,sans-Serif" font-size="10.00">event/event_dispatcher.h</text>
</a>
</g>
</g>
<!-- Node6&#45;&gt;Node10 -->
<g id="edge9" class="edge">
<title>Node6&#45;&gt;Node10</title>
<path fill="none" stroke="midnightblue" d="M491.49,-168.44C445.59,-158.98 371.62,-143.74 322.17,-133.55"/>
<polygon fill="midnightblue" stroke="midnightblue" points="322.82,-130.11 312.32,-131.52 321.41,-136.96 322.82,-130.11"/>
</g>
<!-- Node17 -->
<g id="node17" class="node">
<title>Node17</title>
<g id="a_node17"><a xlink:href="input_8h.html" target="_top" xlink:title="When making games, for portability purposes, as well as our own sanity, we do not want to hardcode ph...">
<polygon fill="white" stroke="black" points="776,-56.5 776,-75.5 854,-75.5 854,-56.5 776,-56.5"/>
<text text-anchor="middle" x="815" y="-63.5" font-family="Helvetica,sans-Serif" font-size="10.00">input/input.h</text>
</a>
</g>
</g>
<!-- Node6&#45;&gt;Node17 -->
<g id="edge18" class="edge">
<title>Node6&#45;&gt;Node17</title>
<path fill="none" stroke="midnightblue" d="M536.45,-168.2C542.54,-153.92 556.6,-125.91 578,-112 608.29,-92.31 705.39,-78.72 765.49,-71.95"/>
<polygon fill="midnightblue" stroke="midnightblue" points="765.98,-75.42 775.53,-70.85 765.21,-68.46 765.98,-75.42"/>
</g>
<!-- Node18 -->
<g id="node18" class="node">
<title>Node18</title>
<g id="a_node18"><a xlink:href="input__event_8h.html" target="_top" xlink:title=" ">
<polygon fill="white" stroke="black" points="843.5,-112.5 843.5,-131.5 954.5,-131.5 954.5,-112.5 843.5,-112.5"/>
<text text-anchor="middle" x="899" y="-119.5" font-family="Helvetica,sans-Serif" font-size="10.00">input/input_event.h</text>
</a>
</g>
</g>
<!-- Node6&#45;&gt;Node18 -->
<g id="edge19" class="edge">
<title>Node6&#45;&gt;Node18</title>
<path fill="none" stroke="midnightblue" d="M590.99,-168.44C656.85,-158.73 764.08,-142.91 833.07,-132.73"/>
<polygon fill="midnightblue" stroke="midnightblue" points="833.99,-136.13 843.38,-131.21 832.97,-129.2 833.99,-136.13"/>
</g>
<!-- Node10&#45;&gt;Node7 -->
<g id="edge11" class="edge">
<title>Node10&#45;&gt;Node7</title>
<path fill="none" stroke="midnightblue" d="M321.7,-112.44C379.6,-102.67 474.06,-86.73 534.33,-76.56"/>
<polygon fill="midnightblue" stroke="midnightblue" points="535.15,-79.97 544.43,-74.86 533.99,-73.07 535.15,-79.97"/>
</g>
<!-- Node10&#45;&gt;Node8 -->
<g id="edge12" class="edge">
<title>Node10&#45;&gt;Node8</title>
<path fill="none" stroke="midnightblue" d="M304.59,-112.44C341.19,-103.12 399.84,-88.18 439.83,-78"/>
<polygon fill="midnightblue" stroke="midnightblue" points="440.74,-81.38 449.57,-75.52 439.01,-74.59 440.74,-81.38"/>
</g>
<!-- Node11 -->
<g id="node11" class="node">
<title>Node11</title>
<g id="a_node11"><a xlink:title=" ">
<polygon fill="white" stroke="#bfbfbf" points="364,-56.5 364,-75.5 422,-75.5 422,-56.5 364,-56.5"/>
<text text-anchor="middle" x="393" y="-63.5" font-family="Helvetica,sans-Serif" font-size="10.00">memory</text>
</a>
</g>
</g>
<!-- Node10&#45;&gt;Node11 -->
<g id="edge10" class="edge">
<title>Node10&#45;&gt;Node11</title>
<path fill="none" stroke="midnightblue" d="M290.33,-112.44C310.32,-103.6 341.74,-89.69 364.56,-79.59"/>
<polygon fill="midnightblue" stroke="midnightblue" points="366.03,-82.76 373.76,-75.52 363.2,-76.36 366.03,-82.76"/>
</g>
<!-- Node12 -->
<g id="node12" class="node">
<title>Node12</title>
<g id="a_node12"><a xlink:title=" ">
<polygon fill="white" stroke="#bfbfbf" points="30.5,-56.5 30.5,-75.5 77.5,-75.5 77.5,-56.5 30.5,-56.5"/>
<text text-anchor="middle" x="54" y="-63.5" font-family="Helvetica,sans-Serif" font-size="10.00">vector</text>
</a>
</g>
</g>
<!-- Node10&#45;&gt;Node12 -->
<g id="edge13" class="edge">
<title>Node10&#45;&gt;Node12</title>
<path fill="none" stroke="midnightblue" d="M234.05,-112.42C198.68,-104.12 143.6,-90.95 87.49,-76.33"/>
<polygon fill="midnightblue" stroke="midnightblue" points="88.3,-72.93 77.74,-73.78 86.53,-79.7 88.3,-72.93"/>
</g>
<!-- Node13 -->
<g id="node13" class="node">
<title>Node13</title>
<g id="a_node13"><a xlink:title=" ">
<polygon fill="white" stroke="#bfbfbf" points="95.5,-56.5 95.5,-75.5 202.5,-75.5 202.5,-56.5 95.5,-56.5"/>
<text text-anchor="middle" x="149" y="-63.5" font-family="Helvetica,sans-Serif" font-size="10.00">common/type_id.h</text>
</a>
</g>
</g>
<!-- Node10&#45;&gt;Node13 -->
<g id="edge14" class="edge">
<title>Node10&#45;&gt;Node13</title>
<path fill="none" stroke="midnightblue" d="M251.67,-112.44C231.68,-103.6 200.26,-89.69 177.44,-79.59"/>
<polygon fill="midnightblue" stroke="midnightblue" points="178.8,-76.36 168.24,-75.52 175.97,-82.76 178.8,-76.36"/>
</g>
<!-- Node14 -->
<g id="node14" class="node">
<title>Node14</title>
<g id="a_node14"><a xlink:href="event__listener_8h.html" target="_top" xlink:title=" ">
<polygon fill="white" stroke="black" points="220.5,-56.5 220.5,-75.5 345.5,-75.5 345.5,-56.5 220.5,-56.5"/>
<text text-anchor="middle" x="283" y="-63.5" font-family="Helvetica,sans-Serif" font-size="10.00">event/event_listener.h</text>
</a>
</g>
</g>
<!-- Node10&#45;&gt;Node14 -->
<g id="edge15" class="edge">
<title>Node10&#45;&gt;Node14</title>
<path fill="none" stroke="midnightblue" d="M272.98,-112.08C274.57,-104.93 276.86,-94.64 278.85,-85.69"/>
<polygon fill="midnightblue" stroke="midnightblue" points="282.3,-86.27 281.06,-75.75 275.47,-84.75 282.3,-86.27"/>
</g>
<!-- Node15 -->
<g id="node15" class="node">
<title>Node15</title>
<g id="a_node15"><a xlink:title=" ">
<polygon fill="white" stroke="#bfbfbf" points="250.5,-0.5 250.5,-19.5 315.5,-19.5 315.5,-0.5 250.5,-0.5"/>
<text text-anchor="middle" x="283" y="-7.5" font-family="Helvetica,sans-Serif" font-size="10.00">functional</text>
</a>
</g>
</g>
<!-- Node14&#45;&gt;Node15 -->
<g id="edge16" class="edge">
<title>Node14&#45;&gt;Node15</title>
<path fill="none" stroke="midnightblue" d="M283,-56.08C283,-49.01 283,-38.86 283,-29.99"/>
<polygon fill="midnightblue" stroke="midnightblue" points="286.5,-29.75 283,-19.75 279.5,-29.75 286.5,-29.75"/>
</g>
<!-- Node16 -->
<g id="node16" class="node">
<title>Node16</title>
<g id="a_node16"><a xlink:href="event_8h.html" target="_top" xlink:title=" ">
<polygon fill="white" stroke="black" points="595,-0.5 595,-19.5 679,-19.5 679,-0.5 595,-0.5"/>
<text text-anchor="middle" x="637" y="-7.5" font-family="Helvetica,sans-Serif" font-size="10.00">event/event.h</text>
</a>
</g>
</g>
<!-- Node14&#45;&gt;Node16 -->
<g id="edge17" class="edge">
<title>Node14&#45;&gt;Node16</title>
<path fill="none" stroke="midnightblue" d="M339.09,-56.44C406.55,-46.15 518.88,-29.02 584.63,-18.99"/>
<polygon fill="midnightblue" stroke="midnightblue" points="585.41,-22.41 594.77,-17.44 584.35,-15.49 585.41,-22.41"/>
</g>
<!-- Node18&#45;&gt;Node16 -->
<g id="edge21" class="edge">
<title>Node18&#45;&gt;Node16</title>
<path fill="none" stroke="midnightblue" d="M896.74,-112.25C892.6,-98.05 882.38,-70.15 863,-56 835.87,-36.19 747.1,-23.01 689.22,-16.28"/>
<polygon fill="midnightblue" stroke="midnightblue" points="689.48,-12.79 679.15,-15.14 688.69,-19.74 689.48,-12.79"/>
</g>
<!-- Node18&#45;&gt;Node17 -->
<g id="edge22" class="edge">
<title>Node18&#45;&gt;Node17</title>
<path fill="none" stroke="midnightblue" d="M885.5,-112.32C872.4,-103.9 852.29,-90.97 836.89,-81.07"/>
<polygon fill="midnightblue" stroke="midnightblue" points="838.77,-78.12 828.46,-75.65 834.98,-84.01 838.77,-78.12"/>
</g>
<!-- Node19 -->
<g id="node19" class="node">
<title>Node19</title>
<g id="a_node19"><a xlink:title=" ">
<polygon fill="white" stroke="#bfbfbf" points="946,-56.5 946,-75.5 1042,-75.5 1042,-56.5 946,-56.5"/>
<text text-anchor="middle" x="994" y="-63.5" font-family="Helvetica,sans-Serif" font-size="10.00">maths/vector2.h</text>
</a>
</g>
</g>
<!-- Node18&#45;&gt;Node19 -->
<g id="edge20" class="edge">
<title>Node18&#45;&gt;Node19</title>
<path fill="none" stroke="midnightblue" d="M914.26,-112.32C929.22,-103.82 952.25,-90.73 969.73,-80.8"/>
<polygon fill="midnightblue" stroke="midnightblue" points="971.81,-83.64 978.77,-75.65 968.35,-77.55 971.81,-83.64"/>
</g>
<!-- Node20&#45;&gt;Node7 -->
<g id="edge24" class="edge">
<title>Node20&#45;&gt;Node7</title>
<path fill="none" stroke="midnightblue" d="M396.52,-168.42C401.06,-154.45 411.98,-126.88 431,-112 447.55,-99.05 497.07,-86.27 536.67,-77.66"/>
<polygon fill="midnightblue" stroke="midnightblue" points="537.45,-81.07 546.5,-75.56 535.99,-74.22 537.45,-81.07"/>
</g>
<!-- Node20&#45;&gt;Node8 -->
<g id="edge25" class="edge">
<title>Node20&#45;&gt;Node8</title>
<path fill="none" stroke="midnightblue" d="M391.09,-168.23C387.26,-154.95 382.2,-129.47 393,-112 402.67,-96.35 419.62,-85.96 436.22,-79.15"/>
<polygon fill="midnightblue" stroke="midnightblue" points="437.75,-82.32 445.9,-75.54 435.31,-75.76 437.75,-82.32"/>
</g>
<!-- Node20&#45;&gt;Node9 -->
<g id="edge26" class="edge">
<title>Node20&#45;&gt;Node9</title>
<path fill="none" stroke="midnightblue" d="M428.38,-168.44C469.06,-158.32 536.36,-141.57 576.91,-131.48"/>
<polygon fill="midnightblue" stroke="midnightblue" points="578,-134.82 586.86,-129.01 576.31,-128.03 578,-134.82"/>
</g>
<!-- Node20&#45;&gt;Node10 -->
<g id="edge27" class="edge">
<title>Node20&#45;&gt;Node10</title>
<path fill="none" stroke="midnightblue" d="M374.51,-168.44C354.36,-159.6 322.68,-145.69 299.67,-135.59"/>
<polygon fill="midnightblue" stroke="midnightblue" points="300.96,-132.33 290.4,-131.52 298.15,-138.74 300.96,-132.33"/>
</g>
<!-- Node20&#45;&gt;Node17 -->
<g id="edge28" class="edge">
<title>Node20&#45;&gt;Node17</title>
<path fill="none" stroke="midnightblue" d="M411.79,-168.29C440.86,-154.4 500.67,-127.24 554,-112 626.33,-91.33 712.8,-78.7 765.8,-72.28"/>
<polygon fill="midnightblue" stroke="midnightblue" points="766.42,-75.73 775.94,-71.08 765.6,-68.78 766.42,-75.73"/>
</g>
<!-- Node20&#45;&gt;Node18 -->
<g id="edge29" class="edge">
<title>Node20&#45;&gt;Node18</title>
<path fill="none" stroke="midnightblue" d="M451.73,-169.13C454.86,-168.74 457.97,-168.36 461,-168 592.85,-152.38 747.41,-137.24 833.17,-129.12"/>
<polygon fill="midnightblue" stroke="midnightblue" points="833.65,-132.59 843.28,-128.16 833,-125.62 833.65,-132.59"/>
</g>
<!-- Node21&#45;&gt;Node7 -->
<g id="edge31" class="edge">
<title>Node21&#45;&gt;Node7</title>
<path fill="none" stroke="midnightblue" d="M813.58,-168.44C802.67,-154.51 779.15,-126.99 753,-112 720.67,-93.46 680.29,-82.22 647.93,-75.61"/>
<polygon fill="midnightblue" stroke="midnightblue" points="648.21,-72.1 637.73,-73.62 646.88,-78.97 648.21,-72.1"/>
</g>
<!-- Node21&#45;&gt;Node8 -->
<g id="edge32" class="edge">
<title>Node21&#45;&gt;Node8</title>
<path fill="none" stroke="midnightblue" d="M802.46,-168.44C774.39,-155 717.39,-128.74 667,-112 623.78,-97.64 573.48,-85.65 536.4,-77.66"/>
<polygon fill="midnightblue" stroke="midnightblue" points="536.82,-74.18 526.31,-75.52 535.37,-81.02 536.82,-74.18"/>
</g>
<!-- Node21&#45;&gt;Node9 -->
<g id="edge33" class="edge">
<title>Node21&#45;&gt;Node9</title>
<path fill="none" stroke="midnightblue" d="M786.88,-168.44C748.11,-158.42 684.21,-141.92 645.04,-131.79"/>
<polygon fill="midnightblue" stroke="midnightblue" points="645.72,-128.36 635.17,-129.24 643.97,-135.13 645.72,-128.36"/>
</g>
<!-- Node21&#45;&gt;Node10 -->
<g id="edge35" class="edge">
<title>Node21&#45;&gt;Node10</title>
<path fill="none" stroke="midnightblue" d="M761.41,-169.1C758.23,-168.72 755.08,-168.35 752,-168 611.28,-152.11 446.94,-137.61 351.36,-129.57"/>
<polygon fill="midnightblue" stroke="midnightblue" points="351.44,-126.07 341.19,-128.72 350.86,-133.04 351.44,-126.07"/>
</g>
<!-- Node21&#45;&gt;Node17 -->
<g id="edge36" class="edge">
<title>Node21&#45;&gt;Node17</title>
<path fill="none" stroke="midnightblue" d="M878.51,-171.01C928.93,-163.4 989.84,-146.79 964,-112 941.3,-81.43 898.44,-70.88 864.49,-67.57"/>
<polygon fill="midnightblue" stroke="midnightblue" points="864.52,-64.06 854.28,-66.76 863.97,-71.04 864.52,-64.06"/>
</g>
<!-- Node21&#45;&gt;Node18 -->
<g id="edge37" class="edge">
<title>Node21&#45;&gt;Node18</title>
<path fill="none" stroke="midnightblue" d="M832.69,-168.32C844.9,-159.98 863.58,-147.21 878,-137.35"/>
<polygon fill="midnightblue" stroke="midnightblue" points="880.06,-140.19 886.34,-131.65 876.11,-134.41 880.06,-140.19"/>
</g>
<!-- Node21&#45;&gt;Node19 -->
<g id="edge34" class="edge">
<title>Node21&#45;&gt;Node19</title>
<path fill="none" stroke="midnightblue" d="M878.78,-175.28C913.27,-171.09 955.05,-159.98 981,-132 992.36,-119.75 995.02,-100.49 995.19,-86.11"/>
<polygon fill="midnightblue" stroke="midnightblue" points="998.68,-85.75 994.91,-75.85 991.68,-85.94 998.68,-85.75"/>
</g>
<!-- Node22&#45;&gt;Node7 -->
<g id="edge39" class="edge">
<title>Node22&#45;&gt;Node7</title>
<path fill="none" stroke="midnightblue" d="M681.33,-168.21C684.32,-154.92 687.91,-129.41 677,-112 667.35,-96.6 650.57,-86.19 634.38,-79.3"/>
<polygon fill="midnightblue" stroke="midnightblue" points="635.56,-76 624.97,-75.64 633.02,-82.53 635.56,-76"/>
</g>
<!-- Node22&#45;&gt;Node8 -->
<g id="edge40" class="edge">
<title>Node22&#45;&gt;Node8</title>
<path fill="none" stroke="midnightblue" d="M676.76,-168.42C672.66,-154.46 662.62,-126.89 644,-112 627.29,-98.63 576.38,-85.73 536.24,-77.19"/>
<polygon fill="midnightblue" stroke="midnightblue" points="536.8,-73.73 526.29,-75.12 535.37,-80.59 536.8,-73.73"/>
</g>
<!-- Node22&#45;&gt;Node9 -->
<g id="edge41" class="edge">
<title>Node22&#45;&gt;Node9</title>
<path fill="none" stroke="midnightblue" d="M668.07,-168.32C657.83,-160.18 642.28,-147.84 630,-138.09"/>
<polygon fill="midnightblue" stroke="midnightblue" points="632.13,-135.31 622.12,-131.83 627.78,-140.79 632.13,-135.31"/>
</g>
<!-- Node22&#45;&gt;Node10 -->
<g id="edge42" class="edge">
<title>Node22&#45;&gt;Node10</title>
<path fill="none" stroke="midnightblue" d="M614.35,-168.44C541.24,-158.77 422.38,-143.04 345.45,-132.85"/>
<polygon fill="midnightblue" stroke="midnightblue" points="345.72,-129.36 335.35,-131.52 344.8,-136.3 345.72,-129.36"/>
</g>
<!-- Node22&#45;&gt;Node17 -->
<g id="edge43" class="edge">
<title>Node22&#45;&gt;Node17</title>
<path fill="none" stroke="midnightblue" d="M689.67,-168.37C712.71,-149.73 767.36,-105.53 796.29,-82.13"/>
<polygon fill="midnightblue" stroke="midnightblue" points="798.8,-84.6 804.38,-75.59 794.4,-79.16 798.8,-84.6"/>
</g>
<!-- Node22&#45;&gt;Node18 -->
<g id="edge44" class="edge">
<title>Node22&#45;&gt;Node18</title>
<path fill="none" stroke="midnightblue" d="M713.86,-168.44C751.92,-159.1 812.96,-144.12 854.46,-133.93"/>
<polygon fill="midnightblue" stroke="midnightblue" points="855.43,-137.3 864.3,-131.52 853.76,-130.5 855.43,-137.3"/>
</g>
</g>
</svg>
        <g id="navigator" transform="translate(0 0)" fill="#404254">
                <rect fill="#f2f5e9" fill-opacity="0.5" stroke="#606060" stroke-width=".5" x="0" y="0" width="60" height="60"/>
                <use id="zoomplus" xlink:href="#zoomPlus" x="17" y="9" onmousedown="handleZoom(evt,'in')"/>
                <use id="zoomminus" xlink:href="#zoomMin" x="42" y="9" onmousedown="handleZoom(evt,'out')"/>
                <use id="reset" xlink:href="#resetDef" x="30" y="36" onmousedown="handleReset()"/>
                <g id="arrowUp" xlink:href="#dirArrow" transform="translate(30 24)" onmousedown="handlePan(0,-1)">
                  <use xlink:href="#rim" fill="#404040">
                        <set attributeName="fill" to="#808080" begin="arrowUp.mouseover" end="arrowUp.mouseout"/>
                  </use>
                  <path fill="none" stroke="white" stroke-width="1.5" d="M0,-3.0v7 M-2.5,-0.5L0,-3.0L2.5,-0.5"/>
                </g>
                <g id="arrowRight" xlink:href="#dirArrow" transform="rotate(90) translate(36 -43)" onmousedown="handlePan(1,0)">
                  <use xlink:href="#rim" fill="#404040">
                        <set attributeName="fill" to="#808080" begin="arrowRight.mouseover" end="arrowRight.mouseout"/>
                  </use>
                  <path fill="none" stroke="white" stroke-width="1.5" d="M0,-3.0v7 M-2.5,-0.5L0,-3.0L2.5,-0.5"/>
                </g>
                <g id="arrowDown" xlink:href="#dirArrow" transform="rotate(180) translate(-30 -48)" onmousedown="handlePan(0,1)">
                  <use xlink:href="#rim" fill="#404040">
                        <set attributeName="fill" to="#808080" begin="arrowDown.mouseover" end="arrowDown.mouseout"/>
                  </use>
                  <path fill="none" stroke="white" stroke-width="1.5" d="M0,-3.0v7 M-2.5,-0.5L0,-3.0L2.5,-0.5"/>
                </g>
                <g id="arrowLeft" xlink:href="#dirArrow" transform="rotate(270) translate(-36 17)" onmousedown="handlePan(-1,0)">
                  <use xlink:href="#rim" fill="#404040">
                        <set attributeName="fill" to="#808080" begin="arrowLeft.mouseover" end="arrowLeft.mouseout"/>
                  </use>
                  <path fill="none" stroke="white" stroke-width="1.5" d="M0,-3.0v7 M-2.5,-0.5L0,-3.0L2.5,-0.5"/>
                </g>
        </g>
        <svg viewBox="0 0 15 15" width="100%" height="30px" preserveAspectRatio="xMaxYMin meet">
         <g id="arrow_out" transform="scale(0.3 0.3)">
          <a xlink:href="input__manager_8h__incl_org.svg" target="_base">
           <rect id="button" ry="5" rx="5" y="6" x="6" height="38" width="38"
                fill="#f2f5e9" fill-opacity="0.5" stroke="#606060" stroke-width="1.0"/>
           <path id="arrow"
             d="M 11.500037,31.436501 C 11.940474,20.09759 22.043105,11.32322 32.158766,21.979434 L 37.068811,17.246167 C 37.068811,17.246167 37.088388,32 37.088388,32 L 22.160133,31.978069 C 22.160133,31.978069 26.997745,27.140456 26.997745,27.140456 C 18.528582,18.264221 13.291696,25.230495 11.500037,31.436501 z"
             style="fill:#404040;"/>
          </a>
         </g>
        </svg>
</svg>
