<?xml version="1.0" encoding="UTF-8" standalone="no"?>
<!DOCTYPE svg PUBLIC "-//W3C//DTD SVG 1.1//EN"
 "http://www.w3.org/Graphics/SVG/1.1/DTD/svg11.dtd">
<!-- Generated by graphviz version 2.43.0 (0)
 -->
<!-- Title: src/input/keycode.h Pages: 1 -->
<svg width="1508pt" height="285pt"
 viewBox="0.00 0.00 1507.50 285.00" xmlns="http://www.w3.org/2000/svg" xmlns:xlink="http://www.w3.org/1999/xlink">
<g id="graph0" class="graph" transform="scale(1 1) rotate(0) translate(4 281)">
<title>src/input/keycode.h</title>
<polygon fill="white" stroke="transparent" points="-4,4 -4,-281 1503.5,-281 1503.5,4 -4,4"/>
<!-- Node1 -->
<g id="node1" class="node">
<title>Node1</title>
<g id="a_node1"><a xlink:title=" ">
<polygon fill="#bfbfbf" stroke="black" points="697,-257.5 697,-276.5 808,-276.5 808,-257.5 697,-257.5"/>
<text text-anchor="middle" x="752.5" y="-264.5" font-family="Helvetica,sans-Serif" font-size="10.00">src/input/keycode.h</text>
</a>
</g>
</g>
<!-- Node2 -->
<g id="node2" class="node">
<title>Node2</title>
<g id="a_node2"><a xlink:href="input__helper_8h.html" target="_top" xlink:title=" ">
<polygon fill="white" stroke="black" points="427,-201.5 427,-220.5 558,-220.5 558,-201.5 427,-201.5"/>
<text text-anchor="middle" x="492.5" y="-208.5" font-family="Helvetica,sans-Serif" font-size="10.00">src/input/input_helper.h</text>
</a>
</g>
</g>
<!-- Node1&#45;&gt;Node2 -->
<g id="edge1" class="edge">
<title>Node1&#45;&gt;Node2</title>
<path fill="none" stroke="midnightblue" d="M701.51,-255.41C652.37,-245.2 578.97,-229.96 533.51,-220.52"/>
<polygon fill="midnightblue" stroke="midnightblue" points="700.8,-258.84 711.3,-257.44 702.22,-251.98 700.8,-258.84"/>
</g>
<!-- Node8 -->
<g id="node8" class="node">
<title>Node8</title>
<g id="a_node8"><a xlink:href="input__manager_8h.html" target="_top" xlink:title=" ">
<polygon fill="white" stroke="black" points="970,-201.5 970,-220.5 1113,-220.5 1113,-201.5 970,-201.5"/>
<text text-anchor="middle" x="1041.5" y="-208.5" font-family="Helvetica,sans-Serif" font-size="10.00">src/input/input_manager.h</text>
</a>
</g>
</g>
<!-- Node1&#45;&gt;Node8 -->
<g id="edge7" class="edge">
<title>Node1&#45;&gt;Node8</title>
<path fill="none" stroke="midnightblue" d="M808.16,-255.6C862.77,-245.4 945.07,-230.02 995.92,-220.52"/>
<polygon fill="midnightblue" stroke="midnightblue" points="807.48,-252.17 798.29,-257.44 808.77,-259.05 807.48,-252.17"/>
</g>
<!-- Node16 -->
<g id="node16" class="node">
<title>Node16</title>
<g id="a_node16"><a xlink:href="sdl__to__keycode_8h.html" target="_top" xlink:title=" ">
<polygon fill="white" stroke="black" points="679.5,-201.5 679.5,-220.5 825.5,-220.5 825.5,-201.5 679.5,-201.5"/>
<text text-anchor="middle" x="752.5" y="-208.5" font-family="Helvetica,sans-Serif" font-size="10.00">src/input/sdl_to_keycode.h</text>
</a>
</g>
</g>
<!-- Node1&#45;&gt;Node16 -->
<g id="edge19" class="edge">
<title>Node1&#45;&gt;Node16</title>
<path fill="none" stroke="midnightblue" d="M752.5,-246.8C752.5,-237.91 752.5,-227.78 752.5,-220.75"/>
<polygon fill="midnightblue" stroke="midnightblue" points="749,-247.08 752.5,-257.08 756,-247.08 749,-247.08"/>
</g>
<!-- Node3 -->
<g id="node3" class="node">
<title>Node3</title>
<g id="a_node3"><a xlink:href="axis__handler_8cpp.html" target="_top" xlink:title=" ">
<polygon fill="white" stroke="black" points="0,-140 0,-159 143,-159 143,-140 0,-140"/>
<text text-anchor="middle" x="71.5" y="-147" font-family="Helvetica,sans-Serif" font-size="10.00">src/input/axis_handler.cpp</text>
</a>
</g>
</g>
<!-- Node2&#45;&gt;Node3 -->
<g id="edge2" class="edge">
<title>Node2&#45;&gt;Node3</title>
<path fill="none" stroke="midnightblue" d="M417.05,-201.1C347.85,-192.69 242.59,-179.26 151.5,-165 140.06,-163.21 127.75,-161.08 116.29,-159.01"/>
<polygon fill="midnightblue" stroke="midnightblue" points="416.65,-204.58 426.99,-202.3 417.49,-197.63 416.65,-204.58"/>
</g>
<!-- Node4 -->
<g id="node4" class="node">
<title>Node4</title>
<g id="a_node4"><a xlink:href="button__handler_8cpp.html" target="_top" xlink:title=" ">
<polygon fill="white" stroke="black" points="161,-140 161,-159 316,-159 316,-140 161,-140"/>
<text text-anchor="middle" x="238.5" y="-147" font-family="Helvetica,sans-Serif" font-size="10.00">src/input/button_handler.cpp</text>
</a>
</g>
</g>
<!-- Node2&#45;&gt;Node4 -->
<g id="edge3" class="edge">
<title>Node2&#45;&gt;Node4</title>
<path fill="none" stroke="midnightblue" d="M446.34,-199.19C397.05,-187.64 319.97,-169.58 274.82,-159.01"/>
<polygon fill="midnightblue" stroke="midnightblue" points="445.57,-202.6 456.11,-201.48 447.17,-195.79 445.57,-202.6"/>
</g>
<!-- Node5 -->
<g id="node5" class="node">
<title>Node5</title>
<g id="a_node5"><a xlink:href="click__handler_8cpp.html" target="_top" xlink:title=" ">
<polygon fill="white" stroke="black" points="334.5,-140 334.5,-159 480.5,-159 480.5,-140 334.5,-140"/>
<text text-anchor="middle" x="407.5" y="-147" font-family="Helvetica,sans-Serif" font-size="10.00">src/input/click_handler.cpp</text>
</a>
</g>
</g>
<!-- Node2&#45;&gt;Node5 -->
<g id="edge4" class="edge">
<title>Node2&#45;&gt;Node5</title>
<path fill="none" stroke="midnightblue" d="M471.95,-195.61C455.6,-184.17 433.28,-168.55 419.66,-159.01"/>
<polygon fill="midnightblue" stroke="midnightblue" points="470.12,-198.61 480.32,-201.48 474.14,-192.87 470.12,-198.61"/>
</g>
<!-- Node6 -->
<g id="node6" class="node">
<title>Node6</title>
<g id="a_node6"><a xlink:href="input__manager_8cpp.html" target="_top" xlink:title=" ">
<polygon fill="white" stroke="black" points="675,-140 675,-159 830,-159 830,-140 675,-140"/>
<text text-anchor="middle" x="752.5" y="-147" font-family="Helvetica,sans-Serif" font-size="10.00">src/input/input_manager.cpp</text>
</a>
</g>
</g>
<!-- Node2&#45;&gt;Node6 -->
<g id="edge5" class="edge">
<title>Node2&#45;&gt;Node6</title>
<path fill="none" stroke="midnightblue" d="M539.75,-199.19C590.2,-187.64 669.11,-169.58 715.32,-159.01"/>
<polygon fill="midnightblue" stroke="midnightblue" points="538.72,-195.83 529.75,-201.48 540.28,-202.66 538.72,-195.83"/>
</g>
<!-- Node7 -->
<g id="node7" class="node">
<title>Node7</title>
<g id="a_node7"><a xlink:href="motion__handler_8cpp.html" target="_top" xlink:title=" ">
<polygon fill="white" stroke="black" points="498.5,-140 498.5,-159 656.5,-159 656.5,-140 498.5,-140"/>
<text text-anchor="middle" x="577.5" y="-147" font-family="Helvetica,sans-Serif" font-size="10.00">src/input/motion_handler.cpp</text>
</a>
</g>
</g>
<!-- Node2&#45;&gt;Node7 -->
<g id="edge6" class="edge">
<title>Node2&#45;&gt;Node7</title>
<path fill="none" stroke="midnightblue" d="M513.05,-195.61C529.4,-184.17 551.72,-168.55 565.34,-159.01"/>
<polygon fill="midnightblue" stroke="midnightblue" points="510.86,-192.87 504.68,-201.48 514.88,-198.61 510.86,-192.87"/>
</g>
<!-- Node8&#45;&gt;Node6 -->
<g id="edge18" class="edge">
<title>Node8&#45;&gt;Node6</title>
<path fill="none" stroke="midnightblue" d="M990.03,-199.4C934,-187.87 845.51,-169.65 793.83,-159.01"/>
<polygon fill="midnightblue" stroke="midnightblue" points="989.59,-202.89 1000.09,-201.48 991,-196.03 989.59,-202.89"/>
</g>
<!-- Node9 -->
<g id="node9" class="node">
<title>Node9</title>
<g id="a_node9"><a xlink:href="application_8cpp.html" target="_top" xlink:title=" ">
<polygon fill="white" stroke="black" points="848,-140 848,-159 1013,-159 1013,-140 848,-140"/>
<text text-anchor="middle" x="930.5" y="-147" font-family="Helvetica,sans-Serif" font-size="10.00">src/application/application.cpp</text>
</a>
</g>
</g>
<!-- Node8&#45;&gt;Node9 -->
<g id="edge8" class="edge">
<title>Node8&#45;&gt;Node9</title>
<path fill="none" stroke="midnightblue" d="M1016.71,-196.71C995.21,-185.19 964.74,-168.86 946.37,-159.01"/>
<polygon fill="midnightblue" stroke="midnightblue" points="1015.13,-199.84 1025.6,-201.48 1018.44,-193.67 1015.13,-199.84"/>
</g>
<!-- Node10 -->
<g id="node10" class="node">
<title>Node10</title>
<g id="a_node10"><a xlink:href="game__scene_8cpp.html" target="_top" xlink:title=" ">
<polygon fill="white" stroke="black" points="1017.5,-0.5 1017.5,-30.5 1141.5,-30.5 1141.5,-0.5 1017.5,-0.5"/>
<text text-anchor="start" x="1025.5" y="-18.5" font-family="Helvetica,sans-Serif" font-size="10.00">src/game/scene/game</text>
<text text-anchor="middle" x="1079.5" y="-7.5" font-family="Helvetica,sans-Serif" font-size="10.00">_scene.cpp</text>
</a>
</g>
</g>
<!-- Node8&#45;&gt;Node10 -->
<g id="edge9" class="edge">
<title>Node8&#45;&gt;Node10</title>
<path fill="none" stroke="midnightblue" d="M1045.11,-191.6C1052.66,-153.16 1069.97,-65.04 1076.73,-30.63"/>
<polygon fill="midnightblue" stroke="midnightblue" points="1041.67,-190.95 1043.18,-201.44 1048.54,-192.3 1041.67,-190.95"/>
</g>
<!-- Node11 -->
<g id="node11" class="node">
<title>Node11</title>
<g id="a_node11"><a xlink:href="body__control__system_8h.html" target="_top" xlink:title=" ">
<polygon fill="white" stroke="black" points="1069.5,-134.5 1069.5,-164.5 1197.5,-164.5 1197.5,-134.5 1069.5,-134.5"/>
<text text-anchor="start" x="1077.5" y="-152.5" font-family="Helvetica,sans-Serif" font-size="10.00">src/game/system/body</text>
<text text-anchor="middle" x="1133.5" y="-141.5" font-family="Helvetica,sans-Serif" font-size="10.00">_control_system.h</text>
</a>
</g>
</g>
<!-- Node8&#45;&gt;Node11 -->
<g id="edge10" class="edge">
<title>Node8&#45;&gt;Node11</title>
<path fill="none" stroke="midnightblue" d="M1063.13,-196.01C1077.81,-186.52 1097.13,-174.02 1111.82,-164.52"/>
<polygon fill="midnightblue" stroke="midnightblue" points="1061.18,-193.11 1054.68,-201.48 1064.98,-198.98 1061.18,-193.11"/>
</g>
<!-- Node14 -->
<g id="node14" class="node">
<title>Node14</title>
<g id="a_node14"><a xlink:href="head__control__system_8h.html" target="_top" xlink:title=" ">
<polygon fill="white" stroke="black" points="1215.5,-134.5 1215.5,-164.5 1343.5,-164.5 1343.5,-134.5 1215.5,-134.5"/>
<text text-anchor="start" x="1223.5" y="-152.5" font-family="Helvetica,sans-Serif" font-size="10.00">src/game/system/head</text>
<text text-anchor="middle" x="1279.5" y="-141.5" font-family="Helvetica,sans-Serif" font-size="10.00">_control_system.h</text>
</a>
</g>
</g>
<!-- Node8&#45;&gt;Node14 -->
<g id="edge14" class="edge">
<title>Node8&#45;&gt;Node14</title>
<path fill="none" stroke="midnightblue" d="M1085.57,-198.98C1124.44,-189.27 1181.3,-175.05 1223.41,-164.52"/>
<polygon fill="midnightblue" stroke="midnightblue" points="1084.45,-195.65 1075.6,-201.48 1086.15,-202.45 1084.45,-195.65"/>
</g>
<!-- Node15 -->
<g id="node15" class="node">
<title>Node15</title>
<g id="a_node15"><a xlink:href="motion__test__system_8h.html" target="_top" xlink:title=" ">
<polygon fill="white" stroke="black" points="1361.5,-134.5 1361.5,-164.5 1499.5,-164.5 1499.5,-134.5 1361.5,-134.5"/>
<text text-anchor="start" x="1369.5" y="-152.5" font-family="Helvetica,sans-Serif" font-size="10.00">src/game/system/motion</text>
<text text-anchor="middle" x="1430.5" y="-141.5" font-family="Helvetica,sans-Serif" font-size="10.00">_test_system.h</text>
</a>
</g>
</g>
<!-- Node8&#45;&gt;Node15 -->
<g id="edge16" class="edge">
<title>Node8&#45;&gt;Node15</title>
<path fill="none" stroke="midnightblue" d="M1115.9,-200.09C1178.98,-191.48 1271.81,-178.33 1352.5,-165 1355.35,-164.53 1358.26,-164.04 1361.2,-163.53"/>
<polygon fill="midnightblue" stroke="midnightblue" points="1115.08,-196.67 1105.65,-201.48 1116.03,-203.6 1115.08,-196.67"/>
</g>
<!-- Node12 -->
<g id="node12" class="node">
<title>Node12</title>
<g id="a_node12"><a xlink:href="game__scene_8h.html" target="_top" xlink:title=" ">
<polygon fill="white" stroke="black" points="1197.5,-67.5 1197.5,-97.5 1321.5,-97.5 1321.5,-67.5 1197.5,-67.5"/>
<text text-anchor="start" x="1205.5" y="-85.5" font-family="Helvetica,sans-Serif" font-size="10.00">src/game/scene/game</text>
<text text-anchor="middle" x="1259.5" y="-74.5" font-family="Helvetica,sans-Serif" font-size="10.00">_scene.h</text>
</a>
</g>
</g>
<!-- Node11&#45;&gt;Node12 -->
<g id="edge11" class="edge">
<title>Node11&#45;&gt;Node12</title>
<path fill="none" stroke="midnightblue" d="M1169.92,-129.71C1189.79,-119.46 1213.98,-106.98 1232.21,-97.58"/>
<polygon fill="midnightblue" stroke="midnightblue" points="1168.12,-126.7 1160.84,-134.4 1171.33,-132.92 1168.12,-126.7"/>
</g>
<!-- Node12&#45;&gt;Node10 -->
<g id="edge12" class="edge">
<title>Node12&#45;&gt;Node10</title>
<path fill="none" stroke="midnightblue" d="M1210.91,-63.96C1181.92,-53.48 1145.59,-40.37 1118.48,-30.58"/>
<polygon fill="midnightblue" stroke="midnightblue" points="1209.85,-67.29 1220.44,-67.4 1212.23,-60.71 1209.85,-67.29"/>
</g>
<!-- Node13 -->
<g id="node13" class="node">
<title>Node13</title>
<g id="a_node13"><a xlink:href="scene__manager_8cpp.html" target="_top" xlink:title=" ">
<polygon fill="white" stroke="black" points="1178.5,-6 1178.5,-25 1340.5,-25 1340.5,-6 1178.5,-6"/>
<text text-anchor="middle" x="1259.5" y="-13" font-family="Helvetica,sans-Serif" font-size="10.00">src/scene/scene_manager.cpp</text>
</a>
</g>
</g>
<!-- Node12&#45;&gt;Node13 -->
<g id="edge13" class="edge">
<title>Node12&#45;&gt;Node13</title>
<path fill="none" stroke="midnightblue" d="M1259.5,-57.25C1259.5,-46.02 1259.5,-33.38 1259.5,-25.19"/>
<polygon fill="midnightblue" stroke="midnightblue" points="1256,-57.4 1259.5,-67.4 1263,-57.4 1256,-57.4"/>
</g>
<!-- Node14&#45;&gt;Node12 -->
<g id="edge15" class="edge">
<title>Node14&#45;&gt;Node12</title>
<path fill="none" stroke="midnightblue" d="M1272.18,-124.7C1269.37,-115.59 1266.27,-105.49 1263.83,-97.58"/>
<polygon fill="midnightblue" stroke="midnightblue" points="1268.87,-125.87 1275.16,-134.4 1275.56,-123.81 1268.87,-125.87"/>
</g>
<!-- Node15&#45;&gt;Node12 -->
<g id="edge17" class="edge">
<title>Node15&#45;&gt;Node12</title>
<path fill="none" stroke="midnightblue" d="M1383.98,-130.82C1356.5,-120.37 1322.17,-107.32 1296.53,-97.58"/>
<polygon fill="midnightblue" stroke="midnightblue" points="1382.8,-134.11 1393.4,-134.4 1385.29,-127.57 1382.8,-134.11"/>
</g>
<!-- Node16&#45;&gt;Node6 -->
<g id="edge20" class="edge">
<title>Node16&#45;&gt;Node6</title>
<path fill="none" stroke="midnightblue" d="M752.5,-191.32C752.5,-180.5 752.5,-167.4 752.5,-159.01"/>
<polygon fill="midnightblue" stroke="midnightblue" points="749,-191.48 752.5,-201.48 756,-191.48 749,-191.48"/>
</g>
</g>
</svg>
