<?xml version="1.0" encoding="UTF-8" standalone="no"?>
<!DOCTYPE svg PUBLIC "-//W3C//DTD SVG 1.1//EN"
 "http://www.w3.org/Graphics/SVG/1.1/DTD/svg11.dtd">
<!-- Generated by graphviz version 2.43.0 (0)
 -->
<!-- Title: src/graphics/lighting/lighting.h Pages: 1 -->
<svg width="1144pt" height="173pt"
 viewBox="0.00 0.00 1143.50 173.00" xmlns="http://www.w3.org/2000/svg" xmlns:xlink="http://www.w3.org/1999/xlink">
<g id="graph0" class="graph" transform="scale(1 1) rotate(0) translate(4 169)">
<title>src/graphics/lighting/lighting.h</title>
<polygon fill="white" stroke="transparent" points="-4,4 -4,-169 1139.5,-169 1139.5,4 -4,4"/>
<!-- Node1 -->
<g id="node1" class="node">
<title>Node1</title>
<g id="a_node1"><a xlink:title=" ">
<polygon fill="#bfbfbf" stroke="black" points="326,-134.5 326,-164.5 441,-164.5 441,-134.5 326,-134.5"/>
<text text-anchor="start" x="334" y="-152.5" font-family="Helvetica,sans-Serif" font-size="10.00">src/graphics/lighting</text>
<text text-anchor="middle" x="383.5" y="-141.5" font-family="Helvetica,sans-Serif" font-size="10.00">/lighting.h</text>
</a>
</g>
</g>
<!-- Node2 -->
<g id="node2" class="node">
<title>Node2</title>
<g id="a_node2"><a xlink:href="lighting_8cpp.html" target="_top" xlink:title=" ">
<polygon fill="white" stroke="black" points="58,-67.5 58,-97.5 173,-97.5 173,-67.5 58,-67.5"/>
<text text-anchor="start" x="66" y="-85.5" font-family="Helvetica,sans-Serif" font-size="10.00">src/graphics/lighting</text>
<text text-anchor="middle" x="115.5" y="-74.5" font-family="Helvetica,sans-Serif" font-size="10.00">/lighting.cpp</text>
</a>
</g>
</g>
<!-- Node1&#45;&gt;Node2 -->
<g id="edge1" class="edge">
<title>Node1&#45;&gt;Node2</title>
<path fill="none" stroke="midnightblue" d="M315.92,-132.11C271.91,-121.44 215.11,-107.66 173.22,-97.5"/>
<polygon fill="midnightblue" stroke="midnightblue" points="315.13,-135.52 325.68,-134.48 316.78,-128.72 315.13,-135.52"/>
</g>
<!-- Node3 -->
<g id="node3" class="node">
<title>Node3</title>
<g id="a_node3"><a xlink:href="graphics__renderer_8h.html" target="_top" xlink:title=" ">
<polygon fill="white" stroke="black" points="191,-67.5 191,-97.5 310,-97.5 310,-67.5 191,-67.5"/>
<text text-anchor="start" x="199" y="-85.5" font-family="Helvetica,sans-Serif" font-size="10.00">src/graphics/renderer</text>
<text text-anchor="middle" x="250.5" y="-74.5" font-family="Helvetica,sans-Serif" font-size="10.00">/graphics_renderer.h</text>
</a>
</g>
</g>
<!-- Node1&#45;&gt;Node3 -->
<g id="edge2" class="edge">
<title>Node1&#45;&gt;Node3</title>
<path fill="none" stroke="midnightblue" d="M345.63,-129.99C324.55,-119.69 298.72,-107.07 279.3,-97.58"/>
<polygon fill="midnightblue" stroke="midnightblue" points="344.12,-133.15 354.64,-134.4 347.19,-126.86 344.12,-133.15"/>
</g>
<!-- Node7 -->
<g id="node7" class="node">
<title>Node7</title>
<g id="a_node7"><a xlink:href="forward__shader_8h.html" target="_top" xlink:title=" ">
<polygon fill="white" stroke="black" points="457,-67.5 457,-97.5 568,-97.5 568,-67.5 457,-67.5"/>
<text text-anchor="start" x="465" y="-85.5" font-family="Helvetica,sans-Serif" font-size="10.00">src/graphics/shader</text>
<text text-anchor="middle" x="512.5" y="-74.5" font-family="Helvetica,sans-Serif" font-size="10.00">/forward_shader.h</text>
</a>
</g>
</g>
<!-- Node1&#45;&gt;Node7 -->
<g id="edge6" class="edge">
<title>Node1&#45;&gt;Node7</title>
<path fill="none" stroke="midnightblue" d="M420.51,-129.85C440.9,-119.58 465.81,-107.03 484.56,-97.58"/>
<polygon fill="midnightblue" stroke="midnightblue" points="418.85,-126.77 411.49,-134.4 422,-133.02 418.85,-126.77"/>
</g>
<!-- Node9 -->
<g id="node9" class="node">
<title>Node9</title>
<g id="a_node9"><a xlink:href="lighting__shader_8h.html" target="_top" xlink:title=" ">
<polygon fill="white" stroke="black" points="328,-67.5 328,-97.5 439,-97.5 439,-67.5 328,-67.5"/>
<text text-anchor="start" x="336" y="-85.5" font-family="Helvetica,sans-Serif" font-size="10.00">src/graphics/shader</text>
<text text-anchor="middle" x="383.5" y="-74.5" font-family="Helvetica,sans-Serif" font-size="10.00">/lighting_shader.h</text>
</a>
</g>
</g>
<!-- Node1&#45;&gt;Node9 -->
<g id="edge10" class="edge">
<title>Node1&#45;&gt;Node9</title>
<path fill="none" stroke="midnightblue" d="M383.5,-124.11C383.5,-115.15 383.5,-105.32 383.5,-97.58"/>
<polygon fill="midnightblue" stroke="midnightblue" points="380,-124.4 383.5,-134.4 387,-124.4 380,-124.4"/>
</g>
<!-- Node11 -->
<g id="node11" class="node">
<title>Node11</title>
<g id="a_node11"><a xlink:href="texture__unit_8h.html" target="_top" xlink:title=" ">
<polygon fill="white" stroke="black" points="606,-67.5 606,-97.5 717,-97.5 717,-67.5 606,-67.5"/>
<text text-anchor="start" x="614" y="-85.5" font-family="Helvetica,sans-Serif" font-size="10.00">src/graphics/shader</text>
<text text-anchor="middle" x="661.5" y="-74.5" font-family="Helvetica,sans-Serif" font-size="10.00">/texture_unit.h</text>
</a>
</g>
</g>
<!-- Node1&#45;&gt;Node11 -->
<g id="edge14" class="edge">
<title>Node1&#45;&gt;Node11</title>
<path fill="none" stroke="midnightblue" d="M450.99,-132.72C498.47,-121.62 561.26,-106.94 605.87,-96.51"/>
<polygon fill="midnightblue" stroke="midnightblue" points="450.04,-129.35 441.1,-135.03 451.64,-136.16 450.04,-129.35"/>
</g>
<!-- Node4 -->
<g id="node4" class="node">
<title>Node4</title>
<g id="a_node4"><a xlink:href="application_8cpp.html" target="_top" xlink:title=" ">
<polygon fill="white" stroke="black" points="0,-6 0,-25 165,-25 165,-6 0,-6"/>
<text text-anchor="middle" x="82.5" y="-13" font-family="Helvetica,sans-Serif" font-size="10.00">src/application/application.cpp</text>
</a>
</g>
</g>
<!-- Node3&#45;&gt;Node4 -->
<g id="edge3" class="edge">
<title>Node3&#45;&gt;Node4</title>
<path fill="none" stroke="midnightblue" d="M204.71,-63.78C172.14,-51.18 129.82,-34.81 104.49,-25.01"/>
<polygon fill="midnightblue" stroke="midnightblue" points="203.46,-67.05 214.05,-67.4 205.98,-60.52 203.46,-67.05"/>
</g>
<!-- Node5 -->
<g id="node5" class="node">
<title>Node5</title>
<g id="a_node5"><a xlink:href="game__scene_8cpp.html" target="_top" xlink:title=" ">
<polygon fill="white" stroke="black" points="183.5,-0.5 183.5,-30.5 307.5,-30.5 307.5,-0.5 183.5,-0.5"/>
<text text-anchor="start" x="191.5" y="-18.5" font-family="Helvetica,sans-Serif" font-size="10.00">src/game/scene/game</text>
<text text-anchor="middle" x="245.5" y="-7.5" font-family="Helvetica,sans-Serif" font-size="10.00">_scene.cpp</text>
</a>
</g>
</g>
<!-- Node3&#45;&gt;Node5 -->
<g id="edge4" class="edge">
<title>Node3&#45;&gt;Node5</title>
<path fill="none" stroke="midnightblue" d="M248.65,-57.4C247.95,-48.37 247.19,-38.41 246.58,-30.58"/>
<polygon fill="midnightblue" stroke="midnightblue" points="245.16,-57.69 249.42,-67.4 252.14,-57.16 245.16,-57.69"/>
</g>
<!-- Node6 -->
<g id="node6" class="node">
<title>Node6</title>
<g id="a_node6"><a xlink:href="graphics__renderer_8cpp.html" target="_top" xlink:title=" ">
<polygon fill="white" stroke="black" points="326,-0.5 326,-30.5 453,-30.5 453,-0.5 326,-0.5"/>
<text text-anchor="start" x="334" y="-18.5" font-family="Helvetica,sans-Serif" font-size="10.00">src/graphics/renderer</text>
<text text-anchor="middle" x="389.5" y="-7.5" font-family="Helvetica,sans-Serif" font-size="10.00">/graphics_renderer.cpp</text>
</a>
</g>
</g>
<!-- Node3&#45;&gt;Node6 -->
<g id="edge5" class="edge">
<title>Node3&#45;&gt;Node6</title>
<path fill="none" stroke="midnightblue" d="M289.78,-63.13C311.87,-52.8 339.01,-40.11 359.4,-30.58"/>
<polygon fill="midnightblue" stroke="midnightblue" points="288.24,-59.99 280.66,-67.4 291.2,-66.33 288.24,-59.99"/>
</g>
<!-- Node7&#45;&gt;Node5 -->
<g id="edge7" class="edge">
<title>Node7&#45;&gt;Node5</title>
<path fill="none" stroke="midnightblue" d="M447.12,-65.58C403.14,-54.88 345.7,-40.89 303.38,-30.59"/>
<polygon fill="midnightblue" stroke="midnightblue" points="446.31,-68.99 456.85,-67.95 447.96,-62.19 446.31,-68.99"/>
</g>
<!-- Node7&#45;&gt;Node6 -->
<g id="edge8" class="edge">
<title>Node7&#45;&gt;Node6</title>
<path fill="none" stroke="midnightblue" d="M476.95,-62.71C457.55,-52.46 433.94,-39.98 416.14,-30.58"/>
<polygon fill="midnightblue" stroke="midnightblue" points="475.33,-65.82 485.81,-67.4 478.6,-59.63 475.33,-65.82"/>
</g>
<!-- Node8 -->
<g id="node8" class="node">
<title>Node8</title>
<g id="a_node8"><a xlink:href="forward__shader_8cpp.html" target="_top" xlink:title=" ">
<polygon fill="white" stroke="black" points="604,-0.5 604,-30.5 719,-30.5 719,-0.5 604,-0.5"/>
<text text-anchor="start" x="612" y="-18.5" font-family="Helvetica,sans-Serif" font-size="10.00">src/graphics/shader</text>
<text text-anchor="middle" x="661.5" y="-7.5" font-family="Helvetica,sans-Serif" font-size="10.00">/forward_shader.cpp</text>
</a>
</g>
</g>
<!-- Node7&#45;&gt;Node8 -->
<g id="edge9" class="edge">
<title>Node7&#45;&gt;Node8</title>
<path fill="none" stroke="midnightblue" d="M554.29,-63.27C578.02,-52.92 607.28,-40.15 629.23,-30.58"/>
<polygon fill="midnightblue" stroke="midnightblue" points="552.6,-60.19 544.83,-67.4 555.4,-66.61 552.6,-60.19"/>
</g>
<!-- Node9&#45;&gt;Node5 -->
<g id="edge11" class="edge">
<title>Node9&#45;&gt;Node5</title>
<path fill="none" stroke="midnightblue" d="M344.5,-63.13C322.57,-52.8 295.63,-40.11 275.39,-30.58"/>
<polygon fill="midnightblue" stroke="midnightblue" points="343.02,-66.3 353.56,-67.4 346,-59.97 343.02,-66.3"/>
</g>
<!-- Node9&#45;&gt;Node6 -->
<g id="edge12" class="edge">
<title>Node9&#45;&gt;Node6</title>
<path fill="none" stroke="midnightblue" d="M385.72,-57.4C386.56,-48.37 387.48,-38.41 388.2,-30.58"/>
<polygon fill="midnightblue" stroke="midnightblue" points="382.24,-57.12 384.8,-67.4 389.21,-57.76 382.24,-57.12"/>
</g>
<!-- Node10 -->
<g id="node10" class="node">
<title>Node10</title>
<g id="a_node10"><a xlink:href="lighting__shader_8cpp.html" target="_top" xlink:title=" ">
<polygon fill="white" stroke="black" points="471.5,-0.5 471.5,-30.5 585.5,-30.5 585.5,-0.5 471.5,-0.5"/>
<text text-anchor="start" x="479.5" y="-18.5" font-family="Helvetica,sans-Serif" font-size="10.00">src/graphics/shader</text>
<text text-anchor="middle" x="528.5" y="-7.5" font-family="Helvetica,sans-Serif" font-size="10.00">/lighting_shader.cpp</text>
</a>
</g>
</g>
<!-- Node9&#45;&gt;Node10 -->
<g id="edge13" class="edge">
<title>Node9&#45;&gt;Node10</title>
<path fill="none" stroke="midnightblue" d="M424.17,-63.27C447.26,-52.92 475.74,-40.15 497.1,-30.58"/>
<polygon fill="midnightblue" stroke="midnightblue" points="422.66,-60.11 414.96,-67.4 425.52,-66.5 422.66,-60.11"/>
</g>
<!-- Node11&#45;&gt;Node6 -->
<g id="edge15" class="edge">
<title>Node11&#45;&gt;Node6</title>
<path fill="none" stroke="midnightblue" d="M595.86,-65.81C550.92,-55.08 491.84,-40.96 448.42,-30.58"/>
<polygon fill="midnightblue" stroke="midnightblue" points="595.26,-69.27 605.8,-68.19 596.89,-62.46 595.26,-69.27"/>
</g>
<!-- Node11&#45;&gt;Node8 -->
<g id="edge16" class="edge">
<title>Node11&#45;&gt;Node8</title>
<path fill="none" stroke="midnightblue" d="M661.5,-57.11C661.5,-48.15 661.5,-38.32 661.5,-30.58"/>
<polygon fill="midnightblue" stroke="midnightblue" points="658,-57.4 661.5,-67.4 665,-57.4 658,-57.4"/>
</g>
<!-- Node11&#45;&gt;Node10 -->
<g id="edge18" class="edge">
<title>Node11&#45;&gt;Node10</title>
<path fill="none" stroke="midnightblue" d="M623.63,-62.99C602.55,-52.69 576.72,-40.07 557.3,-30.58"/>
<polygon fill="midnightblue" stroke="midnightblue" points="622.12,-66.15 632.64,-67.4 625.19,-59.86 622.12,-66.15"/>
</g>
<!-- Node12 -->
<g id="node12" class="node">
<title>Node12</title>
<g id="a_node12"><a xlink:href="geometry__shader_8cpp.html" target="_top" xlink:title=" ">
<polygon fill="white" stroke="black" points="737,-0.5 737,-30.5 862,-30.5 862,-0.5 737,-0.5"/>
<text text-anchor="start" x="745" y="-18.5" font-family="Helvetica,sans-Serif" font-size="10.00">src/graphics/shader</text>
<text text-anchor="middle" x="799.5" y="-7.5" font-family="Helvetica,sans-Serif" font-size="10.00">/geometry_shader.cpp</text>
</a>
</g>
</g>
<!-- Node11&#45;&gt;Node12 -->
<g id="edge17" class="edge">
<title>Node11&#45;&gt;Node12</title>
<path fill="none" stroke="midnightblue" d="M700.5,-63.13C722.43,-52.8 749.37,-40.11 769.61,-30.58"/>
<polygon fill="midnightblue" stroke="midnightblue" points="699,-59.97 691.44,-67.4 701.98,-66.3 699,-59.97"/>
</g>
<!-- Node13 -->
<g id="node13" class="node">
<title>Node13</title>
<g id="a_node13"><a xlink:href="post__proc__shader_8cpp.html" target="_top" xlink:title=" ">
<polygon fill="white" stroke="black" points="880,-0.5 880,-30.5 1005,-30.5 1005,-0.5 880,-0.5"/>
<text text-anchor="start" x="888" y="-18.5" font-family="Helvetica,sans-Serif" font-size="10.00">src/graphics/shader</text>
<text text-anchor="middle" x="942.5" y="-7.5" font-family="Helvetica,sans-Serif" font-size="10.00">/post_proc_shader.cpp</text>
</a>
</g>
</g>
<!-- Node11&#45;&gt;Node13 -->
<g id="edge19" class="edge">
<title>Node11&#45;&gt;Node13</title>
<path fill="none" stroke="midnightblue" d="M727.04,-66.34C773.76,-55.53 836.13,-41.1 881.74,-30.55"/>
<polygon fill="midnightblue" stroke="midnightblue" points="725.97,-62.99 717.02,-68.66 727.55,-69.81 725.97,-62.99"/>
</g>
<!-- Node14 -->
<g id="node14" class="node">
<title>Node14</title>
<g id="a_node14"><a xlink:href="skybox__shader_8cpp.html" target="_top" xlink:title=" ">
<polygon fill="white" stroke="black" points="1023.5,-0.5 1023.5,-30.5 1135.5,-30.5 1135.5,-0.5 1023.5,-0.5"/>
<text text-anchor="start" x="1031.5" y="-18.5" font-family="Helvetica,sans-Serif" font-size="10.00">src/graphics/shader</text>
<text text-anchor="middle" x="1079.5" y="-7.5" font-family="Helvetica,sans-Serif" font-size="10.00">/skybox_shader.cpp</text>
</a>
</g>
</g>
<!-- Node11&#45;&gt;Node14 -->
<g id="edge20" class="edge">
<title>Node11&#45;&gt;Node14</title>
<path fill="none" stroke="midnightblue" d="M727.2,-73.65C798.27,-64.79 914.81,-49.22 1014.5,-31 1017.34,-30.48 1020.25,-29.92 1023.18,-29.34"/>
<polygon fill="midnightblue" stroke="midnightblue" points="726.54,-70.2 717.05,-74.9 727.4,-77.15 726.54,-70.2"/>
</g>
</g>
</svg>
