<?xml version="1.0" encoding="UTF-8" standalone="no"?>
<!DOCTYPE svg PUBLIC "-//W3C//DTD SVG 1.1//EN"
 "http://www.w3.org/Graphics/SVG/1.1/DTD/svg11.dtd">
<!-- Generated by graphviz version 2.43.0 (0)
 -->
<!-- Title: src/graphics/shader/light_shader.h Pages: 1 -->
<!--zoomable 285 -->
<svg id="main" version="1.1" xmlns="http://www.w3.org/2000/svg" xmlns:xlink="http://www.w3.org/1999/xlink" xml:space="preserve" onload="init(evt)">
<style type="text/css"><![CDATA[
.edge:hover path { stroke: red; }
.edge:hover polygon { stroke: red; fill: red; }
]]></style>
<script type="text/javascript"><![CDATA[
var edges = document.getElementsByTagName('g');
if (edges && edges.length) {
  for (var i=0;i<edges.length;i++) {
    if (edges[i].id.substr(0,4)=='edge') {
      edges[i].setAttribute('class','edge');
    }
  }
}
]]></script>
        <defs>
                <circle id="rim" cx="0" cy="0" r="7"/>
                <circle id="rim2" cx="0" cy="0" r="3.5"/>
                <g id="zoomPlus">
                        <use xlink:href="#rim" fill="#404040">
                                <set attributeName="fill" to="#808080" begin="zoomplus.mouseover" end="zoomplus.mouseout"/>
                        </use>
                        <path d="M-4,0h8M0,-4v8" fill="none" stroke="white" stroke-width="1.5" pointer-events="none"/>
                </g>
                <g id="zoomMin">
                        <use xlink:href="#rim" fill="#404040">
                                <set attributeName="fill" to="#808080" begin="zoomminus.mouseover" end="zoomminus.mouseout"/>
                        </use>
                        <path d="M-4,0h8" fill="none" stroke="white" stroke-width="1.5" pointer-events="none"/>
                </g>
                <g id="dirArrow">
                        <path fill="none" stroke="white" stroke-width="1.5" d="M0,-3.0v7 M-2.5,-0.5L0,-3.0L2.5,-0.5"/>
                </g>
               <g id="resetDef">
                       <use xlink:href="#rim2" fill="#404040">
                               <set attributeName="fill" to="#808080" begin="reset.mouseover" end="reset.mouseout"/>
                       </use>
               </g>
        </defs>

<script type="text/javascript">
var viewWidth = 1016;
var viewHeight = 285;
var sectionId = 'dynsection-0';
</script>
<script xlink:href="svgpan.js"/>
<svg id="graph" class="graph">
<g id="viewport">
<title>src/graphics/shader/light_shader.h</title>
<polygon fill="white" stroke="transparent" points="-4,4 -4,-281 1012,-281 1012,4 -4,4"/>
<!-- Node1 -->
<g id="node1" class="node">
<title>Node1</title>
<g id="a_node1"><a xlink:title=" ">
<polygon fill="#bfbfbf" stroke="black" points="210.5,-246.5 210.5,-276.5 321.5,-276.5 321.5,-246.5 210.5,-246.5"/>
<text text-anchor="start" x="218.5" y="-264.5" font-family="Helvetica,sans-Serif" font-size="10.00">src/graphics/shader</text>
<text text-anchor="middle" x="266" y="-253.5" font-family="Helvetica,sans-Serif" font-size="10.00">/light_shader.h</text>
</a>
</g>
</g>
<!-- Node2 -->
<g id="node2" class="node">
<title>Node2</title>
<g id="a_node2"><a xlink:href="shader__program_8h.html" target="_top" xlink:title=" ">
<polygon fill="white" stroke="black" points="201,-179.5 201,-209.5 331,-209.5 331,-179.5 201,-179.5"/>
<text text-anchor="start" x="209" y="-197.5" font-family="Helvetica,sans-Serif" font-size="10.00">graphics/shader/shader</text>
<text text-anchor="middle" x="266" y="-186.5" font-family="Helvetica,sans-Serif" font-size="10.00">_program.h</text>
</a>
</g>
</g>
<!-- Node1&#45;&gt;Node2 -->
<g id="edge1" class="edge">
<title>Node1&#45;&gt;Node2</title>
<path fill="none" stroke="midnightblue" d="M266,-246.4C266,-238.64 266,-228.81 266,-219.86"/>
<polygon fill="midnightblue" stroke="midnightblue" points="269.5,-219.58 266,-209.58 262.5,-219.58 269.5,-219.58"/>
</g>
<!-- Node3 -->
<g id="node3" class="node">
<title>Node3</title>
<g id="a_node3"><a xlink:title=" ">
<polygon fill="white" stroke="#bfbfbf" points="0,-123.5 0,-142.5 44,-142.5 44,-123.5 0,-123.5"/>
<text text-anchor="middle" x="22" y="-130.5" font-family="Helvetica,sans-Serif" font-size="10.00">string</text>
</a>
</g>
</g>
<!-- Node2&#45;&gt;Node3 -->
<g id="edge2" class="edge">
<title>Node2&#45;&gt;Node3</title>
<path fill="none" stroke="midnightblue" d="M202.88,-179.4C162.8,-170.25 109.6,-157.73 54.3,-143.25"/>
<polygon fill="midnightblue" stroke="midnightblue" points="54.88,-139.79 44.31,-140.62 53.09,-146.55 54.88,-139.79"/>
</g>
<!-- Node4 -->
<g id="node4" class="node">
<title>Node4</title>
<g id="a_node4"><a xlink:title=" ">
<polygon fill="white" stroke="#bfbfbf" points="62.5,-123.5 62.5,-142.5 109.5,-142.5 109.5,-123.5 62.5,-123.5"/>
<text text-anchor="middle" x="86" y="-130.5" font-family="Helvetica,sans-Serif" font-size="10.00">vector</text>
</a>
</g>
</g>
<!-- Node2&#45;&gt;Node4 -->
<g id="edge3" class="edge">
<title>Node2&#45;&gt;Node4</title>
<path fill="none" stroke="midnightblue" d="M223.34,-179.4C191.54,-168.89 148.71,-154.73 119.38,-145.03"/>
<polygon fill="midnightblue" stroke="midnightblue" points="120.2,-141.62 109.61,-141.8 118.01,-148.27 120.2,-141.62"/>
</g>
<!-- Node5 -->
<g id="node5" class="node">
<title>Node5</title>
<g id="a_node5"><a xlink:title=" ">
<polygon fill="white" stroke="#bfbfbf" points="444,-0.5 444,-19.5 508,-19.5 508,-0.5 444,-0.5"/>
<text text-anchor="middle" x="476" y="-7.5" font-family="Helvetica,sans-Serif" font-size="10.00">GL/glew.h</text>
</a>
</g>
</g>
<!-- Node2&#45;&gt;Node5 -->
<g id="edge4" class="edge">
<title>Node2&#45;&gt;Node5</title>
<path fill="none" stroke="midnightblue" d="M209.02,-179.42C173.81,-167.81 138.56,-149.02 157,-123 220.68,-33.15 362.36,-14.84 433.51,-11.47"/>
<polygon fill="midnightblue" stroke="midnightblue" points="434.03,-14.95 443.89,-11.06 433.76,-7.96 434.03,-14.95"/>
</g>
<!-- Node6 -->
<g id="node6" class="node">
<title>Node6</title>
<g id="a_node6"><a xlink:title=" ">
<polygon fill="white" stroke="#bfbfbf" points="166.5,-123.5 166.5,-142.5 255.5,-142.5 255.5,-123.5 166.5,-123.5"/>
<text text-anchor="middle" x="211" y="-130.5" font-family="Helvetica,sans-Serif" font-size="10.00">maths/colour.h</text>
</a>
</g>
</g>
<!-- Node2&#45;&gt;Node6 -->
<g id="edge5" class="edge">
<title>Node2&#45;&gt;Node6</title>
<path fill="none" stroke="midnightblue" d="M252.97,-179.4C244.81,-170.58 234.28,-159.18 225.81,-150.02"/>
<polygon fill="midnightblue" stroke="midnightblue" points="228.36,-147.63 219,-142.66 223.22,-152.38 228.36,-147.63"/>
</g>
<!-- Node7 -->
<g id="node7" class="node">
<title>Node7</title>
<g id="a_node7"><a xlink:title=" ">
<polygon fill="white" stroke="#bfbfbf" points="274,-123.5 274,-142.5 370,-142.5 370,-123.5 274,-123.5"/>
<text text-anchor="middle" x="322" y="-130.5" font-family="Helvetica,sans-Serif" font-size="10.00">maths/vector2.h</text>
</a>
</g>
</g>
<!-- Node2&#45;&gt;Node7 -->
<g id="edge6" class="edge">
<title>Node2&#45;&gt;Node7</title>
<path fill="none" stroke="midnightblue" d="M279.27,-179.4C287.58,-170.58 298.3,-159.18 306.92,-150.02"/>
<polygon fill="midnightblue" stroke="midnightblue" points="309.55,-152.34 313.85,-142.66 304.45,-147.54 309.55,-152.34"/>
</g>
<!-- Node8 -->
<g id="node8" class="node">
<title>Node8</title>
<g id="a_node8"><a xlink:title=" ">
<polygon fill="white" stroke="#bfbfbf" points="388,-123.5 388,-142.5 484,-142.5 484,-123.5 388,-123.5"/>
<text text-anchor="middle" x="436" y="-130.5" font-family="Helvetica,sans-Serif" font-size="10.00">maths/vector3.h</text>
</a>
</g>
</g>
<!-- Node2&#45;&gt;Node8 -->
<g id="edge7" class="edge">
<title>Node2&#45;&gt;Node8</title>
<path fill="none" stroke="midnightblue" d="M306.29,-179.4C335.32,-169.24 374.08,-155.67 401.65,-146.02"/>
<polygon fill="midnightblue" stroke="midnightblue" points="402.98,-149.26 411.26,-142.66 400.67,-142.66 402.98,-149.26"/>
</g>
<!-- Node9 -->
<g id="node9" class="node">
<title>Node9</title>
<g id="a_node9"><a xlink:title=" ">
<polygon fill="white" stroke="#bfbfbf" points="502,-123.5 502,-142.5 594,-142.5 594,-123.5 502,-123.5"/>
<text text-anchor="middle" x="548" y="-130.5" font-family="Helvetica,sans-Serif" font-size="10.00">maths/matrix.h</text>
</a>
</g>
</g>
<!-- Node2&#45;&gt;Node9 -->
<g id="edge8" class="edge">
<title>Node2&#45;&gt;Node9</title>
<path fill="none" stroke="midnightblue" d="M331.05,-179.77C381.82,-169.06 451.3,-154.4 497.83,-144.59"/>
<polygon fill="midnightblue" stroke="midnightblue" points="498.62,-148 507.68,-142.51 497.17,-141.15 498.62,-148"/>
</g>
<!-- Node10 -->
<g id="node10" class="node">
<title>Node10</title>
<g id="a_node10"><a xlink:href="texture_8h.html" target="_top" xlink:title=" ">
<polygon fill="white" stroke="black" points="612.5,-123.5 612.5,-142.5 755.5,-142.5 755.5,-123.5 612.5,-123.5"/>
<text text-anchor="middle" x="684" y="-130.5" font-family="Helvetica,sans-Serif" font-size="10.00">graphics/texture/texture.h</text>
</a>
</g>
</g>
<!-- Node2&#45;&gt;Node10 -->
<g id="edge9" class="edge">
<title>Node2&#45;&gt;Node10</title>
<path fill="none" stroke="midnightblue" d="M331.31,-184.2C408.11,-173.27 535.09,-155.2 613.91,-143.98"/>
<polygon fill="midnightblue" stroke="midnightblue" points="614.81,-147.38 624.22,-142.51 613.83,-140.45 614.81,-147.38"/>
</g>
<!-- Node10&#45;&gt;Node5 -->
<g id="edge13" class="edge">
<title>Node10&#45;&gt;Node5</title>
<path fill="none" stroke="midnightblue" d="M616.55,-123.43C569.51,-116.1 512.21,-104.02 495,-87 479.99,-72.16 476.2,-47.38 475.54,-30.17"/>
<polygon fill="midnightblue" stroke="midnightblue" points="479.03,-29.66 475.48,-19.68 472.03,-29.7 479.03,-29.66"/>
</g>
<!-- Node11 -->
<g id="node11" class="node">
<title>Node11</title>
<g id="a_node11"><a xlink:title=" ">
<polygon fill="white" stroke="#bfbfbf" points="504,-62 504,-81 546,-81 546,-62 504,-62"/>
<text text-anchor="middle" x="525" y="-69" font-family="Helvetica,sans-Serif" font-size="10.00">array</text>
</a>
</g>
</g>
<!-- Node10&#45;&gt;Node11 -->
<g id="edge10" class="edge">
<title>Node10&#45;&gt;Node11</title>
<path fill="none" stroke="midnightblue" d="M656.73,-123.49C630.39,-115.04 589.51,-101.3 555,-87 553.8,-86.5 552.57,-85.98 551.34,-85.44"/>
<polygon fill="midnightblue" stroke="midnightblue" points="552.53,-82.13 541.98,-81.12 549.6,-88.49 552.53,-82.13"/>
</g>
<!-- Node12 -->
<g id="node12" class="node">
<title>Node12</title>
<g id="a_node12"><a xlink:title=" ">
<polygon fill="white" stroke="#bfbfbf" points="564.5,-62 564.5,-81 611.5,-81 611.5,-62 564.5,-62"/>
<text text-anchor="middle" x="588" y="-69" font-family="Helvetica,sans-Serif" font-size="10.00">cmath</text>
</a>
</g>
</g>
<!-- Node10&#45;&gt;Node12 -->
<g id="edge11" class="edge">
<title>Node10&#45;&gt;Node12</title>
<path fill="none" stroke="midnightblue" d="M670.25,-123.48C654.63,-113.8 628.94,-97.87 610.42,-86.39"/>
<polygon fill="midnightblue" stroke="midnightblue" points="612.07,-83.3 601.73,-81.01 608.38,-89.25 612.07,-83.3"/>
</g>
<!-- Node13 -->
<g id="node13" class="node">
<title>Node13</title>
<g id="a_node13"><a xlink:title=" ">
<polygon fill="white" stroke="#bfbfbf" points="630,-62 630,-81 738,-81 738,-62 630,-62"/>
<text text-anchor="middle" x="684" y="-69" font-family="Helvetica,sans-Serif" font-size="10.00">SDL2/SDL_image.h</text>
</a>
</g>
</g>
<!-- Node10&#45;&gt;Node13 -->
<g id="edge12" class="edge">
<title>Node10&#45;&gt;Node13</title>
<path fill="none" stroke="midnightblue" d="M684,-123.48C684,-115.08 684,-101.98 684,-91.16"/>
<polygon fill="midnightblue" stroke="midnightblue" points="687.5,-91.01 684,-81.01 680.5,-91.01 687.5,-91.01"/>
</g>
<!-- Node14 -->
<g id="node14" class="node">
<title>Node14</title>
<g id="a_node14"><a xlink:title=" ">
<polygon fill="white" stroke="#bfbfbf" points="756.5,-62 756.5,-81 867.5,-81 867.5,-62 756.5,-62"/>
<text text-anchor="middle" x="812" y="-69" font-family="Helvetica,sans-Serif" font-size="10.00">maths/maths_util.h</text>
</a>
</g>
</g>
<!-- Node10&#45;&gt;Node14 -->
<g id="edge14" class="edge">
<title>Node10&#45;&gt;Node14</title>
<path fill="none" stroke="midnightblue" d="M702.34,-123.48C723.82,-113.49 759.62,-96.85 784.45,-85.31"/>
<polygon fill="midnightblue" stroke="midnightblue" points="786.1,-88.4 793.69,-81.01 783.15,-82.05 786.1,-88.4"/>
</g>
<!-- Node15 -->
<g id="node15" class="node">
<title>Node15</title>
<g id="a_node15"><a xlink:href="pixel__format_8h.html" target="_top" xlink:title=" ">
<polygon fill="white" stroke="black" points="886,-56.5 886,-86.5 1008,-86.5 1008,-56.5 886,-56.5"/>
<text text-anchor="start" x="894" y="-74.5" font-family="Helvetica,sans-Serif" font-size="10.00">graphics/texture/pixel</text>
<text text-anchor="middle" x="947" y="-63.5" font-family="Helvetica,sans-Serif" font-size="10.00">_format.h</text>
</a>
</g>
</g>
<!-- Node10&#45;&gt;Node15 -->
<g id="edge15" class="edge">
<title>Node10&#45;&gt;Node15</title>
<path fill="none" stroke="midnightblue" d="M721.68,-123.48C761.74,-114.41 826.05,-99.86 875.73,-88.62"/>
<polygon fill="midnightblue" stroke="midnightblue" points="876.79,-91.97 885.78,-86.35 875.25,-85.14 876.79,-91.97"/>
</g>
<!-- Node15&#45;&gt;Node5 -->
<g id="edge17" class="edge">
<title>Node15&#45;&gt;Node5</title>
<path fill="none" stroke="midnightblue" d="M885.87,-57.65C882.54,-57.07 879.23,-56.51 876,-56 746.23,-35.49 591.33,-20.84 518.2,-14.5"/>
<polygon fill="midnightblue" stroke="midnightblue" points="518.28,-10.99 508.02,-13.62 517.68,-17.97 518.28,-10.99"/>
</g>
<!-- Node16 -->
<g id="node16" class="node">
<title>Node16</title>
<g id="a_node16"><a xlink:title=" ">
<polygon fill="white" stroke="#bfbfbf" points="914.5,-0.5 914.5,-19.5 979.5,-19.5 979.5,-0.5 914.5,-0.5"/>
<text text-anchor="middle" x="947" y="-7.5" font-family="Helvetica,sans-Serif" font-size="10.00">stdexcept</text>
</a>
</g>
</g>
<!-- Node15&#45;&gt;Node16 -->
<g id="edge16" class="edge">
<title>Node15&#45;&gt;Node16</title>
<path fill="none" stroke="midnightblue" d="M947,-56.4C947,-48.47 947,-38.46 947,-29.86"/>
<polygon fill="midnightblue" stroke="midnightblue" points="950.5,-29.66 947,-19.66 943.5,-29.66 950.5,-29.66"/>
</g>
</g>
</svg>
        <g id="navigator" transform="translate(0 0)" fill="#404254">
                <rect fill="#f2f5e9" fill-opacity="0.5" stroke="#606060" stroke-width=".5" x="0" y="0" width="60" height="60"/>
                <use id="zoomplus" xlink:href="#zoomPlus" x="17" y="9" onmousedown="handleZoom(evt,'in')"/>
                <use id="zoomminus" xlink:href="#zoomMin" x="42" y="9" onmousedown="handleZoom(evt,'out')"/>
                <use id="reset" xlink:href="#resetDef" x="30" y="36" onmousedown="handleReset()"/>
                <g id="arrowUp" xlink:href="#dirArrow" transform="translate(30 24)" onmousedown="handlePan(0,-1)">
                  <use xlink:href="#rim" fill="#404040">
                        <set attributeName="fill" to="#808080" begin="arrowUp.mouseover" end="arrowUp.mouseout"/>
                  </use>
                  <path fill="none" stroke="white" stroke-width="1.5" d="M0,-3.0v7 M-2.5,-0.5L0,-3.0L2.5,-0.5"/>
                </g>
                <g id="arrowRight" xlink:href="#dirArrow" transform="rotate(90) translate(36 -43)" onmousedown="handlePan(1,0)">
                  <use xlink:href="#rim" fill="#404040">
                        <set attributeName="fill" to="#808080" begin="arrowRight.mouseover" end="arrowRight.mouseout"/>
                  </use>
                  <path fill="none" stroke="white" stroke-width="1.5" d="M0,-3.0v7 M-2.5,-0.5L0,-3.0L2.5,-0.5"/>
                </g>
                <g id="arrowDown" xlink:href="#dirArrow" transform="rotate(180) translate(-30 -48)" onmousedown="handlePan(0,1)">
                  <use xlink:href="#rim" fill="#404040">
                        <set attributeName="fill" to="#808080" begin="arrowDown.mouseover" end="arrowDown.mouseout"/>
                  </use>
                  <path fill="none" stroke="white" stroke-width="1.5" d="M0,-3.0v7 M-2.5,-0.5L0,-3.0L2.5,-0.5"/>
                </g>
                <g id="arrowLeft" xlink:href="#dirArrow" transform="rotate(270) translate(-36 17)" onmousedown="handlePan(-1,0)">
                  <use xlink:href="#rim" fill="#404040">
                        <set attributeName="fill" to="#808080" begin="arrowLeft.mouseover" end="arrowLeft.mouseout"/>
                  </use>
                  <path fill="none" stroke="white" stroke-width="1.5" d="M0,-3.0v7 M-2.5,-0.5L0,-3.0L2.5,-0.5"/>
                </g>
        </g>
        <svg viewBox="0 0 15 15" width="100%" height="30px" preserveAspectRatio="xMaxYMin meet">
         <g id="arrow_out" transform="scale(0.3 0.3)">
          <a xlink:href="light__shader_8h__incl_org.svg" target="_base">
           <rect id="button" ry="5" rx="5" y="6" x="6" height="38" width="38"
                fill="#f2f5e9" fill-opacity="0.5" stroke="#606060" stroke-width="1.0"/>
           <path id="arrow"
             d="M 11.500037,31.436501 C 11.940474,20.09759 22.043105,11.32322 32.158766,21.979434 L 37.068811,17.246167 C 37.068811,17.246167 37.088388,32 37.088388,32 L 22.160133,31.978069 C 22.160133,31.978069 26.997745,27.140456 26.997745,27.140456 C 18.528582,18.264221 13.291696,25.230495 11.500037,31.436501 z"
             style="fill:#404040;"/>
          </a>
         </g>
        </svg>
</svg>
