<?xml version="1.0" encoding="UTF-8" standalone="no"?>
<!DOCTYPE svg PUBLIC "-//W3C//DTD SVG 1.1//EN"
 "http://www.w3.org/Graphics/SVG/1.1/DTD/svg11.dtd">
<!-- Generated by graphviz version 2.43.0 (0)
 -->
<!-- Title: src/graphics/lighting/lighting.h Pages: 1 -->
<!--zoomable 240 -->
<svg id="main" version="1.1" xmlns="http://www.w3.org/2000/svg" xmlns:xlink="http://www.w3.org/1999/xlink" xml:space="preserve" onload="init(evt)">
<style type="text/css"><![CDATA[
.edge:hover path { stroke: red; }
.edge:hover polygon { stroke: red; fill: red; }
]]></style>
<script type="text/javascript"><![CDATA[
var edges = document.getElementsByTagName('g');
if (edges && edges.length) {
  for (var i=0;i<edges.length;i++) {
    if (edges[i].id.substr(0,4)=='edge') {
      edges[i].setAttribute('class','edge');
    }
  }
}
]]></script>
        <defs>
                <circle id="rim" cx="0" cy="0" r="7"/>
                <circle id="rim2" cx="0" cy="0" r="3.5"/>
                <g id="zoomPlus">
                        <use xlink:href="#rim" fill="#404040">
                                <set attributeName="fill" to="#808080" begin="zoomplus.mouseover" end="zoomplus.mouseout"/>
                        </use>
                        <path d="M-4,0h8M0,-4v8" fill="none" stroke="white" stroke-width="1.5" pointer-events="none"/>
                </g>
                <g id="zoomMin">
                        <use xlink:href="#rim" fill="#404040">
                                <set attributeName="fill" to="#808080" begin="zoomminus.mouseover" end="zoomminus.mouseout"/>
                        </use>
                        <path d="M-4,0h8" fill="none" stroke="white" stroke-width="1.5" pointer-events="none"/>
                </g>
                <g id="dirArrow">
                        <path fill="none" stroke="white" stroke-width="1.5" d="M0,-3.0v7 M-2.5,-0.5L0,-3.0L2.5,-0.5"/>
                </g>
               <g id="resetDef">
                       <use xlink:href="#rim2" fill="#404040">
                               <set attributeName="fill" to="#808080" begin="reset.mouseover" end="reset.mouseout"/>
                       </use>
               </g>
        </defs>

<script type="text/javascript">
var viewWidth = 1023;
var viewHeight = 240;
var sectionId = 'dynsection-1';
</script>
<script xlink:href="svgpan.js"/>
<svg id="graph" class="graph">
<g id="viewport">
<title>src/graphics/lighting/lighting.h</title>
<polygon fill="white" stroke="transparent" points="-4,4 -4,-236 1019,-236 1019,4 -4,4"/>
<!-- Node1 -->
<g id="node1" class="node">
<title>Node1</title>
<g id="a_node1"><a xlink:title=" ">
<polygon fill="#bfbfbf" stroke="black" points="172,-201.5 172,-231.5 287,-231.5 287,-201.5 172,-201.5"/>
<text text-anchor="start" x="180" y="-219.5" font-family="Helvetica,sans-Serif" font-size="10.00">src/graphics/lighting</text>
<text text-anchor="middle" x="229.5" y="-208.5" font-family="Helvetica,sans-Serif" font-size="10.00">/lighting.h</text>
</a>
</g>
</g>
<!-- Node2 -->
<g id="node2" class="node">
<title>Node2</title>
<g id="a_node2"><a xlink:href="lighting_8cpp.html" target="_top" xlink:title=" ">
<polygon fill="white" stroke="black" points="2,-134.5 2,-164.5 117,-164.5 117,-134.5 2,-134.5"/>
<text text-anchor="start" x="10" y="-152.5" font-family="Helvetica,sans-Serif" font-size="10.00">src/graphics/lighting</text>
<text text-anchor="middle" x="59.5" y="-141.5" font-family="Helvetica,sans-Serif" font-size="10.00">/lighting.cpp</text>
</a>
</g>
</g>
<!-- Node1&#45;&gt;Node2 -->
<g id="edge1" class="edge">
<title>Node1&#45;&gt;Node2</title>
<path fill="none" stroke="midnightblue" d="M183.26,-197.82C155.93,-187.37 121.81,-174.32 96.32,-164.58"/>
<polygon fill="midnightblue" stroke="midnightblue" points="182.02,-201.09 192.61,-201.4 184.52,-194.56 182.02,-201.09"/>
</g>
<!-- Node3 -->
<g id="node3" class="node">
<title>Node3</title>
<g id="a_node3"><a xlink:href="graphics__renderer_8h.html" target="_top" xlink:title=" ">
<polygon fill="white" stroke="black" points="23,-67.5 23,-97.5 142,-97.5 142,-67.5 23,-67.5"/>
<text text-anchor="start" x="31" y="-85.5" font-family="Helvetica,sans-Serif" font-size="10.00">src/graphics/renderer</text>
<text text-anchor="middle" x="82.5" y="-74.5" font-family="Helvetica,sans-Serif" font-size="10.00">/graphics_renderer.h</text>
</a>
</g>
</g>
<!-- Node1&#45;&gt;Node3 -->
<g id="edge2" class="edge">
<title>Node1&#45;&gt;Node3</title>
<path fill="none" stroke="midnightblue" d="M201.78,-195.15C190.02,-186.21 176.33,-175.4 164.5,-165 139.03,-142.6 111.45,-114.25 95.65,-97.58"/>
<polygon fill="midnightblue" stroke="midnightblue" points="199.86,-198.08 209.95,-201.29 204.06,-192.48 199.86,-198.08"/>
</g>
<!-- Node7 -->
<g id="node7" class="node">
<title>Node7</title>
<g id="a_node7"><a xlink:href="forward__shader_8h.html" target="_top" xlink:title=" ">
<polygon fill="white" stroke="black" points="174,-134.5 174,-164.5 285,-164.5 285,-134.5 174,-134.5"/>
<text text-anchor="start" x="182" y="-152.5" font-family="Helvetica,sans-Serif" font-size="10.00">src/graphics/shader</text>
<text text-anchor="middle" x="229.5" y="-141.5" font-family="Helvetica,sans-Serif" font-size="10.00">/forward_shader.h</text>
</a>
</g>
</g>
<!-- Node1&#45;&gt;Node7 -->
<g id="edge6" class="edge">
<title>Node1&#45;&gt;Node7</title>
<path fill="none" stroke="midnightblue" d="M229.5,-191.11C229.5,-182.15 229.5,-172.32 229.5,-164.58"/>
<polygon fill="midnightblue" stroke="midnightblue" points="226,-191.4 229.5,-201.4 233,-191.4 226,-191.4"/>
</g>
<!-- Node9 -->
<g id="node9" class="node">
<title>Node9</title>
<g id="a_node9"><a xlink:href="lighting__shader_8h.html" target="_top" xlink:title=" ">
<polygon fill="white" stroke="black" points="344,-134.5 344,-164.5 455,-164.5 455,-134.5 344,-134.5"/>
<text text-anchor="start" x="352" y="-152.5" font-family="Helvetica,sans-Serif" font-size="10.00">src/graphics/shader</text>
<text text-anchor="middle" x="399.5" y="-141.5" font-family="Helvetica,sans-Serif" font-size="10.00">/lighting_shader.h</text>
</a>
</g>
</g>
<!-- Node1&#45;&gt;Node9 -->
<g id="edge10" class="edge">
<title>Node1&#45;&gt;Node9</title>
<path fill="none" stroke="midnightblue" d="M275.74,-197.82C303.07,-187.37 337.19,-174.32 362.68,-164.58"/>
<polygon fill="midnightblue" stroke="midnightblue" points="274.48,-194.56 266.39,-201.4 276.98,-201.09 274.48,-194.56"/>
</g>
<!-- Node11 -->
<g id="node11" class="node">
<title>Node11</title>
<g id="a_node11"><a xlink:href="texture__unit_8h.html" target="_top" xlink:title=" ">
<polygon fill="white" stroke="black" points="586,-134.5 586,-164.5 697,-164.5 697,-134.5 586,-134.5"/>
<text text-anchor="start" x="594" y="-152.5" font-family="Helvetica,sans-Serif" font-size="10.00">src/graphics/shader</text>
<text text-anchor="middle" x="641.5" y="-141.5" font-family="Helvetica,sans-Serif" font-size="10.00">/texture_unit.h</text>
</a>
</g>
</g>
<!-- Node1&#45;&gt;Node11 -->
<g id="edge14" class="edge">
<title>Node1&#45;&gt;Node11</title>
<path fill="none" stroke="midnightblue" d="M297.27,-204.81C377.88,-192.09 510.93,-171.1 585.82,-159.28"/>
<polygon fill="midnightblue" stroke="midnightblue" points="296.55,-201.38 287.22,-206.39 297.64,-208.29 296.55,-201.38"/>
</g>
<!-- Node4 -->
<g id="node4" class="node">
<title>Node4</title>
<g id="a_node4"><a xlink:href="application_8cpp.html" target="_top" xlink:title=" ">
<polygon fill="white" stroke="black" points="0,-6 0,-25 165,-25 165,-6 0,-6"/>
<text text-anchor="middle" x="82.5" y="-13" font-family="Helvetica,sans-Serif" font-size="10.00">src/application/application.cpp</text>
</a>
</g>
</g>
<!-- Node3&#45;&gt;Node4 -->
<g id="edge3" class="edge">
<title>Node3&#45;&gt;Node4</title>
<path fill="none" stroke="midnightblue" d="M82.5,-57.25C82.5,-46.02 82.5,-33.38 82.5,-25.19"/>
<polygon fill="midnightblue" stroke="midnightblue" points="79,-57.4 82.5,-67.4 86,-57.4 79,-57.4"/>
</g>
<!-- Node5 -->
<g id="node5" class="node">
<title>Node5</title>
<g id="a_node5"><a xlink:href="game__scene_8cpp.html" target="_top" xlink:title=" ">
<polygon fill="white" stroke="black" points="198.5,-0.5 198.5,-30.5 322.5,-30.5 322.5,-0.5 198.5,-0.5"/>
<text text-anchor="start" x="206.5" y="-18.5" font-family="Helvetica,sans-Serif" font-size="10.00">src/game/scene/game</text>
<text text-anchor="middle" x="260.5" y="-7.5" font-family="Helvetica,sans-Serif" font-size="10.00">_scene.cpp</text>
</a>
</g>
</g>
<!-- Node3&#45;&gt;Node5 -->
<g id="edge4" class="edge">
<title>Node3&#45;&gt;Node5</title>
<path fill="none" stroke="midnightblue" d="M130.55,-63.96C159.22,-53.48 195.14,-40.37 221.95,-30.58"/>
<polygon fill="midnightblue" stroke="midnightblue" points="129.32,-60.68 121.12,-67.4 131.72,-67.25 129.32,-60.68"/>
</g>
<!-- Node6 -->
<g id="node6" class="node">
<title>Node6</title>
<g id="a_node6"><a xlink:href="graphics__renderer_8cpp.html" target="_top" xlink:title=" ">
<polygon fill="white" stroke="black" points="355,-0.5 355,-30.5 482,-30.5 482,-0.5 355,-0.5"/>
<text text-anchor="start" x="363" y="-18.5" font-family="Helvetica,sans-Serif" font-size="10.00">src/graphics/renderer</text>
<text text-anchor="middle" x="418.5" y="-7.5" font-family="Helvetica,sans-Serif" font-size="10.00">/graphics_renderer.cpp</text>
</a>
</g>
</g>
<!-- Node3&#45;&gt;Node6 -->
<g id="edge5" class="edge">
<title>Node3&#45;&gt;Node6</title>
<path fill="none" stroke="midnightblue" d="M152.27,-68C211.9,-56.47 296.99,-40.01 354.8,-28.82"/>
<polygon fill="midnightblue" stroke="midnightblue" points="151.34,-64.62 142.18,-69.95 152.67,-71.49 151.34,-64.62"/>
</g>
<!-- Node7&#45;&gt;Node5 -->
<g id="edge7" class="edge">
<title>Node7&#45;&gt;Node5</title>
<path fill="none" stroke="midnightblue" d="M209.38,-126.44C196.82,-109.88 184.74,-86.75 194.5,-67 202.3,-51.22 217.65,-39.01 231.59,-30.55"/>
<polygon fill="midnightblue" stroke="midnightblue" points="206.86,-128.89 215.87,-134.45 212.29,-124.48 206.86,-128.89"/>
</g>
<!-- Node7&#45;&gt;Node6 -->
<g id="edge8" class="edge">
<title>Node7&#45;&gt;Node6</title>
<path fill="none" stroke="midnightblue" d="M221.9,-124.35C217.93,-106.68 216.14,-83.07 228.5,-67 236.46,-56.65 302.77,-40.63 354.84,-29.42"/>
<polygon fill="midnightblue" stroke="midnightblue" points="218.63,-125.69 224.55,-134.47 225.4,-123.91 218.63,-125.69"/>
</g>
<!-- Node8 -->
<g id="node8" class="node">
<title>Node8</title>
<g id="a_node8"><a xlink:href="forward__shader_8cpp.html" target="_top" xlink:title=" ">
<polygon fill="white" stroke="black" points="237,-67.5 237,-97.5 352,-97.5 352,-67.5 237,-67.5"/>
<text text-anchor="start" x="245" y="-85.5" font-family="Helvetica,sans-Serif" font-size="10.00">src/graphics/shader</text>
<text text-anchor="middle" x="294.5" y="-74.5" font-family="Helvetica,sans-Serif" font-size="10.00">/forward_shader.cpp</text>
</a>
</g>
</g>
<!-- Node7&#45;&gt;Node8 -->
<g id="edge9" class="edge">
<title>Node7&#45;&gt;Node8</title>
<path fill="none" stroke="midnightblue" d="M250.69,-127.31C260.44,-117.56 271.74,-106.26 280.42,-97.58"/>
<polygon fill="midnightblue" stroke="midnightblue" points="248.2,-124.85 243.6,-134.4 253.15,-129.8 248.2,-124.85"/>
</g>
<!-- Node9&#45;&gt;Node5 -->
<g id="edge11" class="edge">
<title>Node9&#45;&gt;Node5</title>
<path fill="none" stroke="midnightblue" d="M393.12,-124.83C387.33,-107.09 377.24,-83.18 361.5,-67 345.57,-50.63 323.23,-38.7 303.6,-30.56"/>
<polygon fill="midnightblue" stroke="midnightblue" points="389.79,-125.91 396.05,-134.46 396.49,-123.87 389.79,-125.91"/>
</g>
<!-- Node9&#45;&gt;Node6 -->
<g id="edge12" class="edge">
<title>Node9&#45;&gt;Node6</title>
<path fill="none" stroke="midnightblue" d="M402.97,-124.39C406.93,-96.9 413.26,-52.89 416.48,-30.52"/>
<polygon fill="midnightblue" stroke="midnightblue" points="399.49,-123.98 401.53,-134.37 406.42,-124.97 399.49,-123.98"/>
</g>
<!-- Node10 -->
<g id="node10" class="node">
<title>Node10</title>
<g id="a_node10"><a xlink:href="lighting__shader_8cpp.html" target="_top" xlink:title=" ">
<polygon fill="white" stroke="black" points="446.5,-67.5 446.5,-97.5 560.5,-97.5 560.5,-67.5 446.5,-67.5"/>
<text text-anchor="start" x="454.5" y="-85.5" font-family="Helvetica,sans-Serif" font-size="10.00">src/graphics/shader</text>
<text text-anchor="middle" x="503.5" y="-74.5" font-family="Helvetica,sans-Serif" font-size="10.00">/lighting_shader.cpp</text>
</a>
</g>
</g>
<!-- Node9&#45;&gt;Node10 -->
<g id="edge13" class="edge">
<title>Node9&#45;&gt;Node10</title>
<path fill="none" stroke="midnightblue" d="M430.68,-129.02C446.86,-118.9 466.27,-106.77 480.98,-97.58"/>
<polygon fill="midnightblue" stroke="midnightblue" points="428.69,-126.13 422.07,-134.4 432.4,-132.06 428.69,-126.13"/>
</g>
<!-- Node11&#45;&gt;Node6 -->
<g id="edge15" class="edge">
<title>Node11&#45;&gt;Node6</title>
<path fill="none" stroke="midnightblue" d="M707.46,-143.43C781.26,-135.33 885.24,-115.14 842.5,-67 819,-40.53 594.54,-25.45 482.08,-19.49"/>
<polygon fill="midnightblue" stroke="midnightblue" points="706.84,-139.98 697.26,-144.49 707.57,-146.94 706.84,-139.98"/>
</g>
<!-- Node11&#45;&gt;Node8 -->
<g id="edge16" class="edge">
<title>Node11&#45;&gt;Node8</title>
<path fill="none" stroke="midnightblue" d="M575.68,-136.17C511.14,-124.08 413.71,-105.83 352.14,-94.3"/>
<polygon fill="midnightblue" stroke="midnightblue" points="575.27,-139.66 585.75,-138.06 576.56,-132.78 575.27,-139.66"/>
</g>
<!-- Node11&#45;&gt;Node10 -->
<g id="edge18" class="edge">
<title>Node11&#45;&gt;Node10</title>
<path fill="none" stroke="midnightblue" d="M602.5,-130.13C580.57,-119.8 553.63,-107.11 533.39,-97.58"/>
<polygon fill="midnightblue" stroke="midnightblue" points="601.02,-133.3 611.56,-134.4 604,-126.97 601.02,-133.3"/>
</g>
<!-- Node12 -->
<g id="node12" class="node">
<title>Node12</title>
<g id="a_node12"><a xlink:href="geometry__shader_8cpp.html" target="_top" xlink:title=" ">
<polygon fill="white" stroke="black" points="890,-67.5 890,-97.5 1015,-97.5 1015,-67.5 890,-67.5"/>
<text text-anchor="start" x="898" y="-85.5" font-family="Helvetica,sans-Serif" font-size="10.00">src/graphics/shader</text>
<text text-anchor="middle" x="952.5" y="-74.5" font-family="Helvetica,sans-Serif" font-size="10.00">/geometry_shader.cpp</text>
</a>
</g>
</g>
<!-- Node11&#45;&gt;Node12 -->
<g id="edge17" class="edge">
<title>Node11&#45;&gt;Node12</title>
<path fill="none" stroke="midnightblue" d="M706.9,-134.83C760.81,-123.56 836.77,-107.69 889.9,-96.58"/>
<polygon fill="midnightblue" stroke="midnightblue" points="706.17,-131.41 697.1,-136.88 707.61,-138.26 706.17,-131.41"/>
</g>
<!-- Node13 -->
<g id="node13" class="node">
<title>Node13</title>
<g id="a_node13"><a xlink:href="post__proc__shader_8cpp.html" target="_top" xlink:title=" ">
<polygon fill="white" stroke="black" points="579,-67.5 579,-97.5 704,-97.5 704,-67.5 579,-67.5"/>
<text text-anchor="start" x="587" y="-85.5" font-family="Helvetica,sans-Serif" font-size="10.00">src/graphics/shader</text>
<text text-anchor="middle" x="641.5" y="-74.5" font-family="Helvetica,sans-Serif" font-size="10.00">/post_proc_shader.cpp</text>
</a>
</g>
</g>
<!-- Node11&#45;&gt;Node13 -->
<g id="edge19" class="edge">
<title>Node11&#45;&gt;Node13</title>
<path fill="none" stroke="midnightblue" d="M641.5,-124.11C641.5,-115.15 641.5,-105.32 641.5,-97.58"/>
<polygon fill="midnightblue" stroke="midnightblue" points="638,-124.4 641.5,-134.4 645,-124.4 638,-124.4"/>
</g>
<!-- Node14 -->
<g id="node14" class="node">
<title>Node14</title>
<g id="a_node14"><a xlink:href="skybox__shader_8h.html" target="_top" xlink:title=" ">
<polygon fill="white" stroke="black" points="722,-67.5 722,-97.5 833,-97.5 833,-67.5 722,-67.5"/>
<text text-anchor="start" x="730" y="-85.5" font-family="Helvetica,sans-Serif" font-size="10.00">src/graphics/shader</text>
<text text-anchor="middle" x="777.5" y="-74.5" font-family="Helvetica,sans-Serif" font-size="10.00">/skybox_shader.h</text>
</a>
</g>
</g>
<!-- Node11&#45;&gt;Node14 -->
<g id="edge20" class="edge">
<title>Node11&#45;&gt;Node14</title>
<path fill="none" stroke="midnightblue" d="M680.22,-129.99C701.78,-119.69 728.19,-107.07 748.05,-97.58"/>
<polygon fill="midnightblue" stroke="midnightblue" points="678.52,-126.93 671.01,-134.4 681.54,-133.24 678.52,-126.93"/>
</g>
<!-- Node14&#45;&gt;Node5 -->
<g id="edge21" class="edge">
<title>Node14&#45;&gt;Node5</title>
<path fill="none" stroke="midnightblue" d="M711.43,-66.79C549.9,-41.31 505.63,-52.19 346.5,-31 338.85,-29.98 330.83,-28.79 322.9,-27.54"/>
<polygon fill="midnightblue" stroke="midnightblue" points="711.31,-70.31 721.73,-68.43 712.41,-63.4 711.31,-70.31"/>
</g>
<!-- Node14&#45;&gt;Node6 -->
<g id="edge22" class="edge">
<title>Node14&#45;&gt;Node6</title>
<path fill="none" stroke="midnightblue" d="M711.67,-66.69C627.16,-50.07 539.86,-35.59 482.27,-26.41"/>
<polygon fill="midnightblue" stroke="midnightblue" points="711.2,-70.16 721.69,-68.67 712.56,-63.3 711.2,-70.16"/>
</g>
</g>
</svg>
        <g id="navigator" transform="translate(0 0)" fill="#404254">
                <rect fill="#f2f5e9" fill-opacity="0.5" stroke="#606060" stroke-width=".5" x="0" y="0" width="60" height="60"/>
                <use id="zoomplus" xlink:href="#zoomPlus" x="17" y="9" onmousedown="handleZoom(evt,'in')"/>
                <use id="zoomminus" xlink:href="#zoomMin" x="42" y="9" onmousedown="handleZoom(evt,'out')"/>
                <use id="reset" xlink:href="#resetDef" x="30" y="36" onmousedown="handleReset()"/>
                <g id="arrowUp" xlink:href="#dirArrow" transform="translate(30 24)" onmousedown="handlePan(0,-1)">
                  <use xlink:href="#rim" fill="#404040">
                        <set attributeName="fill" to="#808080" begin="arrowUp.mouseover" end="arrowUp.mouseout"/>
                  </use>
                  <path fill="none" stroke="white" stroke-width="1.5" d="M0,-3.0v7 M-2.5,-0.5L0,-3.0L2.5,-0.5"/>
                </g>
                <g id="arrowRight" xlink:href="#dirArrow" transform="rotate(90) translate(36 -43)" onmousedown="handlePan(1,0)">
                  <use xlink:href="#rim" fill="#404040">
                        <set attributeName="fill" to="#808080" begin="arrowRight.mouseover" end="arrowRight.mouseout"/>
                  </use>
                  <path fill="none" stroke="white" stroke-width="1.5" d="M0,-3.0v7 M-2.5,-0.5L0,-3.0L2.5,-0.5"/>
                </g>
                <g id="arrowDown" xlink:href="#dirArrow" transform="rotate(180) translate(-30 -48)" onmousedown="handlePan(0,1)">
                  <use xlink:href="#rim" fill="#404040">
                        <set attributeName="fill" to="#808080" begin="arrowDown.mouseover" end="arrowDown.mouseout"/>
                  </use>
                  <path fill="none" stroke="white" stroke-width="1.5" d="M0,-3.0v7 M-2.5,-0.5L0,-3.0L2.5,-0.5"/>
                </g>
                <g id="arrowLeft" xlink:href="#dirArrow" transform="rotate(270) translate(-36 17)" onmousedown="handlePan(-1,0)">
                  <use xlink:href="#rim" fill="#404040">
                        <set attributeName="fill" to="#808080" begin="arrowLeft.mouseover" end="arrowLeft.mouseout"/>
                  </use>
                  <path fill="none" stroke="white" stroke-width="1.5" d="M0,-3.0v7 M-2.5,-0.5L0,-3.0L2.5,-0.5"/>
                </g>
        </g>
        <svg viewBox="0 0 15 15" width="100%" height="30px" preserveAspectRatio="xMaxYMin meet">
         <g id="arrow_out" transform="scale(0.3 0.3)">
          <a xlink:href="lighting_8h__dep__incl_org.svg" target="_base">
           <rect id="button" ry="5" rx="5" y="6" x="6" height="38" width="38"
                fill="#f2f5e9" fill-opacity="0.5" stroke="#606060" stroke-width="1.0"/>
           <path id="arrow"
             d="M 11.500037,31.436501 C 11.940474,20.09759 22.043105,11.32322 32.158766,21.979434 L 37.068811,17.246167 C 37.068811,17.246167 37.088388,32 37.088388,32 L 22.160133,31.978069 C 22.160133,31.978069 26.997745,27.140456 26.997745,27.140456 C 18.528582,18.264221 13.291696,25.230495 11.500037,31.436501 z"
             style="fill:#404040;"/>
          </a>
         </g>
        </svg>
</svg>
