<?xml version="1.0" encoding="UTF-8" standalone="no"?>
<!DOCTYPE svg PUBLIC "-//W3C//DTD SVG 1.1//EN"
 "http://www.w3.org/Graphics/SVG/1.1/DTD/svg11.dtd">
<!-- Generated by graphviz version 2.43.0 (0)
 -->
<!-- Title: src/graphics/framebuffer/light_buffer.h Pages: 1 -->
<svg width="792pt" height="285pt"
 viewBox="0.00 0.00 792.00 285.00" xmlns="http://www.w3.org/2000/svg" xmlns:xlink="http://www.w3.org/1999/xlink">
<g id="graph0" class="graph" transform="scale(1 1) rotate(0) translate(4 281)">
<title>src/graphics/framebuffer/light_buffer.h</title>
<polygon fill="white" stroke="transparent" points="-4,4 -4,-281 788,-281 788,4 -4,4"/>
<!-- Node1 -->
<g id="node1" class="node">
<title>Node1</title>
<g id="a_node1"><a xlink:title=" ">
<polygon fill="#bfbfbf" stroke="black" points="68,-246.5 68,-276.5 204,-276.5 204,-246.5 68,-246.5"/>
<text text-anchor="start" x="76" y="-264.5" font-family="Helvetica,sans-Serif" font-size="10.00">src/graphics/framebuffer</text>
<text text-anchor="middle" x="136" y="-253.5" font-family="Helvetica,sans-Serif" font-size="10.00">/light_buffer.h</text>
</a>
</g>
</g>
<!-- Node2 -->
<g id="node2" class="node">
<title>Node2</title>
<g id="a_node2"><a xlink:title=" ">
<polygon fill="white" stroke="#bfbfbf" points="60,-185 60,-204 110,-204 110,-185 60,-185"/>
<text text-anchor="middle" x="85" y="-192" font-family="Helvetica,sans-Serif" font-size="10.00">cstdint</text>
</a>
</g>
</g>
<!-- Node1&#45;&gt;Node2 -->
<g id="edge1" class="edge">
<title>Node1&#45;&gt;Node2</title>
<path fill="none" stroke="midnightblue" d="M124.93,-246.4C117.06,-236.36 106.45,-222.84 98.15,-212.25"/>
<polygon fill="midnightblue" stroke="midnightblue" points="100.75,-209.9 91.82,-204.19 95.24,-214.22 100.75,-209.9"/>
</g>
<!-- Node3 -->
<g id="node3" class="node">
<title>Node3</title>
<g id="a_node3"><a xlink:href="framebuffer_8h.html" target="_top" xlink:title=" ">
<polygon fill="white" stroke="black" points="128.5,-179.5 128.5,-209.5 247.5,-209.5 247.5,-179.5 128.5,-179.5"/>
<text text-anchor="start" x="136.5" y="-197.5" font-family="Helvetica,sans-Serif" font-size="10.00">graphics/framebuffer</text>
<text text-anchor="middle" x="188" y="-186.5" font-family="Helvetica,sans-Serif" font-size="10.00">/framebuffer.h</text>
</a>
</g>
</g>
<!-- Node1&#45;&gt;Node3 -->
<g id="edge2" class="edge">
<title>Node1&#45;&gt;Node3</title>
<path fill="none" stroke="midnightblue" d="M147.28,-246.4C154.03,-237.96 162.75,-227.07 170.38,-217.52"/>
<polygon fill="midnightblue" stroke="midnightblue" points="173.22,-219.57 176.74,-209.58 167.76,-215.2 173.22,-219.57"/>
</g>
<!-- Node4 -->
<g id="node4" class="node">
<title>Node4</title>
<g id="a_node4"><a xlink:title=" ">
<polygon fill="white" stroke="#bfbfbf" points="0,-123.5 0,-142.5 58,-142.5 58,-123.5 0,-123.5"/>
<text text-anchor="middle" x="29" y="-130.5" font-family="Helvetica,sans-Serif" font-size="10.00">memory</text>
</a>
</g>
</g>
<!-- Node3&#45;&gt;Node4 -->
<g id="edge3" class="edge">
<title>Node3&#45;&gt;Node4</title>
<path fill="none" stroke="midnightblue" d="M150.32,-179.4C123.4,-169.33 87.55,-155.91 61.81,-146.28"/>
<polygon fill="midnightblue" stroke="midnightblue" points="62.73,-142.88 52.14,-142.66 60.27,-149.44 62.73,-142.88"/>
</g>
<!-- Node5 -->
<g id="node5" class="node">
<title>Node5</title>
<g id="a_node5"><a xlink:title=" ">
<polygon fill="white" stroke="#bfbfbf" points="76,-123.5 76,-142.5 120,-142.5 120,-123.5 76,-123.5"/>
<text text-anchor="middle" x="98" y="-130.5" font-family="Helvetica,sans-Serif" font-size="10.00">string</text>
</a>
</g>
</g>
<!-- Node3&#45;&gt;Node5 -->
<g id="edge4" class="edge">
<title>Node3&#45;&gt;Node5</title>
<path fill="none" stroke="midnightblue" d="M166.67,-179.4C152.51,-170.04 133.99,-157.79 119.75,-148.38"/>
<polygon fill="midnightblue" stroke="midnightblue" points="121.37,-145.25 111.1,-142.66 117.51,-151.09 121.37,-145.25"/>
</g>
<!-- Node6 -->
<g id="node6" class="node">
<title>Node6</title>
<g id="a_node6"><a xlink:title=" ">
<polygon fill="white" stroke="#bfbfbf" points="138.5,-123.5 138.5,-142.5 185.5,-142.5 185.5,-123.5 138.5,-123.5"/>
<text text-anchor="middle" x="162" y="-130.5" font-family="Helvetica,sans-Serif" font-size="10.00">vector</text>
</a>
</g>
</g>
<!-- Node3&#45;&gt;Node6 -->
<g id="edge5" class="edge">
<title>Node3&#45;&gt;Node6</title>
<path fill="none" stroke="midnightblue" d="M181.84,-179.4C178.26,-171.2 173.7,-160.78 169.86,-151.99"/>
<polygon fill="midnightblue" stroke="midnightblue" points="172.99,-150.42 165.78,-142.66 166.58,-153.22 172.99,-150.42"/>
</g>
<!-- Node7 -->
<g id="node7" class="node">
<title>Node7</title>
<g id="a_node7"><a xlink:title=" ">
<polygon fill="white" stroke="#bfbfbf" points="220,-0.5 220,-19.5 284,-19.5 284,-0.5 220,-0.5"/>
<text text-anchor="middle" x="252" y="-7.5" font-family="Helvetica,sans-Serif" font-size="10.00">GL/glew.h</text>
</a>
</g>
</g>
<!-- Node3&#45;&gt;Node7 -->
<g id="edge6" class="edge">
<title>Node3&#45;&gt;Node7</title>
<path fill="none" stroke="midnightblue" d="M192.92,-179.48C204.32,-146.96 232.59,-66.34 245.45,-29.68"/>
<polygon fill="midnightblue" stroke="midnightblue" points="248.9,-30.41 248.91,-19.82 242.3,-28.1 248.9,-30.41"/>
</g>
<!-- Node8 -->
<g id="node8" class="node">
<title>Node8</title>
<g id="a_node8"><a xlink:title=" ">
<polygon fill="white" stroke="#bfbfbf" points="242.5,-123.5 242.5,-142.5 331.5,-142.5 331.5,-123.5 242.5,-123.5"/>
<text text-anchor="middle" x="287" y="-130.5" font-family="Helvetica,sans-Serif" font-size="10.00">maths/colour.h</text>
</a>
</g>
</g>
<!-- Node3&#45;&gt;Node8 -->
<g id="edge7" class="edge">
<title>Node3&#45;&gt;Node8</title>
<path fill="none" stroke="midnightblue" d="M211.46,-179.4C227.33,-169.86 248.19,-157.32 263.97,-147.84"/>
<polygon fill="midnightblue" stroke="midnightblue" points="265.83,-150.81 272.59,-142.66 262.22,-144.81 265.83,-150.81"/>
</g>
<!-- Node9 -->
<g id="node9" class="node">
<title>Node9</title>
<g id="a_node9"><a xlink:href="texture_8h.html" target="_top" xlink:title=" ">
<polygon fill="white" stroke="black" points="349.5,-123.5 349.5,-142.5 492.5,-142.5 492.5,-123.5 349.5,-123.5"/>
<text text-anchor="middle" x="421" y="-130.5" font-family="Helvetica,sans-Serif" font-size="10.00">graphics/texture/texture.h</text>
</a>
</g>
</g>
<!-- Node3&#45;&gt;Node9 -->
<g id="edge8" class="edge">
<title>Node3&#45;&gt;Node9</title>
<path fill="none" stroke="midnightblue" d="M242.92,-179.47C284.17,-168.94 339.88,-154.72 377.93,-145"/>
<polygon fill="midnightblue" stroke="midnightblue" points="378.87,-148.37 387.69,-142.51 377.13,-141.59 378.87,-148.37"/>
</g>
<!-- Node9&#45;&gt;Node7 -->
<g id="edge12" class="edge">
<title>Node9&#45;&gt;Node7</title>
<path fill="none" stroke="midnightblue" d="M375.42,-123.47C336.8,-115.35 285.46,-102.14 271,-87 256.43,-71.73 252.54,-47.05 251.74,-29.97"/>
<polygon fill="midnightblue" stroke="midnightblue" points="255.23,-29.52 251.58,-19.58 248.23,-29.63 255.23,-29.52"/>
</g>
<!-- Node10 -->
<g id="node10" class="node">
<title>Node10</title>
<g id="a_node10"><a xlink:title=" ">
<polygon fill="white" stroke="#bfbfbf" points="280,-62 280,-81 322,-81 322,-62 280,-62"/>
<text text-anchor="middle" x="301" y="-69" font-family="Helvetica,sans-Serif" font-size="10.00">array</text>
</a>
</g>
</g>
<!-- Node9&#45;&gt;Node10 -->
<g id="edge9" class="edge">
<title>Node9&#45;&gt;Node10</title>
<path fill="none" stroke="midnightblue" d="M403.81,-123.48C383.76,-113.53 350.4,-96.99 327.14,-85.46"/>
<polygon fill="midnightblue" stroke="midnightblue" points="328.68,-82.32 318.16,-81.01 325.57,-88.59 328.68,-82.32"/>
</g>
<!-- Node11 -->
<g id="node11" class="node">
<title>Node11</title>
<g id="a_node11"><a xlink:title=" ">
<polygon fill="white" stroke="#bfbfbf" points="340.5,-62 340.5,-81 387.5,-81 387.5,-62 340.5,-62"/>
<text text-anchor="middle" x="364" y="-69" font-family="Helvetica,sans-Serif" font-size="10.00">cmath</text>
</a>
</g>
</g>
<!-- Node9&#45;&gt;Node11 -->
<g id="edge10" class="edge">
<title>Node9&#45;&gt;Node11</title>
<path fill="none" stroke="midnightblue" d="M412.83,-123.48C404.11,-114.37 390.1,-99.74 379.31,-88.48"/>
<polygon fill="midnightblue" stroke="midnightblue" points="381.6,-85.81 372.15,-81.01 376.54,-90.65 381.6,-85.81"/>
</g>
<!-- Node12 -->
<g id="node12" class="node">
<title>Node12</title>
<g id="a_node12"><a xlink:title=" ">
<polygon fill="white" stroke="#bfbfbf" points="406,-62 406,-81 514,-81 514,-62 406,-62"/>
<text text-anchor="middle" x="460" y="-69" font-family="Helvetica,sans-Serif" font-size="10.00">SDL2/SDL_image.h</text>
</a>
</g>
</g>
<!-- Node9&#45;&gt;Node12 -->
<g id="edge11" class="edge">
<title>Node9&#45;&gt;Node12</title>
<path fill="none" stroke="midnightblue" d="M426.59,-123.48C432.38,-114.64 441.59,-100.59 448.87,-89.48"/>
<polygon fill="midnightblue" stroke="midnightblue" points="451.87,-91.29 454.42,-81.01 446.01,-87.45 451.87,-91.29"/>
</g>
<!-- Node13 -->
<g id="node13" class="node">
<title>Node13</title>
<g id="a_node13"><a xlink:title=" ">
<polygon fill="white" stroke="#bfbfbf" points="532.5,-62 532.5,-81 643.5,-81 643.5,-62 532.5,-62"/>
<text text-anchor="middle" x="588" y="-69" font-family="Helvetica,sans-Serif" font-size="10.00">maths/maths_util.h</text>
</a>
</g>
</g>
<!-- Node9&#45;&gt;Node13 -->
<g id="edge13" class="edge">
<title>Node9&#45;&gt;Node13</title>
<path fill="none" stroke="midnightblue" d="M444.93,-123.48C473.7,-113.22 522.16,-95.96 554.6,-84.4"/>
<polygon fill="midnightblue" stroke="midnightblue" points="555.87,-87.66 564.12,-81.01 553.52,-81.07 555.87,-87.66"/>
</g>
<!-- Node14 -->
<g id="node14" class="node">
<title>Node14</title>
<g id="a_node14"><a xlink:href="pixel__format_8h.html" target="_top" xlink:title=" ">
<polygon fill="white" stroke="black" points="662,-56.5 662,-86.5 784,-86.5 784,-56.5 662,-56.5"/>
<text text-anchor="start" x="670" y="-74.5" font-family="Helvetica,sans-Serif" font-size="10.00">graphics/texture/pixel</text>
<text text-anchor="middle" x="723" y="-63.5" font-family="Helvetica,sans-Serif" font-size="10.00">_format.h</text>
</a>
</g>
</g>
<!-- Node9&#45;&gt;Node14 -->
<g id="edge14" class="edge">
<title>Node9&#45;&gt;Node14</title>
<path fill="none" stroke="midnightblue" d="M465.31,-123.49C511.83,-114.53 587.09,-99.95 652,-87 652.1,-86.98 652.2,-86.96 652.3,-86.94"/>
<polygon fill="midnightblue" stroke="midnightblue" points="652.7,-90.43 661.82,-85.03 651.32,-83.57 652.7,-90.43"/>
</g>
<!-- Node14&#45;&gt;Node7 -->
<g id="edge16" class="edge">
<title>Node14&#45;&gt;Node7</title>
<path fill="none" stroke="midnightblue" d="M661.87,-57.65C658.54,-57.07 655.23,-56.51 652,-56 522.23,-35.49 367.33,-20.84 294.2,-14.5"/>
<polygon fill="midnightblue" stroke="midnightblue" points="294.28,-10.99 284.02,-13.62 293.68,-17.97 294.28,-10.99"/>
</g>
<!-- Node15 -->
<g id="node15" class="node">
<title>Node15</title>
<g id="a_node15"><a xlink:title=" ">
<polygon fill="white" stroke="#bfbfbf" points="690.5,-0.5 690.5,-19.5 755.5,-19.5 755.5,-0.5 690.5,-0.5"/>
<text text-anchor="middle" x="723" y="-7.5" font-family="Helvetica,sans-Serif" font-size="10.00">stdexcept</text>
</a>
</g>
</g>
<!-- Node14&#45;&gt;Node15 -->
<g id="edge15" class="edge">
<title>Node14&#45;&gt;Node15</title>
<path fill="none" stroke="midnightblue" d="M723,-56.4C723,-48.47 723,-38.46 723,-29.86"/>
<polygon fill="midnightblue" stroke="midnightblue" points="726.5,-29.66 723,-19.66 719.5,-29.66 726.5,-29.66"/>
</g>
</g>
</svg>
