<?xml version="1.0" encoding="UTF-8" standalone="no"?>
<!DOCTYPE svg PUBLIC "-//W3C//DTD SVG 1.1//EN"
 "http://www.w3.org/Graphics/SVG/1.1/DTD/svg11.dtd">
<!-- Generated by graphviz version 2.43.0 (0)
 -->
<!-- Title: src/graphics/lighting/lighting.h Pages: 1 -->
<svg width="1377pt" height="240pt"
 viewBox="0.00 0.00 1376.87 240.00" xmlns="http://www.w3.org/2000/svg" xmlns:xlink="http://www.w3.org/1999/xlink">
<g id="graph0" class="graph" transform="scale(1 1) rotate(0) translate(4 236)">
<title>src/graphics/lighting/lighting.h</title>
<polygon fill="white" stroke="transparent" points="-4,4 -4,-236 1372.87,-236 1372.87,4 -4,4"/>
<!-- Node1 -->
<g id="node1" class="node">
<title>Node1</title>
<g id="a_node1"><a xlink:title=" ">
<polygon fill="#bfbfbf" stroke="black" points="442,-201.5 442,-231.5 557,-231.5 557,-201.5 442,-201.5"/>
<text text-anchor="start" x="450" y="-219.5" font-family="Helvetica,sans-Serif" font-size="10.00">src/graphics/lighting</text>
<text text-anchor="middle" x="499.5" y="-208.5" font-family="Helvetica,sans-Serif" font-size="10.00">/lighting.h</text>
</a>
</g>
</g>
<!-- Node2 -->
<g id="node2" class="node">
<title>Node2</title>
<g id="a_node2"><a xlink:href="lighting_8cpp.html" target="_top" xlink:title=" ">
<polygon fill="white" stroke="black" points="71,-134.5 71,-164.5 186,-164.5 186,-134.5 71,-134.5"/>
<text text-anchor="start" x="79" y="-152.5" font-family="Helvetica,sans-Serif" font-size="10.00">src/graphics/lighting</text>
<text text-anchor="middle" x="128.5" y="-141.5" font-family="Helvetica,sans-Serif" font-size="10.00">/lighting.cpp</text>
</a>
</g>
</g>
<!-- Node1&#45;&gt;Node2 -->
<g id="edge1" class="edge">
<title>Node1&#45;&gt;Node2</title>
<path fill="none" stroke="midnightblue" d="M431.59,-204.65C370.92,-194.82 279.65,-179.65 200.5,-165 195.86,-164.14 191.06,-163.23 186.24,-162.29"/>
<polygon fill="midnightblue" stroke="midnightblue" points="431.38,-208.16 441.81,-206.31 432.49,-201.25 431.38,-208.16"/>
</g>
<!-- Node3 -->
<g id="node3" class="node">
<title>Node3</title>
<g id="a_node3"><a xlink:href="graphics__renderer_8h.html" target="_top" xlink:title=" ">
<polygon fill="white" stroke="black" points="23,-67.5 23,-97.5 142,-97.5 142,-67.5 23,-67.5"/>
<text text-anchor="start" x="31" y="-85.5" font-family="Helvetica,sans-Serif" font-size="10.00">src/graphics/renderer</text>
<text text-anchor="middle" x="82.5" y="-74.5" font-family="Helvetica,sans-Serif" font-size="10.00">/graphics_renderer.h</text>
</a>
</g>
</g>
<!-- Node1&#45;&gt;Node3 -->
<g id="edge2" class="edge">
<title>Node1&#45;&gt;Node3</title>
<path fill="none" stroke="midnightblue" d="M431.76,-211.65C376.31,-206.41 296.96,-194.08 233.5,-165 213.37,-155.78 213.4,-145.53 194.5,-134 170.74,-119.51 142.09,-106.67 119.73,-97.56"/>
<polygon fill="midnightblue" stroke="midnightblue" points="431.55,-215.14 441.82,-212.54 432.17,-208.17 431.55,-215.14"/>
</g>
<!-- Node7 -->
<g id="node7" class="node">
<title>Node7</title>
<g id="a_node7"><a xlink:href="alpha__blend__shader_8h.html" target="_top" xlink:title=" ">
<polygon fill="white" stroke="black" points="437,-67.5 437,-97.5 562,-97.5 562,-67.5 437,-67.5"/>
<text text-anchor="start" x="445" y="-85.5" font-family="Helvetica,sans-Serif" font-size="10.00">src/graphics/shader</text>
<text text-anchor="middle" x="499.5" y="-74.5" font-family="Helvetica,sans-Serif" font-size="10.00">/alpha_blend_shader.h</text>
</a>
</g>
</g>
<!-- Node1&#45;&gt;Node7 -->
<g id="edge6" class="edge">
<title>Node1&#45;&gt;Node7</title>
<path fill="none" stroke="midnightblue" d="M499.5,-191.02C499.5,-163.51 499.5,-119.79 499.5,-97.52"/>
<polygon fill="midnightblue" stroke="midnightblue" points="496,-191.37 499.5,-201.37 503,-191.37 496,-191.37"/>
</g>
<!-- Node8 -->
<g id="node8" class="node">
<title>Node8</title>
<g id="a_node8"><a xlink:href="alpha__weight__shader_8h.html" target="_top" xlink:title=" ">
<polygon fill="white" stroke="black" points="243,-134.5 243,-164.5 374,-164.5 374,-134.5 243,-134.5"/>
<text text-anchor="start" x="251" y="-152.5" font-family="Helvetica,sans-Serif" font-size="10.00">src/graphics/shader</text>
<text text-anchor="middle" x="308.5" y="-141.5" font-family="Helvetica,sans-Serif" font-size="10.00">/alpha_weight_shader.h</text>
</a>
</g>
</g>
<!-- Node1&#45;&gt;Node8 -->
<g id="edge9" class="edge">
<title>Node1&#45;&gt;Node8</title>
<path fill="none" stroke="midnightblue" d="M448.35,-198.09C417.51,-187.6 378.75,-174.41 349.86,-164.58"/>
<polygon fill="midnightblue" stroke="midnightblue" points="447.46,-201.49 458.06,-201.4 449.72,-194.86 447.46,-201.49"/>
</g>
<!-- Node10 -->
<g id="node10" class="node">
<title>Node10</title>
<g id="a_node10"><a xlink:href="forward__shader_8h.html" target="_top" xlink:title=" ">
<polygon fill="white" stroke="black" points="532,-134.5 532,-164.5 643,-164.5 643,-134.5 532,-134.5"/>
<text text-anchor="start" x="540" y="-152.5" font-family="Helvetica,sans-Serif" font-size="10.00">src/graphics/shader</text>
<text text-anchor="middle" x="587.5" y="-141.5" font-family="Helvetica,sans-Serif" font-size="10.00">/forward_shader.h</text>
</a>
</g>
</g>
<!-- Node1&#45;&gt;Node10 -->
<g id="edge13" class="edge">
<title>Node1&#45;&gt;Node10</title>
<path fill="none" stroke="midnightblue" d="M526.64,-195.45C540.18,-185.45 556.23,-173.6 568.44,-164.58"/>
<polygon fill="midnightblue" stroke="midnightblue" points="524.56,-192.64 518.59,-201.4 528.72,-198.27 524.56,-192.64"/>
</g>
<!-- Node12 -->
<g id="node12" class="node">
<title>Node12</title>
<g id="a_node12"><a xlink:href="lighting__shader_8h.html" target="_top" xlink:title=" ">
<polygon fill="white" stroke="black" points="1250,-134.5 1250,-164.5 1361,-164.5 1361,-134.5 1250,-134.5"/>
<text text-anchor="start" x="1258" y="-152.5" font-family="Helvetica,sans-Serif" font-size="10.00">src/graphics/shader</text>
<text text-anchor="middle" x="1305.5" y="-141.5" font-family="Helvetica,sans-Serif" font-size="10.00">/lighting_shader.h</text>
</a>
</g>
</g>
<!-- Node1&#45;&gt;Node12 -->
<g id="edge17" class="edge">
<title>Node1&#45;&gt;Node12</title>
<path fill="none" stroke="midnightblue" d="M567.56,-210.01C723.92,-197.4 1106.36,-166.56 1249.87,-154.99"/>
<polygon fill="midnightblue" stroke="midnightblue" points="566.83,-206.56 557.14,-210.85 567.39,-213.54 566.83,-206.56"/>
</g>
<!-- Node14 -->
<g id="node14" class="node">
<title>Node14</title>
<g id="a_node14"><a xlink:href="texture__unit_8h.html" target="_top" xlink:title=" ">
<polygon fill="white" stroke="black" points="752,-134.5 752,-164.5 863,-164.5 863,-134.5 752,-134.5"/>
<text text-anchor="start" x="760" y="-152.5" font-family="Helvetica,sans-Serif" font-size="10.00">src/graphics/shader</text>
<text text-anchor="middle" x="807.5" y="-141.5" font-family="Helvetica,sans-Serif" font-size="10.00">/texture_unit.h</text>
</a>
</g>
</g>
<!-- Node1&#45;&gt;Node14 -->
<g id="edge21" class="edge">
<title>Node1&#45;&gt;Node14</title>
<path fill="none" stroke="midnightblue" d="M567.14,-201.22C622.52,-189.54 699.91,-173.21 751.77,-162.26"/>
<polygon fill="midnightblue" stroke="midnightblue" points="566.13,-197.86 557.07,-203.35 567.58,-204.71 566.13,-197.86"/>
</g>
<!-- Node4 -->
<g id="node4" class="node">
<title>Node4</title>
<g id="a_node4"><a xlink:href="application_8cpp.html" target="_top" xlink:title=" ">
<polygon fill="white" stroke="black" points="0,-6 0,-25 165,-25 165,-6 0,-6"/>
<text text-anchor="middle" x="82.5" y="-13" font-family="Helvetica,sans-Serif" font-size="10.00">src/application/application.cpp</text>
</a>
</g>
</g>
<!-- Node3&#45;&gt;Node4 -->
<g id="edge3" class="edge">
<title>Node3&#45;&gt;Node4</title>
<path fill="none" stroke="midnightblue" d="M82.5,-57.25C82.5,-46.02 82.5,-33.38 82.5,-25.19"/>
<polygon fill="midnightblue" stroke="midnightblue" points="79,-57.4 82.5,-67.4 86,-57.4 79,-57.4"/>
</g>
<!-- Node5 -->
<g id="node5" class="node">
<title>Node5</title>
<g id="a_node5"><a xlink:href="game__scene_8cpp.html" target="_top" xlink:title=" ">
<polygon fill="white" stroke="black" points="365.5,-0.5 365.5,-30.5 489.5,-30.5 489.5,-0.5 365.5,-0.5"/>
<text text-anchor="start" x="373.5" y="-18.5" font-family="Helvetica,sans-Serif" font-size="10.00">src/game/scene/game</text>
<text text-anchor="middle" x="427.5" y="-7.5" font-family="Helvetica,sans-Serif" font-size="10.00">_scene.cpp</text>
</a>
</g>
</g>
<!-- Node3&#45;&gt;Node5 -->
<g id="edge4" class="edge">
<title>Node3&#45;&gt;Node5</title>
<path fill="none" stroke="midnightblue" d="M152.12,-67.84C153.59,-67.56 155.05,-67.28 156.5,-67 228.07,-53.32 310.36,-38.05 365.31,-27.92"/>
<polygon fill="midnightblue" stroke="midnightblue" points="151.42,-64.41 142.27,-69.74 152.75,-71.28 151.42,-64.41"/>
</g>
<!-- Node6 -->
<g id="node6" class="node">
<title>Node6</title>
<g id="a_node6"><a xlink:href="graphics__renderer_8cpp.html" target="_top" xlink:title=" ">
<polygon fill="white" stroke="black" points="527,-0.5 527,-30.5 654,-30.5 654,-0.5 527,-0.5"/>
<text text-anchor="start" x="535" y="-18.5" font-family="Helvetica,sans-Serif" font-size="10.00">src/graphics/renderer</text>
<text text-anchor="middle" x="590.5" y="-7.5" font-family="Helvetica,sans-Serif" font-size="10.00">/graphics_renderer.cpp</text>
</a>
</g>
</g>
<!-- Node3&#45;&gt;Node6 -->
<g id="edge5" class="edge">
<title>Node3&#45;&gt;Node6</title>
<path fill="none" stroke="midnightblue" d="M152.14,-72.36C166.16,-70.56 180.8,-68.7 194.5,-67 329.52,-50.27 363.72,-49.59 498.5,-31 507.63,-29.74 517.26,-28.32 526.7,-26.88"/>
<polygon fill="midnightblue" stroke="midnightblue" points="151.53,-68.91 142.06,-73.67 152.43,-75.86 151.53,-68.91"/>
</g>
<!-- Node7&#45;&gt;Node5 -->
<g id="edge7" class="edge">
<title>Node7&#45;&gt;Node5</title>
<path fill="none" stroke="midnightblue" d="M476.35,-60.6C465.48,-50.78 452.8,-39.34 443.09,-30.58"/>
<polygon fill="midnightblue" stroke="midnightblue" points="474.11,-63.29 483.88,-67.4 478.8,-58.1 474.11,-63.29"/>
</g>
<!-- Node7&#45;&gt;Node6 -->
<g id="edge8" class="edge">
<title>Node7&#45;&gt;Node6</title>
<path fill="none" stroke="midnightblue" d="M527.57,-61.45C541.57,-51.45 558.16,-39.6 570.79,-30.58"/>
<polygon fill="midnightblue" stroke="midnightblue" points="525.35,-58.74 519.25,-67.4 529.42,-64.43 525.35,-58.74"/>
</g>
<!-- Node8&#45;&gt;Node5 -->
<g id="edge10" class="edge">
<title>Node8&#45;&gt;Node5</title>
<path fill="none" stroke="midnightblue" d="M249.35,-130.95C211.23,-116.59 172.54,-94.24 194.5,-67 215.61,-40.82 303.8,-27.53 365.41,-21.31"/>
<polygon fill="midnightblue" stroke="midnightblue" points="248.4,-134.33 259,-134.43 250.78,-127.75 248.4,-134.33"/>
</g>
<!-- Node8&#45;&gt;Node6 -->
<g id="edge11" class="edge">
<title>Node8&#45;&gt;Node6</title>
<path fill="none" stroke="midnightblue" d="M268.19,-129.72C238.97,-113.62 207.79,-89.51 227.5,-67 267.53,-21.3 438.38,-39.73 498.5,-31 507.62,-29.68 517.24,-28.22 526.69,-26.76"/>
<polygon fill="midnightblue" stroke="midnightblue" points="266.66,-132.87 277.13,-134.46 269.93,-126.69 266.66,-132.87"/>
</g>
<!-- Node9 -->
<g id="node9" class="node">
<title>Node9</title>
<g id="a_node9"><a xlink:href="alpha__weight__shader_8cpp.html" target="_top" xlink:title=" ">
<polygon fill="white" stroke="black" points="237,-67.5 237,-97.5 380,-97.5 380,-67.5 237,-67.5"/>
<text text-anchor="start" x="245" y="-85.5" font-family="Helvetica,sans-Serif" font-size="10.00">src/graphics/shader</text>
<text text-anchor="middle" x="308.5" y="-74.5" font-family="Helvetica,sans-Serif" font-size="10.00">/alpha_weight_shader.cpp</text>
</a>
</g>
</g>
<!-- Node8&#45;&gt;Node9 -->
<g id="edge12" class="edge">
<title>Node8&#45;&gt;Node9</title>
<path fill="none" stroke="midnightblue" d="M308.5,-124.11C308.5,-115.15 308.5,-105.32 308.5,-97.58"/>
<polygon fill="midnightblue" stroke="midnightblue" points="305,-124.4 308.5,-134.4 312,-124.4 305,-124.4"/>
</g>
<!-- Node10&#45;&gt;Node5 -->
<g id="edge14" class="edge">
<title>Node10&#45;&gt;Node5</title>
<path fill="none" stroke="midnightblue" d="M521.28,-145.38C487.44,-140.02 448.96,-127.27 427.5,-98 413.11,-78.37 418.06,-48.33 422.85,-30.73"/>
<polygon fill="midnightblue" stroke="midnightblue" points="521.22,-148.91 531.61,-146.82 522.19,-141.97 521.22,-148.91"/>
</g>
<!-- Node10&#45;&gt;Node6 -->
<g id="edge15" class="edge">
<title>Node10&#45;&gt;Node6</title>
<path fill="none" stroke="midnightblue" d="M588.06,-124.02C588.68,-96.51 589.68,-52.79 590.18,-30.52"/>
<polygon fill="midnightblue" stroke="midnightblue" points="584.55,-124.3 587.82,-134.37 591.55,-124.46 584.55,-124.3"/>
</g>
<!-- Node11 -->
<g id="node11" class="node">
<title>Node11</title>
<g id="a_node11"><a xlink:href="forward__shader_8cpp.html" target="_top" xlink:title=" ">
<polygon fill="white" stroke="black" points="619,-67.5 619,-97.5 734,-97.5 734,-67.5 619,-67.5"/>
<text text-anchor="start" x="627" y="-85.5" font-family="Helvetica,sans-Serif" font-size="10.00">src/graphics/shader</text>
<text text-anchor="middle" x="676.5" y="-74.5" font-family="Helvetica,sans-Serif" font-size="10.00">/forward_shader.cpp</text>
</a>
</g>
</g>
<!-- Node10&#45;&gt;Node11 -->
<g id="edge16" class="edge">
<title>Node10&#45;&gt;Node11</title>
<path fill="none" stroke="midnightblue" d="M614.95,-128.45C628.64,-118.45 644.87,-106.6 657.23,-97.58"/>
<polygon fill="midnightblue" stroke="midnightblue" points="612.82,-125.67 606.81,-134.4 616.95,-131.32 612.82,-125.67"/>
</g>
<!-- Node12&#45;&gt;Node5 -->
<g id="edge18" class="edge">
<title>Node12&#45;&gt;Node5</title>
<path fill="none" stroke="midnightblue" d="M1322.41,-126.21C1333.99,-108.06 1344.75,-82.94 1329.5,-67 1298.29,-34.37 562.42,-35.6 517.5,-31 508.53,-30.08 499.09,-28.85 489.83,-27.5"/>
<polygon fill="midnightblue" stroke="midnightblue" points="1319.51,-124.25 1316.77,-134.48 1325.3,-128.19 1319.51,-124.25"/>
</g>
<!-- Node12&#45;&gt;Node6 -->
<g id="edge19" class="edge">
<title>Node12&#45;&gt;Node6</title>
<path fill="none" stroke="midnightblue" d="M1335.51,-128.13C1357.37,-110.88 1380.29,-86 1362.5,-67 1314.52,-15.78 830.33,-14.53 654.16,-15.8"/>
<polygon fill="midnightblue" stroke="midnightblue" points="1333.15,-125.53 1327.27,-134.34 1337.36,-131.12 1333.15,-125.53"/>
</g>
<!-- Node13 -->
<g id="node13" class="node">
<title>Node13</title>
<g id="a_node13"><a xlink:href="lighting__shader_8cpp.html" target="_top" xlink:title=" ">
<polygon fill="white" stroke="black" points="1206.5,-67.5 1206.5,-97.5 1320.5,-97.5 1320.5,-67.5 1206.5,-67.5"/>
<text text-anchor="start" x="1214.5" y="-85.5" font-family="Helvetica,sans-Serif" font-size="10.00">src/graphics/shader</text>
<text text-anchor="middle" x="1263.5" y="-74.5" font-family="Helvetica,sans-Serif" font-size="10.00">/lighting_shader.cpp</text>
</a>
</g>
</g>
<!-- Node12&#45;&gt;Node13 -->
<g id="edge20" class="edge">
<title>Node12&#45;&gt;Node13</title>
<path fill="none" stroke="midnightblue" d="M1290.88,-125.87C1284.8,-116.46 1277.93,-105.83 1272.6,-97.58"/>
<polygon fill="midnightblue" stroke="midnightblue" points="1288.02,-127.9 1296.39,-134.4 1293.9,-124.1 1288.02,-127.9"/>
</g>
<!-- Node14&#45;&gt;Node6 -->
<g id="edge22" class="edge">
<title>Node14&#45;&gt;Node6</title>
<path fill="none" stroke="midnightblue" d="M840.53,-128.95C864.52,-112.31 889.95,-87.86 872.5,-67 845.21,-34.39 728.55,-22.81 654.1,-18.72"/>
<polygon fill="midnightblue" stroke="midnightblue" points="838.58,-126.05 832.18,-134.5 842.45,-131.88 838.58,-126.05"/>
</g>
<!-- Node14&#45;&gt;Node7 -->
<g id="edge23" class="edge">
<title>Node14&#45;&gt;Node7</title>
<path fill="none" stroke="midnightblue" d="M741.72,-134.62C688.57,-123.4 614.27,-107.72 562.02,-96.69"/>
<polygon fill="midnightblue" stroke="midnightblue" points="741.22,-138.09 751.72,-136.73 742.66,-131.24 741.22,-138.09"/>
</g>
<!-- Node14&#45;&gt;Node9 -->
<g id="edge24" class="edge">
<title>Node14&#45;&gt;Node9</title>
<path fill="none" stroke="midnightblue" d="M741.51,-139.9C647.88,-127.71 477.13,-105.47 380.38,-92.86"/>
<polygon fill="midnightblue" stroke="midnightblue" points="741.34,-143.41 751.71,-141.23 742.25,-136.47 741.34,-143.41"/>
</g>
<!-- Node14&#45;&gt;Node11 -->
<g id="edge25" class="edge">
<title>Node14&#45;&gt;Node11</title>
<path fill="none" stroke="midnightblue" d="M769.92,-129.85C749.21,-119.58 723.91,-107.03 704.87,-97.58"/>
<polygon fill="midnightblue" stroke="midnightblue" points="768.56,-133.09 779.07,-134.4 771.67,-126.82 768.56,-133.09"/>
</g>
<!-- Node14&#45;&gt;Node13 -->
<g id="edge27" class="edge">
<title>Node14&#45;&gt;Node13</title>
<path fill="none" stroke="midnightblue" d="M873.41,-141.75C951.16,-133.37 1084.21,-117.74 1197.5,-98 1200.39,-97.5 1203.34,-96.95 1206.32,-96.38"/>
<polygon fill="midnightblue" stroke="midnightblue" points="872.84,-138.29 863.27,-142.83 873.59,-145.25 872.84,-138.29"/>
</g>
<!-- Node15 -->
<g id="node15" class="node">
<title>Node15</title>
<g id="a_node15"><a xlink:href="geometry__shader_8cpp.html" target="_top" xlink:title=" ">
<polygon fill="white" stroke="black" points="1063,-67.5 1063,-97.5 1188,-97.5 1188,-67.5 1063,-67.5"/>
<text text-anchor="start" x="1071" y="-85.5" font-family="Helvetica,sans-Serif" font-size="10.00">src/graphics/shader</text>
<text text-anchor="middle" x="1125.5" y="-74.5" font-family="Helvetica,sans-Serif" font-size="10.00">/geometry_shader.cpp</text>
</a>
</g>
</g>
<!-- Node14&#45;&gt;Node15 -->
<g id="edge26" class="edge">
<title>Node14&#45;&gt;Node15</title>
<path fill="none" stroke="midnightblue" d="M873.37,-135.04C929.06,-123.65 1008.28,-107.46 1062.99,-96.28"/>
<polygon fill="midnightblue" stroke="midnightblue" points="872.35,-131.67 863.26,-137.1 873.75,-138.53 872.35,-131.67"/>
</g>
<!-- Node16 -->
<g id="node16" class="node">
<title>Node16</title>
<g id="a_node16"><a xlink:href="post__proc__shader_8cpp.html" target="_top" xlink:title=" ">
<polygon fill="white" stroke="black" points="920,-67.5 920,-97.5 1045,-97.5 1045,-67.5 920,-67.5"/>
<text text-anchor="start" x="928" y="-85.5" font-family="Helvetica,sans-Serif" font-size="10.00">src/graphics/shader</text>
<text text-anchor="middle" x="982.5" y="-74.5" font-family="Helvetica,sans-Serif" font-size="10.00">/post_proc_shader.cpp</text>
</a>
</g>
</g>
<!-- Node14&#45;&gt;Node16 -->
<g id="edge28" class="edge">
<title>Node14&#45;&gt;Node16</title>
<path fill="none" stroke="midnightblue" d="M855.1,-130.82C883.23,-120.37 918.36,-107.32 944.6,-97.58"/>
<polygon fill="midnightblue" stroke="midnightblue" points="853.63,-127.63 845.47,-134.4 856.07,-134.2 853.63,-127.63"/>
</g>
<!-- Node17 -->
<g id="node17" class="node">
<title>Node17</title>
<g id="a_node17"><a xlink:href="skybox__shader_8h.html" target="_top" xlink:title=" ">
<polygon fill="white" stroke="black" points="752,-67.5 752,-97.5 863,-97.5 863,-67.5 752,-67.5"/>
<text text-anchor="start" x="760" y="-85.5" font-family="Helvetica,sans-Serif" font-size="10.00">src/graphics/shader</text>
<text text-anchor="middle" x="807.5" y="-74.5" font-family="Helvetica,sans-Serif" font-size="10.00">/skybox_shader.h</text>
</a>
</g>
</g>
<!-- Node14&#45;&gt;Node17 -->
<g id="edge29" class="edge">
<title>Node14&#45;&gt;Node17</title>
<path fill="none" stroke="midnightblue" d="M807.5,-124.11C807.5,-115.15 807.5,-105.32 807.5,-97.58"/>
<polygon fill="midnightblue" stroke="midnightblue" points="804,-124.4 807.5,-134.4 811,-124.4 804,-124.4"/>
</g>
<!-- Node17&#45;&gt;Node5 -->
<g id="edge30" class="edge">
<title>Node17&#45;&gt;Node5</title>
<path fill="none" stroke="midnightblue" d="M741.8,-66.73C641.95,-47.7 614.79,-46.59 517.5,-31 508.59,-29.57 499.19,-28.06 489.95,-26.58"/>
<polygon fill="midnightblue" stroke="midnightblue" points="741.22,-70.19 751.7,-68.63 742.54,-63.31 741.22,-70.19"/>
</g>
<!-- Node17&#45;&gt;Node6 -->
<g id="edge31" class="edge">
<title>Node17&#45;&gt;Node6</title>
<path fill="none" stroke="midnightblue" d="M751.01,-64.58C715.77,-54.02 670.93,-40.59 637.61,-30.61"/>
<polygon fill="midnightblue" stroke="midnightblue" points="750.1,-67.96 760.68,-67.48 752.11,-61.25 750.1,-67.96"/>
</g>
</g>
</svg>
