<?xml version="1.0" encoding="UTF-8" standalone="no"?>
<!DOCTYPE svg PUBLIC "-//W3C//DTD SVG 1.1//EN"
 "http://www.w3.org/Graphics/SVG/1.1/DTD/svg11.dtd">
<!-- Generated by graphviz version 2.43.0 (0)
 -->
<!-- Title: src/graphics/shader/lighting_shader.h Pages: 1 -->
<svg width="714pt" height="162pt"
 viewBox="0.00 0.00 714.00 162.00" xmlns="http://www.w3.org/2000/svg" xmlns:xlink="http://www.w3.org/1999/xlink">
<g id="graph0" class="graph" transform="scale(1 1) rotate(0) translate(4 158)">
<title>src/graphics/shader/lighting_shader.h</title>
<polygon fill="white" stroke="transparent" points="-4,4 -4,-158 710,-158 710,4 -4,4"/>
<!-- Node1 -->
<g id="node1" class="node">
<title>Node1</title>
<g id="a_node1"><a xlink:title=" ">
<polygon fill="#bfbfbf" stroke="black" points="369.5,-123.5 369.5,-153.5 480.5,-153.5 480.5,-123.5 369.5,-123.5"/>
<text text-anchor="start" x="377.5" y="-141.5" font-family="Helvetica,sans-Serif" font-size="10.00">src/graphics/shader</text>
<text text-anchor="middle" x="425" y="-130.5" font-family="Helvetica,sans-Serif" font-size="10.00">/lighting_shader.h</text>
</a>
</g>
</g>
<!-- Node2 -->
<g id="node2" class="node">
<title>Node2</title>
<g id="a_node2"><a xlink:href="shader__program_8h.html" target="_top" xlink:title=" ">
<polygon fill="white" stroke="black" points="250,-56.5 250,-86.5 380,-86.5 380,-56.5 250,-56.5"/>
<text text-anchor="start" x="258" y="-74.5" font-family="Helvetica,sans-Serif" font-size="10.00">graphics/shader/shader</text>
<text text-anchor="middle" x="315" y="-63.5" font-family="Helvetica,sans-Serif" font-size="10.00">_program.h</text>
</a>
</g>
</g>
<!-- Node1&#45;&gt;Node2 -->
<g id="edge1" class="edge">
<title>Node1&#45;&gt;Node2</title>
<path fill="none" stroke="midnightblue" d="M401.13,-123.4C385.42,-114.11 364.65,-101.84 347.45,-91.67"/>
<polygon fill="midnightblue" stroke="midnightblue" points="349.21,-88.65 338.82,-86.58 345.65,-94.68 349.21,-88.65"/>
</g>
<!-- Node10 -->
<g id="node10" class="node">
<title>Node10</title>
<g id="a_node10"><a xlink:href="lighting_8h.html" target="_top" xlink:title=" ">
<polygon fill="white" stroke="black" points="520,-62 520,-81 666,-81 666,-62 520,-62"/>
<text text-anchor="middle" x="593" y="-69" font-family="Helvetica,sans-Serif" font-size="10.00">graphics/lighting/lighting.h</text>
</a>
</g>
</g>
<!-- Node1&#45;&gt;Node10 -->
<g id="edge9" class="edge">
<title>Node1&#45;&gt;Node10</title>
<path fill="none" stroke="midnightblue" d="M461.45,-123.4C491.32,-111.84 533.15,-95.66 561.56,-84.66"/>
<polygon fill="midnightblue" stroke="midnightblue" points="562.95,-87.88 571.01,-81.01 560.42,-81.35 562.95,-87.88"/>
</g>
<!-- Node3 -->
<g id="node3" class="node">
<title>Node3</title>
<g id="a_node3"><a xlink:title=" ">
<polygon fill="white" stroke="#bfbfbf" points="0,-0.5 0,-19.5 44,-19.5 44,-0.5 0,-0.5"/>
<text text-anchor="middle" x="22" y="-7.5" font-family="Helvetica,sans-Serif" font-size="10.00">string</text>
</a>
</g>
</g>
<!-- Node2&#45;&gt;Node3 -->
<g id="edge2" class="edge">
<title>Node2&#45;&gt;Node3</title>
<path fill="none" stroke="midnightblue" d="M249.77,-59.65C198.93,-50.8 126.41,-37.31 54.44,-20.18"/>
<polygon fill="midnightblue" stroke="midnightblue" points="54.83,-16.67 44.29,-17.74 53.19,-23.48 54.83,-16.67"/>
</g>
<!-- Node4 -->
<g id="node4" class="node">
<title>Node4</title>
<g id="a_node4"><a xlink:title=" ">
<polygon fill="white" stroke="#bfbfbf" points="62.5,-0.5 62.5,-19.5 109.5,-19.5 109.5,-0.5 62.5,-0.5"/>
<text text-anchor="middle" x="86" y="-7.5" font-family="Helvetica,sans-Serif" font-size="10.00">vector</text>
</a>
</g>
</g>
<!-- Node2&#45;&gt;Node4 -->
<g id="edge3" class="edge">
<title>Node2&#45;&gt;Node4</title>
<path fill="none" stroke="midnightblue" d="M259.61,-56.45C222.63,-47.02 172.65,-34.18 119.7,-20.16"/>
<polygon fill="midnightblue" stroke="midnightblue" points="120.35,-16.71 109.78,-17.53 118.55,-23.48 120.35,-16.71"/>
</g>
<!-- Node5 -->
<g id="node5" class="node">
<title>Node5</title>
<g id="a_node5"><a xlink:title=" ">
<polygon fill="white" stroke="#bfbfbf" points="128,-0.5 128,-19.5 192,-19.5 192,-0.5 128,-0.5"/>
<text text-anchor="middle" x="160" y="-7.5" font-family="Helvetica,sans-Serif" font-size="10.00">GL/glew.h</text>
</a>
</g>
</g>
<!-- Node2&#45;&gt;Node5 -->
<g id="edge4" class="edge">
<title>Node2&#45;&gt;Node5</title>
<path fill="none" stroke="midnightblue" d="M278.27,-56.4C252.03,-46.33 217.07,-32.91 191.98,-23.28"/>
<polygon fill="midnightblue" stroke="midnightblue" points="193.14,-19.97 182.55,-19.66 190.64,-26.51 193.14,-19.97"/>
</g>
<!-- Node6 -->
<g id="node6" class="node">
<title>Node6</title>
<g id="a_node6"><a xlink:title=" ">
<polygon fill="white" stroke="#bfbfbf" points="548.5,-0.5 548.5,-19.5 637.5,-19.5 637.5,-0.5 548.5,-0.5"/>
<text text-anchor="middle" x="593" y="-7.5" font-family="Helvetica,sans-Serif" font-size="10.00">maths/colour.h</text>
</a>
</g>
</g>
<!-- Node2&#45;&gt;Node6 -->
<g id="edge5" class="edge">
<title>Node2&#45;&gt;Node6</title>
<path fill="none" stroke="midnightblue" d="M380.18,-56.55C430.01,-45.88 497.68,-31.4 543.22,-21.65"/>
<polygon fill="midnightblue" stroke="midnightblue" points="544.11,-25.04 553.15,-19.53 542.64,-18.2 544.11,-25.04"/>
</g>
<!-- Node7 -->
<g id="node7" class="node">
<title>Node7</title>
<g id="a_node7"><a xlink:title=" ">
<polygon fill="white" stroke="#bfbfbf" points="210,-0.5 210,-19.5 306,-19.5 306,-0.5 210,-0.5"/>
<text text-anchor="middle" x="258" y="-7.5" font-family="Helvetica,sans-Serif" font-size="10.00">maths/vector2.h</text>
</a>
</g>
</g>
<!-- Node2&#45;&gt;Node7 -->
<g id="edge6" class="edge">
<title>Node2&#45;&gt;Node7</title>
<path fill="none" stroke="midnightblue" d="M301.49,-56.4C293.04,-47.58 282.12,-36.18 273.34,-27.02"/>
<polygon fill="midnightblue" stroke="midnightblue" points="275.74,-24.46 266.29,-19.66 270.68,-29.3 275.74,-24.46"/>
</g>
<!-- Node8 -->
<g id="node8" class="node">
<title>Node8</title>
<g id="a_node8"><a xlink:title=" ">
<polygon fill="white" stroke="#bfbfbf" points="324,-0.5 324,-19.5 420,-19.5 420,-0.5 324,-0.5"/>
<text text-anchor="middle" x="372" y="-7.5" font-family="Helvetica,sans-Serif" font-size="10.00">maths/vector3.h</text>
</a>
</g>
</g>
<!-- Node2&#45;&gt;Node8 -->
<g id="edge7" class="edge">
<title>Node2&#45;&gt;Node8</title>
<path fill="none" stroke="midnightblue" d="M328.51,-56.4C336.96,-47.58 347.88,-36.18 356.66,-27.02"/>
<polygon fill="midnightblue" stroke="midnightblue" points="359.32,-29.3 363.71,-19.66 354.26,-24.46 359.32,-29.3"/>
</g>
<!-- Node9 -->
<g id="node9" class="node">
<title>Node9</title>
<g id="a_node9"><a xlink:title=" ">
<polygon fill="white" stroke="#bfbfbf" points="438,-0.5 438,-19.5 530,-19.5 530,-0.5 438,-0.5"/>
<text text-anchor="middle" x="484" y="-7.5" font-family="Helvetica,sans-Serif" font-size="10.00">maths/matrix.h</text>
</a>
</g>
</g>
<!-- Node2&#45;&gt;Node9 -->
<g id="edge8" class="edge">
<title>Node2&#45;&gt;Node9</title>
<path fill="none" stroke="midnightblue" d="M355.05,-56.4C383.91,-46.24 422.45,-32.67 449.85,-23.02"/>
<polygon fill="midnightblue" stroke="midnightblue" points="451.14,-26.28 459.41,-19.66 448.81,-19.68 451.14,-26.28"/>
</g>
<!-- Node10&#45;&gt;Node6 -->
<g id="edge11" class="edge">
<title>Node10&#45;&gt;Node6</title>
<path fill="none" stroke="midnightblue" d="M593,-61.98C593,-53.58 593,-40.48 593,-29.66"/>
<polygon fill="midnightblue" stroke="midnightblue" points="596.5,-29.51 593,-19.51 589.5,-29.51 596.5,-29.51"/>
</g>
<!-- Node11 -->
<g id="node11" class="node">
<title>Node11</title>
<g id="a_node11"><a xlink:title=" ">
<polygon fill="white" stroke="#bfbfbf" points="656,-0.5 656,-19.5 706,-19.5 706,-0.5 656,-0.5"/>
<text text-anchor="middle" x="681" y="-7.5" font-family="Helvetica,sans-Serif" font-size="10.00">cstdint</text>
</a>
</g>
</g>
<!-- Node10&#45;&gt;Node11 -->
<g id="edge10" class="edge">
<title>Node10&#45;&gt;Node11</title>
<path fill="none" stroke="midnightblue" d="M605.61,-61.98C619.72,-52.43 642.83,-36.81 659.75,-25.37"/>
<polygon fill="midnightblue" stroke="midnightblue" points="662.09,-28.01 668.42,-19.51 658.17,-22.21 662.09,-28.01"/>
</g>
</g>
</svg>
