<?xml version="1.0" encoding="UTF-8" standalone="no"?>
<!DOCTYPE svg PUBLIC "-//W3C//DTD SVG 1.1//EN"
 "http://www.w3.org/Graphics/SVG/1.1/DTD/svg11.dtd">
<!-- Generated by graphviz version 2.43.0 (0)
 -->
<!-- Title: src/log/log.h Pages: 1 -->
<!--zoomable 229 -->
<svg id="main" version="1.1" xmlns="http://www.w3.org/2000/svg" xmlns:xlink="http://www.w3.org/1999/xlink" xml:space="preserve" onload="init(evt)">
<style type="text/css"><![CDATA[
.edge:hover path { stroke: red; }
.edge:hover polygon { stroke: red; fill: red; }
]]></style>
<script type="text/javascript"><![CDATA[
var edges = document.getElementsByTagName('g');
if (edges && edges.length) {
  for (var i=0;i<edges.length;i++) {
    if (edges[i].id.substr(0,4)=='edge') {
      edges[i].setAttribute('class','edge');
    }
  }
}
]]></script>
        <defs>
                <circle id="rim" cx="0" cy="0" r="7"/>
                <circle id="rim2" cx="0" cy="0" r="3.5"/>
                <g id="zoomPlus">
                        <use xlink:href="#rim" fill="#404040">
                                <set attributeName="fill" to="#808080" begin="zoomplus.mouseover" end="zoomplus.mouseout"/>
                        </use>
                        <path d="M-4,0h8M0,-4v8" fill="none" stroke="white" stroke-width="1.5" pointer-events="none"/>
                </g>
                <g id="zoomMin">
                        <use xlink:href="#rim" fill="#404040">
                                <set attributeName="fill" to="#808080" begin="zoomminus.mouseover" end="zoomminus.mouseout"/>
                        </use>
                        <path d="M-4,0h8" fill="none" stroke="white" stroke-width="1.5" pointer-events="none"/>
                </g>
                <g id="dirArrow">
                        <path fill="none" stroke="white" stroke-width="1.5" d="M0,-3.0v7 M-2.5,-0.5L0,-3.0L2.5,-0.5"/>
                </g>
               <g id="resetDef">
                       <use xlink:href="#rim2" fill="#404040">
                               <set attributeName="fill" to="#808080" begin="reset.mouseover" end="reset.mouseout"/>
                       </use>
               </g>
        </defs>

<script type="text/javascript">
var viewWidth = 1271;
var viewHeight = 229;
var sectionId = 'dynsection-1';
</script>
<script xlink:href="svgpan.js"/>
<svg id="graph" class="graph">
<g id="viewport">
<title>src/log/log.h</title>
<polygon fill="white" stroke="transparent" points="-4,4 -4,-225 1267,-225 1267,4 -4,4"/>
<!-- Node1 -->
<g id="node1" class="node">
<title>Node1</title>
<g id="a_node1"><a xlink:title=" ">
<polygon fill="#bfbfbf" stroke="black" points="596.5,-201.5 596.5,-220.5 672.5,-220.5 672.5,-201.5 596.5,-201.5"/>
<text text-anchor="middle" x="634.5" y="-208.5" font-family="Helvetica,sans-Serif" font-size="10.00">src/log/log.h</text>
</a>
</g>
</g>
<!-- Node2 -->
<g id="node2" class="node">
<title>Node2</title>
<g id="a_node2"><a xlink:href="application_8cpp.html" target="_top" xlink:title=" ">
<polygon fill="white" stroke="black" points="101,-73 101,-92 266,-92 266,-73 101,-73"/>
<text text-anchor="middle" x="183.5" y="-80" font-family="Helvetica,sans-Serif" font-size="10.00">src/application/application.cpp</text>
</a>
</g>
</g>
<!-- Node1&#45;&gt;Node2 -->
<g id="edge1" class="edge">
<title>Node1&#45;&gt;Node2</title>
<path fill="none" stroke="midnightblue" d="M585.97,-208.23C478.27,-203.84 226.53,-190.89 198.5,-165 178,-146.06 179.96,-109.02 182.11,-92.19"/>
<polygon fill="midnightblue" stroke="midnightblue" points="586.11,-211.73 596.24,-208.64 586.39,-204.74 586.11,-211.73"/>
</g>
<!-- Node3 -->
<g id="node3" class="node">
<title>Node3</title>
<g id="a_node3"><a xlink:href="sdl__message__pump_8cpp.html" target="_top" xlink:title=" ">
<polygon fill="white" stroke="black" points="834,-134.5 834,-164.5 953,-164.5 953,-134.5 834,-134.5"/>
<text text-anchor="start" x="842" y="-152.5" font-family="Helvetica,sans-Serif" font-size="10.00">src/application/sdl</text>
<text text-anchor="middle" x="893.5" y="-141.5" font-family="Helvetica,sans-Serif" font-size="10.00">_message_pump.cpp</text>
</a>
</g>
</g>
<!-- Node1&#45;&gt;Node3 -->
<g id="edge2" class="edge">
<title>Node1&#45;&gt;Node3</title>
<path fill="none" stroke="midnightblue" d="M681.48,-199.21C724.26,-189.38 787.63,-174.82 833.95,-164.18"/>
<polygon fill="midnightblue" stroke="midnightblue" points="680.57,-195.82 671.61,-201.48 682.14,-202.65 680.57,-195.82"/>
</g>
<!-- Node4 -->
<g id="node4" class="node">
<title>Node4</title>
<g id="a_node4"><a xlink:href="head__control__system_8h.html" target="_top" xlink:title=" ">
<polygon fill="white" stroke="black" points="495.5,-134.5 495.5,-164.5 623.5,-164.5 623.5,-134.5 495.5,-134.5"/>
<text text-anchor="start" x="503.5" y="-152.5" font-family="Helvetica,sans-Serif" font-size="10.00">src/game/system/head</text>
<text text-anchor="middle" x="559.5" y="-141.5" font-family="Helvetica,sans-Serif" font-size="10.00">_control_system.h</text>
</a>
</g>
</g>
<!-- Node1&#45;&gt;Node4 -->
<g id="edge3" class="edge">
<title>Node1&#45;&gt;Node4</title>
<path fill="none" stroke="midnightblue" d="M615.84,-195.2C604.01,-185.81 588.81,-173.75 577.18,-164.52"/>
<polygon fill="midnightblue" stroke="midnightblue" points="613.74,-198 623.75,-201.48 618.1,-192.52 613.74,-198"/>
</g>
<!-- Node8 -->
<g id="node8" class="node">
<title>Node8</title>
<g id="a_node8"><a xlink:href="motion__test__system_8h.html" target="_top" xlink:title=" ">
<polygon fill="white" stroke="black" points="339.5,-134.5 339.5,-164.5 477.5,-164.5 477.5,-134.5 339.5,-134.5"/>
<text text-anchor="start" x="347.5" y="-152.5" font-family="Helvetica,sans-Serif" font-size="10.00">src/game/system/motion</text>
<text text-anchor="middle" x="408.5" y="-141.5" font-family="Helvetica,sans-Serif" font-size="10.00">_test_system.h</text>
</a>
</g>
</g>
<!-- Node1&#45;&gt;Node8 -->
<g id="edge7" class="edge">
<title>Node1&#45;&gt;Node8</title>
<path fill="none" stroke="midnightblue" d="M592.18,-198.86C555.28,-189.14 501.58,-175.01 461.76,-164.52"/>
<polygon fill="midnightblue" stroke="midnightblue" points="591.56,-202.31 602.12,-201.48 593.34,-195.54 591.56,-202.31"/>
</g>
<!-- Node9 -->
<g id="node9" class="node">
<title>Node9</title>
<g id="a_node9"><a xlink:href="mesh__builder_8h.html" target="_top" xlink:title=" ">
<polygon fill="white" stroke="black" points="642,-134.5 642,-164.5 777,-164.5 777,-134.5 642,-134.5"/>
<text text-anchor="start" x="650" y="-152.5" font-family="Helvetica,sans-Serif" font-size="10.00">src/graphics/mesh/mesh</text>
<text text-anchor="middle" x="709.5" y="-141.5" font-family="Helvetica,sans-Serif" font-size="10.00">_builder.h</text>
</a>
</g>
</g>
<!-- Node1&#45;&gt;Node9 -->
<g id="edge9" class="edge">
<title>Node1&#45;&gt;Node9</title>
<path fill="none" stroke="midnightblue" d="M653.16,-195.2C664.99,-185.81 680.19,-173.75 691.82,-164.52"/>
<polygon fill="midnightblue" stroke="midnightblue" points="650.9,-192.52 645.25,-201.48 655.26,-198 650.9,-192.52"/>
</g>
<!-- Node11 -->
<g id="node11" class="node">
<title>Node11</title>
<g id="a_node11"><a xlink:href="graphics__renderer_8cpp.html" target="_top" xlink:title=" ">
<polygon fill="white" stroke="black" points="734,-67.5 734,-97.5 861,-97.5 861,-67.5 734,-67.5"/>
<text text-anchor="start" x="742" y="-85.5" font-family="Helvetica,sans-Serif" font-size="10.00">src/graphics/renderer</text>
<text text-anchor="middle" x="797.5" y="-74.5" font-family="Helvetica,sans-Serif" font-size="10.00">/graphics_renderer.cpp</text>
</a>
</g>
</g>
<!-- Node1&#45;&gt;Node11 -->
<g id="edge13" class="edge">
<title>Node1&#45;&gt;Node11</title>
<path fill="none" stroke="midnightblue" d="M683.08,-208.82C717.19,-205.25 761.1,-194.64 786.5,-165 802.57,-146.25 801.95,-115.62 799.85,-97.73"/>
<polygon fill="midnightblue" stroke="midnightblue" points="682.49,-205.35 672.83,-209.71 683.1,-212.33 682.49,-205.35"/>
</g>
<!-- Node12 -->
<g id="node12" class="node">
<title>Node12</title>
<g id="a_node12"><a xlink:href="shader__program_8cpp.html" target="_top" xlink:title=" ">
<polygon fill="white" stroke="black" points="971,-134.5 971,-164.5 1090,-164.5 1090,-134.5 971,-134.5"/>
<text text-anchor="start" x="979" y="-152.5" font-family="Helvetica,sans-Serif" font-size="10.00">src/graphics/shader</text>
<text text-anchor="middle" x="1030.5" y="-141.5" font-family="Helvetica,sans-Serif" font-size="10.00">/shader_program.cpp</text>
</a>
</g>
</g>
<!-- Node1&#45;&gt;Node12 -->
<g id="edge14" class="edge">
<title>Node1&#45;&gt;Node12</title>
<path fill="none" stroke="midnightblue" d="M682.73,-204.51C746.83,-196.96 863.55,-182.31 962.5,-165 965.23,-164.52 968.03,-164.01 970.84,-163.48"/>
<polygon fill="midnightblue" stroke="midnightblue" points="682.05,-201.07 672.52,-205.71 682.86,-208.02 682.05,-201.07"/>
</g>
<!-- Node13 -->
<g id="node13" class="node">
<title>Node13</title>
<g id="a_node13"><a xlink:href="texture__loader_8h.html" target="_top" xlink:title=" ">
<polygon fill="white" stroke="black" points="208,-134.5 208,-164.5 321,-164.5 321,-134.5 208,-134.5"/>
<text text-anchor="start" x="216" y="-152.5" font-family="Helvetica,sans-Serif" font-size="10.00">src/graphics/texture</text>
<text text-anchor="middle" x="264.5" y="-141.5" font-family="Helvetica,sans-Serif" font-size="10.00">/texture_loader.h</text>
</a>
</g>
</g>
<!-- Node1&#45;&gt;Node13 -->
<g id="edge15" class="edge">
<title>Node1&#45;&gt;Node13</title>
<path fill="none" stroke="midnightblue" d="M586.49,-203.94C526.44,-196.12 420.53,-181.53 330.5,-165 327.5,-164.45 324.43,-163.86 321.33,-163.25"/>
<polygon fill="midnightblue" stroke="midnightblue" points="586.08,-207.42 596.45,-205.23 586.98,-200.47 586.08,-207.42"/>
</g>
<!-- Node15 -->
<g id="node15" class="node">
<title>Node15</title>
<g id="a_node15"><a xlink:href="input__manager_8cpp.html" target="_top" xlink:title=" ">
<polygon fill="white" stroke="black" points="1108,-140 1108,-159 1263,-159 1263,-140 1108,-140"/>
<text text-anchor="middle" x="1185.5" y="-147" font-family="Helvetica,sans-Serif" font-size="10.00">src/input/input_manager.cpp</text>
</a>
</g>
</g>
<!-- Node1&#45;&gt;Node15 -->
<g id="edge19" class="edge">
<title>Node1&#45;&gt;Node15</title>
<path fill="none" stroke="midnightblue" d="M682.65,-206.47C767.21,-200.01 947.83,-185.1 1099.5,-165 1112.26,-163.31 1126.03,-161.14 1138.73,-159"/>
<polygon fill="midnightblue" stroke="midnightblue" points="682.28,-202.98 672.58,-207.23 682.81,-209.96 682.28,-202.98"/>
</g>
<!-- Node16 -->
<g id="node16" class="node">
<title>Node16</title>
<g id="a_node16"><a xlink:href="scene__manager_8h.html" target="_top" xlink:title=" ">
<polygon fill="white" stroke="black" points="0,-140 0,-159 151,-159 151,-140 0,-140"/>
<text text-anchor="middle" x="75.5" y="-147" font-family="Helvetica,sans-Serif" font-size="10.00">src/scene/scene_manager.h</text>
</a>
</g>
</g>
<!-- Node1&#45;&gt;Node16 -->
<g id="edge20" class="edge">
<title>Node1&#45;&gt;Node16</title>
<path fill="none" stroke="midnightblue" d="M586.28,-206.4C501.15,-199.81 318.74,-184.67 165.5,-165 152.31,-163.31 138.09,-161.16 124.93,-159.05"/>
<polygon fill="midnightblue" stroke="midnightblue" points="586.17,-209.9 596.41,-207.18 586.71,-202.92 586.17,-209.9"/>
</g>
<!-- Node5 -->
<g id="node5" class="node">
<title>Node5</title>
<g id="a_node5"><a xlink:href="game__scene_8h.html" target="_top" xlink:title=" ">
<polygon fill="white" stroke="black" points="415.5,-67.5 415.5,-97.5 539.5,-97.5 539.5,-67.5 415.5,-67.5"/>
<text text-anchor="start" x="423.5" y="-85.5" font-family="Helvetica,sans-Serif" font-size="10.00">src/game/scene/game</text>
<text text-anchor="middle" x="477.5" y="-74.5" font-family="Helvetica,sans-Serif" font-size="10.00">_scene.h</text>
</a>
</g>
</g>
<!-- Node4&#45;&gt;Node5 -->
<g id="edge4" class="edge">
<title>Node4&#45;&gt;Node5</title>
<path fill="none" stroke="midnightblue" d="M533.85,-128.17C521.31,-118.23 506.53,-106.51 495.26,-97.58"/>
<polygon fill="midnightblue" stroke="midnightblue" points="531.7,-130.93 541.71,-134.4 536.04,-125.44 531.7,-130.93"/>
</g>
<!-- Node6 -->
<g id="node6" class="node">
<title>Node6</title>
<g id="a_node6"><a xlink:href="game__scene_8cpp.html" target="_top" xlink:title=" ">
<polygon fill="white" stroke="black" points="415.5,-0.5 415.5,-30.5 539.5,-30.5 539.5,-0.5 415.5,-0.5"/>
<text text-anchor="start" x="423.5" y="-18.5" font-family="Helvetica,sans-Serif" font-size="10.00">src/game/scene/game</text>
<text text-anchor="middle" x="477.5" y="-7.5" font-family="Helvetica,sans-Serif" font-size="10.00">_scene.cpp</text>
</a>
</g>
</g>
<!-- Node5&#45;&gt;Node6 -->
<g id="edge5" class="edge">
<title>Node5&#45;&gt;Node6</title>
<path fill="none" stroke="midnightblue" d="M477.5,-57.11C477.5,-48.15 477.5,-38.32 477.5,-30.58"/>
<polygon fill="midnightblue" stroke="midnightblue" points="474,-57.4 477.5,-67.4 481,-57.4 474,-57.4"/>
</g>
<!-- Node7 -->
<g id="node7" class="node">
<title>Node7</title>
<g id="a_node7"><a xlink:href="scene__manager_8cpp.html" target="_top" xlink:title=" ">
<polygon fill="white" stroke="black" points="113.5,-6 113.5,-25 275.5,-25 275.5,-6 113.5,-6"/>
<text text-anchor="middle" x="194.5" y="-13" font-family="Helvetica,sans-Serif" font-size="10.00">src/scene/scene_manager.cpp</text>
</a>
</g>
</g>
<!-- Node5&#45;&gt;Node7 -->
<g id="edge6" class="edge">
<title>Node5&#45;&gt;Node7</title>
<path fill="none" stroke="midnightblue" d="M406.66,-65.23C351.09,-52.47 275.97,-35.21 231.63,-25.03"/>
<polygon fill="midnightblue" stroke="midnightblue" points="405.91,-68.65 416.44,-67.48 407.48,-61.83 405.91,-68.65"/>
</g>
<!-- Node8&#45;&gt;Node5 -->
<g id="edge8" class="edge">
<title>Node8&#45;&gt;Node5</title>
<path fill="none" stroke="midnightblue" d="M430.99,-127.31C441.34,-117.56 453.34,-106.26 462.56,-97.58"/>
<polygon fill="midnightblue" stroke="midnightblue" points="428.35,-124.99 423.47,-134.4 433.15,-130.09 428.35,-124.99"/>
</g>
<!-- Node10 -->
<g id="node10" class="node">
<title>Node10</title>
<g id="a_node10"><a xlink:href="mesh__manager_8h.html" target="_top" xlink:title=" ">
<polygon fill="white" stroke="black" points="573,-67.5 573,-97.5 708,-97.5 708,-67.5 573,-67.5"/>
<text text-anchor="start" x="581" y="-85.5" font-family="Helvetica,sans-Serif" font-size="10.00">src/graphics/mesh/mesh</text>
<text text-anchor="middle" x="640.5" y="-74.5" font-family="Helvetica,sans-Serif" font-size="10.00">_manager.h</text>
</a>
</g>
</g>
<!-- Node9&#45;&gt;Node10 -->
<g id="edge10" class="edge">
<title>Node9&#45;&gt;Node10</title>
<path fill="none" stroke="midnightblue" d="M687.01,-127.31C676.66,-117.56 664.66,-106.26 655.44,-97.58"/>
<polygon fill="midnightblue" stroke="midnightblue" points="684.85,-130.09 694.53,-134.4 689.65,-124.99 684.85,-130.09"/>
</g>
<!-- Node9&#45;&gt;Node11 -->
<g id="edge12" class="edge">
<title>Node9&#45;&gt;Node11</title>
<path fill="none" stroke="midnightblue" d="M736.64,-128.45C750.18,-118.45 766.23,-106.6 778.44,-97.58"/>
<polygon fill="midnightblue" stroke="midnightblue" points="734.56,-125.64 728.59,-134.4 738.72,-131.27 734.56,-125.64"/>
</g>
<!-- Node10&#45;&gt;Node6 -->
<g id="edge11" class="edge">
<title>Node10&#45;&gt;Node6</title>
<path fill="none" stroke="midnightblue" d="M595.82,-63.68C569.67,-53.26 537.13,-40.28 512.8,-30.58"/>
<polygon fill="midnightblue" stroke="midnightblue" points="594.55,-66.94 605.13,-67.4 597.14,-60.44 594.55,-66.94"/>
</g>
<!-- Node13&#45;&gt;Node2 -->
<g id="edge16" class="edge">
<title>Node13&#45;&gt;Node2</title>
<path fill="none" stroke="midnightblue" d="M238.96,-128.01C223.93,-115.94 205.69,-101.3 194.33,-92.19"/>
<polygon fill="midnightblue" stroke="midnightblue" points="236.93,-130.87 246.92,-134.4 241.32,-125.41 236.93,-130.87"/>
</g>
<!-- Node14 -->
<g id="node14" class="node">
<title>Node14</title>
<g id="a_node14"><a xlink:href="texture__manager_8h.html" target="_top" xlink:title=" ">
<polygon fill="white" stroke="black" points="284,-67.5 284,-97.5 397,-97.5 397,-67.5 284,-67.5"/>
<text text-anchor="start" x="292" y="-85.5" font-family="Helvetica,sans-Serif" font-size="10.00">src/graphics/texture</text>
<text text-anchor="middle" x="340.5" y="-74.5" font-family="Helvetica,sans-Serif" font-size="10.00">/texture_manager.h</text>
</a>
</g>
</g>
<!-- Node13&#45;&gt;Node14 -->
<g id="edge17" class="edge">
<title>Node13&#45;&gt;Node14</title>
<path fill="none" stroke="midnightblue" d="M288.61,-127.88C300.16,-118.01 313.69,-106.43 324.04,-97.58"/>
<polygon fill="midnightblue" stroke="midnightblue" points="286.32,-125.24 280.99,-134.4 290.87,-130.56 286.32,-125.24"/>
</g>
<!-- Node14&#45;&gt;Node6 -->
<g id="edge18" class="edge">
<title>Node14&#45;&gt;Node6</title>
<path fill="none" stroke="midnightblue" d="M379.51,-62.99C401.22,-52.69 427.83,-40.07 447.83,-30.58"/>
<polygon fill="midnightblue" stroke="midnightblue" points="377.76,-59.95 370.23,-67.4 380.76,-66.27 377.76,-59.95"/>
</g>
<!-- Node16&#45;&gt;Node2 -->
<g id="edge21" class="edge">
<title>Node16&#45;&gt;Node2</title>
<path fill="none" stroke="midnightblue" d="M98.86,-134.44C120.25,-121.57 151.22,-102.93 169.17,-92.13"/>
<polygon fill="midnightblue" stroke="midnightblue" points="96.83,-131.58 90.07,-139.73 100.44,-137.58 96.83,-131.58"/>
</g>
<!-- Node16&#45;&gt;Node7 -->
<g id="edge22" class="edge">
<title>Node16&#45;&gt;Node7</title>
<path fill="none" stroke="midnightblue" d="M74.64,-129.85C74.78,-111.97 77.61,-85.1 91.5,-67 108.11,-45.35 136.44,-32.41 159.19,-25.06"/>
<polygon fill="midnightblue" stroke="midnightblue" points="71.14,-129.96 74.84,-139.88 78.14,-129.82 71.14,-129.96"/>
</g>
</g>
</svg>
        <g id="navigator" transform="translate(0 0)" fill="#404254">
                <rect fill="#f2f5e9" fill-opacity="0.5" stroke="#606060" stroke-width=".5" x="0" y="0" width="60" height="60"/>
                <use id="zoomplus" xlink:href="#zoomPlus" x="17" y="9" onmousedown="handleZoom(evt,'in')"/>
                <use id="zoomminus" xlink:href="#zoomMin" x="42" y="9" onmousedown="handleZoom(evt,'out')"/>
                <use id="reset" xlink:href="#resetDef" x="30" y="36" onmousedown="handleReset()"/>
                <g id="arrowUp" xlink:href="#dirArrow" transform="translate(30 24)" onmousedown="handlePan(0,-1)">
                  <use xlink:href="#rim" fill="#404040">
                        <set attributeName="fill" to="#808080" begin="arrowUp.mouseover" end="arrowUp.mouseout"/>
                  </use>
                  <path fill="none" stroke="white" stroke-width="1.5" d="M0,-3.0v7 M-2.5,-0.5L0,-3.0L2.5,-0.5"/>
                </g>
                <g id="arrowRight" xlink:href="#dirArrow" transform="rotate(90) translate(36 -43)" onmousedown="handlePan(1,0)">
                  <use xlink:href="#rim" fill="#404040">
                        <set attributeName="fill" to="#808080" begin="arrowRight.mouseover" end="arrowRight.mouseout"/>
                  </use>
                  <path fill="none" stroke="white" stroke-width="1.5" d="M0,-3.0v7 M-2.5,-0.5L0,-3.0L2.5,-0.5"/>
                </g>
                <g id="arrowDown" xlink:href="#dirArrow" transform="rotate(180) translate(-30 -48)" onmousedown="handlePan(0,1)">
                  <use xlink:href="#rim" fill="#404040">
                        <set attributeName="fill" to="#808080" begin="arrowDown.mouseover" end="arrowDown.mouseout"/>
                  </use>
                  <path fill="none" stroke="white" stroke-width="1.5" d="M0,-3.0v7 M-2.5,-0.5L0,-3.0L2.5,-0.5"/>
                </g>
                <g id="arrowLeft" xlink:href="#dirArrow" transform="rotate(270) translate(-36 17)" onmousedown="handlePan(-1,0)">
                  <use xlink:href="#rim" fill="#404040">
                        <set attributeName="fill" to="#808080" begin="arrowLeft.mouseover" end="arrowLeft.mouseout"/>
                  </use>
                  <path fill="none" stroke="white" stroke-width="1.5" d="M0,-3.0v7 M-2.5,-0.5L0,-3.0L2.5,-0.5"/>
                </g>
        </g>
        <svg viewBox="0 0 15 15" width="100%" height="30px" preserveAspectRatio="xMaxYMin meet">
         <g id="arrow_out" transform="scale(0.3 0.3)">
          <a xlink:href="log_8h__dep__incl_org.svg" target="_base">
           <rect id="button" ry="5" rx="5" y="6" x="6" height="38" width="38"
                fill="#f2f5e9" fill-opacity="0.5" stroke="#606060" stroke-width="1.0"/>
           <path id="arrow"
             d="M 11.500037,31.436501 C 11.940474,20.09759 22.043105,11.32322 32.158766,21.979434 L 37.068811,17.246167 C 37.068811,17.246167 37.088388,32 37.088388,32 L 22.160133,31.978069 C 22.160133,31.978069 26.997745,27.140456 26.997745,27.140456 C 18.528582,18.264221 13.291696,25.230495 11.500037,31.436501 z"
             style="fill:#404040;"/>
          </a>
         </g>
        </svg>
</svg>
