<?xml version="1.0" encoding="UTF-8" standalone="no"?>
<!DOCTYPE svg PUBLIC "-//W3C//DTD SVG 1.1//EN"
 "http://www.w3.org/Graphics/SVG/1.1/DTD/svg11.dtd">
<!-- Generated by graphviz version 2.43.0 (0)
 -->
<!-- Title: src/graphics/material/material_manager.h Pages: 1 -->
<svg width="1206pt" height="285pt"
 viewBox="0.00 0.00 1205.50 285.00" xmlns="http://www.w3.org/2000/svg" xmlns:xlink="http://www.w3.org/1999/xlink">
<g id="graph0" class="graph" transform="scale(1 1) rotate(0) translate(4 281)">
<title>src/graphics/material/material_manager.h</title>
<polygon fill="white" stroke="transparent" points="-4,4 -4,-281 1201.5,-281 1201.5,4 -4,4"/>
<!-- Node1 -->
<g id="node1" class="node">
<title>Node1</title>
<g id="a_node1"><a xlink:title=" ">
<polygon fill="#bfbfbf" stroke="black" points="882,-246.5 882,-276.5 1001,-276.5 1001,-246.5 882,-246.5"/>
<text text-anchor="start" x="890" y="-264.5" font-family="Helvetica,sans-Serif" font-size="10.00">src/graphics/material</text>
<text text-anchor="middle" x="941.5" y="-253.5" font-family="Helvetica,sans-Serif" font-size="10.00">/material_manager.h</text>
</a>
</g>
</g>
<!-- Node2 -->
<g id="node2" class="node">
<title>Node2</title>
<g id="a_node2"><a xlink:title=" ">
<polygon fill="white" stroke="#bfbfbf" points="0,-0.5 0,-19.5 65,-19.5 65,-0.5 0,-0.5"/>
<text text-anchor="middle" x="32.5" y="-7.5" font-family="Helvetica,sans-Serif" font-size="10.00">stdexcept</text>
</a>
</g>
</g>
<!-- Node1&#45;&gt;Node2 -->
<g id="edge1" class="edge">
<title>Node1&#45;&gt;Node2</title>
<path fill="none" stroke="midnightblue" d="M881.83,-255.99C754.45,-245.48 447.12,-215.46 196.5,-154 109.54,-132.67 58.23,-160.09 6.5,-87 -6.28,-68.94 6.76,-44.08 18.53,-27.79"/>
<polygon fill="midnightblue" stroke="midnightblue" points="21.42,-29.76 24.77,-19.71 15.88,-25.49 21.42,-29.76"/>
</g>
<!-- Node3 -->
<g id="node3" class="node">
<title>Node3</title>
<g id="a_node3"><a xlink:title=" ">
<polygon fill="white" stroke="#bfbfbf" points="1019.5,-129 1019.5,-148 1077.5,-148 1077.5,-129 1019.5,-129"/>
<text text-anchor="middle" x="1048.5" y="-136" font-family="Helvetica,sans-Serif" font-size="10.00">memory</text>
</a>
</g>
</g>
<!-- Node1&#45;&gt;Node3 -->
<g id="edge2" class="edge">
<title>Node1&#45;&gt;Node3</title>
<path fill="none" stroke="midnightblue" d="M942.4,-246.39C944.03,-231.07 948.62,-206.58 961.5,-190 969.66,-179.5 998.88,-163.63 1021.23,-152.49"/>
<polygon fill="midnightblue" stroke="midnightblue" points="1022.88,-155.58 1030.31,-148.03 1019.79,-149.3 1022.88,-155.58"/>
</g>
<!-- Node4 -->
<g id="node4" class="node">
<title>Node4</title>
<g id="a_node4"><a xlink:title=" ">
<polygon fill="white" stroke="#bfbfbf" points="970,-190.5 970,-209.5 1063,-209.5 1063,-190.5 970,-190.5"/>
<text text-anchor="middle" x="1016.5" y="-197.5" font-family="Helvetica,sans-Serif" font-size="10.00">unordered_map</text>
</a>
</g>
</g>
<!-- Node1&#45;&gt;Node4 -->
<g id="edge3" class="edge">
<title>Node1&#45;&gt;Node4</title>
<path fill="none" stroke="midnightblue" d="M959.27,-246.4C970.85,-237.22 985.92,-225.26 997.7,-215.92"/>
<polygon fill="midnightblue" stroke="midnightblue" points="999.93,-218.61 1005.59,-209.66 995.58,-213.13 999.93,-218.61"/>
</g>
<!-- Node5 -->
<g id="node5" class="node">
<title>Node5</title>
<g id="a_node5"><a xlink:title=" ">
<polygon fill="white" stroke="#bfbfbf" points="1081.5,-190.5 1081.5,-209.5 1197.5,-209.5 1197.5,-190.5 1081.5,-190.5"/>
<text text-anchor="middle" x="1139.5" y="-197.5" font-family="Helvetica,sans-Serif" font-size="10.00">common/singleton.h</text>
</a>
</g>
</g>
<!-- Node1&#45;&gt;Node5 -->
<g id="edge4" class="edge">
<title>Node1&#45;&gt;Node5</title>
<path fill="none" stroke="midnightblue" d="M988.17,-246.47C1022.63,-236.12 1068.96,-222.2 1101.24,-212.5"/>
<polygon fill="midnightblue" stroke="midnightblue" points="1102.62,-215.74 1111.19,-209.51 1100.61,-209.03 1102.62,-215.74"/>
</g>
<!-- Node6 -->
<g id="node6" class="node">
<title>Node6</title>
<g id="a_node6"><a xlink:href="material_8h.html" target="_top" xlink:title=" ">
<polygon fill="white" stroke="black" points="758,-190.5 758,-209.5 913,-209.5 913,-190.5 758,-190.5"/>
<text text-anchor="middle" x="835.5" y="-197.5" font-family="Helvetica,sans-Serif" font-size="10.00">graphics/material/material.h</text>
</a>
</g>
</g>
<!-- Node1&#45;&gt;Node6 -->
<g id="edge5" class="edge">
<title>Node1&#45;&gt;Node6</title>
<path fill="none" stroke="midnightblue" d="M916.38,-246.4C899.23,-236.77 876.64,-224.09 859.69,-214.58"/>
<polygon fill="midnightblue" stroke="midnightblue" points="861.36,-211.5 850.92,-209.66 857.93,-217.6 861.36,-211.5"/>
</g>
<!-- Node6&#45;&gt;Node3 -->
<g id="edge6" class="edge">
<title>Node6&#45;&gt;Node3</title>
<path fill="none" stroke="midnightblue" d="M873.74,-190.48C909.43,-182.22 964.02,-168.79 1010.5,-154 1012.91,-153.23 1015.4,-152.39 1017.88,-151.52"/>
<polygon fill="midnightblue" stroke="midnightblue" points="1019.16,-154.78 1027.35,-148.06 1016.75,-148.21 1019.16,-154.78"/>
</g>
<!-- Node7 -->
<g id="node7" class="node">
<title>Node7</title>
<g id="a_node7"><a xlink:title=" ">
<polygon fill="white" stroke="#bfbfbf" points="1072.5,-62 1072.5,-81 1168.5,-81 1168.5,-62 1072.5,-62"/>
<text text-anchor="middle" x="1120.5" y="-69" font-family="Helvetica,sans-Serif" font-size="10.00">maths/vector2.h</text>
</a>
</g>
</g>
<!-- Node6&#45;&gt;Node7 -->
<g id="edge7" class="edge">
<title>Node6&#45;&gt;Node7</title>
<path fill="none" stroke="midnightblue" d="M835.01,-190.45C834.6,-174.61 836.2,-140.71 855.5,-123 924.63,-59.57 971.75,-106.58 1063.5,-87 1068.49,-85.94 1073.7,-84.73 1078.86,-83.49"/>
<polygon fill="midnightblue" stroke="midnightblue" points="1079.78,-86.87 1088.65,-81.07 1078.1,-80.07 1079.78,-86.87"/>
</g>
<!-- Node8 -->
<g id="node8" class="node">
<title>Node8</title>
<g id="a_node8"><a xlink:href="texture_8h.html" target="_top" xlink:title=" ">
<polygon fill="white" stroke="black" points="206,-129 206,-148 349,-148 349,-129 206,-129"/>
<text text-anchor="middle" x="277.5" y="-136" font-family="Helvetica,sans-Serif" font-size="10.00">graphics/texture/texture.h</text>
</a>
</g>
</g>
<!-- Node6&#45;&gt;Node8 -->
<g id="edge8" class="edge">
<title>Node6&#45;&gt;Node8</title>
<path fill="none" stroke="midnightblue" d="M757.91,-190.73C652.9,-179.53 466.36,-159.64 359.24,-148.22"/>
<polygon fill="midnightblue" stroke="midnightblue" points="359.44,-144.72 349.13,-147.14 358.7,-151.68 359.44,-144.72"/>
</g>
<!-- Node15 -->
<g id="node15" class="node">
<title>Node15</title>
<g id="a_node15"><a xlink:href="shader__program_8h.html" target="_top" xlink:title=" ">
<polygon fill="white" stroke="black" points="677.5,-123.5 677.5,-153.5 807.5,-153.5 807.5,-123.5 677.5,-123.5"/>
<text text-anchor="start" x="685.5" y="-141.5" font-family="Helvetica,sans-Serif" font-size="10.00">graphics/shader/shader</text>
<text text-anchor="middle" x="742.5" y="-130.5" font-family="Helvetica,sans-Serif" font-size="10.00">_program.h</text>
</a>
</g>
</g>
<!-- Node6&#45;&gt;Node15 -->
<g id="edge17" class="edge">
<title>Node6&#45;&gt;Node15</title>
<path fill="none" stroke="midnightblue" d="M822.18,-190.48C809.46,-182.34 789.85,-169.79 773.26,-159.18"/>
<polygon fill="midnightblue" stroke="midnightblue" points="774.73,-155.96 764.42,-153.52 770.96,-161.86 774.73,-155.96"/>
</g>
<!-- Node21 -->
<g id="node21" class="node">
<title>Node21</title>
<g id="a_node21"><a xlink:href="render__path_8h.html" target="_top" xlink:title=" ">
<polygon fill="white" stroke="black" points="864,-123.5 864,-153.5 1001,-153.5 1001,-123.5 864,-123.5"/>
<text text-anchor="start" x="872" y="-141.5" font-family="Helvetica,sans-Serif" font-size="10.00">graphics/material/render</text>
<text text-anchor="middle" x="932.5" y="-130.5" font-family="Helvetica,sans-Serif" font-size="10.00">_path.h</text>
</a>
</g>
</g>
<!-- Node6&#45;&gt;Node21 -->
<g id="edge25" class="edge">
<title>Node6&#45;&gt;Node21</title>
<path fill="none" stroke="midnightblue" d="M849.4,-190.48C862.78,-182.27 883.5,-169.56 900.9,-158.88"/>
<polygon fill="midnightblue" stroke="midnightblue" points="902.94,-161.74 909.64,-153.52 899.28,-155.77 902.94,-161.74"/>
</g>
<!-- Node9 -->
<g id="node9" class="node">
<title>Node9</title>
<g id="a_node9"><a xlink:title=" ">
<polygon fill="white" stroke="#bfbfbf" points="193.5,-62 193.5,-81 235.5,-81 235.5,-62 193.5,-62"/>
<text text-anchor="middle" x="214.5" y="-69" font-family="Helvetica,sans-Serif" font-size="10.00">array</text>
</a>
</g>
</g>
<!-- Node8&#45;&gt;Node9 -->
<g id="edge9" class="edge">
<title>Node8&#45;&gt;Node9</title>
<path fill="none" stroke="midnightblue" d="M269,-128.73C258.99,-118.4 242.16,-101.04 229.84,-88.33"/>
<polygon fill="midnightblue" stroke="midnightblue" points="232.33,-85.87 222.86,-81.13 227.31,-90.74 232.33,-85.87"/>
</g>
<!-- Node10 -->
<g id="node10" class="node">
<title>Node10</title>
<g id="a_node10"><a xlink:title=" ">
<polygon fill="white" stroke="#bfbfbf" points="254,-62 254,-81 301,-81 301,-62 254,-62"/>
<text text-anchor="middle" x="277.5" y="-69" font-family="Helvetica,sans-Serif" font-size="10.00">cmath</text>
</a>
</g>
</g>
<!-- Node8&#45;&gt;Node10 -->
<g id="edge10" class="edge">
<title>Node8&#45;&gt;Node10</title>
<path fill="none" stroke="midnightblue" d="M277.5,-128.73C277.5,-119.18 277.5,-103.62 277.5,-91.28"/>
<polygon fill="midnightblue" stroke="midnightblue" points="281,-91.13 277.5,-81.13 274,-91.13 281,-91.13"/>
</g>
<!-- Node11 -->
<g id="node11" class="node">
<title>Node11</title>
<g id="a_node11"><a xlink:title=" ">
<polygon fill="white" stroke="#bfbfbf" points="319.5,-62 319.5,-81 427.5,-81 427.5,-62 319.5,-62"/>
<text text-anchor="middle" x="373.5" y="-69" font-family="Helvetica,sans-Serif" font-size="10.00">SDL2/SDL_image.h</text>
</a>
</g>
</g>
<!-- Node8&#45;&gt;Node11 -->
<g id="edge11" class="edge">
<title>Node8&#45;&gt;Node11</title>
<path fill="none" stroke="midnightblue" d="M290.45,-128.73C306.35,-117.96 333.55,-99.55 352.47,-86.74"/>
<polygon fill="midnightblue" stroke="midnightblue" points="354.44,-89.63 360.76,-81.13 350.52,-83.84 354.44,-89.63"/>
</g>
<!-- Node12 -->
<g id="node12" class="node">
<title>Node12</title>
<g id="a_node12"><a xlink:title=" ">
<polygon fill="white" stroke="#bfbfbf" points="133.5,-0.5 133.5,-19.5 197.5,-19.5 197.5,-0.5 133.5,-0.5"/>
<text text-anchor="middle" x="165.5" y="-7.5" font-family="Helvetica,sans-Serif" font-size="10.00">GL/glew.h</text>
</a>
</g>
</g>
<!-- Node8&#45;&gt;Node12 -->
<g id="edge12" class="edge">
<title>Node8&#45;&gt;Node12</title>
<path fill="none" stroke="midnightblue" d="M248.98,-128.97C228.1,-121.28 200.7,-107.91 184.5,-87 171.78,-70.58 167.47,-46.69 166.07,-30.1"/>
<polygon fill="midnightblue" stroke="midnightblue" points="169.56,-29.75 165.49,-19.96 162.57,-30.14 169.56,-29.75"/>
</g>
<!-- Node13 -->
<g id="node13" class="node">
<title>Node13</title>
<g id="a_node13"><a xlink:title=" ">
<polygon fill="white" stroke="#bfbfbf" points="446,-62 446,-81 557,-81 557,-62 446,-62"/>
<text text-anchor="middle" x="501.5" y="-69" font-family="Helvetica,sans-Serif" font-size="10.00">maths/maths_util.h</text>
</a>
</g>
</g>
<!-- Node8&#45;&gt;Node13 -->
<g id="edge13" class="edge">
<title>Node8&#45;&gt;Node13</title>
<path fill="none" stroke="midnightblue" d="M307.25,-128.87C347.1,-117.3 417.93,-96.75 462.16,-83.91"/>
<polygon fill="midnightblue" stroke="midnightblue" points="463.36,-87.21 471.99,-81.06 461.41,-80.49 463.36,-87.21"/>
</g>
<!-- Node14 -->
<g id="node14" class="node">
<title>Node14</title>
<g id="a_node14"><a xlink:href="pixel__format_8h.html" target="_top" xlink:title=" ">
<polygon fill="white" stroke="black" points="15.5,-56.5 15.5,-86.5 137.5,-86.5 137.5,-56.5 15.5,-56.5"/>
<text text-anchor="start" x="23.5" y="-74.5" font-family="Helvetica,sans-Serif" font-size="10.00">graphics/texture/pixel</text>
<text text-anchor="middle" x="76.5" y="-63.5" font-family="Helvetica,sans-Serif" font-size="10.00">_format.h</text>
</a>
</g>
</g>
<!-- Node8&#45;&gt;Node14 -->
<g id="edge14" class="edge">
<title>Node8&#45;&gt;Node14</title>
<path fill="none" stroke="midnightblue" d="M250.81,-128.87C220,-118.9 168.55,-102.27 129.52,-89.64"/>
<polygon fill="midnightblue" stroke="midnightblue" points="130.47,-86.27 119.88,-86.53 128.32,-92.94 130.47,-86.27"/>
</g>
<!-- Node14&#45;&gt;Node2 -->
<g id="edge15" class="edge">
<title>Node14&#45;&gt;Node2</title>
<path fill="none" stroke="midnightblue" d="M66.07,-56.4C59.74,-47.84 51.63,-36.87 44.97,-27.86"/>
<polygon fill="midnightblue" stroke="midnightblue" points="47.66,-25.62 38.9,-19.66 42.03,-29.78 47.66,-25.62"/>
</g>
<!-- Node14&#45;&gt;Node12 -->
<g id="edge16" class="edge">
<title>Node14&#45;&gt;Node12</title>
<path fill="none" stroke="midnightblue" d="M97.59,-56.4C111.59,-47.04 129.91,-34.79 143.99,-25.38"/>
<polygon fill="midnightblue" stroke="midnightblue" points="146.18,-28.13 152.55,-19.66 142.29,-22.31 146.18,-28.13"/>
</g>
<!-- Node15&#45;&gt;Node7 -->
<g id="edge22" class="edge">
<title>Node15&#45;&gt;Node7</title>
<path fill="none" stroke="midnightblue" d="M807.57,-125.38C812.28,-124.55 816.96,-123.75 821.5,-123 928.77,-105.18 956.89,-108.43 1063.5,-87 1068.62,-85.97 1073.98,-84.77 1079.27,-83.51"/>
<polygon fill="midnightblue" stroke="midnightblue" points="1080.4,-86.84 1089.27,-81.05 1078.72,-80.04 1080.4,-86.84"/>
</g>
<!-- Node15&#45;&gt;Node12 -->
<g id="edge20" class="edge">
<title>Node15&#45;&gt;Node12</title>
<path fill="none" stroke="midnightblue" d="M691.87,-123.45C664.96,-114.89 631.88,-102.59 604.5,-87 585.56,-76.22 586.59,-64.45 566.5,-56 502.44,-29.06 296.83,-16.85 207.54,-12.72"/>
<polygon fill="midnightblue" stroke="midnightblue" points="207.65,-9.22 197.5,-12.27 207.33,-16.21 207.65,-9.22"/>
</g>
<!-- Node16 -->
<g id="node16" class="node">
<title>Node16</title>
<g id="a_node16"><a xlink:title=" ">
<polygon fill="white" stroke="#bfbfbf" points="613.5,-62 613.5,-81 657.5,-81 657.5,-62 613.5,-62"/>
<text text-anchor="middle" x="635.5" y="-69" font-family="Helvetica,sans-Serif" font-size="10.00">string</text>
</a>
</g>
</g>
<!-- Node15&#45;&gt;Node16 -->
<g id="edge18" class="edge">
<title>Node15&#45;&gt;Node16</title>
<path fill="none" stroke="midnightblue" d="M719.28,-123.4C701.17,-112.39 676.16,-97.2 658.19,-86.28"/>
<polygon fill="midnightblue" stroke="midnightblue" points="659.87,-83.21 649.5,-81.01 656.23,-89.19 659.87,-83.21"/>
</g>
<!-- Node17 -->
<g id="node17" class="node">
<title>Node17</title>
<g id="a_node17"><a xlink:title=" ">
<polygon fill="white" stroke="#bfbfbf" points="676,-62 676,-81 723,-81 723,-62 676,-62"/>
<text text-anchor="middle" x="699.5" y="-69" font-family="Helvetica,sans-Serif" font-size="10.00">vector</text>
</a>
</g>
</g>
<!-- Node15&#45;&gt;Node17 -->
<g id="edge19" class="edge">
<title>Node15&#45;&gt;Node17</title>
<path fill="none" stroke="midnightblue" d="M733.17,-123.4C726.6,-113.46 717.76,-100.11 710.79,-89.57"/>
<polygon fill="midnightblue" stroke="midnightblue" points="713.69,-87.6 705.25,-81.19 707.85,-91.47 713.69,-87.6"/>
</g>
<!-- Node18 -->
<g id="node18" class="node">
<title>Node18</title>
<g id="a_node18"><a xlink:title=" ">
<polygon fill="white" stroke="#bfbfbf" points="741,-62 741,-81 830,-81 830,-62 741,-62"/>
<text text-anchor="middle" x="785.5" y="-69" font-family="Helvetica,sans-Serif" font-size="10.00">maths/colour.h</text>
</a>
</g>
</g>
<!-- Node15&#45;&gt;Node18 -->
<g id="edge21" class="edge">
<title>Node15&#45;&gt;Node18</title>
<path fill="none" stroke="midnightblue" d="M751.83,-123.4C758.4,-113.46 767.24,-100.11 774.21,-89.57"/>
<polygon fill="midnightblue" stroke="midnightblue" points="777.15,-91.47 779.75,-81.19 771.31,-87.6 777.15,-91.47"/>
</g>
<!-- Node19 -->
<g id="node19" class="node">
<title>Node19</title>
<g id="a_node19"><a xlink:title=" ">
<polygon fill="white" stroke="#bfbfbf" points="848.5,-62 848.5,-81 944.5,-81 944.5,-62 848.5,-62"/>
<text text-anchor="middle" x="896.5" y="-69" font-family="Helvetica,sans-Serif" font-size="10.00">maths/vector3.h</text>
</a>
</g>
</g>
<!-- Node15&#45;&gt;Node19 -->
<g id="edge23" class="edge">
<title>Node15&#45;&gt;Node19</title>
<path fill="none" stroke="midnightblue" d="M775.92,-123.4C803.06,-111.94 840.97,-95.94 867,-84.95"/>
<polygon fill="midnightblue" stroke="midnightblue" points="868.49,-88.12 876.34,-81.01 865.77,-81.67 868.49,-88.12"/>
</g>
<!-- Node20 -->
<g id="node20" class="node">
<title>Node20</title>
<g id="a_node20"><a xlink:title=" ">
<polygon fill="white" stroke="#bfbfbf" points="962.5,-62 962.5,-81 1054.5,-81 1054.5,-62 962.5,-62"/>
<text text-anchor="middle" x="1008.5" y="-69" font-family="Helvetica,sans-Serif" font-size="10.00">maths/matrix.h</text>
</a>
</g>
</g>
<!-- Node15&#45;&gt;Node20 -->
<g id="edge24" class="edge">
<title>Node15&#45;&gt;Node20</title>
<path fill="none" stroke="midnightblue" d="M802.62,-123.5C844.88,-113.56 902.72,-99.77 953.5,-87 957.82,-85.91 962.32,-84.76 966.81,-83.6"/>
<polygon fill="midnightblue" stroke="midnightblue" points="967.75,-86.97 976.54,-81.06 965.98,-80.2 967.75,-86.97"/>
</g>
</g>
</svg>
