<?xml version="1.0" encoding="UTF-8" standalone="no"?>
<!DOCTYPE svg PUBLIC "-//W3C//DTD SVG 1.1//EN"
 "http://www.w3.org/Graphics/SVG/1.1/DTD/svg11.dtd">
<!-- Generated by graphviz version 2.43.0 (0)
 -->
<!-- Title: src/graphics/material/material.cpp Pages: 1 -->
<svg width="1161pt" height="285pt"
 viewBox="0.00 0.00 1161.00 285.00" xmlns="http://www.w3.org/2000/svg" xmlns:xlink="http://www.w3.org/1999/xlink">
<g id="graph0" class="graph" transform="scale(1 1) rotate(0) translate(4 281)">
<title>src/graphics/material/material.cpp</title>
<polygon fill="white" stroke="transparent" points="-4,4 -4,-281 1157,-281 1157,4 -4,4"/>
<!-- Node1 -->
<g id="node1" class="node">
<title>Node1</title>
<g id="a_node1"><a xlink:title=" ">
<polygon fill="#bfbfbf" stroke="black" points="548.5,-246.5 548.5,-276.5 667.5,-276.5 667.5,-246.5 548.5,-246.5"/>
<text text-anchor="start" x="556.5" y="-264.5" font-family="Helvetica,sans-Serif" font-size="10.00">src/graphics/material</text>
<text text-anchor="middle" x="608" y="-253.5" font-family="Helvetica,sans-Serif" font-size="10.00">/material.cpp</text>
</a>
</g>
</g>
<!-- Node2 -->
<g id="node2" class="node">
<title>Node2</title>
<g id="a_node2"><a xlink:href="material_8h.html" target="_top" xlink:title=" ">
<polygon fill="white" stroke="black" points="530.5,-190.5 530.5,-209.5 685.5,-209.5 685.5,-190.5 530.5,-190.5"/>
<text text-anchor="middle" x="608" y="-197.5" font-family="Helvetica,sans-Serif" font-size="10.00">graphics/material/material.h</text>
</a>
</g>
</g>
<!-- Node1&#45;&gt;Node2 -->
<g id="edge1" class="edge">
<title>Node1&#45;&gt;Node2</title>
<path fill="none" stroke="midnightblue" d="M608,-246.4C608,-238.47 608,-228.46 608,-219.86"/>
<polygon fill="midnightblue" stroke="midnightblue" points="611.5,-219.66 608,-209.66 604.5,-219.66 611.5,-219.66"/>
</g>
<!-- Node3 -->
<g id="node3" class="node">
<title>Node3</title>
<g id="a_node3"><a xlink:title=" ">
<polygon fill="white" stroke="#bfbfbf" points="236,-129 236,-148 294,-148 294,-129 236,-129"/>
<text text-anchor="middle" x="265" y="-136" font-family="Helvetica,sans-Serif" font-size="10.00">memory</text>
</a>
</g>
</g>
<!-- Node2&#45;&gt;Node3 -->
<g id="edge2" class="edge">
<title>Node2&#45;&gt;Node3</title>
<path fill="none" stroke="midnightblue" d="M530.28,-192.02C468.32,-185.37 379.7,-173.45 304,-154 301.18,-153.28 298.28,-152.42 295.4,-151.49"/>
<polygon fill="midnightblue" stroke="midnightblue" points="296.39,-148.13 285.79,-148.15 294.08,-154.74 296.39,-148.13"/>
</g>
<!-- Node4 -->
<g id="node4" class="node">
<title>Node4</title>
<g id="a_node4"><a xlink:title=" ">
<polygon fill="white" stroke="#bfbfbf" points="560,-62 560,-81 656,-81 656,-62 560,-62"/>
<text text-anchor="middle" x="608" y="-69" font-family="Helvetica,sans-Serif" font-size="10.00">maths/vector2.h</text>
</a>
</g>
</g>
<!-- Node2&#45;&gt;Node4 -->
<g id="edge3" class="edge">
<title>Node2&#45;&gt;Node4</title>
<path fill="none" stroke="midnightblue" d="M608,-190.31C608,-169.99 608,-119.05 608,-91.28"/>
<polygon fill="midnightblue" stroke="midnightblue" points="611.5,-91.26 608,-81.26 604.5,-91.26 611.5,-91.26"/>
</g>
<!-- Node5 -->
<g id="node5" class="node">
<title>Node5</title>
<g id="a_node5"><a xlink:href="texture_8h.html" target="_top" xlink:title=" ">
<polygon fill="white" stroke="black" points="312.5,-129 312.5,-148 455.5,-148 455.5,-129 312.5,-129"/>
<text text-anchor="middle" x="384" y="-136" font-family="Helvetica,sans-Serif" font-size="10.00">graphics/texture/texture.h</text>
</a>
</g>
</g>
<!-- Node2&#45;&gt;Node5 -->
<g id="edge4" class="edge">
<title>Node2&#45;&gt;Node5</title>
<path fill="none" stroke="midnightblue" d="M575.91,-190.48C536.4,-179.98 469.22,-162.14 425.74,-150.59"/>
<polygon fill="midnightblue" stroke="midnightblue" points="426.6,-147.19 416.03,-148.01 424.8,-153.96 426.6,-147.19"/>
</g>
<!-- Node13 -->
<g id="node13" class="node">
<title>Node13</title>
<g id="a_node13"><a xlink:href="shader__program_8h.html" target="_top" xlink:title=" ">
<polygon fill="white" stroke="black" points="669,-123.5 669,-153.5 799,-153.5 799,-123.5 669,-123.5"/>
<text text-anchor="start" x="677" y="-141.5" font-family="Helvetica,sans-Serif" font-size="10.00">graphics/shader/shader</text>
<text text-anchor="middle" x="734" y="-130.5" font-family="Helvetica,sans-Serif" font-size="10.00">_program.h</text>
</a>
</g>
</g>
<!-- Node2&#45;&gt;Node13 -->
<g id="edge13" class="edge">
<title>Node2&#45;&gt;Node13</title>
<path fill="none" stroke="midnightblue" d="M626.05,-190.48C643.99,-182 672.09,-168.74 695.11,-157.86"/>
<polygon fill="midnightblue" stroke="midnightblue" points="696.76,-160.96 704.3,-153.52 693.77,-154.63 696.76,-160.96"/>
</g>
<!-- Node19 -->
<g id="node19" class="node">
<title>Node19</title>
<g id="a_node19"><a xlink:href="render__path_8h.html" target="_top" xlink:title=" ">
<polygon fill="white" stroke="black" points="817.5,-123.5 817.5,-153.5 954.5,-153.5 954.5,-123.5 817.5,-123.5"/>
<text text-anchor="start" x="825.5" y="-141.5" font-family="Helvetica,sans-Serif" font-size="10.00">graphics/material/render</text>
<text text-anchor="middle" x="886" y="-130.5" font-family="Helvetica,sans-Serif" font-size="10.00">_path.h</text>
</a>
</g>
</g>
<!-- Node2&#45;&gt;Node19 -->
<g id="edge21" class="edge">
<title>Node2&#45;&gt;Node19</title>
<path fill="none" stroke="midnightblue" d="M647.83,-190.48C690.14,-181.42 758.04,-166.89 810.53,-155.65"/>
<polygon fill="midnightblue" stroke="midnightblue" points="811.43,-159.04 820.48,-153.52 809.97,-152.19 811.43,-159.04"/>
</g>
<!-- Node6 -->
<g id="node6" class="node">
<title>Node6</title>
<g id="a_node6"><a xlink:title=" ">
<polygon fill="white" stroke="#bfbfbf" points="140,-62 140,-81 182,-81 182,-62 140,-62"/>
<text text-anchor="middle" x="161" y="-69" font-family="Helvetica,sans-Serif" font-size="10.00">array</text>
</a>
</g>
</g>
<!-- Node5&#45;&gt;Node6 -->
<g id="edge5" class="edge">
<title>Node5&#45;&gt;Node6</title>
<path fill="none" stroke="midnightblue" d="M342.89,-128.95C303.57,-120.24 242.88,-105.42 192,-87 190.39,-86.42 188.74,-85.78 187.1,-85.11"/>
<polygon fill="midnightblue" stroke="midnightblue" points="188.39,-81.85 177.82,-81.04 185.57,-88.26 188.39,-81.85"/>
</g>
<!-- Node7 -->
<g id="node7" class="node">
<title>Node7</title>
<g id="a_node7"><a xlink:title=" ">
<polygon fill="white" stroke="#bfbfbf" points="200.5,-62 200.5,-81 247.5,-81 247.5,-62 200.5,-62"/>
<text text-anchor="middle" x="224" y="-69" font-family="Helvetica,sans-Serif" font-size="10.00">cmath</text>
</a>
</g>
</g>
<!-- Node5&#45;&gt;Node7 -->
<g id="edge6" class="edge">
<title>Node5&#45;&gt;Node7</title>
<path fill="none" stroke="midnightblue" d="M361.88,-128.98C336.46,-119.12 293.56,-102.29 257,-87 255.59,-86.41 254.15,-85.8 252.7,-85.18"/>
<polygon fill="midnightblue" stroke="midnightblue" points="253.71,-81.81 243.15,-81.05 250.93,-88.23 253.71,-81.81"/>
</g>
<!-- Node8 -->
<g id="node8" class="node">
<title>Node8</title>
<g id="a_node8"><a xlink:title=" ">
<polygon fill="white" stroke="#bfbfbf" points="266,-62 266,-81 374,-81 374,-62 266,-62"/>
<text text-anchor="middle" x="320" y="-69" font-family="Helvetica,sans-Serif" font-size="10.00">SDL2/SDL_image.h</text>
</a>
</g>
</g>
<!-- Node5&#45;&gt;Node8 -->
<g id="edge7" class="edge">
<title>Node5&#45;&gt;Node8</title>
<path fill="none" stroke="midnightblue" d="M375.37,-128.73C365.2,-118.4 348.1,-101.04 335.59,-88.33"/>
<polygon fill="midnightblue" stroke="midnightblue" points="338,-85.8 328.49,-81.13 333.02,-90.71 338,-85.8"/>
</g>
<!-- Node9 -->
<g id="node9" class="node">
<title>Node9</title>
<g id="a_node9"><a xlink:title=" ">
<polygon fill="white" stroke="#bfbfbf" points="500,-0.5 500,-19.5 564,-19.5 564,-0.5 500,-0.5"/>
<text text-anchor="middle" x="532" y="-7.5" font-family="Helvetica,sans-Serif" font-size="10.00">GL/glew.h</text>
</a>
</g>
</g>
<!-- Node5&#45;&gt;Node9 -->
<g id="edge8" class="edge">
<title>Node5&#45;&gt;Node9</title>
<path fill="none" stroke="midnightblue" d="M435.81,-128.93C462.42,-121.94 493.31,-109.4 513,-87 526.87,-71.23 530.92,-46.85 531.95,-29.97"/>
<polygon fill="midnightblue" stroke="midnightblue" points="535.46,-29.78 532.27,-19.68 528.46,-29.57 535.46,-29.78"/>
</g>
<!-- Node10 -->
<g id="node10" class="node">
<title>Node10</title>
<g id="a_node10"><a xlink:title=" ">
<polygon fill="white" stroke="#bfbfbf" points="392.5,-62 392.5,-81 503.5,-81 503.5,-62 392.5,-62"/>
<text text-anchor="middle" x="448" y="-69" font-family="Helvetica,sans-Serif" font-size="10.00">maths/maths_util.h</text>
</a>
</g>
</g>
<!-- Node5&#45;&gt;Node10 -->
<g id="edge9" class="edge">
<title>Node5&#45;&gt;Node10</title>
<path fill="none" stroke="midnightblue" d="M392.63,-128.73C402.8,-118.4 419.9,-101.04 432.41,-88.33"/>
<polygon fill="midnightblue" stroke="midnightblue" points="434.98,-90.71 439.51,-81.13 430,-85.8 434.98,-90.71"/>
</g>
<!-- Node11 -->
<g id="node11" class="node">
<title>Node11</title>
<g id="a_node11"><a xlink:href="pixel__format_8h.html" target="_top" xlink:title=" ">
<polygon fill="white" stroke="black" points="0,-56.5 0,-86.5 122,-86.5 122,-56.5 0,-56.5"/>
<text text-anchor="start" x="8" y="-74.5" font-family="Helvetica,sans-Serif" font-size="10.00">graphics/texture/pixel</text>
<text text-anchor="middle" x="61" y="-63.5" font-family="Helvetica,sans-Serif" font-size="10.00">_format.h</text>
</a>
</g>
</g>
<!-- Node5&#45;&gt;Node11 -->
<g id="edge10" class="edge">
<title>Node5&#45;&gt;Node11</title>
<path fill="none" stroke="midnightblue" d="M340.56,-128.93C292.21,-119.37 211.48,-103.33 132.24,-87.24"/>
<polygon fill="midnightblue" stroke="midnightblue" points="132.57,-83.74 122.08,-85.18 131.18,-90.6 132.57,-83.74"/>
</g>
<!-- Node11&#45;&gt;Node9 -->
<g id="edge12" class="edge">
<title>Node11&#45;&gt;Node9</title>
<path fill="none" stroke="midnightblue" d="M122.02,-57.51C125.05,-56.98 128.06,-56.47 131,-56 261.07,-35.28 416.36,-20.72 489.69,-14.45"/>
<polygon fill="midnightblue" stroke="midnightblue" points="490.23,-17.92 499.9,-13.59 489.64,-10.94 490.23,-17.92"/>
</g>
<!-- Node12 -->
<g id="node12" class="node">
<title>Node12</title>
<g id="a_node12"><a xlink:title=" ">
<polygon fill="white" stroke="#bfbfbf" points="28.5,-0.5 28.5,-19.5 93.5,-19.5 93.5,-0.5 28.5,-0.5"/>
<text text-anchor="middle" x="61" y="-7.5" font-family="Helvetica,sans-Serif" font-size="10.00">stdexcept</text>
</a>
</g>
</g>
<!-- Node11&#45;&gt;Node12 -->
<g id="edge11" class="edge">
<title>Node11&#45;&gt;Node12</title>
<path fill="none" stroke="midnightblue" d="M61,-56.4C61,-48.47 61,-38.46 61,-29.86"/>
<polygon fill="midnightblue" stroke="midnightblue" points="64.5,-29.66 61,-19.66 57.5,-29.66 64.5,-29.66"/>
</g>
<!-- Node13&#45;&gt;Node4 -->
<g id="edge18" class="edge">
<title>Node13&#45;&gt;Node4</title>
<path fill="none" stroke="midnightblue" d="M706.66,-123.4C684.94,-112.19 654.8,-96.64 633.56,-85.69"/>
<polygon fill="midnightblue" stroke="midnightblue" points="634.98,-82.48 624.49,-81.01 631.77,-88.7 634.98,-82.48"/>
</g>
<!-- Node13&#45;&gt;Node9 -->
<g id="edge16" class="edge">
<title>Node13&#45;&gt;Node9</title>
<path fill="none" stroke="midnightblue" d="M725.51,-123.36C713.96,-105.27 691.67,-74.14 665,-56 637.44,-37.26 601.39,-25.7 573.77,-19"/>
<polygon fill="midnightblue" stroke="midnightblue" points="574.54,-15.58 564.01,-16.75 572.97,-22.41 574.54,-15.58"/>
</g>
<!-- Node14 -->
<g id="node14" class="node">
<title>Node14</title>
<g id="a_node14"><a xlink:title=" ">
<polygon fill="white" stroke="#bfbfbf" points="712,-62 712,-81 756,-81 756,-62 712,-62"/>
<text text-anchor="middle" x="734" y="-69" font-family="Helvetica,sans-Serif" font-size="10.00">string</text>
</a>
</g>
</g>
<!-- Node13&#45;&gt;Node14 -->
<g id="edge14" class="edge">
<title>Node13&#45;&gt;Node14</title>
<path fill="none" stroke="midnightblue" d="M734,-123.4C734,-114.06 734,-101.71 734,-91.52"/>
<polygon fill="midnightblue" stroke="midnightblue" points="737.5,-91.19 734,-81.19 730.5,-91.19 737.5,-91.19"/>
</g>
<!-- Node15 -->
<g id="node15" class="node">
<title>Node15</title>
<g id="a_node15"><a xlink:title=" ">
<polygon fill="white" stroke="#bfbfbf" points="774.5,-62 774.5,-81 821.5,-81 821.5,-62 774.5,-62"/>
<text text-anchor="middle" x="798" y="-69" font-family="Helvetica,sans-Serif" font-size="10.00">vector</text>
</a>
</g>
</g>
<!-- Node13&#45;&gt;Node15 -->
<g id="edge15" class="edge">
<title>Node13&#45;&gt;Node15</title>
<path fill="none" stroke="midnightblue" d="M747.89,-123.4C757.96,-113.16 771.62,-99.3 782.13,-88.62"/>
<polygon fill="midnightblue" stroke="midnightblue" points="784.92,-90.78 789.44,-81.19 779.93,-85.86 784.92,-90.78"/>
</g>
<!-- Node16 -->
<g id="node16" class="node">
<title>Node16</title>
<g id="a_node16"><a xlink:title=" ">
<polygon fill="white" stroke="#bfbfbf" points="839.5,-62 839.5,-81 928.5,-81 928.5,-62 839.5,-62"/>
<text text-anchor="middle" x="884" y="-69" font-family="Helvetica,sans-Serif" font-size="10.00">maths/colour.h</text>
</a>
</g>
</g>
<!-- Node13&#45;&gt;Node16 -->
<g id="edge17" class="edge">
<title>Node13&#45;&gt;Node16</title>
<path fill="none" stroke="midnightblue" d="M766.55,-123.4C792.87,-111.99 829.59,-96.08 854.93,-85.1"/>
<polygon fill="midnightblue" stroke="midnightblue" points="856.58,-88.19 864.37,-81.01 853.8,-81.77 856.58,-88.19"/>
</g>
<!-- Node17 -->
<g id="node17" class="node">
<title>Node17</title>
<g id="a_node17"><a xlink:title=" ">
<polygon fill="white" stroke="#bfbfbf" points="947,-62 947,-81 1043,-81 1043,-62 947,-62"/>
<text text-anchor="middle" x="995" y="-69" font-family="Helvetica,sans-Serif" font-size="10.00">maths/vector3.h</text>
</a>
</g>
</g>
<!-- Node13&#45;&gt;Node17 -->
<g id="edge19" class="edge">
<title>Node13&#45;&gt;Node17</title>
<path fill="none" stroke="midnightblue" d="M791.18,-123.45C832.09,-113.37 888.46,-99.43 938,-87 942.41,-85.89 947.01,-84.73 951.6,-83.57"/>
<polygon fill="midnightblue" stroke="midnightblue" points="952.72,-86.9 961.55,-81.05 951,-80.11 952.72,-86.9"/>
</g>
<!-- Node18 -->
<g id="node18" class="node">
<title>Node18</title>
<g id="a_node18"><a xlink:title=" ">
<polygon fill="white" stroke="#bfbfbf" points="1061,-62 1061,-81 1153,-81 1153,-62 1061,-62"/>
<text text-anchor="middle" x="1107" y="-69" font-family="Helvetica,sans-Serif" font-size="10.00">maths/matrix.h</text>
</a>
</g>
</g>
<!-- Node13&#45;&gt;Node18 -->
<g id="edge20" class="edge">
<title>Node13&#45;&gt;Node18</title>
<path fill="none" stroke="midnightblue" d="M799.01,-124.75C802.39,-124.14 805.73,-123.56 809,-123 916.62,-104.63 945.05,-108.95 1052,-87 1057.01,-85.97 1062.24,-84.77 1067.41,-83.5"/>
<polygon fill="midnightblue" stroke="midnightblue" points="1068.34,-86.87 1077.17,-81.01 1066.61,-80.09 1068.34,-86.87"/>
</g>
</g>
</svg>
