<?xml version="1.0" encoding="UTF-8" standalone="no"?>
<!DOCTYPE svg PUBLIC "-//W3C//DTD SVG 1.1//EN"
 "http://www.w3.org/Graphics/SVG/1.1/DTD/svg11.dtd">
<!-- Generated by graphviz version 2.43.0 (0)
 -->
<!-- Title: src/graphics/material/material.h Pages: 1 -->
<svg width="1237pt" height="229pt"
 viewBox="0.00 0.00 1236.50 229.00" xmlns="http://www.w3.org/2000/svg" xmlns:xlink="http://www.w3.org/1999/xlink">
<g id="graph0" class="graph" transform="scale(1 1) rotate(0) translate(4 225)">
<title>src/graphics/material/material.h</title>
<polygon fill="white" stroke="transparent" points="-4,4 -4,-225 1232.5,-225 1232.5,4 -4,4"/>
<!-- Node1 -->
<g id="node1" class="node">
<title>Node1</title>
<g id="a_node1"><a xlink:title=" ">
<polygon fill="#bfbfbf" stroke="black" points="624,-190.5 624,-220.5 743,-220.5 743,-190.5 624,-190.5"/>
<text text-anchor="start" x="632" y="-208.5" font-family="Helvetica,sans-Serif" font-size="10.00">src/graphics/material</text>
<text text-anchor="middle" x="683.5" y="-197.5" font-family="Helvetica,sans-Serif" font-size="10.00">/material.h</text>
</a>
</g>
</g>
<!-- Node2 -->
<g id="node2" class="node">
<title>Node2</title>
<g id="a_node2"><a xlink:title=" ">
<polygon fill="white" stroke="#bfbfbf" points="559.5,-62 559.5,-81 617.5,-81 617.5,-62 559.5,-62"/>
<text text-anchor="middle" x="588.5" y="-69" font-family="Helvetica,sans-Serif" font-size="10.00">memory</text>
</a>
</g>
</g>
<!-- Node1&#45;&gt;Node2 -->
<g id="edge1" class="edge">
<title>Node1&#45;&gt;Node2</title>
<path fill="none" stroke="midnightblue" d="M673.33,-190.37C655.69,-165.86 619.49,-115.56 600.59,-89.3"/>
<polygon fill="midnightblue" stroke="midnightblue" points="603.37,-87.17 594.69,-81.1 597.69,-91.26 603.37,-87.17"/>
</g>
<!-- Node3 -->
<g id="node3" class="node">
<title>Node3</title>
<g id="a_node3"><a xlink:title=" ">
<polygon fill="white" stroke="#bfbfbf" points="635.5,-62 635.5,-81 731.5,-81 731.5,-62 635.5,-62"/>
<text text-anchor="middle" x="683.5" y="-69" font-family="Helvetica,sans-Serif" font-size="10.00">maths/vector2.h</text>
</a>
</g>
</g>
<!-- Node1&#45;&gt;Node3 -->
<g id="edge2" class="edge">
<title>Node1&#45;&gt;Node3</title>
<path fill="none" stroke="midnightblue" d="M683.5,-190.37C683.5,-166.5 683.5,-118.18 683.5,-91.41"/>
<polygon fill="midnightblue" stroke="midnightblue" points="687,-91.1 683.5,-81.1 680,-91.1 687,-91.1"/>
</g>
<!-- Node4 -->
<g id="node4" class="node">
<title>Node4</title>
<g id="a_node4"><a xlink:href="texture_8h.html" target="_top" xlink:title=" ">
<polygon fill="white" stroke="black" points="257,-129 257,-148 400,-148 400,-129 257,-129"/>
<text text-anchor="middle" x="328.5" y="-136" font-family="Helvetica,sans-Serif" font-size="10.00">graphics/texture/texture.h</text>
</a>
</g>
</g>
<!-- Node1&#45;&gt;Node4 -->
<g id="edge3" class="edge">
<title>Node1&#45;&gt;Node4</title>
<path fill="none" stroke="midnightblue" d="M623.68,-193.55C557.09,-181.36 450.29,-161.8 385.06,-149.86"/>
<polygon fill="midnightblue" stroke="midnightblue" points="385.42,-146.36 374.96,-148.01 384.16,-153.25 385.42,-146.36"/>
</g>
<!-- Node12 -->
<g id="node12" class="node">
<title>Node12</title>
<g id="a_node12"><a xlink:href="shader__program_8h.html" target="_top" xlink:title=" ">
<polygon fill="white" stroke="black" points="773.5,-123.5 773.5,-153.5 903.5,-153.5 903.5,-123.5 773.5,-123.5"/>
<text text-anchor="start" x="781.5" y="-141.5" font-family="Helvetica,sans-Serif" font-size="10.00">graphics/shader/shader</text>
<text text-anchor="middle" x="838.5" y="-130.5" font-family="Helvetica,sans-Serif" font-size="10.00">_program.h</text>
</a>
</g>
</g>
<!-- Node1&#45;&gt;Node12 -->
<g id="edge12" class="edge">
<title>Node1&#45;&gt;Node12</title>
<path fill="none" stroke="midnightblue" d="M717.13,-190.4C740.08,-180.77 770.69,-167.94 795.42,-157.56"/>
<polygon fill="midnightblue" stroke="midnightblue" points="797.06,-160.67 804.93,-153.58 794.36,-154.22 797.06,-160.67"/>
</g>
<!-- Node18 -->
<g id="node18" class="node">
<title>Node18</title>
<g id="a_node18"><a xlink:href="render__path_8h.html" target="_top" xlink:title=" ">
<polygon fill="white" stroke="black" points="922,-123.5 922,-153.5 1059,-153.5 1059,-123.5 922,-123.5"/>
<text text-anchor="start" x="930" y="-141.5" font-family="Helvetica,sans-Serif" font-size="10.00">graphics/material/render</text>
<text text-anchor="middle" x="990.5" y="-130.5" font-family="Helvetica,sans-Serif" font-size="10.00">_path.h</text>
</a>
</g>
</g>
<!-- Node1&#45;&gt;Node18 -->
<g id="edge21" class="edge">
<title>Node1&#45;&gt;Node18</title>
<path fill="none" stroke="midnightblue" d="M743.06,-191.89C791.87,-181.55 861.29,-166.86 914.18,-155.66"/>
<polygon fill="midnightblue" stroke="midnightblue" points="915.13,-159.04 924.19,-153.54 913.68,-152.19 915.13,-159.04"/>
</g>
<!-- Node5 -->
<g id="node5" class="node">
<title>Node5</title>
<g id="a_node5"><a xlink:title=" ">
<polygon fill="white" stroke="#bfbfbf" points="307.5,-62 307.5,-81 349.5,-81 349.5,-62 307.5,-62"/>
<text text-anchor="middle" x="328.5" y="-69" font-family="Helvetica,sans-Serif" font-size="10.00">array</text>
</a>
</g>
</g>
<!-- Node4&#45;&gt;Node5 -->
<g id="edge4" class="edge">
<title>Node4&#45;&gt;Node5</title>
<path fill="none" stroke="midnightblue" d="M328.5,-128.73C328.5,-119.18 328.5,-103.62 328.5,-91.28"/>
<polygon fill="midnightblue" stroke="midnightblue" points="332,-91.13 328.5,-81.13 325,-91.13 332,-91.13"/>
</g>
<!-- Node6 -->
<g id="node6" class="node">
<title>Node6</title>
<g id="a_node6"><a xlink:title=" ">
<polygon fill="white" stroke="#bfbfbf" points="368,-62 368,-81 415,-81 415,-62 368,-62"/>
<text text-anchor="middle" x="391.5" y="-69" font-family="Helvetica,sans-Serif" font-size="10.00">cmath</text>
</a>
</g>
</g>
<!-- Node4&#45;&gt;Node6 -->
<g id="edge5" class="edge">
<title>Node4&#45;&gt;Node6</title>
<path fill="none" stroke="midnightblue" d="M337,-128.73C347.01,-118.4 363.84,-101.04 376.16,-88.33"/>
<polygon fill="midnightblue" stroke="midnightblue" points="378.69,-90.74 383.14,-81.13 373.67,-85.87 378.69,-90.74"/>
</g>
<!-- Node7 -->
<g id="node7" class="node">
<title>Node7</title>
<g id="a_node7"><a xlink:title=" ">
<polygon fill="white" stroke="#bfbfbf" points="433.5,-62 433.5,-81 541.5,-81 541.5,-62 433.5,-62"/>
<text text-anchor="middle" x="487.5" y="-69" font-family="Helvetica,sans-Serif" font-size="10.00">SDL2/SDL_image.h</text>
</a>
</g>
</g>
<!-- Node4&#45;&gt;Node7 -->
<g id="edge6" class="edge">
<title>Node4&#45;&gt;Node7</title>
<path fill="none" stroke="midnightblue" d="M349.61,-128.87C377.13,-117.62 425.45,-97.87 456.96,-84.99"/>
<polygon fill="midnightblue" stroke="midnightblue" points="458.62,-88.09 466.55,-81.06 455.97,-81.61 458.62,-88.09"/>
</g>
<!-- Node8 -->
<g id="node8" class="node">
<title>Node8</title>
<g id="a_node8"><a xlink:title=" ">
<polygon fill="white" stroke="#bfbfbf" points="247.5,-0.5 247.5,-19.5 311.5,-19.5 311.5,-0.5 247.5,-0.5"/>
<text text-anchor="middle" x="279.5" y="-7.5" font-family="Helvetica,sans-Serif" font-size="10.00">GL/glew.h</text>
</a>
</g>
</g>
<!-- Node4&#45;&gt;Node8 -->
<g id="edge7" class="edge">
<title>Node4&#45;&gt;Node8</title>
<path fill="none" stroke="midnightblue" d="M322.37,-128.97C315.64,-119.24 304.94,-102.65 298.5,-87 290.75,-68.18 285.57,-45.38 282.6,-29.7"/>
<polygon fill="midnightblue" stroke="midnightblue" points="286.02,-28.93 280.82,-19.69 279.13,-30.15 286.02,-28.93"/>
</g>
<!-- Node9 -->
<g id="node9" class="node">
<title>Node9</title>
<g id="a_node9"><a xlink:title=" ">
<polygon fill="white" stroke="#bfbfbf" points="0,-62 0,-81 111,-81 111,-62 0,-62"/>
<text text-anchor="middle" x="55.5" y="-69" font-family="Helvetica,sans-Serif" font-size="10.00">maths/maths_util.h</text>
</a>
</g>
</g>
<!-- Node4&#45;&gt;Node9 -->
<g id="edge8" class="edge">
<title>Node4&#45;&gt;Node9</title>
<path fill="none" stroke="midnightblue" d="M292.53,-128.94C243.43,-117.24 155.37,-96.28 101.52,-83.46"/>
<polygon fill="midnightblue" stroke="midnightblue" points="102.09,-79.99 91.55,-81.08 100.47,-86.8 102.09,-79.99"/>
</g>
<!-- Node10 -->
<g id="node10" class="node">
<title>Node10</title>
<g id="a_node10"><a xlink:href="pixel__format_8h.html" target="_top" xlink:title=" ">
<polygon fill="white" stroke="black" points="129.5,-56.5 129.5,-86.5 251.5,-86.5 251.5,-56.5 129.5,-56.5"/>
<text text-anchor="start" x="137.5" y="-74.5" font-family="Helvetica,sans-Serif" font-size="10.00">graphics/texture/pixel</text>
<text text-anchor="middle" x="190.5" y="-63.5" font-family="Helvetica,sans-Serif" font-size="10.00">_format.h</text>
</a>
</g>
</g>
<!-- Node4&#45;&gt;Node10 -->
<g id="edge9" class="edge">
<title>Node4&#45;&gt;Node10</title>
<path fill="none" stroke="midnightblue" d="M310.17,-128.87C289.74,-119.24 256.08,-103.39 229.65,-90.94"/>
<polygon fill="midnightblue" stroke="midnightblue" points="230.82,-87.62 220.28,-86.53 227.84,-93.96 230.82,-87.62"/>
</g>
<!-- Node10&#45;&gt;Node8 -->
<g id="edge11" class="edge">
<title>Node10&#45;&gt;Node8</title>
<path fill="none" stroke="midnightblue" d="M211.59,-56.4C225.59,-47.04 243.91,-34.79 257.99,-25.38"/>
<polygon fill="midnightblue" stroke="midnightblue" points="260.18,-28.13 266.55,-19.66 256.29,-22.31 260.18,-28.13"/>
</g>
<!-- Node11 -->
<g id="node11" class="node">
<title>Node11</title>
<g id="a_node11"><a xlink:title=" ">
<polygon fill="white" stroke="#bfbfbf" points="158,-0.5 158,-19.5 223,-19.5 223,-0.5 158,-0.5"/>
<text text-anchor="middle" x="190.5" y="-7.5" font-family="Helvetica,sans-Serif" font-size="10.00">stdexcept</text>
</a>
</g>
</g>
<!-- Node10&#45;&gt;Node11 -->
<g id="edge10" class="edge">
<title>Node10&#45;&gt;Node11</title>
<path fill="none" stroke="midnightblue" d="M190.5,-56.4C190.5,-48.47 190.5,-38.46 190.5,-29.86"/>
<polygon fill="midnightblue" stroke="midnightblue" points="194,-29.66 190.5,-19.66 187,-29.66 194,-29.66"/>
</g>
<!-- Node12&#45;&gt;Node2 -->
<g id="edge13" class="edge">
<title>Node12&#45;&gt;Node2</title>
<path fill="none" stroke="midnightblue" d="M773.43,-124.31C731.18,-115.18 675.13,-102 626.5,-87 624.08,-86.25 621.59,-85.43 619.1,-84.57"/>
<polygon fill="midnightblue" stroke="midnightblue" points="620.23,-81.25 609.63,-81.12 617.83,-87.83 620.23,-81.25"/>
</g>
<!-- Node12&#45;&gt;Node3 -->
<g id="edge18" class="edge">
<title>Node12&#45;&gt;Node3</title>
<path fill="none" stroke="midnightblue" d="M804.87,-123.4C777.55,-111.94 739.39,-95.94 713.19,-84.95"/>
<polygon fill="midnightblue" stroke="midnightblue" points="714.36,-81.65 703.79,-81.01 711.65,-88.1 714.36,-81.65"/>
</g>
<!-- Node12&#45;&gt;Node8 -->
<g id="edge16" class="edge">
<title>Node12&#45;&gt;Node8</title>
<path fill="none" stroke="midnightblue" d="M866.74,-123.41C895.91,-107.09 934.32,-79.42 912.5,-56 872.33,-12.88 457.15,-10.4 321.86,-10.75"/>
<polygon fill="midnightblue" stroke="midnightblue" points="321.49,-7.25 311.5,-10.79 321.51,-14.25 321.49,-7.25"/>
</g>
<!-- Node13 -->
<g id="node13" class="node">
<title>Node13</title>
<g id="a_node13"><a xlink:title=" ">
<polygon fill="white" stroke="#bfbfbf" points="859.5,-62 859.5,-81 903.5,-81 903.5,-62 859.5,-62"/>
<text text-anchor="middle" x="881.5" y="-69" font-family="Helvetica,sans-Serif" font-size="10.00">string</text>
</a>
</g>
</g>
<!-- Node12&#45;&gt;Node13 -->
<g id="edge14" class="edge">
<title>Node12&#45;&gt;Node13</title>
<path fill="none" stroke="midnightblue" d="M847.83,-123.4C854.4,-113.46 863.24,-100.11 870.21,-89.57"/>
<polygon fill="midnightblue" stroke="midnightblue" points="873.15,-91.47 875.75,-81.19 867.31,-87.6 873.15,-91.47"/>
</g>
<!-- Node14 -->
<g id="node14" class="node">
<title>Node14</title>
<g id="a_node14"><a xlink:title=" ">
<polygon fill="white" stroke="#bfbfbf" points="960,-62 960,-81 1007,-81 1007,-62 960,-62"/>
<text text-anchor="middle" x="983.5" y="-69" font-family="Helvetica,sans-Serif" font-size="10.00">vector</text>
</a>
</g>
</g>
<!-- Node12&#45;&gt;Node14 -->
<g id="edge15" class="edge">
<title>Node12&#45;&gt;Node14</title>
<path fill="none" stroke="midnightblue" d="M869.96,-123.4C895.4,-111.99 930.9,-96.08 955.4,-85.1"/>
<polygon fill="midnightblue" stroke="midnightblue" points="956.83,-88.29 964.52,-81.01 953.97,-81.9 956.83,-88.29"/>
</g>
<!-- Node15 -->
<g id="node15" class="node">
<title>Node15</title>
<g id="a_node15"><a xlink:title=" ">
<polygon fill="white" stroke="#bfbfbf" points="1025,-62 1025,-81 1114,-81 1114,-62 1025,-62"/>
<text text-anchor="middle" x="1069.5" y="-69" font-family="Helvetica,sans-Serif" font-size="10.00">maths/colour.h</text>
</a>
</g>
</g>
<!-- Node12&#45;&gt;Node15 -->
<g id="edge17" class="edge">
<title>Node12&#45;&gt;Node15</title>
<path fill="none" stroke="midnightblue" d="M888.34,-123.48C930.56,-111.6 990.3,-94.79 1029.46,-83.77"/>
<polygon fill="midnightblue" stroke="midnightblue" points="1030.51,-87.11 1039.19,-81.03 1028.62,-80.37 1030.51,-87.11"/>
</g>
<!-- Node16 -->
<g id="node16" class="node">
<title>Node16</title>
<g id="a_node16"><a xlink:title=" ">
<polygon fill="white" stroke="#bfbfbf" points="1132.5,-62 1132.5,-81 1228.5,-81 1228.5,-62 1132.5,-62"/>
<text text-anchor="middle" x="1180.5" y="-69" font-family="Helvetica,sans-Serif" font-size="10.00">maths/vector3.h</text>
</a>
</g>
</g>
<!-- Node12&#45;&gt;Node16 -->
<g id="edge19" class="edge">
<title>Node12&#45;&gt;Node16</title>
<path fill="none" stroke="midnightblue" d="M903.53,-124.84C906.9,-124.21 910.24,-123.59 913.5,-123 1006.66,-106.01 1030.87,-106.69 1123.5,-87 1128.55,-85.93 1133.83,-84.71 1139.05,-83.45"/>
<polygon fill="midnightblue" stroke="midnightblue" points="1140.08,-86.8 1148.95,-81 1138.4,-80.01 1140.08,-86.8"/>
</g>
<!-- Node17 -->
<g id="node17" class="node">
<title>Node17</title>
<g id="a_node17"><a xlink:title=" ">
<polygon fill="white" stroke="#bfbfbf" points="749.5,-62 749.5,-81 841.5,-81 841.5,-62 749.5,-62"/>
<text text-anchor="middle" x="795.5" y="-69" font-family="Helvetica,sans-Serif" font-size="10.00">maths/matrix.h</text>
</a>
</g>
</g>
<!-- Node12&#45;&gt;Node17 -->
<g id="edge20" class="edge">
<title>Node12&#45;&gt;Node17</title>
<path fill="none" stroke="midnightblue" d="M829.17,-123.4C822.6,-113.46 813.76,-100.11 806.79,-89.57"/>
<polygon fill="midnightblue" stroke="midnightblue" points="809.69,-87.6 801.25,-81.19 803.85,-91.47 809.69,-87.6"/>
</g>
</g>
</svg>
