<?xml version="1.0" encoding="UTF-8" standalone="no"?>
<!DOCTYPE svg PUBLIC "-//W3C//DTD SVG 1.1//EN"
 "http://www.w3.org/Graphics/SVG/1.1/DTD/svg11.dtd">
<!-- Generated by graphviz version 2.43.0 (0)
 -->
<!-- Title: src/graphics/material/material_manager.h Pages: 1 -->
<svg width="1161pt" height="285pt"
 viewBox="0.00 0.00 1161.00 285.00" xmlns="http://www.w3.org/2000/svg" xmlns:xlink="http://www.w3.org/1999/xlink">
<g id="graph0" class="graph" transform="scale(1 1) rotate(0) translate(4 281)">
<title>src/graphics/material/material_manager.h</title>
<polygon fill="white" stroke="transparent" points="-4,4 -4,-281 1157,-281 1157,4 -4,4"/>
<!-- Node1 -->
<g id="node1" class="node">
<title>Node1</title>
<g id="a_node1"><a xlink:title=" ">
<polygon fill="#bfbfbf" stroke="black" points="383.5,-246.5 383.5,-276.5 502.5,-276.5 502.5,-246.5 383.5,-246.5"/>
<text text-anchor="start" x="391.5" y="-264.5" font-family="Helvetica,sans-Serif" font-size="10.00">src/graphics/material</text>
<text text-anchor="middle" x="443" y="-253.5" font-family="Helvetica,sans-Serif" font-size="10.00">/material_manager.h</text>
</a>
</g>
</g>
<!-- Node2 -->
<g id="node2" class="node">
<title>Node2</title>
<g id="a_node2"><a xlink:title=" ">
<polygon fill="white" stroke="#bfbfbf" points="155,-129 155,-148 213,-148 213,-129 155,-129"/>
<text text-anchor="middle" x="184" y="-136" font-family="Helvetica,sans-Serif" font-size="10.00">memory</text>
</a>
</g>
</g>
<!-- Node1&#45;&gt;Node2 -->
<g id="edge1" class="edge">
<title>Node1&#45;&gt;Node2</title>
<path fill="none" stroke="midnightblue" d="M385.08,-246.49C354.46,-237.98 316.75,-225.71 285,-210 253.75,-194.54 221.34,-170.18 201.92,-154.52"/>
<polygon fill="midnightblue" stroke="midnightblue" points="203.92,-151.64 193.97,-148.01 199.48,-157.05 203.92,-151.64"/>
</g>
<!-- Node3 -->
<g id="node3" class="node">
<title>Node3</title>
<g id="a_node3"><a xlink:title=" ">
<polygon fill="white" stroke="#bfbfbf" points="467.5,-190.5 467.5,-209.5 560.5,-209.5 560.5,-190.5 467.5,-190.5"/>
<text text-anchor="middle" x="514" y="-197.5" font-family="Helvetica,sans-Serif" font-size="10.00">unordered_map</text>
</a>
</g>
</g>
<!-- Node1&#45;&gt;Node3 -->
<g id="edge2" class="edge">
<title>Node1&#45;&gt;Node3</title>
<path fill="none" stroke="midnightblue" d="M459.83,-246.4C470.67,-237.31 484.78,-225.49 495.87,-216.19"/>
<polygon fill="midnightblue" stroke="midnightblue" points="498.25,-218.76 503.67,-209.66 493.76,-213.4 498.25,-218.76"/>
</g>
<!-- Node4 -->
<g id="node4" class="node">
<title>Node4</title>
<g id="a_node4"><a xlink:title=" ">
<polygon fill="white" stroke="#bfbfbf" points="579,-190.5 579,-209.5 695,-209.5 695,-190.5 579,-190.5"/>
<text text-anchor="middle" x="637" y="-197.5" font-family="Helvetica,sans-Serif" font-size="10.00">common/singleton.h</text>
</a>
</g>
</g>
<!-- Node1&#45;&gt;Node4 -->
<g id="edge3" class="edge">
<title>Node1&#45;&gt;Node4</title>
<path fill="none" stroke="midnightblue" d="M488.98,-246.4C522.64,-236.07 567.78,-222.23 599.32,-212.56"/>
<polygon fill="midnightblue" stroke="midnightblue" points="600.52,-215.85 609.05,-209.57 598.47,-209.16 600.52,-215.85"/>
</g>
<!-- Node5 -->
<g id="node5" class="node">
<title>Node5</title>
<g id="a_node5"><a xlink:href="material_8h.html" target="_top" xlink:title=" ">
<polygon fill="white" stroke="black" points="294.5,-190.5 294.5,-209.5 449.5,-209.5 449.5,-190.5 294.5,-190.5"/>
<text text-anchor="middle" x="372" y="-197.5" font-family="Helvetica,sans-Serif" font-size="10.00">graphics/material/material.h</text>
</a>
</g>
</g>
<!-- Node1&#45;&gt;Node5 -->
<g id="edge4" class="edge">
<title>Node1&#45;&gt;Node5</title>
<path fill="none" stroke="midnightblue" d="M426.17,-246.4C415.33,-237.31 401.22,-225.49 390.13,-216.19"/>
<polygon fill="midnightblue" stroke="midnightblue" points="392.24,-213.4 382.33,-209.66 387.75,-218.76 392.24,-213.4"/>
</g>
<!-- Node5&#45;&gt;Node2 -->
<g id="edge5" class="edge">
<title>Node5&#45;&gt;Node2</title>
<path fill="none" stroke="midnightblue" d="M341.05,-190.43C310.58,-181.82 262.8,-167.88 222,-154 219.74,-153.23 217.42,-152.41 215.09,-151.57"/>
<polygon fill="midnightblue" stroke="midnightblue" points="216.2,-148.25 205.6,-148.06 213.76,-154.81 216.2,-148.25"/>
</g>
<!-- Node6 -->
<g id="node6" class="node">
<title>Node6</title>
<g id="a_node6"><a xlink:title=" ">
<polygon fill="white" stroke="#bfbfbf" points="497,-62 497,-81 593,-81 593,-62 497,-62"/>
<text text-anchor="middle" x="545" y="-69" font-family="Helvetica,sans-Serif" font-size="10.00">maths/vector2.h</text>
</a>
</g>
</g>
<!-- Node5&#45;&gt;Node6 -->
<g id="edge6" class="edge">
<title>Node5&#45;&gt;Node6</title>
<path fill="none" stroke="midnightblue" d="M449.51,-192.09C476.68,-185.93 505.3,-174.62 525,-154 541,-137.25 544.84,-109.87 545.45,-91.52"/>
<polygon fill="midnightblue" stroke="midnightblue" points="548.96,-91.46 545.5,-81.44 541.96,-91.43 548.96,-91.46"/>
</g>
<!-- Node7 -->
<g id="node7" class="node">
<title>Node7</title>
<g id="a_node7"><a xlink:href="texture_8h.html" target="_top" xlink:title=" ">
<polygon fill="white" stroke="black" points="661.5,-129 661.5,-148 804.5,-148 804.5,-129 661.5,-129"/>
<text text-anchor="middle" x="733" y="-136" font-family="Helvetica,sans-Serif" font-size="10.00">graphics/texture/texture.h</text>
</a>
</g>
</g>
<!-- Node5&#45;&gt;Node7 -->
<g id="edge7" class="edge">
<title>Node5&#45;&gt;Node7</title>
<path fill="none" stroke="midnightblue" d="M423.72,-190.48C489.13,-179.69 601.62,-161.15 671.4,-149.65"/>
<polygon fill="midnightblue" stroke="midnightblue" points="672.08,-153.09 681.37,-148.01 670.94,-146.18 672.08,-153.09"/>
</g>
<!-- Node15 -->
<g id="node15" class="node">
<title>Node15</title>
<g id="a_node15"><a xlink:href="shader__program_8h.html" target="_top" xlink:title=" ">
<polygon fill="white" stroke="black" points="231,-123.5 231,-153.5 361,-153.5 361,-123.5 231,-123.5"/>
<text text-anchor="start" x="239" y="-141.5" font-family="Helvetica,sans-Serif" font-size="10.00">graphics/shader/shader</text>
<text text-anchor="middle" x="296" y="-130.5" font-family="Helvetica,sans-Serif" font-size="10.00">_program.h</text>
</a>
</g>
</g>
<!-- Node5&#45;&gt;Node15 -->
<g id="edge16" class="edge">
<title>Node5&#45;&gt;Node15</title>
<path fill="none" stroke="midnightblue" d="M361.11,-190.48C350.91,-182.49 335.28,-170.25 321.89,-159.77"/>
<polygon fill="midnightblue" stroke="midnightblue" points="323.94,-156.93 313.91,-153.52 319.63,-162.44 323.94,-156.93"/>
</g>
<!-- Node21 -->
<g id="node21" class="node">
<title>Node21</title>
<g id="a_node21"><a xlink:href="render__path_8h.html" target="_top" xlink:title=" ">
<polygon fill="white" stroke="black" points="379.5,-123.5 379.5,-153.5 516.5,-153.5 516.5,-123.5 379.5,-123.5"/>
<text text-anchor="start" x="387.5" y="-141.5" font-family="Helvetica,sans-Serif" font-size="10.00">graphics/material/render</text>
<text text-anchor="middle" x="448" y="-130.5" font-family="Helvetica,sans-Serif" font-size="10.00">_path.h</text>
</a>
</g>
</g>
<!-- Node5&#45;&gt;Node21 -->
<g id="edge24" class="edge">
<title>Node5&#45;&gt;Node21</title>
<path fill="none" stroke="midnightblue" d="M382.89,-190.48C393.09,-182.49 408.72,-170.25 422.11,-159.77"/>
<polygon fill="midnightblue" stroke="midnightblue" points="424.37,-162.44 430.09,-153.52 420.06,-156.93 424.37,-162.44"/>
</g>
<!-- Node8 -->
<g id="node8" class="node">
<title>Node8</title>
<g id="a_node8"><a xlink:title=" ">
<polygon fill="white" stroke="#bfbfbf" points="649,-62 649,-81 691,-81 691,-62 649,-62"/>
<text text-anchor="middle" x="670" y="-69" font-family="Helvetica,sans-Serif" font-size="10.00">array</text>
</a>
</g>
</g>
<!-- Node7&#45;&gt;Node8 -->
<g id="edge8" class="edge">
<title>Node7&#45;&gt;Node8</title>
<path fill="none" stroke="midnightblue" d="M724.5,-128.73C714.49,-118.4 697.66,-101.04 685.34,-88.33"/>
<polygon fill="midnightblue" stroke="midnightblue" points="687.83,-85.87 678.36,-81.13 682.81,-90.74 687.83,-85.87"/>
</g>
<!-- Node9 -->
<g id="node9" class="node">
<title>Node9</title>
<g id="a_node9"><a xlink:title=" ">
<polygon fill="white" stroke="#bfbfbf" points="709.5,-62 709.5,-81 756.5,-81 756.5,-62 709.5,-62"/>
<text text-anchor="middle" x="733" y="-69" font-family="Helvetica,sans-Serif" font-size="10.00">cmath</text>
</a>
</g>
</g>
<!-- Node7&#45;&gt;Node9 -->
<g id="edge9" class="edge">
<title>Node7&#45;&gt;Node9</title>
<path fill="none" stroke="midnightblue" d="M733,-128.73C733,-119.18 733,-103.62 733,-91.28"/>
<polygon fill="midnightblue" stroke="midnightblue" points="736.5,-91.13 733,-81.13 729.5,-91.13 736.5,-91.13"/>
</g>
<!-- Node10 -->
<g id="node10" class="node">
<title>Node10</title>
<g id="a_node10"><a xlink:title=" ">
<polygon fill="white" stroke="#bfbfbf" points="775,-62 775,-81 883,-81 883,-62 775,-62"/>
<text text-anchor="middle" x="829" y="-69" font-family="Helvetica,sans-Serif" font-size="10.00">SDL2/SDL_image.h</text>
</a>
</g>
</g>
<!-- Node7&#45;&gt;Node10 -->
<g id="edge10" class="edge">
<title>Node7&#45;&gt;Node10</title>
<path fill="none" stroke="midnightblue" d="M745.95,-128.73C761.85,-117.96 789.05,-99.55 807.97,-86.74"/>
<polygon fill="midnightblue" stroke="midnightblue" points="809.94,-89.63 816.26,-81.13 806.02,-83.84 809.94,-89.63"/>
</g>
<!-- Node11 -->
<g id="node11" class="node">
<title>Node11</title>
<g id="a_node11"><a xlink:title=" ">
<polygon fill="white" stroke="#bfbfbf" points="589,-0.5 589,-19.5 653,-19.5 653,-0.5 589,-0.5"/>
<text text-anchor="middle" x="621" y="-7.5" font-family="Helvetica,sans-Serif" font-size="10.00">GL/glew.h</text>
</a>
</g>
</g>
<!-- Node7&#45;&gt;Node11 -->
<g id="edge11" class="edge">
<title>Node7&#45;&gt;Node11</title>
<path fill="none" stroke="midnightblue" d="M704.48,-128.97C683.6,-121.28 656.2,-107.91 640,-87 627.28,-70.58 622.97,-46.69 621.57,-30.1"/>
<polygon fill="midnightblue" stroke="midnightblue" points="625.06,-29.75 620.99,-19.96 618.07,-30.14 625.06,-29.75"/>
</g>
<!-- Node12 -->
<g id="node12" class="node">
<title>Node12</title>
<g id="a_node12"><a xlink:title=" ">
<polygon fill="white" stroke="#bfbfbf" points="901.5,-62 901.5,-81 1012.5,-81 1012.5,-62 901.5,-62"/>
<text text-anchor="middle" x="957" y="-69" font-family="Helvetica,sans-Serif" font-size="10.00">maths/maths_util.h</text>
</a>
</g>
</g>
<!-- Node7&#45;&gt;Node12 -->
<g id="edge12" class="edge">
<title>Node7&#45;&gt;Node12</title>
<path fill="none" stroke="midnightblue" d="M762.75,-128.87C802.6,-117.3 873.43,-96.75 917.66,-83.91"/>
<polygon fill="midnightblue" stroke="midnightblue" points="918.86,-87.21 927.49,-81.06 916.91,-80.49 918.86,-87.21"/>
</g>
<!-- Node13 -->
<g id="node13" class="node">
<title>Node13</title>
<g id="a_node13"><a xlink:href="pixel__format_8h.html" target="_top" xlink:title=" ">
<polygon fill="white" stroke="black" points="1031,-56.5 1031,-86.5 1153,-86.5 1153,-56.5 1031,-56.5"/>
<text text-anchor="start" x="1039" y="-74.5" font-family="Helvetica,sans-Serif" font-size="10.00">graphics/texture/pixel</text>
<text text-anchor="middle" x="1092" y="-63.5" font-family="Helvetica,sans-Serif" font-size="10.00">_format.h</text>
</a>
</g>
</g>
<!-- Node7&#45;&gt;Node13 -->
<g id="edge13" class="edge">
<title>Node7&#45;&gt;Node13</title>
<path fill="none" stroke="midnightblue" d="M784.06,-128.99C841.69,-119.28 938.21,-102.71 1021,-87 1021.1,-86.98 1021.2,-86.96 1021.3,-86.94"/>
<polygon fill="midnightblue" stroke="midnightblue" points="1021.67,-90.44 1030.83,-85.11 1020.35,-83.56 1021.67,-90.44"/>
</g>
<!-- Node13&#45;&gt;Node11 -->
<g id="edge15" class="edge">
<title>Node13&#45;&gt;Node11</title>
<path fill="none" stroke="midnightblue" d="M1030.87,-57.65C1027.54,-57.07 1024.23,-56.51 1021,-56 891.23,-35.49 736.33,-20.84 663.2,-14.5"/>
<polygon fill="midnightblue" stroke="midnightblue" points="663.28,-10.99 653.02,-13.62 662.68,-17.97 663.28,-10.99"/>
</g>
<!-- Node14 -->
<g id="node14" class="node">
<title>Node14</title>
<g id="a_node14"><a xlink:title=" ">
<polygon fill="white" stroke="#bfbfbf" points="1059.5,-0.5 1059.5,-19.5 1124.5,-19.5 1124.5,-0.5 1059.5,-0.5"/>
<text text-anchor="middle" x="1092" y="-7.5" font-family="Helvetica,sans-Serif" font-size="10.00">stdexcept</text>
</a>
</g>
</g>
<!-- Node13&#45;&gt;Node14 -->
<g id="edge14" class="edge">
<title>Node13&#45;&gt;Node14</title>
<path fill="none" stroke="midnightblue" d="M1092,-56.4C1092,-48.47 1092,-38.46 1092,-29.86"/>
<polygon fill="midnightblue" stroke="midnightblue" points="1095.5,-29.66 1092,-19.66 1088.5,-29.66 1095.5,-29.66"/>
</g>
<!-- Node15&#45;&gt;Node6 -->
<g id="edge21" class="edge">
<title>Node15&#45;&gt;Node6</title>
<path fill="none" stroke="midnightblue" d="M349.72,-123.48C395.52,-111.52 460.44,-94.57 502.64,-83.56"/>
<polygon fill="midnightblue" stroke="midnightblue" points="503.54,-86.94 512.33,-81.03 501.77,-80.17 503.54,-86.94"/>
</g>
<!-- Node15&#45;&gt;Node11 -->
<g id="edge19" class="edge">
<title>Node15&#45;&gt;Node11</title>
<path fill="none" stroke="midnightblue" d="M355.87,-123.4C385.28,-115.11 420.63,-103.07 450,-87 469.12,-76.54 468.93,-66.55 488,-56 516.65,-40.15 551.86,-28.54 578.85,-21.09"/>
<polygon fill="midnightblue" stroke="midnightblue" points="580.01,-24.4 588.76,-18.44 578.2,-17.64 580.01,-24.4"/>
</g>
<!-- Node16 -->
<g id="node16" class="node">
<title>Node16</title>
<g id="a_node16"><a xlink:title=" ">
<polygon fill="white" stroke="#bfbfbf" points="0,-62 0,-81 44,-81 44,-62 0,-62"/>
<text text-anchor="middle" x="22" y="-69" font-family="Helvetica,sans-Serif" font-size="10.00">string</text>
</a>
</g>
</g>
<!-- Node15&#45;&gt;Node16 -->
<g id="edge17" class="edge">
<title>Node15&#45;&gt;Node16</title>
<path fill="none" stroke="midnightblue" d="M230.78,-124.34C161.74,-110.34 61.51,-89.83 53,-87 51.33,-86.45 49.64,-85.83 47.94,-85.16"/>
<polygon fill="midnightblue" stroke="midnightblue" points="49.01,-81.81 38.44,-81.06 46.23,-88.24 49.01,-81.81"/>
</g>
<!-- Node17 -->
<g id="node17" class="node">
<title>Node17</title>
<g id="a_node17"><a xlink:title=" ">
<polygon fill="white" stroke="#bfbfbf" points="62.5,-62 62.5,-81 109.5,-81 109.5,-62 62.5,-62"/>
<text text-anchor="middle" x="86" y="-69" font-family="Helvetica,sans-Serif" font-size="10.00">vector</text>
</a>
</g>
</g>
<!-- Node15&#45;&gt;Node17 -->
<g id="edge18" class="edge">
<title>Node15&#45;&gt;Node17</title>
<path fill="none" stroke="midnightblue" d="M238.39,-123.48C203.2,-114.35 157.52,-101.47 118,-87 116.39,-86.41 114.74,-85.77 113.09,-85.11"/>
<polygon fill="midnightblue" stroke="midnightblue" points="114.32,-81.83 103.74,-81.11 111.56,-88.26 114.32,-81.83"/>
</g>
<!-- Node18 -->
<g id="node18" class="node">
<title>Node18</title>
<g id="a_node18"><a xlink:title=" ">
<polygon fill="white" stroke="#bfbfbf" points="127.5,-62 127.5,-81 216.5,-81 216.5,-62 127.5,-62"/>
<text text-anchor="middle" x="172" y="-69" font-family="Helvetica,sans-Serif" font-size="10.00">maths/colour.h</text>
</a>
</g>
</g>
<!-- Node15&#45;&gt;Node18 -->
<g id="edge20" class="edge">
<title>Node15&#45;&gt;Node18</title>
<path fill="none" stroke="midnightblue" d="M269.09,-123.4C247.72,-112.19 218.05,-96.64 197.15,-85.69"/>
<polygon fill="midnightblue" stroke="midnightblue" points="198.71,-82.55 188.23,-81.01 195.46,-88.75 198.71,-82.55"/>
</g>
<!-- Node19 -->
<g id="node19" class="node">
<title>Node19</title>
<g id="a_node19"><a xlink:title=" ">
<polygon fill="white" stroke="#bfbfbf" points="235,-62 235,-81 331,-81 331,-62 235,-62"/>
<text text-anchor="middle" x="283" y="-69" font-family="Helvetica,sans-Serif" font-size="10.00">maths/vector3.h</text>
</a>
</g>
</g>
<!-- Node15&#45;&gt;Node19 -->
<g id="edge22" class="edge">
<title>Node15&#45;&gt;Node19</title>
<path fill="none" stroke="midnightblue" d="M293.18,-123.4C291.29,-113.96 288.79,-101.45 286.74,-91.19"/>
<polygon fill="midnightblue" stroke="midnightblue" points="290.13,-90.31 284.74,-81.19 283.27,-91.69 290.13,-90.31"/>
</g>
<!-- Node20 -->
<g id="node20" class="node">
<title>Node20</title>
<g id="a_node20"><a xlink:title=" ">
<polygon fill="white" stroke="#bfbfbf" points="349,-62 349,-81 441,-81 441,-62 349,-62"/>
<text text-anchor="middle" x="395" y="-69" font-family="Helvetica,sans-Serif" font-size="10.00">maths/matrix.h</text>
</a>
</g>
</g>
<!-- Node15&#45;&gt;Node20 -->
<g id="edge23" class="edge">
<title>Node15&#45;&gt;Node20</title>
<path fill="none" stroke="midnightblue" d="M317.48,-123.4C334.08,-112.5 356.96,-97.48 373.55,-86.58"/>
<polygon fill="midnightblue" stroke="midnightblue" points="375.6,-89.42 382.04,-81.01 371.76,-83.57 375.6,-89.42"/>
</g>
</g>
</svg>
