<?xml version="1.0" encoding="UTF-8" standalone="no"?>
<!DOCTYPE svg PUBLIC "-//W3C//DTD SVG 1.1//EN"
 "http://www.w3.org/Graphics/SVG/1.1/DTD/svg11.dtd">
<!-- Generated by graphviz version 2.43.0 (0)
 -->
<!-- Title: src/graphics/mesh/mesh_manager.h Pages: 1 -->
<!--zoomable 341 -->
<svg id="main" version="1.1" xmlns="http://www.w3.org/2000/svg" xmlns:xlink="http://www.w3.org/1999/xlink" xml:space="preserve" onload="init(evt)">
<style type="text/css"><![CDATA[
.edge:hover path { stroke: red; }
.edge:hover polygon { stroke: red; fill: red; }
]]></style>
<script type="text/javascript"><![CDATA[
var edges = document.getElementsByTagName('g');
if (edges && edges.length) {
  for (var i=0;i<edges.length;i++) {
    if (edges[i].id.substr(0,4)=='edge') {
      edges[i].setAttribute('class','edge');
    }
  }
}
]]></script>
        <defs>
                <circle id="rim" cx="0" cy="0" r="7"/>
                <circle id="rim2" cx="0" cy="0" r="3.5"/>
                <g id="zoomPlus">
                        <use xlink:href="#rim" fill="#404040">
                                <set attributeName="fill" to="#808080" begin="zoomplus.mouseover" end="zoomplus.mouseout"/>
                        </use>
                        <path d="M-4,0h8M0,-4v8" fill="none" stroke="white" stroke-width="1.5" pointer-events="none"/>
                </g>
                <g id="zoomMin">
                        <use xlink:href="#rim" fill="#404040">
                                <set attributeName="fill" to="#808080" begin="zoomminus.mouseover" end="zoomminus.mouseout"/>
                        </use>
                        <path d="M-4,0h8" fill="none" stroke="white" stroke-width="1.5" pointer-events="none"/>
                </g>
                <g id="dirArrow">
                        <path fill="none" stroke="white" stroke-width="1.5" d="M0,-3.0v7 M-2.5,-0.5L0,-3.0L2.5,-0.5"/>
                </g>
               <g id="resetDef">
                       <use xlink:href="#rim2" fill="#404040">
                               <set attributeName="fill" to="#808080" begin="reset.mouseover" end="reset.mouseout"/>
                       </use>
               </g>
        </defs>

<script type="text/javascript">
var viewWidth = 1508;
var viewHeight = 341;
var sectionId = 'dynsection-0';
</script>
<script xlink:href="svgpan.js"/>
<svg id="graph" class="graph">
<g id="viewport">
<title>src/graphics/mesh/mesh_manager.h</title>
<polygon fill="white" stroke="transparent" points="-4,4 -4,-337 1504,-337 1504,4 -4,4"/>
<!-- Node1 -->
<g id="node1" class="node">
<title>Node1</title>
<g id="a_node1"><a xlink:title=" ">
<polygon fill="#bfbfbf" stroke="black" points="278,-302.5 278,-332.5 413,-332.5 413,-302.5 278,-302.5"/>
<text text-anchor="start" x="286" y="-320.5" font-family="Helvetica,sans-Serif" font-size="10.00">src/graphics/mesh/mesh</text>
<text text-anchor="middle" x="345.5" y="-309.5" font-family="Helvetica,sans-Serif" font-size="10.00">_manager.h</text>
</a>
</g>
</g>
<!-- Node2 -->
<g id="node2" class="node">
<title>Node2</title>
<g id="a_node2"><a xlink:title=" ">
<polygon fill="white" stroke="#bfbfbf" points="0,-241 0,-260 65,-260 65,-241 0,-241"/>
<text text-anchor="middle" x="32.5" y="-248" font-family="Helvetica,sans-Serif" font-size="10.00">stdexcept</text>
</a>
</g>
</g>
<!-- Node1&#45;&gt;Node2 -->
<g id="edge1" class="edge">
<title>Node1&#45;&gt;Node2</title>
<path fill="none" stroke="midnightblue" d="M277.82,-305.8C223.79,-296.74 146.33,-282.6 79.5,-266 75.89,-265.1 72.15,-264.09 68.42,-263.03"/>
<polygon fill="midnightblue" stroke="midnightblue" points="69.29,-259.64 58.7,-260.15 67.3,-266.35 69.29,-259.64"/>
</g>
<!-- Node3 -->
<g id="node3" class="node">
<title>Node3</title>
<g id="a_node3"><a xlink:title=" ">
<polygon fill="white" stroke="#bfbfbf" points="290.5,-0.5 290.5,-19.5 348.5,-19.5 348.5,-0.5 290.5,-0.5"/>
<text text-anchor="middle" x="319.5" y="-7.5" font-family="Helvetica,sans-Serif" font-size="10.00">memory</text>
</a>
</g>
</g>
<!-- Node1&#45;&gt;Node3 -->
<g id="edge2" class="edge">
<title>Node1&#45;&gt;Node3</title>
<path fill="none" stroke="midnightblue" d="M277.97,-311.26C203.32,-301.36 93.5,-272.73 93.5,-190 93.5,-190 93.5,-190 93.5,-126.5 93.5,-43.65 215.43,-20.19 280.17,-13.58"/>
<polygon fill="midnightblue" stroke="midnightblue" points="280.79,-17.04 290.42,-12.63 280.14,-10.07 280.79,-17.04"/>
</g>
<!-- Node4 -->
<g id="node4" class="node">
<title>Node4</title>
<g id="a_node4"><a xlink:title=" ">
<polygon fill="white" stroke="#bfbfbf" points="176,-241 176,-260 269,-260 269,-241 176,-241"/>
<text text-anchor="middle" x="222.5" y="-248" font-family="Helvetica,sans-Serif" font-size="10.00">unordered_map</text>
</a>
</g>
</g>
<!-- Node1&#45;&gt;Node4 -->
<g id="edge3" class="edge">
<title>Node1&#45;&gt;Node4</title>
<path fill="none" stroke="midnightblue" d="M318.81,-302.4C297.61,-291.19 268.18,-275.64 247.45,-264.69"/>
<polygon fill="midnightblue" stroke="midnightblue" points="249.07,-261.58 238.6,-260.01 245.8,-267.77 249.07,-261.58"/>
</g>
<!-- Node5 -->
<g id="node5" class="node">
<title>Node5</title>
<g id="a_node5"><a xlink:title=" ">
<polygon fill="white" stroke="#bfbfbf" points="287.5,-241 287.5,-260 403.5,-260 403.5,-241 287.5,-241"/>
<text text-anchor="middle" x="345.5" y="-248" font-family="Helvetica,sans-Serif" font-size="10.00">common/singleton.h</text>
</a>
</g>
</g>
<!-- Node1&#45;&gt;Node5 -->
<g id="edge4" class="edge">
<title>Node1&#45;&gt;Node5</title>
<path fill="none" stroke="midnightblue" d="M345.5,-302.4C345.5,-293.06 345.5,-280.71 345.5,-270.52"/>
<polygon fill="midnightblue" stroke="midnightblue" points="349,-270.19 345.5,-260.19 342,-270.19 349,-270.19"/>
</g>
<!-- Node6 -->
<g id="node6" class="node">
<title>Node6</title>
<g id="a_node6"><a xlink:href="mesh_8h.html" target="_top" xlink:title=" ">
<polygon fill="white" stroke="black" points="368,-179.5 368,-198.5 495,-198.5 495,-179.5 368,-179.5"/>
<text text-anchor="middle" x="431.5" y="-186.5" font-family="Helvetica,sans-Serif" font-size="10.00">graphics/mesh/mesh.h</text>
</a>
</g>
</g>
<!-- Node1&#45;&gt;Node6 -->
<g id="edge5" class="edge">
<title>Node1&#45;&gt;Node6</title>
<path fill="none" stroke="midnightblue" d="M371.95,-302.5C385.98,-293.77 402.37,-281.3 412.5,-266 423.86,-248.85 428.43,-225.43 430.27,-209.14"/>
<polygon fill="midnightblue" stroke="midnightblue" points="433.79,-208.99 431.18,-198.73 426.82,-208.38 433.79,-208.99"/>
</g>
<!-- Node19 -->
<g id="node19" class="node">
<title>Node19</title>
<g id="a_node19"><a xlink:href="mesh__builder_8h.html" target="_top" xlink:title=" ">
<polygon fill="white" stroke="black" points="782.5,-235.5 782.5,-265.5 900.5,-265.5 900.5,-235.5 782.5,-235.5"/>
<text text-anchor="start" x="790.5" y="-253.5" font-family="Helvetica,sans-Serif" font-size="10.00">graphics/mesh/mesh</text>
<text text-anchor="middle" x="841.5" y="-242.5" font-family="Helvetica,sans-Serif" font-size="10.00">_builder.h</text>
</a>
</g>
</g>
<!-- Node1&#45;&gt;Node19 -->
<g id="edge23" class="edge">
<title>Node1&#45;&gt;Node19</title>
<path fill="none" stroke="midnightblue" d="M413.17,-307.63C507.42,-295.28 677.32,-273.02 772.36,-260.56"/>
<polygon fill="midnightblue" stroke="midnightblue" points="772.98,-264.01 782.44,-259.24 772.07,-257.07 772.98,-264.01"/>
</g>
<!-- Node28 -->
<g id="node28" class="node">
<title>Node28</title>
<g id="a_node28"><a xlink:href="file__util_8h.html" target="_top" xlink:title=" ">
<polygon fill="white" stroke="black" points="1160.5,-179.5 1160.5,-198.5 1240.5,-198.5 1240.5,-179.5 1160.5,-179.5"/>
<text text-anchor="middle" x="1200.5" y="-186.5" font-family="Helvetica,sans-Serif" font-size="10.00">util/file_util.h</text>
</a>
</g>
</g>
<!-- Node1&#45;&gt;Node28 -->
<g id="edge40" class="edge">
<title>Node1&#45;&gt;Node28</title>
<path fill="none" stroke="midnightblue" d="M413.26,-314.07C519.63,-309.44 732.02,-296.9 909.5,-266 1002.72,-249.77 1109.79,-218.43 1164.38,-201.51"/>
<polygon fill="midnightblue" stroke="midnightblue" points="1165.44,-204.85 1173.95,-198.53 1163.36,-198.16 1165.44,-204.85"/>
</g>
<!-- Node6&#45;&gt;Node3 -->
<g id="edge6" class="edge">
<title>Node6&#45;&gt;Node3</title>
<path fill="none" stroke="midnightblue" d="M367.75,-186.49C295.62,-180.72 183.84,-158.25 150.5,-76 128.99,-22.93 223.66,-12.47 280.06,-10.86"/>
<polygon fill="midnightblue" stroke="midnightblue" points="280.19,-14.36 290.11,-10.65 280.04,-7.36 280.19,-14.36"/>
</g>
<!-- Node7 -->
<g id="node7" class="node">
<title>Node7</title>
<g id="a_node7"><a xlink:title=" ">
<polygon fill="white" stroke="#bfbfbf" points="794,-0.5 794,-19.5 841,-19.5 841,-0.5 794,-0.5"/>
<text text-anchor="middle" x="817.5" y="-7.5" font-family="Helvetica,sans-Serif" font-size="10.00">vector</text>
</a>
</g>
</g>
<!-- Node6&#45;&gt;Node7 -->
<g id="edge7" class="edge">
<title>Node6&#45;&gt;Node7</title>
<path fill="none" stroke="midnightblue" d="M495.25,-188.59C559.18,-186.95 659.11,-178.16 737.5,-143 779.82,-124.02 797.88,-118.02 817.5,-76 824.21,-61.62 823.55,-43.43 821.59,-29.95"/>
<polygon fill="midnightblue" stroke="midnightblue" points="825,-29.13 819.77,-19.92 818.11,-30.38 825,-29.13"/>
</g>
<!-- Node8 -->
<g id="node8" class="node">
<title>Node8</title>
<g id="a_node8"><a xlink:title=" ">
<polygon fill="white" stroke="#bfbfbf" points="1178.5,-118 1178.5,-137 1222.5,-137 1222.5,-118 1178.5,-118"/>
<text text-anchor="middle" x="1200.5" y="-125" font-family="Helvetica,sans-Serif" font-size="10.00">string</text>
</a>
</g>
</g>
<!-- Node6&#45;&gt;Node8 -->
<g id="edge8" class="edge">
<title>Node6&#45;&gt;Node8</title>
<path fill="none" stroke="midnightblue" d="M495.19,-185.49C662.33,-178.69 1105.12,-159.38 1169.5,-143 1171.49,-142.49 1173.5,-141.86 1175.5,-141.15"/>
<polygon fill="midnightblue" stroke="midnightblue" points="1177.3,-144.18 1185.16,-137.07 1174.58,-137.73 1177.3,-144.18"/>
</g>
<!-- Node9 -->
<g id="node9" class="node">
<title>Node9</title>
<g id="a_node9"><a xlink:href="vertex_8h.html" target="_top" xlink:title=" ">
<polygon fill="white" stroke="black" points="225,-118 225,-137 356,-137 356,-118 225,-118"/>
<text text-anchor="middle" x="290.5" y="-125" font-family="Helvetica,sans-Serif" font-size="10.00">graphics/mesh/vertex.h</text>
</a>
</g>
</g>
<!-- Node6&#45;&gt;Node9 -->
<g id="edge9" class="edge">
<title>Node6&#45;&gt;Node9</title>
<path fill="none" stroke="midnightblue" d="M411.3,-179.48C387.43,-169.4 347.5,-152.55 320.13,-141"/>
<polygon fill="midnightblue" stroke="midnightblue" points="321.24,-137.67 310.66,-137.01 318.52,-144.12 321.24,-137.67"/>
</g>
<!-- Node12 -->
<g id="node12" class="node">
<title>Node12</title>
<g id="a_node12"><a xlink:href="mesh__instance__data_8h.html" target="_top" xlink:title=" ">
<polygon fill="white" stroke="black" points="374.5,-112.5 374.5,-142.5 492.5,-142.5 492.5,-112.5 374.5,-112.5"/>
<text text-anchor="start" x="382.5" y="-130.5" font-family="Helvetica,sans-Serif" font-size="10.00">graphics/mesh/mesh</text>
<text text-anchor="middle" x="433.5" y="-119.5" font-family="Helvetica,sans-Serif" font-size="10.00">_instance_data.h</text>
</a>
</g>
</g>
<!-- Node6&#45;&gt;Node12 -->
<g id="edge12" class="edge">
<title>Node6&#45;&gt;Node12</title>
<path fill="none" stroke="midnightblue" d="M431.79,-179.48C432.02,-172.47 432.37,-162.19 432.69,-152.7"/>
<polygon fill="midnightblue" stroke="midnightblue" points="436.19,-152.63 433.03,-142.52 429.19,-152.4 436.19,-152.63"/>
</g>
<!-- Node14 -->
<g id="node14" class="node">
<title>Node14</title>
<g id="a_node14"><a xlink:href="vao_8h.html" target="_top" xlink:title=" ">
<polygon fill="white" stroke="black" points="610.5,-118 610.5,-137 728.5,-137 728.5,-118 610.5,-118"/>
<text text-anchor="middle" x="669.5" y="-125" font-family="Helvetica,sans-Serif" font-size="10.00">graphics/mesh/vao.h</text>
</a>
</g>
</g>
<!-- Node6&#45;&gt;Node14 -->
<g id="edge14" class="edge">
<title>Node6&#45;&gt;Node14</title>
<path fill="none" stroke="midnightblue" d="M465.6,-179.48C507.75,-168.94 579.55,-150.99 625.73,-139.44"/>
<polygon fill="midnightblue" stroke="midnightblue" points="626.61,-142.83 635.46,-137.01 624.91,-136.04 626.61,-142.83"/>
</g>
<!-- Node10 -->
<g id="node10" class="node">
<title>Node10</title>
<g id="a_node10"><a xlink:title=" ">
<polygon fill="white" stroke="#bfbfbf" points="273.5,-56.5 273.5,-75.5 369.5,-75.5 369.5,-56.5 273.5,-56.5"/>
<text text-anchor="middle" x="321.5" y="-63.5" font-family="Helvetica,sans-Serif" font-size="10.00">maths/vector2.h</text>
</a>
</g>
</g>
<!-- Node9&#45;&gt;Node10 -->
<g id="edge10" class="edge">
<title>Node9&#45;&gt;Node10</title>
<path fill="none" stroke="midnightblue" d="M294.94,-117.98C299.45,-109.32 306.57,-95.65 312.31,-84.65"/>
<polygon fill="midnightblue" stroke="midnightblue" points="315.55,-85.99 317.07,-75.51 309.34,-82.76 315.55,-85.99"/>
</g>
<!-- Node11 -->
<g id="node11" class="node">
<title>Node11</title>
<g id="a_node11"><a xlink:title=" ">
<polygon fill="white" stroke="#bfbfbf" points="159.5,-56.5 159.5,-75.5 255.5,-75.5 255.5,-56.5 159.5,-56.5"/>
<text text-anchor="middle" x="207.5" y="-63.5" font-family="Helvetica,sans-Serif" font-size="10.00">maths/vector3.h</text>
</a>
</g>
</g>
<!-- Node9&#45;&gt;Node11 -->
<g id="edge11" class="edge">
<title>Node9&#45;&gt;Node11</title>
<path fill="none" stroke="midnightblue" d="M278.61,-117.98C265.3,-108.43 243.5,-92.81 227.54,-81.37"/>
<polygon fill="midnightblue" stroke="midnightblue" points="229.54,-78.49 219.37,-75.51 225.46,-84.18 229.54,-78.49"/>
</g>
<!-- Node13 -->
<g id="node13" class="node">
<title>Node13</title>
<g id="a_node13"><a xlink:title=" ">
<polygon fill="white" stroke="#bfbfbf" points="387.5,-56.5 387.5,-75.5 479.5,-75.5 479.5,-56.5 387.5,-56.5"/>
<text text-anchor="middle" x="433.5" y="-63.5" font-family="Helvetica,sans-Serif" font-size="10.00">maths/matrix.h</text>
</a>
</g>
</g>
<!-- Node12&#45;&gt;Node13 -->
<g id="edge13" class="edge">
<title>Node12&#45;&gt;Node13</title>
<path fill="none" stroke="midnightblue" d="M433.5,-112.4C433.5,-104.47 433.5,-94.46 433.5,-85.86"/>
<polygon fill="midnightblue" stroke="midnightblue" points="437,-85.66 433.5,-75.66 430,-85.66 437,-85.66"/>
</g>
<!-- Node14&#45;&gt;Node7 -->
<g id="edge16" class="edge">
<title>Node14&#45;&gt;Node7</title>
<path fill="none" stroke="midnightblue" d="M719.69,-117.95C746.47,-110.94 778.04,-98.36 798.5,-76 810.02,-63.41 814.59,-44.19 816.38,-29.91"/>
<polygon fill="midnightblue" stroke="midnightblue" points="819.88,-30.02 817.3,-19.75 812.91,-29.39 819.88,-30.02"/>
</g>
<!-- Node15 -->
<g id="node15" class="node">
<title>Node15</title>
<g id="a_node15"><a xlink:title=" ">
<polygon fill="white" stroke="#bfbfbf" points="884,-56.5 884,-75.5 929,-75.5 929,-56.5 884,-56.5"/>
<text text-anchor="middle" x="906.5" y="-63.5" font-family="Helvetica,sans-Serif" font-size="10.00">utility</text>
</a>
</g>
</g>
<!-- Node14&#45;&gt;Node15 -->
<g id="edge15" class="edge">
<title>Node14&#45;&gt;Node15</title>
<path fill="none" stroke="midnightblue" d="M703.46,-117.98C749.05,-106.53 829.5,-86.33 874.22,-75.1"/>
<polygon fill="midnightblue" stroke="midnightblue" points="875.14,-78.48 883.99,-72.65 873.44,-71.69 875.14,-78.48"/>
</g>
<!-- Node16 -->
<g id="node16" class="node">
<title>Node16</title>
<g id="a_node16"><a xlink:href="vbo_8h.html" target="_top" xlink:title=" ">
<polygon fill="white" stroke="black" points="535.5,-56.5 535.5,-75.5 653.5,-75.5 653.5,-56.5 535.5,-56.5"/>
<text text-anchor="middle" x="594.5" y="-63.5" font-family="Helvetica,sans-Serif" font-size="10.00">graphics/mesh/vbo.h</text>
</a>
</g>
</g>
<!-- Node14&#45;&gt;Node16 -->
<g id="edge17" class="edge">
<title>Node14&#45;&gt;Node16</title>
<path fill="none" stroke="midnightblue" d="M658.75,-117.98C646.95,-108.61 627.76,-93.38 613.42,-82.01"/>
<polygon fill="midnightblue" stroke="midnightblue" points="615.24,-78.98 605.23,-75.51 610.88,-84.47 615.24,-78.98"/>
</g>
<!-- Node18 -->
<g id="node18" class="node">
<title>Node18</title>
<g id="a_node18"><a xlink:href="ebo_8h.html" target="_top" xlink:title=" ">
<polygon fill="white" stroke="black" points="671.5,-56.5 671.5,-75.5 789.5,-75.5 789.5,-56.5 671.5,-56.5"/>
<text text-anchor="middle" x="730.5" y="-63.5" font-family="Helvetica,sans-Serif" font-size="10.00">graphics/mesh/ebo.h</text>
</a>
</g>
</g>
<!-- Node14&#45;&gt;Node18 -->
<g id="edge21" class="edge">
<title>Node14&#45;&gt;Node18</title>
<path fill="none" stroke="midnightblue" d="M678.24,-117.98C687.66,-108.78 702.86,-93.96 714.45,-82.66"/>
<polygon fill="midnightblue" stroke="midnightblue" points="717.06,-85 721.78,-75.51 712.17,-79.99 717.06,-85"/>
</g>
<!-- Node16&#45;&gt;Node3 -->
<g id="edge19" class="edge">
<title>Node16&#45;&gt;Node3</title>
<path fill="none" stroke="midnightblue" d="M550.93,-56.44C497.93,-46.04 409.29,-28.63 358.47,-18.65"/>
<polygon fill="midnightblue" stroke="midnightblue" points="359.02,-15.19 348.53,-16.7 357.67,-22.06 359.02,-15.19"/>
</g>
<!-- Node16&#45;&gt;Node7 -->
<g id="edge18" class="edge">
<title>Node16&#45;&gt;Node7</title>
<path fill="none" stroke="midnightblue" d="M629.84,-56.44C672.18,-46.19 742.59,-29.14 784.07,-19.09"/>
<polygon fill="midnightblue" stroke="midnightblue" points="785.06,-22.46 793.96,-16.7 783.42,-15.65 785.06,-22.46"/>
</g>
<!-- Node17 -->
<g id="node17" class="node">
<title>Node17</title>
<g id="a_node17"><a xlink:title=" ">
<polygon fill="white" stroke="#bfbfbf" points="630.5,-0.5 630.5,-19.5 694.5,-19.5 694.5,-0.5 630.5,-0.5"/>
<text text-anchor="middle" x="662.5" y="-7.5" font-family="Helvetica,sans-Serif" font-size="10.00">GL/glew.h</text>
</a>
</g>
</g>
<!-- Node16&#45;&gt;Node17 -->
<g id="edge20" class="edge">
<title>Node16&#45;&gt;Node17</title>
<path fill="none" stroke="midnightblue" d="M605.43,-56.32C615.67,-48.18 631.22,-35.84 643.5,-26.09"/>
<polygon fill="midnightblue" stroke="midnightblue" points="645.72,-28.79 651.38,-19.83 641.37,-23.31 645.72,-28.79"/>
</g>
<!-- Node18&#45;&gt;Node17 -->
<g id="edge22" class="edge">
<title>Node18&#45;&gt;Node17</title>
<path fill="none" stroke="midnightblue" d="M719.57,-56.32C709.33,-48.18 693.78,-35.84 681.5,-26.09"/>
<polygon fill="midnightblue" stroke="midnightblue" points="683.63,-23.31 673.62,-19.83 679.28,-28.79 683.63,-23.31"/>
</g>
<!-- Node19&#45;&gt;Node3 -->
<g id="edge25" class="edge">
<title>Node19&#45;&gt;Node3</title>
<path fill="none" stroke="midnightblue" d="M808.39,-235.42C784.92,-225.38 752.71,-211.51 724.5,-199 669.59,-174.65 652.97,-173.97 601.5,-143 547.19,-110.32 545.35,-84.04 488.5,-56 446.49,-35.28 393.74,-23.19 358.45,-16.86"/>
<polygon fill="midnightblue" stroke="midnightblue" points="358.99,-13.4 348.54,-15.14 357.8,-20.29 358.99,-13.4"/>
</g>
<!-- Node19&#45;&gt;Node6 -->
<g id="edge35" class="edge">
<title>Node19&#45;&gt;Node6</title>
<path fill="none" stroke="midnightblue" d="M782.32,-240.91C707.72,-230.09 579.71,-211.51 500.67,-200.04"/>
<polygon fill="midnightblue" stroke="midnightblue" points="500.73,-196.51 490.33,-198.54 499.72,-203.44 500.73,-196.51"/>
</g>
<!-- Node20 -->
<g id="node20" class="node">
<title>Node20</title>
<g id="a_node20"><a xlink:title=" ">
<polygon fill="white" stroke="#bfbfbf" points="941.5,-179.5 941.5,-198.5 991.5,-198.5 991.5,-179.5 941.5,-179.5"/>
<text text-anchor="middle" x="966.5" y="-186.5" font-family="Helvetica,sans-Serif" font-size="10.00">cstring</text>
</a>
</g>
</g>
<!-- Node19&#45;&gt;Node20 -->
<g id="edge24" class="edge">
<title>Node19&#45;&gt;Node20</title>
<path fill="none" stroke="midnightblue" d="M871.12,-235.4C891.72,-225.59 918.98,-212.62 939.08,-203.05"/>
<polygon fill="midnightblue" stroke="midnightblue" points="940.79,-206.12 948.31,-198.66 937.78,-199.8 940.79,-206.12"/>
</g>
<!-- Node21 -->
<g id="node21" class="node">
<title>Node21</title>
<g id="a_node21"><a xlink:title=" ">
<polygon fill="white" stroke="#bfbfbf" points="1009.5,-179.5 1009.5,-198.5 1117.5,-198.5 1117.5,-179.5 1009.5,-179.5"/>
<text text-anchor="middle" x="1063.5" y="-186.5" font-family="Helvetica,sans-Serif" font-size="10.00">SDL2/SDL_image.h</text>
</a>
</g>
</g>
<!-- Node19&#45;&gt;Node21 -->
<g id="edge26" class="edge">
<title>Node19&#45;&gt;Node21</title>
<path fill="none" stroke="midnightblue" d="M893.83,-235.47C932.97,-224.99 985.76,-210.84 1022,-201.12"/>
<polygon fill="midnightblue" stroke="midnightblue" points="1023.01,-204.48 1031.76,-198.51 1021.2,-197.71 1023.01,-204.48"/>
</g>
<!-- Node22 -->
<g id="node22" class="node">
<title>Node22</title>
<g id="a_node22"><a xlink:href="log_8h.html" target="_top" xlink:title=" ">
<polygon fill="white" stroke="black" points="864,-179.5 864,-198.5 923,-198.5 923,-179.5 864,-179.5"/>
<text text-anchor="middle" x="893.5" y="-186.5" font-family="Helvetica,sans-Serif" font-size="10.00">log/log.h</text>
</a>
</g>
</g>
<!-- Node19&#45;&gt;Node22 -->
<g id="edge27" class="edge">
<title>Node19&#45;&gt;Node22</title>
<path fill="none" stroke="midnightblue" d="M853.82,-235.4C861.46,-226.66 871.29,-215.41 879.26,-206.3"/>
<polygon fill="midnightblue" stroke="midnightblue" points="881.99,-208.49 885.93,-198.66 876.72,-203.88 881.99,-208.49"/>
</g>
<!-- Node27 -->
<g id="node27" class="node">
<title>Node27</title>
<g id="a_node27"><a xlink:title=" ">
<polygon fill="white" stroke="#bfbfbf" points="733,-179.5 733,-198.5 846,-198.5 846,-179.5 733,-179.5"/>
<text text-anchor="middle" x="789.5" y="-186.5" font-family="Helvetica,sans-Serif" font-size="10.00">maths/matrix_util.h</text>
</a>
</g>
</g>
<!-- Node19&#45;&gt;Node27 -->
<g id="edge34" class="edge">
<title>Node19&#45;&gt;Node27</title>
<path fill="none" stroke="midnightblue" d="M829.18,-235.4C821.54,-226.66 811.71,-215.41 803.74,-206.3"/>
<polygon fill="midnightblue" stroke="midnightblue" points="806.28,-203.88 797.07,-198.66 801.01,-208.49 806.28,-203.88"/>
</g>
<!-- Node19&#45;&gt;Node28 -->
<g id="edge36" class="edge">
<title>Node19&#45;&gt;Node28</title>
<path fill="none" stroke="midnightblue" d="M900.78,-239.67C970.44,-228.13 1084.81,-209.17 1150.29,-198.32"/>
<polygon fill="midnightblue" stroke="midnightblue" points="1151.07,-201.74 1160.36,-196.65 1149.92,-194.83 1151.07,-201.74"/>
</g>
<!-- Node22&#45;&gt;Node8 -->
<g id="edge29" class="edge">
<title>Node22&#45;&gt;Node8</title>
<path fill="none" stroke="midnightblue" d="M923.26,-180.89C926.37,-180.22 929.5,-179.57 932.5,-179 1037.15,-159.01 1067.53,-173.89 1169.5,-143 1171.38,-142.43 1173.28,-141.77 1175.18,-141.05"/>
<polygon fill="midnightblue" stroke="midnightblue" points="1176.62,-144.24 1184.44,-137.08 1173.87,-137.8 1176.62,-144.24"/>
</g>
<!-- Node22&#45;&gt;Node15 -->
<g id="edge28" class="edge">
<title>Node22&#45;&gt;Node15</title>
<path fill="none" stroke="midnightblue" d="M863.62,-179.39C845.96,-172.59 825.05,-161.15 814.5,-143 807.58,-131.09 807.21,-123.69 814.5,-112 821.41,-100.93 850.64,-87.76 874.32,-78.54"/>
<polygon fill="midnightblue" stroke="midnightblue" points="875.62,-81.79 883.72,-74.97 873.13,-75.25 875.62,-81.79"/>
</g>
<!-- Node23 -->
<g id="node23" class="node">
<title>Node23</title>
<g id="a_node23"><a xlink:title=" ">
<polygon fill="white" stroke="#bfbfbf" points="823,-118 823,-137 916,-137 916,-118 823,-118"/>
<text text-anchor="middle" x="869.5" y="-125" font-family="Helvetica,sans-Serif" font-size="10.00">spdlog/spdlog.h</text>
</a>
</g>
</g>
<!-- Node22&#45;&gt;Node23 -->
<g id="edge30" class="edge">
<title>Node22&#45;&gt;Node23</title>
<path fill="none" stroke="midnightblue" d="M890.06,-179.48C886.6,-170.9 881.17,-157.43 876.75,-146.48"/>
<polygon fill="midnightblue" stroke="midnightblue" points="879.92,-144.97 872.93,-137.01 873.43,-147.59 879.92,-144.97"/>
</g>
<!-- Node24 -->
<g id="node24" class="node">
<title>Node24</title>
<g id="a_node24"><a xlink:title=" ">
<polygon fill="white" stroke="#bfbfbf" points="934,-118 934,-137 1023,-137 1023,-118 934,-118"/>
<text text-anchor="middle" x="978.5" y="-125" font-family="Helvetica,sans-Serif" font-size="10.00">spdlog/async.h</text>
</a>
</g>
</g>
<!-- Node22&#45;&gt;Node24 -->
<g id="edge31" class="edge">
<title>Node22&#45;&gt;Node24</title>
<path fill="none" stroke="midnightblue" d="M905.68,-179.48C919.31,-169.93 941.63,-154.31 957.97,-142.87"/>
<polygon fill="midnightblue" stroke="midnightblue" points="960.16,-145.61 966.34,-137.01 956.14,-139.88 960.16,-145.61"/>
</g>
<!-- Node25 -->
<g id="node25" class="node">
<title>Node25</title>
<g id="a_node25"><a xlink:title=" ">
<polygon fill="white" stroke="#bfbfbf" points="1041,-112.5 1041,-142.5 1160,-142.5 1160,-112.5 1041,-112.5"/>
<text text-anchor="start" x="1049" y="-130.5" font-family="Helvetica,sans-Serif" font-size="10.00">spdlog/sinks/rotating</text>
<text text-anchor="middle" x="1100.5" y="-119.5" font-family="Helvetica,sans-Serif" font-size="10.00">_file_sink.h</text>
</a>
</g>
</g>
<!-- Node22&#45;&gt;Node25 -->
<g id="edge32" class="edge">
<title>Node22&#45;&gt;Node25</title>
<path fill="none" stroke="midnightblue" d="M923.16,-179.48C954.08,-170.59 1003.34,-156.43 1042.1,-145.29"/>
<polygon fill="midnightblue" stroke="midnightblue" points="1043.07,-148.65 1051.71,-142.52 1041.14,-141.92 1043.07,-148.65"/>
</g>
<!-- Node26 -->
<g id="node26" class="node">
<title>Node26</title>
<g id="a_node26"><a xlink:title=" ">
<polygon fill="white" stroke="#bfbfbf" points="1241,-112.5 1241,-142.5 1352,-142.5 1352,-112.5 1241,-112.5"/>
<text text-anchor="start" x="1249" y="-130.5" font-family="Helvetica,sans-Serif" font-size="10.00">spdlog/sinks/stdout</text>
<text text-anchor="middle" x="1296.5" y="-119.5" font-family="Helvetica,sans-Serif" font-size="10.00">_color_sinks.h</text>
</a>
</g>
</g>
<!-- Node22&#45;&gt;Node26 -->
<g id="edge33" class="edge">
<title>Node22&#45;&gt;Node26</title>
<path fill="none" stroke="midnightblue" d="M923.24,-180.79C926.36,-180.14 929.49,-179.53 932.5,-179 1061.12,-156.48 1097.8,-165.15 1230.74,-143.01"/>
<polygon fill="midnightblue" stroke="midnightblue" points="1231.63,-146.41 1240.9,-141.28 1230.46,-139.5 1231.63,-146.41"/>
</g>
<!-- Node28&#45;&gt;Node8 -->
<g id="edge37" class="edge">
<title>Node28&#45;&gt;Node8</title>
<path fill="none" stroke="midnightblue" d="M1200.5,-179.48C1200.5,-171.08 1200.5,-157.98 1200.5,-147.16"/>
<polygon fill="midnightblue" stroke="midnightblue" points="1204,-147.01 1200.5,-137.01 1197,-147.01 1204,-147.01"/>
</g>
<!-- Node29 -->
<g id="node29" class="node">
<title>Node29</title>
<g id="a_node29"><a xlink:title=" ">
<polygon fill="white" stroke="#bfbfbf" points="1445,-118 1445,-137 1500,-137 1500,-118 1445,-118"/>
<text text-anchor="middle" x="1472.5" y="-125" font-family="Helvetica,sans-Serif" font-size="10.00">fstream</text>
</a>
</g>
</g>
<!-- Node28&#45;&gt;Node29 -->
<g id="edge38" class="edge">
<title>Node28&#45;&gt;Node29</title>
<path fill="none" stroke="midnightblue" d="M1240.53,-182.63C1287.72,-175.78 1368.26,-162.43 1435.5,-143 1438.08,-142.25 1440.74,-141.4 1443.38,-140.48"/>
<polygon fill="midnightblue" stroke="midnightblue" points="1444.6,-143.77 1452.76,-137.01 1442.17,-137.2 1444.6,-143.77"/>
</g>
<!-- Node30 -->
<g id="node30" class="node">
<title>Node30</title>
<g id="a_node30"><a xlink:title=" ">
<polygon fill="white" stroke="#bfbfbf" points="1370.5,-118 1370.5,-137 1426.5,-137 1426.5,-118 1370.5,-118"/>
<text text-anchor="middle" x="1398.5" y="-125" font-family="Helvetica,sans-Serif" font-size="10.00">sstream</text>
</a>
</g>
</g>
<!-- Node28&#45;&gt;Node30 -->
<g id="edge39" class="edge">
<title>Node28&#45;&gt;Node30</title>
<path fill="none" stroke="midnightblue" d="M1235.04,-179.42C1267.85,-171.03 1318.43,-157.42 1361.5,-143 1363.76,-142.24 1366.09,-141.42 1368.42,-140.58"/>
<polygon fill="midnightblue" stroke="midnightblue" points="1369.77,-143.81 1377.89,-137 1367.3,-137.26 1369.77,-143.81"/>
</g>
</g>
</svg>
        <g id="navigator" transform="translate(0 0)" fill="#404254">
                <rect fill="#f2f5e9" fill-opacity="0.5" stroke="#606060" stroke-width=".5" x="0" y="0" width="60" height="60"/>
                <use id="zoomplus" xlink:href="#zoomPlus" x="17" y="9" onmousedown="handleZoom(evt,'in')"/>
                <use id="zoomminus" xlink:href="#zoomMin" x="42" y="9" onmousedown="handleZoom(evt,'out')"/>
                <use id="reset" xlink:href="#resetDef" x="30" y="36" onmousedown="handleReset()"/>
                <g id="arrowUp" xlink:href="#dirArrow" transform="translate(30 24)" onmousedown="handlePan(0,-1)">
                  <use xlink:href="#rim" fill="#404040">
                        <set attributeName="fill" to="#808080" begin="arrowUp.mouseover" end="arrowUp.mouseout"/>
                  </use>
                  <path fill="none" stroke="white" stroke-width="1.5" d="M0,-3.0v7 M-2.5,-0.5L0,-3.0L2.5,-0.5"/>
                </g>
                <g id="arrowRight" xlink:href="#dirArrow" transform="rotate(90) translate(36 -43)" onmousedown="handlePan(1,0)">
                  <use xlink:href="#rim" fill="#404040">
                        <set attributeName="fill" to="#808080" begin="arrowRight.mouseover" end="arrowRight.mouseout"/>
                  </use>
                  <path fill="none" stroke="white" stroke-width="1.5" d="M0,-3.0v7 M-2.5,-0.5L0,-3.0L2.5,-0.5"/>
                </g>
                <g id="arrowDown" xlink:href="#dirArrow" transform="rotate(180) translate(-30 -48)" onmousedown="handlePan(0,1)">
                  <use xlink:href="#rim" fill="#404040">
                        <set attributeName="fill" to="#808080" begin="arrowDown.mouseover" end="arrowDown.mouseout"/>
                  </use>
                  <path fill="none" stroke="white" stroke-width="1.5" d="M0,-3.0v7 M-2.5,-0.5L0,-3.0L2.5,-0.5"/>
                </g>
                <g id="arrowLeft" xlink:href="#dirArrow" transform="rotate(270) translate(-36 17)" onmousedown="handlePan(-1,0)">
                  <use xlink:href="#rim" fill="#404040">
                        <set attributeName="fill" to="#808080" begin="arrowLeft.mouseover" end="arrowLeft.mouseout"/>
                  </use>
                  <path fill="none" stroke="white" stroke-width="1.5" d="M0,-3.0v7 M-2.5,-0.5L0,-3.0L2.5,-0.5"/>
                </g>
        </g>
        <svg viewBox="0 0 15 15" width="100%" height="30px" preserveAspectRatio="xMaxYMin meet">
         <g id="arrow_out" transform="scale(0.3 0.3)">
          <a xlink:href="mesh__manager_8h__incl_org.svg" target="_base">
           <rect id="button" ry="5" rx="5" y="6" x="6" height="38" width="38"
                fill="#f2f5e9" fill-opacity="0.5" stroke="#606060" stroke-width="1.0"/>
           <path id="arrow"
             d="M 11.500037,31.436501 C 11.940474,20.09759 22.043105,11.32322 32.158766,21.979434 L 37.068811,17.246167 C 37.068811,17.246167 37.088388,32 37.088388,32 L 22.160133,31.978069 C 22.160133,31.978069 26.997745,27.140456 26.997745,27.140456 C 18.528582,18.264221 13.291696,25.230495 11.500037,31.436501 z"
             style="fill:#404040;"/>
          </a>
         </g>
        </svg>
</svg>
