<?xml version="1.0" encoding="UTF-8" standalone="no"?>
<!DOCTYPE svg PUBLIC "-//W3C//DTD SVG 1.1//EN"
 "http://www.w3.org/Graphics/SVG/1.1/DTD/svg11.dtd">
<!-- Generated by graphviz version 2.43.0 (0)
 -->
<!-- Title: src/graphics/mesh/mesh.h Pages: 1 -->
<svg width="770pt" height="207pt"
 viewBox="0.00 0.00 770.00 207.00" xmlns="http://www.w3.org/2000/svg" xmlns:xlink="http://www.w3.org/1999/xlink">
<g id="graph0" class="graph" transform="scale(1 1) rotate(0) translate(4 203)">
<title>src/graphics/mesh/mesh.h</title>
<polygon fill="white" stroke="transparent" points="-4,4 -4,-203 766,-203 766,4 -4,4"/>
<!-- Node1 -->
<g id="node1" class="node">
<title>Node1</title>
<g id="a_node1"><a xlink:title=" ">
<polygon fill="#bfbfbf" stroke="black" points="226,-179.5 226,-198.5 370,-198.5 370,-179.5 226,-179.5"/>
<text text-anchor="middle" x="298" y="-186.5" font-family="Helvetica,sans-Serif" font-size="10.00">src/graphics/mesh/mesh.h</text>
</a>
</g>
</g>
<!-- Node2 -->
<g id="node2" class="node">
<title>Node2</title>
<g id="a_node2"><a xlink:title=" ">
<polygon fill="white" stroke="#bfbfbf" points="0,-0.5 0,-19.5 58,-19.5 58,-0.5 0,-0.5"/>
<text text-anchor="middle" x="29" y="-7.5" font-family="Helvetica,sans-Serif" font-size="10.00">memory</text>
</a>
</g>
</g>
<!-- Node1&#45;&gt;Node2 -->
<g id="edge1" class="edge">
<title>Node1&#45;&gt;Node2</title>
<path fill="none" stroke="midnightblue" d="M228.39,-179.47C176.12,-171.9 109.95,-159.49 88,-143 50.97,-115.18 36.67,-58.89 31.57,-29.62"/>
<polygon fill="midnightblue" stroke="midnightblue" points="35,-28.87 29.99,-19.53 28.08,-29.95 35,-28.87"/>
</g>
<!-- Node3 -->
<g id="node3" class="node">
<title>Node3</title>
<g id="a_node3"><a xlink:title=" ">
<polygon fill="white" stroke="#bfbfbf" points="103.5,-0.5 103.5,-19.5 150.5,-19.5 150.5,-0.5 103.5,-0.5"/>
<text text-anchor="middle" x="127" y="-7.5" font-family="Helvetica,sans-Serif" font-size="10.00">vector</text>
</a>
</g>
</g>
<!-- Node1&#45;&gt;Node3 -->
<g id="edge2" class="edge">
<title>Node1&#45;&gt;Node3</title>
<path fill="none" stroke="midnightblue" d="M239.48,-179.46C181.68,-167.51 96.63,-139.59 59,-76 46.37,-54.66 72.65,-35.77 96.12,-23.93"/>
<polygon fill="midnightblue" stroke="midnightblue" points="97.7,-27.05 105.22,-19.59 94.69,-20.73 97.7,-27.05"/>
</g>
<!-- Node4 -->
<g id="node4" class="node">
<title>Node4</title>
<g id="a_node4"><a xlink:title=" ">
<polygon fill="white" stroke="#bfbfbf" points="326,-118 326,-137 370,-137 370,-118 326,-118"/>
<text text-anchor="middle" x="348" y="-125" font-family="Helvetica,sans-Serif" font-size="10.00">string</text>
</a>
</g>
</g>
<!-- Node1&#45;&gt;Node4 -->
<g id="edge3" class="edge">
<title>Node1&#45;&gt;Node4</title>
<path fill="none" stroke="midnightblue" d="M305.16,-179.48C312.74,-170.46 324.87,-156.02 334.29,-144.81"/>
<polygon fill="midnightblue" stroke="midnightblue" points="337.1,-146.92 340.85,-137.01 331.74,-142.41 337.1,-146.92"/>
</g>
<!-- Node5 -->
<g id="node5" class="node">
<title>Node5</title>
<g id="a_node5"><a xlink:href="vertex_8h.html" target="_top" xlink:title=" ">
<polygon fill="white" stroke="black" points="424.5,-118 424.5,-137 555.5,-137 555.5,-118 424.5,-118"/>
<text text-anchor="middle" x="490" y="-125" font-family="Helvetica,sans-Serif" font-size="10.00">graphics/mesh/vertex.h</text>
</a>
</g>
</g>
<!-- Node1&#45;&gt;Node5 -->
<g id="edge4" class="edge">
<title>Node1&#45;&gt;Node5</title>
<path fill="none" stroke="midnightblue" d="M325.51,-179.48C358.87,-169.14 415.26,-151.66 452.56,-140.1"/>
<polygon fill="midnightblue" stroke="midnightblue" points="454.03,-143.31 462.54,-137.01 451.95,-136.63 454.03,-143.31"/>
</g>
<!-- Node8 -->
<g id="node8" class="node">
<title>Node8</title>
<g id="a_node8"><a xlink:href="mesh__instance__data_8h.html" target="_top" xlink:title=" ">
<polygon fill="white" stroke="black" points="615,-112.5 615,-142.5 733,-142.5 733,-112.5 615,-112.5"/>
<text text-anchor="start" x="623" y="-130.5" font-family="Helvetica,sans-Serif" font-size="10.00">graphics/mesh/mesh</text>
<text text-anchor="middle" x="674" y="-119.5" font-family="Helvetica,sans-Serif" font-size="10.00">_instance_data.h</text>
</a>
</g>
</g>
<!-- Node1&#45;&gt;Node8 -->
<g id="edge7" class="edge">
<title>Node1&#45;&gt;Node8</title>
<path fill="none" stroke="midnightblue" d="M351.87,-179.48C418.49,-168.93 531.99,-150.97 604.95,-139.43"/>
<polygon fill="midnightblue" stroke="midnightblue" points="605.63,-142.86 614.96,-137.84 604.54,-135.95 605.63,-142.86"/>
</g>
<!-- Node10 -->
<g id="node10" class="node">
<title>Node10</title>
<g id="a_node10"><a xlink:href="vao_8h.html" target="_top" xlink:title=" ">
<polygon fill="white" stroke="black" points="190,-118 190,-137 308,-137 308,-118 190,-118"/>
<text text-anchor="middle" x="249" y="-125" font-family="Helvetica,sans-Serif" font-size="10.00">graphics/mesh/vao.h</text>
</a>
</g>
</g>
<!-- Node1&#45;&gt;Node10 -->
<g id="edge9" class="edge">
<title>Node1&#45;&gt;Node10</title>
<path fill="none" stroke="midnightblue" d="M290.98,-179.48C283.56,-170.46 271.67,-156.02 262.43,-144.81"/>
<polygon fill="midnightblue" stroke="midnightblue" points="265.07,-142.5 256.01,-137.01 259.66,-146.95 265.07,-142.5"/>
</g>
<!-- Node6 -->
<g id="node6" class="node">
<title>Node6</title>
<g id="a_node6"><a xlink:title=" ">
<polygon fill="white" stroke="#bfbfbf" points="556,-56.5 556,-75.5 652,-75.5 652,-56.5 556,-56.5"/>
<text text-anchor="middle" x="604" y="-63.5" font-family="Helvetica,sans-Serif" font-size="10.00">maths/vector2.h</text>
</a>
</g>
</g>
<!-- Node5&#45;&gt;Node6 -->
<g id="edge5" class="edge">
<title>Node5&#45;&gt;Node6</title>
<path fill="none" stroke="midnightblue" d="M506.33,-117.98C525.21,-108.12 556.51,-91.79 578.58,-80.27"/>
<polygon fill="midnightblue" stroke="midnightblue" points="580.45,-83.24 587.7,-75.51 577.21,-77.03 580.45,-83.24"/>
</g>
<!-- Node7 -->
<g id="node7" class="node">
<title>Node7</title>
<g id="a_node7"><a xlink:title=" ">
<polygon fill="white" stroke="#bfbfbf" points="442,-56.5 442,-75.5 538,-75.5 538,-56.5 442,-56.5"/>
<text text-anchor="middle" x="490" y="-63.5" font-family="Helvetica,sans-Serif" font-size="10.00">maths/vector3.h</text>
</a>
</g>
</g>
<!-- Node5&#45;&gt;Node7 -->
<g id="edge6" class="edge">
<title>Node5&#45;&gt;Node7</title>
<path fill="none" stroke="midnightblue" d="M490,-117.98C490,-109.58 490,-96.48 490,-85.66"/>
<polygon fill="midnightblue" stroke="midnightblue" points="493.5,-85.51 490,-75.51 486.5,-85.51 493.5,-85.51"/>
</g>
<!-- Node9 -->
<g id="node9" class="node">
<title>Node9</title>
<g id="a_node9"><a xlink:title=" ">
<polygon fill="white" stroke="#bfbfbf" points="670,-56.5 670,-75.5 762,-75.5 762,-56.5 670,-56.5"/>
<text text-anchor="middle" x="716" y="-63.5" font-family="Helvetica,sans-Serif" font-size="10.00">maths/matrix.h</text>
</a>
</g>
</g>
<!-- Node8&#45;&gt;Node9 -->
<g id="edge8" class="edge">
<title>Node8&#45;&gt;Node9</title>
<path fill="none" stroke="midnightblue" d="M683.95,-112.4C689.99,-103.84 697.74,-92.87 704.1,-83.86"/>
<polygon fill="midnightblue" stroke="midnightblue" points="706.98,-85.85 709.89,-75.66 701.26,-81.81 706.98,-85.85"/>
</g>
<!-- Node10&#45;&gt;Node3 -->
<g id="edge11" class="edge">
<title>Node10&#45;&gt;Node3</title>
<path fill="none" stroke="midnightblue" d="M243.8,-117.96C234.97,-103.92 215.97,-75.57 195,-56 182.05,-43.91 165.51,-32.89 151.99,-24.78"/>
<polygon fill="midnightblue" stroke="midnightblue" points="153.59,-21.67 143.19,-19.65 150.07,-27.71 153.59,-21.67"/>
</g>
<!-- Node11 -->
<g id="node11" class="node">
<title>Node11</title>
<g id="a_node11"><a xlink:title=" ">
<polygon fill="white" stroke="#bfbfbf" points="378.5,-56.5 378.5,-75.5 423.5,-75.5 423.5,-56.5 378.5,-56.5"/>
<text text-anchor="middle" x="401" y="-63.5" font-family="Helvetica,sans-Serif" font-size="10.00">utility</text>
</a>
</g>
</g>
<!-- Node10&#45;&gt;Node11 -->
<g id="edge10" class="edge">
<title>Node10&#45;&gt;Node11</title>
<path fill="none" stroke="midnightblue" d="M270.78,-117.98C296.74,-107.81 340.31,-90.76 369.83,-79.2"/>
<polygon fill="midnightblue" stroke="midnightblue" points="371.23,-82.41 379.26,-75.51 368.67,-75.9 371.23,-82.41"/>
</g>
<!-- Node12 -->
<g id="node12" class="node">
<title>Node12</title>
<g id="a_node12"><a xlink:href="vbo_8h.html" target="_top" xlink:title=" ">
<polygon fill="white" stroke="black" points="68,-56.5 68,-75.5 186,-75.5 186,-56.5 68,-56.5"/>
<text text-anchor="middle" x="127" y="-63.5" font-family="Helvetica,sans-Serif" font-size="10.00">graphics/mesh/vbo.h</text>
</a>
</g>
</g>
<!-- Node10&#45;&gt;Node12 -->
<g id="edge12" class="edge">
<title>Node10&#45;&gt;Node12</title>
<path fill="none" stroke="midnightblue" d="M231.52,-117.98C211.14,-108.03 177.22,-91.49 153.58,-79.96"/>
<polygon fill="midnightblue" stroke="midnightblue" points="154.97,-76.75 144.45,-75.51 151.9,-83.04 154.97,-76.75"/>
</g>
<!-- Node14 -->
<g id="node14" class="node">
<title>Node14</title>
<g id="a_node14"><a xlink:href="ebo_8h.html" target="_top" xlink:title=" ">
<polygon fill="white" stroke="black" points="242,-56.5 242,-75.5 360,-75.5 360,-56.5 242,-56.5"/>
<text text-anchor="middle" x="301" y="-63.5" font-family="Helvetica,sans-Serif" font-size="10.00">graphics/mesh/ebo.h</text>
</a>
</g>
</g>
<!-- Node10&#45;&gt;Node14 -->
<g id="edge16" class="edge">
<title>Node10&#45;&gt;Node14</title>
<path fill="none" stroke="midnightblue" d="M256.45,-117.98C264.33,-108.96 276.94,-94.52 286.74,-83.31"/>
<polygon fill="midnightblue" stroke="midnightblue" points="289.62,-85.34 293.56,-75.51 284.35,-80.74 289.62,-85.34"/>
</g>
<!-- Node12&#45;&gt;Node2 -->
<g id="edge14" class="edge">
<title>Node12&#45;&gt;Node2</title>
<path fill="none" stroke="midnightblue" d="M111.25,-56.32C95.68,-47.74 71.62,-34.49 53.54,-24.52"/>
<polygon fill="midnightblue" stroke="midnightblue" points="55.15,-21.42 44.71,-19.65 51.78,-27.55 55.15,-21.42"/>
</g>
<!-- Node12&#45;&gt;Node3 -->
<g id="edge13" class="edge">
<title>Node12&#45;&gt;Node3</title>
<path fill="none" stroke="midnightblue" d="M127,-56.08C127,-49.01 127,-38.86 127,-29.99"/>
<polygon fill="midnightblue" stroke="midnightblue" points="130.5,-29.75 127,-19.75 123.5,-29.75 130.5,-29.75"/>
</g>
<!-- Node13 -->
<g id="node13" class="node">
<title>Node13</title>
<g id="a_node13"><a xlink:title=" ">
<polygon fill="white" stroke="#bfbfbf" points="219,-0.5 219,-19.5 283,-19.5 283,-0.5 219,-0.5"/>
<text text-anchor="middle" x="251" y="-7.5" font-family="Helvetica,sans-Serif" font-size="10.00">GL/glew.h</text>
</a>
</g>
</g>
<!-- Node12&#45;&gt;Node13 -->
<g id="edge15" class="edge">
<title>Node12&#45;&gt;Node13</title>
<path fill="none" stroke="midnightblue" d="M146.65,-56.44C166.96,-47.6 198.9,-33.69 222.1,-23.59"/>
<polygon fill="midnightblue" stroke="midnightblue" points="223.67,-26.72 231.44,-19.52 220.88,-20.3 223.67,-26.72"/>
</g>
<!-- Node14&#45;&gt;Node13 -->
<g id="edge17" class="edge">
<title>Node14&#45;&gt;Node13</title>
<path fill="none" stroke="midnightblue" d="M292.74,-56.08C285.54,-48.3 274.89,-36.8 266.15,-27.37"/>
<polygon fill="midnightblue" stroke="midnightblue" points="268.47,-24.71 259.1,-19.75 263.33,-29.47 268.47,-24.71"/>
</g>
</g>
</svg>
