<?xml version="1.0" encoding="UTF-8" standalone="no"?>
<!DOCTYPE svg PUBLIC "-//W3C//DTD SVG 1.1//EN"
 "http://www.w3.org/Graphics/SVG/1.1/DTD/svg11.dtd">
<!-- Generated by graphviz version 2.43.0 (0)
 -->
<!-- Title: src/graphics/mesh/mesh_instance_data.h Pages: 1 -->
<!--zoomable 363 -->
<svg id="main" version="1.1" xmlns="http://www.w3.org/2000/svg" xmlns:xlink="http://www.w3.org/1999/xlink" xml:space="preserve" onload="init(evt)">
<style type="text/css"><![CDATA[
.edge:hover path { stroke: red; }
.edge:hover polygon { stroke: red; fill: red; }
]]></style>
<script type="text/javascript"><![CDATA[
var edges = document.getElementsByTagName('g');
if (edges && edges.length) {
  for (var i=0;i<edges.length;i++) {
    if (edges[i].id.substr(0,4)=='edge') {
      edges[i].setAttribute('class','edge');
    }
  }
}
]]></script>
        <defs>
                <circle id="rim" cx="0" cy="0" r="7"/>
                <circle id="rim2" cx="0" cy="0" r="3.5"/>
                <g id="zoomPlus">
                        <use xlink:href="#rim" fill="#404040">
                                <set attributeName="fill" to="#808080" begin="zoomplus.mouseover" end="zoomplus.mouseout"/>
                        </use>
                        <path d="M-4,0h8M0,-4v8" fill="none" stroke="white" stroke-width="1.5" pointer-events="none"/>
                </g>
                <g id="zoomMin">
                        <use xlink:href="#rim" fill="#404040">
                                <set attributeName="fill" to="#808080" begin="zoomminus.mouseover" end="zoomminus.mouseout"/>
                        </use>
                        <path d="M-4,0h8" fill="none" stroke="white" stroke-width="1.5" pointer-events="none"/>
                </g>
                <g id="dirArrow">
                        <path fill="none" stroke="white" stroke-width="1.5" d="M0,-3.0v7 M-2.5,-0.5L0,-3.0L2.5,-0.5"/>
                </g>
               <g id="resetDef">
                       <use xlink:href="#rim2" fill="#404040">
                               <set attributeName="fill" to="#808080" begin="reset.mouseover" end="reset.mouseout"/>
                       </use>
               </g>
        </defs>

<script type="text/javascript">
var viewWidth = 569;
var viewHeight = 363;
var sectionId = 'dynsection-1';
</script>
<script xlink:href="svgpan.js"/>
<svg id="graph" class="graph">
<g id="viewport">
<title>src/graphics/mesh/mesh_instance_data.h</title>
<polygon fill="white" stroke="transparent" points="-4,4 -4,-359 565,-359 565,4 -4,4"/>
<!-- Node1 -->
<g id="node1" class="node">
<title>Node1</title>
<g id="a_node1"><a xlink:title=" ">
<polygon fill="#bfbfbf" stroke="black" points="125,-324.5 125,-354.5 260,-354.5 260,-324.5 125,-324.5"/>
<text text-anchor="start" x="133" y="-342.5" font-family="Helvetica,sans-Serif" font-size="10.00">src/graphics/mesh/mesh</text>
<text text-anchor="middle" x="192.5" y="-331.5" font-family="Helvetica,sans-Serif" font-size="10.00">_instance_data.h</text>
</a>
</g>
</g>
<!-- Node2 -->
<g id="node2" class="node">
<title>Node2</title>
<g id="a_node2"><a xlink:href="mesh_8h.html" target="_top" xlink:title=" ">
<polygon fill="white" stroke="black" points="222.5,-268.5 222.5,-287.5 366.5,-287.5 366.5,-268.5 222.5,-268.5"/>
<text text-anchor="middle" x="294.5" y="-275.5" font-family="Helvetica,sans-Serif" font-size="10.00">src/graphics/mesh/mesh.h</text>
</a>
</g>
</g>
<!-- Node1&#45;&gt;Node2 -->
<g id="edge1" class="edge">
<title>Node1&#45;&gt;Node2</title>
<path fill="none" stroke="midnightblue" d="M225.31,-319.36C243.6,-308.69 265.47,-295.93 279.66,-287.66"/>
<polygon fill="midnightblue" stroke="midnightblue" points="223.55,-316.34 216.67,-324.4 227.07,-322.38 223.55,-316.34"/>
</g>
<!-- Node5 -->
<g id="node5" class="node">
<title>Node5</title>
<g id="a_node5"><a xlink:href="graphics__renderer_8h.html" target="_top" xlink:title=" ">
<polygon fill="white" stroke="black" points="103,-67.5 103,-97.5 222,-97.5 222,-67.5 103,-67.5"/>
<text text-anchor="start" x="111" y="-85.5" font-family="Helvetica,sans-Serif" font-size="10.00">src/graphics/renderer</text>
<text text-anchor="middle" x="162.5" y="-74.5" font-family="Helvetica,sans-Serif" font-size="10.00">/graphics_renderer.h</text>
</a>
</g>
</g>
<!-- Node1&#45;&gt;Node5 -->
<g id="edge19" class="edge">
<title>Node1&#45;&gt;Node5</title>
<path fill="none" stroke="midnightblue" d="M177.21,-315.9C163.76,-294.99 144.64,-262.63 133.5,-232 123.13,-203.49 123.4,-195.19 120.5,-165 119.18,-151.29 115.82,-146.96 120.5,-134 125.62,-119.84 136.62,-106.86 146.09,-97.6"/>
<polygon fill="midnightblue" stroke="midnightblue" points="174.36,-317.93 182.76,-324.38 180.22,-314.09 174.36,-317.93"/>
</g>
<!-- Node3 -->
<g id="node3" class="node">
<title>Node3</title>
<g id="a_node3"><a xlink:href="render__mesh_8h.html" target="_top" xlink:title=" ">
<polygon fill="white" stroke="black" points="285,-134.5 285,-164.5 408,-164.5 408,-134.5 285,-134.5"/>
<text text-anchor="start" x="293" y="-152.5" font-family="Helvetica,sans-Serif" font-size="10.00">src/component/render</text>
<text text-anchor="middle" x="346.5" y="-141.5" font-family="Helvetica,sans-Serif" font-size="10.00">_mesh.h</text>
</a>
</g>
</g>
<!-- Node2&#45;&gt;Node3 -->
<g id="edge2" class="edge">
<title>Node2&#45;&gt;Node3</title>
<path fill="none" stroke="midnightblue" d="M297.76,-258.25C300.89,-242.53 306.34,-219.72 314.5,-201 320.14,-188.06 328.82,-174.62 335.72,-164.86"/>
<polygon fill="midnightblue" stroke="midnightblue" points="294.28,-257.81 295.89,-268.28 301.17,-259.09 294.28,-257.81"/>
</g>
<!-- Node9 -->
<g id="node9" class="node">
<title>Node9</title>
<g id="a_node9"><a xlink:href="skybox_8h.html" target="_top" xlink:title=" ">
<polygon fill="white" stroke="black" points="143,-201.5 143,-231.5 258,-231.5 258,-201.5 143,-201.5"/>
<text text-anchor="start" x="151" y="-219.5" font-family="Helvetica,sans-Serif" font-size="10.00">src/graphics/lighting</text>
<text text-anchor="middle" x="200.5" y="-208.5" font-family="Helvetica,sans-Serif" font-size="10.00">/skybox.h</text>
</a>
</g>
</g>
<!-- Node2&#45;&gt;Node9 -->
<g id="edge9" class="edge">
<title>Node2&#45;&gt;Node9</title>
<path fill="none" stroke="midnightblue" d="M272.4,-263.01C257.4,-253.52 237.66,-241.02 222.65,-231.52"/>
<polygon fill="midnightblue" stroke="midnightblue" points="270.71,-266.08 281.03,-268.48 274.45,-260.17 270.71,-266.08"/>
</g>
<!-- Node11 -->
<g id="node11" class="node">
<title>Node11</title>
<g id="a_node11"><a xlink:href="mesh__builder_8h.html" target="_top" xlink:title=" ">
<polygon fill="white" stroke="black" points="323,-201.5 323,-231.5 458,-231.5 458,-201.5 323,-201.5"/>
<text text-anchor="start" x="331" y="-219.5" font-family="Helvetica,sans-Serif" font-size="10.00">src/graphics/mesh/mesh</text>
<text text-anchor="middle" x="390.5" y="-208.5" font-family="Helvetica,sans-Serif" font-size="10.00">_builder.h</text>
</a>
</g>
</g>
<!-- Node2&#45;&gt;Node11 -->
<g id="edge14" class="edge">
<title>Node2&#45;&gt;Node11</title>
<path fill="none" stroke="midnightblue" d="M317.07,-263.01C332.39,-253.52 352.55,-241.02 367.87,-231.52"/>
<polygon fill="midnightblue" stroke="midnightblue" points="314.91,-260.23 308.25,-268.48 318.6,-266.18 314.91,-260.23"/>
</g>
<!-- Node12 -->
<g id="node12" class="node">
<title>Node12</title>
<g id="a_node12"><a xlink:href="mesh__manager_8h.html" target="_top" xlink:title=" ">
<polygon fill="white" stroke="black" points="426,-134.5 426,-164.5 561,-164.5 561,-134.5 426,-134.5"/>
<text text-anchor="start" x="434" y="-152.5" font-family="Helvetica,sans-Serif" font-size="10.00">src/graphics/mesh/mesh</text>
<text text-anchor="middle" x="493.5" y="-141.5" font-family="Helvetica,sans-Serif" font-size="10.00">_manager.h</text>
</a>
</g>
</g>
<!-- Node2&#45;&gt;Node12 -->
<g id="edge18" class="edge">
<title>Node2&#45;&gt;Node12</title>
<path fill="none" stroke="midnightblue" d="M376.86,-272.35C408.68,-266.62 443.2,-255.01 467.5,-232 486.26,-214.23 491.53,-182.97 492.98,-164.76"/>
<polygon fill="midnightblue" stroke="midnightblue" points="375.95,-268.95 366.64,-274.01 377.07,-275.86 375.95,-268.95"/>
</g>
<!-- Node4 -->
<g id="node4" class="node">
<title>Node4</title>
<g id="a_node4"><a xlink:href="game__scene_8cpp.html" target="_top" xlink:title=" ">
<polygon fill="white" stroke="black" points="337.5,-0.5 337.5,-30.5 461.5,-30.5 461.5,-0.5 337.5,-0.5"/>
<text text-anchor="start" x="345.5" y="-18.5" font-family="Helvetica,sans-Serif" font-size="10.00">src/game/scene/game</text>
<text text-anchor="middle" x="399.5" y="-7.5" font-family="Helvetica,sans-Serif" font-size="10.00">_scene.cpp</text>
</a>
</g>
</g>
<!-- Node3&#45;&gt;Node4 -->
<g id="edge3" class="edge">
<title>Node3&#45;&gt;Node4</title>
<path fill="none" stroke="midnightblue" d="M377.3,-128.13C386.9,-120.01 396.33,-109.78 401.5,-98 411.12,-76.1 407.17,-47.6 403.37,-30.75"/>
<polygon fill="midnightblue" stroke="midnightblue" points="374.97,-125.5 369.28,-134.44 379.3,-131 374.97,-125.5"/>
</g>
<!-- Node3&#45;&gt;Node5 -->
<g id="edge4" class="edge">
<title>Node3&#45;&gt;Node5</title>
<path fill="none" stroke="midnightblue" d="M296.83,-130.96C267.2,-120.48 230.06,-107.37 202.35,-97.58"/>
<polygon fill="midnightblue" stroke="midnightblue" points="295.98,-134.37 306.57,-134.4 298.31,-127.76 295.98,-134.37"/>
</g>
<!-- Node8 -->
<g id="node8" class="node">
<title>Node8</title>
<g id="a_node8"><a xlink:href="scene_8cpp.html" target="_top" xlink:title=" ">
<polygon fill="white" stroke="black" points="278.5,-73 278.5,-92 392.5,-92 392.5,-73 278.5,-73"/>
<text text-anchor="middle" x="335.5" y="-80" font-family="Helvetica,sans-Serif" font-size="10.00">src/scene/scene.cpp</text>
</a>
</g>
</g>
<!-- Node3&#45;&gt;Node8 -->
<g id="edge8" class="edge">
<title>Node3&#45;&gt;Node8</title>
<path fill="none" stroke="midnightblue" d="M342.4,-124.25C340.5,-113.02 338.36,-100.38 336.97,-92.19"/>
<polygon fill="midnightblue" stroke="midnightblue" points="338.99,-125.12 344.11,-134.4 345.9,-123.95 338.99,-125.12"/>
</g>
<!-- Node5&#45;&gt;Node4 -->
<g id="edge6" class="edge">
<title>Node5&#45;&gt;Node4</title>
<path fill="none" stroke="midnightblue" d="M223.7,-64.71C262.27,-54.14 311.5,-40.63 348.05,-30.61"/>
<polygon fill="midnightblue" stroke="midnightblue" points="222.35,-61.46 213.63,-67.48 224.2,-68.21 222.35,-61.46"/>
</g>
<!-- Node6 -->
<g id="node6" class="node">
<title>Node6</title>
<g id="a_node6"><a xlink:href="application_8cpp.html" target="_top" xlink:title=" ">
<polygon fill="white" stroke="black" points="145,-6 145,-25 310,-25 310,-6 145,-6"/>
<text text-anchor="middle" x="227.5" y="-13" font-family="Helvetica,sans-Serif" font-size="10.00">src/application/application.cpp</text>
</a>
</g>
</g>
<!-- Node5&#45;&gt;Node6 -->
<g id="edge5" class="edge">
<title>Node5&#45;&gt;Node6</title>
<path fill="none" stroke="midnightblue" d="M184,-60C195.87,-48.13 209.95,-34.05 218.81,-25.19"/>
<polygon fill="midnightblue" stroke="midnightblue" points="181.2,-57.85 176.6,-67.4 186.15,-62.8 181.2,-57.85"/>
</g>
<!-- Node7 -->
<g id="node7" class="node">
<title>Node7</title>
<g id="a_node7"><a xlink:href="graphics__renderer_8cpp.html" target="_top" xlink:title=" ">
<polygon fill="white" stroke="black" points="0,-0.5 0,-30.5 127,-30.5 127,-0.5 0,-0.5"/>
<text text-anchor="start" x="8" y="-18.5" font-family="Helvetica,sans-Serif" font-size="10.00">src/graphics/renderer</text>
<text text-anchor="middle" x="63.5" y="-7.5" font-family="Helvetica,sans-Serif" font-size="10.00">/graphics_renderer.cpp</text>
</a>
</g>
</g>
<!-- Node5&#45;&gt;Node7 -->
<g id="edge7" class="edge">
<title>Node5&#45;&gt;Node7</title>
<path fill="none" stroke="midnightblue" d="M132.39,-61.73C117.08,-51.68 98.81,-39.68 84.94,-30.58"/>
<polygon fill="midnightblue" stroke="midnightblue" points="130.74,-64.83 141.02,-67.4 134.58,-58.98 130.74,-64.83"/>
</g>
<!-- Node10 -->
<g id="node10" class="node">
<title>Node10</title>
<g id="a_node10"><a xlink:href="camera_8h.html" target="_top" xlink:title=" ">
<polygon fill="white" stroke="black" points="130,-140 130,-159 267,-159 267,-140 130,-140"/>
<text text-anchor="middle" x="198.5" y="-147" font-family="Helvetica,sans-Serif" font-size="10.00">src/component/camera.h</text>
</a>
</g>
</g>
<!-- Node9&#45;&gt;Node10 -->
<g id="edge10" class="edge">
<title>Node9&#45;&gt;Node10</title>
<path fill="none" stroke="midnightblue" d="M199.75,-191.25C199.41,-180.02 199.02,-167.38 198.77,-159.19"/>
<polygon fill="midnightblue" stroke="midnightblue" points="196.26,-191.51 200.07,-201.4 203.26,-191.29 196.26,-191.51"/>
</g>
<!-- Node10&#45;&gt;Node4 -->
<g id="edge11" class="edge">
<title>Node10&#45;&gt;Node4</title>
<path fill="none" stroke="midnightblue" d="M209.78,-131.18C222.4,-112.99 244.39,-84.64 269.5,-67 292.68,-50.72 321.83,-38.77 346.64,-30.6"/>
<polygon fill="midnightblue" stroke="midnightblue" points="206.75,-129.4 204.07,-139.65 212.56,-133.31 206.75,-129.4"/>
</g>
<!-- Node10&#45;&gt;Node5 -->
<g id="edge12" class="edge">
<title>Node10&#45;&gt;Node5</title>
<path fill="none" stroke="midnightblue" d="M188.65,-130.71C182.87,-120.29 175.68,-107.3 170.3,-97.59"/>
<polygon fill="midnightblue" stroke="midnightblue" points="185.74,-132.68 193.64,-139.73 191.86,-129.29 185.74,-132.68"/>
</g>
<!-- Node10&#45;&gt;Node8 -->
<g id="edge13" class="edge">
<title>Node10&#45;&gt;Node8</title>
<path fill="none" stroke="midnightblue" d="M226.02,-135.44C253.15,-122.57 293.86,-103.26 317.23,-92.17"/>
<polygon fill="midnightblue" stroke="midnightblue" points="224.23,-132.42 216.69,-139.87 227.23,-138.74 224.23,-132.42"/>
</g>
<!-- Node11&#45;&gt;Node7 -->
<g id="edge17" class="edge">
<title>Node11&#45;&gt;Node7</title>
<path fill="none" stroke="midnightblue" d="M312.59,-204.81C238.22,-193.99 135.34,-177.16 120.5,-165 78.2,-130.35 67.24,-60.47 64.44,-30.58"/>
<polygon fill="midnightblue" stroke="midnightblue" points="312.48,-208.33 322.88,-206.3 313.48,-201.4 312.48,-208.33"/>
</g>
<!-- Node11&#45;&gt;Node12 -->
<g id="edge15" class="edge">
<title>Node11&#45;&gt;Node12</title>
<path fill="none" stroke="midnightblue" d="M421.38,-196.02C437.4,-185.9 456.63,-173.77 471.19,-164.58"/>
<polygon fill="midnightblue" stroke="midnightblue" points="419.44,-193.1 412.85,-201.4 423.17,-199.02 419.44,-193.1"/>
</g>
<!-- Node12&#45;&gt;Node4 -->
<g id="edge16" class="edge">
<title>Node12&#45;&gt;Node4</title>
<path fill="none" stroke="midnightblue" d="M477.61,-126.19C458.15,-98.86 425.77,-53.38 409.49,-30.52"/>
<polygon fill="midnightblue" stroke="midnightblue" points="474.79,-128.26 483.44,-134.37 480.49,-124.2 474.79,-128.26"/>
</g>
</g>
</svg>
        <g id="navigator" transform="translate(0 0)" fill="#404254">
                <rect fill="#f2f5e9" fill-opacity="0.5" stroke="#606060" stroke-width=".5" x="0" y="0" width="60" height="60"/>
                <use id="zoomplus" xlink:href="#zoomPlus" x="17" y="9" onmousedown="handleZoom(evt,'in')"/>
                <use id="zoomminus" xlink:href="#zoomMin" x="42" y="9" onmousedown="handleZoom(evt,'out')"/>
                <use id="reset" xlink:href="#resetDef" x="30" y="36" onmousedown="handleReset()"/>
                <g id="arrowUp" xlink:href="#dirArrow" transform="translate(30 24)" onmousedown="handlePan(0,-1)">
                  <use xlink:href="#rim" fill="#404040">
                        <set attributeName="fill" to="#808080" begin="arrowUp.mouseover" end="arrowUp.mouseout"/>
                  </use>
                  <path fill="none" stroke="white" stroke-width="1.5" d="M0,-3.0v7 M-2.5,-0.5L0,-3.0L2.5,-0.5"/>
                </g>
                <g id="arrowRight" xlink:href="#dirArrow" transform="rotate(90) translate(36 -43)" onmousedown="handlePan(1,0)">
                  <use xlink:href="#rim" fill="#404040">
                        <set attributeName="fill" to="#808080" begin="arrowRight.mouseover" end="arrowRight.mouseout"/>
                  </use>
                  <path fill="none" stroke="white" stroke-width="1.5" d="M0,-3.0v7 M-2.5,-0.5L0,-3.0L2.5,-0.5"/>
                </g>
                <g id="arrowDown" xlink:href="#dirArrow" transform="rotate(180) translate(-30 -48)" onmousedown="handlePan(0,1)">
                  <use xlink:href="#rim" fill="#404040">
                        <set attributeName="fill" to="#808080" begin="arrowDown.mouseover" end="arrowDown.mouseout"/>
                  </use>
                  <path fill="none" stroke="white" stroke-width="1.5" d="M0,-3.0v7 M-2.5,-0.5L0,-3.0L2.5,-0.5"/>
                </g>
                <g id="arrowLeft" xlink:href="#dirArrow" transform="rotate(270) translate(-36 17)" onmousedown="handlePan(-1,0)">
                  <use xlink:href="#rim" fill="#404040">
                        <set attributeName="fill" to="#808080" begin="arrowLeft.mouseover" end="arrowLeft.mouseout"/>
                  </use>
                  <path fill="none" stroke="white" stroke-width="1.5" d="M0,-3.0v7 M-2.5,-0.5L0,-3.0L2.5,-0.5"/>
                </g>
        </g>
        <svg viewBox="0 0 15 15" width="100%" height="30px" preserveAspectRatio="xMaxYMin meet">
         <g id="arrow_out" transform="scale(0.3 0.3)">
          <a xlink:href="mesh__instance__data_8h__dep__incl_org.svg" target="_base">
           <rect id="button" ry="5" rx="5" y="6" x="6" height="38" width="38"
                fill="#f2f5e9" fill-opacity="0.5" stroke="#606060" stroke-width="1.0"/>
           <path id="arrow"
             d="M 11.500037,31.436501 C 11.940474,20.09759 22.043105,11.32322 32.158766,21.979434 L 37.068811,17.246167 C 37.068811,17.246167 37.088388,32 37.088388,32 L 22.160133,31.978069 C 22.160133,31.978069 26.997745,27.140456 26.997745,27.140456 C 18.528582,18.264221 13.291696,25.230495 11.500037,31.436501 z"
             style="fill:#404040;"/>
          </a>
         </g>
        </svg>
</svg>
