<?xml version="1.0" encoding="UTF-8" standalone="no"?>
<!DOCTYPE svg PUBLIC "-//W3C//DTD SVG 1.1//EN"
 "http://www.w3.org/Graphics/SVG/1.1/DTD/svg11.dtd">
<!-- Generated by graphviz version 2.43.0 (0)
 -->
<!-- Title: src/graphics/mesh/mesh_manager.h Pages: 1 -->
<!--zoomable 341 -->
<svg id="main" version="1.1" xmlns="http://www.w3.org/2000/svg" xmlns:xlink="http://www.w3.org/1999/xlink" xml:space="preserve" onload="init(evt)">
<style type="text/css"><![CDATA[
.edge:hover path { stroke: red; }
.edge:hover polygon { stroke: red; fill: red; }
]]></style>
<script type="text/javascript"><![CDATA[
var edges = document.getElementsByTagName('g');
if (edges && edges.length) {
  for (var i=0;i<edges.length;i++) {
    if (edges[i].id.substr(0,4)=='edge') {
      edges[i].setAttribute('class','edge');
    }
  }
}
]]></script>
        <defs>
                <circle id="rim" cx="0" cy="0" r="7"/>
                <circle id="rim2" cx="0" cy="0" r="3.5"/>
                <g id="zoomPlus">
                        <use xlink:href="#rim" fill="#404040">
                                <set attributeName="fill" to="#808080" begin="zoomplus.mouseover" end="zoomplus.mouseout"/>
                        </use>
                        <path d="M-4,0h8M0,-4v8" fill="none" stroke="white" stroke-width="1.5" pointer-events="none"/>
                </g>
                <g id="zoomMin">
                        <use xlink:href="#rim" fill="#404040">
                                <set attributeName="fill" to="#808080" begin="zoomminus.mouseover" end="zoomminus.mouseout"/>
                        </use>
                        <path d="M-4,0h8" fill="none" stroke="white" stroke-width="1.5" pointer-events="none"/>
                </g>
                <g id="dirArrow">
                        <path fill="none" stroke="white" stroke-width="1.5" d="M0,-3.0v7 M-2.5,-0.5L0,-3.0L2.5,-0.5"/>
                </g>
               <g id="resetDef">
                       <use xlink:href="#rim2" fill="#404040">
                               <set attributeName="fill" to="#808080" begin="reset.mouseover" end="reset.mouseout"/>
                       </use>
               </g>
        </defs>

<script type="text/javascript">
var viewWidth = 1153;
var viewHeight = 341;
var sectionId = 'dynsection-0';
</script>
<script xlink:href="svgpan.js"/>
<svg id="graph" class="graph">
<g id="viewport">
<title>src/graphics/mesh/mesh_manager.h</title>
<polygon fill="white" stroke="transparent" points="-4,4 -4,-337 1148.5,-337 1148.5,4 -4,4"/>
<!-- Node1 -->
<g id="node1" class="node">
<title>Node1</title>
<g id="a_node1"><a xlink:title=" ">
<polygon fill="#bfbfbf" stroke="black" points="413,-302.5 413,-332.5 548,-332.5 548,-302.5 413,-302.5"/>
<text text-anchor="start" x="421" y="-320.5" font-family="Helvetica,sans-Serif" font-size="10.00">src/graphics/mesh/mesh</text>
<text text-anchor="middle" x="480.5" y="-309.5" font-family="Helvetica,sans-Serif" font-size="10.00">_manager.h</text>
</a>
</g>
</g>
<!-- Node2 -->
<g id="node2" class="node">
<title>Node2</title>
<g id="a_node2"><a xlink:title=" ">
<polygon fill="white" stroke="#bfbfbf" points="0,-241 0,-260 65,-260 65,-241 0,-241"/>
<text text-anchor="middle" x="32.5" y="-248" font-family="Helvetica,sans-Serif" font-size="10.00">stdexcept</text>
</a>
</g>
</g>
<!-- Node1&#45;&gt;Node2 -->
<g id="edge1" class="edge">
<title>Node1&#45;&gt;Node2</title>
<path fill="none" stroke="midnightblue" d="M412.85,-311.59C332.64,-304.95 195.25,-290.95 79.5,-266 75.57,-265.15 71.5,-264.13 67.48,-263.02"/>
<polygon fill="midnightblue" stroke="midnightblue" points="68.23,-259.6 57.65,-260.14 66.27,-266.31 68.23,-259.6"/>
</g>
<!-- Node3 -->
<g id="node3" class="node">
<title>Node3</title>
<g id="a_node3"><a xlink:title=" ">
<polygon fill="white" stroke="#bfbfbf" points="330.5,-0.5 330.5,-19.5 388.5,-19.5 388.5,-0.5 330.5,-0.5"/>
<text text-anchor="middle" x="359.5" y="-7.5" font-family="Helvetica,sans-Serif" font-size="10.00">memory</text>
</a>
</g>
</g>
<!-- Node1&#45;&gt;Node3 -->
<g id="edge2" class="edge">
<title>Node1&#45;&gt;Node3</title>
<path fill="none" stroke="midnightblue" d="M412.65,-308.47C301.66,-293.42 93.5,-256.36 93.5,-190 93.5,-190 93.5,-190 93.5,-126.5 93.5,-28.97 245.82,-12.91 319.93,-10.86"/>
<polygon fill="midnightblue" stroke="midnightblue" points="320.34,-14.36 330.27,-10.66 320.2,-7.36 320.34,-14.36"/>
</g>
<!-- Node4 -->
<g id="node4" class="node">
<title>Node4</title>
<g id="a_node4"><a xlink:title=" ">
<polygon fill="white" stroke="#bfbfbf" points="547,-241 547,-260 640,-260 640,-241 547,-241"/>
<text text-anchor="middle" x="593.5" y="-248" font-family="Helvetica,sans-Serif" font-size="10.00">unordered_map</text>
</a>
</g>
</g>
<!-- Node1&#45;&gt;Node4 -->
<g id="edge3" class="edge">
<title>Node1&#45;&gt;Node4</title>
<path fill="none" stroke="midnightblue" d="M505.02,-302.4C524.23,-291.34 550.8,-276.06 569.8,-265.13"/>
<polygon fill="midnightblue" stroke="midnightblue" points="571.79,-268.03 578.71,-260.01 568.3,-261.96 571.79,-268.03"/>
</g>
<!-- Node5 -->
<g id="node5" class="node">
<title>Node5</title>
<g id="a_node5"><a xlink:title=" ">
<polygon fill="white" stroke="#bfbfbf" points="658.5,-241 658.5,-260 774.5,-260 774.5,-241 658.5,-241"/>
<text text-anchor="middle" x="716.5" y="-248" font-family="Helvetica,sans-Serif" font-size="10.00">common/singleton.h</text>
</a>
</g>
</g>
<!-- Node1&#45;&gt;Node5 -->
<g id="edge4" class="edge">
<title>Node1&#45;&gt;Node5</title>
<path fill="none" stroke="midnightblue" d="M531.42,-302.48C574.64,-290.57 635.84,-273.72 675.84,-262.7"/>
<polygon fill="midnightblue" stroke="midnightblue" points="676.82,-266.06 685.53,-260.03 674.96,-259.31 676.82,-266.06"/>
</g>
<!-- Node6 -->
<g id="node6" class="node">
<title>Node6</title>
<g id="a_node6"><a xlink:href="mesh_8h.html" target="_top" xlink:title=" ">
<polygon fill="white" stroke="black" points="563,-179.5 563,-198.5 690,-198.5 690,-179.5 563,-179.5"/>
<text text-anchor="middle" x="626.5" y="-186.5" font-family="Helvetica,sans-Serif" font-size="10.00">graphics/mesh/mesh.h</text>
</a>
</g>
</g>
<!-- Node1&#45;&gt;Node6 -->
<g id="edge5" class="edge">
<title>Node1&#45;&gt;Node6</title>
<path fill="none" stroke="midnightblue" d="M480.94,-302.23C482.24,-284.3 487.07,-253.64 504.5,-235 519.94,-218.48 541.98,-208 563.08,-201.36"/>
<polygon fill="midnightblue" stroke="midnightblue" points="564.06,-204.73 572.69,-198.58 562.11,-198 564.06,-204.73"/>
</g>
<!-- Node19 -->
<g id="node19" class="node">
<title>Node19</title>
<g id="a_node19"><a xlink:href="mesh__builder_8h.html" target="_top" xlink:title=" ">
<polygon fill="white" stroke="black" points="334.5,-235.5 334.5,-265.5 452.5,-265.5 452.5,-235.5 334.5,-235.5"/>
<text text-anchor="start" x="342.5" y="-253.5" font-family="Helvetica,sans-Serif" font-size="10.00">graphics/mesh/mesh</text>
<text text-anchor="middle" x="393.5" y="-242.5" font-family="Helvetica,sans-Serif" font-size="10.00">_builder.h</text>
</a>
</g>
</g>
<!-- Node1&#45;&gt;Node19 -->
<g id="edge23" class="edge">
<title>Node1&#45;&gt;Node19</title>
<path fill="none" stroke="midnightblue" d="M461.62,-302.4C449.65,-293.45 433.97,-281.74 420.67,-271.8"/>
<polygon fill="midnightblue" stroke="midnightblue" points="422.45,-268.76 412.34,-265.58 418.26,-274.37 422.45,-268.76"/>
</g>
<!-- Node24 -->
<g id="node24" class="node">
<title>Node24</title>
<g id="a_node24"><a xlink:href="file__util_8h.html" target="_top" xlink:title=" ">
<polygon fill="white" stroke="black" points="848.5,-179.5 848.5,-198.5 928.5,-198.5 928.5,-179.5 848.5,-179.5"/>
<text text-anchor="middle" x="888.5" y="-186.5" font-family="Helvetica,sans-Serif" font-size="10.00">util/file_util.h</text>
</a>
</g>
</g>
<!-- Node1&#45;&gt;Node24 -->
<g id="edge34" class="edge">
<title>Node1&#45;&gt;Node24</title>
<path fill="none" stroke="midnightblue" d="M486.27,-302.2C494.7,-283.34 512.29,-250.72 538.5,-235 587.93,-205.36 753.77,-194.98 838.19,-191.56"/>
<polygon fill="midnightblue" stroke="midnightblue" points="838.46,-195.05 848.32,-191.17 838.19,-188.06 838.46,-195.05"/>
</g>
<!-- Node6&#45;&gt;Node3 -->
<g id="edge6" class="edge">
<title>Node6&#45;&gt;Node3</title>
<path fill="none" stroke="midnightblue" d="M566.37,-179.48C502.78,-169.96 409.91,-154.38 397.5,-143 365.37,-113.53 359.75,-58.84 359.16,-29.97"/>
<polygon fill="midnightblue" stroke="midnightblue" points="362.66,-29.64 359.15,-19.65 355.66,-29.65 362.66,-29.64"/>
</g>
<!-- Node7 -->
<g id="node7" class="node">
<title>Node7</title>
<g id="a_node7"><a xlink:title=" ">
<polygon fill="white" stroke="#bfbfbf" points="596,-0.5 596,-19.5 643,-19.5 643,-0.5 596,-0.5"/>
<text text-anchor="middle" x="619.5" y="-7.5" font-family="Helvetica,sans-Serif" font-size="10.00">vector</text>
</a>
</g>
</g>
<!-- Node6&#45;&gt;Node7 -->
<g id="edge7" class="edge">
<title>Node6&#45;&gt;Node7</title>
<path fill="none" stroke="midnightblue" d="M611.79,-179.48C599.34,-171.55 581.9,-158.61 571.5,-143 554.27,-117.14 555.99,-106.75 551.5,-76 550.22,-67.2 547.29,-63.83 551.5,-56 559.12,-41.82 573.4,-31.35 586.91,-24.1"/>
<polygon fill="midnightblue" stroke="midnightblue" points="588.63,-27.16 596.05,-19.59 585.53,-20.88 588.63,-27.16"/>
</g>
<!-- Node8 -->
<g id="node8" class="node">
<title>Node8</title>
<g id="a_node8"><a xlink:title=" ">
<polygon fill="white" stroke="#bfbfbf" points="866.5,-118 866.5,-137 910.5,-137 910.5,-118 866.5,-118"/>
<text text-anchor="middle" x="888.5" y="-125" font-family="Helvetica,sans-Serif" font-size="10.00">string</text>
</a>
</g>
</g>
<!-- Node6&#45;&gt;Node8 -->
<g id="edge8" class="edge">
<title>Node6&#45;&gt;Node8</title>
<path fill="none" stroke="midnightblue" d="M690.31,-179.87C737.3,-172.85 802.34,-160.97 857.5,-143 859.17,-142.46 860.87,-141.84 862.56,-141.19"/>
<polygon fill="midnightblue" stroke="midnightblue" points="864.27,-144.26 872.07,-137.1 861.5,-137.83 864.27,-144.26"/>
</g>
<!-- Node9 -->
<g id="node9" class="node">
<title>Node9</title>
<g id="a_node9"><a xlink:href="vertex_8h.html" target="_top" xlink:title=" ">
<polygon fill="white" stroke="black" points="717,-118 717,-137 848,-137 848,-118 717,-118"/>
<text text-anchor="middle" x="782.5" y="-125" font-family="Helvetica,sans-Serif" font-size="10.00">graphics/mesh/vertex.h</text>
</a>
</g>
</g>
<!-- Node6&#45;&gt;Node9 -->
<g id="edge9" class="edge">
<title>Node6&#45;&gt;Node9</title>
<path fill="none" stroke="midnightblue" d="M648.85,-179.48C675.49,-169.31 720.21,-152.26 750.51,-140.7"/>
<polygon fill="midnightblue" stroke="midnightblue" points="752.09,-143.84 760.19,-137.01 749.6,-137.3 752.09,-143.84"/>
</g>
<!-- Node12 -->
<g id="node12" class="node">
<title>Node12</title>
<g id="a_node12"><a xlink:href="mesh__instance__data_8h.html" target="_top" xlink:title=" ">
<polygon fill="white" stroke="black" points="406.5,-112.5 406.5,-142.5 524.5,-142.5 524.5,-112.5 406.5,-112.5"/>
<text text-anchor="start" x="414.5" y="-130.5" font-family="Helvetica,sans-Serif" font-size="10.00">graphics/mesh/mesh</text>
<text text-anchor="middle" x="465.5" y="-119.5" font-family="Helvetica,sans-Serif" font-size="10.00">_instance_data.h</text>
</a>
</g>
</g>
<!-- Node6&#45;&gt;Node12 -->
<g id="edge12" class="edge">
<title>Node6&#45;&gt;Node12</title>
<path fill="none" stroke="midnightblue" d="M603.43,-179.48C579.9,-170.78 542.69,-157.03 512.85,-146"/>
<polygon fill="midnightblue" stroke="midnightblue" points="514.04,-142.71 503.44,-142.52 511.61,-149.27 514.04,-142.71"/>
</g>
<!-- Node14 -->
<g id="node14" class="node">
<title>Node14</title>
<g id="a_node14"><a xlink:href="vao_8h.html" target="_top" xlink:title=" ">
<polygon fill="white" stroke="black" points="580.5,-118 580.5,-137 698.5,-137 698.5,-118 580.5,-118"/>
<text text-anchor="middle" x="639.5" y="-125" font-family="Helvetica,sans-Serif" font-size="10.00">graphics/mesh/vao.h</text>
</a>
</g>
</g>
<!-- Node6&#45;&gt;Node14 -->
<g id="edge14" class="edge">
<title>Node6&#45;&gt;Node14</title>
<path fill="none" stroke="midnightblue" d="M628.36,-179.48C630.22,-170.99 633.12,-157.7 635.5,-146.82"/>
<polygon fill="midnightblue" stroke="midnightblue" points="638.93,-147.53 637.64,-137.01 632.09,-146.03 638.93,-147.53"/>
</g>
<!-- Node10 -->
<g id="node10" class="node">
<title>Node10</title>
<g id="a_node10"><a xlink:title=" ">
<polygon fill="white" stroke="#bfbfbf" points="1048.5,-56.5 1048.5,-75.5 1144.5,-75.5 1144.5,-56.5 1048.5,-56.5"/>
<text text-anchor="middle" x="1096.5" y="-63.5" font-family="Helvetica,sans-Serif" font-size="10.00">maths/vector2.h</text>
</a>
</g>
</g>
<!-- Node9&#45;&gt;Node10 -->
<g id="edge10" class="edge">
<title>Node9&#45;&gt;Node10</title>
<path fill="none" stroke="midnightblue" d="M826.51,-117.95C836.69,-115.99 847.47,-113.91 857.5,-112 920.23,-100.03 992.26,-86.5 1040.7,-77.43"/>
<polygon fill="midnightblue" stroke="midnightblue" points="1041.48,-80.84 1050.67,-75.56 1040.2,-73.96 1041.48,-80.84"/>
</g>
<!-- Node11 -->
<g id="node11" class="node">
<title>Node11</title>
<g id="a_node11"><a xlink:title=" ">
<polygon fill="white" stroke="#bfbfbf" points="934.5,-56.5 934.5,-75.5 1030.5,-75.5 1030.5,-56.5 934.5,-56.5"/>
<text text-anchor="middle" x="982.5" y="-63.5" font-family="Helvetica,sans-Serif" font-size="10.00">maths/vector3.h</text>
</a>
</g>
</g>
<!-- Node9&#45;&gt;Node11 -->
<g id="edge11" class="edge">
<title>Node9&#45;&gt;Node11</title>
<path fill="none" stroke="midnightblue" d="M811.16,-117.98C846.06,-107.59 905.15,-90.01 944,-78.45"/>
<polygon fill="midnightblue" stroke="midnightblue" points="945.31,-81.72 953.9,-75.51 943.32,-75.01 945.31,-81.72"/>
</g>
<!-- Node13 -->
<g id="node13" class="node">
<title>Node13</title>
<g id="a_node13"><a xlink:title=" ">
<polygon fill="white" stroke="#bfbfbf" points="412.5,-56.5 412.5,-75.5 504.5,-75.5 504.5,-56.5 412.5,-56.5"/>
<text text-anchor="middle" x="458.5" y="-63.5" font-family="Helvetica,sans-Serif" font-size="10.00">maths/matrix.h</text>
</a>
</g>
</g>
<!-- Node12&#45;&gt;Node13 -->
<g id="edge13" class="edge">
<title>Node12&#45;&gt;Node13</title>
<path fill="none" stroke="midnightblue" d="M463.84,-112.4C462.91,-104.47 461.73,-94.46 460.72,-85.86"/>
<polygon fill="midnightblue" stroke="midnightblue" points="464.16,-85.18 459.52,-75.66 457.21,-86 464.16,-85.18"/>
</g>
<!-- Node14&#45;&gt;Node7 -->
<g id="edge16" class="edge">
<title>Node14&#45;&gt;Node7</title>
<path fill="none" stroke="midnightblue" d="M652.71,-117.97C670.94,-105.08 700.19,-79.61 687.5,-56 679.88,-41.82 665.6,-31.35 652.09,-24.1"/>
<polygon fill="midnightblue" stroke="midnightblue" points="653.47,-20.88 642.95,-19.59 650.37,-27.16 653.47,-20.88"/>
</g>
<!-- Node15 -->
<g id="node15" class="node">
<title>Node15</title>
<g id="a_node15"><a xlink:title=" ">
<polygon fill="white" stroke="#bfbfbf" points="735,-56.5 735,-75.5 780,-75.5 780,-56.5 735,-56.5"/>
<text text-anchor="middle" x="757.5" y="-63.5" font-family="Helvetica,sans-Serif" font-size="10.00">utility</text>
</a>
</g>
</g>
<!-- Node14&#45;&gt;Node15 -->
<g id="edge15" class="edge">
<title>Node14&#45;&gt;Node15</title>
<path fill="none" stroke="midnightblue" d="M656.41,-117.98C676.03,-108.08 708.63,-91.64 731.49,-80.12"/>
<polygon fill="midnightblue" stroke="midnightblue" points="733.27,-83.14 740.62,-75.51 730.12,-76.89 733.27,-83.14"/>
</g>
<!-- Node16 -->
<g id="node16" class="node">
<title>Node16</title>
<g id="a_node16"><a xlink:href="vbo_8h.html" target="_top" xlink:title=" ">
<polygon fill="white" stroke="black" points="560.5,-56.5 560.5,-75.5 678.5,-75.5 678.5,-56.5 560.5,-56.5"/>
<text text-anchor="middle" x="619.5" y="-63.5" font-family="Helvetica,sans-Serif" font-size="10.00">graphics/mesh/vbo.h</text>
</a>
</g>
</g>
<!-- Node14&#45;&gt;Node16 -->
<g id="edge17" class="edge">
<title>Node14&#45;&gt;Node16</title>
<path fill="none" stroke="midnightblue" d="M636.63,-117.98C633.78,-109.49 629.32,-96.2 625.66,-85.32"/>
<polygon fill="midnightblue" stroke="midnightblue" points="628.86,-83.87 622.36,-75.51 622.23,-86.1 628.86,-83.87"/>
</g>
<!-- Node18 -->
<g id="node18" class="node">
<title>Node18</title>
<g id="a_node18"><a xlink:href="ebo_8h.html" target="_top" xlink:title=" ">
<polygon fill="white" stroke="black" points="798.5,-56.5 798.5,-75.5 916.5,-75.5 916.5,-56.5 798.5,-56.5"/>
<text text-anchor="middle" x="857.5" y="-63.5" font-family="Helvetica,sans-Serif" font-size="10.00">graphics/mesh/ebo.h</text>
</a>
</g>
</g>
<!-- Node14&#45;&gt;Node18 -->
<g id="edge21" class="edge">
<title>Node14&#45;&gt;Node18</title>
<path fill="none" stroke="midnightblue" d="M670.73,-117.98C709.1,-107.5 774.29,-89.71 816.61,-78.16"/>
<polygon fill="midnightblue" stroke="midnightblue" points="817.6,-81.52 826.32,-75.51 815.76,-74.77 817.6,-81.52"/>
</g>
<!-- Node16&#45;&gt;Node3 -->
<g id="edge19" class="edge">
<title>Node16&#45;&gt;Node3</title>
<path fill="none" stroke="midnightblue" d="M578.3,-56.44C529.08,-46.22 447.31,-29.24 398.9,-19.18"/>
<polygon fill="midnightblue" stroke="midnightblue" points="399.31,-15.69 388.81,-17.09 397.88,-22.55 399.31,-15.69"/>
</g>
<!-- Node16&#45;&gt;Node7 -->
<g id="edge18" class="edge">
<title>Node16&#45;&gt;Node7</title>
<path fill="none" stroke="midnightblue" d="M619.5,-56.08C619.5,-49.01 619.5,-38.86 619.5,-29.99"/>
<polygon fill="midnightblue" stroke="midnightblue" points="623,-29.75 619.5,-19.75 616,-29.75 623,-29.75"/>
</g>
<!-- Node17 -->
<g id="node17" class="node">
<title>Node17</title>
<g id="a_node17"><a xlink:title=" ">
<polygon fill="white" stroke="#bfbfbf" points="743.5,-0.5 743.5,-19.5 807.5,-19.5 807.5,-0.5 743.5,-0.5"/>
<text text-anchor="middle" x="775.5" y="-7.5" font-family="Helvetica,sans-Serif" font-size="10.00">GL/glew.h</text>
</a>
</g>
</g>
<!-- Node16&#45;&gt;Node17 -->
<g id="edge20" class="edge">
<title>Node16&#45;&gt;Node17</title>
<path fill="none" stroke="midnightblue" d="M644.22,-56.44C670.35,-47.4 711.76,-33.06 741.08,-22.92"/>
<polygon fill="midnightblue" stroke="midnightblue" points="742.59,-26.1 750.9,-19.52 740.3,-19.48 742.59,-26.1"/>
</g>
<!-- Node18&#45;&gt;Node17 -->
<g id="edge22" class="edge">
<title>Node18&#45;&gt;Node17</title>
<path fill="none" stroke="midnightblue" d="M844.33,-56.32C831.65,-47.98 812.27,-35.21 797.29,-25.35"/>
<polygon fill="midnightblue" stroke="midnightblue" points="798.92,-22.23 788.64,-19.65 795.07,-28.08 798.92,-22.23"/>
</g>
<!-- Node19&#45;&gt;Node3 -->
<g id="edge25" class="edge">
<title>Node19&#45;&gt;Node3</title>
<path fill="none" stroke="midnightblue" d="M380.59,-235.23C372.86,-225.71 363.75,-212.51 359.5,-199 340.78,-139.41 350.05,-63.86 355.92,-29.5"/>
<polygon fill="midnightblue" stroke="midnightblue" points="359.39,-29.98 357.74,-19.52 352.5,-28.73 359.39,-29.98"/>
</g>
<!-- Node19&#45;&gt;Node6 -->
<g id="edge29" class="edge">
<title>Node19&#45;&gt;Node6</title>
<path fill="none" stroke="midnightblue" d="M448.42,-235.47C489.67,-224.94 545.38,-210.72 583.43,-201"/>
<polygon fill="midnightblue" stroke="midnightblue" points="584.37,-204.37 593.19,-198.51 582.63,-197.59 584.37,-204.37"/>
</g>
<!-- Node20 -->
<g id="node20" class="node">
<title>Node20</title>
<g id="a_node20"><a xlink:title=" ">
<polygon fill="white" stroke="#bfbfbf" points="368.5,-179.5 368.5,-198.5 418.5,-198.5 418.5,-179.5 368.5,-179.5"/>
<text text-anchor="middle" x="393.5" y="-186.5" font-family="Helvetica,sans-Serif" font-size="10.00">cstring</text>
</a>
</g>
</g>
<!-- Node19&#45;&gt;Node20 -->
<g id="edge24" class="edge">
<title>Node19&#45;&gt;Node20</title>
<path fill="none" stroke="midnightblue" d="M393.5,-235.4C393.5,-227.47 393.5,-217.46 393.5,-208.86"/>
<polygon fill="midnightblue" stroke="midnightblue" points="397,-208.66 393.5,-198.66 390,-208.66 397,-208.66"/>
</g>
<!-- Node21 -->
<g id="node21" class="node">
<title>Node21</title>
<g id="a_node21"><a xlink:title=" ">
<polygon fill="white" stroke="#bfbfbf" points="436.5,-179.5 436.5,-198.5 544.5,-198.5 544.5,-179.5 436.5,-179.5"/>
<text text-anchor="middle" x="490.5" y="-186.5" font-family="Helvetica,sans-Serif" font-size="10.00">SDL2/SDL_image.h</text>
</a>
</g>
</g>
<!-- Node19&#45;&gt;Node21 -->
<g id="edge26" class="edge">
<title>Node19&#45;&gt;Node21</title>
<path fill="none" stroke="midnightblue" d="M416.49,-235.4C431.89,-225.95 452.09,-213.56 467.5,-204.11"/>
<polygon fill="midnightblue" stroke="midnightblue" points="469.69,-206.87 476.39,-198.66 466.03,-200.9 469.69,-206.87"/>
</g>
<!-- Node22 -->
<g id="node22" class="node">
<title>Node22</title>
<g id="a_node22"><a xlink:title=" ">
<polygon fill="white" stroke="#bfbfbf" points="122,-179.5 122,-198.5 181,-198.5 181,-179.5 122,-179.5"/>
<text text-anchor="middle" x="151.5" y="-186.5" font-family="Helvetica,sans-Serif" font-size="10.00">log/log.h</text>
</a>
</g>
</g>
<!-- Node19&#45;&gt;Node22 -->
<g id="edge27" class="edge">
<title>Node19&#45;&gt;Node22</title>
<path fill="none" stroke="midnightblue" d="M336.46,-235.47C291.72,-224.48 230.62,-209.45 191.11,-199.74"/>
<polygon fill="midnightblue" stroke="midnightblue" points="191.85,-196.32 181.3,-197.33 190.18,-203.11 191.85,-196.32"/>
</g>
<!-- Node23 -->
<g id="node23" class="node">
<title>Node23</title>
<g id="a_node23"><a xlink:title=" ">
<polygon fill="white" stroke="#bfbfbf" points="199,-179.5 199,-198.5 312,-198.5 312,-179.5 199,-179.5"/>
<text text-anchor="middle" x="255.5" y="-186.5" font-family="Helvetica,sans-Serif" font-size="10.00">maths/matrix_util.h</text>
</a>
</g>
</g>
<!-- Node19&#45;&gt;Node23 -->
<g id="edge28" class="edge">
<title>Node19&#45;&gt;Node23</title>
<path fill="none" stroke="midnightblue" d="M360.8,-235.4C337.75,-225.46 307.14,-212.26 284.87,-202.66"/>
<polygon fill="midnightblue" stroke="midnightblue" points="286.15,-199.4 275.58,-198.66 283.38,-205.83 286.15,-199.4"/>
</g>
<!-- Node19&#45;&gt;Node24 -->
<g id="edge30" class="edge">
<title>Node19&#45;&gt;Node24</title>
<path fill="none" stroke="midnightblue" d="M452.53,-241.64C469.32,-239.45 487.62,-237.09 504.5,-235 624.02,-220.19 764.64,-204.04 838.06,-195.7"/>
<polygon fill="midnightblue" stroke="midnightblue" points="838.86,-199.13 848.4,-194.52 838.07,-192.17 838.86,-199.13"/>
</g>
<!-- Node24&#45;&gt;Node8 -->
<g id="edge31" class="edge">
<title>Node24&#45;&gt;Node8</title>
<path fill="none" stroke="midnightblue" d="M888.5,-179.48C888.5,-171.08 888.5,-157.98 888.5,-147.16"/>
<polygon fill="midnightblue" stroke="midnightblue" points="892,-147.01 888.5,-137.01 885,-147.01 892,-147.01"/>
</g>
<!-- Node25 -->
<g id="node25" class="node">
<title>Node25</title>
<g id="a_node25"><a xlink:title=" ">
<polygon fill="white" stroke="#bfbfbf" points="1003,-118 1003,-137 1058,-137 1058,-118 1003,-118"/>
<text text-anchor="middle" x="1030.5" y="-125" font-family="Helvetica,sans-Serif" font-size="10.00">fstream</text>
</a>
</g>
</g>
<!-- Node24&#45;&gt;Node25 -->
<g id="edge32" class="edge">
<title>Node24&#45;&gt;Node25</title>
<path fill="none" stroke="midnightblue" d="M908.85,-179.48C932.89,-169.4 973.1,-152.55 1000.66,-141"/>
<polygon fill="midnightblue" stroke="midnightblue" points="1002.32,-144.1 1010.19,-137.01 999.62,-137.65 1002.32,-144.1"/>
</g>
<!-- Node26 -->
<g id="node26" class="node">
<title>Node26</title>
<g id="a_node26"><a xlink:title=" ">
<polygon fill="white" stroke="#bfbfbf" points="928.5,-118 928.5,-137 984.5,-137 984.5,-118 928.5,-118"/>
<text text-anchor="middle" x="956.5" y="-125" font-family="Helvetica,sans-Serif" font-size="10.00">sstream</text>
</a>
</g>
</g>
<!-- Node24&#45;&gt;Node26 -->
<g id="edge33" class="edge">
<title>Node24&#45;&gt;Node26</title>
<path fill="none" stroke="midnightblue" d="M898.24,-179.48C908.85,-170.2 926.02,-155.17 938.98,-143.83"/>
<polygon fill="midnightblue" stroke="midnightblue" points="941.55,-146.23 946.78,-137.01 936.94,-140.96 941.55,-146.23"/>
</g>
</g>
</svg>
        <g id="navigator" transform="translate(0 0)" fill="#404254">
                <rect fill="#f2f5e9" fill-opacity="0.5" stroke="#606060" stroke-width=".5" x="0" y="0" width="60" height="60"/>
                <use id="zoomplus" xlink:href="#zoomPlus" x="17" y="9" onmousedown="handleZoom(evt,'in')"/>
                <use id="zoomminus" xlink:href="#zoomMin" x="42" y="9" onmousedown="handleZoom(evt,'out')"/>
                <use id="reset" xlink:href="#resetDef" x="30" y="36" onmousedown="handleReset()"/>
                <g id="arrowUp" xlink:href="#dirArrow" transform="translate(30 24)" onmousedown="handlePan(0,-1)">
                  <use xlink:href="#rim" fill="#404040">
                        <set attributeName="fill" to="#808080" begin="arrowUp.mouseover" end="arrowUp.mouseout"/>
                  </use>
                  <path fill="none" stroke="white" stroke-width="1.5" d="M0,-3.0v7 M-2.5,-0.5L0,-3.0L2.5,-0.5"/>
                </g>
                <g id="arrowRight" xlink:href="#dirArrow" transform="rotate(90) translate(36 -43)" onmousedown="handlePan(1,0)">
                  <use xlink:href="#rim" fill="#404040">
                        <set attributeName="fill" to="#808080" begin="arrowRight.mouseover" end="arrowRight.mouseout"/>
                  </use>
                  <path fill="none" stroke="white" stroke-width="1.5" d="M0,-3.0v7 M-2.5,-0.5L0,-3.0L2.5,-0.5"/>
                </g>
                <g id="arrowDown" xlink:href="#dirArrow" transform="rotate(180) translate(-30 -48)" onmousedown="handlePan(0,1)">
                  <use xlink:href="#rim" fill="#404040">
                        <set attributeName="fill" to="#808080" begin="arrowDown.mouseover" end="arrowDown.mouseout"/>
                  </use>
                  <path fill="none" stroke="white" stroke-width="1.5" d="M0,-3.0v7 M-2.5,-0.5L0,-3.0L2.5,-0.5"/>
                </g>
                <g id="arrowLeft" xlink:href="#dirArrow" transform="rotate(270) translate(-36 17)" onmousedown="handlePan(-1,0)">
                  <use xlink:href="#rim" fill="#404040">
                        <set attributeName="fill" to="#808080" begin="arrowLeft.mouseover" end="arrowLeft.mouseout"/>
                  </use>
                  <path fill="none" stroke="white" stroke-width="1.5" d="M0,-3.0v7 M-2.5,-0.5L0,-3.0L2.5,-0.5"/>
                </g>
        </g>
        <svg viewBox="0 0 15 15" width="100%" height="30px" preserveAspectRatio="xMaxYMin meet">
         <g id="arrow_out" transform="scale(0.3 0.3)">
          <a xlink:href="mesh__manager_8h__incl_org.svg" target="_base">
           <rect id="button" ry="5" rx="5" y="6" x="6" height="38" width="38"
                fill="#f2f5e9" fill-opacity="0.5" stroke="#606060" stroke-width="1.0"/>
           <path id="arrow"
             d="M 11.500037,31.436501 C 11.940474,20.09759 22.043105,11.32322 32.158766,21.979434 L 37.068811,17.246167 C 37.068811,17.246167 37.088388,32 37.088388,32 L 22.160133,31.978069 C 22.160133,31.978069 26.997745,27.140456 26.997745,27.140456 C 18.528582,18.264221 13.291696,25.230495 11.500037,31.436501 z"
             style="fill:#404040;"/>
          </a>
         </g>
        </svg>
</svg>
