<?xml version="1.0" encoding="UTF-8" standalone="no"?>
<!DOCTYPE svg PUBLIC "-//W3C//DTD SVG 1.1//EN"
 "http://www.w3.org/Graphics/SVG/1.1/DTD/svg11.dtd">
<!-- Generated by graphviz version 2.43.0 (0)
 -->
<!-- Title: src/graphics/mesh/mesh_manager.h Pages: 1 -->
<svg width="893pt" height="341pt"
 viewBox="0.00 0.00 892.50 341.00" xmlns="http://www.w3.org/2000/svg" xmlns:xlink="http://www.w3.org/1999/xlink">
<g id="graph0" class="graph" transform="scale(1 1) rotate(0) translate(4 337)">
<title>src/graphics/mesh/mesh_manager.h</title>
<polygon fill="white" stroke="transparent" points="-4,4 -4,-337 888.5,-337 888.5,4 -4,4"/>
<!-- Node1 -->
<g id="node1" class="node">
<title>Node1</title>
<g id="a_node1"><a xlink:title=" ">
<polygon fill="#bfbfbf" stroke="black" points="444.5,-302.5 444.5,-332.5 579.5,-332.5 579.5,-302.5 444.5,-302.5"/>
<text text-anchor="start" x="452.5" y="-320.5" font-family="Helvetica,sans-Serif" font-size="10.00">src/graphics/mesh/mesh</text>
<text text-anchor="middle" x="512" y="-309.5" font-family="Helvetica,sans-Serif" font-size="10.00">_manager.h</text>
</a>
</g>
</g>
<!-- Node2 -->
<g id="node2" class="node">
<title>Node2</title>
<g id="a_node2"><a xlink:title=" ">
<polygon fill="white" stroke="#bfbfbf" points="28,-0.5 28,-19.5 86,-19.5 86,-0.5 28,-0.5"/>
<text text-anchor="middle" x="57" y="-7.5" font-family="Helvetica,sans-Serif" font-size="10.00">memory</text>
</a>
</g>
</g>
<!-- Node1&#45;&gt;Node2 -->
<g id="edge1" class="edge">
<title>Node1&#45;&gt;Node2</title>
<path fill="none" stroke="midnightblue" d="M444.27,-313.88C305.12,-306.65 0,-280.47 0,-190 0,-190 0,-190 0,-126.5 0,-87.78 26.07,-48.6 42.95,-27.3"/>
<polygon fill="midnightblue" stroke="midnightblue" points="45.67,-29.51 49.31,-19.56 40.26,-25.06 45.67,-29.51"/>
</g>
<!-- Node3 -->
<g id="node3" class="node">
<title>Node3</title>
<g id="a_node3"><a xlink:title=" ">
<polygon fill="white" stroke="#bfbfbf" points="559.5,-241 559.5,-260 652.5,-260 652.5,-241 559.5,-241"/>
<text text-anchor="middle" x="606" y="-248" font-family="Helvetica,sans-Serif" font-size="10.00">unordered_map</text>
</a>
</g>
</g>
<!-- Node1&#45;&gt;Node3 -->
<g id="edge2" class="edge">
<title>Node1&#45;&gt;Node3</title>
<path fill="none" stroke="midnightblue" d="M532.4,-302.4C548.01,-291.6 569.48,-276.76 585.19,-265.89"/>
<polygon fill="midnightblue" stroke="midnightblue" points="587.46,-268.57 593.7,-260.01 583.48,-262.82 587.46,-268.57"/>
</g>
<!-- Node4 -->
<g id="node4" class="node">
<title>Node4</title>
<g id="a_node4"><a xlink:title=" ">
<polygon fill="white" stroke="#bfbfbf" points="671,-241 671,-260 787,-260 787,-241 671,-241"/>
<text text-anchor="middle" x="729" y="-248" font-family="Helvetica,sans-Serif" font-size="10.00">common/singleton.h</text>
</a>
</g>
</g>
<!-- Node1&#45;&gt;Node4 -->
<g id="edge3" class="edge">
<title>Node1&#45;&gt;Node4</title>
<path fill="none" stroke="midnightblue" d="M558.82,-302.48C598.22,-290.67 653.88,-274 690.68,-262.98"/>
<polygon fill="midnightblue" stroke="midnightblue" points="691.95,-266.25 700.53,-260.03 689.94,-259.55 691.95,-266.25"/>
</g>
<!-- Node5 -->
<g id="node5" class="node">
<title>Node5</title>
<g id="a_node5"><a xlink:href="mesh_8h.html" target="_top" xlink:title=" ">
<polygon fill="white" stroke="black" points="468.5,-179.5 468.5,-198.5 595.5,-198.5 595.5,-179.5 468.5,-179.5"/>
<text text-anchor="middle" x="532" y="-186.5" font-family="Helvetica,sans-Serif" font-size="10.00">graphics/mesh/mesh.h</text>
</a>
</g>
</g>
<!-- Node1&#45;&gt;Node5 -->
<g id="edge4" class="edge">
<title>Node1&#45;&gt;Node5</title>
<path fill="none" stroke="midnightblue" d="M511.76,-302.22C511.74,-285.84 512.49,-258.24 517,-235 518.74,-226.01 521.8,-216.33 524.71,-208.26"/>
<polygon fill="midnightblue" stroke="midnightblue" points="528.03,-209.37 528.31,-198.78 521.49,-206.89 528.03,-209.37"/>
</g>
<!-- Node17 -->
<g id="node17" class="node">
<title>Node17</title>
<g id="a_node17"><a xlink:href="mesh__builder_8h.html" target="_top" xlink:title=" ">
<polygon fill="white" stroke="black" points="270,-235.5 270,-265.5 388,-265.5 388,-235.5 270,-235.5"/>
<text text-anchor="start" x="278" y="-253.5" font-family="Helvetica,sans-Serif" font-size="10.00">graphics/mesh/mesh</text>
<text text-anchor="middle" x="329" y="-242.5" font-family="Helvetica,sans-Serif" font-size="10.00">_builder.h</text>
</a>
</g>
</g>
<!-- Node1&#45;&gt;Node17 -->
<g id="edge21" class="edge">
<title>Node1&#45;&gt;Node17</title>
<path fill="none" stroke="midnightblue" d="M472.29,-302.4C444.71,-292.6 407.78,-279.48 378.31,-269.02"/>
<polygon fill="midnightblue" stroke="midnightblue" points="379.23,-265.63 368.63,-265.58 376.88,-272.22 379.23,-265.63"/>
</g>
<!-- Node22 -->
<g id="node22" class="node">
<title>Node22</title>
<g id="a_node22"><a xlink:href="file__util_8h.html" target="_top" xlink:title=" ">
<polygon fill="white" stroke="black" points="675,-179.5 675,-198.5 755,-198.5 755,-179.5 675,-179.5"/>
<text text-anchor="middle" x="715" y="-186.5" font-family="Helvetica,sans-Serif" font-size="10.00">util/file_util.h</text>
</a>
</g>
</g>
<!-- Node1&#45;&gt;Node22 -->
<g id="edge32" class="edge">
<title>Node1&#45;&gt;Node22</title>
<path fill="none" stroke="midnightblue" d="M514.92,-302.47C519.45,-284.22 529.94,-252.6 551,-235 582.96,-208.29 629.5,-197.35 664.84,-192.92"/>
<polygon fill="midnightblue" stroke="midnightblue" points="665.41,-196.37 674.96,-191.78 664.63,-189.42 665.41,-196.37"/>
</g>
<!-- Node5&#45;&gt;Node2 -->
<g id="edge5" class="edge">
<title>Node5&#45;&gt;Node2</title>
<path fill="none" stroke="midnightblue" d="M468.31,-180.08C465.16,-179.71 462.04,-179.35 459,-179 382.85,-170.31 178.04,-188 116,-143 78.51,-115.81 64.41,-59.24 59.46,-29.77"/>
<polygon fill="midnightblue" stroke="midnightblue" points="62.88,-28.97 57.94,-19.6 55.96,-30.01 62.88,-28.97"/>
</g>
<!-- Node6 -->
<g id="node6" class="node">
<title>Node6</title>
<g id="a_node6"><a xlink:title=" ">
<polygon fill="white" stroke="#bfbfbf" points="650.5,-0.5 650.5,-19.5 697.5,-19.5 697.5,-0.5 650.5,-0.5"/>
<text text-anchor="middle" x="674" y="-7.5" font-family="Helvetica,sans-Serif" font-size="10.00">vector</text>
</a>
</g>
</g>
<!-- Node5&#45;&gt;Node6 -->
<g id="edge6" class="edge">
<title>Node5&#45;&gt;Node6</title>
<path fill="none" stroke="midnightblue" d="M552.73,-179.43C586.09,-164.32 650.32,-129.38 674,-76 680.43,-61.49 679.8,-43.31 677.92,-29.87"/>
<polygon fill="midnightblue" stroke="midnightblue" points="681.34,-29.13 676.18,-19.88 674.45,-30.33 681.34,-29.13"/>
</g>
<!-- Node7 -->
<g id="node7" class="node">
<title>Node7</title>
<g id="a_node7"><a xlink:title=" ">
<polygon fill="white" stroke="#bfbfbf" points="693,-118 693,-137 737,-137 737,-118 693,-118"/>
<text text-anchor="middle" x="715" y="-125" font-family="Helvetica,sans-Serif" font-size="10.00">string</text>
</a>
</g>
</g>
<!-- Node5&#45;&gt;Node7 -->
<g id="edge7" class="edge">
<title>Node5&#45;&gt;Node7</title>
<path fill="none" stroke="midnightblue" d="M562.66,-179.45C592.57,-170.91 639.24,-157.06 679,-143 680.91,-142.33 682.86,-141.61 684.82,-140.87"/>
<polygon fill="midnightblue" stroke="midnightblue" points="686.5,-143.97 694.56,-137.09 683.97,-137.45 686.5,-143.97"/>
</g>
<!-- Node8 -->
<g id="node8" class="node">
<title>Node8</title>
<g id="a_node8"><a xlink:href="vertex_8h.html" target="_top" xlink:title=" ">
<polygon fill="white" stroke="black" points="302.5,-118 302.5,-137 433.5,-137 433.5,-118 302.5,-118"/>
<text text-anchor="middle" x="368" y="-125" font-family="Helvetica,sans-Serif" font-size="10.00">graphics/mesh/vertex.h</text>
</a>
</g>
</g>
<!-- Node5&#45;&gt;Node8 -->
<g id="edge8" class="edge">
<title>Node5&#45;&gt;Node8</title>
<path fill="none" stroke="midnightblue" d="M508.5,-179.48C480.37,-169.27 433.07,-152.11 401.21,-140.55"/>
<polygon fill="midnightblue" stroke="midnightblue" points="402.05,-137.13 391.45,-137.01 399.66,-143.71 402.05,-137.13"/>
</g>
<!-- Node10 -->
<g id="node10" class="node">
<title>Node10</title>
<g id="a_node10"><a xlink:href="mesh__instance__data_8h.html" target="_top" xlink:title=" ">
<polygon fill="white" stroke="black" points="125,-112.5 125,-142.5 243,-142.5 243,-112.5 125,-112.5"/>
<text text-anchor="start" x="133" y="-130.5" font-family="Helvetica,sans-Serif" font-size="10.00">graphics/mesh/mesh</text>
<text text-anchor="middle" x="184" y="-119.5" font-family="Helvetica,sans-Serif" font-size="10.00">_instance_data.h</text>
</a>
</g>
</g>
<!-- Node5&#45;&gt;Node10 -->
<g id="edge10" class="edge">
<title>Node5&#45;&gt;Node10</title>
<path fill="none" stroke="midnightblue" d="M482.14,-179.48C422.08,-169.21 320.83,-151.89 253.22,-140.33"/>
<polygon fill="midnightblue" stroke="midnightblue" points="253.53,-136.84 243.08,-138.6 252.35,-143.74 253.53,-136.84"/>
</g>
<!-- Node12 -->
<g id="node12" class="node">
<title>Node12</title>
<g id="a_node12"><a xlink:href="vao_8h.html" target="_top" xlink:title=" ">
<polygon fill="white" stroke="black" points="473,-118 473,-137 591,-137 591,-118 473,-118"/>
<text text-anchor="middle" x="532" y="-125" font-family="Helvetica,sans-Serif" font-size="10.00">graphics/mesh/vao.h</text>
</a>
</g>
</g>
<!-- Node5&#45;&gt;Node12 -->
<g id="edge12" class="edge">
<title>Node5&#45;&gt;Node12</title>
<path fill="none" stroke="midnightblue" d="M532,-179.48C532,-171.08 532,-157.98 532,-147.16"/>
<polygon fill="midnightblue" stroke="midnightblue" points="535.5,-147.01 532,-137.01 528.5,-147.01 535.5,-147.01"/>
</g>
<!-- Node9 -->
<g id="node9" class="node">
<title>Node9</title>
<g id="a_node9"><a xlink:title=" ">
<polygon fill="white" stroke="#bfbfbf" points="214,-56.5 214,-75.5 310,-75.5 310,-56.5 214,-56.5"/>
<text text-anchor="middle" x="262" y="-63.5" font-family="Helvetica,sans-Serif" font-size="10.00">maths/vector3.h</text>
</a>
</g>
</g>
<!-- Node8&#45;&gt;Node9 -->
<g id="edge9" class="edge">
<title>Node8&#45;&gt;Node9</title>
<path fill="none" stroke="midnightblue" d="M352.81,-117.98C335.34,-108.17 306.42,-91.93 285.92,-80.42"/>
<polygon fill="midnightblue" stroke="midnightblue" points="287.59,-77.35 277.16,-75.51 284.17,-83.46 287.59,-77.35"/>
</g>
<!-- Node11 -->
<g id="node11" class="node">
<title>Node11</title>
<g id="a_node11"><a xlink:title=" ">
<polygon fill="white" stroke="#bfbfbf" points="104,-56.5 104,-75.5 196,-75.5 196,-56.5 104,-56.5"/>
<text text-anchor="middle" x="150" y="-63.5" font-family="Helvetica,sans-Serif" font-size="10.00">maths/matrix.h</text>
</a>
</g>
</g>
<!-- Node10&#45;&gt;Node11 -->
<g id="edge11" class="edge">
<title>Node10&#45;&gt;Node11</title>
<path fill="none" stroke="midnightblue" d="M175.94,-112.4C171.15,-104.02 165.04,-93.33 159.96,-84.42"/>
<polygon fill="midnightblue" stroke="midnightblue" points="162.95,-82.6 154.95,-75.66 156.87,-86.08 162.95,-82.6"/>
</g>
<!-- Node12&#45;&gt;Node6 -->
<g id="edge14" class="edge">
<title>Node12&#45;&gt;Node6</title>
<path fill="none" stroke="midnightblue" d="M577.77,-117.97C603.76,-110.88 635,-98.22 655,-76 666.42,-63.31 671,-44.11 672.82,-29.86"/>
<polygon fill="midnightblue" stroke="midnightblue" points="676.32,-30 673.77,-19.72 669.35,-29.35 676.32,-30"/>
</g>
<!-- Node13 -->
<g id="node13" class="node">
<title>Node13</title>
<g id="a_node13"><a xlink:title=" ">
<polygon fill="white" stroke="#bfbfbf" points="464.5,-56.5 464.5,-75.5 509.5,-75.5 509.5,-56.5 464.5,-56.5"/>
<text text-anchor="middle" x="487" y="-63.5" font-family="Helvetica,sans-Serif" font-size="10.00">utility</text>
</a>
</g>
</g>
<!-- Node12&#45;&gt;Node13 -->
<g id="edge13" class="edge">
<title>Node12&#45;&gt;Node13</title>
<path fill="none" stroke="midnightblue" d="M525.55,-117.98C518.8,-109.05 508.03,-94.81 499.59,-83.64"/>
<polygon fill="midnightblue" stroke="midnightblue" points="502.26,-81.37 493.44,-75.51 496.68,-85.6 502.26,-81.37"/>
</g>
<!-- Node14 -->
<g id="node14" class="node">
<title>Node14</title>
<g id="a_node14"><a xlink:href="vbo_8h.html" target="_top" xlink:title=" ">
<polygon fill="white" stroke="black" points="328,-56.5 328,-75.5 446,-75.5 446,-56.5 328,-56.5"/>
<text text-anchor="middle" x="387" y="-63.5" font-family="Helvetica,sans-Serif" font-size="10.00">graphics/mesh/vbo.h</text>
</a>
</g>
</g>
<!-- Node12&#45;&gt;Node14 -->
<g id="edge15" class="edge">
<title>Node12&#45;&gt;Node14</title>
<path fill="none" stroke="midnightblue" d="M511.23,-117.98C486.57,-107.86 445.25,-90.9 417.1,-79.35"/>
<polygon fill="midnightblue" stroke="midnightblue" points="418.32,-76.07 407.74,-75.51 415.66,-82.54 418.32,-76.07"/>
</g>
<!-- Node16 -->
<g id="node16" class="node">
<title>Node16</title>
<g id="a_node16"><a xlink:href="ebo_8h.html" target="_top" xlink:title=" ">
<polygon fill="white" stroke="black" points="528,-56.5 528,-75.5 646,-75.5 646,-56.5 528,-56.5"/>
<text text-anchor="middle" x="587" y="-63.5" font-family="Helvetica,sans-Serif" font-size="10.00">graphics/mesh/ebo.h</text>
</a>
</g>
</g>
<!-- Node12&#45;&gt;Node16 -->
<g id="edge19" class="edge">
<title>Node12&#45;&gt;Node16</title>
<path fill="none" stroke="midnightblue" d="M539.88,-117.98C548.29,-108.87 561.82,-94.24 572.23,-82.98"/>
<polygon fill="midnightblue" stroke="midnightblue" points="574.92,-85.23 579.13,-75.51 569.78,-80.48 574.92,-85.23"/>
</g>
<!-- Node14&#45;&gt;Node2 -->
<g id="edge17" class="edge">
<title>Node14&#45;&gt;Node2</title>
<path fill="none" stroke="midnightblue" d="M334.71,-56.44C268.53,-45.61 156.02,-27.2 96.55,-17.47"/>
<polygon fill="midnightblue" stroke="midnightblue" points="96.87,-13.98 86.43,-15.82 95.74,-20.89 96.87,-13.98"/>
</g>
<!-- Node14&#45;&gt;Node6 -->
<g id="edge16" class="edge">
<title>Node14&#45;&gt;Node6</title>
<path fill="none" stroke="midnightblue" d="M432.48,-56.44C490.29,-45.56 588.78,-27.03 640.31,-17.34"/>
<polygon fill="midnightblue" stroke="midnightblue" points="641.08,-20.76 650.26,-15.47 639.79,-13.88 641.08,-20.76"/>
</g>
<!-- Node15 -->
<g id="node15" class="node">
<title>Node15</title>
<g id="a_node15"><a xlink:title=" ">
<polygon fill="white" stroke="#bfbfbf" points="455,-0.5 455,-19.5 519,-19.5 519,-0.5 455,-0.5"/>
<text text-anchor="middle" x="487" y="-7.5" font-family="Helvetica,sans-Serif" font-size="10.00">GL/glew.h</text>
</a>
</g>
</g>
<!-- Node14&#45;&gt;Node15 -->
<g id="edge18" class="edge">
<title>Node14&#45;&gt;Node15</title>
<path fill="none" stroke="midnightblue" d="M403.07,-56.32C418.96,-47.74 443.51,-34.49 461.96,-24.52"/>
<polygon fill="midnightblue" stroke="midnightblue" points="463.84,-27.49 470.97,-19.65 460.51,-21.33 463.84,-27.49"/>
</g>
<!-- Node16&#45;&gt;Node15 -->
<g id="edge20" class="edge">
<title>Node16&#45;&gt;Node15</title>
<path fill="none" stroke="midnightblue" d="M570.93,-56.32C555.04,-47.74 530.49,-34.49 512.04,-24.52"/>
<polygon fill="midnightblue" stroke="midnightblue" points="513.49,-21.33 503.03,-19.65 510.16,-27.49 513.49,-21.33"/>
</g>
<!-- Node17&#45;&gt;Node2 -->
<g id="edge23" class="edge">
<title>Node17&#45;&gt;Node2</title>
<path fill="none" stroke="midnightblue" d="M269.83,-247.07C198.11,-242.74 83.52,-230.9 57,-199 16.17,-149.89 37.76,-66.01 50.2,-29.21"/>
<polygon fill="midnightblue" stroke="midnightblue" points="53.5,-30.36 53.55,-19.77 46.91,-28.03 53.5,-30.36"/>
</g>
<!-- Node17&#45;&gt;Node5 -->
<g id="edge27" class="edge">
<title>Node17&#45;&gt;Node5</title>
<path fill="none" stroke="midnightblue" d="M376.85,-235.47C412.33,-225.08 460.09,-211.08 493.2,-201.37"/>
<polygon fill="midnightblue" stroke="midnightblue" points="494.37,-204.68 502.98,-198.51 492.4,-197.96 494.37,-204.68"/>
</g>
<!-- Node18 -->
<g id="node18" class="node">
<title>Node18</title>
<g id="a_node18"><a xlink:title=" ">
<polygon fill="white" stroke="#bfbfbf" points="66,-179.5 66,-198.5 116,-198.5 116,-179.5 66,-179.5"/>
<text text-anchor="middle" x="91" y="-186.5" font-family="Helvetica,sans-Serif" font-size="10.00">cstring</text>
</a>
</g>
</g>
<!-- Node17&#45;&gt;Node18 -->
<g id="edge22" class="edge">
<title>Node17&#45;&gt;Node18</title>
<path fill="none" stroke="midnightblue" d="M271.34,-235.49C232.77,-226.06 180.62,-213.19 126.09,-199.25"/>
<polygon fill="midnightblue" stroke="midnightblue" points="126.79,-195.82 116.24,-196.73 125.06,-202.6 126.79,-195.82"/>
</g>
<!-- Node19 -->
<g id="node19" class="node">
<title>Node19</title>
<g id="a_node19"><a xlink:title=" ">
<polygon fill="white" stroke="#bfbfbf" points="134,-179.5 134,-198.5 242,-198.5 242,-179.5 134,-179.5"/>
<text text-anchor="middle" x="188" y="-186.5" font-family="Helvetica,sans-Serif" font-size="10.00">SDL2/SDL_image.h</text>
</a>
</g>
</g>
<!-- Node17&#45;&gt;Node19 -->
<g id="edge24" class="edge">
<title>Node17&#45;&gt;Node19</title>
<path fill="none" stroke="midnightblue" d="M295.58,-235.4C272.03,-225.46 240.76,-212.26 218.01,-202.66"/>
<polygon fill="midnightblue" stroke="midnightblue" points="219.09,-199.32 208.52,-198.66 216.37,-205.77 219.09,-199.32"/>
</g>
<!-- Node20 -->
<g id="node20" class="node">
<title>Node20</title>
<g id="a_node20"><a xlink:title=" ">
<polygon fill="white" stroke="#bfbfbf" points="260.5,-179.5 260.5,-198.5 319.5,-198.5 319.5,-179.5 260.5,-179.5"/>
<text text-anchor="middle" x="290" y="-186.5" font-family="Helvetica,sans-Serif" font-size="10.00">log/log.h</text>
</a>
</g>
</g>
<!-- Node17&#45;&gt;Node20 -->
<g id="edge25" class="edge">
<title>Node17&#45;&gt;Node20</title>
<path fill="none" stroke="midnightblue" d="M319.76,-235.4C314.21,-226.93 307.11,-216.1 301.23,-207.14"/>
<polygon fill="midnightblue" stroke="midnightblue" points="304.08,-205.1 295.67,-198.66 298.23,-208.94 304.08,-205.1"/>
</g>
<!-- Node21 -->
<g id="node21" class="node">
<title>Node21</title>
<g id="a_node21"><a xlink:title=" ">
<polygon fill="white" stroke="#bfbfbf" points="337.5,-179.5 337.5,-198.5 450.5,-198.5 450.5,-179.5 337.5,-179.5"/>
<text text-anchor="middle" x="394" y="-186.5" font-family="Helvetica,sans-Serif" font-size="10.00">maths/matrix_util.h</text>
</a>
</g>
</g>
<!-- Node17&#45;&gt;Node21 -->
<g id="edge26" class="edge">
<title>Node17&#45;&gt;Node21</title>
<path fill="none" stroke="midnightblue" d="M344.4,-235.4C354.24,-226.4 366.99,-214.72 377.11,-205.47"/>
<polygon fill="midnightblue" stroke="midnightblue" points="379.53,-207.99 384.54,-198.66 374.8,-202.83 379.53,-207.99"/>
</g>
<!-- Node17&#45;&gt;Node22 -->
<g id="edge28" class="edge">
<title>Node17&#45;&gt;Node22</title>
<path fill="none" stroke="midnightblue" d="M388.05,-240.4C463.73,-228.73 593.65,-208.71 664.8,-197.74"/>
<polygon fill="midnightblue" stroke="midnightblue" points="665.51,-201.17 674.86,-196.19 664.44,-194.25 665.51,-201.17"/>
</g>
<!-- Node22&#45;&gt;Node7 -->
<g id="edge29" class="edge">
<title>Node22&#45;&gt;Node7</title>
<path fill="none" stroke="midnightblue" d="M715,-179.48C715,-171.08 715,-157.98 715,-147.16"/>
<polygon fill="midnightblue" stroke="midnightblue" points="718.5,-147.01 715,-137.01 711.5,-147.01 718.5,-147.01"/>
</g>
<!-- Node23 -->
<g id="node23" class="node">
<title>Node23</title>
<g id="a_node23"><a xlink:title=" ">
<polygon fill="white" stroke="#bfbfbf" points="829.5,-118 829.5,-137 884.5,-137 884.5,-118 829.5,-118"/>
<text text-anchor="middle" x="857" y="-125" font-family="Helvetica,sans-Serif" font-size="10.00">fstream</text>
</a>
</g>
</g>
<!-- Node22&#45;&gt;Node23 -->
<g id="edge30" class="edge">
<title>Node22&#45;&gt;Node23</title>
<path fill="none" stroke="midnightblue" d="M735.35,-179.48C759.39,-169.4 799.6,-152.55 827.16,-141"/>
<polygon fill="midnightblue" stroke="midnightblue" points="828.82,-144.1 836.69,-137.01 826.12,-137.65 828.82,-144.1"/>
</g>
<!-- Node24 -->
<g id="node24" class="node">
<title>Node24</title>
<g id="a_node24"><a xlink:title=" ">
<polygon fill="white" stroke="#bfbfbf" points="755,-118 755,-137 811,-137 811,-118 755,-118"/>
<text text-anchor="middle" x="783" y="-125" font-family="Helvetica,sans-Serif" font-size="10.00">sstream</text>
</a>
</g>
</g>
<!-- Node22&#45;&gt;Node24 -->
<g id="edge31" class="edge">
<title>Node22&#45;&gt;Node24</title>
<path fill="none" stroke="midnightblue" d="M724.74,-179.48C735.35,-170.2 752.52,-155.17 765.48,-143.83"/>
<polygon fill="midnightblue" stroke="midnightblue" points="768.05,-146.23 773.28,-137.01 763.44,-140.96 768.05,-146.23"/>
</g>
</g>
</svg>
