<?xml version="1.0" encoding="UTF-8" standalone="no"?>
<!DOCTYPE svg PUBLIC "-//W3C//DTD SVG 1.1//EN"
 "http://www.w3.org/Graphics/SVG/1.1/DTD/svg11.dtd">
<!-- Generated by graphviz version 2.43.0 (0)
 -->
<!-- Title: src/graphics/mesh/mesh_builder.h Pages: 1 -->
<!--zoomable 274 -->
<svg id="main" version="1.1" xmlns="http://www.w3.org/2000/svg" xmlns:xlink="http://www.w3.org/1999/xlink" xml:space="preserve" onload="init(evt)">
<style type="text/css"><![CDATA[
.edge:hover path { stroke: red; }
.edge:hover polygon { stroke: red; fill: red; }
]]></style>
<script type="text/javascript"><![CDATA[
var edges = document.getElementsByTagName('g');
if (edges && edges.length) {
  for (var i=0;i<edges.length;i++) {
    if (edges[i].id.substr(0,4)=='edge') {
      edges[i].setAttribute('class','edge');
    }
  }
}
]]></script>
        <defs>
                <circle id="rim" cx="0" cy="0" r="7"/>
                <circle id="rim2" cx="0" cy="0" r="3.5"/>
                <g id="zoomPlus">
                        <use xlink:href="#rim" fill="#404040">
                                <set attributeName="fill" to="#808080" begin="zoomplus.mouseover" end="zoomplus.mouseout"/>
                        </use>
                        <path d="M-4,0h8M0,-4v8" fill="none" stroke="white" stroke-width="1.5" pointer-events="none"/>
                </g>
                <g id="zoomMin">
                        <use xlink:href="#rim" fill="#404040">
                                <set attributeName="fill" to="#808080" begin="zoomminus.mouseover" end="zoomminus.mouseout"/>
                        </use>
                        <path d="M-4,0h8" fill="none" stroke="white" stroke-width="1.5" pointer-events="none"/>
                </g>
                <g id="dirArrow">
                        <path fill="none" stroke="white" stroke-width="1.5" d="M0,-3.0v7 M-2.5,-0.5L0,-3.0L2.5,-0.5"/>
                </g>
               <g id="resetDef">
                       <use xlink:href="#rim2" fill="#404040">
                               <set attributeName="fill" to="#808080" begin="reset.mouseover" end="reset.mouseout"/>
                       </use>
               </g>
        </defs>

<script type="text/javascript">
var viewWidth = 1379;
var viewHeight = 274;
var sectionId = 'dynsection-0';
</script>
<script xlink:href="svgpan.js"/>
<svg id="graph" class="graph">
<g id="viewport">
<title>src/graphics/mesh/mesh_builder.h</title>
<polygon fill="white" stroke="transparent" points="-4,4 -4,-270 1375,-270 1375,4 -4,4"/>
<!-- Node1 -->
<g id="node1" class="node">
<title>Node1</title>
<g id="a_node1"><a xlink:title=" ">
<polygon fill="#bfbfbf" stroke="black" points="786.5,-235.5 786.5,-265.5 921.5,-265.5 921.5,-235.5 786.5,-235.5"/>
<text text-anchor="start" x="794.5" y="-253.5" font-family="Helvetica,sans-Serif" font-size="10.00">src/graphics/mesh/mesh</text>
<text text-anchor="middle" x="854" y="-242.5" font-family="Helvetica,sans-Serif" font-size="10.00">_builder.h</text>
</a>
</g>
</g>
<!-- Node2 -->
<g id="node2" class="node">
<title>Node2</title>
<g id="a_node2"><a xlink:title=" ">
<polygon fill="white" stroke="#bfbfbf" points="0,-179.5 0,-198.5 50,-198.5 50,-179.5 0,-179.5"/>
<text text-anchor="middle" x="25" y="-186.5" font-family="Helvetica,sans-Serif" font-size="10.00">cstring</text>
</a>
</g>
</g>
<!-- Node1&#45;&gt;Node2 -->
<g id="edge1" class="edge">
<title>Node1&#45;&gt;Node2</title>
<path fill="none" stroke="midnightblue" d="M786.24,-248.88C649.15,-246.81 329.34,-237.83 64,-199 62.72,-198.81 61.43,-198.61 60.12,-198.38"/>
<polygon fill="midnightblue" stroke="midnightblue" points="60.55,-194.9 50.06,-196.42 59.2,-201.77 60.55,-194.9"/>
</g>
<!-- Node3 -->
<g id="node3" class="node">
<title>Node3</title>
<g id="a_node3"><a xlink:title=" ">
<polygon fill="white" stroke="#bfbfbf" points="87,-0.5 87,-19.5 145,-19.5 145,-0.5 87,-0.5"/>
<text text-anchor="middle" x="116" y="-7.5" font-family="Helvetica,sans-Serif" font-size="10.00">memory</text>
</a>
</g>
</g>
<!-- Node1&#45;&gt;Node3 -->
<g id="edge2" class="edge">
<title>Node1&#45;&gt;Node3</title>
<path fill="none" stroke="midnightblue" d="M786.28,-247.87C629.57,-242.76 247.98,-222.3 152,-143 118.21,-115.09 114.43,-58.84 114.95,-29.6"/>
<polygon fill="midnightblue" stroke="midnightblue" points="118.45,-29.64 115.32,-19.52 111.46,-29.38 118.45,-29.64"/>
</g>
<!-- Node4 -->
<g id="node4" class="node">
<title>Node4</title>
<g id="a_node4"><a xlink:title=" ">
<polygon fill="white" stroke="#bfbfbf" points="1000,-179.5 1000,-198.5 1108,-198.5 1108,-179.5 1000,-179.5"/>
<text text-anchor="middle" x="1054" y="-186.5" font-family="Helvetica,sans-Serif" font-size="10.00">SDL2/SDL_image.h</text>
</a>
</g>
</g>
<!-- Node1&#45;&gt;Node4 -->
<g id="edge3" class="edge">
<title>Node1&#45;&gt;Node4</title>
<path fill="none" stroke="midnightblue" d="M901.14,-235.47C936.1,-225.08 983.15,-211.08 1015.77,-201.37"/>
<polygon fill="midnightblue" stroke="midnightblue" points="1016.82,-204.71 1025.41,-198.51 1014.82,-198 1016.82,-204.71"/>
</g>
<!-- Node5 -->
<g id="node5" class="node">
<title>Node5</title>
<g id="a_node5"><a xlink:href="log_8h.html" target="_top" xlink:title=" ">
<polygon fill="white" stroke="black" points="824.5,-179.5 824.5,-198.5 883.5,-198.5 883.5,-179.5 824.5,-179.5"/>
<text text-anchor="middle" x="854" y="-186.5" font-family="Helvetica,sans-Serif" font-size="10.00">log/log.h</text>
</a>
</g>
</g>
<!-- Node1&#45;&gt;Node5 -->
<g id="edge4" class="edge">
<title>Node1&#45;&gt;Node5</title>
<path fill="none" stroke="midnightblue" d="M854,-235.4C854,-227.47 854,-217.46 854,-208.86"/>
<polygon fill="midnightblue" stroke="midnightblue" points="857.5,-208.66 854,-198.66 850.5,-208.66 857.5,-208.66"/>
</g>
<!-- Node12 -->
<g id="node12" class="node">
<title>Node12</title>
<g id="a_node12"><a xlink:title=" ">
<polygon fill="white" stroke="#bfbfbf" points="1126.5,-179.5 1126.5,-198.5 1239.5,-198.5 1239.5,-179.5 1126.5,-179.5"/>
<text text-anchor="middle" x="1183" y="-186.5" font-family="Helvetica,sans-Serif" font-size="10.00">maths/matrix_util.h</text>
</a>
</g>
</g>
<!-- Node1&#45;&gt;Node12 -->
<g id="edge11" class="edge">
<title>Node1&#45;&gt;Node12</title>
<path fill="none" stroke="midnightblue" d="M921.77,-237.24C981.93,-226.36 1068.85,-210.64 1125.63,-200.37"/>
<polygon fill="midnightblue" stroke="midnightblue" points="1126.3,-203.81 1135.52,-198.59 1125.06,-196.92 1126.3,-203.81"/>
</g>
<!-- Node13 -->
<g id="node13" class="node">
<title>Node13</title>
<g id="a_node13"><a xlink:href="mesh_8h.html" target="_top" xlink:title=" ">
<polygon fill="white" stroke="black" points="428.5,-179.5 428.5,-198.5 555.5,-198.5 555.5,-179.5 428.5,-179.5"/>
<text text-anchor="middle" x="492" y="-186.5" font-family="Helvetica,sans-Serif" font-size="10.00">graphics/mesh/mesh.h</text>
</a>
</g>
</g>
<!-- Node1&#45;&gt;Node13 -->
<g id="edge12" class="edge">
<title>Node1&#45;&gt;Node13</title>
<path fill="none" stroke="midnightblue" d="M786.34,-238.38C719.61,-227.41 618.5,-210.79 553.86,-200.17"/>
<polygon fill="midnightblue" stroke="midnightblue" points="554.25,-196.68 543.81,-198.52 553.11,-203.59 554.25,-196.68"/>
</g>
<!-- Node24 -->
<g id="node24" class="node">
<title>Node24</title>
<g id="a_node24"><a xlink:href="file__util_8h.html" target="_top" xlink:title=" ">
<polygon fill="white" stroke="black" points="902,-179.5 902,-198.5 982,-198.5 982,-179.5 902,-179.5"/>
<text text-anchor="middle" x="942" y="-186.5" font-family="Helvetica,sans-Serif" font-size="10.00">util/file_util.h</text>
</a>
</g>
</g>
<!-- Node1&#45;&gt;Node24 -->
<g id="edge30" class="edge">
<title>Node1&#45;&gt;Node24</title>
<path fill="none" stroke="midnightblue" d="M874.85,-235.4C888.7,-226.04 906.81,-213.79 920.74,-204.38"/>
<polygon fill="midnightblue" stroke="midnightblue" points="922.87,-207.16 929.2,-198.66 918.95,-201.36 922.87,-207.16"/>
</g>
<!-- Node6 -->
<g id="node6" class="node">
<title>Node6</title>
<g id="a_node6"><a xlink:title=" ">
<polygon fill="white" stroke="#bfbfbf" points="1010.5,-56.5 1010.5,-75.5 1055.5,-75.5 1055.5,-56.5 1010.5,-56.5"/>
<text text-anchor="middle" x="1033" y="-63.5" font-family="Helvetica,sans-Serif" font-size="10.00">utility</text>
</a>
</g>
</g>
<!-- Node5&#45;&gt;Node6 -->
<g id="edge5" class="edge">
<title>Node5&#45;&gt;Node6</title>
<path fill="none" stroke="midnightblue" d="M883.74,-180.79C886.86,-180.14 889.99,-179.53 893,-179 959.36,-167.41 1149.28,-193.38 1194,-143 1233.31,-98.71 1123.62,-78.15 1065.92,-70.6"/>
<polygon fill="midnightblue" stroke="midnightblue" points="1066.16,-67.11 1055.8,-69.34 1065.3,-74.05 1066.16,-67.11"/>
</g>
<!-- Node7 -->
<g id="node7" class="node">
<title>Node7</title>
<g id="a_node7"><a xlink:title=" ">
<polygon fill="white" stroke="#bfbfbf" points="874,-118 874,-137 918,-137 918,-118 874,-118"/>
<text text-anchor="middle" x="896" y="-125" font-family="Helvetica,sans-Serif" font-size="10.00">string</text>
</a>
</g>
</g>
<!-- Node5&#45;&gt;Node7 -->
<g id="edge6" class="edge">
<title>Node5&#45;&gt;Node7</title>
<path fill="none" stroke="midnightblue" d="M860.02,-179.48C866.26,-170.64 876.17,-156.59 884.02,-145.48"/>
<polygon fill="midnightblue" stroke="midnightblue" points="887.09,-147.2 889.99,-137.01 881.37,-143.16 887.09,-147.2"/>
</g>
<!-- Node8 -->
<g id="node8" class="node">
<title>Node8</title>
<g id="a_node8"><a xlink:title=" ">
<polygon fill="white" stroke="#bfbfbf" points="656.5,-118 656.5,-137 749.5,-137 749.5,-118 656.5,-118"/>
<text text-anchor="middle" x="703" y="-125" font-family="Helvetica,sans-Serif" font-size="10.00">spdlog/spdlog.h</text>
</a>
</g>
</g>
<!-- Node5&#45;&gt;Node8 -->
<g id="edge7" class="edge">
<title>Node5&#45;&gt;Node8</title>
<path fill="none" stroke="midnightblue" d="M832.37,-179.48C806.58,-169.31 763.29,-152.26 733.96,-140.7"/>
<polygon fill="midnightblue" stroke="midnightblue" points="735.18,-137.42 724.59,-137.01 732.62,-143.93 735.18,-137.42"/>
</g>
<!-- Node9 -->
<g id="node9" class="node">
<title>Node9</title>
<g id="a_node9"><a xlink:title=" ">
<polygon fill="white" stroke="#bfbfbf" points="767.5,-118 767.5,-137 856.5,-137 856.5,-118 767.5,-118"/>
<text text-anchor="middle" x="812" y="-125" font-family="Helvetica,sans-Serif" font-size="10.00">spdlog/async.h</text>
</a>
</g>
</g>
<!-- Node5&#45;&gt;Node9 -->
<g id="edge8" class="edge">
<title>Node5&#45;&gt;Node9</title>
<path fill="none" stroke="midnightblue" d="M847.98,-179.48C841.74,-170.64 831.83,-156.59 823.98,-145.48"/>
<polygon fill="midnightblue" stroke="midnightblue" points="826.63,-143.16 818.01,-137.01 820.91,-147.2 826.63,-143.16"/>
</g>
<!-- Node10 -->
<g id="node10" class="node">
<title>Node10</title>
<g id="a_node10"><a xlink:title=" ">
<polygon fill="white" stroke="#bfbfbf" points="936.5,-112.5 936.5,-142.5 1055.5,-142.5 1055.5,-112.5 936.5,-112.5"/>
<text text-anchor="start" x="944.5" y="-130.5" font-family="Helvetica,sans-Serif" font-size="10.00">spdlog/sinks/rotating</text>
<text text-anchor="middle" x="996" y="-119.5" font-family="Helvetica,sans-Serif" font-size="10.00">_file_sink.h</text>
</a>
</g>
</g>
<!-- Node5&#45;&gt;Node10 -->
<g id="edge9" class="edge">
<title>Node5&#45;&gt;Node10</title>
<path fill="none" stroke="midnightblue" d="M874.35,-179.48C894.84,-170.89 927.07,-157.38 953.21,-146.43"/>
<polygon fill="midnightblue" stroke="midnightblue" points="954.66,-149.62 962.53,-142.52 951.96,-143.16 954.66,-149.62"/>
</g>
<!-- Node11 -->
<g id="node11" class="node">
<title>Node11</title>
<g id="a_node11"><a xlink:title=" ">
<polygon fill="white" stroke="#bfbfbf" points="1073.5,-112.5 1073.5,-142.5 1184.5,-142.5 1184.5,-112.5 1073.5,-112.5"/>
<text text-anchor="start" x="1081.5" y="-130.5" font-family="Helvetica,sans-Serif" font-size="10.00">spdlog/sinks/stdout</text>
<text text-anchor="middle" x="1129" y="-119.5" font-family="Helvetica,sans-Serif" font-size="10.00">_color_sinks.h</text>
</a>
</g>
</g>
<!-- Node5&#45;&gt;Node11 -->
<g id="edge10" class="edge">
<title>Node5&#45;&gt;Node11</title>
<path fill="none" stroke="midnightblue" d="M883.8,-181.06C886.9,-180.35 890.01,-179.66 893,-179 966.15,-162.91 987,-159.87 1063.09,-143.4"/>
<polygon fill="midnightblue" stroke="midnightblue" points="1064.14,-146.75 1073.16,-141.21 1062.65,-139.91 1064.14,-146.75"/>
</g>
<!-- Node13&#45;&gt;Node3 -->
<g id="edge13" class="edge">
<title>Node13&#45;&gt;Node3</title>
<path fill="none" stroke="midnightblue" d="M428.21,-184.17C351.13,-178.59 226.81,-166.25 187,-143 145.16,-118.56 126.62,-59.84 119.62,-29.63"/>
<polygon fill="midnightblue" stroke="midnightblue" points="122.99,-28.64 117.48,-19.58 116.14,-30.09 122.99,-28.64"/>
</g>
<!-- Node13&#45;&gt;Node7 -->
<g id="edge15" class="edge">
<title>Node13&#45;&gt;Node7</title>
<path fill="none" stroke="midnightblue" d="M555.81,-186.69C631.3,-183.7 760.09,-174.03 866,-143 867.87,-142.45 869.77,-141.79 871.66,-141.07"/>
<polygon fill="midnightblue" stroke="midnightblue" points="873.08,-144.27 880.82,-137.04 870.26,-137.86 873.08,-144.27"/>
</g>
<!-- Node14 -->
<g id="node14" class="node">
<title>Node14</title>
<g id="a_node14"><a xlink:title=" ">
<polygon fill="white" stroke="#bfbfbf" points="506.5,-0.5 506.5,-19.5 553.5,-19.5 553.5,-0.5 506.5,-0.5"/>
<text text-anchor="middle" x="530" y="-7.5" font-family="Helvetica,sans-Serif" font-size="10.00">vector</text>
</a>
</g>
</g>
<!-- Node13&#45;&gt;Node14 -->
<g id="edge14" class="edge">
<title>Node13&#45;&gt;Node14</title>
<path fill="none" stroke="midnightblue" d="M493.83,-179.46C499.64,-152.43 517.71,-68.24 525.9,-30.11"/>
<polygon fill="midnightblue" stroke="midnightblue" points="529.42,-30.38 528.1,-19.87 522.57,-28.91 529.42,-30.38"/>
</g>
<!-- Node15 -->
<g id="node15" class="node">
<title>Node15</title>
<g id="a_node15"><a xlink:href="vertex_8h.html" target="_top" xlink:title=" ">
<polygon fill="white" stroke="black" points="196.5,-118 196.5,-137 327.5,-137 327.5,-118 196.5,-118"/>
<text text-anchor="middle" x="262" y="-125" font-family="Helvetica,sans-Serif" font-size="10.00">graphics/mesh/vertex.h</text>
</a>
</g>
</g>
<!-- Node13&#45;&gt;Node15 -->
<g id="edge16" class="edge">
<title>Node13&#45;&gt;Node15</title>
<path fill="none" stroke="midnightblue" d="M459.05,-179.48C418.4,-168.96 349.21,-151.06 304.58,-139.51"/>
<polygon fill="midnightblue" stroke="midnightblue" points="305.45,-136.13 294.89,-137.01 303.7,-142.9 305.45,-136.13"/>
</g>
<!-- Node18 -->
<g id="node18" class="node">
<title>Node18</title>
<g id="a_node18"><a xlink:href="mesh__instance__data_8h.html" target="_top" xlink:title=" ">
<polygon fill="white" stroke="black" points="346,-112.5 346,-142.5 464,-142.5 464,-112.5 346,-112.5"/>
<text text-anchor="start" x="354" y="-130.5" font-family="Helvetica,sans-Serif" font-size="10.00">graphics/mesh/mesh</text>
<text text-anchor="middle" x="405" y="-119.5" font-family="Helvetica,sans-Serif" font-size="10.00">_instance_data.h</text>
</a>
</g>
</g>
<!-- Node13&#45;&gt;Node18 -->
<g id="edge19" class="edge">
<title>Node13&#45;&gt;Node18</title>
<path fill="none" stroke="midnightblue" d="M479.54,-179.48C467.64,-171.34 449.29,-158.79 433.77,-148.18"/>
<polygon fill="midnightblue" stroke="midnightblue" points="435.73,-145.28 425.5,-142.52 431.78,-151.06 435.73,-145.28"/>
</g>
<!-- Node20 -->
<g id="node20" class="node">
<title>Node20</title>
<g id="a_node20"><a xlink:href="vao_8h.html" target="_top" xlink:title=" ">
<polygon fill="white" stroke="black" points="520,-118 520,-137 638,-137 638,-118 520,-118"/>
<text text-anchor="middle" x="579" y="-125" font-family="Helvetica,sans-Serif" font-size="10.00">graphics/mesh/vao.h</text>
</a>
</g>
</g>
<!-- Node13&#45;&gt;Node20 -->
<g id="edge21" class="edge">
<title>Node13&#45;&gt;Node20</title>
<path fill="none" stroke="midnightblue" d="M504.46,-179.48C518.42,-169.93 541.26,-154.31 557.99,-142.87"/>
<polygon fill="midnightblue" stroke="midnightblue" points="560.28,-145.54 566.56,-137.01 556.33,-139.77 560.28,-145.54"/>
</g>
<!-- Node16 -->
<g id="node16" class="node">
<title>Node16</title>
<g id="a_node16"><a xlink:title=" ">
<polygon fill="white" stroke="#bfbfbf" points="258,-56.5 258,-75.5 354,-75.5 354,-56.5 258,-56.5"/>
<text text-anchor="middle" x="306" y="-63.5" font-family="Helvetica,sans-Serif" font-size="10.00">maths/vector2.h</text>
</a>
</g>
</g>
<!-- Node15&#45;&gt;Node16 -->
<g id="edge17" class="edge">
<title>Node15&#45;&gt;Node16</title>
<path fill="none" stroke="midnightblue" d="M268.3,-117.98C274.9,-109.05 285.44,-94.81 293.69,-83.64"/>
<polygon fill="midnightblue" stroke="midnightblue" points="296.58,-85.63 299.71,-75.51 290.95,-81.47 296.58,-85.63"/>
</g>
<!-- Node17 -->
<g id="node17" class="node">
<title>Node17</title>
<g id="a_node17"><a xlink:title=" ">
<polygon fill="white" stroke="#bfbfbf" points="144,-56.5 144,-75.5 240,-75.5 240,-56.5 144,-56.5"/>
<text text-anchor="middle" x="192" y="-63.5" font-family="Helvetica,sans-Serif" font-size="10.00">maths/vector3.h</text>
</a>
</g>
</g>
<!-- Node15&#45;&gt;Node17 -->
<g id="edge18" class="edge">
<title>Node15&#45;&gt;Node17</title>
<path fill="none" stroke="midnightblue" d="M251.97,-117.98C240.95,-108.61 223.04,-93.38 209.66,-82.01"/>
<polygon fill="midnightblue" stroke="midnightblue" points="211.9,-79.32 202.01,-75.51 207.36,-84.65 211.9,-79.32"/>
</g>
<!-- Node19 -->
<g id="node19" class="node">
<title>Node19</title>
<g id="a_node19"><a xlink:title=" ">
<polygon fill="white" stroke="#bfbfbf" points="372,-56.5 372,-75.5 464,-75.5 464,-56.5 372,-56.5"/>
<text text-anchor="middle" x="418" y="-63.5" font-family="Helvetica,sans-Serif" font-size="10.00">maths/matrix.h</text>
</a>
</g>
</g>
<!-- Node18&#45;&gt;Node19 -->
<g id="edge20" class="edge">
<title>Node18&#45;&gt;Node19</title>
<path fill="none" stroke="midnightblue" d="M408.08,-112.4C409.83,-104.38 412.05,-94.23 413.94,-85.57"/>
<polygon fill="midnightblue" stroke="midnightblue" points="417.39,-86.17 416.11,-75.66 410.55,-84.68 417.39,-86.17"/>
</g>
<!-- Node20&#45;&gt;Node6 -->
<g id="edge22" class="edge">
<title>Node20&#45;&gt;Node6</title>
<path fill="none" stroke="midnightblue" d="M616.49,-117.98C626.67,-115.84 637.73,-113.68 648,-112 777.6,-90.85 933.32,-75.8 1000.04,-69.84"/>
<polygon fill="midnightblue" stroke="midnightblue" points="1000.68,-73.29 1010.33,-68.92 1000.07,-66.32 1000.68,-73.29"/>
</g>
<!-- Node20&#45;&gt;Node14 -->
<g id="edge23" class="edge">
<title>Node20&#45;&gt;Node14</title>
<path fill="none" stroke="midnightblue" d="M572.99,-117.92C566.36,-108.15 555.75,-91.52 549,-76 542.41,-60.84 537.32,-42.72 534.08,-29.47"/>
<polygon fill="midnightblue" stroke="midnightblue" points="537.47,-28.6 531.8,-19.65 530.65,-30.19 537.47,-28.6"/>
</g>
<!-- Node21 -->
<g id="node21" class="node">
<title>Node21</title>
<g id="a_node21"><a xlink:href="vbo_8h.html" target="_top" xlink:title=" ">
<polygon fill="white" stroke="black" points="558,-56.5 558,-75.5 676,-75.5 676,-56.5 558,-56.5"/>
<text text-anchor="middle" x="617" y="-63.5" font-family="Helvetica,sans-Serif" font-size="10.00">graphics/mesh/vbo.h</text>
</a>
</g>
</g>
<!-- Node20&#45;&gt;Node21 -->
<g id="edge24" class="edge">
<title>Node20&#45;&gt;Node21</title>
<path fill="none" stroke="midnightblue" d="M584.44,-117.98C590.09,-109.14 599.06,-95.09 606.16,-83.98"/>
<polygon fill="midnightblue" stroke="midnightblue" points="609.13,-85.82 611.57,-75.51 603.23,-82.05 609.13,-85.82"/>
</g>
<!-- Node23 -->
<g id="node23" class="node">
<title>Node23</title>
<g id="a_node23"><a xlink:href="ebo_8h.html" target="_top" xlink:title=" ">
<polygon fill="white" stroke="black" points="694,-56.5 694,-75.5 812,-75.5 812,-56.5 694,-56.5"/>
<text text-anchor="middle" x="753" y="-63.5" font-family="Helvetica,sans-Serif" font-size="10.00">graphics/mesh/ebo.h</text>
</a>
</g>
</g>
<!-- Node20&#45;&gt;Node23 -->
<g id="edge28" class="edge">
<title>Node20&#45;&gt;Node23</title>
<path fill="none" stroke="midnightblue" d="M603.93,-117.98C634.04,-107.68 684.83,-90.31 718.64,-78.75"/>
<polygon fill="midnightblue" stroke="midnightblue" points="719.79,-82.06 728.12,-75.51 717.52,-75.43 719.79,-82.06"/>
</g>
<!-- Node21&#45;&gt;Node3 -->
<g id="edge26" class="edge">
<title>Node21&#45;&gt;Node3</title>
<path fill="none" stroke="midnightblue" d="M557.56,-58.59C453.82,-47.41 242.45,-24.63 155.11,-15.22"/>
<polygon fill="midnightblue" stroke="midnightblue" points="155.41,-11.73 145.09,-14.14 154.66,-18.69 155.41,-11.73"/>
</g>
<!-- Node21&#45;&gt;Node14 -->
<g id="edge25" class="edge">
<title>Node21&#45;&gt;Node14</title>
<path fill="none" stroke="midnightblue" d="M603.02,-56.32C589.45,-47.9 568.62,-34.97 552.68,-25.07"/>
<polygon fill="midnightblue" stroke="midnightblue" points="554.29,-21.95 543.94,-19.65 550.59,-27.9 554.29,-21.95"/>
</g>
<!-- Node22 -->
<g id="node22" class="node">
<title>Node22</title>
<g id="a_node22"><a xlink:title=" ">
<polygon fill="white" stroke="#bfbfbf" points="653,-0.5 653,-19.5 717,-19.5 717,-0.5 653,-0.5"/>
<text text-anchor="middle" x="685" y="-7.5" font-family="Helvetica,sans-Serif" font-size="10.00">GL/glew.h</text>
</a>
</g>
</g>
<!-- Node21&#45;&gt;Node22 -->
<g id="edge27" class="edge">
<title>Node21&#45;&gt;Node22</title>
<path fill="none" stroke="midnightblue" d="M627.93,-56.32C638.17,-48.18 653.72,-35.84 666,-26.09"/>
<polygon fill="midnightblue" stroke="midnightblue" points="668.22,-28.79 673.88,-19.83 663.87,-23.31 668.22,-28.79"/>
</g>
<!-- Node23&#45;&gt;Node22 -->
<g id="edge29" class="edge">
<title>Node23&#45;&gt;Node22</title>
<path fill="none" stroke="midnightblue" d="M742.07,-56.32C731.83,-48.18 716.28,-35.84 704,-26.09"/>
<polygon fill="midnightblue" stroke="midnightblue" points="706.13,-23.31 696.12,-19.83 701.78,-28.79 706.13,-23.31"/>
</g>
<!-- Node24&#45;&gt;Node7 -->
<g id="edge31" class="edge">
<title>Node24&#45;&gt;Node7</title>
<path fill="none" stroke="midnightblue" d="M935.41,-179.48C928.51,-170.55 917.5,-156.31 908.87,-145.14"/>
<polygon fill="midnightblue" stroke="midnightblue" points="911.46,-142.78 902.58,-137.01 905.93,-147.06 911.46,-142.78"/>
</g>
<!-- Node25 -->
<g id="node25" class="node">
<title>Node25</title>
<g id="a_node25"><a xlink:title=" ">
<polygon fill="white" stroke="#bfbfbf" points="1241.5,-118 1241.5,-137 1296.5,-137 1296.5,-118 1241.5,-118"/>
<text text-anchor="middle" x="1269" y="-125" font-family="Helvetica,sans-Serif" font-size="10.00">fstream</text>
</a>
</g>
</g>
<!-- Node24&#45;&gt;Node25 -->
<g id="edge32" class="edge">
<title>Node24&#45;&gt;Node25</title>
<path fill="none" stroke="midnightblue" d="M982.09,-180.53C985.11,-180 988.1,-179.49 991,-179 1095.63,-161.41 1123.99,-168.42 1227,-143 1230.22,-142.21 1233.54,-141.27 1236.85,-140.26"/>
<polygon fill="midnightblue" stroke="midnightblue" points="1238.14,-143.52 1246.56,-137.09 1235.96,-136.87 1238.14,-143.52"/>
</g>
<!-- Node26 -->
<g id="node26" class="node">
<title>Node26</title>
<g id="a_node26"><a xlink:title=" ">
<polygon fill="white" stroke="#bfbfbf" points="1315,-118 1315,-137 1371,-137 1371,-118 1315,-118"/>
<text text-anchor="middle" x="1343" y="-125" font-family="Helvetica,sans-Serif" font-size="10.00">sstream</text>
</a>
</g>
</g>
<!-- Node24&#45;&gt;Node26 -->
<g id="edge33" class="edge">
<title>Node24&#45;&gt;Node26</title>
<path fill="none" stroke="midnightblue" d="M982.07,-180.41C985.09,-179.91 988.09,-179.43 991,-179 1130.38,-158.26 1169.25,-176.99 1306,-143 1308.67,-142.34 1311.41,-141.53 1314.12,-140.64"/>
<polygon fill="midnightblue" stroke="midnightblue" points="1315.52,-143.85 1323.72,-137.15 1313.13,-137.27 1315.52,-143.85"/>
</g>
</g>
</svg>
        <g id="navigator" transform="translate(0 0)" fill="#404254">
                <rect fill="#f2f5e9" fill-opacity="0.5" stroke="#606060" stroke-width=".5" x="0" y="0" width="60" height="60"/>
                <use id="zoomplus" xlink:href="#zoomPlus" x="17" y="9" onmousedown="handleZoom(evt,'in')"/>
                <use id="zoomminus" xlink:href="#zoomMin" x="42" y="9" onmousedown="handleZoom(evt,'out')"/>
                <use id="reset" xlink:href="#resetDef" x="30" y="36" onmousedown="handleReset()"/>
                <g id="arrowUp" xlink:href="#dirArrow" transform="translate(30 24)" onmousedown="handlePan(0,-1)">
                  <use xlink:href="#rim" fill="#404040">
                        <set attributeName="fill" to="#808080" begin="arrowUp.mouseover" end="arrowUp.mouseout"/>
                  </use>
                  <path fill="none" stroke="white" stroke-width="1.5" d="M0,-3.0v7 M-2.5,-0.5L0,-3.0L2.5,-0.5"/>
                </g>
                <g id="arrowRight" xlink:href="#dirArrow" transform="rotate(90) translate(36 -43)" onmousedown="handlePan(1,0)">
                  <use xlink:href="#rim" fill="#404040">
                        <set attributeName="fill" to="#808080" begin="arrowRight.mouseover" end="arrowRight.mouseout"/>
                  </use>
                  <path fill="none" stroke="white" stroke-width="1.5" d="M0,-3.0v7 M-2.5,-0.5L0,-3.0L2.5,-0.5"/>
                </g>
                <g id="arrowDown" xlink:href="#dirArrow" transform="rotate(180) translate(-30 -48)" onmousedown="handlePan(0,1)">
                  <use xlink:href="#rim" fill="#404040">
                        <set attributeName="fill" to="#808080" begin="arrowDown.mouseover" end="arrowDown.mouseout"/>
                  </use>
                  <path fill="none" stroke="white" stroke-width="1.5" d="M0,-3.0v7 M-2.5,-0.5L0,-3.0L2.5,-0.5"/>
                </g>
                <g id="arrowLeft" xlink:href="#dirArrow" transform="rotate(270) translate(-36 17)" onmousedown="handlePan(-1,0)">
                  <use xlink:href="#rim" fill="#404040">
                        <set attributeName="fill" to="#808080" begin="arrowLeft.mouseover" end="arrowLeft.mouseout"/>
                  </use>
                  <path fill="none" stroke="white" stroke-width="1.5" d="M0,-3.0v7 M-2.5,-0.5L0,-3.0L2.5,-0.5"/>
                </g>
        </g>
        <svg viewBox="0 0 15 15" width="100%" height="30px" preserveAspectRatio="xMaxYMin meet">
         <g id="arrow_out" transform="scale(0.3 0.3)">
          <a xlink:href="mesh__builder_8h__incl_org.svg" target="_base">
           <rect id="button" ry="5" rx="5" y="6" x="6" height="38" width="38"
                fill="#f2f5e9" fill-opacity="0.5" stroke="#606060" stroke-width="1.0"/>
           <path id="arrow"
             d="M 11.500037,31.436501 C 11.940474,20.09759 22.043105,11.32322 32.158766,21.979434 L 37.068811,17.246167 C 37.068811,17.246167 37.088388,32 37.088388,32 L 22.160133,31.978069 C 22.160133,31.978069 26.997745,27.140456 26.997745,27.140456 C 18.528582,18.264221 13.291696,25.230495 11.500037,31.436501 z"
             style="fill:#404040;"/>
          </a>
         </g>
        </svg>
</svg>
