<?xml version="1.0" encoding="UTF-8" standalone="no"?>
<!DOCTYPE svg PUBLIC "-//W3C//DTD SVG 1.1//EN"
 "http://www.w3.org/Graphics/SVG/1.1/DTD/svg11.dtd">
<!-- Generated by graphviz version 2.43.0 (0)
 -->
<!-- Title: src/graphics/mesh/mesh_builder.h Pages: 1 -->
<!--zoomable 274 -->
<svg id="main" version="1.1" xmlns="http://www.w3.org/2000/svg" xmlns:xlink="http://www.w3.org/1999/xlink" xml:space="preserve" onload="init(evt)">
<style type="text/css"><![CDATA[
.edge:hover path { stroke: red; }
.edge:hover polygon { stroke: red; fill: red; }
]]></style>
<script type="text/javascript"><![CDATA[
var edges = document.getElementsByTagName('g');
if (edges && edges.length) {
  for (var i=0;i<edges.length;i++) {
    if (edges[i].id.substr(0,4)=='edge') {
      edges[i].setAttribute('class','edge');
    }
  }
}
]]></script>
        <defs>
                <circle id="rim" cx="0" cy="0" r="7"/>
                <circle id="rim2" cx="0" cy="0" r="3.5"/>
                <g id="zoomPlus">
                        <use xlink:href="#rim" fill="#404040">
                                <set attributeName="fill" to="#808080" begin="zoomplus.mouseover" end="zoomplus.mouseout"/>
                        </use>
                        <path d="M-4,0h8M0,-4v8" fill="none" stroke="white" stroke-width="1.5" pointer-events="none"/>
                </g>
                <g id="zoomMin">
                        <use xlink:href="#rim" fill="#404040">
                                <set attributeName="fill" to="#808080" begin="zoomminus.mouseover" end="zoomminus.mouseout"/>
                        </use>
                        <path d="M-4,0h8" fill="none" stroke="white" stroke-width="1.5" pointer-events="none"/>
                </g>
                <g id="dirArrow">
                        <path fill="none" stroke="white" stroke-width="1.5" d="M0,-3.0v7 M-2.5,-0.5L0,-3.0L2.5,-0.5"/>
                </g>
               <g id="resetDef">
                       <use xlink:href="#rim2" fill="#404040">
                               <set attributeName="fill" to="#808080" begin="reset.mouseover" end="reset.mouseout"/>
                       </use>
               </g>
        </defs>

<script type="text/javascript">
var viewWidth = 1013;
var viewHeight = 274;
var sectionId = 'dynsection-0';
</script>
<script xlink:href="svgpan.js"/>
<svg id="graph" class="graph">
<g id="viewport">
<title>src/graphics/mesh/mesh_builder.h</title>
<polygon fill="white" stroke="transparent" points="-4,4 -4,-270 1009,-270 1009,4 -4,4"/>
<!-- Node1 -->
<g id="node1" class="node">
<title>Node1</title>
<g id="a_node1"><a xlink:title=" ">
<polygon fill="#bfbfbf" stroke="black" points="213.5,-235.5 213.5,-265.5 348.5,-265.5 348.5,-235.5 213.5,-235.5"/>
<text text-anchor="start" x="221.5" y="-253.5" font-family="Helvetica,sans-Serif" font-size="10.00">src/graphics/mesh/mesh</text>
<text text-anchor="middle" x="281" y="-242.5" font-family="Helvetica,sans-Serif" font-size="10.00">_builder.h</text>
</a>
</g>
</g>
<!-- Node2 -->
<g id="node2" class="node">
<title>Node2</title>
<g id="a_node2"><a xlink:title=" ">
<polygon fill="white" stroke="#bfbfbf" points="0,-179.5 0,-198.5 50,-198.5 50,-179.5 0,-179.5"/>
<text text-anchor="middle" x="25" y="-186.5" font-family="Helvetica,sans-Serif" font-size="10.00">cstring</text>
</a>
</g>
</g>
<!-- Node1&#45;&gt;Node2 -->
<g id="edge1" class="edge">
<title>Node1&#45;&gt;Node2</title>
<path fill="none" stroke="midnightblue" d="M220.66,-235.47C170.64,-223.85 101.29,-207.73 60,-198.13"/>
<polygon fill="midnightblue" stroke="midnightblue" points="60.67,-194.7 50.14,-195.84 59.08,-201.52 60.67,-194.7"/>
</g>
<!-- Node3 -->
<g id="node3" class="node">
<title>Node3</title>
<g id="a_node3"><a xlink:title=" ">
<polygon fill="white" stroke="#bfbfbf" points="203,-0.5 203,-19.5 261,-19.5 261,-0.5 203,-0.5"/>
<text text-anchor="middle" x="232" y="-7.5" font-family="Helvetica,sans-Serif" font-size="10.00">memory</text>
</a>
</g>
</g>
<!-- Node1&#45;&gt;Node3 -->
<g id="edge2" class="edge">
<title>Node1&#45;&gt;Node3</title>
<path fill="none" stroke="midnightblue" d="M213.44,-243.24C180.3,-236.91 142.01,-224.24 116,-199 97.14,-180.7 101.28,-168.93 97,-143 90.69,-104.76 78.9,-86.36 103,-56 124.5,-28.91 163.36,-18.08 192.83,-13.78"/>
<polygon fill="midnightblue" stroke="midnightblue" points="193.33,-17.24 202.81,-12.51 192.45,-10.3 193.33,-17.24"/>
</g>
<!-- Node4 -->
<g id="node4" class="node">
<title>Node4</title>
<g id="a_node4"><a xlink:title=" ">
<polygon fill="white" stroke="#bfbfbf" points="125,-179.5 125,-198.5 233,-198.5 233,-179.5 125,-179.5"/>
<text text-anchor="middle" x="179" y="-186.5" font-family="Helvetica,sans-Serif" font-size="10.00">SDL2/SDL_image.h</text>
</a>
</g>
</g>
<!-- Node1&#45;&gt;Node4 -->
<g id="edge3" class="edge">
<title>Node1&#45;&gt;Node4</title>
<path fill="none" stroke="midnightblue" d="M256.83,-235.4C240.48,-225.86 218.99,-213.32 202.73,-203.84"/>
<polygon fill="midnightblue" stroke="midnightblue" points="204.24,-200.67 193.84,-198.66 200.72,-206.72 204.24,-200.67"/>
</g>
<!-- Node5 -->
<g id="node5" class="node">
<title>Node5</title>
<g id="a_node5"><a xlink:title=" ">
<polygon fill="white" stroke="#bfbfbf" points="251.5,-179.5 251.5,-198.5 310.5,-198.5 310.5,-179.5 251.5,-179.5"/>
<text text-anchor="middle" x="281" y="-186.5" font-family="Helvetica,sans-Serif" font-size="10.00">log/log.h</text>
</a>
</g>
</g>
<!-- Node1&#45;&gt;Node5 -->
<g id="edge4" class="edge">
<title>Node1&#45;&gt;Node5</title>
<path fill="none" stroke="midnightblue" d="M281,-235.4C281,-227.47 281,-217.46 281,-208.86"/>
<polygon fill="midnightblue" stroke="midnightblue" points="284.5,-208.66 281,-198.66 277.5,-208.66 284.5,-208.66"/>
</g>
<!-- Node6 -->
<g id="node6" class="node">
<title>Node6</title>
<g id="a_node6"><a xlink:title=" ">
<polygon fill="white" stroke="#bfbfbf" points="328.5,-179.5 328.5,-198.5 441.5,-198.5 441.5,-179.5 328.5,-179.5"/>
<text text-anchor="middle" x="385" y="-186.5" font-family="Helvetica,sans-Serif" font-size="10.00">maths/matrix_util.h</text>
</a>
</g>
</g>
<!-- Node1&#45;&gt;Node6 -->
<g id="edge5" class="edge">
<title>Node1&#45;&gt;Node6</title>
<path fill="none" stroke="midnightblue" d="M305.65,-235.4C322.32,-225.86 344.23,-213.32 360.81,-203.84"/>
<polygon fill="midnightblue" stroke="midnightblue" points="362.93,-206.66 369.87,-198.66 359.45,-200.59 362.93,-206.66"/>
</g>
<!-- Node7 -->
<g id="node7" class="node">
<title>Node7</title>
<g id="a_node7"><a xlink:href="mesh_8h.html" target="_top" xlink:title=" ">
<polygon fill="white" stroke="black" points="468.5,-179.5 468.5,-198.5 595.5,-198.5 595.5,-179.5 468.5,-179.5"/>
<text text-anchor="middle" x="532" y="-186.5" font-family="Helvetica,sans-Serif" font-size="10.00">graphics/mesh/mesh.h</text>
</a>
</g>
</g>
<!-- Node1&#45;&gt;Node7 -->
<g id="edge6" class="edge">
<title>Node1&#45;&gt;Node7</title>
<path fill="none" stroke="midnightblue" d="M340.17,-235.47C384.79,-224.9 445.12,-210.59 486.13,-200.87"/>
<polygon fill="midnightblue" stroke="midnightblue" points="487.19,-204.22 496.12,-198.51 485.58,-197.41 487.19,-204.22"/>
</g>
<!-- Node19 -->
<g id="node19" class="node">
<title>Node19</title>
<g id="a_node19"><a xlink:href="file__util_8h.html" target="_top" xlink:title=" ">
<polygon fill="white" stroke="black" points="829,-179.5 829,-198.5 909,-198.5 909,-179.5 829,-179.5"/>
<text text-anchor="middle" x="869" y="-186.5" font-family="Helvetica,sans-Serif" font-size="10.00">util/file_util.h</text>
</a>
</g>
</g>
<!-- Node1&#45;&gt;Node19 -->
<g id="edge23" class="edge">
<title>Node1&#45;&gt;Node19</title>
<path fill="none" stroke="midnightblue" d="M348.74,-242.65C468.12,-230.57 713.32,-205.75 818.87,-195.07"/>
<polygon fill="midnightblue" stroke="midnightblue" points="819.34,-198.54 828.94,-194.05 818.64,-191.58 819.34,-198.54"/>
</g>
<!-- Node7&#45;&gt;Node3 -->
<g id="edge7" class="edge">
<title>Node7&#45;&gt;Node3</title>
<path fill="none" stroke="midnightblue" d="M470.49,-179.47C406.76,-167.42 308.59,-139.33 251,-76 239.52,-63.37 234.95,-44.16 233.14,-29.89"/>
<polygon fill="midnightblue" stroke="midnightblue" points="236.61,-29.37 232.21,-19.73 229.64,-30.01 236.61,-29.37"/>
</g>
<!-- Node8 -->
<g id="node8" class="node">
<title>Node8</title>
<g id="a_node8"><a xlink:title=" ">
<polygon fill="white" stroke="#bfbfbf" points="518.5,-0.5 518.5,-19.5 565.5,-19.5 565.5,-0.5 518.5,-0.5"/>
<text text-anchor="middle" x="542" y="-7.5" font-family="Helvetica,sans-Serif" font-size="10.00">vector</text>
</a>
</g>
</g>
<!-- Node7&#45;&gt;Node8 -->
<g id="edge8" class="edge">
<title>Node7&#45;&gt;Node8</title>
<path fill="none" stroke="midnightblue" d="M551.13,-179.49C566.27,-171.88 586.96,-159.4 600,-143 619.78,-118.12 619.35,-107.28 625,-76 626.58,-67.25 629.55,-63.64 625,-56 614.25,-37.94 593.44,-26.68 575.34,-19.94"/>
<polygon fill="midnightblue" stroke="midnightblue" points="576.25,-16.55 565.65,-16.65 574,-23.18 576.25,-16.55"/>
</g>
<!-- Node9 -->
<g id="node9" class="node">
<title>Node9</title>
<g id="a_node9"><a xlink:title=" ">
<polygon fill="white" stroke="#bfbfbf" points="813,-118 813,-137 857,-137 857,-118 813,-118"/>
<text text-anchor="middle" x="835" y="-125" font-family="Helvetica,sans-Serif" font-size="10.00">string</text>
</a>
</g>
</g>
<!-- Node7&#45;&gt;Node9 -->
<g id="edge9" class="edge">
<title>Node7&#45;&gt;Node9</title>
<path fill="none" stroke="midnightblue" d="M595.52,-182.45C651.38,-176.41 734.4,-164.59 804,-143 805.87,-142.42 807.78,-141.75 809.68,-141.02"/>
<polygon fill="midnightblue" stroke="midnightblue" points="811.12,-144.21 818.92,-137.04 808.35,-137.78 811.12,-144.21"/>
</g>
<!-- Node10 -->
<g id="node10" class="node">
<title>Node10</title>
<g id="a_node10"><a xlink:href="vertex_8h.html" target="_top" xlink:title=" ">
<polygon fill="white" stroke="black" points="663.5,-118 663.5,-137 794.5,-137 794.5,-118 663.5,-118"/>
<text text-anchor="middle" x="729" y="-125" font-family="Helvetica,sans-Serif" font-size="10.00">graphics/mesh/vertex.h</text>
</a>
</g>
</g>
<!-- Node7&#45;&gt;Node10 -->
<g id="edge10" class="edge">
<title>Node7&#45;&gt;Node10</title>
<path fill="none" stroke="midnightblue" d="M560.23,-179.48C594.6,-169.09 652.81,-151.51 691.08,-139.95"/>
<polygon fill="midnightblue" stroke="midnightblue" points="692.27,-143.25 700.83,-137.01 690.24,-136.55 692.27,-143.25"/>
</g>
<!-- Node12 -->
<g id="node12" class="node">
<title>Node12</title>
<g id="a_node12"><a xlink:href="mesh__instance__data_8h.html" target="_top" xlink:title=" ">
<polygon fill="white" stroke="black" points="106,-112.5 106,-142.5 224,-142.5 224,-112.5 106,-112.5"/>
<text text-anchor="start" x="114" y="-130.5" font-family="Helvetica,sans-Serif" font-size="10.00">graphics/mesh/mesh</text>
<text text-anchor="middle" x="165" y="-119.5" font-family="Helvetica,sans-Serif" font-size="10.00">_instance_data.h</text>
</a>
</g>
</g>
<!-- Node7&#45;&gt;Node12 -->
<g id="edge12" class="edge">
<title>Node7&#45;&gt;Node12</title>
<path fill="none" stroke="midnightblue" d="M471.06,-179.47C411.51,-170.95 318.35,-157.12 238,-143 236.75,-142.78 235.48,-142.56 234.21,-142.33"/>
<polygon fill="midnightblue" stroke="midnightblue" points="234.79,-138.87 224.32,-140.51 233.52,-145.76 234.79,-138.87"/>
</g>
<!-- Node14 -->
<g id="node14" class="node">
<title>Node14</title>
<g id="a_node14"><a xlink:href="vao_8h.html" target="_top" xlink:title=" ">
<polygon fill="white" stroke="black" points="473,-118 473,-137 591,-137 591,-118 473,-118"/>
<text text-anchor="middle" x="532" y="-125" font-family="Helvetica,sans-Serif" font-size="10.00">graphics/mesh/vao.h</text>
</a>
</g>
</g>
<!-- Node7&#45;&gt;Node14 -->
<g id="edge14" class="edge">
<title>Node7&#45;&gt;Node14</title>
<path fill="none" stroke="midnightblue" d="M532,-179.48C532,-171.08 532,-157.98 532,-147.16"/>
<polygon fill="midnightblue" stroke="midnightblue" points="535.5,-147.01 532,-137.01 528.5,-147.01 535.5,-147.01"/>
</g>
<!-- Node11 -->
<g id="node11" class="node">
<title>Node11</title>
<g id="a_node11"><a xlink:title=" ">
<polygon fill="white" stroke="#bfbfbf" points="681,-56.5 681,-75.5 777,-75.5 777,-56.5 681,-56.5"/>
<text text-anchor="middle" x="729" y="-63.5" font-family="Helvetica,sans-Serif" font-size="10.00">maths/vector3.h</text>
</a>
</g>
</g>
<!-- Node10&#45;&gt;Node11 -->
<g id="edge11" class="edge">
<title>Node10&#45;&gt;Node11</title>
<path fill="none" stroke="midnightblue" d="M729,-117.98C729,-109.58 729,-96.48 729,-85.66"/>
<polygon fill="midnightblue" stroke="midnightblue" points="732.5,-85.51 729,-75.51 725.5,-85.51 732.5,-85.51"/>
</g>
<!-- Node13 -->
<g id="node13" class="node">
<title>Node13</title>
<g id="a_node13"><a xlink:title=" ">
<polygon fill="white" stroke="#bfbfbf" points="112,-56.5 112,-75.5 204,-75.5 204,-56.5 112,-56.5"/>
<text text-anchor="middle" x="158" y="-63.5" font-family="Helvetica,sans-Serif" font-size="10.00">maths/matrix.h</text>
</a>
</g>
</g>
<!-- Node12&#45;&gt;Node13 -->
<g id="edge13" class="edge">
<title>Node12&#45;&gt;Node13</title>
<path fill="none" stroke="midnightblue" d="M163.34,-112.4C162.41,-104.47 161.23,-94.46 160.22,-85.86"/>
<polygon fill="midnightblue" stroke="midnightblue" points="163.66,-85.18 159.02,-75.66 156.71,-86 163.66,-85.18"/>
</g>
<!-- Node14&#45;&gt;Node8 -->
<g id="edge16" class="edge">
<title>Node14&#45;&gt;Node8</title>
<path fill="none" stroke="midnightblue" d="M532.75,-117.82C534.36,-99.26 538.16,-55.34 540.36,-29.97"/>
<polygon fill="midnightblue" stroke="midnightblue" points="543.86,-30.05 541.24,-19.78 536.89,-29.44 543.86,-30.05"/>
</g>
<!-- Node15 -->
<g id="node15" class="node">
<title>Node15</title>
<g id="a_node15"><a xlink:title=" ">
<polygon fill="white" stroke="#bfbfbf" points="570.5,-56.5 570.5,-75.5 615.5,-75.5 615.5,-56.5 570.5,-56.5"/>
<text text-anchor="middle" x="593" y="-63.5" font-family="Helvetica,sans-Serif" font-size="10.00">utility</text>
</a>
</g>
</g>
<!-- Node14&#45;&gt;Node15 -->
<g id="edge15" class="edge">
<title>Node14&#45;&gt;Node15</title>
<path fill="none" stroke="midnightblue" d="M540.74,-117.98C550.16,-108.78 565.36,-93.96 576.95,-82.66"/>
<polygon fill="midnightblue" stroke="midnightblue" points="579.56,-85 584.28,-75.51 574.67,-79.99 579.56,-85"/>
</g>
<!-- Node16 -->
<g id="node16" class="node">
<title>Node16</title>
<g id="a_node16"><a xlink:href="vbo_8h.html" target="_top" xlink:title=" ">
<polygon fill="white" stroke="black" points="396,-56.5 396,-75.5 514,-75.5 514,-56.5 396,-56.5"/>
<text text-anchor="middle" x="455" y="-63.5" font-family="Helvetica,sans-Serif" font-size="10.00">graphics/mesh/vbo.h</text>
</a>
</g>
</g>
<!-- Node14&#45;&gt;Node16 -->
<g id="edge17" class="edge">
<title>Node14&#45;&gt;Node16</title>
<path fill="none" stroke="midnightblue" d="M520.97,-117.98C508.73,-108.52 488.77,-93.1 474.01,-81.69"/>
<polygon fill="midnightblue" stroke="midnightblue" points="476.06,-78.85 466.01,-75.51 471.78,-84.39 476.06,-78.85"/>
</g>
<!-- Node18 -->
<g id="node18" class="node">
<title>Node18</title>
<g id="a_node18"><a xlink:href="ebo_8h.html" target="_top" xlink:title=" ">
<polygon fill="white" stroke="black" points="260,-56.5 260,-75.5 378,-75.5 378,-56.5 260,-56.5"/>
<text text-anchor="middle" x="319" y="-63.5" font-family="Helvetica,sans-Serif" font-size="10.00">graphics/mesh/ebo.h</text>
</a>
</g>
</g>
<!-- Node14&#45;&gt;Node18 -->
<g id="edge21" class="edge">
<title>Node14&#45;&gt;Node18</title>
<path fill="none" stroke="midnightblue" d="M501.48,-117.98C464.08,-107.53 400.57,-89.79 359.21,-78.23"/>
<polygon fill="midnightblue" stroke="midnightblue" points="360.03,-74.83 349.46,-75.51 358.15,-81.57 360.03,-74.83"/>
</g>
<!-- Node16&#45;&gt;Node3 -->
<g id="edge19" class="edge">
<title>Node16&#45;&gt;Node3</title>
<path fill="none" stroke="midnightblue" d="M419.66,-56.44C379.16,-46.64 312.97,-30.61 270.99,-20.44"/>
<polygon fill="midnightblue" stroke="midnightblue" points="271.67,-17.01 261.13,-18.05 270.02,-23.81 271.67,-17.01"/>
</g>
<!-- Node16&#45;&gt;Node8 -->
<g id="edge18" class="edge">
<title>Node16&#45;&gt;Node8</title>
<path fill="none" stroke="midnightblue" d="M468.98,-56.32C482.55,-47.9 503.38,-34.97 519.32,-25.07"/>
<polygon fill="midnightblue" stroke="midnightblue" points="521.41,-27.9 528.06,-19.65 517.71,-21.95 521.41,-27.9"/>
</g>
<!-- Node17 -->
<g id="node17" class="node">
<title>Node17</title>
<g id="a_node17"><a xlink:title=" ">
<polygon fill="white" stroke="#bfbfbf" points="355,-0.5 355,-19.5 419,-19.5 419,-0.5 355,-0.5"/>
<text text-anchor="middle" x="387" y="-7.5" font-family="Helvetica,sans-Serif" font-size="10.00">GL/glew.h</text>
</a>
</g>
</g>
<!-- Node16&#45;&gt;Node17 -->
<g id="edge20" class="edge">
<title>Node16&#45;&gt;Node17</title>
<path fill="none" stroke="midnightblue" d="M444.07,-56.32C433.83,-48.18 418.28,-35.84 406,-26.09"/>
<polygon fill="midnightblue" stroke="midnightblue" points="408.13,-23.31 398.12,-19.83 403.78,-28.79 408.13,-23.31"/>
</g>
<!-- Node18&#45;&gt;Node17 -->
<g id="edge22" class="edge">
<title>Node18&#45;&gt;Node17</title>
<path fill="none" stroke="midnightblue" d="M329.93,-56.32C340.17,-48.18 355.72,-35.84 368,-26.09"/>
<polygon fill="midnightblue" stroke="midnightblue" points="370.22,-28.79 375.88,-19.83 365.87,-23.31 370.22,-28.79"/>
</g>
<!-- Node19&#45;&gt;Node9 -->
<g id="edge24" class="edge">
<title>Node19&#45;&gt;Node9</title>
<path fill="none" stroke="midnightblue" d="M864.13,-179.48C859.13,-170.73 851.21,-156.87 844.89,-145.81"/>
<polygon fill="midnightblue" stroke="midnightblue" points="847.86,-143.96 839.86,-137.01 841.78,-147.43 847.86,-143.96"/>
</g>
<!-- Node20 -->
<g id="node20" class="node">
<title>Node20</title>
<g id="a_node20"><a xlink:title=" ">
<polygon fill="white" stroke="#bfbfbf" points="875.5,-118 875.5,-137 930.5,-137 930.5,-118 875.5,-118"/>
<text text-anchor="middle" x="903" y="-125" font-family="Helvetica,sans-Serif" font-size="10.00">fstream</text>
</a>
</g>
</g>
<!-- Node19&#45;&gt;Node20 -->
<g id="edge25" class="edge">
<title>Node19&#45;&gt;Node20</title>
<path fill="none" stroke="midnightblue" d="M873.87,-179.48C878.87,-170.73 886.79,-156.87 893.11,-145.81"/>
<polygon fill="midnightblue" stroke="midnightblue" points="896.22,-147.43 898.14,-137.01 890.14,-143.96 896.22,-147.43"/>
</g>
<!-- Node21 -->
<g id="node21" class="node">
<title>Node21</title>
<g id="a_node21"><a xlink:title=" ">
<polygon fill="white" stroke="#bfbfbf" points="949,-118 949,-137 1005,-137 1005,-118 949,-118"/>
<text text-anchor="middle" x="977" y="-125" font-family="Helvetica,sans-Serif" font-size="10.00">sstream</text>
</a>
</g>
</g>
<!-- Node19&#45;&gt;Node21 -->
<g id="edge26" class="edge">
<title>Node19&#45;&gt;Node21</title>
<path fill="none" stroke="midnightblue" d="M884.47,-179.48C902.28,-169.67 931.74,-153.43 952.63,-141.92"/>
<polygon fill="midnightblue" stroke="midnightblue" points="954.49,-144.9 961.55,-137.01 951.11,-138.77 954.49,-144.9"/>
</g>
</g>
</svg>
        <g id="navigator" transform="translate(0 0)" fill="#404254">
                <rect fill="#f2f5e9" fill-opacity="0.5" stroke="#606060" stroke-width=".5" x="0" y="0" width="60" height="60"/>
                <use id="zoomplus" xlink:href="#zoomPlus" x="17" y="9" onmousedown="handleZoom(evt,'in')"/>
                <use id="zoomminus" xlink:href="#zoomMin" x="42" y="9" onmousedown="handleZoom(evt,'out')"/>
                <use id="reset" xlink:href="#resetDef" x="30" y="36" onmousedown="handleReset()"/>
                <g id="arrowUp" xlink:href="#dirArrow" transform="translate(30 24)" onmousedown="handlePan(0,-1)">
                  <use xlink:href="#rim" fill="#404040">
                        <set attributeName="fill" to="#808080" begin="arrowUp.mouseover" end="arrowUp.mouseout"/>
                  </use>
                  <path fill="none" stroke="white" stroke-width="1.5" d="M0,-3.0v7 M-2.5,-0.5L0,-3.0L2.5,-0.5"/>
                </g>
                <g id="arrowRight" xlink:href="#dirArrow" transform="rotate(90) translate(36 -43)" onmousedown="handlePan(1,0)">
                  <use xlink:href="#rim" fill="#404040">
                        <set attributeName="fill" to="#808080" begin="arrowRight.mouseover" end="arrowRight.mouseout"/>
                  </use>
                  <path fill="none" stroke="white" stroke-width="1.5" d="M0,-3.0v7 M-2.5,-0.5L0,-3.0L2.5,-0.5"/>
                </g>
                <g id="arrowDown" xlink:href="#dirArrow" transform="rotate(180) translate(-30 -48)" onmousedown="handlePan(0,1)">
                  <use xlink:href="#rim" fill="#404040">
                        <set attributeName="fill" to="#808080" begin="arrowDown.mouseover" end="arrowDown.mouseout"/>
                  </use>
                  <path fill="none" stroke="white" stroke-width="1.5" d="M0,-3.0v7 M-2.5,-0.5L0,-3.0L2.5,-0.5"/>
                </g>
                <g id="arrowLeft" xlink:href="#dirArrow" transform="rotate(270) translate(-36 17)" onmousedown="handlePan(-1,0)">
                  <use xlink:href="#rim" fill="#404040">
                        <set attributeName="fill" to="#808080" begin="arrowLeft.mouseover" end="arrowLeft.mouseout"/>
                  </use>
                  <path fill="none" stroke="white" stroke-width="1.5" d="M0,-3.0v7 M-2.5,-0.5L0,-3.0L2.5,-0.5"/>
                </g>
        </g>
        <svg viewBox="0 0 15 15" width="100%" height="30px" preserveAspectRatio="xMaxYMin meet">
         <g id="arrow_out" transform="scale(0.3 0.3)">
          <a xlink:href="mesh__builder_8h__incl_org.svg" target="_base">
           <rect id="button" ry="5" rx="5" y="6" x="6" height="38" width="38"
                fill="#f2f5e9" fill-opacity="0.5" stroke="#606060" stroke-width="1.0"/>
           <path id="arrow"
             d="M 11.500037,31.436501 C 11.940474,20.09759 22.043105,11.32322 32.158766,21.979434 L 37.068811,17.246167 C 37.068811,17.246167 37.088388,32 37.088388,32 L 22.160133,31.978069 C 22.160133,31.978069 26.997745,27.140456 26.997745,27.140456 C 18.528582,18.264221 13.291696,25.230495 11.500037,31.436501 z"
             style="fill:#404040;"/>
          </a>
         </g>
        </svg>
</svg>
