<?xml version="1.0" encoding="UTF-8" standalone="no"?>
<!DOCTYPE svg PUBLIC "-//W3C//DTD SVG 1.1//EN"
 "http://www.w3.org/Graphics/SVG/1.1/DTD/svg11.dtd">
<!-- Generated by graphviz version 2.43.0 (0)
 -->
<!-- Title: src/graphics/mesh/mesh_instance_data.h Pages: 1 -->
<svg width="653pt" height="363pt"
 viewBox="0.00 0.00 653.49 363.00" xmlns="http://www.w3.org/2000/svg" xmlns:xlink="http://www.w3.org/1999/xlink">
<g id="graph0" class="graph" transform="scale(1 1) rotate(0) translate(4 359)">
<title>src/graphics/mesh/mesh_instance_data.h</title>
<polygon fill="white" stroke="transparent" points="-4,4 -4,-359 649.49,-359 649.49,4 -4,4"/>
<!-- Node1 -->
<g id="node1" class="node">
<title>Node1</title>
<g id="a_node1"><a xlink:title=" ">
<polygon fill="#bfbfbf" stroke="black" points="281,-324.5 281,-354.5 416,-354.5 416,-324.5 281,-324.5"/>
<text text-anchor="start" x="289" y="-342.5" font-family="Helvetica,sans-Serif" font-size="10.00">src/graphics/mesh/mesh</text>
<text text-anchor="middle" x="348.5" y="-331.5" font-family="Helvetica,sans-Serif" font-size="10.00">_instance_data.h</text>
</a>
</g>
</g>
<!-- Node2 -->
<g id="node2" class="node">
<title>Node2</title>
<g id="a_node2"><a xlink:href="mesh_8h.html" target="_top" xlink:title=" ">
<polygon fill="white" stroke="black" points="337.5,-268.5 337.5,-287.5 481.5,-287.5 481.5,-268.5 337.5,-268.5"/>
<text text-anchor="middle" x="409.5" y="-275.5" font-family="Helvetica,sans-Serif" font-size="10.00">src/graphics/mesh/mesh.h</text>
</a>
</g>
</g>
<!-- Node1&#45;&gt;Node2 -->
<g id="edge1" class="edge">
<title>Node1&#45;&gt;Node2</title>
<path fill="none" stroke="midnightblue" d="M370.23,-317.3C380.7,-307.09 392.68,-295.41 400.62,-287.66"/>
<polygon fill="midnightblue" stroke="midnightblue" points="367.67,-314.91 362.96,-324.4 372.56,-319.92 367.67,-314.91"/>
</g>
<!-- Node5 -->
<g id="node5" class="node">
<title>Node5</title>
<g id="a_node5"><a xlink:href="graphics__renderer_8h.html" target="_top" xlink:title=" ">
<polygon fill="white" stroke="black" points="342,-67.5 342,-97.5 461,-97.5 461,-67.5 342,-67.5"/>
<text text-anchor="start" x="350" y="-85.5" font-family="Helvetica,sans-Serif" font-size="10.00">src/graphics/renderer</text>
<text text-anchor="middle" x="401.5" y="-74.5" font-family="Helvetica,sans-Serif" font-size="10.00">/graphics_renderer.h</text>
</a>
</g>
</g>
<!-- Node1&#45;&gt;Node5 -->
<g id="edge20" class="edge">
<title>Node1&#45;&gt;Node5</title>
<path fill="none" stroke="midnightblue" d="M337.15,-315.21C333.65,-306.84 330.25,-297.19 328.5,-288 318.67,-236.49 326.09,-192.08 355.5,-134 362.57,-120.03 374.58,-107.04 384.56,-97.74"/>
<polygon fill="midnightblue" stroke="midnightblue" points="333.96,-316.64 341.22,-324.35 340.35,-313.79 333.96,-316.64"/>
</g>
<!-- Node3 -->
<g id="node3" class="node">
<title>Node3</title>
<g id="a_node3"><a xlink:href="render__mesh_8h.html" target="_top" xlink:title=" ">
<polygon fill="white" stroke="black" points="520,-134.5 520,-164.5 643,-164.5 643,-134.5 520,-134.5"/>
<text text-anchor="start" x="528" y="-152.5" font-family="Helvetica,sans-Serif" font-size="10.00">src/component/render</text>
<text text-anchor="middle" x="581.5" y="-141.5" font-family="Helvetica,sans-Serif" font-size="10.00">_mesh.h</text>
</a>
</g>
</g>
<!-- Node2&#45;&gt;Node3 -->
<g id="edge2" class="edge">
<title>Node2&#45;&gt;Node3</title>
<path fill="none" stroke="midnightblue" d="M435.55,-263.6C451.08,-255.21 470.94,-243.79 487.5,-232 517.41,-210.7 549.05,-181.75 566.93,-164.7"/>
<polygon fill="midnightblue" stroke="midnightblue" points="433.69,-260.62 426.5,-268.4 436.98,-266.8 433.69,-260.62"/>
</g>
<!-- Node9 -->
<g id="node9" class="node">
<title>Node9</title>
<g id="a_node9"><a xlink:href="asset__loader_8h.html" target="_top" xlink:title=" ">
<polygon fill="white" stroke="black" points="197.5,-67.5 197.5,-97.5 323.5,-97.5 323.5,-67.5 197.5,-67.5"/>
<text text-anchor="start" x="205.5" y="-85.5" font-family="Helvetica,sans-Serif" font-size="10.00">src/graphics/asset</text>
<text text-anchor="middle" x="260.5" y="-74.5" font-family="Helvetica,sans-Serif" font-size="10.00">_loader/asset_loader.h</text>
</a>
</g>
</g>
<!-- Node2&#45;&gt;Node9 -->
<g id="edge9" class="edge">
<title>Node2&#45;&gt;Node9</title>
<path fill="none" stroke="midnightblue" d="M388.66,-262.07C378.05,-253.89 365.34,-243.16 355.5,-232 316.23,-187.46 281.92,-125.15 267.61,-97.57"/>
<polygon fill="midnightblue" stroke="midnightblue" points="386.88,-265.11 396.98,-268.3 391.07,-259.51 386.88,-265.11"/>
</g>
<!-- Node11 -->
<g id="node11" class="node">
<title>Node11</title>
<g id="a_node11"><a xlink:href="skybox_8h.html" target="_top" xlink:title=" ">
<polygon fill="white" stroke="black" points="365,-201.5 365,-231.5 478,-231.5 478,-201.5 365,-201.5"/>
<text text-anchor="start" x="373" y="-219.5" font-family="Helvetica,sans-Serif" font-size="10.00">src/graphics/texture</text>
<text text-anchor="middle" x="421.5" y="-208.5" font-family="Helvetica,sans-Serif" font-size="10.00">/skybox.h</text>
</a>
</g>
</g>
<!-- Node2&#45;&gt;Node11 -->
<g id="edge14" class="edge">
<title>Node2&#45;&gt;Node11</title>
<path fill="none" stroke="midnightblue" d="M413.23,-258.53C414.98,-249.81 417.05,-239.59 418.67,-231.52"/>
<polygon fill="midnightblue" stroke="midnightblue" points="409.77,-257.98 411.22,-268.48 416.63,-259.36 409.77,-257.98"/>
</g>
<!-- Node4 -->
<g id="node4" class="node">
<title>Node4</title>
<g id="a_node4"><a xlink:href="game__scene_8cpp.html" target="_top" xlink:title=" ">
<polygon fill="white" stroke="black" points="483.5,-0.5 483.5,-30.5 607.5,-30.5 607.5,-0.5 483.5,-0.5"/>
<text text-anchor="start" x="491.5" y="-18.5" font-family="Helvetica,sans-Serif" font-size="10.00">src/game/scene/game</text>
<text text-anchor="middle" x="545.5" y="-7.5" font-family="Helvetica,sans-Serif" font-size="10.00">_scene.cpp</text>
</a>
</g>
</g>
<!-- Node3&#45;&gt;Node4 -->
<g id="edge3" class="edge">
<title>Node3&#45;&gt;Node4</title>
<path fill="none" stroke="midnightblue" d="M614.67,-128.41C624.9,-120.35 634.94,-110.08 640.5,-98 646.26,-85.48 647.6,-78.81 640.5,-67 630.3,-50.03 612.26,-38.45 594.62,-30.72"/>
<polygon fill="midnightblue" stroke="midnightblue" points="612.5,-125.66 606.5,-134.39 616.64,-131.3 612.5,-125.66"/>
</g>
<!-- Node3&#45;&gt;Node5 -->
<g id="edge4" class="edge">
<title>Node3&#45;&gt;Node5</title>
<path fill="none" stroke="midnightblue" d="M532.91,-130.96C503.92,-120.48 467.59,-107.37 440.48,-97.58"/>
<polygon fill="midnightblue" stroke="midnightblue" points="531.85,-134.29 542.44,-134.4 534.23,-127.71 531.85,-134.29"/>
</g>
<!-- Node8 -->
<g id="node8" class="node">
<title>Node8</title>
<g id="a_node8"><a xlink:href="scene_8cpp.html" target="_top" xlink:title=" ">
<polygon fill="white" stroke="black" points="517.5,-73 517.5,-92 631.5,-92 631.5,-73 517.5,-73"/>
<text text-anchor="middle" x="574.5" y="-80" font-family="Helvetica,sans-Serif" font-size="10.00">src/scene/scene.cpp</text>
</a>
</g>
</g>
<!-- Node3&#45;&gt;Node8 -->
<g id="edge8" class="edge">
<title>Node3&#45;&gt;Node8</title>
<path fill="none" stroke="midnightblue" d="M578.89,-124.25C577.68,-113.02 576.32,-100.38 575.44,-92.19"/>
<polygon fill="midnightblue" stroke="midnightblue" points="575.43,-124.83 579.98,-134.4 582.39,-124.08 575.43,-124.83"/>
</g>
<!-- Node5&#45;&gt;Node4 -->
<g id="edge6" class="edge">
<title>Node5&#45;&gt;Node4</title>
<path fill="none" stroke="midnightblue" d="M441.89,-63.27C464.82,-52.92 493.1,-40.15 514.32,-30.58"/>
<polygon fill="midnightblue" stroke="midnightblue" points="440.42,-60.09 432.75,-67.4 443.3,-66.47 440.42,-60.09"/>
</g>
<!-- Node6 -->
<g id="node6" class="node">
<title>Node6</title>
<g id="a_node6"><a xlink:href="application_8cpp.html" target="_top" xlink:title=" ">
<polygon fill="white" stroke="black" points="155,-6 155,-25 320,-25 320,-6 155,-6"/>
<text text-anchor="middle" x="237.5" y="-13" font-family="Helvetica,sans-Serif" font-size="10.00">src/application/application.cpp</text>
</a>
</g>
</g>
<!-- Node5&#45;&gt;Node6 -->
<g id="edge5" class="edge">
<title>Node5&#45;&gt;Node6</title>
<path fill="none" stroke="midnightblue" d="M356.39,-63.62C324.65,-51.04 283.59,-34.77 258.96,-25.01"/>
<polygon fill="midnightblue" stroke="midnightblue" points="355.33,-66.97 365.91,-67.4 357.91,-60.46 355.33,-66.97"/>
</g>
<!-- Node7 -->
<g id="node7" class="node">
<title>Node7</title>
<g id="a_node7"><a xlink:href="graphics__renderer_8cpp.html" target="_top" xlink:title=" ">
<polygon fill="white" stroke="black" points="338,-0.5 338,-30.5 465,-30.5 465,-0.5 338,-0.5"/>
<text text-anchor="start" x="346" y="-18.5" font-family="Helvetica,sans-Serif" font-size="10.00">src/graphics/renderer</text>
<text text-anchor="middle" x="401.5" y="-7.5" font-family="Helvetica,sans-Serif" font-size="10.00">/graphics_renderer.cpp</text>
</a>
</g>
</g>
<!-- Node5&#45;&gt;Node7 -->
<g id="edge7" class="edge">
<title>Node5&#45;&gt;Node7</title>
<path fill="none" stroke="midnightblue" d="M401.5,-57.11C401.5,-48.15 401.5,-38.32 401.5,-30.58"/>
<polygon fill="midnightblue" stroke="midnightblue" points="398,-57.4 401.5,-67.4 405,-57.4 398,-57.4"/>
</g>
<!-- Node9&#45;&gt;Node4 -->
<g id="edge11" class="edge">
<title>Node9&#45;&gt;Node4</title>
<path fill="none" stroke="midnightblue" d="M332.03,-65.19C378.71,-54.54 439.02,-40.78 483.63,-30.61"/>
<polygon fill="midnightblue" stroke="midnightblue" points="330.96,-61.84 321.99,-67.48 332.52,-68.66 330.96,-61.84"/>
</g>
<!-- Node9&#45;&gt;Node6 -->
<g id="edge10" class="edge">
<title>Node9&#45;&gt;Node6</title>
<path fill="none" stroke="midnightblue" d="M252.16,-57.94C248.13,-46.54 243.53,-33.55 240.58,-25.19"/>
<polygon fill="midnightblue" stroke="midnightblue" points="248.87,-59.14 255.51,-67.4 255.47,-56.8 248.87,-59.14"/>
</g>
<!-- Node9&#45;&gt;Node7 -->
<g id="edge13" class="edge">
<title>Node9&#45;&gt;Node7</title>
<path fill="none" stroke="midnightblue" d="M300.35,-63.13C322.75,-52.8 350.28,-40.11 370.96,-30.58"/>
<polygon fill="midnightblue" stroke="midnightblue" points="298.71,-60.03 291.09,-67.4 301.64,-66.39 298.71,-60.03"/>
</g>
<!-- Node10 -->
<g id="node10" class="node">
<title>Node10</title>
<g id="a_node10"><a xlink:href="asset__loader_8cpp.html" target="_top" xlink:title=" ">
<polygon fill="white" stroke="black" points="0,-0.5 0,-30.5 137,-30.5 137,-0.5 0,-0.5"/>
<text text-anchor="start" x="8" y="-18.5" font-family="Helvetica,sans-Serif" font-size="10.00">src/graphics/asset</text>
<text text-anchor="middle" x="68.5" y="-7.5" font-family="Helvetica,sans-Serif" font-size="10.00">_loader/asset_loader.cpp</text>
</a>
</g>
</g>
<!-- Node9&#45;&gt;Node10 -->
<g id="edge12" class="edge">
<title>Node9&#45;&gt;Node10</title>
<path fill="none" stroke="midnightblue" d="M209.08,-64.09C178.08,-53.6 139.12,-40.41 110.08,-30.58"/>
<polygon fill="midnightblue" stroke="midnightblue" points="208.24,-67.5 218.84,-67.4 210.49,-60.87 208.24,-67.5"/>
</g>
<!-- Node11&#45;&gt;Node9 -->
<g id="edge19" class="edge">
<title>Node11&#45;&gt;Node9</title>
<path fill="none" stroke="midnightblue" d="M394.21,-195.16C382.22,-186.08 368.04,-175.16 355.5,-165 327.14,-142.01 295.09,-114.1 276.4,-97.62"/>
<polygon fill="midnightblue" stroke="midnightblue" points="392.41,-198.19 402.51,-201.41 396.63,-192.6 392.41,-198.19"/>
</g>
<!-- Node12 -->
<g id="node12" class="node">
<title>Node12</title>
<g id="a_node12"><a xlink:href="camera_8h.html" target="_top" xlink:title=" ">
<polygon fill="white" stroke="black" points="365,-140 365,-159 502,-159 502,-140 365,-140"/>
<text text-anchor="middle" x="433.5" y="-147" font-family="Helvetica,sans-Serif" font-size="10.00">src/component/camera.h</text>
</a>
</g>
</g>
<!-- Node11&#45;&gt;Node12 -->
<g id="edge15" class="edge">
<title>Node11&#45;&gt;Node12</title>
<path fill="none" stroke="midnightblue" d="M425.98,-191.25C428.05,-180.02 430.38,-167.38 431.89,-159.19"/>
<polygon fill="midnightblue" stroke="midnightblue" points="422.48,-190.93 424.1,-201.4 429.36,-192.2 422.48,-190.93"/>
</g>
<!-- Node12&#45;&gt;Node4 -->
<g id="edge16" class="edge">
<title>Node12&#45;&gt;Node4</title>
<path fill="none" stroke="midnightblue" d="M447.51,-131.98C469.68,-105.86 512.46,-55.44 533.38,-30.78"/>
<polygon fill="midnightblue" stroke="midnightblue" points="444.65,-129.95 440.85,-139.84 449.99,-134.48 444.65,-129.95"/>
</g>
<!-- Node12&#45;&gt;Node5 -->
<g id="edge17" class="edge">
<title>Node12&#45;&gt;Node5</title>
<path fill="none" stroke="midnightblue" d="M424.74,-130.71C419.61,-120.29 413.22,-107.3 408.44,-97.59"/>
<polygon fill="midnightblue" stroke="midnightblue" points="421.63,-132.31 429.18,-139.73 427.91,-129.22 421.63,-132.31"/>
</g>
<!-- Node12&#45;&gt;Node8 -->
<g id="edge18" class="edge">
<title>Node12&#45;&gt;Node8</title>
<path fill="none" stroke="midnightblue" d="M461.46,-135.61C489.38,-122.74 531.54,-103.31 555.7,-92.17"/>
<polygon fill="midnightblue" stroke="midnightblue" points="459.84,-132.5 452.22,-139.87 462.77,-138.86 459.84,-132.5"/>
</g>
</g>
</svg>
