<?xml version="1.0" encoding="UTF-8" standalone="no"?>
<!DOCTYPE svg PUBLIC "-//W3C//DTD SVG 1.1//EN"
 "http://www.w3.org/Graphics/SVG/1.1/DTD/svg11.dtd">
<!-- Generated by graphviz version 2.43.0 (0)
 -->
<!-- Title: src/graphics/pixel_format.h Pages: 1 -->
<!--zoomable 430 -->
<svg id="main" version="1.1" xmlns="http://www.w3.org/2000/svg" xmlns:xlink="http://www.w3.org/1999/xlink" xml:space="preserve" onload="init(evt)">
<style type="text/css"><![CDATA[
.edge:hover path { stroke: red; }
.edge:hover polygon { stroke: red; fill: red; }
]]></style>
<script type="text/javascript"><![CDATA[
var edges = document.getElementsByTagName('g');
if (edges && edges.length) {
  for (var i=0;i<edges.length;i++) {
    if (edges[i].id.substr(0,4)=='edge') {
      edges[i].setAttribute('class','edge');
    }
  }
}
]]></script>
        <defs>
                <circle id="rim" cx="0" cy="0" r="7"/>
                <circle id="rim2" cx="0" cy="0" r="3.5"/>
                <g id="zoomPlus">
                        <use xlink:href="#rim" fill="#404040">
                                <set attributeName="fill" to="#808080" begin="zoomplus.mouseover" end="zoomplus.mouseout"/>
                        </use>
                        <path d="M-4,0h8M0,-4v8" fill="none" stroke="white" stroke-width="1.5" pointer-events="none"/>
                </g>
                <g id="zoomMin">
                        <use xlink:href="#rim" fill="#404040">
                                <set attributeName="fill" to="#808080" begin="zoomminus.mouseover" end="zoomminus.mouseout"/>
                        </use>
                        <path d="M-4,0h8" fill="none" stroke="white" stroke-width="1.5" pointer-events="none"/>
                </g>
                <g id="dirArrow">
                        <path fill="none" stroke="white" stroke-width="1.5" d="M0,-3.0v7 M-2.5,-0.5L0,-3.0L2.5,-0.5"/>
                </g>
               <g id="resetDef">
                       <use xlink:href="#rim2" fill="#404040">
                               <set attributeName="fill" to="#808080" begin="reset.mouseover" end="reset.mouseout"/>
                       </use>
               </g>
        </defs>

<script type="text/javascript">
var viewWidth = 766;
var viewHeight = 430;
var sectionId = 'dynsection-1';
</script>
<script xlink:href="svgpan.js"/>
<svg id="graph" class="graph">
<g id="viewport">
<title>src/graphics/pixel_format.h</title>
<polygon fill="white" stroke="transparent" points="-4,4 -4,-426 762.19,-426 762.19,4 -4,4"/>
<!-- Node1 -->
<g id="node1" class="node">
<title>Node1</title>
<g id="a_node1"><a xlink:title=" ">
<polygon fill="#bfbfbf" stroke="black" points="278.19,-391.5 278.19,-421.5 379.19,-421.5 379.19,-391.5 278.19,-391.5"/>
<text text-anchor="start" x="286.19" y="-409.5" font-family="Helvetica,sans-Serif" font-size="10.00">src/graphics/pixel</text>
<text text-anchor="middle" x="328.69" y="-398.5" font-family="Helvetica,sans-Serif" font-size="10.00">_format.h</text>
</a>
</g>
</g>
<!-- Node2 -->
<g id="node2" class="node">
<title>Node2</title>
<g id="a_node2"><a xlink:href="texture_8h.html" target="_top" xlink:title=" ">
<polygon fill="white" stroke="black" points="267.69,-335.5 267.69,-354.5 389.69,-354.5 389.69,-335.5 267.69,-335.5"/>
<text text-anchor="middle" x="328.69" y="-342.5" font-family="Helvetica,sans-Serif" font-size="10.00">src/graphics/texture.h</text>
</a>
</g>
</g>
<!-- Node1&#45;&gt;Node2 -->
<g id="edge1" class="edge">
<title>Node1&#45;&gt;Node2</title>
<path fill="none" stroke="midnightblue" d="M328.69,-381.29C328.69,-371.86 328.69,-361.65 328.69,-354.66"/>
<polygon fill="midnightblue" stroke="midnightblue" points="325.19,-381.4 328.69,-391.4 332.19,-381.4 325.19,-381.4"/>
</g>
<!-- Node3 -->
<g id="node3" class="node">
<title>Node3</title>
<g id="a_node3"><a xlink:href="camera_8h.html" target="_top" xlink:title=" ">
<polygon fill="white" stroke="black" points="62.19,-140 62.19,-159 199.19,-159 199.19,-140 62.19,-140"/>
<text text-anchor="middle" x="130.69" y="-147" font-family="Helvetica,sans-Serif" font-size="10.00">src/component/camera.h</text>
</a>
</g>
</g>
<!-- Node2&#45;&gt;Node3 -->
<g id="edge2" class="edge">
<title>Node2&#45;&gt;Node3</title>
<path fill="none" stroke="midnightblue" d="M257.2,-343.16C179.19,-337.84 58.37,-315.62 5.69,-232 -1.66,-220.34 -2.02,-212.42 5.69,-201 20.94,-178.39 48.19,-165.91 73.37,-159.01"/>
<polygon fill="midnightblue" stroke="midnightblue" points="257.25,-346.67 267.44,-343.78 257.67,-339.69 257.25,-346.67"/>
</g>
<!-- Node8 -->
<g id="node8" class="node">
<title>Node8</title>
<g id="a_node8"><a xlink:href="asset__loader_8h.html" target="_top" xlink:title=" ">
<polygon fill="white" stroke="black" points="246.69,-134.5 246.69,-164.5 350.69,-164.5 350.69,-134.5 246.69,-134.5"/>
<text text-anchor="start" x="254.69" y="-152.5" font-family="Helvetica,sans-Serif" font-size="10.00">src/graphics/asset</text>
<text text-anchor="middle" x="298.69" y="-141.5" font-family="Helvetica,sans-Serif" font-size="10.00">_loader.h</text>
</a>
</g>
</g>
<!-- Node2&#45;&gt;Node8 -->
<g id="edge8" class="edge">
<title>Node2&#45;&gt;Node8</title>
<path fill="none" stroke="midnightblue" d="M332,-325.48C336.22,-297.74 341.56,-244.07 328.69,-201 324.72,-187.71 316.5,-174.29 309.67,-164.63"/>
<polygon fill="midnightblue" stroke="midnightblue" points="328.54,-324.94 330.36,-335.37 335.45,-326.08 328.54,-324.94"/>
</g>
<!-- Node10 -->
<g id="node10" class="node">
<title>Node10</title>
<g id="a_node10"><a xlink:href="framebuffer_8h.html" target="_top" xlink:title=" ">
<polygon fill="white" stroke="black" points="502.69,-274 502.69,-293 646.69,-293 646.69,-274 502.69,-274"/>
<text text-anchor="middle" x="574.69" y="-281" font-family="Helvetica,sans-Serif" font-size="10.00">src/graphics/framebuffer.h</text>
</a>
</g>
</g>
<!-- Node2&#45;&gt;Node10 -->
<g id="edge12" class="edge">
<title>Node2&#45;&gt;Node10</title>
<path fill="none" stroke="midnightblue" d="M373.7,-333.11C421.44,-321.57 495.88,-303.56 539.51,-293.01"/>
<polygon fill="midnightblue" stroke="midnightblue" points="372.83,-329.72 363.93,-335.48 374.48,-336.53 372.83,-329.72"/>
</g>
<!-- Node12 -->
<g id="node12" class="node">
<title>Node12</title>
<g id="a_node12"><a xlink:href="material_8h.html" target="_top" xlink:title=" ">
<polygon fill="white" stroke="black" points="398.69,-207 398.69,-226 526.69,-226 526.69,-207 398.69,-207"/>
<text text-anchor="middle" x="462.69" y="-214" font-family="Helvetica,sans-Serif" font-size="10.00">src/graphics/material.h</text>
</a>
</g>
</g>
<!-- Node2&#45;&gt;Node12 -->
<g id="edge15" class="edge">
<title>Node2&#45;&gt;Node12</title>
<path fill="none" stroke="midnightblue" d="M348.32,-329.24C359.3,-320.73 373.08,-309.64 384.69,-299 411.83,-274.11 441.17,-241.83 454.85,-226.43"/>
<polygon fill="midnightblue" stroke="midnightblue" points="346.02,-326.59 340.2,-335.45 350.27,-332.15 346.02,-326.59"/>
</g>
<!-- Node14 -->
<g id="node14" class="node">
<title>Node14</title>
<g id="a_node14"><a xlink:href="shader__program_8h.html" target="_top" xlink:title=" ">
<polygon fill="white" stroke="black" points="212.19,-268.5 212.19,-298.5 323.19,-298.5 323.19,-268.5 212.19,-268.5"/>
<text text-anchor="start" x="220.19" y="-286.5" font-family="Helvetica,sans-Serif" font-size="10.00">src/graphics/shader</text>
<text text-anchor="middle" x="267.69" y="-275.5" font-family="Helvetica,sans-Serif" font-size="10.00">_program.h</text>
</a>
</g>
</g>
<!-- Node2&#45;&gt;Node14 -->
<g id="edge19" class="edge">
<title>Node2&#45;&gt;Node14</title>
<path fill="none" stroke="midnightblue" d="M312.66,-328.37C303.17,-319.11 291.25,-307.48 282.06,-298.52"/>
<polygon fill="midnightblue" stroke="midnightblue" points="310.35,-331 319.95,-335.48 315.23,-325.99 310.35,-331"/>
</g>
<!-- Node16 -->
<g id="node16" class="node">
<title>Node16</title>
<g id="a_node16"><a xlink:href="skybox_8h.html" target="_top" xlink:title=" ">
<polygon fill="white" stroke="black" points="14.69,-207 14.69,-226 136.69,-226 136.69,-207 14.69,-207"/>
<text text-anchor="middle" x="75.69" y="-214" font-family="Helvetica,sans-Serif" font-size="10.00">src/graphics/skybox.h</text>
</a>
</g>
</g>
<!-- Node2&#45;&gt;Node16 -->
<g id="edge27" class="edge">
<title>Node2&#45;&gt;Node16</title>
<path fill="none" stroke="midnightblue" d="M289.25,-332.47C263.93,-324.45 230.66,-312.75 202.69,-299 157.54,-276.81 108.68,-242.06 87.07,-226.07"/>
<polygon fill="midnightblue" stroke="midnightblue" points="288.3,-335.84 298.89,-335.46 290.38,-329.15 288.3,-335.84"/>
</g>
<!-- Node4 -->
<g id="node4" class="node">
<title>Node4</title>
<g id="a_node4"><a xlink:href="game__scene_8cpp.html" target="_top" xlink:title=" ">
<polygon fill="white" stroke="black" points="106.69,-0.5 106.69,-30.5 230.69,-30.5 230.69,-0.5 106.69,-0.5"/>
<text text-anchor="start" x="114.69" y="-18.5" font-family="Helvetica,sans-Serif" font-size="10.00">src/game/scene/game</text>
<text text-anchor="middle" x="168.69" y="-7.5" font-family="Helvetica,sans-Serif" font-size="10.00">_scene.cpp</text>
</a>
</g>
</g>
<!-- Node3&#45;&gt;Node4 -->
<g id="edge3" class="edge">
<title>Node3&#45;&gt;Node4</title>
<path fill="none" stroke="midnightblue" d="M136.05,-129.89C143.72,-103.24 157.66,-54.8 164.58,-30.78"/>
<polygon fill="midnightblue" stroke="midnightblue" points="132.58,-129.26 133.18,-139.84 139.31,-131.2 132.58,-129.26"/>
</g>
<!-- Node5 -->
<g id="node5" class="node">
<title>Node5</title>
<g id="a_node5"><a xlink:href="renderer_8h.html" target="_top" xlink:title=" ">
<polygon fill="white" stroke="black" points="356.69,-73 356.69,-92 484.69,-92 484.69,-73 356.69,-73"/>
<text text-anchor="middle" x="420.69" y="-80" font-family="Helvetica,sans-Serif" font-size="10.00">src/graphics/renderer.h</text>
</a>
</g>
</g>
<!-- Node3&#45;&gt;Node5 -->
<g id="edge4" class="edge">
<title>Node3&#45;&gt;Node5</title>
<path fill="none" stroke="midnightblue" d="M178.77,-137.72C235.87,-124.92 329.97,-103.83 382.39,-92.08"/>
<polygon fill="midnightblue" stroke="midnightblue" points="177.89,-134.33 168.9,-139.94 179.42,-141.16 177.89,-134.33"/>
</g>
<!-- Node5&#45;&gt;Node4 -->
<g id="edge6" class="edge">
<title>Node5&#45;&gt;Node4</title>
<path fill="none" stroke="midnightblue" d="M377.69,-70.41C335.02,-59.4 269.49,-42.5 223.19,-30.56"/>
<polygon fill="midnightblue" stroke="midnightblue" points="376.93,-73.83 387.48,-72.94 378.68,-67.05 376.93,-73.83"/>
</g>
<!-- Node6 -->
<g id="node6" class="node">
<title>Node6</title>
<g id="a_node6"><a xlink:href="application_8cpp.html" target="_top" xlink:title=" ">
<polygon fill="white" stroke="black" points="416.19,-6 416.19,-25 581.19,-25 581.19,-6 416.19,-6"/>
<text text-anchor="middle" x="498.69" y="-13" font-family="Helvetica,sans-Serif" font-size="10.00">src/application/application.cpp</text>
</a>
</g>
</g>
<!-- Node5&#45;&gt;Node6 -->
<g id="edge5" class="edge">
<title>Node5&#45;&gt;Node6</title>
<path fill="none" stroke="midnightblue" d="M439.03,-66.21C454.4,-53.41 475.78,-35.59 488.34,-25.13"/>
<polygon fill="midnightblue" stroke="midnightblue" points="436.65,-63.64 431.21,-72.73 441.13,-69.02 436.65,-63.64"/>
</g>
<!-- Node7 -->
<g id="node7" class="node">
<title>Node7</title>
<g id="a_node7"><a xlink:href="renderer_8cpp.html" target="_top" xlink:title=" ">
<polygon fill="white" stroke="black" points="259.19,-6 259.19,-25 398.19,-25 398.19,-6 259.19,-6"/>
<text text-anchor="middle" x="328.69" y="-13" font-family="Helvetica,sans-Serif" font-size="10.00">src/graphics/renderer.cpp</text>
</a>
</g>
</g>
<!-- Node5&#45;&gt;Node7 -->
<g id="edge7" class="edge">
<title>Node5&#45;&gt;Node7</title>
<path fill="none" stroke="midnightblue" d="M400.05,-66.92C381.86,-54.07 355.98,-35.78 340.9,-25.13"/>
<polygon fill="midnightblue" stroke="midnightblue" points="398.09,-69.82 408.28,-72.73 402.13,-64.1 398.09,-69.82"/>
</g>
<!-- Node8&#45;&gt;Node4 -->
<g id="edge9" class="edge">
<title>Node8&#45;&gt;Node4</title>
<path fill="none" stroke="midnightblue" d="M237.05,-132.05C218.82,-124.41 200.37,-113.48 187.69,-98 171.76,-78.56 168.68,-48.17 168.36,-30.51"/>
<polygon fill="midnightblue" stroke="midnightblue" points="235.94,-135.37 246.53,-135.74 238.49,-128.85 235.94,-135.37"/>
</g>
<!-- Node8&#45;&gt;Node7 -->
<g id="edge11" class="edge">
<title>Node8&#45;&gt;Node7</title>
<path fill="none" stroke="midnightblue" d="M304.18,-124.32C310.99,-94.38 322.23,-44.91 326.73,-25.1"/>
<polygon fill="midnightblue" stroke="midnightblue" points="300.7,-123.85 301.9,-134.37 307.53,-125.4 300.7,-123.85"/>
</g>
<!-- Node9 -->
<g id="node9" class="node">
<title>Node9</title>
<g id="a_node9"><a xlink:href="asset__loader_8cpp.html" target="_top" xlink:title=" ">
<polygon fill="white" stroke="black" points="196.69,-67.5 196.69,-97.5 300.69,-97.5 300.69,-67.5 196.69,-67.5"/>
<text text-anchor="start" x="204.69" y="-85.5" font-family="Helvetica,sans-Serif" font-size="10.00">src/graphics/asset</text>
<text text-anchor="middle" x="248.69" y="-74.5" font-family="Helvetica,sans-Serif" font-size="10.00">_loader.cpp</text>
</a>
</g>
</g>
<!-- Node8&#45;&gt;Node9 -->
<g id="edge10" class="edge">
<title>Node8&#45;&gt;Node9</title>
<path fill="none" stroke="midnightblue" d="M281.72,-126.45C274.38,-116.9 266,-106 259.52,-97.58"/>
<polygon fill="midnightblue" stroke="midnightblue" points="278.97,-128.6 287.84,-134.4 284.52,-124.34 278.97,-128.6"/>
</g>
<!-- Node10&#45;&gt;Node5 -->
<g id="edge14" class="edge">
<title>Node10&#45;&gt;Node5</title>
<path fill="none" stroke="midnightblue" d="M577.92,-263.87C582.13,-233.25 585.75,-171.93 555.69,-134 537.82,-111.44 508.76,-98.96 482.17,-92.06"/>
<polygon fill="midnightblue" stroke="midnightblue" points="574.43,-263.56 576.35,-273.98 581.35,-264.64 574.43,-263.56"/>
</g>
<!-- Node11 -->
<g id="node11" class="node">
<title>Node11</title>
<g id="a_node11"><a xlink:href="framebuffer_8cpp.html" target="_top" xlink:title=" ">
<polygon fill="white" stroke="black" points="603.19,-207 603.19,-226 758.19,-226 758.19,-207 603.19,-207"/>
<text text-anchor="middle" x="680.69" y="-214" font-family="Helvetica,sans-Serif" font-size="10.00">src/graphics/framebuffer.cpp</text>
</a>
</g>
</g>
<!-- Node10&#45;&gt;Node11 -->
<g id="edge13" class="edge">
<title>Node10&#45;&gt;Node11</title>
<path fill="none" stroke="midnightblue" d="M597.61,-268.44C618.61,-255.57 649.01,-236.93 666.62,-226.13"/>
<polygon fill="midnightblue" stroke="midnightblue" points="595.68,-265.52 588.98,-273.73 599.34,-271.49 595.68,-265.52"/>
</g>
<!-- Node12&#45;&gt;Node5 -->
<g id="edge18" class="edge">
<title>Node12&#45;&gt;Node5</title>
<path fill="none" stroke="midnightblue" d="M435.11,-201.9C421.14,-193.4 405.52,-181 397.69,-165 385.54,-140.17 403.64,-107.86 414.11,-92.44"/>
<polygon fill="midnightblue" stroke="midnightblue" points="433.53,-205.03 443.95,-206.93 436.99,-198.94 433.53,-205.03"/>
</g>
<!-- Node12&#45;&gt;Node8 -->
<g id="edge16" class="edge">
<title>Node12&#45;&gt;Node8</title>
<path fill="none" stroke="midnightblue" d="M431.3,-203.06C403.51,-192.05 363.01,-175.99 334.08,-164.53"/>
<polygon fill="midnightblue" stroke="midnightblue" points="430.32,-206.44 440.91,-206.87 432.9,-199.93 430.32,-206.44"/>
</g>
<!-- Node13 -->
<g id="node13" class="node">
<title>Node13</title>
<g id="a_node13"><a xlink:href="material_8cpp.html" target="_top" xlink:title=" ">
<polygon fill="white" stroke="black" points="406.69,-140 406.69,-159 546.69,-159 546.69,-140 406.69,-140"/>
<text text-anchor="middle" x="476.69" y="-147" font-family="Helvetica,sans-Serif" font-size="10.00">src/graphics/material.cpp</text>
</a>
</g>
</g>
<!-- Node12&#45;&gt;Node13 -->
<g id="edge17" class="edge">
<title>Node12&#45;&gt;Node13</title>
<path fill="none" stroke="midnightblue" d="M466.69,-196.91C469.37,-184.49 472.76,-168.72 474.83,-159.13"/>
<polygon fill="midnightblue" stroke="midnightblue" points="463.26,-196.22 464.58,-206.73 470.1,-197.69 463.26,-196.22"/>
</g>
<!-- Node14&#45;&gt;Node3 -->
<g id="edge20" class="edge">
<title>Node14&#45;&gt;Node3</title>
<path fill="none" stroke="midnightblue" d="M227.98,-263.51C213.04,-255.17 196.56,-244.43 183.69,-232 160.37,-209.49 142.22,-174.9 134.6,-159.01"/>
<polygon fill="midnightblue" stroke="midnightblue" points="226.58,-266.73 237.04,-268.39 229.89,-260.57 226.58,-266.73"/>
</g>
<!-- Node14&#45;&gt;Node8 -->
<g id="edge21" class="edge">
<title>Node14&#45;&gt;Node8</title>
<path fill="none" stroke="midnightblue" d="M292.91,-261.21C300.8,-252.99 308.53,-242.92 312.69,-232 321.27,-209.46 312.56,-181.41 305.56,-164.78"/>
<polygon fill="midnightblue" stroke="midnightblue" points="290.44,-258.73 285.71,-268.21 295.32,-263.74 290.44,-258.73"/>
</g>
<!-- Node14&#45;&gt;Node12 -->
<g id="edge22" class="edge">
<title>Node14&#45;&gt;Node12</title>
<path fill="none" stroke="midnightblue" d="M319.87,-265.11C357.8,-252.46 407.51,-235.89 437.17,-226.01"/>
<polygon fill="midnightblue" stroke="midnightblue" points="318.38,-261.91 310,-268.4 320.59,-268.55 318.38,-261.91"/>
</g>
<!-- Node15 -->
<g id="node15" class="node">
<title>Node15</title>
<g id="a_node15"><a xlink:href="shader__program_8cpp.html" target="_top" xlink:title=" ">
<polygon fill="white" stroke="black" points="193.19,-201.5 193.19,-231.5 304.19,-231.5 304.19,-201.5 193.19,-201.5"/>
<text text-anchor="start" x="201.19" y="-219.5" font-family="Helvetica,sans-Serif" font-size="10.00">src/graphics/shader</text>
<text text-anchor="middle" x="248.69" y="-208.5" font-family="Helvetica,sans-Serif" font-size="10.00">_program.cpp</text>
</a>
</g>
</g>
<!-- Node14&#45;&gt;Node15 -->
<g id="edge23" class="edge">
<title>Node14&#45;&gt;Node15</title>
<path fill="none" stroke="midnightblue" d="M260.73,-258.7C258.07,-249.59 255.12,-239.49 252.8,-231.58"/>
<polygon fill="midnightblue" stroke="midnightblue" points="257.4,-259.78 263.57,-268.4 264.12,-257.82 257.4,-259.78"/>
</g>
<!-- Node14&#45;&gt;Node16 -->
<g id="edge24" class="edge">
<title>Node14&#45;&gt;Node16</title>
<path fill="none" stroke="midnightblue" d="M216.31,-265.11C178.96,-252.46 130.02,-235.89 100.82,-226.01"/>
<polygon fill="midnightblue" stroke="midnightblue" points="215.43,-268.5 226.03,-268.4 217.68,-261.87 215.43,-268.5"/>
</g>
<!-- Node16&#45;&gt;Node3 -->
<g id="edge25" class="edge">
<title>Node16&#45;&gt;Node3</title>
<path fill="none" stroke="midnightblue" d="M89.84,-198.77C100.57,-186.1 114.86,-169.2 123.39,-159.13"/>
<polygon fill="midnightblue" stroke="midnightblue" points="86.89,-196.84 83.11,-206.73 92.24,-201.36 86.89,-196.84"/>
</g>
<!-- Node16&#45;&gt;Node8 -->
<g id="edge26" class="edge">
<title>Node16&#45;&gt;Node8</title>
<path fill="none" stroke="midnightblue" d="M114.94,-204.06C152.75,-193.04 210.02,-176.34 250.56,-164.53"/>
<polygon fill="midnightblue" stroke="midnightblue" points="113.92,-200.71 105.3,-206.87 115.88,-207.43 113.92,-200.71"/>
</g>
</g>
</svg>
        <g id="navigator" transform="translate(0 0)" fill="#404254">
                <rect fill="#f2f5e9" fill-opacity="0.5" stroke="#606060" stroke-width=".5" x="0" y="0" width="60" height="60"/>
                <use id="zoomplus" xlink:href="#zoomPlus" x="17" y="9" onmousedown="handleZoom(evt,'in')"/>
                <use id="zoomminus" xlink:href="#zoomMin" x="42" y="9" onmousedown="handleZoom(evt,'out')"/>
                <use id="reset" xlink:href="#resetDef" x="30" y="36" onmousedown="handleReset()"/>
                <g id="arrowUp" xlink:href="#dirArrow" transform="translate(30 24)" onmousedown="handlePan(0,-1)">
                  <use xlink:href="#rim" fill="#404040">
                        <set attributeName="fill" to="#808080" begin="arrowUp.mouseover" end="arrowUp.mouseout"/>
                  </use>
                  <path fill="none" stroke="white" stroke-width="1.5" d="M0,-3.0v7 M-2.5,-0.5L0,-3.0L2.5,-0.5"/>
                </g>
                <g id="arrowRight" xlink:href="#dirArrow" transform="rotate(90) translate(36 -43)" onmousedown="handlePan(1,0)">
                  <use xlink:href="#rim" fill="#404040">
                        <set attributeName="fill" to="#808080" begin="arrowRight.mouseover" end="arrowRight.mouseout"/>
                  </use>
                  <path fill="none" stroke="white" stroke-width="1.5" d="M0,-3.0v7 M-2.5,-0.5L0,-3.0L2.5,-0.5"/>
                </g>
                <g id="arrowDown" xlink:href="#dirArrow" transform="rotate(180) translate(-30 -48)" onmousedown="handlePan(0,1)">
                  <use xlink:href="#rim" fill="#404040">
                        <set attributeName="fill" to="#808080" begin="arrowDown.mouseover" end="arrowDown.mouseout"/>
                  </use>
                  <path fill="none" stroke="white" stroke-width="1.5" d="M0,-3.0v7 M-2.5,-0.5L0,-3.0L2.5,-0.5"/>
                </g>
                <g id="arrowLeft" xlink:href="#dirArrow" transform="rotate(270) translate(-36 17)" onmousedown="handlePan(-1,0)">
                  <use xlink:href="#rim" fill="#404040">
                        <set attributeName="fill" to="#808080" begin="arrowLeft.mouseover" end="arrowLeft.mouseout"/>
                  </use>
                  <path fill="none" stroke="white" stroke-width="1.5" d="M0,-3.0v7 M-2.5,-0.5L0,-3.0L2.5,-0.5"/>
                </g>
        </g>
        <svg viewBox="0 0 15 15" width="100%" height="30px" preserveAspectRatio="xMaxYMin meet">
         <g id="arrow_out" transform="scale(0.3 0.3)">
          <a xlink:href="pixel__format_8h__dep__incl_org.svg" target="_base">
           <rect id="button" ry="5" rx="5" y="6" x="6" height="38" width="38"
                fill="#f2f5e9" fill-opacity="0.5" stroke="#606060" stroke-width="1.0"/>
           <path id="arrow"
             d="M 11.500037,31.436501 C 11.940474,20.09759 22.043105,11.32322 32.158766,21.979434 L 37.068811,17.246167 C 37.068811,17.246167 37.088388,32 37.088388,32 L 22.160133,31.978069 C 22.160133,31.978069 26.997745,27.140456 26.997745,27.140456 C 18.528582,18.264221 13.291696,25.230495 11.500037,31.436501 z"
             style="fill:#404040;"/>
          </a>
         </g>
        </svg>
</svg>
