<?xml version="1.0" encoding="UTF-8" standalone="no"?>
<!DOCTYPE svg PUBLIC "-//W3C//DTD SVG 1.1//EN"
 "http://www.w3.org/Graphics/SVG/1.1/DTD/svg11.dtd">
<!-- Generated by graphviz version 2.43.0 (0)
 -->
<!-- Title: src/graphics/shader/post_proc_shader.cpp Pages: 1 -->
<svg width="720pt" height="229pt"
 viewBox="0.00 0.00 720.00 229.00" xmlns="http://www.w3.org/2000/svg" xmlns:xlink="http://www.w3.org/1999/xlink">
<g id="graph0" class="graph" transform="scale(1 1) rotate(0) translate(4 225)">
<title>src/graphics/shader/post_proc_shader.cpp</title>
<polygon fill="white" stroke="transparent" points="-4,4 -4,-225 716,-225 716,4 -4,4"/>
<!-- Node1 -->
<g id="node1" class="node">
<title>Node1</title>
<g id="a_node1"><a xlink:title=" ">
<polygon fill="#bfbfbf" stroke="black" points="422.5,-190.5 422.5,-220.5 547.5,-220.5 547.5,-190.5 422.5,-190.5"/>
<text text-anchor="start" x="430.5" y="-208.5" font-family="Helvetica,sans-Serif" font-size="10.00">src/graphics/shader</text>
<text text-anchor="middle" x="485" y="-197.5" font-family="Helvetica,sans-Serif" font-size="10.00">/post_proc_shader.cpp</text>
</a>
</g>
</g>
<!-- Node2 -->
<g id="node2" class="node">
<title>Node2</title>
<g id="a_node2"><a xlink:href="post__proc__shader_8h.html" target="_top" xlink:title=" ">
<polygon fill="white" stroke="black" points="355,-123.5 355,-153.5 473,-153.5 473,-123.5 355,-123.5"/>
<text text-anchor="start" x="363" y="-141.5" font-family="Helvetica,sans-Serif" font-size="10.00">graphics/shader/post</text>
<text text-anchor="middle" x="414" y="-130.5" font-family="Helvetica,sans-Serif" font-size="10.00">_proc_shader.h</text>
</a>
</g>
</g>
<!-- Node1&#45;&gt;Node2 -->
<g id="edge1" class="edge">
<title>Node1&#45;&gt;Node2</title>
<path fill="none" stroke="midnightblue" d="M469.59,-190.4C460.01,-181.62 447.51,-170.18 436.8,-160.37"/>
<polygon fill="midnightblue" stroke="midnightblue" points="439.12,-157.75 429.38,-153.58 434.39,-162.91 439.12,-157.75"/>
</g>
<!-- Node11 -->
<g id="node11" class="node">
<title>Node11</title>
<g id="a_node11"><a xlink:href="texture__unit_8h.html" target="_top" xlink:title=" ">
<polygon fill="white" stroke="black" points="523,-123.5 523,-153.5 655,-153.5 655,-123.5 523,-123.5"/>
<text text-anchor="start" x="531" y="-141.5" font-family="Helvetica,sans-Serif" font-size="10.00">graphics/shader/texture</text>
<text text-anchor="middle" x="589" y="-130.5" font-family="Helvetica,sans-Serif" font-size="10.00">_unit.h</text>
</a>
</g>
</g>
<!-- Node1&#45;&gt;Node11 -->
<g id="edge10" class="edge">
<title>Node1&#45;&gt;Node11</title>
<path fill="none" stroke="midnightblue" d="M507.57,-190.4C522.29,-181.2 541.69,-169.07 557.87,-158.95"/>
<polygon fill="midnightblue" stroke="midnightblue" points="559.85,-161.84 566.48,-153.58 556.14,-155.91 559.85,-161.84"/>
</g>
<!-- Node3 -->
<g id="node3" class="node">
<title>Node3</title>
<g id="a_node3"><a xlink:href="shader__program_8h.html" target="_top" xlink:title=" ">
<polygon fill="white" stroke="black" points="250,-56.5 250,-86.5 380,-86.5 380,-56.5 250,-56.5"/>
<text text-anchor="start" x="258" y="-74.5" font-family="Helvetica,sans-Serif" font-size="10.00">graphics/shader/shader</text>
<text text-anchor="middle" x="315" y="-63.5" font-family="Helvetica,sans-Serif" font-size="10.00">_program.h</text>
</a>
</g>
</g>
<!-- Node2&#45;&gt;Node3 -->
<g id="edge2" class="edge">
<title>Node2&#45;&gt;Node3</title>
<path fill="none" stroke="midnightblue" d="M392.52,-123.4C378.64,-114.28 360.37,-102.29 345.06,-92.24"/>
<polygon fill="midnightblue" stroke="midnightblue" points="346.72,-89.14 336.44,-86.58 342.88,-94.99 346.72,-89.14"/>
</g>
<!-- Node4 -->
<g id="node4" class="node">
<title>Node4</title>
<g id="a_node4"><a xlink:title=" ">
<polygon fill="white" stroke="#bfbfbf" points="0,-0.5 0,-19.5 44,-19.5 44,-0.5 0,-0.5"/>
<text text-anchor="middle" x="22" y="-7.5" font-family="Helvetica,sans-Serif" font-size="10.00">string</text>
</a>
</g>
</g>
<!-- Node3&#45;&gt;Node4 -->
<g id="edge3" class="edge">
<title>Node3&#45;&gt;Node4</title>
<path fill="none" stroke="midnightblue" d="M249.77,-59.65C198.93,-50.8 126.41,-37.31 54.44,-20.18"/>
<polygon fill="midnightblue" stroke="midnightblue" points="54.83,-16.67 44.29,-17.74 53.19,-23.48 54.83,-16.67"/>
</g>
<!-- Node5 -->
<g id="node5" class="node">
<title>Node5</title>
<g id="a_node5"><a xlink:title=" ">
<polygon fill="white" stroke="#bfbfbf" points="62.5,-0.5 62.5,-19.5 109.5,-19.5 109.5,-0.5 62.5,-0.5"/>
<text text-anchor="middle" x="86" y="-7.5" font-family="Helvetica,sans-Serif" font-size="10.00">vector</text>
</a>
</g>
</g>
<!-- Node3&#45;&gt;Node5 -->
<g id="edge4" class="edge">
<title>Node3&#45;&gt;Node5</title>
<path fill="none" stroke="midnightblue" d="M259.61,-56.45C222.63,-47.02 172.65,-34.18 119.7,-20.16"/>
<polygon fill="midnightblue" stroke="midnightblue" points="120.35,-16.71 109.78,-17.53 118.55,-23.48 120.35,-16.71"/>
</g>
<!-- Node6 -->
<g id="node6" class="node">
<title>Node6</title>
<g id="a_node6"><a xlink:title=" ">
<polygon fill="white" stroke="#bfbfbf" points="128,-0.5 128,-19.5 192,-19.5 192,-0.5 128,-0.5"/>
<text text-anchor="middle" x="160" y="-7.5" font-family="Helvetica,sans-Serif" font-size="10.00">GL/glew.h</text>
</a>
</g>
</g>
<!-- Node3&#45;&gt;Node6 -->
<g id="edge5" class="edge">
<title>Node3&#45;&gt;Node6</title>
<path fill="none" stroke="midnightblue" d="M278.27,-56.4C252.03,-46.33 217.07,-32.91 191.98,-23.28"/>
<polygon fill="midnightblue" stroke="midnightblue" points="193.14,-19.97 182.55,-19.66 190.64,-26.51 193.14,-19.97"/>
</g>
<!-- Node7 -->
<g id="node7" class="node">
<title>Node7</title>
<g id="a_node7"><a xlink:title=" ">
<polygon fill="white" stroke="#bfbfbf" points="548.5,-0.5 548.5,-19.5 637.5,-19.5 637.5,-0.5 548.5,-0.5"/>
<text text-anchor="middle" x="593" y="-7.5" font-family="Helvetica,sans-Serif" font-size="10.00">maths/colour.h</text>
</a>
</g>
</g>
<!-- Node3&#45;&gt;Node7 -->
<g id="edge6" class="edge">
<title>Node3&#45;&gt;Node7</title>
<path fill="none" stroke="midnightblue" d="M380.18,-56.55C430.01,-45.88 497.68,-31.4 543.22,-21.65"/>
<polygon fill="midnightblue" stroke="midnightblue" points="544.11,-25.04 553.15,-19.53 542.64,-18.2 544.11,-25.04"/>
</g>
<!-- Node8 -->
<g id="node8" class="node">
<title>Node8</title>
<g id="a_node8"><a xlink:title=" ">
<polygon fill="white" stroke="#bfbfbf" points="210,-0.5 210,-19.5 306,-19.5 306,-0.5 210,-0.5"/>
<text text-anchor="middle" x="258" y="-7.5" font-family="Helvetica,sans-Serif" font-size="10.00">maths/vector2.h</text>
</a>
</g>
</g>
<!-- Node3&#45;&gt;Node8 -->
<g id="edge7" class="edge">
<title>Node3&#45;&gt;Node8</title>
<path fill="none" stroke="midnightblue" d="M301.49,-56.4C293.04,-47.58 282.12,-36.18 273.34,-27.02"/>
<polygon fill="midnightblue" stroke="midnightblue" points="275.74,-24.46 266.29,-19.66 270.68,-29.3 275.74,-24.46"/>
</g>
<!-- Node9 -->
<g id="node9" class="node">
<title>Node9</title>
<g id="a_node9"><a xlink:title=" ">
<polygon fill="white" stroke="#bfbfbf" points="324,-0.5 324,-19.5 420,-19.5 420,-0.5 324,-0.5"/>
<text text-anchor="middle" x="372" y="-7.5" font-family="Helvetica,sans-Serif" font-size="10.00">maths/vector3.h</text>
</a>
</g>
</g>
<!-- Node3&#45;&gt;Node9 -->
<g id="edge8" class="edge">
<title>Node3&#45;&gt;Node9</title>
<path fill="none" stroke="midnightblue" d="M328.51,-56.4C336.96,-47.58 347.88,-36.18 356.66,-27.02"/>
<polygon fill="midnightblue" stroke="midnightblue" points="359.32,-29.3 363.71,-19.66 354.26,-24.46 359.32,-29.3"/>
</g>
<!-- Node10 -->
<g id="node10" class="node">
<title>Node10</title>
<g id="a_node10"><a xlink:title=" ">
<polygon fill="white" stroke="#bfbfbf" points="438,-0.5 438,-19.5 530,-19.5 530,-0.5 438,-0.5"/>
<text text-anchor="middle" x="484" y="-7.5" font-family="Helvetica,sans-Serif" font-size="10.00">maths/matrix.h</text>
</a>
</g>
</g>
<!-- Node3&#45;&gt;Node10 -->
<g id="edge9" class="edge">
<title>Node3&#45;&gt;Node10</title>
<path fill="none" stroke="midnightblue" d="M355.05,-56.4C383.91,-46.24 422.45,-32.67 449.85,-23.02"/>
<polygon fill="midnightblue" stroke="midnightblue" points="451.14,-26.28 459.41,-19.66 448.81,-19.68 451.14,-26.28"/>
</g>
<!-- Node12 -->
<g id="node12" class="node">
<title>Node12</title>
<g id="a_node12"><a xlink:title=" ">
<polygon fill="white" stroke="#bfbfbf" points="662,-0.5 662,-19.5 712,-19.5 712,-0.5 662,-0.5"/>
<text text-anchor="middle" x="687" y="-7.5" font-family="Helvetica,sans-Serif" font-size="10.00">cstdint</text>
</a>
</g>
</g>
<!-- Node11&#45;&gt;Node12 -->
<g id="edge11" class="edge">
<title>Node11&#45;&gt;Node12</title>
<path fill="none" stroke="midnightblue" d="M624.9,-123.36C641.34,-115.12 659.65,-103.13 671,-87 682.85,-70.16 686.26,-46.35 687.08,-29.9"/>
<polygon fill="midnightblue" stroke="midnightblue" points="690.58,-29.93 687.3,-19.85 683.58,-29.77 690.58,-29.93"/>
</g>
<!-- Node13 -->
<g id="node13" class="node">
<title>Node13</title>
<g id="a_node13"><a xlink:href="lighting_8h.html" target="_top" xlink:title=" ">
<polygon fill="white" stroke="black" points="516,-62 516,-81 662,-81 662,-62 516,-62"/>
<text text-anchor="middle" x="589" y="-69" font-family="Helvetica,sans-Serif" font-size="10.00">graphics/lighting/lighting.h</text>
</a>
</g>
</g>
<!-- Node11&#45;&gt;Node13 -->
<g id="edge12" class="edge">
<title>Node11&#45;&gt;Node13</title>
<path fill="none" stroke="midnightblue" d="M589,-123.4C589,-114.06 589,-101.71 589,-91.52"/>
<polygon fill="midnightblue" stroke="midnightblue" points="592.5,-91.19 589,-81.19 585.5,-91.19 592.5,-91.19"/>
</g>
<!-- Node13&#45;&gt;Node7 -->
<g id="edge14" class="edge">
<title>Node13&#45;&gt;Node7</title>
<path fill="none" stroke="midnightblue" d="M589.57,-61.98C590.14,-53.58 591.02,-40.48 591.75,-29.66"/>
<polygon fill="midnightblue" stroke="midnightblue" points="595.25,-29.72 592.43,-19.51 588.26,-29.25 595.25,-29.72"/>
</g>
<!-- Node13&#45;&gt;Node12 -->
<g id="edge13" class="edge">
<title>Node13&#45;&gt;Node12</title>
<path fill="none" stroke="midnightblue" d="M603.04,-61.98C619.05,-52.25 645.45,-36.23 664.37,-24.74"/>
<polygon fill="midnightblue" stroke="midnightblue" points="666.25,-27.69 672.99,-19.51 662.62,-21.71 666.25,-27.69"/>
</g>
</g>
</svg>
