<?xml version="1.0" encoding="UTF-8" standalone="no"?>
<!DOCTYPE svg PUBLIC "-//W3C//DTD SVG 1.1//EN"
 "http://www.w3.org/Graphics/SVG/1.1/DTD/svg11.dtd">
<!-- Generated by graphviz version 2.43.0 (0)
 -->
<!-- Title: src/graphics/render_path.h Pages: 1 -->
<svg width="610pt" height="229pt"
 viewBox="0.00 0.00 609.50 229.00" xmlns="http://www.w3.org/2000/svg" xmlns:xlink="http://www.w3.org/1999/xlink">
<g id="graph0" class="graph" transform="scale(1 1) rotate(0) translate(4 225)">
<title>src/graphics/render_path.h</title>
<polygon fill="white" stroke="transparent" points="-4,4 -4,-225 605.5,-225 605.5,4 -4,4"/>
<!-- Node1 -->
<g id="node1" class="node">
<title>Node1</title>
<g id="a_node1"><a xlink:title=" ">
<polygon fill="#bfbfbf" stroke="black" points="336.5,-190.5 336.5,-220.5 446.5,-220.5 446.5,-190.5 336.5,-190.5"/>
<text text-anchor="start" x="344.5" y="-208.5" font-family="Helvetica,sans-Serif" font-size="10.00">src/graphics/render</text>
<text text-anchor="middle" x="391.5" y="-197.5" font-family="Helvetica,sans-Serif" font-size="10.00">_path.h</text>
</a>
</g>
</g>
<!-- Node2 -->
<g id="node2" class="node">
<title>Node2</title>
<g id="a_node2"><a xlink:href="material_8h.html" target="_top" xlink:title=" ">
<polygon fill="white" stroke="black" points="327.5,-134.5 327.5,-153.5 455.5,-153.5 455.5,-134.5 327.5,-134.5"/>
<text text-anchor="middle" x="391.5" y="-141.5" font-family="Helvetica,sans-Serif" font-size="10.00">src/graphics/material.h</text>
</a>
</g>
</g>
<!-- Node1&#45;&gt;Node2 -->
<g id="edge1" class="edge">
<title>Node1&#45;&gt;Node2</title>
<path fill="none" stroke="midnightblue" d="M391.5,-180.29C391.5,-170.86 391.5,-160.65 391.5,-153.66"/>
<polygon fill="midnightblue" stroke="midnightblue" points="388,-180.4 391.5,-190.4 395,-180.4 388,-180.4"/>
</g>
<!-- Node3 -->
<g id="node3" class="node">
<title>Node3</title>
<g id="a_node3"><a xlink:href="asset__loader_8h.html" target="_top" xlink:title=" ">
<polygon fill="white" stroke="black" points="339.5,-67.5 339.5,-97.5 443.5,-97.5 443.5,-67.5 339.5,-67.5"/>
<text text-anchor="start" x="347.5" y="-85.5" font-family="Helvetica,sans-Serif" font-size="10.00">src/graphics/asset</text>
<text text-anchor="middle" x="391.5" y="-74.5" font-family="Helvetica,sans-Serif" font-size="10.00">_loader.h</text>
</a>
</g>
</g>
<!-- Node2&#45;&gt;Node3 -->
<g id="edge2" class="edge">
<title>Node2&#45;&gt;Node3</title>
<path fill="none" stroke="midnightblue" d="M391.5,-124.23C391.5,-115.59 391.5,-105.5 391.5,-97.52"/>
<polygon fill="midnightblue" stroke="midnightblue" points="388,-124.48 391.5,-134.48 395,-124.48 388,-124.48"/>
</g>
<!-- Node7 -->
<g id="node7" class="node">
<title>Node7</title>
<g id="a_node7"><a xlink:href="material_8cpp.html" target="_top" xlink:title=" ">
<polygon fill="white" stroke="black" points="461.5,-73 461.5,-92 601.5,-92 601.5,-73 461.5,-73"/>
<text text-anchor="middle" x="531.5" y="-80" font-family="Helvetica,sans-Serif" font-size="10.00">src/graphics/material.cpp</text>
</a>
</g>
</g>
<!-- Node2&#45;&gt;Node7 -->
<g id="edge6" class="edge">
<title>Node2&#45;&gt;Node7</title>
<path fill="none" stroke="midnightblue" d="M420.96,-130.48C448.15,-118.92 487.79,-102.08 511.48,-92.01"/>
<polygon fill="midnightblue" stroke="midnightblue" points="419.39,-127.34 411.56,-134.48 422.13,-133.78 419.39,-127.34"/>
</g>
<!-- Node8 -->
<g id="node8" class="node">
<title>Node8</title>
<g id="a_node8"><a xlink:href="renderer_8h.html" target="_top" xlink:title=" ">
<polygon fill="white" stroke="black" points="189.5,-73 189.5,-92 317.5,-92 317.5,-73 189.5,-73"/>
<text text-anchor="middle" x="253.5" y="-80" font-family="Helvetica,sans-Serif" font-size="10.00">src/graphics/renderer.h</text>
</a>
</g>
</g>
<!-- Node2&#45;&gt;Node8 -->
<g id="edge7" class="edge">
<title>Node2&#45;&gt;Node8</title>
<path fill="none" stroke="midnightblue" d="M362.46,-130.48C335.66,-118.92 296.58,-102.08 273.24,-92.01"/>
<polygon fill="midnightblue" stroke="midnightblue" points="361.16,-133.73 371.73,-134.48 363.93,-127.3 361.16,-133.73"/>
</g>
<!-- Node4 -->
<g id="node4" class="node">
<title>Node4</title>
<g id="a_node4"><a xlink:href="game__scene_8cpp.html" target="_top" xlink:title=" ">
<polygon fill="white" stroke="black" points="183.5,-0.5 183.5,-30.5 307.5,-30.5 307.5,-0.5 183.5,-0.5"/>
<text text-anchor="start" x="191.5" y="-18.5" font-family="Helvetica,sans-Serif" font-size="10.00">src/game/scene/game</text>
<text text-anchor="middle" x="245.5" y="-7.5" font-family="Helvetica,sans-Serif" font-size="10.00">_scene.cpp</text>
</a>
</g>
</g>
<!-- Node3&#45;&gt;Node4 -->
<g id="edge3" class="edge">
<title>Node3&#45;&gt;Node4</title>
<path fill="none" stroke="midnightblue" d="M350.55,-63.27C327.3,-52.92 298.63,-40.15 277.12,-30.58"/>
<polygon fill="midnightblue" stroke="midnightblue" points="349.26,-66.53 359.82,-67.4 352.11,-60.13 349.26,-66.53"/>
</g>
<!-- Node5 -->
<g id="node5" class="node">
<title>Node5</title>
<g id="a_node5"><a xlink:href="asset__loader_8cpp.html" target="_top" xlink:title=" ">
<polygon fill="white" stroke="black" points="483.5,-0.5 483.5,-30.5 587.5,-30.5 587.5,-0.5 483.5,-0.5"/>
<text text-anchor="start" x="491.5" y="-18.5" font-family="Helvetica,sans-Serif" font-size="10.00">src/graphics/asset</text>
<text text-anchor="middle" x="535.5" y="-7.5" font-family="Helvetica,sans-Serif" font-size="10.00">_loader.cpp</text>
</a>
</g>
</g>
<!-- Node3&#45;&gt;Node5 -->
<g id="edge4" class="edge">
<title>Node3&#45;&gt;Node5</title>
<path fill="none" stroke="midnightblue" d="M431.89,-63.27C454.82,-52.92 483.1,-40.15 504.32,-30.58"/>
<polygon fill="midnightblue" stroke="midnightblue" points="430.42,-60.09 422.75,-67.4 433.3,-66.47 430.42,-60.09"/>
</g>
<!-- Node6 -->
<g id="node6" class="node">
<title>Node6</title>
<g id="a_node6"><a xlink:href="renderer_8cpp.html" target="_top" xlink:title=" ">
<polygon fill="white" stroke="black" points="326,-6 326,-25 465,-25 465,-6 326,-6"/>
<text text-anchor="middle" x="395.5" y="-13" font-family="Helvetica,sans-Serif" font-size="10.00">src/graphics/renderer.cpp</text>
</a>
</g>
</g>
<!-- Node3&#45;&gt;Node6 -->
<g id="edge5" class="edge">
<title>Node3&#45;&gt;Node6</title>
<path fill="none" stroke="midnightblue" d="M392.99,-57.25C393.68,-46.02 394.46,-33.38 394.96,-25.19"/>
<polygon fill="midnightblue" stroke="midnightblue" points="389.49,-57.2 392.37,-67.4 396.48,-57.63 389.49,-57.2"/>
</g>
<!-- Node8&#45;&gt;Node4 -->
<g id="edge9" class="edge">
<title>Node8&#45;&gt;Node4</title>
<path fill="none" stroke="midnightblue" d="M251.19,-62.74C249.93,-52.49 248.39,-40 247.23,-30.59"/>
<polygon fill="midnightblue" stroke="midnightblue" points="247.73,-63.24 252.42,-72.73 254.67,-62.38 247.73,-63.24"/>
</g>
<!-- Node8&#45;&gt;Node6 -->
<g id="edge10" class="edge">
<title>Node8&#45;&gt;Node6</title>
<path fill="none" stroke="midnightblue" d="M281.65,-68.61C309.78,-55.74 352.23,-36.31 376.57,-25.17"/>
<polygon fill="midnightblue" stroke="midnightblue" points="279.99,-65.52 272.36,-72.87 282.91,-71.89 279.99,-65.52"/>
</g>
<!-- Node9 -->
<g id="node9" class="node">
<title>Node9</title>
<g id="a_node9"><a xlink:href="application_8cpp.html" target="_top" xlink:title=" ">
<polygon fill="white" stroke="black" points="0,-6 0,-25 165,-25 165,-6 0,-6"/>
<text text-anchor="middle" x="82.5" y="-13" font-family="Helvetica,sans-Serif" font-size="10.00">src/application/application.cpp</text>
</a>
</g>
</g>
<!-- Node8&#45;&gt;Node9 -->
<g id="edge8" class="edge">
<title>Node8&#45;&gt;Node9</title>
<path fill="none" stroke="midnightblue" d="M221.33,-69.27C187.39,-56.37 134.79,-36.38 105.03,-25.06"/>
<polygon fill="midnightblue" stroke="midnightblue" points="220.2,-72.59 230.79,-72.87 222.69,-66.04 220.2,-72.59"/>
</g>
</g>
</svg>
