<?xml version="1.0" encoding="UTF-8" standalone="no"?>
<!DOCTYPE svg PUBLIC "-//W3C//DTD SVG 1.1//EN"
 "http://www.w3.org/Graphics/SVG/1.1/DTD/svg11.dtd">
<!-- Generated by graphviz version 2.43.0 (0)
 -->
<!-- Title: src/graphics/renderer.cpp Pages: 1 -->
<svg width="1659pt" height="431pt"
 viewBox="0.00 0.00 1658.53 431.00" xmlns="http://www.w3.org/2000/svg" xmlns:xlink="http://www.w3.org/1999/xlink">
<g id="graph0" class="graph" transform="scale(1 1) rotate(0) translate(4 427)">
<title>src/graphics/renderer.cpp</title>
<polygon fill="white" stroke="transparent" points="-4,4 -4,-427 1654.53,-427 1654.53,4 -4,4"/>
<!-- Node1 -->
<g id="node1" class="node">
<title>Node1</title>
<g id="a_node1"><a xlink:title=" ">
<polygon fill="#bfbfbf" stroke="black" points="122.59,-403.5 122.59,-422.5 261.59,-422.5 261.59,-403.5 122.59,-403.5"/>
<text text-anchor="middle" x="192.09" y="-410.5" font-family="Helvetica,sans-Serif" font-size="10.00">src/graphics/renderer.cpp</text>
</a>
</g>
</g>
<!-- Node2 -->
<g id="node2" class="node">
<title>Node2</title>
<g id="a_node2"><a xlink:title=" ">
<polygon fill="white" stroke="#bfbfbf" points="576.09,-0.5 576.09,-19.5 640.09,-19.5 640.09,-0.5 576.09,-0.5"/>
<text text-anchor="middle" x="608.09" y="-7.5" font-family="Helvetica,sans-Serif" font-size="10.00">GL/glew.h</text>
</a>
</g>
</g>
<!-- Node1&#45;&gt;Node2 -->
<g id="edge1" class="edge">
<title>Node1&#45;&gt;Node2</title>
<path fill="none" stroke="midnightblue" d="M176.79,-403.35C131.46,-376.5 1.09,-289.63 1.09,-179 1.09,-179 1.09,-179 1.09,-121 1.09,-90.9 -3.28,-74.96 20.09,-56 41.26,-38.83 434.2,-19.08 565.66,-12.93"/>
<polygon fill="midnightblue" stroke="midnightblue" points="565.92,-16.42 575.75,-12.46 565.6,-9.43 565.92,-16.42"/>
</g>
<!-- Node3 -->
<g id="node3" class="node">
<title>Node3</title>
<g id="a_node3"><a xlink:title=" ">
<polygon fill="white" stroke="#bfbfbf" points="143.09,-224.5 143.09,-243.5 215.09,-243.5 215.09,-224.5 143.09,-224.5"/>
<text text-anchor="middle" x="179.09" y="-231.5" font-family="Helvetica,sans-Serif" font-size="10.00">SDL2/SDL.h</text>
</a>
</g>
</g>
<!-- Node1&#45;&gt;Node3 -->
<g id="edge2" class="edge">
<title>Node1&#45;&gt;Node3</title>
<path fill="none" stroke="midnightblue" d="M181.1,-403.37C171.64,-395.17 158.66,-381.92 153.09,-367 138.39,-327.59 157.24,-278.3 169.71,-252.54"/>
<polygon fill="midnightblue" stroke="midnightblue" points="172.85,-254.1 174.25,-243.6 166.6,-250.93 172.85,-254.1"/>
</g>
<!-- Node4 -->
<g id="node4" class="node">
<title>Node4</title>
<g id="a_node4"><a xlink:title=" ">
<polygon fill="white" stroke="#bfbfbf" points="29.09,-56.5 29.09,-75.5 137.09,-75.5 137.09,-56.5 29.09,-56.5"/>
<text text-anchor="middle" x="83.09" y="-63.5" font-family="Helvetica,sans-Serif" font-size="10.00">SDL2/SDL_image.h</text>
</a>
</g>
</g>
<!-- Node1&#45;&gt;Node4 -->
<g id="edge3" class="edge">
<title>Node1&#45;&gt;Node4</title>
<path fill="none" stroke="midnightblue" d="M160.02,-403.46C115.16,-389.35 39.09,-356.57 39.09,-296.5 39.09,-296.5 39.09,-296.5 39.09,-177 39.09,-142.04 58.49,-105.01 71.53,-84.07"/>
<polygon fill="midnightblue" stroke="midnightblue" points="74.48,-85.95 76.98,-75.65 68.61,-82.15 74.48,-85.95"/>
</g>
<!-- Node5 -->
<g id="node5" class="node">
<title>Node5</title>
<g id="a_node5"><a xlink:title=" ">
<polygon fill="white" stroke="#bfbfbf" points="162.59,-347.5 162.59,-366.5 221.59,-366.5 221.59,-347.5 162.59,-347.5"/>
<text text-anchor="middle" x="192.09" y="-354.5" font-family="Helvetica,sans-Serif" font-size="10.00">log/log.h</text>
</a>
</g>
</g>
<!-- Node1&#45;&gt;Node5 -->
<g id="edge4" class="edge">
<title>Node1&#45;&gt;Node5</title>
<path fill="none" stroke="midnightblue" d="M192.09,-403.08C192.09,-396.01 192.09,-385.86 192.09,-376.99"/>
<polygon fill="midnightblue" stroke="midnightblue" points="195.59,-376.75 192.09,-366.75 188.59,-376.75 195.59,-376.75"/>
</g>
<!-- Node6 -->
<g id="node6" class="node">
<title>Node6</title>
<g id="a_node6"><a xlink:title=" ">
<polygon fill="white" stroke="#bfbfbf" points="284.59,-112.5 284.59,-131.5 373.59,-131.5 373.59,-112.5 284.59,-112.5"/>
<text text-anchor="middle" x="329.09" y="-119.5" font-family="Helvetica,sans-Serif" font-size="10.00">maths/colour.h</text>
</a>
</g>
</g>
<!-- Node1&#45;&gt;Node6 -->
<g id="edge5" class="edge">
<title>Node1&#45;&gt;Node6</title>
<path fill="none" stroke="midnightblue" d="M203.43,-403.45C218.36,-391.08 241.47,-367.45 230.09,-347 215.35,-320.49 193.12,-332.87 172.09,-311 142.85,-280.58 108.39,-257.46 134.09,-224 171.93,-174.76 215.93,-220.09 269.09,-188 289.35,-175.78 306.95,-154.73 317.76,-139.9"/>
<polygon fill="midnightblue" stroke="midnightblue" points="320.7,-141.81 323.57,-131.61 314.97,-137.79 320.7,-141.81"/>
</g>
<!-- Node7 -->
<g id="node7" class="node">
<title>Node7</title>
<g id="a_node7"><a xlink:href="renderer_8h.html" target="_top" xlink:title=" ">
<polygon fill="white" stroke="black" points="743.09,-347.5 743.09,-366.5 853.09,-366.5 853.09,-347.5 743.09,-347.5"/>
<text text-anchor="middle" x="798.09" y="-354.5" font-family="Helvetica,sans-Serif" font-size="10.00">graphics/renderer.h</text>
</a>
</g>
</g>
<!-- Node1&#45;&gt;Node7 -->
<g id="edge6" class="edge">
<title>Node1&#45;&gt;Node7</title>
<path fill="none" stroke="midnightblue" d="M261.61,-405.81C379.61,-395.29 617.47,-374.09 732.65,-363.83"/>
<polygon fill="midnightblue" stroke="midnightblue" points="733.08,-367.31 742.73,-362.93 732.46,-360.33 733.08,-367.31"/>
</g>
<!-- Node43 -->
<g id="node43" class="node">
<title>Node43</title>
<g id="a_node43"><a xlink:href="asset__loader_8h.html" target="_top" xlink:title=" ">
<polygon fill="white" stroke="black" points="1019.59,-286 1019.59,-305 1150.59,-305 1150.59,-286 1019.59,-286"/>
<text text-anchor="middle" x="1085.09" y="-293" font-family="Helvetica,sans-Serif" font-size="10.00">graphics/asset_loader.h</text>
</a>
</g>
</g>
<!-- Node1&#45;&gt;Node43 -->
<g id="edge82" class="edge">
<title>Node1&#45;&gt;Node43</title>
<path fill="none" stroke="midnightblue" d="M261.75,-412.77C384.27,-412.91 645.87,-407.83 862.09,-367 932.65,-353.68 1012.13,-325.12 1054.54,-308.74"/>
<polygon fill="midnightblue" stroke="midnightblue" points="1055.96,-311.94 1064,-305.04 1053.42,-305.42 1055.96,-311.94"/>
</g>
<!-- Node8 -->
<g id="node8" class="node">
<title>Node8</title>
<g id="a_node8"><a xlink:title=" ">
<polygon fill="white" stroke="#bfbfbf" points="728.59,-286 728.59,-305 793.59,-305 793.59,-286 728.59,-286"/>
<text text-anchor="middle" x="761.09" y="-293" font-family="Helvetica,sans-Serif" font-size="10.00">functional</text>
</a>
</g>
</g>
<!-- Node7&#45;&gt;Node8 -->
<g id="edge7" class="edge">
<title>Node7&#45;&gt;Node8</title>
<path fill="none" stroke="midnightblue" d="M792.79,-347.48C787.35,-338.73 778.74,-324.87 771.86,-313.81"/>
<polygon fill="midnightblue" stroke="midnightblue" points="774.64,-311.65 766.39,-305.01 768.69,-315.35 774.64,-311.65"/>
</g>
<!-- Node9 -->
<g id="node9" class="node">
<title>Node9</title>
<g id="a_node9"><a xlink:title=" ">
<polygon fill="white" stroke="#bfbfbf" points="811.59,-286 811.59,-305 858.59,-305 858.59,-286 811.59,-286"/>
<text text-anchor="middle" x="835.09" y="-293" font-family="Helvetica,sans-Serif" font-size="10.00">queue</text>
</a>
</g>
</g>
<!-- Node7&#45;&gt;Node9 -->
<g id="edge8" class="edge">
<title>Node7&#45;&gt;Node9</title>
<path fill="none" stroke="midnightblue" d="M803.4,-347.48C808.84,-338.73 817.45,-324.87 824.33,-313.81"/>
<polygon fill="midnightblue" stroke="midnightblue" points="827.49,-315.35 829.8,-305.01 821.55,-311.65 827.49,-315.35"/>
</g>
<!-- Node10 -->
<g id="node10" class="node">
<title>Node10</title>
<g id="a_node10"><a xlink:title=" ">
<polygon fill="white" stroke="#bfbfbf" points="953.09,-286 953.09,-305 1001.09,-305 1001.09,-286 953.09,-286"/>
<text text-anchor="middle" x="977.09" y="-293" font-family="Helvetica,sans-Serif" font-size="10.00">flecs.h</text>
</a>
</g>
</g>
<!-- Node7&#45;&gt;Node10 -->
<g id="edge9" class="edge">
<title>Node7&#45;&gt;Node10</title>
<path fill="none" stroke="midnightblue" d="M826.34,-347.49C854.91,-338.77 900.29,-324.58 939.09,-311 941.21,-310.26 943.38,-309.48 945.56,-308.69"/>
<polygon fill="midnightblue" stroke="midnightblue" points="946.92,-311.91 955.07,-305.14 944.47,-305.36 946.92,-311.91"/>
</g>
<!-- Node11 -->
<g id="node11" class="node">
<title>Node11</title>
<g id="a_node11"><a xlink:title=" ">
<polygon fill="white" stroke="#bfbfbf" points="828.09,-224.5 828.09,-243.5 944.09,-243.5 944.09,-224.5 828.09,-224.5"/>
<text text-anchor="middle" x="886.09" y="-231.5" font-family="Helvetica,sans-Serif" font-size="10.00">common/singleton.h</text>
</a>
</g>
</g>
<!-- Node7&#45;&gt;Node11 -->
<g id="edge10" class="edge">
<title>Node7&#45;&gt;Node11</title>
<path fill="none" stroke="midnightblue" d="M819.66,-347.45C835.43,-340.1 856.07,-327.98 868.09,-311 880.06,-294.09 884.16,-270.31 885.51,-253.87"/>
<polygon fill="midnightblue" stroke="midnightblue" points="889.01,-254.02 886.08,-243.83 882.02,-253.62 889.01,-254.02"/>
</g>
<!-- Node12 -->
<g id="node12" class="node">
<title>Node12</title>
<g id="a_node12"><a xlink:title=" ">
<polygon fill="white" stroke="#bfbfbf" points="1149.59,-224.5 1149.59,-243.5 1262.59,-243.5 1262.59,-224.5 1149.59,-224.5"/>
<text text-anchor="middle" x="1206.09" y="-231.5" font-family="Helvetica,sans-Serif" font-size="10.00">maths/matrix_util.h</text>
</a>
</g>
</g>
<!-- Node7&#45;&gt;Node12 -->
<g id="edge11" class="edge">
<title>Node7&#45;&gt;Node12</title>
<path fill="none" stroke="midnightblue" d="M815.8,-347.42C834.03,-338.52 863.21,-324.1 888.09,-311 913.27,-297.75 917.25,-289.43 944.09,-280 962.33,-273.59 1068.88,-256.3 1140.36,-245.12"/>
<polygon fill="midnightblue" stroke="midnightblue" points="1141.3,-248.51 1150.64,-243.51 1140.22,-241.6 1141.3,-248.51"/>
</g>
<!-- Node13 -->
<g id="node13" class="node">
<title>Node13</title>
<g id="a_node13"><a xlink:href="app__window_8h.html" target="_top" xlink:title=" ">
<polygon fill="white" stroke="black" points="181.09,-286 181.09,-305 311.09,-305 311.09,-286 181.09,-286"/>
<text text-anchor="middle" x="246.09" y="-293" font-family="Helvetica,sans-Serif" font-size="10.00">graphics/app_window.h</text>
</a>
</g>
</g>
<!-- Node7&#45;&gt;Node13 -->
<g id="edge12" class="edge">
<title>Node7&#45;&gt;Node13</title>
<path fill="none" stroke="midnightblue" d="M742.93,-352.31C654.49,-346.05 475.63,-331.94 325.09,-311 316.46,-309.8 307.34,-308.32 298.48,-306.77"/>
<polygon fill="midnightblue" stroke="midnightblue" points="299.09,-303.33 288.62,-305 297.85,-310.22 299.09,-303.33"/>
</g>
<!-- Node15 -->
<g id="node15" class="node">
<title>Node15</title>
<g id="a_node15"><a xlink:href="framebuffer_8h.html" target="_top" xlink:title=" ">
<polygon fill="white" stroke="black" points="507.59,-168.5 507.59,-187.5 634.59,-187.5 634.59,-168.5 507.59,-168.5"/>
<text text-anchor="middle" x="571.09" y="-175.5" font-family="Helvetica,sans-Serif" font-size="10.00">graphics/framebuffer.h</text>
</a>
</g>
</g>
<!-- Node7&#45;&gt;Node15 -->
<g id="edge16" class="edge">
<title>Node7&#45;&gt;Node15</title>
<path fill="none" stroke="midnightblue" d="M742.86,-352.8C683.07,-348.05 593.38,-336.74 572.09,-311 545.41,-278.72 556.31,-225.27 564.74,-197.31"/>
<polygon fill="midnightblue" stroke="midnightblue" points="568.12,-198.23 567.87,-187.64 561.46,-196.08 568.12,-198.23"/>
</g>
<!-- Node24 -->
<g id="node24" class="node">
<title>Node24</title>
<g id="a_node24"><a xlink:href="material_8h.html" target="_top" xlink:title=" ">
<polygon fill="white" stroke="black" points="1280.59,-224.5 1280.59,-243.5 1391.59,-243.5 1391.59,-224.5 1280.59,-224.5"/>
<text text-anchor="middle" x="1336.09" y="-231.5" font-family="Helvetica,sans-Serif" font-size="10.00">graphics/material.h</text>
</a>
</g>
</g>
<!-- Node7&#45;&gt;Node24 -->
<g id="edge31" class="edge">
<title>Node7&#45;&gt;Node24</title>
<path fill="none" stroke="midnightblue" d="M853.31,-354C925.11,-350.29 1053.92,-339.89 1160.09,-311 1216.22,-295.73 1277.73,-265.89 1311.12,-248.49"/>
<polygon fill="midnightblue" stroke="midnightblue" points="1312.94,-251.49 1320.16,-243.73 1309.68,-245.3 1312.94,-251.49"/>
</g>
<!-- Node30 -->
<g id="node30" class="node">
<title>Node30</title>
<g id="a_node30"><a xlink:href="mesh__render_8h.html" target="_top" xlink:title=" ">
<polygon fill="white" stroke="black" points="691.09,-168.5 691.09,-187.5 837.09,-187.5 837.09,-168.5 691.09,-168.5"/>
<text text-anchor="middle" x="764.09" y="-175.5" font-family="Helvetica,sans-Serif" font-size="10.00">component/mesh_render.h</text>
</a>
</g>
</g>
<!-- Node7&#45;&gt;Node30 -->
<g id="edge45" class="edge">
<title>Node7&#45;&gt;Node30</title>
<path fill="none" stroke="midnightblue" d="M742.92,-352.32C685.49,-347.2 601.13,-335.62 581.09,-311 565.92,-292.35 593.7,-227.34 597.09,-224 611.97,-209.35 659.94,-197.34 700.68,-189.42"/>
<polygon fill="midnightblue" stroke="midnightblue" points="701.41,-192.85 710.59,-187.55 700.11,-185.97 701.41,-192.85"/>
</g>
<!-- Node31 -->
<g id="node31" class="node">
<title>Node31</title>
<g id="a_node31"><a xlink:href="transform_8h.html" target="_top" xlink:title=" ">
<polygon fill="white" stroke="black" points="1346.59,-286 1346.59,-305 1477.59,-305 1477.59,-286 1346.59,-286"/>
<text text-anchor="middle" x="1412.09" y="-293" font-family="Helvetica,sans-Serif" font-size="10.00">component/transform.h</text>
</a>
</g>
</g>
<!-- Node7&#45;&gt;Node31 -->
<g id="edge47" class="edge">
<title>Node7&#45;&gt;Node31</title>
<path fill="none" stroke="midnightblue" d="M853.09,-350.82C940.86,-342.54 1117.99,-325.74 1268.09,-311 1290.32,-308.82 1314.47,-306.4 1336.53,-304.18"/>
<polygon fill="midnightblue" stroke="midnightblue" points="1336.91,-307.66 1346.51,-303.17 1336.21,-300.69 1336.91,-307.66"/>
</g>
<!-- Node33 -->
<g id="node33" class="node">
<title>Node33</title>
<g id="a_node33"><a xlink:href="local__to__world_8h.html" target="_top" xlink:title=" ">
<polygon fill="white" stroke="black" points="1527.59,-280.5 1527.59,-310.5 1640.59,-310.5 1640.59,-280.5 1527.59,-280.5"/>
<text text-anchor="start" x="1535.59" y="-298.5" font-family="Helvetica,sans-Serif" font-size="10.00">component/local_to</text>
<text text-anchor="middle" x="1584.09" y="-287.5" font-family="Helvetica,sans-Serif" font-size="10.00">_world.h</text>
</a>
</g>
</g>
<!-- Node7&#45;&gt;Node33 -->
<g id="edge51" class="edge">
<title>Node7&#45;&gt;Node33</title>
<path fill="none" stroke="midnightblue" d="M853.15,-353.96C970.14,-349.28 1251.99,-336.21 1487.09,-311 1496.93,-309.94 1507.31,-308.62 1517.46,-307.21"/>
<polygon fill="midnightblue" stroke="midnightblue" points="1518.12,-310.65 1527.52,-305.77 1517.12,-303.72 1518.12,-310.65"/>
</g>
<!-- Node34 -->
<g id="node34" class="node">
<title>Node34</title>
<g id="a_node34"><a xlink:href="camera_8h.html" target="_top" xlink:title=" ">
<polygon fill="white" stroke="black" points="590.09,-286 590.09,-305 710.09,-305 710.09,-286 590.09,-286"/>
<text text-anchor="middle" x="650.09" y="-293" font-family="Helvetica,sans-Serif" font-size="10.00">component/camera.h</text>
</a>
</g>
</g>
<!-- Node7&#45;&gt;Node34 -->
<g id="edge55" class="edge">
<title>Node7&#45;&gt;Node34</title>
<path fill="none" stroke="midnightblue" d="M776.89,-347.48C751.72,-337.36 709.55,-320.4 680.82,-308.85"/>
<polygon fill="midnightblue" stroke="midnightblue" points="681.84,-305.49 671.26,-305.01 679.23,-311.99 681.84,-305.49"/>
</g>
<!-- Node42 -->
<g id="node42" class="node">
<title>Node42</title>
<g id="a_node42"><a xlink:href="light_8h.html" target="_top" xlink:title=" ">
<polygon fill="white" stroke="black" points="155.59,-168.5 155.59,-187.5 260.59,-187.5 260.59,-168.5 155.59,-168.5"/>
<text text-anchor="middle" x="208.09" y="-175.5" font-family="Helvetica,sans-Serif" font-size="10.00">component/light.h</text>
</a>
</g>
</g>
<!-- Node7&#45;&gt;Node42 -->
<g id="edge79" class="edge">
<title>Node7&#45;&gt;Node42</title>
<path fill="none" stroke="midnightblue" d="M742.69,-348.72C692.8,-341.48 617.76,-328.85 554.09,-311 432.67,-276.95 294.19,-217.58 236.07,-191.69"/>
<polygon fill="midnightblue" stroke="midnightblue" points="237.37,-188.43 226.81,-187.54 234.51,-194.82 237.37,-188.43"/>
</g>
<!-- Node13&#45;&gt;Node3 -->
<g id="edge14" class="edge">
<title>Node13&#45;&gt;Node3</title>
<path fill="none" stroke="midnightblue" d="M236.49,-285.98C226.05,-276.7 209.13,-261.67 196.36,-250.33"/>
<polygon fill="midnightblue" stroke="midnightblue" points="198.48,-247.53 188.68,-243.51 193.83,-252.77 198.48,-247.53"/>
</g>
<!-- Node13&#45;&gt;Node4 -->
<g id="edge15" class="edge">
<title>Node13&#45;&gt;Node4</title>
<path fill="none" stroke="midnightblue" d="M245.59,-285.59C244.31,-271.02 239.83,-241.92 224.09,-224 198.91,-195.31 173.73,-214.35 146.09,-188 115.35,-158.68 96.76,-111.04 88.38,-85.15"/>
<polygon fill="midnightblue" stroke="midnightblue" points="91.7,-84.03 85.42,-75.5 85.01,-86.09 91.7,-84.03"/>
</g>
<!-- Node14 -->
<g id="node14" class="node">
<title>Node14</title>
<g id="a_node14"><a xlink:title=" ">
<polygon fill="white" stroke="#bfbfbf" points="718.09,-112.5 718.09,-131.5 762.09,-131.5 762.09,-112.5 718.09,-112.5"/>
<text text-anchor="middle" x="740.09" y="-119.5" font-family="Helvetica,sans-Serif" font-size="10.00">string</text>
</a>
</g>
</g>
<!-- Node13&#45;&gt;Node14 -->
<g id="edge13" class="edge">
<title>Node13&#45;&gt;Node14</title>
<path fill="none" stroke="midnightblue" d="M299.86,-286C378.2,-272.32 527.14,-241.4 644.09,-188 673.34,-174.65 703.45,-152.66 721.98,-138"/>
<polygon fill="midnightblue" stroke="midnightblue" points="724.26,-140.66 729.85,-131.66 719.87,-135.21 724.26,-140.66"/>
</g>
<!-- Node15&#45;&gt;Node2 -->
<g id="edge20" class="edge">
<title>Node15&#45;&gt;Node2</title>
<path fill="none" stroke="midnightblue" d="M573.08,-168.08C578.91,-141.95 596.01,-65.21 603.95,-29.58"/>
<polygon fill="midnightblue" stroke="midnightblue" points="607.42,-30.09 606.18,-19.57 600.59,-28.57 607.42,-30.09"/>
</g>
<!-- Node15&#45;&gt;Node6 -->
<g id="edge21" class="edge">
<title>Node15&#45;&gt;Node6</title>
<path fill="none" stroke="midnightblue" d="M532.75,-168.44C490.62,-159.04 422.89,-143.93 377.22,-133.74"/>
<polygon fill="midnightblue" stroke="midnightblue" points="377.78,-130.28 367.26,-131.52 376.26,-137.11 377.78,-130.28"/>
</g>
<!-- Node15&#45;&gt;Node14 -->
<g id="edge18" class="edge">
<title>Node15&#45;&gt;Node14</title>
<path fill="none" stroke="midnightblue" d="M597.87,-168.44C627.86,-158.86 676.41,-143.35 708.3,-133.16"/>
<polygon fill="midnightblue" stroke="midnightblue" points="709.56,-136.43 718.02,-130.05 707.43,-129.76 709.56,-136.43"/>
</g>
<!-- Node16 -->
<g id="node16" class="node">
<title>Node16</title>
<g id="a_node16"><a xlink:title=" ">
<polygon fill="white" stroke="#bfbfbf" points="1294.09,-0.5 1294.09,-19.5 1352.09,-19.5 1352.09,-0.5 1294.09,-0.5"/>
<text text-anchor="middle" x="1323.09" y="-7.5" font-family="Helvetica,sans-Serif" font-size="10.00">memory</text>
</a>
</g>
</g>
<!-- Node15&#45;&gt;Node16 -->
<g id="edge17" class="edge">
<title>Node15&#45;&gt;Node16</title>
<path fill="none" stroke="midnightblue" d="M635.01,-171.59C756.63,-161.19 1010.92,-138.79 1029.09,-132 1083.73,-111.57 1083,-80.15 1136.09,-56 1184.3,-34.07 1244.54,-22.04 1283.41,-16.06"/>
<polygon fill="midnightblue" stroke="midnightblue" points="1284.4,-19.46 1293.78,-14.53 1283.38,-12.53 1284.4,-19.46"/>
</g>
<!-- Node17 -->
<g id="node17" class="node">
<title>Node17</title>
<g id="a_node17"><a xlink:title=" ">
<polygon fill="white" stroke="#bfbfbf" points="842.59,-0.5 842.59,-19.5 889.59,-19.5 889.59,-0.5 842.59,-0.5"/>
<text text-anchor="middle" x="866.09" y="-7.5" font-family="Helvetica,sans-Serif" font-size="10.00">vector</text>
</a>
</g>
</g>
<!-- Node15&#45;&gt;Node17 -->
<g id="edge19" class="edge">
<title>Node15&#45;&gt;Node17</title>
<path fill="none" stroke="midnightblue" d="M590.01,-168.47C626.03,-152.01 706.63,-114.1 771.09,-76 798.12,-60.02 827.76,-39.17 846.62,-25.45"/>
<polygon fill="midnightblue" stroke="midnightblue" points="848.72,-28.25 854.72,-19.51 844.58,-22.6 848.72,-28.25"/>
</g>
<!-- Node18 -->
<g id="node18" class="node">
<title>Node18</title>
<g id="a_node18"><a xlink:href="texture_8h.html" target="_top" xlink:title=" ">
<polygon fill="white" stroke="black" points="391.59,-112.5 391.59,-131.5 496.59,-131.5 496.59,-112.5 391.59,-112.5"/>
<text text-anchor="middle" x="444.09" y="-119.5" font-family="Helvetica,sans-Serif" font-size="10.00">graphics/texture.h</text>
</a>
</g>
</g>
<!-- Node15&#45;&gt;Node18 -->
<g id="edge22" class="edge">
<title>Node15&#45;&gt;Node18</title>
<path fill="none" stroke="midnightblue" d="M550.97,-168.44C530.07,-159.56 497.16,-145.56 473.38,-135.45"/>
<polygon fill="midnightblue" stroke="midnightblue" points="474.7,-132.21 464.12,-131.52 471.96,-138.65 474.7,-132.21"/>
</g>
<!-- Node18&#45;&gt;Node2 -->
<g id="edge26" class="edge">
<title>Node18&#45;&gt;Node2</title>
<path fill="none" stroke="midnightblue" d="M444.31,-112.12C445.14,-98.24 448.77,-71.4 464.09,-56 491.02,-28.95 533.96,-18.12 565.95,-13.8"/>
<polygon fill="midnightblue" stroke="midnightblue" points="566.4,-17.27 575.92,-12.61 565.57,-10.32 566.4,-17.27"/>
</g>
<!-- Node18&#45;&gt;Node4 -->
<g id="edge25" class="edge">
<title>Node18&#45;&gt;Node4</title>
<path fill="none" stroke="midnightblue" d="M391.22,-113.09C326.44,-103.4 216.78,-87 147.25,-76.6"/>
<polygon fill="midnightblue" stroke="midnightblue" points="147.7,-73.13 137.3,-75.11 146.67,-80.05 147.7,-73.13"/>
</g>
<!-- Node19 -->
<g id="node19" class="node">
<title>Node19</title>
<g id="a_node19"><a xlink:title=" ">
<polygon fill="white" stroke="#bfbfbf" points="538.09,-56.5 538.09,-75.5 580.09,-75.5 580.09,-56.5 538.09,-56.5"/>
<text text-anchor="middle" x="559.09" y="-63.5" font-family="Helvetica,sans-Serif" font-size="10.00">array</text>
</a>
</g>
</g>
<!-- Node18&#45;&gt;Node19 -->
<g id="edge23" class="edge">
<title>Node18&#45;&gt;Node19</title>
<path fill="none" stroke="midnightblue" d="M462.32,-112.44C480.99,-103.68 510.25,-89.94 531.71,-79.86"/>
<polygon fill="midnightblue" stroke="midnightblue" points="533.39,-82.93 540.96,-75.52 530.42,-76.6 533.39,-82.93"/>
</g>
<!-- Node20 -->
<g id="node20" class="node">
<title>Node20</title>
<g id="a_node20"><a xlink:title=" ">
<polygon fill="white" stroke="#bfbfbf" points="472.59,-56.5 472.59,-75.5 519.59,-75.5 519.59,-56.5 472.59,-56.5"/>
<text text-anchor="middle" x="496.09" y="-63.5" font-family="Helvetica,sans-Serif" font-size="10.00">cmath</text>
</a>
</g>
</g>
<!-- Node18&#45;&gt;Node20 -->
<g id="edge24" class="edge">
<title>Node18&#45;&gt;Node20</title>
<path fill="none" stroke="midnightblue" d="M452.68,-112.08C460.25,-104.22 471.47,-92.57 480.61,-83.08"/>
<polygon fill="midnightblue" stroke="midnightblue" points="483.25,-85.38 487.67,-75.75 478.21,-80.53 483.25,-85.38"/>
</g>
<!-- Node21 -->
<g id="node21" class="node">
<title>Node21</title>
<g id="a_node21"><a xlink:title=" ">
<polygon fill="white" stroke="#bfbfbf" points="155.59,-56.5 155.59,-75.5 266.59,-75.5 266.59,-56.5 155.59,-56.5"/>
<text text-anchor="middle" x="211.09" y="-63.5" font-family="Helvetica,sans-Serif" font-size="10.00">maths/maths_util.h</text>
</a>
</g>
</g>
<!-- Node18&#45;&gt;Node21 -->
<g id="edge27" class="edge">
<title>Node18&#45;&gt;Node21</title>
<path fill="none" stroke="midnightblue" d="M407.17,-112.44C366.7,-103.06 301.67,-87.99 257.71,-77.8"/>
<polygon fill="midnightblue" stroke="midnightblue" points="258.37,-74.36 247.84,-75.52 256.79,-81.18 258.37,-74.36"/>
</g>
<!-- Node22 -->
<g id="node22" class="node">
<title>Node22</title>
<g id="a_node22"><a xlink:href="pixel__format_8h.html" target="_top" xlink:title=" ">
<polygon fill="white" stroke="black" points="284.59,-56.5 284.59,-75.5 415.59,-75.5 415.59,-56.5 284.59,-56.5"/>
<text text-anchor="middle" x="350.09" y="-63.5" font-family="Helvetica,sans-Serif" font-size="10.00">graphics/pixel_format.h</text>
</a>
</g>
</g>
<!-- Node18&#45;&gt;Node22 -->
<g id="edge28" class="edge">
<title>Node18&#45;&gt;Node22</title>
<path fill="none" stroke="midnightblue" d="M428.99,-112.32C414.19,-103.82 391.4,-90.73 374.11,-80.8"/>
<polygon fill="midnightblue" stroke="midnightblue" points="375.57,-77.6 365.16,-75.65 372.09,-83.67 375.57,-77.6"/>
</g>
<!-- Node22&#45;&gt;Node2 -->
<g id="edge30" class="edge">
<title>Node22&#45;&gt;Node2</title>
<path fill="none" stroke="midnightblue" d="M390.98,-56.44C438.86,-46.42 517.78,-29.9 566.13,-19.78"/>
<polygon fill="midnightblue" stroke="midnightblue" points="566.89,-23.2 575.96,-17.73 565.46,-16.35 566.89,-23.2"/>
</g>
<!-- Node23 -->
<g id="node23" class="node">
<title>Node23</title>
<g id="a_node23"><a xlink:title=" ">
<polygon fill="white" stroke="#bfbfbf" points="317.59,-0.5 317.59,-19.5 382.59,-19.5 382.59,-0.5 317.59,-0.5"/>
<text text-anchor="middle" x="350.09" y="-7.5" font-family="Helvetica,sans-Serif" font-size="10.00">stdexcept</text>
</a>
</g>
</g>
<!-- Node22&#45;&gt;Node23 -->
<g id="edge29" class="edge">
<title>Node22&#45;&gt;Node23</title>
<path fill="none" stroke="midnightblue" d="M350.09,-56.08C350.09,-49.01 350.09,-38.86 350.09,-29.99"/>
<polygon fill="midnightblue" stroke="midnightblue" points="353.59,-29.75 350.09,-19.75 346.59,-29.75 353.59,-29.75"/>
</g>
<!-- Node24&#45;&gt;Node16 -->
<g id="edge32" class="edge">
<title>Node24&#45;&gt;Node16</title>
<path fill="none" stroke="midnightblue" d="M1357.52,-224.42C1395.36,-207.75 1468.95,-167.64 1457.09,-112 1451.41,-85.34 1451.64,-75 1432.09,-56 1412.91,-37.35 1384.92,-26.02 1362.1,-19.39"/>
<polygon fill="midnightblue" stroke="midnightblue" points="1362.92,-15.99 1352.36,-16.75 1361.09,-22.74 1362.92,-15.99"/>
</g>
<!-- Node24&#45;&gt;Node18 -->
<g id="edge34" class="edge">
<title>Node24&#45;&gt;Node18</title>
<path fill="none" stroke="midnightblue" d="M1280.28,-224.84C1277.52,-224.53 1274.78,-224.25 1272.09,-224 1186.48,-216 576.23,-225.98 499.09,-188 478.64,-177.93 462.87,-156.4 453.56,-140.88"/>
<polygon fill="midnightblue" stroke="midnightblue" points="456.36,-138.71 448.4,-131.72 450.26,-142.15 456.36,-138.71"/>
</g>
<!-- Node25 -->
<g id="node25" class="node">
<title>Node25</title>
<g id="a_node25"><a xlink:title=" ">
<polygon fill="white" stroke="#bfbfbf" points="1334.09,-112.5 1334.09,-131.5 1430.09,-131.5 1430.09,-112.5 1334.09,-112.5"/>
<text text-anchor="middle" x="1382.09" y="-119.5" font-family="Helvetica,sans-Serif" font-size="10.00">maths/vector2.h</text>
</a>
</g>
</g>
<!-- Node24&#45;&gt;Node25 -->
<g id="edge33" class="edge">
<title>Node24&#45;&gt;Node25</title>
<path fill="none" stroke="midnightblue" d="M1342.17,-224.4C1348.17,-215.59 1357.25,-201.36 1363.09,-188 1369.72,-172.85 1374.8,-154.73 1378.03,-141.48"/>
<polygon fill="midnightblue" stroke="midnightblue" points="1381.46,-142.19 1380.31,-131.66 1374.64,-140.61 1381.46,-142.19"/>
</g>
<!-- Node26 -->
<g id="node26" class="node">
<title>Node26</title>
<g id="a_node26"><a xlink:href="shader__program_8h.html" target="_top" xlink:title=" ">
<polygon fill="white" stroke="black" points="855.59,-168.5 855.59,-187.5 1004.59,-187.5 1004.59,-168.5 855.59,-168.5"/>
<text text-anchor="middle" x="930.09" y="-175.5" font-family="Helvetica,sans-Serif" font-size="10.00">graphics/shader_program.h</text>
</a>
</g>
</g>
<!-- Node24&#45;&gt;Node26 -->
<g id="edge35" class="edge">
<title>Node24&#45;&gt;Node26</title>
<path fill="none" stroke="midnightblue" d="M1280.25,-225.12C1277.49,-224.74 1274.76,-224.36 1272.09,-224 1180.75,-211.57 1075.61,-197.82 1006.28,-188.83"/>
<polygon fill="midnightblue" stroke="midnightblue" points="1006.69,-185.35 996.32,-187.54 1005.79,-192.29 1006.69,-185.35"/>
</g>
<!-- Node29 -->
<g id="node29" class="node">
<title>Node29</title>
<g id="a_node29"><a xlink:href="render__path_8h.html" target="_top" xlink:title=" ">
<polygon fill="white" stroke="black" points="1226.09,-168.5 1226.09,-187.5 1354.09,-187.5 1354.09,-168.5 1226.09,-168.5"/>
<text text-anchor="middle" x="1290.09" y="-175.5" font-family="Helvetica,sans-Serif" font-size="10.00">graphics/render_path.h</text>
</a>
</g>
</g>
<!-- Node24&#45;&gt;Node29 -->
<g id="edge44" class="edge">
<title>Node24&#45;&gt;Node29</title>
<path fill="none" stroke="midnightblue" d="M1328.5,-224.08C1321.87,-216.3 1312.07,-204.8 1304.04,-195.37"/>
<polygon fill="midnightblue" stroke="midnightblue" points="1306.7,-193.09 1297.55,-187.75 1301.37,-197.63 1306.7,-193.09"/>
</g>
<!-- Node26&#45;&gt;Node2 -->
<g id="edge38" class="edge">
<title>Node26&#45;&gt;Node2</title>
<path fill="none" stroke="midnightblue" d="M910.17,-168.4C880.2,-155.57 821.65,-130.9 771.09,-112 724.49,-94.58 706.46,-103.65 665.09,-76 646.26,-63.41 629.82,-43.07 619.5,-28.5"/>
<polygon fill="midnightblue" stroke="midnightblue" points="622.16,-26.19 613.64,-19.89 616.37,-30.13 622.16,-26.19"/>
</g>
<!-- Node26&#45;&gt;Node6 -->
<g id="edge39" class="edge">
<title>Node26&#45;&gt;Node6</title>
<path fill="none" stroke="midnightblue" d="M855.45,-168.89C852.29,-168.58 849.16,-168.28 846.09,-168 643.45,-149.29 589.12,-157.08 384.07,-132.15"/>
<polygon fill="midnightblue" stroke="midnightblue" points="384.22,-128.64 373.87,-130.9 383.37,-135.59 384.22,-128.64"/>
</g>
<!-- Node26&#45;&gt;Node14 -->
<g id="edge36" class="edge">
<title>Node26&#45;&gt;Node14</title>
<path fill="none" stroke="midnightblue" d="M899.99,-168.44C865.13,-158.54 807.95,-142.28 772.24,-132.14"/>
<polygon fill="midnightblue" stroke="midnightblue" points="772.92,-128.69 762.34,-129.32 771,-135.42 772.92,-128.69"/>
</g>
<!-- Node26&#45;&gt;Node17 -->
<g id="edge37" class="edge">
<title>Node26&#45;&gt;Node17</title>
<path fill="none" stroke="midnightblue" d="M900.97,-168.44C883.45,-161.62 862.57,-150.14 852.09,-132 833.31,-99.47 847.33,-53.83 857.68,-28.93"/>
<polygon fill="midnightblue" stroke="midnightblue" points="860.95,-30.19 861.78,-19.63 854.54,-27.37 860.95,-30.19"/>
</g>
<!-- Node26&#45;&gt;Node18 -->
<g id="edge43" class="edge">
<title>Node26&#45;&gt;Node18</title>
<path fill="none" stroke="midnightblue" d="M855.49,-168.71C759.92,-158.09 595.99,-139.88 506.64,-129.95"/>
<polygon fill="midnightblue" stroke="midnightblue" points="506.97,-126.47 496.65,-128.84 506.2,-133.42 506.97,-126.47"/>
</g>
<!-- Node26&#45;&gt;Node25 -->
<g id="edge40" class="edge">
<title>Node26&#45;&gt;Node25</title>
<path fill="none" stroke="midnightblue" d="M1004.76,-168.65C1100.42,-157.9 1260.96,-139.7 1320.09,-132 1321.37,-131.83 1322.66,-131.66 1323.96,-131.49"/>
<polygon fill="midnightblue" stroke="midnightblue" points="1324.61,-134.93 1334.05,-130.12 1323.67,-128 1324.61,-134.93"/>
</g>
<!-- Node27 -->
<g id="node27" class="node">
<title>Node27</title>
<g id="a_node27"><a xlink:title=" ">
<polygon fill="white" stroke="#bfbfbf" points="1179.09,-56.5 1179.09,-75.5 1275.09,-75.5 1275.09,-56.5 1179.09,-56.5"/>
<text text-anchor="middle" x="1227.09" y="-63.5" font-family="Helvetica,sans-Serif" font-size="10.00">maths/vector3.h</text>
</a>
</g>
</g>
<!-- Node26&#45;&gt;Node27 -->
<g id="edge41" class="edge">
<title>Node26&#45;&gt;Node27</title>
<path fill="none" stroke="midnightblue" d="M965.28,-168.47C997.22,-160.35 1045.41,-147.15 1086.09,-132 1127.45,-116.6 1173.57,-94.32 1201.45,-80.25"/>
<polygon fill="midnightblue" stroke="midnightblue" points="1203.19,-83.3 1210.51,-75.64 1200.01,-77.06 1203.19,-83.3"/>
</g>
<!-- Node28 -->
<g id="node28" class="node">
<title>Node28</title>
<g id="a_node28"><a xlink:title=" ">
<polygon fill="white" stroke="#bfbfbf" points="1293.09,-56.5 1293.09,-75.5 1385.09,-75.5 1385.09,-56.5 1293.09,-56.5"/>
<text text-anchor="middle" x="1339.09" y="-63.5" font-family="Helvetica,sans-Serif" font-size="10.00">maths/matrix.h</text>
</a>
</g>
</g>
<!-- Node26&#45;&gt;Node28 -->
<g id="edge42" class="edge">
<title>Node26&#45;&gt;Node28</title>
<path fill="none" stroke="midnightblue" d="M1003.33,-168.47C1105.99,-156.4 1280.95,-135.44 1287.09,-132 1306.54,-121.11 1321.43,-99.75 1330.19,-84.49"/>
<polygon fill="midnightblue" stroke="midnightblue" points="1333.37,-85.97 1335.05,-75.51 1327.21,-82.64 1333.37,-85.97"/>
</g>
<!-- Node30&#45;&gt;Node14 -->
<g id="edge46" class="edge">
<title>Node30&#45;&gt;Node14</title>
<path fill="none" stroke="midnightblue" d="M760.13,-168.08C756.88,-160.77 752.17,-150.18 748.14,-141.1"/>
<polygon fill="midnightblue" stroke="midnightblue" points="751.24,-139.47 743.98,-131.75 744.85,-142.31 751.24,-139.47"/>
</g>
<!-- Node31&#45;&gt;Node12 -->
<g id="edge50" class="edge">
<title>Node31&#45;&gt;Node12</title>
<path fill="none" stroke="midnightblue" d="M1382.58,-285.98C1346.48,-275.55 1285.25,-257.86 1245.24,-246.31"/>
<polygon fill="midnightblue" stroke="midnightblue" points="1246.13,-242.92 1235.55,-243.51 1244.19,-249.65 1246.13,-242.92"/>
</g>
<!-- Node31&#45;&gt;Node27 -->
<g id="edge48" class="edge">
<title>Node31&#45;&gt;Node27</title>
<path fill="none" stroke="midnightblue" d="M1417.52,-285.68C1434.38,-257.01 1482.24,-165.26 1439.09,-112 1434.15,-105.9 1345.49,-88.62 1284.4,-77.33"/>
<polygon fill="midnightblue" stroke="midnightblue" points="1284.95,-73.87 1274.48,-75.51 1283.68,-80.76 1284.95,-73.87"/>
</g>
<!-- Node32 -->
<g id="node32" class="node">
<title>Node32</title>
<g id="a_node32"><a xlink:title=" ">
<polygon fill="white" stroke="#bfbfbf" points="1486.09,-224.5 1486.09,-243.5 1598.09,-243.5 1598.09,-224.5 1486.09,-224.5"/>
<text text-anchor="middle" x="1542.09" y="-231.5" font-family="Helvetica,sans-Serif" font-size="10.00">maths/quaternion.h</text>
</a>
</g>
</g>
<!-- Node31&#45;&gt;Node32 -->
<g id="edge49" class="edge">
<title>Node31&#45;&gt;Node32</title>
<path fill="none" stroke="midnightblue" d="M1430.72,-285.98C1452.54,-275.99 1488.9,-259.35 1514.11,-247.81"/>
<polygon fill="midnightblue" stroke="midnightblue" points="1515.87,-250.85 1523.5,-243.51 1512.95,-244.49 1515.87,-250.85"/>
</g>
<!-- Node33&#45;&gt;Node27 -->
<g id="edge52" class="edge">
<title>Node33&#45;&gt;Node27</title>
<path fill="none" stroke="midnightblue" d="M1595.07,-280.24C1604.87,-265.65 1616.35,-242.54 1607.09,-224 1570.08,-149.88 1533.79,-145.67 1458.09,-112 1442.46,-105.05 1348.35,-87.92 1285.18,-76.92"/>
<polygon fill="midnightblue" stroke="midnightblue" points="1285.78,-73.47 1275.32,-75.2 1284.58,-80.36 1285.78,-73.47"/>
</g>
<!-- Node33&#45;&gt;Node28 -->
<g id="edge54" class="edge">
<title>Node33&#45;&gt;Node28</title>
<path fill="none" stroke="midnightblue" d="M1607.56,-280.32C1619.72,-271.54 1633.39,-259.07 1640.09,-244 1665.85,-186.08 1641.38,-143 1586.09,-112 1526.75,-78.72 1447.94,-69.3 1395.47,-67.01"/>
<polygon fill="midnightblue" stroke="midnightblue" points="1395.46,-63.5 1385.34,-66.64 1395.21,-70.5 1395.46,-63.5"/>
</g>
<!-- Node33&#45;&gt;Node32 -->
<g id="edge53" class="edge">
<title>Node33&#45;&gt;Node32</title>
<path fill="none" stroke="midnightblue" d="M1574.14,-280.4C1568.1,-271.84 1560.36,-260.87 1553.99,-251.86"/>
<polygon fill="midnightblue" stroke="midnightblue" points="1556.83,-249.81 1548.21,-243.66 1551.11,-253.85 1556.83,-249.81"/>
</g>
<!-- Node34&#45;&gt;Node16 -->
<g id="edge56" class="edge">
<title>Node34&#45;&gt;Node16</title>
<path fill="none" stroke="midnightblue" d="M673.44,-285.92C699.27,-276.27 742.02,-259.89 778.09,-244 796.65,-235.83 799.64,-229.7 819.09,-224 885.65,-204.52 1075.72,-232.29 1129.09,-188 1176.37,-148.77 1126.33,-99.11 1170.09,-56 1200.39,-26.15 1249.42,-15.92 1283.79,-12.51"/>
<polygon fill="midnightblue" stroke="midnightblue" points="1284.27,-15.99 1293.95,-11.66 1283.69,-9.01 1284.27,-15.99"/>
</g>
<!-- Node34&#45;&gt;Node18 -->
<g id="edge58" class="edge">
<title>Node34&#45;&gt;Node18</title>
<path fill="none" stroke="midnightblue" d="M589.82,-292.44C519.22,-286.4 405.09,-264.55 351.09,-188 334.01,-163.78 369.12,-145.58 400.98,-134.69"/>
<polygon fill="midnightblue" stroke="midnightblue" points="402.27,-137.95 410.7,-131.54 400.11,-131.29 402.27,-137.95"/>
</g>
<!-- Node34&#45;&gt;Node26 -->
<g id="edge57" class="edge">
<title>Node34&#45;&gt;Node26</title>
<path fill="none" stroke="midnightblue" d="M664.78,-285.79C689.29,-271.52 740.35,-242.83 786.09,-224 819.35,-210.31 858.36,-198.36 887.38,-190.22"/>
<polygon fill="midnightblue" stroke="midnightblue" points="888.5,-193.54 897.21,-187.5 886.63,-186.8 888.5,-193.54"/>
</g>
<!-- Node35 -->
<g id="node35" class="node">
<title>Node35</title>
<g id="a_node35"><a xlink:href="skybox_8h.html" target="_top" xlink:title=" ">
<polygon fill="white" stroke="black" points="606.09,-224.5 606.09,-243.5 710.09,-243.5 710.09,-224.5 606.09,-224.5"/>
<text text-anchor="middle" x="658.09" y="-231.5" font-family="Helvetica,sans-Serif" font-size="10.00">graphics/skybox.h</text>
</a>
</g>
</g>
<!-- Node34&#45;&gt;Node35 -->
<g id="edge59" class="edge">
<title>Node34&#45;&gt;Node35</title>
<path fill="none" stroke="midnightblue" d="M651.24,-285.98C652.37,-277.58 654.13,-264.48 655.58,-253.66"/>
<polygon fill="midnightblue" stroke="midnightblue" points="659.09,-253.89 656.95,-243.51 652.15,-252.95 659.09,-253.89"/>
</g>
<!-- Node35&#45;&gt;Node6 -->
<g id="edge60" class="edge">
<title>Node35&#45;&gt;Node6</title>
<path fill="none" stroke="midnightblue" d="M605.73,-226.2C562.29,-219.54 499.39,-207.49 447.09,-188 411.27,-174.65 373.08,-151.84 350.15,-137.1"/>
<polygon fill="midnightblue" stroke="midnightblue" points="351.88,-134.05 341.59,-131.51 348.05,-139.91 351.88,-134.05"/>
</g>
<!-- Node35&#45;&gt;Node18 -->
<g id="edge77" class="edge">
<title>Node35&#45;&gt;Node18</title>
<path fill="none" stroke="midnightblue" d="M606.04,-226.69C556.12,-219.63 485.41,-206.69 465.09,-188 452.16,-176.1 447.16,-156.19 445.25,-141.54"/>
<polygon fill="midnightblue" stroke="midnightblue" points="448.73,-141.2 444.3,-131.57 441.76,-141.86 448.73,-141.2"/>
</g>
<!-- Node35&#45;&gt;Node26 -->
<g id="edge78" class="edge">
<title>Node35&#45;&gt;Node26</title>
<path fill="none" stroke="midnightblue" d="M701.19,-224.44C748.94,-214.96 825.95,-199.67 877.29,-189.48"/>
<polygon fill="midnightblue" stroke="midnightblue" points="878.07,-192.9 887.2,-187.52 876.71,-186.03 878.07,-192.9"/>
</g>
<!-- Node36 -->
<g id="node36" class="node">
<title>Node36</title>
<g id="a_node36"><a xlink:href="mesh_8h.html" target="_top" xlink:title=" ">
<polygon fill="white" stroke="black" points="1022.59,-168.5 1022.59,-187.5 1119.59,-187.5 1119.59,-168.5 1022.59,-168.5"/>
<text text-anchor="middle" x="1071.09" y="-175.5" font-family="Helvetica,sans-Serif" font-size="10.00">graphics/mesh.h</text>
</a>
</g>
</g>
<!-- Node35&#45;&gt;Node36 -->
<g id="edge61" class="edge">
<title>Node35&#45;&gt;Node36</title>
<path fill="none" stroke="midnightblue" d="M710.34,-226.91C777.76,-218.93 898.95,-204.21 1012.07,-188.26"/>
<polygon fill="midnightblue" stroke="midnightblue" points="1012.88,-191.68 1022.29,-186.81 1011.9,-184.74 1012.88,-191.68"/>
</g>
<!-- Node36&#45;&gt;Node14 -->
<g id="edge64" class="edge">
<title>Node36&#45;&gt;Node14</title>
<path fill="none" stroke="midnightblue" d="M1022.25,-169.03C953.69,-157.85 830.77,-137.79 772.48,-128.28"/>
<polygon fill="midnightblue" stroke="midnightblue" points="772.8,-124.79 762.37,-126.63 771.68,-131.7 772.8,-124.79"/>
</g>
<!-- Node36&#45;&gt;Node16 -->
<g id="edge62" class="edge">
<title>Node36&#45;&gt;Node16</title>
<path fill="none" stroke="midnightblue" d="M1119.79,-172.76C1217.41,-164.02 1428.62,-143.84 1439.09,-132 1475.03,-91.4 1397.2,-45.8 1352.18,-23.99"/>
<polygon fill="midnightblue" stroke="midnightblue" points="1353.39,-20.69 1342.86,-19.58 1350.4,-27.02 1353.39,-20.69"/>
</g>
<!-- Node36&#45;&gt;Node17 -->
<g id="edge63" class="edge">
<title>Node36&#45;&gt;Node17</title>
<path fill="none" stroke="midnightblue" d="M1030.05,-168.45C992.09,-159.85 939.19,-145.92 923.09,-132 891.58,-104.76 876.25,-56.29 869.89,-29.71"/>
<polygon fill="midnightblue" stroke="midnightblue" points="873.27,-28.79 867.69,-19.79 866.44,-30.31 873.27,-28.79"/>
</g>
<!-- Node37 -->
<g id="node37" class="node">
<title>Node37</title>
<g id="a_node37"><a xlink:href="vertex_8h.html" target="_top" xlink:title=" ">
<polygon fill="white" stroke="black" points="1176.59,-112.5 1176.59,-131.5 1277.59,-131.5 1277.59,-112.5 1176.59,-112.5"/>
<text text-anchor="middle" x="1227.09" y="-119.5" font-family="Helvetica,sans-Serif" font-size="10.00">graphics/vertex.h</text>
</a>
</g>
</g>
<!-- Node36&#45;&gt;Node37 -->
<g id="edge65" class="edge">
<title>Node36&#45;&gt;Node37</title>
<path fill="none" stroke="midnightblue" d="M1095.81,-168.44C1121.94,-159.4 1163.35,-145.06 1192.67,-134.92"/>
<polygon fill="midnightblue" stroke="midnightblue" points="1194.19,-138.1 1202.49,-131.52 1191.9,-131.48 1194.19,-138.1"/>
</g>
<!-- Node38 -->
<g id="node38" class="node">
<title>Node38</title>
<g id="a_node38"><a xlink:href="vao_8h.html" target="_top" xlink:title=" ">
<polygon fill="white" stroke="black" points="932.09,-112.5 932.09,-131.5 1020.09,-131.5 1020.09,-112.5 932.09,-112.5"/>
<text text-anchor="middle" x="976.09" y="-119.5" font-family="Helvetica,sans-Serif" font-size="10.00">graphics/vao.h</text>
</a>
</g>
</g>
<!-- Node36&#45;&gt;Node38 -->
<g id="edge68" class="edge">
<title>Node36&#45;&gt;Node38</title>
<path fill="none" stroke="midnightblue" d="M1055.83,-168.32C1040.87,-159.82 1017.84,-146.73 1000.37,-136.8"/>
<polygon fill="midnightblue" stroke="midnightblue" points="1001.74,-133.55 991.32,-131.65 998.28,-139.64 1001.74,-133.55"/>
</g>
<!-- Node37&#45;&gt;Node27 -->
<g id="edge67" class="edge">
<title>Node37&#45;&gt;Node27</title>
<path fill="none" stroke="midnightblue" d="M1227.09,-112.08C1227.09,-105.01 1227.09,-94.86 1227.09,-85.99"/>
<polygon fill="midnightblue" stroke="midnightblue" points="1230.59,-85.75 1227.09,-75.75 1223.59,-85.75 1230.59,-85.75"/>
</g>
<!-- Node37&#45;&gt;Node28 -->
<g id="edge66" class="edge">
<title>Node37&#45;&gt;Node28</title>
<path fill="none" stroke="midnightblue" d="M1245.09,-112.32C1263.13,-103.62 1291.14,-90.12 1311.9,-80.11"/>
<polygon fill="midnightblue" stroke="midnightblue" points="1313.66,-83.15 1321.14,-75.65 1310.62,-76.84 1313.66,-83.15"/>
</g>
<!-- Node38&#45;&gt;Node17 -->
<g id="edge70" class="edge">
<title>Node38&#45;&gt;Node17</title>
<path fill="none" stroke="midnightblue" d="M965.13,-112.48C954.12,-103.74 936.86,-89.55 923.09,-76 907.3,-60.45 890.76,-41.22 879.59,-27.72"/>
<polygon fill="midnightblue" stroke="midnightblue" points="882.13,-25.3 873.09,-19.77 876.72,-29.73 882.13,-25.3"/>
</g>
<!-- Node39 -->
<g id="node39" class="node">
<title>Node39</title>
<g id="a_node39"><a xlink:title=" ">
<polygon fill="white" stroke="#bfbfbf" points="1038.59,-56.5 1038.59,-75.5 1083.59,-75.5 1083.59,-56.5 1038.59,-56.5"/>
<text text-anchor="middle" x="1061.09" y="-63.5" font-family="Helvetica,sans-Serif" font-size="10.00">utility</text>
</a>
</g>
</g>
<!-- Node38&#45;&gt;Node39 -->
<g id="edge69" class="edge">
<title>Node38&#45;&gt;Node39</title>
<path fill="none" stroke="midnightblue" d="M989.75,-112.32C1003.01,-103.9 1023.36,-90.97 1038.94,-81.07"/>
<polygon fill="midnightblue" stroke="midnightblue" points="1040.91,-83.97 1047.47,-75.65 1037.15,-78.06 1040.91,-83.97"/>
</g>
<!-- Node40 -->
<g id="node40" class="node">
<title>Node40</title>
<g id="a_node40"><a xlink:href="vbo_8h.html" target="_top" xlink:title=" ">
<polygon fill="white" stroke="black" points="932.09,-56.5 932.09,-75.5 1020.09,-75.5 1020.09,-56.5 932.09,-56.5"/>
<text text-anchor="middle" x="976.09" y="-63.5" font-family="Helvetica,sans-Serif" font-size="10.00">graphics/vbo.h</text>
</a>
</g>
</g>
<!-- Node38&#45;&gt;Node40 -->
<g id="edge71" class="edge">
<title>Node38&#45;&gt;Node40</title>
<path fill="none" stroke="midnightblue" d="M976.09,-112.08C976.09,-105.01 976.09,-94.86 976.09,-85.99"/>
<polygon fill="midnightblue" stroke="midnightblue" points="979.59,-85.75 976.09,-75.75 972.59,-85.75 979.59,-85.75"/>
</g>
<!-- Node41 -->
<g id="node41" class="node">
<title>Node41</title>
<g id="a_node41"><a xlink:href="ebo_8h.html" target="_top" xlink:title=" ">
<polygon fill="white" stroke="black" points="674.09,-56.5 674.09,-75.5 762.09,-75.5 762.09,-56.5 674.09,-56.5"/>
<text text-anchor="middle" x="718.09" y="-63.5" font-family="Helvetica,sans-Serif" font-size="10.00">graphics/ebo.h</text>
</a>
</g>
</g>
<!-- Node38&#45;&gt;Node41 -->
<g id="edge75" class="edge">
<title>Node38&#45;&gt;Node41</title>
<path fill="none" stroke="midnightblue" d="M935.21,-112.44C890.11,-103 817.48,-87.8 768.79,-77.61"/>
<polygon fill="midnightblue" stroke="midnightblue" points="769.29,-74.14 758.78,-75.52 767.85,-80.99 769.29,-74.14"/>
</g>
<!-- Node40&#45;&gt;Node2 -->
<g id="edge74" class="edge">
<title>Node40&#45;&gt;Node2</title>
<path fill="none" stroke="midnightblue" d="M932.07,-58.54C860.75,-48.08 720.88,-27.55 650.57,-17.23"/>
<polygon fill="midnightblue" stroke="midnightblue" points="650.71,-13.72 640.31,-15.73 649.7,-20.64 650.71,-13.72"/>
</g>
<!-- Node40&#45;&gt;Node16 -->
<g id="edge73" class="edge">
<title>Node40&#45;&gt;Node16</title>
<path fill="none" stroke="midnightblue" d="M1020.29,-57.59C1023.61,-57.04 1026.9,-56.51 1030.09,-56 1120.8,-41.48 1227.46,-25.33 1283.73,-16.88"/>
<polygon fill="midnightblue" stroke="midnightblue" points="1284.59,-20.29 1293.96,-15.35 1283.56,-13.37 1284.59,-20.29"/>
</g>
<!-- Node40&#45;&gt;Node17 -->
<g id="edge72" class="edge">
<title>Node40&#45;&gt;Node17</title>
<path fill="none" stroke="midnightblue" d="M958.42,-56.32C940.7,-47.62 913.19,-34.12 892.81,-24.11"/>
<polygon fill="midnightblue" stroke="midnightblue" points="894.24,-20.92 883.72,-19.65 891.16,-27.2 894.24,-20.92"/>
</g>
<!-- Node41&#45;&gt;Node2 -->
<g id="edge76" class="edge">
<title>Node41&#45;&gt;Node2</title>
<path fill="none" stroke="midnightblue" d="M700.42,-56.32C682.7,-47.62 655.19,-34.12 634.81,-24.11"/>
<polygon fill="midnightblue" stroke="midnightblue" points="636.24,-20.92 625.72,-19.65 633.16,-27.2 636.24,-20.92"/>
</g>
<!-- Node42&#45;&gt;Node6 -->
<g id="edge81" class="edge">
<title>Node42&#45;&gt;Node6</title>
<path fill="none" stroke="midnightblue" d="M227.27,-168.44C247,-159.64 277.98,-145.81 300.59,-135.72"/>
<polygon fill="midnightblue" stroke="midnightblue" points="302.31,-138.79 310.01,-131.52 299.45,-132.4 302.31,-138.79"/>
</g>
<!-- Node42&#45;&gt;Node21 -->
<g id="edge80" class="edge">
<title>Node42&#45;&gt;Node21</title>
<path fill="none" stroke="midnightblue" d="M208.33,-168.37C208.81,-150.62 209.93,-109.67 210.59,-85.6"/>
<polygon fill="midnightblue" stroke="midnightblue" points="214.09,-85.68 210.86,-75.59 207.09,-85.49 214.09,-85.68"/>
</g>
<!-- Node43&#45;&gt;Node11 -->
<g id="edge85" class="edge">
<title>Node43&#45;&gt;Node11</title>
<path fill="none" stroke="midnightblue" d="M1056.58,-285.98C1021.86,-275.59 963.06,-258.01 924.4,-246.45"/>
<polygon fill="midnightblue" stroke="midnightblue" points="925.14,-243.02 914.55,-243.51 923.13,-249.73 925.14,-243.02"/>
</g>
<!-- Node43&#45;&gt;Node16 -->
<g id="edge83" class="edge">
<title>Node43&#45;&gt;Node16</title>
<path fill="none" stroke="midnightblue" d="M1150.88,-289.71C1230.76,-282.93 1359.93,-268.52 1401.09,-244 1428.05,-227.94 1427.64,-214.72 1444.09,-188 1474.93,-137.93 1494.21,-98.04 1453.09,-56 1429.07,-31.44 1391.01,-20.27 1362.26,-15.2"/>
<polygon fill="midnightblue" stroke="midnightblue" points="1362.56,-11.71 1352.13,-13.6 1361.46,-18.62 1362.56,-11.71"/>
</g>
<!-- Node43&#45;&gt;Node18 -->
<g id="edge89" class="edge">
<title>Node43&#45;&gt;Node18</title>
<path fill="none" stroke="midnightblue" d="M1045.13,-285.98C1033.84,-283.78 1021.52,-281.6 1010.09,-280 827.62,-254.48 776.82,-284.59 597.09,-244 527.68,-228.32 489.01,-245.51 447.09,-188 437.43,-174.75 437.77,-155.62 439.86,-141.54"/>
<polygon fill="midnightblue" stroke="midnightblue" points="443.33,-142.02 441.77,-131.55 436.46,-140.72 443.33,-142.02"/>
</g>
<!-- Node43&#45;&gt;Node24 -->
<g id="edge87" class="edge">
<title>Node43&#45;&gt;Node24</title>
<path fill="none" stroke="midnightblue" d="M1121.06,-285.98C1165.6,-275.42 1241.55,-257.41 1290.24,-245.87"/>
<polygon fill="midnightblue" stroke="midnightblue" points="1291.28,-249.22 1300.2,-243.51 1289.66,-242.41 1291.28,-249.22"/>
</g>
<!-- Node43&#45;&gt;Node26 -->
<g id="edge86" class="edge">
<title>Node43&#45;&gt;Node26</title>
<path fill="none" stroke="midnightblue" d="M1073.44,-285.82C1047.19,-266.25 983.13,-218.52 950.26,-194.03"/>
<polygon fill="midnightblue" stroke="midnightblue" points="951.99,-190.95 941.88,-187.78 947.81,-196.56 951.99,-190.95"/>
</g>
<!-- Node43&#45;&gt;Node35 -->
<g id="edge90" class="edge">
<title>Node43&#45;&gt;Node35</title>
<path fill="none" stroke="midnightblue" d="M1043.52,-285.97C1032.67,-283.88 1020.96,-281.74 1010.09,-280 908.92,-263.77 790.63,-249.63 720.17,-241.72"/>
<polygon fill="midnightblue" stroke="midnightblue" points="720.46,-238.23 710.13,-240.6 719.68,-245.19 720.46,-238.23"/>
</g>
<!-- Node43&#45;&gt;Node36 -->
<g id="edge88" class="edge">
<title>Node43&#45;&gt;Node36</title>
<path fill="none" stroke="midnightblue" d="M1070.2,-285.88C1056.87,-277.22 1038.23,-262.51 1030.09,-244 1022.15,-225.93 1037.09,-207.03 1051.11,-194.3"/>
<polygon fill="midnightblue" stroke="midnightblue" points="1053.69,-196.7 1059.08,-187.57 1049.18,-191.35 1053.69,-196.7"/>
</g>
<!-- Node44 -->
<g id="node44" class="node">
<title>Node44</title>
<g id="a_node44"><a xlink:title=" ">
<polygon fill="white" stroke="#bfbfbf" points="1038.59,-224.5 1038.59,-243.5 1131.59,-243.5 1131.59,-224.5 1038.59,-224.5"/>
<text text-anchor="middle" x="1085.09" y="-231.5" font-family="Helvetica,sans-Serif" font-size="10.00">unordered_map</text>
</a>
</g>
</g>
<!-- Node43&#45;&gt;Node44 -->
<g id="edge84" class="edge">
<title>Node43&#45;&gt;Node44</title>
<path fill="none" stroke="midnightblue" d="M1085.09,-285.98C1085.09,-277.58 1085.09,-264.48 1085.09,-253.66"/>
<polygon fill="midnightblue" stroke="midnightblue" points="1088.59,-253.51 1085.09,-243.51 1081.59,-253.51 1088.59,-253.51"/>
</g>
</g>
</svg>
