<?xml version="1.0" encoding="UTF-8" standalone="no"?>
<!DOCTYPE svg PUBLIC "-//W3C//DTD SVG 1.1//EN"
 "http://www.w3.org/Graphics/SVG/1.1/DTD/svg11.dtd">
<!-- Generated by graphviz version 2.43.0 (0)
 -->
<!-- Title: src/component/render_mesh.h Pages: 1 -->
<!--zoomable 285 -->
<svg id="main" version="1.1" xmlns="http://www.w3.org/2000/svg" xmlns:xlink="http://www.w3.org/1999/xlink" xml:space="preserve" onload="init(evt)">
<style type="text/css"><![CDATA[
.edge:hover path { stroke: red; }
.edge:hover polygon { stroke: red; fill: red; }
]]></style>
<script type="text/javascript"><![CDATA[
var edges = document.getElementsByTagName('g');
if (edges && edges.length) {
  for (var i=0;i<edges.length;i++) {
    if (edges[i].id.substr(0,4)=='edge') {
      edges[i].setAttribute('class','edge');
    }
  }
}
]]></script>
        <defs>
                <circle id="rim" cx="0" cy="0" r="7"/>
                <circle id="rim2" cx="0" cy="0" r="3.5"/>
                <g id="zoomPlus">
                        <use xlink:href="#rim" fill="#404040">
                                <set attributeName="fill" to="#808080" begin="zoomplus.mouseover" end="zoomplus.mouseout"/>
                        </use>
                        <path d="M-4,0h8M0,-4v8" fill="none" stroke="white" stroke-width="1.5" pointer-events="none"/>
                </g>
                <g id="zoomMin">
                        <use xlink:href="#rim" fill="#404040">
                                <set attributeName="fill" to="#808080" begin="zoomminus.mouseover" end="zoomminus.mouseout"/>
                        </use>
                        <path d="M-4,0h8" fill="none" stroke="white" stroke-width="1.5" pointer-events="none"/>
                </g>
                <g id="dirArrow">
                        <path fill="none" stroke="white" stroke-width="1.5" d="M0,-3.0v7 M-2.5,-0.5L0,-3.0L2.5,-0.5"/>
                </g>
               <g id="resetDef">
                       <use xlink:href="#rim2" fill="#404040">
                               <set attributeName="fill" to="#808080" begin="reset.mouseover" end="reset.mouseout"/>
                       </use>
               </g>
        </defs>

<script type="text/javascript">
var viewWidth = 1603;
var viewHeight = 285;
var sectionId = 'dynsection-0';
</script>
<script xlink:href="svgpan.js"/>
<svg id="graph" class="graph">
<g id="viewport">
<title>src/component/render_mesh.h</title>
<polygon fill="white" stroke="transparent" points="-4,4 -4,-281 1599,-281 1599,4 -4,4"/>
<!-- Node1 -->
<g id="node1" class="node">
<title>Node1</title>
<g id="a_node1"><a xlink:title=" ">
<polygon fill="#bfbfbf" stroke="black" points="810.5,-246.5 810.5,-276.5 933.5,-276.5 933.5,-246.5 810.5,-246.5"/>
<text text-anchor="start" x="818.5" y="-264.5" font-family="Helvetica,sans-Serif" font-size="10.00">src/component/render</text>
<text text-anchor="middle" x="872" y="-253.5" font-family="Helvetica,sans-Serif" font-size="10.00">_mesh.h</text>
</a>
</g>
</g>
<!-- Node2 -->
<g id="node2" class="node">
<title>Node2</title>
<g id="a_node2"><a xlink:title=" ">
<polygon fill="white" stroke="#bfbfbf" points="858,-62 858,-81 902,-81 902,-62 858,-62"/>
<text text-anchor="middle" x="880" y="-69" font-family="Helvetica,sans-Serif" font-size="10.00">string</text>
</a>
</g>
</g>
<!-- Node1&#45;&gt;Node2 -->
<g id="edge1" class="edge">
<title>Node1&#45;&gt;Node2</title>
<path fill="none" stroke="midnightblue" d="M872.6,-246.37C874.02,-212.94 877.6,-128.97 879.2,-91.3"/>
<polygon fill="midnightblue" stroke="midnightblue" points="882.7,-91.35 879.63,-81.21 875.71,-91.05 882.7,-91.35"/>
</g>
<!-- Node3 -->
<g id="node3" class="node">
<title>Node3</title>
<g id="a_node3"><a xlink:href="material_8h.html" target="_top" xlink:title=" ">
<polygon fill="white" stroke="black" points="648.5,-190.5 648.5,-209.5 803.5,-209.5 803.5,-190.5 648.5,-190.5"/>
<text text-anchor="middle" x="726" y="-197.5" font-family="Helvetica,sans-Serif" font-size="10.00">graphics/material/material.h</text>
</a>
</g>
</g>
<!-- Node1&#45;&gt;Node3 -->
<g id="edge2" class="edge">
<title>Node1&#45;&gt;Node3</title>
<path fill="none" stroke="midnightblue" d="M837.4,-246.4C812.9,-236.42 780.34,-223.15 756.75,-213.53"/>
<polygon fill="midnightblue" stroke="midnightblue" points="757.83,-210.19 747.24,-209.66 755.18,-216.67 757.83,-210.19"/>
</g>
<!-- Node20 -->
<g id="node20" class="node">
<title>Node20</title>
<g id="a_node20"><a xlink:href="mesh_8h.html" target="_top" xlink:title=" ">
<polygon fill="white" stroke="black" points="1083.5,-190.5 1083.5,-209.5 1210.5,-209.5 1210.5,-190.5 1083.5,-190.5"/>
<text text-anchor="middle" x="1147" y="-197.5" font-family="Helvetica,sans-Serif" font-size="10.00">graphics/mesh/mesh.h</text>
</a>
</g>
</g>
<!-- Node1&#45;&gt;Node20 -->
<g id="edge23" class="edge">
<title>Node1&#45;&gt;Node20</title>
<path fill="none" stroke="midnightblue" d="M933.72,-247.15C983.18,-236.44 1051.68,-221.62 1097.57,-211.69"/>
<polygon fill="midnightblue" stroke="midnightblue" points="1098.55,-215.06 1107.58,-209.53 1097.07,-208.22 1098.55,-215.06"/>
</g>
<!-- Node4 -->
<g id="node4" class="node">
<title>Node4</title>
<g id="a_node4"><a xlink:title=" ">
<polygon fill="white" stroke="#bfbfbf" points="1537,-0.5 1537,-19.5 1595,-19.5 1595,-0.5 1537,-0.5"/>
<text text-anchor="middle" x="1566" y="-7.5" font-family="Helvetica,sans-Serif" font-size="10.00">memory</text>
</a>
</g>
</g>
<!-- Node3&#45;&gt;Node4 -->
<g id="edge3" class="edge">
<title>Node3&#45;&gt;Node4</title>
<path fill="none" stroke="midnightblue" d="M803.62,-196.1C970.13,-189.56 1351.08,-172.76 1407,-154 1458.42,-136.75 1469.47,-124.14 1509,-87 1527.89,-69.25 1545.07,-44.65 1555.52,-28.3"/>
<polygon fill="midnightblue" stroke="midnightblue" points="1558.53,-30.08 1560.85,-19.74 1552.59,-26.38 1558.53,-30.08"/>
</g>
<!-- Node5 -->
<g id="node5" class="node">
<title>Node5</title>
<g id="a_node5"><a xlink:title=" ">
<polygon fill="white" stroke="#bfbfbf" points="560,-62 560,-81 656,-81 656,-62 560,-62"/>
<text text-anchor="middle" x="608" y="-69" font-family="Helvetica,sans-Serif" font-size="10.00">maths/vector2.h</text>
</a>
</g>
</g>
<!-- Node3&#45;&gt;Node5 -->
<g id="edge4" class="edge">
<title>Node3&#45;&gt;Node5</title>
<path fill="none" stroke="midnightblue" d="M717.89,-190.31C698.35,-169.36 648.44,-115.85 623.16,-88.75"/>
<polygon fill="midnightblue" stroke="midnightblue" points="625.55,-86.18 616.17,-81.26 620.43,-90.96 625.55,-86.18"/>
</g>
<!-- Node6 -->
<g id="node6" class="node">
<title>Node6</title>
<g id="a_node6"><a xlink:href="texture_8h.html" target="_top" xlink:title=" ">
<polygon fill="white" stroke="black" points="377.5,-129 377.5,-148 520.5,-148 520.5,-129 377.5,-129"/>
<text text-anchor="middle" x="449" y="-136" font-family="Helvetica,sans-Serif" font-size="10.00">graphics/texture/texture.h</text>
</a>
</g>
</g>
<!-- Node3&#45;&gt;Node6 -->
<g id="edge5" class="edge">
<title>Node3&#45;&gt;Node6</title>
<path fill="none" stroke="midnightblue" d="M686.31,-190.48C636.84,-179.85 552.28,-161.68 498.59,-150.15"/>
<polygon fill="midnightblue" stroke="midnightblue" points="499.13,-146.69 488.61,-148.01 497.66,-153.53 499.13,-146.69"/>
</g>
<!-- Node14 -->
<g id="node14" class="node">
<title>Node14</title>
<g id="a_node14"><a xlink:href="shader__program_8h.html" target="_top" xlink:title=" ">
<polygon fill="white" stroke="black" points="699,-123.5 699,-153.5 829,-153.5 829,-123.5 699,-123.5"/>
<text text-anchor="start" x="707" y="-141.5" font-family="Helvetica,sans-Serif" font-size="10.00">graphics/shader/shader</text>
<text text-anchor="middle" x="764" y="-130.5" font-family="Helvetica,sans-Serif" font-size="10.00">_program.h</text>
</a>
</g>
</g>
<!-- Node3&#45;&gt;Node14 -->
<g id="edge14" class="edge">
<title>Node3&#45;&gt;Node14</title>
<path fill="none" stroke="midnightblue" d="M731.44,-190.48C736.16,-183.09 743.19,-172.08 749.52,-162.17"/>
<polygon fill="midnightblue" stroke="midnightblue" points="752.61,-163.83 755.04,-153.52 746.71,-160.07 752.61,-163.83"/>
</g>
<!-- Node19 -->
<g id="node19" class="node">
<title>Node19</title>
<g id="a_node19"><a xlink:href="render__path_8h.html" target="_top" xlink:title=" ">
<polygon fill="white" stroke="black" points="222.5,-123.5 222.5,-153.5 359.5,-153.5 359.5,-123.5 222.5,-123.5"/>
<text text-anchor="start" x="230.5" y="-141.5" font-family="Helvetica,sans-Serif" font-size="10.00">graphics/material/render</text>
<text text-anchor="middle" x="291" y="-130.5" font-family="Helvetica,sans-Serif" font-size="10.00">_path.h</text>
</a>
</g>
</g>
<!-- Node3&#45;&gt;Node19 -->
<g id="edge22" class="edge">
<title>Node3&#45;&gt;Node19</title>
<path fill="none" stroke="midnightblue" d="M648.29,-190.62C577.99,-182.72 471.37,-169.95 369.93,-154.25"/>
<polygon fill="midnightblue" stroke="midnightblue" points="370.23,-150.76 359.81,-152.67 369.15,-157.67 370.23,-150.76"/>
</g>
<!-- Node7 -->
<g id="node7" class="node">
<title>Node7</title>
<g id="a_node7"><a xlink:title=" ">
<polygon fill="white" stroke="#bfbfbf" points="396,-62 396,-81 438,-81 438,-62 396,-62"/>
<text text-anchor="middle" x="417" y="-69" font-family="Helvetica,sans-Serif" font-size="10.00">array</text>
</a>
</g>
</g>
<!-- Node6&#45;&gt;Node7 -->
<g id="edge6" class="edge">
<title>Node6&#45;&gt;Node7</title>
<path fill="none" stroke="midnightblue" d="M444.68,-128.73C439.84,-118.89 431.85,-102.66 425.69,-90.16"/>
<polygon fill="midnightblue" stroke="midnightblue" points="428.8,-88.55 421.25,-81.13 422.52,-91.64 428.8,-88.55"/>
</g>
<!-- Node8 -->
<g id="node8" class="node">
<title>Node8</title>
<g id="a_node8"><a xlink:title=" ">
<polygon fill="white" stroke="#bfbfbf" points="456.5,-62 456.5,-81 503.5,-81 503.5,-62 456.5,-62"/>
<text text-anchor="middle" x="480" y="-69" font-family="Helvetica,sans-Serif" font-size="10.00">cmath</text>
</a>
</g>
</g>
<!-- Node6&#45;&gt;Node8 -->
<g id="edge7" class="edge">
<title>Node6&#45;&gt;Node8</title>
<path fill="none" stroke="midnightblue" d="M453.18,-128.73C457.88,-118.89 465.62,-102.66 471.58,-90.16"/>
<polygon fill="midnightblue" stroke="midnightblue" points="474.74,-91.66 475.89,-81.13 468.42,-88.65 474.74,-91.66"/>
</g>
<!-- Node9 -->
<g id="node9" class="node">
<title>Node9</title>
<g id="a_node9"><a xlink:title=" ">
<polygon fill="white" stroke="#bfbfbf" points="0,-62 0,-81 108,-81 108,-62 0,-62"/>
<text text-anchor="middle" x="54" y="-69" font-family="Helvetica,sans-Serif" font-size="10.00">SDL2/SDL_image.h</text>
</a>
</g>
</g>
<!-- Node6&#45;&gt;Node9 -->
<g id="edge8" class="edge">
<title>Node6&#45;&gt;Node9</title>
<path fill="none" stroke="midnightblue" d="M402.79,-128.94C391.42,-126.92 379.28,-124.82 368,-123 256.74,-105.07 227.79,-107.66 117,-87 111.06,-85.89 104.84,-84.61 98.71,-83.28"/>
<polygon fill="midnightblue" stroke="midnightblue" points="99.07,-79.77 88.55,-81 97.54,-86.6 99.07,-79.77"/>
</g>
<!-- Node10 -->
<g id="node10" class="node">
<title>Node10</title>
<g id="a_node10"><a xlink:title=" ">
<polygon fill="white" stroke="#bfbfbf" points="652,-0.5 652,-19.5 716,-19.5 716,-0.5 652,-0.5"/>
<text text-anchor="middle" x="684" y="-7.5" font-family="Helvetica,sans-Serif" font-size="10.00">GL/glew.h</text>
</a>
</g>
</g>
<!-- Node6&#45;&gt;Node10 -->
<g id="edge9" class="edge">
<title>Node6&#45;&gt;Node10</title>
<path fill="none" stroke="midnightblue" d="M459.76,-128.86C485.71,-108.03 549.73,-56.69 551,-56 579.73,-40.29 614.94,-28.68 641.9,-21.19"/>
<polygon fill="midnightblue" stroke="midnightblue" points="643.06,-24.5 651.81,-18.52 641.24,-17.74 643.06,-24.5"/>
</g>
<!-- Node11 -->
<g id="node11" class="node">
<title>Node11</title>
<g id="a_node11"><a xlink:title=" ">
<polygon fill="white" stroke="#bfbfbf" points="266.5,-62 266.5,-81 377.5,-81 377.5,-62 266.5,-62"/>
<text text-anchor="middle" x="322" y="-69" font-family="Helvetica,sans-Serif" font-size="10.00">maths/maths_util.h</text>
</a>
</g>
</g>
<!-- Node6&#45;&gt;Node11 -->
<g id="edge10" class="edge">
<title>Node6&#45;&gt;Node11</title>
<path fill="none" stroke="midnightblue" d="M432.14,-128.87C410.6,-117.84 373.1,-98.66 347.92,-85.77"/>
<polygon fill="midnightblue" stroke="midnightblue" points="349.43,-82.61 338.93,-81.17 346.24,-88.84 349.43,-82.61"/>
</g>
<!-- Node12 -->
<g id="node12" class="node">
<title>Node12</title>
<g id="a_node12"><a xlink:href="pixel__format_8h.html" target="_top" xlink:title=" ">
<polygon fill="white" stroke="black" points="126,-56.5 126,-86.5 248,-86.5 248,-56.5 126,-56.5"/>
<text text-anchor="start" x="134" y="-74.5" font-family="Helvetica,sans-Serif" font-size="10.00">graphics/texture/pixel</text>
<text text-anchor="middle" x="187" y="-63.5" font-family="Helvetica,sans-Serif" font-size="10.00">_format.h</text>
</a>
</g>
</g>
<!-- Node6&#45;&gt;Node12 -->
<g id="edge11" class="edge">
<title>Node6&#45;&gt;Node12</title>
<path fill="none" stroke="midnightblue" d="M414.48,-128.94C373.7,-118.82 304.95,-101.76 253.68,-89.04"/>
<polygon fill="midnightblue" stroke="midnightblue" points="254.22,-85.57 243.67,-86.56 252.53,-92.36 254.22,-85.57"/>
</g>
<!-- Node12&#45;&gt;Node10 -->
<g id="edge13" class="edge">
<title>Node12&#45;&gt;Node10</title>
<path fill="none" stroke="midnightblue" d="M248.02,-57.49C251.05,-56.96 254.06,-56.46 257,-56 397.16,-34.15 564.89,-19.92 641.76,-14.05"/>
<polygon fill="midnightblue" stroke="midnightblue" points="642.28,-17.52 651.99,-13.28 641.75,-10.54 642.28,-17.52"/>
</g>
<!-- Node13 -->
<g id="node13" class="node">
<title>Node13</title>
<g id="a_node13"><a xlink:title=" ">
<polygon fill="white" stroke="#bfbfbf" points="154.5,-0.5 154.5,-19.5 219.5,-19.5 219.5,-0.5 154.5,-0.5"/>
<text text-anchor="middle" x="187" y="-7.5" font-family="Helvetica,sans-Serif" font-size="10.00">stdexcept</text>
</a>
</g>
</g>
<!-- Node12&#45;&gt;Node13 -->
<g id="edge12" class="edge">
<title>Node12&#45;&gt;Node13</title>
<path fill="none" stroke="midnightblue" d="M187,-56.4C187,-48.47 187,-38.46 187,-29.86"/>
<polygon fill="midnightblue" stroke="midnightblue" points="190.5,-29.66 187,-19.66 183.5,-29.66 190.5,-29.66"/>
</g>
<!-- Node14&#45;&gt;Node2 -->
<g id="edge15" class="edge">
<title>Node14&#45;&gt;Node2</title>
<path fill="none" stroke="midnightblue" d="M789.17,-123.4C808.98,-112.29 836.42,-96.92 855.94,-85.98"/>
<polygon fill="midnightblue" stroke="midnightblue" points="857.81,-88.95 864.82,-81.01 854.38,-82.84 857.81,-88.95"/>
</g>
<!-- Node14&#45;&gt;Node5 -->
<g id="edge19" class="edge">
<title>Node14&#45;&gt;Node5</title>
<path fill="none" stroke="midnightblue" d="M730.15,-123.4C702.66,-111.94 664.25,-95.94 637.89,-84.95"/>
<polygon fill="midnightblue" stroke="midnightblue" points="638.99,-81.62 628.42,-81.01 636.3,-88.08 638.99,-81.62"/>
</g>
<!-- Node14&#45;&gt;Node10 -->
<g id="edge17" class="edge">
<title>Node14&#45;&gt;Node10</title>
<path fill="none" stroke="midnightblue" d="M740.53,-123.42C727.63,-114.52 712.38,-101.89 703,-87 692.03,-69.59 687.39,-46.22 685.43,-30.01"/>
<polygon fill="midnightblue" stroke="midnightblue" points="688.88,-29.27 684.42,-19.66 681.91,-29.95 688.88,-29.27"/>
</g>
<!-- Node15 -->
<g id="node15" class="node">
<title>Node15</title>
<g id="a_node15"><a xlink:title=" ">
<polygon fill="white" stroke="#bfbfbf" points="1358.5,-0.5 1358.5,-19.5 1405.5,-19.5 1405.5,-0.5 1358.5,-0.5"/>
<text text-anchor="middle" x="1382" y="-7.5" font-family="Helvetica,sans-Serif" font-size="10.00">vector</text>
</a>
</g>
</g>
<!-- Node14&#45;&gt;Node15 -->
<g id="edge16" class="edge">
<title>Node14&#45;&gt;Node15</title>
<path fill="none" stroke="midnightblue" d="M776.63,-123.28C795.84,-102.04 831.95,-63.7 849,-56 938.71,-15.48 1245.36,-11.21 1348.12,-10.94"/>
<polygon fill="midnightblue" stroke="midnightblue" points="1348.25,-14.44 1358.25,-10.92 1348.24,-7.44 1348.25,-14.44"/>
</g>
<!-- Node16 -->
<g id="node16" class="node">
<title>Node16</title>
<g id="a_node16"><a xlink:title=" ">
<polygon fill="white" stroke="#bfbfbf" points="712.5,-62 712.5,-81 801.5,-81 801.5,-62 712.5,-62"/>
<text text-anchor="middle" x="757" y="-69" font-family="Helvetica,sans-Serif" font-size="10.00">maths/colour.h</text>
</a>
</g>
</g>
<!-- Node14&#45;&gt;Node16 -->
<g id="edge18" class="edge">
<title>Node14&#45;&gt;Node16</title>
<path fill="none" stroke="midnightblue" d="M762.48,-123.4C761.47,-113.96 760.12,-101.45 759.01,-91.19"/>
<polygon fill="midnightblue" stroke="midnightblue" points="762.49,-90.76 757.94,-81.19 755.53,-91.51 762.49,-90.76"/>
</g>
<!-- Node17 -->
<g id="node17" class="node">
<title>Node17</title>
<g id="a_node17"><a xlink:title=" ">
<polygon fill="white" stroke="#bfbfbf" points="920,-62 920,-81 1016,-81 1016,-62 920,-62"/>
<text text-anchor="middle" x="968" y="-69" font-family="Helvetica,sans-Serif" font-size="10.00">maths/vector3.h</text>
</a>
</g>
</g>
<!-- Node14&#45;&gt;Node17 -->
<g id="edge20" class="edge">
<title>Node14&#45;&gt;Node17</title>
<path fill="none" stroke="midnightblue" d="M808.01,-123.48C844.9,-111.72 896.93,-95.14 931.53,-84.12"/>
<polygon fill="midnightblue" stroke="midnightblue" points="932.77,-87.4 941.23,-81.03 930.64,-80.73 932.77,-87.4"/>
</g>
<!-- Node18 -->
<g id="node18" class="node">
<title>Node18</title>
<g id="a_node18"><a xlink:title=" ">
<polygon fill="white" stroke="#bfbfbf" points="1034,-62 1034,-81 1126,-81 1126,-62 1034,-62"/>
<text text-anchor="middle" x="1080" y="-69" font-family="Helvetica,sans-Serif" font-size="10.00">maths/matrix.h</text>
</a>
</g>
</g>
<!-- Node14&#45;&gt;Node18 -->
<g id="edge21" class="edge">
<title>Node14&#45;&gt;Node18</title>
<path fill="none" stroke="midnightblue" d="M829.14,-126.14C882.1,-116.61 958.63,-102.15 1025,-87 1029.63,-85.94 1034.46,-84.77 1039.26,-83.57"/>
<polygon fill="midnightblue" stroke="midnightblue" points="1040.15,-86.95 1048.97,-81.07 1038.41,-80.17 1040.15,-86.95"/>
</g>
<!-- Node20&#45;&gt;Node2 -->
<g id="edge26" class="edge">
<title>Node20&#45;&gt;Node2</title>
<path fill="none" stroke="midnightblue" d="M1083.39,-191.6C1028.2,-184.16 953.44,-171.32 929,-154 906.94,-138.37 893.05,-109.38 885.91,-90.53"/>
<polygon fill="midnightblue" stroke="midnightblue" points="889.18,-89.27 882.55,-81.01 882.58,-91.6 889.18,-89.27"/>
</g>
<!-- Node20&#45;&gt;Node4 -->
<g id="edge24" class="edge">
<title>Node20&#45;&gt;Node4</title>
<path fill="none" stroke="midnightblue" d="M1210.56,-196.34C1274.3,-192.16 1374.57,-181.45 1457,-154 1516.06,-134.33 1548.21,-140.52 1580,-87 1590.67,-69.04 1583.18,-44.82 1575.68,-28.59"/>
<polygon fill="midnightblue" stroke="midnightblue" points="1578.8,-27 1571.17,-19.65 1572.55,-30.15 1578.8,-27"/>
</g>
<!-- Node20&#45;&gt;Node15 -->
<g id="edge25" class="edge">
<title>Node20&#45;&gt;Node15</title>
<path fill="none" stroke="midnightblue" d="M1210.67,-195.26C1264.55,-190.4 1342.99,-179.29 1407,-154 1457.44,-134.07 1483.24,-134.73 1509,-87 1515.54,-74.87 1516.95,-67.25 1509,-56 1487.99,-26.26 1445.58,-16.05 1415.56,-12.62"/>
<polygon fill="midnightblue" stroke="midnightblue" points="1415.8,-9.12 1405.51,-11.66 1415.14,-16.09 1415.8,-9.12"/>
</g>
<!-- Node21 -->
<g id="node21" class="node">
<title>Node21</title>
<g id="a_node21"><a xlink:href="vertex_8h.html" target="_top" xlink:title=" ">
<polygon fill="white" stroke="black" points="938.5,-129 938.5,-148 1069.5,-148 1069.5,-129 938.5,-129"/>
<text text-anchor="middle" x="1004" y="-136" font-family="Helvetica,sans-Serif" font-size="10.00">graphics/mesh/vertex.h</text>
</a>
</g>
</g>
<!-- Node20&#45;&gt;Node21 -->
<g id="edge27" class="edge">
<title>Node20&#45;&gt;Node21</title>
<path fill="none" stroke="midnightblue" d="M1126.51,-190.48C1102.19,-180.36 1061.45,-163.4 1033.68,-151.85"/>
<polygon fill="midnightblue" stroke="midnightblue" points="1035.03,-148.62 1024.45,-148.01 1032.34,-155.08 1035.03,-148.62"/>
</g>
<!-- Node22 -->
<g id="node22" class="node">
<title>Node22</title>
<g id="a_node22"><a xlink:href="mesh__instance__data_8h.html" target="_top" xlink:title=" ">
<polygon fill="white" stroke="black" points="1088,-123.5 1088,-153.5 1206,-153.5 1206,-123.5 1088,-123.5"/>
<text text-anchor="start" x="1096" y="-141.5" font-family="Helvetica,sans-Serif" font-size="10.00">graphics/mesh/mesh</text>
<text text-anchor="middle" x="1147" y="-130.5" font-family="Helvetica,sans-Serif" font-size="10.00">_instance_data.h</text>
</a>
</g>
</g>
<!-- Node20&#45;&gt;Node22 -->
<g id="edge29" class="edge">
<title>Node20&#45;&gt;Node22</title>
<path fill="none" stroke="midnightblue" d="M1147,-190.48C1147,-183.47 1147,-173.19 1147,-163.7"/>
<polygon fill="midnightblue" stroke="midnightblue" points="1150.5,-163.52 1147,-153.52 1143.5,-163.52 1150.5,-163.52"/>
</g>
<!-- Node23 -->
<g id="node23" class="node">
<title>Node23</title>
<g id="a_node23"><a xlink:href="vao_8h.html" target="_top" xlink:title=" ">
<polygon fill="white" stroke="black" points="1280,-129 1280,-148 1398,-148 1398,-129 1280,-129"/>
<text text-anchor="middle" x="1339" y="-136" font-family="Helvetica,sans-Serif" font-size="10.00">graphics/mesh/vao.h</text>
</a>
</g>
</g>
<!-- Node20&#45;&gt;Node23 -->
<g id="edge31" class="edge">
<title>Node20&#45;&gt;Node23</title>
<path fill="none" stroke="midnightblue" d="M1174.51,-190.48C1207.87,-180.14 1264.26,-162.66 1301.56,-151.1"/>
<polygon fill="midnightblue" stroke="midnightblue" points="1303.03,-154.31 1311.54,-148.01 1300.95,-147.63 1303.03,-154.31"/>
</g>
<!-- Node21&#45;&gt;Node17 -->
<g id="edge28" class="edge">
<title>Node21&#45;&gt;Node17</title>
<path fill="none" stroke="midnightblue" d="M999.14,-128.73C993.69,-118.89 984.7,-102.66 977.78,-90.16"/>
<polygon fill="midnightblue" stroke="midnightblue" points="980.69,-88.18 972.78,-81.13 974.56,-91.57 980.69,-88.18"/>
</g>
<!-- Node22&#45;&gt;Node18 -->
<g id="edge30" class="edge">
<title>Node22&#45;&gt;Node18</title>
<path fill="none" stroke="midnightblue" d="M1132.46,-123.4C1121.81,-113.06 1107.34,-99.02 1096.3,-88.31"/>
<polygon fill="midnightblue" stroke="midnightblue" points="1098.58,-85.65 1088.96,-81.19 1093.7,-90.67 1098.58,-85.65"/>
</g>
<!-- Node23&#45;&gt;Node15 -->
<g id="edge33" class="edge">
<title>Node23&#45;&gt;Node15</title>
<path fill="none" stroke="midnightblue" d="M1358.9,-128.99C1375.16,-120.84 1397.02,-106.84 1407,-87 1416.7,-67.71 1405.4,-43.81 1395.02,-28.03"/>
<polygon fill="midnightblue" stroke="midnightblue" points="1397.82,-25.91 1389.19,-19.76 1392.1,-29.95 1397.82,-25.91"/>
</g>
<!-- Node24 -->
<g id="node24" class="node">
<title>Node24</title>
<g id="a_node24"><a xlink:title=" ">
<polygon fill="white" stroke="#bfbfbf" points="1454.5,-62 1454.5,-81 1499.5,-81 1499.5,-62 1454.5,-62"/>
<text text-anchor="middle" x="1477" y="-69" font-family="Helvetica,sans-Serif" font-size="10.00">utility</text>
</a>
</g>
</g>
<!-- Node23&#45;&gt;Node24 -->
<g id="edge32" class="edge">
<title>Node23&#45;&gt;Node24</title>
<path fill="none" stroke="midnightblue" d="M1357.33,-128.87C1380.94,-117.75 1422.19,-98.32 1449.55,-85.43"/>
<polygon fill="midnightblue" stroke="midnightblue" points="1451.04,-88.59 1458.6,-81.17 1448.06,-82.26 1451.04,-88.59"/>
</g>
<!-- Node25 -->
<g id="node25" class="node">
<title>Node25</title>
<g id="a_node25"><a xlink:href="vbo_8h.html" target="_top" xlink:title=" ">
<polygon fill="white" stroke="black" points="1280,-62 1280,-81 1398,-81 1398,-62 1280,-62"/>
<text text-anchor="middle" x="1339" y="-69" font-family="Helvetica,sans-Serif" font-size="10.00">graphics/mesh/vbo.h</text>
</a>
</g>
</g>
<!-- Node23&#45;&gt;Node25 -->
<g id="edge34" class="edge">
<title>Node23&#45;&gt;Node25</title>
<path fill="none" stroke="midnightblue" d="M1339,-128.73C1339,-119.18 1339,-103.62 1339,-91.28"/>
<polygon fill="midnightblue" stroke="midnightblue" points="1342.5,-91.13 1339,-81.13 1335.5,-91.13 1342.5,-91.13"/>
</g>
<!-- Node26 -->
<g id="node26" class="node">
<title>Node26</title>
<g id="a_node26"><a xlink:href="ebo_8h.html" target="_top" xlink:title=" ">
<polygon fill="white" stroke="black" points="1144,-62 1144,-81 1262,-81 1262,-62 1144,-62"/>
<text text-anchor="middle" x="1203" y="-69" font-family="Helvetica,sans-Serif" font-size="10.00">graphics/mesh/ebo.h</text>
</a>
</g>
</g>
<!-- Node23&#45;&gt;Node26 -->
<g id="edge38" class="edge">
<title>Node23&#45;&gt;Node26</title>
<path fill="none" stroke="midnightblue" d="M1320.94,-128.87C1297.77,-117.8 1257.37,-98.49 1230.4,-85.6"/>
<polygon fill="midnightblue" stroke="midnightblue" points="1231.67,-82.32 1221.13,-81.17 1228.65,-88.64 1231.67,-82.32"/>
</g>
<!-- Node25&#45;&gt;Node4 -->
<g id="edge36" class="edge">
<title>Node25&#45;&gt;Node4</title>
<path fill="none" stroke="midnightblue" d="M1371.52,-61.98C1412.58,-51.21 1483.14,-32.72 1527.03,-21.21"/>
<polygon fill="midnightblue" stroke="midnightblue" points="1527.99,-24.58 1536.78,-18.66 1526.22,-17.81 1527.99,-24.58"/>
</g>
<!-- Node25&#45;&gt;Node10 -->
<g id="edge37" class="edge">
<title>Node25&#45;&gt;Node10</title>
<path fill="none" stroke="midnightblue" d="M1303.52,-62C1293.09,-59.75 1281.63,-57.53 1271,-56 1068.43,-26.77 823.61,-15.74 726.58,-12.31"/>
<polygon fill="midnightblue" stroke="midnightblue" points="726.41,-8.81 716.3,-11.96 726.17,-15.8 726.41,-8.81"/>
</g>
<!-- Node25&#45;&gt;Node15 -->
<g id="edge35" class="edge">
<title>Node25&#45;&gt;Node15</title>
<path fill="none" stroke="midnightblue" d="M1345.16,-61.98C1351.61,-53.05 1361.9,-38.81 1369.97,-27.64"/>
<polygon fill="midnightblue" stroke="midnightblue" points="1372.83,-29.66 1375.85,-19.51 1367.16,-25.56 1372.83,-29.66"/>
</g>
<!-- Node26&#45;&gt;Node10 -->
<g id="edge39" class="edge">
<title>Node26&#45;&gt;Node10</title>
<path fill="none" stroke="midnightblue" d="M1166.44,-61.93C1156.3,-59.76 1145.26,-57.6 1135,-56 985.63,-32.7 806.44,-19.03 726.32,-13.65"/>
<polygon fill="midnightblue" stroke="midnightblue" points="726.35,-10.15 716.14,-12.98 725.89,-17.13 726.35,-10.15"/>
</g>
</g>
</svg>
        <g id="navigator" transform="translate(0 0)" fill="#404254">
                <rect fill="#f2f5e9" fill-opacity="0.5" stroke="#606060" stroke-width=".5" x="0" y="0" width="60" height="60"/>
                <use id="zoomplus" xlink:href="#zoomPlus" x="17" y="9" onmousedown="handleZoom(evt,'in')"/>
                <use id="zoomminus" xlink:href="#zoomMin" x="42" y="9" onmousedown="handleZoom(evt,'out')"/>
                <use id="reset" xlink:href="#resetDef" x="30" y="36" onmousedown="handleReset()"/>
                <g id="arrowUp" xlink:href="#dirArrow" transform="translate(30 24)" onmousedown="handlePan(0,-1)">
                  <use xlink:href="#rim" fill="#404040">
                        <set attributeName="fill" to="#808080" begin="arrowUp.mouseover" end="arrowUp.mouseout"/>
                  </use>
                  <path fill="none" stroke="white" stroke-width="1.5" d="M0,-3.0v7 M-2.5,-0.5L0,-3.0L2.5,-0.5"/>
                </g>
                <g id="arrowRight" xlink:href="#dirArrow" transform="rotate(90) translate(36 -43)" onmousedown="handlePan(1,0)">
                  <use xlink:href="#rim" fill="#404040">
                        <set attributeName="fill" to="#808080" begin="arrowRight.mouseover" end="arrowRight.mouseout"/>
                  </use>
                  <path fill="none" stroke="white" stroke-width="1.5" d="M0,-3.0v7 M-2.5,-0.5L0,-3.0L2.5,-0.5"/>
                </g>
                <g id="arrowDown" xlink:href="#dirArrow" transform="rotate(180) translate(-30 -48)" onmousedown="handlePan(0,1)">
                  <use xlink:href="#rim" fill="#404040">
                        <set attributeName="fill" to="#808080" begin="arrowDown.mouseover" end="arrowDown.mouseout"/>
                  </use>
                  <path fill="none" stroke="white" stroke-width="1.5" d="M0,-3.0v7 M-2.5,-0.5L0,-3.0L2.5,-0.5"/>
                </g>
                <g id="arrowLeft" xlink:href="#dirArrow" transform="rotate(270) translate(-36 17)" onmousedown="handlePan(-1,0)">
                  <use xlink:href="#rim" fill="#404040">
                        <set attributeName="fill" to="#808080" begin="arrowLeft.mouseover" end="arrowLeft.mouseout"/>
                  </use>
                  <path fill="none" stroke="white" stroke-width="1.5" d="M0,-3.0v7 M-2.5,-0.5L0,-3.0L2.5,-0.5"/>
                </g>
        </g>
        <svg viewBox="0 0 15 15" width="100%" height="30px" preserveAspectRatio="xMaxYMin meet">
         <g id="arrow_out" transform="scale(0.3 0.3)">
          <a xlink:href="render__mesh_8h__incl_org.svg" target="_base">
           <rect id="button" ry="5" rx="5" y="6" x="6" height="38" width="38"
                fill="#f2f5e9" fill-opacity="0.5" stroke="#606060" stroke-width="1.0"/>
           <path id="arrow"
             d="M 11.500037,31.436501 C 11.940474,20.09759 22.043105,11.32322 32.158766,21.979434 L 37.068811,17.246167 C 37.068811,17.246167 37.088388,32 37.088388,32 L 22.160133,31.978069 C 22.160133,31.978069 26.997745,27.140456 26.997745,27.140456 C 18.528582,18.264221 13.291696,25.230495 11.500037,31.436501 z"
             style="fill:#404040;"/>
          </a>
         </g>
        </svg>
</svg>
