<?xml version="1.0" encoding="UTF-8" standalone="no"?>
<!DOCTYPE svg PUBLIC "-//W3C//DTD SVG 1.1//EN"
 "http://www.w3.org/Graphics/SVG/1.1/DTD/svg11.dtd">
<!-- Generated by graphviz version 2.43.0 (0)
 -->
<!-- Title: src/graphics/renderer.h Pages: 1 -->
<svg width="2055pt" height="375pt"
 viewBox="0.00 0.00 2055.00 375.00" xmlns="http://www.w3.org/2000/svg" xmlns:xlink="http://www.w3.org/1999/xlink">
<g id="graph0" class="graph" transform="scale(1 1) rotate(0) translate(4 371)">
<title>src/graphics/renderer.h</title>
<polygon fill="white" stroke="transparent" points="-4,4 -4,-371 2051,-371 2051,4 -4,4"/>
<!-- Node1 -->
<g id="node1" class="node">
<title>Node1</title>
<g id="a_node1"><a xlink:title=" ">
<polygon fill="#bfbfbf" stroke="black" points="528.5,-347.5 528.5,-366.5 656.5,-366.5 656.5,-347.5 528.5,-347.5"/>
<text text-anchor="middle" x="592.5" y="-354.5" font-family="Helvetica,sans-Serif" font-size="10.00">src/graphics/renderer.h</text>
</a>
</g>
</g>
<!-- Node2 -->
<g id="node2" class="node">
<title>Node2</title>
<g id="a_node2"><a xlink:title=" ">
<polygon fill="white" stroke="#bfbfbf" points="0,-286 0,-305 65,-305 65,-286 0,-286"/>
<text text-anchor="middle" x="32.5" y="-293" font-family="Helvetica,sans-Serif" font-size="10.00">functional</text>
</a>
</g>
</g>
<!-- Node1&#45;&gt;Node2 -->
<g id="edge1" class="edge">
<title>Node1&#45;&gt;Node2</title>
<path fill="none" stroke="midnightblue" d="M528.21,-355.63C429.36,-353.9 234.6,-345.88 73.5,-311 70.08,-310.26 66.55,-309.31 63.06,-308.25"/>
<polygon fill="midnightblue" stroke="midnightblue" points="64.08,-304.9 53.48,-305.07 61.87,-311.54 64.08,-304.9"/>
</g>
<!-- Node3 -->
<g id="node3" class="node">
<title>Node3</title>
<g id="a_node3"><a xlink:title=" ">
<polygon fill="white" stroke="#bfbfbf" points="83,-286 83,-305 130,-305 130,-286 83,-286"/>
<text text-anchor="middle" x="106.5" y="-293" font-family="Helvetica,sans-Serif" font-size="10.00">queue</text>
</a>
</g>
</g>
<!-- Node1&#45;&gt;Node3 -->
<g id="edge2" class="edge">
<title>Node1&#45;&gt;Node3</title>
<path fill="none" stroke="midnightblue" d="M528.36,-355.93C439.57,-354.42 274.81,-346.49 139.5,-311 137.2,-310.4 134.86,-309.65 132.54,-308.83"/>
<polygon fill="midnightblue" stroke="midnightblue" points="133.84,-305.58 123.26,-305.08 131.22,-312.07 133.84,-305.58"/>
</g>
<!-- Node4 -->
<g id="node4" class="node">
<title>Node4</title>
<g id="a_node4"><a xlink:title=" ">
<polygon fill="white" stroke="#bfbfbf" points="148.5,-286 148.5,-305 196.5,-305 196.5,-286 148.5,-286"/>
<text text-anchor="middle" x="172.5" y="-293" font-family="Helvetica,sans-Serif" font-size="10.00">flecs.h</text>
</a>
</g>
</g>
<!-- Node1&#45;&gt;Node4 -->
<g id="edge3" class="edge">
<title>Node1&#45;&gt;Node4</title>
<path fill="none" stroke="midnightblue" d="M528.39,-354.37C450.72,-351.07 316.48,-341.1 205.5,-311 203.21,-310.38 200.87,-309.62 198.55,-308.78"/>
<polygon fill="midnightblue" stroke="midnightblue" points="199.86,-305.54 189.28,-305.02 197.23,-312.03 199.86,-305.54"/>
</g>
<!-- Node5 -->
<g id="node5" class="node">
<title>Node5</title>
<g id="a_node5"><a xlink:title=" ">
<polygon fill="white" stroke="#bfbfbf" points="214.5,-286 214.5,-305 330.5,-305 330.5,-286 214.5,-286"/>
<text text-anchor="middle" x="272.5" y="-293" font-family="Helvetica,sans-Serif" font-size="10.00">common/singleton.h</text>
</a>
</g>
</g>
<!-- Node1&#45;&gt;Node5 -->
<g id="edge4" class="edge">
<title>Node1&#45;&gt;Node5</title>
<path fill="none" stroke="midnightblue" d="M543.98,-347.48C493.95,-338.63 413.7,-324.24 344.5,-311 337.94,-309.74 331.04,-308.39 324.23,-307.04"/>
<polygon fill="midnightblue" stroke="midnightblue" points="324.84,-303.6 314.35,-305.07 323.47,-310.46 324.84,-303.6"/>
</g>
<!-- Node6 -->
<g id="node6" class="node">
<title>Node6</title>
<g id="a_node6"><a xlink:title=" ">
<polygon fill="white" stroke="#bfbfbf" points="283,-224.5 283,-243.5 396,-243.5 396,-224.5 283,-224.5"/>
<text text-anchor="middle" x="339.5" y="-231.5" font-family="Helvetica,sans-Serif" font-size="10.00">maths/matrix_util.h</text>
</a>
</g>
</g>
<!-- Node1&#45;&gt;Node6 -->
<g id="edge5" class="edge">
<title>Node1&#45;&gt;Node6</title>
<path fill="none" stroke="midnightblue" d="M528.38,-348.8C473.84,-341.57 400.76,-328.93 377.5,-311 359.1,-296.81 348.96,-271.32 343.88,-253.8"/>
<polygon fill="midnightblue" stroke="midnightblue" points="347.14,-252.43 341.23,-243.63 340.36,-254.19 347.14,-252.43"/>
</g>
<!-- Node7 -->
<g id="node7" class="node">
<title>Node7</title>
<g id="a_node7"><a xlink:href="app__window_8h.html" target="_top" xlink:title=" ">
<polygon fill="white" stroke="black" points="658.5,-168.5 658.5,-187.5 788.5,-187.5 788.5,-168.5 658.5,-168.5"/>
<text text-anchor="middle" x="723.5" y="-175.5" font-family="Helvetica,sans-Serif" font-size="10.00">graphics/app_window.h</text>
</a>
</g>
</g>
<!-- Node1&#45;&gt;Node7 -->
<g id="edge6" class="edge">
<title>Node1&#45;&gt;Node7</title>
<path fill="none" stroke="midnightblue" d="M609.48,-347.4C623.75,-339.5 643.92,-326.66 657.5,-311 687.89,-275.96 708.31,-224.46 717.66,-197.3"/>
<polygon fill="midnightblue" stroke="midnightblue" points="721.06,-198.17 720.89,-187.58 714.41,-195.96 721.06,-198.17"/>
</g>
<!-- Node11 -->
<g id="node11" class="node">
<title>Node11</title>
<g id="a_node11"><a xlink:href="framebuffer_8h.html" target="_top" xlink:title=" ">
<polygon fill="white" stroke="black" points="1414,-168.5 1414,-187.5 1541,-187.5 1541,-168.5 1414,-168.5"/>
<text text-anchor="middle" x="1477.5" y="-175.5" font-family="Helvetica,sans-Serif" font-size="10.00">graphics/framebuffer.h</text>
</a>
</g>
</g>
<!-- Node1&#45;&gt;Node11 -->
<g id="edge10" class="edge">
<title>Node1&#45;&gt;Node11</title>
<path fill="none" stroke="midnightblue" d="M656.77,-355.98C804.54,-355.26 1164.5,-349.49 1278.5,-311 1354.22,-285.44 1428.74,-223.52 1460.94,-194.5"/>
<polygon fill="midnightblue" stroke="midnightblue" points="1463.51,-196.89 1468.52,-187.56 1458.78,-191.73 1463.51,-196.89"/>
</g>
<!-- Node22 -->
<g id="node22" class="node">
<title>Node22</title>
<g id="a_node22"><a xlink:href="material_8h.html" target="_top" xlink:title=" ">
<polygon fill="white" stroke="black" points="985,-224.5 985,-243.5 1096,-243.5 1096,-224.5 985,-224.5"/>
<text text-anchor="middle" x="1040.5" y="-231.5" font-family="Helvetica,sans-Serif" font-size="10.00">graphics/material.h</text>
</a>
</g>
</g>
<!-- Node1&#45;&gt;Node22 -->
<g id="edge25" class="edge">
<title>Node1&#45;&gt;Node22</title>
<path fill="none" stroke="midnightblue" d="M624,-347.49C703.11,-326.13 910.13,-270.21 999,-246.21"/>
<polygon fill="midnightblue" stroke="midnightblue" points="999.99,-249.57 1008.73,-243.58 998.17,-242.81 999.99,-249.57"/>
</g>
<!-- Node28 -->
<g id="node28" class="node">
<title>Node28</title>
<g id="a_node28"><a xlink:href="mesh__render_8h.html" target="_top" xlink:title=" ">
<polygon fill="white" stroke="black" points="743.5,-224.5 743.5,-243.5 889.5,-243.5 889.5,-224.5 743.5,-224.5"/>
<text text-anchor="middle" x="816.5" y="-231.5" font-family="Helvetica,sans-Serif" font-size="10.00">component/mesh_render.h</text>
</a>
</g>
</g>
<!-- Node1&#45;&gt;Node28 -->
<g id="edge39" class="edge">
<title>Node1&#45;&gt;Node28</title>
<path fill="none" stroke="midnightblue" d="M613.32,-347.4C633.6,-338.82 665.13,-324.95 691.5,-311 728.93,-291.21 770.62,-264.96 795.14,-249.07"/>
<polygon fill="midnightblue" stroke="midnightblue" points="797.2,-251.91 803.66,-243.51 793.37,-246.04 797.2,-251.91"/>
</g>
<!-- Node29 -->
<g id="node29" class="node">
<title>Node29</title>
<g id="a_node29"><a xlink:href="transform_8h.html" target="_top" xlink:title=" ">
<polygon fill="white" stroke="black" points="387,-286 387,-305 518,-305 518,-286 387,-286"/>
<text text-anchor="middle" x="452.5" y="-293" font-family="Helvetica,sans-Serif" font-size="10.00">component/transform.h</text>
</a>
</g>
</g>
<!-- Node1&#45;&gt;Node29 -->
<g id="edge41" class="edge">
<title>Node1&#45;&gt;Node29</title>
<path fill="none" stroke="midnightblue" d="M572.44,-347.48C548.74,-337.4 509.09,-320.55 481.92,-309"/>
<polygon fill="midnightblue" stroke="midnightblue" points="483.09,-305.7 472.52,-305.01 480.36,-312.14 483.09,-305.7"/>
</g>
<!-- Node31 -->
<g id="node31" class="node">
<title>Node31</title>
<g id="a_node31"><a xlink:href="local__to__world_8h.html" target="_top" xlink:title=" ">
<polygon fill="white" stroke="black" points="536,-280.5 536,-310.5 649,-310.5 649,-280.5 536,-280.5"/>
<text text-anchor="start" x="544" y="-298.5" font-family="Helvetica,sans-Serif" font-size="10.00">component/local_to</text>
<text text-anchor="middle" x="592.5" y="-287.5" font-family="Helvetica,sans-Serif" font-size="10.00">_world.h</text>
</a>
</g>
</g>
<!-- Node1&#45;&gt;Node31 -->
<g id="edge45" class="edge">
<title>Node1&#45;&gt;Node31</title>
<path fill="none" stroke="midnightblue" d="M592.5,-347.48C592.5,-340.47 592.5,-330.19 592.5,-320.7"/>
<polygon fill="midnightblue" stroke="midnightblue" points="596,-320.52 592.5,-310.52 589,-320.52 596,-320.52"/>
</g>
<!-- Node32 -->
<g id="node32" class="node">
<title>Node32</title>
<g id="a_node32"><a xlink:href="camera_8h.html" target="_top" xlink:title=" ">
<polygon fill="white" stroke="black" points="1149.5,-286 1149.5,-305 1269.5,-305 1269.5,-286 1149.5,-286"/>
<text text-anchor="middle" x="1209.5" y="-293" font-family="Helvetica,sans-Serif" font-size="10.00">component/camera.h</text>
</a>
</g>
</g>
<!-- Node1&#45;&gt;Node32 -->
<g id="edge49" class="edge">
<title>Node1&#45;&gt;Node32</title>
<path fill="none" stroke="midnightblue" d="M656.78,-349.8C773.3,-338.56 1018.46,-314.92 1139.23,-303.28"/>
<polygon fill="midnightblue" stroke="midnightblue" points="1139.85,-306.73 1149.47,-302.29 1139.18,-299.77 1139.85,-306.73"/>
</g>
<!-- Node40 -->
<g id="node40" class="node">
<title>Node40</title>
<g id="a_node40"><a xlink:href="light_8h.html" target="_top" xlink:title=" ">
<polygon fill="white" stroke="black" points="1674,-168.5 1674,-187.5 1779,-187.5 1779,-168.5 1674,-168.5"/>
<text text-anchor="middle" x="1726.5" y="-175.5" font-family="Helvetica,sans-Serif" font-size="10.00">component/light.h</text>
</a>
</g>
</g>
<!-- Node1&#45;&gt;Node40 -->
<g id="edge73" class="edge">
<title>Node1&#45;&gt;Node40</title>
<path fill="none" stroke="midnightblue" d="M656.65,-354.15C810.41,-349.37 1196.59,-335.28 1323.5,-311 1467.6,-283.44 1631.54,-218.8 1697.13,-191.51"/>
<polygon fill="midnightblue" stroke="midnightblue" points="1698.56,-194.71 1706.44,-187.61 1695.86,-188.25 1698.56,-194.71"/>
</g>
<!-- Node8 -->
<g id="node8" class="node">
<title>Node8</title>
<g id="a_node8"><a xlink:title=" ">
<polygon fill="white" stroke="#bfbfbf" points="906.5,-112.5 906.5,-131.5 950.5,-131.5 950.5,-112.5 906.5,-112.5"/>
<text text-anchor="middle" x="928.5" y="-119.5" font-family="Helvetica,sans-Serif" font-size="10.00">string</text>
</a>
</g>
</g>
<!-- Node7&#45;&gt;Node8 -->
<g id="edge7" class="edge">
<title>Node7&#45;&gt;Node8</title>
<path fill="none" stroke="midnightblue" d="M755.98,-168.44C794.37,-158.33 857.86,-141.61 896.18,-131.51"/>
<polygon fill="midnightblue" stroke="midnightblue" points="897.5,-134.79 906.28,-128.85 895.72,-128.02 897.5,-134.79"/>
</g>
<!-- Node9 -->
<g id="node9" class="node">
<title>Node9</title>
<g id="a_node9"><a xlink:title=" ">
<polygon fill="white" stroke="#bfbfbf" points="658.5,-112.5 658.5,-131.5 730.5,-131.5 730.5,-112.5 658.5,-112.5"/>
<text text-anchor="middle" x="694.5" y="-119.5" font-family="Helvetica,sans-Serif" font-size="10.00">SDL2/SDL.h</text>
</a>
</g>
</g>
<!-- Node7&#45;&gt;Node9 -->
<g id="edge8" class="edge">
<title>Node7&#45;&gt;Node9</title>
<path fill="none" stroke="midnightblue" d="M718.71,-168.08C714.74,-160.69 708.97,-149.95 704.07,-140.81"/>
<polygon fill="midnightblue" stroke="midnightblue" points="707.01,-138.91 699.2,-131.75 700.85,-142.22 707.01,-138.91"/>
</g>
<!-- Node10 -->
<g id="node10" class="node">
<title>Node10</title>
<g id="a_node10"><a xlink:title=" ">
<polygon fill="white" stroke="#bfbfbf" points="1258.5,-56.5 1258.5,-75.5 1366.5,-75.5 1366.5,-56.5 1258.5,-56.5"/>
<text text-anchor="middle" x="1312.5" y="-63.5" font-family="Helvetica,sans-Serif" font-size="10.00">SDL2/SDL_image.h</text>
</a>
</g>
</g>
<!-- Node7&#45;&gt;Node10 -->
<g id="edge9" class="edge">
<title>Node7&#45;&gt;Node10</title>
<path fill="none" stroke="midnightblue" d="M788.64,-171.75C804.01,-170.51 820.33,-169.21 835.5,-168 886.39,-163.96 1253.89,-164.19 1293.5,-132 1307.02,-121.01 1311.26,-100.96 1312.42,-86.02"/>
<polygon fill="midnightblue" stroke="midnightblue" points="1315.93,-85.96 1312.82,-75.83 1308.93,-85.68 1315.93,-85.96"/>
</g>
<!-- Node11&#45;&gt;Node8 -->
<g id="edge12" class="edge">
<title>Node11&#45;&gt;Node8</title>
<path fill="none" stroke="midnightblue" d="M1413.92,-173.04C1299.35,-165.66 1061.5,-149.12 960.62,-131.8"/>
<polygon fill="midnightblue" stroke="midnightblue" points="961.19,-128.35 950.73,-130.02 959.94,-135.24 961.19,-128.35"/>
</g>
<!-- Node12 -->
<g id="node12" class="node">
<title>Node12</title>
<g id="a_node12"><a xlink:title=" ">
<polygon fill="white" stroke="#bfbfbf" points="849.5,-0.5 849.5,-19.5 907.5,-19.5 907.5,-0.5 849.5,-0.5"/>
<text text-anchor="middle" x="878.5" y="-7.5" font-family="Helvetica,sans-Serif" font-size="10.00">memory</text>
</a>
</g>
</g>
<!-- Node11&#45;&gt;Node12 -->
<g id="edge11" class="edge">
<title>Node11&#45;&gt;Node12</title>
<path fill="none" stroke="midnightblue" d="M1413.73,-171.7C1354.31,-165.68 1263.68,-153.75 1187.5,-132 1165.67,-125.77 1162.27,-118.45 1140.5,-112 1051.81,-85.72 1016.13,-121.35 935.5,-76 915.35,-64.67 898.81,-43.44 888.84,-28.33"/>
<polygon fill="midnightblue" stroke="midnightblue" points="891.79,-26.45 883.5,-19.85 885.86,-30.18 891.79,-26.45"/>
</g>
<!-- Node13 -->
<g id="node13" class="node">
<title>Node13</title>
<g id="a_node13"><a xlink:title=" ">
<polygon fill="white" stroke="#bfbfbf" points="1371,-0.5 1371,-19.5 1418,-19.5 1418,-0.5 1371,-0.5"/>
<text text-anchor="middle" x="1394.5" y="-7.5" font-family="Helvetica,sans-Serif" font-size="10.00">vector</text>
</a>
</g>
</g>
<!-- Node11&#45;&gt;Node13 -->
<g id="edge13" class="edge">
<title>Node11&#45;&gt;Node13</title>
<path fill="none" stroke="midnightblue" d="M1502.76,-168.49C1529.98,-157.81 1567.63,-137.72 1553.5,-112 1526.9,-63.59 1466.18,-35.09 1427.95,-21.31"/>
<polygon fill="midnightblue" stroke="midnightblue" points="1428.88,-17.92 1418.28,-17.96 1426.59,-24.54 1428.88,-17.92"/>
</g>
<!-- Node14 -->
<g id="node14" class="node">
<title>Node14</title>
<g id="a_node14"><a xlink:title=" ">
<polygon fill="white" stroke="#bfbfbf" points="1500.5,-0.5 1500.5,-19.5 1564.5,-19.5 1564.5,-0.5 1500.5,-0.5"/>
<text text-anchor="middle" x="1532.5" y="-7.5" font-family="Helvetica,sans-Serif" font-size="10.00">GL/glew.h</text>
</a>
</g>
</g>
<!-- Node11&#45;&gt;Node14 -->
<g id="edge14" class="edge">
<title>Node11&#45;&gt;Node14</title>
<path fill="none" stroke="midnightblue" d="M1529.78,-168.48C1551.09,-162.15 1573.69,-151.14 1586.5,-132 1609.71,-97.3 1572.88,-50.99 1549.46,-26.97"/>
<polygon fill="midnightblue" stroke="midnightblue" points="1551.71,-24.27 1542.14,-19.72 1546.79,-29.25 1551.71,-24.27"/>
</g>
<!-- Node15 -->
<g id="node15" class="node">
<title>Node15</title>
<g id="a_node15"><a xlink:title=" ">
<polygon fill="white" stroke="#bfbfbf" points="1455,-112.5 1455,-131.5 1544,-131.5 1544,-112.5 1455,-112.5"/>
<text text-anchor="middle" x="1499.5" y="-119.5" font-family="Helvetica,sans-Serif" font-size="10.00">maths/colour.h</text>
</a>
</g>
</g>
<!-- Node11&#45;&gt;Node15 -->
<g id="edge15" class="edge">
<title>Node11&#45;&gt;Node15</title>
<path fill="none" stroke="midnightblue" d="M1481.13,-168.08C1484.11,-160.77 1488.43,-150.18 1492.12,-141.1"/>
<polygon fill="midnightblue" stroke="midnightblue" points="1495.4,-142.33 1495.93,-131.75 1488.92,-139.69 1495.4,-142.33"/>
</g>
<!-- Node16 -->
<g id="node16" class="node">
<title>Node16</title>
<g id="a_node16"><a xlink:href="texture_8h.html" target="_top" xlink:title=" ">
<polygon fill="white" stroke="black" points="1639,-112.5 1639,-131.5 1744,-131.5 1744,-112.5 1639,-112.5"/>
<text text-anchor="middle" x="1691.5" y="-119.5" font-family="Helvetica,sans-Serif" font-size="10.00">graphics/texture.h</text>
</a>
</g>
</g>
<!-- Node11&#45;&gt;Node16 -->
<g id="edge16" class="edge">
<title>Node11&#45;&gt;Node16</title>
<path fill="none" stroke="midnightblue" d="M1511.41,-168.44C1548.35,-159.12 1607.55,-144.18 1647.92,-134"/>
<polygon fill="midnightblue" stroke="midnightblue" points="1648.91,-137.36 1657.75,-131.52 1647.2,-130.57 1648.91,-137.36"/>
</g>
<!-- Node16&#45;&gt;Node10 -->
<g id="edge19" class="edge">
<title>Node16&#45;&gt;Node10</title>
<path fill="none" stroke="midnightblue" d="M1638.8,-113.49C1570.23,-103.72 1450.48,-86.66 1376.69,-76.15"/>
<polygon fill="midnightblue" stroke="midnightblue" points="1376.98,-72.65 1366.59,-74.71 1375.99,-79.58 1376.98,-72.65"/>
</g>
<!-- Node16&#45;&gt;Node14 -->
<g id="edge20" class="edge">
<title>Node16&#45;&gt;Node14</title>
<path fill="none" stroke="midnightblue" d="M1705.87,-112.41C1725.18,-99.81 1755.35,-75.66 1739.5,-56 1719.23,-30.85 1629.3,-19.02 1574.86,-14.08"/>
<polygon fill="midnightblue" stroke="midnightblue" points="1575.07,-10.59 1564.8,-13.21 1574.46,-17.56 1575.07,-10.59"/>
</g>
<!-- Node17 -->
<g id="node17" class="node">
<title>Node17</title>
<g id="a_node17"><a xlink:title=" ">
<polygon fill="white" stroke="#bfbfbf" points="1622.5,-56.5 1622.5,-75.5 1664.5,-75.5 1664.5,-56.5 1622.5,-56.5"/>
<text text-anchor="middle" x="1643.5" y="-63.5" font-family="Helvetica,sans-Serif" font-size="10.00">array</text>
</a>
</g>
</g>
<!-- Node16&#45;&gt;Node17 -->
<g id="edge17" class="edge">
<title>Node16&#45;&gt;Node17</title>
<path fill="none" stroke="midnightblue" d="M1683.57,-112.08C1676.65,-104.3 1666.43,-92.8 1658.05,-83.37"/>
<polygon fill="midnightblue" stroke="midnightblue" points="1660.54,-80.9 1651.28,-75.75 1655.31,-85.55 1660.54,-80.9"/>
</g>
<!-- Node18 -->
<g id="node18" class="node">
<title>Node18</title>
<g id="a_node18"><a xlink:title=" ">
<polygon fill="white" stroke="#bfbfbf" points="1683,-56.5 1683,-75.5 1730,-75.5 1730,-56.5 1683,-56.5"/>
<text text-anchor="middle" x="1706.5" y="-63.5" font-family="Helvetica,sans-Serif" font-size="10.00">cmath</text>
</a>
</g>
</g>
<!-- Node16&#45;&gt;Node18 -->
<g id="edge18" class="edge">
<title>Node16&#45;&gt;Node18</title>
<path fill="none" stroke="midnightblue" d="M1693.98,-112.08C1695.99,-104.85 1698.89,-94.41 1701.39,-85.4"/>
<polygon fill="midnightblue" stroke="midnightblue" points="1704.76,-86.32 1704.07,-75.75 1698.02,-84.45 1704.76,-86.32"/>
</g>
<!-- Node19 -->
<g id="node19" class="node">
<title>Node19</title>
<g id="a_node19"><a xlink:title=" ">
<polygon fill="white" stroke="#bfbfbf" points="1936,-56.5 1936,-75.5 2047,-75.5 2047,-56.5 1936,-56.5"/>
<text text-anchor="middle" x="1991.5" y="-63.5" font-family="Helvetica,sans-Serif" font-size="10.00">maths/maths_util.h</text>
</a>
</g>
</g>
<!-- Node16&#45;&gt;Node19 -->
<g id="edge21" class="edge">
<title>Node16&#45;&gt;Node19</title>
<path fill="none" stroke="midnightblue" d="M1739.04,-112.44C1792.03,-102.9 1877.7,-87.48 1934.32,-77.29"/>
<polygon fill="midnightblue" stroke="midnightblue" points="1934.96,-80.73 1944.19,-75.52 1933.72,-73.84 1934.96,-80.73"/>
</g>
<!-- Node20 -->
<g id="node20" class="node">
<title>Node20</title>
<g id="a_node20"><a xlink:href="pixel__format_8h.html" target="_top" xlink:title=" ">
<polygon fill="white" stroke="black" points="1787,-56.5 1787,-75.5 1918,-75.5 1918,-56.5 1787,-56.5"/>
<text text-anchor="middle" x="1852.5" y="-63.5" font-family="Helvetica,sans-Serif" font-size="10.00">graphics/pixel_format.h</text>
</a>
</g>
</g>
<!-- Node16&#45;&gt;Node20 -->
<g id="edge22" class="edge">
<title>Node16&#45;&gt;Node20</title>
<path fill="none" stroke="midnightblue" d="M1717.01,-112.44C1744.1,-103.36 1787.09,-88.94 1817.37,-78.78"/>
<polygon fill="midnightblue" stroke="midnightblue" points="1818.74,-82.01 1827.11,-75.52 1816.51,-75.38 1818.74,-82.01"/>
</g>
<!-- Node20&#45;&gt;Node14 -->
<g id="edge24" class="edge">
<title>Node20&#45;&gt;Node14</title>
<path fill="none" stroke="midnightblue" d="M1801.8,-56.44C1739.12,-45.87 1633.58,-28.06 1574.97,-18.17"/>
<polygon fill="midnightblue" stroke="midnightblue" points="1575.38,-14.69 1564.94,-16.47 1574.21,-21.59 1575.38,-14.69"/>
</g>
<!-- Node21 -->
<g id="node21" class="node">
<title>Node21</title>
<g id="a_node21"><a xlink:title=" ">
<polygon fill="white" stroke="#bfbfbf" points="1820,-0.5 1820,-19.5 1885,-19.5 1885,-0.5 1820,-0.5"/>
<text text-anchor="middle" x="1852.5" y="-7.5" font-family="Helvetica,sans-Serif" font-size="10.00">stdexcept</text>
</a>
</g>
</g>
<!-- Node20&#45;&gt;Node21 -->
<g id="edge23" class="edge">
<title>Node20&#45;&gt;Node21</title>
<path fill="none" stroke="midnightblue" d="M1852.5,-56.08C1852.5,-49.01 1852.5,-38.86 1852.5,-29.99"/>
<polygon fill="midnightblue" stroke="midnightblue" points="1856,-29.75 1852.5,-19.75 1849,-29.75 1856,-29.75"/>
</g>
<!-- Node22&#45;&gt;Node12 -->
<g id="edge26" class="edge">
<title>Node22&#45;&gt;Node12</title>
<path fill="none" stroke="midnightblue" d="M984.72,-229.69C883.09,-223.2 675.76,-207.72 649.5,-188 606.33,-155.59 613.15,-128.92 602.5,-76 600.75,-67.29 596.74,-62.77 602.5,-56 632.41,-20.82 770.28,-13.07 839.14,-11.42"/>
<polygon fill="midnightblue" stroke="midnightblue" points="839.25,-14.92 849.17,-11.21 839.1,-7.92 839.25,-14.92"/>
</g>
<!-- Node22&#45;&gt;Node16 -->
<g id="edge28" class="edge">
<title>Node22&#45;&gt;Node16</title>
<path fill="none" stroke="midnightblue" d="M1096.05,-229.53C1219.3,-221.61 1508.16,-201.86 1550.5,-188 1566.8,-182.66 1568.21,-175.76 1583.5,-168 1608.16,-155.48 1637.14,-143.55 1658.86,-135.12"/>
<polygon fill="midnightblue" stroke="midnightblue" points="1660.21,-138.35 1668.3,-131.51 1657.7,-131.82 1660.21,-138.35"/>
</g>
<!-- Node23 -->
<g id="node23" class="node">
<title>Node23</title>
<g id="a_node23"><a xlink:title=" ">
<polygon fill="white" stroke="#bfbfbf" points="968.5,-112.5 968.5,-131.5 1064.5,-131.5 1064.5,-112.5 968.5,-112.5"/>
<text text-anchor="middle" x="1016.5" y="-119.5" font-family="Helvetica,sans-Serif" font-size="10.00">maths/vector2.h</text>
</a>
</g>
</g>
<!-- Node22&#45;&gt;Node23 -->
<g id="edge27" class="edge">
<title>Node22&#45;&gt;Node23</title>
<path fill="none" stroke="midnightblue" d="M1058.01,-224.39C1079.29,-212.7 1110.82,-190.64 1097.5,-168 1088.58,-152.84 1072.51,-142.43 1057.02,-135.46"/>
<polygon fill="midnightblue" stroke="midnightblue" points="1058.1,-132.12 1047.52,-131.56 1055.44,-138.6 1058.1,-132.12"/>
</g>
<!-- Node24 -->
<g id="node24" class="node">
<title>Node24</title>
<g id="a_node24"><a xlink:href="shader__program_8h.html" target="_top" xlink:title=" ">
<polygon fill="white" stroke="black" points="1144,-168.5 1144,-187.5 1293,-187.5 1293,-168.5 1144,-168.5"/>
<text text-anchor="middle" x="1218.5" y="-175.5" font-family="Helvetica,sans-Serif" font-size="10.00">graphics/shader_program.h</text>
</a>
</g>
</g>
<!-- Node22&#45;&gt;Node24 -->
<g id="edge29" class="edge">
<title>Node22&#45;&gt;Node24</title>
<path fill="none" stroke="midnightblue" d="M1068.7,-224.44C1098.91,-215.28 1147.01,-200.69 1180.53,-190.52"/>
<polygon fill="midnightblue" stroke="midnightblue" points="1181.87,-193.77 1190.43,-187.52 1179.84,-187.07 1181.87,-193.77"/>
</g>
<!-- Node27 -->
<g id="node27" class="node">
<title>Node27</title>
<g id="a_node27"><a xlink:href="render__path_8h.html" target="_top" xlink:title=" ">
<polygon fill="white" stroke="black" points="844.5,-168.5 844.5,-187.5 972.5,-187.5 972.5,-168.5 844.5,-168.5"/>
<text text-anchor="middle" x="908.5" y="-175.5" font-family="Helvetica,sans-Serif" font-size="10.00">graphics/render_path.h</text>
</a>
</g>
</g>
<!-- Node22&#45;&gt;Node27 -->
<g id="edge38" class="edge">
<title>Node22&#45;&gt;Node27</title>
<path fill="none" stroke="midnightblue" d="M1019.58,-224.44C997.76,-215.52 963.35,-201.44 938.61,-191.32"/>
<polygon fill="midnightblue" stroke="midnightblue" points="939.9,-188.06 929.32,-187.52 937.25,-194.54 939.9,-188.06"/>
</g>
<!-- Node24&#45;&gt;Node8 -->
<g id="edge30" class="edge">
<title>Node24&#45;&gt;Node8</title>
<path fill="none" stroke="midnightblue" d="M1158.46,-168.49C1107.99,-160.91 1033.8,-148.73 960.62,-132.06"/>
<polygon fill="midnightblue" stroke="midnightblue" points="961.3,-128.62 950.77,-129.79 959.73,-135.45 961.3,-128.62"/>
</g>
<!-- Node24&#45;&gt;Node13 -->
<g id="edge31" class="edge">
<title>Node24&#45;&gt;Node13</title>
<path fill="none" stroke="midnightblue" d="M1272.6,-168.46C1301.72,-161.94 1337.17,-150.77 1364.5,-132 1390.59,-114.08 1398.15,-105.91 1408.5,-76 1413.86,-60.51 1408.96,-42.2 1403.54,-28.96"/>
<polygon fill="midnightblue" stroke="midnightblue" points="1406.6,-27.24 1399.26,-19.59 1400.23,-30.14 1406.6,-27.24"/>
</g>
<!-- Node24&#45;&gt;Node14 -->
<g id="edge32" class="edge">
<title>Node24&#45;&gt;Node14</title>
<path fill="none" stroke="midnightblue" d="M1277.03,-168.44C1311.46,-161.79 1355.06,-150.49 1390.5,-132 1443.88,-104.16 1494.61,-52.95 1518.39,-26.99"/>
<polygon fill="midnightblue" stroke="midnightblue" points="1521.04,-29.28 1525.14,-19.51 1515.84,-24.6 1521.04,-29.28"/>
</g>
<!-- Node24&#45;&gt;Node15 -->
<g id="edge33" class="edge">
<title>Node24&#45;&gt;Node15</title>
<path fill="none" stroke="midnightblue" d="M1263.03,-168.44C1312.46,-158.94 1392.25,-143.61 1445.28,-133.42"/>
<polygon fill="midnightblue" stroke="midnightblue" points="1446.02,-136.84 1455.18,-131.52 1444.7,-129.97 1446.02,-136.84"/>
</g>
<!-- Node24&#45;&gt;Node16 -->
<g id="edge37" class="edge">
<title>Node24&#45;&gt;Node16</title>
<path fill="none" stroke="midnightblue" d="M1293.19,-168.47C1385.84,-157.9 1542.15,-140.05 1628.85,-130.15"/>
<polygon fill="midnightblue" stroke="midnightblue" points="1629.27,-133.63 1638.81,-129.02 1628.48,-126.67 1629.27,-133.63"/>
</g>
<!-- Node24&#45;&gt;Node23 -->
<g id="edge34" class="edge">
<title>Node24&#45;&gt;Node23</title>
<path fill="none" stroke="midnightblue" d="M1186.49,-168.44C1151.77,-159.16 1096.21,-144.31 1058.12,-134.13"/>
<polygon fill="midnightblue" stroke="midnightblue" points="1058.92,-130.72 1048.36,-131.52 1057.11,-137.48 1058.92,-130.72"/>
</g>
<!-- Node25 -->
<g id="node25" class="node">
<title>Node25</title>
<g id="a_node25"><a xlink:title=" ">
<polygon fill="white" stroke="#bfbfbf" points="611.5,-56.5 611.5,-75.5 707.5,-75.5 707.5,-56.5 611.5,-56.5"/>
<text text-anchor="middle" x="659.5" y="-63.5" font-family="Helvetica,sans-Serif" font-size="10.00">maths/vector3.h</text>
</a>
</g>
</g>
<!-- Node24&#45;&gt;Node25 -->
<g id="edge35" class="edge">
<title>Node24&#45;&gt;Node25</title>
<path fill="none" stroke="midnightblue" d="M1193.97,-168.45C1170.93,-160.13 1135.74,-146.61 1106.5,-132 1091.16,-124.33 1089.74,-117.5 1073.5,-112 1069.32,-110.59 830.92,-85.18 717.83,-73.18"/>
<polygon fill="midnightblue" stroke="midnightblue" points="717.93,-69.67 707.62,-72.09 717.19,-76.63 717.93,-69.67"/>
</g>
<!-- Node26 -->
<g id="node26" class="node">
<title>Node26</title>
<g id="a_node26"><a xlink:title=" ">
<polygon fill="white" stroke="#bfbfbf" points="753.5,-56.5 753.5,-75.5 845.5,-75.5 845.5,-56.5 753.5,-56.5"/>
<text text-anchor="middle" x="799.5" y="-63.5" font-family="Helvetica,sans-Serif" font-size="10.00">maths/matrix.h</text>
</a>
</g>
</g>
<!-- Node24&#45;&gt;Node26 -->
<g id="edge36" class="edge">
<title>Node24&#45;&gt;Node26</title>
<path fill="none" stroke="midnightblue" d="M1207.13,-168.4C1187.66,-154.15 1146.19,-125.85 1106.5,-112 1061.45,-96.28 931.72,-80.77 856.09,-72.7"/>
<polygon fill="midnightblue" stroke="midnightblue" points="856.1,-69.18 845.79,-71.61 855.37,-76.15 856.1,-69.18"/>
</g>
<!-- Node28&#45;&gt;Node8 -->
<g id="edge40" class="edge">
<title>Node28&#45;&gt;Node8</title>
<path fill="none" stroke="midnightblue" d="M816.85,-224.39C817.82,-210.87 821.53,-184.51 835.5,-168 851.26,-149.38 876.53,-137.84 896.75,-131.12"/>
<polygon fill="midnightblue" stroke="midnightblue" points="897.97,-134.4 906.5,-128.11 895.91,-127.71 897.97,-134.4"/>
</g>
<!-- Node29&#45;&gt;Node6 -->
<g id="edge44" class="edge">
<title>Node29&#45;&gt;Node6</title>
<path fill="none" stroke="midnightblue" d="M436.31,-285.98C417.6,-276.12 386.58,-259.79 364.7,-248.27"/>
<polygon fill="midnightblue" stroke="midnightblue" points="366.14,-245.07 355.66,-243.51 362.88,-251.27 366.14,-245.07"/>
</g>
<!-- Node29&#45;&gt;Node25 -->
<g id="edge42" class="edge">
<title>Node29&#45;&gt;Node25</title>
<path fill="none" stroke="midnightblue" d="M448.32,-285.71C442.35,-271.8 433.19,-244.23 443.5,-224 482.07,-148.29 576.13,-100.51 626.45,-79.48"/>
<polygon fill="midnightblue" stroke="midnightblue" points="627.96,-82.64 635.9,-75.63 625.32,-76.16 627.96,-82.64"/>
</g>
<!-- Node30 -->
<g id="node30" class="node">
<title>Node30</title>
<g id="a_node30"><a xlink:title=" ">
<polygon fill="white" stroke="#bfbfbf" points="452.5,-224.5 452.5,-243.5 564.5,-243.5 564.5,-224.5 452.5,-224.5"/>
<text text-anchor="middle" x="508.5" y="-231.5" font-family="Helvetica,sans-Serif" font-size="10.00">maths/quaternion.h</text>
</a>
</g>
</g>
<!-- Node29&#45;&gt;Node30 -->
<g id="edge43" class="edge">
<title>Node29&#45;&gt;Node30</title>
<path fill="none" stroke="midnightblue" d="M460.52,-285.98C469.09,-276.87 482.86,-262.24 493.46,-250.98"/>
<polygon fill="midnightblue" stroke="midnightblue" points="496.19,-253.19 500.49,-243.51 491.09,-248.39 496.19,-253.19"/>
</g>
<!-- Node31&#45;&gt;Node25 -->
<g id="edge46" class="edge">
<title>Node31&#45;&gt;Node25</title>
<path fill="none" stroke="midnightblue" d="M591.48,-280.4C589.77,-248.61 588.89,-169.64 616.5,-112 622,-100.51 631.56,-90.06 640.27,-82.13"/>
<polygon fill="midnightblue" stroke="midnightblue" points="642.57,-84.76 647.88,-75.59 638.02,-79.45 642.57,-84.76"/>
</g>
<!-- Node31&#45;&gt;Node26 -->
<g id="edge48" class="edge">
<title>Node31&#45;&gt;Node26</title>
<path fill="none" stroke="midnightblue" d="M596.08,-280.42C606.55,-239.76 637.08,-124.28 649.5,-112 674.36,-87.42 712.09,-76.18 743.49,-71.08"/>
<polygon fill="midnightblue" stroke="midnightblue" points="744.04,-74.53 753.44,-69.63 743.04,-67.61 744.04,-74.53"/>
</g>
<!-- Node31&#45;&gt;Node30 -->
<g id="edge47" class="edge">
<title>Node31&#45;&gt;Node30</title>
<path fill="none" stroke="midnightblue" d="M572.59,-280.4C559.51,-271.13 542.42,-259.03 529.18,-249.65"/>
<polygon fill="midnightblue" stroke="midnightblue" points="530.91,-246.58 520.72,-243.66 526.86,-252.29 530.91,-246.58"/>
</g>
<!-- Node32&#45;&gt;Node12 -->
<g id="edge50" class="edge">
<title>Node32&#45;&gt;Node12</title>
<path fill="none" stroke="midnightblue" d="M1149.25,-295.11C1057.7,-294.48 878.92,-287.14 734.5,-244 682.31,-228.41 661.4,-228.96 625.5,-188 585.91,-142.83 557.52,-101.7 596.5,-56 627.18,-20.03 768.65,-12.68 838.82,-11.27"/>
<polygon fill="midnightblue" stroke="midnightblue" points="839.09,-14.77 849.03,-11.1 838.97,-7.77 839.09,-14.77"/>
</g>
<!-- Node32&#45;&gt;Node16 -->
<g id="edge52" class="edge">
<title>Node32&#45;&gt;Node16</title>
<path fill="none" stroke="midnightblue" d="M1269.73,-287.64C1352.25,-276.33 1503.21,-248.67 1617.5,-188 1641.2,-175.42 1663.65,-153.83 1677.48,-139.01"/>
<polygon fill="midnightblue" stroke="midnightblue" points="1680.1,-141.33 1684.23,-131.58 1674.92,-136.63 1680.1,-141.33"/>
</g>
<!-- Node32&#45;&gt;Node24 -->
<g id="edge51" class="edge">
<title>Node32&#45;&gt;Node24</title>
<path fill="none" stroke="midnightblue" d="M1210.18,-285.82C1211.62,-267.26 1215.05,-223.34 1217.02,-197.97"/>
<polygon fill="midnightblue" stroke="midnightblue" points="1220.53,-198.02 1217.82,-187.78 1213.55,-197.48 1220.53,-198.02"/>
</g>
<!-- Node33 -->
<g id="node33" class="node">
<title>Node33</title>
<g id="a_node33"><a xlink:href="skybox_8h.html" target="_top" xlink:title=" ">
<polygon fill="white" stroke="black" points="1237.5,-224.5 1237.5,-243.5 1341.5,-243.5 1341.5,-224.5 1237.5,-224.5"/>
<text text-anchor="middle" x="1289.5" y="-231.5" font-family="Helvetica,sans-Serif" font-size="10.00">graphics/skybox.h</text>
</a>
</g>
</g>
<!-- Node32&#45;&gt;Node33 -->
<g id="edge53" class="edge">
<title>Node32&#45;&gt;Node33</title>
<path fill="none" stroke="midnightblue" d="M1220.96,-285.98C1233.67,-276.52 1254.41,-261.1 1269.75,-249.69"/>
<polygon fill="midnightblue" stroke="midnightblue" points="1272.12,-252.29 1278.06,-243.51 1267.95,-246.67 1272.12,-252.29"/>
</g>
<!-- Node33&#45;&gt;Node15 -->
<g id="edge54" class="edge">
<title>Node33&#45;&gt;Node15</title>
<path fill="none" stroke="midnightblue" d="M1303.99,-224.49C1325.78,-211.77 1368.41,-187.24 1405.5,-168 1427.38,-156.65 1452.6,-144.63 1471.4,-135.87"/>
<polygon fill="midnightblue" stroke="midnightblue" points="1473,-138.99 1480.6,-131.61 1470.05,-132.64 1473,-138.99"/>
</g>
<!-- Node33&#45;&gt;Node16 -->
<g id="edge71" class="edge">
<title>Node33&#45;&gt;Node16</title>
<path fill="none" stroke="midnightblue" d="M1341.72,-231.11C1401.7,-227.56 1502.28,-217.36 1583.5,-188 1617.03,-175.88 1651.61,-152.87 1672.34,-137.73"/>
<polygon fill="midnightblue" stroke="midnightblue" points="1674.65,-140.37 1680.58,-131.59 1670.47,-134.76 1674.65,-140.37"/>
</g>
<!-- Node33&#45;&gt;Node24 -->
<g id="edge72" class="edge">
<title>Node33&#45;&gt;Node24</title>
<path fill="none" stroke="midnightblue" d="M1278.09,-224.32C1267.39,-216.18 1251.16,-203.84 1238.34,-194.09"/>
<polygon fill="midnightblue" stroke="midnightblue" points="1240.19,-191.1 1230.11,-187.83 1235.96,-196.67 1240.19,-191.1"/>
</g>
<!-- Node34 -->
<g id="node34" class="node">
<title>Node34</title>
<g id="a_node34"><a xlink:href="mesh_8h.html" target="_top" xlink:title=" ">
<polygon fill="white" stroke="black" points="991,-168.5 991,-187.5 1088,-187.5 1088,-168.5 991,-168.5"/>
<text text-anchor="middle" x="1039.5" y="-175.5" font-family="Helvetica,sans-Serif" font-size="10.00">graphics/mesh.h</text>
</a>
</g>
</g>
<!-- Node33&#45;&gt;Node34 -->
<g id="edge55" class="edge">
<title>Node33&#45;&gt;Node34</title>
<path fill="none" stroke="midnightblue" d="M1249.89,-224.44C1206.27,-215.02 1136.1,-199.87 1088.92,-189.68"/>
<polygon fill="midnightblue" stroke="midnightblue" points="1089.44,-186.21 1078.93,-187.52 1087.96,-193.05 1089.44,-186.21"/>
</g>
<!-- Node34&#45;&gt;Node8 -->
<g id="edge58" class="edge">
<title>Node34&#45;&gt;Node8</title>
<path fill="none" stroke="midnightblue" d="M1021.67,-168.32C1003.78,-159.62 976.02,-146.12 955.45,-136.11"/>
<polygon fill="midnightblue" stroke="midnightblue" points="956.81,-132.88 946.29,-131.65 953.75,-139.18 956.81,-132.88"/>
</g>
<!-- Node34&#45;&gt;Node12 -->
<g id="edge56" class="edge">
<title>Node34&#45;&gt;Node12</title>
<path fill="none" stroke="midnightblue" d="M996.02,-168.45C959.23,-160.32 910.48,-147.1 897.5,-132 872.75,-103.2 873.29,-55.7 875.87,-29.61"/>
<polygon fill="midnightblue" stroke="midnightblue" points="879.36,-29.9 877.08,-19.56 872.41,-29.07 879.36,-29.9"/>
</g>
<!-- Node34&#45;&gt;Node13 -->
<g id="edge57" class="edge">
<title>Node34&#45;&gt;Node13</title>
<path fill="none" stroke="midnightblue" d="M1088.12,-172.34C1155.82,-165.3 1274.57,-150.74 1313.5,-132 1346.96,-115.89 1355.77,-107.45 1375.5,-76 1384.38,-61.84 1389.26,-43.36 1391.84,-29.72"/>
<polygon fill="midnightblue" stroke="midnightblue" points="1395.33,-30.05 1393.51,-19.61 1388.43,-28.91 1395.33,-30.05"/>
</g>
<!-- Node35 -->
<g id="node35" class="node">
<title>Node35</title>
<g id="a_node35"><a xlink:href="vertex_8h.html" target="_top" xlink:title=" ">
<polygon fill="white" stroke="black" points="749,-112.5 749,-131.5 850,-131.5 850,-112.5 749,-112.5"/>
<text text-anchor="middle" x="799.5" y="-119.5" font-family="Helvetica,sans-Serif" font-size="10.00">graphics/vertex.h</text>
</a>
</g>
</g>
<!-- Node34&#45;&gt;Node35 -->
<g id="edge59" class="edge">
<title>Node34&#45;&gt;Node35</title>
<path fill="none" stroke="midnightblue" d="M1001.47,-168.44C959.69,-159.04 892.52,-143.93 847.23,-133.74"/>
<polygon fill="midnightblue" stroke="midnightblue" points="847.88,-130.3 837.35,-131.52 846.34,-137.13 847.88,-130.3"/>
</g>
<!-- Node36 -->
<g id="node36" class="node">
<title>Node36</title>
<g id="a_node36"><a xlink:href="vao_8h.html" target="_top" xlink:title=" ">
<polygon fill="white" stroke="black" points="1196.5,-112.5 1196.5,-131.5 1284.5,-131.5 1284.5,-112.5 1196.5,-112.5"/>
<text text-anchor="middle" x="1240.5" y="-119.5" font-family="Helvetica,sans-Serif" font-size="10.00">graphics/vao.h</text>
</a>
</g>
</g>
<!-- Node34&#45;&gt;Node36 -->
<g id="edge62" class="edge">
<title>Node34&#45;&gt;Node36</title>
<path fill="none" stroke="midnightblue" d="M1071.35,-168.44C1105.9,-159.16 1161.18,-144.31 1199.08,-134.13"/>
<polygon fill="midnightblue" stroke="midnightblue" points="1200.05,-137.49 1208.8,-131.52 1198.23,-130.73 1200.05,-137.49"/>
</g>
<!-- Node35&#45;&gt;Node25 -->
<g id="edge61" class="edge">
<title>Node35&#45;&gt;Node25</title>
<path fill="none" stroke="midnightblue" d="M777.32,-112.44C754.07,-103.48 717.35,-89.31 691.08,-79.18"/>
<polygon fill="midnightblue" stroke="midnightblue" points="692.17,-75.85 681.58,-75.52 689.65,-82.38 692.17,-75.85"/>
</g>
<!-- Node35&#45;&gt;Node26 -->
<g id="edge60" class="edge">
<title>Node35&#45;&gt;Node26</title>
<path fill="none" stroke="midnightblue" d="M799.5,-112.08C799.5,-105.01 799.5,-94.86 799.5,-85.99"/>
<polygon fill="midnightblue" stroke="midnightblue" points="803,-85.75 799.5,-75.75 796,-85.75 803,-85.75"/>
</g>
<!-- Node36&#45;&gt;Node13 -->
<g id="edge64" class="edge">
<title>Node36&#45;&gt;Node13</title>
<path fill="none" stroke="midnightblue" d="M1206.25,-112.5C1170.25,-101.95 1121.65,-82.12 1143.5,-56 1170.82,-23.34 1298.82,-14.35 1360.75,-11.91"/>
<polygon fill="midnightblue" stroke="midnightblue" points="1360.94,-15.4 1370.81,-11.54 1360.69,-8.41 1360.94,-15.4"/>
</g>
<!-- Node37 -->
<g id="node37" class="node">
<title>Node37</title>
<g id="a_node37"><a xlink:title=" ">
<polygon fill="white" stroke="#bfbfbf" points="1051,-56.5 1051,-75.5 1096,-75.5 1096,-56.5 1051,-56.5"/>
<text text-anchor="middle" x="1073.5" y="-63.5" font-family="Helvetica,sans-Serif" font-size="10.00">utility</text>
</a>
</g>
</g>
<!-- Node36&#45;&gt;Node37 -->
<g id="edge63" class="edge">
<title>Node36&#45;&gt;Node37</title>
<path fill="none" stroke="midnightblue" d="M1214.04,-112.44C1184.66,-102.94 1137.24,-87.61 1105.72,-77.42"/>
<polygon fill="midnightblue" stroke="midnightblue" points="1106.68,-74.05 1096.09,-74.3 1104.53,-80.71 1106.68,-74.05"/>
</g>
<!-- Node38 -->
<g id="node38" class="node">
<title>Node38</title>
<g id="a_node38"><a xlink:href="vbo_8h.html" target="_top" xlink:title=" ">
<polygon fill="white" stroke="black" points="944.5,-56.5 944.5,-75.5 1032.5,-75.5 1032.5,-56.5 944.5,-56.5"/>
<text text-anchor="middle" x="988.5" y="-63.5" font-family="Helvetica,sans-Serif" font-size="10.00">graphics/vbo.h</text>
</a>
</g>
</g>
<!-- Node36&#45;&gt;Node38 -->
<g id="edge65" class="edge">
<title>Node36&#45;&gt;Node38</title>
<path fill="none" stroke="midnightblue" d="M1200.57,-112.44C1156.61,-103.02 1085.87,-87.87 1038.32,-77.68"/>
<polygon fill="midnightblue" stroke="midnightblue" points="1038.75,-74.19 1028.24,-75.52 1037.29,-81.03 1038.75,-74.19"/>
</g>
<!-- Node39 -->
<g id="node39" class="node">
<title>Node39</title>
<g id="a_node39"><a xlink:href="ebo_8h.html" target="_top" xlink:title=" ">
<polygon fill="white" stroke="black" points="1152.5,-56.5 1152.5,-75.5 1240.5,-75.5 1240.5,-56.5 1152.5,-56.5"/>
<text text-anchor="middle" x="1196.5" y="-63.5" font-family="Helvetica,sans-Serif" font-size="10.00">graphics/ebo.h</text>
</a>
</g>
</g>
<!-- Node36&#45;&gt;Node39 -->
<g id="edge69" class="edge">
<title>Node36&#45;&gt;Node39</title>
<path fill="none" stroke="midnightblue" d="M1233.23,-112.08C1226.96,-104.38 1217.71,-93.03 1210.07,-83.65"/>
<polygon fill="midnightblue" stroke="midnightblue" points="1212.66,-81.29 1203.63,-75.75 1207.23,-85.71 1212.66,-81.29"/>
</g>
<!-- Node38&#45;&gt;Node12 -->
<g id="edge67" class="edge">
<title>Node38&#45;&gt;Node12</title>
<path fill="none" stroke="midnightblue" d="M970.83,-56.32C953.11,-47.62 925.6,-34.12 905.21,-24.11"/>
<polygon fill="midnightblue" stroke="midnightblue" points="906.65,-20.92 896.13,-19.65 903.56,-27.2 906.65,-20.92"/>
</g>
<!-- Node38&#45;&gt;Node13 -->
<g id="edge66" class="edge">
<title>Node38&#45;&gt;Node13</title>
<path fill="none" stroke="midnightblue" d="M1032.68,-57.5C1036,-56.97 1039.3,-56.47 1042.5,-56 1159.18,-38.83 1298.18,-22.17 1360.88,-14.87"/>
<polygon fill="midnightblue" stroke="midnightblue" points="1361.45,-18.32 1370.98,-13.69 1360.64,-11.37 1361.45,-18.32"/>
</g>
<!-- Node38&#45;&gt;Node14 -->
<g id="edge68" class="edge">
<title>Node38&#45;&gt;Node14</title>
<path fill="none" stroke="midnightblue" d="M1032.67,-57.37C1035.99,-56.88 1039.3,-56.41 1042.5,-56 1086.31,-50.35 1379.17,-24.45 1490.06,-14.72"/>
<polygon fill="midnightblue" stroke="midnightblue" points="1490.55,-18.19 1500.21,-13.83 1489.94,-11.21 1490.55,-18.19"/>
</g>
<!-- Node39&#45;&gt;Node14 -->
<g id="edge70" class="edge">
<title>Node39&#45;&gt;Node14</title>
<path fill="none" stroke="midnightblue" d="M1240.74,-57.45C1243.7,-56.96 1246.65,-56.47 1249.5,-56 1334.82,-41.97 1434.73,-26.25 1490.09,-17.6"/>
<polygon fill="midnightblue" stroke="midnightblue" points="1490.89,-21.02 1500.23,-16.02 1489.81,-14.1 1490.89,-21.02"/>
</g>
<!-- Node40&#45;&gt;Node15 -->
<g id="edge75" class="edge">
<title>Node40&#45;&gt;Node15</title>
<path fill="none" stroke="midnightblue" d="M1690.53,-168.44C1651.18,-159.08 1588.01,-144.06 1545.19,-133.87"/>
<polygon fill="midnightblue" stroke="midnightblue" points="1545.84,-130.43 1535.3,-131.52 1544.22,-137.24 1545.84,-130.43"/>
</g>
<!-- Node40&#45;&gt;Node19 -->
<g id="edge74" class="edge">
<title>Node40&#45;&gt;Node19</title>
<path fill="none" stroke="midnightblue" d="M1747.29,-168.37C1793.93,-149.01 1907.03,-102.06 1961.37,-79.51"/>
<polygon fill="midnightblue" stroke="midnightblue" points="1962.91,-82.66 1970.8,-75.59 1960.22,-76.19 1962.91,-82.66"/>
</g>
</g>
</svg>
