<?xml version="1.0" encoding="UTF-8" standalone="no"?>
<!DOCTYPE svg PUBLIC "-//W3C//DTD SVG 1.1//EN"
 "http://www.w3.org/Graphics/SVG/1.1/DTD/svg11.dtd">
<!-- Generated by graphviz version 2.43.0 (0)
 -->
<!-- Title: src/scene/scene_manager.h Pages: 1 -->
<svg width="716pt" height="151pt"
 viewBox="0.00 0.00 715.50 151.00" xmlns="http://www.w3.org/2000/svg" xmlns:xlink="http://www.w3.org/1999/xlink">
<g id="graph0" class="graph" transform="scale(1 1) rotate(0) translate(4 147)">
<title>src/scene/scene_manager.h</title>
<polygon fill="white" stroke="transparent" points="-4,4 -4,-147 711.5,-147 711.5,4 -4,4"/>
<!-- Node1 -->
<g id="node1" class="node">
<title>Node1</title>
<g id="a_node1"><a xlink:title=" ">
<polygon fill="#bfbfbf" stroke="black" points="81.5,-123.5 81.5,-142.5 232.5,-142.5 232.5,-123.5 81.5,-123.5"/>
<text text-anchor="middle" x="157" y="-130.5" font-family="Helvetica,sans-Serif" font-size="10.00">src/scene/scene_manager.h</text>
</a>
</g>
</g>
<!-- Node2 -->
<g id="node2" class="node">
<title>Node2</title>
<g id="a_node2"><a xlink:title=" ">
<polygon fill="white" stroke="#bfbfbf" points="0,-67.5 0,-86.5 58,-86.5 58,-67.5 0,-67.5"/>
<text text-anchor="middle" x="29" y="-74.5" font-family="Helvetica,sans-Serif" font-size="10.00">memory</text>
</a>
</g>
</g>
<!-- Node1&#45;&gt;Node2 -->
<g id="edge1" class="edge">
<title>Node1&#45;&gt;Node2</title>
<path fill="none" stroke="midnightblue" d="M136.72,-123.44C115.65,-114.56 82.48,-100.56 58.51,-90.45"/>
<polygon fill="midnightblue" stroke="midnightblue" points="59.76,-87.18 49.19,-86.52 57.04,-93.63 59.76,-87.18"/>
</g>
<!-- Node3 -->
<g id="node3" class="node">
<title>Node3</title>
<g id="a_node3"><a xlink:title=" ">
<polygon fill="white" stroke="#bfbfbf" points="50,-6 50,-25 98,-25 98,-6 50,-6"/>
<text text-anchor="middle" x="74" y="-13" font-family="Helvetica,sans-Serif" font-size="10.00">flecs.h</text>
</a>
</g>
</g>
<!-- Node1&#45;&gt;Node3 -->
<g id="edge2" class="edge">
<title>Node1&#45;&gt;Node3</title>
<path fill="none" stroke="midnightblue" d="M144.01,-123.31C132.52,-115.07 115.92,-101.79 105,-87 93.24,-71.07 84.72,-49.99 79.62,-35.04"/>
<polygon fill="midnightblue" stroke="midnightblue" points="82.91,-33.84 76.51,-25.4 76.25,-35.99 82.91,-33.84"/>
</g>
<!-- Node4 -->
<g id="node4" class="node">
<title>Node4</title>
<g id="a_node4"><a xlink:href="log_8h.html" target="_top" xlink:title=" ">
<polygon fill="white" stroke="black" points="243.5,-67.5 243.5,-86.5 302.5,-86.5 302.5,-67.5 243.5,-67.5"/>
<text text-anchor="middle" x="273" y="-74.5" font-family="Helvetica,sans-Serif" font-size="10.00">log/log.h</text>
</a>
</g>
</g>
<!-- Node1&#45;&gt;Node4 -->
<g id="edge3" class="edge">
<title>Node1&#45;&gt;Node4</title>
<path fill="none" stroke="midnightblue" d="M175.38,-123.44C194.22,-114.68 223.73,-100.94 245.38,-90.86"/>
<polygon fill="midnightblue" stroke="midnightblue" points="247.12,-93.91 254.71,-86.52 244.16,-87.56 247.12,-93.91"/>
</g>
<!-- Node11 -->
<g id="node11" class="node">
<title>Node11</title>
<g id="a_node11"><a xlink:title=" ">
<polygon fill="white" stroke="#bfbfbf" points="321,-67.5 321,-86.5 437,-86.5 437,-67.5 321,-67.5"/>
<text text-anchor="middle" x="379" y="-74.5" font-family="Helvetica,sans-Serif" font-size="10.00">common/singleton.h</text>
</a>
</g>
</g>
<!-- Node1&#45;&gt;Node11 -->
<g id="edge10" class="edge">
<title>Node1&#45;&gt;Node11</title>
<path fill="none" stroke="midnightblue" d="M192.18,-123.44C230.58,-114.1 292.18,-99.12 334.06,-88.93"/>
<polygon fill="midnightblue" stroke="midnightblue" points="335.1,-92.28 343.99,-86.52 333.44,-85.48 335.1,-92.28"/>
</g>
<!-- Node12 -->
<g id="node12" class="node">
<title>Node12</title>
<g id="a_node12"><a xlink:href="scene_8h.html" target="_top" xlink:title=" ">
<polygon fill="white" stroke="black" points="114,-67.5 114,-86.5 200,-86.5 200,-67.5 114,-67.5"/>
<text text-anchor="middle" x="157" y="-74.5" font-family="Helvetica,sans-Serif" font-size="10.00">scene/scene.h</text>
</a>
</g>
</g>
<!-- Node1&#45;&gt;Node12 -->
<g id="edge11" class="edge">
<title>Node1&#45;&gt;Node12</title>
<path fill="none" stroke="midnightblue" d="M157,-123.08C157,-116.01 157,-105.86 157,-96.99"/>
<polygon fill="midnightblue" stroke="midnightblue" points="160.5,-96.75 157,-86.75 153.5,-96.75 160.5,-96.75"/>
</g>
<!-- Node5 -->
<g id="node5" class="node">
<title>Node5</title>
<g id="a_node5"><a xlink:title=" ">
<polygon fill="white" stroke="#bfbfbf" points="178.5,-6 178.5,-25 223.5,-25 223.5,-6 178.5,-6"/>
<text text-anchor="middle" x="201" y="-13" font-family="Helvetica,sans-Serif" font-size="10.00">utility</text>
</a>
</g>
</g>
<!-- Node4&#45;&gt;Node5 -->
<g id="edge4" class="edge">
<title>Node4&#45;&gt;Node5</title>
<path fill="none" stroke="midnightblue" d="M262.68,-67.48C251.35,-58.11 232.93,-42.88 219.16,-31.51"/>
<polygon fill="midnightblue" stroke="midnightblue" points="221.23,-28.68 211.3,-25.01 216.78,-34.08 221.23,-28.68"/>
</g>
<!-- Node6 -->
<g id="node6" class="node">
<title>Node6</title>
<g id="a_node6"><a xlink:title=" ">
<polygon fill="white" stroke="#bfbfbf" points="116,-6 116,-25 160,-25 160,-6 116,-6"/>
<text text-anchor="middle" x="138" y="-13" font-family="Helvetica,sans-Serif" font-size="10.00">string</text>
</a>
</g>
</g>
<!-- Node4&#45;&gt;Node6 -->
<g id="edge5" class="edge">
<title>Node4&#45;&gt;Node6</title>
<path fill="none" stroke="midnightblue" d="M252.6,-67.38C231.57,-58.45 197.88,-44 169,-31 167.81,-30.47 166.6,-29.92 165.38,-29.36"/>
<polygon fill="midnightblue" stroke="midnightblue" points="166.54,-26.04 155.99,-25.02 163.6,-32.39 166.54,-26.04"/>
</g>
<!-- Node7 -->
<g id="node7" class="node">
<title>Node7</title>
<g id="a_node7"><a xlink:title=" ">
<polygon fill="white" stroke="#bfbfbf" points="614.5,-6 614.5,-25 707.5,-25 707.5,-6 614.5,-6"/>
<text text-anchor="middle" x="661" y="-13" font-family="Helvetica,sans-Serif" font-size="10.00">spdlog/spdlog.h</text>
</a>
</g>
</g>
<!-- Node4&#45;&gt;Node7 -->
<g id="edge6" class="edge">
<title>Node4&#45;&gt;Node7</title>
<path fill="none" stroke="midnightblue" d="M302.74,-68.8C305.86,-68.14 308.99,-67.53 312,-67 441.65,-44.17 476.72,-55.84 606,-31 611.08,-30.02 616.39,-28.84 621.61,-27.57"/>
<polygon fill="midnightblue" stroke="midnightblue" points="622.65,-30.92 631.48,-25.07 620.93,-24.14 622.65,-30.92"/>
</g>
<!-- Node8 -->
<g id="node8" class="node">
<title>Node8</title>
<g id="a_node8"><a xlink:title=" ">
<polygon fill="white" stroke="#bfbfbf" points="241.5,-6 241.5,-25 330.5,-25 330.5,-6 241.5,-6"/>
<text text-anchor="middle" x="286" y="-13" font-family="Helvetica,sans-Serif" font-size="10.00">spdlog/async.h</text>
</a>
</g>
</g>
<!-- Node4&#45;&gt;Node8 -->
<g id="edge7" class="edge">
<title>Node4&#45;&gt;Node8</title>
<path fill="none" stroke="midnightblue" d="M274.86,-67.48C276.72,-58.99 279.62,-45.7 282,-34.82"/>
<polygon fill="midnightblue" stroke="midnightblue" points="285.43,-35.53 284.14,-25.01 278.59,-34.03 285.43,-35.53"/>
</g>
<!-- Node9 -->
<g id="node9" class="node">
<title>Node9</title>
<g id="a_node9"><a xlink:title=" ">
<polygon fill="white" stroke="#bfbfbf" points="348.5,-0.5 348.5,-30.5 467.5,-30.5 467.5,-0.5 348.5,-0.5"/>
<text text-anchor="start" x="356.5" y="-18.5" font-family="Helvetica,sans-Serif" font-size="10.00">spdlog/sinks/rotating</text>
<text text-anchor="middle" x="408" y="-7.5" font-family="Helvetica,sans-Serif" font-size="10.00">_file_sink.h</text>
</a>
</g>
</g>
<!-- Node4&#45;&gt;Node9 -->
<g id="edge8" class="edge">
<title>Node4&#45;&gt;Node9</title>
<path fill="none" stroke="midnightblue" d="M292.34,-67.48C311.74,-58.93 342.2,-45.5 366.99,-34.57"/>
<polygon fill="midnightblue" stroke="midnightblue" points="368.44,-37.76 376.18,-30.52 365.62,-31.35 368.44,-37.76"/>
</g>
<!-- Node10 -->
<g id="node10" class="node">
<title>Node10</title>
<g id="a_node10"><a xlink:title=" ">
<polygon fill="white" stroke="#bfbfbf" points="485.5,-0.5 485.5,-30.5 596.5,-30.5 596.5,-0.5 485.5,-0.5"/>
<text text-anchor="start" x="493.5" y="-18.5" font-family="Helvetica,sans-Serif" font-size="10.00">spdlog/sinks/stdout</text>
<text text-anchor="middle" x="541" y="-7.5" font-family="Helvetica,sans-Serif" font-size="10.00">_color_sinks.h</text>
</a>
</g>
</g>
<!-- Node4&#45;&gt;Node10 -->
<g id="edge9" class="edge">
<title>Node4&#45;&gt;Node10</title>
<path fill="none" stroke="midnightblue" d="M302.8,-69.08C305.91,-68.37 309.02,-67.67 312,-67 382.09,-51.27 402.04,-47.6 475,-31.43"/>
<polygon fill="midnightblue" stroke="midnightblue" points="476.15,-34.76 485.16,-29.18 474.64,-27.93 476.15,-34.76"/>
</g>
<!-- Node12&#45;&gt;Node3 -->
<g id="edge14" class="edge">
<title>Node12&#45;&gt;Node3</title>
<path fill="none" stroke="midnightblue" d="M145.11,-67.48C131.8,-57.93 110,-42.31 94.04,-30.87"/>
<polygon fill="midnightblue" stroke="midnightblue" points="96.04,-27.99 85.87,-25.01 91.96,-33.68 96.04,-27.99"/>
</g>
<!-- Node12&#45;&gt;Node5 -->
<g id="edge12" class="edge">
<title>Node12&#45;&gt;Node5</title>
<path fill="none" stroke="midnightblue" d="M163.3,-67.48C169.9,-58.55 180.44,-44.31 188.69,-33.14"/>
<polygon fill="midnightblue" stroke="midnightblue" points="191.58,-35.13 194.71,-25.01 185.95,-30.97 191.58,-35.13"/>
</g>
<!-- Node12&#45;&gt;Node6 -->
<g id="edge13" class="edge">
<title>Node12&#45;&gt;Node6</title>
<path fill="none" stroke="midnightblue" d="M154.28,-67.48C151.57,-58.99 147.33,-45.7 143.85,-34.82"/>
<polygon fill="midnightblue" stroke="midnightblue" points="147.09,-33.47 140.72,-25.01 140.43,-35.6 147.09,-33.47"/>
</g>
</g>
</svg>
