<?xml version="1.0" encoding="UTF-8" standalone="no"?>
<!DOCTYPE svg PUBLIC "-//W3C//DTD SVG 1.1//EN"
 "http://www.w3.org/Graphics/SVG/1.1/DTD/svg11.dtd">
<!-- Generated by graphviz version 2.43.0 (0)
 -->
<!-- Title: src/scene/scene.h Pages: 1 -->
<svg width="496pt" height="162pt"
 viewBox="0.00 0.00 495.50 162.00" xmlns="http://www.w3.org/2000/svg" xmlns:xlink="http://www.w3.org/1999/xlink">
<g id="graph0" class="graph" transform="scale(1 1) rotate(0) translate(4 158)">
<title>src/scene/scene.h</title>
<polygon fill="white" stroke="transparent" points="-4,4 -4,-158 491.5,-158 491.5,4 -4,4"/>
<!-- Node1 -->
<g id="node1" class="node">
<title>Node1</title>
<g id="a_node1"><a xlink:title=" ">
<polygon fill="#bfbfbf" stroke="black" points="174.5,-134.5 174.5,-153.5 277.5,-153.5 277.5,-134.5 174.5,-134.5"/>
<text text-anchor="middle" x="226" y="-141.5" font-family="Helvetica,sans-Serif" font-size="10.00">src/scene/scene.h</text>
</a>
</g>
</g>
<!-- Node2 -->
<g id="node2" class="node">
<title>Node2</title>
<g id="a_node2"><a xlink:href="game__scene_8h.html" target="_top" xlink:title=" ">
<polygon fill="white" stroke="black" points="27,-67.5 27,-97.5 151,-97.5 151,-67.5 27,-67.5"/>
<text text-anchor="start" x="35" y="-85.5" font-family="Helvetica,sans-Serif" font-size="10.00">src/game/scene/game</text>
<text text-anchor="middle" x="89" y="-74.5" font-family="Helvetica,sans-Serif" font-size="10.00">_scene.h</text>
</a>
</g>
</g>
<!-- Node1&#45;&gt;Node2 -->
<g id="edge1" class="edge">
<title>Node1&#45;&gt;Node2</title>
<path fill="none" stroke="midnightblue" d="M197.13,-130.46C174.94,-120.82 144.29,-107.51 121.29,-97.52"/>
<polygon fill="midnightblue" stroke="midnightblue" points="195.8,-133.7 206.37,-134.48 198.59,-127.28 195.8,-133.7"/>
</g>
<!-- Node5 -->
<g id="node5" class="node">
<title>Node5</title>
<g id="a_node5"><a xlink:href="scene_8cpp.html" target="_top" xlink:title=" ">
<polygon fill="white" stroke="black" points="169,-73 169,-92 283,-92 283,-73 169,-73"/>
<text text-anchor="middle" x="226" y="-80" font-family="Helvetica,sans-Serif" font-size="10.00">src/scene/scene.cpp</text>
</a>
</g>
</g>
<!-- Node1&#45;&gt;Node5 -->
<g id="edge4" class="edge">
<title>Node1&#45;&gt;Node5</title>
<path fill="none" stroke="midnightblue" d="M226,-124.32C226,-113.5 226,-100.4 226,-92.01"/>
<polygon fill="midnightblue" stroke="midnightblue" points="222.5,-124.48 226,-134.48 229.5,-124.48 222.5,-124.48"/>
</g>
<!-- Node6 -->
<g id="node6" class="node">
<title>Node6</title>
<g id="a_node6"><a xlink:href="scene__manager_8h.html" target="_top" xlink:title=" ">
<polygon fill="white" stroke="black" points="301.5,-73 301.5,-92 452.5,-92 452.5,-73 301.5,-73"/>
<text text-anchor="middle" x="377" y="-80" font-family="Helvetica,sans-Serif" font-size="10.00">src/scene/scene_manager.h</text>
</a>
</g>
</g>
<!-- Node1&#45;&gt;Node6 -->
<g id="edge5" class="edge">
<title>Node1&#45;&gt;Node6</title>
<path fill="none" stroke="midnightblue" d="M257.01,-130.78C286.35,-119.22 329.63,-102.16 355.41,-92.01"/>
<polygon fill="midnightblue" stroke="midnightblue" points="255.66,-127.55 247.63,-134.48 258.22,-134.07 255.66,-127.55"/>
</g>
<!-- Node3 -->
<g id="node3" class="node">
<title>Node3</title>
<g id="a_node3"><a xlink:href="game__scene_8cpp.html" target="_top" xlink:title=" ">
<polygon fill="white" stroke="black" points="0,-0.5 0,-30.5 124,-30.5 124,-0.5 0,-0.5"/>
<text text-anchor="start" x="8" y="-18.5" font-family="Helvetica,sans-Serif" font-size="10.00">src/game/scene/game</text>
<text text-anchor="middle" x="62" y="-7.5" font-family="Helvetica,sans-Serif" font-size="10.00">_scene.cpp</text>
</a>
</g>
</g>
<!-- Node2&#45;&gt;Node3 -->
<g id="edge2" class="edge">
<title>Node2&#45;&gt;Node3</title>
<path fill="none" stroke="midnightblue" d="M79.23,-57.99C75.42,-48.8 71.17,-38.58 67.85,-30.58"/>
<polygon fill="midnightblue" stroke="midnightblue" points="76.07,-59.5 83.14,-67.4 82.54,-56.82 76.07,-59.5"/>
</g>
<!-- Node4 -->
<g id="node4" class="node">
<title>Node4</title>
<g id="a_node4"><a xlink:href="scene__manager_8cpp.html" target="_top" xlink:title=" ">
<polygon fill="white" stroke="black" points="142,-6 142,-25 304,-25 304,-6 142,-6"/>
<text text-anchor="middle" x="223" y="-13" font-family="Helvetica,sans-Serif" font-size="10.00">src/scene/scene_manager.cpp</text>
</a>
</g>
</g>
<!-- Node2&#45;&gt;Node4 -->
<g id="edge3" class="edge">
<title>Node2&#45;&gt;Node4</title>
<path fill="none" stroke="midnightblue" d="M127.21,-62.97C152.95,-50.48 185.69,-34.6 205.46,-25.01"/>
<polygon fill="midnightblue" stroke="midnightblue" points="125.55,-59.88 118.08,-67.4 128.6,-66.18 125.55,-59.88"/>
</g>
<!-- Node6&#45;&gt;Node4 -->
<g id="edge7" class="edge">
<title>Node6&#45;&gt;Node4</title>
<path fill="none" stroke="midnightblue" d="M347.26,-68.95C316.77,-56.08 270.16,-36.4 243.53,-25.17"/>
<polygon fill="midnightblue" stroke="midnightblue" points="345.98,-72.2 356.55,-72.87 348.7,-65.76 345.98,-72.2"/>
</g>
<!-- Node7 -->
<g id="node7" class="node">
<title>Node7</title>
<g id="a_node7"><a xlink:href="application_8cpp.html" target="_top" xlink:title=" ">
<polygon fill="white" stroke="black" points="322.5,-6 322.5,-25 487.5,-25 487.5,-6 322.5,-6"/>
<text text-anchor="middle" x="405" y="-13" font-family="Helvetica,sans-Serif" font-size="10.00">src/application/application.cpp</text>
</a>
</g>
</g>
<!-- Node6&#45;&gt;Node7 -->
<g id="edge6" class="edge">
<title>Node6&#45;&gt;Node7</title>
<path fill="none" stroke="midnightblue" d="M384.84,-63.29C390.22,-50.81 397.11,-34.81 401.28,-25.13"/>
<polygon fill="midnightblue" stroke="midnightblue" points="381.52,-62.16 380.78,-72.73 387.95,-64.93 381.52,-62.16"/>
</g>
</g>
</svg>
