<?xml version="1.0" encoding="UTF-8" standalone="no"?>
<!DOCTYPE svg PUBLIC "-//W3C//DTD SVG 1.1//EN"
 "http://www.w3.org/Graphics/SVG/1.1/DTD/svg11.dtd">
<!-- Generated by graphviz version 2.43.0 (0)
 -->
<!-- Title: src/scene/scene.cpp Pages: 1 -->
<svg width="2091pt" height="386pt"
 viewBox="0.00 0.00 2091.00 386.00" xmlns="http://www.w3.org/2000/svg" xmlns:xlink="http://www.w3.org/1999/xlink">
<g id="graph0" class="graph" transform="scale(1 1) rotate(0) translate(4 382)">
<title>src/scene/scene.cpp</title>
<polygon fill="white" stroke="transparent" points="-4,4 -4,-382 2087,-382 2087,4 -4,4"/>
<!-- Node1 -->
<g id="node1" class="node">
<title>Node1</title>
<g id="a_node1"><a xlink:title=" ">
<polygon fill="#bfbfbf" stroke="black" points="254.5,-358.5 254.5,-377.5 368.5,-377.5 368.5,-358.5 254.5,-358.5"/>
<text text-anchor="middle" x="311.5" y="-365.5" font-family="Helvetica,sans-Serif" font-size="10.00">src/scene/scene.cpp</text>
</a>
</g>
</g>
<!-- Node2 -->
<g id="node2" class="node">
<title>Node2</title>
<g id="a_node2"><a xlink:href="scene_8h.html" target="_top" xlink:title=" ">
<polygon fill="white" stroke="black" points="154.5,-129 154.5,-148 240.5,-148 240.5,-129 154.5,-129"/>
<text text-anchor="middle" x="197.5" y="-136" font-family="Helvetica,sans-Serif" font-size="10.00">scene/scene.h</text>
</a>
</g>
</g>
<!-- Node1&#45;&gt;Node2 -->
<g id="edge1" class="edge">
<title>Node1&#45;&gt;Node2</title>
<path fill="none" stroke="midnightblue" d="M254.42,-365.36C189.56,-359.9 88.09,-339.39 52.5,-266 26,-211.36 110.25,-170.53 161.33,-151.45"/>
<polygon fill="midnightblue" stroke="midnightblue" points="162.54,-154.74 170.75,-148.04 160.15,-148.15 162.54,-154.74"/>
</g>
<!-- Node6 -->
<g id="node6" class="node">
<title>Node6</title>
<g id="a_node6"><a xlink:href="application_8h.html" target="_top" xlink:title=" ">
<polygon fill="white" stroke="black" points="133,-302.5 133,-321.5 270,-321.5 270,-302.5 133,-302.5"/>
<text text-anchor="middle" x="201.5" y="-309.5" font-family="Helvetica,sans-Serif" font-size="10.00">application/application.h</text>
</a>
</g>
</g>
<!-- Node1&#45;&gt;Node6 -->
<g id="edge5" class="edge">
<title>Node1&#45;&gt;Node6</title>
<path fill="none" stroke="midnightblue" d="M293.83,-358.32C276.11,-349.62 248.6,-336.12 228.21,-326.11"/>
<polygon fill="midnightblue" stroke="midnightblue" points="229.65,-322.92 219.13,-321.65 226.56,-329.2 229.65,-322.92"/>
</g>
<!-- Node9 -->
<g id="node9" class="node">
<title>Node9</title>
<g id="a_node9"><a xlink:href="transform_8h.html" target="_top" xlink:title=" ">
<polygon fill="white" stroke="black" points="0,-129 0,-148 131,-148 131,-129 0,-129"/>
<text text-anchor="middle" x="65.5" y="-136" font-family="Helvetica,sans-Serif" font-size="10.00">component/transform.h</text>
</a>
</g>
</g>
<!-- Node1&#45;&gt;Node9 -->
<g id="edge9" class="edge">
<title>Node1&#45;&gt;Node9</title>
<path fill="none" stroke="midnightblue" d="M254.44,-361.37C194.63,-354.55 105.52,-341.48 77.5,-322 53.59,-305.38 51.35,-294.04 43.5,-266 32.88,-228.06 47.41,-182.21 57.43,-157.45"/>
<polygon fill="midnightblue" stroke="midnightblue" points="60.66,-158.79 61.36,-148.22 54.22,-156.05 60.66,-158.79"/>
</g>
<!-- Node13 -->
<g id="node13" class="node">
<title>Node13</title>
<g id="a_node13"><a xlink:href="local__to__world_8h.html" target="_top" xlink:title=" ">
<polygon fill="white" stroke="black" points="378,-123.5 378,-153.5 491,-153.5 491,-123.5 378,-123.5"/>
<text text-anchor="start" x="386" y="-141.5" font-family="Helvetica,sans-Serif" font-size="10.00">component/local_to</text>
<text text-anchor="middle" x="434.5" y="-130.5" font-family="Helvetica,sans-Serif" font-size="10.00">_world.h</text>
</a>
</g>
</g>
<!-- Node1&#45;&gt;Node13 -->
<g id="edge13" class="edge">
<title>Node1&#45;&gt;Node13</title>
<path fill="none" stroke="midnightblue" d="M316.17,-358.36C333.61,-326.1 395.3,-212.01 422.01,-162.6"/>
<polygon fill="midnightblue" stroke="midnightblue" points="425.19,-164.08 426.86,-153.62 419.03,-160.76 425.19,-164.08"/>
</g>
<!-- Node15 -->
<g id="node15" class="node">
<title>Node15</title>
<g id="a_node15"><a xlink:href="render__mesh_8h.html" target="_top" xlink:title=" ">
<polygon fill="white" stroke="black" points="530,-246.5 530,-265.5 677,-265.5 677,-246.5 530,-246.5"/>
<text text-anchor="middle" x="603.5" y="-253.5" font-family="Helvetica,sans-Serif" font-size="10.00">component/render_mesh.h</text>
</a>
</g>
</g>
<!-- Node1&#45;&gt;Node15 -->
<g id="edge17" class="edge">
<title>Node1&#45;&gt;Node15</title>
<path fill="none" stroke="midnightblue" d="M334.41,-358.37C386.01,-338.93 511.46,-291.67 571.04,-269.23"/>
<polygon fill="midnightblue" stroke="midnightblue" points="572.57,-272.39 580.69,-265.59 570.1,-265.84 572.57,-272.39"/>
</g>
<!-- Node37 -->
<g id="node37" class="node">
<title>Node37</title>
<g id="a_node37"><a xlink:href="light_8h.html" target="_top" xlink:title=" ">
<polygon fill="white" stroke="black" points="1857,-129 1857,-148 1962,-148 1962,-129 1857,-129"/>
<text text-anchor="middle" x="1909.5" y="-136" font-family="Helvetica,sans-Serif" font-size="10.00">component/light.h</text>
</a>
</g>
</g>
<!-- Node1&#45;&gt;Node37 -->
<g id="edge58" class="edge">
<title>Node1&#45;&gt;Node37</title>
<path fill="none" stroke="midnightblue" d="M368.62,-367.38C509.14,-367.59 882.56,-363.8 1190.5,-322 1304.19,-306.57 1331.1,-293.45 1442.5,-266 1601.86,-226.73 1790.01,-173.71 1870.17,-150.81"/>
<polygon fill="midnightblue" stroke="midnightblue" points="1871.2,-154.16 1879.85,-148.04 1869.27,-147.43 1871.2,-154.16"/>
</g>
<!-- Node38 -->
<g id="node38" class="node">
<title>Node38</title>
<g id="a_node38"><a xlink:href="camera_8h.html" target="_top" xlink:title=" ">
<polygon fill="white" stroke="black" points="1061.5,-302.5 1061.5,-321.5 1181.5,-321.5 1181.5,-302.5 1061.5,-302.5"/>
<text text-anchor="middle" x="1121.5" y="-309.5" font-family="Helvetica,sans-Serif" font-size="10.00">component/camera.h</text>
</a>
</g>
</g>
<!-- Node1&#45;&gt;Node38 -->
<g id="edge61" class="edge">
<title>Node1&#45;&gt;Node38</title>
<path fill="none" stroke="midnightblue" d="M368.78,-363.18C513.52,-353.53 893.59,-328.19 1051.33,-317.68"/>
<polygon fill="midnightblue" stroke="midnightblue" points="1051.65,-321.16 1061.39,-317.01 1051.18,-314.18 1051.65,-321.16"/>
</g>
<!-- Node3 -->
<g id="node3" class="node">
<title>Node3</title>
<g id="a_node3"><a xlink:title=" ">
<polygon fill="white" stroke="#bfbfbf" points="647,-62 647,-81 692,-81 692,-62 647,-62"/>
<text text-anchor="middle" x="669.5" y="-69" font-family="Helvetica,sans-Serif" font-size="10.00">utility</text>
</a>
</g>
</g>
<!-- Node2&#45;&gt;Node3 -->
<g id="edge2" class="edge">
<title>Node2&#45;&gt;Node3</title>
<path fill="none" stroke="midnightblue" d="M240.67,-133.32C344,-123.19 599.8,-97.43 637.5,-87 639.65,-86.41 641.84,-85.68 644.01,-84.89"/>
<polygon fill="midnightblue" stroke="midnightblue" points="645.37,-88.11 653.26,-81.04 642.68,-81.65 645.37,-88.11"/>
</g>
<!-- Node4 -->
<g id="node4" class="node">
<title>Node4</title>
<g id="a_node4"><a xlink:title=" ">
<polygon fill="white" stroke="#bfbfbf" points="327.5,-62 327.5,-81 371.5,-81 371.5,-62 327.5,-62"/>
<text text-anchor="middle" x="349.5" y="-69" font-family="Helvetica,sans-Serif" font-size="10.00">string</text>
</a>
</g>
</g>
<!-- Node2&#45;&gt;Node4 -->
<g id="edge3" class="edge">
<title>Node2&#45;&gt;Node4</title>
<path fill="none" stroke="midnightblue" d="M219.04,-128.83C243.32,-118.98 283.94,-102.29 318.5,-87 319.69,-86.47 320.91,-85.93 322.13,-85.38"/>
<polygon fill="midnightblue" stroke="midnightblue" points="323.9,-88.42 331.53,-81.06 320.98,-82.06 323.9,-88.42"/>
</g>
<!-- Node5 -->
<g id="node5" class="node">
<title>Node5</title>
<g id="a_node5"><a xlink:title=" ">
<polygon fill="white" stroke="#bfbfbf" points="131.5,-62 131.5,-81 179.5,-81 179.5,-62 131.5,-62"/>
<text text-anchor="middle" x="155.5" y="-69" font-family="Helvetica,sans-Serif" font-size="10.00">flecs.h</text>
</a>
</g>
</g>
<!-- Node2&#45;&gt;Node5 -->
<g id="edge4" class="edge">
<title>Node2&#45;&gt;Node5</title>
<path fill="none" stroke="midnightblue" d="M191.84,-128.73C185.41,-118.79 174.78,-102.34 166.67,-89.79"/>
<polygon fill="midnightblue" stroke="midnightblue" points="169.44,-87.63 161.07,-81.13 163.56,-91.43 169.44,-87.63"/>
</g>
<!-- Node6&#45;&gt;Node4 -->
<g id="edge7" class="edge">
<title>Node6&#45;&gt;Node4</title>
<path fill="none" stroke="midnightblue" d="M214.6,-302.25C226.22,-293.97 243.08,-280.67 254.5,-266 299.09,-208.74 330.64,-127.18 343.32,-91.01"/>
<polygon fill="midnightblue" stroke="midnightblue" points="346.71,-91.91 346.64,-81.31 340.09,-89.64 346.71,-91.91"/>
</g>
<!-- Node7 -->
<g id="node7" class="node">
<title>Node7</title>
<g id="a_node7"><a xlink:title=" ">
<polygon fill="white" stroke="#bfbfbf" points="61.5,-246.5 61.5,-265.5 111.5,-265.5 111.5,-246.5 61.5,-246.5"/>
<text text-anchor="middle" x="86.5" y="-253.5" font-family="Helvetica,sans-Serif" font-size="10.00">atomic</text>
</a>
</g>
</g>
<!-- Node6&#45;&gt;Node7 -->
<g id="edge6" class="edge">
<title>Node6&#45;&gt;Node7</title>
<path fill="none" stroke="midnightblue" d="M183.28,-302.44C164.6,-293.68 135.34,-279.94 113.88,-269.86"/>
<polygon fill="midnightblue" stroke="midnightblue" points="115.18,-266.6 104.64,-265.52 112.2,-272.93 115.18,-266.6"/>
</g>
<!-- Node8 -->
<g id="node8" class="node">
<title>Node8</title>
<g id="a_node8"><a xlink:title=" ">
<polygon fill="white" stroke="#bfbfbf" points="129.5,-246.5 129.5,-265.5 245.5,-265.5 245.5,-246.5 129.5,-246.5"/>
<text text-anchor="middle" x="187.5" y="-253.5" font-family="Helvetica,sans-Serif" font-size="10.00">common/singleton.h</text>
</a>
</g>
</g>
<!-- Node6&#45;&gt;Node8 -->
<g id="edge8" class="edge">
<title>Node6&#45;&gt;Node8</title>
<path fill="none" stroke="midnightblue" d="M199.19,-302.08C197.33,-294.93 194.66,-284.64 192.35,-275.69"/>
<polygon fill="midnightblue" stroke="midnightblue" points="195.67,-274.55 189.77,-265.75 188.89,-276.31 195.67,-274.55"/>
</g>
<!-- Node10 -->
<g id="node10" class="node">
<title>Node10</title>
<g id="a_node10"><a xlink:title=" ">
<polygon fill="white" stroke="#bfbfbf" points="532.5,-62 532.5,-81 628.5,-81 628.5,-62 532.5,-62"/>
<text text-anchor="middle" x="580.5" y="-69" font-family="Helvetica,sans-Serif" font-size="10.00">maths/vector3.h</text>
</a>
</g>
</g>
<!-- Node9&#45;&gt;Node10 -->
<g id="edge10" class="edge">
<title>Node9&#45;&gt;Node10</title>
<path fill="none" stroke="midnightblue" d="M109.85,-128.94C121.43,-126.85 133.91,-124.72 145.5,-123 279.96,-103.03 438.78,-86.32 522.36,-78.06"/>
<polygon fill="midnightblue" stroke="midnightblue" points="522.8,-81.53 532.41,-77.07 522.12,-74.57 522.8,-81.53"/>
</g>
<!-- Node11 -->
<g id="node11" class="node">
<title>Node11</title>
<g id="a_node11"><a xlink:title=" ">
<polygon fill="white" stroke="#bfbfbf" points="197.5,-62 197.5,-81 309.5,-81 309.5,-62 197.5,-62"/>
<text text-anchor="middle" x="253.5" y="-69" font-family="Helvetica,sans-Serif" font-size="10.00">maths/quaternion.h</text>
</a>
</g>
</g>
<!-- Node9&#45;&gt;Node11 -->
<g id="edge11" class="edge">
<title>Node9&#45;&gt;Node11</title>
<path fill="none" stroke="midnightblue" d="M90.46,-128.87C123.42,-117.47 181.62,-97.35 218.83,-84.49"/>
<polygon fill="midnightblue" stroke="midnightblue" points="220.42,-87.64 228.73,-81.06 218.14,-81.02 220.42,-87.64"/>
</g>
<!-- Node12 -->
<g id="node12" class="node">
<title>Node12</title>
<g id="a_node12"><a xlink:title=" ">
<polygon fill="white" stroke="#bfbfbf" points="0,-62 0,-81 113,-81 113,-62 0,-62"/>
<text text-anchor="middle" x="56.5" y="-69" font-family="Helvetica,sans-Serif" font-size="10.00">maths/matrix_util.h</text>
</a>
</g>
</g>
<!-- Node9&#45;&gt;Node12 -->
<g id="edge12" class="edge">
<title>Node9&#45;&gt;Node12</title>
<path fill="none" stroke="midnightblue" d="M64.29,-128.73C62.96,-119.18 60.81,-103.62 59.1,-91.28"/>
<polygon fill="midnightblue" stroke="midnightblue" points="62.53,-90.55 57.69,-81.13 55.6,-91.51 62.53,-90.55"/>
</g>
<!-- Node13&#45;&gt;Node10 -->
<g id="edge14" class="edge">
<title>Node13&#45;&gt;Node10</title>
<path fill="none" stroke="midnightblue" d="M466.18,-123.4C491.8,-111.99 527.54,-96.08 552.2,-85.1"/>
<polygon fill="midnightblue" stroke="midnightblue" points="553.68,-88.27 561.39,-81.01 550.83,-81.88 553.68,-88.27"/>
</g>
<!-- Node13&#45;&gt;Node11 -->
<g id="edge15" class="edge">
<title>Node13&#45;&gt;Node11</title>
<path fill="none" stroke="midnightblue" d="M395.23,-123.4C362.91,-111.79 317.59,-95.51 286.97,-84.52"/>
<polygon fill="midnightblue" stroke="midnightblue" points="287.78,-81.09 277.19,-81.01 285.42,-87.68 287.78,-81.09"/>
</g>
<!-- Node14 -->
<g id="node14" class="node">
<title>Node14</title>
<g id="a_node14"><a xlink:title=" ">
<polygon fill="white" stroke="#bfbfbf" points="710.5,-62 710.5,-81 802.5,-81 802.5,-62 710.5,-62"/>
<text text-anchor="middle" x="756.5" y="-69" font-family="Helvetica,sans-Serif" font-size="10.00">maths/matrix.h</text>
</a>
</g>
</g>
<!-- Node13&#45;&gt;Node14 -->
<g id="edge16" class="edge">
<title>Node13&#45;&gt;Node14</title>
<path fill="none" stroke="midnightblue" d="M491.25,-127.97C545.47,-118.58 629.37,-103.31 701.5,-87 706.19,-85.94 711.08,-84.76 715.94,-83.54"/>
<polygon fill="midnightblue" stroke="midnightblue" points="716.95,-86.89 725.76,-81.02 715.2,-80.12 716.95,-86.89"/>
</g>
<!-- Node15&#45;&gt;Node4 -->
<g id="edge18" class="edge">
<title>Node15&#45;&gt;Node4</title>
<path fill="none" stroke="midnightblue" d="M529.79,-247.88C469.83,-237.76 388.78,-213.27 348.5,-154 335.85,-135.39 339.3,-108.46 343.73,-90.72"/>
<polygon fill="midnightblue" stroke="midnightblue" points="347.12,-91.6 346.48,-81.02 340.39,-89.69 347.12,-91.6"/>
</g>
<!-- Node16 -->
<g id="node16" class="node">
<title>Node16</title>
<g id="a_node16"><a xlink:href="material_8h.html" target="_top" xlink:title=" ">
<polygon fill="white" stroke="black" points="1181,-190.5 1181,-209.5 1336,-209.5 1336,-190.5 1181,-190.5"/>
<text text-anchor="middle" x="1258.5" y="-197.5" font-family="Helvetica,sans-Serif" font-size="10.00">graphics/material/material.h</text>
</a>
</g>
</g>
<!-- Node15&#45;&gt;Node16 -->
<g id="edge19" class="edge">
<title>Node15&#45;&gt;Node16</title>
<path fill="none" stroke="midnightblue" d="M677.05,-248.94C798.42,-238.93 1040.15,-219 1170.43,-208.26"/>
<polygon fill="midnightblue" stroke="midnightblue" points="1171.09,-211.72 1180.77,-207.41 1170.51,-204.74 1171.09,-211.72"/>
</g>
<!-- Node31 -->
<g id="node31" class="node">
<title>Node31</title>
<g id="a_node31"><a xlink:href="mesh_8h.html" target="_top" xlink:title=" ">
<polygon fill="white" stroke="black" points="642,-190.5 642,-209.5 769,-209.5 769,-190.5 642,-190.5"/>
<text text-anchor="middle" x="705.5" y="-197.5" font-family="Helvetica,sans-Serif" font-size="10.00">graphics/mesh/mesh.h</text>
</a>
</g>
</g>
<!-- Node15&#45;&gt;Node31 -->
<g id="edge40" class="edge">
<title>Node15&#45;&gt;Node31</title>
<path fill="none" stroke="midnightblue" d="M619.89,-246.32C636.17,-237.7 661.37,-224.36 680.22,-214.39"/>
<polygon fill="midnightblue" stroke="midnightblue" points="681.95,-217.43 689.15,-209.65 678.68,-211.24 681.95,-217.43"/>
</g>
<!-- Node17 -->
<g id="node17" class="node">
<title>Node17</title>
<g id="a_node17"><a xlink:title=" ">
<polygon fill="white" stroke="#bfbfbf" points="1184.5,-0.5 1184.5,-19.5 1242.5,-19.5 1242.5,-0.5 1184.5,-0.5"/>
<text text-anchor="middle" x="1213.5" y="-7.5" font-family="Helvetica,sans-Serif" font-size="10.00">memory</text>
</a>
</g>
</g>
<!-- Node16&#45;&gt;Node17 -->
<g id="edge20" class="edge">
<title>Node16&#45;&gt;Node17</title>
<path fill="none" stroke="midnightblue" d="M1277.8,-190.48C1291.93,-183.08 1310.06,-170.89 1318.5,-154 1324.66,-141.68 1325.37,-134.94 1318.5,-123 1302.6,-95.39 1278.9,-109.66 1256.5,-87 1240.06,-70.38 1227.82,-46.2 1220.69,-29.6"/>
<polygon fill="midnightblue" stroke="midnightblue" points="1223.77,-27.88 1216.75,-19.95 1217.29,-30.53 1223.77,-27.88"/>
</g>
<!-- Node18 -->
<g id="node18" class="node">
<title>Node18</title>
<g id="a_node18"><a xlink:title=" ">
<polygon fill="white" stroke="#bfbfbf" points="820.5,-62 820.5,-81 916.5,-81 916.5,-62 820.5,-62"/>
<text text-anchor="middle" x="868.5" y="-69" font-family="Helvetica,sans-Serif" font-size="10.00">maths/vector2.h</text>
</a>
</g>
</g>
<!-- Node16&#45;&gt;Node18 -->
<g id="edge21" class="edge">
<title>Node16&#45;&gt;Node18</title>
<path fill="none" stroke="midnightblue" d="M1270.2,-190.29C1288.9,-175.36 1321.56,-144.41 1302.5,-123 1300.95,-121.26 1044.76,-92.29 926.77,-79.03"/>
<polygon fill="midnightblue" stroke="midnightblue" points="927.14,-75.55 916.81,-77.91 926.36,-82.51 927.14,-75.55"/>
</g>
<!-- Node19 -->
<g id="node19" class="node">
<title>Node19</title>
<g id="a_node19"><a xlink:href="texture_8h.html" target="_top" xlink:title=" ">
<polygon fill="white" stroke="black" points="1499,-129 1499,-148 1642,-148 1642,-129 1499,-129"/>
<text text-anchor="middle" x="1570.5" y="-136" font-family="Helvetica,sans-Serif" font-size="10.00">graphics/texture/texture.h</text>
</a>
</g>
</g>
<!-- Node16&#45;&gt;Node19 -->
<g id="edge22" class="edge">
<title>Node16&#45;&gt;Node19</title>
<path fill="none" stroke="midnightblue" d="M1303.2,-190.48C1359.27,-179.78 1455.36,-161.46 1515.77,-149.94"/>
<polygon fill="midnightblue" stroke="midnightblue" points="1516.71,-153.32 1525.88,-148.01 1515.4,-146.44 1516.71,-153.32"/>
</g>
<!-- Node27 -->
<g id="node27" class="node">
<title>Node27</title>
<g id="a_node27"><a xlink:href="shader__program_8h.html" target="_top" xlink:title=" ">
<polygon fill="white" stroke="black" points="833.5,-123.5 833.5,-153.5 963.5,-153.5 963.5,-123.5 833.5,-123.5"/>
<text text-anchor="start" x="841.5" y="-141.5" font-family="Helvetica,sans-Serif" font-size="10.00">graphics/shader/shader</text>
<text text-anchor="middle" x="898.5" y="-130.5" font-family="Helvetica,sans-Serif" font-size="10.00">_program.h</text>
</a>
</g>
</g>
<!-- Node16&#45;&gt;Node27 -->
<g id="edge31" class="edge">
<title>Node16&#45;&gt;Node27</title>
<path fill="none" stroke="midnightblue" d="M1200.33,-190.5C1144.67,-182.22 1058.11,-168.96 973.84,-154.2"/>
<polygon fill="midnightblue" stroke="midnightblue" points="974.3,-150.73 963.85,-152.44 973.09,-157.62 974.3,-150.73"/>
</g>
<!-- Node30 -->
<g id="node30" class="node">
<title>Node30</title>
<g id="a_node30"><a xlink:href="render__path_8h.html" target="_top" xlink:title=" ">
<polygon fill="white" stroke="black" points="1156,-123.5 1156,-153.5 1293,-153.5 1293,-123.5 1156,-123.5"/>
<text text-anchor="start" x="1164" y="-141.5" font-family="Helvetica,sans-Serif" font-size="10.00">graphics/material/render</text>
<text text-anchor="middle" x="1224.5" y="-130.5" font-family="Helvetica,sans-Serif" font-size="10.00">_path.h</text>
</a>
</g>
</g>
<!-- Node16&#45;&gt;Node30 -->
<g id="edge39" class="edge">
<title>Node16&#45;&gt;Node30</title>
<path fill="none" stroke="midnightblue" d="M1253.63,-190.48C1249.45,-183.17 1243.24,-172.3 1237.63,-162.47"/>
<polygon fill="midnightblue" stroke="midnightblue" points="1240.51,-160.47 1232.51,-153.52 1234.44,-163.94 1240.51,-160.47"/>
</g>
<!-- Node20 -->
<g id="node20" class="node">
<title>Node20</title>
<g id="a_node20"><a xlink:title=" ">
<polygon fill="white" stroke="#bfbfbf" points="1598.5,-62 1598.5,-81 1640.5,-81 1640.5,-62 1598.5,-62"/>
<text text-anchor="middle" x="1619.5" y="-69" font-family="Helvetica,sans-Serif" font-size="10.00">array</text>
</a>
</g>
</g>
<!-- Node19&#45;&gt;Node20 -->
<g id="edge23" class="edge">
<title>Node19&#45;&gt;Node20</title>
<path fill="none" stroke="midnightblue" d="M1577.11,-128.73C1584.68,-118.7 1597.25,-102.01 1606.74,-89.42"/>
<polygon fill="midnightblue" stroke="midnightblue" points="1609.77,-91.22 1613,-81.13 1604.18,-87.01 1609.77,-91.22"/>
</g>
<!-- Node21 -->
<g id="node21" class="node">
<title>Node21</title>
<g id="a_node21"><a xlink:title=" ">
<polygon fill="white" stroke="#bfbfbf" points="1659,-62 1659,-81 1706,-81 1706,-62 1659,-62"/>
<text text-anchor="middle" x="1682.5" y="-69" font-family="Helvetica,sans-Serif" font-size="10.00">cmath</text>
</a>
</g>
</g>
<!-- Node19&#45;&gt;Node21 -->
<g id="edge24" class="edge">
<title>Node19&#45;&gt;Node21</title>
<path fill="none" stroke="midnightblue" d="M1585.6,-128.73C1604.41,-117.82 1636.75,-99.05 1658.86,-86.22"/>
<polygon fill="midnightblue" stroke="midnightblue" points="1660.74,-89.17 1667.63,-81.13 1657.23,-83.12 1660.74,-89.17"/>
</g>
<!-- Node22 -->
<g id="node22" class="node">
<title>Node22</title>
<g id="a_node22"><a xlink:title=" ">
<polygon fill="white" stroke="#bfbfbf" points="1434.5,-62 1434.5,-81 1542.5,-81 1542.5,-62 1434.5,-62"/>
<text text-anchor="middle" x="1488.5" y="-69" font-family="Helvetica,sans-Serif" font-size="10.00">SDL2/SDL_image.h</text>
</a>
</g>
</g>
<!-- Node19&#45;&gt;Node22 -->
<g id="edge25" class="edge">
<title>Node19&#45;&gt;Node22</title>
<path fill="none" stroke="midnightblue" d="M1559.44,-128.73C1546.16,-118.21 1523.67,-100.38 1507.57,-87.62"/>
<polygon fill="midnightblue" stroke="midnightblue" points="1509.39,-84.6 1499.38,-81.13 1505.05,-90.08 1509.39,-84.6"/>
</g>
<!-- Node23 -->
<g id="node23" class="node">
<title>Node23</title>
<g id="a_node23"><a xlink:title=" ">
<polygon fill="white" stroke="#bfbfbf" points="1325.5,-0.5 1325.5,-19.5 1389.5,-19.5 1389.5,-0.5 1325.5,-0.5"/>
<text text-anchor="middle" x="1357.5" y="-7.5" font-family="Helvetica,sans-Serif" font-size="10.00">GL/glew.h</text>
</a>
</g>
</g>
<!-- Node19&#45;&gt;Node23 -->
<g id="edge26" class="edge">
<title>Node19&#45;&gt;Node23</title>
<path fill="none" stroke="midnightblue" d="M1571.21,-128.98C1572.07,-112.45 1571.44,-75.92 1551.5,-56 1530.45,-34.97 1449.99,-21.87 1399.54,-15.55"/>
<polygon fill="midnightblue" stroke="midnightblue" points="1399.91,-12.07 1389.56,-14.34 1399.07,-19.02 1399.91,-12.07"/>
</g>
<!-- Node24 -->
<g id="node24" class="node">
<title>Node24</title>
<g id="a_node24"><a xlink:title=" ">
<polygon fill="white" stroke="#bfbfbf" points="1972,-62 1972,-81 2083,-81 2083,-62 1972,-62"/>
<text text-anchor="middle" x="2027.5" y="-69" font-family="Helvetica,sans-Serif" font-size="10.00">maths/maths_util.h</text>
</a>
</g>
</g>
<!-- Node19&#45;&gt;Node24 -->
<g id="edge27" class="edge">
<title>Node19&#45;&gt;Node24</title>
<path fill="none" stroke="midnightblue" d="M1642.16,-130.36C1721.18,-122.01 1851.91,-106.77 1963.5,-87 1969.76,-85.89 1976.33,-84.58 1982.77,-83.2"/>
<polygon fill="midnightblue" stroke="midnightblue" points="1983.73,-86.57 1992.75,-81.01 1982.23,-79.74 1983.73,-86.57"/>
</g>
<!-- Node25 -->
<g id="node25" class="node">
<title>Node25</title>
<g id="a_node25"><a xlink:href="pixel__format_8h.html" target="_top" xlink:title=" ">
<polygon fill="white" stroke="black" points="1724.5,-56.5 1724.5,-86.5 1846.5,-86.5 1846.5,-56.5 1724.5,-56.5"/>
<text text-anchor="start" x="1732.5" y="-74.5" font-family="Helvetica,sans-Serif" font-size="10.00">graphics/texture/pixel</text>
<text text-anchor="middle" x="1785.5" y="-63.5" font-family="Helvetica,sans-Serif" font-size="10.00">_format.h</text>
</a>
</g>
</g>
<!-- Node19&#45;&gt;Node25 -->
<g id="edge28" class="edge">
<title>Node19&#45;&gt;Node25</title>
<path fill="none" stroke="midnightblue" d="M1599.05,-128.87C1632.15,-118.86 1687.5,-102.13 1729.32,-89.48"/>
<polygon fill="midnightblue" stroke="midnightblue" points="1730.54,-92.77 1739.1,-86.53 1728.51,-86.07 1730.54,-92.77"/>
</g>
<!-- Node25&#45;&gt;Node23 -->
<g id="edge30" class="edge">
<title>Node25&#45;&gt;Node23</title>
<path fill="none" stroke="midnightblue" d="M1724.47,-57.56C1721.44,-57.01 1718.44,-56.49 1715.5,-56 1602,-37.14 1467.08,-22.18 1399.9,-15.23"/>
<polygon fill="midnightblue" stroke="midnightblue" points="1400.02,-11.72 1389.71,-14.18 1399.31,-18.69 1400.02,-11.72"/>
</g>
<!-- Node26 -->
<g id="node26" class="node">
<title>Node26</title>
<g id="a_node26"><a xlink:title=" ">
<polygon fill="white" stroke="#bfbfbf" points="1753,-0.5 1753,-19.5 1818,-19.5 1818,-0.5 1753,-0.5"/>
<text text-anchor="middle" x="1785.5" y="-7.5" font-family="Helvetica,sans-Serif" font-size="10.00">stdexcept</text>
</a>
</g>
</g>
<!-- Node25&#45;&gt;Node26 -->
<g id="edge29" class="edge">
<title>Node25&#45;&gt;Node26</title>
<path fill="none" stroke="midnightblue" d="M1785.5,-56.4C1785.5,-48.47 1785.5,-38.46 1785.5,-29.86"/>
<polygon fill="midnightblue" stroke="midnightblue" points="1789,-29.66 1785.5,-19.66 1782,-29.66 1789,-29.66"/>
</g>
<!-- Node27&#45;&gt;Node4 -->
<g id="edge32" class="edge">
<title>Node27&#45;&gt;Node4</title>
<path fill="none" stroke="midnightblue" d="M833.18,-124.38C830.25,-123.89 827.35,-123.43 824.5,-123 658.86,-98.02 458.88,-81.02 381.88,-74.96"/>
<polygon fill="midnightblue" stroke="midnightblue" points="382.09,-71.46 371.85,-74.18 381.54,-78.44 382.09,-71.46"/>
</g>
<!-- Node27&#45;&gt;Node10 -->
<g id="edge37" class="edge">
<title>Node27&#45;&gt;Node10</title>
<path fill="none" stroke="midnightblue" d="M833.13,-124.68C830.21,-124.11 827.33,-123.55 824.5,-123 741.85,-106.9 720.71,-105.22 638.5,-87 633.5,-85.89 628.27,-84.67 623.09,-83.42"/>
<polygon fill="midnightblue" stroke="midnightblue" points="623.79,-79.99 613.25,-81.01 622.13,-86.79 623.79,-79.99"/>
</g>
<!-- Node27&#45;&gt;Node14 -->
<g id="edge38" class="edge">
<title>Node27&#45;&gt;Node14</title>
<path fill="none" stroke="midnightblue" d="M867.69,-123.4C842.88,-112.04 808.32,-96.22 784.34,-85.24"/>
<polygon fill="midnightblue" stroke="midnightblue" points="785.63,-81.99 775.08,-81.01 782.72,-88.35 785.63,-81.99"/>
</g>
<!-- Node27&#45;&gt;Node18 -->
<g id="edge36" class="edge">
<title>Node27&#45;&gt;Node18</title>
<path fill="none" stroke="midnightblue" d="M891.99,-123.4C887.54,-113.76 881.61,-100.91 876.82,-90.54"/>
<polygon fill="midnightblue" stroke="midnightblue" points="879.88,-88.81 872.51,-81.19 873.53,-91.74 879.88,-88.81"/>
</g>
<!-- Node27&#45;&gt;Node23 -->
<g id="edge34" class="edge">
<title>Node27&#45;&gt;Node23</title>
<path fill="none" stroke="midnightblue" d="M963.69,-124.67C1022.8,-112.87 1105.42,-95.89 1137.5,-87 1205.82,-68.06 1283.82,-39.39 1326.15,-23.22"/>
<polygon fill="midnightblue" stroke="midnightblue" points="1327.53,-26.43 1335.62,-19.58 1325.03,-19.9 1327.53,-26.43"/>
</g>
<!-- Node28 -->
<g id="node28" class="node">
<title>Node28</title>
<g id="a_node28"><a xlink:title=" ">
<polygon fill="white" stroke="#bfbfbf" points="940,-0.5 940,-19.5 987,-19.5 987,-0.5 940,-0.5"/>
<text text-anchor="middle" x="963.5" y="-7.5" font-family="Helvetica,sans-Serif" font-size="10.00">vector</text>
</a>
</g>
</g>
<!-- Node27&#45;&gt;Node28 -->
<g id="edge33" class="edge">
<title>Node27&#45;&gt;Node28</title>
<path fill="none" stroke="midnightblue" d="M906.17,-123.41C911.63,-113.31 919.11,-99.36 925.5,-87 935.63,-67.41 946.89,-44.78 954.5,-29.35"/>
<polygon fill="midnightblue" stroke="midnightblue" points="957.86,-30.45 959.13,-19.93 951.58,-27.36 957.86,-30.45"/>
</g>
<!-- Node29 -->
<g id="node29" class="node">
<title>Node29</title>
<g id="a_node29"><a xlink:title=" ">
<polygon fill="white" stroke="#bfbfbf" points="1865,-62 1865,-81 1954,-81 1954,-62 1865,-62"/>
<text text-anchor="middle" x="1909.5" y="-69" font-family="Helvetica,sans-Serif" font-size="10.00">maths/colour.h</text>
</a>
</g>
</g>
<!-- Node27&#45;&gt;Node29 -->
<g id="edge35" class="edge">
<title>Node27&#45;&gt;Node29</title>
<path fill="none" stroke="midnightblue" d="M963.78,-124.15C966.72,-123.72 969.64,-123.34 972.5,-123 1362.58,-77.1 1467.23,-146.29 1855.5,-87 1861.02,-86.16 1866.78,-84.96 1872.4,-83.61"/>
<polygon fill="midnightblue" stroke="midnightblue" points="1873.47,-86.95 1882.28,-81.07 1871.72,-80.18 1873.47,-86.95"/>
</g>
<!-- Node31&#45;&gt;Node4 -->
<g id="edge43" class="edge">
<title>Node31&#45;&gt;Node4</title>
<path fill="none" stroke="midnightblue" d="M641.9,-198.86C555.54,-197.3 407.45,-189.37 368.5,-154 351.14,-138.23 348.12,-109.95 348.25,-91.2"/>
<polygon fill="midnightblue" stroke="midnightblue" points="351.75,-91.32 348.63,-81.19 344.76,-91.05 351.75,-91.32"/>
</g>
<!-- Node31&#45;&gt;Node17 -->
<g id="edge41" class="edge">
<title>Node31&#45;&gt;Node17</title>
<path fill="none" stroke="midnightblue" d="M769.09,-198.04C867.77,-195.53 1052.28,-186.51 1108.5,-154 1159.04,-124.77 1192.31,-60.42 1206.17,-28.98"/>
<polygon fill="midnightblue" stroke="midnightblue" points="1209.43,-30.26 1210.12,-19.69 1202.99,-27.52 1209.43,-30.26"/>
</g>
<!-- Node31&#45;&gt;Node28 -->
<g id="edge42" class="edge">
<title>Node31&#45;&gt;Node28</title>
<path fill="none" stroke="midnightblue" d="M641.64,-196.97C606.97,-192.51 565.91,-181.22 539.5,-154 508.77,-122.32 493.92,-88.76 523.5,-56 550.62,-25.96 831.47,-14.88 929.76,-11.9"/>
<polygon fill="midnightblue" stroke="midnightblue" points="929.86,-15.4 939.75,-11.61 929.65,-8.41 929.86,-15.4"/>
</g>
<!-- Node32 -->
<g id="node32" class="node">
<title>Node32</title>
<g id="a_node32"><a xlink:href="vertex_8h.html" target="_top" xlink:title=" ">
<polygon fill="white" stroke="black" points="548,-129 548,-148 679,-148 679,-129 548,-129"/>
<text text-anchor="middle" x="613.5" y="-136" font-family="Helvetica,sans-Serif" font-size="10.00">graphics/mesh/vertex.h</text>
</a>
</g>
</g>
<!-- Node31&#45;&gt;Node32 -->
<g id="edge44" class="edge">
<title>Node31&#45;&gt;Node32</title>
<path fill="none" stroke="midnightblue" d="M692.32,-190.48C677.43,-180.84 652.96,-165.02 635.23,-153.55"/>
<polygon fill="midnightblue" stroke="midnightblue" points="636.95,-150.5 626.66,-148.01 633.15,-156.38 636.95,-150.5"/>
</g>
<!-- Node33 -->
<g id="node33" class="node">
<title>Node33</title>
<g id="a_node33"><a xlink:href="mesh__instance__data_8h.html" target="_top" xlink:title=" ">
<polygon fill="white" stroke="black" points="697.5,-123.5 697.5,-153.5 815.5,-153.5 815.5,-123.5 697.5,-123.5"/>
<text text-anchor="start" x="705.5" y="-141.5" font-family="Helvetica,sans-Serif" font-size="10.00">graphics/mesh/mesh</text>
<text text-anchor="middle" x="756.5" y="-130.5" font-family="Helvetica,sans-Serif" font-size="10.00">_instance_data.h</text>
</a>
</g>
</g>
<!-- Node31&#45;&gt;Node33 -->
<g id="edge47" class="edge">
<title>Node31&#45;&gt;Node33</title>
<path fill="none" stroke="midnightblue" d="M712.81,-190.48C719.33,-182.87 729.16,-171.4 737.84,-161.26"/>
<polygon fill="midnightblue" stroke="midnightblue" points="740.63,-163.39 744.48,-153.52 735.31,-158.84 740.63,-163.39"/>
</g>
<!-- Node34 -->
<g id="node34" class="node">
<title>Node34</title>
<g id="a_node34"><a xlink:href="vao_8h.html" target="_top" xlink:title=" ">
<polygon fill="white" stroke="black" points="981.5,-129 981.5,-148 1099.5,-148 1099.5,-129 981.5,-129"/>
<text text-anchor="middle" x="1040.5" y="-136" font-family="Helvetica,sans-Serif" font-size="10.00">graphics/mesh/vao.h</text>
</a>
</g>
</g>
<!-- Node31&#45;&gt;Node34 -->
<g id="edge49" class="edge">
<title>Node31&#45;&gt;Node34</title>
<path fill="none" stroke="midnightblue" d="M760.34,-190.47C814.4,-181.89 899.31,-167.96 972.5,-154 978.72,-152.81 985.26,-151.5 991.71,-150.17"/>
<polygon fill="midnightblue" stroke="midnightblue" points="992.65,-153.55 1001.72,-148.07 991.22,-146.7 992.65,-153.55"/>
</g>
<!-- Node32&#45;&gt;Node10 -->
<g id="edge46" class="edge">
<title>Node32&#45;&gt;Node10</title>
<path fill="none" stroke="midnightblue" d="M609.05,-128.73C604.05,-118.89 595.81,-102.66 589.47,-90.16"/>
<polygon fill="midnightblue" stroke="midnightblue" points="592.53,-88.46 584.88,-81.13 586.29,-91.63 592.53,-88.46"/>
</g>
<!-- Node32&#45;&gt;Node18 -->
<g id="edge45" class="edge">
<title>Node32&#45;&gt;Node18</title>
<path fill="none" stroke="midnightblue" d="M647.1,-128.94C692.77,-117.29 774.53,-96.45 824.89,-83.62"/>
<polygon fill="midnightblue" stroke="midnightblue" points="826,-86.95 834.83,-81.08 824.27,-80.16 826,-86.95"/>
</g>
<!-- Node33&#45;&gt;Node14 -->
<g id="edge48" class="edge">
<title>Node33&#45;&gt;Node14</title>
<path fill="none" stroke="midnightblue" d="M756.5,-123.4C756.5,-114.06 756.5,-101.71 756.5,-91.52"/>
<polygon fill="midnightblue" stroke="midnightblue" points="760,-91.19 756.5,-81.19 753,-91.19 760,-91.19"/>
</g>
<!-- Node34&#45;&gt;Node3 -->
<g id="edge50" class="edge">
<title>Node34&#45;&gt;Node3</title>
<path fill="none" stroke="midnightblue" d="M1003.19,-129C993.25,-126.88 982.49,-124.73 972.5,-123 852.77,-102.31 818.31,-120.43 701.5,-87 699.56,-86.45 697.6,-85.79 695.64,-85.08"/>
<polygon fill="midnightblue" stroke="midnightblue" points="696.67,-81.72 686.09,-81.13 693.99,-88.19 696.67,-81.72"/>
</g>
<!-- Node34&#45;&gt;Node28 -->
<g id="edge51" class="edge">
<title>Node34&#45;&gt;Node28</title>
<path fill="none" stroke="midnightblue" d="M1033.05,-128.94C1024.77,-119.18 1011.28,-102.57 1001.5,-87 989.65,-68.12 978.54,-45.04 971.44,-29.31"/>
<polygon fill="midnightblue" stroke="midnightblue" points="974.45,-27.45 967.2,-19.73 968.05,-30.29 974.45,-27.45"/>
</g>
<!-- Node35 -->
<g id="node35" class="node">
<title>Node35</title>
<g id="a_node35"><a xlink:href="vbo_8h.html" target="_top" xlink:title=" ">
<polygon fill="white" stroke="black" points="1010.5,-62 1010.5,-81 1128.5,-81 1128.5,-62 1010.5,-62"/>
<text text-anchor="middle" x="1069.5" y="-69" font-family="Helvetica,sans-Serif" font-size="10.00">graphics/mesh/vbo.h</text>
</a>
</g>
</g>
<!-- Node34&#45;&gt;Node35 -->
<g id="edge52" class="edge">
<title>Node34&#45;&gt;Node35</title>
<path fill="none" stroke="midnightblue" d="M1044.41,-128.73C1048.76,-118.99 1055.9,-102.98 1061.46,-90.53"/>
<polygon fill="midnightblue" stroke="midnightblue" points="1064.77,-91.69 1065.65,-81.13 1058.38,-88.83 1064.77,-91.69"/>
</g>
<!-- Node36 -->
<g id="node36" class="node">
<title>Node36</title>
<g id="a_node36"><a xlink:href="ebo_8h.html" target="_top" xlink:title=" ">
<polygon fill="white" stroke="black" points="1298.5,-62 1298.5,-81 1416.5,-81 1416.5,-62 1298.5,-62"/>
<text text-anchor="middle" x="1357.5" y="-69" font-family="Helvetica,sans-Serif" font-size="10.00">graphics/mesh/ebo.h</text>
</a>
</g>
</g>
<!-- Node34&#45;&gt;Node36 -->
<g id="edge56" class="edge">
<title>Node34&#45;&gt;Node36</title>
<path fill="none" stroke="midnightblue" d="M1082.27,-128.94C1139.84,-117.13 1243.52,-95.87 1305.88,-83.09"/>
<polygon fill="midnightblue" stroke="midnightblue" points="1306.8,-86.47 1315.89,-81.03 1305.39,-79.61 1306.8,-86.47"/>
</g>
<!-- Node35&#45;&gt;Node17 -->
<g id="edge54" class="edge">
<title>Node35&#45;&gt;Node17</title>
<path fill="none" stroke="midnightblue" d="M1090.13,-61.98C1114.62,-51.86 1155.65,-34.9 1183.61,-23.35"/>
<polygon fill="midnightblue" stroke="midnightblue" points="1185,-26.56 1192.91,-19.51 1182.33,-20.09 1185,-26.56"/>
</g>
<!-- Node35&#45;&gt;Node23 -->
<g id="edge55" class="edge">
<title>Node35&#45;&gt;Node23</title>
<path fill="none" stroke="midnightblue" d="M1110.76,-61.98C1165.12,-50.75 1260.23,-31.1 1315.13,-19.75"/>
<polygon fill="midnightblue" stroke="midnightblue" points="1316.14,-23.12 1325.22,-17.67 1314.72,-16.26 1316.14,-23.12"/>
</g>
<!-- Node35&#45;&gt;Node28 -->
<g id="edge53" class="edge">
<title>Node35&#45;&gt;Node28</title>
<path fill="none" stroke="midnightblue" d="M1054.31,-61.98C1036.84,-52.17 1007.92,-35.93 987.42,-24.42"/>
<polygon fill="midnightblue" stroke="midnightblue" points="989.09,-21.35 978.66,-19.51 985.67,-27.46 989.09,-21.35"/>
</g>
<!-- Node36&#45;&gt;Node23 -->
<g id="edge57" class="edge">
<title>Node36&#45;&gt;Node23</title>
<path fill="none" stroke="midnightblue" d="M1357.5,-61.98C1357.5,-53.58 1357.5,-40.48 1357.5,-29.66"/>
<polygon fill="midnightblue" stroke="midnightblue" points="1361,-29.51 1357.5,-19.51 1354,-29.51 1361,-29.51"/>
</g>
<!-- Node37&#45;&gt;Node24 -->
<g id="edge59" class="edge">
<title>Node37&#45;&gt;Node24</title>
<path fill="none" stroke="midnightblue" d="M1925.41,-128.73C1945.32,-117.77 1979.61,-98.88 2002.9,-86.05"/>
<polygon fill="midnightblue" stroke="midnightblue" points="2004.77,-89.02 2011.84,-81.13 2001.39,-82.89 2004.77,-89.02"/>
</g>
<!-- Node37&#45;&gt;Node29 -->
<g id="edge60" class="edge">
<title>Node37&#45;&gt;Node29</title>
<path fill="none" stroke="midnightblue" d="M1909.5,-128.73C1909.5,-119.18 1909.5,-103.62 1909.5,-91.28"/>
<polygon fill="midnightblue" stroke="midnightblue" points="1913,-91.13 1909.5,-81.13 1906,-91.13 1913,-91.13"/>
</g>
<!-- Node38&#45;&gt;Node17 -->
<g id="edge62" class="edge">
<title>Node38&#45;&gt;Node17</title>
<path fill="none" stroke="midnightblue" d="M1180.55,-302.45C1233.87,-291.26 1309.33,-265.99 1345.5,-210 1356.57,-192.87 1355.97,-159.7 1334.5,-123 1321.57,-100.89 1308.58,-104.08 1289.5,-87 1267.48,-67.29 1243.61,-42.88 1228.62,-27.12"/>
<polygon fill="midnightblue" stroke="midnightblue" points="1231.05,-24.61 1221.64,-19.75 1225.97,-29.42 1231.05,-24.61"/>
</g>
<!-- Node38&#45;&gt;Node19 -->
<g id="edge64" class="edge">
<title>Node38&#45;&gt;Node19</title>
<path fill="none" stroke="midnightblue" d="M1181.76,-310.56C1242.22,-308.12 1336.83,-298.72 1411.5,-266 1472.4,-239.31 1529.82,-183.34 1555.87,-155.68"/>
<polygon fill="midnightblue" stroke="midnightblue" points="1558.69,-157.78 1562.91,-148.07 1553.55,-153.03 1558.69,-157.78"/>
</g>
<!-- Node38&#45;&gt;Node27 -->
<g id="edge63" class="edge">
<title>Node38&#45;&gt;Node27</title>
<path fill="none" stroke="midnightblue" d="M1103.44,-302.42C1086.56,-294.06 1060.96,-280.53 1040.5,-266 994.19,-233.12 946,-187.31 919.37,-160.79"/>
<polygon fill="midnightblue" stroke="midnightblue" points="921.67,-158.15 912.13,-153.54 916.71,-163.09 921.67,-158.15"/>
</g>
<!-- Node39 -->
<g id="node39" class="node">
<title>Node39</title>
<g id="a_node39"><a xlink:href="skybox_8h.html" target="_top" xlink:title=" ">
<polygon fill="white" stroke="black" points="1049.5,-246.5 1049.5,-265.5 1193.5,-265.5 1193.5,-246.5 1049.5,-246.5"/>
<text text-anchor="middle" x="1121.5" y="-253.5" font-family="Helvetica,sans-Serif" font-size="10.00">graphics/lighting/skybox.h</text>
</a>
</g>
</g>
<!-- Node38&#45;&gt;Node39 -->
<g id="edge65" class="edge">
<title>Node38&#45;&gt;Node39</title>
<path fill="none" stroke="midnightblue" d="M1121.5,-302.08C1121.5,-295.01 1121.5,-284.86 1121.5,-275.99"/>
<polygon fill="midnightblue" stroke="midnightblue" points="1125,-275.75 1121.5,-265.75 1118,-275.75 1125,-275.75"/>
</g>
<!-- Node39&#45;&gt;Node19 -->
<g id="edge68" class="edge">
<title>Node39&#45;&gt;Node19</title>
<path fill="none" stroke="midnightblue" d="M1171.66,-246.49C1217.29,-238.37 1286.33,-225.17 1345.5,-210 1414.11,-192.41 1492.76,-166.39 1536.53,-151.38"/>
<polygon fill="midnightblue" stroke="midnightblue" points="1537.79,-154.64 1546.11,-148.08 1535.51,-148.03 1537.79,-154.64"/>
</g>
<!-- Node39&#45;&gt;Node27 -->
<g id="edge69" class="edge">
<title>Node39&#45;&gt;Node27</title>
<path fill="none" stroke="midnightblue" d="M1107.03,-246.46C1085.25,-233.71 1042.64,-209.14 1005.5,-190 983.75,-178.79 959.07,-167.08 938.9,-157.76"/>
<polygon fill="midnightblue" stroke="midnightblue" points="940.23,-154.52 929.68,-153.52 937.31,-160.88 940.23,-154.52"/>
</g>
<!-- Node39&#45;&gt;Node29 -->
<g id="edge66" class="edge">
<title>Node39&#45;&gt;Node29</title>
<path fill="none" stroke="midnightblue" d="M1181.34,-246.46C1280.18,-231.71 1483.35,-198.71 1651.5,-154 1732.83,-132.38 1826.69,-101.1 1875.7,-84.28"/>
<polygon fill="midnightblue" stroke="midnightblue" points="1876.86,-87.58 1885.17,-81.01 1874.58,-80.96 1876.86,-87.58"/>
</g>
<!-- Node39&#45;&gt;Node31 -->
<g id="edge67" class="edge">
<title>Node39&#45;&gt;Node31</title>
<path fill="none" stroke="midnightblue" d="M1055.58,-246.44C980.38,-236.68 857.7,-220.76 779.34,-210.59"/>
<polygon fill="midnightblue" stroke="midnightblue" points="779.43,-207.07 769.06,-209.25 778.53,-214.01 779.43,-207.07"/>
</g>
</g>
</svg>
