<?xml version="1.0" encoding="UTF-8" standalone="no"?>
<!DOCTYPE svg PUBLIC "-//W3C//DTD SVG 1.1//EN"
 "http://www.w3.org/Graphics/SVG/1.1/DTD/svg11.dtd">
<!-- Generated by graphviz version 2.43.0 (0)
 -->
<!-- Title: src/scene/scene_manager.h Pages: 1 -->
<svg width="430pt" height="140pt"
 viewBox="0.00 0.00 430.00 140.00" xmlns="http://www.w3.org/2000/svg" xmlns:xlink="http://www.w3.org/1999/xlink">
<g id="graph0" class="graph" transform="scale(1 1) rotate(0) translate(4 136)">
<title>src/scene/scene_manager.h</title>
<polygon fill="white" stroke="transparent" points="-4,4 -4,-136 426,-136 426,4 -4,4"/>
<!-- Node1 -->
<g id="node1" class="node">
<title>Node1</title>
<g id="a_node1"><a xlink:title=" ">
<polygon fill="#bfbfbf" stroke="black" points="68.5,-112.5 68.5,-131.5 219.5,-131.5 219.5,-112.5 68.5,-112.5"/>
<text text-anchor="middle" x="144" y="-119.5" font-family="Helvetica,sans-Serif" font-size="10.00">src/scene/scene_manager.h</text>
</a>
</g>
</g>
<!-- Node2 -->
<g id="node2" class="node">
<title>Node2</title>
<g id="a_node2"><a xlink:title=" ">
<polygon fill="white" stroke="#bfbfbf" points="0,-56.5 0,-75.5 58,-75.5 58,-56.5 0,-56.5"/>
<text text-anchor="middle" x="29" y="-63.5" font-family="Helvetica,sans-Serif" font-size="10.00">memory</text>
</a>
</g>
</g>
<!-- Node1&#45;&gt;Node2 -->
<g id="edge1" class="edge">
<title>Node1&#45;&gt;Node2</title>
<path fill="none" stroke="midnightblue" d="M125.78,-112.44C107.1,-103.68 77.84,-89.94 56.38,-79.86"/>
<polygon fill="midnightblue" stroke="midnightblue" points="57.68,-76.6 47.14,-75.52 54.7,-82.93 57.68,-76.6"/>
</g>
<!-- Node3 -->
<g id="node3" class="node">
<title>Node3</title>
<g id="a_node3"><a xlink:title=" ">
<polygon fill="white" stroke="#bfbfbf" points="171,-0.5 171,-19.5 219,-19.5 219,-0.5 171,-0.5"/>
<text text-anchor="middle" x="195" y="-7.5" font-family="Helvetica,sans-Serif" font-size="10.00">flecs.h</text>
</a>
</g>
</g>
<!-- Node1&#45;&gt;Node3 -->
<g id="edge2" class="edge">
<title>Node1&#45;&gt;Node3</title>
<path fill="none" stroke="midnightblue" d="M132.18,-112.33C116.62,-99.83 92.62,-76.04 105,-56 117.18,-36.3 140.89,-24.93 160.91,-18.55"/>
<polygon fill="midnightblue" stroke="midnightblue" points="162.04,-21.87 170.67,-15.73 160.1,-15.15 162.04,-21.87"/>
</g>
<!-- Node4 -->
<g id="node4" class="node">
<title>Node4</title>
<g id="a_node4"><a xlink:title=" ">
<polygon fill="white" stroke="#bfbfbf" points="114.5,-56.5 114.5,-75.5 173.5,-75.5 173.5,-56.5 114.5,-56.5"/>
<text text-anchor="middle" x="144" y="-63.5" font-family="Helvetica,sans-Serif" font-size="10.00">log/log.h</text>
</a>
</g>
</g>
<!-- Node1&#45;&gt;Node4 -->
<g id="edge3" class="edge">
<title>Node1&#45;&gt;Node4</title>
<path fill="none" stroke="midnightblue" d="M144,-112.08C144,-105.01 144,-94.86 144,-85.99"/>
<polygon fill="midnightblue" stroke="midnightblue" points="147.5,-85.75 144,-75.75 140.5,-85.75 147.5,-85.75"/>
</g>
<!-- Node5 -->
<g id="node5" class="node">
<title>Node5</title>
<g id="a_node5"><a xlink:title=" ">
<polygon fill="white" stroke="#bfbfbf" points="192,-56.5 192,-75.5 308,-75.5 308,-56.5 192,-56.5"/>
<text text-anchor="middle" x="250" y="-63.5" font-family="Helvetica,sans-Serif" font-size="10.00">common/singleton.h</text>
</a>
</g>
</g>
<!-- Node1&#45;&gt;Node5 -->
<g id="edge4" class="edge">
<title>Node1&#45;&gt;Node5</title>
<path fill="none" stroke="midnightblue" d="M161.03,-112.32C178.03,-103.66 204.38,-90.24 223.99,-80.25"/>
<polygon fill="midnightblue" stroke="midnightblue" points="225.69,-83.31 233.01,-75.65 222.51,-77.08 225.69,-83.31"/>
</g>
<!-- Node6 -->
<g id="node6" class="node">
<title>Node6</title>
<g id="a_node6"><a xlink:href="scene_8h.html" target="_top" xlink:title=" ">
<polygon fill="white" stroke="black" points="326,-56.5 326,-75.5 412,-75.5 412,-56.5 326,-56.5"/>
<text text-anchor="middle" x="369" y="-63.5" font-family="Helvetica,sans-Serif" font-size="10.00">scene/scene.h</text>
</a>
</g>
</g>
<!-- Node1&#45;&gt;Node6 -->
<g id="edge5" class="edge">
<title>Node1&#45;&gt;Node6</title>
<path fill="none" stroke="midnightblue" d="M179.65,-112.44C218.66,-103.08 281.27,-88.06 323.72,-77.87"/>
<polygon fill="midnightblue" stroke="midnightblue" points="324.61,-81.25 333.51,-75.52 322.97,-74.45 324.61,-81.25"/>
</g>
<!-- Node6&#45;&gt;Node3 -->
<g id="edge8" class="edge">
<title>Node6&#45;&gt;Node3</title>
<path fill="none" stroke="midnightblue" d="M341.43,-56.44C310.86,-46.96 261.54,-31.65 228.7,-21.46"/>
<polygon fill="midnightblue" stroke="midnightblue" points="229.67,-18.09 219.08,-18.47 227.59,-24.78 229.67,-18.09"/>
</g>
<!-- Node7 -->
<g id="node7" class="node">
<title>Node7</title>
<g id="a_node7"><a xlink:title=" ">
<polygon fill="white" stroke="#bfbfbf" points="314.5,-0.5 314.5,-19.5 359.5,-19.5 359.5,-0.5 314.5,-0.5"/>
<text text-anchor="middle" x="337" y="-7.5" font-family="Helvetica,sans-Serif" font-size="10.00">utility</text>
</a>
</g>
</g>
<!-- Node6&#45;&gt;Node7 -->
<g id="edge6" class="edge">
<title>Node6&#45;&gt;Node7</title>
<path fill="none" stroke="midnightblue" d="M363.72,-56.08C359.29,-48.61 352.84,-37.72 347.38,-28.52"/>
<polygon fill="midnightblue" stroke="midnightblue" points="350.29,-26.57 342.19,-19.75 344.27,-30.14 350.29,-26.57"/>
</g>
<!-- Node8 -->
<g id="node8" class="node">
<title>Node8</title>
<g id="a_node8"><a xlink:title=" ">
<polygon fill="white" stroke="#bfbfbf" points="378,-0.5 378,-19.5 422,-19.5 422,-0.5 378,-0.5"/>
<text text-anchor="middle" x="400" y="-7.5" font-family="Helvetica,sans-Serif" font-size="10.00">string</text>
</a>
</g>
</g>
<!-- Node6&#45;&gt;Node8 -->
<g id="edge7" class="edge">
<title>Node6&#45;&gt;Node8</title>
<path fill="none" stroke="midnightblue" d="M374.12,-56.08C378.41,-48.61 384.66,-37.72 389.94,-28.52"/>
<polygon fill="midnightblue" stroke="midnightblue" points="393.03,-30.17 394.98,-19.75 386.96,-26.68 393.03,-30.17"/>
</g>
</g>
</svg>
