<?xml version="1.0" encoding="UTF-8" standalone="no"?>
<!DOCTYPE svg PUBLIC "-//W3C//DTD SVG 1.1//EN"
 "http://www.w3.org/Graphics/SVG/1.1/DTD/svg11.dtd">
<!-- Generated by graphviz version 2.43.0 (0)
 -->
<!-- Title: src/input/sdl_to_keycode.h Pages: 1 -->
<svg width="554pt" height="140pt"
 viewBox="0.00 0.00 554.44 140.00" xmlns="http://www.w3.org/2000/svg" xmlns:xlink="http://www.w3.org/1999/xlink">
<g id="graph0" class="graph" transform="scale(1 1) rotate(0) translate(4 136)">
<title>src/input/sdl_to_keycode.h</title>
<polygon fill="white" stroke="transparent" points="-4,4 -4,-136 550.44,-136 550.44,4 -4,4"/>
<!-- Node1 -->
<g id="node1" class="node">
<title>Node1</title>
<g id="a_node1"><a xlink:title=" ">
<polygon fill="#bfbfbf" stroke="black" points="136.44,-112.5 136.44,-131.5 282.44,-131.5 282.44,-112.5 136.44,-112.5"/>
<text text-anchor="middle" x="209.44" y="-119.5" font-family="Helvetica,sans-Serif" font-size="10.00">src/input/sdl_to_keycode.h</text>
</a>
</g>
</g>
<!-- Node2 -->
<g id="node2" class="node">
<title>Node2</title>
<g id="a_node2"><a xlink:title=" ">
<polygon fill="white" stroke="#bfbfbf" points="219.44,-0.5 219.44,-19.5 269.44,-19.5 269.44,-0.5 219.44,-0.5"/>
<text text-anchor="middle" x="244.44" y="-7.5" font-family="Helvetica,sans-Serif" font-size="10.00">cstdint</text>
</a>
</g>
</g>
<!-- Node1&#45;&gt;Node2 -->
<g id="edge1" class="edge">
<title>Node1&#45;&gt;Node2</title>
<path fill="none" stroke="midnightblue" d="M136.39,-119.77C64.67,-115.93 -28.83,-102.29 9.44,-56 34.41,-25.8 150.22,-15.67 209.41,-12.43"/>
<polygon fill="midnightblue" stroke="midnightblue" points="209.61,-15.93 219.42,-11.92 209.26,-8.94 209.61,-15.93"/>
</g>
<!-- Node3 -->
<g id="node3" class="node">
<title>Node3</title>
<g id="a_node3"><a xlink:title=" ">
<polygon fill="white" stroke="#bfbfbf" points="18.44,-56.5 18.44,-75.5 136.44,-75.5 136.44,-56.5 18.44,-56.5"/>
<text text-anchor="middle" x="77.44" y="-63.5" font-family="Helvetica,sans-Serif" font-size="10.00">SDL2/SDL_keycode.h</text>
</a>
</g>
</g>
<!-- Node1&#45;&gt;Node3 -->
<g id="edge2" class="edge">
<title>Node1&#45;&gt;Node3</title>
<path fill="none" stroke="midnightblue" d="M188.52,-112.44C166.7,-103.52 132.29,-89.44 107.55,-79.32"/>
<polygon fill="midnightblue" stroke="midnightblue" points="108.84,-76.06 98.26,-75.52 106.19,-82.54 108.84,-76.06"/>
</g>
<!-- Node4 -->
<g id="node4" class="node">
<title>Node4</title>
<g id="a_node4"><a xlink:title=" ">
<polygon fill="white" stroke="#bfbfbf" points="154.44,-56.5 154.44,-75.5 264.44,-75.5 264.44,-56.5 154.44,-56.5"/>
<text text-anchor="middle" x="209.44" y="-63.5" font-family="Helvetica,sans-Serif" font-size="10.00">SDL2/SDL_mouse.h</text>
</a>
</g>
</g>
<!-- Node1&#45;&gt;Node4 -->
<g id="edge3" class="edge">
<title>Node1&#45;&gt;Node4</title>
<path fill="none" stroke="midnightblue" d="M209.44,-112.08C209.44,-105.01 209.44,-94.86 209.44,-85.99"/>
<polygon fill="midnightblue" stroke="midnightblue" points="212.94,-85.75 209.44,-75.75 205.94,-85.75 212.94,-85.75"/>
</g>
<!-- Node5 -->
<g id="node5" class="node">
<title>Node5</title>
<g id="a_node5"><a xlink:title=" ">
<polygon fill="white" stroke="#bfbfbf" points="282.94,-56.5 282.94,-75.5 433.94,-75.5 433.94,-56.5 282.94,-56.5"/>
<text text-anchor="middle" x="358.44" y="-63.5" font-family="Helvetica,sans-Serif" font-size="10.00">SDL2/SDL_gamecontroller.h</text>
</a>
</g>
</g>
<!-- Node1&#45;&gt;Node5 -->
<g id="edge4" class="edge">
<title>Node1&#45;&gt;Node5</title>
<path fill="none" stroke="midnightblue" d="M233.05,-112.44C257.9,-103.44 297.21,-89.19 325.19,-79.05"/>
<polygon fill="midnightblue" stroke="midnightblue" points="326.73,-82.21 334.94,-75.52 324.35,-75.63 326.73,-82.21"/>
</g>
<!-- Node6 -->
<g id="node6" class="node">
<title>Node6</title>
<g id="a_node6"><a xlink:href="keycode_8h.html" target="_top" xlink:title=" ">
<polygon fill="white" stroke="black" points="452.44,-56.5 452.44,-75.5 546.44,-75.5 546.44,-56.5 452.44,-56.5"/>
<text text-anchor="middle" x="499.44" y="-63.5" font-family="Helvetica,sans-Serif" font-size="10.00">input/keycode.h</text>
</a>
</g>
</g>
<!-- Node1&#45;&gt;Node6 -->
<g id="edge5" class="edge">
<title>Node1&#45;&gt;Node6</title>
<path fill="none" stroke="midnightblue" d="M255.39,-112.44C306.51,-102.92 389.09,-87.55 443.82,-77.36"/>
<polygon fill="midnightblue" stroke="midnightblue" points="444.51,-80.79 453.7,-75.52 443.23,-73.91 444.51,-80.79"/>
</g>
<!-- Node6&#45;&gt;Node2 -->
<g id="edge6" class="edge">
<title>Node6&#45;&gt;Node2</title>
<path fill="none" stroke="midnightblue" d="M459.03,-56.44C409.55,-45.96 326.54,-28.39 279.59,-18.44"/>
<polygon fill="midnightblue" stroke="midnightblue" points="280.09,-14.97 269.58,-16.32 278.64,-21.82 280.09,-14.97"/>
</g>
</g>
</svg>
