<?xml version="1.0" encoding="UTF-8" standalone="no"?>
<!DOCTYPE svg PUBLIC "-//W3C//DTD SVG 1.1//EN"
 "http://www.w3.org/Graphics/SVG/1.1/DTD/svg11.dtd">
<!-- Generated by graphviz version 2.43.0 (0)
 -->
<!-- Title: src/application/sdl_message_pump.cpp Pages: 1 -->
<!--zoomable 285 -->
<svg id="main" version="1.1" xmlns="http://www.w3.org/2000/svg" xmlns:xlink="http://www.w3.org/1999/xlink" xml:space="preserve" onload="init(evt)">
<style type="text/css"><![CDATA[
.edge:hover path { stroke: red; }
.edge:hover polygon { stroke: red; fill: red; }
]]></style>
<script type="text/javascript"><![CDATA[
var edges = document.getElementsByTagName('g');
if (edges && edges.length) {
  for (var i=0;i<edges.length;i++) {
    if (edges[i].id.substr(0,4)=='edge') {
      edges[i].setAttribute('class','edge');
    }
  }
}
]]></script>
        <defs>
                <circle id="rim" cx="0" cy="0" r="7"/>
                <circle id="rim2" cx="0" cy="0" r="3.5"/>
                <g id="zoomPlus">
                        <use xlink:href="#rim" fill="#404040">
                                <set attributeName="fill" to="#808080" begin="zoomplus.mouseover" end="zoomplus.mouseout"/>
                        </use>
                        <path d="M-4,0h8M0,-4v8" fill="none" stroke="white" stroke-width="1.5" pointer-events="none"/>
                </g>
                <g id="zoomMin">
                        <use xlink:href="#rim" fill="#404040">
                                <set attributeName="fill" to="#808080" begin="zoomminus.mouseover" end="zoomminus.mouseout"/>
                        </use>
                        <path d="M-4,0h8" fill="none" stroke="white" stroke-width="1.5" pointer-events="none"/>
                </g>
                <g id="dirArrow">
                        <path fill="none" stroke="white" stroke-width="1.5" d="M0,-3.0v7 M-2.5,-0.5L0,-3.0L2.5,-0.5"/>
                </g>
               <g id="resetDef">
                       <use xlink:href="#rim2" fill="#404040">
                               <set attributeName="fill" to="#808080" begin="reset.mouseover" end="reset.mouseout"/>
                       </use>
               </g>
        </defs>

<script type="text/javascript">
var viewWidth = 1432;
var viewHeight = 285;
var sectionId = 'dynsection-0';
</script>
<script xlink:href="svgpan.js"/>
<svg id="graph" class="graph">
<g id="viewport">
<title>src/application/sdl_message_pump.cpp</title>
<polygon fill="white" stroke="transparent" points="-4,4 -4,-281 1428.43,-281 1428.43,4 -4,4"/>
<!-- Node1 -->
<g id="node1" class="node">
<title>Node1</title>
<g id="a_node1"><a xlink:title=" ">
<polygon fill="#bfbfbf" stroke="black" points="419.93,-246.5 419.93,-276.5 538.93,-276.5 538.93,-246.5 419.93,-246.5"/>
<text text-anchor="start" x="427.93" y="-264.5" font-family="Helvetica,sans-Serif" font-size="10.00">src/application/sdl</text>
<text text-anchor="middle" x="479.43" y="-253.5" font-family="Helvetica,sans-Serif" font-size="10.00">_message_pump.cpp</text>
</a>
</g>
</g>
<!-- Node2 -->
<g id="node2" class="node">
<title>Node2</title>
<g id="a_node2"><a xlink:href="log_8h.html" target="_top" xlink:title=" ">
<polygon fill="white" stroke="black" points="207.93,-185 207.93,-204 266.93,-204 266.93,-185 207.93,-185"/>
<text text-anchor="middle" x="237.43" y="-192" font-family="Helvetica,sans-Serif" font-size="10.00">log/log.h</text>
</a>
</g>
</g>
<!-- Node1&#45;&gt;Node2 -->
<g id="edge1" class="edge">
<title>Node1&#45;&gt;Node2</title>
<path fill="none" stroke="midnightblue" d="M427.22,-246.48C382.13,-234.37 317.96,-217.13 277.01,-206.13"/>
<polygon fill="midnightblue" stroke="midnightblue" points="277.68,-202.69 267.12,-203.47 275.87,-209.45 277.68,-202.69"/>
</g>
<!-- Node9 -->
<g id="node9" class="node">
<title>Node9</title>
<g id="a_node9"><a xlink:href="sdl__message__pump_8h.html" target="_top" xlink:title=" ">
<polygon fill="white" stroke="black" points="653.93,-179.5 653.93,-209.5 790.93,-209.5 790.93,-179.5 653.93,-179.5"/>
<text text-anchor="start" x="661.93" y="-197.5" font-family="Helvetica,sans-Serif" font-size="10.00">application/sdl_message</text>
<text text-anchor="middle" x="722.43" y="-186.5" font-family="Helvetica,sans-Serif" font-size="10.00">_pump.h</text>
</a>
</g>
</g>
<!-- Node1&#45;&gt;Node9 -->
<g id="edge8" class="edge">
<title>Node1&#45;&gt;Node9</title>
<path fill="none" stroke="midnightblue" d="M531.86,-246.48C569.42,-236.43 620.16,-222.86 659.84,-212.24"/>
<polygon fill="midnightblue" stroke="midnightblue" points="660.92,-215.58 669.68,-209.61 659.11,-208.81 660.92,-215.58"/>
</g>
<!-- Node3 -->
<g id="node3" class="node">
<title>Node3</title>
<g id="a_node3"><a xlink:title=" ">
<polygon fill="white" stroke="#bfbfbf" points="537.93,-0.5 537.93,-19.5 582.93,-19.5 582.93,-0.5 537.93,-0.5"/>
<text text-anchor="middle" x="560.43" y="-7.5" font-family="Helvetica,sans-Serif" font-size="10.00">utility</text>
</a>
</g>
</g>
<!-- Node2&#45;&gt;Node3 -->
<g id="edge2" class="edge">
<title>Node2&#45;&gt;Node3</title>
<path fill="none" stroke="midnightblue" d="M207.72,-192.95C134.54,-190.57 -44.58,-178.03 10.43,-112 77.19,-31.86 419.35,-15.1 527.57,-11.78"/>
<polygon fill="midnightblue" stroke="midnightblue" points="527.98,-15.27 537.87,-11.48 527.78,-8.27 527.98,-15.27"/>
</g>
<!-- Node4 -->
<g id="node4" class="node">
<title>Node4</title>
<g id="a_node4"><a xlink:title=" ">
<polygon fill="white" stroke="#bfbfbf" points="19.43,-118 19.43,-137 63.43,-137 63.43,-118 19.43,-118"/>
<text text-anchor="middle" x="41.43" y="-125" font-family="Helvetica,sans-Serif" font-size="10.00">string</text>
</a>
</g>
</g>
<!-- Node2&#45;&gt;Node4 -->
<g id="edge3" class="edge">
<title>Node2&#45;&gt;Node4</title>
<path fill="none" stroke="midnightblue" d="M207.8,-185.78C174.44,-176.79 118.84,-160.86 72.43,-143 71.01,-142.45 69.56,-141.87 68.11,-141.27"/>
<polygon fill="midnightblue" stroke="midnightblue" points="69.18,-137.91 58.62,-137.07 66.35,-144.31 69.18,-137.91"/>
</g>
<!-- Node5 -->
<g id="node5" class="node">
<title>Node5</title>
<g id="a_node5"><a xlink:title=" ">
<polygon fill="white" stroke="#bfbfbf" points="81.93,-118 81.93,-137 174.93,-137 174.93,-118 81.93,-118"/>
<text text-anchor="middle" x="128.43" y="-125" font-family="Helvetica,sans-Serif" font-size="10.00">spdlog/spdlog.h</text>
</a>
</g>
</g>
<!-- Node2&#45;&gt;Node5 -->
<g id="edge4" class="edge">
<title>Node2&#45;&gt;Node5</title>
<path fill="none" stroke="midnightblue" d="M222.73,-184.73C204.51,-173.87 173.23,-155.22 151.73,-142.39"/>
<polygon fill="midnightblue" stroke="midnightblue" points="153.28,-139.24 142.9,-137.13 149.69,-145.26 153.28,-139.24"/>
</g>
<!-- Node6 -->
<g id="node6" class="node">
<title>Node6</title>
<g id="a_node6"><a xlink:title=" ">
<polygon fill="white" stroke="#bfbfbf" points="192.93,-118 192.93,-137 281.93,-137 281.93,-118 192.93,-118"/>
<text text-anchor="middle" x="237.43" y="-125" font-family="Helvetica,sans-Serif" font-size="10.00">spdlog/async.h</text>
</a>
</g>
</g>
<!-- Node2&#45;&gt;Node6 -->
<g id="edge5" class="edge">
<title>Node2&#45;&gt;Node6</title>
<path fill="none" stroke="midnightblue" d="M237.43,-184.73C237.43,-175.18 237.43,-159.62 237.43,-147.28"/>
<polygon fill="midnightblue" stroke="midnightblue" points="240.93,-147.13 237.43,-137.13 233.93,-147.13 240.93,-147.13"/>
</g>
<!-- Node7 -->
<g id="node7" class="node">
<title>Node7</title>
<g id="a_node7"><a xlink:title=" ">
<polygon fill="white" stroke="#bfbfbf" points="299.93,-112.5 299.93,-142.5 418.93,-142.5 418.93,-112.5 299.93,-112.5"/>
<text text-anchor="start" x="307.93" y="-130.5" font-family="Helvetica,sans-Serif" font-size="10.00">spdlog/sinks/rotating</text>
<text text-anchor="middle" x="359.43" y="-119.5" font-family="Helvetica,sans-Serif" font-size="10.00">_file_sink.h</text>
</a>
</g>
</g>
<!-- Node2&#45;&gt;Node7 -->
<g id="edge6" class="edge">
<title>Node2&#45;&gt;Node7</title>
<path fill="none" stroke="midnightblue" d="M253.63,-184.87C271.48,-175.36 300.75,-159.77 323.98,-147.39"/>
<polygon fill="midnightblue" stroke="midnightblue" points="325.69,-150.44 332.87,-142.65 322.4,-144.26 325.69,-150.44"/>
</g>
<!-- Node8 -->
<g id="node8" class="node">
<title>Node8</title>
<g id="a_node8"><a xlink:title=" ">
<polygon fill="white" stroke="#bfbfbf" points="436.93,-112.5 436.93,-142.5 547.93,-142.5 547.93,-112.5 436.93,-112.5"/>
<text text-anchor="start" x="444.93" y="-130.5" font-family="Helvetica,sans-Serif" font-size="10.00">spdlog/sinks/stdout</text>
<text text-anchor="middle" x="492.43" y="-119.5" font-family="Helvetica,sans-Serif" font-size="10.00">_color_sinks.h</text>
</a>
</g>
</g>
<!-- Node2&#45;&gt;Node8 -->
<g id="edge7" class="edge">
<title>Node2&#45;&gt;Node8</title>
<path fill="none" stroke="midnightblue" d="M266.93,-185.98C305.97,-176.03 375.89,-158.21 427.55,-145.04"/>
<polygon fill="midnightblue" stroke="midnightblue" points="428.48,-148.41 437.3,-142.55 426.75,-141.63 428.48,-148.41"/>
</g>
<!-- Node10 -->
<g id="node10" class="node">
<title>Node10</title>
<g id="a_node10"><a xlink:title=" ">
<polygon fill="white" stroke="#bfbfbf" points="566.43,-118 566.43,-137 614.43,-137 614.43,-118 566.43,-118"/>
<text text-anchor="middle" x="590.43" y="-125" font-family="Helvetica,sans-Serif" font-size="10.00">mutex</text>
</a>
</g>
</g>
<!-- Node9&#45;&gt;Node10 -->
<g id="edge9" class="edge">
<title>Node9&#45;&gt;Node10</title>
<path fill="none" stroke="midnightblue" d="M693.79,-179.4C670.93,-168.14 639.17,-152.5 616.91,-141.54"/>
<polygon fill="midnightblue" stroke="midnightblue" points="618.22,-138.28 607.71,-137.01 615.13,-144.56 618.22,-138.28"/>
</g>
<!-- Node11 -->
<g id="node11" class="node">
<title>Node11</title>
<g id="a_node11"><a xlink:title=" ">
<polygon fill="white" stroke="#bfbfbf" points="632.93,-118 632.93,-137 679.93,-137 679.93,-118 632.93,-118"/>
<text text-anchor="middle" x="656.43" y="-125" font-family="Helvetica,sans-Serif" font-size="10.00">queue</text>
</a>
</g>
</g>
<!-- Node9&#45;&gt;Node11 -->
<g id="edge10" class="edge">
<title>Node9&#45;&gt;Node11</title>
<path fill="none" stroke="midnightblue" d="M708.11,-179.4C697.61,-169.06 683.36,-155.02 672.48,-144.31"/>
<polygon fill="midnightblue" stroke="midnightblue" points="674.84,-141.72 665.26,-137.19 669.93,-146.71 674.84,-141.72"/>
</g>
<!-- Node12 -->
<g id="node12" class="node">
<title>Node12</title>
<g id="a_node12"><a xlink:title=" ">
<polygon fill="white" stroke="#bfbfbf" points="698.43,-118 698.43,-137 746.43,-137 746.43,-118 698.43,-118"/>
<text text-anchor="middle" x="722.43" y="-125" font-family="Helvetica,sans-Serif" font-size="10.00">thread</text>
</a>
</g>
</g>
<!-- Node9&#45;&gt;Node12 -->
<g id="edge11" class="edge">
<title>Node9&#45;&gt;Node12</title>
<path fill="none" stroke="midnightblue" d="M722.43,-179.4C722.43,-170.06 722.43,-157.71 722.43,-147.52"/>
<polygon fill="midnightblue" stroke="midnightblue" points="725.93,-147.19 722.43,-137.19 718.93,-147.19 725.93,-147.19"/>
</g>
<!-- Node13 -->
<g id="node13" class="node">
<title>Node13</title>
<g id="a_node13"><a xlink:title=" ">
<polygon fill="white" stroke="#bfbfbf" points="764.43,-118 764.43,-137 836.43,-137 836.43,-118 764.43,-118"/>
<text text-anchor="middle" x="800.43" y="-125" font-family="Helvetica,sans-Serif" font-size="10.00">SDL2/SDL.h</text>
</a>
</g>
</g>
<!-- Node9&#45;&gt;Node13 -->
<g id="edge12" class="edge">
<title>Node9&#45;&gt;Node13</title>
<path fill="none" stroke="midnightblue" d="M739.36,-179.4C752,-168.86 769.26,-154.48 782.2,-143.69"/>
<polygon fill="midnightblue" stroke="midnightblue" points="784.56,-146.29 790,-137.19 780.07,-140.91 784.56,-146.29"/>
</g>
<!-- Node14 -->
<g id="node14" class="node">
<title>Node14</title>
<g id="a_node14"><a xlink:title=" ">
<polygon fill="white" stroke="#bfbfbf" points="854.43,-118 854.43,-137 970.43,-137 970.43,-118 854.43,-118"/>
<text text-anchor="middle" x="912.43" y="-125" font-family="Helvetica,sans-Serif" font-size="10.00">common/singleton.h</text>
</a>
</g>
</g>
<!-- Node9&#45;&gt;Node14 -->
<g id="edge13" class="edge">
<title>Node9&#45;&gt;Node14</title>
<path fill="none" stroke="midnightblue" d="M763.66,-179.4C797.73,-167.74 845.57,-151.37 877.72,-140.38"/>
<polygon fill="midnightblue" stroke="midnightblue" points="879.23,-143.56 887.56,-137.01 876.97,-136.93 879.23,-143.56"/>
</g>
<!-- Node15 -->
<g id="node15" class="node">
<title>Node15</title>
<g id="a_node15"><a xlink:href="event__dispatcher_8h.html" target="_top" xlink:title=" ">
<polygon fill="white" stroke="black" points="988.43,-118 988.43,-137 1128.43,-137 1128.43,-118 988.43,-118"/>
<text text-anchor="middle" x="1058.43" y="-125" font-family="Helvetica,sans-Serif" font-size="10.00">event/event_dispatcher.h</text>
</a>
</g>
</g>
<!-- Node9&#45;&gt;Node15 -->
<g id="edge14" class="edge">
<title>Node9&#45;&gt;Node15</title>
<path fill="none" stroke="midnightblue" d="M791.24,-180.19C854.27,-168 946.32,-150.19 1004.26,-138.98"/>
<polygon fill="midnightblue" stroke="midnightblue" points="1005.16,-142.37 1014.32,-137.03 1003.83,-135.5 1005.16,-142.37"/>
</g>
<!-- Node16 -->
<g id="node16" class="node">
<title>Node16</title>
<g id="a_node16"><a xlink:title=" ">
<polygon fill="white" stroke="#bfbfbf" points="742.43,-56.5 742.43,-75.5 800.43,-75.5 800.43,-56.5 742.43,-56.5"/>
<text text-anchor="middle" x="771.43" y="-63.5" font-family="Helvetica,sans-Serif" font-size="10.00">memory</text>
</a>
</g>
</g>
<!-- Node15&#45;&gt;Node16 -->
<g id="edge15" class="edge">
<title>Node15&#45;&gt;Node16</title>
<path fill="none" stroke="midnightblue" d="M1014.9,-117.99C967.36,-108.62 888.71,-92.88 810.79,-76.03"/>
<polygon fill="midnightblue" stroke="midnightblue" points="811.31,-72.56 800.8,-73.86 809.83,-79.4 811.31,-72.56"/>
</g>
<!-- Node17 -->
<g id="node17" class="node">
<title>Node17</title>
<g id="a_node17"><a xlink:title=" ">
<polygon fill="white" stroke="#bfbfbf" points="818.93,-56.5 818.93,-75.5 911.93,-75.5 911.93,-56.5 818.93,-56.5"/>
<text text-anchor="middle" x="865.43" y="-63.5" font-family="Helvetica,sans-Serif" font-size="10.00">unordered_map</text>
</a>
</g>
</g>
<!-- Node15&#45;&gt;Node17 -->
<g id="edge16" class="edge">
<title>Node15&#45;&gt;Node17</title>
<path fill="none" stroke="midnightblue" d="M1030.78,-117.98C997.24,-107.64 940.56,-90.16 903.06,-78.6"/>
<polygon fill="midnightblue" stroke="midnightblue" points="903.62,-75.11 893.03,-75.51 901.56,-81.8 903.62,-75.11"/>
</g>
<!-- Node18 -->
<g id="node18" class="node">
<title>Node18</title>
<g id="a_node18"><a xlink:title=" ">
<polygon fill="white" stroke="#bfbfbf" points="930.43,-56.5 930.43,-75.5 1016.43,-75.5 1016.43,-56.5 930.43,-56.5"/>
<text text-anchor="middle" x="973.43" y="-63.5" font-family="Helvetica,sans-Serif" font-size="10.00">unordered_set</text>
</a>
</g>
</g>
<!-- Node15&#45;&gt;Node18 -->
<g id="edge17" class="edge">
<title>Node15&#45;&gt;Node18</title>
<path fill="none" stroke="midnightblue" d="M1046.25,-117.98C1032.62,-108.43 1010.3,-92.81 993.96,-81.37"/>
<polygon fill="midnightblue" stroke="midnightblue" points="995.79,-78.38 985.59,-75.51 991.77,-84.11 995.79,-78.38"/>
</g>
<!-- Node19 -->
<g id="node19" class="node">
<title>Node19</title>
<g id="a_node19"><a xlink:title=" ">
<polygon fill="white" stroke="#bfbfbf" points="1034.93,-56.5 1034.93,-75.5 1081.93,-75.5 1081.93,-56.5 1034.93,-56.5"/>
<text text-anchor="middle" x="1058.43" y="-63.5" font-family="Helvetica,sans-Serif" font-size="10.00">vector</text>
</a>
</g>
</g>
<!-- Node15&#45;&gt;Node19 -->
<g id="edge18" class="edge">
<title>Node15&#45;&gt;Node19</title>
<path fill="none" stroke="midnightblue" d="M1058.43,-117.98C1058.43,-109.58 1058.43,-96.48 1058.43,-85.66"/>
<polygon fill="midnightblue" stroke="midnightblue" points="1061.93,-85.51 1058.43,-75.51 1054.93,-85.51 1061.93,-85.51"/>
</g>
<!-- Node20 -->
<g id="node20" class="node">
<title>Node20</title>
<g id="a_node20"><a xlink:title=" ">
<polygon fill="white" stroke="#bfbfbf" points="1099.93,-56.5 1099.93,-75.5 1206.93,-75.5 1206.93,-56.5 1099.93,-56.5"/>
<text text-anchor="middle" x="1153.43" y="-63.5" font-family="Helvetica,sans-Serif" font-size="10.00">common/type_id.h</text>
</a>
</g>
</g>
<!-- Node15&#45;&gt;Node20 -->
<g id="edge19" class="edge">
<title>Node15&#45;&gt;Node20</title>
<path fill="none" stroke="midnightblue" d="M1072.04,-117.98C1087.49,-108.3 1112.92,-92.37 1131.25,-80.89"/>
<polygon fill="midnightblue" stroke="midnightblue" points="1133.23,-83.78 1139.84,-75.51 1129.51,-77.85 1133.23,-83.78"/>
</g>
<!-- Node21 -->
<g id="node21" class="node">
<title>Node21</title>
<g id="a_node21"><a xlink:href="event__listener_8h.html" target="_top" xlink:title=" ">
<polygon fill="white" stroke="black" points="1224.93,-56.5 1224.93,-75.5 1349.93,-75.5 1349.93,-56.5 1224.93,-56.5"/>
<text text-anchor="middle" x="1287.43" y="-63.5" font-family="Helvetica,sans-Serif" font-size="10.00">event/event_listener.h</text>
</a>
</g>
</g>
<!-- Node15&#45;&gt;Node21 -->
<g id="edge20" class="edge">
<title>Node15&#45;&gt;Node21</title>
<path fill="none" stroke="midnightblue" d="M1091.24,-117.98C1131.63,-107.48 1200.31,-89.64 1244.76,-78.09"/>
<polygon fill="midnightblue" stroke="midnightblue" points="1245.88,-81.41 1254.68,-75.51 1244.12,-74.64 1245.88,-81.41"/>
</g>
<!-- Node21&#45;&gt;Node3 -->
<g id="edge23" class="edge">
<title>Node21&#45;&gt;Node3</title>
<path fill="none" stroke="midnightblue" d="M1224.73,-56.85C1221.93,-56.55 1219.15,-56.27 1216.43,-56 977.94,-32.72 689.5,-17.36 593.37,-12.59"/>
<polygon fill="midnightblue" stroke="midnightblue" points="593.29,-9.08 583.13,-12.08 592.94,-16.07 593.29,-9.08"/>
</g>
<!-- Node22 -->
<g id="node22" class="node">
<title>Node22</title>
<g id="a_node22"><a xlink:title=" ">
<polygon fill="white" stroke="#bfbfbf" points="1169.93,-0.5 1169.93,-19.5 1234.93,-19.5 1234.93,-0.5 1169.93,-0.5"/>
<text text-anchor="middle" x="1202.43" y="-7.5" font-family="Helvetica,sans-Serif" font-size="10.00">functional</text>
</a>
</g>
</g>
<!-- Node21&#45;&gt;Node22 -->
<g id="edge21" class="edge">
<title>Node21&#45;&gt;Node22</title>
<path fill="none" stroke="midnightblue" d="M1273.77,-56.32C1260.51,-47.9 1240.16,-34.97 1224.58,-25.07"/>
<polygon fill="midnightblue" stroke="midnightblue" points="1226.37,-22.06 1216.05,-19.65 1222.62,-27.97 1226.37,-22.06"/>
</g>
<!-- Node23 -->
<g id="node23" class="node">
<title>Node23</title>
<g id="a_node23"><a xlink:title=" ">
<polygon fill="white" stroke="#bfbfbf" points="1252.93,-0.5 1252.93,-19.5 1321.93,-19.5 1321.93,-0.5 1252.93,-0.5"/>
<text text-anchor="middle" x="1287.43" y="-7.5" font-family="Helvetica,sans-Serif" font-size="10.00">type_traits</text>
</a>
</g>
</g>
<!-- Node21&#45;&gt;Node23 -->
<g id="edge22" class="edge">
<title>Node21&#45;&gt;Node23</title>
<path fill="none" stroke="midnightblue" d="M1287.43,-56.08C1287.43,-49.01 1287.43,-38.86 1287.43,-29.99"/>
<polygon fill="midnightblue" stroke="midnightblue" points="1290.93,-29.75 1287.43,-19.75 1283.93,-29.75 1290.93,-29.75"/>
</g>
<!-- Node24 -->
<g id="node24" class="node">
<title>Node24</title>
<g id="a_node24"><a xlink:href="event_8h.html" target="_top" xlink:title=" ">
<polygon fill="white" stroke="black" points="1340.43,-0.5 1340.43,-19.5 1424.43,-19.5 1424.43,-0.5 1340.43,-0.5"/>
<text text-anchor="middle" x="1382.43" y="-7.5" font-family="Helvetica,sans-Serif" font-size="10.00">event/event.h</text>
</a>
</g>
</g>
<!-- Node21&#45;&gt;Node24 -->
<g id="edge24" class="edge">
<title>Node21&#45;&gt;Node24</title>
<path fill="none" stroke="midnightblue" d="M1302.69,-56.32C1317.65,-47.82 1340.69,-34.73 1358.16,-24.8"/>
<polygon fill="midnightblue" stroke="midnightblue" points="1360.24,-27.64 1367.2,-19.65 1356.78,-21.55 1360.24,-27.64"/>
</g>
</g>
</svg>
        <g id="navigator" transform="translate(0 0)" fill="#404254">
                <rect fill="#f2f5e9" fill-opacity="0.5" stroke="#606060" stroke-width=".5" x="0" y="0" width="60" height="60"/>
                <use id="zoomplus" xlink:href="#zoomPlus" x="17" y="9" onmousedown="handleZoom(evt,'in')"/>
                <use id="zoomminus" xlink:href="#zoomMin" x="42" y="9" onmousedown="handleZoom(evt,'out')"/>
                <use id="reset" xlink:href="#resetDef" x="30" y="36" onmousedown="handleReset()"/>
                <g id="arrowUp" xlink:href="#dirArrow" transform="translate(30 24)" onmousedown="handlePan(0,-1)">
                  <use xlink:href="#rim" fill="#404040">
                        <set attributeName="fill" to="#808080" begin="arrowUp.mouseover" end="arrowUp.mouseout"/>
                  </use>
                  <path fill="none" stroke="white" stroke-width="1.5" d="M0,-3.0v7 M-2.5,-0.5L0,-3.0L2.5,-0.5"/>
                </g>
                <g id="arrowRight" xlink:href="#dirArrow" transform="rotate(90) translate(36 -43)" onmousedown="handlePan(1,0)">
                  <use xlink:href="#rim" fill="#404040">
                        <set attributeName="fill" to="#808080" begin="arrowRight.mouseover" end="arrowRight.mouseout"/>
                  </use>
                  <path fill="none" stroke="white" stroke-width="1.5" d="M0,-3.0v7 M-2.5,-0.5L0,-3.0L2.5,-0.5"/>
                </g>
                <g id="arrowDown" xlink:href="#dirArrow" transform="rotate(180) translate(-30 -48)" onmousedown="handlePan(0,1)">
                  <use xlink:href="#rim" fill="#404040">
                        <set attributeName="fill" to="#808080" begin="arrowDown.mouseover" end="arrowDown.mouseout"/>
                  </use>
                  <path fill="none" stroke="white" stroke-width="1.5" d="M0,-3.0v7 M-2.5,-0.5L0,-3.0L2.5,-0.5"/>
                </g>
                <g id="arrowLeft" xlink:href="#dirArrow" transform="rotate(270) translate(-36 17)" onmousedown="handlePan(-1,0)">
                  <use xlink:href="#rim" fill="#404040">
                        <set attributeName="fill" to="#808080" begin="arrowLeft.mouseover" end="arrowLeft.mouseout"/>
                  </use>
                  <path fill="none" stroke="white" stroke-width="1.5" d="M0,-3.0v7 M-2.5,-0.5L0,-3.0L2.5,-0.5"/>
                </g>
        </g>
        <svg viewBox="0 0 15 15" width="100%" height="30px" preserveAspectRatio="xMaxYMin meet">
         <g id="arrow_out" transform="scale(0.3 0.3)">
          <a xlink:href="sdl__message__pump_8cpp__incl_org.svg" target="_base">
           <rect id="button" ry="5" rx="5" y="6" x="6" height="38" width="38"
                fill="#f2f5e9" fill-opacity="0.5" stroke="#606060" stroke-width="1.0"/>
           <path id="arrow"
             d="M 11.500037,31.436501 C 11.940474,20.09759 22.043105,11.32322 32.158766,21.979434 L 37.068811,17.246167 C 37.068811,17.246167 37.088388,32 37.088388,32 L 22.160133,31.978069 C 22.160133,31.978069 26.997745,27.140456 26.997745,27.140456 C 18.528582,18.264221 13.291696,25.230495 11.500037,31.436501 z"
             style="fill:#404040;"/>
          </a>
         </g>
        </svg>
</svg>
