<?xml version="1.0" encoding="UTF-8" standalone="no"?>
<!DOCTYPE svg PUBLIC "-//W3C//DTD SVG 1.1//EN"
 "http://www.w3.org/Graphics/SVG/1.1/DTD/svg11.dtd">
<!-- Generated by graphviz version 2.43.0 (0)
 -->
<!-- Title: src/graphics/shader_program.cpp Pages: 1 -->
<svg width="1006pt" height="263pt"
 viewBox="0.00 0.00 1005.50 263.00" xmlns="http://www.w3.org/2000/svg" xmlns:xlink="http://www.w3.org/1999/xlink">
<g id="graph0" class="graph" transform="scale(1 1) rotate(0) translate(4 259)">
<title>src/graphics/shader_program.cpp</title>
<polygon fill="white" stroke="transparent" points="-4,4 -4,-259 1001.5,-259 1001.5,4 -4,4"/>
<!-- Node1 -->
<g id="node1" class="node">
<title>Node1</title>
<g id="a_node1"><a xlink:title=" ">
<polygon fill="#bfbfbf" stroke="black" points="149.5,-224.5 149.5,-254.5 260.5,-254.5 260.5,-224.5 149.5,-224.5"/>
<text text-anchor="start" x="157.5" y="-242.5" font-family="Helvetica,sans-Serif" font-size="10.00">src/graphics/shader</text>
<text text-anchor="middle" x="205" y="-231.5" font-family="Helvetica,sans-Serif" font-size="10.00">_program.cpp</text>
</a>
</g>
</g>
<!-- Node2 -->
<g id="node2" class="node">
<title>Node2</title>
<g id="a_node2"><a xlink:title=" ">
<polygon fill="white" stroke="#bfbfbf" points="114.5,-168.5 114.5,-187.5 173.5,-187.5 173.5,-168.5 114.5,-168.5"/>
<text text-anchor="middle" x="144" y="-175.5" font-family="Helvetica,sans-Serif" font-size="10.00">log/log.h</text>
</a>
</g>
</g>
<!-- Node1&#45;&gt;Node2 -->
<g id="edge1" class="edge">
<title>Node1&#45;&gt;Node2</title>
<path fill="none" stroke="midnightblue" d="M190.54,-224.4C181.41,-215.49 169.58,-203.95 160.14,-194.74"/>
<polygon fill="midnightblue" stroke="midnightblue" points="162.48,-192.13 152.88,-187.66 157.59,-197.15 162.48,-192.13"/>
</g>
<!-- Node3 -->
<g id="node3" class="node">
<title>Node3</title>
<g id="a_node3"><a xlink:href="shader__program_8h.html" target="_top" xlink:title=" ">
<polygon fill="white" stroke="black" points="191.5,-168.5 191.5,-187.5 340.5,-187.5 340.5,-168.5 191.5,-168.5"/>
<text text-anchor="middle" x="266" y="-175.5" font-family="Helvetica,sans-Serif" font-size="10.00">graphics/shader_program.h</text>
</a>
</g>
</g>
<!-- Node1&#45;&gt;Node3 -->
<g id="edge2" class="edge">
<title>Node1&#45;&gt;Node3</title>
<path fill="none" stroke="midnightblue" d="M219.46,-224.4C228.59,-215.49 240.42,-203.95 249.86,-194.74"/>
<polygon fill="midnightblue" stroke="midnightblue" points="252.41,-197.15 257.12,-187.66 247.52,-192.13 252.41,-197.15"/>
</g>
<!-- Node4 -->
<g id="node4" class="node">
<title>Node4</title>
<g id="a_node4"><a xlink:title=" ">
<polygon fill="white" stroke="#bfbfbf" points="0,-112.5 0,-131.5 44,-131.5 44,-112.5 0,-112.5"/>
<text text-anchor="middle" x="22" y="-119.5" font-family="Helvetica,sans-Serif" font-size="10.00">string</text>
</a>
</g>
</g>
<!-- Node3&#45;&gt;Node4 -->
<g id="edge3" class="edge">
<title>Node3&#45;&gt;Node4</title>
<path fill="none" stroke="midnightblue" d="M220.9,-168.48C179.74,-160.48 117.05,-147.74 54.01,-132.12"/>
<polygon fill="midnightblue" stroke="midnightblue" points="54.85,-128.72 44.3,-129.69 53.15,-135.51 54.85,-128.72"/>
</g>
<!-- Node5 -->
<g id="node5" class="node">
<title>Node5</title>
<g id="a_node5"><a xlink:title=" ">
<polygon fill="white" stroke="#bfbfbf" points="62.5,-112.5 62.5,-131.5 109.5,-131.5 109.5,-112.5 62.5,-112.5"/>
<text text-anchor="middle" x="86" y="-119.5" font-family="Helvetica,sans-Serif" font-size="10.00">vector</text>
</a>
</g>
</g>
<!-- Node3&#45;&gt;Node5 -->
<g id="edge4" class="edge">
<title>Node3&#45;&gt;Node5</title>
<path fill="none" stroke="midnightblue" d="M237.48,-168.44C205.41,-158.82 153.38,-143.21 119.43,-133.03"/>
<polygon fill="midnightblue" stroke="midnightblue" points="120.1,-129.57 109.51,-130.05 118.08,-136.28 120.1,-129.57"/>
</g>
<!-- Node6 -->
<g id="node6" class="node">
<title>Node6</title>
<g id="a_node6"><a xlink:title=" ">
<polygon fill="white" stroke="#bfbfbf" points="425,-0.5 425,-19.5 489,-19.5 489,-0.5 425,-0.5"/>
<text text-anchor="middle" x="457" y="-7.5" font-family="Helvetica,sans-Serif" font-size="10.00">GL/glew.h</text>
</a>
</g>
</g>
<!-- Node3&#45;&gt;Node6 -->
<g id="edge5" class="edge">
<title>Node3&#45;&gt;Node6</title>
<path fill="none" stroke="midnightblue" d="M222.47,-168.42C183.85,-158.75 136.49,-140.54 157,-112 216.35,-29.39 346.71,-13.44 414.37,-10.94"/>
<polygon fill="midnightblue" stroke="midnightblue" points="414.77,-14.43 424.67,-10.65 414.57,-7.43 414.77,-14.43"/>
</g>
<!-- Node7 -->
<g id="node7" class="node">
<title>Node7</title>
<g id="a_node7"><a xlink:title=" ">
<polygon fill="white" stroke="#bfbfbf" points="166.5,-112.5 166.5,-131.5 255.5,-131.5 255.5,-112.5 166.5,-112.5"/>
<text text-anchor="middle" x="211" y="-119.5" font-family="Helvetica,sans-Serif" font-size="10.00">maths/colour.h</text>
</a>
</g>
</g>
<!-- Node3&#45;&gt;Node7 -->
<g id="edge6" class="edge">
<title>Node3&#45;&gt;Node7</title>
<path fill="none" stroke="midnightblue" d="M256.92,-168.08C248.83,-160.14 236.8,-148.34 227.09,-138.8"/>
<polygon fill="midnightblue" stroke="midnightblue" points="229.5,-136.26 219.91,-131.75 224.6,-141.25 229.5,-136.26"/>
</g>
<!-- Node8 -->
<g id="node8" class="node">
<title>Node8</title>
<g id="a_node8"><a xlink:title=" ">
<polygon fill="white" stroke="#bfbfbf" points="274,-112.5 274,-131.5 370,-131.5 370,-112.5 274,-112.5"/>
<text text-anchor="middle" x="322" y="-119.5" font-family="Helvetica,sans-Serif" font-size="10.00">maths/vector2.h</text>
</a>
</g>
</g>
<!-- Node3&#45;&gt;Node8 -->
<g id="edge7" class="edge">
<title>Node3&#45;&gt;Node8</title>
<path fill="none" stroke="midnightblue" d="M275,-168.32C283.19,-160.42 295.51,-148.55 305.47,-138.94"/>
<polygon fill="midnightblue" stroke="midnightblue" points="308.07,-141.29 312.84,-131.83 303.21,-136.26 308.07,-141.29"/>
</g>
<!-- Node9 -->
<g id="node9" class="node">
<title>Node9</title>
<g id="a_node9"><a xlink:title=" ">
<polygon fill="white" stroke="#bfbfbf" points="388,-112.5 388,-131.5 484,-131.5 484,-112.5 388,-112.5"/>
<text text-anchor="middle" x="436" y="-119.5" font-family="Helvetica,sans-Serif" font-size="10.00">maths/vector3.h</text>
</a>
</g>
</g>
<!-- Node3&#45;&gt;Node9 -->
<g id="edge8" class="edge">
<title>Node3&#45;&gt;Node9</title>
<path fill="none" stroke="midnightblue" d="M292.94,-168.44C321.66,-159.32 367.33,-144.81 399.32,-134.65"/>
<polygon fill="midnightblue" stroke="midnightblue" points="400.72,-137.88 409.19,-131.52 398.6,-131.21 400.72,-137.88"/>
</g>
<!-- Node10 -->
<g id="node10" class="node">
<title>Node10</title>
<g id="a_node10"><a xlink:title=" ">
<polygon fill="white" stroke="#bfbfbf" points="502,-112.5 502,-131.5 594,-131.5 594,-112.5 502,-112.5"/>
<text text-anchor="middle" x="548" y="-119.5" font-family="Helvetica,sans-Serif" font-size="10.00">maths/matrix.h</text>
</a>
</g>
</g>
<!-- Node3&#45;&gt;Node10 -->
<g id="edge9" class="edge">
<title>Node3&#45;&gt;Node10</title>
<path fill="none" stroke="midnightblue" d="M310.68,-168.44C360.29,-158.94 440.36,-143.61 493.59,-133.42"/>
<polygon fill="midnightblue" stroke="midnightblue" points="494.36,-136.83 503.53,-131.52 493.05,-129.96 494.36,-136.83"/>
</g>
<!-- Node11 -->
<g id="node11" class="node">
<title>Node11</title>
<g id="a_node11"><a xlink:href="texture_8h.html" target="_top" xlink:title=" ">
<polygon fill="white" stroke="black" points="612.5,-112.5 612.5,-131.5 717.5,-131.5 717.5,-112.5 612.5,-112.5"/>
<text text-anchor="middle" x="665" y="-119.5" font-family="Helvetica,sans-Serif" font-size="10.00">graphics/texture.h</text>
</a>
</g>
</g>
<!-- Node3&#45;&gt;Node11 -->
<g id="edge10" class="edge">
<title>Node3&#45;&gt;Node11</title>
<path fill="none" stroke="midnightblue" d="M331.58,-168.47C397.32,-159.86 501.73,-146.06 602.22,-132.1"/>
<polygon fill="midnightblue" stroke="midnightblue" points="602.82,-135.55 612.24,-130.7 601.85,-128.61 602.82,-135.55"/>
</g>
<!-- Node11&#45;&gt;Node6 -->
<g id="edge14" class="edge">
<title>Node11&#45;&gt;Node6</title>
<path fill="none" stroke="midnightblue" d="M618.4,-112.43C565.86,-102.38 486.36,-85.85 476,-76 463.49,-64.11 459.08,-44.49 457.59,-29.91"/>
<polygon fill="midnightblue" stroke="midnightblue" points="461.06,-29.3 456.93,-19.54 454.08,-29.75 461.06,-29.3"/>
</g>
<!-- Node12 -->
<g id="node12" class="node">
<title>Node12</title>
<g id="a_node12"><a xlink:title=" ">
<polygon fill="white" stroke="#bfbfbf" points="485,-56.5 485,-75.5 527,-75.5 527,-56.5 485,-56.5"/>
<text text-anchor="middle" x="506" y="-63.5" font-family="Helvetica,sans-Serif" font-size="10.00">array</text>
</a>
</g>
</g>
<!-- Node11&#45;&gt;Node12 -->
<g id="edge11" class="edge">
<title>Node11&#45;&gt;Node12</title>
<path fill="none" stroke="midnightblue" d="M639.81,-112.44C611.8,-102.93 566.57,-87.57 536.56,-77.38"/>
<polygon fill="midnightblue" stroke="midnightblue" points="537.61,-74.04 527.01,-74.14 535.36,-80.67 537.61,-74.04"/>
</g>
<!-- Node13 -->
<g id="node13" class="node">
<title>Node13</title>
<g id="a_node13"><a xlink:title=" ">
<polygon fill="white" stroke="#bfbfbf" points="545.5,-56.5 545.5,-75.5 592.5,-75.5 592.5,-56.5 545.5,-56.5"/>
<text text-anchor="middle" x="569" y="-63.5" font-family="Helvetica,sans-Serif" font-size="10.00">cmath</text>
</a>
</g>
</g>
<!-- Node11&#45;&gt;Node13 -->
<g id="edge12" class="edge">
<title>Node11&#45;&gt;Node13</title>
<path fill="none" stroke="midnightblue" d="M649.58,-112.32C634.46,-103.82 611.18,-90.73 593.53,-80.8"/>
<polygon fill="midnightblue" stroke="midnightblue" points="594.82,-77.51 584.39,-75.65 591.39,-83.61 594.82,-77.51"/>
</g>
<!-- Node14 -->
<g id="node14" class="node">
<title>Node14</title>
<g id="a_node14"><a xlink:title=" ">
<polygon fill="white" stroke="#bfbfbf" points="611,-56.5 611,-75.5 719,-75.5 719,-56.5 611,-56.5"/>
<text text-anchor="middle" x="665" y="-63.5" font-family="Helvetica,sans-Serif" font-size="10.00">SDL2/SDL_image.h</text>
</a>
</g>
</g>
<!-- Node11&#45;&gt;Node14 -->
<g id="edge13" class="edge">
<title>Node11&#45;&gt;Node14</title>
<path fill="none" stroke="midnightblue" d="M665,-112.08C665,-105.01 665,-94.86 665,-85.99"/>
<polygon fill="midnightblue" stroke="midnightblue" points="668.5,-85.75 665,-75.75 661.5,-85.75 668.5,-85.75"/>
</g>
<!-- Node15 -->
<g id="node15" class="node">
<title>Node15</title>
<g id="a_node15"><a xlink:title=" ">
<polygon fill="white" stroke="#bfbfbf" points="737.5,-56.5 737.5,-75.5 848.5,-75.5 848.5,-56.5 737.5,-56.5"/>
<text text-anchor="middle" x="793" y="-63.5" font-family="Helvetica,sans-Serif" font-size="10.00">maths/maths_util.h</text>
</a>
</g>
</g>
<!-- Node11&#45;&gt;Node15 -->
<g id="edge15" class="edge">
<title>Node11&#45;&gt;Node15</title>
<path fill="none" stroke="midnightblue" d="M685.28,-112.44C706.35,-103.56 739.52,-89.56 763.49,-79.45"/>
<polygon fill="midnightblue" stroke="midnightblue" points="764.96,-82.63 772.81,-75.52 762.24,-76.18 764.96,-82.63"/>
</g>
<!-- Node16 -->
<g id="node16" class="node">
<title>Node16</title>
<g id="a_node16"><a xlink:href="pixel__format_8h.html" target="_top" xlink:title=" ">
<polygon fill="white" stroke="black" points="866.5,-56.5 866.5,-75.5 997.5,-75.5 997.5,-56.5 866.5,-56.5"/>
<text text-anchor="middle" x="932" y="-63.5" font-family="Helvetica,sans-Serif" font-size="10.00">graphics/pixel_format.h</text>
</a>
</g>
</g>
<!-- Node11&#45;&gt;Node16 -->
<g id="edge16" class="edge">
<title>Node11&#45;&gt;Node16</title>
<path fill="none" stroke="midnightblue" d="M707.31,-112.44C754.08,-102.98 829.46,-87.74 879.85,-77.55"/>
<polygon fill="midnightblue" stroke="midnightblue" points="880.78,-80.93 889.89,-75.52 879.4,-74.07 880.78,-80.93"/>
</g>
<!-- Node16&#45;&gt;Node6 -->
<g id="edge18" class="edge">
<title>Node16&#45;&gt;Node6</title>
<path fill="none" stroke="midnightblue" d="M866.15,-57.07C863.06,-56.71 860,-56.35 857,-56 726.66,-40.85 572.33,-23.71 499.32,-15.66"/>
<polygon fill="midnightblue" stroke="midnightblue" points="499.48,-12.15 489.16,-14.54 498.71,-19.11 499.48,-12.15"/>
</g>
<!-- Node17 -->
<g id="node17" class="node">
<title>Node17</title>
<g id="a_node17"><a xlink:title=" ">
<polygon fill="white" stroke="#bfbfbf" points="899.5,-0.5 899.5,-19.5 964.5,-19.5 964.5,-0.5 899.5,-0.5"/>
<text text-anchor="middle" x="932" y="-7.5" font-family="Helvetica,sans-Serif" font-size="10.00">stdexcept</text>
</a>
</g>
</g>
<!-- Node16&#45;&gt;Node17 -->
<g id="edge17" class="edge">
<title>Node16&#45;&gt;Node17</title>
<path fill="none" stroke="midnightblue" d="M932,-56.08C932,-49.01 932,-38.86 932,-29.99"/>
<polygon fill="midnightblue" stroke="midnightblue" points="935.5,-29.75 932,-19.75 928.5,-29.75 935.5,-29.75"/>
</g>
</g>
</svg>
