<?xml version="1.0" encoding="UTF-8" standalone="no"?>
<!DOCTYPE svg PUBLIC "-//W3C//DTD SVG 1.1//EN"
 "http://www.w3.org/Graphics/SVG/1.1/DTD/svg11.dtd">
<!-- Generated by graphviz version 2.43.0 (0)
 -->
<!-- Title: src/graphics/shader/shader_program.h Pages: 1 -->
<svg width="1336pt" height="307pt"
 viewBox="0.00 0.00 1335.74 307.00" xmlns="http://www.w3.org/2000/svg" xmlns:xlink="http://www.w3.org/1999/xlink">
<g id="graph0" class="graph" transform="scale(1 1) rotate(0) translate(4 303)">
<title>src/graphics/shader/shader_program.h</title>
<polygon fill="white" stroke="transparent" points="-4,4 -4,-303 1331.74,-303 1331.74,4 -4,4"/>
<!-- Node1 -->
<g id="node1" class="node">
<title>Node1</title>
<g id="a_node1"><a xlink:title=" ">
<polygon fill="#bfbfbf" stroke="black" points="637.74,-268.5 637.74,-298.5 748.74,-298.5 748.74,-268.5 637.74,-268.5"/>
<text text-anchor="start" x="645.74" y="-286.5" font-family="Helvetica,sans-Serif" font-size="10.00">src/graphics/shader</text>
<text text-anchor="middle" x="693.24" y="-275.5" font-family="Helvetica,sans-Serif" font-size="10.00">/shader_program.h</text>
</a>
</g>
</g>
<!-- Node2 -->
<g id="node2" class="node">
<title>Node2</title>
<g id="a_node2"><a xlink:href="camera_8h.html" target="_top" xlink:title=" ">
<polygon fill="white" stroke="black" points="293.74,-140 293.74,-159 430.74,-159 430.74,-140 293.74,-140"/>
<text text-anchor="middle" x="362.24" y="-147" font-family="Helvetica,sans-Serif" font-size="10.00">src/component/camera.h</text>
</a>
</g>
</g>
<!-- Node1&#45;&gt;Node2 -->
<g id="edge1" class="edge">
<title>Node1&#45;&gt;Node2</title>
<path fill="none" stroke="midnightblue" d="M627.46,-280.15C546.96,-275.89 417.02,-264.12 382.24,-232 361.48,-212.83 360.7,-175.91 361.54,-159.15"/>
<polygon fill="midnightblue" stroke="midnightblue" points="627.35,-283.64 637.51,-280.65 627.7,-276.65 627.35,-283.64"/>
</g>
<!-- Node8 -->
<g id="node8" class="node">
<title>Node8</title>
<g id="a_node8"><a xlink:href="asset__loader_8h.html" target="_top" xlink:title=" ">
<polygon fill="white" stroke="black" points="562.24,-134.5 562.24,-164.5 688.24,-164.5 688.24,-134.5 562.24,-134.5"/>
<text text-anchor="start" x="570.24" y="-152.5" font-family="Helvetica,sans-Serif" font-size="10.00">src/graphics/asset</text>
<text text-anchor="middle" x="625.24" y="-141.5" font-family="Helvetica,sans-Serif" font-size="10.00">_loader/asset_loader.h</text>
</a>
</g>
</g>
<!-- Node1&#45;&gt;Node8 -->
<g id="edge8" class="edge">
<title>Node1&#45;&gt;Node8</title>
<path fill="none" stroke="midnightblue" d="M681.38,-259.48C667.26,-232.07 644.14,-187.19 632.47,-164.52"/>
<polygon fill="midnightblue" stroke="midnightblue" points="678.27,-261.09 685.96,-268.37 684.5,-257.88 678.27,-261.09"/>
</g>
<!-- Node10 -->
<g id="node10" class="node">
<title>Node10</title>
<g id="a_node10"><a xlink:href="skybox_8h.html" target="_top" xlink:title=" ">
<polygon fill="white" stroke="black" points="390.74,-201.5 390.74,-231.5 505.74,-231.5 505.74,-201.5 390.74,-201.5"/>
<text text-anchor="start" x="398.74" y="-219.5" font-family="Helvetica,sans-Serif" font-size="10.00">src/graphics/lighting</text>
<text text-anchor="middle" x="448.24" y="-208.5" font-family="Helvetica,sans-Serif" font-size="10.00">/skybox.h</text>
</a>
</g>
</g>
<!-- Node1&#45;&gt;Node10 -->
<g id="edge13" class="edge">
<title>Node1&#45;&gt;Node10</title>
<path fill="none" stroke="midnightblue" d="M630.48,-265.85C590.54,-255.25 539.37,-241.68 501.43,-231.61"/>
<polygon fill="midnightblue" stroke="midnightblue" points="629.82,-269.29 640.38,-268.48 631.61,-262.53 629.82,-269.29"/>
</g>
<!-- Node11 -->
<g id="node11" class="node">
<title>Node11</title>
<g id="a_node11"><a xlink:href="material_8h.html" target="_top" xlink:title=" ">
<polygon fill="white" stroke="black" points="154.74,-201.5 154.74,-231.5 273.74,-231.5 273.74,-201.5 154.74,-201.5"/>
<text text-anchor="start" x="162.74" y="-219.5" font-family="Helvetica,sans-Serif" font-size="10.00">src/graphics/material</text>
<text text-anchor="middle" x="214.24" y="-208.5" font-family="Helvetica,sans-Serif" font-size="10.00">/material.h</text>
</a>
</g>
</g>
<!-- Node1&#45;&gt;Node11 -->
<g id="edge16" class="edge">
<title>Node1&#45;&gt;Node11</title>
<path fill="none" stroke="midnightblue" d="M627.45,-273.57C533.92,-260.88 363.92,-237.81 273.89,-225.59"/>
<polygon fill="midnightblue" stroke="midnightblue" points="626.98,-277.04 637.36,-274.92 627.92,-270.1 626.98,-277.04"/>
</g>
<!-- Node14 -->
<g id="node14" class="node">
<title>Node14</title>
<g id="a_node14"><a xlink:href="forward__shader_8h.html" target="_top" xlink:title=" ">
<polygon fill="white" stroke="black" points="396.74,-67.5 396.74,-97.5 507.74,-97.5 507.74,-67.5 396.74,-67.5"/>
<text text-anchor="start" x="404.74" y="-85.5" font-family="Helvetica,sans-Serif" font-size="10.00">src/graphics/shader</text>
<text text-anchor="middle" x="452.24" y="-74.5" font-family="Helvetica,sans-Serif" font-size="10.00">/forward_shader.h</text>
</a>
</g>
</g>
<!-- Node1&#45;&gt;Node14 -->
<g id="edge24" class="edge">
<title>Node1&#45;&gt;Node14</title>
<path fill="none" stroke="midnightblue" d="M667.98,-261.64C618.79,-221.02 511.29,-132.26 469.42,-97.68"/>
<polygon fill="midnightblue" stroke="midnightblue" points="665.97,-264.52 675.91,-268.19 670.43,-259.12 665.97,-264.52"/>
</g>
<!-- Node16 -->
<g id="node16" class="node">
<title>Node16</title>
<g id="a_node16"><a xlink:href="geometry__shader_8h.html" target="_top" xlink:title=" ">
<polygon fill="white" stroke="black" points="1018.74,-67.5 1018.74,-97.5 1131.74,-97.5 1131.74,-67.5 1018.74,-67.5"/>
<text text-anchor="start" x="1026.74" y="-85.5" font-family="Helvetica,sans-Serif" font-size="10.00">src/graphics/shader</text>
<text text-anchor="middle" x="1075.24" y="-74.5" font-family="Helvetica,sans-Serif" font-size="10.00">/geometry_shader.h</text>
</a>
</g>
</g>
<!-- Node1&#45;&gt;Node16 -->
<g id="edge28" class="edge">
<title>Node1&#45;&gt;Node16</title>
<path fill="none" stroke="midnightblue" d="M715.66,-261.2C724.54,-252.42 734.65,-241.98 743.24,-232 778.66,-190.82 770.14,-162.71 816.24,-134 890.68,-87.64 924.32,-115.55 1010.24,-98 1012.96,-97.44 1015.74,-96.87 1018.55,-96.27"/>
<polygon fill="midnightblue" stroke="midnightblue" points="712.96,-258.94 708.24,-268.43 717.84,-263.95 712.96,-258.94"/>
</g>
<!-- Node18 -->
<g id="node18" class="node">
<title>Node18</title>
<g id="a_node18"><a xlink:href="light__shader_8h.html" target="_top" xlink:title=" ">
<polygon fill="white" stroke="black" points="1149.74,-67.5 1149.74,-97.5 1260.74,-97.5 1260.74,-67.5 1149.74,-67.5"/>
<text text-anchor="start" x="1157.74" y="-85.5" font-family="Helvetica,sans-Serif" font-size="10.00">src/graphics/shader</text>
<text text-anchor="middle" x="1205.24" y="-74.5" font-family="Helvetica,sans-Serif" font-size="10.00">/light_shader.h</text>
</a>
</g>
</g>
<!-- Node1&#45;&gt;Node18 -->
<g id="edge32" class="edge">
<title>Node1&#45;&gt;Node18</title>
<path fill="none" stroke="midnightblue" d="M726.13,-263.46C757.4,-245.84 806.07,-219.63 850.24,-201 955.81,-156.46 1084.56,-117.48 1154.34,-97.57"/>
<polygon fill="midnightblue" stroke="midnightblue" points="724.38,-260.44 717.4,-268.41 727.83,-266.53 724.38,-260.44"/>
</g>
<!-- Node20 -->
<g id="node20" class="node">
<title>Node20</title>
<g id="a_node20"><a xlink:href="post__proc__shader_8h.html" target="_top" xlink:title=" ">
<polygon fill="white" stroke="black" points="719.74,-67.5 719.74,-97.5 832.74,-97.5 832.74,-67.5 719.74,-67.5"/>
<text text-anchor="start" x="727.74" y="-85.5" font-family="Helvetica,sans-Serif" font-size="10.00">src/graphics/shader</text>
<text text-anchor="middle" x="776.24" y="-74.5" font-family="Helvetica,sans-Serif" font-size="10.00">/post_proc_shader.h</text>
</a>
</g>
</g>
<!-- Node1&#45;&gt;Node20 -->
<g id="edge36" class="edge">
<title>Node1&#45;&gt;Node20</title>
<path fill="none" stroke="midnightblue" d="M698.41,-258.41C705.41,-228.28 719.48,-175.59 740.24,-134 746.78,-120.9 756.53,-107.46 764.24,-97.75"/>
<polygon fill="midnightblue" stroke="midnightblue" points="694.93,-257.91 696.15,-268.43 701.76,-259.45 694.93,-257.91"/>
</g>
<!-- Node22 -->
<g id="node22" class="node">
<title>Node22</title>
<g id="a_node22"><a xlink:href="shader__program_8cpp.html" target="_top" xlink:title=" ">
<polygon fill="white" stroke="black" points="858.74,-201.5 858.74,-231.5 977.74,-231.5 977.74,-201.5 858.74,-201.5"/>
<text text-anchor="start" x="866.74" y="-219.5" font-family="Helvetica,sans-Serif" font-size="10.00">src/graphics/shader</text>
<text text-anchor="middle" x="918.24" y="-208.5" font-family="Helvetica,sans-Serif" font-size="10.00">/shader_program.cpp</text>
</a>
</g>
</g>
<!-- Node1&#45;&gt;Node22 -->
<g id="edge40" class="edge">
<title>Node1&#45;&gt;Node22</title>
<path fill="none" stroke="midnightblue" d="M751.81,-265.58C788.36,-255.02 834.85,-241.59 869.4,-231.61"/>
<polygon fill="midnightblue" stroke="midnightblue" points="750.42,-262.34 741.79,-268.48 752.36,-269.06 750.42,-262.34"/>
</g>
<!-- Node23 -->
<g id="node23" class="node">
<title>Node23</title>
<g id="a_node23"><a xlink:href="skybox__shader_8h.html" target="_top" xlink:title=" ">
<polygon fill="white" stroke="black" points="889.74,-67.5 889.74,-97.5 1000.74,-97.5 1000.74,-67.5 889.74,-67.5"/>
<text text-anchor="start" x="897.74" y="-85.5" font-family="Helvetica,sans-Serif" font-size="10.00">src/graphics/shader</text>
<text text-anchor="middle" x="945.24" y="-74.5" font-family="Helvetica,sans-Serif" font-size="10.00">/skybox_shader.h</text>
</a>
</g>
</g>
<!-- Node1&#45;&gt;Node23 -->
<g id="edge41" class="edge">
<title>Node1&#45;&gt;Node23</title>
<path fill="none" stroke="midnightblue" d="M706.98,-259.65C712.13,-251.01 718,-241.08 723.24,-232 748.22,-188.75 739.3,-165.27 778.24,-134 795.6,-120.06 848.09,-105.48 889.64,-95.59"/>
<polygon fill="midnightblue" stroke="midnightblue" points="703.87,-258.03 701.74,-268.41 709.88,-261.62 703.87,-258.03"/>
</g>
<!-- Node3 -->
<g id="node3" class="node">
<title>Node3</title>
<g id="a_node3"><a xlink:href="game__scene_8cpp.html" target="_top" xlink:title=" ">
<polygon fill="white" stroke="black" points="512.24,-0.5 512.24,-30.5 636.24,-30.5 636.24,-0.5 512.24,-0.5"/>
<text text-anchor="start" x="520.24" y="-18.5" font-family="Helvetica,sans-Serif" font-size="10.00">src/game/scene/game</text>
<text text-anchor="middle" x="574.24" y="-7.5" font-family="Helvetica,sans-Serif" font-size="10.00">_scene.cpp</text>
</a>
</g>
</g>
<!-- Node2&#45;&gt;Node3 -->
<g id="edge2" class="edge">
<title>Node2&#45;&gt;Node3</title>
<path fill="none" stroke="midnightblue" d="M363.2,-129.87C365.16,-111.39 371.01,-83.5 388.24,-67 397.46,-58.18 461.7,-41.95 512.14,-30.26"/>
<polygon fill="midnightblue" stroke="midnightblue" points="359.7,-129.74 362.42,-139.98 366.68,-130.28 359.7,-129.74"/>
</g>
<!-- Node4 -->
<g id="node4" class="node">
<title>Node4</title>
<g id="a_node4"><a xlink:href="graphics__renderer_8h.html" target="_top" xlink:title=" ">
<polygon fill="white" stroke="black" points="50.74,-67.5 50.74,-97.5 169.74,-97.5 169.74,-67.5 50.74,-67.5"/>
<text text-anchor="start" x="58.74" y="-85.5" font-family="Helvetica,sans-Serif" font-size="10.00">src/graphics/renderer</text>
<text text-anchor="middle" x="110.24" y="-74.5" font-family="Helvetica,sans-Serif" font-size="10.00">/graphics_renderer.h</text>
</a>
</g>
</g>
<!-- Node2&#45;&gt;Node4 -->
<g id="edge3" class="edge">
<title>Node2&#45;&gt;Node4</title>
<path fill="none" stroke="midnightblue" d="M319.24,-137.41C276.57,-126.4 211.04,-109.5 164.75,-97.56"/>
<polygon fill="midnightblue" stroke="midnightblue" points="318.48,-140.83 329.04,-139.94 320.23,-134.05 318.48,-140.83"/>
</g>
<!-- Node7 -->
<g id="node7" class="node">
<title>Node7</title>
<g id="a_node7"><a xlink:href="scene_8cpp.html" target="_top" xlink:title=" ">
<polygon fill="white" stroke="black" points="188.24,-73 188.24,-92 302.24,-92 302.24,-73 188.24,-73"/>
<text text-anchor="middle" x="245.24" y="-80" font-family="Helvetica,sans-Serif" font-size="10.00">src/scene/scene.cpp</text>
</a>
</g>
</g>
<!-- Node2&#45;&gt;Node7 -->
<g id="edge7" class="edge">
<title>Node2&#45;&gt;Node7</title>
<path fill="none" stroke="midnightblue" d="M337.56,-134.79C314.37,-121.9 280.39,-103.02 260.77,-92.13"/>
<polygon fill="midnightblue" stroke="midnightblue" points="336.02,-137.94 346.46,-139.73 339.42,-131.82 336.02,-137.94"/>
</g>
<!-- Node4&#45;&gt;Node3 -->
<g id="edge5" class="edge">
<title>Node4&#45;&gt;Node3</title>
<path fill="none" stroke="midnightblue" d="M180.11,-66.97C324.05,-44.48 363.33,-53.01 503.24,-31 506.1,-30.55 509.02,-30.06 511.96,-29.55"/>
<polygon fill="midnightblue" stroke="midnightblue" points="179.34,-63.55 170.02,-68.57 180.44,-70.46 179.34,-63.55"/>
</g>
<!-- Node5 -->
<g id="node5" class="node">
<title>Node5</title>
<g id="a_node5"><a xlink:href="application_8cpp.html" target="_top" xlink:title=" ">
<polygon fill="white" stroke="black" points="111.74,-6 111.74,-25 276.74,-25 276.74,-6 111.74,-6"/>
<text text-anchor="middle" x="194.24" y="-13" font-family="Helvetica,sans-Serif" font-size="10.00">src/application/application.cpp</text>
</a>
</g>
</g>
<!-- Node4&#45;&gt;Node5 -->
<g id="edge4" class="edge">
<title>Node4&#45;&gt;Node5</title>
<path fill="none" stroke="midnightblue" d="M136.72,-61.01C152.32,-48.94 171.23,-34.3 183.01,-25.19"/>
<polygon fill="midnightblue" stroke="midnightblue" points="134.24,-58.51 128.47,-67.4 138.52,-64.04 134.24,-58.51"/>
</g>
<!-- Node6 -->
<g id="node6" class="node">
<title>Node6</title>
<g id="a_node6"><a xlink:href="graphics__renderer_8cpp.html" target="_top" xlink:title=" ">
<polygon fill="white" stroke="black" points="797.74,-0.5 797.74,-30.5 924.74,-30.5 924.74,-0.5 797.74,-0.5"/>
<text text-anchor="start" x="805.74" y="-18.5" font-family="Helvetica,sans-Serif" font-size="10.00">src/graphics/renderer</text>
<text text-anchor="middle" x="861.24" y="-7.5" font-family="Helvetica,sans-Serif" font-size="10.00">/graphics_renderer.cpp</text>
</a>
</g>
</g>
<!-- Node4&#45;&gt;Node6 -->
<g id="edge6" class="edge">
<title>Node4&#45;&gt;Node6</title>
<path fill="none" stroke="midnightblue" d="M180.09,-67.04C450.2,-31.82 523.2,-65.47 789.24,-31 792.02,-30.64 794.86,-30.23 797.72,-29.79"/>
<polygon fill="midnightblue" stroke="midnightblue" points="179.44,-63.6 169.99,-68.38 180.36,-70.54 179.44,-63.6"/>
</g>
<!-- Node8&#45;&gt;Node3 -->
<g id="edge10" class="edge">
<title>Node8&#45;&gt;Node3</title>
<path fill="none" stroke="midnightblue" d="M651.1,-127.16C667.9,-110.62 684.55,-87.2 672.24,-67 661.78,-49.84 643.41,-38.26 625.39,-30.57"/>
<polygon fill="midnightblue" stroke="midnightblue" points="648.43,-124.87 643.48,-134.24 653.19,-130 648.43,-124.87"/>
</g>
<!-- Node8&#45;&gt;Node5 -->
<g id="edge9" class="edge">
<title>Node8&#45;&gt;Node5</title>
<path fill="none" stroke="midnightblue" d="M552.18,-136.6C504.85,-128 442.21,-114.92 388.24,-98 370.64,-92.48 260.03,-44.93 214.15,-25.11"/>
<polygon fill="midnightblue" stroke="midnightblue" points="551.58,-140.05 562.04,-138.37 552.81,-133.16 551.58,-140.05"/>
</g>
<!-- Node8&#45;&gt;Node6 -->
<g id="edge12" class="edge">
<title>Node8&#45;&gt;Node6</title>
<path fill="none" stroke="midnightblue" d="M698.46,-139.82C753.26,-131.83 822.09,-118.14 842.24,-98 860.12,-80.13 862.47,-48.9 862.15,-30.73"/>
<polygon fill="midnightblue" stroke="midnightblue" points="697.81,-136.37 688.4,-141.24 698.79,-143.3 697.81,-136.37"/>
</g>
<!-- Node9 -->
<g id="node9" class="node">
<title>Node9</title>
<g id="a_node9"><a xlink:href="asset__loader_8cpp.html" target="_top" xlink:title=" ">
<polygon fill="white" stroke="black" points="525.74,-67.5 525.74,-97.5 662.74,-97.5 662.74,-67.5 525.74,-67.5"/>
<text text-anchor="start" x="533.74" y="-85.5" font-family="Helvetica,sans-Serif" font-size="10.00">src/graphics/asset</text>
<text text-anchor="middle" x="594.24" y="-74.5" font-family="Helvetica,sans-Serif" font-size="10.00">_loader/asset_loader.cpp</text>
</a>
</g>
</g>
<!-- Node8&#45;&gt;Node9 -->
<g id="edge11" class="edge">
<title>Node8&#45;&gt;Node9</title>
<path fill="none" stroke="midnightblue" d="M614.17,-125.28C609.75,-116.02 604.81,-105.66 600.95,-97.58"/>
<polygon fill="midnightblue" stroke="midnightblue" points="611.05,-126.88 618.52,-134.4 617.37,-123.86 611.05,-126.88"/>
</g>
<!-- Node10&#45;&gt;Node2 -->
<g id="edge14" class="edge">
<title>Node10&#45;&gt;Node2</title>
<path fill="none" stroke="midnightblue" d="M421.57,-195.34C405.52,-183.21 385.91,-168.39 373.75,-159.19"/>
<polygon fill="midnightblue" stroke="midnightblue" points="419.49,-198.16 429.58,-201.4 423.71,-192.57 419.49,-198.16"/>
</g>
<!-- Node10&#45;&gt;Node8 -->
<g id="edge15" class="edge">
<title>Node10&#45;&gt;Node8</title>
<path fill="none" stroke="midnightblue" d="M496.39,-197.82C524.84,-187.37 560.37,-174.32 586.91,-164.58"/>
<polygon fill="midnightblue" stroke="midnightblue" points="494.83,-194.66 486.65,-201.4 497.24,-201.23 494.83,-194.66"/>
</g>
<!-- Node11&#45;&gt;Node4 -->
<g id="edge23" class="edge">
<title>Node11&#45;&gt;Node4</title>
<path fill="none" stroke="midnightblue" d="M144.47,-207.8C90.92,-200.28 23.34,-186.75 6.24,-165 -16.23,-136.42 28.99,-111.99 66.7,-97.52"/>
<polygon fill="midnightblue" stroke="midnightblue" points="144.25,-211.3 154.63,-209.18 145.19,-204.37 144.25,-211.3"/>
</g>
<!-- Node11&#45;&gt;Node8 -->
<g id="edge21" class="edge">
<title>Node11&#45;&gt;Node8</title>
<path fill="none" stroke="midnightblue" d="M284.21,-204.43C362.12,-192.11 486.96,-172.37 562.03,-160.5"/>
<polygon fill="midnightblue" stroke="midnightblue" points="283.33,-201.03 274,-206.05 284.43,-207.94 283.33,-201.03"/>
</g>
<!-- Node12 -->
<g id="node12" class="node">
<title>Node12</title>
<g id="a_node12"><a xlink:href="render__mesh_8h.html" target="_top" xlink:title=" ">
<polygon fill="white" stroke="black" points="152.74,-134.5 152.74,-164.5 275.74,-164.5 275.74,-134.5 152.74,-134.5"/>
<text text-anchor="start" x="160.74" y="-152.5" font-family="Helvetica,sans-Serif" font-size="10.00">src/component/render</text>
<text text-anchor="middle" x="214.24" y="-141.5" font-family="Helvetica,sans-Serif" font-size="10.00">_mesh.h</text>
</a>
</g>
</g>
<!-- Node11&#45;&gt;Node12 -->
<g id="edge17" class="edge">
<title>Node11&#45;&gt;Node12</title>
<path fill="none" stroke="midnightblue" d="M214.24,-191.11C214.24,-182.15 214.24,-172.32 214.24,-164.58"/>
<polygon fill="midnightblue" stroke="midnightblue" points="210.74,-191.4 214.24,-201.4 217.74,-191.4 210.74,-191.4"/>
</g>
<!-- Node13 -->
<g id="node13" class="node">
<title>Node13</title>
<g id="a_node13"><a xlink:href="material_8cpp.html" target="_top" xlink:title=" ">
<polygon fill="white" stroke="black" points="15.74,-134.5 15.74,-164.5 134.74,-164.5 134.74,-134.5 15.74,-134.5"/>
<text text-anchor="start" x="23.74" y="-152.5" font-family="Helvetica,sans-Serif" font-size="10.00">src/graphics/material</text>
<text text-anchor="middle" x="75.24" y="-141.5" font-family="Helvetica,sans-Serif" font-size="10.00">/material.cpp</text>
</a>
</g>
</g>
<!-- Node11&#45;&gt;Node13 -->
<g id="edge22" class="edge">
<title>Node11&#45;&gt;Node13</title>
<path fill="none" stroke="midnightblue" d="M174.96,-197.13C152.87,-186.8 125.73,-174.11 105.34,-164.58"/>
<polygon fill="midnightblue" stroke="midnightblue" points="173.54,-200.33 184.08,-201.4 176.5,-193.99 173.54,-200.33"/>
</g>
<!-- Node12&#45;&gt;Node3 -->
<g id="edge18" class="edge">
<title>Node12&#45;&gt;Node3</title>
<path fill="none" stroke="midnightblue" d="M143.22,-132.02C98.41,-120.9 47.78,-106.72 41.24,-98 32.98,-86.98 31.89,-77.11 41.24,-67 76.21,-29.2 452.25,-38.17 503.24,-31 506.11,-30.6 509.03,-30.15 511.98,-29.67"/>
<polygon fill="midnightblue" stroke="midnightblue" points="142.43,-135.42 152.97,-134.41 144.1,-128.63 142.43,-135.42"/>
</g>
<!-- Node12&#45;&gt;Node4 -->
<g id="edge19" class="edge">
<title>Node12&#45;&gt;Node4</title>
<path fill="none" stroke="midnightblue" d="M183.07,-129.02C166.88,-118.9 147.47,-106.77 132.76,-97.58"/>
<polygon fill="midnightblue" stroke="midnightblue" points="181.34,-132.06 191.68,-134.4 185.05,-126.13 181.34,-132.06"/>
</g>
<!-- Node12&#45;&gt;Node7 -->
<g id="edge20" class="edge">
<title>Node12&#45;&gt;Node7</title>
<path fill="none" stroke="midnightblue" d="M225.31,-125.29C230.79,-113.8 237.07,-100.63 241.09,-92.19"/>
<polygon fill="midnightblue" stroke="midnightblue" points="222.11,-123.86 220.97,-134.4 228.43,-126.88 222.11,-123.86"/>
</g>
<!-- Node14&#45;&gt;Node3 -->
<g id="edge25" class="edge">
<title>Node14&#45;&gt;Node3</title>
<path fill="none" stroke="midnightblue" d="M487.76,-62.57C506.95,-52.35 530.25,-39.94 547.82,-30.58"/>
<polygon fill="midnightblue" stroke="midnightblue" points="485.89,-59.6 478.71,-67.4 489.19,-65.78 485.89,-59.6"/>
</g>
<!-- Node14&#45;&gt;Node6 -->
<g id="edge26" class="edge">
<title>Node14&#45;&gt;Node6</title>
<path fill="none" stroke="midnightblue" d="M517.89,-66.99C639.04,-45.97 672.13,-50.52 789.24,-31 792.01,-30.54 794.83,-30.05 797.68,-29.54"/>
<polygon fill="midnightblue" stroke="midnightblue" points="517.09,-63.58 507.85,-68.76 518.3,-70.47 517.09,-63.58"/>
</g>
<!-- Node15 -->
<g id="node15" class="node">
<title>Node15</title>
<g id="a_node15"><a xlink:href="forward__shader_8cpp.html" target="_top" xlink:title=" ">
<polygon fill="white" stroke="black" points="378.74,-0.5 378.74,-30.5 493.74,-30.5 493.74,-0.5 378.74,-0.5"/>
<text text-anchor="start" x="386.74" y="-18.5" font-family="Helvetica,sans-Serif" font-size="10.00">src/graphics/shader</text>
<text text-anchor="middle" x="436.24" y="-7.5" font-family="Helvetica,sans-Serif" font-size="10.00">/forward_shader.cpp</text>
</a>
</g>
</g>
<!-- Node14&#45;&gt;Node15 -->
<g id="edge27" class="edge">
<title>Node14&#45;&gt;Node15</title>
<path fill="none" stroke="midnightblue" d="M446.31,-57.4C444.09,-48.37 441.63,-38.41 439.71,-30.58"/>
<polygon fill="midnightblue" stroke="midnightblue" points="442.98,-58.52 448.77,-67.4 449.78,-56.85 442.98,-58.52"/>
</g>
<!-- Node16&#45;&gt;Node3 -->
<g id="edge29" class="edge">
<title>Node16&#45;&gt;Node3</title>
<path fill="none" stroke="midnightblue" d="M1008.37,-66.82C847.92,-41.81 803.72,-54.58 646.24,-31 643.09,-30.53 639.87,-30.01 636.62,-29.46"/>
<polygon fill="midnightblue" stroke="midnightblue" points="1008.17,-70.33 1018.6,-68.44 1009.27,-63.42 1008.17,-70.33"/>
</g>
<!-- Node16&#45;&gt;Node6 -->
<g id="edge30" class="edge">
<title>Node16&#45;&gt;Node6</title>
<path fill="none" stroke="midnightblue" d="M1019.09,-64.44C984.4,-53.91 940.42,-40.55 907.7,-30.61"/>
<polygon fill="midnightblue" stroke="midnightblue" points="1018.48,-67.92 1029.07,-67.48 1020.52,-61.22 1018.48,-67.92"/>
</g>
<!-- Node17 -->
<g id="node17" class="node">
<title>Node17</title>
<g id="a_node17"><a xlink:href="geometry__shader_8cpp.html" target="_top" xlink:title=" ">
<polygon fill="white" stroke="black" points="1073.74,-0.5 1073.74,-30.5 1198.74,-30.5 1198.74,-0.5 1073.74,-0.5"/>
<text text-anchor="start" x="1081.74" y="-18.5" font-family="Helvetica,sans-Serif" font-size="10.00">src/graphics/shader</text>
<text text-anchor="middle" x="1136.24" y="-7.5" font-family="Helvetica,sans-Serif" font-size="10.00">/geometry_shader.cpp</text>
</a>
</g>
</g>
<!-- Node16&#45;&gt;Node17 -->
<g id="edge31" class="edge">
<title>Node16&#45;&gt;Node17</title>
<path fill="none" stroke="midnightblue" d="M1095.4,-60.02C1104.48,-50.34 1114.96,-39.17 1123.03,-30.58"/>
<polygon fill="midnightblue" stroke="midnightblue" points="1092.77,-57.71 1088.48,-67.4 1097.87,-62.5 1092.77,-57.71"/>
</g>
<!-- Node18&#45;&gt;Node3 -->
<g id="edge33" class="edge">
<title>Node18&#45;&gt;Node3</title>
<path fill="none" stroke="midnightblue" d="M1139.32,-66.86C921.26,-35.32 861.49,-60.38 646.24,-31 643.08,-30.57 639.85,-30.08 636.6,-29.56"/>
<polygon fill="midnightblue" stroke="midnightblue" points="1139.08,-70.36 1149.49,-68.35 1140.1,-63.43 1139.08,-70.36"/>
</g>
<!-- Node18&#45;&gt;Node6 -->
<g id="edge34" class="edge">
<title>Node18&#45;&gt;Node6</title>
<path fill="none" stroke="midnightblue" d="M1139.46,-66.7C1047.98,-48.62 1022.91,-47.51 934.24,-31 931.19,-30.43 928.07,-29.84 924.93,-29.24"/>
<polygon fill="midnightblue" stroke="midnightblue" points="1138.94,-70.16 1149.43,-68.68 1140.31,-63.3 1138.94,-70.16"/>
</g>
<!-- Node19 -->
<g id="node19" class="node">
<title>Node19</title>
<g id="a_node19"><a xlink:href="light__shader_8cpp.html" target="_top" xlink:title=" ">
<polygon fill="white" stroke="black" points="1216.74,-0.5 1216.74,-30.5 1327.74,-30.5 1327.74,-0.5 1216.74,-0.5"/>
<text text-anchor="start" x="1224.74" y="-18.5" font-family="Helvetica,sans-Serif" font-size="10.00">src/graphics/shader</text>
<text text-anchor="middle" x="1272.24" y="-7.5" font-family="Helvetica,sans-Serif" font-size="10.00">/light_shader.cpp</text>
</a>
</g>
</g>
<!-- Node18&#45;&gt;Node19 -->
<g id="edge35" class="edge">
<title>Node18&#45;&gt;Node19</title>
<path fill="none" stroke="midnightblue" d="M1227.08,-60.31C1237.13,-50.56 1248.78,-39.26 1257.73,-30.58"/>
<polygon fill="midnightblue" stroke="midnightblue" points="1224.52,-57.92 1219.78,-67.4 1229.39,-62.94 1224.52,-57.92"/>
</g>
<!-- Node20&#45;&gt;Node3 -->
<g id="edge37" class="edge">
<title>Node20&#45;&gt;Node3</title>
<path fill="none" stroke="midnightblue" d="M722.56,-64.23C689.89,-53.71 648.67,-40.45 617.99,-30.58"/>
<polygon fill="midnightblue" stroke="midnightblue" points="721.82,-67.66 732.41,-67.4 723.96,-61 721.82,-67.66"/>
</g>
<!-- Node20&#45;&gt;Node6 -->
<g id="edge38" class="edge">
<title>Node20&#45;&gt;Node6</title>
<path fill="none" stroke="midnightblue" d="M802.83,-61.17C815.83,-51.23 831.15,-39.51 842.83,-30.58"/>
<polygon fill="midnightblue" stroke="midnightblue" points="800.5,-58.54 794.69,-67.4 804.75,-64.1 800.5,-58.54"/>
</g>
<!-- Node21 -->
<g id="node21" class="node">
<title>Node21</title>
<g id="a_node21"><a xlink:href="post__proc__shader_8cpp.html" target="_top" xlink:title=" ">
<polygon fill="white" stroke="black" points="654.74,-0.5 654.74,-30.5 779.74,-30.5 779.74,-0.5 654.74,-0.5"/>
<text text-anchor="start" x="662.74" y="-18.5" font-family="Helvetica,sans-Serif" font-size="10.00">src/graphics/shader</text>
<text text-anchor="middle" x="717.24" y="-7.5" font-family="Helvetica,sans-Serif" font-size="10.00">/post_proc_shader.cpp</text>
</a>
</g>
</g>
<!-- Node20&#45;&gt;Node21 -->
<g id="edge39" class="edge">
<title>Node20&#45;&gt;Node21</title>
<path fill="none" stroke="midnightblue" d="M756.49,-59.74C747.76,-50.12 737.75,-39.09 730.02,-30.58"/>
<polygon fill="midnightblue" stroke="midnightblue" points="754.13,-62.34 763.44,-67.4 759.31,-57.64 754.13,-62.34"/>
</g>
<!-- Node23&#45;&gt;Node3 -->
<g id="edge42" class="edge">
<title>Node23&#45;&gt;Node3</title>
<path fill="none" stroke="midnightblue" d="M879.29,-70.97C818.64,-61.14 726.25,-45.81 646.24,-31 642.98,-30.4 639.64,-29.77 636.27,-29.12"/>
<polygon fill="midnightblue" stroke="midnightblue" points="879.06,-74.48 889.49,-72.62 880.18,-67.57 879.06,-74.48"/>
</g>
<!-- Node23&#45;&gt;Node6 -->
<g id="edge43" class="edge">
<title>Node23&#45;&gt;Node6</title>
<path fill="none" stroke="midnightblue" d="M918.97,-61.17C906.12,-51.23 890.98,-39.51 879.43,-30.58"/>
<polygon fill="midnightblue" stroke="midnightblue" points="916.96,-64.04 927.01,-67.4 921.25,-58.51 916.96,-64.04"/>
</g>
<!-- Node24 -->
<g id="node24" class="node">
<title>Node24</title>
<g id="a_node24"><a xlink:href="skybox__shader_8cpp.html" target="_top" xlink:title=" ">
<polygon fill="white" stroke="black" points="943.24,-0.5 943.24,-30.5 1055.24,-30.5 1055.24,-0.5 943.24,-0.5"/>
<text text-anchor="start" x="951.24" y="-18.5" font-family="Helvetica,sans-Serif" font-size="10.00">src/graphics/shader</text>
<text text-anchor="middle" x="999.24" y="-7.5" font-family="Helvetica,sans-Serif" font-size="10.00">/skybox_shader.cpp</text>
</a>
</g>
</g>
<!-- Node23&#45;&gt;Node24 -->
<g id="edge44" class="edge">
<title>Node23&#45;&gt;Node24</title>
<path fill="none" stroke="midnightblue" d="M963.56,-59.45C971.5,-49.9 980.55,-39 987.55,-30.58"/>
<polygon fill="midnightblue" stroke="midnightblue" points="960.66,-57.47 956.96,-67.4 966.04,-61.94 960.66,-57.47"/>
</g>
</g>
</svg>
