<?xml version="1.0" encoding="UTF-8" standalone="no"?>
<!DOCTYPE svg PUBLIC "-//W3C//DTD SVG 1.1//EN"
 "http://www.w3.org/Graphics/SVG/1.1/DTD/svg11.dtd">
<!-- Generated by graphviz version 2.43.0 (0)
 -->
<!-- Title: src/graphics/shader/shader_program.h Pages: 1 -->
<svg width="722pt" height="95pt"
 viewBox="0.00 0.00 722.00 95.00" xmlns="http://www.w3.org/2000/svg" xmlns:xlink="http://www.w3.org/1999/xlink">
<g id="graph0" class="graph" transform="scale(1 1) rotate(0) translate(4 91)">
<title>src/graphics/shader/shader_program.h</title>
<polygon fill="white" stroke="transparent" points="-4,4 -4,-91 718,-91 718,4 -4,4"/>
<!-- Node1 -->
<g id="node1" class="node">
<title>Node1</title>
<g id="a_node1"><a xlink:title=" ">
<polygon fill="#bfbfbf" stroke="black" points="227.5,-56.5 227.5,-86.5 338.5,-86.5 338.5,-56.5 227.5,-56.5"/>
<text text-anchor="start" x="235.5" y="-74.5" font-family="Helvetica,sans-Serif" font-size="10.00">src/graphics/shader</text>
<text text-anchor="middle" x="283" y="-63.5" font-family="Helvetica,sans-Serif" font-size="10.00">/shader_program.h</text>
</a>
</g>
</g>
<!-- Node2 -->
<g id="node2" class="node">
<title>Node2</title>
<g id="a_node2"><a xlink:title=" ">
<polygon fill="white" stroke="#bfbfbf" points="0,-0.5 0,-19.5 58,-19.5 58,-0.5 0,-0.5"/>
<text text-anchor="middle" x="29" y="-7.5" font-family="Helvetica,sans-Serif" font-size="10.00">memory</text>
</a>
</g>
</g>
<!-- Node1&#45;&gt;Node2 -->
<g id="edge1" class="edge">
<title>Node1&#45;&gt;Node2</title>
<path fill="none" stroke="midnightblue" d="M227.5,-57.57C186.16,-47.93 128.06,-34.36 68.08,-20.25"/>
<polygon fill="midnightblue" stroke="midnightblue" points="68.58,-16.77 58.04,-17.89 66.98,-23.59 68.58,-16.77"/>
</g>
<!-- Node3 -->
<g id="node3" class="node">
<title>Node3</title>
<g id="a_node3"><a xlink:title=" ">
<polygon fill="white" stroke="#bfbfbf" points="76,-0.5 76,-19.5 120,-19.5 120,-0.5 76,-0.5"/>
<text text-anchor="middle" x="98" y="-7.5" font-family="Helvetica,sans-Serif" font-size="10.00">string</text>
</a>
</g>
</g>
<!-- Node1&#45;&gt;Node3 -->
<g id="edge2" class="edge">
<title>Node1&#45;&gt;Node3</title>
<path fill="none" stroke="midnightblue" d="M239.16,-56.4C205.56,-45.59 159.99,-30.94 129.82,-21.23"/>
<polygon fill="midnightblue" stroke="midnightblue" points="130.81,-17.88 120.22,-18.15 128.67,-24.54 130.81,-17.88"/>
</g>
<!-- Node4 -->
<g id="node4" class="node">
<title>Node4</title>
<g id="a_node4"><a xlink:title=" ">
<polygon fill="white" stroke="#bfbfbf" points="138.5,-0.5 138.5,-19.5 185.5,-19.5 185.5,-0.5 138.5,-0.5"/>
<text text-anchor="middle" x="162" y="-7.5" font-family="Helvetica,sans-Serif" font-size="10.00">vector</text>
</a>
</g>
</g>
<!-- Node1&#45;&gt;Node4 -->
<g id="edge3" class="edge">
<title>Node1&#45;&gt;Node4</title>
<path fill="none" stroke="midnightblue" d="M254.32,-56.4C234.48,-46.64 208.24,-33.74 188.81,-24.18"/>
<polygon fill="midnightblue" stroke="midnightblue" points="190.12,-20.93 179.61,-19.66 187.04,-27.21 190.12,-20.93"/>
</g>
<!-- Node5 -->
<g id="node5" class="node">
<title>Node5</title>
<g id="a_node5"><a xlink:title=" ">
<polygon fill="white" stroke="#bfbfbf" points="204,-0.5 204,-19.5 268,-19.5 268,-0.5 204,-0.5"/>
<text text-anchor="middle" x="236" y="-7.5" font-family="Helvetica,sans-Serif" font-size="10.00">GL/glew.h</text>
</a>
</g>
</g>
<!-- Node1&#45;&gt;Node5 -->
<g id="edge4" class="edge">
<title>Node1&#45;&gt;Node5</title>
<path fill="none" stroke="midnightblue" d="M271.86,-56.4C265.03,-47.75 256.26,-36.64 249.09,-27.58"/>
<polygon fill="midnightblue" stroke="midnightblue" points="251.78,-25.34 242.84,-19.66 246.29,-29.67 251.78,-25.34"/>
</g>
<!-- Node6 -->
<g id="node6" class="node">
<title>Node6</title>
<g id="a_node6"><a xlink:title=" ">
<polygon fill="white" stroke="#bfbfbf" points="286.5,-0.5 286.5,-19.5 375.5,-19.5 375.5,-0.5 286.5,-0.5"/>
<text text-anchor="middle" x="331" y="-7.5" font-family="Helvetica,sans-Serif" font-size="10.00">maths/colour.h</text>
</a>
</g>
</g>
<!-- Node1&#45;&gt;Node6 -->
<g id="edge5" class="edge">
<title>Node1&#45;&gt;Node6</title>
<path fill="none" stroke="midnightblue" d="M294.38,-56.4C301.35,-47.75 310.31,-36.64 317.63,-27.58"/>
<polygon fill="midnightblue" stroke="midnightblue" points="320.46,-29.64 324.02,-19.66 315.01,-25.24 320.46,-29.64"/>
</g>
<!-- Node7 -->
<g id="node7" class="node">
<title>Node7</title>
<g id="a_node7"><a xlink:title=" ">
<polygon fill="white" stroke="#bfbfbf" points="394,-0.5 394,-19.5 490,-19.5 490,-0.5 394,-0.5"/>
<text text-anchor="middle" x="442" y="-7.5" font-family="Helvetica,sans-Serif" font-size="10.00">maths/vector2.h</text>
</a>
</g>
</g>
<!-- Node1&#45;&gt;Node7 -->
<g id="edge6" class="edge">
<title>Node1&#45;&gt;Node7</title>
<path fill="none" stroke="midnightblue" d="M320.68,-56.4C347.6,-46.33 383.45,-32.91 409.19,-23.28"/>
<polygon fill="midnightblue" stroke="midnightblue" points="410.73,-26.44 418.86,-19.66 408.27,-19.88 410.73,-26.44"/>
</g>
<!-- Node8 -->
<g id="node8" class="node">
<title>Node8</title>
<g id="a_node8"><a xlink:title=" ">
<polygon fill="white" stroke="#bfbfbf" points="508,-0.5 508,-19.5 604,-19.5 604,-0.5 508,-0.5"/>
<text text-anchor="middle" x="556" y="-7.5" font-family="Helvetica,sans-Serif" font-size="10.00">maths/vector3.h</text>
</a>
</g>
</g>
<!-- Node1&#45;&gt;Node8 -->
<g id="edge7" class="edge">
<title>Node1&#45;&gt;Node8</title>
<path fill="none" stroke="midnightblue" d="M338.57,-58.39C387.96,-47.62 459.46,-32.04 506.81,-21.72"/>
<polygon fill="midnightblue" stroke="midnightblue" points="507.79,-25.09 516.82,-19.54 506.3,-18.25 507.79,-25.09"/>
</g>
<!-- Node9 -->
<g id="node9" class="node">
<title>Node9</title>
<g id="a_node9"><a xlink:title=" ">
<polygon fill="white" stroke="#bfbfbf" points="622,-0.5 622,-19.5 714,-19.5 714,-0.5 622,-0.5"/>
<text text-anchor="middle" x="668" y="-7.5" font-family="Helvetica,sans-Serif" font-size="10.00">maths/matrix.h</text>
</a>
</g>
</g>
<!-- Node1&#45;&gt;Node9 -->
<g id="edge8" class="edge">
<title>Node1&#45;&gt;Node9</title>
<path fill="none" stroke="midnightblue" d="M338.79,-62.14C402.31,-52.59 509.5,-36.34 611.61,-20.21"/>
<polygon fill="midnightblue" stroke="midnightblue" points="612.46,-23.62 621.79,-18.6 611.37,-16.7 612.46,-23.62"/>
</g>
</g>
</svg>
