<?xml version="1.0" encoding="UTF-8" standalone="no"?>
<!DOCTYPE svg PUBLIC "-//W3C//DTD SVG 1.1//EN"
 "http://www.w3.org/Graphics/SVG/1.1/DTD/svg11.dtd">
<!-- Generated by graphviz version 2.43.0 (0)
 -->
<!-- Title: src/graphics/shader/shader_program.h Pages: 1 -->
<!--zoomable 307 -->
<svg id="main" version="1.1" xmlns="http://www.w3.org/2000/svg" xmlns:xlink="http://www.w3.org/1999/xlink" xml:space="preserve" onload="init(evt)">
<style type="text/css"><![CDATA[
.edge:hover path { stroke: red; }
.edge:hover polygon { stroke: red; fill: red; }
]]></style>
<script type="text/javascript"><![CDATA[
var edges = document.getElementsByTagName('g');
if (edges && edges.length) {
  for (var i=0;i<edges.length;i++) {
    if (edges[i].id.substr(0,4)=='edge') {
      edges[i].setAttribute('class','edge');
    }
  }
}
]]></script>
        <defs>
                <circle id="rim" cx="0" cy="0" r="7"/>
                <circle id="rim2" cx="0" cy="0" r="3.5"/>
                <g id="zoomPlus">
                        <use xlink:href="#rim" fill="#404040">
                                <set attributeName="fill" to="#808080" begin="zoomplus.mouseover" end="zoomplus.mouseout"/>
                        </use>
                        <path d="M-4,0h8M0,-4v8" fill="none" stroke="white" stroke-width="1.5" pointer-events="none"/>
                </g>
                <g id="zoomMin">
                        <use xlink:href="#rim" fill="#404040">
                                <set attributeName="fill" to="#808080" begin="zoomminus.mouseover" end="zoomminus.mouseout"/>
                        </use>
                        <path d="M-4,0h8" fill="none" stroke="white" stroke-width="1.5" pointer-events="none"/>
                </g>
                <g id="dirArrow">
                        <path fill="none" stroke="white" stroke-width="1.5" d="M0,-3.0v7 M-2.5,-0.5L0,-3.0L2.5,-0.5"/>
                </g>
               <g id="resetDef">
                       <use xlink:href="#rim2" fill="#404040">
                               <set attributeName="fill" to="#808080" begin="reset.mouseover" end="reset.mouseout"/>
                       </use>
               </g>
        </defs>

<script type="text/javascript">
var viewWidth = 1574;
var viewHeight = 307;
var sectionId = 'dynsection-1';
</script>
<script xlink:href="svgpan.js"/>
<svg id="graph" class="graph">
<g id="viewport">
<title>src/graphics/shader/shader_program.h</title>
<polygon fill="white" stroke="transparent" points="-4,4 -4,-303 1570,-303 1570,4 -4,4"/>
<!-- Node1 -->
<g id="node1" class="node">
<title>Node1</title>
<g id="a_node1"><a xlink:title=" ">
<polygon fill="#bfbfbf" stroke="black" points="788,-268.5 788,-298.5 899,-298.5 899,-268.5 788,-268.5"/>
<text text-anchor="start" x="796" y="-286.5" font-family="Helvetica,sans-Serif" font-size="10.00">src/graphics/shader</text>
<text text-anchor="middle" x="843.5" y="-275.5" font-family="Helvetica,sans-Serif" font-size="10.00">/shader_program.h</text>
</a>
</g>
</g>
<!-- Node2 -->
<g id="node2" class="node">
<title>Node2</title>
<g id="a_node2"><a xlink:href="camera_8h.html" target="_top" xlink:title=" ">
<polygon fill="white" stroke="black" points="464,-140 464,-159 601,-159 601,-140 464,-140"/>
<text text-anchor="middle" x="532.5" y="-147" font-family="Helvetica,sans-Serif" font-size="10.00">src/component/camera.h</text>
</a>
</g>
</g>
<!-- Node1&#45;&gt;Node2 -->
<g id="edge1" class="edge">
<title>Node1&#45;&gt;Node2</title>
<path fill="none" stroke="midnightblue" d="M777.77,-272.7C737.39,-265.07 685.38,-252.28 642.5,-232 631.65,-226.87 569.43,-179.09 543.67,-159.16"/>
<polygon fill="midnightblue" stroke="midnightblue" points="777.3,-276.17 787.77,-274.53 778.56,-269.29 777.3,-276.17"/>
</g>
<!-- Node8 -->
<g id="node8" class="node">
<title>Node8</title>
<g id="a_node8"><a xlink:href="skybox_8h.html" target="_top" xlink:title=" ">
<polygon fill="white" stroke="black" points="475,-201.5 475,-231.5 590,-231.5 590,-201.5 475,-201.5"/>
<text text-anchor="start" x="483" y="-219.5" font-family="Helvetica,sans-Serif" font-size="10.00">src/graphics/lighting</text>
<text text-anchor="middle" x="532.5" y="-208.5" font-family="Helvetica,sans-Serif" font-size="10.00">/skybox.h</text>
</a>
</g>
</g>
<!-- Node1&#45;&gt;Node8 -->
<g id="edge8" class="edge">
<title>Node1&#45;&gt;Node8</title>
<path fill="none" stroke="midnightblue" d="M777.81,-268.77C722.25,-257.16 643.43,-240.68 590.25,-229.57"/>
<polygon fill="midnightblue" stroke="midnightblue" points="777.39,-272.26 787.9,-270.88 778.83,-265.41 777.39,-272.26"/>
</g>
<!-- Node9 -->
<g id="node9" class="node">
<title>Node9</title>
<g id="a_node9"><a xlink:href="material_8h.html" target="_top" xlink:title=" ">
<polygon fill="white" stroke="black" points="225,-201.5 225,-231.5 344,-231.5 344,-201.5 225,-201.5"/>
<text text-anchor="start" x="233" y="-219.5" font-family="Helvetica,sans-Serif" font-size="10.00">src/graphics/material</text>
<text text-anchor="middle" x="284.5" y="-208.5" font-family="Helvetica,sans-Serif" font-size="10.00">/material.h</text>
</a>
</g>
</g>
<!-- Node1&#45;&gt;Node9 -->
<g id="edge10" class="edge">
<title>Node1&#45;&gt;Node9</title>
<path fill="none" stroke="midnightblue" d="M777.92,-274.87C668.32,-262.13 449.6,-236.7 344.12,-224.43"/>
<polygon fill="midnightblue" stroke="midnightblue" points="777.52,-278.35 787.86,-276.03 778.33,-271.4 777.52,-278.35"/>
</g>
<!-- Node13 -->
<g id="node13" class="node">
<title>Node13</title>
<g id="a_node13"><a xlink:href="forward__shader_8h.html" target="_top" xlink:title=" ">
<polygon fill="white" stroke="black" points="571,-67.5 571,-97.5 682,-97.5 682,-67.5 571,-67.5"/>
<text text-anchor="start" x="579" y="-85.5" font-family="Helvetica,sans-Serif" font-size="10.00">src/graphics/shader</text>
<text text-anchor="middle" x="626.5" y="-74.5" font-family="Helvetica,sans-Serif" font-size="10.00">/forward_shader.h</text>
</a>
</g>
</g>
<!-- Node1&#45;&gt;Node13 -->
<g id="edge19" class="edge">
<title>Node1&#45;&gt;Node13</title>
<path fill="none" stroke="midnightblue" d="M777.79,-276.95C743.65,-270.86 703.52,-258.19 676.5,-232 638.02,-194.7 629.15,-126.87 627.11,-97.58"/>
<polygon fill="midnightblue" stroke="midnightblue" points="777.28,-280.41 787.71,-278.57 778.41,-273.51 777.28,-280.41"/>
</g>
<!-- Node15 -->
<g id="node15" class="node">
<title>Node15</title>
<g id="a_node15"><a xlink:href="geometry__shader_8h.html" target="_top" xlink:title=" ">
<polygon fill="white" stroke="black" points="1439,-67.5 1439,-97.5 1552,-97.5 1552,-67.5 1439,-67.5"/>
<text text-anchor="start" x="1447" y="-85.5" font-family="Helvetica,sans-Serif" font-size="10.00">src/graphics/shader</text>
<text text-anchor="middle" x="1495.5" y="-74.5" font-family="Helvetica,sans-Serif" font-size="10.00">/geometry_shader.h</text>
</a>
</g>
</g>
<!-- Node1&#45;&gt;Node15 -->
<g id="edge23" class="edge">
<title>Node1&#45;&gt;Node15</title>
<path fill="none" stroke="midnightblue" d="M881.91,-264.03C920.01,-246.22 980.35,-219.33 1034.5,-201 1109.9,-175.47 1333.1,-121.78 1438.79,-96.8"/>
<polygon fill="midnightblue" stroke="midnightblue" points="880.28,-260.93 872.73,-268.36 883.26,-267.27 880.28,-260.93"/>
</g>
<!-- Node17 -->
<g id="node17" class="node">
<title>Node17</title>
<g id="a_node17"><a xlink:href="lighting__shader_8h.html" target="_top" xlink:title=" ">
<polygon fill="white" stroke="black" points="1310,-67.5 1310,-97.5 1421,-97.5 1421,-67.5 1310,-67.5"/>
<text text-anchor="start" x="1318" y="-85.5" font-family="Helvetica,sans-Serif" font-size="10.00">src/graphics/shader</text>
<text text-anchor="middle" x="1365.5" y="-74.5" font-family="Helvetica,sans-Serif" font-size="10.00">/lighting_shader.h</text>
</a>
</g>
</g>
<!-- Node1&#45;&gt;Node17 -->
<g id="edge27" class="edge">
<title>Node1&#45;&gt;Node17</title>
<path fill="none" stroke="midnightblue" d="M872.63,-262.33C884.74,-253.49 898.7,-242.71 910.5,-232 954.29,-192.26 947.87,-160.97 1000.5,-134 1120.41,-72.56 1168.73,-120.92 1301.5,-98 1304.19,-97.53 1306.95,-97.03 1309.72,-96.5"/>
<polygon fill="midnightblue" stroke="midnightblue" points="870.27,-259.71 864.19,-268.39 874.36,-265.4 870.27,-259.71"/>
</g>
<!-- Node19 -->
<g id="node19" class="node">
<title>Node19</title>
<g id="a_node19"><a xlink:href="post__proc__shader_8h.html" target="_top" xlink:title=" ">
<polygon fill="white" stroke="black" points="1179,-67.5 1179,-97.5 1292,-97.5 1292,-67.5 1179,-67.5"/>
<text text-anchor="start" x="1187" y="-85.5" font-family="Helvetica,sans-Serif" font-size="10.00">src/graphics/shader</text>
<text text-anchor="middle" x="1235.5" y="-74.5" font-family="Helvetica,sans-Serif" font-size="10.00">/post_proc_shader.h</text>
</a>
</g>
</g>
<!-- Node1&#45;&gt;Node19 -->
<g id="edge31" class="edge">
<title>Node1&#45;&gt;Node19</title>
<path fill="none" stroke="midnightblue" d="M862.31,-260.86C869.91,-251.99 878.72,-241.58 886.5,-232 921.26,-189.23 915.26,-162.4 962.5,-134 1042.91,-85.66 1078.47,-116.22 1170.5,-98 1173.22,-97.46 1176.01,-96.9 1178.81,-96.31"/>
<polygon fill="midnightblue" stroke="midnightblue" points="859.6,-258.64 855.72,-268.5 864.9,-263.21 859.6,-258.64"/>
</g>
<!-- Node21 -->
<g id="node21" class="node">
<title>Node21</title>
<g id="a_node21"><a xlink:href="shader__manager_8h.html" target="_top" xlink:title=" ">
<polygon fill="white" stroke="black" points="685,-201.5 685,-231.5 796,-231.5 796,-201.5 685,-201.5"/>
<text text-anchor="start" x="693" y="-219.5" font-family="Helvetica,sans-Serif" font-size="10.00">src/graphics/shader</text>
<text text-anchor="middle" x="740.5" y="-208.5" font-family="Helvetica,sans-Serif" font-size="10.00">/shader_manager.h</text>
</a>
</g>
</g>
<!-- Node1&#45;&gt;Node21 -->
<g id="edge35" class="edge">
<title>Node1&#45;&gt;Node21</title>
<path fill="none" stroke="midnightblue" d="M812.62,-263.02C796.6,-252.9 777.37,-240.77 762.81,-231.58"/>
<polygon fill="midnightblue" stroke="midnightblue" points="810.83,-266.02 821.15,-268.4 814.56,-260.1 810.83,-266.02"/>
</g>
<!-- Node22 -->
<g id="node22" class="node">
<title>Node22</title>
<g id="a_node22"><a xlink:href="shader__program_8cpp.html" target="_top" xlink:title=" ">
<polygon fill="white" stroke="black" points="1043,-201.5 1043,-231.5 1162,-231.5 1162,-201.5 1043,-201.5"/>
<text text-anchor="start" x="1051" y="-219.5" font-family="Helvetica,sans-Serif" font-size="10.00">src/graphics/shader</text>
<text text-anchor="middle" x="1102.5" y="-208.5" font-family="Helvetica,sans-Serif" font-size="10.00">/shader_program.cpp</text>
</a>
</g>
</g>
<!-- Node1&#45;&gt;Node22 -->
<g id="edge37" class="edge">
<title>Node1&#45;&gt;Node22</title>
<path fill="none" stroke="midnightblue" d="M909.02,-266.06C951.48,-255.4 1006.18,-241.67 1046.58,-231.53"/>
<polygon fill="midnightblue" stroke="midnightblue" points="907.91,-262.73 899.06,-268.56 909.61,-269.52 907.91,-262.73"/>
</g>
<!-- Node23 -->
<g id="node23" class="node">
<title>Node23</title>
<g id="a_node23"><a xlink:href="shadow__2d__shader_8h.html" target="_top" xlink:title=" ">
<polygon fill="white" stroke="black" points="1040,-67.5 1040,-97.5 1161,-97.5 1161,-67.5 1040,-67.5"/>
<text text-anchor="start" x="1048" y="-85.5" font-family="Helvetica,sans-Serif" font-size="10.00">src/graphics/shader</text>
<text text-anchor="middle" x="1100.5" y="-74.5" font-family="Helvetica,sans-Serif" font-size="10.00">/shadow_2d_shader.h</text>
</a>
</g>
</g>
<!-- Node1&#45;&gt;Node23 -->
<g id="edge38" class="edge">
<title>Node1&#45;&gt;Node23</title>
<path fill="none" stroke="midnightblue" d="M853.69,-258.82C870.24,-221.39 903.24,-151.04 924.5,-134 934.05,-126.35 995.8,-109.63 1043.49,-97.52"/>
<polygon fill="midnightblue" stroke="midnightblue" points="850.29,-257.87 849.49,-268.44 856.7,-260.68 850.29,-257.87"/>
</g>
<!-- Node24 -->
<g id="node24" class="node">
<title>Node24</title>
<g id="a_node24"><a xlink:href="shadow__cubemap__shader_8h.html" target="_top" xlink:title=" ">
<polygon fill="white" stroke="black" points="738.5,-67.5 738.5,-97.5 892.5,-97.5 892.5,-67.5 738.5,-67.5"/>
<text text-anchor="start" x="746.5" y="-85.5" font-family="Helvetica,sans-Serif" font-size="10.00">src/graphics/shader</text>
<text text-anchor="middle" x="815.5" y="-74.5" font-family="Helvetica,sans-Serif" font-size="10.00">/shadow_cubemap_shader.h</text>
</a>
</g>
</g>
<!-- Node1&#45;&gt;Node24 -->
<g id="edge41" class="edge">
<title>Node1&#45;&gt;Node24</title>
<path fill="none" stroke="midnightblue" d="M840.09,-258.27C834.18,-216.29 822.23,-131.33 817.5,-97.68"/>
<polygon fill="midnightblue" stroke="midnightblue" points="836.63,-258.77 841.49,-268.19 843.56,-257.8 836.63,-258.77"/>
</g>
<!-- Node25 -->
<g id="node25" class="node">
<title>Node25</title>
<g id="a_node25"><a xlink:href="skybox__shader_8h.html" target="_top" xlink:title=" ">
<polygon fill="white" stroke="black" points="911,-67.5 911,-97.5 1022,-97.5 1022,-67.5 911,-67.5"/>
<text text-anchor="start" x="919" y="-85.5" font-family="Helvetica,sans-Serif" font-size="10.00">src/graphics/shader</text>
<text text-anchor="middle" x="966.5" y="-74.5" font-family="Helvetica,sans-Serif" font-size="10.00">/skybox_shader.h</text>
</a>
</g>
</g>
<!-- Node1&#45;&gt;Node25 -->
<g id="edge44" class="edge">
<title>Node1&#45;&gt;Node25</title>
<path fill="none" stroke="midnightblue" d="M845.24,-258.28C848.6,-226.79 858.36,-171.42 886.5,-134 898.44,-118.12 916.97,-105.97 933.19,-97.57"/>
<polygon fill="midnightblue" stroke="midnightblue" points="841.75,-258.07 844.3,-268.35 848.72,-258.72 841.75,-258.07"/>
</g>
<!-- Node3 -->
<g id="node3" class="node">
<title>Node3</title>
<g id="a_node3"><a xlink:href="game__scene_8cpp.html" target="_top" xlink:title=" ">
<polygon fill="white" stroke="black" points="728.5,-0.5 728.5,-30.5 852.5,-30.5 852.5,-0.5 728.5,-0.5"/>
<text text-anchor="start" x="736.5" y="-18.5" font-family="Helvetica,sans-Serif" font-size="10.00">src/game/scene/game</text>
<text text-anchor="middle" x="790.5" y="-7.5" font-family="Helvetica,sans-Serif" font-size="10.00">_scene.cpp</text>
</a>
</g>
</g>
<!-- Node2&#45;&gt;Node3 -->
<g id="edge2" class="edge">
<title>Node2&#45;&gt;Node3</title>
<path fill="none" stroke="midnightblue" d="M534.01,-129.91C536.54,-111.25 543.32,-83.04 561.5,-67 574.05,-55.92 665.03,-38.23 728.46,-27"/>
<polygon fill="midnightblue" stroke="midnightblue" points="530.53,-129.55 532.93,-139.87 537.49,-130.3 530.53,-129.55"/>
</g>
<!-- Node4 -->
<g id="node4" class="node">
<title>Node4</title>
<g id="a_node4"><a xlink:href="graphics__renderer_8h.html" target="_top" xlink:title=" ">
<polygon fill="white" stroke="black" points="225,-67.5 225,-97.5 344,-97.5 344,-67.5 225,-67.5"/>
<text text-anchor="start" x="233" y="-85.5" font-family="Helvetica,sans-Serif" font-size="10.00">src/graphics/renderer</text>
<text text-anchor="middle" x="284.5" y="-74.5" font-family="Helvetica,sans-Serif" font-size="10.00">/graphics_renderer.h</text>
</a>
</g>
</g>
<!-- Node2&#45;&gt;Node4 -->
<g id="edge3" class="edge">
<title>Node2&#45;&gt;Node4</title>
<path fill="none" stroke="midnightblue" d="M489.91,-137.34C447.92,-126.33 383.6,-109.47 338.14,-97.56"/>
<polygon fill="midnightblue" stroke="midnightblue" points="489.26,-140.79 499.82,-139.94 491.04,-134.01 489.26,-140.79"/>
</g>
<!-- Node7 -->
<g id="node7" class="node">
<title>Node7</title>
<g id="a_node7"><a xlink:href="scene_8cpp.html" target="_top" xlink:title=" ">
<polygon fill="white" stroke="black" points="400.5,-73 400.5,-92 514.5,-92 514.5,-73 400.5,-73"/>
<text text-anchor="middle" x="457.5" y="-80" font-family="Helvetica,sans-Serif" font-size="10.00">src/scene/scene.cpp</text>
</a>
</g>
</g>
<!-- Node2&#45;&gt;Node7 -->
<g id="edge7" class="edge">
<title>Node2&#45;&gt;Node7</title>
<path fill="none" stroke="midnightblue" d="M514.45,-132.86C499.71,-120.08 479.41,-102.49 467.45,-92.13"/>
<polygon fill="midnightblue" stroke="midnightblue" points="512.54,-135.83 522.39,-139.73 517.12,-130.54 512.54,-135.83"/>
</g>
<!-- Node4&#45;&gt;Node3 -->
<g id="edge5" class="edge">
<title>Node4&#45;&gt;Node3</title>
<path fill="none" stroke="midnightblue" d="M354.09,-67.69C355.57,-67.45 357.04,-67.22 358.5,-67 506.12,-44.62 544.4,-49.93 692.5,-31 704.1,-29.52 716.45,-27.8 728.34,-26.08"/>
<polygon fill="midnightblue" stroke="midnightblue" points="353.48,-64.24 344.2,-69.34 354.64,-71.14 353.48,-64.24"/>
</g>
<!-- Node5 -->
<g id="node5" class="node">
<title>Node5</title>
<g id="a_node5"><a xlink:href="application_8cpp.html" target="_top" xlink:title=" ">
<polygon fill="white" stroke="black" points="202,-6 202,-25 367,-25 367,-6 202,-6"/>
<text text-anchor="middle" x="284.5" y="-13" font-family="Helvetica,sans-Serif" font-size="10.00">src/application/application.cpp</text>
</a>
</g>
</g>
<!-- Node4&#45;&gt;Node5 -->
<g id="edge4" class="edge">
<title>Node4&#45;&gt;Node5</title>
<path fill="none" stroke="midnightblue" d="M284.5,-57.25C284.5,-46.02 284.5,-33.38 284.5,-25.19"/>
<polygon fill="midnightblue" stroke="midnightblue" points="281,-57.4 284.5,-67.4 288,-57.4 281,-57.4"/>
</g>
<!-- Node6 -->
<g id="node6" class="node">
<title>Node6</title>
<g id="a_node6"><a xlink:href="graphics__renderer_8cpp.html" target="_top" xlink:title=" ">
<polygon fill="white" stroke="black" points="961,-0.5 961,-30.5 1088,-30.5 1088,-0.5 961,-0.5"/>
<text text-anchor="start" x="969" y="-18.5" font-family="Helvetica,sans-Serif" font-size="10.00">src/graphics/renderer</text>
<text text-anchor="middle" x="1024.5" y="-7.5" font-family="Helvetica,sans-Serif" font-size="10.00">/graphics_renderer.cpp</text>
</a>
</g>
</g>
<!-- Node4&#45;&gt;Node6 -->
<g id="edge6" class="edge">
<title>Node4&#45;&gt;Node6</title>
<path fill="none" stroke="midnightblue" d="M354.39,-71.43C366.74,-69.82 379.48,-68.27 391.5,-67 599.83,-44.92 652.71,-48.28 861.5,-31 894.2,-28.29 930.58,-25.08 960.65,-22.36"/>
<polygon fill="midnightblue" stroke="midnightblue" points="353.59,-68.01 344.13,-72.79 354.51,-74.95 353.59,-68.01"/>
</g>
<!-- Node8&#45;&gt;Node2 -->
<g id="edge9" class="edge">
<title>Node8&#45;&gt;Node2</title>
<path fill="none" stroke="midnightblue" d="M532.5,-191.25C532.5,-180.02 532.5,-167.38 532.5,-159.19"/>
<polygon fill="midnightblue" stroke="midnightblue" points="529,-191.4 532.5,-201.4 536,-191.4 529,-191.4"/>
</g>
<!-- Node9&#45;&gt;Node4 -->
<g id="edge18" class="edge">
<title>Node9&#45;&gt;Node4</title>
<path fill="none" stroke="midnightblue" d="M284.5,-191.02C284.5,-163.51 284.5,-119.79 284.5,-97.52"/>
<polygon fill="midnightblue" stroke="midnightblue" points="281,-191.37 284.5,-201.37 288,-191.37 281,-191.37"/>
</g>
<!-- Node10 -->
<g id="node10" class="node">
<title>Node10</title>
<g id="a_node10"><a xlink:href="render__mesh_8h.html" target="_top" xlink:title=" ">
<polygon fill="white" stroke="black" points="313,-134.5 313,-164.5 436,-164.5 436,-134.5 313,-134.5"/>
<text text-anchor="start" x="321" y="-152.5" font-family="Helvetica,sans-Serif" font-size="10.00">src/component/render</text>
<text text-anchor="middle" x="374.5" y="-141.5" font-family="Helvetica,sans-Serif" font-size="10.00">_mesh.h</text>
</a>
</g>
</g>
<!-- Node9&#45;&gt;Node10 -->
<g id="edge11" class="edge">
<title>Node9&#45;&gt;Node10</title>
<path fill="none" stroke="midnightblue" d="M312.26,-195.45C326.11,-185.45 342.52,-173.6 355.01,-164.58"/>
<polygon fill="midnightblue" stroke="midnightblue" points="310.09,-192.7 304.03,-201.4 314.18,-198.38 310.09,-192.7"/>
</g>
<!-- Node11 -->
<g id="node11" class="node">
<title>Node11</title>
<g id="a_node11"><a xlink:href="material_8cpp.html" target="_top" xlink:title=" ">
<polygon fill="white" stroke="black" points="0,-134.5 0,-164.5 119,-164.5 119,-134.5 0,-134.5"/>
<text text-anchor="start" x="8" y="-152.5" font-family="Helvetica,sans-Serif" font-size="10.00">src/graphics/material</text>
<text text-anchor="middle" x="59.5" y="-141.5" font-family="Helvetica,sans-Serif" font-size="10.00">/material.cpp</text>
</a>
</g>
</g>
<!-- Node9&#45;&gt;Node11 -->
<g id="edge15" class="edge">
<title>Node9&#45;&gt;Node11</title>
<path fill="none" stroke="midnightblue" d="M225.93,-198.58C189.39,-188.02 142.9,-174.59 108.35,-164.61"/>
<polygon fill="midnightblue" stroke="midnightblue" points="225.38,-202.06 235.96,-201.48 227.32,-195.34 225.38,-202.06"/>
</g>
<!-- Node12 -->
<g id="node12" class="node">
<title>Node12</title>
<g id="a_node12"><a xlink:href="material__manager_8h.html" target="_top" xlink:title=" ">
<polygon fill="white" stroke="black" points="137,-134.5 137,-164.5 256,-164.5 256,-134.5 137,-134.5"/>
<text text-anchor="start" x="145" y="-152.5" font-family="Helvetica,sans-Serif" font-size="10.00">src/graphics/material</text>
<text text-anchor="middle" x="196.5" y="-141.5" font-family="Helvetica,sans-Serif" font-size="10.00">/material_manager.h</text>
</a>
</g>
</g>
<!-- Node9&#45;&gt;Node12 -->
<g id="edge16" class="edge">
<title>Node9&#45;&gt;Node12</title>
<path fill="none" stroke="midnightblue" d="M257.36,-195.45C243.82,-185.45 227.77,-173.6 215.56,-164.58"/>
<polygon fill="midnightblue" stroke="midnightblue" points="255.28,-198.27 265.41,-201.4 259.44,-192.64 255.28,-198.27"/>
</g>
<!-- Node10&#45;&gt;Node3 -->
<g id="edge12" class="edge">
<title>Node10&#45;&gt;Node3</title>
<path fill="none" stroke="midnightblue" d="M372.6,-124.3C372.59,-105.86 375.92,-81.29 391.5,-67 441.15,-21.47 625.73,-39.93 692.5,-31 704.09,-29.45 716.44,-27.7 728.33,-25.97"/>
<polygon fill="midnightblue" stroke="midnightblue" points="369.11,-124.44 372.93,-134.32 376.1,-124.21 369.11,-124.44"/>
</g>
<!-- Node10&#45;&gt;Node4 -->
<g id="edge13" class="edge">
<title>Node10&#45;&gt;Node4</title>
<path fill="none" stroke="midnightblue" d="M346.74,-128.45C332.89,-118.45 316.48,-106.6 303.99,-97.58"/>
<polygon fill="midnightblue" stroke="midnightblue" points="344.82,-131.38 354.97,-134.4 348.91,-125.7 344.82,-131.38"/>
</g>
<!-- Node10&#45;&gt;Node7 -->
<g id="edge14" class="edge">
<title>Node10&#45;&gt;Node7</title>
<path fill="none" stroke="midnightblue" d="M400.67,-128.01C416.08,-115.94 434.76,-101.3 446.4,-92.19"/>
<polygon fill="midnightblue" stroke="midnightblue" points="398.22,-125.47 392.51,-134.4 402.54,-130.99 398.22,-125.47"/>
</g>
<!-- Node12&#45;&gt;Node3 -->
<g id="edge17" class="edge">
<title>Node12&#45;&gt;Node3</title>
<path fill="none" stroke="midnightblue" d="M195.08,-124.36C195.42,-105.75 199.27,-80.91 215.5,-67 255.86,-32.41 639.68,-36.89 692.5,-31 704.12,-29.7 716.49,-28.07 728.38,-26.38"/>
<polygon fill="midnightblue" stroke="midnightblue" points="191.58,-124.52 195.22,-134.47 198.58,-124.43 191.58,-124.52"/>
</g>
<!-- Node13&#45;&gt;Node3 -->
<g id="edge20" class="edge">
<title>Node13&#45;&gt;Node3</title>
<path fill="none" stroke="midnightblue" d="M671.46,-63.68C697.76,-53.26 730.5,-40.28 754.98,-30.58"/>
<polygon fill="midnightblue" stroke="midnightblue" points="670.09,-60.46 662.09,-67.4 672.67,-66.97 670.09,-60.46"/>
</g>
<!-- Node13&#45;&gt;Node6 -->
<g id="edge21" class="edge">
<title>Node13&#45;&gt;Node6</title>
<path fill="none" stroke="midnightblue" d="M692.46,-70.73C766.96,-58.56 887.38,-38.89 960.9,-26.89"/>
<polygon fill="midnightblue" stroke="midnightblue" points="691.56,-67.33 682.26,-72.39 692.69,-74.24 691.56,-67.33"/>
</g>
<!-- Node14 -->
<g id="node14" class="node">
<title>Node14</title>
<g id="a_node14"><a xlink:href="forward__shader_8cpp.html" target="_top" xlink:title=" ">
<polygon fill="white" stroke="black" points="569,-0.5 569,-30.5 684,-30.5 684,-0.5 569,-0.5"/>
<text text-anchor="start" x="577" y="-18.5" font-family="Helvetica,sans-Serif" font-size="10.00">src/graphics/shader</text>
<text text-anchor="middle" x="626.5" y="-7.5" font-family="Helvetica,sans-Serif" font-size="10.00">/forward_shader.cpp</text>
</a>
</g>
</g>
<!-- Node13&#45;&gt;Node14 -->
<g id="edge22" class="edge">
<title>Node13&#45;&gt;Node14</title>
<path fill="none" stroke="midnightblue" d="M626.5,-57.11C626.5,-48.15 626.5,-38.32 626.5,-30.58"/>
<polygon fill="midnightblue" stroke="midnightblue" points="623,-57.4 626.5,-67.4 630,-57.4 623,-57.4"/>
</g>
<!-- Node15&#45;&gt;Node3 -->
<g id="edge24" class="edge">
<title>Node15&#45;&gt;Node3</title>
<path fill="none" stroke="midnightblue" d="M1428.72,-66.87C1218.01,-36.12 1161.51,-48.22 952.5,-31 919.57,-28.29 882.91,-25.02 852.79,-22.28"/>
<polygon fill="midnightblue" stroke="midnightblue" points="1428.47,-70.37 1438.87,-68.36 1429.49,-63.44 1428.47,-70.37"/>
</g>
<!-- Node15&#45;&gt;Node6 -->
<g id="edge25" class="edge">
<title>Node15&#45;&gt;Node6</title>
<path fill="none" stroke="midnightblue" d="M1428.91,-66.85C1350.91,-54.07 1181.35,-34.27 1088.29,-23.68"/>
<polygon fill="midnightblue" stroke="midnightblue" points="1428.4,-70.31 1438.84,-68.53 1429.57,-63.41 1428.4,-70.31"/>
</g>
<!-- Node16 -->
<g id="node16" class="node">
<title>Node16</title>
<g id="a_node16"><a xlink:href="geometry__shader_8cpp.html" target="_top" xlink:title=" ">
<polygon fill="white" stroke="black" points="1441,-0.5 1441,-30.5 1566,-30.5 1566,-0.5 1441,-0.5"/>
<text text-anchor="start" x="1449" y="-18.5" font-family="Helvetica,sans-Serif" font-size="10.00">src/graphics/shader</text>
<text text-anchor="middle" x="1503.5" y="-7.5" font-family="Helvetica,sans-Serif" font-size="10.00">/geometry_shader.cpp</text>
</a>
</g>
</g>
<!-- Node15&#45;&gt;Node16 -->
<g id="edge26" class="edge">
<title>Node15&#45;&gt;Node16</title>
<path fill="none" stroke="midnightblue" d="M1498.47,-57.4C1499.58,-48.37 1500.8,-38.41 1501.77,-30.58"/>
<polygon fill="midnightblue" stroke="midnightblue" points="1494.98,-57.04 1497.24,-67.4 1501.93,-57.9 1494.98,-57.04"/>
</g>
<!-- Node17&#45;&gt;Node3 -->
<g id="edge28" class="edge">
<title>Node17&#45;&gt;Node3</title>
<path fill="none" stroke="midnightblue" d="M1299.73,-66.96C1229.13,-57.26 972.25,-33.24 852.51,-22.19"/>
<polygon fill="midnightblue" stroke="midnightblue" points="1299.33,-70.43 1309.73,-68.44 1300.35,-63.51 1299.33,-70.43"/>
</g>
<!-- Node17&#45;&gt;Node6 -->
<g id="edge29" class="edge">
<title>Node17&#45;&gt;Node6</title>
<path fill="none" stroke="midnightblue" d="M1299.69,-66.67C1221.73,-50.88 1142.12,-36.66 1088.18,-27.32"/>
<polygon fill="midnightblue" stroke="midnightblue" points="1299.19,-70.14 1309.68,-68.71 1300.58,-63.28 1299.19,-70.14"/>
</g>
<!-- Node18 -->
<g id="node18" class="node">
<title>Node18</title>
<g id="a_node18"><a xlink:href="lighting__shader_8cpp.html" target="_top" xlink:title=" ">
<polygon fill="white" stroke="black" points="1308.5,-0.5 1308.5,-30.5 1422.5,-30.5 1422.5,-0.5 1308.5,-0.5"/>
<text text-anchor="start" x="1316.5" y="-18.5" font-family="Helvetica,sans-Serif" font-size="10.00">src/graphics/shader</text>
<text text-anchor="middle" x="1365.5" y="-7.5" font-family="Helvetica,sans-Serif" font-size="10.00">/lighting_shader.cpp</text>
</a>
</g>
</g>
<!-- Node17&#45;&gt;Node18 -->
<g id="edge30" class="edge">
<title>Node17&#45;&gt;Node18</title>
<path fill="none" stroke="midnightblue" d="M1365.5,-57.11C1365.5,-48.15 1365.5,-38.32 1365.5,-30.58"/>
<polygon fill="midnightblue" stroke="midnightblue" points="1362,-57.4 1365.5,-67.4 1369,-57.4 1362,-57.4"/>
</g>
<!-- Node19&#45;&gt;Node3 -->
<g id="edge32" class="edge">
<title>Node19&#45;&gt;Node3</title>
<path fill="none" stroke="midnightblue" d="M1168.64,-66.75C1051.73,-46.32 925.95,-31.2 852.63,-23.07"/>
<polygon fill="midnightblue" stroke="midnightblue" points="1168.38,-70.26 1178.84,-68.55 1169.6,-63.37 1168.38,-70.26"/>
</g>
<!-- Node19&#45;&gt;Node6 -->
<g id="edge33" class="edge">
<title>Node19&#45;&gt;Node6</title>
<path fill="none" stroke="midnightblue" d="M1180.13,-64.44C1145.93,-53.91 1102.57,-40.55 1070.31,-30.61"/>
<polygon fill="midnightblue" stroke="midnightblue" points="1179.39,-67.88 1189.98,-67.48 1181.45,-61.19 1179.39,-67.88"/>
</g>
<!-- Node20 -->
<g id="node20" class="node">
<title>Node20</title>
<g id="a_node20"><a xlink:href="post__proc__shader_8cpp.html" target="_top" xlink:title=" ">
<polygon fill="white" stroke="black" points="1165,-0.5 1165,-30.5 1290,-30.5 1290,-0.5 1165,-0.5"/>
<text text-anchor="start" x="1173" y="-18.5" font-family="Helvetica,sans-Serif" font-size="10.00">src/graphics/shader</text>
<text text-anchor="middle" x="1227.5" y="-7.5" font-family="Helvetica,sans-Serif" font-size="10.00">/post_proc_shader.cpp</text>
</a>
</g>
</g>
<!-- Node19&#45;&gt;Node20 -->
<g id="edge34" class="edge">
<title>Node19&#45;&gt;Node20</title>
<path fill="none" stroke="midnightblue" d="M1232.53,-57.4C1231.42,-48.37 1230.2,-38.41 1229.23,-30.58"/>
<polygon fill="midnightblue" stroke="midnightblue" points="1229.07,-57.9 1233.76,-67.4 1236.02,-57.04 1229.07,-57.9"/>
</g>
<!-- Node21&#45;&gt;Node3 -->
<g id="edge36" class="edge">
<title>Node21&#45;&gt;Node3</title>
<path fill="none" stroke="midnightblue" d="M731.72,-191.37C722.13,-160.84 710.5,-107.39 729.5,-67 736.76,-51.57 751.29,-39.24 764.36,-30.63"/>
<polygon fill="midnightblue" stroke="midnightblue" points="728.5,-192.76 734.97,-201.15 735.14,-190.56 728.5,-192.76"/>
</g>
<!-- Node23&#45;&gt;Node3 -->
<g id="edge39" class="edge">
<title>Node23&#45;&gt;Node3</title>
<path fill="none" stroke="midnightblue" d="M1029.78,-66.64C964,-52.84 898.96,-39.21 852.67,-29.52"/>
<polygon fill="midnightblue" stroke="midnightblue" points="1029.41,-70.14 1039.92,-68.77 1030.85,-63.29 1029.41,-70.14"/>
</g>
<!-- Node23&#45;&gt;Node6 -->
<g id="edge40" class="edge">
<title>Node23&#45;&gt;Node6</title>
<path fill="none" stroke="midnightblue" d="M1076.39,-60.88C1064.84,-51.01 1051.31,-39.43 1040.96,-30.58"/>
<polygon fill="midnightblue" stroke="midnightblue" points="1074.13,-63.56 1084.01,-67.4 1078.68,-58.24 1074.13,-63.56"/>
</g>
<!-- Node24&#45;&gt;Node3 -->
<g id="edge42" class="edge">
<title>Node24&#45;&gt;Node3</title>
<path fill="none" stroke="midnightblue" d="M806.46,-57.99C802.92,-48.8 798.99,-38.58 795.91,-30.58"/>
<polygon fill="midnightblue" stroke="midnightblue" points="803.22,-59.32 810.08,-67.4 809.75,-56.81 803.22,-59.32"/>
</g>
<!-- Node24&#45;&gt;Node6 -->
<g id="edge43" class="edge">
<title>Node24&#45;&gt;Node6</title>
<path fill="none" stroke="midnightblue" d="M870.34,-64.44C904.22,-53.91 947.17,-40.55 979.13,-30.61"/>
<polygon fill="midnightblue" stroke="midnightblue" points="869.1,-61.16 860.59,-67.48 871.18,-67.85 869.1,-61.16"/>
</g>
<!-- Node25&#45;&gt;Node3 -->
<g id="edge45" class="edge">
<title>Node25&#45;&gt;Node3</title>
<path fill="none" stroke="midnightblue" d="M918.62,-63.82C890.33,-53.37 855.01,-40.32 828.61,-30.58"/>
<polygon fill="midnightblue" stroke="midnightblue" points="917.72,-67.21 928.31,-67.4 920.14,-60.65 917.72,-67.21"/>
</g>
<!-- Node25&#45;&gt;Node6 -->
<g id="edge46" class="edge">
<title>Node25&#45;&gt;Node6</title>
<path fill="none" stroke="midnightblue" d="M985.92,-59.74C994.5,-50.12 1004.34,-39.09 1011.94,-30.58"/>
<polygon fill="midnightblue" stroke="midnightblue" points="983.13,-57.6 979.09,-67.4 988.35,-62.26 983.13,-57.6"/>
</g>
</g>
</svg>
        <g id="navigator" transform="translate(0 0)" fill="#404254">
                <rect fill="#f2f5e9" fill-opacity="0.5" stroke="#606060" stroke-width=".5" x="0" y="0" width="60" height="60"/>
                <use id="zoomplus" xlink:href="#zoomPlus" x="17" y="9" onmousedown="handleZoom(evt,'in')"/>
                <use id="zoomminus" xlink:href="#zoomMin" x="42" y="9" onmousedown="handleZoom(evt,'out')"/>
                <use id="reset" xlink:href="#resetDef" x="30" y="36" onmousedown="handleReset()"/>
                <g id="arrowUp" xlink:href="#dirArrow" transform="translate(30 24)" onmousedown="handlePan(0,-1)">
                  <use xlink:href="#rim" fill="#404040">
                        <set attributeName="fill" to="#808080" begin="arrowUp.mouseover" end="arrowUp.mouseout"/>
                  </use>
                  <path fill="none" stroke="white" stroke-width="1.5" d="M0,-3.0v7 M-2.5,-0.5L0,-3.0L2.5,-0.5"/>
                </g>
                <g id="arrowRight" xlink:href="#dirArrow" transform="rotate(90) translate(36 -43)" onmousedown="handlePan(1,0)">
                  <use xlink:href="#rim" fill="#404040">
                        <set attributeName="fill" to="#808080" begin="arrowRight.mouseover" end="arrowRight.mouseout"/>
                  </use>
                  <path fill="none" stroke="white" stroke-width="1.5" d="M0,-3.0v7 M-2.5,-0.5L0,-3.0L2.5,-0.5"/>
                </g>
                <g id="arrowDown" xlink:href="#dirArrow" transform="rotate(180) translate(-30 -48)" onmousedown="handlePan(0,1)">
                  <use xlink:href="#rim" fill="#404040">
                        <set attributeName="fill" to="#808080" begin="arrowDown.mouseover" end="arrowDown.mouseout"/>
                  </use>
                  <path fill="none" stroke="white" stroke-width="1.5" d="M0,-3.0v7 M-2.5,-0.5L0,-3.0L2.5,-0.5"/>
                </g>
                <g id="arrowLeft" xlink:href="#dirArrow" transform="rotate(270) translate(-36 17)" onmousedown="handlePan(-1,0)">
                  <use xlink:href="#rim" fill="#404040">
                        <set attributeName="fill" to="#808080" begin="arrowLeft.mouseover" end="arrowLeft.mouseout"/>
                  </use>
                  <path fill="none" stroke="white" stroke-width="1.5" d="M0,-3.0v7 M-2.5,-0.5L0,-3.0L2.5,-0.5"/>
                </g>
        </g>
        <svg viewBox="0 0 15 15" width="100%" height="30px" preserveAspectRatio="xMaxYMin meet">
         <g id="arrow_out" transform="scale(0.3 0.3)">
          <a xlink:href="shader__program_8h__dep__incl_org.svg" target="_base">
           <rect id="button" ry="5" rx="5" y="6" x="6" height="38" width="38"
                fill="#f2f5e9" fill-opacity="0.5" stroke="#606060" stroke-width="1.0"/>
           <path id="arrow"
             d="M 11.500037,31.436501 C 11.940474,20.09759 22.043105,11.32322 32.158766,21.979434 L 37.068811,17.246167 C 37.068811,17.246167 37.088388,32 37.088388,32 L 22.160133,31.978069 C 22.160133,31.978069 26.997745,27.140456 26.997745,27.140456 C 18.528582,18.264221 13.291696,25.230495 11.500037,31.436501 z"
             style="fill:#404040;"/>
          </a>
         </g>
        </svg>
</svg>
