<?xml version="1.0" encoding="UTF-8" standalone="no"?>
<!DOCTYPE svg PUBLIC "-//W3C//DTD SVG 1.1//EN"
 "http://www.w3.org/Graphics/SVG/1.1/DTD/svg11.dtd">
<!-- Generated by graphviz version 2.43.0 (0)
 -->
<!-- Title: src/graphics/shader/shader_program.h Pages: 1 -->
<svg width="1853pt" height="307pt"
 viewBox="0.00 0.00 1853.00 307.00" xmlns="http://www.w3.org/2000/svg" xmlns:xlink="http://www.w3.org/1999/xlink">
<g id="graph0" class="graph" transform="scale(1 1) rotate(0) translate(4 303)">
<title>src/graphics/shader/shader_program.h</title>
<polygon fill="white" stroke="transparent" points="-4,4 -4,-303 1849,-303 1849,4 -4,4"/>
<!-- Node1 -->
<g id="node1" class="node">
<title>Node1</title>
<g id="a_node1"><a xlink:title=" ">
<polygon fill="#bfbfbf" stroke="black" points="904,-268.5 904,-298.5 1015,-298.5 1015,-268.5 904,-268.5"/>
<text text-anchor="start" x="912" y="-286.5" font-family="Helvetica,sans-Serif" font-size="10.00">src/graphics/shader</text>
<text text-anchor="middle" x="959.5" y="-275.5" font-family="Helvetica,sans-Serif" font-size="10.00">/shader_program.h</text>
</a>
</g>
</g>
<!-- Node2 -->
<g id="node2" class="node">
<title>Node2</title>
<g id="a_node2"><a xlink:href="camera_8h.html" target="_top" xlink:title=" ">
<polygon fill="white" stroke="black" points="464,-140 464,-159 601,-159 601,-140 464,-140"/>
<text text-anchor="middle" x="532.5" y="-147" font-family="Helvetica,sans-Serif" font-size="10.00">src/component/camera.h</text>
</a>
</g>
</g>
<!-- Node1&#45;&gt;Node2 -->
<g id="edge1" class="edge">
<title>Node1&#45;&gt;Node2</title>
<path fill="none" stroke="midnightblue" d="M893.81,-282.74C792.85,-281.74 605.97,-274.06 556.5,-232 534.59,-213.37 532.13,-175.83 532.21,-159"/>
<polygon fill="midnightblue" stroke="midnightblue" points="893.88,-286.24 903.9,-282.82 893.93,-279.24 893.88,-286.24"/>
</g>
<!-- Node8 -->
<g id="node8" class="node">
<title>Node8</title>
<g id="a_node8"><a xlink:href="skybox_8h.html" target="_top" xlink:title=" ">
<polygon fill="white" stroke="black" points="566,-201.5 566,-231.5 681,-231.5 681,-201.5 566,-201.5"/>
<text text-anchor="start" x="574" y="-219.5" font-family="Helvetica,sans-Serif" font-size="10.00">src/graphics/lighting</text>
<text text-anchor="middle" x="623.5" y="-208.5" font-family="Helvetica,sans-Serif" font-size="10.00">/skybox.h</text>
</a>
</g>
</g>
<!-- Node1&#45;&gt;Node8 -->
<g id="edge8" class="edge">
<title>Node1&#45;&gt;Node8</title>
<path fill="none" stroke="midnightblue" d="M893.6,-269.75C831.76,-257.79 740.2,-240.08 681.18,-228.66"/>
<polygon fill="midnightblue" stroke="midnightblue" points="893.16,-273.23 903.64,-271.69 894.49,-266.36 893.16,-273.23"/>
</g>
<!-- Node9 -->
<g id="node9" class="node">
<title>Node9</title>
<g id="a_node9"><a xlink:href="material_8h.html" target="_top" xlink:title=" ">
<polygon fill="white" stroke="black" points="225,-201.5 225,-231.5 344,-231.5 344,-201.5 225,-201.5"/>
<text text-anchor="start" x="233" y="-219.5" font-family="Helvetica,sans-Serif" font-size="10.00">src/graphics/material</text>
<text text-anchor="middle" x="284.5" y="-208.5" font-family="Helvetica,sans-Serif" font-size="10.00">/material.h</text>
</a>
</g>
</g>
<!-- Node1&#45;&gt;Node9 -->
<g id="edge10" class="edge">
<title>Node1&#45;&gt;Node9</title>
<path fill="none" stroke="midnightblue" d="M893.68,-276.16C762.51,-263.53 470.34,-235.4 344.29,-223.26"/>
<polygon fill="midnightblue" stroke="midnightblue" points="893.69,-279.68 903.98,-277.15 894.36,-272.71 893.69,-279.68"/>
</g>
<!-- Node13 -->
<g id="node13" class="node">
<title>Node13</title>
<g id="a_node13"><a xlink:href="alpha__blend__shader_8h.html" target="_top" xlink:title=" ">
<polygon fill="white" stroke="black" points="878,-67.5 878,-97.5 1003,-97.5 1003,-67.5 878,-67.5"/>
<text text-anchor="start" x="886" y="-85.5" font-family="Helvetica,sans-Serif" font-size="10.00">src/graphics/shader</text>
<text text-anchor="middle" x="940.5" y="-74.5" font-family="Helvetica,sans-Serif" font-size="10.00">/alpha_blend_shader.h</text>
</a>
</g>
</g>
<!-- Node1&#45;&gt;Node13 -->
<g id="edge19" class="edge">
<title>Node1&#45;&gt;Node13</title>
<path fill="none" stroke="midnightblue" d="M957.16,-258C953.14,-215.93 945.06,-131.26 941.85,-97.68"/>
<polygon fill="midnightblue" stroke="midnightblue" points="953.7,-258.57 958.13,-268.19 960.67,-257.9 953.7,-258.57"/>
</g>
<!-- Node14 -->
<g id="node14" class="node">
<title>Node14</title>
<g id="a_node14"><a xlink:href="alpha__weight__shader_8h.html" target="_top" xlink:title=" ">
<polygon fill="white" stroke="black" points="561,-67.5 561,-97.5 692,-97.5 692,-67.5 561,-67.5"/>
<text text-anchor="start" x="569" y="-85.5" font-family="Helvetica,sans-Serif" font-size="10.00">src/graphics/shader</text>
<text text-anchor="middle" x="626.5" y="-74.5" font-family="Helvetica,sans-Serif" font-size="10.00">/alpha_weight_shader.h</text>
</a>
</g>
</g>
<!-- Node1&#45;&gt;Node14 -->
<g id="edge22" class="edge">
<title>Node1&#45;&gt;Node14</title>
<path fill="none" stroke="midnightblue" d="M893.64,-274.22C855.13,-267.22 806.73,-254.56 768.5,-232 707.98,-196.29 656.51,-127.6 636.01,-97.84"/>
<polygon fill="midnightblue" stroke="midnightblue" points="893.26,-277.71 903.71,-275.96 894.46,-270.81 893.26,-277.71"/>
</g>
<!-- Node16 -->
<g id="node16" class="node">
<title>Node16</title>
<g id="a_node16"><a xlink:href="forward__shader_8h.html" target="_top" xlink:title=" ">
<polygon fill="white" stroke="black" points="710,-67.5 710,-97.5 821,-97.5 821,-67.5 710,-67.5"/>
<text text-anchor="start" x="718" y="-85.5" font-family="Helvetica,sans-Serif" font-size="10.00">src/graphics/shader</text>
<text text-anchor="middle" x="765.5" y="-74.5" font-family="Helvetica,sans-Serif" font-size="10.00">/forward_shader.h</text>
</a>
</g>
</g>
<!-- Node1&#45;&gt;Node16 -->
<g id="edge26" class="edge">
<title>Node1&#45;&gt;Node16</title>
<path fill="none" stroke="midnightblue" d="M893.6,-279.15C858.02,-273.79 816.24,-261.14 790.5,-232 756.57,-193.6 759.94,-126.95 763.39,-97.82"/>
<polygon fill="midnightblue" stroke="midnightblue" points="893.55,-282.68 903.93,-280.53 894.48,-275.74 893.55,-282.68"/>
</g>
<!-- Node18 -->
<g id="node18" class="node">
<title>Node18</title>
<g id="a_node18"><a xlink:href="geometry__shader_8h.html" target="_top" xlink:title=" ">
<polygon fill="white" stroke="black" points="1021,-67.5 1021,-97.5 1134,-97.5 1134,-67.5 1021,-67.5"/>
<text text-anchor="start" x="1029" y="-85.5" font-family="Helvetica,sans-Serif" font-size="10.00">src/graphics/shader</text>
<text text-anchor="middle" x="1077.5" y="-74.5" font-family="Helvetica,sans-Serif" font-size="10.00">/geometry_shader.h</text>
</a>
</g>
</g>
<!-- Node1&#45;&gt;Node18 -->
<g id="edge30" class="edge">
<title>Node1&#45;&gt;Node18</title>
<path fill="none" stroke="midnightblue" d="M961.41,-258.4C964.96,-227.05 974.92,-171.83 1002.5,-134 1013.88,-118.4 1031.63,-106.13 1047.01,-97.6"/>
<polygon fill="midnightblue" stroke="midnightblue" points="957.92,-258.13 960.41,-268.43 964.89,-258.83 957.92,-258.13"/>
</g>
<!-- Node20 -->
<g id="node20" class="node">
<title>Node20</title>
<g id="a_node20"><a xlink:href="lighting__shader_8h.html" target="_top" xlink:title=" ">
<polygon fill="white" stroke="black" points="1593,-67.5 1593,-97.5 1704,-97.5 1704,-67.5 1593,-67.5"/>
<text text-anchor="start" x="1601" y="-85.5" font-family="Helvetica,sans-Serif" font-size="10.00">src/graphics/shader</text>
<text text-anchor="middle" x="1648.5" y="-74.5" font-family="Helvetica,sans-Serif" font-size="10.00">/lighting_shader.h</text>
</a>
</g>
</g>
<!-- Node1&#45;&gt;Node20 -->
<g id="edge34" class="edge">
<title>Node1&#45;&gt;Node20</title>
<path fill="none" stroke="midnightblue" d="M1025.27,-275.43C1087.2,-267.86 1182.2,-253.89 1262.5,-232 1398.97,-194.79 1553.98,-126.91 1618.19,-97.6"/>
<polygon fill="midnightblue" stroke="midnightblue" points="1024.75,-271.97 1015.24,-276.64 1025.58,-278.92 1024.75,-271.97"/>
</g>
<!-- Node22 -->
<g id="node22" class="node">
<title>Node22</title>
<g id="a_node22"><a xlink:href="post__proc__shader_8h.html" target="_top" xlink:title=" ">
<polygon fill="white" stroke="black" points="1722,-67.5 1722,-97.5 1835,-97.5 1835,-67.5 1722,-67.5"/>
<text text-anchor="start" x="1730" y="-85.5" font-family="Helvetica,sans-Serif" font-size="10.00">src/graphics/shader</text>
<text text-anchor="middle" x="1778.5" y="-74.5" font-family="Helvetica,sans-Serif" font-size="10.00">/post_proc_shader.h</text>
</a>
</g>
</g>
<!-- Node1&#45;&gt;Node22 -->
<g id="edge38" class="edge">
<title>Node1&#45;&gt;Node22</title>
<path fill="none" stroke="midnightblue" d="M1025.09,-276.89C1098.28,-269.82 1219.91,-255.65 1322.5,-232 1482.53,-195.11 1666.67,-126.91 1742.76,-97.55"/>
<polygon fill="midnightblue" stroke="midnightblue" points="1024.72,-273.41 1015.09,-277.84 1025.38,-280.38 1024.72,-273.41"/>
</g>
<!-- Node24 -->
<g id="node24" class="node">
<title>Node24</title>
<g id="a_node24"><a xlink:href="shader__manager_8h.html" target="_top" xlink:title=" ">
<polygon fill="white" stroke="black" points="799,-201.5 799,-231.5 910,-231.5 910,-201.5 799,-201.5"/>
<text text-anchor="start" x="807" y="-219.5" font-family="Helvetica,sans-Serif" font-size="10.00">src/graphics/shader</text>
<text text-anchor="middle" x="854.5" y="-208.5" font-family="Helvetica,sans-Serif" font-size="10.00">/shader_manager.h</text>
</a>
</g>
</g>
<!-- Node1&#45;&gt;Node24 -->
<g id="edge42" class="edge">
<title>Node1&#45;&gt;Node24</title>
<path fill="none" stroke="midnightblue" d="M928.02,-263.02C911.68,-252.9 892.09,-240.77 877.24,-231.58"/>
<polygon fill="midnightblue" stroke="midnightblue" points="926.37,-266.11 936.72,-268.4 930.06,-260.16 926.37,-266.11"/>
</g>
<!-- Node25 -->
<g id="node25" class="node">
<title>Node25</title>
<g id="a_node25"><a xlink:href="shader__program_8cpp.html" target="_top" xlink:title=" ">
<polygon fill="white" stroke="black" points="1083,-201.5 1083,-231.5 1202,-231.5 1202,-201.5 1083,-201.5"/>
<text text-anchor="start" x="1091" y="-219.5" font-family="Helvetica,sans-Serif" font-size="10.00">src/graphics/shader</text>
<text text-anchor="middle" x="1142.5" y="-208.5" font-family="Helvetica,sans-Serif" font-size="10.00">/shader_program.cpp</text>
</a>
</g>
</g>
<!-- Node1&#45;&gt;Node25 -->
<g id="edge44" class="edge">
<title>Node1&#45;&gt;Node25</title>
<path fill="none" stroke="midnightblue" d="M1008.9,-264.96C1038.37,-254.48 1075.31,-241.37 1102.87,-231.58"/>
<polygon fill="midnightblue" stroke="midnightblue" points="1007.46,-261.75 999.21,-268.4 1009.8,-268.35 1007.46,-261.75"/>
</g>
<!-- Node26 -->
<g id="node26" class="node">
<title>Node26</title>
<g id="a_node26"><a xlink:href="shadow__2d__shader_8h.html" target="_top" xlink:title=" ">
<polygon fill="white" stroke="black" points="1152,-67.5 1152,-97.5 1273,-97.5 1273,-67.5 1152,-67.5"/>
<text text-anchor="start" x="1160" y="-85.5" font-family="Helvetica,sans-Serif" font-size="10.00">src/graphics/shader</text>
<text text-anchor="middle" x="1212.5" y="-74.5" font-family="Helvetica,sans-Serif" font-size="10.00">/shadow_2d_shader.h</text>
</a>
</g>
</g>
<!-- Node1&#45;&gt;Node26 -->
<g id="edge45" class="edge">
<title>Node1&#45;&gt;Node26</title>
<path fill="none" stroke="midnightblue" d="M971.03,-259.09C990.7,-219.49 1029.7,-142.71 1040.5,-134 1057.82,-120.03 1109.46,-105.91 1151.67,-96.17"/>
<polygon fill="midnightblue" stroke="midnightblue" points="967.77,-257.78 966.47,-268.29 974.04,-260.88 967.77,-257.78"/>
</g>
<!-- Node27 -->
<g id="node27" class="node">
<title>Node27</title>
<g id="a_node27"><a xlink:href="shadow__cubemap__shader_8h.html" target="_top" xlink:title=" ">
<polygon fill="white" stroke="black" points="1291.5,-67.5 1291.5,-97.5 1445.5,-97.5 1445.5,-67.5 1291.5,-67.5"/>
<text text-anchor="start" x="1299.5" y="-85.5" font-family="Helvetica,sans-Serif" font-size="10.00">src/graphics/shader</text>
<text text-anchor="middle" x="1368.5" y="-74.5" font-family="Helvetica,sans-Serif" font-size="10.00">/shadow_cubemap_shader.h</text>
</a>
</g>
</g>
<!-- Node1&#45;&gt;Node27 -->
<g id="edge48" class="edge">
<title>Node1&#45;&gt;Node27</title>
<path fill="none" stroke="midnightblue" d="M984.61,-262.06C1007.18,-244.35 1041.72,-218.84 1074.5,-201 1158.99,-155.02 1265.35,-117 1324.2,-97.54"/>
<polygon fill="midnightblue" stroke="midnightblue" points="982.24,-259.48 976.58,-268.43 986.59,-264.96 982.24,-259.48"/>
</g>
<!-- Node28 -->
<g id="node28" class="node">
<title>Node28</title>
<g id="a_node28"><a xlink:href="skybox__shader_8h.html" target="_top" xlink:title=" ">
<polygon fill="white" stroke="black" points="1464,-67.5 1464,-97.5 1575,-97.5 1575,-67.5 1464,-67.5"/>
<text text-anchor="start" x="1472" y="-85.5" font-family="Helvetica,sans-Serif" font-size="10.00">src/graphics/shader</text>
<text text-anchor="middle" x="1519.5" y="-74.5" font-family="Helvetica,sans-Serif" font-size="10.00">/skybox_shader.h</text>
</a>
</g>
</g>
<!-- Node1&#45;&gt;Node28 -->
<g id="edge51" class="edge">
<title>Node1&#45;&gt;Node28</title>
<path fill="none" stroke="midnightblue" d="M1025.12,-273.98C1076.68,-266.18 1149.83,-252.68 1211.5,-232 1322.38,-194.82 1445,-126.93 1495.63,-97.6"/>
<polygon fill="midnightblue" stroke="midnightblue" points="1024.48,-270.53 1015.1,-275.46 1025.51,-277.46 1024.48,-270.53"/>
</g>
<!-- Node3 -->
<g id="node3" class="node">
<title>Node3</title>
<g id="a_node3"><a xlink:href="game__scene_8cpp.html" target="_top" xlink:title=" ">
<polygon fill="white" stroke="black" points="852.5,-0.5 852.5,-30.5 976.5,-30.5 976.5,-0.5 852.5,-0.5"/>
<text text-anchor="start" x="860.5" y="-18.5" font-family="Helvetica,sans-Serif" font-size="10.00">src/game/scene/game</text>
<text text-anchor="middle" x="914.5" y="-7.5" font-family="Helvetica,sans-Serif" font-size="10.00">_scene.cpp</text>
</a>
</g>
</g>
<!-- Node2&#45;&gt;Node3 -->
<g id="edge2" class="edge">
<title>Node2&#45;&gt;Node3</title>
<path fill="none" stroke="midnightblue" d="M531.23,-129.78C531.08,-111.01 534.08,-82.7 551.5,-67 598.91,-24.25 773.43,-40.84 836.5,-31 841.67,-30.19 847.03,-29.31 852.4,-28.38"/>
<polygon fill="midnightblue" stroke="midnightblue" points="527.74,-129.94 531.62,-139.8 534.73,-129.67 527.74,-129.94"/>
</g>
<!-- Node4 -->
<g id="node4" class="node">
<title>Node4</title>
<g id="a_node4"><a xlink:href="graphics__renderer_8h.html" target="_top" xlink:title=" ">
<polygon fill="white" stroke="black" points="215,-67.5 215,-97.5 334,-97.5 334,-67.5 215,-67.5"/>
<text text-anchor="start" x="223" y="-85.5" font-family="Helvetica,sans-Serif" font-size="10.00">src/graphics/renderer</text>
<text text-anchor="middle" x="274.5" y="-74.5" font-family="Helvetica,sans-Serif" font-size="10.00">/graphics_renderer.h</text>
</a>
</g>
</g>
<!-- Node2&#45;&gt;Node4 -->
<g id="edge3" class="edge">
<title>Node2&#45;&gt;Node4</title>
<path fill="none" stroke="midnightblue" d="M488.75,-137.48C445.08,-126.47 377.8,-109.52 330.3,-97.56"/>
<polygon fill="midnightblue" stroke="midnightblue" points="487.95,-140.89 498.51,-139.94 489.66,-134.1 487.95,-140.89"/>
</g>
<!-- Node7 -->
<g id="node7" class="node">
<title>Node7</title>
<g id="a_node7"><a xlink:href="scene_8cpp.html" target="_top" xlink:title=" ">
<polygon fill="white" stroke="black" points="390.5,-73 390.5,-92 504.5,-92 504.5,-73 390.5,-73"/>
<text text-anchor="middle" x="447.5" y="-80" font-family="Helvetica,sans-Serif" font-size="10.00">src/scene/scene.cpp</text>
</a>
</g>
</g>
<!-- Node2&#45;&gt;Node7 -->
<g id="edge7" class="edge">
<title>Node2&#45;&gt;Node7</title>
<path fill="none" stroke="midnightblue" d="M512.97,-133.57C496.2,-120.74 472.59,-102.69 458.78,-92.13"/>
<polygon fill="midnightblue" stroke="midnightblue" points="510.97,-136.44 521.04,-139.73 515.22,-130.88 510.97,-136.44"/>
</g>
<!-- Node4&#45;&gt;Node3 -->
<g id="edge5" class="edge">
<title>Node4&#45;&gt;Node3</title>
<path fill="none" stroke="midnightblue" d="M344.08,-67.62C345.57,-67.4 347.04,-67.2 348.5,-67 564.04,-38.04 620.82,-58.92 836.5,-31 841.69,-30.33 847.06,-29.54 852.44,-28.67"/>
<polygon fill="midnightblue" stroke="midnightblue" points="343.51,-64.17 334.17,-69.17 344.59,-71.08 343.51,-64.17"/>
</g>
<!-- Node5 -->
<g id="node5" class="node">
<title>Node5</title>
<g id="a_node5"><a xlink:href="application_8cpp.html" target="_top" xlink:title=" ">
<polygon fill="white" stroke="black" points="192,-6 192,-25 357,-25 357,-6 192,-6"/>
<text text-anchor="middle" x="274.5" y="-13" font-family="Helvetica,sans-Serif" font-size="10.00">src/application/application.cpp</text>
</a>
</g>
</g>
<!-- Node4&#45;&gt;Node5 -->
<g id="edge4" class="edge">
<title>Node4&#45;&gt;Node5</title>
<path fill="none" stroke="midnightblue" d="M274.5,-57.25C274.5,-46.02 274.5,-33.38 274.5,-25.19"/>
<polygon fill="midnightblue" stroke="midnightblue" points="271,-57.4 274.5,-67.4 278,-57.4 271,-57.4"/>
</g>
<!-- Node6 -->
<g id="node6" class="node">
<title>Node6</title>
<g id="a_node6"><a xlink:href="graphics__renderer_8cpp.html" target="_top" xlink:title=" ">
<polygon fill="white" stroke="black" points="1149,-0.5 1149,-30.5 1276,-30.5 1276,-0.5 1149,-0.5"/>
<text text-anchor="start" x="1157" y="-18.5" font-family="Helvetica,sans-Serif" font-size="10.00">src/graphics/renderer</text>
<text text-anchor="middle" x="1212.5" y="-7.5" font-family="Helvetica,sans-Serif" font-size="10.00">/graphics_renderer.cpp</text>
</a>
</g>
</g>
<!-- Node4&#45;&gt;Node6 -->
<g id="edge6" class="edge">
<title>Node4&#45;&gt;Node6</title>
<path fill="none" stroke="midnightblue" d="M344.36,-71.14C356.71,-69.56 369.47,-68.1 381.5,-67 717.81,-36.3 805.34,-72.46 1140.5,-31 1143.28,-30.66 1146.12,-30.26 1148.98,-29.83"/>
<polygon fill="midnightblue" stroke="midnightblue" points="343.56,-67.71 334.1,-72.48 344.47,-74.65 343.56,-67.71"/>
</g>
<!-- Node8&#45;&gt;Node2 -->
<g id="edge9" class="edge">
<title>Node8&#45;&gt;Node2</title>
<path fill="none" stroke="midnightblue" d="M595.23,-195.31C578.14,-183.1 557.25,-168.18 544.41,-159.01"/>
<polygon fill="midnightblue" stroke="midnightblue" points="593.58,-198.43 603.75,-201.4 597.65,-192.74 593.58,-198.43"/>
</g>
<!-- Node9&#45;&gt;Node4 -->
<g id="edge18" class="edge">
<title>Node9&#45;&gt;Node4</title>
<path fill="none" stroke="midnightblue" d="M282.67,-191.39C280.59,-163.9 277.26,-119.89 275.56,-97.52"/>
<polygon fill="midnightblue" stroke="midnightblue" points="279.18,-191.67 283.43,-201.37 286.16,-191.14 279.18,-191.67"/>
</g>
<!-- Node10 -->
<g id="node10" class="node">
<title>Node10</title>
<g id="a_node10"><a xlink:href="render__mesh_8h.html" target="_top" xlink:title=" ">
<polygon fill="white" stroke="black" points="313,-134.5 313,-164.5 436,-164.5 436,-134.5 313,-134.5"/>
<text text-anchor="start" x="321" y="-152.5" font-family="Helvetica,sans-Serif" font-size="10.00">src/component/render</text>
<text text-anchor="middle" x="374.5" y="-141.5" font-family="Helvetica,sans-Serif" font-size="10.00">_mesh.h</text>
</a>
</g>
</g>
<!-- Node9&#45;&gt;Node10 -->
<g id="edge11" class="edge">
<title>Node9&#45;&gt;Node10</title>
<path fill="none" stroke="midnightblue" d="M312.26,-195.45C326.11,-185.45 342.52,-173.6 355.01,-164.58"/>
<polygon fill="midnightblue" stroke="midnightblue" points="310.09,-192.7 304.03,-201.4 314.18,-198.38 310.09,-192.7"/>
</g>
<!-- Node11 -->
<g id="node11" class="node">
<title>Node11</title>
<g id="a_node11"><a xlink:href="material_8cpp.html" target="_top" xlink:title=" ">
<polygon fill="white" stroke="black" points="137,-134.5 137,-164.5 256,-164.5 256,-134.5 137,-134.5"/>
<text text-anchor="start" x="145" y="-152.5" font-family="Helvetica,sans-Serif" font-size="10.00">src/graphics/material</text>
<text text-anchor="middle" x="196.5" y="-141.5" font-family="Helvetica,sans-Serif" font-size="10.00">/material.cpp</text>
</a>
</g>
</g>
<!-- Node9&#45;&gt;Node11 -->
<g id="edge15" class="edge">
<title>Node9&#45;&gt;Node11</title>
<path fill="none" stroke="midnightblue" d="M257.36,-195.45C243.82,-185.45 227.77,-173.6 215.56,-164.58"/>
<polygon fill="midnightblue" stroke="midnightblue" points="255.28,-198.27 265.41,-201.4 259.44,-192.64 255.28,-198.27"/>
</g>
<!-- Node12 -->
<g id="node12" class="node">
<title>Node12</title>
<g id="a_node12"><a xlink:href="material__manager_8h.html" target="_top" xlink:title=" ">
<polygon fill="white" stroke="black" points="0,-134.5 0,-164.5 119,-164.5 119,-134.5 0,-134.5"/>
<text text-anchor="start" x="8" y="-152.5" font-family="Helvetica,sans-Serif" font-size="10.00">src/graphics/material</text>
<text text-anchor="middle" x="59.5" y="-141.5" font-family="Helvetica,sans-Serif" font-size="10.00">/material_manager.h</text>
</a>
</g>
</g>
<!-- Node9&#45;&gt;Node12 -->
<g id="edge16" class="edge">
<title>Node9&#45;&gt;Node12</title>
<path fill="none" stroke="midnightblue" d="M225.93,-198.58C189.39,-188.02 142.9,-174.59 108.35,-164.61"/>
<polygon fill="midnightblue" stroke="midnightblue" points="225.38,-202.06 235.96,-201.48 227.32,-195.34 225.38,-202.06"/>
</g>
<!-- Node10&#45;&gt;Node3 -->
<g id="edge12" class="edge">
<title>Node10&#45;&gt;Node3</title>
<path fill="none" stroke="midnightblue" d="M369.13,-124.49C366.58,-106.16 366.76,-81.64 381.5,-67 417.48,-31.26 786.22,-37.64 836.5,-31 841.69,-30.31 847.06,-29.51 852.43,-28.64"/>
<polygon fill="midnightblue" stroke="midnightblue" points="365.7,-125.19 370.86,-134.45 372.6,-123.99 365.7,-125.19"/>
</g>
<!-- Node10&#45;&gt;Node4 -->
<g id="edge13" class="edge">
<title>Node10&#45;&gt;Node4</title>
<path fill="none" stroke="midnightblue" d="M344.09,-128.73C328.62,-118.68 310.17,-106.68 296.16,-97.58"/>
<polygon fill="midnightblue" stroke="midnightblue" points="342.51,-131.88 352.8,-134.4 346.32,-126.01 342.51,-131.88"/>
</g>
<!-- Node10&#45;&gt;Node7 -->
<g id="edge14" class="edge">
<title>Node10&#45;&gt;Node7</title>
<path fill="none" stroke="midnightblue" d="M397.89,-127.67C411.37,-115.67 427.6,-101.22 437.74,-92.19"/>
<polygon fill="midnightblue" stroke="midnightblue" points="395.48,-125.13 390.34,-134.4 400.14,-130.36 395.48,-125.13"/>
</g>
<!-- Node12&#45;&gt;Node3 -->
<g id="edge17" class="edge">
<title>Node12&#45;&gt;Node3</title>
<path fill="none" stroke="midnightblue" d="M86.56,-128.41C114.67,-108.79 160.73,-80.02 205.5,-67 340.36,-27.77 697.07,-47.87 836.5,-31 841.7,-30.37 847.07,-29.61 852.45,-28.77"/>
<polygon fill="midnightblue" stroke="midnightblue" points="84.21,-125.79 78.08,-134.43 88.26,-131.49 84.21,-125.79"/>
</g>
<!-- Node13&#45;&gt;Node3 -->
<g id="edge20" class="edge">
<title>Node13&#45;&gt;Node3</title>
<path fill="none" stroke="midnightblue" d="M931.1,-57.99C927.42,-48.8 923.33,-38.58 920.13,-30.58"/>
<polygon fill="midnightblue" stroke="midnightblue" points="927.89,-59.41 934.86,-67.4 934.39,-56.81 927.89,-59.41"/>
</g>
<!-- Node13&#45;&gt;Node6 -->
<g id="edge21" class="edge">
<title>Node13&#45;&gt;Node6</title>
<path fill="none" stroke="midnightblue" d="M1009.05,-65.12C1053.56,-54.48 1110.97,-40.76 1153.45,-30.61"/>
<polygon fill="midnightblue" stroke="midnightblue" points="1008.1,-61.75 999.19,-67.48 1009.72,-68.56 1008.1,-61.75"/>
</g>
<!-- Node14&#45;&gt;Node3 -->
<g id="edge23" class="edge">
<title>Node14&#45;&gt;Node3</title>
<path fill="none" stroke="midnightblue" d="M698.52,-65.24C745.9,-54.55 807.27,-40.7 852.47,-30.5"/>
<polygon fill="midnightblue" stroke="midnightblue" points="697.62,-61.86 688.64,-67.48 699.16,-68.69 697.62,-61.86"/>
</g>
<!-- Node14&#45;&gt;Node6 -->
<g id="edge24" class="edge">
<title>Node14&#45;&gt;Node6</title>
<path fill="none" stroke="midnightblue" d="M702.28,-67C897.19,-40.97 949.87,-57.92 1140.5,-31 1143.28,-30.61 1146.11,-30.18 1148.97,-29.71"/>
<polygon fill="midnightblue" stroke="midnightblue" points="701.72,-63.55 692.28,-68.36 702.66,-70.48 701.72,-63.55"/>
</g>
<!-- Node15 -->
<g id="node15" class="node">
<title>Node15</title>
<g id="a_node15"><a xlink:href="alpha__weight__shader_8cpp.html" target="_top" xlink:title=" ">
<polygon fill="white" stroke="black" points="551,-0.5 551,-30.5 694,-30.5 694,-0.5 551,-0.5"/>
<text text-anchor="start" x="559" y="-18.5" font-family="Helvetica,sans-Serif" font-size="10.00">src/graphics/shader</text>
<text text-anchor="middle" x="622.5" y="-7.5" font-family="Helvetica,sans-Serif" font-size="10.00">/alpha_weight_shader.cpp</text>
</a>
</g>
</g>
<!-- Node14&#45;&gt;Node15 -->
<g id="edge25" class="edge">
<title>Node14&#45;&gt;Node15</title>
<path fill="none" stroke="midnightblue" d="M625.02,-57.4C624.46,-48.37 623.85,-38.41 623.37,-30.58"/>
<polygon fill="midnightblue" stroke="midnightblue" points="621.52,-57.63 625.63,-67.4 628.51,-57.2 621.52,-57.63"/>
</g>
<!-- Node16&#45;&gt;Node3 -->
<g id="edge27" class="edge">
<title>Node16&#45;&gt;Node3</title>
<path fill="none" stroke="midnightblue" d="M807.29,-63.27C831.02,-52.92 860.28,-40.15 882.23,-30.58"/>
<polygon fill="midnightblue" stroke="midnightblue" points="805.6,-60.19 797.83,-67.4 808.4,-66.61 805.6,-60.19"/>
</g>
<!-- Node16&#45;&gt;Node6 -->
<g id="edge28" class="edge">
<title>Node16&#45;&gt;Node6</title>
<path fill="none" stroke="midnightblue" d="M831.15,-72.28C843.87,-70.51 857.1,-68.69 869.5,-67 989.89,-50.61 1020.66,-51 1140.5,-31 1143.27,-30.54 1146.09,-30.05 1148.94,-29.54"/>
<polygon fill="midnightblue" stroke="midnightblue" points="830.51,-68.84 821.08,-73.68 831.47,-75.77 830.51,-68.84"/>
</g>
<!-- Node17 -->
<g id="node17" class="node">
<title>Node17</title>
<g id="a_node17"><a xlink:href="forward__shader_8cpp.html" target="_top" xlink:title=" ">
<polygon fill="white" stroke="black" points="712,-0.5 712,-30.5 827,-30.5 827,-0.5 712,-0.5"/>
<text text-anchor="start" x="720" y="-18.5" font-family="Helvetica,sans-Serif" font-size="10.00">src/graphics/shader</text>
<text text-anchor="middle" x="769.5" y="-7.5" font-family="Helvetica,sans-Serif" font-size="10.00">/forward_shader.cpp</text>
</a>
</g>
</g>
<!-- Node16&#45;&gt;Node17 -->
<g id="edge29" class="edge">
<title>Node16&#45;&gt;Node17</title>
<path fill="none" stroke="midnightblue" d="M766.98,-57.4C767.54,-48.37 768.15,-38.41 768.63,-30.58"/>
<polygon fill="midnightblue" stroke="midnightblue" points="763.49,-57.2 766.37,-67.4 770.48,-57.63 763.49,-57.2"/>
</g>
<!-- Node18&#45;&gt;Node3 -->
<g id="edge31" class="edge">
<title>Node18&#45;&gt;Node3</title>
<path fill="none" stroke="midnightblue" d="M1032.82,-63.68C1006.67,-53.26 974.13,-40.28 949.8,-30.58"/>
<polygon fill="midnightblue" stroke="midnightblue" points="1031.55,-66.94 1042.13,-67.4 1034.14,-60.44 1031.55,-66.94"/>
</g>
<!-- Node18&#45;&gt;Node6 -->
<g id="edge32" class="edge">
<title>Node18&#45;&gt;Node6</title>
<path fill="none" stroke="midnightblue" d="M1115.94,-62.99C1137.34,-52.69 1163.55,-40.07 1183.26,-30.58"/>
<polygon fill="midnightblue" stroke="midnightblue" points="1114.28,-59.9 1106.79,-67.4 1117.32,-66.21 1114.28,-59.9"/>
</g>
<!-- Node19 -->
<g id="node19" class="node">
<title>Node19</title>
<g id="a_node19"><a xlink:href="geometry__shader_8cpp.html" target="_top" xlink:title=" ">
<polygon fill="white" stroke="black" points="1006,-0.5 1006,-30.5 1131,-30.5 1131,-0.5 1006,-0.5"/>
<text text-anchor="start" x="1014" y="-18.5" font-family="Helvetica,sans-Serif" font-size="10.00">src/graphics/shader</text>
<text text-anchor="middle" x="1068.5" y="-7.5" font-family="Helvetica,sans-Serif" font-size="10.00">/geometry_shader.cpp</text>
</a>
</g>
</g>
<!-- Node18&#45;&gt;Node19 -->
<g id="edge33" class="edge">
<title>Node18&#45;&gt;Node19</title>
<path fill="none" stroke="midnightblue" d="M1074.16,-57.4C1072.91,-48.37 1071.53,-38.41 1070.45,-30.58"/>
<polygon fill="midnightblue" stroke="midnightblue" points="1070.71,-57.97 1075.55,-67.4 1077.64,-57.01 1070.71,-57.97"/>
</g>
<!-- Node20&#45;&gt;Node3 -->
<g id="edge35" class="edge">
<title>Node20&#45;&gt;Node3</title>
<path fill="none" stroke="midnightblue" d="M1582.68,-66.89C1323.98,-30.79 1253.79,-61.15 997.5,-31 990.82,-30.21 983.86,-29.24 976.93,-28.18"/>
<polygon fill="midnightblue" stroke="midnightblue" points="1582.36,-70.38 1592.75,-68.31 1583.34,-63.45 1582.36,-70.38"/>
</g>
<!-- Node20&#45;&gt;Node6 -->
<g id="edge36" class="edge">
<title>Node20&#45;&gt;Node6</title>
<path fill="none" stroke="midnightblue" d="M1582.85,-66.79C1469.8,-46.67 1348.49,-31.67 1276.29,-23.43"/>
<polygon fill="midnightblue" stroke="midnightblue" points="1582.25,-70.23 1592.71,-68.56 1583.49,-63.34 1582.25,-70.23"/>
</g>
<!-- Node21 -->
<g id="node21" class="node">
<title>Node21</title>
<g id="a_node21"><a xlink:href="lighting__shader_8cpp.html" target="_top" xlink:title=" ">
<polygon fill="white" stroke="black" points="1587.5,-0.5 1587.5,-30.5 1701.5,-30.5 1701.5,-0.5 1587.5,-0.5"/>
<text text-anchor="start" x="1595.5" y="-18.5" font-family="Helvetica,sans-Serif" font-size="10.00">src/graphics/shader</text>
<text text-anchor="middle" x="1644.5" y="-7.5" font-family="Helvetica,sans-Serif" font-size="10.00">/lighting_shader.cpp</text>
</a>
</g>
</g>
<!-- Node20&#45;&gt;Node21 -->
<g id="edge37" class="edge">
<title>Node20&#45;&gt;Node21</title>
<path fill="none" stroke="midnightblue" d="M1647.02,-57.4C1646.46,-48.37 1645.85,-38.41 1645.37,-30.58"/>
<polygon fill="midnightblue" stroke="midnightblue" points="1643.52,-57.63 1647.63,-67.4 1650.51,-57.2 1643.52,-57.63"/>
</g>
<!-- Node22&#45;&gt;Node3 -->
<g id="edge39" class="edge">
<title>Node22&#45;&gt;Node3</title>
<path fill="none" stroke="midnightblue" d="M1711.52,-66.89C1395.95,-25.06 1310.74,-66.1 997.5,-31 990.81,-30.25 983.85,-29.3 976.92,-28.25"/>
<polygon fill="midnightblue" stroke="midnightblue" points="1711.5,-70.42 1721.88,-68.28 1712.44,-63.48 1711.5,-70.42"/>
</g>
<!-- Node22&#45;&gt;Node6 -->
<g id="edge40" class="edge">
<title>Node22&#45;&gt;Node6</title>
<path fill="none" stroke="midnightblue" d="M1711.71,-66.82C1549.71,-41.19 1369.57,-26.85 1276.08,-20.47"/>
<polygon fill="midnightblue" stroke="midnightblue" points="1711.43,-70.32 1721.86,-68.45 1712.54,-63.41 1711.43,-70.32"/>
</g>
<!-- Node23 -->
<g id="node23" class="node">
<title>Node23</title>
<g id="a_node23"><a xlink:href="post__proc__shader_8cpp.html" target="_top" xlink:title=" ">
<polygon fill="white" stroke="black" points="1720,-0.5 1720,-30.5 1845,-30.5 1845,-0.5 1720,-0.5"/>
<text text-anchor="start" x="1728" y="-18.5" font-family="Helvetica,sans-Serif" font-size="10.00">src/graphics/shader</text>
<text text-anchor="middle" x="1782.5" y="-7.5" font-family="Helvetica,sans-Serif" font-size="10.00">/post_proc_shader.cpp</text>
</a>
</g>
</g>
<!-- Node22&#45;&gt;Node23 -->
<g id="edge41" class="edge">
<title>Node22&#45;&gt;Node23</title>
<path fill="none" stroke="midnightblue" d="M1779.98,-57.4C1780.54,-48.37 1781.15,-38.41 1781.63,-30.58"/>
<polygon fill="midnightblue" stroke="midnightblue" points="1776.49,-57.2 1779.37,-67.4 1783.48,-57.63 1776.49,-57.2"/>
</g>
<!-- Node24&#45;&gt;Node3 -->
<g id="edge43" class="edge">
<title>Node24&#45;&gt;Node3</title>
<path fill="none" stroke="midnightblue" d="M852.49,-191.15C850.96,-160.74 851.57,-107.77 869.5,-67 875.74,-52.81 887.51,-39.83 897.45,-30.58"/>
<polygon fill="midnightblue" stroke="midnightblue" points="849,-191.5 853.12,-201.26 855.99,-191.06 849,-191.5"/>
</g>
<!-- Node26&#45;&gt;Node3 -->
<g id="edge46" class="edge">
<title>Node26&#45;&gt;Node3</title>
<path fill="none" stroke="midnightblue" d="M1142.02,-66.13C1091.78,-55.17 1024.86,-40.57 976.62,-30.05"/>
<polygon fill="midnightblue" stroke="midnightblue" points="1141.32,-69.56 1151.84,-68.27 1142.81,-62.72 1141.32,-69.56"/>
</g>
<!-- Node26&#45;&gt;Node6 -->
<g id="edge47" class="edge">
<title>Node26&#45;&gt;Node6</title>
<path fill="none" stroke="midnightblue" d="M1212.5,-57.11C1212.5,-48.15 1212.5,-38.32 1212.5,-30.58"/>
<polygon fill="midnightblue" stroke="midnightblue" points="1209,-57.4 1212.5,-67.4 1216,-57.4 1209,-57.4"/>
</g>
<!-- Node27&#45;&gt;Node3 -->
<g id="edge49" class="edge">
<title>Node27&#45;&gt;Node3</title>
<path fill="none" stroke="midnightblue" d="M1281.08,-66.83C1154.48,-48.45 1120.55,-49.51 997.5,-31 990.7,-29.98 983.6,-28.84 976.54,-27.67"/>
<polygon fill="midnightblue" stroke="midnightblue" points="1280.77,-70.32 1291.17,-68.31 1281.78,-63.39 1280.77,-70.32"/>
</g>
<!-- Node27&#45;&gt;Node6 -->
<g id="edge50" class="edge">
<title>Node27&#45;&gt;Node6</title>
<path fill="none" stroke="midnightblue" d="M1325.41,-63.54C1300.44,-53.14 1269.47,-40.24 1246.28,-30.58"/>
<polygon fill="midnightblue" stroke="midnightblue" points="1324.07,-66.78 1334.65,-67.4 1326.77,-60.32 1324.07,-66.78"/>
</g>
<!-- Node28&#45;&gt;Node3 -->
<g id="edge52" class="edge">
<title>Node28&#45;&gt;Node3</title>
<path fill="none" stroke="midnightblue" d="M1453.85,-67.06C1251.26,-37.37 1196.37,-56.15 997.5,-31 990.82,-30.16 983.87,-29.15 976.95,-28.06"/>
<polygon fill="midnightblue" stroke="midnightblue" points="1453.52,-70.55 1463.93,-68.56 1454.55,-63.63 1453.52,-70.55"/>
</g>
<!-- Node28&#45;&gt;Node6 -->
<g id="edge53" class="edge">
<title>Node28&#45;&gt;Node6</title>
<path fill="none" stroke="midnightblue" d="M1454.04,-66.92C1387.66,-52.62 1322.78,-39.14 1276.24,-29.55"/>
<polygon fill="midnightblue" stroke="midnightblue" points="1453.33,-70.34 1463.84,-69.03 1454.8,-63.5 1453.33,-70.34"/>
</g>
</g>
</svg>
