<?xml version="1.0" encoding="UTF-8" standalone="no"?>
<!DOCTYPE svg PUBLIC "-//W3C//DTD SVG 1.1//EN"
 "http://www.w3.org/Graphics/SVG/1.1/DTD/svg11.dtd">
<!-- Generated by graphviz version 2.43.0 (0)
 -->
<!-- Title: src/graphics/shader/shader_manager.h Pages: 1 -->
<svg width="870pt" height="162pt"
 viewBox="0.00 0.00 870.00 162.00" xmlns="http://www.w3.org/2000/svg" xmlns:xlink="http://www.w3.org/1999/xlink">
<g id="graph0" class="graph" transform="scale(1 1) rotate(0) translate(4 158)">
<title>src/graphics/shader/shader_manager.h</title>
<polygon fill="white" stroke="transparent" points="-4,4 -4,-158 866,-158 866,4 -4,4"/>
<!-- Node1 -->
<g id="node1" class="node">
<title>Node1</title>
<g id="a_node1"><a xlink:title=" ">
<polygon fill="#bfbfbf" stroke="black" points="177.5,-123.5 177.5,-153.5 288.5,-153.5 288.5,-123.5 177.5,-123.5"/>
<text text-anchor="start" x="185.5" y="-141.5" font-family="Helvetica,sans-Serif" font-size="10.00">src/graphics/shader</text>
<text text-anchor="middle" x="233" y="-130.5" font-family="Helvetica,sans-Serif" font-size="10.00">/shader_manager.h</text>
</a>
</g>
</g>
<!-- Node2 -->
<g id="node2" class="node">
<title>Node2</title>
<g id="a_node2"><a xlink:title=" ">
<polygon fill="white" stroke="#bfbfbf" points="0,-0.5 0,-19.5 58,-19.5 58,-0.5 0,-0.5"/>
<text text-anchor="middle" x="29" y="-7.5" font-family="Helvetica,sans-Serif" font-size="10.00">memory</text>
</a>
</g>
</g>
<!-- Node1&#45;&gt;Node2 -->
<g id="edge1" class="edge">
<title>Node1&#45;&gt;Node2</title>
<path fill="none" stroke="midnightblue" d="M177.41,-135.2C138.2,-130.7 86.99,-118.61 54,-87 38.29,-71.94 32.44,-46.85 30.27,-29.64"/>
<polygon fill="midnightblue" stroke="midnightblue" points="33.75,-29.28 29.31,-19.66 26.79,-29.95 33.75,-29.28"/>
</g>
<!-- Node3 -->
<g id="node3" class="node">
<title>Node3</title>
<g id="a_node3"><a xlink:title=" ">
<polygon fill="white" stroke="#bfbfbf" points="63.5,-62 63.5,-81 156.5,-81 156.5,-62 63.5,-62"/>
<text text-anchor="middle" x="110" y="-69" font-family="Helvetica,sans-Serif" font-size="10.00">unordered_map</text>
</a>
</g>
</g>
<!-- Node1&#45;&gt;Node3 -->
<g id="edge2" class="edge">
<title>Node1&#45;&gt;Node3</title>
<path fill="none" stroke="midnightblue" d="M206.31,-123.4C185.11,-112.19 155.68,-96.64 134.95,-85.69"/>
<polygon fill="midnightblue" stroke="midnightblue" points="136.57,-82.58 126.1,-81.01 133.3,-88.77 136.57,-82.58"/>
</g>
<!-- Node4 -->
<g id="node4" class="node">
<title>Node4</title>
<g id="a_node4"><a xlink:title=" ">
<polygon fill="white" stroke="#bfbfbf" points="175,-62 175,-81 291,-81 291,-62 175,-62"/>
<text text-anchor="middle" x="233" y="-69" font-family="Helvetica,sans-Serif" font-size="10.00">common/singleton.h</text>
</a>
</g>
</g>
<!-- Node1&#45;&gt;Node4 -->
<g id="edge3" class="edge">
<title>Node1&#45;&gt;Node4</title>
<path fill="none" stroke="midnightblue" d="M233,-123.4C233,-114.06 233,-101.71 233,-91.52"/>
<polygon fill="midnightblue" stroke="midnightblue" points="236.5,-91.19 233,-81.19 229.5,-91.19 236.5,-91.19"/>
</g>
<!-- Node5 -->
<g id="node5" class="node">
<title>Node5</title>
<g id="a_node5"><a xlink:href="shader__program_8h.html" target="_top" xlink:title=" ">
<polygon fill="white" stroke="black" points="309,-56.5 309,-86.5 439,-86.5 439,-56.5 309,-56.5"/>
<text text-anchor="start" x="317" y="-74.5" font-family="Helvetica,sans-Serif" font-size="10.00">graphics/shader/shader</text>
<text text-anchor="middle" x="374" y="-63.5" font-family="Helvetica,sans-Serif" font-size="10.00">_program.h</text>
</a>
</g>
</g>
<!-- Node1&#45;&gt;Node5 -->
<g id="edge4" class="edge">
<title>Node1&#45;&gt;Node5</title>
<path fill="none" stroke="midnightblue" d="M263.59,-123.4C284.29,-113.86 311.82,-101.16 334.22,-90.84"/>
<polygon fill="midnightblue" stroke="midnightblue" points="335.85,-93.94 343.46,-86.58 332.92,-87.58 335.85,-93.94"/>
</g>
<!-- Node13 -->
<g id="node13" class="node">
<title>Node13</title>
<g id="a_node13"><a xlink:href="file__util_8h.html" target="_top" xlink:title=" ">
<polygon fill="white" stroke="black" points="686,-62 686,-81 766,-81 766,-62 686,-62"/>
<text text-anchor="middle" x="726" y="-69" font-family="Helvetica,sans-Serif" font-size="10.00">util/file_util.h</text>
</a>
</g>
</g>
<!-- Node1&#45;&gt;Node13 -->
<g id="edge13" class="edge">
<title>Node1&#45;&gt;Node13</title>
<path fill="none" stroke="midnightblue" d="M288.6,-130.17C385.32,-117.42 583.09,-91.34 675.86,-79.11"/>
<polygon fill="midnightblue" stroke="midnightblue" points="676.38,-82.57 685.84,-77.79 675.47,-75.63 676.38,-82.57"/>
</g>
<!-- Node5&#45;&gt;Node2 -->
<g id="edge5" class="edge">
<title>Node5&#45;&gt;Node2</title>
<path fill="none" stroke="midnightblue" d="M308.66,-57.55C305.73,-57.02 302.84,-56.5 300,-56 199.91,-38.47 171.54,-39.98 68.3,-20.13"/>
<polygon fill="midnightblue" stroke="midnightblue" points="68.89,-16.68 58.41,-18.21 67.56,-23.55 68.89,-16.68"/>
</g>
<!-- Node6 -->
<g id="node6" class="node">
<title>Node6</title>
<g id="a_node6"><a xlink:title=" ">
<polygon fill="white" stroke="#bfbfbf" points="670,-0.5 670,-19.5 714,-19.5 714,-0.5 670,-0.5"/>
<text text-anchor="middle" x="692" y="-7.5" font-family="Helvetica,sans-Serif" font-size="10.00">string</text>
</a>
</g>
</g>
<!-- Node5&#45;&gt;Node6 -->
<g id="edge6" class="edge">
<title>Node5&#45;&gt;Node6</title>
<path fill="none" stroke="midnightblue" d="M439.09,-61.11C495.25,-52.54 578.65,-38.69 659.84,-20.07"/>
<polygon fill="midnightblue" stroke="midnightblue" points="660.77,-23.45 669.72,-17.78 659.19,-16.63 660.77,-23.45"/>
</g>
<!-- Node7 -->
<g id="node7" class="node">
<title>Node7</title>
<g id="a_node7"><a xlink:title=" ">
<polygon fill="white" stroke="#bfbfbf" points="76.5,-0.5 76.5,-19.5 123.5,-19.5 123.5,-0.5 76.5,-0.5"/>
<text text-anchor="middle" x="100" y="-7.5" font-family="Helvetica,sans-Serif" font-size="10.00">vector</text>
</a>
</g>
</g>
<!-- Node5&#45;&gt;Node7 -->
<g id="edge7" class="edge">
<title>Node5&#45;&gt;Node7</title>
<path fill="none" stroke="midnightblue" d="M308.96,-57.33C253.71,-46.06 177.7,-30.36 133.48,-19.98"/>
<polygon fill="midnightblue" stroke="midnightblue" points="134.29,-16.58 123.75,-17.66 132.66,-23.39 134.29,-16.58"/>
</g>
<!-- Node8 -->
<g id="node8" class="node">
<title>Node8</title>
<g id="a_node8"><a xlink:title=" ">
<polygon fill="white" stroke="#bfbfbf" points="142,-0.5 142,-19.5 206,-19.5 206,-0.5 142,-0.5"/>
<text text-anchor="middle" x="174" y="-7.5" font-family="Helvetica,sans-Serif" font-size="10.00">GL/glew.h</text>
</a>
</g>
</g>
<!-- Node5&#45;&gt;Node8 -->
<g id="edge8" class="edge">
<title>Node5&#45;&gt;Node8</title>
<path fill="none" stroke="midnightblue" d="M326.86,-56.47C291.9,-46.08 244.85,-32.08 212.23,-22.37"/>
<polygon fill="midnightblue" stroke="midnightblue" points="213.18,-19 202.59,-19.51 211.18,-25.71 213.18,-19"/>
</g>
<!-- Node9 -->
<g id="node9" class="node">
<title>Node9</title>
<g id="a_node9"><a xlink:title=" ">
<polygon fill="white" stroke="#bfbfbf" points="224.5,-0.5 224.5,-19.5 313.5,-19.5 313.5,-0.5 224.5,-0.5"/>
<text text-anchor="middle" x="269" y="-7.5" font-family="Helvetica,sans-Serif" font-size="10.00">maths/colour.h</text>
</a>
</g>
</g>
<!-- Node5&#45;&gt;Node9 -->
<g id="edge9" class="edge">
<title>Node5&#45;&gt;Node9</title>
<path fill="none" stroke="midnightblue" d="M349.12,-56.4C332.29,-46.86 310.16,-34.32 293.43,-24.84"/>
<polygon fill="midnightblue" stroke="midnightblue" points="294.7,-21.54 284.28,-19.66 291.25,-27.63 294.7,-21.54"/>
</g>
<!-- Node10 -->
<g id="node10" class="node">
<title>Node10</title>
<g id="a_node10"><a xlink:title=" ">
<polygon fill="white" stroke="#bfbfbf" points="332,-0.5 332,-19.5 428,-19.5 428,-0.5 332,-0.5"/>
<text text-anchor="middle" x="380" y="-7.5" font-family="Helvetica,sans-Serif" font-size="10.00">maths/vector2.h</text>
</a>
</g>
</g>
<!-- Node5&#45;&gt;Node10 -->
<g id="edge10" class="edge">
<title>Node5&#45;&gt;Node10</title>
<path fill="none" stroke="midnightblue" d="M375.42,-56.4C376.22,-48.47 377.23,-38.46 378.1,-29.86"/>
<polygon fill="midnightblue" stroke="midnightblue" points="381.61,-29.96 379.13,-19.66 374.64,-29.26 381.61,-29.96"/>
</g>
<!-- Node11 -->
<g id="node11" class="node">
<title>Node11</title>
<g id="a_node11"><a xlink:title=" ">
<polygon fill="white" stroke="#bfbfbf" points="446,-0.5 446,-19.5 542,-19.5 542,-0.5 446,-0.5"/>
<text text-anchor="middle" x="494" y="-7.5" font-family="Helvetica,sans-Serif" font-size="10.00">maths/vector3.h</text>
</a>
</g>
</g>
<!-- Node5&#45;&gt;Node11 -->
<g id="edge11" class="edge">
<title>Node5&#45;&gt;Node11</title>
<path fill="none" stroke="midnightblue" d="M402.44,-56.4C422.12,-46.64 448.14,-33.74 467.41,-24.18"/>
<polygon fill="midnightblue" stroke="midnightblue" points="469.13,-27.24 476.54,-19.66 466.02,-20.96 469.13,-27.24"/>
</g>
<!-- Node12 -->
<g id="node12" class="node">
<title>Node12</title>
<g id="a_node12"><a xlink:title=" ">
<polygon fill="white" stroke="#bfbfbf" points="560,-0.5 560,-19.5 652,-19.5 652,-0.5 560,-0.5"/>
<text text-anchor="middle" x="606" y="-7.5" font-family="Helvetica,sans-Serif" font-size="10.00">maths/matrix.h</text>
</a>
</g>
</g>
<!-- Node5&#45;&gt;Node12 -->
<g id="edge12" class="edge">
<title>Node5&#45;&gt;Node12</title>
<path fill="none" stroke="midnightblue" d="M428.69,-56.47C469.76,-45.94 525.23,-31.72 563.12,-22"/>
<polygon fill="midnightblue" stroke="midnightblue" points="564.02,-25.38 572.83,-19.51 562.28,-18.6 564.02,-25.38"/>
</g>
<!-- Node13&#45;&gt;Node6 -->
<g id="edge14" class="edge">
<title>Node13&#45;&gt;Node6</title>
<path fill="none" stroke="midnightblue" d="M721.13,-61.98C716.13,-53.23 708.21,-39.37 701.89,-28.31"/>
<polygon fill="midnightblue" stroke="midnightblue" points="704.86,-26.46 696.86,-19.51 698.78,-29.93 704.86,-26.46"/>
</g>
<!-- Node14 -->
<g id="node14" class="node">
<title>Node14</title>
<g id="a_node14"><a xlink:title=" ">
<polygon fill="white" stroke="#bfbfbf" points="732.5,-0.5 732.5,-19.5 787.5,-19.5 787.5,-0.5 732.5,-0.5"/>
<text text-anchor="middle" x="760" y="-7.5" font-family="Helvetica,sans-Serif" font-size="10.00">fstream</text>
</a>
</g>
</g>
<!-- Node13&#45;&gt;Node14 -->
<g id="edge15" class="edge">
<title>Node13&#45;&gt;Node14</title>
<path fill="none" stroke="midnightblue" d="M730.87,-61.98C735.87,-53.23 743.79,-39.37 750.11,-28.31"/>
<polygon fill="midnightblue" stroke="midnightblue" points="753.22,-29.93 755.14,-19.51 747.14,-26.46 753.22,-29.93"/>
</g>
<!-- Node15 -->
<g id="node15" class="node">
<title>Node15</title>
<g id="a_node15"><a xlink:title=" ">
<polygon fill="white" stroke="#bfbfbf" points="806,-0.5 806,-19.5 862,-19.5 862,-0.5 806,-0.5"/>
<text text-anchor="middle" x="834" y="-7.5" font-family="Helvetica,sans-Serif" font-size="10.00">sstream</text>
</a>
</g>
</g>
<!-- Node13&#45;&gt;Node15 -->
<g id="edge16" class="edge">
<title>Node13&#45;&gt;Node15</title>
<path fill="none" stroke="midnightblue" d="M741.47,-61.98C759.28,-52.17 788.74,-35.93 809.63,-24.42"/>
<polygon fill="midnightblue" stroke="midnightblue" points="811.49,-27.4 818.55,-19.51 808.11,-21.27 811.49,-27.4"/>
</g>
</g>
</svg>
