<?xml version="1.0" encoding="UTF-8" standalone="no"?>
<!DOCTYPE svg PUBLIC "-//W3C//DTD SVG 1.1//EN"
 "http://www.w3.org/Graphics/SVG/1.1/DTD/svg11.dtd">
<!-- Generated by graphviz version 2.43.0 (0)
 -->
<!-- Title: src/graphics/shader/shader_manager.h Pages: 1 -->
<svg width="1082pt" height="162pt"
 viewBox="0.00 0.00 1082.00 162.00" xmlns="http://www.w3.org/2000/svg" xmlns:xlink="http://www.w3.org/1999/xlink">
<g id="graph0" class="graph" transform="scale(1 1) rotate(0) translate(4 158)">
<title>src/graphics/shader/shader_manager.h</title>
<polygon fill="white" stroke="transparent" points="-4,4 -4,-158 1078,-158 1078,4 -4,4"/>
<!-- Node1 -->
<g id="node1" class="node">
<title>Node1</title>
<g id="a_node1"><a xlink:title=" ">
<polygon fill="#bfbfbf" stroke="black" points="254.5,-123.5 254.5,-153.5 365.5,-153.5 365.5,-123.5 254.5,-123.5"/>
<text text-anchor="start" x="262.5" y="-141.5" font-family="Helvetica,sans-Serif" font-size="10.00">src/graphics/shader</text>
<text text-anchor="middle" x="310" y="-130.5" font-family="Helvetica,sans-Serif" font-size="10.00">/shader_manager.h</text>
</a>
</g>
</g>
<!-- Node2 -->
<g id="node2" class="node">
<title>Node2</title>
<g id="a_node2"><a xlink:title=" ">
<polygon fill="white" stroke="#bfbfbf" points="0,-62 0,-81 60,-81 60,-62 0,-62"/>
<text text-anchor="middle" x="30" y="-69" font-family="Helvetica,sans-Serif" font-size="10.00">iostream</text>
</a>
</g>
</g>
<!-- Node1&#45;&gt;Node2 -->
<g id="edge1" class="edge">
<title>Node1&#45;&gt;Node2</title>
<path fill="none" stroke="midnightblue" d="M254.39,-128.28C205.16,-119.55 131.63,-105.09 69,-87 66.36,-86.24 63.64,-85.38 60.93,-84.47"/>
<polygon fill="midnightblue" stroke="midnightblue" points="61.86,-81.09 51.26,-81.06 59.53,-87.69 61.86,-81.09"/>
</g>
<!-- Node3 -->
<g id="node3" class="node">
<title>Node3</title>
<g id="a_node3"><a xlink:title=" ">
<polygon fill="white" stroke="#bfbfbf" points="78,-62 78,-81 146,-81 146,-62 78,-62"/>
<text text-anchor="middle" x="112" y="-69" font-family="Helvetica,sans-Serif" font-size="10.00">filesystem</text>
</a>
</g>
</g>
<!-- Node1&#45;&gt;Node3 -->
<g id="edge2" class="edge">
<title>Node1&#45;&gt;Node3</title>
<path fill="none" stroke="midnightblue" d="M267.04,-123.4C231.37,-111.69 181.24,-95.23 147.74,-84.23"/>
<polygon fill="midnightblue" stroke="midnightblue" points="148.51,-80.8 137.91,-81.01 146.32,-87.45 148.51,-80.8"/>
</g>
<!-- Node4 -->
<g id="node4" class="node">
<title>Node4</title>
<g id="a_node4"><a xlink:title=" ">
<polygon fill="white" stroke="#bfbfbf" points="190,-0.5 190,-19.5 248,-19.5 248,-0.5 190,-0.5"/>
<text text-anchor="middle" x="219" y="-7.5" font-family="Helvetica,sans-Serif" font-size="10.00">memory</text>
</a>
</g>
</g>
<!-- Node1&#45;&gt;Node4 -->
<g id="edge3" class="edge">
<title>Node1&#45;&gt;Node4</title>
<path fill="none" stroke="midnightblue" d="M254.43,-127.48C231.36,-120.28 206.8,-107.98 193,-87 180.85,-68.52 193.74,-43.76 205.3,-27.6"/>
<polygon fill="midnightblue" stroke="midnightblue" points="208.12,-29.67 211.42,-19.6 202.57,-25.42 208.12,-29.67"/>
</g>
<!-- Node5 -->
<g id="node5" class="node">
<title>Node5</title>
<g id="a_node5"><a xlink:title=" ">
<polygon fill="white" stroke="#bfbfbf" points="202.5,-62 202.5,-81 295.5,-81 295.5,-62 202.5,-62"/>
<text text-anchor="middle" x="249" y="-69" font-family="Helvetica,sans-Serif" font-size="10.00">unordered_map</text>
</a>
</g>
</g>
<!-- Node1&#45;&gt;Node5 -->
<g id="edge4" class="edge">
<title>Node1&#45;&gt;Node5</title>
<path fill="none" stroke="midnightblue" d="M296.76,-123.4C287.16,-113.16 274.15,-99.3 264.13,-88.62"/>
<polygon fill="midnightblue" stroke="midnightblue" points="266.55,-86.09 257.16,-81.19 261.45,-90.88 266.55,-86.09"/>
</g>
<!-- Node6 -->
<g id="node6" class="node">
<title>Node6</title>
<g id="a_node6"><a xlink:title=" ">
<polygon fill="white" stroke="#bfbfbf" points="314,-62 314,-81 430,-81 430,-62 314,-62"/>
<text text-anchor="middle" x="372" y="-69" font-family="Helvetica,sans-Serif" font-size="10.00">common/singleton.h</text>
</a>
</g>
</g>
<!-- Node1&#45;&gt;Node6 -->
<g id="edge5" class="edge">
<title>Node1&#45;&gt;Node6</title>
<path fill="none" stroke="midnightblue" d="M323.45,-123.4C333.22,-113.16 346.44,-99.3 356.62,-88.62"/>
<polygon fill="midnightblue" stroke="midnightblue" points="359.34,-90.85 363.71,-81.19 354.27,-86.01 359.34,-90.85"/>
</g>
<!-- Node7 -->
<g id="node7" class="node">
<title>Node7</title>
<g id="a_node7"><a xlink:title=" ">
<polygon fill="white" stroke="#bfbfbf" points="448.5,-62 448.5,-81 531.5,-81 531.5,-62 448.5,-62"/>
<text text-anchor="middle" x="490" y="-69" font-family="Helvetica,sans-Serif" font-size="10.00">glsl_include.h</text>
</a>
</g>
</g>
<!-- Node1&#45;&gt;Node7 -->
<g id="edge6" class="edge">
<title>Node1&#45;&gt;Node7</title>
<path fill="none" stroke="midnightblue" d="M349.06,-123.4C381.2,-111.79 426.27,-95.51 456.72,-84.52"/>
<polygon fill="midnightblue" stroke="midnightblue" points="458.23,-87.7 466.44,-81.01 455.85,-81.11 458.23,-87.7"/>
</g>
<!-- Node8 -->
<g id="node8" class="node">
<title>Node8</title>
<g id="a_node8"><a xlink:href="shader__program_8h.html" target="_top" xlink:title=" ">
<polygon fill="white" stroke="black" points="550,-56.5 550,-86.5 680,-86.5 680,-56.5 550,-56.5"/>
<text text-anchor="start" x="558" y="-74.5" font-family="Helvetica,sans-Serif" font-size="10.00">graphics/shader/shader</text>
<text text-anchor="middle" x="615" y="-63.5" font-family="Helvetica,sans-Serif" font-size="10.00">_program.h</text>
</a>
</g>
</g>
<!-- Node1&#45;&gt;Node8 -->
<g id="edge7" class="edge">
<title>Node1&#45;&gt;Node8</title>
<path fill="none" stroke="midnightblue" d="M365.59,-125.65C414.44,-115.24 485.94,-100 539.88,-88.51"/>
<polygon fill="midnightblue" stroke="midnightblue" points="540.68,-91.92 549.73,-86.41 539.22,-85.07 540.68,-91.92"/>
</g>
<!-- Node16 -->
<g id="node16" class="node">
<title>Node16</title>
<g id="a_node16"><a xlink:href="file__util_8h.html" target="_top" xlink:title=" ">
<polygon fill="white" stroke="black" points="898,-62 898,-81 978,-81 978,-62 898,-62"/>
<text text-anchor="middle" x="938" y="-69" font-family="Helvetica,sans-Serif" font-size="10.00">util/file_util.h</text>
</a>
</g>
</g>
<!-- Node1&#45;&gt;Node16 -->
<g id="edge16" class="edge">
<title>Node1&#45;&gt;Node16</title>
<path fill="none" stroke="midnightblue" d="M365.73,-131.73C486.8,-119.2 772.25,-89.66 887.96,-77.68"/>
<polygon fill="midnightblue" stroke="midnightblue" points="888.38,-81.15 897.97,-76.64 887.66,-74.19 888.38,-81.15"/>
</g>
<!-- Node8&#45;&gt;Node4 -->
<g id="edge8" class="edge">
<title>Node8&#45;&gt;Node4</title>
<path fill="none" stroke="midnightblue" d="M550,-57.71C546.62,-57.12 543.27,-56.54 540,-56 424.47,-36.88 394.9,-36.69 279,-20 272.28,-19.03 265.13,-17.98 258.2,-16.95"/>
<polygon fill="midnightblue" stroke="midnightblue" points="258.69,-13.48 248.29,-15.46 257.66,-20.41 258.69,-13.48"/>
</g>
<!-- Node9 -->
<g id="node9" class="node">
<title>Node9</title>
<g id="a_node9"><a xlink:title=" ">
<polygon fill="white" stroke="#bfbfbf" points="882,-0.5 882,-19.5 926,-19.5 926,-0.5 882,-0.5"/>
<text text-anchor="middle" x="904" y="-7.5" font-family="Helvetica,sans-Serif" font-size="10.00">string</text>
</a>
</g>
</g>
<!-- Node8&#45;&gt;Node9 -->
<g id="edge9" class="edge">
<title>Node8&#45;&gt;Node9</title>
<path fill="none" stroke="midnightblue" d="M680.03,-59.43C730.05,-50.54 801.07,-37.09 871.74,-20.14"/>
<polygon fill="midnightblue" stroke="midnightblue" points="872.82,-23.48 881.71,-17.73 871.17,-16.68 872.82,-23.48"/>
</g>
<!-- Node10 -->
<g id="node10" class="node">
<title>Node10</title>
<g id="a_node10"><a xlink:title=" ">
<polygon fill="white" stroke="#bfbfbf" points="288.5,-0.5 288.5,-19.5 335.5,-19.5 335.5,-0.5 288.5,-0.5"/>
<text text-anchor="middle" x="312" y="-7.5" font-family="Helvetica,sans-Serif" font-size="10.00">vector</text>
</a>
</g>
</g>
<!-- Node8&#45;&gt;Node10 -->
<g id="edge10" class="edge">
<title>Node8&#45;&gt;Node10</title>
<path fill="none" stroke="midnightblue" d="M549.96,-57.89C546.59,-57.25 543.26,-56.62 540,-56 456.45,-40.21 432.58,-39.63 345.51,-19.96"/>
<polygon fill="midnightblue" stroke="midnightblue" points="346.26,-16.54 335.73,-17.73 344.71,-23.36 346.26,-16.54"/>
</g>
<!-- Node11 -->
<g id="node11" class="node">
<title>Node11</title>
<g id="a_node11"><a xlink:title=" ">
<polygon fill="white" stroke="#bfbfbf" points="354,-0.5 354,-19.5 418,-19.5 418,-0.5 354,-0.5"/>
<text text-anchor="middle" x="386" y="-7.5" font-family="Helvetica,sans-Serif" font-size="10.00">GL/glew.h</text>
</a>
</g>
</g>
<!-- Node8&#45;&gt;Node11 -->
<g id="edge11" class="edge">
<title>Node8&#45;&gt;Node11</title>
<path fill="none" stroke="midnightblue" d="M561.02,-56.47C520.41,-45.92 465.54,-31.67 428.14,-21.95"/>
<polygon fill="midnightblue" stroke="midnightblue" points="428.63,-18.46 418.08,-19.33 426.87,-25.24 428.63,-18.46"/>
</g>
<!-- Node12 -->
<g id="node12" class="node">
<title>Node12</title>
<g id="a_node12"><a xlink:title=" ">
<polygon fill="white" stroke="#bfbfbf" points="436.5,-0.5 436.5,-19.5 525.5,-19.5 525.5,-0.5 436.5,-0.5"/>
<text text-anchor="middle" x="481" y="-7.5" font-family="Helvetica,sans-Serif" font-size="10.00">maths/colour.h</text>
</a>
</g>
</g>
<!-- Node8&#45;&gt;Node12 -->
<g id="edge12" class="edge">
<title>Node8&#45;&gt;Node12</title>
<path fill="none" stroke="midnightblue" d="M583.24,-56.4C560.96,-46.51 531.41,-33.38 509.81,-23.79"/>
<polygon fill="midnightblue" stroke="midnightblue" points="511.06,-20.52 500.5,-19.66 508.22,-26.91 511.06,-20.52"/>
</g>
<!-- Node13 -->
<g id="node13" class="node">
<title>Node13</title>
<g id="a_node13"><a xlink:title=" ">
<polygon fill="white" stroke="#bfbfbf" points="544,-0.5 544,-19.5 640,-19.5 640,-0.5 544,-0.5"/>
<text text-anchor="middle" x="592" y="-7.5" font-family="Helvetica,sans-Serif" font-size="10.00">maths/vector2.h</text>
</a>
</g>
</g>
<!-- Node8&#45;&gt;Node13 -->
<g id="edge13" class="edge">
<title>Node8&#45;&gt;Node13</title>
<path fill="none" stroke="midnightblue" d="M609.55,-56.4C606.38,-48.2 602.35,-37.78 598.96,-28.99"/>
<polygon fill="midnightblue" stroke="midnightblue" points="602.22,-27.72 595.35,-19.66 595.69,-30.25 602.22,-27.72"/>
</g>
<!-- Node14 -->
<g id="node14" class="node">
<title>Node14</title>
<g id="a_node14"><a xlink:title=" ">
<polygon fill="white" stroke="#bfbfbf" points="658,-0.5 658,-19.5 754,-19.5 754,-0.5 658,-0.5"/>
<text text-anchor="middle" x="706" y="-7.5" font-family="Helvetica,sans-Serif" font-size="10.00">maths/vector3.h</text>
</a>
</g>
</g>
<!-- Node8&#45;&gt;Node14 -->
<g id="edge14" class="edge">
<title>Node8&#45;&gt;Node14</title>
<path fill="none" stroke="midnightblue" d="M636.57,-56.4C650.88,-47.04 669.61,-34.79 684.01,-25.38"/>
<polygon fill="midnightblue" stroke="midnightblue" points="686.3,-28.06 692.76,-19.66 682.47,-22.2 686.3,-28.06"/>
</g>
<!-- Node15 -->
<g id="node15" class="node">
<title>Node15</title>
<g id="a_node15"><a xlink:title=" ">
<polygon fill="white" stroke="#bfbfbf" points="772,-0.5 772,-19.5 864,-19.5 864,-0.5 772,-0.5"/>
<text text-anchor="middle" x="818" y="-7.5" font-family="Helvetica,sans-Serif" font-size="10.00">maths/matrix.h</text>
</a>
</g>
</g>
<!-- Node8&#45;&gt;Node15 -->
<g id="edge15" class="edge">
<title>Node8&#45;&gt;Node15</title>
<path fill="none" stroke="midnightblue" d="M662.85,-56.47C698.33,-46.08 746.09,-32.08 779.2,-22.37"/>
<polygon fill="midnightblue" stroke="midnightblue" points="780.37,-25.68 788.98,-19.51 778.4,-18.96 780.37,-25.68"/>
</g>
<!-- Node16&#45;&gt;Node9 -->
<g id="edge17" class="edge">
<title>Node16&#45;&gt;Node9</title>
<path fill="none" stroke="midnightblue" d="M933.13,-61.98C928.13,-53.23 920.21,-39.37 913.89,-28.31"/>
<polygon fill="midnightblue" stroke="midnightblue" points="916.86,-26.46 908.86,-19.51 910.78,-29.93 916.86,-26.46"/>
</g>
<!-- Node17 -->
<g id="node17" class="node">
<title>Node17</title>
<g id="a_node17"><a xlink:title=" ">
<polygon fill="white" stroke="#bfbfbf" points="944.5,-0.5 944.5,-19.5 999.5,-19.5 999.5,-0.5 944.5,-0.5"/>
<text text-anchor="middle" x="972" y="-7.5" font-family="Helvetica,sans-Serif" font-size="10.00">fstream</text>
</a>
</g>
</g>
<!-- Node16&#45;&gt;Node17 -->
<g id="edge18" class="edge">
<title>Node16&#45;&gt;Node17</title>
<path fill="none" stroke="midnightblue" d="M942.87,-61.98C947.87,-53.23 955.79,-39.37 962.11,-28.31"/>
<polygon fill="midnightblue" stroke="midnightblue" points="965.22,-29.93 967.14,-19.51 959.14,-26.46 965.22,-29.93"/>
</g>
<!-- Node18 -->
<g id="node18" class="node">
<title>Node18</title>
<g id="a_node18"><a xlink:title=" ">
<polygon fill="white" stroke="#bfbfbf" points="1018,-0.5 1018,-19.5 1074,-19.5 1074,-0.5 1018,-0.5"/>
<text text-anchor="middle" x="1046" y="-7.5" font-family="Helvetica,sans-Serif" font-size="10.00">sstream</text>
</a>
</g>
</g>
<!-- Node16&#45;&gt;Node18 -->
<g id="edge19" class="edge">
<title>Node16&#45;&gt;Node18</title>
<path fill="none" stroke="midnightblue" d="M953.47,-61.98C971.28,-52.17 1000.74,-35.93 1021.63,-24.42"/>
<polygon fill="midnightblue" stroke="midnightblue" points="1023.49,-27.4 1030.55,-19.51 1020.11,-21.27 1023.49,-27.4"/>
</g>
</g>
</svg>
