<?xml version="1.0" encoding="UTF-8" standalone="no"?>
<!DOCTYPE svg PUBLIC "-//W3C//DTD SVG 1.1//EN"
 "http://www.w3.org/Graphics/SVG/1.1/DTD/svg11.dtd">
<!-- Generated by graphviz version 2.43.0 (0)
 -->
<!-- Title: src/graphics/shadow/shadow_bounds.h Pages: 1 -->
<svg width="432pt" height="162pt"
 viewBox="0.00 0.00 431.50 162.00" xmlns="http://www.w3.org/2000/svg" xmlns:xlink="http://www.w3.org/1999/xlink">
<g id="graph0" class="graph" transform="scale(1 1) rotate(0) translate(4 158)">
<title>src/graphics/shadow/shadow_bounds.h</title>
<polygon fill="white" stroke="transparent" points="-4,4 -4,-158 427.5,-158 427.5,4 -4,4"/>
<!-- Node1 -->
<g id="node1" class="node">
<title>Node1</title>
<g id="a_node1"><a xlink:title=" ">
<polygon fill="#bfbfbf" stroke="black" points="154.5,-123.5 154.5,-153.5 270.5,-153.5 270.5,-123.5 154.5,-123.5"/>
<text text-anchor="start" x="162.5" y="-141.5" font-family="Helvetica,sans-Serif" font-size="10.00">src/graphics/shadow</text>
<text text-anchor="middle" x="212.5" y="-130.5" font-family="Helvetica,sans-Serif" font-size="10.00">/shadow_bounds.h</text>
</a>
</g>
</g>
<!-- Node2 -->
<g id="node2" class="node">
<title>Node2</title>
<g id="a_node2"><a xlink:title=" ">
<polygon fill="white" stroke="#bfbfbf" points="0,-62 0,-81 111,-81 111,-62 0,-62"/>
<text text-anchor="middle" x="55.5" y="-69" font-family="Helvetica,sans-Serif" font-size="10.00">maths/maths_util.h</text>
</a>
</g>
</g>
<!-- Node1&#45;&gt;Node2 -->
<g id="edge1" class="edge">
<title>Node1&#45;&gt;Node2</title>
<path fill="none" stroke="midnightblue" d="M178.43,-123.4C150.76,-111.94 112.11,-95.94 85.58,-84.95"/>
<polygon fill="midnightblue" stroke="midnightblue" points="86.63,-81.6 76.05,-81.01 83.95,-88.07 86.63,-81.6"/>
</g>
<!-- Node3 -->
<g id="node3" class="node">
<title>Node3</title>
<g id="a_node3"><a xlink:title=" ">
<polygon fill="white" stroke="#bfbfbf" points="129.5,-62 129.5,-81 221.5,-81 221.5,-62 129.5,-62"/>
<text text-anchor="middle" x="175.5" y="-69" font-family="Helvetica,sans-Serif" font-size="10.00">maths/matrix.h</text>
</a>
</g>
</g>
<!-- Node1&#45;&gt;Node3 -->
<g id="edge2" class="edge">
<title>Node1&#45;&gt;Node3</title>
<path fill="none" stroke="midnightblue" d="M204.47,-123.4C198.87,-113.56 191.37,-100.38 185.4,-89.89"/>
<polygon fill="midnightblue" stroke="midnightblue" points="188.44,-88.15 180.45,-81.19 182.35,-91.62 188.44,-88.15"/>
</g>
<!-- Node4 -->
<g id="node4" class="node">
<title>Node4</title>
<g id="a_node4"><a xlink:title=" ">
<polygon fill="white" stroke="#bfbfbf" points="251.5,-0.5 251.5,-19.5 347.5,-19.5 347.5,-0.5 251.5,-0.5"/>
<text text-anchor="middle" x="299.5" y="-7.5" font-family="Helvetica,sans-Serif" font-size="10.00">maths/vector3.h</text>
</a>
</g>
</g>
<!-- Node1&#45;&gt;Node4 -->
<g id="edge3" class="edge">
<title>Node1&#45;&gt;Node4</title>
<path fill="none" stroke="midnightblue" d="M222.21,-123.36C233.37,-107.11 252.25,-79.62 268.5,-56 274.9,-46.7 282.04,-36.33 287.86,-27.88"/>
<polygon fill="midnightblue" stroke="midnightblue" points="290.76,-29.84 293.55,-19.62 285,-25.87 290.76,-29.84"/>
</g>
<!-- Node5 -->
<g id="node5" class="node">
<title>Node5</title>
<g id="a_node5"><a xlink:href="bounding__box_8h.html" target="_top" xlink:title=" ">
<polygon fill="white" stroke="black" points="277.5,-56.5 277.5,-86.5 423.5,-86.5 423.5,-56.5 277.5,-56.5"/>
<text text-anchor="start" x="285.5" y="-74.5" font-family="Helvetica,sans-Serif" font-size="10.00">graphics/shadow/bounding</text>
<text text-anchor="middle" x="350.5" y="-63.5" font-family="Helvetica,sans-Serif" font-size="10.00">_box.h</text>
</a>
</g>
</g>
<!-- Node1&#45;&gt;Node5 -->
<g id="edge4" class="edge">
<title>Node1&#45;&gt;Node5</title>
<path fill="none" stroke="midnightblue" d="M242.44,-123.4C262.7,-113.86 289.65,-101.16 311.56,-90.84"/>
<polygon fill="midnightblue" stroke="midnightblue" points="313.06,-94 320.61,-86.58 310.08,-87.67 313.06,-94"/>
</g>
<!-- Node5&#45;&gt;Node4 -->
<g id="edge5" class="edge">
<title>Node5&#45;&gt;Node4</title>
<path fill="none" stroke="midnightblue" d="M338.41,-56.4C330.93,-47.66 321.28,-36.41 313.47,-27.3"/>
<polygon fill="midnightblue" stroke="midnightblue" points="316.09,-24.97 306.92,-19.66 310.77,-29.53 316.09,-24.97"/>
</g>
</g>
</svg>
