<?xml version="1.0" encoding="UTF-8" standalone="no"?>
<!DOCTYPE svg PUBLIC "-//W3C//DTD SVG 1.1//EN"
 "http://www.w3.org/Graphics/SVG/1.1/DTD/svg11.dtd">
<!-- Generated by graphviz version 2.43.0 (0)
 -->
<!-- Title: src/graphics/shader/shader_program.h Pages: 1 -->
<!--zoomable 307 -->
<svg id="main" version="1.1" xmlns="http://www.w3.org/2000/svg" xmlns:xlink="http://www.w3.org/1999/xlink" xml:space="preserve" onload="init(evt)">
<style type="text/css"><![CDATA[
.edge:hover path { stroke: red; }
.edge:hover polygon { stroke: red; fill: red; }
]]></style>
<script type="text/javascript"><![CDATA[
var edges = document.getElementsByTagName('g');
if (edges && edges.length) {
  for (var i=0;i<edges.length;i++) {
    if (edges[i].id.substr(0,4)=='edge') {
      edges[i].setAttribute('class','edge');
    }
  }
}
]]></script>
        <defs>
                <circle id="rim" cx="0" cy="0" r="7"/>
                <circle id="rim2" cx="0" cy="0" r="3.5"/>
                <g id="zoomPlus">
                        <use xlink:href="#rim" fill="#404040">
                                <set attributeName="fill" to="#808080" begin="zoomplus.mouseover" end="zoomplus.mouseout"/>
                        </use>
                        <path d="M-4,0h8M0,-4v8" fill="none" stroke="white" stroke-width="1.5" pointer-events="none"/>
                </g>
                <g id="zoomMin">
                        <use xlink:href="#rim" fill="#404040">
                                <set attributeName="fill" to="#808080" begin="zoomminus.mouseover" end="zoomminus.mouseout"/>
                        </use>
                        <path d="M-4,0h8" fill="none" stroke="white" stroke-width="1.5" pointer-events="none"/>
                </g>
                <g id="dirArrow">
                        <path fill="none" stroke="white" stroke-width="1.5" d="M0,-3.0v7 M-2.5,-0.5L0,-3.0L2.5,-0.5"/>
                </g>
               <g id="resetDef">
                       <use xlink:href="#rim2" fill="#404040">
                               <set attributeName="fill" to="#808080" begin="reset.mouseover" end="reset.mouseout"/>
                       </use>
               </g>
        </defs>

<script type="text/javascript">
var viewWidth = 1335;
var viewHeight = 307;
var sectionId = 'dynsection-1';
</script>
<script xlink:href="svgpan.js"/>
<svg id="graph" class="graph">
<g id="viewport">
<title>src/graphics/shader/shader_program.h</title>
<polygon fill="white" stroke="transparent" points="-4,4 -4,-303 1330.72,-303 1330.72,4 -4,4"/>
<!-- Node1 -->
<g id="node1" class="node">
<title>Node1</title>
<g id="a_node1"><a xlink:title=" ">
<polygon fill="#bfbfbf" stroke="black" points="635.72,-268.5 635.72,-298.5 746.72,-298.5 746.72,-268.5 635.72,-268.5"/>
<text text-anchor="start" x="643.72" y="-286.5" font-family="Helvetica,sans-Serif" font-size="10.00">src/graphics/shader</text>
<text text-anchor="middle" x="691.22" y="-275.5" font-family="Helvetica,sans-Serif" font-size="10.00">/shader_program.h</text>
</a>
</g>
</g>
<!-- Node2 -->
<g id="node2" class="node">
<title>Node2</title>
<g id="a_node2"><a xlink:href="camera_8h.html" target="_top" xlink:title=" ">
<polygon fill="white" stroke="black" points="293.72,-140 293.72,-159 430.72,-159 430.72,-140 293.72,-140"/>
<text text-anchor="middle" x="362.22" y="-147" font-family="Helvetica,sans-Serif" font-size="10.00">src/component/camera.h</text>
</a>
</g>
</g>
<!-- Node1&#45;&gt;Node2 -->
<g id="edge1" class="edge">
<title>Node1&#45;&gt;Node2</title>
<path fill="none" stroke="midnightblue" d="M625.59,-280.18C545.28,-275.96 415.69,-264.23 381.22,-232 360.62,-212.75 360.33,-175.87 361.4,-159.14"/>
<polygon fill="midnightblue" stroke="midnightblue" points="625.45,-283.68 635.61,-280.68 625.8,-276.69 625.45,-283.68"/>
</g>
<!-- Node8 -->
<g id="node8" class="node">
<title>Node8</title>
<g id="a_node8"><a xlink:href="asset__loader_8h.html" target="_top" xlink:title=" ">
<polygon fill="white" stroke="black" points="560.22,-134.5 560.22,-164.5 686.22,-164.5 686.22,-134.5 560.22,-134.5"/>
<text text-anchor="start" x="568.22" y="-152.5" font-family="Helvetica,sans-Serif" font-size="10.00">src/graphics/asset</text>
<text text-anchor="middle" x="623.22" y="-141.5" font-family="Helvetica,sans-Serif" font-size="10.00">_loader/asset_loader.h</text>
</a>
</g>
</g>
<!-- Node1&#45;&gt;Node8 -->
<g id="edge8" class="edge">
<title>Node1&#45;&gt;Node8</title>
<path fill="none" stroke="midnightblue" d="M679.35,-259.48C665.24,-232.07 642.11,-187.19 630.44,-164.52"/>
<polygon fill="midnightblue" stroke="midnightblue" points="676.25,-261.09 683.94,-268.37 682.47,-257.88 676.25,-261.09"/>
</g>
<!-- Node10 -->
<g id="node10" class="node">
<title>Node10</title>
<g id="a_node10"><a xlink:href="material_8h.html" target="_top" xlink:title=" ">
<polygon fill="white" stroke="black" points="154.72,-201.5 154.72,-231.5 273.72,-231.5 273.72,-201.5 154.72,-201.5"/>
<text text-anchor="start" x="162.72" y="-219.5" font-family="Helvetica,sans-Serif" font-size="10.00">src/graphics/material</text>
<text text-anchor="middle" x="214.22" y="-208.5" font-family="Helvetica,sans-Serif" font-size="10.00">/material.h</text>
</a>
</g>
</g>
<!-- Node1&#45;&gt;Node10 -->
<g id="edge13" class="edge">
<title>Node1&#45;&gt;Node10</title>
<path fill="none" stroke="midnightblue" d="M625.43,-273.53C532.37,-260.85 363.66,-237.86 273.99,-225.65"/>
<polygon fill="midnightblue" stroke="midnightblue" points="625.18,-277.03 635.56,-274.92 626.13,-270.1 625.18,-277.03"/>
</g>
<!-- Node13 -->
<g id="node13" class="node">
<title>Node13</title>
<g id="a_node13"><a xlink:href="forward__shader_8h.html" target="_top" xlink:title=" ">
<polygon fill="white" stroke="black" points="395.72,-67.5 395.72,-97.5 506.72,-97.5 506.72,-67.5 395.72,-67.5"/>
<text text-anchor="start" x="403.72" y="-85.5" font-family="Helvetica,sans-Serif" font-size="10.00">src/graphics/shader</text>
<text text-anchor="middle" x="451.22" y="-74.5" font-family="Helvetica,sans-Serif" font-size="10.00">/forward_shader.h</text>
</a>
</g>
</g>
<!-- Node1&#45;&gt;Node13 -->
<g id="edge21" class="edge">
<title>Node1&#45;&gt;Node13</title>
<path fill="none" stroke="midnightblue" d="M666.06,-261.64C617.07,-221.02 510.02,-132.26 468.32,-97.68"/>
<polygon fill="midnightblue" stroke="midnightblue" points="664.02,-264.5 673.95,-268.19 668.49,-259.11 664.02,-264.5"/>
</g>
<!-- Node15 -->
<g id="node15" class="node">
<title>Node15</title>
<g id="a_node15"><a xlink:href="geometry__shader_8h.html" target="_top" xlink:title=" ">
<polygon fill="white" stroke="black" points="1017.72,-67.5 1017.72,-97.5 1130.72,-97.5 1130.72,-67.5 1017.72,-67.5"/>
<text text-anchor="start" x="1025.72" y="-85.5" font-family="Helvetica,sans-Serif" font-size="10.00">src/graphics/shader</text>
<text text-anchor="middle" x="1074.22" y="-74.5" font-family="Helvetica,sans-Serif" font-size="10.00">/geometry_shader.h</text>
</a>
</g>
</g>
<!-- Node1&#45;&gt;Node15 -->
<g id="edge25" class="edge">
<title>Node1&#45;&gt;Node15</title>
<path fill="none" stroke="midnightblue" d="M713.63,-261.2C722.51,-252.42 732.63,-241.98 741.22,-232 776.63,-190.82 768.1,-162.69 814.22,-134 889.05,-87.44 922.86,-115.6 1009.22,-98 1011.93,-97.45 1014.71,-96.87 1017.52,-96.28"/>
<polygon fill="midnightblue" stroke="midnightblue" points="710.93,-258.94 706.21,-268.43 715.82,-263.95 710.93,-258.94"/>
</g>
<!-- Node17 -->
<g id="node17" class="node">
<title>Node17</title>
<g id="a_node17"><a xlink:href="light__shader_8h.html" target="_top" xlink:title=" ">
<polygon fill="white" stroke="black" points="1148.72,-67.5 1148.72,-97.5 1259.72,-97.5 1259.72,-67.5 1148.72,-67.5"/>
<text text-anchor="start" x="1156.72" y="-85.5" font-family="Helvetica,sans-Serif" font-size="10.00">src/graphics/shader</text>
<text text-anchor="middle" x="1204.22" y="-74.5" font-family="Helvetica,sans-Serif" font-size="10.00">/light_shader.h</text>
</a>
</g>
</g>
<!-- Node1&#45;&gt;Node17 -->
<g id="edge29" class="edge">
<title>Node1&#45;&gt;Node17</title>
<path fill="none" stroke="midnightblue" d="M724.1,-263.46C755.37,-245.83 804.04,-219.61 848.22,-201 954.08,-156.39 1083.19,-117.44 1153.17,-97.55"/>
<polygon fill="midnightblue" stroke="midnightblue" points="722.34,-260.43 715.38,-268.41 725.8,-266.52 722.34,-260.43"/>
</g>
<!-- Node19 -->
<g id="node19" class="node">
<title>Node19</title>
<g id="a_node19"><a xlink:href="post__proc__shader_8h.html" target="_top" xlink:title=" ">
<polygon fill="white" stroke="black" points="718.72,-67.5 718.72,-97.5 831.72,-97.5 831.72,-67.5 718.72,-67.5"/>
<text text-anchor="start" x="726.72" y="-85.5" font-family="Helvetica,sans-Serif" font-size="10.00">src/graphics/shader</text>
<text text-anchor="middle" x="775.22" y="-74.5" font-family="Helvetica,sans-Serif" font-size="10.00">/post_proc_shader.h</text>
</a>
</g>
</g>
<!-- Node1&#45;&gt;Node19 -->
<g id="edge33" class="edge">
<title>Node1&#45;&gt;Node19</title>
<path fill="none" stroke="midnightblue" d="M696.29,-258.37C703.21,-228.19 717.19,-175.45 738.22,-134 744.9,-120.82 754.93,-107.39 762.86,-97.7"/>
<polygon fill="midnightblue" stroke="midnightblue" points="692.82,-257.88 694.06,-268.4 699.65,-259.4 692.82,-257.88"/>
</g>
<!-- Node21 -->
<g id="node21" class="node">
<title>Node21</title>
<g id="a_node21"><a xlink:href="shader__program_8cpp.html" target="_top" xlink:title=" ">
<polygon fill="white" stroke="black" points="856.72,-201.5 856.72,-231.5 975.72,-231.5 975.72,-201.5 856.72,-201.5"/>
<text text-anchor="start" x="864.72" y="-219.5" font-family="Helvetica,sans-Serif" font-size="10.00">src/graphics/shader</text>
<text text-anchor="middle" x="916.22" y="-208.5" font-family="Helvetica,sans-Serif" font-size="10.00">/shader_program.cpp</text>
</a>
</g>
</g>
<!-- Node1&#45;&gt;Node21 -->
<g id="edge37" class="edge">
<title>Node1&#45;&gt;Node21</title>
<path fill="none" stroke="midnightblue" d="M749.79,-265.58C786.33,-255.02 832.82,-241.59 867.37,-231.61"/>
<polygon fill="midnightblue" stroke="midnightblue" points="748.4,-262.34 739.76,-268.48 750.34,-269.06 748.4,-262.34"/>
</g>
<!-- Node22 -->
<g id="node22" class="node">
<title>Node22</title>
<g id="a_node22"><a xlink:href="skybox__shader_8h.html" target="_top" xlink:title=" ">
<polygon fill="white" stroke="black" points="888.72,-67.5 888.72,-97.5 999.72,-97.5 999.72,-67.5 888.72,-67.5"/>
<text text-anchor="start" x="896.72" y="-85.5" font-family="Helvetica,sans-Serif" font-size="10.00">src/graphics/shader</text>
<text text-anchor="middle" x="944.22" y="-74.5" font-family="Helvetica,sans-Serif" font-size="10.00">/skybox_shader.h</text>
</a>
</g>
</g>
<!-- Node1&#45;&gt;Node22 -->
<g id="edge38" class="edge">
<title>Node1&#45;&gt;Node22</title>
<path fill="none" stroke="midnightblue" d="M704.95,-259.65C710.1,-251.01 715.97,-241.08 721.22,-232 746.19,-188.75 737.24,-165.24 776.22,-134 793.74,-119.95 846.84,-105.33 888.71,-95.45"/>
<polygon fill="midnightblue" stroke="midnightblue" points="701.84,-258.03 699.71,-268.41 707.85,-261.62 701.84,-258.03"/>
</g>
<!-- Node24 -->
<g id="node24" class="node">
<title>Node24</title>
<g id="a_node24"><a xlink:href="skybox_8h.html" target="_top" xlink:title=" ">
<polygon fill="white" stroke="black" points="390.72,-201.5 390.72,-231.5 503.72,-231.5 503.72,-201.5 390.72,-201.5"/>
<text text-anchor="start" x="398.72" y="-219.5" font-family="Helvetica,sans-Serif" font-size="10.00">src/graphics/texture</text>
<text text-anchor="middle" x="447.22" y="-208.5" font-family="Helvetica,sans-Serif" font-size="10.00">/skybox.h</text>
</a>
</g>
</g>
<!-- Node1&#45;&gt;Node24 -->
<g id="edge42" class="edge">
<title>Node1&#45;&gt;Node24</title>
<path fill="none" stroke="midnightblue" d="M628.71,-265.85C588.93,-255.25 537.97,-241.68 500.19,-231.61"/>
<polygon fill="midnightblue" stroke="midnightblue" points="628.01,-269.28 638.57,-268.48 629.81,-262.52 628.01,-269.28"/>
</g>
<!-- Node3 -->
<g id="node3" class="node">
<title>Node3</title>
<g id="a_node3"><a xlink:href="game__scene_8cpp.html" target="_top" xlink:title=" ">
<polygon fill="white" stroke="black" points="511.22,-0.5 511.22,-30.5 635.22,-30.5 635.22,-0.5 511.22,-0.5"/>
<text text-anchor="start" x="519.22" y="-18.5" font-family="Helvetica,sans-Serif" font-size="10.00">src/game/scene/game</text>
<text text-anchor="middle" x="573.22" y="-7.5" font-family="Helvetica,sans-Serif" font-size="10.00">_scene.cpp</text>
</a>
</g>
</g>
<!-- Node2&#45;&gt;Node3 -->
<g id="edge2" class="edge">
<title>Node2&#45;&gt;Node3</title>
<path fill="none" stroke="midnightblue" d="M362.93,-129.89C364.64,-111.42 370.13,-83.54 387.22,-67 396.38,-58.13 460.63,-41.91 511.08,-30.24"/>
<polygon fill="midnightblue" stroke="midnightblue" points="359.43,-129.78 362.27,-139.99 366.41,-130.23 359.43,-129.78"/>
</g>
<!-- Node4 -->
<g id="node4" class="node">
<title>Node4</title>
<g id="a_node4"><a xlink:href="graphics__renderer_8h.html" target="_top" xlink:title=" ">
<polygon fill="white" stroke="black" points="49.72,-67.5 49.72,-97.5 168.72,-97.5 168.72,-67.5 49.72,-67.5"/>
<text text-anchor="start" x="57.72" y="-85.5" font-family="Helvetica,sans-Serif" font-size="10.00">src/graphics/renderer</text>
<text text-anchor="middle" x="109.22" y="-74.5" font-family="Helvetica,sans-Serif" font-size="10.00">/graphics_renderer.h</text>
</a>
</g>
</g>
<!-- Node2&#45;&gt;Node4 -->
<g id="edge3" class="edge">
<title>Node2&#45;&gt;Node4</title>
<path fill="none" stroke="midnightblue" d="M319.04,-137.41C276.21,-126.4 210.41,-109.5 163.94,-97.56"/>
<polygon fill="midnightblue" stroke="midnightblue" points="318.32,-140.84 328.88,-139.94 320.07,-134.06 318.32,-140.84"/>
</g>
<!-- Node7 -->
<g id="node7" class="node">
<title>Node7</title>
<g id="a_node7"><a xlink:href="scene_8cpp.html" target="_top" xlink:title=" ">
<polygon fill="white" stroke="black" points="187.22,-73 187.22,-92 301.22,-92 301.22,-73 187.22,-73"/>
<text text-anchor="middle" x="244.22" y="-80" font-family="Helvetica,sans-Serif" font-size="10.00">src/scene/scene.cpp</text>
</a>
</g>
</g>
<!-- Node2&#45;&gt;Node7 -->
<g id="edge7" class="edge">
<title>Node2&#45;&gt;Node7</title>
<path fill="none" stroke="midnightblue" d="M337.32,-134.79C313.93,-121.9 279.66,-103.02 259.88,-92.13"/>
<polygon fill="midnightblue" stroke="midnightblue" points="335.85,-137.97 346.3,-139.73 339.23,-131.84 335.85,-137.97"/>
</g>
<!-- Node4&#45;&gt;Node3 -->
<g id="edge5" class="edge">
<title>Node4&#45;&gt;Node3</title>
<path fill="none" stroke="midnightblue" d="M179.05,-66.97C322.58,-44.52 361.7,-52.78 501.22,-31 504.36,-30.51 507.59,-29.97 510.83,-29.41"/>
<polygon fill="midnightblue" stroke="midnightblue" points="178.32,-63.55 168.99,-68.57 179.41,-70.46 178.32,-63.55"/>
</g>
<!-- Node5 -->
<g id="node5" class="node">
<title>Node5</title>
<g id="a_node5"><a xlink:href="application_8cpp.html" target="_top" xlink:title=" ">
<polygon fill="white" stroke="black" points="110.72,-6 110.72,-25 275.72,-25 275.72,-6 110.72,-6"/>
<text text-anchor="middle" x="193.22" y="-13" font-family="Helvetica,sans-Serif" font-size="10.00">src/application/application.cpp</text>
</a>
</g>
</g>
<!-- Node4&#45;&gt;Node5 -->
<g id="edge4" class="edge">
<title>Node4&#45;&gt;Node5</title>
<path fill="none" stroke="midnightblue" d="M135.7,-61.01C151.29,-48.94 170.21,-34.3 181.98,-25.19"/>
<polygon fill="midnightblue" stroke="midnightblue" points="133.21,-58.51 127.44,-67.4 137.49,-64.04 133.21,-58.51"/>
</g>
<!-- Node6 -->
<g id="node6" class="node">
<title>Node6</title>
<g id="a_node6"><a xlink:href="graphics__renderer_8cpp.html" target="_top" xlink:title=" ">
<polygon fill="white" stroke="black" points="796.72,-0.5 796.72,-30.5 923.72,-30.5 923.72,-0.5 796.72,-0.5"/>
<text text-anchor="start" x="804.72" y="-18.5" font-family="Helvetica,sans-Serif" font-size="10.00">src/graphics/renderer</text>
<text text-anchor="middle" x="860.22" y="-7.5" font-family="Helvetica,sans-Serif" font-size="10.00">/graphics_renderer.cpp</text>
</a>
</g>
</g>
<!-- Node4&#45;&gt;Node6 -->
<g id="edge6" class="edge">
<title>Node4&#45;&gt;Node6</title>
<path fill="none" stroke="midnightblue" d="M179.07,-67.04C449.17,-31.82 522.17,-65.47 788.22,-31 791,-30.64 793.83,-30.23 796.69,-29.79"/>
<polygon fill="midnightblue" stroke="midnightblue" points="178.41,-63.6 168.96,-68.38 179.33,-70.54 178.41,-63.6"/>
</g>
<!-- Node8&#45;&gt;Node3 -->
<g id="edge10" class="edge">
<title>Node8&#45;&gt;Node3</title>
<path fill="none" stroke="midnightblue" d="M649.52,-127.23C666.61,-110.72 683.59,-87.3 671.22,-67 660.75,-49.84 642.39,-38.26 624.36,-30.57"/>
<polygon fill="midnightblue" stroke="midnightblue" points="646.8,-124.97 641.76,-134.29 651.51,-130.14 646.8,-124.97"/>
</g>
<!-- Node8&#45;&gt;Node5 -->
<g id="edge9" class="edge">
<title>Node8&#45;&gt;Node5</title>
<path fill="none" stroke="midnightblue" d="M549.92,-136.47C502.86,-127.85 440.75,-114.81 387.22,-98 369.61,-92.47 259,-44.92 213.12,-25.11"/>
<polygon fill="midnightblue" stroke="midnightblue" points="549.57,-139.96 560.03,-138.29 550.81,-133.07 549.57,-139.96"/>
</g>
<!-- Node8&#45;&gt;Node6 -->
<g id="edge12" class="edge">
<title>Node8&#45;&gt;Node6</title>
<path fill="none" stroke="midnightblue" d="M696.5,-139.9C751.6,-131.94 820.93,-118.25 841.22,-98 859.1,-80.14 861.45,-48.91 861.12,-30.73"/>
<polygon fill="midnightblue" stroke="midnightblue" points="695.81,-136.46 686.39,-141.32 696.78,-143.39 695.81,-136.46"/>
</g>
<!-- Node9 -->
<g id="node9" class="node">
<title>Node9</title>
<g id="a_node9"><a xlink:href="asset__loader_8cpp.html" target="_top" xlink:title=" ">
<polygon fill="white" stroke="black" points="524.72,-67.5 524.72,-97.5 661.72,-97.5 661.72,-67.5 524.72,-67.5"/>
<text text-anchor="start" x="532.72" y="-85.5" font-family="Helvetica,sans-Serif" font-size="10.00">src/graphics/asset</text>
<text text-anchor="middle" x="593.22" y="-74.5" font-family="Helvetica,sans-Serif" font-size="10.00">_loader/asset_loader.cpp</text>
</a>
</g>
</g>
<!-- Node8&#45;&gt;Node9 -->
<g id="edge11" class="edge">
<title>Node8&#45;&gt;Node9</title>
<path fill="none" stroke="midnightblue" d="M612.5,-125.28C608.23,-116.02 603.44,-105.66 599.71,-97.58"/>
<polygon fill="midnightblue" stroke="midnightblue" points="609.34,-126.78 616.71,-134.4 615.69,-123.85 609.34,-126.78"/>
</g>
<!-- Node10&#45;&gt;Node4 -->
<g id="edge20" class="edge">
<title>Node10&#45;&gt;Node4</title>
<path fill="none" stroke="midnightblue" d="M144.44,-207.8C90.89,-200.28 23.32,-186.75 6.22,-165 -16.12,-136.59 28.68,-112.12 66.05,-97.6"/>
<polygon fill="midnightblue" stroke="midnightblue" points="144.22,-211.3 154.6,-209.18 145.17,-204.37 144.22,-211.3"/>
</g>
<!-- Node10&#45;&gt;Node8 -->
<g id="edge18" class="edge">
<title>Node10&#45;&gt;Node8</title>
<path fill="none" stroke="midnightblue" d="M284.28,-204.37C361.78,-192.05 485.53,-172.38 560.12,-160.53"/>
<polygon fill="midnightblue" stroke="midnightblue" points="283.45,-200.95 274.13,-205.98 284.55,-207.87 283.45,-200.95"/>
</g>
<!-- Node11 -->
<g id="node11" class="node">
<title>Node11</title>
<g id="a_node11"><a xlink:href="render__mesh_8h.html" target="_top" xlink:title=" ">
<polygon fill="white" stroke="black" points="152.72,-134.5 152.72,-164.5 275.72,-164.5 275.72,-134.5 152.72,-134.5"/>
<text text-anchor="start" x="160.72" y="-152.5" font-family="Helvetica,sans-Serif" font-size="10.00">src/component/render</text>
<text text-anchor="middle" x="214.22" y="-141.5" font-family="Helvetica,sans-Serif" font-size="10.00">_mesh.h</text>
</a>
</g>
</g>
<!-- Node10&#45;&gt;Node11 -->
<g id="edge14" class="edge">
<title>Node10&#45;&gt;Node11</title>
<path fill="none" stroke="midnightblue" d="M214.22,-191.11C214.22,-182.15 214.22,-172.32 214.22,-164.58"/>
<polygon fill="midnightblue" stroke="midnightblue" points="210.72,-191.4 214.22,-201.4 217.72,-191.4 210.72,-191.4"/>
</g>
<!-- Node12 -->
<g id="node12" class="node">
<title>Node12</title>
<g id="a_node12"><a xlink:href="material_8cpp.html" target="_top" xlink:title=" ">
<polygon fill="white" stroke="black" points="15.72,-134.5 15.72,-164.5 134.72,-164.5 134.72,-134.5 15.72,-134.5"/>
<text text-anchor="start" x="23.72" y="-152.5" font-family="Helvetica,sans-Serif" font-size="10.00">src/graphics/material</text>
<text text-anchor="middle" x="75.22" y="-141.5" font-family="Helvetica,sans-Serif" font-size="10.00">/material.cpp</text>
</a>
</g>
</g>
<!-- Node10&#45;&gt;Node12 -->
<g id="edge19" class="edge">
<title>Node10&#45;&gt;Node12</title>
<path fill="none" stroke="midnightblue" d="M174.93,-197.13C152.85,-186.8 125.7,-174.11 105.32,-164.58"/>
<polygon fill="midnightblue" stroke="midnightblue" points="173.51,-200.33 184.05,-201.4 176.48,-193.99 173.51,-200.33"/>
</g>
<!-- Node11&#45;&gt;Node3 -->
<g id="edge15" class="edge">
<title>Node11&#45;&gt;Node3</title>
<path fill="none" stroke="midnightblue" d="M142.79,-132.04C97.72,-120.93 46.79,-106.76 40.22,-98 31.94,-86.98 30.86,-77.11 40.22,-67 75.1,-29.28 450.33,-38.08 501.22,-31 504.37,-30.56 507.6,-30.07 510.85,-29.54"/>
<polygon fill="midnightblue" stroke="midnightblue" points="142.05,-135.46 152.59,-134.43 143.71,-128.66 142.05,-135.46"/>
</g>
<!-- Node11&#45;&gt;Node4 -->
<g id="edge16" class="edge">
<title>Node11&#45;&gt;Node4</title>
<path fill="none" stroke="midnightblue" d="M182.74,-129.02C166.4,-118.9 146.8,-106.77 131.95,-97.58"/>
<polygon fill="midnightblue" stroke="midnightblue" points="181.09,-132.11 191.43,-134.4 184.77,-126.16 181.09,-132.11"/>
</g>
<!-- Node11&#45;&gt;Node7 -->
<g id="edge17" class="edge">
<title>Node11&#45;&gt;Node7</title>
<path fill="none" stroke="midnightblue" d="M224.93,-125.29C230.23,-113.8 236.31,-100.63 240.2,-92.19"/>
<polygon fill="midnightblue" stroke="midnightblue" points="221.74,-123.85 220.72,-134.4 228.09,-126.78 221.74,-123.85"/>
</g>
<!-- Node13&#45;&gt;Node3 -->
<g id="edge22" class="edge">
<title>Node13&#45;&gt;Node3</title>
<path fill="none" stroke="midnightblue" d="M486.74,-62.57C505.93,-52.35 529.22,-39.94 546.79,-30.58"/>
<polygon fill="midnightblue" stroke="midnightblue" points="484.87,-59.6 477.69,-67.4 488.16,-65.78 484.87,-59.6"/>
</g>
<!-- Node13&#45;&gt;Node6 -->
<g id="edge23" class="edge">
<title>Node13&#45;&gt;Node6</title>
<path fill="none" stroke="midnightblue" d="M516.86,-66.99C638.01,-45.97 671.1,-50.52 788.22,-31 790.98,-30.54 793.81,-30.05 796.65,-29.54"/>
<polygon fill="midnightblue" stroke="midnightblue" points="516.06,-63.58 506.82,-68.76 517.27,-70.47 516.06,-63.58"/>
</g>
<!-- Node14 -->
<g id="node14" class="node">
<title>Node14</title>
<g id="a_node14"><a xlink:href="forward__shader_8cpp.html" target="_top" xlink:title=" ">
<polygon fill="white" stroke="black" points="377.72,-0.5 377.72,-30.5 492.72,-30.5 492.72,-0.5 377.72,-0.5"/>
<text text-anchor="start" x="385.72" y="-18.5" font-family="Helvetica,sans-Serif" font-size="10.00">src/graphics/shader</text>
<text text-anchor="middle" x="435.22" y="-7.5" font-family="Helvetica,sans-Serif" font-size="10.00">/forward_shader.cpp</text>
</a>
</g>
</g>
<!-- Node13&#45;&gt;Node14 -->
<g id="edge24" class="edge">
<title>Node13&#45;&gt;Node14</title>
<path fill="none" stroke="midnightblue" d="M445.28,-57.4C443.06,-48.37 440.61,-38.41 438.68,-30.58"/>
<polygon fill="midnightblue" stroke="midnightblue" points="441.95,-58.52 447.74,-67.4 448.75,-56.85 441.95,-58.52"/>
</g>
<!-- Node15&#45;&gt;Node3 -->
<g id="edge26" class="edge">
<title>Node15&#45;&gt;Node3</title>
<path fill="none" stroke="midnightblue" d="M1007.34,-66.82C846.9,-41.81 802.69,-54.58 645.22,-31 642.06,-30.53 638.84,-30.01 635.59,-29.46"/>
<polygon fill="midnightblue" stroke="midnightblue" points="1007.15,-70.33 1017.57,-68.44 1008.24,-63.42 1007.15,-70.33"/>
</g>
<!-- Node15&#45;&gt;Node6 -->
<g id="edge27" class="edge">
<title>Node15&#45;&gt;Node6</title>
<path fill="none" stroke="midnightblue" d="M1018.06,-64.44C983.37,-53.91 939.39,-40.55 906.67,-30.61"/>
<polygon fill="midnightblue" stroke="midnightblue" points="1017.46,-67.92 1028.04,-67.48 1019.49,-61.22 1017.46,-67.92"/>
</g>
<!-- Node16 -->
<g id="node16" class="node">
<title>Node16</title>
<g id="a_node16"><a xlink:href="geometry__shader_8cpp.html" target="_top" xlink:title=" ">
<polygon fill="white" stroke="black" points="1072.72,-0.5 1072.72,-30.5 1197.72,-30.5 1197.72,-0.5 1072.72,-0.5"/>
<text text-anchor="start" x="1080.72" y="-18.5" font-family="Helvetica,sans-Serif" font-size="10.00">src/graphics/shader</text>
<text text-anchor="middle" x="1135.22" y="-7.5" font-family="Helvetica,sans-Serif" font-size="10.00">/geometry_shader.cpp</text>
</a>
</g>
</g>
<!-- Node15&#45;&gt;Node16 -->
<g id="edge28" class="edge">
<title>Node15&#45;&gt;Node16</title>
<path fill="none" stroke="midnightblue" d="M1094.37,-60.02C1103.46,-50.34 1113.94,-39.17 1122,-30.58"/>
<polygon fill="midnightblue" stroke="midnightblue" points="1091.74,-57.71 1087.45,-67.4 1096.85,-62.5 1091.74,-57.71"/>
</g>
<!-- Node17&#45;&gt;Node3 -->
<g id="edge30" class="edge">
<title>Node17&#45;&gt;Node3</title>
<path fill="none" stroke="midnightblue" d="M1138.29,-66.86C920.24,-35.32 860.46,-60.38 645.22,-31 642.06,-30.57 638.83,-30.08 635.57,-29.56"/>
<polygon fill="midnightblue" stroke="midnightblue" points="1138.06,-70.36 1148.46,-68.35 1139.08,-63.43 1138.06,-70.36"/>
</g>
<!-- Node17&#45;&gt;Node6 -->
<g id="edge31" class="edge">
<title>Node17&#45;&gt;Node6</title>
<path fill="none" stroke="midnightblue" d="M1138.44,-66.7C1046.95,-48.62 1021.88,-47.51 933.22,-31 930.17,-30.43 927.05,-29.84 923.9,-29.24"/>
<polygon fill="midnightblue" stroke="midnightblue" points="1137.91,-70.16 1148.4,-68.68 1139.28,-63.3 1137.91,-70.16"/>
</g>
<!-- Node18 -->
<g id="node18" class="node">
<title>Node18</title>
<g id="a_node18"><a xlink:href="light__shader_8cpp.html" target="_top" xlink:title=" ">
<polygon fill="white" stroke="black" points="1215.72,-0.5 1215.72,-30.5 1326.72,-30.5 1326.72,-0.5 1215.72,-0.5"/>
<text text-anchor="start" x="1223.72" y="-18.5" font-family="Helvetica,sans-Serif" font-size="10.00">src/graphics/shader</text>
<text text-anchor="middle" x="1271.22" y="-7.5" font-family="Helvetica,sans-Serif" font-size="10.00">/light_shader.cpp</text>
</a>
</g>
</g>
<!-- Node17&#45;&gt;Node18 -->
<g id="edge32" class="edge">
<title>Node17&#45;&gt;Node18</title>
<path fill="none" stroke="midnightblue" d="M1226.06,-60.31C1236.11,-50.56 1247.76,-39.26 1256.71,-30.58"/>
<polygon fill="midnightblue" stroke="midnightblue" points="1223.49,-57.92 1218.75,-67.4 1228.37,-62.94 1223.49,-57.92"/>
</g>
<!-- Node19&#45;&gt;Node3 -->
<g id="edge34" class="edge">
<title>Node19&#45;&gt;Node3</title>
<path fill="none" stroke="midnightblue" d="M721.54,-64.23C688.86,-53.71 647.65,-40.45 616.96,-30.58"/>
<polygon fill="midnightblue" stroke="midnightblue" points="720.79,-67.66 731.38,-67.4 722.94,-61 720.79,-67.66"/>
</g>
<!-- Node19&#45;&gt;Node6 -->
<g id="edge35" class="edge">
<title>Node19&#45;&gt;Node6</title>
<path fill="none" stroke="midnightblue" d="M801.8,-61.17C814.8,-51.23 830.12,-39.51 841.81,-30.58"/>
<polygon fill="midnightblue" stroke="midnightblue" points="799.48,-58.54 793.66,-67.4 803.73,-64.1 799.48,-58.54"/>
</g>
<!-- Node20 -->
<g id="node20" class="node">
<title>Node20</title>
<g id="a_node20"><a xlink:href="post__proc__shader_8cpp.html" target="_top" xlink:title=" ">
<polygon fill="white" stroke="black" points="653.72,-0.5 653.72,-30.5 778.72,-30.5 778.72,-0.5 653.72,-0.5"/>
<text text-anchor="start" x="661.72" y="-18.5" font-family="Helvetica,sans-Serif" font-size="10.00">src/graphics/shader</text>
<text text-anchor="middle" x="716.22" y="-7.5" font-family="Helvetica,sans-Serif" font-size="10.00">/post_proc_shader.cpp</text>
</a>
</g>
</g>
<!-- Node19&#45;&gt;Node20 -->
<g id="edge36" class="edge">
<title>Node19&#45;&gt;Node20</title>
<path fill="none" stroke="midnightblue" d="M755.46,-59.74C746.73,-50.12 736.72,-39.09 728.99,-30.58"/>
<polygon fill="midnightblue" stroke="midnightblue" points="753.1,-62.34 762.41,-67.4 758.28,-57.64 753.1,-62.34"/>
</g>
<!-- Node22&#45;&gt;Node3 -->
<g id="edge39" class="edge">
<title>Node22&#45;&gt;Node3</title>
<path fill="none" stroke="midnightblue" d="M878.27,-70.97C817.61,-61.14 725.22,-45.81 645.22,-31 641.96,-30.4 638.61,-29.77 635.24,-29.12"/>
<polygon fill="midnightblue" stroke="midnightblue" points="878.03,-74.48 888.46,-72.62 879.15,-67.57 878.03,-74.48"/>
</g>
<!-- Node22&#45;&gt;Node6 -->
<g id="edge40" class="edge">
<title>Node22&#45;&gt;Node6</title>
<path fill="none" stroke="midnightblue" d="M917.94,-61.17C905.09,-51.23 889.96,-39.51 878.41,-30.58"/>
<polygon fill="midnightblue" stroke="midnightblue" points="915.94,-64.04 925.99,-67.4 920.22,-58.51 915.94,-64.04"/>
</g>
<!-- Node23 -->
<g id="node23" class="node">
<title>Node23</title>
<g id="a_node23"><a xlink:href="skybox__shader_8cpp.html" target="_top" xlink:title=" ">
<polygon fill="white" stroke="black" points="942.22,-0.5 942.22,-30.5 1054.22,-30.5 1054.22,-0.5 942.22,-0.5"/>
<text text-anchor="start" x="950.22" y="-18.5" font-family="Helvetica,sans-Serif" font-size="10.00">src/graphics/shader</text>
<text text-anchor="middle" x="998.22" y="-7.5" font-family="Helvetica,sans-Serif" font-size="10.00">/skybox_shader.cpp</text>
</a>
</g>
</g>
<!-- Node22&#45;&gt;Node23 -->
<g id="edge41" class="edge">
<title>Node22&#45;&gt;Node23</title>
<path fill="none" stroke="midnightblue" d="M962.54,-59.45C970.47,-49.9 979.52,-39 986.52,-30.58"/>
<polygon fill="midnightblue" stroke="midnightblue" points="959.63,-57.47 955.93,-67.4 965.01,-61.94 959.63,-57.47"/>
</g>
<!-- Node24&#45;&gt;Node2 -->
<g id="edge43" class="edge">
<title>Node24&#45;&gt;Node2</title>
<path fill="none" stroke="midnightblue" d="M420.42,-195.01C404.64,-182.94 385.5,-168.3 373.58,-159.19"/>
<polygon fill="midnightblue" stroke="midnightblue" points="418.7,-198.1 428.77,-201.4 422.95,-192.54 418.7,-198.1"/>
</g>
<!-- Node24&#45;&gt;Node8 -->
<g id="edge44" class="edge">
<title>Node24&#45;&gt;Node8</title>
<path fill="none" stroke="midnightblue" d="M495.09,-197.82C523.38,-187.37 558.71,-174.32 585.1,-164.58"/>
<polygon fill="midnightblue" stroke="midnightblue" points="493.57,-194.65 485.4,-201.4 496,-201.21 493.57,-194.65"/>
</g>
</g>
</svg>
        <g id="navigator" transform="translate(0 0)" fill="#404254">
                <rect fill="#f2f5e9" fill-opacity="0.5" stroke="#606060" stroke-width=".5" x="0" y="0" width="60" height="60"/>
                <use id="zoomplus" xlink:href="#zoomPlus" x="17" y="9" onmousedown="handleZoom(evt,'in')"/>
                <use id="zoomminus" xlink:href="#zoomMin" x="42" y="9" onmousedown="handleZoom(evt,'out')"/>
                <use id="reset" xlink:href="#resetDef" x="30" y="36" onmousedown="handleReset()"/>
                <g id="arrowUp" xlink:href="#dirArrow" transform="translate(30 24)" onmousedown="handlePan(0,-1)">
                  <use xlink:href="#rim" fill="#404040">
                        <set attributeName="fill" to="#808080" begin="arrowUp.mouseover" end="arrowUp.mouseout"/>
                  </use>
                  <path fill="none" stroke="white" stroke-width="1.5" d="M0,-3.0v7 M-2.5,-0.5L0,-3.0L2.5,-0.5"/>
                </g>
                <g id="arrowRight" xlink:href="#dirArrow" transform="rotate(90) translate(36 -43)" onmousedown="handlePan(1,0)">
                  <use xlink:href="#rim" fill="#404040">
                        <set attributeName="fill" to="#808080" begin="arrowRight.mouseover" end="arrowRight.mouseout"/>
                  </use>
                  <path fill="none" stroke="white" stroke-width="1.5" d="M0,-3.0v7 M-2.5,-0.5L0,-3.0L2.5,-0.5"/>
                </g>
                <g id="arrowDown" xlink:href="#dirArrow" transform="rotate(180) translate(-30 -48)" onmousedown="handlePan(0,1)">
                  <use xlink:href="#rim" fill="#404040">
                        <set attributeName="fill" to="#808080" begin="arrowDown.mouseover" end="arrowDown.mouseout"/>
                  </use>
                  <path fill="none" stroke="white" stroke-width="1.5" d="M0,-3.0v7 M-2.5,-0.5L0,-3.0L2.5,-0.5"/>
                </g>
                <g id="arrowLeft" xlink:href="#dirArrow" transform="rotate(270) translate(-36 17)" onmousedown="handlePan(-1,0)">
                  <use xlink:href="#rim" fill="#404040">
                        <set attributeName="fill" to="#808080" begin="arrowLeft.mouseover" end="arrowLeft.mouseout"/>
                  </use>
                  <path fill="none" stroke="white" stroke-width="1.5" d="M0,-3.0v7 M-2.5,-0.5L0,-3.0L2.5,-0.5"/>
                </g>
        </g>
        <svg viewBox="0 0 15 15" width="100%" height="30px" preserveAspectRatio="xMaxYMin meet">
         <g id="arrow_out" transform="scale(0.3 0.3)">
          <a xlink:href="shader__program_8h__dep__incl_org.svg" target="_base">
           <rect id="button" ry="5" rx="5" y="6" x="6" height="38" width="38"
                fill="#f2f5e9" fill-opacity="0.5" stroke="#606060" stroke-width="1.0"/>
           <path id="arrow"
             d="M 11.500037,31.436501 C 11.940474,20.09759 22.043105,11.32322 32.158766,21.979434 L 37.068811,17.246167 C 37.068811,17.246167 37.088388,32 37.088388,32 L 22.160133,31.978069 C 22.160133,31.978069 26.997745,27.140456 26.997745,27.140456 C 18.528582,18.264221 13.291696,25.230495 11.500037,31.436501 z"
             style="fill:#404040;"/>
          </a>
         </g>
        </svg>
</svg>
