<?xml version="1.0" encoding="UTF-8" standalone="no"?>
<!DOCTYPE svg PUBLIC "-//W3C//DTD SVG 1.1//EN"
 "http://www.w3.org/Graphics/SVG/1.1/DTD/svg11.dtd">
<!-- Generated by graphviz version 2.43.0 (0)
 -->
<!-- Title: src/graphics/texture/skybox.h Pages: 1 -->
<!--zoomable 296 -->
<svg id="main" version="1.1" xmlns="http://www.w3.org/2000/svg" xmlns:xlink="http://www.w3.org/1999/xlink" xml:space="preserve" onload="init(evt)">
<style type="text/css"><![CDATA[
.edge:hover path { stroke: red; }
.edge:hover polygon { stroke: red; fill: red; }
]]></style>
<script type="text/javascript"><![CDATA[
var edges = document.getElementsByTagName('g');
if (edges && edges.length) {
  for (var i=0;i<edges.length;i++) {
    if (edges[i].id.substr(0,4)=='edge') {
      edges[i].setAttribute('class','edge');
    }
  }
}
]]></script>
        <defs>
                <circle id="rim" cx="0" cy="0" r="7"/>
                <circle id="rim2" cx="0" cy="0" r="3.5"/>
                <g id="zoomPlus">
                        <use xlink:href="#rim" fill="#404040">
                                <set attributeName="fill" to="#808080" begin="zoomplus.mouseover" end="zoomplus.mouseout"/>
                        </use>
                        <path d="M-4,0h8M0,-4v8" fill="none" stroke="white" stroke-width="1.5" pointer-events="none"/>
                </g>
                <g id="zoomMin">
                        <use xlink:href="#rim" fill="#404040">
                                <set attributeName="fill" to="#808080" begin="zoomminus.mouseover" end="zoomminus.mouseout"/>
                        </use>
                        <path d="M-4,0h8" fill="none" stroke="white" stroke-width="1.5" pointer-events="none"/>
                </g>
                <g id="dirArrow">
                        <path fill="none" stroke="white" stroke-width="1.5" d="M0,-3.0v7 M-2.5,-0.5L0,-3.0L2.5,-0.5"/>
                </g>
               <g id="resetDef">
                       <use xlink:href="#rim2" fill="#404040">
                               <set attributeName="fill" to="#808080" begin="reset.mouseover" end="reset.mouseout"/>
                       </use>
               </g>
        </defs>

<script type="text/javascript">
var viewWidth = 1375;
var viewHeight = 296;
var sectionId = 'dynsection-0';
</script>
<script xlink:href="svgpan.js"/>
<svg id="graph" class="graph">
<g id="viewport">
<title>src/graphics/texture/skybox.h</title>
<polygon fill="white" stroke="transparent" points="-4,4 -4,-292 1370.5,-292 1370.5,4 -4,4"/>
<!-- Node1 -->
<g id="node1" class="node">
<title>Node1</title>
<g id="a_node1"><a xlink:title=" ">
<polygon fill="#bfbfbf" stroke="black" points="617,-257.5 617,-287.5 730,-287.5 730,-257.5 617,-257.5"/>
<text text-anchor="start" x="625" y="-275.5" font-family="Helvetica,sans-Serif" font-size="10.00">src/graphics/texture</text>
<text text-anchor="middle" x="673.5" y="-264.5" font-family="Helvetica,sans-Serif" font-size="10.00">/skybox.h</text>
</a>
</g>
</g>
<!-- Node2 -->
<g id="node2" class="node">
<title>Node2</title>
<g id="a_node2"><a xlink:title=" ">
<polygon fill="white" stroke="#bfbfbf" points="565,-129 565,-148 654,-148 654,-129 565,-129"/>
<text text-anchor="middle" x="609.5" y="-136" font-family="Helvetica,sans-Serif" font-size="10.00">maths/colour.h</text>
</a>
</g>
</g>
<!-- Node1&#45;&gt;Node2 -->
<g id="edge1" class="edge">
<title>Node1&#45;&gt;Node2</title>
<path fill="none" stroke="midnightblue" d="M665.69,-257.48C660.16,-247.41 652.66,-233.48 646.5,-221 635.89,-199.51 624.64,-174.34 617.37,-157.71"/>
<polygon fill="midnightblue" stroke="midnightblue" points="620.41,-155.93 613.21,-148.15 613.99,-158.72 620.41,-155.93"/>
</g>
<!-- Node3 -->
<g id="node3" class="node">
<title>Node3</title>
<g id="a_node3"><a xlink:href="mesh_8h.html" target="_top" xlink:title=" ">
<polygon fill="white" stroke="black" points="219,-196 219,-215 346,-215 346,-196 219,-196"/>
<text text-anchor="middle" x="282.5" y="-203" font-family="Helvetica,sans-Serif" font-size="10.00">graphics/mesh/mesh.h</text>
</a>
</g>
</g>
<!-- Node1&#45;&gt;Node3 -->
<g id="edge2" class="edge">
<title>Node1&#45;&gt;Node3</title>
<path fill="none" stroke="midnightblue" d="M616.65,-262.05C544.03,-249.98 418.82,-229.16 344.02,-216.73"/>
<polygon fill="midnightblue" stroke="midnightblue" points="344.25,-213.22 333.81,-215.03 343.11,-220.12 344.25,-213.22"/>
</g>
<!-- Node16 -->
<g id="node16" class="node">
<title>Node16</title>
<g id="a_node16"><a xlink:href="texture_8h.html" target="_top" xlink:title=" ">
<polygon fill="white" stroke="black" points="961,-129 961,-148 1104,-148 1104,-129 961,-129"/>
<text text-anchor="middle" x="1032.5" y="-136" font-family="Helvetica,sans-Serif" font-size="10.00">graphics/texture/texture.h</text>
</a>
</g>
</g>
<!-- Node1&#45;&gt;Node16 -->
<g id="edge19" class="edge">
<title>Node1&#45;&gt;Node16</title>
<path fill="none" stroke="midnightblue" d="M711.58,-257.5C782.3,-231.5 932.77,-176.17 999.48,-151.64"/>
<polygon fill="midnightblue" stroke="midnightblue" points="1000.89,-154.85 1009.07,-148.12 998.47,-148.28 1000.89,-154.85"/>
</g>
<!-- Node23 -->
<g id="node23" class="node">
<title>Node23</title>
<g id="a_node23"><a xlink:href="shader__program_8h.html" target="_top" xlink:title=" ">
<polygon fill="white" stroke="black" points="655.5,-190.5 655.5,-220.5 785.5,-220.5 785.5,-190.5 655.5,-190.5"/>
<text text-anchor="start" x="663.5" y="-208.5" font-family="Helvetica,sans-Serif" font-size="10.00">graphics/shader/shader</text>
<text text-anchor="middle" x="720.5" y="-197.5" font-family="Helvetica,sans-Serif" font-size="10.00">_program.h</text>
</a>
</g>
</g>
<!-- Node1&#45;&gt;Node23 -->
<g id="edge28" class="edge">
<title>Node1&#45;&gt;Node23</title>
<path fill="none" stroke="midnightblue" d="M683.7,-257.4C689.74,-249.05 697.52,-238.29 704.37,-228.81"/>
<polygon fill="midnightblue" stroke="midnightblue" points="707.3,-230.73 710.32,-220.58 701.63,-226.63 707.3,-230.73"/>
</g>
<!-- Node4 -->
<g id="node4" class="node">
<title>Node4</title>
<g id="a_node4"><a xlink:title=" ">
<polygon fill="white" stroke="#bfbfbf" points="35.5,-0.5 35.5,-19.5 93.5,-19.5 93.5,-0.5 35.5,-0.5"/>
<text text-anchor="middle" x="64.5" y="-7.5" font-family="Helvetica,sans-Serif" font-size="10.00">memory</text>
</a>
</g>
</g>
<!-- Node3&#45;&gt;Node4 -->
<g id="edge3" class="edge">
<title>Node3&#45;&gt;Node4</title>
<path fill="none" stroke="midnightblue" d="M218.79,-198.77C154.37,-191.74 60.57,-177.74 33.5,-154 -0.13,-124.5 -8.47,-96.52 10.5,-56 16.55,-43.09 28.31,-32.6 39.32,-25"/>
<polygon fill="midnightblue" stroke="midnightblue" points="41.33,-27.87 47.87,-19.54 37.56,-21.97 41.33,-27.87"/>
</g>
<!-- Node5 -->
<g id="node5" class="node">
<title>Node5</title>
<g id="a_node5"><a xlink:title=" ">
<polygon fill="white" stroke="#bfbfbf" points="171,-0.5 171,-19.5 218,-19.5 218,-0.5 171,-0.5"/>
<text text-anchor="middle" x="194.5" y="-7.5" font-family="Helvetica,sans-Serif" font-size="10.00">vector</text>
</a>
</g>
</g>
<!-- Node3&#45;&gt;Node5 -->
<g id="edge4" class="edge">
<title>Node3&#45;&gt;Node5</title>
<path fill="none" stroke="midnightblue" d="M259.19,-195.91C241.46,-188 218.34,-174.37 207.5,-154 201.03,-141.84 205.3,-136.6 207.5,-123 210.2,-106.35 216.8,-103.65 219.5,-87 221.71,-73.4 222.96,-69.34 219.5,-56 216.96,-46.18 211.75,-36.21 206.74,-28.17"/>
<polygon fill="midnightblue" stroke="midnightblue" points="209.58,-26.11 201.13,-19.73 203.75,-29.99 209.58,-26.11"/>
</g>
<!-- Node6 -->
<g id="node6" class="node">
<title>Node6</title>
<g id="a_node6"><a xlink:title=" ">
<polygon fill="white" stroke="#bfbfbf" points="502.5,-129 502.5,-148 546.5,-148 546.5,-129 502.5,-129"/>
<text text-anchor="middle" x="524.5" y="-136" font-family="Helvetica,sans-Serif" font-size="10.00">string</text>
</a>
</g>
</g>
<!-- Node3&#45;&gt;Node6 -->
<g id="edge5" class="edge">
<title>Node3&#45;&gt;Node6</title>
<path fill="none" stroke="midnightblue" d="M330.22,-195.95C373.51,-187.52 438.74,-173.14 493.5,-154 495.12,-153.43 496.77,-152.81 498.42,-152.15"/>
<polygon fill="midnightblue" stroke="midnightblue" points="499.93,-155.31 507.71,-148.11 497.14,-148.89 499.93,-155.31"/>
</g>
<!-- Node7 -->
<g id="node7" class="node">
<title>Node7</title>
<g id="a_node7"><a xlink:href="vertex_8h.html" target="_top" xlink:title=" ">
<polygon fill="white" stroke="black" points="217,-129 217,-148 348,-148 348,-129 217,-129"/>
<text text-anchor="middle" x="282.5" y="-136" font-family="Helvetica,sans-Serif" font-size="10.00">graphics/mesh/vertex.h</text>
</a>
</g>
</g>
<!-- Node3&#45;&gt;Node7 -->
<g id="edge6" class="edge">
<title>Node3&#45;&gt;Node7</title>
<path fill="none" stroke="midnightblue" d="M282.5,-195.73C282.5,-186.18 282.5,-170.62 282.5,-158.28"/>
<polygon fill="midnightblue" stroke="midnightblue" points="286,-158.13 282.5,-148.13 279,-158.13 286,-158.13"/>
</g>
<!-- Node9 -->
<g id="node9" class="node">
<title>Node9</title>
<g id="a_node9"><a xlink:href="mesh__instance__data_8h.html" target="_top" xlink:title=" ">
<polygon fill="white" stroke="black" points="366.5,-123.5 366.5,-153.5 484.5,-153.5 484.5,-123.5 366.5,-123.5"/>
<text text-anchor="start" x="374.5" y="-141.5" font-family="Helvetica,sans-Serif" font-size="10.00">graphics/mesh/mesh</text>
<text text-anchor="middle" x="425.5" y="-130.5" font-family="Helvetica,sans-Serif" font-size="10.00">_instance_data.h</text>
</a>
</g>
</g>
<!-- Node3&#45;&gt;Node9 -->
<g id="edge8" class="edge">
<title>Node3&#45;&gt;Node9</title>
<path fill="none" stroke="midnightblue" d="M301.49,-195.87C322.76,-186.2 357.86,-170.25 385.29,-157.78"/>
<polygon fill="midnightblue" stroke="midnightblue" points="386.99,-160.85 394.64,-153.53 384.09,-154.48 386.99,-160.85"/>
</g>
<!-- Node11 -->
<g id="node11" class="node">
<title>Node11</title>
<g id="a_node11"><a xlink:href="vao_8h.html" target="_top" xlink:title=" ">
<polygon fill="white" stroke="black" points="42.5,-129 42.5,-148 160.5,-148 160.5,-129 42.5,-129"/>
<text text-anchor="middle" x="101.5" y="-136" font-family="Helvetica,sans-Serif" font-size="10.00">graphics/mesh/vao.h</text>
</a>
</g>
</g>
<!-- Node3&#45;&gt;Node11 -->
<g id="edge10" class="edge">
<title>Node3&#45;&gt;Node11</title>
<path fill="none" stroke="midnightblue" d="M258.47,-195.87C226.74,-184.47 170.71,-164.35 134.88,-151.49"/>
<polygon fill="midnightblue" stroke="midnightblue" points="135.94,-148.15 125.35,-148.06 133.58,-154.74 135.94,-148.15"/>
</g>
<!-- Node8 -->
<g id="node8" class="node">
<title>Node8</title>
<g id="a_node8"><a xlink:title=" ">
<polygon fill="white" stroke="#bfbfbf" points="497.5,-62 497.5,-81 593.5,-81 593.5,-62 497.5,-62"/>
<text text-anchor="middle" x="545.5" y="-69" font-family="Helvetica,sans-Serif" font-size="10.00">maths/vector3.h</text>
</a>
</g>
</g>
<!-- Node7&#45;&gt;Node8 -->
<g id="edge7" class="edge">
<title>Node7&#45;&gt;Node8</title>
<path fill="none" stroke="midnightblue" d="M317.16,-128.94C364.36,-117.27 448.93,-96.37 500.85,-83.54"/>
<polygon fill="midnightblue" stroke="midnightblue" points="501.9,-86.88 510.77,-81.08 500.22,-80.09 501.9,-86.88"/>
</g>
<!-- Node10 -->
<g id="node10" class="node">
<title>Node10</title>
<g id="a_node10"><a xlink:title=" ">
<polygon fill="white" stroke="#bfbfbf" points="629.5,-62 629.5,-81 721.5,-81 721.5,-62 629.5,-62"/>
<text text-anchor="middle" x="675.5" y="-69" font-family="Helvetica,sans-Serif" font-size="10.00">maths/matrix.h</text>
</a>
</g>
</g>
<!-- Node9&#45;&gt;Node10 -->
<g id="edge9" class="edge">
<title>Node9&#45;&gt;Node10</title>
<path fill="none" stroke="midnightblue" d="M479.44,-123.48C525.42,-111.52 590.61,-94.57 632.97,-83.56"/>
<polygon fill="midnightblue" stroke="midnightblue" points="633.9,-86.93 642.7,-81.03 632.14,-80.16 633.9,-86.93"/>
</g>
<!-- Node11&#45;&gt;Node5 -->
<g id="edge12" class="edge">
<title>Node11&#45;&gt;Node5</title>
<path fill="none" stroke="midnightblue" d="M74.49,-128.87C55.38,-121.18 31.16,-107.87 19.5,-87 12.78,-74.97 11.06,-66.89 19.5,-56 36.67,-33.86 115.05,-20.71 160.88,-14.78"/>
<polygon fill="midnightblue" stroke="midnightblue" points="161.47,-18.24 170.96,-13.53 160.6,-11.29 161.47,-18.24"/>
</g>
<!-- Node12 -->
<g id="node12" class="node">
<title>Node12</title>
<g id="a_node12"><a xlink:title=" ">
<polygon fill="white" stroke="#bfbfbf" points="29,-62 29,-81 74,-81 74,-62 29,-62"/>
<text text-anchor="middle" x="51.5" y="-69" font-family="Helvetica,sans-Serif" font-size="10.00">utility</text>
</a>
</g>
</g>
<!-- Node11&#45;&gt;Node12 -->
<g id="edge11" class="edge">
<title>Node11&#45;&gt;Node12</title>
<path fill="none" stroke="midnightblue" d="M94.76,-128.73C86.96,-118.6 73.96,-101.69 64.24,-89.06"/>
<polygon fill="midnightblue" stroke="midnightblue" points="67.01,-86.92 58.14,-81.13 61.46,-91.19 67.01,-86.92"/>
</g>
<!-- Node13 -->
<g id="node13" class="node">
<title>Node13</title>
<g id="a_node13"><a xlink:href="vbo_8h.html" target="_top" xlink:title=" ">
<polygon fill="white" stroke="black" points="92.5,-62 92.5,-81 210.5,-81 210.5,-62 92.5,-62"/>
<text text-anchor="middle" x="151.5" y="-69" font-family="Helvetica,sans-Serif" font-size="10.00">graphics/mesh/vbo.h</text>
</a>
</g>
</g>
<!-- Node11&#45;&gt;Node13 -->
<g id="edge13" class="edge">
<title>Node11&#45;&gt;Node13</title>
<path fill="none" stroke="midnightblue" d="M108.25,-128.73C116.04,-118.6 129.05,-101.69 138.77,-89.06"/>
<polygon fill="midnightblue" stroke="midnightblue" points="141.54,-91.19 144.87,-81.13 135.99,-86.92 141.54,-91.19"/>
</g>
<!-- Node15 -->
<g id="node15" class="node">
<title>Node15</title>
<g id="a_node15"><a xlink:href="ebo_8h.html" target="_top" xlink:title=" ">
<polygon fill="white" stroke="black" points="325.5,-62 325.5,-81 443.5,-81 443.5,-62 325.5,-62"/>
<text text-anchor="middle" x="384.5" y="-69" font-family="Helvetica,sans-Serif" font-size="10.00">graphics/mesh/ebo.h</text>
</a>
</g>
</g>
<!-- Node11&#45;&gt;Node15 -->
<g id="edge17" class="edge">
<title>Node11&#45;&gt;Node15</title>
<path fill="none" stroke="midnightblue" d="M138.79,-128.94C189.8,-117.22 281.35,-96.19 337.15,-83.38"/>
<polygon fill="midnightblue" stroke="midnightblue" points="338.17,-86.73 347.13,-81.08 336.6,-79.91 338.17,-86.73"/>
</g>
<!-- Node13&#45;&gt;Node4 -->
<g id="edge15" class="edge">
<title>Node13&#45;&gt;Node4</title>
<path fill="none" stroke="midnightblue" d="M139.04,-61.98C125.08,-52.43 102.24,-36.81 85.51,-25.37"/>
<polygon fill="midnightblue" stroke="midnightblue" points="87.17,-22.27 76.94,-19.51 83.22,-28.04 87.17,-22.27"/>
</g>
<!-- Node13&#45;&gt;Node5 -->
<g id="edge14" class="edge">
<title>Node13&#45;&gt;Node5</title>
<path fill="none" stroke="midnightblue" d="M157.66,-61.98C164.11,-53.05 174.41,-38.81 182.47,-27.64"/>
<polygon fill="midnightblue" stroke="midnightblue" points="185.33,-29.66 188.35,-19.51 179.66,-25.56 185.33,-29.66"/>
</g>
<!-- Node14 -->
<g id="node14" class="node">
<title>Node14</title>
<g id="a_node14"><a xlink:title=" ">
<polygon fill="white" stroke="#bfbfbf" points="764.5,-0.5 764.5,-19.5 828.5,-19.5 828.5,-0.5 764.5,-0.5"/>
<text text-anchor="middle" x="796.5" y="-7.5" font-family="Helvetica,sans-Serif" font-size="10.00">GL/glew.h</text>
</a>
</g>
</g>
<!-- Node13&#45;&gt;Node14 -->
<g id="edge16" class="edge">
<title>Node13&#45;&gt;Node14</title>
<path fill="none" stroke="midnightblue" d="M210.74,-65.04C339.56,-53.15 642.58,-25.2 754.23,-14.9"/>
<polygon fill="midnightblue" stroke="midnightblue" points="754.79,-18.36 764.42,-13.96 754.15,-11.39 754.79,-18.36"/>
</g>
<!-- Node15&#45;&gt;Node14 -->
<g id="edge18" class="edge">
<title>Node15&#45;&gt;Node14</title>
<path fill="none" stroke="midnightblue" d="M443.53,-61.98C527.72,-49.82 680.26,-27.79 754.14,-17.12"/>
<polygon fill="midnightblue" stroke="midnightblue" points="755.05,-20.52 764.45,-15.63 754.05,-13.59 755.05,-20.52"/>
</g>
<!-- Node16&#45;&gt;Node14 -->
<g id="edge23" class="edge">
<title>Node16&#45;&gt;Node14</title>
<path fill="none" stroke="midnightblue" d="M965.59,-128.94C930.22,-121.96 887.43,-109.41 854.5,-87 832.48,-72.01 815.27,-45.94 805.5,-28.58"/>
<polygon fill="midnightblue" stroke="midnightblue" points="808.44,-26.66 800.63,-19.51 802.28,-29.98 808.44,-26.66"/>
</g>
<!-- Node17 -->
<g id="node17" class="node">
<title>Node17</title>
<g id="a_node17"><a xlink:title=" ">
<polygon fill="white" stroke="#bfbfbf" points="1132.5,-62 1132.5,-81 1174.5,-81 1174.5,-62 1132.5,-62"/>
<text text-anchor="middle" x="1153.5" y="-69" font-family="Helvetica,sans-Serif" font-size="10.00">array</text>
</a>
</g>
</g>
<!-- Node16&#45;&gt;Node17 -->
<g id="edge20" class="edge">
<title>Node16&#45;&gt;Node17</title>
<path fill="none" stroke="midnightblue" d="M1048.82,-128.73C1069.32,-117.72 1104.71,-98.71 1128.6,-85.88"/>
<polygon fill="midnightblue" stroke="midnightblue" points="1130.29,-88.94 1137.44,-81.13 1126.98,-82.78 1130.29,-88.94"/>
</g>
<!-- Node18 -->
<g id="node18" class="node">
<title>Node18</title>
<g id="a_node18"><a xlink:title=" ">
<polygon fill="white" stroke="#bfbfbf" points="1193,-62 1193,-81 1240,-81 1240,-62 1193,-62"/>
<text text-anchor="middle" x="1216.5" y="-69" font-family="Helvetica,sans-Serif" font-size="10.00">cmath</text>
</a>
</g>
</g>
<!-- Node16&#45;&gt;Node18 -->
<g id="edge21" class="edge">
<title>Node16&#45;&gt;Node18</title>
<path fill="none" stroke="midnightblue" d="M1060.6,-128.95C1091.13,-119.46 1141.21,-103.32 1183.5,-87 1185.11,-86.38 1186.75,-85.73 1188.4,-85.05"/>
<polygon fill="midnightblue" stroke="midnightblue" points="1189.94,-88.2 1197.78,-81.08 1187.21,-81.76 1189.94,-88.2"/>
</g>
<!-- Node19 -->
<g id="node19" class="node">
<title>Node19</title>
<g id="a_node19"><a xlink:title=" ">
<polygon fill="white" stroke="#bfbfbf" points="1258.5,-62 1258.5,-81 1366.5,-81 1366.5,-62 1258.5,-62"/>
<text text-anchor="middle" x="1312.5" y="-69" font-family="Helvetica,sans-Serif" font-size="10.00">SDL2/SDL_image.h</text>
</a>
</g>
</g>
<!-- Node16&#45;&gt;Node19 -->
<g id="edge22" class="edge">
<title>Node16&#45;&gt;Node19</title>
<path fill="none" stroke="midnightblue" d="M1069.4,-128.94C1119.86,-117.22 1210.44,-96.19 1265.65,-83.38"/>
<polygon fill="midnightblue" stroke="midnightblue" points="1266.58,-86.75 1275.53,-81.08 1264.99,-79.94 1266.58,-86.75"/>
</g>
<!-- Node20 -->
<g id="node20" class="node">
<title>Node20</title>
<g id="a_node20"><a xlink:title=" ">
<polygon fill="white" stroke="#bfbfbf" points="863,-62 863,-81 974,-81 974,-62 863,-62"/>
<text text-anchor="middle" x="918.5" y="-69" font-family="Helvetica,sans-Serif" font-size="10.00">maths/maths_util.h</text>
</a>
</g>
</g>
<!-- Node16&#45;&gt;Node20 -->
<g id="edge24" class="edge">
<title>Node16&#45;&gt;Node20</title>
<path fill="none" stroke="midnightblue" d="M1017.13,-128.73C997.98,-117.82 965.06,-99.05 942.57,-86.22"/>
<polygon fill="midnightblue" stroke="midnightblue" points="944.05,-83.04 933.63,-81.13 940.59,-89.12 944.05,-83.04"/>
</g>
<!-- Node21 -->
<g id="node21" class="node">
<title>Node21</title>
<g id="a_node21"><a xlink:href="pixel__format_8h.html" target="_top" xlink:title=" ">
<polygon fill="white" stroke="black" points="992.5,-56.5 992.5,-86.5 1114.5,-86.5 1114.5,-56.5 992.5,-56.5"/>
<text text-anchor="start" x="1000.5" y="-74.5" font-family="Helvetica,sans-Serif" font-size="10.00">graphics/texture/pixel</text>
<text text-anchor="middle" x="1053.5" y="-63.5" font-family="Helvetica,sans-Serif" font-size="10.00">_format.h</text>
</a>
</g>
</g>
<!-- Node16&#45;&gt;Node21 -->
<g id="edge25" class="edge">
<title>Node16&#45;&gt;Node21</title>
<path fill="none" stroke="midnightblue" d="M1035.33,-128.73C1038.01,-120.46 1042.14,-107.66 1045.79,-96.37"/>
<polygon fill="midnightblue" stroke="midnightblue" points="1049.21,-97.18 1048.95,-86.59 1042.55,-95.03 1049.21,-97.18"/>
</g>
<!-- Node21&#45;&gt;Node14 -->
<g id="edge27" class="edge">
<title>Node21&#45;&gt;Node14</title>
<path fill="none" stroke="midnightblue" d="M992.92,-56.47C945.35,-45.46 880.35,-30.41 838.39,-20.7"/>
<polygon fill="midnightblue" stroke="midnightblue" points="839.04,-17.26 828.51,-18.41 837.46,-24.08 839.04,-17.26"/>
</g>
<!-- Node22 -->
<g id="node22" class="node">
<title>Node22</title>
<g id="a_node22"><a xlink:title=" ">
<polygon fill="white" stroke="#bfbfbf" points="1021,-0.5 1021,-19.5 1086,-19.5 1086,-0.5 1021,-0.5"/>
<text text-anchor="middle" x="1053.5" y="-7.5" font-family="Helvetica,sans-Serif" font-size="10.00">stdexcept</text>
</a>
</g>
</g>
<!-- Node21&#45;&gt;Node22 -->
<g id="edge26" class="edge">
<title>Node21&#45;&gt;Node22</title>
<path fill="none" stroke="midnightblue" d="M1053.5,-56.4C1053.5,-48.47 1053.5,-38.46 1053.5,-29.86"/>
<polygon fill="midnightblue" stroke="midnightblue" points="1057,-29.66 1053.5,-19.66 1050,-29.66 1057,-29.66"/>
</g>
<!-- Node23&#45;&gt;Node2 -->
<g id="edge32" class="edge">
<title>Node23&#45;&gt;Node2</title>
<path fill="none" stroke="midnightblue" d="M696.42,-190.4C677.54,-179.34 651.44,-164.06 632.78,-153.13"/>
<polygon fill="midnightblue" stroke="midnightblue" points="634.43,-150.04 624.03,-148.01 630.89,-156.08 634.43,-150.04"/>
</g>
<!-- Node23&#45;&gt;Node5 -->
<g id="edge30" class="edge">
<title>Node23&#45;&gt;Node5</title>
<path fill="none" stroke="midnightblue" d="M727.34,-190.44C740.46,-161.21 764.96,-93.47 730.5,-56 696.48,-19 340.55,-12.41 228.25,-11.25"/>
<polygon fill="midnightblue" stroke="midnightblue" points="228.2,-7.74 218.16,-11.15 228.13,-14.74 228.2,-7.74"/>
</g>
<!-- Node23&#45;&gt;Node6 -->
<g id="edge29" class="edge">
<title>Node23&#45;&gt;Node6</title>
<path fill="none" stroke="midnightblue" d="M668.97,-190.45C636.37,-181.12 593.56,-168.04 556.5,-154 554.89,-153.39 553.25,-152.74 551.6,-152.06"/>
<polygon fill="midnightblue" stroke="midnightblue" points="552.84,-148.79 542.27,-148.03 550.07,-155.21 552.84,-148.79"/>
</g>
<!-- Node23&#45;&gt;Node8 -->
<g id="edge34" class="edge">
<title>Node23&#45;&gt;Node8</title>
<path fill="none" stroke="midnightblue" d="M713.72,-190.29C704.56,-172.44 686.68,-141.84 663.5,-123 641.24,-104.9 611.52,-92.24 587.47,-84.11"/>
<polygon fill="midnightblue" stroke="midnightblue" points="588.49,-80.76 577.9,-81.01 586.33,-87.42 588.49,-80.76"/>
</g>
<!-- Node23&#45;&gt;Node10 -->
<g id="edge35" class="edge">
<title>Node23&#45;&gt;Node10</title>
<path fill="none" stroke="midnightblue" d="M716.8,-190.22C712.43,-173.83 704.72,-146.22 696.5,-123 692.64,-112.09 687.69,-100.12 683.57,-90.57"/>
<polygon fill="midnightblue" stroke="midnightblue" points="686.74,-89.08 679.51,-81.33 680.33,-91.89 686.74,-89.08"/>
</g>
<!-- Node23&#45;&gt;Node14 -->
<g id="edge31" class="edge">
<title>Node23&#45;&gt;Node14</title>
<path fill="none" stroke="midnightblue" d="M740.37,-190.37C751.61,-181.28 764.9,-168.49 772.5,-154 793.78,-113.44 796.94,-58.31 796.98,-29.8"/>
<polygon fill="midnightblue" stroke="midnightblue" points="800.48,-29.6 796.86,-19.64 793.48,-29.68 800.48,-29.6"/>
</g>
<!-- Node23&#45;&gt;Node16 -->
<g id="edge36" class="edge">
<title>Node23&#45;&gt;Node16</title>
<path fill="none" stroke="midnightblue" d="M785.53,-190.95C843.75,-178.82 927.95,-161.28 981.45,-150.14"/>
<polygon fill="midnightblue" stroke="midnightblue" points="982.32,-153.53 991.39,-148.06 980.89,-146.68 982.32,-153.53"/>
</g>
<!-- Node24 -->
<g id="node24" class="node">
<title>Node24</title>
<g id="a_node24"><a xlink:title=" ">
<polygon fill="white" stroke="#bfbfbf" points="824.5,-129 824.5,-148 920.5,-148 920.5,-129 824.5,-129"/>
<text text-anchor="middle" x="872.5" y="-136" font-family="Helvetica,sans-Serif" font-size="10.00">maths/vector2.h</text>
</a>
</g>
</g>
<!-- Node23&#45;&gt;Node24 -->
<g id="edge33" class="edge">
<title>Node23&#45;&gt;Node24</title>
<path fill="none" stroke="midnightblue" d="M753.48,-190.4C780.27,-178.94 817.69,-162.94 843.38,-151.95"/>
<polygon fill="midnightblue" stroke="midnightblue" points="844.79,-155.16 852.61,-148.01 842.04,-148.72 844.79,-155.16"/>
</g>
</g>
</svg>
        <g id="navigator" transform="translate(0 0)" fill="#404254">
                <rect fill="#f2f5e9" fill-opacity="0.5" stroke="#606060" stroke-width=".5" x="0" y="0" width="60" height="60"/>
                <use id="zoomplus" xlink:href="#zoomPlus" x="17" y="9" onmousedown="handleZoom(evt,'in')"/>
                <use id="zoomminus" xlink:href="#zoomMin" x="42" y="9" onmousedown="handleZoom(evt,'out')"/>
                <use id="reset" xlink:href="#resetDef" x="30" y="36" onmousedown="handleReset()"/>
                <g id="arrowUp" xlink:href="#dirArrow" transform="translate(30 24)" onmousedown="handlePan(0,-1)">
                  <use xlink:href="#rim" fill="#404040">
                        <set attributeName="fill" to="#808080" begin="arrowUp.mouseover" end="arrowUp.mouseout"/>
                  </use>
                  <path fill="none" stroke="white" stroke-width="1.5" d="M0,-3.0v7 M-2.5,-0.5L0,-3.0L2.5,-0.5"/>
                </g>
                <g id="arrowRight" xlink:href="#dirArrow" transform="rotate(90) translate(36 -43)" onmousedown="handlePan(1,0)">
                  <use xlink:href="#rim" fill="#404040">
                        <set attributeName="fill" to="#808080" begin="arrowRight.mouseover" end="arrowRight.mouseout"/>
                  </use>
                  <path fill="none" stroke="white" stroke-width="1.5" d="M0,-3.0v7 M-2.5,-0.5L0,-3.0L2.5,-0.5"/>
                </g>
                <g id="arrowDown" xlink:href="#dirArrow" transform="rotate(180) translate(-30 -48)" onmousedown="handlePan(0,1)">
                  <use xlink:href="#rim" fill="#404040">
                        <set attributeName="fill" to="#808080" begin="arrowDown.mouseover" end="arrowDown.mouseout"/>
                  </use>
                  <path fill="none" stroke="white" stroke-width="1.5" d="M0,-3.0v7 M-2.5,-0.5L0,-3.0L2.5,-0.5"/>
                </g>
                <g id="arrowLeft" xlink:href="#dirArrow" transform="rotate(270) translate(-36 17)" onmousedown="handlePan(-1,0)">
                  <use xlink:href="#rim" fill="#404040">
                        <set attributeName="fill" to="#808080" begin="arrowLeft.mouseover" end="arrowLeft.mouseout"/>
                  </use>
                  <path fill="none" stroke="white" stroke-width="1.5" d="M0,-3.0v7 M-2.5,-0.5L0,-3.0L2.5,-0.5"/>
                </g>
        </g>
        <svg viewBox="0 0 15 15" width="100%" height="30px" preserveAspectRatio="xMaxYMin meet">
         <g id="arrow_out" transform="scale(0.3 0.3)">
          <a xlink:href="skybox_8h__incl_org.svg" target="_base">
           <rect id="button" ry="5" rx="5" y="6" x="6" height="38" width="38"
                fill="#f2f5e9" fill-opacity="0.5" stroke="#606060" stroke-width="1.0"/>
           <path id="arrow"
             d="M 11.500037,31.436501 C 11.940474,20.09759 22.043105,11.32322 32.158766,21.979434 L 37.068811,17.246167 C 37.068811,17.246167 37.088388,32 37.088388,32 L 22.160133,31.978069 C 22.160133,31.978069 26.997745,27.140456 26.997745,27.140456 C 18.528582,18.264221 13.291696,25.230495 11.500037,31.436501 z"
             style="fill:#404040;"/>
          </a>
         </g>
        </svg>
</svg>
