<?xml version="1.0" encoding="UTF-8" standalone="no"?>
<!DOCTYPE svg PUBLIC "-//W3C//DTD SVG 1.1//EN"
 "http://www.w3.org/Graphics/SVG/1.1/DTD/svg11.dtd">
<!-- Generated by graphviz version 2.43.0 (0)
 -->
<!-- Title: src/graphics/lighting/skybox.h Pages: 1 -->
<svg width="1525pt" height="285pt"
 viewBox="0.00 0.00 1525.00 285.00" xmlns="http://www.w3.org/2000/svg" xmlns:xlink="http://www.w3.org/1999/xlink">
<g id="graph0" class="graph" transform="scale(1 1) rotate(0) translate(4 281)">
<title>src/graphics/lighting/skybox.h</title>
<polygon fill="white" stroke="transparent" points="-4,4 -4,-281 1521,-281 1521,4 -4,4"/>
<!-- Node1 -->
<g id="node1" class="node">
<title>Node1</title>
<g id="a_node1"><a xlink:title=" ">
<polygon fill="#bfbfbf" stroke="black" points="760.5,-246.5 760.5,-276.5 875.5,-276.5 875.5,-246.5 760.5,-246.5"/>
<text text-anchor="start" x="768.5" y="-264.5" font-family="Helvetica,sans-Serif" font-size="10.00">src/graphics/lighting</text>
<text text-anchor="middle" x="818" y="-253.5" font-family="Helvetica,sans-Serif" font-size="10.00">/skybox.h</text>
</a>
</g>
</g>
<!-- Node2 -->
<g id="node2" class="node">
<title>Node2</title>
<g id="a_node2"><a xlink:title=" ">
<polygon fill="white" stroke="#bfbfbf" points="867.5,-62 867.5,-81 956.5,-81 956.5,-62 867.5,-62"/>
<text text-anchor="middle" x="912" y="-69" font-family="Helvetica,sans-Serif" font-size="10.00">maths/colour.h</text>
</a>
</g>
</g>
<!-- Node1&#45;&gt;Node2 -->
<g id="edge1" class="edge">
<title>Node1&#45;&gt;Node2</title>
<path fill="none" stroke="midnightblue" d="M825.07,-246.37C841.93,-212.65 884.49,-127.52 903.08,-90.34"/>
<polygon fill="midnightblue" stroke="midnightblue" points="906.31,-91.72 907.65,-81.21 900.04,-88.59 906.31,-91.72"/>
</g>
<!-- Node3 -->
<g id="node3" class="node">
<title>Node3</title>
<g id="a_node3"><a xlink:href="mesh_8h.html" target="_top" xlink:title=" ">
<polygon fill="white" stroke="black" points="338.5,-190.5 338.5,-209.5 465.5,-209.5 465.5,-190.5 338.5,-190.5"/>
<text text-anchor="middle" x="402" y="-197.5" font-family="Helvetica,sans-Serif" font-size="10.00">graphics/mesh/mesh.h</text>
</a>
</g>
</g>
<!-- Node1&#45;&gt;Node3 -->
<g id="edge2" class="edge">
<title>Node1&#45;&gt;Node3</title>
<path fill="none" stroke="midnightblue" d="M760.16,-252.23C684.69,-241.43 552.75,-222.56 471.8,-210.98"/>
<polygon fill="midnightblue" stroke="midnightblue" points="472.1,-207.49 461.71,-209.54 471.11,-214.42 472.1,-207.49"/>
</g>
<!-- Node16 -->
<g id="node16" class="node">
<title>Node16</title>
<g id="a_node16"><a xlink:href="texture_8h.html" target="_top" xlink:title=" ">
<polygon fill="white" stroke="black" points="1025.5,-129 1025.5,-148 1168.5,-148 1168.5,-129 1025.5,-129"/>
<text text-anchor="middle" x="1097" y="-136" font-family="Helvetica,sans-Serif" font-size="10.00">graphics/texture/texture.h</text>
</a>
</g>
</g>
<!-- Node1&#45;&gt;Node16 -->
<g id="edge19" class="edge">
<title>Node1&#45;&gt;Node16</title>
<path fill="none" stroke="midnightblue" d="M850.55,-246.38C905.38,-222.61 1015.29,-174.94 1067.78,-152.17"/>
<polygon fill="midnightblue" stroke="midnightblue" points="1069.41,-155.28 1077.19,-148.09 1066.62,-148.86 1069.41,-155.28"/>
</g>
<!-- Node23 -->
<g id="node23" class="node">
<title>Node23</title>
<g id="a_node23"><a xlink:href="shader__program_8h.html" target="_top" xlink:title=" ">
<polygon fill="white" stroke="black" points="660,-123.5 660,-153.5 790,-153.5 790,-123.5 660,-123.5"/>
<text text-anchor="start" x="668" y="-141.5" font-family="Helvetica,sans-Serif" font-size="10.00">graphics/shader/shader</text>
<text text-anchor="middle" x="725" y="-130.5" font-family="Helvetica,sans-Serif" font-size="10.00">_program.h</text>
</a>
</g>
</g>
<!-- Node1&#45;&gt;Node23 -->
<g id="edge28" class="edge">
<title>Node1&#45;&gt;Node23</title>
<path fill="none" stroke="midnightblue" d="M806.97,-246.14C790.96,-225.31 761.13,-186.51 742.22,-161.9"/>
<polygon fill="midnightblue" stroke="midnightblue" points="744.89,-159.63 736.02,-153.84 739.34,-163.9 744.89,-159.63"/>
</g>
<!-- Node4 -->
<g id="node4" class="node">
<title>Node4</title>
<g id="a_node4"><a xlink:title=" ">
<polygon fill="white" stroke="#bfbfbf" points="0,-0.5 0,-19.5 58,-19.5 58,-0.5 0,-0.5"/>
<text text-anchor="middle" x="29" y="-7.5" font-family="Helvetica,sans-Serif" font-size="10.00">memory</text>
</a>
</g>
</g>
<!-- Node3&#45;&gt;Node4 -->
<g id="edge3" class="edge">
<title>Node3&#45;&gt;Node4</title>
<path fill="none" stroke="midnightblue" d="M338.45,-198.5C249.82,-196.55 95.07,-188.18 52,-154 14.98,-124.63 19.92,-61.32 25.16,-29.73"/>
<polygon fill="midnightblue" stroke="midnightblue" points="28.65,-30.12 27.03,-19.65 21.77,-28.84 28.65,-30.12"/>
</g>
<!-- Node5 -->
<g id="node5" class="node">
<title>Node5</title>
<g id="a_node5"><a xlink:title=" ">
<polygon fill="white" stroke="#bfbfbf" points="78.5,-0.5 78.5,-19.5 125.5,-19.5 125.5,-0.5 78.5,-0.5"/>
<text text-anchor="middle" x="102" y="-7.5" font-family="Helvetica,sans-Serif" font-size="10.00">vector</text>
</a>
</g>
</g>
<!-- Node3&#45;&gt;Node5 -->
<g id="edge4" class="edge">
<title>Node3&#45;&gt;Node5</title>
<path fill="none" stroke="midnightblue" d="M338.26,-193.54C264.83,-186.49 149.24,-172.85 110,-154 61.04,-130.49 11.79,-104.11 37,-56 44.28,-42.11 58.01,-31.65 70.98,-24.33"/>
<polygon fill="midnightblue" stroke="midnightblue" points="72.93,-27.27 80.19,-19.55 69.7,-21.05 72.93,-27.27"/>
</g>
<!-- Node6 -->
<g id="node6" class="node">
<title>Node6</title>
<g id="a_node6"><a xlink:title=" ">
<polygon fill="white" stroke="#bfbfbf" points="615,-62 615,-81 659,-81 659,-62 615,-62"/>
<text text-anchor="middle" x="637" y="-69" font-family="Helvetica,sans-Serif" font-size="10.00">string</text>
</a>
</g>
</g>
<!-- Node3&#45;&gt;Node6 -->
<g id="edge5" class="edge">
<title>Node3&#45;&gt;Node6</title>
<path fill="none" stroke="midnightblue" d="M465.72,-192.6C519.78,-185.9 591.84,-173.6 613,-154 630.38,-137.89 635.4,-109.91 636.73,-91.29"/>
<polygon fill="midnightblue" stroke="midnightblue" points="640.23,-91.24 637.15,-81.1 633.24,-90.95 640.23,-91.24"/>
</g>
<!-- Node7 -->
<g id="node7" class="node">
<title>Node7</title>
<g id="a_node7"><a xlink:href="vertex_8h.html" target="_top" xlink:title=" ">
<polygon fill="white" stroke="black" points="336.5,-129 336.5,-148 467.5,-148 467.5,-129 336.5,-129"/>
<text text-anchor="middle" x="402" y="-136" font-family="Helvetica,sans-Serif" font-size="10.00">graphics/mesh/vertex.h</text>
</a>
</g>
</g>
<!-- Node3&#45;&gt;Node7 -->
<g id="edge6" class="edge">
<title>Node3&#45;&gt;Node7</title>
<path fill="none" stroke="midnightblue" d="M402,-190.48C402,-182.08 402,-168.98 402,-158.16"/>
<polygon fill="midnightblue" stroke="midnightblue" points="405.5,-158.01 402,-148.01 398.5,-158.01 405.5,-158.01"/>
</g>
<!-- Node9 -->
<g id="node9" class="node">
<title>Node9</title>
<g id="a_node9"><a xlink:href="mesh__instance__data_8h.html" target="_top" xlink:title=" ">
<polygon fill="white" stroke="black" points="486,-123.5 486,-153.5 604,-153.5 604,-123.5 486,-123.5"/>
<text text-anchor="start" x="494" y="-141.5" font-family="Helvetica,sans-Serif" font-size="10.00">graphics/mesh/mesh</text>
<text text-anchor="middle" x="545" y="-130.5" font-family="Helvetica,sans-Serif" font-size="10.00">_instance_data.h</text>
</a>
</g>
</g>
<!-- Node3&#45;&gt;Node9 -->
<g id="edge8" class="edge">
<title>Node3&#45;&gt;Node9</title>
<path fill="none" stroke="midnightblue" d="M422.49,-190.48C443.12,-181.89 475.58,-168.38 501.91,-157.43"/>
<polygon fill="midnightblue" stroke="midnightblue" points="503.41,-160.6 511.3,-153.52 500.72,-154.13 503.41,-160.6"/>
</g>
<!-- Node11 -->
<g id="node11" class="node">
<title>Node11</title>
<g id="a_node11"><a xlink:href="vao_8h.html" target="_top" xlink:title=" ">
<polygon fill="white" stroke="black" points="119,-129 119,-148 237,-148 237,-129 119,-129"/>
<text text-anchor="middle" x="178" y="-136" font-family="Helvetica,sans-Serif" font-size="10.00">graphics/mesh/vao.h</text>
</a>
</g>
</g>
<!-- Node3&#45;&gt;Node11 -->
<g id="edge10" class="edge">
<title>Node3&#45;&gt;Node11</title>
<path fill="none" stroke="midnightblue" d="M369.91,-190.48C330.4,-179.98 263.22,-162.14 219.74,-150.59"/>
<polygon fill="midnightblue" stroke="midnightblue" points="220.6,-147.19 210.03,-148.01 218.8,-153.96 220.6,-147.19"/>
</g>
<!-- Node8 -->
<g id="node8" class="node">
<title>Node8</title>
<g id="a_node8"><a xlink:title=" ">
<polygon fill="white" stroke="#bfbfbf" points="391,-62 391,-81 487,-81 487,-62 391,-62"/>
<text text-anchor="middle" x="439" y="-69" font-family="Helvetica,sans-Serif" font-size="10.00">maths/vector3.h</text>
</a>
</g>
</g>
<!-- Node7&#45;&gt;Node8 -->
<g id="edge7" class="edge">
<title>Node7&#45;&gt;Node8</title>
<path fill="none" stroke="midnightblue" d="M406.99,-128.73C412.59,-118.89 421.83,-102.66 428.95,-90.16"/>
<polygon fill="midnightblue" stroke="midnightblue" points="432.18,-91.55 434.09,-81.13 426.1,-88.09 432.18,-91.55"/>
</g>
<!-- Node10 -->
<g id="node10" class="node">
<title>Node10</title>
<g id="a_node10"><a xlink:title=" ">
<polygon fill="white" stroke="#bfbfbf" points="505,-62 505,-81 597,-81 597,-62 505,-62"/>
<text text-anchor="middle" x="551" y="-69" font-family="Helvetica,sans-Serif" font-size="10.00">maths/matrix.h</text>
</a>
</g>
</g>
<!-- Node9&#45;&gt;Node10 -->
<g id="edge9" class="edge">
<title>Node9&#45;&gt;Node10</title>
<path fill="none" stroke="midnightblue" d="M546.3,-123.4C547.17,-113.96 548.33,-101.45 549.27,-91.19"/>
<polygon fill="midnightblue" stroke="midnightblue" points="552.76,-91.47 550.2,-81.19 545.79,-90.83 552.76,-91.47"/>
</g>
<!-- Node11&#45;&gt;Node5 -->
<g id="edge12" class="edge">
<title>Node11&#45;&gt;Node5</title>
<path fill="none" stroke="midnightblue" d="M118.93,-130.17C91.99,-123.55 62.48,-110.95 46,-87 38.19,-75.65 40.05,-68.42 46,-56 52.25,-42.95 64.34,-32.49 75.68,-24.95"/>
<polygon fill="midnightblue" stroke="midnightblue" points="77.81,-27.75 84.5,-19.54 74.15,-21.79 77.81,-27.75"/>
</g>
<!-- Node12 -->
<g id="node12" class="node">
<title>Node12</title>
<g id="a_node12"><a xlink:title=" ">
<polygon fill="white" stroke="#bfbfbf" points="55.5,-62 55.5,-81 100.5,-81 100.5,-62 55.5,-62"/>
<text text-anchor="middle" x="78" y="-69" font-family="Helvetica,sans-Serif" font-size="10.00">utility</text>
</a>
</g>
</g>
<!-- Node11&#45;&gt;Node12 -->
<g id="edge11" class="edge">
<title>Node11&#45;&gt;Node12</title>
<path fill="none" stroke="midnightblue" d="M164.51,-128.73C147.95,-117.96 119.62,-99.55 99.91,-86.74"/>
<polygon fill="midnightblue" stroke="midnightblue" points="101.56,-83.64 91.27,-81.13 97.75,-89.51 101.56,-83.64"/>
</g>
<!-- Node13 -->
<g id="node13" class="node">
<title>Node13</title>
<g id="a_node13"><a xlink:href="vbo_8h.html" target="_top" xlink:title=" ">
<polygon fill="white" stroke="black" points="119,-62 119,-81 237,-81 237,-62 119,-62"/>
<text text-anchor="middle" x="178" y="-69" font-family="Helvetica,sans-Serif" font-size="10.00">graphics/mesh/vbo.h</text>
</a>
</g>
</g>
<!-- Node11&#45;&gt;Node13 -->
<g id="edge13" class="edge">
<title>Node11&#45;&gt;Node13</title>
<path fill="none" stroke="midnightblue" d="M178,-128.73C178,-119.18 178,-103.62 178,-91.28"/>
<polygon fill="midnightblue" stroke="midnightblue" points="181.5,-91.13 178,-81.13 174.5,-91.13 181.5,-91.13"/>
</g>
<!-- Node15 -->
<g id="node15" class="node">
<title>Node15</title>
<g id="a_node15"><a xlink:href="ebo_8h.html" target="_top" xlink:title=" ">
<polygon fill="white" stroke="black" points="255,-62 255,-81 373,-81 373,-62 255,-62"/>
<text text-anchor="middle" x="314" y="-69" font-family="Helvetica,sans-Serif" font-size="10.00">graphics/mesh/ebo.h</text>
</a>
</g>
</g>
<!-- Node11&#45;&gt;Node15 -->
<g id="edge17" class="edge">
<title>Node11&#45;&gt;Node15</title>
<path fill="none" stroke="midnightblue" d="M196.06,-128.87C219.23,-117.8 259.63,-98.49 286.6,-85.6"/>
<polygon fill="midnightblue" stroke="midnightblue" points="288.35,-88.64 295.87,-81.17 285.33,-82.32 288.35,-88.64"/>
</g>
<!-- Node13&#45;&gt;Node4 -->
<g id="edge15" class="edge">
<title>Node13&#45;&gt;Node4</title>
<path fill="none" stroke="midnightblue" d="M156.65,-61.98C131.31,-51.86 88.86,-34.9 59.93,-23.35"/>
<polygon fill="midnightblue" stroke="midnightblue" points="60.89,-19.97 50.31,-19.51 58.3,-26.47 60.89,-19.97"/>
</g>
<!-- Node13&#45;&gt;Node5 -->
<g id="edge14" class="edge">
<title>Node13&#45;&gt;Node5</title>
<path fill="none" stroke="midnightblue" d="M167.11,-61.98C155.03,-52.52 135.33,-37.1 120.76,-25.69"/>
<polygon fill="midnightblue" stroke="midnightblue" points="122.9,-22.92 112.87,-19.51 118.59,-28.43 122.9,-22.92"/>
</g>
<!-- Node14 -->
<g id="node14" class="node">
<title>Node14</title>
<g id="a_node14"><a xlink:title=" ">
<polygon fill="white" stroke="#bfbfbf" points="693,-0.5 693,-19.5 757,-19.5 757,-0.5 693,-0.5"/>
<text text-anchor="middle" x="725" y="-7.5" font-family="Helvetica,sans-Serif" font-size="10.00">GL/glew.h</text>
</a>
</g>
</g>
<!-- Node13&#45;&gt;Node14 -->
<g id="edge16" class="edge">
<title>Node13&#45;&gt;Node14</title>
<path fill="none" stroke="midnightblue" d="M214.21,-61.96C224.44,-59.77 235.62,-57.59 246,-56 406.34,-31.46 599.05,-18.26 682.76,-13.31"/>
<polygon fill="midnightblue" stroke="midnightblue" points="683.11,-16.8 692.89,-12.72 682.7,-9.81 683.11,-16.8"/>
</g>
<!-- Node15&#45;&gt;Node14 -->
<g id="edge18" class="edge">
<title>Node15&#45;&gt;Node14</title>
<path fill="none" stroke="midnightblue" d="M351.31,-61.99C361.25,-59.87 372.01,-57.72 382,-56 489.65,-37.49 617.47,-22.57 682.46,-15.48"/>
<polygon fill="midnightblue" stroke="midnightblue" points="683.15,-18.92 692.71,-14.37 682.4,-11.96 683.15,-18.92"/>
</g>
<!-- Node16&#45;&gt;Node14 -->
<g id="edge23" class="edge">
<title>Node16&#45;&gt;Node14</title>
<path fill="none" stroke="midnightblue" d="M1078.99,-128.89C1059.85,-119.48 1028.98,-103.53 1004,-87 985.53,-74.78 985.14,-65.2 965,-56 900.02,-26.32 816.59,-16.21 767.16,-12.78"/>
<polygon fill="midnightblue" stroke="midnightblue" points="767.35,-9.28 757.15,-12.14 766.91,-16.27 767.35,-9.28"/>
</g>
<!-- Node17 -->
<g id="node17" class="node">
<title>Node17</title>
<g id="a_node17"><a xlink:title=" ">
<polygon fill="white" stroke="#bfbfbf" points="1013,-62 1013,-81 1055,-81 1055,-62 1013,-62"/>
<text text-anchor="middle" x="1034" y="-69" font-family="Helvetica,sans-Serif" font-size="10.00">array</text>
</a>
</g>
</g>
<!-- Node16&#45;&gt;Node17 -->
<g id="edge20" class="edge">
<title>Node16&#45;&gt;Node17</title>
<path fill="none" stroke="midnightblue" d="M1088.5,-128.73C1078.49,-118.4 1061.66,-101.04 1049.34,-88.33"/>
<polygon fill="midnightblue" stroke="midnightblue" points="1051.83,-85.87 1042.36,-81.13 1046.81,-90.74 1051.83,-85.87"/>
</g>
<!-- Node18 -->
<g id="node18" class="node">
<title>Node18</title>
<g id="a_node18"><a xlink:title=" ">
<polygon fill="white" stroke="#bfbfbf" points="1073.5,-62 1073.5,-81 1120.5,-81 1120.5,-62 1073.5,-62"/>
<text text-anchor="middle" x="1097" y="-69" font-family="Helvetica,sans-Serif" font-size="10.00">cmath</text>
</a>
</g>
</g>
<!-- Node16&#45;&gt;Node18 -->
<g id="edge21" class="edge">
<title>Node16&#45;&gt;Node18</title>
<path fill="none" stroke="midnightblue" d="M1097,-128.73C1097,-119.18 1097,-103.62 1097,-91.28"/>
<polygon fill="midnightblue" stroke="midnightblue" points="1100.5,-91.13 1097,-81.13 1093.5,-91.13 1100.5,-91.13"/>
</g>
<!-- Node19 -->
<g id="node19" class="node">
<title>Node19</title>
<g id="a_node19"><a xlink:title=" ">
<polygon fill="white" stroke="#bfbfbf" points="1139,-62 1139,-81 1247,-81 1247,-62 1139,-62"/>
<text text-anchor="middle" x="1193" y="-69" font-family="Helvetica,sans-Serif" font-size="10.00">SDL2/SDL_image.h</text>
</a>
</g>
</g>
<!-- Node16&#45;&gt;Node19 -->
<g id="edge22" class="edge">
<title>Node16&#45;&gt;Node19</title>
<path fill="none" stroke="midnightblue" d="M1109.95,-128.73C1125.85,-117.96 1153.05,-99.55 1171.97,-86.74"/>
<polygon fill="midnightblue" stroke="midnightblue" points="1173.94,-89.63 1180.26,-81.13 1170.02,-83.84 1173.94,-89.63"/>
</g>
<!-- Node20 -->
<g id="node20" class="node">
<title>Node20</title>
<g id="a_node20"><a xlink:title=" ">
<polygon fill="white" stroke="#bfbfbf" points="1265.5,-62 1265.5,-81 1376.5,-81 1376.5,-62 1265.5,-62"/>
<text text-anchor="middle" x="1321" y="-69" font-family="Helvetica,sans-Serif" font-size="10.00">maths/maths_util.h</text>
</a>
</g>
</g>
<!-- Node16&#45;&gt;Node20 -->
<g id="edge24" class="edge">
<title>Node16&#45;&gt;Node20</title>
<path fill="none" stroke="midnightblue" d="M1126.75,-128.87C1166.6,-117.3 1237.43,-96.75 1281.66,-83.91"/>
<polygon fill="midnightblue" stroke="midnightblue" points="1282.86,-87.21 1291.49,-81.06 1280.91,-80.49 1282.86,-87.21"/>
</g>
<!-- Node21 -->
<g id="node21" class="node">
<title>Node21</title>
<g id="a_node21"><a xlink:href="pixel__format_8h.html" target="_top" xlink:title=" ">
<polygon fill="white" stroke="black" points="1395,-56.5 1395,-86.5 1517,-86.5 1517,-56.5 1395,-56.5"/>
<text text-anchor="start" x="1403" y="-74.5" font-family="Helvetica,sans-Serif" font-size="10.00">graphics/texture/pixel</text>
<text text-anchor="middle" x="1456" y="-63.5" font-family="Helvetica,sans-Serif" font-size="10.00">_format.h</text>
</a>
</g>
</g>
<!-- Node16&#45;&gt;Node21 -->
<g id="edge25" class="edge">
<title>Node16&#45;&gt;Node21</title>
<path fill="none" stroke="midnightblue" d="M1148.51,-129C1204.29,-119.68 1296.14,-104.01 1384.96,-87.17"/>
<polygon fill="midnightblue" stroke="midnightblue" points="1385.77,-90.57 1394.94,-85.27 1384.46,-83.7 1385.77,-90.57"/>
</g>
<!-- Node21&#45;&gt;Node14 -->
<g id="edge27" class="edge">
<title>Node21&#45;&gt;Node14</title>
<path fill="none" stroke="midnightblue" d="M1394.62,-57.29C1391.71,-56.82 1388.83,-56.39 1386,-56 1153.81,-24.2 872.5,-14.51 767.35,-11.88"/>
<polygon fill="midnightblue" stroke="midnightblue" points="767.23,-8.38 757.14,-11.64 767.06,-15.38 767.23,-8.38"/>
</g>
<!-- Node22 -->
<g id="node22" class="node">
<title>Node22</title>
<g id="a_node22"><a xlink:title=" ">
<polygon fill="white" stroke="#bfbfbf" points="1423.5,-0.5 1423.5,-19.5 1488.5,-19.5 1488.5,-0.5 1423.5,-0.5"/>
<text text-anchor="middle" x="1456" y="-7.5" font-family="Helvetica,sans-Serif" font-size="10.00">stdexcept</text>
</a>
</g>
</g>
<!-- Node21&#45;&gt;Node22 -->
<g id="edge26" class="edge">
<title>Node21&#45;&gt;Node22</title>
<path fill="none" stroke="midnightblue" d="M1456,-56.4C1456,-48.47 1456,-38.46 1456,-29.86"/>
<polygon fill="midnightblue" stroke="midnightblue" points="1459.5,-29.66 1456,-19.66 1452.5,-29.66 1459.5,-29.66"/>
</g>
<!-- Node23&#45;&gt;Node2 -->
<g id="edge32" class="edge">
<title>Node23&#45;&gt;Node2</title>
<path fill="none" stroke="midnightblue" d="M765.58,-123.4C799.11,-111.74 846.2,-95.37 877.83,-84.38"/>
<polygon fill="midnightblue" stroke="midnightblue" points="879.23,-87.6 887.53,-81.01 876.93,-80.98 879.23,-87.6"/>
</g>
<!-- Node23&#45;&gt;Node5 -->
<g id="edge30" class="edge">
<title>Node23&#45;&gt;Node5</title>
<path fill="none" stroke="midnightblue" d="M719.64,-123.34C711.62,-104.33 694.52,-71.18 668,-56 621.85,-29.58 251.34,-15.73 136.09,-12.03"/>
<polygon fill="midnightblue" stroke="midnightblue" points="135.86,-8.52 125.75,-11.7 135.64,-15.51 135.86,-8.52"/>
</g>
<!-- Node23&#45;&gt;Node6 -->
<g id="edge29" class="edge">
<title>Node23&#45;&gt;Node6</title>
<path fill="none" stroke="midnightblue" d="M705.91,-123.4C691.42,-112.7 671.57,-98.03 656.89,-87.19"/>
<polygon fill="midnightblue" stroke="midnightblue" points="658.64,-84.13 648.52,-81.01 654.48,-89.76 658.64,-84.13"/>
</g>
<!-- Node23&#45;&gt;Node8 -->
<g id="edge34" class="edge">
<title>Node23&#45;&gt;Node8</title>
<path fill="none" stroke="midnightblue" d="M659.73,-123.69C613.84,-113.84 551.06,-100.07 496,-87 491.34,-85.89 486.47,-84.71 481.63,-83.5"/>
<polygon fill="midnightblue" stroke="midnightblue" points="482.36,-80.08 471.81,-81.04 480.66,-86.87 482.36,-80.08"/>
</g>
<!-- Node23&#45;&gt;Node10 -->
<g id="edge35" class="edge">
<title>Node23&#45;&gt;Node10</title>
<path fill="none" stroke="midnightblue" d="M687.24,-123.4C656.17,-111.79 612.61,-95.51 583.17,-84.52"/>
<polygon fill="midnightblue" stroke="midnightblue" points="584.37,-81.23 573.77,-81.01 581.92,-87.79 584.37,-81.23"/>
</g>
<!-- Node23&#45;&gt;Node14 -->
<g id="edge31" class="edge">
<title>Node23&#45;&gt;Node14</title>
<path fill="none" stroke="midnightblue" d="M725,-123.48C725,-100.72 725,-55.7 725,-30.06"/>
<polygon fill="midnightblue" stroke="midnightblue" points="728.5,-29.79 725,-19.79 721.5,-29.79 728.5,-29.79"/>
</g>
<!-- Node24 -->
<g id="node24" class="node">
<title>Node24</title>
<g id="a_node24"><a xlink:title=" ">
<polygon fill="white" stroke="#bfbfbf" points="753,-62 753,-81 849,-81 849,-62 753,-62"/>
<text text-anchor="middle" x="801" y="-69" font-family="Helvetica,sans-Serif" font-size="10.00">maths/vector2.h</text>
</a>
</g>
</g>
<!-- Node23&#45;&gt;Node24 -->
<g id="edge33" class="edge">
<title>Node23&#45;&gt;Node24</title>
<path fill="none" stroke="midnightblue" d="M741.49,-123.4C753.69,-112.96 770.31,-98.75 782.88,-88"/>
<polygon fill="midnightblue" stroke="midnightblue" points="785.51,-90.35 790.83,-81.19 780.96,-85.03 785.51,-90.35"/>
</g>
</g>
</svg>
