<?xml version="1.0" encoding="UTF-8" standalone="no"?>
<!DOCTYPE svg PUBLIC "-//W3C//DTD SVG 1.1//EN"
 "http://www.w3.org/Graphics/SVG/1.1/DTD/svg11.dtd">
<!-- Generated by graphviz version 2.43.0 (0)
 -->
<!-- Title: src/graphics/shader/skybox_shader.h Pages: 1 -->
<svg width="768pt" height="218pt"
 viewBox="0.00 0.00 768.35 218.00" xmlns="http://www.w3.org/2000/svg" xmlns:xlink="http://www.w3.org/1999/xlink">
<g id="graph0" class="graph" transform="scale(1 1) rotate(0) translate(4 214)">
<title>src/graphics/shader/skybox_shader.h</title>
<polygon fill="white" stroke="transparent" points="-4,4 -4,-214 764.35,-214 764.35,4 -4,4"/>
<!-- Node1 -->
<g id="node1" class="node">
<title>Node1</title>
<g id="a_node1"><a xlink:title=" ">
<polygon fill="#bfbfbf" stroke="black" points="600.85,-179.5 600.85,-209.5 711.85,-209.5 711.85,-179.5 600.85,-179.5"/>
<text text-anchor="start" x="608.85" y="-197.5" font-family="Helvetica,sans-Serif" font-size="10.00">src/graphics/shader</text>
<text text-anchor="middle" x="656.35" y="-186.5" font-family="Helvetica,sans-Serif" font-size="10.00">/skybox_shader.h</text>
</a>
</g>
</g>
<!-- Node2 -->
<g id="node2" class="node">
<title>Node2</title>
<g id="a_node2"><a xlink:title=" ">
<polygon fill="white" stroke="#bfbfbf" points="710.35,-0.5 710.35,-19.5 760.35,-19.5 760.35,-0.5 710.35,-0.5"/>
<text text-anchor="middle" x="735.35" y="-7.5" font-family="Helvetica,sans-Serif" font-size="10.00">cstdint</text>
</a>
</g>
</g>
<!-- Node1&#45;&gt;Node2 -->
<g id="edge1" class="edge">
<title>Node1&#45;&gt;Node2</title>
<path fill="none" stroke="midnightblue" d="M690.33,-179.38C705.64,-171.14 722.28,-159.15 731.35,-143 751.48,-107.14 745.37,-56.73 739.9,-29.76"/>
<polygon fill="midnightblue" stroke="midnightblue" points="743.26,-28.75 737.68,-19.75 736.43,-30.27 743.26,-28.75"/>
</g>
<!-- Node3 -->
<g id="node3" class="node">
<title>Node3</title>
<g id="a_node3"><a xlink:href="shader__program_8h.html" target="_top" xlink:title=" ">
<polygon fill="white" stroke="black" points="265.35,-112.5 265.35,-142.5 395.35,-142.5 395.35,-112.5 265.35,-112.5"/>
<text text-anchor="start" x="273.35" y="-130.5" font-family="Helvetica,sans-Serif" font-size="10.00">graphics/shader/shader</text>
<text text-anchor="middle" x="330.35" y="-119.5" font-family="Helvetica,sans-Serif" font-size="10.00">_program.h</text>
</a>
</g>
</g>
<!-- Node1&#45;&gt;Node3 -->
<g id="edge2" class="edge">
<title>Node1&#45;&gt;Node3</title>
<path fill="none" stroke="midnightblue" d="M600.68,-182.4C546.96,-171.69 465.24,-155.39 405.71,-143.53"/>
<polygon fill="midnightblue" stroke="midnightblue" points="406.1,-140.03 395.61,-141.51 404.73,-146.9 406.1,-140.03"/>
</g>
<!-- Node11 -->
<g id="node11" class="node">
<title>Node11</title>
<g id="a_node11"><a xlink:href="texture__unit_8h.html" target="_top" xlink:title=" ">
<polygon fill="white" stroke="black" points="590.35,-112.5 590.35,-142.5 722.35,-142.5 722.35,-112.5 590.35,-112.5"/>
<text text-anchor="start" x="598.35" y="-130.5" font-family="Helvetica,sans-Serif" font-size="10.00">graphics/shader/texture</text>
<text text-anchor="middle" x="656.35" y="-119.5" font-family="Helvetica,sans-Serif" font-size="10.00">_unit.h</text>
</a>
</g>
</g>
<!-- Node1&#45;&gt;Node11 -->
<g id="edge10" class="edge">
<title>Node1&#45;&gt;Node11</title>
<path fill="none" stroke="midnightblue" d="M656.35,-179.4C656.35,-171.64 656.35,-161.81 656.35,-152.86"/>
<polygon fill="midnightblue" stroke="midnightblue" points="659.85,-152.58 656.35,-142.58 652.85,-152.58 659.85,-152.58"/>
</g>
<!-- Node4 -->
<g id="node4" class="node">
<title>Node4</title>
<g id="a_node4"><a xlink:title=" ">
<polygon fill="white" stroke="#bfbfbf" points="351.35,-56.5 351.35,-75.5 395.35,-75.5 395.35,-56.5 351.35,-56.5"/>
<text text-anchor="middle" x="373.35" y="-63.5" font-family="Helvetica,sans-Serif" font-size="10.00">string</text>
</a>
</g>
</g>
<!-- Node3&#45;&gt;Node4 -->
<g id="edge3" class="edge">
<title>Node3&#45;&gt;Node4</title>
<path fill="none" stroke="midnightblue" d="M340.54,-112.4C346.73,-103.84 354.65,-92.87 361.17,-83.86"/>
<polygon fill="midnightblue" stroke="midnightblue" points="364.07,-85.81 367.09,-75.66 358.4,-81.71 364.07,-85.81"/>
</g>
<!-- Node5 -->
<g id="node5" class="node">
<title>Node5</title>
<g id="a_node5"><a xlink:title=" ">
<polygon fill="white" stroke="#bfbfbf" points="413.85,-56.5 413.85,-75.5 460.85,-75.5 460.85,-56.5 413.85,-56.5"/>
<text text-anchor="middle" x="437.35" y="-63.5" font-family="Helvetica,sans-Serif" font-size="10.00">vector</text>
</a>
</g>
</g>
<!-- Node3&#45;&gt;Node5 -->
<g id="edge4" class="edge">
<title>Node3&#45;&gt;Node5</title>
<path fill="none" stroke="midnightblue" d="M355.71,-112.4C373.02,-102.77 395.83,-90.09 412.94,-80.58"/>
<polygon fill="midnightblue" stroke="midnightblue" points="414.74,-83.58 421.78,-75.66 411.34,-77.46 414.74,-83.58"/>
</g>
<!-- Node6 -->
<g id="node6" class="node">
<title>Node6</title>
<g id="a_node6"><a xlink:title=" ">
<polygon fill="white" stroke="#bfbfbf" points="479.35,-56.5 479.35,-75.5 543.35,-75.5 543.35,-56.5 479.35,-56.5"/>
<text text-anchor="middle" x="511.35" y="-63.5" font-family="Helvetica,sans-Serif" font-size="10.00">GL/glew.h</text>
</a>
</g>
</g>
<!-- Node3&#45;&gt;Node6 -->
<g id="edge5" class="edge">
<title>Node3&#45;&gt;Node6</title>
<path fill="none" stroke="midnightblue" d="M373.25,-112.4C404.39,-102.16 446.04,-88.47 475.43,-78.81"/>
<polygon fill="midnightblue" stroke="midnightblue" points="476.87,-82.02 485.28,-75.57 474.69,-75.37 476.87,-82.02"/>
</g>
<!-- Node7 -->
<g id="node7" class="node">
<title>Node7</title>
<g id="a_node7"><a xlink:title=" ">
<polygon fill="white" stroke="#bfbfbf" points="265.85,-0.5 265.85,-19.5 354.85,-19.5 354.85,-0.5 265.85,-0.5"/>
<text text-anchor="middle" x="310.35" y="-7.5" font-family="Helvetica,sans-Serif" font-size="10.00">maths/colour.h</text>
</a>
</g>
</g>
<!-- Node3&#45;&gt;Node7 -->
<g id="edge6" class="edge">
<title>Node3&#45;&gt;Node7</title>
<path fill="none" stroke="midnightblue" d="M265.08,-126.02C179.74,-123.84 37.24,-114.38 4.35,-76 -1.43,-69.25 -1.46,-62.73 4.35,-56 36.14,-19.2 176.11,-11.95 255.28,-10.85"/>
<polygon fill="midnightblue" stroke="midnightblue" points="255.6,-14.35 265.56,-10.74 255.52,-7.35 255.6,-14.35"/>
</g>
<!-- Node8 -->
<g id="node8" class="node">
<title>Node8</title>
<g id="a_node8"><a xlink:title=" ">
<polygon fill="white" stroke="#bfbfbf" points="13.35,-56.5 13.35,-75.5 109.35,-75.5 109.35,-56.5 13.35,-56.5"/>
<text text-anchor="middle" x="61.35" y="-63.5" font-family="Helvetica,sans-Serif" font-size="10.00">maths/vector2.h</text>
</a>
</g>
</g>
<!-- Node3&#45;&gt;Node8 -->
<g id="edge7" class="edge">
<title>Node3&#45;&gt;Node8</title>
<path fill="none" stroke="midnightblue" d="M266.94,-112.47C218.81,-101.83 153.64,-87.41 109.68,-77.69"/>
<polygon fill="midnightblue" stroke="midnightblue" points="110.33,-74.25 99.81,-75.51 108.82,-81.08 110.33,-74.25"/>
</g>
<!-- Node9 -->
<g id="node9" class="node">
<title>Node9</title>
<g id="a_node9"><a xlink:title=" ">
<polygon fill="white" stroke="#bfbfbf" points="127.35,-56.5 127.35,-75.5 223.35,-75.5 223.35,-56.5 127.35,-56.5"/>
<text text-anchor="middle" x="175.35" y="-63.5" font-family="Helvetica,sans-Serif" font-size="10.00">maths/vector3.h</text>
</a>
</g>
</g>
<!-- Node3&#45;&gt;Node9 -->
<g id="edge8" class="edge">
<title>Node3&#45;&gt;Node9</title>
<path fill="none" stroke="midnightblue" d="M293.62,-112.4C267.38,-102.33 232.43,-88.91 207.33,-79.28"/>
<polygon fill="midnightblue" stroke="midnightblue" points="208.5,-75.97 197.91,-75.66 205.99,-82.51 208.5,-75.97"/>
</g>
<!-- Node10 -->
<g id="node10" class="node">
<title>Node10</title>
<g id="a_node10"><a xlink:title=" ">
<polygon fill="white" stroke="#bfbfbf" points="241.35,-56.5 241.35,-75.5 333.35,-75.5 333.35,-56.5 241.35,-56.5"/>
<text text-anchor="middle" x="287.35" y="-63.5" font-family="Helvetica,sans-Serif" font-size="10.00">maths/matrix.h</text>
</a>
</g>
</g>
<!-- Node3&#45;&gt;Node10 -->
<g id="edge9" class="edge">
<title>Node3&#45;&gt;Node10</title>
<path fill="none" stroke="midnightblue" d="M320.16,-112.4C313.98,-103.84 306.05,-92.87 299.53,-83.86"/>
<polygon fill="midnightblue" stroke="midnightblue" points="302.3,-81.71 293.61,-75.66 296.63,-85.81 302.3,-81.71"/>
</g>
<!-- Node11&#45;&gt;Node2 -->
<g id="edge11" class="edge">
<title>Node11&#45;&gt;Node2</title>
<path fill="none" stroke="midnightblue" d="M678.92,-112.41C691.6,-103.42 706.76,-90.71 716.35,-76 725.48,-62 730.33,-43.5 732.84,-29.82"/>
<polygon fill="midnightblue" stroke="midnightblue" points="736.34,-30.08 734.44,-19.66 729.42,-28.99 736.34,-30.08"/>
</g>
<!-- Node12 -->
<g id="node12" class="node">
<title>Node12</title>
<g id="a_node12"><a xlink:href="lighting_8h.html" target="_top" xlink:title=" ">
<polygon fill="white" stroke="black" points="561.35,-56.5 561.35,-75.5 707.35,-75.5 707.35,-56.5 561.35,-56.5"/>
<text text-anchor="middle" x="634.35" y="-63.5" font-family="Helvetica,sans-Serif" font-size="10.00">graphics/lighting/lighting.h</text>
</a>
</g>
</g>
<!-- Node11&#45;&gt;Node12 -->
<g id="edge12" class="edge">
<title>Node11&#45;&gt;Node12</title>
<path fill="none" stroke="midnightblue" d="M651.14,-112.4C648.14,-104.29 644.34,-94.01 641.11,-85.28"/>
<polygon fill="midnightblue" stroke="midnightblue" points="644.3,-83.82 637.55,-75.66 637.74,-86.25 644.3,-83.82"/>
</g>
<!-- Node12&#45;&gt;Node2 -->
<g id="edge13" class="edge">
<title>Node12&#45;&gt;Node2</title>
<path fill="none" stroke="midnightblue" d="M650.58,-56.32C666.7,-47.7 691.65,-34.36 710.32,-24.39"/>
<polygon fill="midnightblue" stroke="midnightblue" points="712,-27.46 719.16,-19.65 708.7,-21.28 712,-27.46"/>
</g>
<!-- Node12&#45;&gt;Node7 -->
<g id="edge14" class="edge">
<title>Node12&#45;&gt;Node7</title>
<path fill="none" stroke="midnightblue" d="M583.01,-56.44C523.55,-46.53 426,-30.27 365.12,-20.13"/>
<polygon fill="midnightblue" stroke="midnightblue" points="365.37,-16.62 354.94,-18.43 364.22,-23.53 365.37,-16.62"/>
</g>
</g>
</svg>
