<?xml version="1.0" encoding="UTF-8" standalone="no"?>
<!DOCTYPE svg PUBLIC "-//W3C//DTD SVG 1.1//EN"
 "http://www.w3.org/Graphics/SVG/1.1/DTD/svg11.dtd">
<!-- Generated by graphviz version 2.43.0 (0)
 -->
<!-- Title: src/graphics/shader/skybox_shader.cpp Pages: 1 -->
<svg width="646pt" height="229pt"
 viewBox="0.00 0.00 646.00 229.00" xmlns="http://www.w3.org/2000/svg" xmlns:xlink="http://www.w3.org/1999/xlink">
<g id="graph0" class="graph" transform="scale(1 1) rotate(0) translate(4 225)">
<title>src/graphics/shader/skybox_shader.cpp</title>
<polygon fill="white" stroke="transparent" points="-4,4 -4,-225 642,-225 642,4 -4,4"/>
<!-- Node1 -->
<g id="node1" class="node">
<title>Node1</title>
<g id="a_node1"><a xlink:title=" ">
<polygon fill="#bfbfbf" stroke="black" points="274,-190.5 274,-220.5 386,-220.5 386,-190.5 274,-190.5"/>
<text text-anchor="start" x="282" y="-208.5" font-family="Helvetica,sans-Serif" font-size="10.00">src/graphics/shader</text>
<text text-anchor="middle" x="330" y="-197.5" font-family="Helvetica,sans-Serif" font-size="10.00">/skybox_shader.cpp</text>
</a>
</g>
</g>
<!-- Node2 -->
<g id="node2" class="node">
<title>Node2</title>
<g id="a_node2"><a xlink:href="skybox__shader_8h.html" target="_top" xlink:title=" ">
<polygon fill="white" stroke="black" points="189.5,-123.5 189.5,-153.5 320.5,-153.5 320.5,-123.5 189.5,-123.5"/>
<text text-anchor="start" x="197.5" y="-141.5" font-family="Helvetica,sans-Serif" font-size="10.00">graphics/shader/skybox</text>
<text text-anchor="middle" x="255" y="-130.5" font-family="Helvetica,sans-Serif" font-size="10.00">_shader.h</text>
</a>
</g>
</g>
<!-- Node1&#45;&gt;Node2 -->
<g id="edge1" class="edge">
<title>Node1&#45;&gt;Node2</title>
<path fill="none" stroke="midnightblue" d="M313.73,-190.4C303.6,-181.62 290.4,-170.18 279.08,-160.37"/>
<polygon fill="midnightblue" stroke="midnightblue" points="281.09,-157.48 271.24,-153.58 276.51,-162.77 281.09,-157.48"/>
</g>
<!-- Node11 -->
<g id="node11" class="node">
<title>Node11</title>
<g id="a_node11"><a xlink:href="texture__unit_8h.html" target="_top" xlink:title=" ">
<polygon fill="white" stroke="black" points="339,-123.5 339,-153.5 471,-153.5 471,-123.5 339,-123.5"/>
<text text-anchor="start" x="347" y="-141.5" font-family="Helvetica,sans-Serif" font-size="10.00">graphics/shader/texture</text>
<text text-anchor="middle" x="405" y="-130.5" font-family="Helvetica,sans-Serif" font-size="10.00">_unit.h</text>
</a>
</g>
</g>
<!-- Node1&#45;&gt;Node11 -->
<g id="edge10" class="edge">
<title>Node1&#45;&gt;Node11</title>
<path fill="none" stroke="midnightblue" d="M346.27,-190.4C356.4,-181.62 369.6,-170.18 380.92,-160.37"/>
<polygon fill="midnightblue" stroke="midnightblue" points="383.49,-162.77 388.76,-153.58 378.91,-157.48 383.49,-162.77"/>
</g>
<!-- Node3 -->
<g id="node3" class="node">
<title>Node3</title>
<g id="a_node3"><a xlink:href="shader__program_8h.html" target="_top" xlink:title=" ">
<polygon fill="white" stroke="black" points="190,-56.5 190,-86.5 320,-86.5 320,-56.5 190,-56.5"/>
<text text-anchor="start" x="198" y="-74.5" font-family="Helvetica,sans-Serif" font-size="10.00">graphics/shader/shader</text>
<text text-anchor="middle" x="255" y="-63.5" font-family="Helvetica,sans-Serif" font-size="10.00">_program.h</text>
</a>
</g>
</g>
<!-- Node2&#45;&gt;Node3 -->
<g id="edge2" class="edge">
<title>Node2&#45;&gt;Node3</title>
<path fill="none" stroke="midnightblue" d="M255,-123.4C255,-115.64 255,-105.81 255,-96.86"/>
<polygon fill="midnightblue" stroke="midnightblue" points="258.5,-96.58 255,-86.58 251.5,-96.58 258.5,-96.58"/>
</g>
<!-- Node4 -->
<g id="node4" class="node">
<title>Node4</title>
<g id="a_node4"><a xlink:title=" ">
<polygon fill="white" stroke="#bfbfbf" points="0,-0.5 0,-19.5 44,-19.5 44,-0.5 0,-0.5"/>
<text text-anchor="middle" x="22" y="-7.5" font-family="Helvetica,sans-Serif" font-size="10.00">string</text>
</a>
</g>
</g>
<!-- Node3&#45;&gt;Node4 -->
<g id="edge3" class="edge">
<title>Node3&#45;&gt;Node4</title>
<path fill="none" stroke="midnightblue" d="M196.51,-56.49C158.46,-47.24 107.55,-34.59 54.29,-20.28"/>
<polygon fill="midnightblue" stroke="midnightblue" points="54.89,-16.82 44.32,-17.59 53.06,-23.58 54.89,-16.82"/>
</g>
<!-- Node5 -->
<g id="node5" class="node">
<title>Node5</title>
<g id="a_node5"><a xlink:title=" ">
<polygon fill="white" stroke="#bfbfbf" points="62.5,-0.5 62.5,-19.5 109.5,-19.5 109.5,-0.5 62.5,-0.5"/>
<text text-anchor="middle" x="86" y="-7.5" font-family="Helvetica,sans-Serif" font-size="10.00">vector</text>
</a>
</g>
</g>
<!-- Node3&#45;&gt;Node5 -->
<g id="edge4" class="edge">
<title>Node3&#45;&gt;Node5</title>
<path fill="none" stroke="midnightblue" d="M214.95,-56.4C185.74,-46.12 146.62,-32.34 119.16,-22.68"/>
<polygon fill="midnightblue" stroke="midnightblue" points="120.2,-19.33 109.61,-19.31 117.88,-25.93 120.2,-19.33"/>
</g>
<!-- Node6 -->
<g id="node6" class="node">
<title>Node6</title>
<g id="a_node6"><a xlink:title=" ">
<polygon fill="white" stroke="#bfbfbf" points="128,-0.5 128,-19.5 192,-19.5 192,-0.5 128,-0.5"/>
<text text-anchor="middle" x="160" y="-7.5" font-family="Helvetica,sans-Serif" font-size="10.00">GL/glew.h</text>
</a>
</g>
</g>
<!-- Node3&#45;&gt;Node6 -->
<g id="edge5" class="edge">
<title>Node3&#45;&gt;Node6</title>
<path fill="none" stroke="midnightblue" d="M232.49,-56.4C217.4,-46.95 197.61,-34.56 182.53,-25.11"/>
<polygon fill="midnightblue" stroke="midnightblue" points="184.16,-22 173.82,-19.66 180.44,-27.93 184.16,-22"/>
</g>
<!-- Node7 -->
<g id="node7" class="node">
<title>Node7</title>
<g id="a_node7"><a xlink:title=" ">
<polygon fill="white" stroke="#bfbfbf" points="210.5,-0.5 210.5,-19.5 299.5,-19.5 299.5,-0.5 210.5,-0.5"/>
<text text-anchor="middle" x="255" y="-7.5" font-family="Helvetica,sans-Serif" font-size="10.00">maths/colour.h</text>
</a>
</g>
</g>
<!-- Node3&#45;&gt;Node7 -->
<g id="edge6" class="edge">
<title>Node3&#45;&gt;Node7</title>
<path fill="none" stroke="midnightblue" d="M255,-56.4C255,-48.47 255,-38.46 255,-29.86"/>
<polygon fill="midnightblue" stroke="midnightblue" points="258.5,-29.66 255,-19.66 251.5,-29.66 258.5,-29.66"/>
</g>
<!-- Node8 -->
<g id="node8" class="node">
<title>Node8</title>
<g id="a_node8"><a xlink:title=" ">
<polygon fill="white" stroke="#bfbfbf" points="318,-0.5 318,-19.5 414,-19.5 414,-0.5 318,-0.5"/>
<text text-anchor="middle" x="366" y="-7.5" font-family="Helvetica,sans-Serif" font-size="10.00">maths/vector2.h</text>
</a>
</g>
</g>
<!-- Node3&#45;&gt;Node8 -->
<g id="edge7" class="edge">
<title>Node3&#45;&gt;Node8</title>
<path fill="none" stroke="midnightblue" d="M281.31,-56.4C299.26,-46.77 322.92,-34.09 340.67,-24.58"/>
<polygon fill="midnightblue" stroke="midnightblue" points="342.69,-27.47 349.85,-19.66 339.38,-21.3 342.69,-27.47"/>
</g>
<!-- Node9 -->
<g id="node9" class="node">
<title>Node9</title>
<g id="a_node9"><a xlink:title=" ">
<polygon fill="white" stroke="#bfbfbf" points="432,-0.5 432,-19.5 528,-19.5 528,-0.5 432,-0.5"/>
<text text-anchor="middle" x="480" y="-7.5" font-family="Helvetica,sans-Serif" font-size="10.00">maths/vector3.h</text>
</a>
</g>
</g>
<!-- Node3&#45;&gt;Node9 -->
<g id="edge8" class="edge">
<title>Node3&#45;&gt;Node9</title>
<path fill="none" stroke="midnightblue" d="M308.04,-56.47C347.7,-45.99 401.21,-31.84 437.94,-22.12"/>
<polygon fill="midnightblue" stroke="midnightblue" points="439.06,-25.45 447.83,-19.51 437.27,-18.68 439.06,-25.45"/>
</g>
<!-- Node10 -->
<g id="node10" class="node">
<title>Node10</title>
<g id="a_node10"><a xlink:title=" ">
<polygon fill="white" stroke="#bfbfbf" points="546,-0.5 546,-19.5 638,-19.5 638,-0.5 546,-0.5"/>
<text text-anchor="middle" x="592" y="-7.5" font-family="Helvetica,sans-Serif" font-size="10.00">maths/matrix.h</text>
</a>
</g>
</g>
<!-- Node3&#45;&gt;Node10 -->
<g id="edge9" class="edge">
<title>Node3&#45;&gt;Node10</title>
<path fill="none" stroke="midnightblue" d="M320.38,-58.96C383.07,-47.89 476.72,-31.35 536.05,-20.88"/>
<polygon fill="midnightblue" stroke="midnightblue" points="536.76,-24.31 546,-19.12 535.54,-17.41 536.76,-24.31"/>
</g>
<!-- Node12 -->
<g id="node12" class="node">
<title>Node12</title>
<g id="a_node12"><a xlink:title=" ">
<polygon fill="white" stroke="#bfbfbf" points="380,-62 380,-81 430,-81 430,-62 380,-62"/>
<text text-anchor="middle" x="405" y="-69" font-family="Helvetica,sans-Serif" font-size="10.00">cstdint</text>
</a>
</g>
</g>
<!-- Node11&#45;&gt;Node12 -->
<g id="edge11" class="edge">
<title>Node11&#45;&gt;Node12</title>
<path fill="none" stroke="midnightblue" d="M405,-123.4C405,-114.06 405,-101.71 405,-91.52"/>
<polygon fill="midnightblue" stroke="midnightblue" points="408.5,-91.19 405,-81.19 401.5,-91.19 408.5,-91.19"/>
</g>
</g>
</svg>
