<?xml version="1.0" encoding="UTF-8" standalone="no"?>
<!DOCTYPE svg PUBLIC "-//W3C//DTD SVG 1.1//EN"
 "http://www.w3.org/Graphics/SVG/1.1/DTD/svg11.dtd">
<!-- Generated by graphviz version 2.43.0 (0)
 -->
<!-- Title: src/graphics/lighting/skybox.h Pages: 1 -->
<!--zoomable 285 -->
<svg id="main" version="1.1" xmlns="http://www.w3.org/2000/svg" xmlns:xlink="http://www.w3.org/1999/xlink" xml:space="preserve" onload="init(evt)">
<style type="text/css"><![CDATA[
.edge:hover path { stroke: red; }
.edge:hover polygon { stroke: red; fill: red; }
]]></style>
<script type="text/javascript"><![CDATA[
var edges = document.getElementsByTagName('g');
if (edges && edges.length) {
  for (var i=0;i<edges.length;i++) {
    if (edges[i].id.substr(0,4)=='edge') {
      edges[i].setAttribute('class','edge');
    }
  }
}
]]></script>
        <defs>
                <circle id="rim" cx="0" cy="0" r="7"/>
                <circle id="rim2" cx="0" cy="0" r="3.5"/>
                <g id="zoomPlus">
                        <use xlink:href="#rim" fill="#404040">
                                <set attributeName="fill" to="#808080" begin="zoomplus.mouseover" end="zoomplus.mouseout"/>
                        </use>
                        <path d="M-4,0h8M0,-4v8" fill="none" stroke="white" stroke-width="1.5" pointer-events="none"/>
                </g>
                <g id="zoomMin">
                        <use xlink:href="#rim" fill="#404040">
                                <set attributeName="fill" to="#808080" begin="zoomminus.mouseover" end="zoomminus.mouseout"/>
                        </use>
                        <path d="M-4,0h8" fill="none" stroke="white" stroke-width="1.5" pointer-events="none"/>
                </g>
                <g id="dirArrow">
                        <path fill="none" stroke="white" stroke-width="1.5" d="M0,-3.0v7 M-2.5,-0.5L0,-3.0L2.5,-0.5"/>
                </g>
               <g id="resetDef">
                       <use xlink:href="#rim2" fill="#404040">
                               <set attributeName="fill" to="#808080" begin="reset.mouseover" end="reset.mouseout"/>
                       </use>
               </g>
        </defs>

<script type="text/javascript">
var viewWidth = 1529;
var viewHeight = 285;
var sectionId = 'dynsection-0';
</script>
<script xlink:href="svgpan.js"/>
<svg id="graph" class="graph">
<g id="viewport">
<title>src/graphics/lighting/skybox.h</title>
<polygon fill="white" stroke="transparent" points="-4,4 -4,-281 1525.32,-281 1525.32,4 -4,4"/>
<!-- Node1 -->
<g id="node1" class="node">
<title>Node1</title>
<g id="a_node1"><a xlink:title=" ">
<polygon fill="#bfbfbf" stroke="black" points="808.82,-246.5 808.82,-276.5 923.82,-276.5 923.82,-246.5 808.82,-246.5"/>
<text text-anchor="start" x="816.82" y="-264.5" font-family="Helvetica,sans-Serif" font-size="10.00">src/graphics/lighting</text>
<text text-anchor="middle" x="866.32" y="-253.5" font-family="Helvetica,sans-Serif" font-size="10.00">/skybox.h</text>
</a>
</g>
</g>
<!-- Node2 -->
<g id="node2" class="node">
<title>Node2</title>
<g id="a_node2"><a xlink:title=" ">
<polygon fill="white" stroke="#bfbfbf" points="871.82,-62 871.82,-81 960.82,-81 960.82,-62 871.82,-62"/>
<text text-anchor="middle" x="916.32" y="-69" font-family="Helvetica,sans-Serif" font-size="10.00">maths/colour.h</text>
</a>
</g>
</g>
<!-- Node1&#45;&gt;Node2 -->
<g id="edge1" class="edge">
<title>Node1&#45;&gt;Node2</title>
<path fill="none" stroke="midnightblue" d="M870.08,-246.37C878.97,-212.94 901.3,-128.97 911.32,-91.3"/>
<polygon fill="midnightblue" stroke="midnightblue" points="914.82,-91.77 914.01,-81.21 908.06,-89.97 914.82,-91.77"/>
</g>
<!-- Node3 -->
<g id="node3" class="node">
<title>Node3</title>
<g id="a_node3"><a xlink:href="mesh_8h.html" target="_top" xlink:title=" ">
<polygon fill="white" stroke="black" points="373.82,-190.5 373.82,-209.5 500.82,-209.5 500.82,-190.5 373.82,-190.5"/>
<text text-anchor="middle" x="437.32" y="-197.5" font-family="Helvetica,sans-Serif" font-size="10.00">graphics/mesh/mesh.h</text>
</a>
</g>
</g>
<!-- Node1&#45;&gt;Node3 -->
<g id="edge2" class="edge">
<title>Node1&#45;&gt;Node3</title>
<path fill="none" stroke="midnightblue" d="M808.47,-252.48C730.78,-241.7 592.81,-222.56 508.74,-210.9"/>
<polygon fill="midnightblue" stroke="midnightblue" points="509.15,-207.43 498.76,-209.52 508.19,-214.36 509.15,-207.43"/>
</g>
<!-- Node17 -->
<g id="node17" class="node">
<title>Node17</title>
<g id="a_node17"><a xlink:href="texture_8h.html" target="_top" xlink:title=" ">
<polygon fill="white" stroke="black" points="1029.82,-129 1029.82,-148 1172.82,-148 1172.82,-129 1029.82,-129"/>
<text text-anchor="middle" x="1101.32" y="-136" font-family="Helvetica,sans-Serif" font-size="10.00">graphics/texture/texture.h</text>
</a>
</g>
</g>
<!-- Node1&#45;&gt;Node17 -->
<g id="edge20" class="edge">
<title>Node1&#45;&gt;Node17</title>
<path fill="none" stroke="midnightblue" d="M893.74,-246.38C939.54,-222.8 1030.96,-175.73 1075.6,-152.74"/>
<polygon fill="midnightblue" stroke="midnightblue" points="1077.35,-155.78 1084.64,-148.09 1074.14,-149.56 1077.35,-155.78"/>
</g>
<!-- Node24 -->
<g id="node24" class="node">
<title>Node24</title>
<g id="a_node24"><a xlink:href="shader__program_8h.html" target="_top" xlink:title=" ">
<polygon fill="white" stroke="black" points="722.32,-123.5 722.32,-153.5 852.32,-153.5 852.32,-123.5 722.32,-123.5"/>
<text text-anchor="start" x="730.32" y="-141.5" font-family="Helvetica,sans-Serif" font-size="10.00">graphics/shader/shader</text>
<text text-anchor="middle" x="787.32" y="-130.5" font-family="Helvetica,sans-Serif" font-size="10.00">_program.h</text>
</a>
</g>
</g>
<!-- Node1&#45;&gt;Node24 -->
<g id="edge29" class="edge">
<title>Node1&#45;&gt;Node24</title>
<path fill="none" stroke="midnightblue" d="M856.95,-246.14C843.41,-225.4 818.24,-186.85 802.16,-162.22"/>
<polygon fill="midnightblue" stroke="midnightblue" points="805.08,-160.3 796.68,-153.84 799.22,-164.12 805.08,-160.3"/>
</g>
<!-- Node4 -->
<g id="node4" class="node">
<title>Node4</title>
<g id="a_node4"><a xlink:title=" ">
<polygon fill="white" stroke="#bfbfbf" points="2.32,-0.5 2.32,-19.5 60.32,-19.5 60.32,-0.5 2.32,-0.5"/>
<text text-anchor="middle" x="31.32" y="-7.5" font-family="Helvetica,sans-Serif" font-size="10.00">memory</text>
</a>
</g>
</g>
<!-- Node3&#45;&gt;Node4 -->
<g id="edge3" class="edge">
<title>Node3&#45;&gt;Node4</title>
<path fill="none" stroke="midnightblue" d="M373.52,-196.97C280.51,-193.08 113.04,-182.28 60.32,-154 25.87,-135.52 16.82,-123.69 3.32,-87 -1.43,-74.07 -0.46,-69.25 3.32,-56 6.23,-45.84 12.16,-35.75 17.81,-27.7"/>
<polygon fill="midnightblue" stroke="midnightblue" points="20.7,-29.69 23.91,-19.59 15.1,-25.48 20.7,-29.69"/>
</g>
<!-- Node5 -->
<g id="node5" class="node">
<title>Node5</title>
<g id="a_node5"><a xlink:title=" ">
<polygon fill="white" stroke="#bfbfbf" points="105.82,-0.5 105.82,-19.5 152.82,-19.5 152.82,-0.5 105.82,-0.5"/>
<text text-anchor="middle" x="129.32" y="-7.5" font-family="Helvetica,sans-Serif" font-size="10.00">vector</text>
</a>
</g>
</g>
<!-- Node3&#45;&gt;Node5 -->
<g id="edge4" class="edge">
<title>Node3&#45;&gt;Node5</title>
<path fill="none" stroke="midnightblue" d="M373.74,-192.47C265.11,-179.77 51.69,-147.53 12.32,-87 4.81,-75.45 4.52,-67.36 12.32,-56 22.09,-41.78 64.65,-27.91 95.63,-19.41"/>
<polygon fill="midnightblue" stroke="midnightblue" points="96.87,-22.7 105.63,-16.74 95.06,-15.94 96.87,-22.7"/>
</g>
<!-- Node6 -->
<g id="node6" class="node">
<title>Node6</title>
<g id="a_node6"><a xlink:title=" ">
<polygon fill="white" stroke="#bfbfbf" points="505.32,-62 505.32,-81 549.32,-81 549.32,-62 505.32,-62"/>
<text text-anchor="middle" x="527.32" y="-69" font-family="Helvetica,sans-Serif" font-size="10.00">string</text>
</a>
</g>
</g>
<!-- Node3&#45;&gt;Node6 -->
<g id="edge5" class="edge">
<title>Node3&#45;&gt;Node6</title>
<path fill="none" stroke="midnightblue" d="M457.5,-190.5C472.82,-183.04 493.23,-170.76 505.32,-154 518.76,-135.38 523.99,-109.02 526.03,-91.37"/>
<polygon fill="midnightblue" stroke="midnightblue" points="529.53,-91.48 526.96,-81.2 522.56,-90.84 529.53,-91.48"/>
</g>
<!-- Node7 -->
<g id="node7" class="node">
<title>Node7</title>
<g id="a_node7"><a xlink:href="vertex_8h.html" target="_top" xlink:title=" ">
<polygon fill="white" stroke="black" points="552.82,-129 552.82,-148 683.82,-148 683.82,-129 552.82,-129"/>
<text text-anchor="middle" x="618.32" y="-136" font-family="Helvetica,sans-Serif" font-size="10.00">graphics/mesh/vertex.h</text>
</a>
</g>
</g>
<!-- Node3&#45;&gt;Node7 -->
<g id="edge6" class="edge">
<title>Node3&#45;&gt;Node7</title>
<path fill="none" stroke="midnightblue" d="M463.26,-190.48C494.57,-180.18 547.41,-162.81 582.58,-151.25"/>
<polygon fill="midnightblue" stroke="midnightblue" points="584.03,-154.46 592.44,-148.01 581.85,-147.81 584.03,-154.46"/>
</g>
<!-- Node10 -->
<g id="node10" class="node">
<title>Node10</title>
<g id="a_node10"><a xlink:href="mesh__instance__data_8h.html" target="_top" xlink:title=" ">
<polygon fill="white" stroke="black" points="378.32,-123.5 378.32,-153.5 496.32,-153.5 496.32,-123.5 378.32,-123.5"/>
<text text-anchor="start" x="386.32" y="-141.5" font-family="Helvetica,sans-Serif" font-size="10.00">graphics/mesh/mesh</text>
<text text-anchor="middle" x="437.32" y="-130.5" font-family="Helvetica,sans-Serif" font-size="10.00">_instance_data.h</text>
</a>
</g>
</g>
<!-- Node3&#45;&gt;Node10 -->
<g id="edge9" class="edge">
<title>Node3&#45;&gt;Node10</title>
<path fill="none" stroke="midnightblue" d="M437.32,-190.48C437.32,-183.47 437.32,-173.19 437.32,-163.7"/>
<polygon fill="midnightblue" stroke="midnightblue" points="440.82,-163.52 437.32,-153.52 433.82,-163.52 440.82,-163.52"/>
</g>
<!-- Node12 -->
<g id="node12" class="node">
<title>Node12</title>
<g id="a_node12"><a xlink:href="vao_8h.html" target="_top" xlink:title=" ">
<polygon fill="white" stroke="black" points="172.32,-129 172.32,-148 290.32,-148 290.32,-129 172.32,-129"/>
<text text-anchor="middle" x="231.32" y="-136" font-family="Helvetica,sans-Serif" font-size="10.00">graphics/mesh/vao.h</text>
</a>
</g>
</g>
<!-- Node3&#45;&gt;Node12 -->
<g id="edge11" class="edge">
<title>Node3&#45;&gt;Node12</title>
<path fill="none" stroke="midnightblue" d="M407.81,-190.48C371.71,-180.05 310.48,-162.36 270.47,-150.81"/>
<polygon fill="midnightblue" stroke="midnightblue" points="271.36,-147.42 260.78,-148.01 269.42,-154.15 271.36,-147.42"/>
</g>
<!-- Node8 -->
<g id="node8" class="node">
<title>Node8</title>
<g id="a_node8"><a xlink:title=" ">
<polygon fill="white" stroke="#bfbfbf" points="681.32,-62 681.32,-81 777.32,-81 777.32,-62 681.32,-62"/>
<text text-anchor="middle" x="729.32" y="-69" font-family="Helvetica,sans-Serif" font-size="10.00">maths/vector2.h</text>
</a>
</g>
</g>
<!-- Node7&#45;&gt;Node8 -->
<g id="edge7" class="edge">
<title>Node7&#45;&gt;Node8</title>
<path fill="none" stroke="midnightblue" d="M633.29,-128.73C651.93,-117.82 683.99,-99.05 705.89,-86.22"/>
<polygon fill="midnightblue" stroke="midnightblue" points="707.73,-89.2 714.59,-81.13 704.19,-83.16 707.73,-89.2"/>
</g>
<!-- Node9 -->
<g id="node9" class="node">
<title>Node9</title>
<g id="a_node9"><a xlink:title=" ">
<polygon fill="white" stroke="#bfbfbf" points="567.32,-62 567.32,-81 663.32,-81 663.32,-62 567.32,-62"/>
<text text-anchor="middle" x="615.32" y="-69" font-family="Helvetica,sans-Serif" font-size="10.00">maths/vector3.h</text>
</a>
</g>
</g>
<!-- Node7&#45;&gt;Node9 -->
<g id="edge8" class="edge">
<title>Node7&#45;&gt;Node9</title>
<path fill="none" stroke="midnightblue" d="M617.92,-128.73C617.48,-119.18 616.76,-103.62 616.19,-91.28"/>
<polygon fill="midnightblue" stroke="midnightblue" points="619.68,-90.96 615.72,-81.13 612.69,-91.28 619.68,-90.96"/>
</g>
<!-- Node11 -->
<g id="node11" class="node">
<title>Node11</title>
<g id="a_node11"><a xlink:title=" ">
<polygon fill="white" stroke="#bfbfbf" points="395.32,-62 395.32,-81 487.32,-81 487.32,-62 395.32,-62"/>
<text text-anchor="middle" x="441.32" y="-69" font-family="Helvetica,sans-Serif" font-size="10.00">maths/matrix.h</text>
</a>
</g>
</g>
<!-- Node10&#45;&gt;Node11 -->
<g id="edge10" class="edge">
<title>Node10&#45;&gt;Node11</title>
<path fill="none" stroke="midnightblue" d="M438.19,-123.4C438.77,-113.96 439.54,-101.45 440.17,-91.19"/>
<polygon fill="midnightblue" stroke="midnightblue" points="443.67,-91.39 440.79,-81.19 436.68,-90.96 443.67,-91.39"/>
</g>
<!-- Node12&#45;&gt;Node5 -->
<g id="edge13" class="edge">
<title>Node12&#45;&gt;Node5</title>
<path fill="none" stroke="midnightblue" d="M231.39,-128.93C231.09,-112.94 228.36,-78.19 211.32,-56 199.09,-40.06 179.53,-29.02 162.58,-21.86"/>
<polygon fill="midnightblue" stroke="midnightblue" points="163.57,-18.49 152.98,-18.09 161.01,-25.01 163.57,-18.49"/>
</g>
<!-- Node13 -->
<g id="node13" class="node">
<title>Node13</title>
<g id="a_node13"><a xlink:title=" ">
<polygon fill="white" stroke="#bfbfbf" points="157.82,-62 157.82,-81 202.82,-81 202.82,-62 157.82,-62"/>
<text text-anchor="middle" x="180.32" y="-69" font-family="Helvetica,sans-Serif" font-size="10.00">utility</text>
</a>
</g>
</g>
<!-- Node12&#45;&gt;Node13 -->
<g id="edge12" class="edge">
<title>Node12&#45;&gt;Node13</title>
<path fill="none" stroke="midnightblue" d="M224.45,-128.73C216.49,-118.6 203.23,-101.69 193.31,-89.06"/>
<polygon fill="midnightblue" stroke="midnightblue" points="196.02,-86.83 187.09,-81.13 190.51,-91.16 196.02,-86.83"/>
</g>
<!-- Node14 -->
<g id="node14" class="node">
<title>Node14</title>
<g id="a_node14"><a xlink:href="vbo_8h.html" target="_top" xlink:title=" ">
<polygon fill="white" stroke="black" points="21.32,-62 21.32,-81 139.32,-81 139.32,-62 21.32,-62"/>
<text text-anchor="middle" x="80.32" y="-69" font-family="Helvetica,sans-Serif" font-size="10.00">graphics/mesh/vbo.h</text>
</a>
</g>
</g>
<!-- Node12&#45;&gt;Node14 -->
<g id="edge14" class="edge">
<title>Node12&#45;&gt;Node14</title>
<path fill="none" stroke="midnightblue" d="M211.27,-128.87C185.33,-117.7 139.9,-98.15 109.97,-85.26"/>
<polygon fill="midnightblue" stroke="midnightblue" points="111.03,-81.91 100.46,-81.17 108.26,-88.34 111.03,-81.91"/>
</g>
<!-- Node16 -->
<g id="node16" class="node">
<title>Node16</title>
<g id="a_node16"><a xlink:href="ebo_8h.html" target="_top" xlink:title=" ">
<polygon fill="white" stroke="black" points="259.32,-62 259.32,-81 377.32,-81 377.32,-62 259.32,-62"/>
<text text-anchor="middle" x="318.32" y="-69" font-family="Helvetica,sans-Serif" font-size="10.00">graphics/mesh/ebo.h</text>
</a>
</g>
</g>
<!-- Node12&#45;&gt;Node16 -->
<g id="edge18" class="edge">
<title>Node12&#45;&gt;Node16</title>
<path fill="none" stroke="midnightblue" d="M243.06,-128.73C257.28,-118.11 281.45,-100.05 298.56,-87.26"/>
<polygon fill="midnightblue" stroke="midnightblue" points="300.86,-89.92 306.78,-81.13 296.67,-84.31 300.86,-89.92"/>
</g>
<!-- Node14&#45;&gt;Node4 -->
<g id="edge16" class="edge">
<title>Node14&#45;&gt;Node4</title>
<path fill="none" stroke="midnightblue" d="M73.3,-61.98C65.88,-52.96 53.99,-38.52 44.76,-27.31"/>
<polygon fill="midnightblue" stroke="midnightblue" points="47.39,-25 38.33,-19.51 41.99,-29.45 47.39,-25"/>
</g>
<!-- Node14&#45;&gt;Node5 -->
<g id="edge15" class="edge">
<title>Node14&#45;&gt;Node5</title>
<path fill="none" stroke="midnightblue" d="M87.34,-61.98C94.77,-52.96 106.66,-38.52 115.89,-27.31"/>
<polygon fill="midnightblue" stroke="midnightblue" points="118.66,-29.45 122.32,-19.51 113.26,-25 118.66,-29.45"/>
</g>
<!-- Node15 -->
<g id="node15" class="node">
<title>Node15</title>
<g id="a_node15"><a xlink:title=" ">
<polygon fill="white" stroke="#bfbfbf" points="811.32,-0.5 811.32,-19.5 875.32,-19.5 875.32,-0.5 811.32,-0.5"/>
<text text-anchor="middle" x="843.32" y="-7.5" font-family="Helvetica,sans-Serif" font-size="10.00">GL/glew.h</text>
</a>
</g>
</g>
<!-- Node14&#45;&gt;Node15 -->
<g id="edge17" class="edge">
<title>Node14&#45;&gt;Node15</title>
<path fill="none" stroke="midnightblue" d="M115.45,-61.99C125.96,-59.72 137.56,-57.49 148.32,-56 394.06,-22.03 692.31,-13.61 801.07,-11.6"/>
<polygon fill="midnightblue" stroke="midnightblue" points="801.36,-15.1 811.29,-11.42 801.23,-8.1 801.36,-15.1"/>
</g>
<!-- Node16&#45;&gt;Node15 -->
<g id="edge19" class="edge">
<title>Node16&#45;&gt;Node15</title>
<path fill="none" stroke="midnightblue" d="M354.53,-61.99C364.77,-59.8 375.95,-57.61 386.32,-56 538.05,-32.43 720.15,-18.85 801.04,-13.58"/>
<polygon fill="midnightblue" stroke="midnightblue" points="801.56,-17.05 811.31,-12.91 801.11,-10.06 801.56,-17.05"/>
</g>
<!-- Node17&#45;&gt;Node15 -->
<g id="edge24" class="edge">
<title>Node17&#45;&gt;Node15</title>
<path fill="none" stroke="midnightblue" d="M1083.31,-128.89C1064.17,-119.48 1033.3,-103.53 1008.32,-87 989.86,-74.78 988.68,-66.76 969.32,-56 942.71,-41.21 910.31,-29.76 885.03,-22.12"/>
<polygon fill="midnightblue" stroke="midnightblue" points="885.95,-18.74 875.37,-19.28 883.98,-25.46 885.95,-18.74"/>
</g>
<!-- Node18 -->
<g id="node18" class="node">
<title>Node18</title>
<g id="a_node18"><a xlink:title=" ">
<polygon fill="white" stroke="#bfbfbf" points="1017.32,-62 1017.32,-81 1059.32,-81 1059.32,-62 1017.32,-62"/>
<text text-anchor="middle" x="1038.32" y="-69" font-family="Helvetica,sans-Serif" font-size="10.00">array</text>
</a>
</g>
</g>
<!-- Node17&#45;&gt;Node18 -->
<g id="edge21" class="edge">
<title>Node17&#45;&gt;Node18</title>
<path fill="none" stroke="midnightblue" d="M1092.83,-128.73C1082.81,-118.4 1065.98,-101.04 1053.67,-88.33"/>
<polygon fill="midnightblue" stroke="midnightblue" points="1056.16,-85.87 1046.69,-81.13 1051.13,-90.74 1056.16,-85.87"/>
</g>
<!-- Node19 -->
<g id="node19" class="node">
<title>Node19</title>
<g id="a_node19"><a xlink:title=" ">
<polygon fill="white" stroke="#bfbfbf" points="1077.82,-62 1077.82,-81 1124.82,-81 1124.82,-62 1077.82,-62"/>
<text text-anchor="middle" x="1101.32" y="-69" font-family="Helvetica,sans-Serif" font-size="10.00">cmath</text>
</a>
</g>
</g>
<!-- Node17&#45;&gt;Node19 -->
<g id="edge22" class="edge">
<title>Node17&#45;&gt;Node19</title>
<path fill="none" stroke="midnightblue" d="M1101.32,-128.73C1101.32,-119.18 1101.32,-103.62 1101.32,-91.28"/>
<polygon fill="midnightblue" stroke="midnightblue" points="1104.82,-91.13 1101.32,-81.13 1097.82,-91.13 1104.82,-91.13"/>
</g>
<!-- Node20 -->
<g id="node20" class="node">
<title>Node20</title>
<g id="a_node20"><a xlink:title=" ">
<polygon fill="white" stroke="#bfbfbf" points="1143.32,-62 1143.32,-81 1251.32,-81 1251.32,-62 1143.32,-62"/>
<text text-anchor="middle" x="1197.32" y="-69" font-family="Helvetica,sans-Serif" font-size="10.00">SDL2/SDL_image.h</text>
</a>
</g>
</g>
<!-- Node17&#45;&gt;Node20 -->
<g id="edge23" class="edge">
<title>Node17&#45;&gt;Node20</title>
<path fill="none" stroke="midnightblue" d="M1114.27,-128.73C1130.18,-117.96 1157.37,-99.55 1176.29,-86.74"/>
<polygon fill="midnightblue" stroke="midnightblue" points="1178.26,-89.63 1184.58,-81.13 1174.34,-83.84 1178.26,-89.63"/>
</g>
<!-- Node21 -->
<g id="node21" class="node">
<title>Node21</title>
<g id="a_node21"><a xlink:title=" ">
<polygon fill="white" stroke="#bfbfbf" points="1269.82,-62 1269.82,-81 1380.82,-81 1380.82,-62 1269.82,-62"/>
<text text-anchor="middle" x="1325.32" y="-69" font-family="Helvetica,sans-Serif" font-size="10.00">maths/maths_util.h</text>
</a>
</g>
</g>
<!-- Node17&#45;&gt;Node21 -->
<g id="edge25" class="edge">
<title>Node17&#45;&gt;Node21</title>
<path fill="none" stroke="midnightblue" d="M1131.07,-128.87C1170.93,-117.3 1241.76,-96.75 1285.99,-83.91"/>
<polygon fill="midnightblue" stroke="midnightblue" points="1287.18,-87.21 1295.81,-81.06 1285.23,-80.49 1287.18,-87.21"/>
</g>
<!-- Node22 -->
<g id="node22" class="node">
<title>Node22</title>
<g id="a_node22"><a xlink:href="pixel__format_8h.html" target="_top" xlink:title=" ">
<polygon fill="white" stroke="black" points="1399.32,-56.5 1399.32,-86.5 1521.32,-86.5 1521.32,-56.5 1399.32,-56.5"/>
<text text-anchor="start" x="1407.32" y="-74.5" font-family="Helvetica,sans-Serif" font-size="10.00">graphics/texture/pixel</text>
<text text-anchor="middle" x="1460.32" y="-63.5" font-family="Helvetica,sans-Serif" font-size="10.00">_format.h</text>
</a>
</g>
</g>
<!-- Node17&#45;&gt;Node22 -->
<g id="edge26" class="edge">
<title>Node17&#45;&gt;Node22</title>
<path fill="none" stroke="midnightblue" d="M1152.83,-129C1208.61,-119.68 1300.46,-104.01 1389.29,-87.17"/>
<polygon fill="midnightblue" stroke="midnightblue" points="1390.09,-90.57 1399.26,-85.27 1388.79,-83.7 1390.09,-90.57"/>
</g>
<!-- Node22&#45;&gt;Node15 -->
<g id="edge28" class="edge">
<title>Node22&#45;&gt;Node15</title>
<path fill="none" stroke="midnightblue" d="M1399.32,-57.41C1396.28,-56.9 1393.27,-56.42 1390.32,-56 1203.25,-29.03 977.68,-16.84 885.58,-12.72"/>
<polygon fill="midnightblue" stroke="midnightblue" points="885.68,-9.22 875.54,-12.27 885.38,-16.21 885.68,-9.22"/>
</g>
<!-- Node23 -->
<g id="node23" class="node">
<title>Node23</title>
<g id="a_node23"><a xlink:title=" ">
<polygon fill="white" stroke="#bfbfbf" points="1427.82,-0.5 1427.82,-19.5 1492.82,-19.5 1492.82,-0.5 1427.82,-0.5"/>
<text text-anchor="middle" x="1460.32" y="-7.5" font-family="Helvetica,sans-Serif" font-size="10.00">stdexcept</text>
</a>
</g>
</g>
<!-- Node22&#45;&gt;Node23 -->
<g id="edge27" class="edge">
<title>Node22&#45;&gt;Node23</title>
<path fill="none" stroke="midnightblue" d="M1460.32,-56.4C1460.32,-48.47 1460.32,-38.46 1460.32,-29.86"/>
<polygon fill="midnightblue" stroke="midnightblue" points="1463.82,-29.66 1460.32,-19.66 1456.82,-29.66 1463.82,-29.66"/>
</g>
<!-- Node24&#45;&gt;Node2 -->
<g id="edge33" class="edge">
<title>Node24&#45;&gt;Node2</title>
<path fill="none" stroke="midnightblue" d="M815.32,-123.4C837.65,-112.14 868.69,-96.5 890.45,-85.54"/>
<polygon fill="midnightblue" stroke="midnightblue" points="892.09,-88.63 899.44,-81.01 888.94,-82.38 892.09,-88.63"/>
</g>
<!-- Node24&#45;&gt;Node5 -->
<g id="edge31" class="edge">
<title>Node24&#45;&gt;Node5</title>
<path fill="none" stroke="midnightblue" d="M792.29,-123.28C797.62,-105.11 803.24,-73.89 786.32,-56 743.26,-10.44 291.71,-9.92 163.25,-10.7"/>
<polygon fill="midnightblue" stroke="midnightblue" points="163.17,-7.2 153.19,-10.77 163.22,-14.2 163.17,-7.2"/>
</g>
<!-- Node24&#45;&gt;Node6 -->
<g id="edge30" class="edge">
<title>Node24&#45;&gt;Node6</title>
<path fill="none" stroke="midnightblue" d="M722.12,-127.08C675.72,-118.71 612.3,-105.32 558.32,-87 556.66,-86.44 554.97,-85.81 553.28,-85.14"/>
<polygon fill="midnightblue" stroke="midnightblue" points="554.35,-81.79 543.78,-81.02 551.56,-88.21 554.35,-81.79"/>
</g>
<!-- Node24&#45;&gt;Node8 -->
<g id="edge34" class="edge">
<title>Node24&#45;&gt;Node8</title>
<path fill="none" stroke="midnightblue" d="M774.74,-123.4C765.7,-113.26 753.48,-99.57 743.99,-88.94"/>
<polygon fill="midnightblue" stroke="midnightblue" points="746.35,-86.33 737.08,-81.19 741.13,-90.99 746.35,-86.33"/>
</g>
<!-- Node24&#45;&gt;Node9 -->
<g id="edge35" class="edge">
<title>Node24&#45;&gt;Node9</title>
<path fill="none" stroke="midnightblue" d="M750,-123.4C719.42,-111.84 676.6,-95.66 647.51,-84.66"/>
<polygon fill="midnightblue" stroke="midnightblue" points="648.43,-81.27 637.84,-81.01 645.95,-87.82 648.43,-81.27"/>
</g>
<!-- Node24&#45;&gt;Node11 -->
<g id="edge36" class="edge">
<title>Node24&#45;&gt;Node11</title>
<path fill="none" stroke="midnightblue" d="M722.08,-126.85C649.91,-114.95 538.28,-96.15 496.32,-87 491.57,-85.96 486.61,-84.79 481.69,-83.57"/>
<polygon fill="midnightblue" stroke="midnightblue" points="482.31,-80.11 471.76,-81.02 480.58,-86.89 482.31,-80.11"/>
</g>
<!-- Node24&#45;&gt;Node15 -->
<g id="edge32" class="edge">
<title>Node24&#45;&gt;Node15</title>
<path fill="none" stroke="midnightblue" d="M797.6,-123.48C804.46,-113.65 813.28,-99.99 819.32,-87 828.06,-68.22 834.78,-45.42 838.86,-29.72"/>
<polygon fill="midnightblue" stroke="midnightblue" points="842.34,-30.25 841.36,-19.71 835.54,-28.56 842.34,-30.25"/>
</g>
</g>
</svg>
        <g id="navigator" transform="translate(0 0)" fill="#404254">
                <rect fill="#f2f5e9" fill-opacity="0.5" stroke="#606060" stroke-width=".5" x="0" y="0" width="60" height="60"/>
                <use id="zoomplus" xlink:href="#zoomPlus" x="17" y="9" onmousedown="handleZoom(evt,'in')"/>
                <use id="zoomminus" xlink:href="#zoomMin" x="42" y="9" onmousedown="handleZoom(evt,'out')"/>
                <use id="reset" xlink:href="#resetDef" x="30" y="36" onmousedown="handleReset()"/>
                <g id="arrowUp" xlink:href="#dirArrow" transform="translate(30 24)" onmousedown="handlePan(0,-1)">
                  <use xlink:href="#rim" fill="#404040">
                        <set attributeName="fill" to="#808080" begin="arrowUp.mouseover" end="arrowUp.mouseout"/>
                  </use>
                  <path fill="none" stroke="white" stroke-width="1.5" d="M0,-3.0v7 M-2.5,-0.5L0,-3.0L2.5,-0.5"/>
                </g>
                <g id="arrowRight" xlink:href="#dirArrow" transform="rotate(90) translate(36 -43)" onmousedown="handlePan(1,0)">
                  <use xlink:href="#rim" fill="#404040">
                        <set attributeName="fill" to="#808080" begin="arrowRight.mouseover" end="arrowRight.mouseout"/>
                  </use>
                  <path fill="none" stroke="white" stroke-width="1.5" d="M0,-3.0v7 M-2.5,-0.5L0,-3.0L2.5,-0.5"/>
                </g>
                <g id="arrowDown" xlink:href="#dirArrow" transform="rotate(180) translate(-30 -48)" onmousedown="handlePan(0,1)">
                  <use xlink:href="#rim" fill="#404040">
                        <set attributeName="fill" to="#808080" begin="arrowDown.mouseover" end="arrowDown.mouseout"/>
                  </use>
                  <path fill="none" stroke="white" stroke-width="1.5" d="M0,-3.0v7 M-2.5,-0.5L0,-3.0L2.5,-0.5"/>
                </g>
                <g id="arrowLeft" xlink:href="#dirArrow" transform="rotate(270) translate(-36 17)" onmousedown="handlePan(-1,0)">
                  <use xlink:href="#rim" fill="#404040">
                        <set attributeName="fill" to="#808080" begin="arrowLeft.mouseover" end="arrowLeft.mouseout"/>
                  </use>
                  <path fill="none" stroke="white" stroke-width="1.5" d="M0,-3.0v7 M-2.5,-0.5L0,-3.0L2.5,-0.5"/>
                </g>
        </g>
        <svg viewBox="0 0 15 15" width="100%" height="30px" preserveAspectRatio="xMaxYMin meet">
         <g id="arrow_out" transform="scale(0.3 0.3)">
          <a xlink:href="skybox_8h__incl_org.svg" target="_base">
           <rect id="button" ry="5" rx="5" y="6" x="6" height="38" width="38"
                fill="#f2f5e9" fill-opacity="0.5" stroke="#606060" stroke-width="1.0"/>
           <path id="arrow"
             d="M 11.500037,31.436501 C 11.940474,20.09759 22.043105,11.32322 32.158766,21.979434 L 37.068811,17.246167 C 37.068811,17.246167 37.088388,32 37.088388,32 L 22.160133,31.978069 C 22.160133,31.978069 26.997745,27.140456 26.997745,27.140456 C 18.528582,18.264221 13.291696,25.230495 11.500037,31.436501 z"
             style="fill:#404040;"/>
          </a>
         </g>
        </svg>
</svg>
