<?xml version="1.0" encoding="UTF-8" standalone="no"?>
<!DOCTYPE svg PUBLIC "-//W3C//DTD SVG 1.1//EN"
 "http://www.w3.org/Graphics/SVG/1.1/DTD/svg11.dtd">
<!-- Generated by graphviz version 2.43.0 (0)
 -->
<!-- Title: src/graphics/skybox.h Pages: 1 -->
<svg width="596pt" height="218pt"
 viewBox="0.00 0.00 595.50 218.00" xmlns="http://www.w3.org/2000/svg" xmlns:xlink="http://www.w3.org/1999/xlink">
<g id="graph0" class="graph" transform="scale(1 1) rotate(0) translate(4 214)">
<title>src/graphics/skybox.h</title>
<polygon fill="white" stroke="transparent" points="-4,4 -4,-214 591.5,-214 591.5,4 -4,4"/>
<!-- Node1 -->
<g id="node1" class="node">
<title>Node1</title>
<g id="a_node1"><a xlink:title=" ">
<polygon fill="#bfbfbf" stroke="black" points="285.5,-190.5 285.5,-209.5 407.5,-209.5 407.5,-190.5 285.5,-190.5"/>
<text text-anchor="middle" x="346.5" y="-197.5" font-family="Helvetica,sans-Serif" font-size="10.00">src/graphics/skybox.h</text>
</a>
</g>
</g>
<!-- Node2 -->
<g id="node2" class="node">
<title>Node2</title>
<g id="a_node2"><a xlink:href="camera_8h.html" target="_top" xlink:title=" ">
<polygon fill="white" stroke="black" points="230,-134.5 230,-153.5 367,-153.5 367,-134.5 230,-134.5"/>
<text text-anchor="middle" x="298.5" y="-141.5" font-family="Helvetica,sans-Serif" font-size="10.00">src/component/camera.h</text>
</a>
</g>
</g>
<!-- Node1&#45;&gt;Node2 -->
<g id="edge1" class="edge">
<title>Node1&#45;&gt;Node2</title>
<path fill="none" stroke="midnightblue" d="M331.77,-182.43C323.36,-172.97 313.15,-161.48 306.28,-153.75"/>
<polygon fill="midnightblue" stroke="midnightblue" points="329.31,-184.93 338.57,-190.08 334.55,-180.28 329.31,-184.93"/>
</g>
<!-- Node7 -->
<g id="node7" class="node">
<title>Node7</title>
<g id="a_node7"><a xlink:href="asset__loader_8h.html" target="_top" xlink:title=" ">
<polygon fill="white" stroke="black" points="343.5,-67.5 343.5,-97.5 447.5,-97.5 447.5,-67.5 343.5,-67.5"/>
<text text-anchor="start" x="351.5" y="-85.5" font-family="Helvetica,sans-Serif" font-size="10.00">src/graphics/asset</text>
<text text-anchor="middle" x="395.5" y="-74.5" font-family="Helvetica,sans-Serif" font-size="10.00">_loader.h</text>
</a>
</g>
</g>
<!-- Node1&#45;&gt;Node7 -->
<g id="edge7" class="edge">
<title>Node1&#45;&gt;Node7</title>
<path fill="none" stroke="midnightblue" d="M359.01,-182.21C364.66,-174.03 371.05,-163.85 375.5,-154 383.94,-135.33 389.67,-112.26 392.77,-97.71"/>
<polygon fill="midnightblue" stroke="midnightblue" points="356.07,-180.31 353.09,-190.48 361.76,-184.39 356.07,-180.31"/>
</g>
<!-- Node3 -->
<g id="node3" class="node">
<title>Node3</title>
<g id="a_node3"><a xlink:href="game__scene_8cpp.html" target="_top" xlink:title=" ">
<polygon fill="white" stroke="black" points="183.5,-0.5 183.5,-30.5 307.5,-30.5 307.5,-0.5 183.5,-0.5"/>
<text text-anchor="start" x="191.5" y="-18.5" font-family="Helvetica,sans-Serif" font-size="10.00">src/game/scene/game</text>
<text text-anchor="middle" x="245.5" y="-7.5" font-family="Helvetica,sans-Serif" font-size="10.00">_scene.cpp</text>
</a>
</g>
</g>
<!-- Node2&#45;&gt;Node3 -->
<g id="edge2" class="edge">
<title>Node2&#45;&gt;Node3</title>
<path fill="none" stroke="midnightblue" d="M298.58,-123.99C298,-108.12 295.61,-85.23 287.5,-67 281.38,-53.25 270.4,-40.25 261.21,-30.89"/>
<polygon fill="midnightblue" stroke="midnightblue" points="295.09,-124.2 298.74,-134.14 302.08,-124.09 295.09,-124.2"/>
</g>
<!-- Node4 -->
<g id="node4" class="node">
<title>Node4</title>
<g id="a_node4"><a xlink:href="renderer_8h.html" target="_top" xlink:title=" ">
<polygon fill="white" stroke="black" points="150.5,-73 150.5,-92 278.5,-92 278.5,-73 150.5,-73"/>
<text text-anchor="middle" x="214.5" y="-80" font-family="Helvetica,sans-Serif" font-size="10.00">src/graphics/renderer.h</text>
</a>
</g>
</g>
<!-- Node2&#45;&gt;Node4 -->
<g id="edge3" class="edge">
<title>Node2&#45;&gt;Node4</title>
<path fill="none" stroke="midnightblue" d="M278.19,-128.61C262.03,-117.17 239.98,-101.55 226.51,-92.01"/>
<polygon fill="midnightblue" stroke="midnightblue" points="276.28,-131.55 286.46,-134.48 280.33,-125.84 276.28,-131.55"/>
</g>
<!-- Node4&#45;&gt;Node3 -->
<g id="edge5" class="edge">
<title>Node4&#45;&gt;Node3</title>
<path fill="none" stroke="midnightblue" d="M223.14,-63.39C228.08,-53.02 234.2,-40.2 238.78,-30.59"/>
<polygon fill="midnightblue" stroke="midnightblue" points="219.83,-62.2 218.68,-72.73 226.14,-65.21 219.83,-62.2"/>
</g>
<!-- Node5 -->
<g id="node5" class="node">
<title>Node5</title>
<g id="a_node5"><a xlink:href="application_8cpp.html" target="_top" xlink:title=" ">
<polygon fill="white" stroke="black" points="0,-6 0,-25 165,-25 165,-6 0,-6"/>
<text text-anchor="middle" x="82.5" y="-13" font-family="Helvetica,sans-Serif" font-size="10.00">src/application/application.cpp</text>
</a>
</g>
</g>
<!-- Node4&#45;&gt;Node5 -->
<g id="edge4" class="edge">
<title>Node4&#45;&gt;Node5</title>
<path fill="none" stroke="midnightblue" d="M187.99,-68.44C161.84,-55.57 122.62,-36.26 100.1,-25.17"/>
<polygon fill="midnightblue" stroke="midnightblue" points="186.45,-71.59 196.97,-72.87 189.55,-65.31 186.45,-71.59"/>
</g>
<!-- Node6 -->
<g id="node6" class="node">
<title>Node6</title>
<g id="a_node6"><a xlink:href="renderer_8cpp.html" target="_top" xlink:title=" ">
<polygon fill="white" stroke="black" points="326,-6 326,-25 465,-25 465,-6 326,-6"/>
<text text-anchor="middle" x="395.5" y="-13" font-family="Helvetica,sans-Serif" font-size="10.00">src/graphics/renderer.cpp</text>
</a>
</g>
</g>
<!-- Node4&#45;&gt;Node6 -->
<g id="edge6" class="edge">
<title>Node4&#45;&gt;Node6</title>
<path fill="none" stroke="midnightblue" d="M248.09,-69.44C284,-56.54 340.02,-36.42 371.65,-25.06"/>
<polygon fill="midnightblue" stroke="midnightblue" points="246.76,-66.19 238.54,-72.87 249.13,-72.78 246.76,-66.19"/>
</g>
<!-- Node7&#45;&gt;Node3 -->
<g id="edge8" class="edge">
<title>Node7&#45;&gt;Node3</title>
<path fill="none" stroke="midnightblue" d="M353.75,-63.41C329.8,-53.03 300.18,-40.2 277.98,-30.58"/>
<polygon fill="midnightblue" stroke="midnightblue" points="352.39,-66.63 362.95,-67.4 355.17,-60.21 352.39,-66.63"/>
</g>
<!-- Node7&#45;&gt;Node6 -->
<g id="edge10" class="edge">
<title>Node7&#45;&gt;Node6</title>
<path fill="none" stroke="midnightblue" d="M395.5,-57.25C395.5,-46.02 395.5,-33.38 395.5,-25.19"/>
<polygon fill="midnightblue" stroke="midnightblue" points="392,-57.4 395.5,-67.4 399,-57.4 392,-57.4"/>
</g>
<!-- Node8 -->
<g id="node8" class="node">
<title>Node8</title>
<g id="a_node8"><a xlink:href="asset__loader_8cpp.html" target="_top" xlink:title=" ">
<polygon fill="white" stroke="black" points="483.5,-0.5 483.5,-30.5 587.5,-30.5 587.5,-0.5 483.5,-0.5"/>
<text text-anchor="start" x="491.5" y="-18.5" font-family="Helvetica,sans-Serif" font-size="10.00">src/graphics/asset</text>
<text text-anchor="middle" x="535.5" y="-7.5" font-family="Helvetica,sans-Serif" font-size="10.00">_loader.cpp</text>
</a>
</g>
</g>
<!-- Node7&#45;&gt;Node8 -->
<g id="edge9" class="edge">
<title>Node7&#45;&gt;Node8</title>
<path fill="none" stroke="midnightblue" d="M435.07,-63.13C457.31,-52.8 484.65,-40.11 505.18,-30.58"/>
<polygon fill="midnightblue" stroke="midnightblue" points="433.47,-60.01 425.88,-67.4 436.42,-66.36 433.47,-60.01"/>
</g>
</g>
</svg>
