<?xml version="1.0" encoding="UTF-8" standalone="no"?>
<!DOCTYPE svg PUBLIC "-//W3C//DTD SVG 1.1//EN"
 "http://www.w3.org/Graphics/SVG/1.1/DTD/svg11.dtd">
<!-- Generated by graphviz version 2.43.0 (0)
 -->
<!-- Title: src/graphics/lighting/skybox.h Pages: 1 -->
<!--zoomable 285 -->
<svg id="main" version="1.1" xmlns="http://www.w3.org/2000/svg" xmlns:xlink="http://www.w3.org/1999/xlink" xml:space="preserve" onload="init(evt)">
<style type="text/css"><![CDATA[
.edge:hover path { stroke: red; }
.edge:hover polygon { stroke: red; fill: red; }
]]></style>
<script type="text/javascript"><![CDATA[
var edges = document.getElementsByTagName('g');
if (edges && edges.length) {
  for (var i=0;i<edges.length;i++) {
    if (edges[i].id.substr(0,4)=='edge') {
      edges[i].setAttribute('class','edge');
    }
  }
}
]]></script>
        <defs>
                <circle id="rim" cx="0" cy="0" r="7"/>
                <circle id="rim2" cx="0" cy="0" r="3.5"/>
                <g id="zoomPlus">
                        <use xlink:href="#rim" fill="#404040">
                                <set attributeName="fill" to="#808080" begin="zoomplus.mouseover" end="zoomplus.mouseout"/>
                        </use>
                        <path d="M-4,0h8M0,-4v8" fill="none" stroke="white" stroke-width="1.5" pointer-events="none"/>
                </g>
                <g id="zoomMin">
                        <use xlink:href="#rim" fill="#404040">
                                <set attributeName="fill" to="#808080" begin="zoomminus.mouseover" end="zoomminus.mouseout"/>
                        </use>
                        <path d="M-4,0h8" fill="none" stroke="white" stroke-width="1.5" pointer-events="none"/>
                </g>
                <g id="dirArrow">
                        <path fill="none" stroke="white" stroke-width="1.5" d="M0,-3.0v7 M-2.5,-0.5L0,-3.0L2.5,-0.5"/>
                </g>
               <g id="resetDef">
                       <use xlink:href="#rim2" fill="#404040">
                               <set attributeName="fill" to="#808080" begin="reset.mouseover" end="reset.mouseout"/>
                       </use>
               </g>
        </defs>

<script type="text/javascript">
var viewWidth = 1614;
var viewHeight = 285;
var sectionId = 'dynsection-0';
</script>
<script xlink:href="svgpan.js"/>
<svg id="graph" class="graph">
<g id="viewport">
<title>src/graphics/lighting/skybox.h</title>
<polygon fill="white" stroke="transparent" points="-4,4 -4,-281 1609.64,-281 1609.64,4 -4,4"/>
<!-- Node1 -->
<g id="node1" class="node">
<title>Node1</title>
<g id="a_node1"><a xlink:title=" ">
<polygon fill="#bfbfbf" stroke="black" points="337.64,-246.5 337.64,-276.5 452.64,-276.5 452.64,-246.5 337.64,-246.5"/>
<text text-anchor="start" x="345.64" y="-264.5" font-family="Helvetica,sans-Serif" font-size="10.00">src/graphics/lighting</text>
<text text-anchor="middle" x="395.14" y="-253.5" font-family="Helvetica,sans-Serif" font-size="10.00">/skybox.h</text>
</a>
</g>
</g>
<!-- Node2 -->
<g id="node2" class="node">
<title>Node2</title>
<g id="a_node2"><a xlink:title=" ">
<polygon fill="white" stroke="#bfbfbf" points="30.64,-62 30.64,-81 119.64,-81 119.64,-62 30.64,-62"/>
<text text-anchor="middle" x="75.14" y="-69" font-family="Helvetica,sans-Serif" font-size="10.00">maths/colour.h</text>
</a>
</g>
</g>
<!-- Node1&#45;&gt;Node2 -->
<g id="edge1" class="edge">
<title>Node1&#45;&gt;Node2</title>
<path fill="none" stroke="midnightblue" d="M347.44,-246.36C295.74,-229.6 212.3,-198.24 150.14,-154 124.52,-135.77 101.04,-107.58 87.41,-89.59"/>
<polygon fill="midnightblue" stroke="midnightblue" points="89.98,-87.18 81.22,-81.22 84.35,-91.34 89.98,-87.18"/>
</g>
<!-- Node3 -->
<g id="node3" class="node">
<title>Node3</title>
<g id="a_node3"><a xlink:href="mesh_8h.html" target="_top" xlink:title=" ">
<polygon fill="white" stroke="black" points="389.64,-190.5 389.64,-209.5 516.64,-209.5 516.64,-190.5 389.64,-190.5"/>
<text text-anchor="middle" x="453.14" y="-197.5" font-family="Helvetica,sans-Serif" font-size="10.00">graphics/mesh/mesh.h</text>
</a>
</g>
</g>
<!-- Node1&#45;&gt;Node3 -->
<g id="edge2" class="edge">
<title>Node1&#45;&gt;Node3</title>
<path fill="none" stroke="midnightblue" d="M408.88,-246.4C417.49,-237.58 428.59,-226.18 437.52,-217.02"/>
<polygon fill="midnightblue" stroke="midnightblue" points="440.23,-219.26 444.7,-209.66 435.21,-214.38 440.23,-219.26"/>
</g>
<!-- Node17 -->
<g id="node17" class="node">
<title>Node17</title>
<g id="a_node17"><a xlink:href="texture_8h.html" target="_top" xlink:title=" ">
<polygon fill="white" stroke="black" points="1212.64,-129 1212.64,-148 1355.64,-148 1355.64,-129 1212.64,-129"/>
<text text-anchor="middle" x="1284.14" y="-136" font-family="Helvetica,sans-Serif" font-size="10.00">graphics/texture/texture.h</text>
</a>
</g>
</g>
<!-- Node1&#45;&gt;Node17 -->
<g id="edge20" class="edge">
<title>Node1&#45;&gt;Node17</title>
<path fill="none" stroke="midnightblue" d="M452.78,-252.65C608.87,-231.41 1039.52,-172.79 1211.66,-149.37"/>
<polygon fill="midnightblue" stroke="midnightblue" points="1212.2,-152.82 1221.63,-148.01 1211.25,-145.89 1212.2,-152.82"/>
</g>
<!-- Node24 -->
<g id="node24" class="node">
<title>Node24</title>
<g id="a_node24"><a xlink:href="shader__program_8h.html" target="_top" xlink:title=" ">
<polygon fill="white" stroke="black" points="159.14,-123.5 159.14,-153.5 289.14,-153.5 289.14,-123.5 159.14,-123.5"/>
<text text-anchor="start" x="167.14" y="-141.5" font-family="Helvetica,sans-Serif" font-size="10.00">graphics/shader/shader</text>
<text text-anchor="middle" x="224.14" y="-130.5" font-family="Helvetica,sans-Serif" font-size="10.00">_program.h</text>
</a>
</g>
</g>
<!-- Node1&#45;&gt;Node24 -->
<g id="edge29" class="edge">
<title>Node1&#45;&gt;Node24</title>
<path fill="none" stroke="midnightblue" d="M375.19,-246.38C344.81,-224.89 286.85,-183.88 252.23,-159.38"/>
<polygon fill="midnightblue" stroke="midnightblue" points="254.15,-156.45 243.96,-153.53 250.1,-162.16 254.15,-156.45"/>
</g>
<!-- Node4 -->
<g id="node4" class="node">
<title>Node4</title>
<g id="a_node4"><a xlink:title=" ">
<polygon fill="white" stroke="#bfbfbf" points="784.14,-0.5 784.14,-19.5 842.14,-19.5 842.14,-0.5 784.14,-0.5"/>
<text text-anchor="middle" x="813.14" y="-7.5" font-family="Helvetica,sans-Serif" font-size="10.00">memory</text>
</a>
</g>
</g>
<!-- Node3&#45;&gt;Node4 -->
<g id="edge3" class="edge">
<title>Node3&#45;&gt;Node4</title>
<path fill="none" stroke="midnightblue" d="M516.77,-196.62C651.48,-190.05 958.01,-166.5 1017.14,-87 1025.36,-75.94 1025.77,-66.74 1017.14,-56 996.91,-30.82 906.07,-18.89 852.67,-13.97"/>
<polygon fill="midnightblue" stroke="midnightblue" points="852.79,-10.47 842.52,-13.08 852.18,-17.44 852.79,-10.47"/>
</g>
<!-- Node5 -->
<g id="node5" class="node">
<title>Node5</title>
<g id="a_node5"><a xlink:title=" ">
<polygon fill="white" stroke="#bfbfbf" points="413.64,-0.5 413.64,-19.5 460.64,-19.5 460.64,-0.5 413.64,-0.5"/>
<text text-anchor="middle" x="437.14" y="-7.5" font-family="Helvetica,sans-Serif" font-size="10.00">vector</text>
</a>
</g>
</g>
<!-- Node3&#45;&gt;Node5 -->
<g id="edge4" class="edge">
<title>Node3&#45;&gt;Node5</title>
<path fill="none" stroke="midnightblue" d="M389.62,-198.45C245.55,-195.16 -85.53,-174.83 21.14,-56 46.55,-27.7 308.79,-15.59 403.37,-12.12"/>
<polygon fill="midnightblue" stroke="midnightblue" points="403.66,-15.61 413.53,-11.75 403.41,-8.61 403.66,-15.61"/>
</g>
<!-- Node6 -->
<g id="node6" class="node">
<title>Node6</title>
<g id="a_node6"><a xlink:title=" ">
<polygon fill="white" stroke="#bfbfbf" points="362.14,-62 362.14,-81 406.14,-81 406.14,-62 362.14,-62"/>
<text text-anchor="middle" x="384.14" y="-69" font-family="Helvetica,sans-Serif" font-size="10.00">string</text>
</a>
</g>
</g>
<!-- Node3&#45;&gt;Node6 -->
<g id="edge5" class="edge">
<title>Node3&#45;&gt;Node6</title>
<path fill="none" stroke="midnightblue" d="M452.48,-190.48C451.05,-175.82 446.68,-145.28 434.14,-123 426.5,-109.43 414.23,-96.96 403.76,-87.81"/>
<polygon fill="midnightblue" stroke="midnightblue" points="405.79,-84.94 395.87,-81.22 401.31,-90.32 405.79,-84.94"/>
</g>
<!-- Node7 -->
<g id="node7" class="node">
<title>Node7</title>
<g id="a_node7"><a xlink:href="vertex_8h.html" target="_top" xlink:title=" ">
<polygon fill="white" stroke="black" points="481.64,-129 481.64,-148 612.64,-148 612.64,-129 481.64,-129"/>
<text text-anchor="middle" x="547.14" y="-136" font-family="Helvetica,sans-Serif" font-size="10.00">graphics/mesh/vertex.h</text>
</a>
</g>
</g>
<!-- Node3&#45;&gt;Node7 -->
<g id="edge6" class="edge">
<title>Node3&#45;&gt;Node7</title>
<path fill="none" stroke="midnightblue" d="M466.61,-190.48C481.82,-180.84 506.83,-165.02 524.94,-153.55"/>
<polygon fill="midnightblue" stroke="midnightblue" points="527.12,-156.31 533.7,-148.01 523.37,-150.4 527.12,-156.31"/>
</g>
<!-- Node10 -->
<g id="node10" class="node">
<title>Node10</title>
<g id="a_node10"><a xlink:href="mesh__instance__data_8h.html" target="_top" xlink:title=" ">
<polygon fill="white" stroke="black" points="307.14,-123.5 307.14,-153.5 425.14,-153.5 425.14,-123.5 307.14,-123.5"/>
<text text-anchor="start" x="315.14" y="-141.5" font-family="Helvetica,sans-Serif" font-size="10.00">graphics/mesh/mesh</text>
<text text-anchor="middle" x="366.14" y="-130.5" font-family="Helvetica,sans-Serif" font-size="10.00">_instance_data.h</text>
</a>
</g>
</g>
<!-- Node3&#45;&gt;Node10 -->
<g id="edge9" class="edge">
<title>Node3&#45;&gt;Node10</title>
<path fill="none" stroke="midnightblue" d="M440.67,-190.48C428.78,-182.34 410.43,-169.79 394.91,-159.18"/>
<polygon fill="midnightblue" stroke="midnightblue" points="396.87,-156.28 386.64,-153.52 392.92,-162.06 396.87,-156.28"/>
</g>
<!-- Node12 -->
<g id="node12" class="node">
<title>Node12</title>
<g id="a_node12"><a xlink:href="vao_8h.html" target="_top" xlink:title=" ">
<polygon fill="white" stroke="black" points="667.14,-129 667.14,-148 785.14,-148 785.14,-129 667.14,-129"/>
<text text-anchor="middle" x="726.14" y="-136" font-family="Helvetica,sans-Serif" font-size="10.00">graphics/mesh/vao.h</text>
</a>
</g>
</g>
<!-- Node3&#45;&gt;Node12 -->
<g id="edge11" class="edge">
<title>Node3&#45;&gt;Node12</title>
<path fill="none" stroke="midnightblue" d="M492.25,-190.48C541.01,-179.85 624.35,-161.68 677.26,-150.15"/>
<polygon fill="midnightblue" stroke="midnightblue" points="678.07,-153.56 687.1,-148.01 676.58,-146.72 678.07,-153.56"/>
</g>
<!-- Node8 -->
<g id="node8" class="node">
<title>Node8</title>
<g id="a_node8"><a xlink:title=" ">
<polygon fill="white" stroke="#bfbfbf" points="538.14,-62 538.14,-81 634.14,-81 634.14,-62 538.14,-62"/>
<text text-anchor="middle" x="586.14" y="-69" font-family="Helvetica,sans-Serif" font-size="10.00">maths/vector2.h</text>
</a>
</g>
</g>
<!-- Node7&#45;&gt;Node8 -->
<g id="edge7" class="edge">
<title>Node7&#45;&gt;Node8</title>
<path fill="none" stroke="midnightblue" d="M552.4,-128.73C558.36,-118.79 568.24,-102.34 575.77,-89.79"/>
<polygon fill="midnightblue" stroke="midnightblue" points="578.82,-91.5 580.96,-81.13 572.82,-87.9 578.82,-91.5"/>
</g>
<!-- Node9 -->
<g id="node9" class="node">
<title>Node9</title>
<g id="a_node9"><a xlink:title=" ">
<polygon fill="white" stroke="#bfbfbf" points="424.14,-62 424.14,-81 520.14,-81 520.14,-62 424.14,-62"/>
<text text-anchor="middle" x="472.14" y="-69" font-family="Helvetica,sans-Serif" font-size="10.00">maths/vector3.h</text>
</a>
</g>
</g>
<!-- Node7&#45;&gt;Node9 -->
<g id="edge8" class="edge">
<title>Node7&#45;&gt;Node9</title>
<path fill="none" stroke="midnightblue" d="M537.02,-128.73C524.99,-118.31 504.69,-100.71 489.99,-87.97"/>
<polygon fill="midnightblue" stroke="midnightblue" points="491.94,-85.03 482.09,-81.13 487.36,-90.32 491.94,-85.03"/>
</g>
<!-- Node11 -->
<g id="node11" class="node">
<title>Node11</title>
<g id="a_node11"><a xlink:title=" ">
<polygon fill="white" stroke="#bfbfbf" points="252.14,-62 252.14,-81 344.14,-81 344.14,-62 252.14,-62"/>
<text text-anchor="middle" x="298.14" y="-69" font-family="Helvetica,sans-Serif" font-size="10.00">maths/matrix.h</text>
</a>
</g>
</g>
<!-- Node10&#45;&gt;Node11 -->
<g id="edge10" class="edge">
<title>Node10&#45;&gt;Node11</title>
<path fill="none" stroke="midnightblue" d="M351.38,-123.4C340.57,-113.06 325.89,-99.02 314.68,-88.31"/>
<polygon fill="midnightblue" stroke="midnightblue" points="316.88,-85.57 307.23,-81.19 312.04,-90.63 316.88,-85.57"/>
</g>
<!-- Node12&#45;&gt;Node5 -->
<g id="edge13" class="edge">
<title>Node12&#45;&gt;Node5</title>
<path fill="none" stroke="midnightblue" d="M726.95,-128.87C728.01,-112.14 727.7,-75.28 707.14,-56 673.49,-24.43 535.53,-14.86 470.87,-12.08"/>
<polygon fill="midnightblue" stroke="midnightblue" points="470.92,-8.58 460.79,-11.68 470.64,-15.58 470.92,-8.58"/>
</g>
<!-- Node13 -->
<g id="node13" class="node">
<title>Node13</title>
<g id="a_node13"><a xlink:title=" ">
<polygon fill="white" stroke="#bfbfbf" points="652.64,-62 652.64,-81 697.64,-81 697.64,-62 652.64,-62"/>
<text text-anchor="middle" x="675.14" y="-69" font-family="Helvetica,sans-Serif" font-size="10.00">utility</text>
</a>
</g>
</g>
<!-- Node12&#45;&gt;Node13 -->
<g id="edge12" class="edge">
<title>Node12&#45;&gt;Node13</title>
<path fill="none" stroke="midnightblue" d="M719.26,-128.73C711.31,-118.6 698.04,-101.69 688.13,-89.06"/>
<polygon fill="midnightblue" stroke="midnightblue" points="690.83,-86.83 681.91,-81.13 685.33,-91.16 690.83,-86.83"/>
</g>
<!-- Node14 -->
<g id="node14" class="node">
<title>Node14</title>
<g id="a_node14"><a xlink:href="vbo_8h.html" target="_top" xlink:title=" ">
<polygon fill="white" stroke="black" points="754.14,-62 754.14,-81 872.14,-81 872.14,-62 754.14,-62"/>
<text text-anchor="middle" x="813.14" y="-69" font-family="Helvetica,sans-Serif" font-size="10.00">graphics/mesh/vbo.h</text>
</a>
</g>
</g>
<!-- Node12&#45;&gt;Node14 -->
<g id="edge14" class="edge">
<title>Node12&#45;&gt;Node14</title>
<path fill="none" stroke="midnightblue" d="M737.87,-128.73C752.09,-118.11 776.27,-100.05 793.38,-87.26"/>
<polygon fill="midnightblue" stroke="midnightblue" points="795.68,-89.92 801.59,-81.13 791.49,-84.31 795.68,-89.92"/>
</g>
<!-- Node16 -->
<g id="node16" class="node">
<title>Node16</title>
<g id="a_node16"><a xlink:href="ebo_8h.html" target="_top" xlink:title=" ">
<polygon fill="white" stroke="black" points="890.14,-62 890.14,-81 1008.14,-81 1008.14,-62 890.14,-62"/>
<text text-anchor="middle" x="949.14" y="-69" font-family="Helvetica,sans-Serif" font-size="10.00">graphics/mesh/ebo.h</text>
</a>
</g>
</g>
<!-- Node12&#45;&gt;Node16 -->
<g id="edge18" class="edge">
<title>Node12&#45;&gt;Node16</title>
<path fill="none" stroke="midnightblue" d="M755.75,-128.87C795.43,-117.3 865.95,-96.75 909.98,-83.91"/>
<polygon fill="midnightblue" stroke="midnightblue" points="911.14,-87.22 919.76,-81.06 909.18,-80.5 911.14,-87.22"/>
</g>
<!-- Node14&#45;&gt;Node4 -->
<g id="edge16" class="edge">
<title>Node14&#45;&gt;Node4</title>
<path fill="none" stroke="midnightblue" d="M813.14,-61.98C813.14,-53.58 813.14,-40.48 813.14,-29.66"/>
<polygon fill="midnightblue" stroke="midnightblue" points="816.64,-29.51 813.14,-19.51 809.64,-29.51 816.64,-29.51"/>
</g>
<!-- Node14&#45;&gt;Node5 -->
<g id="edge15" class="edge">
<title>Node14&#45;&gt;Node5</title>
<path fill="none" stroke="midnightblue" d="M771.9,-61.94C761.55,-59.9 750.45,-57.79 740.14,-56 642.67,-39.09 526.87,-23 470.84,-15.46"/>
<polygon fill="midnightblue" stroke="midnightblue" points="471.15,-11.97 460.77,-14.11 470.22,-18.91 471.15,-11.97"/>
</g>
<!-- Node15 -->
<g id="node15" class="node">
<title>Node15</title>
<g id="a_node15"><a xlink:title=" ">
<polygon fill="white" stroke="#bfbfbf" points="917.14,-0.5 917.14,-19.5 981.14,-19.5 981.14,-0.5 917.14,-0.5"/>
<text text-anchor="middle" x="949.14" y="-7.5" font-family="Helvetica,sans-Serif" font-size="10.00">GL/glew.h</text>
</a>
</g>
</g>
<!-- Node14&#45;&gt;Node15 -->
<g id="edge17" class="edge">
<title>Node14&#45;&gt;Node15</title>
<path fill="none" stroke="midnightblue" d="M832.62,-61.98C855.55,-51.95 893.82,-35.2 920.21,-23.65"/>
<polygon fill="midnightblue" stroke="midnightblue" points="921.93,-26.72 929.69,-19.51 919.13,-20.31 921.93,-26.72"/>
</g>
<!-- Node16&#45;&gt;Node15 -->
<g id="edge19" class="edge">
<title>Node16&#45;&gt;Node15</title>
<path fill="none" stroke="midnightblue" d="M949.14,-61.98C949.14,-53.58 949.14,-40.48 949.14,-29.66"/>
<polygon fill="midnightblue" stroke="midnightblue" points="952.64,-29.51 949.14,-19.51 945.64,-29.51 952.64,-29.51"/>
</g>
<!-- Node17&#45;&gt;Node15 -->
<g id="edge24" class="edge">
<title>Node17&#45;&gt;Node15</title>
<path fill="none" stroke="midnightblue" d="M1231.27,-128.92C1191.88,-121.26 1137.48,-107.96 1093.14,-87 1071.84,-76.93 1070.56,-67.74 1050.14,-56 1027.97,-43.25 1001.53,-31.59 981.26,-23.33"/>
<polygon fill="midnightblue" stroke="midnightblue" points="982.44,-20.03 971.85,-19.56 979.83,-26.53 982.44,-20.03"/>
</g>
<!-- Node18 -->
<g id="node18" class="node">
<title>Node18</title>
<g id="a_node18"><a xlink:title=" ">
<polygon fill="white" stroke="#bfbfbf" points="1358.14,-62 1358.14,-81 1400.14,-81 1400.14,-62 1358.14,-62"/>
<text text-anchor="middle" x="1379.14" y="-69" font-family="Helvetica,sans-Serif" font-size="10.00">array</text>
</a>
</g>
</g>
<!-- Node17&#45;&gt;Node18 -->
<g id="edge21" class="edge">
<title>Node17&#45;&gt;Node18</title>
<path fill="none" stroke="midnightblue" d="M1296.95,-128.73C1312.62,-118.01 1339.36,-99.72 1358.07,-86.91"/>
<polygon fill="midnightblue" stroke="midnightblue" points="1360.25,-89.66 1366.53,-81.13 1356.3,-83.89 1360.25,-89.66"/>
</g>
<!-- Node19 -->
<g id="node19" class="node">
<title>Node19</title>
<g id="a_node19"><a xlink:title=" ">
<polygon fill="white" stroke="#bfbfbf" points="1558.64,-62 1558.64,-81 1605.64,-81 1605.64,-62 1558.64,-62"/>
<text text-anchor="middle" x="1582.14" y="-69" font-family="Helvetica,sans-Serif" font-size="10.00">cmath</text>
</a>
</g>
</g>
<!-- Node17&#45;&gt;Node19 -->
<g id="edge22" class="edge">
<title>Node17&#45;&gt;Node19</title>
<path fill="none" stroke="midnightblue" d="M1351.32,-128.98C1405.51,-121.09 1483.28,-107.46 1549.14,-87 1551.07,-86.4 1553.03,-85.72 1554.99,-85"/>
<polygon fill="midnightblue" stroke="midnightblue" points="1556.67,-88.09 1564.61,-81.08 1554.03,-81.61 1556.67,-88.09"/>
</g>
<!-- Node20 -->
<g id="node20" class="node">
<title>Node20</title>
<g id="a_node20"><a xlink:title=" ">
<polygon fill="white" stroke="#bfbfbf" points="1102.14,-62 1102.14,-81 1210.14,-81 1210.14,-62 1102.14,-62"/>
<text text-anchor="middle" x="1156.14" y="-69" font-family="Helvetica,sans-Serif" font-size="10.00">SDL2/SDL_image.h</text>
</a>
</g>
</g>
<!-- Node17&#45;&gt;Node20 -->
<g id="edge23" class="edge">
<title>Node17&#45;&gt;Node20</title>
<path fill="none" stroke="midnightblue" d="M1267.14,-128.87C1245.43,-117.84 1207.64,-98.66 1182.27,-85.77"/>
<polygon fill="midnightblue" stroke="midnightblue" points="1183.71,-82.57 1173.21,-81.17 1180.54,-88.82 1183.71,-82.57"/>
</g>
<!-- Node21 -->
<g id="node21" class="node">
<title>Node21</title>
<g id="a_node21"><a xlink:title=" ">
<polygon fill="white" stroke="#bfbfbf" points="1228.64,-62 1228.64,-81 1339.64,-81 1339.64,-62 1228.64,-62"/>
<text text-anchor="middle" x="1284.14" y="-69" font-family="Helvetica,sans-Serif" font-size="10.00">maths/maths_util.h</text>
</a>
</g>
</g>
<!-- Node17&#45;&gt;Node21 -->
<g id="edge25" class="edge">
<title>Node17&#45;&gt;Node21</title>
<path fill="none" stroke="midnightblue" d="M1284.14,-128.73C1284.14,-119.18 1284.14,-103.62 1284.14,-91.28"/>
<polygon fill="midnightblue" stroke="midnightblue" points="1287.64,-91.13 1284.14,-81.13 1280.64,-91.13 1287.64,-91.13"/>
</g>
<!-- Node22 -->
<g id="node22" class="node">
<title>Node22</title>
<g id="a_node22"><a xlink:href="pixel__format_8h.html" target="_top" xlink:title=" ">
<polygon fill="white" stroke="black" points="1418.14,-56.5 1418.14,-86.5 1540.14,-86.5 1540.14,-56.5 1418.14,-56.5"/>
<text text-anchor="start" x="1426.14" y="-74.5" font-family="Helvetica,sans-Serif" font-size="10.00">graphics/texture/pixel</text>
<text text-anchor="middle" x="1479.14" y="-63.5" font-family="Helvetica,sans-Serif" font-size="10.00">_format.h</text>
</a>
</g>
</g>
<!-- Node17&#45;&gt;Node22 -->
<g id="edge26" class="edge">
<title>Node17&#45;&gt;Node22</title>
<path fill="none" stroke="midnightblue" d="M1310.03,-128.87C1339.8,-118.95 1389.41,-102.41 1427.22,-89.81"/>
<polygon fill="midnightblue" stroke="midnightblue" points="1428.67,-93.01 1437.05,-86.53 1426.46,-86.37 1428.67,-93.01"/>
</g>
<!-- Node22&#45;&gt;Node15 -->
<g id="edge28" class="edge">
<title>Node22&#45;&gt;Node15</title>
<path fill="none" stroke="midnightblue" d="M1418.12,-57.46C1415.09,-56.94 1412.08,-56.45 1409.14,-56 1256.35,-32.77 1073.09,-19.02 991.69,-13.64"/>
<polygon fill="midnightblue" stroke="midnightblue" points="991.56,-10.12 981.35,-12.96 991.1,-17.11 991.56,-10.12"/>
</g>
<!-- Node23 -->
<g id="node23" class="node">
<title>Node23</title>
<g id="a_node23"><a xlink:title=" ">
<polygon fill="white" stroke="#bfbfbf" points="1446.64,-0.5 1446.64,-19.5 1511.64,-19.5 1511.64,-0.5 1446.64,-0.5"/>
<text text-anchor="middle" x="1479.14" y="-7.5" font-family="Helvetica,sans-Serif" font-size="10.00">stdexcept</text>
</a>
</g>
</g>
<!-- Node22&#45;&gt;Node23 -->
<g id="edge27" class="edge">
<title>Node22&#45;&gt;Node23</title>
<path fill="none" stroke="midnightblue" d="M1479.14,-56.4C1479.14,-48.47 1479.14,-38.46 1479.14,-29.86"/>
<polygon fill="midnightblue" stroke="midnightblue" points="1482.64,-29.66 1479.14,-19.66 1475.64,-29.66 1482.64,-29.66"/>
</g>
<!-- Node24&#45;&gt;Node2 -->
<g id="edge34" class="edge">
<title>Node24&#45;&gt;Node2</title>
<path fill="none" stroke="midnightblue" d="M191.81,-123.4C165.66,-111.99 129.19,-96.08 104.02,-85.1"/>
<polygon fill="midnightblue" stroke="midnightblue" points="105.2,-81.8 94.64,-81.01 102.41,-88.21 105.2,-81.8"/>
</g>
<!-- Node24&#45;&gt;Node4 -->
<g id="edge30" class="edge">
<title>Node24&#45;&gt;Node4</title>
<path fill="none" stroke="midnightblue" d="M215.52,-123.41C205.72,-105.38 193.14,-74.31 210.14,-56 229.35,-35.3 642.37,-17.6 773.54,-12.49"/>
<polygon fill="midnightblue" stroke="midnightblue" points="774.06,-15.97 783.91,-12.09 773.79,-8.98 774.06,-15.97"/>
</g>
<!-- Node24&#45;&gt;Node5 -->
<g id="edge32" class="edge">
<title>Node24&#45;&gt;Node5</title>
<path fill="none" stroke="midnightblue" d="M204.24,-123.47C182.7,-106.59 153.73,-77.8 172.14,-56 201.37,-21.38 338.74,-13.39 403.37,-11.55"/>
<polygon fill="midnightblue" stroke="midnightblue" points="403.54,-15.05 413.45,-11.3 403.37,-8.05 403.54,-15.05"/>
</g>
<!-- Node24&#45;&gt;Node6 -->
<g id="edge31" class="edge">
<title>Node24&#45;&gt;Node6</title>
<path fill="none" stroke="midnightblue" d="M261.94,-123.44C287.79,-113.64 322.75,-100.04 353.14,-87 354.34,-86.49 355.56,-85.95 356.79,-85.41"/>
<polygon fill="midnightblue" stroke="midnightblue" points="358.54,-88.46 366.2,-81.13 355.64,-82.08 358.54,-88.46"/>
</g>
<!-- Node24&#45;&gt;Node8 -->
<g id="edge35" class="edge">
<title>Node24&#45;&gt;Node8</title>
<path fill="none" stroke="midnightblue" d="M289.48,-124.55C292.41,-124.02 295.3,-123.5 298.14,-123 400.47,-105.01 427.34,-107.83 529.14,-87 534.26,-85.95 539.61,-84.74 544.9,-83.48"/>
<polygon fill="midnightblue" stroke="midnightblue" points="546.03,-86.81 554.9,-81.01 544.35,-80.01 546.03,-86.81"/>
</g>
<!-- Node24&#45;&gt;Node9 -->
<g id="edge36" class="edge">
<title>Node24&#45;&gt;Node9</title>
<path fill="none" stroke="midnightblue" d="M277.65,-123.48C323.16,-111.55 387.65,-94.64 429.68,-83.63"/>
<polygon fill="midnightblue" stroke="midnightblue" points="430.81,-86.95 439.6,-81.03 429.04,-80.18 430.81,-86.95"/>
</g>
<!-- Node24&#45;&gt;Node11 -->
<g id="edge37" class="edge">
<title>Node24&#45;&gt;Node11</title>
<path fill="none" stroke="midnightblue" d="M240.2,-123.4C252.08,-112.96 268.25,-98.75 280.5,-88"/>
<polygon fill="midnightblue" stroke="midnightblue" points="283.04,-90.42 288.24,-81.19 278.42,-85.16 283.04,-90.42"/>
</g>
<!-- Node24&#45;&gt;Node15 -->
<g id="edge33" class="edge">
<title>Node24&#45;&gt;Node15</title>
<path fill="none" stroke="midnightblue" d="M222.82,-123.43C221.94,-104.82 223.59,-72.48 243.14,-56 294.88,-12.38 783.66,-25.1 851.14,-20 869.34,-18.63 889.41,-16.83 906.63,-15.21"/>
<polygon fill="midnightblue" stroke="midnightblue" points="907.32,-18.66 916.94,-14.22 906.65,-11.69 907.32,-18.66"/>
</g>
</g>
</svg>
        <g id="navigator" transform="translate(0 0)" fill="#404254">
                <rect fill="#f2f5e9" fill-opacity="0.5" stroke="#606060" stroke-width=".5" x="0" y="0" width="60" height="60"/>
                <use id="zoomplus" xlink:href="#zoomPlus" x="17" y="9" onmousedown="handleZoom(evt,'in')"/>
                <use id="zoomminus" xlink:href="#zoomMin" x="42" y="9" onmousedown="handleZoom(evt,'out')"/>
                <use id="reset" xlink:href="#resetDef" x="30" y="36" onmousedown="handleReset()"/>
                <g id="arrowUp" xlink:href="#dirArrow" transform="translate(30 24)" onmousedown="handlePan(0,-1)">
                  <use xlink:href="#rim" fill="#404040">
                        <set attributeName="fill" to="#808080" begin="arrowUp.mouseover" end="arrowUp.mouseout"/>
                  </use>
                  <path fill="none" stroke="white" stroke-width="1.5" d="M0,-3.0v7 M-2.5,-0.5L0,-3.0L2.5,-0.5"/>
                </g>
                <g id="arrowRight" xlink:href="#dirArrow" transform="rotate(90) translate(36 -43)" onmousedown="handlePan(1,0)">
                  <use xlink:href="#rim" fill="#404040">
                        <set attributeName="fill" to="#808080" begin="arrowRight.mouseover" end="arrowRight.mouseout"/>
                  </use>
                  <path fill="none" stroke="white" stroke-width="1.5" d="M0,-3.0v7 M-2.5,-0.5L0,-3.0L2.5,-0.5"/>
                </g>
                <g id="arrowDown" xlink:href="#dirArrow" transform="rotate(180) translate(-30 -48)" onmousedown="handlePan(0,1)">
                  <use xlink:href="#rim" fill="#404040">
                        <set attributeName="fill" to="#808080" begin="arrowDown.mouseover" end="arrowDown.mouseout"/>
                  </use>
                  <path fill="none" stroke="white" stroke-width="1.5" d="M0,-3.0v7 M-2.5,-0.5L0,-3.0L2.5,-0.5"/>
                </g>
                <g id="arrowLeft" xlink:href="#dirArrow" transform="rotate(270) translate(-36 17)" onmousedown="handlePan(-1,0)">
                  <use xlink:href="#rim" fill="#404040">
                        <set attributeName="fill" to="#808080" begin="arrowLeft.mouseover" end="arrowLeft.mouseout"/>
                  </use>
                  <path fill="none" stroke="white" stroke-width="1.5" d="M0,-3.0v7 M-2.5,-0.5L0,-3.0L2.5,-0.5"/>
                </g>
        </g>
        <svg viewBox="0 0 15 15" width="100%" height="30px" preserveAspectRatio="xMaxYMin meet">
         <g id="arrow_out" transform="scale(0.3 0.3)">
          <a xlink:href="skybox_8h__incl_org.svg" target="_base">
           <rect id="button" ry="5" rx="5" y="6" x="6" height="38" width="38"
                fill="#f2f5e9" fill-opacity="0.5" stroke="#606060" stroke-width="1.0"/>
           <path id="arrow"
             d="M 11.500037,31.436501 C 11.940474,20.09759 22.043105,11.32322 32.158766,21.979434 L 37.068811,17.246167 C 37.068811,17.246167 37.088388,32 37.088388,32 L 22.160133,31.978069 C 22.160133,31.978069 26.997745,27.140456 26.997745,27.140456 C 18.528582,18.264221 13.291696,25.230495 11.500037,31.436501 z"
             style="fill:#404040;"/>
          </a>
         </g>
        </svg>
</svg>
