<?xml version="1.0" encoding="UTF-8" standalone="no"?>
<!DOCTYPE svg PUBLIC "-//W3C//DTD SVG 1.1//EN"
 "http://www.w3.org/Graphics/SVG/1.1/DTD/svg11.dtd">
<!-- Generated by graphviz version 2.43.0 (0)
 -->
<!-- Title: mkr::vbo_element Pages: 1 -->
<svg width="526pt" height="171pt"
 viewBox="0.00 0.00 526.00 171.00" xmlns="http://www.w3.org/2000/svg" xmlns:xlink="http://www.w3.org/1999/xlink">
<g id="graph0" class="graph" transform="scale(1 1) rotate(0) translate(4 167)">
<title>mkr::vbo_element</title>
<polygon fill="white" stroke="transparent" points="-4,4 -4,-167 522,-167 522,4 -4,4"/>
<!-- Node1 -->
<g id="node1" class="node">
<title>Node1</title>
<g id="a_node1"><a xlink:title=" ">
<polygon fill="#bfbfbf" stroke="black" points="189.5,-0.5 189.5,-57.5 295.5,-57.5 295.5,-0.5 189.5,-0.5"/>
<text text-anchor="middle" x="242.5" y="-45.5" font-family="Helvetica,sans-Serif" font-size="10.00">mkr::vbo_element</text>
<polyline fill="none" stroke="black" points="189.5,-38.5 295.5,-38.5 "/>
<text text-anchor="middle" x="242.5" y="-26.5" font-family="Helvetica,sans-Serif" font-size="10.00"> </text>
<polyline fill="none" stroke="black" points="189.5,-19.5 295.5,-19.5 "/>
<text text-anchor="middle" x="242.5" y="-7.5" font-family="Helvetica,sans-Serif" font-size="10.00"> </text>
</a>
</g>
</g>
<!-- Node2 -->
<g id="node2" class="node">
<title>Node2</title>
<g id="a_node2"><a xlink:title=" ">
<polygon fill="white" stroke="#bfbfbf" points="0,-105.5 0,-162.5 71,-162.5 71,-105.5 0,-105.5"/>
<text text-anchor="middle" x="35.5" y="-150.5" font-family="Helvetica,sans-Serif" font-size="10.00">const GLint</text>
<polyline fill="none" stroke="#bfbfbf" points="0,-143.5 71,-143.5 "/>
<text text-anchor="middle" x="35.5" y="-131.5" font-family="Helvetica,sans-Serif" font-size="10.00"> </text>
<polyline fill="none" stroke="#bfbfbf" points="0,-124.5 71,-124.5 "/>
<text text-anchor="middle" x="35.5" y="-112.5" font-family="Helvetica,sans-Serif" font-size="10.00"> </text>
</a>
</g>
</g>
<!-- Node2&#45;&gt;Node1 -->
<g id="edge1" class="edge">
<title>Node2&#45;&gt;Node1</title>
<path fill="none" stroke="#404040" d="M71.22,-110.45C74.34,-108.58 77.47,-106.74 80.5,-105 104.47,-91.25 110.56,-87.91 135.5,-76 149.18,-69.47 164.02,-62.82 178.17,-56.68"/>
<polygon fill="none" stroke="#404040" points="178.31,-56.61 182.24,-50.57 189.34,-51.87 185.4,-57.92 178.31,-56.61"/>
<text text-anchor="middle" x="157.5" y="-79" font-family="Helvetica,sans-Serif" font-size="10.00"> +count_</text>
</g>
<!-- Node3 -->
<g id="node3" class="node">
<title>Node3</title>
<g id="a_node3"><a xlink:title=" ">
<polygon fill="white" stroke="#bfbfbf" points="89.5,-105.5 89.5,-162.5 175.5,-162.5 175.5,-105.5 89.5,-105.5"/>
<text text-anchor="middle" x="132.5" y="-150.5" font-family="Helvetica,sans-Serif" font-size="10.00">const GLenum</text>
<polyline fill="none" stroke="#bfbfbf" points="89.5,-143.5 175.5,-143.5 "/>
<text text-anchor="middle" x="132.5" y="-131.5" font-family="Helvetica,sans-Serif" font-size="10.00"> </text>
<polyline fill="none" stroke="#bfbfbf" points="89.5,-124.5 175.5,-124.5 "/>
<text text-anchor="middle" x="132.5" y="-112.5" font-family="Helvetica,sans-Serif" font-size="10.00"> </text>
</a>
</g>
</g>
<!-- Node3&#45;&gt;Node1 -->
<g id="edge2" class="edge">
<title>Node3&#45;&gt;Node1</title>
<path fill="none" stroke="#404040" d="M161.98,-105.4C174.92,-93.28 190.3,-78.88 204.12,-65.94"/>
<polygon fill="none" stroke="#404040" points="204.18,-65.88 205.83,-58.86 212.94,-57.68 211.29,-64.7 204.18,-65.88"/>
<text text-anchor="middle" x="210" y="-79" font-family="Helvetica,sans-Serif" font-size="10.00"> +type_</text>
</g>
<!-- Node4 -->
<g id="node4" class="node">
<title>Node4</title>
<g id="a_node4"><a xlink:title=" ">
<polygon fill="white" stroke="#bfbfbf" points="193.5,-105.5 193.5,-162.5 291.5,-162.5 291.5,-105.5 193.5,-105.5"/>
<text text-anchor="middle" x="242.5" y="-150.5" font-family="Helvetica,sans-Serif" font-size="10.00">const GLboolean</text>
<polyline fill="none" stroke="#bfbfbf" points="193.5,-143.5 291.5,-143.5 "/>
<text text-anchor="middle" x="242.5" y="-131.5" font-family="Helvetica,sans-Serif" font-size="10.00"> </text>
<polyline fill="none" stroke="#bfbfbf" points="193.5,-124.5 291.5,-124.5 "/>
<text text-anchor="middle" x="242.5" y="-112.5" font-family="Helvetica,sans-Serif" font-size="10.00"> </text>
</a>
</g>
</g>
<!-- Node4&#45;&gt;Node1 -->
<g id="edge3" class="edge">
<title>Node4&#45;&gt;Node1</title>
<path fill="none" stroke="#404040" d="M242.5,-105.4C242.5,-94.55 242.5,-81.87 242.5,-70.05"/>
<polygon fill="none" stroke="#404040" points="242.5,-69.68 238.5,-63.68 242.5,-57.68 246.5,-63.68 242.5,-69.68"/>
<text text-anchor="middle" x="278.5" y="-79" font-family="Helvetica,sans-Serif" font-size="10.00"> +normalised_</text>
</g>
<!-- Node5 -->
<g id="node5" class="node">
<title>Node5</title>
<g id="a_node5"><a xlink:title=" ">
<polygon fill="white" stroke="#bfbfbf" points="310,-105.5 310,-162.5 391,-162.5 391,-105.5 310,-105.5"/>
<text text-anchor="middle" x="350.5" y="-150.5" font-family="Helvetica,sans-Serif" font-size="10.00">const GLsizei</text>
<polyline fill="none" stroke="#bfbfbf" points="310,-143.5 391,-143.5 "/>
<text text-anchor="middle" x="350.5" y="-131.5" font-family="Helvetica,sans-Serif" font-size="10.00"> </text>
<polyline fill="none" stroke="#bfbfbf" points="310,-124.5 391,-124.5 "/>
<text text-anchor="middle" x="350.5" y="-112.5" font-family="Helvetica,sans-Serif" font-size="10.00"> </text>
</a>
</g>
</g>
<!-- Node5&#45;&gt;Node1 -->
<g id="edge4" class="edge">
<title>Node5&#45;&gt;Node1</title>
<path fill="none" stroke="#404040" d="M338.58,-105.26C333.4,-95.27 326.63,-84.4 318.5,-76 314.55,-71.92 310.17,-68.06 305.55,-64.45"/>
<polygon fill="none" stroke="#404040" points="305.53,-64.43 298.33,-64.14 295.83,-57.37 303.03,-57.67 305.53,-64.43"/>
<text text-anchor="middle" x="349.5" y="-79" font-family="Helvetica,sans-Serif" font-size="10.00"> +bytes_</text>
</g>
<!-- Node6 -->
<g id="node6" class="node">
<title>Node6</title>
<g id="a_node6"><a xlink:title=" ">
<polygon fill="white" stroke="#bfbfbf" points="409,-105.5 409,-162.5 518,-162.5 518,-105.5 409,-105.5"/>
<text text-anchor="middle" x="463.5" y="-150.5" font-family="Helvetica,sans-Serif" font-size="10.00">const vertex_attrib</text>
<polyline fill="none" stroke="#bfbfbf" points="409,-143.5 518,-143.5 "/>
<text text-anchor="middle" x="463.5" y="-131.5" font-family="Helvetica,sans-Serif" font-size="10.00"> </text>
<polyline fill="none" stroke="#bfbfbf" points="409,-124.5 518,-124.5 "/>
<text text-anchor="middle" x="463.5" y="-112.5" font-family="Helvetica,sans-Serif" font-size="10.00"> </text>
</a>
</g>
</g>
<!-- Node6&#45;&gt;Node1 -->
<g id="edge5" class="edge">
<title>Node6&#45;&gt;Node1</title>
<path fill="none" stroke="#404040" d="M425.26,-105.36C410.23,-95.26 392.51,-84.3 375.5,-76 354,-65.51 329.49,-56.32 307.42,-48.96"/>
<polygon fill="none" stroke="#404040" points="307.2,-48.89 300.26,-50.84 295.79,-45.18 302.74,-43.23 307.2,-48.89"/>
<text text-anchor="middle" x="417" y="-79" font-family="Helvetica,sans-Serif" font-size="10.00"> +attrib_</text>
</g>
</g>
</svg>
