<?xml version="1.0" encoding="UTF-8" standalone="no"?>
<!DOCTYPE svg PUBLIC "-//W3C//DTD SVG 1.1//EN"
 "http://www.w3.org/Graphics/SVG/1.1/DTD/svg11.dtd">
<!-- Generated by graphviz version 2.43.0 (0)
 -->
<!-- Title: mkr::render_mesh Pages: 1 -->
<svg width="1127pt" height="1342pt"
 viewBox="0.00 0.00 1126.50 1342.00" xmlns="http://www.w3.org/2000/svg" xmlns:xlink="http://www.w3.org/1999/xlink">
<g id="graph0" class="graph" transform="scale(1 1) rotate(0) translate(4 1338)">
<title>mkr::render_mesh</title>
<polygon fill="white" stroke="transparent" points="-4,4 -4,-1338 1122.5,-1338 1122.5,4 -4,4"/>
<!-- Node1 -->
<g id="node1" class="node">
<title>Node1</title>
<g id="a_node1"><a xlink:title=" ">
<polygon fill="#bfbfbf" stroke="black" points="237.5,-0.5 237.5,-57.5 343.5,-57.5 343.5,-0.5 237.5,-0.5"/>
<text text-anchor="middle" x="290.5" y="-45.5" font-family="Helvetica,sans-Serif" font-size="10.00">mkr::render_mesh</text>
<polyline fill="none" stroke="black" points="237.5,-38.5 343.5,-38.5 "/>
<text text-anchor="middle" x="290.5" y="-26.5" font-family="Helvetica,sans-Serif" font-size="10.00"> </text>
<polyline fill="none" stroke="black" points="237.5,-19.5 343.5,-19.5 "/>
<text text-anchor="middle" x="290.5" y="-7.5" font-family="Helvetica,sans-Serif" font-size="10.00"> </text>
</a>
</g>
</g>
<!-- Node2 -->
<g id="node2" class="node">
<title>Node2</title>
<g id="a_node2"><a xlink:href="classmkr_1_1mesh.html" target="_top" xlink:title=" ">
<polygon fill="white" stroke="black" points="212.5,-781 212.5,-904 336.5,-904 336.5,-781 212.5,-781"/>
<text text-anchor="middle" x="274.5" y="-892" font-family="Helvetica,sans-Serif" font-size="10.00">mkr::mesh</text>
<polyline fill="none" stroke="black" points="212.5,-885 336.5,-885 "/>
<text text-anchor="middle" x="274.5" y="-873" font-family="Helvetica,sans-Serif" font-size="10.00"> </text>
<polyline fill="none" stroke="black" points="212.5,-866 336.5,-866 "/>
<text text-anchor="start" x="220.5" y="-854" font-family="Helvetica,sans-Serif" font-size="10.00">+ mesh()</text>
<text text-anchor="start" x="220.5" y="-843" font-family="Helvetica,sans-Serif" font-size="10.00">+ ~mesh()</text>
<text text-anchor="start" x="220.5" y="-832" font-family="Helvetica,sans-Serif" font-size="10.00">+ name()</text>
<text text-anchor="start" x="220.5" y="-821" font-family="Helvetica,sans-Serif" font-size="10.00">+ indices()</text>
<text text-anchor="start" x="220.5" y="-810" font-family="Helvetica,sans-Serif" font-size="10.00">+ num_indices()</text>
<text text-anchor="start" x="220.5" y="-799" font-family="Helvetica,sans-Serif" font-size="10.00">+ bind()</text>
<text text-anchor="start" x="220.5" y="-788" font-family="Helvetica,sans-Serif" font-size="10.00">+ set_instance_data()</text>
</a>
</g>
</g>
<!-- Node2&#45;&gt;Node1 -->
<g id="edge1" class="edge">
<title>Node2&#45;&gt;Node1</title>
<path fill="none" stroke="#404040" d="M272.75,-780.56C269.86,-665.47 265.34,-408.26 275.5,-192 277.46,-150.28 282.16,-102.71 285.78,-69.96"/>
<polygon fill="none" stroke="#404040" points="285.81,-69.68 282.51,-63.27 287.16,-57.75 290.46,-64.16 285.81,-69.68"/>
<text text-anchor="middle" x="297.5" y="-222.5" font-family="Helvetica,sans-Serif" font-size="10.00"> +mesh_</text>
</g>
<!-- Node3 -->
<g id="node3" class="node">
<title>Node3</title>
<g id="a_node3"><a xlink:title=" ">
<polygon fill="white" stroke="#bfbfbf" points="0,-1276.5 0,-1333.5 127,-1333.5 127,-1276.5 0,-1276.5"/>
<text text-anchor="middle" x="63.5" y="-1321.5" font-family="Helvetica,sans-Serif" font-size="10.00">vector&lt; mkr::vertex &gt;</text>
<polyline fill="none" stroke="#bfbfbf" points="0,-1314.5 127,-1314.5 "/>
<text text-anchor="middle" x="63.5" y="-1302.5" font-family="Helvetica,sans-Serif" font-size="10.00"> </text>
<polyline fill="none" stroke="#bfbfbf" points="0,-1295.5 127,-1295.5 "/>
<text text-anchor="middle" x="63.5" y="-1283.5" font-family="Helvetica,sans-Serif" font-size="10.00"> </text>
</a>
</g>
</g>
<!-- Node3&#45;&gt;Node2 -->
<g id="edge2" class="edge">
<title>Node3&#45;&gt;Node2</title>
<path fill="none" stroke="#404040" d="M76.22,-1276.23C108.46,-1205.87 194.15,-1018.86 241.65,-915.19"/>
<polygon fill="none" stroke="#404040" points="241.69,-915.11 240.55,-907.99 246.69,-904.2 247.82,-911.33 241.69,-915.11"/>
<text text-anchor="middle" x="120" y="-1244.5" font-family="Helvetica,sans-Serif" font-size="10.00"> &#45;vertices_</text>
</g>
<!-- Node4 -->
<g id="node4" class="node">
<title>Node4</title>
<g id="a_node4"><a xlink:title=" ">
<polygon fill="white" stroke="#bfbfbf" points="145.5,-1276.5 145.5,-1333.5 255.5,-1333.5 255.5,-1276.5 145.5,-1276.5"/>
<text text-anchor="middle" x="200.5" y="-1321.5" font-family="Helvetica,sans-Serif" font-size="10.00">vector&lt; uint32_t &gt;</text>
<polyline fill="none" stroke="#bfbfbf" points="145.5,-1314.5 255.5,-1314.5 "/>
<text text-anchor="middle" x="200.5" y="-1302.5" font-family="Helvetica,sans-Serif" font-size="10.00"> </text>
<polyline fill="none" stroke="#bfbfbf" points="145.5,-1295.5 255.5,-1295.5 "/>
<text text-anchor="middle" x="200.5" y="-1283.5" font-family="Helvetica,sans-Serif" font-size="10.00"> </text>
</a>
</g>
</g>
<!-- Node4&#45;&gt;Node2 -->
<g id="edge3" class="edge">
<title>Node4&#45;&gt;Node2</title>
<path fill="none" stroke="#404040" d="M204.96,-1276.23C216.23,-1206.09 246.14,-1019.99 262.83,-916.14"/>
<polygon fill="none" stroke="#404040" points="262.84,-916.05 259.84,-909.49 264.75,-904.2 267.74,-910.76 262.84,-916.05"/>
<text text-anchor="middle" x="235" y="-1244.5" font-family="Helvetica,sans-Serif" font-size="10.00"> &#45;indices_</text>
</g>
<!-- Node5 -->
<g id="node5" class="node">
<title>Node5</title>
<g id="a_node5"><a xlink:title=" ">
<polygon fill="white" stroke="#bfbfbf" points="273.5,-1276.5 273.5,-1333.5 407.5,-1333.5 407.5,-1276.5 273.5,-1276.5"/>
<text text-anchor="middle" x="340.5" y="-1321.5" font-family="Helvetica,sans-Serif" font-size="10.00">unique_ptr&lt; mkr::vao &gt;</text>
<polyline fill="none" stroke="#bfbfbf" points="273.5,-1314.5 407.5,-1314.5 "/>
<text text-anchor="middle" x="340.5" y="-1302.5" font-family="Helvetica,sans-Serif" font-size="10.00"> </text>
<polyline fill="none" stroke="#bfbfbf" points="273.5,-1295.5 407.5,-1295.5 "/>
<text text-anchor="middle" x="340.5" y="-1283.5" font-family="Helvetica,sans-Serif" font-size="10.00"> </text>
</a>
</g>
</g>
<!-- Node5&#45;&gt;Node2 -->
<g id="edge4" class="edge">
<title>Node5&#45;&gt;Node2</title>
<path fill="none" stroke="#404040" d="M336.52,-1276.23C326.47,-1206.09 299.8,-1019.99 284.91,-916.14"/>
<polygon fill="none" stroke="#404040" points="284.9,-916.08 280.09,-910.71 283.2,-904.2 288.01,-909.58 284.9,-916.08"/>
<text text-anchor="middle" x="349.5" y="-1244.5" font-family="Helvetica,sans-Serif" font-size="10.00"> &#45;vao_</text>
</g>
<!-- Node6 -->
<g id="node6" class="node">
<title>Node6</title>
<g id="a_node6"><a xlink:title=" ">
<polygon fill="white" stroke="#bfbfbf" points="425.5,-1276.5 425.5,-1333.5 469.5,-1333.5 469.5,-1276.5 425.5,-1276.5"/>
<text text-anchor="middle" x="447.5" y="-1321.5" font-family="Helvetica,sans-Serif" font-size="10.00">string</text>
<polyline fill="none" stroke="#bfbfbf" points="425.5,-1314.5 469.5,-1314.5 "/>
<text text-anchor="middle" x="447.5" y="-1302.5" font-family="Helvetica,sans-Serif" font-size="10.00"> </text>
<polyline fill="none" stroke="#bfbfbf" points="425.5,-1295.5 469.5,-1295.5 "/>
<text text-anchor="middle" x="447.5" y="-1283.5" font-family="Helvetica,sans-Serif" font-size="10.00"> </text>
</a>
</g>
</g>
<!-- Node6&#45;&gt;Node2 -->
<g id="edge5" class="edge">
<title>Node6&#45;&gt;Node2</title>
<path fill="none" stroke="#404040" d="M425.53,-1276.13C421.53,-1270.33 417.64,-1264.12 414.5,-1258 356.11,-1144.19 313.96,-1000.75 291.95,-915.91"/>
<polygon fill="none" stroke="#404040" points="291.9,-915.71 286.53,-910.89 288.91,-904.08 294.28,-908.9 291.9,-915.71"/>
<text text-anchor="middle" x="434.5" y="-1244.5" font-family="Helvetica,sans-Serif" font-size="10.00"> &#45;name_</text>
</g>
<!-- Node9 -->
<g id="node9" class="node">
<title>Node9</title>
<g id="a_node9"><a xlink:href="classmkr_1_1texture.html" target="_top" xlink:title=" ">
<polygon fill="white" stroke="black" points="795.5,-775.5 795.5,-909.5 905.5,-909.5 905.5,-775.5 795.5,-775.5"/>
<text text-anchor="middle" x="850.5" y="-897.5" font-family="Helvetica,sans-Serif" font-size="10.00">mkr::texture</text>
<polyline fill="none" stroke="black" points="795.5,-890.5 905.5,-890.5 "/>
<text text-anchor="middle" x="850.5" y="-878.5" font-family="Helvetica,sans-Serif" font-size="10.00"> </text>
<polyline fill="none" stroke="black" points="795.5,-871.5 905.5,-871.5 "/>
<text text-anchor="start" x="803.5" y="-859.5" font-family="Helvetica,sans-Serif" font-size="10.00">+ ~texture()</text>
<text text-anchor="start" x="803.5" y="-848.5" font-family="Helvetica,sans-Serif" font-size="10.00">+ name()</text>
<text text-anchor="start" x="803.5" y="-837.5" font-family="Helvetica,sans-Serif" font-size="10.00">+ width()</text>
<text text-anchor="start" x="803.5" y="-826.5" font-family="Helvetica,sans-Serif" font-size="10.00">+ height()</text>
<text text-anchor="start" x="803.5" y="-815.5" font-family="Helvetica,sans-Serif" font-size="10.00">+ handle()</text>
<text text-anchor="start" x="803.5" y="-804.5" font-family="Helvetica,sans-Serif" font-size="10.00">+ bind()</text>
<text text-anchor="start" x="803.5" y="-793.5" font-family="Helvetica,sans-Serif" font-size="10.00"># texture()</text>
<text text-anchor="start" x="803.5" y="-782.5" font-family="Helvetica,sans-Serif" font-size="10.00"># mip_map_level()</text>
</a>
</g>
</g>
<!-- Node6&#45;&gt;Node9 -->
<g id="edge10" class="edge">
<title>Node6&#45;&gt;Node9</title>
<path fill="none" stroke="#404040" d="M469.71,-1281.14C472.5,-1279.14 475.46,-1277.36 478.5,-1276 546.63,-1245.49 584.29,-1300.73 645.5,-1258 704.65,-1216.71 781.77,-1029.14 822.49,-921.01"/>
<polygon fill="none" stroke="#404040" points="822.58,-920.75 820.94,-913.73 826.79,-909.51 828.43,-916.53 822.58,-920.75"/>
<text text-anchor="middle" x="688" y="-1244.5" font-family="Helvetica,sans-Serif" font-size="10.00"> #name_</text>
</g>
<!-- Node16 -->
<g id="node16" class="node">
<title>Node16</title>
<g id="a_node16"><a xlink:href="classmkr_1_1shader__program.html" target="_top" xlink:title=" ">
<polygon fill="white" stroke="black" points="480,-467.5 480,-1217.5 619,-1217.5 619,-467.5 480,-467.5"/>
<text text-anchor="middle" x="549.5" y="-1205.5" font-family="Helvetica,sans-Serif" font-size="10.00">mkr::shader_program</text>
<polyline fill="none" stroke="black" points="480,-1198.5 619,-1198.5 "/>
<text text-anchor="middle" x="549.5" y="-1186.5" font-family="Helvetica,sans-Serif" font-size="10.00"> </text>
<polyline fill="none" stroke="black" points="480,-1179.5 619,-1179.5 "/>
<text text-anchor="start" x="488" y="-1167.5" font-family="Helvetica,sans-Serif" font-size="10.00">+ shader_program()</text>
<text text-anchor="start" x="488" y="-1156.5" font-family="Helvetica,sans-Serif" font-size="10.00">+ shader_program()</text>
<text text-anchor="start" x="488" y="-1145.5" font-family="Helvetica,sans-Serif" font-size="10.00">+ ~shader_program()</text>
<text text-anchor="start" x="488" y="-1134.5" font-family="Helvetica,sans-Serif" font-size="10.00">+ name()</text>
<text text-anchor="start" x="488" y="-1123.5" font-family="Helvetica,sans-Serif" font-size="10.00">+ use()</text>
<text text-anchor="start" x="488" y="-1112.5" font-family="Helvetica,sans-Serif" font-size="10.00">+ set_uniform()</text>
<text text-anchor="start" x="488" y="-1101.5" font-family="Helvetica,sans-Serif" font-size="10.00">+ set_uniform()</text>
<text text-anchor="start" x="488" y="-1090.5" font-family="Helvetica,sans-Serif" font-size="10.00">+ set_uniform()</text>
<text text-anchor="start" x="488" y="-1079.5" font-family="Helvetica,sans-Serif" font-size="10.00">+ set_uniform()</text>
<text text-anchor="start" x="488" y="-1068.5" font-family="Helvetica,sans-Serif" font-size="10.00">+ set_uniform()</text>
<text text-anchor="start" x="488" y="-1057.5" font-family="Helvetica,sans-Serif" font-size="10.00">+ set_uniform()</text>
<text text-anchor="start" x="488" y="-1046.5" font-family="Helvetica,sans-Serif" font-size="10.00">+ set_uniform()</text>
<text text-anchor="start" x="488" y="-1035.5" font-family="Helvetica,sans-Serif" font-size="10.00">+ set_uniform()</text>
<text text-anchor="start" x="488" y="-1024.5" font-family="Helvetica,sans-Serif" font-size="10.00">+ set_uniform()</text>
<text text-anchor="start" x="488" y="-1013.5" font-family="Helvetica,sans-Serif" font-size="10.00">+ set_uniform()</text>
<text text-anchor="start" x="488" y="-1002.5" font-family="Helvetica,sans-Serif" font-size="10.00">+ set_uniform()</text>
<text text-anchor="start" x="488" y="-991.5" font-family="Helvetica,sans-Serif" font-size="10.00">+ set_uniform()</text>
<text text-anchor="start" x="488" y="-980.5" font-family="Helvetica,sans-Serif" font-size="10.00">+ set_uniform()</text>
<text text-anchor="start" x="488" y="-969.5" font-family="Helvetica,sans-Serif" font-size="10.00">+ set_uniform()</text>
<text text-anchor="start" x="488" y="-958.5" font-family="Helvetica,sans-Serif" font-size="10.00">+ set_uniform()</text>
<text text-anchor="start" x="488" y="-947.5" font-family="Helvetica,sans-Serif" font-size="10.00">+ set_uniform()</text>
<text text-anchor="start" x="488" y="-936.5" font-family="Helvetica,sans-Serif" font-size="10.00">+ set_uniform()</text>
<text text-anchor="start" x="488" y="-925.5" font-family="Helvetica,sans-Serif" font-size="10.00">+ set_uniform()</text>
<text text-anchor="start" x="488" y="-914.5" font-family="Helvetica,sans-Serif" font-size="10.00">+ set_uniform()</text>
<text text-anchor="start" x="488" y="-903.5" font-family="Helvetica,sans-Serif" font-size="10.00">+ set_uniform()</text>
<text text-anchor="start" x="488" y="-892.5" font-family="Helvetica,sans-Serif" font-size="10.00">+ set_uniform()</text>
<text text-anchor="start" x="488" y="-881.5" font-family="Helvetica,sans-Serif" font-size="10.00">+ set_uniform()</text>
<text text-anchor="start" x="488" y="-870.5" font-family="Helvetica,sans-Serif" font-size="10.00">+ set_uniform()</text>
<text text-anchor="start" x="488" y="-859.5" font-family="Helvetica,sans-Serif" font-size="10.00">+ set_uniform()</text>
<text text-anchor="start" x="488" y="-848.5" font-family="Helvetica,sans-Serif" font-size="10.00">+ set_uniform()</text>
<text text-anchor="start" x="488" y="-837.5" font-family="Helvetica,sans-Serif" font-size="10.00">+ set_uniform()</text>
<text text-anchor="start" x="488" y="-826.5" font-family="Helvetica,sans-Serif" font-size="10.00">+ set_uniform()</text>
<text text-anchor="start" x="488" y="-815.5" font-family="Helvetica,sans-Serif" font-size="10.00">+ set_uniform()</text>
<text text-anchor="start" x="488" y="-804.5" font-family="Helvetica,sans-Serif" font-size="10.00">+ set_uniform()</text>
<text text-anchor="start" x="488" y="-793.5" font-family="Helvetica,sans-Serif" font-size="10.00">+ set_uniform()</text>
<text text-anchor="start" x="488" y="-782.5" font-family="Helvetica,sans-Serif" font-size="10.00">+ set_uniform()</text>
<text text-anchor="start" x="488" y="-771.5" font-family="Helvetica,sans-Serif" font-size="10.00">+ set_uniform()</text>
<text text-anchor="start" x="488" y="-760.5" font-family="Helvetica,sans-Serif" font-size="10.00">+ set_uniform()</text>
<text text-anchor="start" x="488" y="-749.5" font-family="Helvetica,sans-Serif" font-size="10.00">+ set_uniform()</text>
<text text-anchor="start" x="488" y="-738.5" font-family="Helvetica,sans-Serif" font-size="10.00">+ set_uniform()</text>
<text text-anchor="start" x="488" y="-727.5" font-family="Helvetica,sans-Serif" font-size="10.00">+ set_uniform()</text>
<text text-anchor="start" x="488" y="-716.5" font-family="Helvetica,sans-Serif" font-size="10.00">+ set_uniform()</text>
<text text-anchor="start" x="488" y="-705.5" font-family="Helvetica,sans-Serif" font-size="10.00">+ set_uniform()</text>
<text text-anchor="start" x="488" y="-694.5" font-family="Helvetica,sans-Serif" font-size="10.00">+ set_uniform()</text>
<text text-anchor="start" x="488" y="-683.5" font-family="Helvetica,sans-Serif" font-size="10.00">+ set_uniform()</text>
<text text-anchor="start" x="488" y="-672.5" font-family="Helvetica,sans-Serif" font-size="10.00">+ set_uniform()</text>
<text text-anchor="start" x="488" y="-661.5" font-family="Helvetica,sans-Serif" font-size="10.00">+ set_uniform()</text>
<text text-anchor="start" x="488" y="-650.5" font-family="Helvetica,sans-Serif" font-size="10.00">+ set_uniform()</text>
<text text-anchor="start" x="488" y="-639.5" font-family="Helvetica,sans-Serif" font-size="10.00">+ set_uniform()</text>
<text text-anchor="start" x="488" y="-628.5" font-family="Helvetica,sans-Serif" font-size="10.00">+ set_uniform()</text>
<text text-anchor="start" x="488" y="-617.5" font-family="Helvetica,sans-Serif" font-size="10.00">+ set_uniform()</text>
<text text-anchor="start" x="488" y="-606.5" font-family="Helvetica,sans-Serif" font-size="10.00">+ set_uniform()</text>
<text text-anchor="start" x="488" y="-595.5" font-family="Helvetica,sans-Serif" font-size="10.00">+ set_uniform()</text>
<text text-anchor="start" x="488" y="-584.5" font-family="Helvetica,sans-Serif" font-size="10.00">+ set_uniform()</text>
<text text-anchor="start" x="488" y="-573.5" font-family="Helvetica,sans-Serif" font-size="10.00">+ set_uniform()</text>
<text text-anchor="start" x="488" y="-562.5" font-family="Helvetica,sans-Serif" font-size="10.00">+ set_uniform()</text>
<text text-anchor="start" x="488" y="-551.5" font-family="Helvetica,sans-Serif" font-size="10.00">+ set_uniform()</text>
<text text-anchor="start" x="488" y="-540.5" font-family="Helvetica,sans-Serif" font-size="10.00">+ set_uniform()</text>
<text text-anchor="start" x="488" y="-529.5" font-family="Helvetica,sans-Serif" font-size="10.00">+ set_uniform()</text>
<text text-anchor="start" x="488" y="-518.5" font-family="Helvetica,sans-Serif" font-size="10.00">+ set_uniform()</text>
<text text-anchor="start" x="488" y="-507.5" font-family="Helvetica,sans-Serif" font-size="10.00">+ set_uniform()</text>
<text text-anchor="start" x="488" y="-496.5" font-family="Helvetica,sans-Serif" font-size="10.00"># get_uniform_location()</text>
<text text-anchor="start" x="488" y="-485.5" font-family="Helvetica,sans-Serif" font-size="10.00"># get_attrib_location()</text>
<text text-anchor="start" x="488" y="-474.5" font-family="Helvetica,sans-Serif" font-size="10.00"># create_shader()</text>
</a>
</g>
</g>
<!-- Node6&#45;&gt;Node16 -->
<g id="edge18" class="edge">
<title>Node6&#45;&gt;Node16</title>
<path fill="none" stroke="#404040" d="M453.65,-1276.23C459.05,-1251.87 467.54,-1213.51 477.3,-1169.47"/>
<polygon fill="none" stroke="#404040" points="477.35,-1169.25 474.74,-1162.52 479.94,-1157.53 482.55,-1164.25 477.35,-1169.25"/>
<text text-anchor="middle" x="485" y="-1244.5" font-family="Helvetica,sans-Serif" font-size="10.00"> #name_</text>
</g>
<!-- Node7 -->
<g id="node7" class="node">
<title>Node7</title>
<g id="a_node7"><a xlink:href="classmkr_1_1material.html" target="_top" xlink:title=" ">
<polygon fill="white" stroke="black" points="568,-105.5 568,-173.5 653,-173.5 653,-105.5 568,-105.5"/>
<text text-anchor="middle" x="610.5" y="-161.5" font-family="Helvetica,sans-Serif" font-size="10.00">mkr::material</text>
<polyline fill="none" stroke="black" points="568,-154.5 653,-154.5 "/>
<text text-anchor="middle" x="610.5" y="-142.5" font-family="Helvetica,sans-Serif" font-size="10.00"> </text>
<polyline fill="none" stroke="black" points="568,-135.5 653,-135.5 "/>
<text text-anchor="start" x="576" y="-123.5" font-family="Helvetica,sans-Serif" font-size="10.00">+ material()</text>
<text text-anchor="start" x="576" y="-112.5" font-family="Helvetica,sans-Serif" font-size="10.00">+ ~material()</text>
</a>
</g>
</g>
<!-- Node7&#45;&gt;Node1 -->
<g id="edge6" class="edge">
<title>Node7&#45;&gt;Node1</title>
<path fill="none" stroke="#404040" d="M567.68,-123.98C513.16,-105.5 418.48,-73.39 355.16,-51.92"/>
<polygon fill="none" stroke="#404040" points="355.08,-51.9 348.12,-53.76 343.72,-48.05 350.69,-46.18 355.08,-51.9"/>
<text text-anchor="middle" x="479.5" y="-79" font-family="Helvetica,sans-Serif" font-size="10.00"> +material_</text>
</g>
<!-- Node8 -->
<g id="node8" class="node">
<title>Node8</title>
<g id="a_node8"><a xlink:href="classmkr_1_1texture2d.html" target="_top" xlink:title=" ">
<polygon fill="white" stroke="black" points="754,-313.5 754,-392.5 845,-392.5 845,-313.5 754,-313.5"/>
<text text-anchor="middle" x="799.5" y="-380.5" font-family="Helvetica,sans-Serif" font-size="10.00">mkr::texture2d</text>
<polyline fill="none" stroke="black" points="754,-373.5 845,-373.5 "/>
<text text-anchor="middle" x="799.5" y="-361.5" font-family="Helvetica,sans-Serif" font-size="10.00"> </text>
<polyline fill="none" stroke="black" points="754,-354.5 845,-354.5 "/>
<text text-anchor="start" x="762" y="-342.5" font-family="Helvetica,sans-Serif" font-size="10.00">+ texture2d()</text>
<text text-anchor="start" x="762" y="-331.5" font-family="Helvetica,sans-Serif" font-size="10.00">+ texture2d()</text>
<text text-anchor="start" x="762" y="-320.5" font-family="Helvetica,sans-Serif" font-size="10.00">+ ~texture2d()</text>
</a>
</g>
</g>
<!-- Node8&#45;&gt;Node7 -->
<g id="edge7" class="edge">
<title>Node8&#45;&gt;Node7</title>
<path fill="none" stroke="#404040" d="M784.35,-313.23C777.81,-296.31 770.16,-276.22 763.5,-258 752.83,-228.83 762,-214.42 740.5,-192 720.39,-171.03 690.68,-158.41 664.73,-150.92"/>
<polygon fill="none" stroke="#404040" points="664.71,-150.92 657.89,-153.24 653.12,-147.83 659.95,-145.51 664.71,-150.92"/>
<text text-anchor="middle" x="821" y="-250" font-family="Helvetica,sans-Serif" font-size="10.00"> +texture_diffuse_</text>
<text text-anchor="start" x="763.5" y="-239" font-family="Helvetica,sans-Serif" font-size="10.00">+texture_displacement</text>
<text text-anchor="middle" x="821" y="-228" font-family="Helvetica,sans-Serif" font-size="10.00">_</text>
<text text-anchor="start" x="763.5" y="-217" font-family="Helvetica,sans-Serif" font-size="10.00">+texture_normal</text>
<text text-anchor="middle" x="821" y="-206" font-family="Helvetica,sans-Serif" font-size="10.00">_</text>
<text text-anchor="middle" x="821" y="-195" font-family="Helvetica,sans-Serif" font-size="10.00">+texture_specular_</text>
</g>
<!-- Node9&#45;&gt;Node8 -->
<g id="edge8" class="edge">
<title>Node9&#45;&gt;Node8</title>
<path fill="none" stroke="midnightblue" d="M842.53,-765.29C831.48,-659.73 811.94,-472.96 803.53,-392.57"/>
<polygon fill="none" stroke="midnightblue" points="839.05,-765.66 843.57,-775.25 846.01,-764.94 839.05,-765.66"/>
</g>
<!-- Node10 -->
<g id="node10" class="node">
<title>Node10</title>
<g id="a_node10"><a xlink:title=" ">
<polygon fill="white" stroke="#bfbfbf" points="900.5,-1276.5 900.5,-1333.5 956.5,-1333.5 956.5,-1276.5 900.5,-1276.5"/>
<text text-anchor="middle" x="928.5" y="-1321.5" font-family="Helvetica,sans-Serif" font-size="10.00">uint32_t</text>
<polyline fill="none" stroke="#bfbfbf" points="900.5,-1314.5 956.5,-1314.5 "/>
<text text-anchor="middle" x="928.5" y="-1302.5" font-family="Helvetica,sans-Serif" font-size="10.00"> </text>
<polyline fill="none" stroke="#bfbfbf" points="900.5,-1295.5 956.5,-1295.5 "/>
<text text-anchor="middle" x="928.5" y="-1283.5" font-family="Helvetica,sans-Serif" font-size="10.00"> </text>
</a>
</g>
</g>
<!-- Node10&#45;&gt;Node9 -->
<g id="edge9" class="edge">
<title>Node10&#45;&gt;Node9</title>
<path fill="none" stroke="#404040" d="M923.8,-1276.23C912.12,-1207.3 881.48,-1026.41 863.73,-921.61"/>
<polygon fill="none" stroke="#404040" points="863.69,-921.37 858.74,-916.12 861.69,-909.54 866.63,-914.78 863.69,-921.37"/>
<text text-anchor="middle" x="943.5" y="-1250" font-family="Helvetica,sans-Serif" font-size="10.00"> #height_</text>
<text text-anchor="middle" x="943.5" y="-1239" font-family="Helvetica,sans-Serif" font-size="10.00">#width_</text>
</g>
<!-- Node11 -->
<g id="node11" class="node">
<title>Node11</title>
<g id="a_node11"><a xlink:title=" ">
<polygon fill="white" stroke="#bfbfbf" points="771.5,-1276.5 771.5,-1333.5 819.5,-1333.5 819.5,-1276.5 771.5,-1276.5"/>
<text text-anchor="middle" x="795.5" y="-1321.5" font-family="Helvetica,sans-Serif" font-size="10.00">GLuint</text>
<polyline fill="none" stroke="#bfbfbf" points="771.5,-1314.5 819.5,-1314.5 "/>
<text text-anchor="middle" x="795.5" y="-1302.5" font-family="Helvetica,sans-Serif" font-size="10.00"> </text>
<polyline fill="none" stroke="#bfbfbf" points="771.5,-1295.5 819.5,-1295.5 "/>
<text text-anchor="middle" x="795.5" y="-1283.5" font-family="Helvetica,sans-Serif" font-size="10.00"> </text>
</a>
</g>
</g>
<!-- Node11&#45;&gt;Node9 -->
<g id="edge11" class="edge">
<title>Node11&#45;&gt;Node9</title>
<path fill="none" stroke="#404040" d="M819.7,-1280.61C825.23,-1273.87 830.39,-1266.13 833.5,-1258 875.95,-1147.14 870.79,-1007.21 861.72,-921.6"/>
<polygon fill="none" stroke="#404040" points="861.72,-921.56 857.08,-916.04 860.39,-909.63 865.03,-915.15 861.72,-921.56"/>
<text text-anchor="middle" x="865.5" y="-1244.5" font-family="Helvetica,sans-Serif" font-size="10.00"> #handle_</text>
</g>
<!-- Node11&#45;&gt;Node16 -->
<g id="edge19" class="edge">
<title>Node11&#45;&gt;Node16</title>
<path fill="none" stroke="#404040" d="M771.23,-1290.55C758.39,-1282.46 743.12,-1271.19 732.5,-1258 687.73,-1202.4 651.7,-1134.13 623.85,-1069.16"/>
<polygon fill="none" stroke="#404040" points="623.77,-1068.98 617.75,-1065.01 619.09,-1057.92 625.11,-1061.89 623.77,-1068.98"/>
<text text-anchor="middle" x="781" y="-1244.5" font-family="Helvetica,sans-Serif" font-size="10.00"> #program_handle_</text>
</g>
<!-- Node12 -->
<g id="node12" class="node">
<title>Node12</title>
<g id="a_node12"><a xlink:title=" ">
<polygon fill="white" stroke="#bfbfbf" points="863,-324.5 863,-381.5 938,-381.5 938,-324.5 863,-324.5"/>
<text text-anchor="middle" x="900.5" y="-369.5" font-family="Helvetica,sans-Serif" font-size="10.00">render_path</text>
<polyline fill="none" stroke="#bfbfbf" points="863,-362.5 938,-362.5 "/>
<text text-anchor="middle" x="900.5" y="-350.5" font-family="Helvetica,sans-Serif" font-size="10.00"> </text>
<polyline fill="none" stroke="#bfbfbf" points="863,-343.5 938,-343.5 "/>
<text text-anchor="middle" x="900.5" y="-331.5" font-family="Helvetica,sans-Serif" font-size="10.00"> </text>
</a>
</g>
</g>
<!-- Node12&#45;&gt;Node7 -->
<g id="edge12" class="edge">
<title>Node12&#45;&gt;Node7</title>
<path fill="none" stroke="#404040" d="M900.45,-324.26C899.77,-283.57 896.06,-210.52 878.5,-192 849.94,-161.88 734.91,-148.86 665.17,-143.65"/>
<polygon fill="none" stroke="#404040" points="665.1,-143.64 658.83,-147.21 653.13,-142.79 659.4,-139.23 665.1,-143.64"/>
<text text-anchor="middle" x="933.5" y="-222.5" font-family="Helvetica,sans-Serif" font-size="10.00"> +render_path_</text>
</g>
<!-- Node13 -->
<g id="node13" class="node">
<title>Node13</title>
<g id="a_node13"><a xlink:title=" ">
<polygon fill="white" stroke="#bfbfbf" points="980.5,-324.5 980.5,-381.5 1018.5,-381.5 1018.5,-324.5 980.5,-324.5"/>
<text text-anchor="middle" x="999.5" y="-369.5" font-family="Helvetica,sans-Serif" font-size="10.00">float</text>
<polyline fill="none" stroke="#bfbfbf" points="980.5,-362.5 1018.5,-362.5 "/>
<text text-anchor="middle" x="999.5" y="-350.5" font-family="Helvetica,sans-Serif" font-size="10.00"> </text>
<polyline fill="none" stroke="#bfbfbf" points="980.5,-343.5 1018.5,-343.5 "/>
<text text-anchor="middle" x="999.5" y="-331.5" font-family="Helvetica,sans-Serif" font-size="10.00"> </text>
</a>
</g>
</g>
<!-- Node13&#45;&gt;Node7 -->
<g id="edge13" class="edge">
<title>Node13&#45;&gt;Node7</title>
<path fill="none" stroke="#404040" d="M1004.3,-324.48C1008.81,-288.67 1010.41,-226.61 975.5,-192 932.85,-149.72 756.57,-141.75 665.51,-140.51"/>
<polygon fill="none" stroke="#404040" points="665.25,-140.51 659.21,-144.44 653.25,-140.38 659.29,-136.44 665.25,-140.51"/>
<text text-anchor="middle" x="1061.5" y="-222.5" font-family="Helvetica,sans-Serif" font-size="10.00"> +displacement_scale_</text>
</g>
<!-- Node14 -->
<g id="node14" class="node">
<title>Node14</title>
<g id="a_node14"><a xlink:title=" ">
<polygon fill="white" stroke="#bfbfbf" points="315,-324.5 315,-381.5 368,-381.5 368,-324.5 315,-324.5"/>
<text text-anchor="middle" x="341.5" y="-369.5" font-family="Helvetica,sans-Serif" font-size="10.00">vector2</text>
<polyline fill="none" stroke="#bfbfbf" points="315,-362.5 368,-362.5 "/>
<text text-anchor="middle" x="341.5" y="-350.5" font-family="Helvetica,sans-Serif" font-size="10.00"> </text>
<polyline fill="none" stroke="#bfbfbf" points="315,-343.5 368,-343.5 "/>
<text text-anchor="middle" x="341.5" y="-331.5" font-family="Helvetica,sans-Serif" font-size="10.00"> </text>
</a>
</g>
</g>
<!-- Node14&#45;&gt;Node7 -->
<g id="edge14" class="edge">
<title>Node14&#45;&gt;Node7</title>
<path fill="none" stroke="#404040" d="M332.36,-324.38C322.65,-289.32 312.58,-228.98 343.5,-192 370.07,-160.23 485.65,-147.81 555.74,-143.15"/>
<polygon fill="none" stroke="#404040" points="555.87,-143.14 561.61,-138.77 567.84,-142.39 562.11,-146.76 555.87,-143.14"/>
<text text-anchor="middle" x="386" y="-228" font-family="Helvetica,sans-Serif" font-size="10.00"> +texture_offset_</text>
<text text-anchor="middle" x="386" y="-217" font-family="Helvetica,sans-Serif" font-size="10.00">+texture_scale_</text>
</g>
<!-- Node15 -->
<g id="node15" class="node">
<title>Node15</title>
<g id="a_node15"><a xlink:title=" ">
<polygon fill="white" stroke="#bfbfbf" points="391,-319 391,-387 508,-387 508,-319 391,-319"/>
<text text-anchor="start" x="399" y="-375" font-family="Helvetica,sans-Serif" font-size="10.00">vector&lt; mkr::shader</text>
<text text-anchor="middle" x="449.5" y="-364" font-family="Helvetica,sans-Serif" font-size="10.00">_program * &gt;</text>
<polyline fill="none" stroke="#bfbfbf" points="391,-357 508,-357 "/>
<text text-anchor="middle" x="449.5" y="-345" font-family="Helvetica,sans-Serif" font-size="10.00"> </text>
<polyline fill="none" stroke="#bfbfbf" points="391,-338 508,-338 "/>
<text text-anchor="middle" x="449.5" y="-326" font-family="Helvetica,sans-Serif" font-size="10.00"> </text>
</a>
</g>
</g>
<!-- Node15&#45;&gt;Node7 -->
<g id="edge15" class="edge">
<title>Node15&#45;&gt;Node7</title>
<path fill="none" stroke="#404040" d="M439.28,-318.77C430.68,-283.73 423.64,-228.62 450.5,-192 474.43,-159.37 519.37,-146.98 555.55,-142.48"/>
<polygon fill="none" stroke="#404040" points="555.99,-142.43 561.55,-137.83 567.93,-141.19 562.37,-145.79 555.99,-142.43"/>
<text text-anchor="middle" x="504.5" y="-222.5" font-family="Helvetica,sans-Serif" font-size="10.00"> +post_proc_shaders_</text>
</g>
<!-- Node16&#45;&gt;Node7 -->
<g id="edge16" class="edge">
<title>Node16&#45;&gt;Node7</title>
<path fill="none" stroke="#404040" d="M547.98,-467.46C551.73,-403.3 558.13,-337.51 568.5,-276 573.74,-244.94 584.23,-211.09 593.41,-184.99"/>
<polygon fill="none" stroke="#404040" points="593.45,-184.88 591.72,-177.88 597.52,-173.58 599.25,-180.58 593.45,-184.88"/>
<text text-anchor="start" x="568.5" y="-422" font-family="Helvetica,sans-Serif" font-size="10.00"> +alpha_blend_shader</text>
<text text-anchor="middle" x="624.5" y="-411" font-family="Helvetica,sans-Serif" font-size="10.00">_</text>
<text text-anchor="start" x="568.5" y="-400" font-family="Helvetica,sans-Serif" font-size="10.00">+alpha_weight_shader</text>
<text text-anchor="middle" x="624.5" y="-389" font-family="Helvetica,sans-Serif" font-size="10.00">_</text>
<text text-anchor="start" x="568.5" y="-378" font-family="Helvetica,sans-Serif" font-size="10.00">+forward_shader</text>
<text text-anchor="middle" x="624.5" y="-367" font-family="Helvetica,sans-Serif" font-size="10.00">_</text>
<text text-anchor="start" x="568.5" y="-356" font-family="Helvetica,sans-Serif" font-size="10.00">+geometry_shader</text>
<text text-anchor="middle" x="624.5" y="-345" font-family="Helvetica,sans-Serif" font-size="10.00">_</text>
<text text-anchor="start" x="568.5" y="-334" font-family="Helvetica,sans-Serif" font-size="10.00">+light_shader</text>
<text text-anchor="middle" x="624.5" y="-323" font-family="Helvetica,sans-Serif" font-size="10.00">_</text>
<text text-anchor="start" x="568.5" y="-312" font-family="Helvetica,sans-Serif" font-size="10.00">+shadow_shader</text>
<text text-anchor="middle" x="624.5" y="-301" font-family="Helvetica,sans-Serif" font-size="10.00">_2d_</text>
<text text-anchor="start" x="568.5" y="-290" font-family="Helvetica,sans-Serif" font-size="10.00">+shadow_shader</text>
<text text-anchor="middle" x="624.5" y="-279" font-family="Helvetica,sans-Serif" font-size="10.00">_cube_</text>
</g>
<!-- Node17 -->
<g id="node17" class="node">
<title>Node17</title>
<g id="a_node17"><a xlink:title=" ">
<polygon fill="white" stroke="#bfbfbf" points="488,-1276.5 488,-1333.5 609,-1333.5 609,-1276.5 488,-1276.5"/>
<text text-anchor="middle" x="548.5" y="-1321.5" font-family="Helvetica,sans-Serif" font-size="10.00">unique_ptr&lt; GLint[]&gt;</text>
<polyline fill="none" stroke="#bfbfbf" points="488,-1314.5 609,-1314.5 "/>
<text text-anchor="middle" x="548.5" y="-1302.5" font-family="Helvetica,sans-Serif" font-size="10.00"> </text>
<polyline fill="none" stroke="#bfbfbf" points="488,-1295.5 609,-1295.5 "/>
<text text-anchor="middle" x="548.5" y="-1283.5" font-family="Helvetica,sans-Serif" font-size="10.00"> </text>
</a>
</g>
</g>
<!-- Node17&#45;&gt;Node16 -->
<g id="edge17" class="edge">
<title>Node17&#45;&gt;Node16</title>
<path fill="none" stroke="#404040" d="M547.1,-1276.28C546.85,-1270.25 546.63,-1263.91 546.5,-1258 546.29,-1248.22 546.46,-1245.78 546.5,-1236 546.51,-1233.92 546.52,-1231.84 546.52,-1229.75"/>
<polygon fill="none" stroke="#404040" points="546.52,-1229.71 542.55,-1223.69 546.58,-1217.71 550.55,-1223.73 546.52,-1229.71"/>
<text text-anchor="middle" x="596" y="-1244.5" font-family="Helvetica,sans-Serif" font-size="10.00"> #uniform_handles_</text>
</g>
<!-- Node18 -->
<g id="node18" class="node">
<title>Node18</title>
<g id="a_node18"><a xlink:title=" ">
<polygon fill="white" stroke="#bfbfbf" points="689,-324.5 689,-381.5 736,-381.5 736,-324.5 689,-324.5"/>
<text text-anchor="middle" x="712.5" y="-369.5" font-family="Helvetica,sans-Serif" font-size="10.00">colour</text>
<polyline fill="none" stroke="#bfbfbf" points="689,-362.5 736,-362.5 "/>
<text text-anchor="middle" x="712.5" y="-350.5" font-family="Helvetica,sans-Serif" font-size="10.00"> </text>
<polyline fill="none" stroke="#bfbfbf" points="689,-343.5 736,-343.5 "/>
<text text-anchor="middle" x="712.5" y="-331.5" font-family="Helvetica,sans-Serif" font-size="10.00"> </text>
</a>
</g>
</g>
<!-- Node18&#45;&gt;Node7 -->
<g id="edge20" class="edge">
<title>Node18&#45;&gt;Node7</title>
<path fill="none" stroke="#404040" d="M702.53,-324.42C696.09,-309.08 686.64,-290.27 674.5,-276 665.63,-265.57 657.61,-269.03 649.5,-258 633.84,-236.69 624.22,-208.71 618.46,-185.41"/>
<polygon fill="none" stroke="#404040" points="618.46,-185.41 613.22,-180.45 615.79,-173.71 621.02,-178.67 618.46,-185.41"/>
<text text-anchor="middle" x="695" y="-228" font-family="Helvetica,sans-Serif" font-size="10.00"> +diffuse_colour_</text>
<text text-anchor="middle" x="695" y="-217" font-family="Helvetica,sans-Serif" font-size="10.00">+specular_colour_</text>
</g>
</g>
</svg>
