<?xml version="1.0" encoding="UTF-8" standalone="no"?>
<!DOCTYPE svg PUBLIC "-//W3C//DTD SVG 1.1//EN"
 "http://www.w3.org/Graphics/SVG/1.1/DTD/svg11.dtd">
<!-- Generated by graphviz version 2.43.0 (0)
 -->
<!-- Title: mkr::light_data Pages: 1 -->
<!--zoomable 661 -->
<svg id="main" version="1.1" xmlns="http://www.w3.org/2000/svg" xmlns:xlink="http://www.w3.org/1999/xlink" xml:space="preserve" onload="init(evt)">
<style type="text/css"><![CDATA[
.edge:hover path { stroke: red; }
.edge:hover polygon { stroke: red; fill: red; }
]]></style>
<script type="text/javascript"><![CDATA[
var edges = document.getElementsByTagName('g');
if (edges && edges.length) {
  for (var i=0;i<edges.length;i++) {
    if (edges[i].id.substr(0,4)=='edge') {
      edges[i].setAttribute('class','edge');
    }
  }
}
]]></script>
        <defs>
                <circle id="rim" cx="0" cy="0" r="7"/>
                <circle id="rim2" cx="0" cy="0" r="3.5"/>
                <g id="zoomPlus">
                        <use xlink:href="#rim" fill="#404040">
                                <set attributeName="fill" to="#808080" begin="zoomplus.mouseover" end="zoomplus.mouseout"/>
                        </use>
                        <path d="M-4,0h8M0,-4v8" fill="none" stroke="white" stroke-width="1.5" pointer-events="none"/>
                </g>
                <g id="zoomMin">
                        <use xlink:href="#rim" fill="#404040">
                                <set attributeName="fill" to="#808080" begin="zoomminus.mouseover" end="zoomminus.mouseout"/>
                        </use>
                        <path d="M-4,0h8" fill="none" stroke="white" stroke-width="1.5" pointer-events="none"/>
                </g>
                <g id="dirArrow">
                        <path fill="none" stroke="white" stroke-width="1.5" d="M0,-3.0v7 M-2.5,-0.5L0,-3.0L2.5,-0.5"/>
                </g>
               <g id="resetDef">
                       <use xlink:href="#rim2" fill="#404040">
                               <set attributeName="fill" to="#808080" begin="reset.mouseover" end="reset.mouseout"/>
                       </use>
               </g>
        </defs>

<script type="text/javascript">
var viewWidth = 532;
var viewHeight = 661;
var sectionId = 'dynsection-0';
</script>
<script xlink:href="svgpan.js"/>
<svg id="graph" class="graph">
<g id="viewport">
<title>mkr::light_data</title>
<polygon fill="white" stroke="transparent" points="-4,4 -4,-657 527.5,-657 527.5,4 -4,4"/>
<!-- Node1 -->
<g id="node1" class="node">
<title>Node1</title>
<g id="a_node1"><a xlink:title=" ">
<polygon fill="#bfbfbf" stroke="black" points="182,-0.5 182,-57.5 273,-57.5 273,-0.5 182,-0.5"/>
<text text-anchor="middle" x="227.5" y="-45.5" font-family="Helvetica,sans-Serif" font-size="10.00">mkr::light_data</text>
<polyline fill="none" stroke="black" points="182,-38.5 273,-38.5 "/>
<text text-anchor="middle" x="227.5" y="-26.5" font-family="Helvetica,sans-Serif" font-size="10.00"> </text>
<polyline fill="none" stroke="black" points="182,-19.5 273,-19.5 "/>
<text text-anchor="middle" x="227.5" y="-7.5" font-family="Helvetica,sans-Serif" font-size="10.00"> </text>
</a>
</g>
</g>
<!-- Node2 -->
<g id="node2" class="node">
<title>Node2</title>
<g id="a_node2"><a xlink:href="structmkr_1_1local__to__world.html" target="_top" xlink:title=" ">
<polygon fill="white" stroke="black" points="93,-243 93,-300 206,-300 206,-243 93,-243"/>
<text text-anchor="middle" x="149.5" y="-288" font-family="Helvetica,sans-Serif" font-size="10.00">mkr::local_to_world</text>
<polyline fill="none" stroke="black" points="93,-281 206,-281 "/>
<text text-anchor="middle" x="149.5" y="-269" font-family="Helvetica,sans-Serif" font-size="10.00"> </text>
<polyline fill="none" stroke="black" points="93,-262 206,-262 "/>
<text text-anchor="middle" x="149.5" y="-250" font-family="Helvetica,sans-Serif" font-size="10.00"> </text>
</a>
</g>
</g>
<!-- Node2&#45;&gt;Node1 -->
<g id="edge1" class="edge">
<title>Node2&#45;&gt;Node1</title>
<path fill="none" stroke="#404040" d="M155.57,-242.91C164.36,-204.73 182.06,-133.92 204.5,-76 205.41,-73.66 206.39,-71.28 207.43,-68.89"/>
<polygon fill="none" stroke="#404040" points="207.5,-68.73 206.39,-61.61 212.53,-57.84 213.65,-64.96 207.5,-68.73"/>
<text text-anchor="middle" x="237" y="-79" font-family="Helvetica,sans-Serif" font-size="10.00"> +transform_</text>
</g>
<!-- Node3 -->
<g id="node3" class="node">
<title>Node3</title>
<g id="a_node3"><a xlink:title=" ">
<polygon fill="white" stroke="#bfbfbf" points="0,-595.5 0,-652.5 53,-652.5 53,-595.5 0,-595.5"/>
<text text-anchor="middle" x="26.5" y="-640.5" font-family="Helvetica,sans-Serif" font-size="10.00">vector3</text>
<polyline fill="none" stroke="#bfbfbf" points="0,-633.5 53,-633.5 "/>
<text text-anchor="middle" x="26.5" y="-621.5" font-family="Helvetica,sans-Serif" font-size="10.00"> </text>
<polyline fill="none" stroke="#bfbfbf" points="0,-614.5 53,-614.5 "/>
<text text-anchor="middle" x="26.5" y="-602.5" font-family="Helvetica,sans-Serif" font-size="10.00"> </text>
</a>
</g>
</g>
<!-- Node3&#45;&gt;Node2 -->
<g id="edge2" class="edge">
<title>Node3&#45;&gt;Node2</title>
<path fill="none" stroke="#404040" d="M26.78,-595.4C27.84,-561.71 32.01,-503.35 47.5,-456 65.14,-402.09 99.03,-345.9 122.89,-310.14"/>
<polygon fill="none" stroke="#404040" points="122.92,-310.1 122.97,-302.89 129.64,-300.16 129.59,-307.38 122.92,-310.1"/>
<text text-anchor="middle" x="75" y="-530.5" font-family="Helvetica,sans-Serif" font-size="10.00"> +forward_</text>
<text text-anchor="middle" x="75" y="-519.5" font-family="Helvetica,sans-Serif" font-size="10.00">+left_</text>
<text text-anchor="middle" x="75" y="-508.5" font-family="Helvetica,sans-Serif" font-size="10.00">+position_</text>
<text text-anchor="middle" x="75" y="-497.5" font-family="Helvetica,sans-Serif" font-size="10.00">+up_</text>
</g>
<!-- Node4 -->
<g id="node4" class="node">
<title>Node4</title>
<g id="a_node4"><a xlink:title=" ">
<polygon fill="white" stroke="#bfbfbf" points="71,-595.5 71,-652.5 140,-652.5 140,-595.5 71,-595.5"/>
<text text-anchor="middle" x="105.5" y="-640.5" font-family="Helvetica,sans-Serif" font-size="10.00">quaternion</text>
<polyline fill="none" stroke="#bfbfbf" points="71,-633.5 140,-633.5 "/>
<text text-anchor="middle" x="105.5" y="-621.5" font-family="Helvetica,sans-Serif" font-size="10.00"> </text>
<polyline fill="none" stroke="#bfbfbf" points="71,-614.5 140,-614.5 "/>
<text text-anchor="middle" x="105.5" y="-602.5" font-family="Helvetica,sans-Serif" font-size="10.00"> </text>
</a>
</g>
</g>
<!-- Node4&#45;&gt;Node2 -->
<g id="edge3" class="edge">
<title>Node4&#45;&gt;Node2</title>
<path fill="none" stroke="#404040" d="M105.59,-595.41C105.99,-562.22 107.57,-504.84 113.5,-456 119.58,-405.91 131.55,-349 140.01,-312.02"/>
<polygon fill="none" stroke="#404040" points="140.02,-311.97 137.48,-305.22 142.74,-300.28 145.28,-307.03 140.02,-311.97"/>
<text text-anchor="middle" x="141" y="-514" font-family="Helvetica,sans-Serif" font-size="10.00"> +rotation_</text>
</g>
<!-- Node5 -->
<g id="node5" class="node">
<title>Node5</title>
<g id="a_node5"><a xlink:title=" ">
<polygon fill="white" stroke="#bfbfbf" points="158,-595.5 158,-652.5 225,-652.5 225,-595.5 158,-595.5"/>
<text text-anchor="middle" x="191.5" y="-640.5" font-family="Helvetica,sans-Serif" font-size="10.00">matrix4x4</text>
<polyline fill="none" stroke="#bfbfbf" points="158,-633.5 225,-633.5 "/>
<text text-anchor="middle" x="191.5" y="-621.5" font-family="Helvetica,sans-Serif" font-size="10.00"> </text>
<polyline fill="none" stroke="#bfbfbf" points="158,-614.5 225,-614.5 "/>
<text text-anchor="middle" x="191.5" y="-602.5" font-family="Helvetica,sans-Serif" font-size="10.00"> </text>
</a>
</g>
</g>
<!-- Node5&#45;&gt;Node2 -->
<g id="edge4" class="edge">
<title>Node5&#45;&gt;Node2</title>
<path fill="none" stroke="#404040" d="M188.2,-595.5C180.82,-533.84 162.9,-384.35 154.29,-312.44"/>
<polygon fill="none" stroke="#404040" points="154.27,-312.28 149.58,-306.79 152.84,-300.36 157.52,-305.84 154.27,-312.28"/>
<text text-anchor="middle" x="218" y="-514" font-family="Helvetica,sans-Serif" font-size="10.00"> +transform_</text>
</g>
<!-- Node6 -->
<g id="node6" class="node">
<title>Node6</title>
<g id="a_node6"><a xlink:href="classmkr_1_1light.html" target="_top" xlink:title=" ">
<polygon fill="white" stroke="black" points="230.5,-105.5 230.5,-437.5 394.5,-437.5 394.5,-105.5 230.5,-105.5"/>
<text text-anchor="middle" x="312.5" y="-425.5" font-family="Helvetica,sans-Serif" font-size="10.00">mkr::light</text>
<polyline fill="none" stroke="black" points="230.5,-418.5 394.5,-418.5 "/>
<text text-anchor="middle" x="312.5" y="-406.5" font-family="Helvetica,sans-Serif" font-size="10.00"> </text>
<polyline fill="none" stroke="black" points="230.5,-399.5 394.5,-399.5 "/>
<text text-anchor="start" x="238.5" y="-387.5" font-family="Helvetica,sans-Serif" font-size="10.00">+ light()</text>
<text text-anchor="start" x="238.5" y="-376.5" font-family="Helvetica,sans-Serif" font-size="10.00">+ ~light()</text>
<text text-anchor="start" x="238.5" y="-365.5" font-family="Helvetica,sans-Serif" font-size="10.00">+ get_mode()</text>
<text text-anchor="start" x="238.5" y="-354.5" font-family="Helvetica,sans-Serif" font-size="10.00">+ set_mode()</text>
<text text-anchor="start" x="238.5" y="-343.5" font-family="Helvetica,sans-Serif" font-size="10.00">+ get_power()</text>
<text text-anchor="start" x="238.5" y="-332.5" font-family="Helvetica,sans-Serif" font-size="10.00">+ set_power()</text>
<text text-anchor="start" x="238.5" y="-321.5" font-family="Helvetica,sans-Serif" font-size="10.00">+ set_colour()</text>
<text text-anchor="start" x="238.5" y="-310.5" font-family="Helvetica,sans-Serif" font-size="10.00">+ get_colour()</text>
<text text-anchor="start" x="238.5" y="-299.5" font-family="Helvetica,sans-Serif" font-size="10.00">+ get_attenuation_constant()</text>
<text text-anchor="start" x="238.5" y="-288.5" font-family="Helvetica,sans-Serif" font-size="10.00">+ set_attenuation_constant()</text>
<text text-anchor="start" x="238.5" y="-277.5" font-family="Helvetica,sans-Serif" font-size="10.00">+ get_attenuation_linear()</text>
<text text-anchor="start" x="238.5" y="-266.5" font-family="Helvetica,sans-Serif" font-size="10.00">+ set_attenuation_linear()</text>
<text text-anchor="start" x="238.5" y="-255.5" font-family="Helvetica,sans-Serif" font-size="10.00">+ get_attenuation_quadratic()</text>
<text text-anchor="start" x="238.5" y="-244.5" font-family="Helvetica,sans-Serif" font-size="10.00">+ set_attenuation_quadratic()</text>
<text text-anchor="start" x="238.5" y="-233.5" font-family="Helvetica,sans-Serif" font-size="10.00">+ get_spotlight_inner</text>
<text text-anchor="start" x="238.5" y="-222.5" font-family="Helvetica,sans-Serif" font-size="10.00">_consine()</text>
<text text-anchor="start" x="238.5" y="-211.5" font-family="Helvetica,sans-Serif" font-size="10.00">+ get_spotlight_inner</text>
<text text-anchor="start" x="238.5" y="-200.5" font-family="Helvetica,sans-Serif" font-size="10.00">_angle()</text>
<text text-anchor="start" x="238.5" y="-189.5" font-family="Helvetica,sans-Serif" font-size="10.00">+ set_spotlight_inner</text>
<text text-anchor="start" x="238.5" y="-178.5" font-family="Helvetica,sans-Serif" font-size="10.00">_angle()</text>
<text text-anchor="start" x="238.5" y="-167.5" font-family="Helvetica,sans-Serif" font-size="10.00">+ get_spotlight_outer</text>
<text text-anchor="start" x="238.5" y="-156.5" font-family="Helvetica,sans-Serif" font-size="10.00">_consine()</text>
<text text-anchor="start" x="238.5" y="-145.5" font-family="Helvetica,sans-Serif" font-size="10.00">+ get_spotlight_outer</text>
<text text-anchor="start" x="238.5" y="-134.5" font-family="Helvetica,sans-Serif" font-size="10.00">_angle()</text>
<text text-anchor="start" x="238.5" y="-123.5" font-family="Helvetica,sans-Serif" font-size="10.00">+ set_spotlight_outer</text>
<text text-anchor="start" x="238.5" y="-112.5" font-family="Helvetica,sans-Serif" font-size="10.00">_angle()</text>
</a>
</g>
</g>
<!-- Node6&#45;&gt;Node1 -->
<g id="edge5" class="edge">
<title>Node6&#45;&gt;Node1</title>
<path fill="none" stroke="#404040" d="M282.5,-105.42C278.67,-95.25 274.36,-85.36 269.5,-76 267.99,-73.09 266.24,-70.22 264.34,-67.42"/>
<polygon fill="none" stroke="#404040" points="264.19,-67.22 257.37,-64.88 256.92,-57.68 263.74,-60.03 264.19,-67.22"/>
<text text-anchor="middle" x="293" y="-79" font-family="Helvetica,sans-Serif" font-size="10.00"> +light_</text>
</g>
<!-- Node7 -->
<g id="node7" class="node">
<title>Node7</title>
<g id="a_node7"><a xlink:title=" ">
<polygon fill="white" stroke="#bfbfbf" points="256.5,-595.5 256.5,-652.5 294.5,-652.5 294.5,-595.5 256.5,-595.5"/>
<text text-anchor="middle" x="275.5" y="-640.5" font-family="Helvetica,sans-Serif" font-size="10.00">float</text>
<polyline fill="none" stroke="#bfbfbf" points="256.5,-633.5 294.5,-633.5 "/>
<text text-anchor="middle" x="275.5" y="-621.5" font-family="Helvetica,sans-Serif" font-size="10.00"> </text>
<polyline fill="none" stroke="#bfbfbf" points="256.5,-614.5 294.5,-614.5 "/>
<text text-anchor="middle" x="275.5" y="-602.5" font-family="Helvetica,sans-Serif" font-size="10.00"> </text>
</a>
</g>
</g>
<!-- Node7&#45;&gt;Node6 -->
<g id="edge6" class="edge">
<title>Node7&#45;&gt;Node6</title>
<path fill="none" stroke="#404040" d="M274.09,-595.43C272.75,-562.26 271.6,-504.9 276.5,-456 276.71,-453.95 276.92,-451.88 277.15,-449.81"/>
<polygon fill="none" stroke="#404040" points="277.16,-449.75 273.9,-443.32 278.58,-437.83 281.84,-444.27 277.16,-449.75"/>
<text text-anchor="start" x="276.5" y="-569" font-family="Helvetica,sans-Serif" font-size="10.00"> &#45;attenuation_constant</text>
<text text-anchor="middle" x="332.5" y="-558" font-family="Helvetica,sans-Serif" font-size="10.00">_</text>
<text text-anchor="start" x="276.5" y="-547" font-family="Helvetica,sans-Serif" font-size="10.00">&#45;attenuation_linear</text>
<text text-anchor="middle" x="332.5" y="-536" font-family="Helvetica,sans-Serif" font-size="10.00">_</text>
<text text-anchor="start" x="276.5" y="-525" font-family="Helvetica,sans-Serif" font-size="10.00">&#45;attenuation_quadratic</text>
<text text-anchor="middle" x="332.5" y="-514" font-family="Helvetica,sans-Serif" font-size="10.00">_</text>
<text text-anchor="middle" x="332.5" y="-503" font-family="Helvetica,sans-Serif" font-size="10.00">&#45;power_</text>
<text text-anchor="start" x="276.5" y="-492" font-family="Helvetica,sans-Serif" font-size="10.00">&#45;spotlight_inner</text>
<text text-anchor="middle" x="332.5" y="-481" font-family="Helvetica,sans-Serif" font-size="10.00">_angle_</text>
<text text-anchor="start" x="276.5" y="-470" font-family="Helvetica,sans-Serif" font-size="10.00">&#45;spotlight_outer</text>
<text text-anchor="middle" x="332.5" y="-459" font-family="Helvetica,sans-Serif" font-size="10.00">_angle_</text>
</g>
<!-- Node8 -->
<g id="node8" class="node">
<title>Node8</title>
<g id="a_node8"><a xlink:title=" ">
<polygon fill="white" stroke="#bfbfbf" points="387,-595.5 387,-652.5 434,-652.5 434,-595.5 387,-595.5"/>
<text text-anchor="middle" x="410.5" y="-640.5" font-family="Helvetica,sans-Serif" font-size="10.00">colour</text>
<polyline fill="none" stroke="#bfbfbf" points="387,-633.5 434,-633.5 "/>
<text text-anchor="middle" x="410.5" y="-621.5" font-family="Helvetica,sans-Serif" font-size="10.00"> </text>
<polyline fill="none" stroke="#bfbfbf" points="387,-614.5 434,-614.5 "/>
<text text-anchor="middle" x="410.5" y="-602.5" font-family="Helvetica,sans-Serif" font-size="10.00"> </text>
</a>
</g>
</g>
<!-- Node8&#45;&gt;Node6 -->
<g id="edge7" class="edge">
<title>Node8&#45;&gt;Node6</title>
<path fill="none" stroke="#404040" d="M409.08,-595.38C406.85,-561.91 401.37,-504.02 388.5,-456 387.89,-453.72 387.26,-451.43 386.6,-449.14"/>
<polygon fill="none" stroke="#404040" points="386.6,-449.11 381.05,-444.5 383.18,-437.61 388.72,-442.22 386.6,-449.11"/>
<text text-anchor="middle" x="428" y="-514" font-family="Helvetica,sans-Serif" font-size="10.00"> &#45;colour_</text>
</g>
<!-- Node9 -->
<g id="node9" class="node">
<title>Node9</title>
<g id="a_node9"><a xlink:title=" ">
<polygon fill="white" stroke="#bfbfbf" points="452,-595.5 452,-652.5 523,-652.5 523,-595.5 452,-595.5"/>
<text text-anchor="middle" x="487.5" y="-640.5" font-family="Helvetica,sans-Serif" font-size="10.00">light_mode</text>
<polyline fill="none" stroke="#bfbfbf" points="452,-633.5 523,-633.5 "/>
<text text-anchor="middle" x="487.5" y="-621.5" font-family="Helvetica,sans-Serif" font-size="10.00"> </text>
<polyline fill="none" stroke="#bfbfbf" points="452,-614.5 523,-614.5 "/>
<text text-anchor="middle" x="487.5" y="-602.5" font-family="Helvetica,sans-Serif" font-size="10.00"> </text>
</a>
</g>
</g>
<!-- Node9&#45;&gt;Node6 -->
<g id="edge8" class="edge">
<title>Node9&#45;&gt;Node6</title>
<path fill="none" stroke="#404040" d="M485.69,-595.22C482.62,-561.08 474.5,-502.03 453.5,-456 440.19,-426.83 421.48,-398.01 402.02,-372.17"/>
<polygon fill="none" stroke="#404040" points="401.84,-371.93 395.02,-369.61 394.54,-362.41 401.37,-364.74 401.84,-371.93"/>
<text text-anchor="middle" x="503.5" y="-514" font-family="Helvetica,sans-Serif" font-size="10.00"> &#45;mode_</text>
</g>
</g>
</svg>
        <g id="navigator" transform="translate(0 0)" fill="#404254">
                <rect fill="#f2f5e9" fill-opacity="0.5" stroke="#606060" stroke-width=".5" x="0" y="0" width="60" height="60"/>
                <use id="zoomplus" xlink:href="#zoomPlus" x="17" y="9" onmousedown="handleZoom(evt,'in')"/>
                <use id="zoomminus" xlink:href="#zoomMin" x="42" y="9" onmousedown="handleZoom(evt,'out')"/>
                <use id="reset" xlink:href="#resetDef" x="30" y="36" onmousedown="handleReset()"/>
                <g id="arrowUp" xlink:href="#dirArrow" transform="translate(30 24)" onmousedown="handlePan(0,-1)">
                  <use xlink:href="#rim" fill="#404040">
                        <set attributeName="fill" to="#808080" begin="arrowUp.mouseover" end="arrowUp.mouseout"/>
                  </use>
                  <path fill="none" stroke="white" stroke-width="1.5" d="M0,-3.0v7 M-2.5,-0.5L0,-3.0L2.5,-0.5"/>
                </g>
                <g id="arrowRight" xlink:href="#dirArrow" transform="rotate(90) translate(36 -43)" onmousedown="handlePan(1,0)">
                  <use xlink:href="#rim" fill="#404040">
                        <set attributeName="fill" to="#808080" begin="arrowRight.mouseover" end="arrowRight.mouseout"/>
                  </use>
                  <path fill="none" stroke="white" stroke-width="1.5" d="M0,-3.0v7 M-2.5,-0.5L0,-3.0L2.5,-0.5"/>
                </g>
                <g id="arrowDown" xlink:href="#dirArrow" transform="rotate(180) translate(-30 -48)" onmousedown="handlePan(0,1)">
                  <use xlink:href="#rim" fill="#404040">
                        <set attributeName="fill" to="#808080" begin="arrowDown.mouseover" end="arrowDown.mouseout"/>
                  </use>
                  <path fill="none" stroke="white" stroke-width="1.5" d="M0,-3.0v7 M-2.5,-0.5L0,-3.0L2.5,-0.5"/>
                </g>
                <g id="arrowLeft" xlink:href="#dirArrow" transform="rotate(270) translate(-36 17)" onmousedown="handlePan(-1,0)">
                  <use xlink:href="#rim" fill="#404040">
                        <set attributeName="fill" to="#808080" begin="arrowLeft.mouseover" end="arrowLeft.mouseout"/>
                  </use>
                  <path fill="none" stroke="white" stroke-width="1.5" d="M0,-3.0v7 M-2.5,-0.5L0,-3.0L2.5,-0.5"/>
                </g>
        </g>
        <svg viewBox="0 0 15 15" width="100%" height="30px" preserveAspectRatio="xMaxYMin meet">
         <g id="arrow_out" transform="scale(0.3 0.3)">
          <a xlink:href="structmkr_1_1light__data__coll__graph_org.svg" target="_base">
           <rect id="button" ry="5" rx="5" y="6" x="6" height="38" width="38"
                fill="#f2f5e9" fill-opacity="0.5" stroke="#606060" stroke-width="1.0"/>
           <path id="arrow"
             d="M 11.500037,31.436501 C 11.940474,20.09759 22.043105,11.32322 32.158766,21.979434 L 37.068811,17.246167 C 37.068811,17.246167 37.088388,32 37.088388,32 L 22.160133,31.978069 C 22.160133,31.978069 26.997745,27.140456 26.997745,27.140456 C 18.528582,18.264221 13.291696,25.230495 11.500037,31.436501 z"
             style="fill:#404040;"/>
          </a>
         </g>
        </svg>
</svg>
