<?xml version="1.0" encoding="UTF-8" standalone="no"?>
<!DOCTYPE svg PUBLIC "-//W3C//DTD SVG 1.1//EN"
 "http://www.w3.org/Graphics/SVG/1.1/DTD/svg11.dtd">
<!-- Generated by graphviz version 2.43.0 (0)
 -->
<!-- Title: mkr::graphics_renderer::camera_data Pages: 1 -->
<!--zoomable 1395 -->
<svg id="main" version="1.1" xmlns="http://www.w3.org/2000/svg" xmlns:xlink="http://www.w3.org/1999/xlink" xml:space="preserve" onload="init(evt)">
<style type="text/css"><![CDATA[
.edge:hover path { stroke: red; }
.edge:hover polygon { stroke: red; fill: red; }
]]></style>
<script type="text/javascript"><![CDATA[
var edges = document.getElementsByTagName('g');
if (edges && edges.length) {
  for (var i=0;i<edges.length;i++) {
    if (edges[i].id.substr(0,4)=='edge') {
      edges[i].setAttribute('class','edge');
    }
  }
}
]]></script>
        <defs>
                <circle id="rim" cx="0" cy="0" r="7"/>
                <circle id="rim2" cx="0" cy="0" r="3.5"/>
                <g id="zoomPlus">
                        <use xlink:href="#rim" fill="#404040">
                                <set attributeName="fill" to="#808080" begin="zoomplus.mouseover" end="zoomplus.mouseout"/>
                        </use>
                        <path d="M-4,0h8M0,-4v8" fill="none" stroke="white" stroke-width="1.5" pointer-events="none"/>
                </g>
                <g id="zoomMin">
                        <use xlink:href="#rim" fill="#404040">
                                <set attributeName="fill" to="#808080" begin="zoomminus.mouseover" end="zoomminus.mouseout"/>
                        </use>
                        <path d="M-4,0h8" fill="none" stroke="white" stroke-width="1.5" pointer-events="none"/>
                </g>
                <g id="dirArrow">
                        <path fill="none" stroke="white" stroke-width="1.5" d="M0,-3.0v7 M-2.5,-0.5L0,-3.0L2.5,-0.5"/>
                </g>
               <g id="resetDef">
                       <use xlink:href="#rim2" fill="#404040">
                               <set attributeName="fill" to="#808080" begin="reset.mouseover" end="reset.mouseout"/>
                       </use>
               </g>
        </defs>

<script type="text/javascript">
var viewWidth = 847;
var viewHeight = 1395;
var sectionId = 'dynsection-0';
</script>
<script xlink:href="svgpan.js"/>
<svg id="graph" class="graph">
<g id="viewport">
<title>mkr::graphics_renderer::camera_data</title>
<polygon fill="white" stroke="transparent" points="-4,4 -4,-1391 842.5,-1391 842.5,4 -4,4"/>
<!-- Node1 -->
<g id="node1" class="node">
<title>Node1</title>
<g id="a_node1"><a xlink:title=" ">
<polygon fill="#bfbfbf" stroke="black" points="176.5,-0.5 176.5,-68.5 306.5,-68.5 306.5,-0.5 176.5,-0.5"/>
<text text-anchor="start" x="184.5" y="-56.5" font-family="Helvetica,sans-Serif" font-size="10.00">mkr::graphics_renderer</text>
<text text-anchor="middle" x="241.5" y="-45.5" font-family="Helvetica,sans-Serif" font-size="10.00">::camera_data</text>
<polyline fill="none" stroke="black" points="176.5,-38.5 306.5,-38.5 "/>
<text text-anchor="middle" x="241.5" y="-26.5" font-family="Helvetica,sans-Serif" font-size="10.00"> </text>
<polyline fill="none" stroke="black" points="176.5,-19.5 306.5,-19.5 "/>
<text text-anchor="start" x="184.5" y="-7.5" font-family="Helvetica,sans-Serif" font-size="10.00">+ operator&lt;()</text>
</a>
</g>
</g>
<!-- Node2 -->
<g id="node2" class="node">
<title>Node2</title>
<g id="a_node2"><a xlink:href="structmkr_1_1local__to__world.html" target="_top" xlink:title=" ">
<polygon fill="white" stroke="black" points="92,-116.5 92,-173.5 205,-173.5 205,-116.5 92,-116.5"/>
<text text-anchor="middle" x="148.5" y="-161.5" font-family="Helvetica,sans-Serif" font-size="10.00">mkr::local_to_world</text>
<polyline fill="none" stroke="black" points="92,-154.5 205,-154.5 "/>
<text text-anchor="middle" x="148.5" y="-142.5" font-family="Helvetica,sans-Serif" font-size="10.00"> </text>
<polyline fill="none" stroke="black" points="92,-135.5 205,-135.5 "/>
<text text-anchor="middle" x="148.5" y="-123.5" font-family="Helvetica,sans-Serif" font-size="10.00"> </text>
</a>
</g>
</g>
<!-- Node2&#45;&gt;Node1 -->
<g id="edge1" class="edge">
<title>Node2&#45;&gt;Node1</title>
<path fill="none" stroke="#404040" d="M172.21,-116.34C182.26,-104.62 194.19,-90.7 205.3,-77.74"/>
<polygon fill="none" stroke="#404040" points="205.39,-77.63 206.26,-70.47 213.2,-68.52 212.33,-75.68 205.39,-77.63"/>
<text text-anchor="middle" x="228" y="-90" font-family="Helvetica,sans-Serif" font-size="10.00"> +transform_</text>
</g>
<!-- Node3 -->
<g id="node3" class="node">
<title>Node3</title>
<g id="a_node3"><a xlink:title=" ">
<polygon fill="white" stroke="#bfbfbf" points="0,-260 0,-317 53,-317 53,-260 0,-260"/>
<text text-anchor="middle" x="26.5" y="-305" font-family="Helvetica,sans-Serif" font-size="10.00">vector3</text>
<polyline fill="none" stroke="#bfbfbf" points="0,-298 53,-298 "/>
<text text-anchor="middle" x="26.5" y="-286" font-family="Helvetica,sans-Serif" font-size="10.00"> </text>
<polyline fill="none" stroke="#bfbfbf" points="0,-279 53,-279 "/>
<text text-anchor="middle" x="26.5" y="-267" font-family="Helvetica,sans-Serif" font-size="10.00"> </text>
</a>
</g>
</g>
<!-- Node3&#45;&gt;Node2 -->
<g id="edge2" class="edge">
<title>Node3&#45;&gt;Node2</title>
<path fill="none" stroke="#404040" d="M25.86,-259.58C26.8,-238.86 31.22,-211.02 46.5,-192 55.53,-180.76 67.9,-172.17 80.91,-165.64"/>
<polygon fill="none" stroke="#404040" points="81.01,-165.6 84.81,-159.47 91.93,-160.63 88.12,-166.75 81.01,-165.6"/>
<text text-anchor="middle" x="74" y="-228" font-family="Helvetica,sans-Serif" font-size="10.00"> +forward_</text>
<text text-anchor="middle" x="74" y="-217" font-family="Helvetica,sans-Serif" font-size="10.00">+left_</text>
<text text-anchor="middle" x="74" y="-206" font-family="Helvetica,sans-Serif" font-size="10.00">+position_</text>
<text text-anchor="middle" x="74" y="-195" font-family="Helvetica,sans-Serif" font-size="10.00">+up_</text>
</g>
<!-- Node4 -->
<g id="node4" class="node">
<title>Node4</title>
<g id="a_node4"><a xlink:title=" ">
<polygon fill="white" stroke="#bfbfbf" points="71,-260 71,-317 140,-317 140,-260 71,-260"/>
<text text-anchor="middle" x="105.5" y="-305" font-family="Helvetica,sans-Serif" font-size="10.00">quaternion</text>
<polyline fill="none" stroke="#bfbfbf" points="71,-298 140,-298 "/>
<text text-anchor="middle" x="105.5" y="-286" font-family="Helvetica,sans-Serif" font-size="10.00"> </text>
<polyline fill="none" stroke="#bfbfbf" points="71,-279 140,-279 "/>
<text text-anchor="middle" x="105.5" y="-267" font-family="Helvetica,sans-Serif" font-size="10.00"> </text>
</a>
</g>
</g>
<!-- Node4&#45;&gt;Node2 -->
<g id="edge3" class="edge">
<title>Node4&#45;&gt;Node2</title>
<path fill="none" stroke="#404040" d="M104.24,-259.86C104.26,-240.3 106.17,-213.78 114.5,-192 115.53,-189.3 116.77,-186.62 118.15,-183.99"/>
<polygon fill="none" stroke="#404040" points="118.27,-183.79 117.96,-176.59 124.5,-173.53 124.8,-180.74 118.27,-183.79"/>
<text text-anchor="middle" x="142" y="-211.5" font-family="Helvetica,sans-Serif" font-size="10.00"> +rotation_</text>
</g>
<!-- Node5 -->
<g id="node5" class="node">
<title>Node5</title>
<g id="a_node5"><a xlink:title=" ">
<polygon fill="white" stroke="#bfbfbf" points="158,-260 158,-317 225,-317 225,-260 158,-260"/>
<text text-anchor="middle" x="191.5" y="-305" font-family="Helvetica,sans-Serif" font-size="10.00">matrix4x4</text>
<polyline fill="none" stroke="#bfbfbf" points="158,-298 225,-298 "/>
<text text-anchor="middle" x="191.5" y="-286" font-family="Helvetica,sans-Serif" font-size="10.00"> </text>
<polyline fill="none" stroke="#bfbfbf" points="158,-279 225,-279 "/>
<text text-anchor="middle" x="191.5" y="-267" font-family="Helvetica,sans-Serif" font-size="10.00"> </text>
</a>
</g>
</g>
<!-- Node5&#45;&gt;Node2 -->
<g id="edge4" class="edge">
<title>Node5&#45;&gt;Node2</title>
<path fill="none" stroke="#404040" d="M186.68,-259.92C182.94,-240.62 177.1,-214.39 169.5,-192 168.74,-189.76 167.9,-187.47 167.02,-185.18"/>
<polygon fill="none" stroke="#404040" points="166.91,-184.93 160.92,-180.93 162.3,-173.85 168.3,-177.86 166.91,-184.93"/>
<text text-anchor="middle" x="215" y="-211.5" font-family="Helvetica,sans-Serif" font-size="10.00"> +transform_</text>
</g>
<!-- Node6 -->
<g id="node6" class="node">
<title>Node6</title>
<g id="a_node6"><a xlink:href="structmkr_1_1camera.html" target="_top" xlink:title=" ">
<polygon fill="white" stroke="black" points="381,-116.5 381,-173.5 460,-173.5 460,-116.5 381,-116.5"/>
<text text-anchor="middle" x="420.5" y="-161.5" font-family="Helvetica,sans-Serif" font-size="10.00">mkr::camera</text>
<polyline fill="none" stroke="black" points="381,-154.5 460,-154.5 "/>
<text text-anchor="middle" x="420.5" y="-142.5" font-family="Helvetica,sans-Serif" font-size="10.00"> </text>
<polyline fill="none" stroke="black" points="381,-135.5 460,-135.5 "/>
<text text-anchor="middle" x="420.5" y="-123.5" font-family="Helvetica,sans-Serif" font-size="10.00"> </text>
</a>
</g>
</g>
<!-- Node6&#45;&gt;Node1 -->
<g id="edge5" class="edge">
<title>Node6&#45;&gt;Node1</title>
<path fill="none" stroke="#404040" d="M380.77,-119.92C358.96,-106.7 331.37,-89.98 306.51,-74.91"/>
<polygon fill="none" stroke="#404040" points="306.31,-74.78 299.11,-75.1 296.05,-68.56 303.25,-68.25 306.31,-74.78"/>
<text text-anchor="middle" x="368.5" y="-90" font-family="Helvetica,sans-Serif" font-size="10.00"> +camera_</text>
</g>
<!-- Node7 -->
<g id="node7" class="node">
<title>Node7</title>
<g id="a_node7"><a xlink:title=" ">
<polygon fill="white" stroke="#bfbfbf" points="243.5,-260 243.5,-317 341.5,-317 341.5,-260 243.5,-260"/>
<text text-anchor="middle" x="292.5" y="-305" font-family="Helvetica,sans-Serif" font-size="10.00">projection_mode</text>
<polyline fill="none" stroke="#bfbfbf" points="243.5,-298 341.5,-298 "/>
<text text-anchor="middle" x="292.5" y="-286" font-family="Helvetica,sans-Serif" font-size="10.00"> </text>
<polyline fill="none" stroke="#bfbfbf" points="243.5,-279 341.5,-279 "/>
<text text-anchor="middle" x="292.5" y="-267" font-family="Helvetica,sans-Serif" font-size="10.00"> </text>
</a>
</g>
</g>
<!-- Node7&#45;&gt;Node6 -->
<g id="edge6" class="edge">
<title>Node7&#45;&gt;Node6</title>
<path fill="none" stroke="#404040" d="M293.8,-259.9C296.13,-239.07 302.33,-210.95 318.5,-192 331.65,-176.59 351.01,-166.11 369.33,-159.09"/>
<polygon fill="none" stroke="#404040" points="369.52,-159.02 373.86,-153.26 380.85,-155.05 376.51,-160.81 369.52,-159.02"/>
<text text-anchor="middle" x="341" y="-211.5" font-family="Helvetica,sans-Serif" font-size="10.00"> +mode_</text>
</g>
<!-- Node8 -->
<g id="node8" class="node">
<title>Node8</title>
<g id="a_node8"><a xlink:title=" ">
<polygon fill="white" stroke="#bfbfbf" points="381.5,-414.5 381.5,-471.5 419.5,-471.5 419.5,-414.5 381.5,-414.5"/>
<text text-anchor="middle" x="400.5" y="-459.5" font-family="Helvetica,sans-Serif" font-size="10.00">float</text>
<polyline fill="none" stroke="#bfbfbf" points="381.5,-452.5 419.5,-452.5 "/>
<text text-anchor="middle" x="400.5" y="-440.5" font-family="Helvetica,sans-Serif" font-size="10.00"> </text>
<polyline fill="none" stroke="#bfbfbf" points="381.5,-433.5 419.5,-433.5 "/>
<text text-anchor="middle" x="400.5" y="-421.5" font-family="Helvetica,sans-Serif" font-size="10.00"> </text>
</a>
</g>
</g>
<!-- Node8&#45;&gt;Node6 -->
<g id="edge7" class="edge">
<title>Node8&#45;&gt;Node6</title>
<path fill="none" stroke="#404040" d="M394.57,-414.45C387.54,-377.68 377.8,-310.61 386.5,-254 390.08,-230.72 397.75,-205.58 404.91,-185.41"/>
<polygon fill="none" stroke="#404040" points="405.01,-185.13 403.32,-178.12 409.14,-173.86 410.83,-180.87 405.01,-185.13"/>
<text text-anchor="middle" x="425" y="-308" font-family="Helvetica,sans-Serif" font-size="10.00"> +aspect_ratio_</text>
<text text-anchor="middle" x="425" y="-297" font-family="Helvetica,sans-Serif" font-size="10.00">+far_plane_</text>
<text text-anchor="middle" x="425" y="-286" font-family="Helvetica,sans-Serif" font-size="10.00">+fov_</text>
<text text-anchor="middle" x="425" y="-275" font-family="Helvetica,sans-Serif" font-size="10.00">+near_plane_</text>
<text text-anchor="middle" x="425" y="-264" font-family="Helvetica,sans-Serif" font-size="10.00">+ortho_size_</text>
</g>
<!-- Node9 -->
<g id="node9" class="node">
<title>Node9</title>
<g id="a_node9"><a xlink:href="structmkr_1_1viewport.html" target="_top" xlink:title=" ">
<polygon fill="white" stroke="black" points="472.5,-254.5 472.5,-322.5 558.5,-322.5 558.5,-254.5 472.5,-254.5"/>
<text text-anchor="middle" x="515.5" y="-310.5" font-family="Helvetica,sans-Serif" font-size="10.00">mkr::viewport</text>
<polyline fill="none" stroke="black" points="472.5,-303.5 558.5,-303.5 "/>
<text text-anchor="middle" x="515.5" y="-291.5" font-family="Helvetica,sans-Serif" font-size="10.00"> </text>
<polyline fill="none" stroke="black" points="472.5,-284.5 558.5,-284.5 "/>
<text text-anchor="start" x="480.5" y="-272.5" font-family="Helvetica,sans-Serif" font-size="10.00">+ viewport()</text>
<text text-anchor="start" x="480.5" y="-261.5" font-family="Helvetica,sans-Serif" font-size="10.00">+ ~viewport()</text>
</a>
</g>
</g>
<!-- Node8&#45;&gt;Node9 -->
<g id="edge9" class="edge">
<title>Node8&#45;&gt;Node9</title>
<path fill="none" stroke="#404040" d="M406.68,-414.45C412.59,-392.76 423.22,-362.68 440.5,-341 446.66,-333.27 454.29,-326.25 462.3,-320.04"/>
<polygon fill="none" stroke="#404040" points="462.47,-319.92 464.98,-313.16 472.19,-312.89 469.67,-319.64 462.47,-319.92"/>
<text text-anchor="middle" x="472.5" y="-377" font-family="Helvetica,sans-Serif" font-size="10.00"> +bottom_x_</text>
<text text-anchor="middle" x="472.5" y="-366" font-family="Helvetica,sans-Serif" font-size="10.00">+bottom_y_</text>
<text text-anchor="middle" x="472.5" y="-355" font-family="Helvetica,sans-Serif" font-size="10.00">+top_x_</text>
<text text-anchor="middle" x="472.5" y="-344" font-family="Helvetica,sans-Serif" font-size="10.00">+top_y_</text>
</g>
<!-- Node9&#45;&gt;Node6 -->
<g id="edge8" class="edge">
<title>Node9&#45;&gt;Node6</title>
<path fill="none" stroke="#404040" d="M493.23,-254.32C479.02,-233.17 460.58,-205.7 445.82,-183.72"/>
<polygon fill="none" stroke="#404040" points="445.81,-183.69 439.14,-180.94 439.12,-173.73 445.78,-176.48 445.81,-183.69"/>
<text text-anchor="middle" x="508.5" y="-211.5" font-family="Helvetica,sans-Serif" font-size="10.00"> +viewport_</text>
</g>
<!-- Node10 -->
<g id="node10" class="node">
<title>Node10</title>
<g id="a_node10"><a xlink:href="classmkr_1_1skybox.html" target="_top" xlink:title=" ">
<polygon fill="white" stroke="black" points="577,-260 577,-317 654,-317 654,-260 577,-260"/>
<text text-anchor="middle" x="615.5" y="-305" font-family="Helvetica,sans-Serif" font-size="10.00">mkr::skybox</text>
<polyline fill="none" stroke="black" points="577,-298 654,-298 "/>
<text text-anchor="middle" x="615.5" y="-286" font-family="Helvetica,sans-Serif" font-size="10.00"> </text>
<polyline fill="none" stroke="black" points="577,-279 654,-279 "/>
<text text-anchor="middle" x="615.5" y="-267" font-family="Helvetica,sans-Serif" font-size="10.00"> </text>
</a>
</g>
</g>
<!-- Node10&#45;&gt;Node6 -->
<g id="edge10" class="edge">
<title>Node10&#45;&gt;Node6</title>
<path fill="none" stroke="#404040" d="M600.19,-259.83C587.26,-238.69 566.95,-210.18 542.5,-192 521.62,-176.47 494.89,-165.61 471.77,-158.36"/>
<polygon fill="none" stroke="#404040" points="471.57,-158.3 464.68,-160.43 460.07,-154.89 466.95,-152.76 471.57,-158.3"/>
<text text-anchor="middle" x="608.5" y="-211.5" font-family="Helvetica,sans-Serif" font-size="10.00"> +skybox_</text>
</g>
<!-- Node11 -->
<g id="node11" class="node">
<title>Node11</title>
<g id="a_node11"><a xlink:href="classmkr_1_1shader__program.html" target="_top" xlink:title=" ">
<polygon fill="white" stroke="black" points="410,-520.5 410,-1270.5 549,-1270.5 549,-520.5 410,-520.5"/>
<text text-anchor="middle" x="479.5" y="-1258.5" font-family="Helvetica,sans-Serif" font-size="10.00">mkr::shader_program</text>
<polyline fill="none" stroke="black" points="410,-1251.5 549,-1251.5 "/>
<text text-anchor="middle" x="479.5" y="-1239.5" font-family="Helvetica,sans-Serif" font-size="10.00"> </text>
<polyline fill="none" stroke="black" points="410,-1232.5 549,-1232.5 "/>
<text text-anchor="start" x="418" y="-1220.5" font-family="Helvetica,sans-Serif" font-size="10.00">+ shader_program()</text>
<text text-anchor="start" x="418" y="-1209.5" font-family="Helvetica,sans-Serif" font-size="10.00">+ shader_program()</text>
<text text-anchor="start" x="418" y="-1198.5" font-family="Helvetica,sans-Serif" font-size="10.00">+ ~shader_program()</text>
<text text-anchor="start" x="418" y="-1187.5" font-family="Helvetica,sans-Serif" font-size="10.00">+ name()</text>
<text text-anchor="start" x="418" y="-1176.5" font-family="Helvetica,sans-Serif" font-size="10.00">+ use()</text>
<text text-anchor="start" x="418" y="-1165.5" font-family="Helvetica,sans-Serif" font-size="10.00">+ set_uniform()</text>
<text text-anchor="start" x="418" y="-1154.5" font-family="Helvetica,sans-Serif" font-size="10.00">+ set_uniform()</text>
<text text-anchor="start" x="418" y="-1143.5" font-family="Helvetica,sans-Serif" font-size="10.00">+ set_uniform()</text>
<text text-anchor="start" x="418" y="-1132.5" font-family="Helvetica,sans-Serif" font-size="10.00">+ set_uniform()</text>
<text text-anchor="start" x="418" y="-1121.5" font-family="Helvetica,sans-Serif" font-size="10.00">+ set_uniform()</text>
<text text-anchor="start" x="418" y="-1110.5" font-family="Helvetica,sans-Serif" font-size="10.00">+ set_uniform()</text>
<text text-anchor="start" x="418" y="-1099.5" font-family="Helvetica,sans-Serif" font-size="10.00">+ set_uniform()</text>
<text text-anchor="start" x="418" y="-1088.5" font-family="Helvetica,sans-Serif" font-size="10.00">+ set_uniform()</text>
<text text-anchor="start" x="418" y="-1077.5" font-family="Helvetica,sans-Serif" font-size="10.00">+ set_uniform()</text>
<text text-anchor="start" x="418" y="-1066.5" font-family="Helvetica,sans-Serif" font-size="10.00">+ set_uniform()</text>
<text text-anchor="start" x="418" y="-1055.5" font-family="Helvetica,sans-Serif" font-size="10.00">+ set_uniform()</text>
<text text-anchor="start" x="418" y="-1044.5" font-family="Helvetica,sans-Serif" font-size="10.00">+ set_uniform()</text>
<text text-anchor="start" x="418" y="-1033.5" font-family="Helvetica,sans-Serif" font-size="10.00">+ set_uniform()</text>
<text text-anchor="start" x="418" y="-1022.5" font-family="Helvetica,sans-Serif" font-size="10.00">+ set_uniform()</text>
<text text-anchor="start" x="418" y="-1011.5" font-family="Helvetica,sans-Serif" font-size="10.00">+ set_uniform()</text>
<text text-anchor="start" x="418" y="-1000.5" font-family="Helvetica,sans-Serif" font-size="10.00">+ set_uniform()</text>
<text text-anchor="start" x="418" y="-989.5" font-family="Helvetica,sans-Serif" font-size="10.00">+ set_uniform()</text>
<text text-anchor="start" x="418" y="-978.5" font-family="Helvetica,sans-Serif" font-size="10.00">+ set_uniform()</text>
<text text-anchor="start" x="418" y="-967.5" font-family="Helvetica,sans-Serif" font-size="10.00">+ set_uniform()</text>
<text text-anchor="start" x="418" y="-956.5" font-family="Helvetica,sans-Serif" font-size="10.00">+ set_uniform()</text>
<text text-anchor="start" x="418" y="-945.5" font-family="Helvetica,sans-Serif" font-size="10.00">+ set_uniform()</text>
<text text-anchor="start" x="418" y="-934.5" font-family="Helvetica,sans-Serif" font-size="10.00">+ set_uniform()</text>
<text text-anchor="start" x="418" y="-923.5" font-family="Helvetica,sans-Serif" font-size="10.00">+ set_uniform()</text>
<text text-anchor="start" x="418" y="-912.5" font-family="Helvetica,sans-Serif" font-size="10.00">+ set_uniform()</text>
<text text-anchor="start" x="418" y="-901.5" font-family="Helvetica,sans-Serif" font-size="10.00">+ set_uniform()</text>
<text text-anchor="start" x="418" y="-890.5" font-family="Helvetica,sans-Serif" font-size="10.00">+ set_uniform()</text>
<text text-anchor="start" x="418" y="-879.5" font-family="Helvetica,sans-Serif" font-size="10.00">+ set_uniform()</text>
<text text-anchor="start" x="418" y="-868.5" font-family="Helvetica,sans-Serif" font-size="10.00">+ set_uniform()</text>
<text text-anchor="start" x="418" y="-857.5" font-family="Helvetica,sans-Serif" font-size="10.00">+ set_uniform()</text>
<text text-anchor="start" x="418" y="-846.5" font-family="Helvetica,sans-Serif" font-size="10.00">+ set_uniform()</text>
<text text-anchor="start" x="418" y="-835.5" font-family="Helvetica,sans-Serif" font-size="10.00">+ set_uniform()</text>
<text text-anchor="start" x="418" y="-824.5" font-family="Helvetica,sans-Serif" font-size="10.00">+ set_uniform()</text>
<text text-anchor="start" x="418" y="-813.5" font-family="Helvetica,sans-Serif" font-size="10.00">+ set_uniform()</text>
<text text-anchor="start" x="418" y="-802.5" font-family="Helvetica,sans-Serif" font-size="10.00">+ set_uniform()</text>
<text text-anchor="start" x="418" y="-791.5" font-family="Helvetica,sans-Serif" font-size="10.00">+ set_uniform()</text>
<text text-anchor="start" x="418" y="-780.5" font-family="Helvetica,sans-Serif" font-size="10.00">+ set_uniform()</text>
<text text-anchor="start" x="418" y="-769.5" font-family="Helvetica,sans-Serif" font-size="10.00">+ set_uniform()</text>
<text text-anchor="start" x="418" y="-758.5" font-family="Helvetica,sans-Serif" font-size="10.00">+ set_uniform()</text>
<text text-anchor="start" x="418" y="-747.5" font-family="Helvetica,sans-Serif" font-size="10.00">+ set_uniform()</text>
<text text-anchor="start" x="418" y="-736.5" font-family="Helvetica,sans-Serif" font-size="10.00">+ set_uniform()</text>
<text text-anchor="start" x="418" y="-725.5" font-family="Helvetica,sans-Serif" font-size="10.00">+ set_uniform()</text>
<text text-anchor="start" x="418" y="-714.5" font-family="Helvetica,sans-Serif" font-size="10.00">+ set_uniform()</text>
<text text-anchor="start" x="418" y="-703.5" font-family="Helvetica,sans-Serif" font-size="10.00">+ set_uniform()</text>
<text text-anchor="start" x="418" y="-692.5" font-family="Helvetica,sans-Serif" font-size="10.00">+ set_uniform()</text>
<text text-anchor="start" x="418" y="-681.5" font-family="Helvetica,sans-Serif" font-size="10.00">+ set_uniform()</text>
<text text-anchor="start" x="418" y="-670.5" font-family="Helvetica,sans-Serif" font-size="10.00">+ set_uniform()</text>
<text text-anchor="start" x="418" y="-659.5" font-family="Helvetica,sans-Serif" font-size="10.00">+ set_uniform()</text>
<text text-anchor="start" x="418" y="-648.5" font-family="Helvetica,sans-Serif" font-size="10.00">+ set_uniform()</text>
<text text-anchor="start" x="418" y="-637.5" font-family="Helvetica,sans-Serif" font-size="10.00">+ set_uniform()</text>
<text text-anchor="start" x="418" y="-626.5" font-family="Helvetica,sans-Serif" font-size="10.00">+ set_uniform()</text>
<text text-anchor="start" x="418" y="-615.5" font-family="Helvetica,sans-Serif" font-size="10.00">+ set_uniform()</text>
<text text-anchor="start" x="418" y="-604.5" font-family="Helvetica,sans-Serif" font-size="10.00">+ set_uniform()</text>
<text text-anchor="start" x="418" y="-593.5" font-family="Helvetica,sans-Serif" font-size="10.00">+ set_uniform()</text>
<text text-anchor="start" x="418" y="-582.5" font-family="Helvetica,sans-Serif" font-size="10.00">+ set_uniform()</text>
<text text-anchor="start" x="418" y="-571.5" font-family="Helvetica,sans-Serif" font-size="10.00">+ set_uniform()</text>
<text text-anchor="start" x="418" y="-560.5" font-family="Helvetica,sans-Serif" font-size="10.00">+ set_uniform()</text>
<text text-anchor="start" x="418" y="-549.5" font-family="Helvetica,sans-Serif" font-size="10.00"># get_uniform_location()</text>
<text text-anchor="start" x="418" y="-538.5" font-family="Helvetica,sans-Serif" font-size="10.00"># get_attrib_location()</text>
<text text-anchor="start" x="418" y="-527.5" font-family="Helvetica,sans-Serif" font-size="10.00"># create_shader()</text>
</a>
</g>
</g>
<!-- Node11&#45;&gt;Node10 -->
<g id="edge11" class="edge">
<title>Node11&#45;&gt;Node10</title>
<path fill="none" stroke="#404040" d="M500.05,-520.27C508.3,-479.97 519.2,-440.15 533.5,-403 544.28,-374.99 563.73,-347.61 580.99,-326.75"/>
<polygon fill="none" stroke="#404040" points="581.2,-326.5 582.04,-319.34 588.98,-317.36 588.14,-324.52 581.2,-326.5"/>
<text text-anchor="middle" x="558.5" y="-440.5" font-family="Helvetica,sans-Serif" font-size="10.00"> +shader_</text>
</g>
<!-- Node12 -->
<g id="node12" class="node">
<title>Node12</title>
<g id="a_node12"><a xlink:title=" ">
<polygon fill="white" stroke="#bfbfbf" points="287,-1329.5 287,-1386.5 408,-1386.5 408,-1329.5 287,-1329.5"/>
<text text-anchor="middle" x="347.5" y="-1374.5" font-family="Helvetica,sans-Serif" font-size="10.00">unique_ptr&lt; GLint[]&gt;</text>
<polyline fill="none" stroke="#bfbfbf" points="287,-1367.5 408,-1367.5 "/>
<text text-anchor="middle" x="347.5" y="-1355.5" font-family="Helvetica,sans-Serif" font-size="10.00"> </text>
<polyline fill="none" stroke="#bfbfbf" points="287,-1348.5 408,-1348.5 "/>
<text text-anchor="middle" x="347.5" y="-1336.5" font-family="Helvetica,sans-Serif" font-size="10.00"> </text>
</a>
</g>
</g>
<!-- Node12&#45;&gt;Node11 -->
<g id="edge12" class="edge">
<title>Node12&#45;&gt;Node11</title>
<path fill="none" stroke="#404040" d="M354.62,-1329.5C357.87,-1317.1 361.81,-1302.3 365.5,-1289 378.49,-1242.18 392.69,-1192.32 406.52,-1144.4"/>
<polygon fill="none" stroke="#404040" points="406.61,-1144.12 404.43,-1137.25 409.94,-1132.59 412.11,-1139.47 406.61,-1144.12"/>
<text text-anchor="middle" x="415" y="-1297.5" font-family="Helvetica,sans-Serif" font-size="10.00"> #uniform_handles_</text>
</g>
<!-- Node13 -->
<g id="node13" class="node">
<title>Node13</title>
<g id="a_node13"><a xlink:title=" ">
<polygon fill="white" stroke="#bfbfbf" points="481.5,-1329.5 481.5,-1386.5 525.5,-1386.5 525.5,-1329.5 481.5,-1329.5"/>
<text text-anchor="middle" x="503.5" y="-1374.5" font-family="Helvetica,sans-Serif" font-size="10.00">string</text>
<polyline fill="none" stroke="#bfbfbf" points="481.5,-1367.5 525.5,-1367.5 "/>
<text text-anchor="middle" x="503.5" y="-1355.5" font-family="Helvetica,sans-Serif" font-size="10.00"> </text>
<polyline fill="none" stroke="#bfbfbf" points="481.5,-1348.5 525.5,-1348.5 "/>
<text text-anchor="middle" x="503.5" y="-1336.5" font-family="Helvetica,sans-Serif" font-size="10.00"> </text>
</a>
</g>
</g>
<!-- Node13&#45;&gt;Node11 -->
<g id="edge13" class="edge">
<title>Node13&#45;&gt;Node11</title>
<path fill="none" stroke="#404040" d="M481.23,-1331.79C476.83,-1325.42 472.85,-1318.3 470.5,-1311 467.51,-1301.69 470.39,-1298.78 470.5,-1289 470.52,-1286.92 470.55,-1284.84 470.57,-1282.74"/>
<polygon fill="none" stroke="#404040" points="470.57,-1282.71 466.65,-1276.66 470.73,-1270.71 474.65,-1276.76 470.57,-1282.71"/>
<text text-anchor="middle" x="493" y="-1297.5" font-family="Helvetica,sans-Serif" font-size="10.00"> #name_</text>
</g>
<!-- Node17 -->
<g id="node17" class="node">
<title>Node17</title>
<g id="a_node17"><a xlink:href="classmkr_1_1texture.html" target="_top" xlink:title=" ">
<polygon fill="white" stroke="black" points="668.5,-828.5 668.5,-962.5 778.5,-962.5 778.5,-828.5 668.5,-828.5"/>
<text text-anchor="middle" x="723.5" y="-950.5" font-family="Helvetica,sans-Serif" font-size="10.00">mkr::texture</text>
<polyline fill="none" stroke="black" points="668.5,-943.5 778.5,-943.5 "/>
<text text-anchor="middle" x="723.5" y="-931.5" font-family="Helvetica,sans-Serif" font-size="10.00"> </text>
<polyline fill="none" stroke="black" points="668.5,-924.5 778.5,-924.5 "/>
<text text-anchor="start" x="676.5" y="-912.5" font-family="Helvetica,sans-Serif" font-size="10.00">+ ~texture()</text>
<text text-anchor="start" x="676.5" y="-901.5" font-family="Helvetica,sans-Serif" font-size="10.00">+ name()</text>
<text text-anchor="start" x="676.5" y="-890.5" font-family="Helvetica,sans-Serif" font-size="10.00">+ width()</text>
<text text-anchor="start" x="676.5" y="-879.5" font-family="Helvetica,sans-Serif" font-size="10.00">+ height()</text>
<text text-anchor="start" x="676.5" y="-868.5" font-family="Helvetica,sans-Serif" font-size="10.00">+ handle()</text>
<text text-anchor="start" x="676.5" y="-857.5" font-family="Helvetica,sans-Serif" font-size="10.00">+ bind()</text>
<text text-anchor="start" x="676.5" y="-846.5" font-family="Helvetica,sans-Serif" font-size="10.00"># texture()</text>
<text text-anchor="start" x="676.5" y="-835.5" font-family="Helvetica,sans-Serif" font-size="10.00"># mip_map_level()</text>
</a>
</g>
</g>
<!-- Node13&#45;&gt;Node17 -->
<g id="edge19" class="edge">
<title>Node13&#45;&gt;Node17</title>
<path fill="none" stroke="#404040" d="M516.22,-1329.44C522.69,-1316.62 531.17,-1301.49 540.5,-1289 547.27,-1279.94 552.11,-1280.34 558.5,-1271 623.01,-1176.75 671.56,-1053.2 698.76,-974.31"/>
<polygon fill="none" stroke="#404040" points="698.91,-973.89 697.06,-966.92 702.78,-962.53 704.63,-969.5 698.91,-973.89"/>
<text text-anchor="middle" x="563" y="-1297.5" font-family="Helvetica,sans-Serif" font-size="10.00"> #name_</text>
</g>
<!-- Node14 -->
<g id="node14" class="node">
<title>Node14</title>
<g id="a_node14"><a xlink:title=" ">
<polygon fill="white" stroke="#bfbfbf" points="641.5,-1329.5 641.5,-1386.5 689.5,-1386.5 689.5,-1329.5 641.5,-1329.5"/>
<text text-anchor="middle" x="665.5" y="-1374.5" font-family="Helvetica,sans-Serif" font-size="10.00">GLuint</text>
<polyline fill="none" stroke="#bfbfbf" points="641.5,-1367.5 689.5,-1367.5 "/>
<text text-anchor="middle" x="665.5" y="-1355.5" font-family="Helvetica,sans-Serif" font-size="10.00"> </text>
<polyline fill="none" stroke="#bfbfbf" points="641.5,-1348.5 689.5,-1348.5 "/>
<text text-anchor="middle" x="665.5" y="-1336.5" font-family="Helvetica,sans-Serif" font-size="10.00"> </text>
</a>
</g>
</g>
<!-- Node14&#45;&gt;Node11 -->
<g id="edge14" class="edge">
<title>Node14&#45;&gt;Node11</title>
<path fill="none" stroke="#404040" d="M641.49,-1344.62C628.24,-1336.67 612.49,-1325.17 602.5,-1311 583.49,-1284.04 567.38,-1254.13 553.74,-1223.07"/>
<polygon fill="none" stroke="#404040" points="553.73,-1223.06 547.7,-1219.12 549.01,-1212.03 555.05,-1215.97 553.73,-1223.06"/>
<text text-anchor="middle" x="651" y="-1297.5" font-family="Helvetica,sans-Serif" font-size="10.00"> #program_handle_</text>
</g>
<!-- Node14&#45;&gt;Node17 -->
<g id="edge20" class="edge">
<title>Node14&#45;&gt;Node17</title>
<path fill="none" stroke="#404040" d="M689.66,-1333.6C695.19,-1326.86 700.36,-1319.11 703.5,-1311 746.37,-1200.26 742.33,-1060.3 734.01,-974.65"/>
<polygon fill="none" stroke="#404040" points="734.01,-974.61 729.42,-969.05 732.78,-962.67 737.37,-968.23 734.01,-974.61"/>
<text text-anchor="middle" x="735.5" y="-1297.5" font-family="Helvetica,sans-Serif" font-size="10.00"> #handle_</text>
</g>
<!-- Node15 -->
<g id="node15" class="node">
<title>Node15</title>
<g id="a_node15"><a xlink:title=" ">
<polygon fill="white" stroke="#bfbfbf" points="592,-414.5 592,-471.5 639,-471.5 639,-414.5 592,-414.5"/>
<text text-anchor="middle" x="615.5" y="-459.5" font-family="Helvetica,sans-Serif" font-size="10.00">colour</text>
<polyline fill="none" stroke="#bfbfbf" points="592,-452.5 639,-452.5 "/>
<text text-anchor="middle" x="615.5" y="-440.5" font-family="Helvetica,sans-Serif" font-size="10.00"> </text>
<polyline fill="none" stroke="#bfbfbf" points="592,-433.5 639,-433.5 "/>
<text text-anchor="middle" x="615.5" y="-421.5" font-family="Helvetica,sans-Serif" font-size="10.00"> </text>
</a>
</g>
</g>
<!-- Node15&#45;&gt;Node10 -->
<g id="edge15" class="edge">
<title>Node15&#45;&gt;Node10</title>
<path fill="none" stroke="#404040" d="M615.5,-414.38C615.5,-390.6 615.5,-355.98 615.5,-329.22"/>
<polygon fill="none" stroke="#404040" points="615.5,-329.17 611.5,-323.17 615.5,-317.17 619.5,-323.17 615.5,-329.17"/>
<text text-anchor="middle" x="639" y="-360.5" font-family="Helvetica,sans-Serif" font-size="10.00"> +colour_</text>
</g>
<!-- Node16 -->
<g id="node16" class="node">
<title>Node16</title>
<g id="a_node16"><a xlink:href="classmkr_1_1cubemap.html" target="_top" xlink:title=" ">
<polygon fill="white" stroke="black" points="659,-403.5 659,-482.5 748,-482.5 748,-403.5 659,-403.5"/>
<text text-anchor="middle" x="703.5" y="-470.5" font-family="Helvetica,sans-Serif" font-size="10.00">mkr::cubemap</text>
<polyline fill="none" stroke="black" points="659,-463.5 748,-463.5 "/>
<text text-anchor="middle" x="703.5" y="-451.5" font-family="Helvetica,sans-Serif" font-size="10.00"> </text>
<polyline fill="none" stroke="black" points="659,-444.5 748,-444.5 "/>
<text text-anchor="start" x="667" y="-432.5" font-family="Helvetica,sans-Serif" font-size="10.00">+ cubemap()</text>
<text text-anchor="start" x="667" y="-421.5" font-family="Helvetica,sans-Serif" font-size="10.00">+ cubemap()</text>
<text text-anchor="start" x="667" y="-410.5" font-family="Helvetica,sans-Serif" font-size="10.00">+ ~cubemap()</text>
</a>
</g>
</g>
<!-- Node16&#45;&gt;Node10 -->
<g id="edge16" class="edge">
<title>Node16&#45;&gt;Node10</title>
<path fill="none" stroke="#404040" d="M693.59,-403.27C687.54,-383.68 678.61,-360.07 666.5,-341 663.21,-335.82 659.33,-330.75 655.19,-325.93"/>
<polygon fill="none" stroke="#404040" points="655.12,-325.86 648.12,-324.13 647.02,-317.01 654.02,-318.73 655.12,-325.86"/>
<text text-anchor="middle" x="712.5" y="-360.5" font-family="Helvetica,sans-Serif" font-size="10.00"> +texture_</text>
</g>
<!-- Node17&#45;&gt;Node16 -->
<g id="edge17" class="edge">
<title>Node17&#45;&gt;Node16</title>
<path fill="none" stroke="midnightblue" d="M720.1,-817.98C715.79,-720.87 708.52,-557.09 705.22,-482.76"/>
<polygon fill="none" stroke="midnightblue" points="716.61,-818.19 720.55,-828.03 723.6,-817.88 716.61,-818.19"/>
</g>
<!-- Node18 -->
<g id="node18" class="node">
<title>Node18</title>
<g id="a_node18"><a xlink:title=" ">
<polygon fill="white" stroke="#bfbfbf" points="770.5,-1329.5 770.5,-1386.5 826.5,-1386.5 826.5,-1329.5 770.5,-1329.5"/>
<text text-anchor="middle" x="798.5" y="-1374.5" font-family="Helvetica,sans-Serif" font-size="10.00">uint32_t</text>
<polyline fill="none" stroke="#bfbfbf" points="770.5,-1367.5 826.5,-1367.5 "/>
<text text-anchor="middle" x="798.5" y="-1355.5" font-family="Helvetica,sans-Serif" font-size="10.00"> </text>
<polyline fill="none" stroke="#bfbfbf" points="770.5,-1348.5 826.5,-1348.5 "/>
<text text-anchor="middle" x="798.5" y="-1336.5" font-family="Helvetica,sans-Serif" font-size="10.00"> </text>
</a>
</g>
</g>
<!-- Node18&#45;&gt;Node17 -->
<g id="edge18" class="edge">
<title>Node18&#45;&gt;Node17</title>
<path fill="none" stroke="#404040" d="M793.98,-1329.23C782.75,-1260.3 753.29,-1079.41 736.22,-974.61"/>
<polygon fill="none" stroke="#404040" points="736.18,-974.38 731.27,-969.1 734.26,-962.54 739.17,-967.82 736.18,-974.38"/>
<text text-anchor="middle" x="814.5" y="-1303" font-family="Helvetica,sans-Serif" font-size="10.00"> #height_</text>
<text text-anchor="middle" x="814.5" y="-1292" font-family="Helvetica,sans-Serif" font-size="10.00">#width_</text>
</g>
<!-- Node19 -->
<g id="node19" class="node">
<title>Node19</title>
<g id="a_node19"><a xlink:title=" ">
<polygon fill="white" stroke="#bfbfbf" points="672.5,-260 672.5,-317 722.5,-317 722.5,-260 672.5,-260"/>
<text text-anchor="middle" x="697.5" y="-305" font-family="Helvetica,sans-Serif" font-size="10.00">uint8_t</text>
<polyline fill="none" stroke="#bfbfbf" points="672.5,-298 722.5,-298 "/>
<text text-anchor="middle" x="697.5" y="-286" font-family="Helvetica,sans-Serif" font-size="10.00"> </text>
<polyline fill="none" stroke="#bfbfbf" points="672.5,-279 722.5,-279 "/>
<text text-anchor="middle" x="697.5" y="-267" font-family="Helvetica,sans-Serif" font-size="10.00"> </text>
</a>
</g>
</g>
<!-- Node19&#45;&gt;Node6 -->
<g id="edge21" class="edge">
<title>Node19&#45;&gt;Node6</title>
<path fill="none" stroke="#404040" d="M687.46,-259.71C678.13,-237.91 662.1,-208.59 638.5,-192 589.41,-157.49 519.76,-147.91 472.49,-145.72"/>
<polygon fill="none" stroke="#404040" points="472.38,-145.72 466.25,-149.51 460.39,-145.3 466.53,-141.51 472.38,-145.72"/>
<text text-anchor="middle" x="697" y="-211.5" font-family="Helvetica,sans-Serif" font-size="10.00"> +depth_</text>
</g>
</g>
</svg>
        <g id="navigator" transform="translate(0 0)" fill="#404254">
                <rect fill="#f2f5e9" fill-opacity="0.5" stroke="#606060" stroke-width=".5" x="0" y="0" width="60" height="60"/>
                <use id="zoomplus" xlink:href="#zoomPlus" x="17" y="9" onmousedown="handleZoom(evt,'in')"/>
                <use id="zoomminus" xlink:href="#zoomMin" x="42" y="9" onmousedown="handleZoom(evt,'out')"/>
                <use id="reset" xlink:href="#resetDef" x="30" y="36" onmousedown="handleReset()"/>
                <g id="arrowUp" xlink:href="#dirArrow" transform="translate(30 24)" onmousedown="handlePan(0,-1)">
                  <use xlink:href="#rim" fill="#404040">
                        <set attributeName="fill" to="#808080" begin="arrowUp.mouseover" end="arrowUp.mouseout"/>
                  </use>
                  <path fill="none" stroke="white" stroke-width="1.5" d="M0,-3.0v7 M-2.5,-0.5L0,-3.0L2.5,-0.5"/>
                </g>
                <g id="arrowRight" xlink:href="#dirArrow" transform="rotate(90) translate(36 -43)" onmousedown="handlePan(1,0)">
                  <use xlink:href="#rim" fill="#404040">
                        <set attributeName="fill" to="#808080" begin="arrowRight.mouseover" end="arrowRight.mouseout"/>
                  </use>
                  <path fill="none" stroke="white" stroke-width="1.5" d="M0,-3.0v7 M-2.5,-0.5L0,-3.0L2.5,-0.5"/>
                </g>
                <g id="arrowDown" xlink:href="#dirArrow" transform="rotate(180) translate(-30 -48)" onmousedown="handlePan(0,1)">
                  <use xlink:href="#rim" fill="#404040">
                        <set attributeName="fill" to="#808080" begin="arrowDown.mouseover" end="arrowDown.mouseout"/>
                  </use>
                  <path fill="none" stroke="white" stroke-width="1.5" d="M0,-3.0v7 M-2.5,-0.5L0,-3.0L2.5,-0.5"/>
                </g>
                <g id="arrowLeft" xlink:href="#dirArrow" transform="rotate(270) translate(-36 17)" onmousedown="handlePan(-1,0)">
                  <use xlink:href="#rim" fill="#404040">
                        <set attributeName="fill" to="#808080" begin="arrowLeft.mouseover" end="arrowLeft.mouseout"/>
                  </use>
                  <path fill="none" stroke="white" stroke-width="1.5" d="M0,-3.0v7 M-2.5,-0.5L0,-3.0L2.5,-0.5"/>
                </g>
        </g>
        <svg viewBox="0 0 15 15" width="100%" height="30px" preserveAspectRatio="xMaxYMin meet">
         <g id="arrow_out" transform="scale(0.3 0.3)">
          <a xlink:href="structmkr_1_1graphics__renderer_1_1camera__data__coll__graph_org.svg" target="_base">
           <rect id="button" ry="5" rx="5" y="6" x="6" height="38" width="38"
                fill="#f2f5e9" fill-opacity="0.5" stroke="#606060" stroke-width="1.0"/>
           <path id="arrow"
             d="M 11.500037,31.436501 C 11.940474,20.09759 22.043105,11.32322 32.158766,21.979434 L 37.068811,17.246167 C 37.068811,17.246167 37.088388,32 37.088388,32 L 22.160133,31.978069 C 22.160133,31.978069 26.997745,27.140456 26.997745,27.140456 C 18.528582,18.264221 13.291696,25.230495 11.500037,31.436501 z"
             style="fill:#404040;"/>
          </a>
         </g>
        </svg>
</svg>
