<?xml version="1.0" encoding="UTF-8" standalone="no"?>
<!DOCTYPE svg PUBLIC "-//W3C//DTD SVG 1.1//EN"
 "http://www.w3.org/Graphics/SVG/1.1/DTD/svg11.dtd">
<!-- Generated by graphviz version 2.43.0 (0)
 -->
<!-- Title: mkr::vertex Pages: 1 -->
<svg width="107pt" height="204pt"
 viewBox="0.00 0.00 107.00 204.00" xmlns="http://www.w3.org/2000/svg" xmlns:xlink="http://www.w3.org/1999/xlink">
<g id="graph0" class="graph" transform="scale(1 1) rotate(0) translate(4 200)">
<title>mkr::vertex</title>
<polygon fill="white" stroke="transparent" points="-4,4 -4,-200 103,-200 103,4 -4,4"/>
<!-- Node1 -->
<g id="node1" class="node">
<title>Node1</title>
<g id="a_node1"><a xlink:title=" ">
<polygon fill="#bfbfbf" stroke="black" points="0,-0.5 0,-57.5 74,-57.5 74,-0.5 0,-0.5"/>
<text text-anchor="middle" x="37" y="-45.5" font-family="Helvetica,sans-Serif" font-size="10.00">mkr::vertex</text>
<polyline fill="none" stroke="black" points="0,-38.5 74,-38.5 "/>
<text text-anchor="middle" x="37" y="-26.5" font-family="Helvetica,sans-Serif" font-size="10.00"> </text>
<polyline fill="none" stroke="black" points="0,-19.5 74,-19.5 "/>
<text text-anchor="middle" x="37" y="-7.5" font-family="Helvetica,sans-Serif" font-size="10.00"> </text>
</a>
</g>
</g>
<!-- Node2 -->
<g id="node2" class="node">
<title>Node2</title>
<g id="a_node2"><a xlink:title=" ">
<polygon fill="white" stroke="#bfbfbf" points="10.5,-138.5 10.5,-195.5 63.5,-195.5 63.5,-138.5 10.5,-138.5"/>
<text text-anchor="middle" x="37" y="-183.5" font-family="Helvetica,sans-Serif" font-size="10.00">vector3</text>
<polyline fill="none" stroke="#bfbfbf" points="10.5,-176.5 63.5,-176.5 "/>
<text text-anchor="middle" x="37" y="-164.5" font-family="Helvetica,sans-Serif" font-size="10.00"> </text>
<polyline fill="none" stroke="#bfbfbf" points="10.5,-157.5 63.5,-157.5 "/>
<text text-anchor="middle" x="37" y="-145.5" font-family="Helvetica,sans-Serif" font-size="10.00"> </text>
</a>
</g>
</g>
<!-- Node2&#45;&gt;Node1 -->
<g id="edge1" class="edge">
<title>Node2&#45;&gt;Node1</title>
<path fill="none" stroke="#404040" d="M37,-138.48C37,-118.79 37,-91.99 37,-69.95"/>
<polygon fill="none" stroke="#404040" points="37,-69.95 33,-63.95 37,-57.95 41,-63.95 37,-69.95"/>
<text text-anchor="middle" x="68" y="-112" font-family="Helvetica,sans-Serif" font-size="10.00"> +normal_</text>
<text text-anchor="middle" x="68" y="-101" font-family="Helvetica,sans-Serif" font-size="10.00">+position_</text>
<text text-anchor="middle" x="68" y="-90" font-family="Helvetica,sans-Serif" font-size="10.00">+tangent_</text>
<text text-anchor="middle" x="68" y="-79" font-family="Helvetica,sans-Serif" font-size="10.00">+tex_coord_</text>
</g>
</g>
</svg>
