<?xml version="1.0" encoding="UTF-8" standalone="no"?>
<!DOCTYPE svg PUBLIC "-//W3C//DTD SVG 1.1//EN"
 "http://www.w3.org/Graphics/SVG/1.1/DTD/svg11.dtd">
<!-- Generated by graphviz version 2.43.0 (0)
 -->
<!-- Title: mkr::render_mesh Pages: 1 -->
<!--zoomable 1268 -->
<svg id="main" version="1.1" xmlns="http://www.w3.org/2000/svg" xmlns:xlink="http://www.w3.org/1999/xlink" xml:space="preserve" onload="init(evt)">
<style type="text/css"><![CDATA[
.edge:hover path { stroke: red; }
.edge:hover polygon { stroke: red; fill: red; }
]]></style>
<script type="text/javascript"><![CDATA[
var edges = document.getElementsByTagName('g');
if (edges && edges.length) {
  for (var i=0;i<edges.length;i++) {
    if (edges[i].id.substr(0,4)=='edge') {
      edges[i].setAttribute('class','edge');
    }
  }
}
]]></script>
        <defs>
                <circle id="rim" cx="0" cy="0" r="7"/>
                <circle id="rim2" cx="0" cy="0" r="3.5"/>
                <g id="zoomPlus">
                        <use xlink:href="#rim" fill="#404040">
                                <set attributeName="fill" to="#808080" begin="zoomplus.mouseover" end="zoomplus.mouseout"/>
                        </use>
                        <path d="M-4,0h8M0,-4v8" fill="none" stroke="white" stroke-width="1.5" pointer-events="none"/>
                </g>
                <g id="zoomMin">
                        <use xlink:href="#rim" fill="#404040">
                                <set attributeName="fill" to="#808080" begin="zoomminus.mouseover" end="zoomminus.mouseout"/>
                        </use>
                        <path d="M-4,0h8" fill="none" stroke="white" stroke-width="1.5" pointer-events="none"/>
                </g>
                <g id="dirArrow">
                        <path fill="none" stroke="white" stroke-width="1.5" d="M0,-3.0v7 M-2.5,-0.5L0,-3.0L2.5,-0.5"/>
                </g>
               <g id="resetDef">
                       <use xlink:href="#rim2" fill="#404040">
                               <set attributeName="fill" to="#808080" begin="reset.mouseover" end="reset.mouseout"/>
                       </use>
               </g>
        </defs>

<script type="text/javascript">
var viewWidth = 1174;
var viewHeight = 1268;
var sectionId = 'dynsection-0';
</script>
<script xlink:href="svgpan.js"/>
<svg id="graph" class="graph">
<g id="viewport">
<title>mkr::render_mesh</title>
<polygon fill="white" stroke="transparent" points="-4,4 -4,-1264 1169.5,-1264 1169.5,4 -4,4"/>
<!-- Node1 -->
<g id="node1" class="node">
<title>Node1</title>
<g id="a_node1"><a xlink:title=" ">
<polygon fill="#bfbfbf" stroke="black" points="204.5,-0.5 204.5,-57.5 310.5,-57.5 310.5,-0.5 204.5,-0.5"/>
<text text-anchor="middle" x="257.5" y="-45.5" font-family="Helvetica,sans-Serif" font-size="10.00">mkr::render_mesh</text>
<polyline fill="none" stroke="black" points="204.5,-38.5 310.5,-38.5 "/>
<text text-anchor="middle" x="257.5" y="-26.5" font-family="Helvetica,sans-Serif" font-size="10.00"> </text>
<polyline fill="none" stroke="black" points="204.5,-19.5 310.5,-19.5 "/>
<text text-anchor="middle" x="257.5" y="-7.5" font-family="Helvetica,sans-Serif" font-size="10.00"> </text>
</a>
</g>
</g>
<!-- Node2 -->
<g id="node2" class="node">
<title>Node2</title>
<g id="a_node2"><a xlink:href="classmkr_1_1mesh.html" target="_top" xlink:title=" ">
<polygon fill="white" stroke="black" points="179.5,-712.5 179.5,-835.5 303.5,-835.5 303.5,-712.5 179.5,-712.5"/>
<text text-anchor="middle" x="241.5" y="-823.5" font-family="Helvetica,sans-Serif" font-size="10.00">mkr::mesh</text>
<polyline fill="none" stroke="black" points="179.5,-816.5 303.5,-816.5 "/>
<text text-anchor="middle" x="241.5" y="-804.5" font-family="Helvetica,sans-Serif" font-size="10.00"> </text>
<polyline fill="none" stroke="black" points="179.5,-797.5 303.5,-797.5 "/>
<text text-anchor="start" x="187.5" y="-785.5" font-family="Helvetica,sans-Serif" font-size="10.00">+ mesh()</text>
<text text-anchor="start" x="187.5" y="-774.5" font-family="Helvetica,sans-Serif" font-size="10.00">+ ~mesh()</text>
<text text-anchor="start" x="187.5" y="-763.5" font-family="Helvetica,sans-Serif" font-size="10.00">+ name()</text>
<text text-anchor="start" x="187.5" y="-752.5" font-family="Helvetica,sans-Serif" font-size="10.00">+ indices()</text>
<text text-anchor="start" x="187.5" y="-741.5" font-family="Helvetica,sans-Serif" font-size="10.00">+ num_indices()</text>
<text text-anchor="start" x="187.5" y="-730.5" font-family="Helvetica,sans-Serif" font-size="10.00">+ bind()</text>
<text text-anchor="start" x="187.5" y="-719.5" font-family="Helvetica,sans-Serif" font-size="10.00">+ set_instance_data()</text>
</a>
</g>
</g>
<!-- Node2&#45;&gt;Node1 -->
<g id="edge1" class="edge">
<title>Node2&#45;&gt;Node1</title>
<path fill="none" stroke="#404040" d="M241.63,-712.34C242,-606.64 243.51,-381.81 249.5,-192 250.82,-150.26 253.29,-102.51 255.14,-69.72"/>
<polygon fill="none" stroke="#404040" points="255.16,-69.49 251.51,-63.27 255.84,-57.51 259.49,-63.72 255.16,-69.49"/>
<text text-anchor="middle" x="271.5" y="-228" font-family="Helvetica,sans-Serif" font-size="10.00"> +mesh_</text>
</g>
<!-- Node3 -->
<g id="node3" class="node">
<title>Node3</title>
<g id="a_node3"><a xlink:title=" ">
<polygon fill="white" stroke="#bfbfbf" points="0,-1202.5 0,-1259.5 127,-1259.5 127,-1202.5 0,-1202.5"/>
<text text-anchor="middle" x="63.5" y="-1247.5" font-family="Helvetica,sans-Serif" font-size="10.00">vector&lt; mkr::vertex &gt;</text>
<polyline fill="none" stroke="#bfbfbf" points="0,-1240.5 127,-1240.5 "/>
<text text-anchor="middle" x="63.5" y="-1228.5" font-family="Helvetica,sans-Serif" font-size="10.00"> </text>
<polyline fill="none" stroke="#bfbfbf" points="0,-1221.5 127,-1221.5 "/>
<text text-anchor="middle" x="63.5" y="-1209.5" font-family="Helvetica,sans-Serif" font-size="10.00"> </text>
</a>
</g>
</g>
<!-- Node3&#45;&gt;Node2 -->
<g id="edge2" class="edge">
<title>Node3&#45;&gt;Node2</title>
<path fill="none" stroke="#404040" d="M74.37,-1202.22C101.55,-1132.74 173.18,-949.65 213.28,-847.13"/>
<polygon fill="none" stroke="#404040" points="213.4,-846.83 211.86,-839.78 217.77,-835.65 219.31,-842.7 213.4,-846.83"/>
<text text-anchor="middle" x="115" y="-1170.5" font-family="Helvetica,sans-Serif" font-size="10.00"> &#45;vertices_</text>
</g>
<!-- Node4 -->
<g id="node4" class="node">
<title>Node4</title>
<g id="a_node4"><a xlink:title=" ">
<polygon fill="white" stroke="#bfbfbf" points="145.5,-1202.5 145.5,-1259.5 255.5,-1259.5 255.5,-1202.5 145.5,-1202.5"/>
<text text-anchor="middle" x="200.5" y="-1247.5" font-family="Helvetica,sans-Serif" font-size="10.00">vector&lt; uint32_t &gt;</text>
<polyline fill="none" stroke="#bfbfbf" points="145.5,-1240.5 255.5,-1240.5 "/>
<text text-anchor="middle" x="200.5" y="-1228.5" font-family="Helvetica,sans-Serif" font-size="10.00"> </text>
<polyline fill="none" stroke="#bfbfbf" points="145.5,-1221.5 255.5,-1221.5 "/>
<text text-anchor="middle" x="200.5" y="-1209.5" font-family="Helvetica,sans-Serif" font-size="10.00"> </text>
</a>
</g>
</g>
<!-- Node4&#45;&gt;Node2 -->
<g id="edge3" class="edge">
<title>Node4&#45;&gt;Node2</title>
<path fill="none" stroke="#404040" d="M203,-1202.22C209.25,-1132.88 225.7,-950.39 234.94,-847.76"/>
<polygon fill="none" stroke="#404040" points="234.96,-847.6 231.51,-841.27 236.03,-835.65 239.48,-841.99 234.96,-847.6"/>
<text text-anchor="middle" x="230" y="-1170.5" font-family="Helvetica,sans-Serif" font-size="10.00"> &#45;indices_</text>
</g>
<!-- Node5 -->
<g id="node5" class="node">
<title>Node5</title>
<g id="a_node5"><a xlink:title=" ">
<polygon fill="white" stroke="#bfbfbf" points="273.5,-1202.5 273.5,-1259.5 407.5,-1259.5 407.5,-1202.5 273.5,-1202.5"/>
<text text-anchor="middle" x="340.5" y="-1247.5" font-family="Helvetica,sans-Serif" font-size="10.00">unique_ptr&lt; mkr::vao &gt;</text>
<polyline fill="none" stroke="#bfbfbf" points="273.5,-1240.5 407.5,-1240.5 "/>
<text text-anchor="middle" x="340.5" y="-1228.5" font-family="Helvetica,sans-Serif" font-size="10.00"> </text>
<polyline fill="none" stroke="#bfbfbf" points="273.5,-1221.5 407.5,-1221.5 "/>
<text text-anchor="middle" x="340.5" y="-1209.5" font-family="Helvetica,sans-Serif" font-size="10.00"> </text>
</a>
</g>
</g>
<!-- Node5&#45;&gt;Node2 -->
<g id="edge4" class="edge">
<title>Node5&#45;&gt;Node2</title>
<path fill="none" stroke="#404040" d="M334.46,-1202.22C319.35,-1132.81 279.58,-950.02 257.26,-847.45"/>
<polygon fill="none" stroke="#404040" points="257.25,-847.38 252.06,-842.37 254.7,-835.65 259.88,-840.66 257.25,-847.38"/>
<text text-anchor="middle" x="345.5" y="-1170.5" font-family="Helvetica,sans-Serif" font-size="10.00"> &#45;vao_</text>
</g>
<!-- Node6 -->
<g id="node6" class="node">
<title>Node6</title>
<g id="a_node6"><a xlink:title=" ">
<polygon fill="white" stroke="#bfbfbf" points="649.5,-1202.5 649.5,-1259.5 693.5,-1259.5 693.5,-1202.5 649.5,-1202.5"/>
<text text-anchor="middle" x="671.5" y="-1247.5" font-family="Helvetica,sans-Serif" font-size="10.00">string</text>
<polyline fill="none" stroke="#bfbfbf" points="649.5,-1240.5 693.5,-1240.5 "/>
<text text-anchor="middle" x="671.5" y="-1228.5" font-family="Helvetica,sans-Serif" font-size="10.00"> </text>
<polyline fill="none" stroke="#bfbfbf" points="649.5,-1221.5 693.5,-1221.5 "/>
<text text-anchor="middle" x="671.5" y="-1209.5" font-family="Helvetica,sans-Serif" font-size="10.00"> </text>
</a>
</g>
</g>
<!-- Node6&#45;&gt;Node2 -->
<g id="edge5" class="edge">
<title>Node6&#45;&gt;Node2</title>
<path fill="none" stroke="#404040" d="M649.09,-1206.63C642.16,-1199.38 634.5,-1191.37 627.5,-1184 514.66,-1065.24 383.93,-926.46 307.22,-844.92"/>
<polygon fill="none" stroke="#404040" points="306.82,-844.49 299.79,-842.87 298.6,-835.75 305.62,-837.38 306.82,-844.49"/>
<text text-anchor="middle" x="647.5" y="-1170.5" font-family="Helvetica,sans-Serif" font-size="10.00"> &#45;name_</text>
</g>
<!-- Node10 -->
<g id="node10" class="node">
<title>Node10</title>
<g id="a_node10"><a xlink:href="classmkr_1_1texture.html" target="_top" xlink:title=" ">
<polygon fill="white" stroke="black" points="941.5,-701.5 941.5,-846.5 1051.5,-846.5 1051.5,-701.5 941.5,-701.5"/>
<text text-anchor="middle" x="996.5" y="-834.5" font-family="Helvetica,sans-Serif" font-size="10.00">mkr::texture</text>
<polyline fill="none" stroke="black" points="941.5,-827.5 1051.5,-827.5 "/>
<text text-anchor="middle" x="996.5" y="-815.5" font-family="Helvetica,sans-Serif" font-size="10.00"> </text>
<polyline fill="none" stroke="black" points="941.5,-808.5 1051.5,-808.5 "/>
<text text-anchor="start" x="949.5" y="-796.5" font-family="Helvetica,sans-Serif" font-size="10.00">+ ~texture()</text>
<text text-anchor="start" x="949.5" y="-785.5" font-family="Helvetica,sans-Serif" font-size="10.00">+ name()</text>
<text text-anchor="start" x="949.5" y="-774.5" font-family="Helvetica,sans-Serif" font-size="10.00">+ width()</text>
<text text-anchor="start" x="949.5" y="-763.5" font-family="Helvetica,sans-Serif" font-size="10.00">+ height()</text>
<text text-anchor="start" x="949.5" y="-752.5" font-family="Helvetica,sans-Serif" font-size="10.00">+ wrap_mode()</text>
<text text-anchor="start" x="949.5" y="-741.5" font-family="Helvetica,sans-Serif" font-size="10.00">+ handle()</text>
<text text-anchor="start" x="949.5" y="-730.5" font-family="Helvetica,sans-Serif" font-size="10.00">+ bind()</text>
<text text-anchor="start" x="949.5" y="-719.5" font-family="Helvetica,sans-Serif" font-size="10.00"># texture()</text>
<text text-anchor="start" x="949.5" y="-708.5" font-family="Helvetica,sans-Serif" font-size="10.00"># mip_map_level()</text>
</a>
</g>
</g>
<!-- Node6&#45;&gt;Node10 -->
<g id="edge12" class="edge">
<title>Node6&#45;&gt;Node10</title>
<path fill="none" stroke="#404040" d="M693.93,-1208.42C701.57,-1200.85 710.06,-1192.19 717.5,-1184 733,-1166.94 736.76,-1162.5 750.5,-1144 821.76,-1048.08 897.03,-932.84 945.26,-856.96"/>
<polygon fill="none" stroke="#404040" points="945.45,-856.65 945.29,-849.44 951.88,-846.52 952.04,-853.73 945.45,-856.65"/>
<text text-anchor="middle" x="758" y="-1170.5" font-family="Helvetica,sans-Serif" font-size="10.00"> #name_</text>
</g>
<!-- Node17 -->
<g id="node17" class="node">
<title>Node17</title>
<g id="a_node17"><a xlink:href="classmkr_1_1shader__program.html" target="_top" xlink:title=" ">
<polygon fill="white" stroke="black" points="602,-404.5 602,-1143.5 741,-1143.5 741,-404.5 602,-404.5"/>
<text text-anchor="middle" x="671.5" y="-1131.5" font-family="Helvetica,sans-Serif" font-size="10.00">mkr::shader_program</text>
<polyline fill="none" stroke="black" points="602,-1124.5 741,-1124.5 "/>
<text text-anchor="middle" x="671.5" y="-1112.5" font-family="Helvetica,sans-Serif" font-size="10.00"> </text>
<polyline fill="none" stroke="black" points="602,-1105.5 741,-1105.5 "/>
<text text-anchor="start" x="610" y="-1093.5" font-family="Helvetica,sans-Serif" font-size="10.00">+ shader_program()</text>
<text text-anchor="start" x="610" y="-1082.5" font-family="Helvetica,sans-Serif" font-size="10.00">+ ~shader_program()</text>
<text text-anchor="start" x="610" y="-1071.5" font-family="Helvetica,sans-Serif" font-size="10.00">+ name()</text>
<text text-anchor="start" x="610" y="-1060.5" font-family="Helvetica,sans-Serif" font-size="10.00">+ use()</text>
<text text-anchor="start" x="610" y="-1049.5" font-family="Helvetica,sans-Serif" font-size="10.00">+ set_uniform()</text>
<text text-anchor="start" x="610" y="-1038.5" font-family="Helvetica,sans-Serif" font-size="10.00">+ set_uniform()</text>
<text text-anchor="start" x="610" y="-1027.5" font-family="Helvetica,sans-Serif" font-size="10.00">+ set_uniform()</text>
<text text-anchor="start" x="610" y="-1016.5" font-family="Helvetica,sans-Serif" font-size="10.00">+ set_uniform()</text>
<text text-anchor="start" x="610" y="-1005.5" font-family="Helvetica,sans-Serif" font-size="10.00">+ set_uniform()</text>
<text text-anchor="start" x="610" y="-994.5" font-family="Helvetica,sans-Serif" font-size="10.00">+ set_uniform()</text>
<text text-anchor="start" x="610" y="-983.5" font-family="Helvetica,sans-Serif" font-size="10.00">+ set_uniform()</text>
<text text-anchor="start" x="610" y="-972.5" font-family="Helvetica,sans-Serif" font-size="10.00">+ set_uniform()</text>
<text text-anchor="start" x="610" y="-961.5" font-family="Helvetica,sans-Serif" font-size="10.00">+ set_uniform()</text>
<text text-anchor="start" x="610" y="-950.5" font-family="Helvetica,sans-Serif" font-size="10.00">+ set_uniform()</text>
<text text-anchor="start" x="610" y="-939.5" font-family="Helvetica,sans-Serif" font-size="10.00">+ set_uniform()</text>
<text text-anchor="start" x="610" y="-928.5" font-family="Helvetica,sans-Serif" font-size="10.00">+ set_uniform()</text>
<text text-anchor="start" x="610" y="-917.5" font-family="Helvetica,sans-Serif" font-size="10.00">+ set_uniform()</text>
<text text-anchor="start" x="610" y="-906.5" font-family="Helvetica,sans-Serif" font-size="10.00">+ set_uniform()</text>
<text text-anchor="start" x="610" y="-895.5" font-family="Helvetica,sans-Serif" font-size="10.00">+ set_uniform()</text>
<text text-anchor="start" x="610" y="-884.5" font-family="Helvetica,sans-Serif" font-size="10.00">+ set_uniform()</text>
<text text-anchor="start" x="610" y="-873.5" font-family="Helvetica,sans-Serif" font-size="10.00">+ set_uniform()</text>
<text text-anchor="start" x="610" y="-862.5" font-family="Helvetica,sans-Serif" font-size="10.00">+ set_uniform()</text>
<text text-anchor="start" x="610" y="-851.5" font-family="Helvetica,sans-Serif" font-size="10.00">+ set_uniform()</text>
<text text-anchor="start" x="610" y="-840.5" font-family="Helvetica,sans-Serif" font-size="10.00">+ set_uniform()</text>
<text text-anchor="start" x="610" y="-829.5" font-family="Helvetica,sans-Serif" font-size="10.00">+ set_uniform()</text>
<text text-anchor="start" x="610" y="-818.5" font-family="Helvetica,sans-Serif" font-size="10.00">+ set_uniform()</text>
<text text-anchor="start" x="610" y="-807.5" font-family="Helvetica,sans-Serif" font-size="10.00">+ set_uniform()</text>
<text text-anchor="start" x="610" y="-796.5" font-family="Helvetica,sans-Serif" font-size="10.00">+ set_uniform()</text>
<text text-anchor="start" x="610" y="-785.5" font-family="Helvetica,sans-Serif" font-size="10.00">+ set_uniform()</text>
<text text-anchor="start" x="610" y="-774.5" font-family="Helvetica,sans-Serif" font-size="10.00">+ set_uniform()</text>
<text text-anchor="start" x="610" y="-763.5" font-family="Helvetica,sans-Serif" font-size="10.00">+ set_uniform()</text>
<text text-anchor="start" x="610" y="-752.5" font-family="Helvetica,sans-Serif" font-size="10.00">+ set_uniform()</text>
<text text-anchor="start" x="610" y="-741.5" font-family="Helvetica,sans-Serif" font-size="10.00">+ set_uniform()</text>
<text text-anchor="start" x="610" y="-730.5" font-family="Helvetica,sans-Serif" font-size="10.00">+ set_uniform()</text>
<text text-anchor="start" x="610" y="-719.5" font-family="Helvetica,sans-Serif" font-size="10.00">+ set_uniform()</text>
<text text-anchor="start" x="610" y="-708.5" font-family="Helvetica,sans-Serif" font-size="10.00">+ set_uniform()</text>
<text text-anchor="start" x="610" y="-697.5" font-family="Helvetica,sans-Serif" font-size="10.00">+ set_uniform()</text>
<text text-anchor="start" x="610" y="-686.5" font-family="Helvetica,sans-Serif" font-size="10.00">+ set_uniform()</text>
<text text-anchor="start" x="610" y="-675.5" font-family="Helvetica,sans-Serif" font-size="10.00">+ set_uniform()</text>
<text text-anchor="start" x="610" y="-664.5" font-family="Helvetica,sans-Serif" font-size="10.00">+ set_uniform()</text>
<text text-anchor="start" x="610" y="-653.5" font-family="Helvetica,sans-Serif" font-size="10.00">+ set_uniform()</text>
<text text-anchor="start" x="610" y="-642.5" font-family="Helvetica,sans-Serif" font-size="10.00">+ set_uniform()</text>
<text text-anchor="start" x="610" y="-631.5" font-family="Helvetica,sans-Serif" font-size="10.00">+ set_uniform()</text>
<text text-anchor="start" x="610" y="-620.5" font-family="Helvetica,sans-Serif" font-size="10.00">+ set_uniform()</text>
<text text-anchor="start" x="610" y="-609.5" font-family="Helvetica,sans-Serif" font-size="10.00">+ set_uniform()</text>
<text text-anchor="start" x="610" y="-598.5" font-family="Helvetica,sans-Serif" font-size="10.00">+ set_uniform()</text>
<text text-anchor="start" x="610" y="-587.5" font-family="Helvetica,sans-Serif" font-size="10.00">+ set_uniform()</text>
<text text-anchor="start" x="610" y="-576.5" font-family="Helvetica,sans-Serif" font-size="10.00">+ set_uniform()</text>
<text text-anchor="start" x="610" y="-565.5" font-family="Helvetica,sans-Serif" font-size="10.00">+ set_uniform()</text>
<text text-anchor="start" x="610" y="-554.5" font-family="Helvetica,sans-Serif" font-size="10.00">+ set_uniform()</text>
<text text-anchor="start" x="610" y="-543.5" font-family="Helvetica,sans-Serif" font-size="10.00">+ set_uniform()</text>
<text text-anchor="start" x="610" y="-532.5" font-family="Helvetica,sans-Serif" font-size="10.00">+ set_uniform()</text>
<text text-anchor="start" x="610" y="-521.5" font-family="Helvetica,sans-Serif" font-size="10.00">+ set_uniform()</text>
<text text-anchor="start" x="610" y="-510.5" font-family="Helvetica,sans-Serif" font-size="10.00">+ set_uniform()</text>
<text text-anchor="start" x="610" y="-499.5" font-family="Helvetica,sans-Serif" font-size="10.00">+ set_uniform()</text>
<text text-anchor="start" x="610" y="-488.5" font-family="Helvetica,sans-Serif" font-size="10.00">+ set_uniform()</text>
<text text-anchor="start" x="610" y="-477.5" font-family="Helvetica,sans-Serif" font-size="10.00">+ set_uniform()</text>
<text text-anchor="start" x="610" y="-466.5" font-family="Helvetica,sans-Serif" font-size="10.00">+ set_uniform()</text>
<text text-anchor="start" x="610" y="-455.5" font-family="Helvetica,sans-Serif" font-size="10.00">+ set_uniform()</text>
<text text-anchor="start" x="610" y="-444.5" font-family="Helvetica,sans-Serif" font-size="10.00">+ set_uniform()</text>
<text text-anchor="start" x="610" y="-433.5" font-family="Helvetica,sans-Serif" font-size="10.00"># get_uniform_location()</text>
<text text-anchor="start" x="610" y="-422.5" font-family="Helvetica,sans-Serif" font-size="10.00"># get_attrib_location()</text>
<text text-anchor="start" x="610" y="-411.5" font-family="Helvetica,sans-Serif" font-size="10.00"># create_shader()</text>
</a>
</g>
</g>
<!-- Node6&#45;&gt;Node17 -->
<g id="edge19" class="edge">
<title>Node6&#45;&gt;Node17</title>
<path fill="none" stroke="#404040" d="M671.5,-1202.22C671.5,-1189.9 671.5,-1174 671.5,-1155.61"/>
<polygon fill="none" stroke="#404040" points="671.5,-1155.51 667.5,-1149.51 671.5,-1143.51 675.5,-1149.51 671.5,-1155.51"/>
<text text-anchor="middle" x="694" y="-1170.5" font-family="Helvetica,sans-Serif" font-size="10.00"> #name_</text>
</g>
<!-- Node7 -->
<g id="node7" class="node">
<title>Node7</title>
<g id="a_node7"><a xlink:href="classmkr_1_1material.html" target="_top" xlink:title=" ">
<polygon fill="white" stroke="black" points="567,-105.5 567,-173.5 652,-173.5 652,-105.5 567,-105.5"/>
<text text-anchor="middle" x="609.5" y="-161.5" font-family="Helvetica,sans-Serif" font-size="10.00">mkr::material</text>
<polyline fill="none" stroke="black" points="567,-154.5 652,-154.5 "/>
<text text-anchor="middle" x="609.5" y="-142.5" font-family="Helvetica,sans-Serif" font-size="10.00"> </text>
<polyline fill="none" stroke="black" points="567,-135.5 652,-135.5 "/>
<text text-anchor="start" x="575" y="-123.5" font-family="Helvetica,sans-Serif" font-size="10.00">+ material()</text>
<text text-anchor="start" x="575" y="-112.5" font-family="Helvetica,sans-Serif" font-size="10.00">+ ~material()</text>
</a>
</g>
</g>
<!-- Node7&#45;&gt;Node1 -->
<g id="edge6" class="edge">
<title>Node7&#45;&gt;Node1</title>
<path fill="none" stroke="#404040" d="M566.69,-125.3C505.68,-106.5 393.26,-71.85 322.1,-49.91"/>
<polygon fill="none" stroke="#404040" points="322.08,-49.91 315.17,-51.96 310.62,-46.37 317.53,-44.32 322.08,-49.91"/>
<text text-anchor="middle" x="462.5" y="-79" font-family="Helvetica,sans-Serif" font-size="10.00"> +material_</text>
</g>
<!-- Node8 -->
<g id="node8" class="node">
<title>Node8</title>
<g id="a_node8"><a xlink:title=" ">
<polygon fill="white" stroke="#bfbfbf" points="855,-298.5 855,-355.5 930,-355.5 930,-298.5 855,-298.5"/>
<text text-anchor="middle" x="892.5" y="-343.5" font-family="Helvetica,sans-Serif" font-size="10.00">render_path</text>
<polyline fill="none" stroke="#bfbfbf" points="855,-336.5 930,-336.5 "/>
<text text-anchor="middle" x="892.5" y="-324.5" font-family="Helvetica,sans-Serif" font-size="10.00"> </text>
<polyline fill="none" stroke="#bfbfbf" points="855,-317.5 930,-317.5 "/>
<text text-anchor="middle" x="892.5" y="-305.5" font-family="Helvetica,sans-Serif" font-size="10.00"> </text>
</a>
</g>
</g>
<!-- Node8&#45;&gt;Node7 -->
<g id="edge7" class="edge">
<title>Node8&#45;&gt;Node7</title>
<path fill="none" stroke="#404040" d="M892.84,-298.4C891.64,-267.91 884.8,-219.5 855.5,-192 828.36,-166.52 728.12,-152.13 664.28,-145.36"/>
<polygon fill="none" stroke="#404040" points="663.96,-145.33 657.59,-148.7 652.03,-144.11 658.4,-140.74 663.96,-145.33"/>
<text text-anchor="middle" x="927.5" y="-228" font-family="Helvetica,sans-Serif" font-size="10.00"> +render_path_</text>
</g>
<!-- Node9 -->
<g id="node9" class="node">
<title>Node9</title>
<g id="a_node9"><a xlink:href="classmkr_1_1texture__2d.html" target="_top" xlink:title=" ">
<polygon fill="white" stroke="black" points="948.5,-287.5 948.5,-366.5 1044.5,-366.5 1044.5,-287.5 948.5,-287.5"/>
<text text-anchor="middle" x="996.5" y="-354.5" font-family="Helvetica,sans-Serif" font-size="10.00">mkr::texture_2d</text>
<polyline fill="none" stroke="black" points="948.5,-347.5 1044.5,-347.5 "/>
<text text-anchor="middle" x="996.5" y="-335.5" font-family="Helvetica,sans-Serif" font-size="10.00"> </text>
<polyline fill="none" stroke="black" points="948.5,-328.5 1044.5,-328.5 "/>
<text text-anchor="start" x="956.5" y="-316.5" font-family="Helvetica,sans-Serif" font-size="10.00">+ texture_2d()</text>
<text text-anchor="start" x="956.5" y="-305.5" font-family="Helvetica,sans-Serif" font-size="10.00">+ texture_2d()</text>
<text text-anchor="start" x="956.5" y="-294.5" font-family="Helvetica,sans-Serif" font-size="10.00">+ ~texture_2d()</text>
</a>
</g>
</g>
<!-- Node9&#45;&gt;Node7 -->
<g id="edge8" class="edge">
<title>Node9&#45;&gt;Node7</title>
<path fill="none" stroke="#404040" d="M999.77,-287.45C1000.06,-257.14 995.03,-216.12 969.5,-192 926.55,-151.42 753.92,-142.65 664.23,-140.87"/>
<polygon fill="none" stroke="#404040" points="664.14,-140.86 658.08,-144.76 652.14,-140.66 658.21,-136.76 664.14,-140.86"/>
<text text-anchor="middle" x="1056" y="-261" font-family="Helvetica,sans-Serif" font-size="10.00"> +texture_diffuse_</text>
<text text-anchor="start" x="998.5" y="-250" font-family="Helvetica,sans-Serif" font-size="10.00">+texture_displacement</text>
<text text-anchor="middle" x="1056" y="-239" font-family="Helvetica,sans-Serif" font-size="10.00">_</text>
<text text-anchor="middle" x="1056" y="-228" font-family="Helvetica,sans-Serif" font-size="10.00">+texture_gloss_</text>
<text text-anchor="start" x="998.5" y="-217" font-family="Helvetica,sans-Serif" font-size="10.00">+texture_normal</text>
<text text-anchor="middle" x="1056" y="-206" font-family="Helvetica,sans-Serif" font-size="10.00">_</text>
<text text-anchor="middle" x="1056" y="-195" font-family="Helvetica,sans-Serif" font-size="10.00">+texture_specular_</text>
</g>
<!-- Node10&#45;&gt;Node9 -->
<g id="edge9" class="edge">
<title>Node10&#45;&gt;Node9</title>
<path fill="none" stroke="midnightblue" d="M996.5,-691C996.5,-594.54 996.5,-438.45 996.5,-366.53"/>
<polygon fill="none" stroke="midnightblue" points="993,-691.01 996.5,-701.01 1000,-691.01 993,-691.01"/>
</g>
<!-- Node11 -->
<g id="node11" class="node">
<title>Node11</title>
<g id="a_node11"><a xlink:title=" ">
<polygon fill="white" stroke="#bfbfbf" points="1046.5,-1202.5 1046.5,-1259.5 1160.5,-1259.5 1160.5,-1202.5 1046.5,-1202.5"/>
<text text-anchor="middle" x="1103.5" y="-1247.5" font-family="Helvetica,sans-Serif" font-size="10.00">texture_wrap_mode</text>
<polyline fill="none" stroke="#bfbfbf" points="1046.5,-1240.5 1160.5,-1240.5 "/>
<text text-anchor="middle" x="1103.5" y="-1228.5" font-family="Helvetica,sans-Serif" font-size="10.00"> </text>
<polyline fill="none" stroke="#bfbfbf" points="1046.5,-1221.5 1160.5,-1221.5 "/>
<text text-anchor="middle" x="1103.5" y="-1209.5" font-family="Helvetica,sans-Serif" font-size="10.00"> </text>
</a>
</g>
</g>
<!-- Node11&#45;&gt;Node10 -->
<g id="edge10" class="edge">
<title>Node11&#45;&gt;Node10</title>
<path fill="none" stroke="#404040" d="M1096.97,-1202.22C1081.22,-1135.25 1040.64,-962.72 1016.15,-858.54"/>
<polygon fill="none" stroke="#404040" points="1016.13,-858.49 1010.87,-853.57 1013.39,-846.81 1018.65,-851.74 1016.13,-858.49"/>
<text text-anchor="middle" x="1128.5" y="-1170.5" font-family="Helvetica,sans-Serif" font-size="10.00"> #wrap_mode_</text>
</g>
<!-- Node12 -->
<g id="node12" class="node">
<title>Node12</title>
<g id="a_node12"><a xlink:title=" ">
<polygon fill="white" stroke="#bfbfbf" points="972.5,-1202.5 972.5,-1259.5 1028.5,-1259.5 1028.5,-1202.5 972.5,-1202.5"/>
<text text-anchor="middle" x="1000.5" y="-1247.5" font-family="Helvetica,sans-Serif" font-size="10.00">uint32_t</text>
<polyline fill="none" stroke="#bfbfbf" points="972.5,-1240.5 1028.5,-1240.5 "/>
<text text-anchor="middle" x="1000.5" y="-1228.5" font-family="Helvetica,sans-Serif" font-size="10.00"> </text>
<polyline fill="none" stroke="#bfbfbf" points="972.5,-1221.5 1028.5,-1221.5 "/>
<text text-anchor="middle" x="1000.5" y="-1209.5" font-family="Helvetica,sans-Serif" font-size="10.00"> </text>
</a>
</g>
</g>
<!-- Node12&#45;&gt;Node10 -->
<g id="edge11" class="edge">
<title>Node12&#45;&gt;Node10</title>
<path fill="none" stroke="#404040" d="M1000.26,-1202.22C999.67,-1135.32 998.15,-963.07 997.24,-858.86"/>
<polygon fill="none" stroke="#404040" points="997.24,-858.81 993.18,-852.85 997.13,-846.81 1001.18,-852.78 997.24,-858.81"/>
<text text-anchor="middle" x="1023.5" y="-1176" font-family="Helvetica,sans-Serif" font-size="10.00"> #height_</text>
<text text-anchor="middle" x="1023.5" y="-1165" font-family="Helvetica,sans-Serif" font-size="10.00">#width_</text>
</g>
<!-- Node13 -->
<g id="node13" class="node">
<title>Node13</title>
<g id="a_node13"><a xlink:title=" ">
<polygon fill="white" stroke="#bfbfbf" points="843.5,-1202.5 843.5,-1259.5 891.5,-1259.5 891.5,-1202.5 843.5,-1202.5"/>
<text text-anchor="middle" x="867.5" y="-1247.5" font-family="Helvetica,sans-Serif" font-size="10.00">GLuint</text>
<polyline fill="none" stroke="#bfbfbf" points="843.5,-1240.5 891.5,-1240.5 "/>
<text text-anchor="middle" x="867.5" y="-1228.5" font-family="Helvetica,sans-Serif" font-size="10.00"> </text>
<polyline fill="none" stroke="#bfbfbf" points="843.5,-1221.5 891.5,-1221.5 "/>
<text text-anchor="middle" x="867.5" y="-1209.5" font-family="Helvetica,sans-Serif" font-size="10.00"> </text>
</a>
</g>
</g>
<!-- Node13&#45;&gt;Node10 -->
<g id="edge13" class="edge">
<title>Node13&#45;&gt;Node10</title>
<path fill="none" stroke="#404040" d="M891.53,-1205.23C896.78,-1198.73 901.86,-1191.44 905.5,-1184 956.94,-1078.78 979.67,-944.13 989.46,-858.69"/>
<polygon fill="none" stroke="#404040" points="989.46,-858.64 986.15,-852.24 990.78,-846.71 994.1,-853.12 989.46,-858.64"/>
<text text-anchor="middle" x="939.5" y="-1170.5" font-family="Helvetica,sans-Serif" font-size="10.00"> #handle_</text>
</g>
<!-- Node13&#45;&gt;Node17 -->
<g id="edge20" class="edge">
<title>Node13&#45;&gt;Node17</title>
<path fill="none" stroke="#404040" d="M843.32,-1217.34C830.18,-1209.36 814.59,-1197.93 804.5,-1184 781.17,-1151.81 761.79,-1115.32 745.72,-1077.71"/>
<polygon fill="none" stroke="#404040" points="745.68,-1077.62 739.68,-1073.62 741.06,-1066.54 747.06,-1070.54 745.68,-1077.62"/>
<text text-anchor="middle" x="853" y="-1170.5" font-family="Helvetica,sans-Serif" font-size="10.00"> #program_handle_</text>
</g>
<!-- Node14 -->
<g id="node14" class="node">
<title>Node14</title>
<g id="a_node14"><a xlink:title=" ">
<polygon fill="white" stroke="#bfbfbf" points="289.5,-298.5 289.5,-355.5 327.5,-355.5 327.5,-298.5 289.5,-298.5"/>
<text text-anchor="middle" x="308.5" y="-343.5" font-family="Helvetica,sans-Serif" font-size="10.00">float</text>
<polyline fill="none" stroke="#bfbfbf" points="289.5,-336.5 327.5,-336.5 "/>
<text text-anchor="middle" x="308.5" y="-324.5" font-family="Helvetica,sans-Serif" font-size="10.00"> </text>
<polyline fill="none" stroke="#bfbfbf" points="289.5,-317.5 327.5,-317.5 "/>
<text text-anchor="middle" x="308.5" y="-305.5" font-family="Helvetica,sans-Serif" font-size="10.00"> </text>
</a>
</g>
</g>
<!-- Node14&#45;&gt;Node7 -->
<g id="edge14" class="edge">
<title>Node14&#45;&gt;Node7</title>
<path fill="none" stroke="#404040" d="M301.41,-298.37C295.51,-268.31 291.72,-220.71 317.5,-192 348.33,-157.67 479.17,-146.16 554.84,-142.35"/>
<polygon fill="none" stroke="#404040" points="554.95,-142.35 560.75,-138.07 566.93,-141.79 561.13,-146.06 554.95,-142.35"/>
<text text-anchor="start" x="317.5" y="-239" font-family="Helvetica,sans-Serif" font-size="10.00"> +displacement_scale</text>
<text text-anchor="middle" x="372" y="-228" font-family="Helvetica,sans-Serif" font-size="10.00">_</text>
<text text-anchor="middle" x="372" y="-217" font-family="Helvetica,sans-Serif" font-size="10.00">+gloss_</text>
</g>
<!-- Node15 -->
<g id="node15" class="node">
<title>Node15</title>
<g id="a_node15"><a xlink:title=" ">
<polygon fill="white" stroke="#bfbfbf" points="414,-298.5 414,-355.5 467,-355.5 467,-298.5 414,-298.5"/>
<text text-anchor="middle" x="440.5" y="-343.5" font-family="Helvetica,sans-Serif" font-size="10.00">vector2</text>
<polyline fill="none" stroke="#bfbfbf" points="414,-336.5 467,-336.5 "/>
<text text-anchor="middle" x="440.5" y="-324.5" font-family="Helvetica,sans-Serif" font-size="10.00"> </text>
<polyline fill="none" stroke="#bfbfbf" points="414,-317.5 467,-317.5 "/>
<text text-anchor="middle" x="440.5" y="-305.5" font-family="Helvetica,sans-Serif" font-size="10.00"> </text>
</a>
</g>
</g>
<!-- Node15&#45;&gt;Node7 -->
<g id="edge15" class="edge">
<title>Node15&#45;&gt;Node7</title>
<path fill="none" stroke="#404040" d="M434.08,-298.46C428.9,-268.94 425.89,-222.22 449.5,-192 474.25,-160.32 518.69,-147.82 554.47,-143.04"/>
<polygon fill="none" stroke="#404040" points="554.79,-143 560.3,-138.35 566.72,-141.65 561.21,-146.3 554.79,-143"/>
<text text-anchor="middle" x="492" y="-233.5" font-family="Helvetica,sans-Serif" font-size="10.00"> +texture_offset_</text>
<text text-anchor="middle" x="492" y="-222.5" font-family="Helvetica,sans-Serif" font-size="10.00">+texture_scale_</text>
</g>
<!-- Node16 -->
<g id="node16" class="node">
<title>Node16</title>
<g id="a_node16"><a xlink:title=" ">
<polygon fill="white" stroke="#bfbfbf" points="490,-293 490,-361 607,-361 607,-293 490,-293"/>
<text text-anchor="start" x="498" y="-349" font-family="Helvetica,sans-Serif" font-size="10.00">vector&lt; mkr::shader</text>
<text text-anchor="middle" x="548.5" y="-338" font-family="Helvetica,sans-Serif" font-size="10.00">_program * &gt;</text>
<polyline fill="none" stroke="#bfbfbf" points="490,-331 607,-331 "/>
<text text-anchor="middle" x="548.5" y="-319" font-family="Helvetica,sans-Serif" font-size="10.00"> </text>
<polyline fill="none" stroke="#bfbfbf" points="490,-312 607,-312 "/>
<text text-anchor="middle" x="548.5" y="-300" font-family="Helvetica,sans-Serif" font-size="10.00"> </text>
</a>
</g>
</g>
<!-- Node16&#45;&gt;Node7 -->
<g id="edge16" class="edge">
<title>Node16&#45;&gt;Node7</title>
<path fill="none" stroke="#404040" d="M541.4,-292.95C537.02,-264.76 534.71,-223.87 549.5,-192 551.84,-186.96 554.94,-182.23 558.5,-177.83"/>
<polygon fill="none" stroke="#404040" points="558.75,-177.55 559.9,-170.43 566.91,-168.75 565.77,-175.87 558.75,-177.55"/>
<text text-anchor="middle" x="603.5" y="-228" font-family="Helvetica,sans-Serif" font-size="10.00"> +post_proc_shaders_</text>
</g>
<!-- Node17&#45;&gt;Node7 -->
<g id="edge17" class="edge">
<title>Node17&#45;&gt;Node7</title>
<path fill="none" stroke="#404040" d="M672.68,-404.46C670.96,-303.1 666.71,-214.6 657.5,-192 656.35,-189.18 654.97,-186.42 653.41,-183.73"/>
<polygon fill="none" stroke="#404040" points="653.4,-183.71 646.71,-180.99 646.65,-173.78 653.33,-176.5 653.4,-183.71"/>
<text text-anchor="middle" x="721.5" y="-335.5" font-family="Helvetica,sans-Serif" font-size="10.00"> +forward_shader_</text>
<text text-anchor="middle" x="721.5" y="-324.5" font-family="Helvetica,sans-Serif" font-size="10.00">+geometry_shader_</text>
<text text-anchor="middle" x="721.5" y="-313.5" font-family="Helvetica,sans-Serif" font-size="10.00">+light_shader_</text>
</g>
<!-- Node18 -->
<g id="node18" class="node">
<title>Node18</title>
<g id="a_node18"><a xlink:title=" ">
<polygon fill="white" stroke="#bfbfbf" points="426,-1202.5 426,-1259.5 547,-1259.5 547,-1202.5 426,-1202.5"/>
<text text-anchor="middle" x="486.5" y="-1247.5" font-family="Helvetica,sans-Serif" font-size="10.00">unique_ptr&lt; GLint[]&gt;</text>
<polyline fill="none" stroke="#bfbfbf" points="426,-1240.5 547,-1240.5 "/>
<text text-anchor="middle" x="486.5" y="-1228.5" font-family="Helvetica,sans-Serif" font-size="10.00"> </text>
<polyline fill="none" stroke="#bfbfbf" points="426,-1221.5 547,-1221.5 "/>
<text text-anchor="middle" x="486.5" y="-1209.5" font-family="Helvetica,sans-Serif" font-size="10.00"> </text>
</a>
</g>
</g>
<!-- Node18&#45;&gt;Node17 -->
<g id="edge18" class="edge">
<title>Node18&#45;&gt;Node17</title>
<path fill="none" stroke="#404040" d="M484.25,-1202.21C483.92,-1189.76 484.47,-1174.99 487.5,-1162 509.17,-1069.12 555.28,-972.22 595.92,-898.61"/>
<polygon fill="none" stroke="#404040" points="596.03,-898.41 595.45,-891.22 601.87,-887.93 602.44,-895.11 596.03,-898.41"/>
<text text-anchor="middle" x="537" y="-1170.5" font-family="Helvetica,sans-Serif" font-size="10.00"> #uniform_handles_</text>
</g>
<!-- Node19 -->
<g id="node19" class="node">
<title>Node19</title>
<g id="a_node19"><a xlink:title=" ">
<polygon fill="white" stroke="#bfbfbf" points="790,-298.5 790,-355.5 837,-355.5 837,-298.5 790,-298.5"/>
<text text-anchor="middle" x="813.5" y="-343.5" font-family="Helvetica,sans-Serif" font-size="10.00">colour</text>
<polyline fill="none" stroke="#bfbfbf" points="790,-336.5 837,-336.5 "/>
<text text-anchor="middle" x="813.5" y="-324.5" font-family="Helvetica,sans-Serif" font-size="10.00"> </text>
<polyline fill="none" stroke="#bfbfbf" points="790,-317.5 837,-317.5 "/>
<text text-anchor="middle" x="813.5" y="-305.5" font-family="Helvetica,sans-Serif" font-size="10.00"> </text>
</a>
</g>
</g>
<!-- Node19&#45;&gt;Node7 -->
<g id="edge21" class="edge">
<title>Node19&#45;&gt;Node7</title>
<path fill="none" stroke="#404040" d="M790.27,-298.42C765.73,-270.1 725.17,-225.55 685.5,-192 678.23,-185.85 670.21,-179.76 662.19,-174.05"/>
<polygon fill="none" stroke="#404040" points="661.94,-173.87 654.73,-173.74 652.08,-167.03 659.29,-167.17 661.94,-173.87"/>
<text text-anchor="middle" x="806" y="-233.5" font-family="Helvetica,sans-Serif" font-size="10.00"> +diffuse_colour_</text>
<text text-anchor="middle" x="806" y="-222.5" font-family="Helvetica,sans-Serif" font-size="10.00">+specular_colour_</text>
</g>
</g>
</svg>
        <g id="navigator" transform="translate(0 0)" fill="#404254">
                <rect fill="#f2f5e9" fill-opacity="0.5" stroke="#606060" stroke-width=".5" x="0" y="0" width="60" height="60"/>
                <use id="zoomplus" xlink:href="#zoomPlus" x="17" y="9" onmousedown="handleZoom(evt,'in')"/>
                <use id="zoomminus" xlink:href="#zoomMin" x="42" y="9" onmousedown="handleZoom(evt,'out')"/>
                <use id="reset" xlink:href="#resetDef" x="30" y="36" onmousedown="handleReset()"/>
                <g id="arrowUp" xlink:href="#dirArrow" transform="translate(30 24)" onmousedown="handlePan(0,-1)">
                  <use xlink:href="#rim" fill="#404040">
                        <set attributeName="fill" to="#808080" begin="arrowUp.mouseover" end="arrowUp.mouseout"/>
                  </use>
                  <path fill="none" stroke="white" stroke-width="1.5" d="M0,-3.0v7 M-2.5,-0.5L0,-3.0L2.5,-0.5"/>
                </g>
                <g id="arrowRight" xlink:href="#dirArrow" transform="rotate(90) translate(36 -43)" onmousedown="handlePan(1,0)">
                  <use xlink:href="#rim" fill="#404040">
                        <set attributeName="fill" to="#808080" begin="arrowRight.mouseover" end="arrowRight.mouseout"/>
                  </use>
                  <path fill="none" stroke="white" stroke-width="1.5" d="M0,-3.0v7 M-2.5,-0.5L0,-3.0L2.5,-0.5"/>
                </g>
                <g id="arrowDown" xlink:href="#dirArrow" transform="rotate(180) translate(-30 -48)" onmousedown="handlePan(0,1)">
                  <use xlink:href="#rim" fill="#404040">
                        <set attributeName="fill" to="#808080" begin="arrowDown.mouseover" end="arrowDown.mouseout"/>
                  </use>
                  <path fill="none" stroke="white" stroke-width="1.5" d="M0,-3.0v7 M-2.5,-0.5L0,-3.0L2.5,-0.5"/>
                </g>
                <g id="arrowLeft" xlink:href="#dirArrow" transform="rotate(270) translate(-36 17)" onmousedown="handlePan(-1,0)">
                  <use xlink:href="#rim" fill="#404040">
                        <set attributeName="fill" to="#808080" begin="arrowLeft.mouseover" end="arrowLeft.mouseout"/>
                  </use>
                  <path fill="none" stroke="white" stroke-width="1.5" d="M0,-3.0v7 M-2.5,-0.5L0,-3.0L2.5,-0.5"/>
                </g>
        </g>
        <svg viewBox="0 0 15 15" width="100%" height="30px" preserveAspectRatio="xMaxYMin meet">
         <g id="arrow_out" transform="scale(0.3 0.3)">
          <a xlink:href="structmkr_1_1render__mesh__coll__graph_org.svg" target="_base">
           <rect id="button" ry="5" rx="5" y="6" x="6" height="38" width="38"
                fill="#f2f5e9" fill-opacity="0.5" stroke="#606060" stroke-width="1.0"/>
           <path id="arrow"
             d="M 11.500037,31.436501 C 11.940474,20.09759 22.043105,11.32322 32.158766,21.979434 L 37.068811,17.246167 C 37.068811,17.246167 37.088388,32 37.088388,32 L 22.160133,31.978069 C 22.160133,31.978069 26.997745,27.140456 26.997745,27.140456 C 18.528582,18.264221 13.291696,25.230495 11.500037,31.436501 z"
             style="fill:#404040;"/>
          </a>
         </g>
        </svg>
</svg>
