<?xml version="1.0" encoding="UTF-8" standalone="no"?>
<!DOCTYPE svg PUBLIC "-//W3C//DTD SVG 1.1//EN"
 "http://www.w3.org/Graphics/SVG/1.1/DTD/svg11.dtd">
<!-- Generated by graphviz version 2.43.0 (0)
 -->
<!-- Title: mkr::camera Pages: 1 -->
<!--zoomable 320 -->
<svg id="main" version="1.1" xmlns="http://www.w3.org/2000/svg" xmlns:xlink="http://www.w3.org/1999/xlink" xml:space="preserve" onload="init(evt)">
<style type="text/css"><![CDATA[
.edge:hover path { stroke: red; }
.edge:hover polygon { stroke: red; fill: red; }
]]></style>
<script type="text/javascript"><![CDATA[
var edges = document.getElementsByTagName('g');
if (edges && edges.length) {
  for (var i=0;i<edges.length;i++) {
    if (edges[i].id.substr(0,4)=='edge') {
      edges[i].setAttribute('class','edge');
    }
  }
}
]]></script>
        <defs>
                <circle id="rim" cx="0" cy="0" r="7"/>
                <circle id="rim2" cx="0" cy="0" r="3.5"/>
                <g id="zoomPlus">
                        <use xlink:href="#rim" fill="#404040">
                                <set attributeName="fill" to="#808080" begin="zoomplus.mouseover" end="zoomplus.mouseout"/>
                        </use>
                        <path d="M-4,0h8M0,-4v8" fill="none" stroke="white" stroke-width="1.5" pointer-events="none"/>
                </g>
                <g id="zoomMin">
                        <use xlink:href="#rim" fill="#404040">
                                <set attributeName="fill" to="#808080" begin="zoomminus.mouseover" end="zoomminus.mouseout"/>
                        </use>
                        <path d="M-4,0h8" fill="none" stroke="white" stroke-width="1.5" pointer-events="none"/>
                </g>
                <g id="dirArrow">
                        <path fill="none" stroke="white" stroke-width="1.5" d="M0,-3.0v7 M-2.5,-0.5L0,-3.0L2.5,-0.5"/>
                </g>
               <g id="resetDef">
                       <use xlink:href="#rim2" fill="#404040">
                               <set attributeName="fill" to="#808080" begin="reset.mouseover" end="reset.mouseout"/>
                       </use>
               </g>
        </defs>

<script type="text/javascript">
var viewWidth = 561;
var viewHeight = 320;
var sectionId = 'dynsection-0';
</script>
<script xlink:href="svgpan.js"/>
<svg id="graph" class="graph">
<g id="viewport">
<title>mkr::camera</title>
<polygon fill="white" stroke="transparent" points="-4,4 -4,-316 557,-316 557,4 -4,4"/>
<!-- Node1 -->
<g id="node1" class="node">
<title>Node1</title>
<g id="a_node1"><a xlink:title=" ">
<polygon fill="#bfbfbf" stroke="black" points="264.5,-0.5 264.5,-57.5 343.5,-57.5 343.5,-0.5 264.5,-0.5"/>
<text text-anchor="middle" x="304" y="-45.5" font-family="Helvetica,sans-Serif" font-size="10.00">mkr::camera</text>
<polyline fill="none" stroke="black" points="264.5,-38.5 343.5,-38.5 "/>
<text text-anchor="middle" x="304" y="-26.5" font-family="Helvetica,sans-Serif" font-size="10.00"> </text>
<polyline fill="none" stroke="black" points="264.5,-19.5 343.5,-19.5 "/>
<text text-anchor="middle" x="304" y="-7.5" font-family="Helvetica,sans-Serif" font-size="10.00"> </text>
</a>
</g>
</g>
<!-- Node2 -->
<g id="node2" class="node">
<title>Node2</title>
<g id="a_node2"><a xlink:title=" ">
<polygon fill="white" stroke="#bfbfbf" points="0,-111 0,-168 98,-168 98,-111 0,-111"/>
<text text-anchor="middle" x="49" y="-156" font-family="Helvetica,sans-Serif" font-size="10.00">projection_mode</text>
<polyline fill="none" stroke="#bfbfbf" points="0,-149 98,-149 "/>
<text text-anchor="middle" x="49" y="-137" font-family="Helvetica,sans-Serif" font-size="10.00"> </text>
<polyline fill="none" stroke="#bfbfbf" points="0,-130 98,-130 "/>
<text text-anchor="middle" x="49" y="-118" font-family="Helvetica,sans-Serif" font-size="10.00"> </text>
</a>
</g>
</g>
<!-- Node2&#45;&gt;Node1 -->
<g id="edge1" class="edge">
<title>Node2&#45;&gt;Node1</title>
<path fill="none" stroke="#404040" d="M95.54,-110.86C99.38,-108.81 103.24,-106.83 107,-105 155.06,-81.59 212.42,-60.47 252.81,-46.66"/>
<polygon fill="none" stroke="#404040" points="252.89,-46.63 257.29,-40.92 264.25,-42.78 259.85,-48.5 252.89,-46.63"/>
<text text-anchor="middle" x="193.5" y="-79" font-family="Helvetica,sans-Serif" font-size="10.00"> +mode_</text>
</g>
<!-- Node3 -->
<g id="node3" class="node">
<title>Node3</title>
<g id="a_node3"><a xlink:title=" ">
<polygon fill="white" stroke="#bfbfbf" points="116.5,-111 116.5,-168 267.5,-168 267.5,-111 116.5,-111"/>
<text text-anchor="middle" x="192" y="-156" font-family="Helvetica,sans-Serif" font-size="10.00">shared_ptr&lt; mkr::skybox &gt;</text>
<polyline fill="none" stroke="#bfbfbf" points="116.5,-149 267.5,-149 "/>
<text text-anchor="middle" x="192" y="-137" font-family="Helvetica,sans-Serif" font-size="10.00"> </text>
<polyline fill="none" stroke="#bfbfbf" points="116.5,-130 267.5,-130 "/>
<text text-anchor="middle" x="192" y="-118" font-family="Helvetica,sans-Serif" font-size="10.00"> </text>
</a>
</g>
</g>
<!-- Node3&#45;&gt;Node1 -->
<g id="edge2" class="edge">
<title>Node3&#45;&gt;Node1</title>
<path fill="none" stroke="#404040" d="M209.46,-110.79C217.4,-99.34 227.39,-86.34 238,-76 243.06,-71.07 248.7,-66.29 254.49,-61.79"/>
<polygon fill="none" stroke="#404040" points="254.67,-61.66 257.11,-54.88 264.31,-54.52 261.87,-61.3 254.67,-61.66"/>
<text text-anchor="middle" x="264" y="-79" font-family="Helvetica,sans-Serif" font-size="10.00"> +skybox_</text>
</g>
<!-- Node4 -->
<g id="node4" class="node">
<title>Node4</title>
<g id="a_node4"><a xlink:title=" ">
<polygon fill="white" stroke="#bfbfbf" points="301,-254.5 301,-311.5 339,-311.5 339,-254.5 301,-254.5"/>
<text text-anchor="middle" x="320" y="-299.5" font-family="Helvetica,sans-Serif" font-size="10.00">float</text>
<polyline fill="none" stroke="#bfbfbf" points="301,-292.5 339,-292.5 "/>
<text text-anchor="middle" x="320" y="-280.5" font-family="Helvetica,sans-Serif" font-size="10.00"> </text>
<polyline fill="none" stroke="#bfbfbf" points="301,-273.5 339,-273.5 "/>
<text text-anchor="middle" x="320" y="-261.5" font-family="Helvetica,sans-Serif" font-size="10.00"> </text>
</a>
</g>
</g>
<!-- Node4&#45;&gt;Node1 -->
<g id="edge3" class="edge">
<title>Node4&#45;&gt;Node1</title>
<path fill="none" stroke="#404040" d="M318.2,-254.48C316.77,-232.65 314.74,-201.38 313,-174 310.75,-138.72 308.25,-98.58 306.45,-69.66"/>
<polygon fill="none" stroke="#404040" points="306.45,-69.58 302.09,-63.84 305.71,-57.61 310.07,-63.35 306.45,-69.58"/>
<text text-anchor="middle" x="351.5" y="-159" font-family="Helvetica,sans-Serif" font-size="10.00"> +aspect_ratio_</text>
<text text-anchor="middle" x="351.5" y="-148" font-family="Helvetica,sans-Serif" font-size="10.00">+far_plane_</text>
<text text-anchor="middle" x="351.5" y="-137" font-family="Helvetica,sans-Serif" font-size="10.00">+fov_</text>
<text text-anchor="middle" x="351.5" y="-126" font-family="Helvetica,sans-Serif" font-size="10.00">+near_plane_</text>
<text text-anchor="middle" x="351.5" y="-115" font-family="Helvetica,sans-Serif" font-size="10.00">+ortho_size_</text>
</g>
<!-- Node5 -->
<g id="node5" class="node">
<title>Node5</title>
<g id="a_node5"><a xlink:href="structmkr_1_1viewport.html" target="_top" xlink:title=" ">
<polygon fill="white" stroke="black" points="399,-105.5 399,-173.5 485,-173.5 485,-105.5 399,-105.5"/>
<text text-anchor="middle" x="442" y="-161.5" font-family="Helvetica,sans-Serif" font-size="10.00">mkr::viewport</text>
<polyline fill="none" stroke="black" points="399,-154.5 485,-154.5 "/>
<text text-anchor="middle" x="442" y="-142.5" font-family="Helvetica,sans-Serif" font-size="10.00"> </text>
<polyline fill="none" stroke="black" points="399,-135.5 485,-135.5 "/>
<text text-anchor="start" x="407" y="-123.5" font-family="Helvetica,sans-Serif" font-size="10.00">+ viewport()</text>
<text text-anchor="start" x="407" y="-112.5" font-family="Helvetica,sans-Serif" font-size="10.00">+ ~viewport()</text>
</a>
</g>
</g>
<!-- Node4&#45;&gt;Node5 -->
<g id="edge5" class="edge">
<title>Node4&#45;&gt;Node5</title>
<path fill="none" stroke="#404040" d="M339.06,-259.89C356.71,-239.42 383.44,-208.42 405.24,-183.14"/>
<polygon fill="none" stroke="#404040" points="405.48,-182.85 406.37,-175.7 413.32,-173.76 412.43,-180.92 405.48,-182.85"/>
<text text-anchor="middle" x="427" y="-228" font-family="Helvetica,sans-Serif" font-size="10.00"> +bottom_x_</text>
<text text-anchor="middle" x="427" y="-217" font-family="Helvetica,sans-Serif" font-size="10.00">+bottom_y_</text>
<text text-anchor="middle" x="427" y="-206" font-family="Helvetica,sans-Serif" font-size="10.00">+top_x_</text>
<text text-anchor="middle" x="427" y="-195" font-family="Helvetica,sans-Serif" font-size="10.00">+top_y_</text>
</g>
<!-- Node5&#45;&gt;Node1 -->
<g id="edge4" class="edge">
<title>Node5&#45;&gt;Node1</title>
<path fill="none" stroke="#404040" d="M399.85,-105.36C383.83,-92.76 365.53,-78.37 349.24,-65.57"/>
<polygon fill="none" stroke="#404040" points="348.83,-65.24 341.64,-64.68 339.39,-57.83 346.58,-58.39 348.83,-65.24"/>
<text text-anchor="middle" x="403" y="-79" font-family="Helvetica,sans-Serif" font-size="10.00"> +viewport_</text>
</g>
<!-- Node6 -->
<g id="node6" class="node">
<title>Node6</title>
<g id="a_node6"><a xlink:title=" ">
<polygon fill="white" stroke="#bfbfbf" points="503,-111 503,-168 553,-168 553,-111 503,-111"/>
<text text-anchor="middle" x="528" y="-156" font-family="Helvetica,sans-Serif" font-size="10.00">uint8_t</text>
<polyline fill="none" stroke="#bfbfbf" points="503,-149 553,-149 "/>
<text text-anchor="middle" x="528" y="-137" font-family="Helvetica,sans-Serif" font-size="10.00"> </text>
<polyline fill="none" stroke="#bfbfbf" points="503,-130 553,-130 "/>
<text text-anchor="middle" x="528" y="-118" font-family="Helvetica,sans-Serif" font-size="10.00"> </text>
</a>
</g>
</g>
<!-- Node6&#45;&gt;Node1 -->
<g id="edge6" class="edge">
<title>Node6&#45;&gt;Node1</title>
<path fill="none" stroke="#404040" d="M502.75,-112.01C499.9,-109.52 496.96,-107.13 494,-105 451.8,-74.59 395.58,-54.41 355.27,-42.72"/>
<polygon fill="none" stroke="#404040" points="355.11,-42.67 348.26,-44.9 343.56,-39.43 350.42,-37.2 355.11,-42.67"/>
<text text-anchor="middle" x="482.5" y="-79" font-family="Helvetica,sans-Serif" font-size="10.00"> +depth_</text>
</g>
</g>
</svg>
        <g id="navigator" transform="translate(0 0)" fill="#404254">
                <rect fill="#f2f5e9" fill-opacity="0.5" stroke="#606060" stroke-width=".5" x="0" y="0" width="60" height="60"/>
                <use id="zoomplus" xlink:href="#zoomPlus" x="17" y="9" onmousedown="handleZoom(evt,'in')"/>
                <use id="zoomminus" xlink:href="#zoomMin" x="42" y="9" onmousedown="handleZoom(evt,'out')"/>
                <use id="reset" xlink:href="#resetDef" x="30" y="36" onmousedown="handleReset()"/>
                <g id="arrowUp" xlink:href="#dirArrow" transform="translate(30 24)" onmousedown="handlePan(0,-1)">
                  <use xlink:href="#rim" fill="#404040">
                        <set attributeName="fill" to="#808080" begin="arrowUp.mouseover" end="arrowUp.mouseout"/>
                  </use>
                  <path fill="none" stroke="white" stroke-width="1.5" d="M0,-3.0v7 M-2.5,-0.5L0,-3.0L2.5,-0.5"/>
                </g>
                <g id="arrowRight" xlink:href="#dirArrow" transform="rotate(90) translate(36 -43)" onmousedown="handlePan(1,0)">
                  <use xlink:href="#rim" fill="#404040">
                        <set attributeName="fill" to="#808080" begin="arrowRight.mouseover" end="arrowRight.mouseout"/>
                  </use>
                  <path fill="none" stroke="white" stroke-width="1.5" d="M0,-3.0v7 M-2.5,-0.5L0,-3.0L2.5,-0.5"/>
                </g>
                <g id="arrowDown" xlink:href="#dirArrow" transform="rotate(180) translate(-30 -48)" onmousedown="handlePan(0,1)">
                  <use xlink:href="#rim" fill="#404040">
                        <set attributeName="fill" to="#808080" begin="arrowDown.mouseover" end="arrowDown.mouseout"/>
                  </use>
                  <path fill="none" stroke="white" stroke-width="1.5" d="M0,-3.0v7 M-2.5,-0.5L0,-3.0L2.5,-0.5"/>
                </g>
                <g id="arrowLeft" xlink:href="#dirArrow" transform="rotate(270) translate(-36 17)" onmousedown="handlePan(-1,0)">
                  <use xlink:href="#rim" fill="#404040">
                        <set attributeName="fill" to="#808080" begin="arrowLeft.mouseover" end="arrowLeft.mouseout"/>
                  </use>
                  <path fill="none" stroke="white" stroke-width="1.5" d="M0,-3.0v7 M-2.5,-0.5L0,-3.0L2.5,-0.5"/>
                </g>
        </g>
        <svg viewBox="0 0 15 15" width="100%" height="30px" preserveAspectRatio="xMaxYMin meet">
         <g id="arrow_out" transform="scale(0.3 0.3)">
          <a xlink:href="structmkr_1_1camera__coll__graph_org.svg" target="_base">
           <rect id="button" ry="5" rx="5" y="6" x="6" height="38" width="38"
                fill="#f2f5e9" fill-opacity="0.5" stroke="#606060" stroke-width="1.0"/>
           <path id="arrow"
             d="M 11.500037,31.436501 C 11.940474,20.09759 22.043105,11.32322 32.158766,21.979434 L 37.068811,17.246167 C 37.068811,17.246167 37.088388,32 37.088388,32 L 22.160133,31.978069 C 22.160133,31.978069 26.997745,27.140456 26.997745,27.140456 C 18.528582,18.264221 13.291696,25.230495 11.500037,31.436501 z"
             style="fill:#404040;"/>
          </a>
         </g>
        </svg>
</svg>
