<?xml version="1.0" encoding="UTF-8" standalone="no"?>
<!DOCTYPE svg PUBLIC "-//W3C//DTD SVG 1.1//EN"
 "http://www.w3.org/Graphics/SVG/1.1/DTD/svg11.dtd">
<!-- Generated by graphviz version 2.43.0 (0)
 -->
<!-- Title: mkr::graphics_renderer::light_data Pages: 1 -->
<!--zoomable 716 -->
<svg id="main" version="1.1" xmlns="http://www.w3.org/2000/svg" xmlns:xlink="http://www.w3.org/1999/xlink" xml:space="preserve" onload="init(evt)">
<style type="text/css"><![CDATA[
.edge:hover path { stroke: red; }
.edge:hover polygon { stroke: red; fill: red; }
]]></style>
<script type="text/javascript"><![CDATA[
var edges = document.getElementsByTagName('g');
if (edges && edges.length) {
  for (var i=0;i<edges.length;i++) {
    if (edges[i].id.substr(0,4)=='edge') {
      edges[i].setAttribute('class','edge');
    }
  }
}
]]></script>
        <defs>
                <circle id="rim" cx="0" cy="0" r="7"/>
                <circle id="rim2" cx="0" cy="0" r="3.5"/>
                <g id="zoomPlus">
                        <use xlink:href="#rim" fill="#404040">
                                <set attributeName="fill" to="#808080" begin="zoomplus.mouseover" end="zoomplus.mouseout"/>
                        </use>
                        <path d="M-4,0h8M0,-4v8" fill="none" stroke="white" stroke-width="1.5" pointer-events="none"/>
                </g>
                <g id="zoomMin">
                        <use xlink:href="#rim" fill="#404040">
                                <set attributeName="fill" to="#808080" begin="zoomminus.mouseover" end="zoomminus.mouseout"/>
                        </use>
                        <path d="M-4,0h8" fill="none" stroke="white" stroke-width="1.5" pointer-events="none"/>
                </g>
                <g id="dirArrow">
                        <path fill="none" stroke="white" stroke-width="1.5" d="M0,-3.0v7 M-2.5,-0.5L0,-3.0L2.5,-0.5"/>
                </g>
               <g id="resetDef">
                       <use xlink:href="#rim2" fill="#404040">
                               <set attributeName="fill" to="#808080" begin="reset.mouseover" end="reset.mouseout"/>
                       </use>
               </g>
        </defs>

<script type="text/javascript">
var viewWidth = 533;
var viewHeight = 716;
var sectionId = 'dynsection-0';
</script>
<script xlink:href="svgpan.js"/>
<svg id="graph" class="graph">
<g id="viewport">
<title>mkr::graphics_renderer::light_data</title>
<polygon fill="white" stroke="transparent" points="-4,4 -4,-712 528.5,-712 528.5,4 -4,4"/>
<!-- Node1 -->
<g id="node1" class="node">
<title>Node1</title>
<g id="a_node1"><a xlink:title=" ">
<polygon fill="#bfbfbf" stroke="black" points="162.5,-0.5 162.5,-68.5 292.5,-68.5 292.5,-0.5 162.5,-0.5"/>
<text text-anchor="start" x="170.5" y="-56.5" font-family="Helvetica,sans-Serif" font-size="10.00">mkr::graphics_renderer</text>
<text text-anchor="middle" x="227.5" y="-45.5" font-family="Helvetica,sans-Serif" font-size="10.00">::light_data</text>
<polyline fill="none" stroke="black" points="162.5,-38.5 292.5,-38.5 "/>
<text text-anchor="middle" x="227.5" y="-26.5" font-family="Helvetica,sans-Serif" font-size="10.00"> </text>
<polyline fill="none" stroke="black" points="162.5,-19.5 292.5,-19.5 "/>
<text text-anchor="middle" x="227.5" y="-7.5" font-family="Helvetica,sans-Serif" font-size="10.00"> </text>
</a>
</g>
</g>
<!-- Node2 -->
<g id="node2" class="node">
<title>Node2</title>
<g id="a_node2"><a xlink:href="structmkr_1_1local__to__world.html" target="_top" xlink:title=" ">
<polygon fill="white" stroke="black" points="93,-265 93,-322 206,-322 206,-265 93,-265"/>
<text text-anchor="middle" x="149.5" y="-310" font-family="Helvetica,sans-Serif" font-size="10.00">mkr::local_to_world</text>
<polyline fill="none" stroke="black" points="93,-303 206,-303 "/>
<text text-anchor="middle" x="149.5" y="-291" font-family="Helvetica,sans-Serif" font-size="10.00"> </text>
<polyline fill="none" stroke="black" points="93,-284 206,-284 "/>
<text text-anchor="middle" x="149.5" y="-272" font-family="Helvetica,sans-Serif" font-size="10.00"> </text>
</a>
</g>
</g>
<!-- Node2&#45;&gt;Node1 -->
<g id="edge1" class="edge">
<title>Node2&#45;&gt;Node1</title>
<path fill="none" stroke="#404040" d="M155.44,-264.82C164.32,-224.95 182.41,-149.31 204.5,-87 205.33,-84.66 206.22,-82.27 207.16,-79.88"/>
<polygon fill="none" stroke="#404040" points="207.19,-79.81 205.77,-72.74 211.75,-68.71 213.17,-75.78 207.19,-79.81"/>
<text text-anchor="middle" x="237" y="-90" font-family="Helvetica,sans-Serif" font-size="10.00"> +transform_</text>
</g>
<!-- Node3 -->
<g id="node3" class="node">
<title>Node3</title>
<g id="a_node3"><a xlink:title=" ">
<polygon fill="white" stroke="#bfbfbf" points="0,-650.5 0,-707.5 53,-707.5 53,-650.5 0,-650.5"/>
<text text-anchor="middle" x="26.5" y="-695.5" font-family="Helvetica,sans-Serif" font-size="10.00">vector3</text>
<polyline fill="none" stroke="#bfbfbf" points="0,-688.5 53,-688.5 "/>
<text text-anchor="middle" x="26.5" y="-676.5" font-family="Helvetica,sans-Serif" font-size="10.00"> </text>
<polyline fill="none" stroke="#bfbfbf" points="0,-669.5 53,-669.5 "/>
<text text-anchor="middle" x="26.5" y="-657.5" font-family="Helvetica,sans-Serif" font-size="10.00"> </text>
</a>
</g>
</g>
<!-- Node3&#45;&gt;Node2 -->
<g id="edge2" class="edge">
<title>Node3&#45;&gt;Node2</title>
<path fill="none" stroke="#404040" d="M26.39,-650.44C26.95,-613.06 30.5,-544.56 47.5,-489 65.16,-431.26 100.01,-370.52 124.02,-332.6"/>
<polygon fill="none" stroke="#404040" points="124.3,-332.15 124.17,-324.94 130.78,-322.06 130.91,-329.27 124.3,-332.15"/>
<text text-anchor="middle" x="75" y="-574.5" font-family="Helvetica,sans-Serif" font-size="10.00"> +forward_</text>
<text text-anchor="middle" x="75" y="-563.5" font-family="Helvetica,sans-Serif" font-size="10.00">+left_</text>
<text text-anchor="middle" x="75" y="-552.5" font-family="Helvetica,sans-Serif" font-size="10.00">+position_</text>
<text text-anchor="middle" x="75" y="-541.5" font-family="Helvetica,sans-Serif" font-size="10.00">+up_</text>
</g>
<!-- Node4 -->
<g id="node4" class="node">
<title>Node4</title>
<g id="a_node4"><a xlink:title=" ">
<polygon fill="white" stroke="#bfbfbf" points="71,-650.5 71,-707.5 140,-707.5 140,-650.5 71,-650.5"/>
<text text-anchor="middle" x="105.5" y="-695.5" font-family="Helvetica,sans-Serif" font-size="10.00">quaternion</text>
<polyline fill="none" stroke="#bfbfbf" points="71,-688.5 140,-688.5 "/>
<text text-anchor="middle" x="105.5" y="-676.5" font-family="Helvetica,sans-Serif" font-size="10.00"> </text>
<polyline fill="none" stroke="#bfbfbf" points="71,-669.5 140,-669.5 "/>
<text text-anchor="middle" x="105.5" y="-657.5" font-family="Helvetica,sans-Serif" font-size="10.00"> </text>
</a>
</g>
</g>
<!-- Node4&#45;&gt;Node2 -->
<g id="edge3" class="edge">
<title>Node4&#45;&gt;Node2</title>
<path fill="none" stroke="#404040" d="M105.46,-650.36C105.67,-613.46 107.04,-546.11 113.5,-489 119.63,-434.81 132.01,-373 140.52,-333.88"/>
<polygon fill="none" stroke="#404040" points="140.56,-333.73 137.94,-327.01 143.14,-322.02 145.76,-328.74 140.56,-333.73"/>
<text text-anchor="middle" x="141" y="-558" font-family="Helvetica,sans-Serif" font-size="10.00"> +rotation_</text>
</g>
<!-- Node5 -->
<g id="node5" class="node">
<title>Node5</title>
<g id="a_node5"><a xlink:title=" ">
<polygon fill="white" stroke="#bfbfbf" points="158,-650.5 158,-707.5 225,-707.5 225,-650.5 158,-650.5"/>
<text text-anchor="middle" x="191.5" y="-695.5" font-family="Helvetica,sans-Serif" font-size="10.00">matrix4x4</text>
<polyline fill="none" stroke="#bfbfbf" points="158,-688.5 225,-688.5 "/>
<text text-anchor="middle" x="191.5" y="-676.5" font-family="Helvetica,sans-Serif" font-size="10.00"> </text>
<polyline fill="none" stroke="#bfbfbf" points="158,-669.5 225,-669.5 "/>
<text text-anchor="middle" x="191.5" y="-657.5" font-family="Helvetica,sans-Serif" font-size="10.00"> </text>
</a>
</g>
</g>
<!-- Node5&#45;&gt;Node2 -->
<g id="edge4" class="edge">
<title>Node5&#45;&gt;Node2</title>
<path fill="none" stroke="#404040" d="M188.48,-650.42C181.15,-583.47 162.39,-412.17 153.85,-334.21"/>
<polygon fill="none" stroke="#404040" points="153.83,-334.02 149.2,-328.49 152.52,-322.09 157.15,-327.62 153.83,-334.02"/>
<text text-anchor="middle" x="219" y="-558" font-family="Helvetica,sans-Serif" font-size="10.00"> +transform_</text>
</g>
<!-- Node6 -->
<g id="node6" class="node">
<title>Node6</title>
<g id="a_node6"><a xlink:href="classmkr_1_1light.html" target="_top" xlink:title=" ">
<polygon fill="white" stroke="black" points="230.5,-116.5 230.5,-470.5 394.5,-470.5 394.5,-116.5 230.5,-116.5"/>
<text text-anchor="middle" x="312.5" y="-458.5" font-family="Helvetica,sans-Serif" font-size="10.00">mkr::light</text>
<polyline fill="none" stroke="black" points="230.5,-451.5 394.5,-451.5 "/>
<text text-anchor="middle" x="312.5" y="-439.5" font-family="Helvetica,sans-Serif" font-size="10.00"> </text>
<polyline fill="none" stroke="black" points="230.5,-432.5 394.5,-432.5 "/>
<text text-anchor="start" x="238.5" y="-420.5" font-family="Helvetica,sans-Serif" font-size="10.00">+ light()</text>
<text text-anchor="start" x="238.5" y="-409.5" font-family="Helvetica,sans-Serif" font-size="10.00">+ ~light()</text>
<text text-anchor="start" x="238.5" y="-398.5" font-family="Helvetica,sans-Serif" font-size="10.00">+ get_mode()</text>
<text text-anchor="start" x="238.5" y="-387.5" font-family="Helvetica,sans-Serif" font-size="10.00">+ set_mode()</text>
<text text-anchor="start" x="238.5" y="-376.5" font-family="Helvetica,sans-Serif" font-size="10.00">+ get_power()</text>
<text text-anchor="start" x="238.5" y="-365.5" font-family="Helvetica,sans-Serif" font-size="10.00">+ set_power()</text>
<text text-anchor="start" x="238.5" y="-354.5" font-family="Helvetica,sans-Serif" font-size="10.00">+ set_colour()</text>
<text text-anchor="start" x="238.5" y="-343.5" font-family="Helvetica,sans-Serif" font-size="10.00">+ get_colour()</text>
<text text-anchor="start" x="238.5" y="-332.5" font-family="Helvetica,sans-Serif" font-size="10.00">+ get_attenuation_constant()</text>
<text text-anchor="start" x="238.5" y="-321.5" font-family="Helvetica,sans-Serif" font-size="10.00">+ set_attenuation_constant()</text>
<text text-anchor="start" x="238.5" y="-310.5" font-family="Helvetica,sans-Serif" font-size="10.00">+ get_attenuation_linear()</text>
<text text-anchor="start" x="238.5" y="-299.5" font-family="Helvetica,sans-Serif" font-size="10.00">+ set_attenuation_linear()</text>
<text text-anchor="start" x="238.5" y="-288.5" font-family="Helvetica,sans-Serif" font-size="10.00">+ get_attenuation_quadratic()</text>
<text text-anchor="start" x="238.5" y="-277.5" font-family="Helvetica,sans-Serif" font-size="10.00">+ set_attenuation_quadratic()</text>
<text text-anchor="start" x="238.5" y="-266.5" font-family="Helvetica,sans-Serif" font-size="10.00">+ get_spotlight_inner</text>
<text text-anchor="start" x="238.5" y="-255.5" font-family="Helvetica,sans-Serif" font-size="10.00">_consine()</text>
<text text-anchor="start" x="238.5" y="-244.5" font-family="Helvetica,sans-Serif" font-size="10.00">+ get_spotlight_inner</text>
<text text-anchor="start" x="238.5" y="-233.5" font-family="Helvetica,sans-Serif" font-size="10.00">_angle()</text>
<text text-anchor="start" x="238.5" y="-222.5" font-family="Helvetica,sans-Serif" font-size="10.00">+ set_spotlight_inner</text>
<text text-anchor="start" x="238.5" y="-211.5" font-family="Helvetica,sans-Serif" font-size="10.00">_angle()</text>
<text text-anchor="start" x="238.5" y="-200.5" font-family="Helvetica,sans-Serif" font-size="10.00">+ get_spotlight_outer</text>
<text text-anchor="start" x="238.5" y="-189.5" font-family="Helvetica,sans-Serif" font-size="10.00">_consine()</text>
<text text-anchor="start" x="238.5" y="-178.5" font-family="Helvetica,sans-Serif" font-size="10.00">+ get_spotlight_outer</text>
<text text-anchor="start" x="238.5" y="-167.5" font-family="Helvetica,sans-Serif" font-size="10.00">_angle()</text>
<text text-anchor="start" x="238.5" y="-156.5" font-family="Helvetica,sans-Serif" font-size="10.00">+ set_spotlight_outer</text>
<text text-anchor="start" x="238.5" y="-145.5" font-family="Helvetica,sans-Serif" font-size="10.00">_angle()</text>
<text text-anchor="start" x="238.5" y="-134.5" font-family="Helvetica,sans-Serif" font-size="10.00">+ get_shadow_distance()</text>
<text text-anchor="start" x="238.5" y="-123.5" font-family="Helvetica,sans-Serif" font-size="10.00">+ set_shadow_distance()</text>
</a>
</g>
</g>
<!-- Node6&#45;&gt;Node1 -->
<g id="edge5" class="edge">
<title>Node6&#45;&gt;Node1</title>
<path fill="none" stroke="#404040" d="M281.58,-116.29C277.98,-106.21 273.97,-96.38 269.5,-87 268.17,-84.22 266.67,-81.46 265.03,-78.75"/>
<polygon fill="none" stroke="#404040" points="264.89,-78.53 258.23,-75.78 258.21,-68.57 264.87,-71.32 264.89,-78.53"/>
<text text-anchor="middle" x="293" y="-90" font-family="Helvetica,sans-Serif" font-size="10.00"> +light_</text>
</g>
<!-- Node7 -->
<g id="node7" class="node">
<title>Node7</title>
<g id="a_node7"><a xlink:title=" ">
<polygon fill="white" stroke="#bfbfbf" points="256.5,-650.5 256.5,-707.5 294.5,-707.5 294.5,-650.5 256.5,-650.5"/>
<text text-anchor="middle" x="275.5" y="-695.5" font-family="Helvetica,sans-Serif" font-size="10.00">float</text>
<polyline fill="none" stroke="#bfbfbf" points="256.5,-688.5 294.5,-688.5 "/>
<text text-anchor="middle" x="275.5" y="-676.5" font-family="Helvetica,sans-Serif" font-size="10.00"> </text>
<polyline fill="none" stroke="#bfbfbf" points="256.5,-669.5 294.5,-669.5 "/>
<text text-anchor="middle" x="275.5" y="-657.5" font-family="Helvetica,sans-Serif" font-size="10.00"> </text>
</a>
</g>
</g>
<!-- Node7&#45;&gt;Node6 -->
<g id="edge6" class="edge">
<title>Node7&#45;&gt;Node6</title>
<path fill="none" stroke="#404040" d="M274.12,-650.38C272.62,-613.5 271.1,-546.17 276.5,-489 276.7,-486.91 276.91,-484.82 277.12,-482.71"/>
<polygon fill="none" stroke="#404040" points="277.15,-482.48 273.84,-476.07 278.48,-470.56 281.79,-476.96 277.15,-482.48"/>
<text text-anchor="start" x="276.5" y="-624" font-family="Helvetica,sans-Serif" font-size="10.00"> &#45;attenuation_constant</text>
<text text-anchor="middle" x="332.5" y="-613" font-family="Helvetica,sans-Serif" font-size="10.00">_</text>
<text text-anchor="start" x="276.5" y="-602" font-family="Helvetica,sans-Serif" font-size="10.00">&#45;attenuation_linear</text>
<text text-anchor="middle" x="332.5" y="-591" font-family="Helvetica,sans-Serif" font-size="10.00">_</text>
<text text-anchor="start" x="276.5" y="-580" font-family="Helvetica,sans-Serif" font-size="10.00">&#45;attenuation_quadratic</text>
<text text-anchor="middle" x="332.5" y="-569" font-family="Helvetica,sans-Serif" font-size="10.00">_</text>
<text text-anchor="middle" x="332.5" y="-558" font-family="Helvetica,sans-Serif" font-size="10.00">&#45;power_</text>
<text text-anchor="start" x="276.5" y="-547" font-family="Helvetica,sans-Serif" font-size="10.00">&#45;shadow_distance</text>
<text text-anchor="middle" x="332.5" y="-536" font-family="Helvetica,sans-Serif" font-size="10.00">_</text>
<text text-anchor="start" x="276.5" y="-525" font-family="Helvetica,sans-Serif" font-size="10.00">&#45;spotlight_inner</text>
<text text-anchor="middle" x="332.5" y="-514" font-family="Helvetica,sans-Serif" font-size="10.00">_angle_</text>
<text text-anchor="start" x="276.5" y="-503" font-family="Helvetica,sans-Serif" font-size="10.00">&#45;spotlight_outer</text>
<text text-anchor="middle" x="332.5" y="-492" font-family="Helvetica,sans-Serif" font-size="10.00">_angle_</text>
</g>
<!-- Node8 -->
<g id="node8" class="node">
<title>Node8</title>
<g id="a_node8"><a xlink:title=" ">
<polygon fill="white" stroke="#bfbfbf" points="387,-650.5 387,-707.5 434,-707.5 434,-650.5 387,-650.5"/>
<text text-anchor="middle" x="410.5" y="-695.5" font-family="Helvetica,sans-Serif" font-size="10.00">colour</text>
<polyline fill="none" stroke="#bfbfbf" points="387,-688.5 434,-688.5 "/>
<text text-anchor="middle" x="410.5" y="-676.5" font-family="Helvetica,sans-Serif" font-size="10.00"> </text>
<polyline fill="none" stroke="#bfbfbf" points="387,-669.5 434,-669.5 "/>
<text text-anchor="middle" x="410.5" y="-657.5" font-family="Helvetica,sans-Serif" font-size="10.00"> </text>
</a>
</g>
</g>
<!-- Node8&#45;&gt;Node6 -->
<g id="edge7" class="edge">
<title>Node8&#45;&gt;Node6</title>
<path fill="none" stroke="#404040" d="M409.5,-650.38C407.65,-613.2 402.52,-545.25 388.5,-489 387.96,-486.82 387.4,-484.63 386.82,-482.43"/>
<polygon fill="none" stroke="#404040" points="386.75,-482.2 381.3,-477.48 383.57,-470.64 389.02,-475.36 386.75,-482.2"/>
<text text-anchor="middle" x="429" y="-558" font-family="Helvetica,sans-Serif" font-size="10.00"> &#45;colour_</text>
</g>
<!-- Node9 -->
<g id="node9" class="node">
<title>Node9</title>
<g id="a_node9"><a xlink:title=" ">
<polygon fill="white" stroke="#bfbfbf" points="452,-650.5 452,-707.5 523,-707.5 523,-650.5 452,-650.5"/>
<text text-anchor="middle" x="487.5" y="-695.5" font-family="Helvetica,sans-Serif" font-size="10.00">light_mode</text>
<polyline fill="none" stroke="#bfbfbf" points="452,-688.5 523,-688.5 "/>
<text text-anchor="middle" x="487.5" y="-676.5" font-family="Helvetica,sans-Serif" font-size="10.00"> </text>
<polyline fill="none" stroke="#bfbfbf" points="452,-669.5 523,-669.5 "/>
<text text-anchor="middle" x="487.5" y="-657.5" font-family="Helvetica,sans-Serif" font-size="10.00"> </text>
</a>
</g>
</g>
<!-- Node9&#45;&gt;Node6 -->
<g id="edge8" class="edge">
<title>Node9&#45;&gt;Node6</title>
<path fill="none" stroke="#404040" d="M486.58,-650.29C484.46,-612.45 477.49,-543.11 454.5,-489 441.12,-457.5 421.78,-426.27 401.66,-398.34"/>
<polygon fill="none" stroke="#404040" points="401.61,-398.28 394.84,-395.81 394.52,-388.61 401.29,-391.08 401.61,-398.28"/>
<text text-anchor="middle" x="504.5" y="-558" font-family="Helvetica,sans-Serif" font-size="10.00"> &#45;mode_</text>
</g>
</g>
</svg>
        <g id="navigator" transform="translate(0 0)" fill="#404254">
                <rect fill="#f2f5e9" fill-opacity="0.5" stroke="#606060" stroke-width=".5" x="0" y="0" width="60" height="60"/>
                <use id="zoomplus" xlink:href="#zoomPlus" x="17" y="9" onmousedown="handleZoom(evt,'in')"/>
                <use id="zoomminus" xlink:href="#zoomMin" x="42" y="9" onmousedown="handleZoom(evt,'out')"/>
                <use id="reset" xlink:href="#resetDef" x="30" y="36" onmousedown="handleReset()"/>
                <g id="arrowUp" xlink:href="#dirArrow" transform="translate(30 24)" onmousedown="handlePan(0,-1)">
                  <use xlink:href="#rim" fill="#404040">
                        <set attributeName="fill" to="#808080" begin="arrowUp.mouseover" end="arrowUp.mouseout"/>
                  </use>
                  <path fill="none" stroke="white" stroke-width="1.5" d="M0,-3.0v7 M-2.5,-0.5L0,-3.0L2.5,-0.5"/>
                </g>
                <g id="arrowRight" xlink:href="#dirArrow" transform="rotate(90) translate(36 -43)" onmousedown="handlePan(1,0)">
                  <use xlink:href="#rim" fill="#404040">
                        <set attributeName="fill" to="#808080" begin="arrowRight.mouseover" end="arrowRight.mouseout"/>
                  </use>
                  <path fill="none" stroke="white" stroke-width="1.5" d="M0,-3.0v7 M-2.5,-0.5L0,-3.0L2.5,-0.5"/>
                </g>
                <g id="arrowDown" xlink:href="#dirArrow" transform="rotate(180) translate(-30 -48)" onmousedown="handlePan(0,1)">
                  <use xlink:href="#rim" fill="#404040">
                        <set attributeName="fill" to="#808080" begin="arrowDown.mouseover" end="arrowDown.mouseout"/>
                  </use>
                  <path fill="none" stroke="white" stroke-width="1.5" d="M0,-3.0v7 M-2.5,-0.5L0,-3.0L2.5,-0.5"/>
                </g>
                <g id="arrowLeft" xlink:href="#dirArrow" transform="rotate(270) translate(-36 17)" onmousedown="handlePan(-1,0)">
                  <use xlink:href="#rim" fill="#404040">
                        <set attributeName="fill" to="#808080" begin="arrowLeft.mouseover" end="arrowLeft.mouseout"/>
                  </use>
                  <path fill="none" stroke="white" stroke-width="1.5" d="M0,-3.0v7 M-2.5,-0.5L0,-3.0L2.5,-0.5"/>
                </g>
        </g>
        <svg viewBox="0 0 15 15" width="100%" height="30px" preserveAspectRatio="xMaxYMin meet">
         <g id="arrow_out" transform="scale(0.3 0.3)">
          <a xlink:href="structmkr_1_1graphics__renderer_1_1light__data__coll__graph_org.svg" target="_base">
           <rect id="button" ry="5" rx="5" y="6" x="6" height="38" width="38"
                fill="#f2f5e9" fill-opacity="0.5" stroke="#606060" stroke-width="1.0"/>
           <path id="arrow"
             d="M 11.500037,31.436501 C 11.940474,20.09759 22.043105,11.32322 32.158766,21.979434 L 37.068811,17.246167 C 37.068811,17.246167 37.088388,32 37.088388,32 L 22.160133,31.978069 C 22.160133,31.978069 26.997745,27.140456 26.997745,27.140456 C 18.528582,18.264221 13.291696,25.230495 11.500037,31.436501 z"
             style="fill:#404040;"/>
          </a>
         </g>
        </svg>
</svg>
