<?xml version="1.0" encoding="UTF-8" standalone="no"?>
<!DOCTYPE svg PUBLIC "-//W3C//DTD SVG 1.1//EN"
 "http://www.w3.org/Graphics/SVG/1.1/DTD/svg11.dtd">
<!-- Generated by graphviz version 2.43.0 (0)
 -->
<!-- Title: mkr::vertex Pages: 1 -->
<svg width="164pt" height="193pt"
 viewBox="0.00 0.00 163.50 193.00" xmlns="http://www.w3.org/2000/svg" xmlns:xlink="http://www.w3.org/1999/xlink">
<g id="graph0" class="graph" transform="scale(1 1) rotate(0) translate(4 189)">
<title>mkr::vertex</title>
<polygon fill="white" stroke="transparent" points="-4,4 -4,-189 159.5,-189 159.5,4 -4,4"/>
<!-- Node1 -->
<g id="node1" class="node">
<title>Node1</title>
<g id="a_node1"><a xlink:title=" ">
<polygon fill="#bfbfbf" stroke="black" points="33.5,-0.5 33.5,-57.5 107.5,-57.5 107.5,-0.5 33.5,-0.5"/>
<text text-anchor="middle" x="70.5" y="-45.5" font-family="Helvetica,sans-Serif" font-size="10.00">mkr::vertex</text>
<polyline fill="none" stroke="black" points="33.5,-38.5 107.5,-38.5 "/>
<text text-anchor="middle" x="70.5" y="-26.5" font-family="Helvetica,sans-Serif" font-size="10.00"> </text>
<polyline fill="none" stroke="black" points="33.5,-19.5 107.5,-19.5 "/>
<text text-anchor="middle" x="70.5" y="-7.5" font-family="Helvetica,sans-Serif" font-size="10.00"> </text>
</a>
</g>
</g>
<!-- Node2 -->
<g id="node2" class="node">
<title>Node2</title>
<g id="a_node2"><a xlink:title=" ">
<polygon fill="white" stroke="#bfbfbf" points="0,-127.5 0,-184.5 53,-184.5 53,-127.5 0,-127.5"/>
<text text-anchor="middle" x="26.5" y="-172.5" font-family="Helvetica,sans-Serif" font-size="10.00">vector2</text>
<polyline fill="none" stroke="#bfbfbf" points="0,-165.5 53,-165.5 "/>
<text text-anchor="middle" x="26.5" y="-153.5" font-family="Helvetica,sans-Serif" font-size="10.00"> </text>
<polyline fill="none" stroke="#bfbfbf" points="0,-146.5 53,-146.5 "/>
<text text-anchor="middle" x="26.5" y="-134.5" font-family="Helvetica,sans-Serif" font-size="10.00"> </text>
</a>
</g>
</g>
<!-- Node2&#45;&gt;Node1 -->
<g id="edge1" class="edge">
<title>Node2&#45;&gt;Node1</title>
<path fill="none" stroke="#404040" d="M22.06,-127.35C20.71,-111.73 21,-92.16 27.5,-76 28.66,-73.12 30.09,-70.3 31.72,-67.59"/>
<polygon fill="none" stroke="#404040" points="31.87,-67.37 32.1,-60.17 38.83,-57.6 38.61,-64.81 31.87,-67.37"/>
<text text-anchor="middle" x="60" y="-90" font-family="Helvetica,sans-Serif" font-size="10.00"> +tex_coord_</text>
</g>
<!-- Node3 -->
<g id="node3" class="node">
<title>Node3</title>
<g id="a_node3"><a xlink:title=" ">
<polygon fill="white" stroke="#bfbfbf" points="88,-127.5 88,-184.5 141,-184.5 141,-127.5 88,-127.5"/>
<text text-anchor="middle" x="114.5" y="-172.5" font-family="Helvetica,sans-Serif" font-size="10.00">vector3</text>
<polyline fill="none" stroke="#bfbfbf" points="88,-165.5 141,-165.5 "/>
<text text-anchor="middle" x="114.5" y="-153.5" font-family="Helvetica,sans-Serif" font-size="10.00"> </text>
<polyline fill="none" stroke="#bfbfbf" points="88,-146.5 141,-146.5 "/>
<text text-anchor="middle" x="114.5" y="-134.5" font-family="Helvetica,sans-Serif" font-size="10.00"> </text>
</a>
</g>
</g>
<!-- Node3&#45;&gt;Node1 -->
<g id="edge2" class="edge">
<title>Node3&#45;&gt;Node1</title>
<path fill="none" stroke="#404040" d="M108.02,-127.2C104.14,-111.89 98.75,-92.66 92.5,-76 91.63,-73.67 90.68,-71.29 89.68,-68.92"/>
<polygon fill="none" stroke="#404040" points="89.65,-68.85 83.57,-64.99 84.79,-57.88 90.88,-61.74 89.65,-68.85"/>
<text text-anchor="middle" x="129" y="-101" font-family="Helvetica,sans-Serif" font-size="10.00"> +normal_</text>
<text text-anchor="middle" x="129" y="-90" font-family="Helvetica,sans-Serif" font-size="10.00">+position_</text>
<text text-anchor="middle" x="129" y="-79" font-family="Helvetica,sans-Serif" font-size="10.00">+tangent_</text>
</g>
</g>
</svg>
