<?xml version="1.0" encoding="UTF-8" standalone="no"?>
<!DOCTYPE svg PUBLIC "-//W3C//DTD SVG 1.1//EN"
 "http://www.w3.org/Graphics/SVG/1.1/DTD/svg11.dtd">
<!-- Generated by graphviz version 2.43.0 (0)
 -->
<!-- Title: mkr::motion_handler::motion_data Pages: 1 -->
<svg width="127pt" height="193pt"
 viewBox="0.00 0.00 127.00 193.00" xmlns="http://www.w3.org/2000/svg" xmlns:xlink="http://www.w3.org/1999/xlink">
<g id="graph0" class="graph" transform="scale(1 1) rotate(0) translate(4 189)">
<title>mkr::motion_handler::motion_data</title>
<polygon fill="white" stroke="transparent" points="-4,4 -4,-189 123,-189 123,4 -4,4"/>
<!-- Node1 -->
<g id="node1" class="node">
<title>Node1</title>
<g id="a_node1"><a xlink:title=" ">
<polygon fill="#bfbfbf" stroke="black" points="0,-0.5 0,-68.5 119,-68.5 119,-0.5 0,-0.5"/>
<text text-anchor="start" x="8" y="-56.5" font-family="Helvetica,sans-Serif" font-size="10.00">mkr::motion_handler</text>
<text text-anchor="middle" x="59.5" y="-45.5" font-family="Helvetica,sans-Serif" font-size="10.00">::motion_data</text>
<polyline fill="none" stroke="black" points="0,-38.5 119,-38.5 "/>
<text text-anchor="middle" x="59.5" y="-26.5" font-family="Helvetica,sans-Serif" font-size="10.00"> </text>
<polyline fill="none" stroke="black" points="0,-19.5 119,-19.5 "/>
<text text-anchor="middle" x="59.5" y="-7.5" font-family="Helvetica,sans-Serif" font-size="10.00"> </text>
</a>
</g>
</g>
<!-- Node2 -->
<g id="node2" class="node">
<title>Node2</title>
<g id="a_node2"><a xlink:title=" ">
<polygon fill="white" stroke="#bfbfbf" points="33,-127.5 33,-184.5 86,-184.5 86,-127.5 33,-127.5"/>
<text text-anchor="middle" x="59.5" y="-172.5" font-family="Helvetica,sans-Serif" font-size="10.00">vector2</text>
<polyline fill="none" stroke="#bfbfbf" points="33,-165.5 86,-165.5 "/>
<text text-anchor="middle" x="59.5" y="-153.5" font-family="Helvetica,sans-Serif" font-size="10.00"> </text>
<polyline fill="none" stroke="#bfbfbf" points="33,-146.5 86,-146.5 "/>
<text text-anchor="middle" x="59.5" y="-134.5" font-family="Helvetica,sans-Serif" font-size="10.00"> </text>
</a>
</g>
</g>
<!-- Node2&#45;&gt;Node1 -->
<g id="edge1" class="edge">
<title>Node2&#45;&gt;Node1</title>
<path fill="none" stroke="#404040" d="M59.5,-127.28C59.5,-113.47 59.5,-96.4 59.5,-80.75"/>
<polygon fill="none" stroke="#404040" points="59.5,-80.59 55.5,-74.59 59.5,-68.59 63.5,-74.59 59.5,-80.59"/>
<text text-anchor="middle" x="86" y="-101" font-family="Helvetica,sans-Serif" font-size="10.00"> +delta_</text>
<text text-anchor="middle" x="86" y="-90" font-family="Helvetica,sans-Serif" font-size="10.00">+position_</text>
</g>
</g>
</svg>
