<?xml version="1.0" encoding="UTF-8" standalone="no"?>
<!DOCTYPE svg PUBLIC "-//W3C//DTD SVG 1.1//EN"
 "http://www.w3.org/Graphics/SVG/1.1/DTD/svg11.dtd">
<!-- Generated by graphviz version 2.43.0 (0)
 -->
<!-- Title: mkr::camera Pages: 1 -->
<!--zoomable 1246 -->
<svg id="main" version="1.1" xmlns="http://www.w3.org/2000/svg" xmlns:xlink="http://www.w3.org/1999/xlink" xml:space="preserve" onload="init(evt)">
<style type="text/css"><![CDATA[
.edge:hover path { stroke: red; }
.edge:hover polygon { stroke: red; fill: red; }
]]></style>
<script type="text/javascript"><![CDATA[
var edges = document.getElementsByTagName('g');
if (edges && edges.length) {
  for (var i=0;i<edges.length;i++) {
    if (edges[i].id.substr(0,4)=='edge') {
      edges[i].setAttribute('class','edge');
    }
  }
}
]]></script>
        <defs>
                <circle id="rim" cx="0" cy="0" r="7"/>
                <circle id="rim2" cx="0" cy="0" r="3.5"/>
                <g id="zoomPlus">
                        <use xlink:href="#rim" fill="#404040">
                                <set attributeName="fill" to="#808080" begin="zoomplus.mouseover" end="zoomplus.mouseout"/>
                        </use>
                        <path d="M-4,0h8M0,-4v8" fill="none" stroke="white" stroke-width="1.5" pointer-events="none"/>
                </g>
                <g id="zoomMin">
                        <use xlink:href="#rim" fill="#404040">
                                <set attributeName="fill" to="#808080" begin="zoomminus.mouseover" end="zoomminus.mouseout"/>
                        </use>
                        <path d="M-4,0h8" fill="none" stroke="white" stroke-width="1.5" pointer-events="none"/>
                </g>
                <g id="dirArrow">
                        <path fill="none" stroke="white" stroke-width="1.5" d="M0,-3.0v7 M-2.5,-0.5L0,-3.0L2.5,-0.5"/>
                </g>
               <g id="resetDef">
                       <use xlink:href="#rim2" fill="#404040">
                               <set attributeName="fill" to="#808080" begin="reset.mouseover" end="reset.mouseout"/>
                       </use>
               </g>
        </defs>

<script type="text/javascript">
var viewWidth = 603;
var viewHeight = 1246;
var sectionId = 'dynsection-0';
</script>
<script xlink:href="svgpan.js"/>
<svg id="graph" class="graph">
<g id="viewport">
<title>mkr::camera</title>
<polygon fill="white" stroke="transparent" points="-4,4 -4,-1242 599,-1242 599,4 -4,4"/>
<!-- Node1 -->
<g id="node1" class="node">
<title>Node1</title>
<g id="a_node1"><a xlink:title=" ">
<polygon fill="#bfbfbf" stroke="black" points="232.5,-0.5 232.5,-57.5 311.5,-57.5 311.5,-0.5 232.5,-0.5"/>
<text text-anchor="middle" x="272" y="-45.5" font-family="Helvetica,sans-Serif" font-size="10.00">mkr::camera</text>
<polyline fill="none" stroke="black" points="232.5,-38.5 311.5,-38.5 "/>
<text text-anchor="middle" x="272" y="-26.5" font-family="Helvetica,sans-Serif" font-size="10.00"> </text>
<polyline fill="none" stroke="black" points="232.5,-19.5 311.5,-19.5 "/>
<text text-anchor="middle" x="272" y="-7.5" font-family="Helvetica,sans-Serif" font-size="10.00"> </text>
</a>
</g>
</g>
<!-- Node2 -->
<g id="node2" class="node">
<title>Node2</title>
<g id="a_node2"><a xlink:title=" ">
<polygon fill="white" stroke="#bfbfbf" points="0,-111 0,-168 98,-168 98,-111 0,-111"/>
<text text-anchor="middle" x="49" y="-156" font-family="Helvetica,sans-Serif" font-size="10.00">projection_mode</text>
<polyline fill="none" stroke="#bfbfbf" points="0,-149 98,-149 "/>
<text text-anchor="middle" x="49" y="-137" font-family="Helvetica,sans-Serif" font-size="10.00"> </text>
<polyline fill="none" stroke="#bfbfbf" points="0,-130 98,-130 "/>
<text text-anchor="middle" x="49" y="-118" font-family="Helvetica,sans-Serif" font-size="10.00"> </text>
</a>
</g>
</g>
<!-- Node2&#45;&gt;Node1 -->
<g id="edge1" class="edge">
<title>Node2&#45;&gt;Node1</title>
<path fill="none" stroke="#404040" d="M54.49,-110.78C58.29,-98.47 64.6,-84.81 75,-76 96.66,-57.65 169.53,-44.13 220.29,-36.66"/>
<polygon fill="none" stroke="#404040" points="220.48,-36.63 225.85,-31.82 232.36,-34.93 226.98,-39.74 220.48,-36.63"/>
<text text-anchor="middle" x="97.5" y="-79" font-family="Helvetica,sans-Serif" font-size="10.00"> +mode_</text>
</g>
<!-- Node3 -->
<g id="node3" class="node">
<title>Node3</title>
<g id="a_node3"><a xlink:title=" ">
<polygon fill="white" stroke="#bfbfbf" points="138,-265.5 138,-322.5 176,-322.5 176,-265.5 138,-265.5"/>
<text text-anchor="middle" x="157" y="-310.5" font-family="Helvetica,sans-Serif" font-size="10.00">float</text>
<polyline fill="none" stroke="#bfbfbf" points="138,-303.5 176,-303.5 "/>
<text text-anchor="middle" x="157" y="-291.5" font-family="Helvetica,sans-Serif" font-size="10.00"> </text>
<polyline fill="none" stroke="#bfbfbf" points="138,-284.5 176,-284.5 "/>
<text text-anchor="middle" x="157" y="-272.5" font-family="Helvetica,sans-Serif" font-size="10.00"> </text>
</a>
</g>
</g>
<!-- Node3&#45;&gt;Node1 -->
<g id="edge2" class="edge">
<title>Node3&#45;&gt;Node1</title>
<path fill="none" stroke="#404040" d="M145.8,-265.34C132.06,-226.66 113.95,-155.5 143,-105 159.75,-75.89 192.61,-57.03 220.98,-45.5"/>
<polygon fill="none" stroke="#404040" points="221.18,-45.43 225.36,-39.55 232.39,-41.15 228.21,-47.02 221.18,-45.43"/>
<text text-anchor="middle" x="181.5" y="-159" font-family="Helvetica,sans-Serif" font-size="10.00"> +aspect_ratio_</text>
<text text-anchor="middle" x="181.5" y="-148" font-family="Helvetica,sans-Serif" font-size="10.00">+far_plane_</text>
<text text-anchor="middle" x="181.5" y="-137" font-family="Helvetica,sans-Serif" font-size="10.00">+fov_</text>
<text text-anchor="middle" x="181.5" y="-126" font-family="Helvetica,sans-Serif" font-size="10.00">+near_plane_</text>
<text text-anchor="middle" x="181.5" y="-115" font-family="Helvetica,sans-Serif" font-size="10.00">+ortho_size_</text>
</g>
<!-- Node4 -->
<g id="node4" class="node">
<title>Node4</title>
<g id="a_node4"><a xlink:href="structmkr_1_1viewport.html" target="_top" xlink:title=" ">
<polygon fill="white" stroke="black" points="229,-105.5 229,-173.5 315,-173.5 315,-105.5 229,-105.5"/>
<text text-anchor="middle" x="272" y="-161.5" font-family="Helvetica,sans-Serif" font-size="10.00">mkr::viewport</text>
<polyline fill="none" stroke="black" points="229,-154.5 315,-154.5 "/>
<text text-anchor="middle" x="272" y="-142.5" font-family="Helvetica,sans-Serif" font-size="10.00"> </text>
<polyline fill="none" stroke="black" points="229,-135.5 315,-135.5 "/>
<text text-anchor="start" x="237" y="-123.5" font-family="Helvetica,sans-Serif" font-size="10.00">+ viewport()</text>
<text text-anchor="start" x="237" y="-112.5" font-family="Helvetica,sans-Serif" font-size="10.00">+ ~viewport()</text>
</a>
</g>
</g>
<!-- Node3&#45;&gt;Node4 -->
<g id="edge4" class="edge">
<title>Node3&#45;&gt;Node4</title>
<path fill="none" stroke="#404040" d="M163.18,-265.45C169.09,-243.76 179.72,-213.68 197,-192 203.16,-184.27 210.79,-177.25 218.8,-171.04"/>
<polygon fill="none" stroke="#404040" points="218.97,-170.92 221.48,-164.16 228.69,-163.89 226.17,-170.64 218.97,-170.92"/>
<text text-anchor="middle" x="229" y="-228" font-family="Helvetica,sans-Serif" font-size="10.00"> +bottom_x_</text>
<text text-anchor="middle" x="229" y="-217" font-family="Helvetica,sans-Serif" font-size="10.00">+bottom_y_</text>
<text text-anchor="middle" x="229" y="-206" font-family="Helvetica,sans-Serif" font-size="10.00">+top_x_</text>
<text text-anchor="middle" x="229" y="-195" font-family="Helvetica,sans-Serif" font-size="10.00">+top_y_</text>
</g>
<!-- Node4&#45;&gt;Node1 -->
<g id="edge3" class="edge">
<title>Node4&#45;&gt;Node1</title>
<path fill="none" stroke="#404040" d="M272,-105.36C272,-94.19 272,-81.61 272,-69.97"/>
<polygon fill="none" stroke="#404040" points="272,-69.83 268,-63.83 272,-57.83 276,-63.83 272,-69.83"/>
<text text-anchor="middle" x="302" y="-79" font-family="Helvetica,sans-Serif" font-size="10.00"> +viewport_</text>
</g>
<!-- Node5 -->
<g id="node5" class="node">
<title>Node5</title>
<g id="a_node5"><a xlink:href="classmkr_1_1skybox.html" target="_top" xlink:title=" ">
<polygon fill="white" stroke="black" points="333.5,-111 333.5,-168 410.5,-168 410.5,-111 333.5,-111"/>
<text text-anchor="middle" x="372" y="-156" font-family="Helvetica,sans-Serif" font-size="10.00">mkr::skybox</text>
<polyline fill="none" stroke="black" points="333.5,-149 410.5,-149 "/>
<text text-anchor="middle" x="372" y="-137" font-family="Helvetica,sans-Serif" font-size="10.00"> </text>
<polyline fill="none" stroke="black" points="333.5,-130 410.5,-130 "/>
<text text-anchor="middle" x="372" y="-118" font-family="Helvetica,sans-Serif" font-size="10.00"> </text>
</a>
</g>
</g>
<!-- Node5&#45;&gt;Node1 -->
<g id="edge5" class="edge">
<title>Node5&#45;&gt;Node1</title>
<path fill="none" stroke="#404040" d="M359.41,-110.98C353.33,-99.43 345.32,-86.31 336,-76 331.58,-71.12 326.57,-66.44 321.33,-62.07"/>
<polygon fill="none" stroke="#404040" points="321.19,-61.96 314,-61.41 311.75,-54.56 318.94,-55.11 321.19,-61.96"/>
<text text-anchor="middle" x="370" y="-79" font-family="Helvetica,sans-Serif" font-size="10.00"> +skybox_</text>
</g>
<!-- Node6 -->
<g id="node6" class="node">
<title>Node6</title>
<g id="a_node6"><a xlink:href="classmkr_1_1shader__program.html" target="_top" xlink:title=" ">
<polygon fill="white" stroke="black" points="166.5,-371.5 166.5,-1121.5 305.5,-1121.5 305.5,-371.5 166.5,-371.5"/>
<text text-anchor="middle" x="236" y="-1109.5" font-family="Helvetica,sans-Serif" font-size="10.00">mkr::shader_program</text>
<polyline fill="none" stroke="black" points="166.5,-1102.5 305.5,-1102.5 "/>
<text text-anchor="middle" x="236" y="-1090.5" font-family="Helvetica,sans-Serif" font-size="10.00"> </text>
<polyline fill="none" stroke="black" points="166.5,-1083.5 305.5,-1083.5 "/>
<text text-anchor="start" x="174.5" y="-1071.5" font-family="Helvetica,sans-Serif" font-size="10.00">+ shader_program()</text>
<text text-anchor="start" x="174.5" y="-1060.5" font-family="Helvetica,sans-Serif" font-size="10.00">+ shader_program()</text>
<text text-anchor="start" x="174.5" y="-1049.5" font-family="Helvetica,sans-Serif" font-size="10.00">+ ~shader_program()</text>
<text text-anchor="start" x="174.5" y="-1038.5" font-family="Helvetica,sans-Serif" font-size="10.00">+ name()</text>
<text text-anchor="start" x="174.5" y="-1027.5" font-family="Helvetica,sans-Serif" font-size="10.00">+ use()</text>
<text text-anchor="start" x="174.5" y="-1016.5" font-family="Helvetica,sans-Serif" font-size="10.00">+ set_uniform()</text>
<text text-anchor="start" x="174.5" y="-1005.5" font-family="Helvetica,sans-Serif" font-size="10.00">+ set_uniform()</text>
<text text-anchor="start" x="174.5" y="-994.5" font-family="Helvetica,sans-Serif" font-size="10.00">+ set_uniform()</text>
<text text-anchor="start" x="174.5" y="-983.5" font-family="Helvetica,sans-Serif" font-size="10.00">+ set_uniform()</text>
<text text-anchor="start" x="174.5" y="-972.5" font-family="Helvetica,sans-Serif" font-size="10.00">+ set_uniform()</text>
<text text-anchor="start" x="174.5" y="-961.5" font-family="Helvetica,sans-Serif" font-size="10.00">+ set_uniform()</text>
<text text-anchor="start" x="174.5" y="-950.5" font-family="Helvetica,sans-Serif" font-size="10.00">+ set_uniform()</text>
<text text-anchor="start" x="174.5" y="-939.5" font-family="Helvetica,sans-Serif" font-size="10.00">+ set_uniform()</text>
<text text-anchor="start" x="174.5" y="-928.5" font-family="Helvetica,sans-Serif" font-size="10.00">+ set_uniform()</text>
<text text-anchor="start" x="174.5" y="-917.5" font-family="Helvetica,sans-Serif" font-size="10.00">+ set_uniform()</text>
<text text-anchor="start" x="174.5" y="-906.5" font-family="Helvetica,sans-Serif" font-size="10.00">+ set_uniform()</text>
<text text-anchor="start" x="174.5" y="-895.5" font-family="Helvetica,sans-Serif" font-size="10.00">+ set_uniform()</text>
<text text-anchor="start" x="174.5" y="-884.5" font-family="Helvetica,sans-Serif" font-size="10.00">+ set_uniform()</text>
<text text-anchor="start" x="174.5" y="-873.5" font-family="Helvetica,sans-Serif" font-size="10.00">+ set_uniform()</text>
<text text-anchor="start" x="174.5" y="-862.5" font-family="Helvetica,sans-Serif" font-size="10.00">+ set_uniform()</text>
<text text-anchor="start" x="174.5" y="-851.5" font-family="Helvetica,sans-Serif" font-size="10.00">+ set_uniform()</text>
<text text-anchor="start" x="174.5" y="-840.5" font-family="Helvetica,sans-Serif" font-size="10.00">+ set_uniform()</text>
<text text-anchor="start" x="174.5" y="-829.5" font-family="Helvetica,sans-Serif" font-size="10.00">+ set_uniform()</text>
<text text-anchor="start" x="174.5" y="-818.5" font-family="Helvetica,sans-Serif" font-size="10.00">+ set_uniform()</text>
<text text-anchor="start" x="174.5" y="-807.5" font-family="Helvetica,sans-Serif" font-size="10.00">+ set_uniform()</text>
<text text-anchor="start" x="174.5" y="-796.5" font-family="Helvetica,sans-Serif" font-size="10.00">+ set_uniform()</text>
<text text-anchor="start" x="174.5" y="-785.5" font-family="Helvetica,sans-Serif" font-size="10.00">+ set_uniform()</text>
<text text-anchor="start" x="174.5" y="-774.5" font-family="Helvetica,sans-Serif" font-size="10.00">+ set_uniform()</text>
<text text-anchor="start" x="174.5" y="-763.5" font-family="Helvetica,sans-Serif" font-size="10.00">+ set_uniform()</text>
<text text-anchor="start" x="174.5" y="-752.5" font-family="Helvetica,sans-Serif" font-size="10.00">+ set_uniform()</text>
<text text-anchor="start" x="174.5" y="-741.5" font-family="Helvetica,sans-Serif" font-size="10.00">+ set_uniform()</text>
<text text-anchor="start" x="174.5" y="-730.5" font-family="Helvetica,sans-Serif" font-size="10.00">+ set_uniform()</text>
<text text-anchor="start" x="174.5" y="-719.5" font-family="Helvetica,sans-Serif" font-size="10.00">+ set_uniform()</text>
<text text-anchor="start" x="174.5" y="-708.5" font-family="Helvetica,sans-Serif" font-size="10.00">+ set_uniform()</text>
<text text-anchor="start" x="174.5" y="-697.5" font-family="Helvetica,sans-Serif" font-size="10.00">+ set_uniform()</text>
<text text-anchor="start" x="174.5" y="-686.5" font-family="Helvetica,sans-Serif" font-size="10.00">+ set_uniform()</text>
<text text-anchor="start" x="174.5" y="-675.5" font-family="Helvetica,sans-Serif" font-size="10.00">+ set_uniform()</text>
<text text-anchor="start" x="174.5" y="-664.5" font-family="Helvetica,sans-Serif" font-size="10.00">+ set_uniform()</text>
<text text-anchor="start" x="174.5" y="-653.5" font-family="Helvetica,sans-Serif" font-size="10.00">+ set_uniform()</text>
<text text-anchor="start" x="174.5" y="-642.5" font-family="Helvetica,sans-Serif" font-size="10.00">+ set_uniform()</text>
<text text-anchor="start" x="174.5" y="-631.5" font-family="Helvetica,sans-Serif" font-size="10.00">+ set_uniform()</text>
<text text-anchor="start" x="174.5" y="-620.5" font-family="Helvetica,sans-Serif" font-size="10.00">+ set_uniform()</text>
<text text-anchor="start" x="174.5" y="-609.5" font-family="Helvetica,sans-Serif" font-size="10.00">+ set_uniform()</text>
<text text-anchor="start" x="174.5" y="-598.5" font-family="Helvetica,sans-Serif" font-size="10.00">+ set_uniform()</text>
<text text-anchor="start" x="174.5" y="-587.5" font-family="Helvetica,sans-Serif" font-size="10.00">+ set_uniform()</text>
<text text-anchor="start" x="174.5" y="-576.5" font-family="Helvetica,sans-Serif" font-size="10.00">+ set_uniform()</text>
<text text-anchor="start" x="174.5" y="-565.5" font-family="Helvetica,sans-Serif" font-size="10.00">+ set_uniform()</text>
<text text-anchor="start" x="174.5" y="-554.5" font-family="Helvetica,sans-Serif" font-size="10.00">+ set_uniform()</text>
<text text-anchor="start" x="174.5" y="-543.5" font-family="Helvetica,sans-Serif" font-size="10.00">+ set_uniform()</text>
<text text-anchor="start" x="174.5" y="-532.5" font-family="Helvetica,sans-Serif" font-size="10.00">+ set_uniform()</text>
<text text-anchor="start" x="174.5" y="-521.5" font-family="Helvetica,sans-Serif" font-size="10.00">+ set_uniform()</text>
<text text-anchor="start" x="174.5" y="-510.5" font-family="Helvetica,sans-Serif" font-size="10.00">+ set_uniform()</text>
<text text-anchor="start" x="174.5" y="-499.5" font-family="Helvetica,sans-Serif" font-size="10.00">+ set_uniform()</text>
<text text-anchor="start" x="174.5" y="-488.5" font-family="Helvetica,sans-Serif" font-size="10.00">+ set_uniform()</text>
<text text-anchor="start" x="174.5" y="-477.5" font-family="Helvetica,sans-Serif" font-size="10.00">+ set_uniform()</text>
<text text-anchor="start" x="174.5" y="-466.5" font-family="Helvetica,sans-Serif" font-size="10.00">+ set_uniform()</text>
<text text-anchor="start" x="174.5" y="-455.5" font-family="Helvetica,sans-Serif" font-size="10.00">+ set_uniform()</text>
<text text-anchor="start" x="174.5" y="-444.5" font-family="Helvetica,sans-Serif" font-size="10.00">+ set_uniform()</text>
<text text-anchor="start" x="174.5" y="-433.5" font-family="Helvetica,sans-Serif" font-size="10.00">+ set_uniform()</text>
<text text-anchor="start" x="174.5" y="-422.5" font-family="Helvetica,sans-Serif" font-size="10.00">+ set_uniform()</text>
<text text-anchor="start" x="174.5" y="-411.5" font-family="Helvetica,sans-Serif" font-size="10.00">+ set_uniform()</text>
<text text-anchor="start" x="174.5" y="-400.5" font-family="Helvetica,sans-Serif" font-size="10.00"># get_uniform_location()</text>
<text text-anchor="start" x="174.5" y="-389.5" font-family="Helvetica,sans-Serif" font-size="10.00"># get_attrib_location()</text>
<text text-anchor="start" x="174.5" y="-378.5" font-family="Helvetica,sans-Serif" font-size="10.00"># create_shader()</text>
</a>
</g>
</g>
<!-- Node6&#45;&gt;Node5 -->
<g id="edge6" class="edge">
<title>Node6&#45;&gt;Node5</title>
<path fill="none" stroke="#404040" d="M256.55,-371.27C264.8,-330.97 275.7,-291.15 290,-254 300.78,-225.99 320.23,-198.61 337.49,-177.75"/>
<polygon fill="none" stroke="#404040" points="337.7,-177.5 338.54,-170.34 345.48,-168.36 344.64,-175.52 337.7,-177.5"/>
<text text-anchor="middle" x="315" y="-291.5" font-family="Helvetica,sans-Serif" font-size="10.00"> +shader_</text>
</g>
<!-- Node7 -->
<g id="node7" class="node">
<title>Node7</title>
<g id="a_node7"><a xlink:title=" ">
<polygon fill="white" stroke="#bfbfbf" points="43.5,-1180.5 43.5,-1237.5 164.5,-1237.5 164.5,-1180.5 43.5,-1180.5"/>
<text text-anchor="middle" x="104" y="-1225.5" font-family="Helvetica,sans-Serif" font-size="10.00">unique_ptr&lt; GLint[]&gt;</text>
<polyline fill="none" stroke="#bfbfbf" points="43.5,-1218.5 164.5,-1218.5 "/>
<text text-anchor="middle" x="104" y="-1206.5" font-family="Helvetica,sans-Serif" font-size="10.00"> </text>
<polyline fill="none" stroke="#bfbfbf" points="43.5,-1199.5 164.5,-1199.5 "/>
<text text-anchor="middle" x="104" y="-1187.5" font-family="Helvetica,sans-Serif" font-size="10.00"> </text>
</a>
</g>
</g>
<!-- Node7&#45;&gt;Node6 -->
<g id="edge7" class="edge">
<title>Node7&#45;&gt;Node6</title>
<path fill="none" stroke="#404040" d="M111.12,-1180.5C114.37,-1168.1 118.31,-1153.3 122,-1140 134.99,-1093.18 149.19,-1043.32 163.02,-995.4"/>
<polygon fill="none" stroke="#404040" points="163.11,-995.12 160.93,-988.25 166.44,-983.59 168.61,-990.47 163.11,-995.12"/>
<text text-anchor="middle" x="171.5" y="-1148.5" font-family="Helvetica,sans-Serif" font-size="10.00"> #uniform_handles_</text>
</g>
<!-- Node8 -->
<g id="node8" class="node">
<title>Node8</title>
<g id="a_node8"><a xlink:title=" ">
<polygon fill="white" stroke="#bfbfbf" points="238,-1180.5 238,-1237.5 282,-1237.5 282,-1180.5 238,-1180.5"/>
<text text-anchor="middle" x="260" y="-1225.5" font-family="Helvetica,sans-Serif" font-size="10.00">string</text>
<polyline fill="none" stroke="#bfbfbf" points="238,-1218.5 282,-1218.5 "/>
<text text-anchor="middle" x="260" y="-1206.5" font-family="Helvetica,sans-Serif" font-size="10.00"> </text>
<polyline fill="none" stroke="#bfbfbf" points="238,-1199.5 282,-1199.5 "/>
<text text-anchor="middle" x="260" y="-1187.5" font-family="Helvetica,sans-Serif" font-size="10.00"> </text>
</a>
</g>
</g>
<!-- Node8&#45;&gt;Node6 -->
<g id="edge8" class="edge">
<title>Node8&#45;&gt;Node6</title>
<path fill="none" stroke="#404040" d="M237.73,-1182.79C233.33,-1176.42 229.35,-1169.3 227,-1162 224.01,-1152.69 226.89,-1149.78 227,-1140 227.02,-1137.92 227.05,-1135.84 227.07,-1133.74"/>
<polygon fill="none" stroke="#404040" points="227.07,-1133.71 223.15,-1127.66 227.23,-1121.71 231.15,-1127.76 227.07,-1133.71"/>
<text text-anchor="middle" x="249.5" y="-1148.5" font-family="Helvetica,sans-Serif" font-size="10.00"> #name_</text>
</g>
<!-- Node12 -->
<g id="node12" class="node">
<title>Node12</title>
<g id="a_node12"><a xlink:href="classmkr_1_1texture.html" target="_top" xlink:title=" ">
<polygon fill="white" stroke="black" points="425,-679.5 425,-813.5 535,-813.5 535,-679.5 425,-679.5"/>
<text text-anchor="middle" x="480" y="-801.5" font-family="Helvetica,sans-Serif" font-size="10.00">mkr::texture</text>
<polyline fill="none" stroke="black" points="425,-794.5 535,-794.5 "/>
<text text-anchor="middle" x="480" y="-782.5" font-family="Helvetica,sans-Serif" font-size="10.00"> </text>
<polyline fill="none" stroke="black" points="425,-775.5 535,-775.5 "/>
<text text-anchor="start" x="433" y="-763.5" font-family="Helvetica,sans-Serif" font-size="10.00">+ ~texture()</text>
<text text-anchor="start" x="433" y="-752.5" font-family="Helvetica,sans-Serif" font-size="10.00">+ name()</text>
<text text-anchor="start" x="433" y="-741.5" font-family="Helvetica,sans-Serif" font-size="10.00">+ width()</text>
<text text-anchor="start" x="433" y="-730.5" font-family="Helvetica,sans-Serif" font-size="10.00">+ height()</text>
<text text-anchor="start" x="433" y="-719.5" font-family="Helvetica,sans-Serif" font-size="10.00">+ handle()</text>
<text text-anchor="start" x="433" y="-708.5" font-family="Helvetica,sans-Serif" font-size="10.00">+ bind()</text>
<text text-anchor="start" x="433" y="-697.5" font-family="Helvetica,sans-Serif" font-size="10.00"># texture()</text>
<text text-anchor="start" x="433" y="-686.5" font-family="Helvetica,sans-Serif" font-size="10.00"># mip_map_level()</text>
</a>
</g>
</g>
<!-- Node8&#45;&gt;Node12 -->
<g id="edge14" class="edge">
<title>Node8&#45;&gt;Node12</title>
<path fill="none" stroke="#404040" d="M272.72,-1180.44C279.19,-1167.62 287.67,-1152.49 297,-1140 303.77,-1130.94 308.61,-1131.34 315,-1122 379.51,-1027.75 428.06,-904.2 455.26,-825.31"/>
<polygon fill="none" stroke="#404040" points="455.41,-824.89 453.56,-817.92 459.28,-813.53 461.13,-820.5 455.41,-824.89"/>
<text text-anchor="middle" x="319.5" y="-1148.5" font-family="Helvetica,sans-Serif" font-size="10.00"> #name_</text>
</g>
<!-- Node9 -->
<g id="node9" class="node">
<title>Node9</title>
<g id="a_node9"><a xlink:title=" ">
<polygon fill="white" stroke="#bfbfbf" points="398,-1180.5 398,-1237.5 446,-1237.5 446,-1180.5 398,-1180.5"/>
<text text-anchor="middle" x="422" y="-1225.5" font-family="Helvetica,sans-Serif" font-size="10.00">GLuint</text>
<polyline fill="none" stroke="#bfbfbf" points="398,-1218.5 446,-1218.5 "/>
<text text-anchor="middle" x="422" y="-1206.5" font-family="Helvetica,sans-Serif" font-size="10.00"> </text>
<polyline fill="none" stroke="#bfbfbf" points="398,-1199.5 446,-1199.5 "/>
<text text-anchor="middle" x="422" y="-1187.5" font-family="Helvetica,sans-Serif" font-size="10.00"> </text>
</a>
</g>
</g>
<!-- Node9&#45;&gt;Node6 -->
<g id="edge9" class="edge">
<title>Node9&#45;&gt;Node6</title>
<path fill="none" stroke="#404040" d="M397.99,-1195.62C384.74,-1187.67 368.99,-1176.17 359,-1162 339.99,-1135.04 323.88,-1105.13 310.24,-1074.07"/>
<polygon fill="none" stroke="#404040" points="310.23,-1074.06 304.2,-1070.12 305.51,-1063.03 311.55,-1066.97 310.23,-1074.06"/>
<text text-anchor="middle" x="407.5" y="-1148.5" font-family="Helvetica,sans-Serif" font-size="10.00"> #program_handle_</text>
</g>
<!-- Node9&#45;&gt;Node12 -->
<g id="edge15" class="edge">
<title>Node9&#45;&gt;Node12</title>
<path fill="none" stroke="#404040" d="M446.16,-1184.6C451.69,-1177.86 456.86,-1170.11 460,-1162 502.87,-1051.26 498.83,-911.3 490.51,-825.65"/>
<polygon fill="none" stroke="#404040" points="490.51,-825.61 485.92,-820.05 489.28,-813.67 493.87,-819.23 490.51,-825.61"/>
<text text-anchor="middle" x="492" y="-1148.5" font-family="Helvetica,sans-Serif" font-size="10.00"> #handle_</text>
</g>
<!-- Node10 -->
<g id="node10" class="node">
<title>Node10</title>
<g id="a_node10"><a xlink:title=" ">
<polygon fill="white" stroke="#bfbfbf" points="348.5,-265.5 348.5,-322.5 395.5,-322.5 395.5,-265.5 348.5,-265.5"/>
<text text-anchor="middle" x="372" y="-310.5" font-family="Helvetica,sans-Serif" font-size="10.00">colour</text>
<polyline fill="none" stroke="#bfbfbf" points="348.5,-303.5 395.5,-303.5 "/>
<text text-anchor="middle" x="372" y="-291.5" font-family="Helvetica,sans-Serif" font-size="10.00"> </text>
<polyline fill="none" stroke="#bfbfbf" points="348.5,-284.5 395.5,-284.5 "/>
<text text-anchor="middle" x="372" y="-272.5" font-family="Helvetica,sans-Serif" font-size="10.00"> </text>
</a>
</g>
</g>
<!-- Node10&#45;&gt;Node5 -->
<g id="edge10" class="edge">
<title>Node10&#45;&gt;Node5</title>
<path fill="none" stroke="#404040" d="M372,-265.38C372,-241.6 372,-206.98 372,-180.22"/>
<polygon fill="none" stroke="#404040" points="372,-180.17 368,-174.17 372,-168.17 376,-174.17 372,-180.17"/>
<text text-anchor="middle" x="395.5" y="-211.5" font-family="Helvetica,sans-Serif" font-size="10.00"> +colour_</text>
</g>
<!-- Node11 -->
<g id="node11" class="node">
<title>Node11</title>
<g id="a_node11"><a xlink:href="classmkr_1_1cubemap.html" target="_top" xlink:title=" ">
<polygon fill="white" stroke="black" points="415.5,-254.5 415.5,-333.5 504.5,-333.5 504.5,-254.5 415.5,-254.5"/>
<text text-anchor="middle" x="460" y="-321.5" font-family="Helvetica,sans-Serif" font-size="10.00">mkr::cubemap</text>
<polyline fill="none" stroke="black" points="415.5,-314.5 504.5,-314.5 "/>
<text text-anchor="middle" x="460" y="-302.5" font-family="Helvetica,sans-Serif" font-size="10.00"> </text>
<polyline fill="none" stroke="black" points="415.5,-295.5 504.5,-295.5 "/>
<text text-anchor="start" x="423.5" y="-283.5" font-family="Helvetica,sans-Serif" font-size="10.00">+ cubemap()</text>
<text text-anchor="start" x="423.5" y="-272.5" font-family="Helvetica,sans-Serif" font-size="10.00">+ cubemap()</text>
<text text-anchor="start" x="423.5" y="-261.5" font-family="Helvetica,sans-Serif" font-size="10.00">+ ~cubemap()</text>
</a>
</g>
</g>
<!-- Node11&#45;&gt;Node5 -->
<g id="edge11" class="edge">
<title>Node11&#45;&gt;Node5</title>
<path fill="none" stroke="#404040" d="M450.09,-254.27C444.04,-234.68 435.11,-211.07 423,-192 419.71,-186.82 415.83,-181.75 411.69,-176.93"/>
<polygon fill="none" stroke="#404040" points="411.62,-176.86 404.62,-175.13 403.52,-168.01 410.52,-169.73 411.62,-176.86"/>
<text text-anchor="middle" x="469" y="-211.5" font-family="Helvetica,sans-Serif" font-size="10.00"> +texture_</text>
</g>
<!-- Node12&#45;&gt;Node11 -->
<g id="edge12" class="edge">
<title>Node12&#45;&gt;Node11</title>
<path fill="none" stroke="midnightblue" d="M476.6,-668.98C472.29,-571.87 465.02,-408.09 461.72,-333.76"/>
<polygon fill="none" stroke="midnightblue" points="473.11,-669.19 477.05,-679.03 480.1,-668.88 473.11,-669.19"/>
</g>
<!-- Node13 -->
<g id="node13" class="node">
<title>Node13</title>
<g id="a_node13"><a xlink:title=" ">
<polygon fill="white" stroke="#bfbfbf" points="527,-1180.5 527,-1237.5 583,-1237.5 583,-1180.5 527,-1180.5"/>
<text text-anchor="middle" x="555" y="-1225.5" font-family="Helvetica,sans-Serif" font-size="10.00">uint32_t</text>
<polyline fill="none" stroke="#bfbfbf" points="527,-1218.5 583,-1218.5 "/>
<text text-anchor="middle" x="555" y="-1206.5" font-family="Helvetica,sans-Serif" font-size="10.00"> </text>
<polyline fill="none" stroke="#bfbfbf" points="527,-1199.5 583,-1199.5 "/>
<text text-anchor="middle" x="555" y="-1187.5" font-family="Helvetica,sans-Serif" font-size="10.00"> </text>
</a>
</g>
</g>
<!-- Node13&#45;&gt;Node12 -->
<g id="edge13" class="edge">
<title>Node13&#45;&gt;Node12</title>
<path fill="none" stroke="#404040" d="M550.48,-1180.23C539.25,-1111.3 509.79,-930.41 492.72,-825.61"/>
<polygon fill="none" stroke="#404040" points="492.68,-825.38 487.77,-820.1 490.76,-813.54 495.67,-818.82 492.68,-825.38"/>
<text text-anchor="middle" x="571" y="-1154" font-family="Helvetica,sans-Serif" font-size="10.00"> #height_</text>
<text text-anchor="middle" x="571" y="-1143" font-family="Helvetica,sans-Serif" font-size="10.00">#width_</text>
</g>
<!-- Node14 -->
<g id="node14" class="node">
<title>Node14</title>
<g id="a_node14"><a xlink:title=" ">
<polygon fill="white" stroke="#bfbfbf" points="429,-111 429,-168 479,-168 479,-111 429,-111"/>
<text text-anchor="middle" x="454" y="-156" font-family="Helvetica,sans-Serif" font-size="10.00">uint8_t</text>
<polyline fill="none" stroke="#bfbfbf" points="429,-149 479,-149 "/>
<text text-anchor="middle" x="454" y="-137" font-family="Helvetica,sans-Serif" font-size="10.00"> </text>
<polyline fill="none" stroke="#bfbfbf" points="429,-130 479,-130 "/>
<text text-anchor="middle" x="454" y="-118" font-family="Helvetica,sans-Serif" font-size="10.00"> </text>
</a>
</g>
</g>
<!-- Node14&#45;&gt;Node1 -->
<g id="edge16" class="edge">
<title>Node14&#45;&gt;Node1</title>
<path fill="none" stroke="#404040" d="M435.27,-111C425.87,-98.89 413.6,-85.33 400,-76 377,-60.21 347.96,-49.19 323.36,-41.91"/>
<polygon fill="none" stroke="#404040" points="323.23,-41.88 316.38,-44.11 311.68,-38.63 318.54,-36.4 323.23,-41.88"/>
<text text-anchor="middle" x="434.5" y="-79" font-family="Helvetica,sans-Serif" font-size="10.00"> +depth_</text>
</g>
</g>
</svg>
        <g id="navigator" transform="translate(0 0)" fill="#404254">
                <rect fill="#f2f5e9" fill-opacity="0.5" stroke="#606060" stroke-width=".5" x="0" y="0" width="60" height="60"/>
                <use id="zoomplus" xlink:href="#zoomPlus" x="17" y="9" onmousedown="handleZoom(evt,'in')"/>
                <use id="zoomminus" xlink:href="#zoomMin" x="42" y="9" onmousedown="handleZoom(evt,'out')"/>
                <use id="reset" xlink:href="#resetDef" x="30" y="36" onmousedown="handleReset()"/>
                <g id="arrowUp" xlink:href="#dirArrow" transform="translate(30 24)" onmousedown="handlePan(0,-1)">
                  <use xlink:href="#rim" fill="#404040">
                        <set attributeName="fill" to="#808080" begin="arrowUp.mouseover" end="arrowUp.mouseout"/>
                  </use>
                  <path fill="none" stroke="white" stroke-width="1.5" d="M0,-3.0v7 M-2.5,-0.5L0,-3.0L2.5,-0.5"/>
                </g>
                <g id="arrowRight" xlink:href="#dirArrow" transform="rotate(90) translate(36 -43)" onmousedown="handlePan(1,0)">
                  <use xlink:href="#rim" fill="#404040">
                        <set attributeName="fill" to="#808080" begin="arrowRight.mouseover" end="arrowRight.mouseout"/>
                  </use>
                  <path fill="none" stroke="white" stroke-width="1.5" d="M0,-3.0v7 M-2.5,-0.5L0,-3.0L2.5,-0.5"/>
                </g>
                <g id="arrowDown" xlink:href="#dirArrow" transform="rotate(180) translate(-30 -48)" onmousedown="handlePan(0,1)">
                  <use xlink:href="#rim" fill="#404040">
                        <set attributeName="fill" to="#808080" begin="arrowDown.mouseover" end="arrowDown.mouseout"/>
                  </use>
                  <path fill="none" stroke="white" stroke-width="1.5" d="M0,-3.0v7 M-2.5,-0.5L0,-3.0L2.5,-0.5"/>
                </g>
                <g id="arrowLeft" xlink:href="#dirArrow" transform="rotate(270) translate(-36 17)" onmousedown="handlePan(-1,0)">
                  <use xlink:href="#rim" fill="#404040">
                        <set attributeName="fill" to="#808080" begin="arrowLeft.mouseover" end="arrowLeft.mouseout"/>
                  </use>
                  <path fill="none" stroke="white" stroke-width="1.5" d="M0,-3.0v7 M-2.5,-0.5L0,-3.0L2.5,-0.5"/>
                </g>
        </g>
        <svg viewBox="0 0 15 15" width="100%" height="30px" preserveAspectRatio="xMaxYMin meet">
         <g id="arrow_out" transform="scale(0.3 0.3)">
          <a xlink:href="structmkr_1_1camera__coll__graph_org.svg" target="_base">
           <rect id="button" ry="5" rx="5" y="6" x="6" height="38" width="38"
                fill="#f2f5e9" fill-opacity="0.5" stroke="#606060" stroke-width="1.0"/>
           <path id="arrow"
             d="M 11.500037,31.436501 C 11.940474,20.09759 22.043105,11.32322 32.158766,21.979434 L 37.068811,17.246167 C 37.068811,17.246167 37.088388,32 37.088388,32 L 22.160133,31.978069 C 22.160133,31.978069 26.997745,27.140456 26.997745,27.140456 C 18.528582,18.264221 13.291696,25.230495 11.500037,31.436501 z"
             style="fill:#404040;"/>
          </a>
         </g>
        </svg>
</svg>
