<?xml version="1.0" encoding="UTF-8" standalone="no"?>
<!DOCTYPE svg PUBLIC "-//W3C//DTD SVG 1.1//EN"
 "http://www.w3.org/Graphics/SVG/1.1/DTD/svg11.dtd">
<!-- Generated by graphviz version 2.43.0 (0)
 -->
<!-- Title: mkr::vbo_element Pages: 1 -->
<svg width="497pt" height="171pt"
 viewBox="0.00 0.00 496.50 171.00" xmlns="http://www.w3.org/2000/svg" xmlns:xlink="http://www.w3.org/1999/xlink">
<g id="graph0" class="graph" transform="scale(1 1) rotate(0) translate(4 167)">
<title>mkr::vbo_element</title>
<polygon fill="white" stroke="transparent" points="-4,4 -4,-167 492.5,-167 492.5,4 -4,4"/>
<!-- Node1 -->
<g id="node1" class="node">
<title>Node1</title>
<g id="a_node1"><a xlink:title=" ">
<polygon fill="#bfbfbf" stroke="black" points="160,-0.5 160,-57.5 266,-57.5 266,-0.5 160,-0.5"/>
<text text-anchor="middle" x="213" y="-45.5" font-family="Helvetica,sans-Serif" font-size="10.00">mkr::vbo_element</text>
<polyline fill="none" stroke="black" points="160,-38.5 266,-38.5 "/>
<text text-anchor="middle" x="213" y="-26.5" font-family="Helvetica,sans-Serif" font-size="10.00"> </text>
<polyline fill="none" stroke="black" points="160,-19.5 266,-19.5 "/>
<text text-anchor="middle" x="213" y="-7.5" font-family="Helvetica,sans-Serif" font-size="10.00"> </text>
</a>
</g>
</g>
<!-- Node2 -->
<g id="node2" class="node">
<title>Node2</title>
<g id="a_node2"><a xlink:title=" ">
<polygon fill="white" stroke="#bfbfbf" points="0,-105.5 0,-162.5 42,-162.5 42,-105.5 0,-105.5"/>
<text text-anchor="middle" x="21" y="-150.5" font-family="Helvetica,sans-Serif" font-size="10.00">GLint</text>
<polyline fill="none" stroke="#bfbfbf" points="0,-143.5 42,-143.5 "/>
<text text-anchor="middle" x="21" y="-131.5" font-family="Helvetica,sans-Serif" font-size="10.00"> </text>
<polyline fill="none" stroke="#bfbfbf" points="0,-124.5 42,-124.5 "/>
<text text-anchor="middle" x="21" y="-112.5" font-family="Helvetica,sans-Serif" font-size="10.00"> </text>
</a>
</g>
</g>
<!-- Node2&#45;&gt;Node1 -->
<g id="edge1" class="edge">
<title>Node2&#45;&gt;Node1</title>
<path fill="none" stroke="#404040" d="M42.04,-112.09C44.95,-109.58 47.98,-107.15 51,-105 80.68,-83.9 117.24,-66.37 148.11,-53.58"/>
<polygon fill="none" stroke="#404040" points="148.51,-53.41 152.57,-47.45 159.64,-48.91 155.58,-54.87 148.51,-53.41"/>
<text text-anchor="middle" x="120" y="-79" font-family="Helvetica,sans-Serif" font-size="10.00"> +count_</text>
</g>
<!-- Node3 -->
<g id="node3" class="node">
<title>Node3</title>
<g id="a_node3"><a xlink:title=" ">
<polygon fill="white" stroke="#bfbfbf" points="60,-105.5 60,-162.5 146,-162.5 146,-105.5 60,-105.5"/>
<text text-anchor="middle" x="103" y="-150.5" font-family="Helvetica,sans-Serif" font-size="10.00">const GLenum</text>
<polyline fill="none" stroke="#bfbfbf" points="60,-143.5 146,-143.5 "/>
<text text-anchor="middle" x="103" y="-131.5" font-family="Helvetica,sans-Serif" font-size="10.00"> </text>
<polyline fill="none" stroke="#bfbfbf" points="60,-124.5 146,-124.5 "/>
<text text-anchor="middle" x="103" y="-112.5" font-family="Helvetica,sans-Serif" font-size="10.00"> </text>
</a>
</g>
</g>
<!-- Node3&#45;&gt;Node1 -->
<g id="edge2" class="edge">
<title>Node3&#45;&gt;Node1</title>
<path fill="none" stroke="#404040" d="M132.48,-105.4C145.42,-93.28 160.8,-78.88 174.62,-65.94"/>
<polygon fill="none" stroke="#404040" points="174.68,-65.88 176.33,-58.86 183.44,-57.68 181.79,-64.7 174.68,-65.88"/>
<text text-anchor="middle" x="180.5" y="-79" font-family="Helvetica,sans-Serif" font-size="10.00"> +type_</text>
</g>
<!-- Node4 -->
<g id="node4" class="node">
<title>Node4</title>
<g id="a_node4"><a xlink:title=" ">
<polygon fill="white" stroke="#bfbfbf" points="164,-105.5 164,-162.5 262,-162.5 262,-105.5 164,-105.5"/>
<text text-anchor="middle" x="213" y="-150.5" font-family="Helvetica,sans-Serif" font-size="10.00">const GLboolean</text>
<polyline fill="none" stroke="#bfbfbf" points="164,-143.5 262,-143.5 "/>
<text text-anchor="middle" x="213" y="-131.5" font-family="Helvetica,sans-Serif" font-size="10.00"> </text>
<polyline fill="none" stroke="#bfbfbf" points="164,-124.5 262,-124.5 "/>
<text text-anchor="middle" x="213" y="-112.5" font-family="Helvetica,sans-Serif" font-size="10.00"> </text>
</a>
</g>
</g>
<!-- Node4&#45;&gt;Node1 -->
<g id="edge3" class="edge">
<title>Node4&#45;&gt;Node1</title>
<path fill="none" stroke="#404040" d="M213,-105.4C213,-94.55 213,-81.87 213,-70.05"/>
<polygon fill="none" stroke="#404040" points="213,-69.68 209,-63.68 213,-57.68 217,-63.68 213,-69.68"/>
<text text-anchor="middle" x="249" y="-79" font-family="Helvetica,sans-Serif" font-size="10.00"> +normalised_</text>
</g>
<!-- Node5 -->
<g id="node5" class="node">
<title>Node5</title>
<g id="a_node5"><a xlink:title=" ">
<polygon fill="white" stroke="#bfbfbf" points="280.5,-105.5 280.5,-162.5 361.5,-162.5 361.5,-105.5 280.5,-105.5"/>
<text text-anchor="middle" x="321" y="-150.5" font-family="Helvetica,sans-Serif" font-size="10.00">const GLsizei</text>
<polyline fill="none" stroke="#bfbfbf" points="280.5,-143.5 361.5,-143.5 "/>
<text text-anchor="middle" x="321" y="-131.5" font-family="Helvetica,sans-Serif" font-size="10.00"> </text>
<polyline fill="none" stroke="#bfbfbf" points="280.5,-124.5 361.5,-124.5 "/>
<text text-anchor="middle" x="321" y="-112.5" font-family="Helvetica,sans-Serif" font-size="10.00"> </text>
</a>
</g>
</g>
<!-- Node5&#45;&gt;Node1 -->
<g id="edge4" class="edge">
<title>Node5&#45;&gt;Node1</title>
<path fill="none" stroke="#404040" d="M309.08,-105.26C303.9,-95.27 297.13,-84.4 289,-76 285.05,-71.92 280.67,-68.06 276.05,-64.45"/>
<polygon fill="none" stroke="#404040" points="276.03,-64.43 268.83,-64.14 266.33,-57.37 273.53,-57.67 276.03,-64.43"/>
<text text-anchor="middle" x="320" y="-79" font-family="Helvetica,sans-Serif" font-size="10.00"> +bytes_</text>
</g>
<!-- Node6 -->
<g id="node6" class="node">
<title>Node6</title>
<g id="a_node6"><a xlink:title=" ">
<polygon fill="white" stroke="#bfbfbf" points="379.5,-105.5 379.5,-162.5 488.5,-162.5 488.5,-105.5 379.5,-105.5"/>
<text text-anchor="middle" x="434" y="-150.5" font-family="Helvetica,sans-Serif" font-size="10.00">const vertex_attrib</text>
<polyline fill="none" stroke="#bfbfbf" points="379.5,-143.5 488.5,-143.5 "/>
<text text-anchor="middle" x="434" y="-131.5" font-family="Helvetica,sans-Serif" font-size="10.00"> </text>
<polyline fill="none" stroke="#bfbfbf" points="379.5,-124.5 488.5,-124.5 "/>
<text text-anchor="middle" x="434" y="-112.5" font-family="Helvetica,sans-Serif" font-size="10.00"> </text>
</a>
</g>
</g>
<!-- Node6&#45;&gt;Node1 -->
<g id="edge5" class="edge">
<title>Node6&#45;&gt;Node1</title>
<path fill="none" stroke="#404040" d="M395.76,-105.36C380.73,-95.26 363.01,-84.3 346,-76 324.5,-65.51 299.99,-56.32 277.92,-48.96"/>
<polygon fill="none" stroke="#404040" points="277.7,-48.89 270.76,-50.84 266.29,-45.18 273.24,-43.23 277.7,-48.89"/>
<text text-anchor="middle" x="387.5" y="-79" font-family="Helvetica,sans-Serif" font-size="10.00"> +attrib_</text>
</g>
</g>
</svg>
