<?xml version="1.0" encoding="UTF-8" standalone="no"?>
<!DOCTYPE svg PUBLIC "-//W3C//DTD SVG 1.1//EN"
 "http://www.w3.org/Graphics/SVG/1.1/DTD/svg11.dtd">
<!-- Generated by graphviz version 2.43.0 (0)
 -->
<!-- Title: mkr::camera_data Pages: 1 -->
<!--zoomable 458 -->
<svg id="main" version="1.1" xmlns="http://www.w3.org/2000/svg" xmlns:xlink="http://www.w3.org/1999/xlink" xml:space="preserve" onload="init(evt)">
<style type="text/css"><![CDATA[
.edge:hover path { stroke: red; }
.edge:hover polygon { stroke: red; fill: red; }
]]></style>
<script type="text/javascript"><![CDATA[
var edges = document.getElementsByTagName('g');
if (edges && edges.length) {
  for (var i=0;i<edges.length;i++) {
    if (edges[i].id.substr(0,4)=='edge') {
      edges[i].setAttribute('class','edge');
    }
  }
}
]]></script>
        <defs>
                <circle id="rim" cx="0" cy="0" r="7"/>
                <circle id="rim2" cx="0" cy="0" r="3.5"/>
                <g id="zoomPlus">
                        <use xlink:href="#rim" fill="#404040">
                                <set attributeName="fill" to="#808080" begin="zoomplus.mouseover" end="zoomplus.mouseout"/>
                        </use>
                        <path d="M-4,0h8M0,-4v8" fill="none" stroke="white" stroke-width="1.5" pointer-events="none"/>
                </g>
                <g id="zoomMin">
                        <use xlink:href="#rim" fill="#404040">
                                <set attributeName="fill" to="#808080" begin="zoomminus.mouseover" end="zoomminus.mouseout"/>
                        </use>
                        <path d="M-4,0h8" fill="none" stroke="white" stroke-width="1.5" pointer-events="none"/>
                </g>
                <g id="dirArrow">
                        <path fill="none" stroke="white" stroke-width="1.5" d="M0,-3.0v7 M-2.5,-0.5L0,-3.0L2.5,-0.5"/>
                </g>
               <g id="resetDef">
                       <use xlink:href="#rim2" fill="#404040">
                               <set attributeName="fill" to="#808080" begin="reset.mouseover" end="reset.mouseout"/>
                       </use>
               </g>
        </defs>

<script type="text/javascript">
var viewWidth = 805;
var viewHeight = 458;
var sectionId = 'dynsection-0';
</script>
<script xlink:href="svgpan.js"/>
<svg id="graph" class="graph">
<g id="viewport">
<title>mkr::camera_data</title>
<polygon fill="white" stroke="transparent" points="-4,4 -4,-454 800.5,-454 800.5,4 -4,4"/>
<!-- Node1 -->
<g id="node1" class="node">
<title>Node1</title>
<g id="a_node1"><a xlink:title=" ">
<polygon fill="#bfbfbf" stroke="black" points="217.5,-0.5 217.5,-57.5 323.5,-57.5 323.5,-0.5 217.5,-0.5"/>
<text text-anchor="middle" x="270.5" y="-45.5" font-family="Helvetica,sans-Serif" font-size="10.00">mkr::camera_data</text>
<polyline fill="none" stroke="black" points="217.5,-38.5 323.5,-38.5 "/>
<text text-anchor="middle" x="270.5" y="-26.5" font-family="Helvetica,sans-Serif" font-size="10.00"> </text>
<polyline fill="none" stroke="black" points="217.5,-19.5 323.5,-19.5 "/>
<text text-anchor="start" x="225.5" y="-7.5" font-family="Helvetica,sans-Serif" font-size="10.00">+ operator&lt;()</text>
</a>
</g>
</g>
<!-- Node2 -->
<g id="node2" class="node">
<title>Node2</title>
<g id="a_node2"><a xlink:href="structmkr_1_1local__to__world.html" target="_top" xlink:title=" ">
<polygon fill="white" stroke="black" points="92,-105.5 92,-162.5 205,-162.5 205,-105.5 92,-105.5"/>
<text text-anchor="middle" x="148.5" y="-150.5" font-family="Helvetica,sans-Serif" font-size="10.00">mkr::local_to_world</text>
<polyline fill="none" stroke="black" points="92,-143.5 205,-143.5 "/>
<text text-anchor="middle" x="148.5" y="-131.5" font-family="Helvetica,sans-Serif" font-size="10.00"> </text>
<polyline fill="none" stroke="black" points="92,-124.5 205,-124.5 "/>
<text text-anchor="middle" x="148.5" y="-112.5" font-family="Helvetica,sans-Serif" font-size="10.00"> </text>
</a>
</g>
</g>
<!-- Node2&#45;&gt;Node1 -->
<g id="edge1" class="edge">
<title>Node2&#45;&gt;Node1</title>
<path fill="none" stroke="#404040" d="M181.19,-105.4C195.69,-93.16 212.93,-78.61 228.37,-65.57"/>
<polygon fill="none" stroke="#404040" points="228.55,-65.42 230.55,-58.49 237.72,-57.68 235.71,-64.61 228.55,-65.42"/>
<text text-anchor="middle" x="246" y="-79" font-family="Helvetica,sans-Serif" font-size="10.00"> +transform_</text>
</g>
<!-- Node3 -->
<g id="node3" class="node">
<title>Node3</title>
<g id="a_node3"><a xlink:title=" ">
<polygon fill="white" stroke="#bfbfbf" points="0,-249 0,-306 53,-306 53,-249 0,-249"/>
<text text-anchor="middle" x="26.5" y="-294" font-family="Helvetica,sans-Serif" font-size="10.00">vector3</text>
<polyline fill="none" stroke="#bfbfbf" points="0,-287 53,-287 "/>
<text text-anchor="middle" x="26.5" y="-275" font-family="Helvetica,sans-Serif" font-size="10.00"> </text>
<polyline fill="none" stroke="#bfbfbf" points="0,-268 53,-268 "/>
<text text-anchor="middle" x="26.5" y="-256" font-family="Helvetica,sans-Serif" font-size="10.00"> </text>
</a>
</g>
</g>
<!-- Node3&#45;&gt;Node2 -->
<g id="edge2" class="edge">
<title>Node3&#45;&gt;Node2</title>
<path fill="none" stroke="#404040" d="M25.86,-248.58C26.8,-227.86 31.22,-200.02 46.5,-181 55.53,-169.76 67.9,-161.17 80.91,-154.64"/>
<polygon fill="none" stroke="#404040" points="81.01,-154.6 84.81,-148.47 91.93,-149.63 88.12,-155.75 81.01,-154.6"/>
<text text-anchor="middle" x="74" y="-217" font-family="Helvetica,sans-Serif" font-size="10.00"> +forward_</text>
<text text-anchor="middle" x="74" y="-206" font-family="Helvetica,sans-Serif" font-size="10.00">+left_</text>
<text text-anchor="middle" x="74" y="-195" font-family="Helvetica,sans-Serif" font-size="10.00">+position_</text>
<text text-anchor="middle" x="74" y="-184" font-family="Helvetica,sans-Serif" font-size="10.00">+up_</text>
</g>
<!-- Node4 -->
<g id="node4" class="node">
<title>Node4</title>
<g id="a_node4"><a xlink:title=" ">
<polygon fill="white" stroke="#bfbfbf" points="71,-249 71,-306 140,-306 140,-249 71,-249"/>
<text text-anchor="middle" x="105.5" y="-294" font-family="Helvetica,sans-Serif" font-size="10.00">quaternion</text>
<polyline fill="none" stroke="#bfbfbf" points="71,-287 140,-287 "/>
<text text-anchor="middle" x="105.5" y="-275" font-family="Helvetica,sans-Serif" font-size="10.00"> </text>
<polyline fill="none" stroke="#bfbfbf" points="71,-268 140,-268 "/>
<text text-anchor="middle" x="105.5" y="-256" font-family="Helvetica,sans-Serif" font-size="10.00"> </text>
</a>
</g>
</g>
<!-- Node4&#45;&gt;Node2 -->
<g id="edge3" class="edge">
<title>Node4&#45;&gt;Node2</title>
<path fill="none" stroke="#404040" d="M104.24,-248.86C104.26,-229.3 106.17,-202.78 114.5,-181 115.53,-178.3 116.77,-175.62 118.15,-172.99"/>
<polygon fill="none" stroke="#404040" points="118.27,-172.79 117.96,-165.59 124.5,-162.53 124.8,-169.74 118.27,-172.79"/>
<text text-anchor="middle" x="142" y="-200.5" font-family="Helvetica,sans-Serif" font-size="10.00"> +rotation_</text>
</g>
<!-- Node5 -->
<g id="node5" class="node">
<title>Node5</title>
<g id="a_node5"><a xlink:title=" ">
<polygon fill="white" stroke="#bfbfbf" points="158,-249 158,-306 225,-306 225,-249 158,-249"/>
<text text-anchor="middle" x="191.5" y="-294" font-family="Helvetica,sans-Serif" font-size="10.00">matrix4x4</text>
<polyline fill="none" stroke="#bfbfbf" points="158,-287 225,-287 "/>
<text text-anchor="middle" x="191.5" y="-275" font-family="Helvetica,sans-Serif" font-size="10.00"> </text>
<polyline fill="none" stroke="#bfbfbf" points="158,-268 225,-268 "/>
<text text-anchor="middle" x="191.5" y="-256" font-family="Helvetica,sans-Serif" font-size="10.00"> </text>
</a>
</g>
</g>
<!-- Node5&#45;&gt;Node2 -->
<g id="edge4" class="edge">
<title>Node5&#45;&gt;Node2</title>
<path fill="none" stroke="#404040" d="M186.68,-248.92C182.94,-229.62 177.1,-203.39 169.5,-181 168.74,-178.76 167.9,-176.47 167.02,-174.18"/>
<polygon fill="none" stroke="#404040" points="166.91,-173.93 160.92,-169.93 162.3,-162.85 168.3,-166.86 166.91,-173.93"/>
<text text-anchor="middle" x="215" y="-200.5" font-family="Helvetica,sans-Serif" font-size="10.00"> +transform_</text>
</g>
<!-- Node6 -->
<g id="node6" class="node">
<title>Node6</title>
<g id="a_node6"><a xlink:href="structmkr_1_1camera.html" target="_top" xlink:title=" ">
<polygon fill="white" stroke="black" points="452,-105.5 452,-162.5 531,-162.5 531,-105.5 452,-105.5"/>
<text text-anchor="middle" x="491.5" y="-150.5" font-family="Helvetica,sans-Serif" font-size="10.00">mkr::camera</text>
<polyline fill="none" stroke="black" points="452,-143.5 531,-143.5 "/>
<text text-anchor="middle" x="491.5" y="-131.5" font-family="Helvetica,sans-Serif" font-size="10.00"> </text>
<polyline fill="none" stroke="black" points="452,-124.5 531,-124.5 "/>
<text text-anchor="middle" x="491.5" y="-112.5" font-family="Helvetica,sans-Serif" font-size="10.00"> </text>
</a>
</g>
</g>
<!-- Node6&#45;&gt;Node1 -->
<g id="edge5" class="edge">
<title>Node6&#45;&gt;Node1</title>
<path fill="none" stroke="#404040" d="M451.99,-114.59C419.45,-99.42 372.65,-77.61 334.73,-59.94"/>
<polygon fill="none" stroke="#404040" points="334.66,-59.9 327.54,-61 323.79,-54.83 330.91,-53.74 334.66,-59.9"/>
<text text-anchor="middle" x="415.5" y="-79" font-family="Helvetica,sans-Serif" font-size="10.00"> +camera_</text>
</g>
<!-- Node7 -->
<g id="node7" class="node">
<title>Node7</title>
<g id="a_node7"><a xlink:title=" ">
<polygon fill="white" stroke="#bfbfbf" points="243.5,-249 243.5,-306 341.5,-306 341.5,-249 243.5,-249"/>
<text text-anchor="middle" x="292.5" y="-294" font-family="Helvetica,sans-Serif" font-size="10.00">projection_mode</text>
<polyline fill="none" stroke="#bfbfbf" points="243.5,-287 341.5,-287 "/>
<text text-anchor="middle" x="292.5" y="-275" font-family="Helvetica,sans-Serif" font-size="10.00"> </text>
<polyline fill="none" stroke="#bfbfbf" points="243.5,-268 341.5,-268 "/>
<text text-anchor="middle" x="292.5" y="-256" font-family="Helvetica,sans-Serif" font-size="10.00"> </text>
</a>
</g>
</g>
<!-- Node7&#45;&gt;Node6 -->
<g id="edge6" class="edge">
<title>Node7&#45;&gt;Node6</title>
<path fill="none" stroke="#404040" d="M322.47,-248.88C344.97,-228.83 377.02,-201.72 407.5,-181 418.02,-173.85 429.76,-166.86 441.05,-160.58"/>
<polygon fill="none" stroke="#404040" points="441.14,-160.53 444.5,-154.14 451.68,-154.79 448.33,-161.17 441.14,-160.53"/>
<text text-anchor="middle" x="430" y="-200.5" font-family="Helvetica,sans-Serif" font-size="10.00"> +mode_</text>
</g>
<!-- Node8 -->
<g id="node8" class="node">
<title>Node8</title>
<g id="a_node8"><a xlink:title=" ">
<polygon fill="white" stroke="#bfbfbf" points="360,-249 360,-306 511,-306 511,-249 360,-249"/>
<text text-anchor="middle" x="435.5" y="-294" font-family="Helvetica,sans-Serif" font-size="10.00">shared_ptr&lt; mkr::skybox &gt;</text>
<polyline fill="none" stroke="#bfbfbf" points="360,-287 511,-287 "/>
<text text-anchor="middle" x="435.5" y="-275" font-family="Helvetica,sans-Serif" font-size="10.00"> </text>
<polyline fill="none" stroke="#bfbfbf" points="360,-268 511,-268 "/>
<text text-anchor="middle" x="435.5" y="-256" font-family="Helvetica,sans-Serif" font-size="10.00"> </text>
</a>
</g>
</g>
<!-- Node8&#45;&gt;Node6 -->
<g id="edge7" class="edge">
<title>Node8&#45;&gt;Node6</title>
<path fill="none" stroke="#404040" d="M446.43,-248.88C454.87,-227.55 466.66,-197.77 476.06,-174.01"/>
<polygon fill="none" stroke="#404040" points="476.18,-173.71 474.67,-166.66 480.6,-162.55 482.11,-169.6 476.18,-173.71"/>
<text text-anchor="middle" x="497.5" y="-200.5" font-family="Helvetica,sans-Serif" font-size="10.00"> +skybox_</text>
</g>
<!-- Node9 -->
<g id="node9" class="node">
<title>Node9</title>
<g id="a_node9"><a xlink:title=" ">
<polygon fill="white" stroke="#bfbfbf" points="544.5,-392.5 544.5,-449.5 582.5,-449.5 582.5,-392.5 544.5,-392.5"/>
<text text-anchor="middle" x="563.5" y="-437.5" font-family="Helvetica,sans-Serif" font-size="10.00">float</text>
<polyline fill="none" stroke="#bfbfbf" points="544.5,-430.5 582.5,-430.5 "/>
<text text-anchor="middle" x="563.5" y="-418.5" font-family="Helvetica,sans-Serif" font-size="10.00"> </text>
<polyline fill="none" stroke="#bfbfbf" points="544.5,-411.5 582.5,-411.5 "/>
<text text-anchor="middle" x="563.5" y="-399.5" font-family="Helvetica,sans-Serif" font-size="10.00"> </text>
</a>
</g>
</g>
<!-- Node9&#45;&gt;Node6 -->
<g id="edge8" class="edge">
<title>Node9&#45;&gt;Node6</title>
<path fill="none" stroke="#404040" d="M561.1,-392.16C556.1,-337.58 543.69,-218.57 527.5,-181 526.35,-178.33 525,-175.68 523.52,-173.08"/>
<polygon fill="none" stroke="#404040" points="523.35,-172.81 516.73,-169.95 516.82,-162.74 523.44,-165.6 523.35,-172.81"/>
<text text-anchor="middle" x="591" y="-297" font-family="Helvetica,sans-Serif" font-size="10.00"> +aspect_ratio_</text>
<text text-anchor="middle" x="591" y="-286" font-family="Helvetica,sans-Serif" font-size="10.00">+far_plane_</text>
<text text-anchor="middle" x="591" y="-275" font-family="Helvetica,sans-Serif" font-size="10.00">+fov_</text>
<text text-anchor="middle" x="591" y="-264" font-family="Helvetica,sans-Serif" font-size="10.00">+near_plane_</text>
<text text-anchor="middle" x="591" y="-253" font-family="Helvetica,sans-Serif" font-size="10.00">+ortho_size_</text>
</g>
<!-- Node10 -->
<g id="node10" class="node">
<title>Node10</title>
<g id="a_node10"><a xlink:href="structmkr_1_1viewport.html" target="_top" xlink:title=" ">
<polygon fill="white" stroke="black" points="642.5,-243.5 642.5,-311.5 728.5,-311.5 728.5,-243.5 642.5,-243.5"/>
<text text-anchor="middle" x="685.5" y="-299.5" font-family="Helvetica,sans-Serif" font-size="10.00">mkr::viewport</text>
<polyline fill="none" stroke="black" points="642.5,-292.5 728.5,-292.5 "/>
<text text-anchor="middle" x="685.5" y="-280.5" font-family="Helvetica,sans-Serif" font-size="10.00"> </text>
<polyline fill="none" stroke="black" points="642.5,-273.5 728.5,-273.5 "/>
<text text-anchor="start" x="650.5" y="-261.5" font-family="Helvetica,sans-Serif" font-size="10.00">+ viewport()</text>
<text text-anchor="start" x="650.5" y="-250.5" font-family="Helvetica,sans-Serif" font-size="10.00">+ ~viewport()</text>
</a>
</g>
</g>
<!-- Node9&#45;&gt;Node10 -->
<g id="edge10" class="edge">
<title>Node9&#45;&gt;Node10</title>
<path fill="none" stroke="#404040" d="M582.56,-397.89C600.21,-377.42 626.94,-346.42 648.74,-321.14"/>
<polygon fill="none" stroke="#404040" points="648.98,-320.85 649.87,-313.7 656.82,-311.76 655.93,-318.92 648.98,-320.85"/>
<text text-anchor="middle" x="670.5" y="-366" font-family="Helvetica,sans-Serif" font-size="10.00"> +bottom_x_</text>
<text text-anchor="middle" x="670.5" y="-355" font-family="Helvetica,sans-Serif" font-size="10.00">+bottom_y_</text>
<text text-anchor="middle" x="670.5" y="-344" font-family="Helvetica,sans-Serif" font-size="10.00">+top_x_</text>
<text text-anchor="middle" x="670.5" y="-333" font-family="Helvetica,sans-Serif" font-size="10.00">+top_y_</text>
</g>
<!-- Node10&#45;&gt;Node6 -->
<g id="edge9" class="edge">
<title>Node10&#45;&gt;Node6</title>
<path fill="none" stroke="#404040" d="M644.19,-243.44C620.35,-224.68 589.61,-201.02 561.5,-181 554.97,-176.35 548.01,-171.57 541.11,-166.94"/>
<polygon fill="none" stroke="#404040" points="541.09,-166.92 533.88,-166.93 531.09,-160.28 538.3,-160.27 541.09,-166.92"/>
<text text-anchor="middle" x="649.5" y="-200.5" font-family="Helvetica,sans-Serif" font-size="10.00"> +viewport_</text>
</g>
<!-- Node11 -->
<g id="node11" class="node">
<title>Node11</title>
<g id="a_node11"><a xlink:title=" ">
<polygon fill="white" stroke="#bfbfbf" points="746.5,-249 746.5,-306 796.5,-306 796.5,-249 746.5,-249"/>
<text text-anchor="middle" x="771.5" y="-294" font-family="Helvetica,sans-Serif" font-size="10.00">uint8_t</text>
<polyline fill="none" stroke="#bfbfbf" points="746.5,-287 796.5,-287 "/>
<text text-anchor="middle" x="771.5" y="-275" font-family="Helvetica,sans-Serif" font-size="10.00"> </text>
<polyline fill="none" stroke="#bfbfbf" points="746.5,-268 796.5,-268 "/>
<text text-anchor="middle" x="771.5" y="-256" font-family="Helvetica,sans-Serif" font-size="10.00"> </text>
</a>
</g>
</g>
<!-- Node11&#45;&gt;Node6 -->
<g id="edge11" class="edge">
<title>Node11&#45;&gt;Node6</title>
<path fill="none" stroke="#404040" d="M753.09,-248.87C737.19,-227.17 712.28,-197.89 683.5,-181 640.23,-155.61 583.68,-144.22 543.18,-139.11"/>
<polygon fill="none" stroke="#404040" points="543.08,-139.1 536.66,-142.39 531.16,-137.72 537.58,-134.44 543.08,-139.1"/>
<text text-anchor="middle" x="756" y="-200.5" font-family="Helvetica,sans-Serif" font-size="10.00"> +depth_</text>
</g>
</g>
</svg>
        <g id="navigator" transform="translate(0 0)" fill="#404254">
                <rect fill="#f2f5e9" fill-opacity="0.5" stroke="#606060" stroke-width=".5" x="0" y="0" width="60" height="60"/>
                <use id="zoomplus" xlink:href="#zoomPlus" x="17" y="9" onmousedown="handleZoom(evt,'in')"/>
                <use id="zoomminus" xlink:href="#zoomMin" x="42" y="9" onmousedown="handleZoom(evt,'out')"/>
                <use id="reset" xlink:href="#resetDef" x="30" y="36" onmousedown="handleReset()"/>
                <g id="arrowUp" xlink:href="#dirArrow" transform="translate(30 24)" onmousedown="handlePan(0,-1)">
                  <use xlink:href="#rim" fill="#404040">
                        <set attributeName="fill" to="#808080" begin="arrowUp.mouseover" end="arrowUp.mouseout"/>
                  </use>
                  <path fill="none" stroke="white" stroke-width="1.5" d="M0,-3.0v7 M-2.5,-0.5L0,-3.0L2.5,-0.5"/>
                </g>
                <g id="arrowRight" xlink:href="#dirArrow" transform="rotate(90) translate(36 -43)" onmousedown="handlePan(1,0)">
                  <use xlink:href="#rim" fill="#404040">
                        <set attributeName="fill" to="#808080" begin="arrowRight.mouseover" end="arrowRight.mouseout"/>
                  </use>
                  <path fill="none" stroke="white" stroke-width="1.5" d="M0,-3.0v7 M-2.5,-0.5L0,-3.0L2.5,-0.5"/>
                </g>
                <g id="arrowDown" xlink:href="#dirArrow" transform="rotate(180) translate(-30 -48)" onmousedown="handlePan(0,1)">
                  <use xlink:href="#rim" fill="#404040">
                        <set attributeName="fill" to="#808080" begin="arrowDown.mouseover" end="arrowDown.mouseout"/>
                  </use>
                  <path fill="none" stroke="white" stroke-width="1.5" d="M0,-3.0v7 M-2.5,-0.5L0,-3.0L2.5,-0.5"/>
                </g>
                <g id="arrowLeft" xlink:href="#dirArrow" transform="rotate(270) translate(-36 17)" onmousedown="handlePan(-1,0)">
                  <use xlink:href="#rim" fill="#404040">
                        <set attributeName="fill" to="#808080" begin="arrowLeft.mouseover" end="arrowLeft.mouseout"/>
                  </use>
                  <path fill="none" stroke="white" stroke-width="1.5" d="M0,-3.0v7 M-2.5,-0.5L0,-3.0L2.5,-0.5"/>
                </g>
        </g>
        <svg viewBox="0 0 15 15" width="100%" height="30px" preserveAspectRatio="xMaxYMin meet">
         <g id="arrow_out" transform="scale(0.3 0.3)">
          <a xlink:href="structmkr_1_1camera__data__coll__graph_org.svg" target="_base">
           <rect id="button" ry="5" rx="5" y="6" x="6" height="38" width="38"
                fill="#f2f5e9" fill-opacity="0.5" stroke="#606060" stroke-width="1.0"/>
           <path id="arrow"
             d="M 11.500037,31.436501 C 11.940474,20.09759 22.043105,11.32322 32.158766,21.979434 L 37.068811,17.246167 C 37.068811,17.246167 37.088388,32 37.088388,32 L 22.160133,31.978069 C 22.160133,31.978069 26.997745,27.140456 26.997745,27.140456 C 18.528582,18.264221 13.291696,25.230495 11.500037,31.436501 z"
             style="fill:#404040;"/>
          </a>
         </g>
        </svg>
</svg>
