<?xml version="1.0" encoding="UTF-8" standalone="no"?>
<!DOCTYPE svg PUBLIC "-//W3C//DTD SVG 1.1//EN"
 "http://www.w3.org/Graphics/SVG/1.1/DTD/svg11.dtd">
<!-- Generated by graphviz version 2.43.0 (0)
 -->
<!-- Title: mkr::local_to_world Pages: 1 -->
<svg width="256pt" height="204pt"
 viewBox="0.00 0.00 255.50 204.00" xmlns="http://www.w3.org/2000/svg" xmlns:xlink="http://www.w3.org/1999/xlink">
<g id="graph0" class="graph" transform="scale(1 1) rotate(0) translate(4 200)">
<title>mkr::local_to_world</title>
<polygon fill="white" stroke="transparent" points="-4,4 -4,-200 251.5,-200 251.5,4 -4,4"/>
<!-- Node1 -->
<g id="node1" class="node">
<title>Node1</title>
<g id="a_node1"><a xlink:title=" ">
<polygon fill="#bfbfbf" stroke="black" points="49,-0.5 49,-57.5 162,-57.5 162,-0.5 49,-0.5"/>
<text text-anchor="middle" x="105.5" y="-45.5" font-family="Helvetica,sans-Serif" font-size="10.00">mkr::local_to_world</text>
<polyline fill="none" stroke="black" points="49,-38.5 162,-38.5 "/>
<text text-anchor="middle" x="105.5" y="-26.5" font-family="Helvetica,sans-Serif" font-size="10.00"> </text>
<polyline fill="none" stroke="black" points="49,-19.5 162,-19.5 "/>
<text text-anchor="middle" x="105.5" y="-7.5" font-family="Helvetica,sans-Serif" font-size="10.00"> </text>
</a>
</g>
</g>
<!-- Node2 -->
<g id="node2" class="node">
<title>Node2</title>
<g id="a_node2"><a xlink:title=" ">
<polygon fill="white" stroke="#bfbfbf" points="0,-138.5 0,-195.5 53,-195.5 53,-138.5 0,-138.5"/>
<text text-anchor="middle" x="26.5" y="-183.5" font-family="Helvetica,sans-Serif" font-size="10.00">vector3</text>
<polyline fill="none" stroke="#bfbfbf" points="0,-176.5 53,-176.5 "/>
<text text-anchor="middle" x="26.5" y="-164.5" font-family="Helvetica,sans-Serif" font-size="10.00"> </text>
<polyline fill="none" stroke="#bfbfbf" points="0,-157.5 53,-157.5 "/>
<text text-anchor="middle" x="26.5" y="-145.5" font-family="Helvetica,sans-Serif" font-size="10.00"> </text>
</a>
</g>
</g>
<!-- Node2&#45;&gt;Node1 -->
<g id="edge1" class="edge">
<title>Node2&#45;&gt;Node1</title>
<path fill="none" stroke="#404040" d="M27.81,-138.16C29.81,-119.37 34.7,-94.67 46.5,-76 48.62,-72.65 51.07,-69.45 53.74,-66.4"/>
<polygon fill="none" stroke="#404040" points="53.87,-66.27 55.26,-59.19 62.32,-57.75 60.94,-64.83 53.87,-66.27"/>
<text text-anchor="middle" x="74" y="-112" font-family="Helvetica,sans-Serif" font-size="10.00"> +forward_</text>
<text text-anchor="middle" x="74" y="-101" font-family="Helvetica,sans-Serif" font-size="10.00">+left_</text>
<text text-anchor="middle" x="74" y="-90" font-family="Helvetica,sans-Serif" font-size="10.00">+position_</text>
<text text-anchor="middle" x="74" y="-79" font-family="Helvetica,sans-Serif" font-size="10.00">+up_</text>
</g>
<!-- Node3 -->
<g id="node3" class="node">
<title>Node3</title>
<g id="a_node3"><a xlink:title=" ">
<polygon fill="white" stroke="#bfbfbf" points="71,-138.5 71,-195.5 140,-195.5 140,-138.5 71,-138.5"/>
<text text-anchor="middle" x="105.5" y="-183.5" font-family="Helvetica,sans-Serif" font-size="10.00">quaternion</text>
<polyline fill="none" stroke="#bfbfbf" points="71,-176.5 140,-176.5 "/>
<text text-anchor="middle" x="105.5" y="-164.5" font-family="Helvetica,sans-Serif" font-size="10.00"> </text>
<polyline fill="none" stroke="#bfbfbf" points="71,-157.5 140,-157.5 "/>
<text text-anchor="middle" x="105.5" y="-145.5" font-family="Helvetica,sans-Serif" font-size="10.00"> </text>
</a>
</g>
</g>
<!-- Node3&#45;&gt;Node1 -->
<g id="edge2" class="edge">
<title>Node3&#45;&gt;Node1</title>
<path fill="none" stroke="#404040" d="M105.5,-138.48C105.5,-118.79 105.5,-91.99 105.5,-69.95"/>
<polygon fill="none" stroke="#404040" points="105.5,-69.95 101.5,-63.95 105.5,-57.95 109.5,-63.95 105.5,-69.95"/>
<text text-anchor="middle" x="133" y="-95.5" font-family="Helvetica,sans-Serif" font-size="10.00"> +rotation_</text>
</g>
<!-- Node4 -->
<g id="node4" class="node">
<title>Node4</title>
<g id="a_node4"><a xlink:title=" ">
<polygon fill="white" stroke="#bfbfbf" points="158,-138.5 158,-195.5 225,-195.5 225,-138.5 158,-138.5"/>
<text text-anchor="middle" x="191.5" y="-183.5" font-family="Helvetica,sans-Serif" font-size="10.00">matrix4x4</text>
<polyline fill="none" stroke="#bfbfbf" points="158,-176.5 225,-176.5 "/>
<text text-anchor="middle" x="191.5" y="-164.5" font-family="Helvetica,sans-Serif" font-size="10.00"> </text>
<polyline fill="none" stroke="#bfbfbf" points="158,-157.5 225,-157.5 "/>
<text text-anchor="middle" x="191.5" y="-145.5" font-family="Helvetica,sans-Serif" font-size="10.00"> </text>
</a>
</g>
</g>
<!-- Node4&#45;&gt;Node1 -->
<g id="edge3" class="edge">
<title>Node4&#45;&gt;Node1</title>
<path fill="none" stroke="#404040" d="M187.68,-138.11C184.06,-119.28 177.21,-94.58 164.5,-76 162.16,-72.57 159.48,-69.28 156.58,-66.15"/>
<polygon fill="none" stroke="#404040" points="156.56,-66.13 149.47,-64.81 147.96,-57.76 155.05,-59.08 156.56,-66.13"/>
<text text-anchor="middle" x="215" y="-95.5" font-family="Helvetica,sans-Serif" font-size="10.00"> +transform_</text>
</g>
</g>
</svg>
