<?xml version="1.0" encoding="UTF-8" standalone="no"?>
<!DOCTYPE svg PUBLIC "-//W3C//DTD SVG 1.1//EN"
 "http://www.w3.org/Graphics/SVG/1.1/DTD/svg11.dtd">
<!-- Generated by graphviz version 2.43.0 (0)
 -->
<!-- Title: mkr::viewport Pages: 1 -->
<svg width="115pt" height="215pt"
 viewBox="0.00 0.00 115.00 215.00" xmlns="http://www.w3.org/2000/svg" xmlns:xlink="http://www.w3.org/1999/xlink">
<g id="graph0" class="graph" transform="scale(1 1) rotate(0) translate(4 211)">
<title>mkr::viewport</title>
<polygon fill="white" stroke="transparent" points="-4,4 -4,-211 111,-211 111,4 -4,4"/>
<!-- Node1 -->
<g id="node1" class="node">
<title>Node1</title>
<g id="a_node1"><a xlink:title=" ">
<polygon fill="#bfbfbf" stroke="black" points="0,-0.5 0,-68.5 86,-68.5 86,-0.5 0,-0.5"/>
<text text-anchor="middle" x="43" y="-56.5" font-family="Helvetica,sans-Serif" font-size="10.00">mkr::viewport</text>
<polyline fill="none" stroke="black" points="0,-49.5 86,-49.5 "/>
<text text-anchor="middle" x="43" y="-37.5" font-family="Helvetica,sans-Serif" font-size="10.00"> </text>
<polyline fill="none" stroke="black" points="0,-30.5 86,-30.5 "/>
<text text-anchor="start" x="8" y="-18.5" font-family="Helvetica,sans-Serif" font-size="10.00">+ viewport()</text>
<text text-anchor="start" x="8" y="-7.5" font-family="Helvetica,sans-Serif" font-size="10.00">+ ~viewport()</text>
</a>
</g>
</g>
<!-- Node2 -->
<g id="node2" class="node">
<title>Node2</title>
<g id="a_node2"><a xlink:title=" ">
<polygon fill="white" stroke="#bfbfbf" points="24,-149.5 24,-206.5 62,-206.5 62,-149.5 24,-149.5"/>
<text text-anchor="middle" x="43" y="-194.5" font-family="Helvetica,sans-Serif" font-size="10.00">float</text>
<polyline fill="none" stroke="#bfbfbf" points="24,-187.5 62,-187.5 "/>
<text text-anchor="middle" x="43" y="-175.5" font-family="Helvetica,sans-Serif" font-size="10.00"> </text>
<polyline fill="none" stroke="#bfbfbf" points="24,-168.5 62,-168.5 "/>
<text text-anchor="middle" x="43" y="-156.5" font-family="Helvetica,sans-Serif" font-size="10.00"> </text>
</a>
</g>
</g>
<!-- Node2&#45;&gt;Node1 -->
<g id="edge1" class="edge">
<title>Node2&#45;&gt;Node1</title>
<path fill="none" stroke="#404040" d="M43,-149.38C43,-129.84 43,-103.19 43,-80.59"/>
<polygon fill="none" stroke="#404040" points="43,-80.52 39,-74.52 43,-68.52 47,-74.52 43,-80.52"/>
<text text-anchor="middle" x="75" y="-123" font-family="Helvetica,sans-Serif" font-size="10.00"> +bottom_x_</text>
<text text-anchor="middle" x="75" y="-112" font-family="Helvetica,sans-Serif" font-size="10.00">+bottom_y_</text>
<text text-anchor="middle" x="75" y="-101" font-family="Helvetica,sans-Serif" font-size="10.00">+top_x_</text>
<text text-anchor="middle" x="75" y="-90" font-family="Helvetica,sans-Serif" font-size="10.00">+top_y_</text>
</g>
</g>
</svg>
