<?xml version="1.0" encoding="UTF-8" standalone="no"?>
<!DOCTYPE svg PUBLIC "-//W3C//DTD SVG 1.1//EN"
 "http://www.w3.org/Graphics/SVG/1.1/DTD/svg11.dtd">
<!-- Generated by graphviz version 2.43.0 (0)
 -->
<!-- Title: mkr::camera Pages: 1 -->
<svg width="747pt" height="1224pt"
 viewBox="0.00 0.00 747.00 1224.00" xmlns="http://www.w3.org/2000/svg" xmlns:xlink="http://www.w3.org/1999/xlink">
<g id="graph0" class="graph" transform="scale(1 1) rotate(0) translate(4 1220)">
<title>mkr::camera</title>
<polygon fill="white" stroke="transparent" points="-4,4 -4,-1220 743,-1220 743,4 -4,4"/>
<!-- Node1 -->
<g id="node1" class="node">
<title>Node1</title>
<g id="a_node1"><a xlink:title=" ">
<polygon fill="#bfbfbf" stroke="black" points="232.5,-0.5 232.5,-57.5 311.5,-57.5 311.5,-0.5 232.5,-0.5"/>
<text text-anchor="middle" x="272" y="-45.5" font-family="Helvetica,sans-Serif" font-size="10.00">mkr::camera</text>
<polyline fill="none" stroke="black" points="232.5,-38.5 311.5,-38.5 "/>
<text text-anchor="middle" x="272" y="-26.5" font-family="Helvetica,sans-Serif" font-size="10.00"> </text>
<polyline fill="none" stroke="black" points="232.5,-19.5 311.5,-19.5 "/>
<text text-anchor="middle" x="272" y="-7.5" font-family="Helvetica,sans-Serif" font-size="10.00"> </text>
</a>
</g>
</g>
<!-- Node2 -->
<g id="node2" class="node">
<title>Node2</title>
<g id="a_node2"><a xlink:title=" ">
<polygon fill="white" stroke="#bfbfbf" points="0,-111 0,-168 98,-168 98,-111 0,-111"/>
<text text-anchor="middle" x="49" y="-156" font-family="Helvetica,sans-Serif" font-size="10.00">projection_mode</text>
<polyline fill="none" stroke="#bfbfbf" points="0,-149 98,-149 "/>
<text text-anchor="middle" x="49" y="-137" font-family="Helvetica,sans-Serif" font-size="10.00"> </text>
<polyline fill="none" stroke="#bfbfbf" points="0,-130 98,-130 "/>
<text text-anchor="middle" x="49" y="-118" font-family="Helvetica,sans-Serif" font-size="10.00"> </text>
</a>
</g>
</g>
<!-- Node2&#45;&gt;Node1 -->
<g id="edge1" class="edge">
<title>Node2&#45;&gt;Node1</title>
<path fill="none" stroke="#404040" d="M54.49,-110.78C58.29,-98.47 64.6,-84.81 75,-76 96.66,-57.65 169.53,-44.13 220.29,-36.66"/>
<polygon fill="none" stroke="#404040" points="220.48,-36.63 225.85,-31.82 232.36,-34.93 226.98,-39.74 220.48,-36.63"/>
<text text-anchor="middle" x="97.5" y="-79" font-family="Helvetica,sans-Serif" font-size="10.00"> +mode_</text>
</g>
<!-- Node3 -->
<g id="node3" class="node">
<title>Node3</title>
<g id="a_node3"><a xlink:title=" ">
<polygon fill="white" stroke="#bfbfbf" points="138,-260 138,-317 176,-317 176,-260 138,-260"/>
<text text-anchor="middle" x="157" y="-305" font-family="Helvetica,sans-Serif" font-size="10.00">float</text>
<polyline fill="none" stroke="#bfbfbf" points="138,-298 176,-298 "/>
<text text-anchor="middle" x="157" y="-286" font-family="Helvetica,sans-Serif" font-size="10.00"> </text>
<polyline fill="none" stroke="#bfbfbf" points="138,-279 176,-279 "/>
<text text-anchor="middle" x="157" y="-267" font-family="Helvetica,sans-Serif" font-size="10.00"> </text>
</a>
</g>
</g>
<!-- Node3&#45;&gt;Node1 -->
<g id="edge2" class="edge">
<title>Node3&#45;&gt;Node1</title>
<path fill="none" stroke="#404040" d="M145.7,-259.7C132.28,-221.94 115.03,-153.61 143,-105 159.75,-75.89 192.61,-57.03 220.98,-45.5"/>
<polygon fill="none" stroke="#404040" points="221.18,-45.43 225.36,-39.55 232.39,-41.15 228.21,-47.02 221.18,-45.43"/>
<text text-anchor="middle" x="181.5" y="-159" font-family="Helvetica,sans-Serif" font-size="10.00"> +aspect_ratio_</text>
<text text-anchor="middle" x="181.5" y="-148" font-family="Helvetica,sans-Serif" font-size="10.00">+far_plane_</text>
<text text-anchor="middle" x="181.5" y="-137" font-family="Helvetica,sans-Serif" font-size="10.00">+fov_</text>
<text text-anchor="middle" x="181.5" y="-126" font-family="Helvetica,sans-Serif" font-size="10.00">+near_plane_</text>
<text text-anchor="middle" x="181.5" y="-115" font-family="Helvetica,sans-Serif" font-size="10.00">+ortho_size_</text>
</g>
<!-- Node4 -->
<g id="node4" class="node">
<title>Node4</title>
<g id="a_node4"><a xlink:href="structmkr_1_1viewport.html" target="_top" xlink:title=" ">
<polygon fill="white" stroke="black" points="229,-105.5 229,-173.5 315,-173.5 315,-105.5 229,-105.5"/>
<text text-anchor="middle" x="272" y="-161.5" font-family="Helvetica,sans-Serif" font-size="10.00">mkr::viewport</text>
<polyline fill="none" stroke="black" points="229,-154.5 315,-154.5 "/>
<text text-anchor="middle" x="272" y="-142.5" font-family="Helvetica,sans-Serif" font-size="10.00"> </text>
<polyline fill="none" stroke="black" points="229,-135.5 315,-135.5 "/>
<text text-anchor="start" x="237" y="-123.5" font-family="Helvetica,sans-Serif" font-size="10.00">+ viewport()</text>
<text text-anchor="start" x="237" y="-112.5" font-family="Helvetica,sans-Serif" font-size="10.00">+ ~viewport()</text>
</a>
</g>
</g>
<!-- Node3&#45;&gt;Node4 -->
<g id="edge4" class="edge">
<title>Node3&#45;&gt;Node4</title>
<path fill="none" stroke="#404040" d="M176.21,-261.29C190.52,-241.95 210.67,-215.1 229,-192 231.31,-189.08 233.72,-186.09 236.16,-183.09"/>
<polygon fill="none" stroke="#404040" points="236.38,-182.82 237.1,-175.64 244,-173.54 243.28,-180.72 236.38,-182.82"/>
<text text-anchor="middle" x="261" y="-228" font-family="Helvetica,sans-Serif" font-size="10.00"> +bottom_x_</text>
<text text-anchor="middle" x="261" y="-217" font-family="Helvetica,sans-Serif" font-size="10.00">+bottom_y_</text>
<text text-anchor="middle" x="261" y="-206" font-family="Helvetica,sans-Serif" font-size="10.00">+top_x_</text>
<text text-anchor="middle" x="261" y="-195" font-family="Helvetica,sans-Serif" font-size="10.00">+top_y_</text>
</g>
<!-- Node4&#45;&gt;Node1 -->
<g id="edge3" class="edge">
<title>Node4&#45;&gt;Node1</title>
<path fill="none" stroke="#404040" d="M272,-105.36C272,-94.19 272,-81.61 272,-69.97"/>
<polygon fill="none" stroke="#404040" points="272,-69.83 268,-63.83 272,-57.83 276,-63.83 272,-69.83"/>
<text text-anchor="middle" x="302" y="-79" font-family="Helvetica,sans-Serif" font-size="10.00"> +viewport_</text>
</g>
<!-- Node5 -->
<g id="node5" class="node">
<title>Node5</title>
<g id="a_node5"><a xlink:href="classmkr_1_1skybox.html" target="_top" xlink:title=" ">
<polygon fill="white" stroke="black" points="333.5,-111 333.5,-168 410.5,-168 410.5,-111 333.5,-111"/>
<text text-anchor="middle" x="372" y="-156" font-family="Helvetica,sans-Serif" font-size="10.00">mkr::skybox</text>
<polyline fill="none" stroke="black" points="333.5,-149 410.5,-149 "/>
<text text-anchor="middle" x="372" y="-137" font-family="Helvetica,sans-Serif" font-size="10.00"> </text>
<polyline fill="none" stroke="black" points="333.5,-130 410.5,-130 "/>
<text text-anchor="middle" x="372" y="-118" font-family="Helvetica,sans-Serif" font-size="10.00"> </text>
</a>
</g>
</g>
<!-- Node5&#45;&gt;Node1 -->
<g id="edge5" class="edge">
<title>Node5&#45;&gt;Node1</title>
<path fill="none" stroke="#404040" d="M359.41,-110.98C353.33,-99.43 345.32,-86.31 336,-76 331.58,-71.12 326.57,-66.44 321.33,-62.07"/>
<polygon fill="none" stroke="#404040" points="321.19,-61.96 314,-61.41 311.75,-54.56 318.94,-55.11 321.19,-61.96"/>
<text text-anchor="middle" x="370" y="-79" font-family="Helvetica,sans-Serif" font-size="10.00"> +skybox_</text>
</g>
<!-- Node6 -->
<g id="node6" class="node">
<title>Node6</title>
<g id="a_node6"><a xlink:href="classmkr_1_1texture__cube.html" target="_top" xlink:title=" ">
<polygon fill="white" stroke="black" points="318.5,-254.5 318.5,-322.5 425.5,-322.5 425.5,-254.5 318.5,-254.5"/>
<text text-anchor="middle" x="372" y="-310.5" font-family="Helvetica,sans-Serif" font-size="10.00">mkr::texture_cube</text>
<polyline fill="none" stroke="black" points="318.5,-303.5 425.5,-303.5 "/>
<text text-anchor="middle" x="372" y="-291.5" font-family="Helvetica,sans-Serif" font-size="10.00"> </text>
<polyline fill="none" stroke="black" points="318.5,-284.5 425.5,-284.5 "/>
<text text-anchor="start" x="326.5" y="-272.5" font-family="Helvetica,sans-Serif" font-size="10.00">+ texture_cube()</text>
<text text-anchor="start" x="326.5" y="-261.5" font-family="Helvetica,sans-Serif" font-size="10.00">+ ~texture_cube()</text>
</a>
</g>
</g>
<!-- Node6&#45;&gt;Node5 -->
<g id="edge6" class="edge">
<title>Node6&#45;&gt;Node5</title>
<path fill="none" stroke="#404040" d="M372,-254.14C372,-232.27 372,-203.56 372,-180.47"/>
<polygon fill="none" stroke="#404040" points="372,-180.3 368,-174.3 372,-168.3 376,-174.3 372,-180.3"/>
<text text-anchor="middle" x="398" y="-211.5" font-family="Helvetica,sans-Serif" font-size="10.00"> +texture_</text>
</g>
<!-- Node7 -->
<g id="node7" class="node">
<title>Node7</title>
<g id="a_node7"><a xlink:href="classmkr_1_1texture.html" target="_top" xlink:title=" ">
<polygon fill="white" stroke="black" points="270,-657.5 270,-802.5 380,-802.5 380,-657.5 270,-657.5"/>
<text text-anchor="middle" x="325" y="-790.5" font-family="Helvetica,sans-Serif" font-size="10.00">mkr::texture</text>
<polyline fill="none" stroke="black" points="270,-783.5 380,-783.5 "/>
<text text-anchor="middle" x="325" y="-771.5" font-family="Helvetica,sans-Serif" font-size="10.00"> </text>
<polyline fill="none" stroke="black" points="270,-764.5 380,-764.5 "/>
<text text-anchor="start" x="278" y="-752.5" font-family="Helvetica,sans-Serif" font-size="10.00">+ ~texture()</text>
<text text-anchor="start" x="278" y="-741.5" font-family="Helvetica,sans-Serif" font-size="10.00">+ name()</text>
<text text-anchor="start" x="278" y="-730.5" font-family="Helvetica,sans-Serif" font-size="10.00">+ width()</text>
<text text-anchor="start" x="278" y="-719.5" font-family="Helvetica,sans-Serif" font-size="10.00">+ height()</text>
<text text-anchor="start" x="278" y="-708.5" font-family="Helvetica,sans-Serif" font-size="10.00">+ wrap_mode()</text>
<text text-anchor="start" x="278" y="-697.5" font-family="Helvetica,sans-Serif" font-size="10.00">+ handle()</text>
<text text-anchor="start" x="278" y="-686.5" font-family="Helvetica,sans-Serif" font-size="10.00">+ bind()</text>
<text text-anchor="start" x="278" y="-675.5" font-family="Helvetica,sans-Serif" font-size="10.00"># texture()</text>
<text text-anchor="start" x="278" y="-664.5" font-family="Helvetica,sans-Serif" font-size="10.00"># mip_map_level()</text>
</a>
</g>
</g>
<!-- Node7&#45;&gt;Node6 -->
<g id="edge7" class="edge">
<title>Node7&#45;&gt;Node6</title>
<path fill="none" stroke="midnightblue" d="M333.74,-647.29C344.17,-549.76 361.12,-391.25 368.44,-322.76"/>
<polygon fill="none" stroke="midnightblue" points="330.24,-647.09 332.66,-657.41 337.2,-647.84 330.24,-647.09"/>
</g>
<!-- Node8 -->
<g id="node8" class="node">
<title>Node8</title>
<g id="a_node8"><a xlink:title=" ">
<polygon fill="white" stroke="#bfbfbf" points="94,-1158.5 94,-1215.5 208,-1215.5 208,-1158.5 94,-1158.5"/>
<text text-anchor="middle" x="151" y="-1203.5" font-family="Helvetica,sans-Serif" font-size="10.00">texture_wrap_mode</text>
<polyline fill="none" stroke="#bfbfbf" points="94,-1196.5 208,-1196.5 "/>
<text text-anchor="middle" x="151" y="-1184.5" font-family="Helvetica,sans-Serif" font-size="10.00"> </text>
<polyline fill="none" stroke="#bfbfbf" points="94,-1177.5 208,-1177.5 "/>
<text text-anchor="middle" x="151" y="-1165.5" font-family="Helvetica,sans-Serif" font-size="10.00"> </text>
</a>
</g>
</g>
<!-- Node8&#45;&gt;Node7 -->
<g id="edge8" class="edge">
<title>Node8&#45;&gt;Node7</title>
<path fill="none" stroke="#404040" d="M161.62,-1158.22C187.26,-1091.18 253.35,-918.37 293.17,-814.22"/>
<polygon fill="none" stroke="#404040" points="293.25,-814.02 291.66,-806.99 297.54,-802.81 299.13,-809.84 293.25,-814.02"/>
<text text-anchor="middle" x="214" y="-1126.5" font-family="Helvetica,sans-Serif" font-size="10.00"> #wrap_mode_</text>
</g>
<!-- Node9 -->
<g id="node9" class="node">
<title>Node9</title>
<g id="a_node9"><a xlink:title=" ">
<polygon fill="white" stroke="#bfbfbf" points="226,-1158.5 226,-1215.5 282,-1215.5 282,-1158.5 226,-1158.5"/>
<text text-anchor="middle" x="254" y="-1203.5" font-family="Helvetica,sans-Serif" font-size="10.00">uint32_t</text>
<polyline fill="none" stroke="#bfbfbf" points="226,-1196.5 282,-1196.5 "/>
<text text-anchor="middle" x="254" y="-1184.5" font-family="Helvetica,sans-Serif" font-size="10.00"> </text>
<polyline fill="none" stroke="#bfbfbf" points="226,-1177.5 282,-1177.5 "/>
<text text-anchor="middle" x="254" y="-1165.5" font-family="Helvetica,sans-Serif" font-size="10.00"> </text>
</a>
</g>
</g>
<!-- Node9&#45;&gt;Node7 -->
<g id="edge9" class="edge">
<title>Node9&#45;&gt;Node7</title>
<path fill="none" stroke="#404040" d="M258.33,-1158.22C268.77,-1091.32 295.65,-919.07 311.91,-814.86"/>
<polygon fill="none" stroke="#404040" points="311.94,-814.67 308.92,-808.12 313.79,-802.81 316.82,-809.36 311.94,-814.67"/>
<text text-anchor="middle" x="288" y="-1132" font-family="Helvetica,sans-Serif" font-size="10.00"> #height_</text>
<text text-anchor="middle" x="288" y="-1121" font-family="Helvetica,sans-Serif" font-size="10.00">#width_</text>
</g>
<!-- Node10 -->
<g id="node10" class="node">
<title>Node10</title>
<g id="a_node10"><a xlink:title=" ">
<polygon fill="white" stroke="#bfbfbf" points="513,-1158.5 513,-1215.5 557,-1215.5 557,-1158.5 513,-1158.5"/>
<text text-anchor="middle" x="535" y="-1203.5" font-family="Helvetica,sans-Serif" font-size="10.00">string</text>
<polyline fill="none" stroke="#bfbfbf" points="513,-1196.5 557,-1196.5 "/>
<text text-anchor="middle" x="535" y="-1184.5" font-family="Helvetica,sans-Serif" font-size="10.00"> </text>
<polyline fill="none" stroke="#bfbfbf" points="513,-1177.5 557,-1177.5 "/>
<text text-anchor="middle" x="535" y="-1165.5" font-family="Helvetica,sans-Serif" font-size="10.00"> </text>
</a>
</g>
</g>
<!-- Node10&#45;&gt;Node7 -->
<g id="edge10" class="edge">
<title>Node10&#45;&gt;Node7</title>
<path fill="none" stroke="#404040" d="M519.52,-1158.34C510.96,-1144.89 499.36,-1129.24 486,-1118 472.01,-1106.22 461.07,-1113.74 449,-1100 377.95,-1019.17 347.31,-896.11 334.3,-814.64"/>
<polygon fill="none" stroke="#404040" points="334.29,-814.55 329.42,-809.22 332.47,-802.69 337.33,-808.01 334.29,-814.55"/>
<text text-anchor="middle" x="528.5" y="-1126.5" font-family="Helvetica,sans-Serif" font-size="10.00"> #name_</text>
</g>
<!-- Node12 -->
<g id="node12" class="node">
<title>Node12</title>
<g id="a_node12"><a xlink:href="classmkr_1_1shader__program.html" target="_top" xlink:title=" ">
<polygon fill="white" stroke="black" points="457.5,-360.5 457.5,-1099.5 596.5,-1099.5 596.5,-360.5 457.5,-360.5"/>
<text text-anchor="middle" x="527" y="-1087.5" font-family="Helvetica,sans-Serif" font-size="10.00">mkr::shader_program</text>
<polyline fill="none" stroke="black" points="457.5,-1080.5 596.5,-1080.5 "/>
<text text-anchor="middle" x="527" y="-1068.5" font-family="Helvetica,sans-Serif" font-size="10.00"> </text>
<polyline fill="none" stroke="black" points="457.5,-1061.5 596.5,-1061.5 "/>
<text text-anchor="start" x="465.5" y="-1049.5" font-family="Helvetica,sans-Serif" font-size="10.00">+ shader_program()</text>
<text text-anchor="start" x="465.5" y="-1038.5" font-family="Helvetica,sans-Serif" font-size="10.00">+ ~shader_program()</text>
<text text-anchor="start" x="465.5" y="-1027.5" font-family="Helvetica,sans-Serif" font-size="10.00">+ name()</text>
<text text-anchor="start" x="465.5" y="-1016.5" font-family="Helvetica,sans-Serif" font-size="10.00">+ use()</text>
<text text-anchor="start" x="465.5" y="-1005.5" font-family="Helvetica,sans-Serif" font-size="10.00">+ set_uniform()</text>
<text text-anchor="start" x="465.5" y="-994.5" font-family="Helvetica,sans-Serif" font-size="10.00">+ set_uniform()</text>
<text text-anchor="start" x="465.5" y="-983.5" font-family="Helvetica,sans-Serif" font-size="10.00">+ set_uniform()</text>
<text text-anchor="start" x="465.5" y="-972.5" font-family="Helvetica,sans-Serif" font-size="10.00">+ set_uniform()</text>
<text text-anchor="start" x="465.5" y="-961.5" font-family="Helvetica,sans-Serif" font-size="10.00">+ set_uniform()</text>
<text text-anchor="start" x="465.5" y="-950.5" font-family="Helvetica,sans-Serif" font-size="10.00">+ set_uniform()</text>
<text text-anchor="start" x="465.5" y="-939.5" font-family="Helvetica,sans-Serif" font-size="10.00">+ set_uniform()</text>
<text text-anchor="start" x="465.5" y="-928.5" font-family="Helvetica,sans-Serif" font-size="10.00">+ set_uniform()</text>
<text text-anchor="start" x="465.5" y="-917.5" font-family="Helvetica,sans-Serif" font-size="10.00">+ set_uniform()</text>
<text text-anchor="start" x="465.5" y="-906.5" font-family="Helvetica,sans-Serif" font-size="10.00">+ set_uniform()</text>
<text text-anchor="start" x="465.5" y="-895.5" font-family="Helvetica,sans-Serif" font-size="10.00">+ set_uniform()</text>
<text text-anchor="start" x="465.5" y="-884.5" font-family="Helvetica,sans-Serif" font-size="10.00">+ set_uniform()</text>
<text text-anchor="start" x="465.5" y="-873.5" font-family="Helvetica,sans-Serif" font-size="10.00">+ set_uniform()</text>
<text text-anchor="start" x="465.5" y="-862.5" font-family="Helvetica,sans-Serif" font-size="10.00">+ set_uniform()</text>
<text text-anchor="start" x="465.5" y="-851.5" font-family="Helvetica,sans-Serif" font-size="10.00">+ set_uniform()</text>
<text text-anchor="start" x="465.5" y="-840.5" font-family="Helvetica,sans-Serif" font-size="10.00">+ set_uniform()</text>
<text text-anchor="start" x="465.5" y="-829.5" font-family="Helvetica,sans-Serif" font-size="10.00">+ set_uniform()</text>
<text text-anchor="start" x="465.5" y="-818.5" font-family="Helvetica,sans-Serif" font-size="10.00">+ set_uniform()</text>
<text text-anchor="start" x="465.5" y="-807.5" font-family="Helvetica,sans-Serif" font-size="10.00">+ set_uniform()</text>
<text text-anchor="start" x="465.5" y="-796.5" font-family="Helvetica,sans-Serif" font-size="10.00">+ set_uniform()</text>
<text text-anchor="start" x="465.5" y="-785.5" font-family="Helvetica,sans-Serif" font-size="10.00">+ set_uniform()</text>
<text text-anchor="start" x="465.5" y="-774.5" font-family="Helvetica,sans-Serif" font-size="10.00">+ set_uniform()</text>
<text text-anchor="start" x="465.5" y="-763.5" font-family="Helvetica,sans-Serif" font-size="10.00">+ set_uniform()</text>
<text text-anchor="start" x="465.5" y="-752.5" font-family="Helvetica,sans-Serif" font-size="10.00">+ set_uniform()</text>
<text text-anchor="start" x="465.5" y="-741.5" font-family="Helvetica,sans-Serif" font-size="10.00">+ set_uniform()</text>
<text text-anchor="start" x="465.5" y="-730.5" font-family="Helvetica,sans-Serif" font-size="10.00">+ set_uniform()</text>
<text text-anchor="start" x="465.5" y="-719.5" font-family="Helvetica,sans-Serif" font-size="10.00">+ set_uniform()</text>
<text text-anchor="start" x="465.5" y="-708.5" font-family="Helvetica,sans-Serif" font-size="10.00">+ set_uniform()</text>
<text text-anchor="start" x="465.5" y="-697.5" font-family="Helvetica,sans-Serif" font-size="10.00">+ set_uniform()</text>
<text text-anchor="start" x="465.5" y="-686.5" font-family="Helvetica,sans-Serif" font-size="10.00">+ set_uniform()</text>
<text text-anchor="start" x="465.5" y="-675.5" font-family="Helvetica,sans-Serif" font-size="10.00">+ set_uniform()</text>
<text text-anchor="start" x="465.5" y="-664.5" font-family="Helvetica,sans-Serif" font-size="10.00">+ set_uniform()</text>
<text text-anchor="start" x="465.5" y="-653.5" font-family="Helvetica,sans-Serif" font-size="10.00">+ set_uniform()</text>
<text text-anchor="start" x="465.5" y="-642.5" font-family="Helvetica,sans-Serif" font-size="10.00">+ set_uniform()</text>
<text text-anchor="start" x="465.5" y="-631.5" font-family="Helvetica,sans-Serif" font-size="10.00">+ set_uniform()</text>
<text text-anchor="start" x="465.5" y="-620.5" font-family="Helvetica,sans-Serif" font-size="10.00">+ set_uniform()</text>
<text text-anchor="start" x="465.5" y="-609.5" font-family="Helvetica,sans-Serif" font-size="10.00">+ set_uniform()</text>
<text text-anchor="start" x="465.5" y="-598.5" font-family="Helvetica,sans-Serif" font-size="10.00">+ set_uniform()</text>
<text text-anchor="start" x="465.5" y="-587.5" font-family="Helvetica,sans-Serif" font-size="10.00">+ set_uniform()</text>
<text text-anchor="start" x="465.5" y="-576.5" font-family="Helvetica,sans-Serif" font-size="10.00">+ set_uniform()</text>
<text text-anchor="start" x="465.5" y="-565.5" font-family="Helvetica,sans-Serif" font-size="10.00">+ set_uniform()</text>
<text text-anchor="start" x="465.5" y="-554.5" font-family="Helvetica,sans-Serif" font-size="10.00">+ set_uniform()</text>
<text text-anchor="start" x="465.5" y="-543.5" font-family="Helvetica,sans-Serif" font-size="10.00">+ set_uniform()</text>
<text text-anchor="start" x="465.5" y="-532.5" font-family="Helvetica,sans-Serif" font-size="10.00">+ set_uniform()</text>
<text text-anchor="start" x="465.5" y="-521.5" font-family="Helvetica,sans-Serif" font-size="10.00">+ set_uniform()</text>
<text text-anchor="start" x="465.5" y="-510.5" font-family="Helvetica,sans-Serif" font-size="10.00">+ set_uniform()</text>
<text text-anchor="start" x="465.5" y="-499.5" font-family="Helvetica,sans-Serif" font-size="10.00">+ set_uniform()</text>
<text text-anchor="start" x="465.5" y="-488.5" font-family="Helvetica,sans-Serif" font-size="10.00">+ set_uniform()</text>
<text text-anchor="start" x="465.5" y="-477.5" font-family="Helvetica,sans-Serif" font-size="10.00">+ set_uniform()</text>
<text text-anchor="start" x="465.5" y="-466.5" font-family="Helvetica,sans-Serif" font-size="10.00">+ set_uniform()</text>
<text text-anchor="start" x="465.5" y="-455.5" font-family="Helvetica,sans-Serif" font-size="10.00">+ set_uniform()</text>
<text text-anchor="start" x="465.5" y="-444.5" font-family="Helvetica,sans-Serif" font-size="10.00">+ set_uniform()</text>
<text text-anchor="start" x="465.5" y="-433.5" font-family="Helvetica,sans-Serif" font-size="10.00">+ set_uniform()</text>
<text text-anchor="start" x="465.5" y="-422.5" font-family="Helvetica,sans-Serif" font-size="10.00">+ set_uniform()</text>
<text text-anchor="start" x="465.5" y="-411.5" font-family="Helvetica,sans-Serif" font-size="10.00">+ set_uniform()</text>
<text text-anchor="start" x="465.5" y="-400.5" font-family="Helvetica,sans-Serif" font-size="10.00">+ set_uniform()</text>
<text text-anchor="start" x="465.5" y="-389.5" font-family="Helvetica,sans-Serif" font-size="10.00"># get_uniform_location()</text>
<text text-anchor="start" x="465.5" y="-378.5" font-family="Helvetica,sans-Serif" font-size="10.00"># get_attrib_location()</text>
<text text-anchor="start" x="465.5" y="-367.5" font-family="Helvetica,sans-Serif" font-size="10.00"># create_shader()</text>
</a>
</g>
</g>
<!-- Node10&#45;&gt;Node12 -->
<g id="edge14" class="edge">
<title>Node10&#45;&gt;Node12</title>
<path fill="none" stroke="#404040" d="M555.78,-1158.49C559.17,-1152.66 562.17,-1146.35 564,-1140 566.71,-1130.61 564.47,-1127.77 564,-1118 563.9,-1115.91 563.8,-1113.82 563.69,-1111.72"/>
<polygon fill="none" stroke="#404040" points="563.69,-1111.64 559.38,-1105.86 563.06,-1099.65 567.37,-1105.44 563.69,-1111.64"/>
<text text-anchor="middle" x="587.5" y="-1126.5" font-family="Helvetica,sans-Serif" font-size="10.00"> #name_</text>
</g>
<!-- Node11 -->
<g id="node11" class="node">
<title>Node11</title>
<g id="a_node11"><a xlink:title=" ">
<polygon fill="white" stroke="#bfbfbf" points="338,-1158.5 338,-1215.5 386,-1215.5 386,-1158.5 338,-1158.5"/>
<text text-anchor="middle" x="362" y="-1203.5" font-family="Helvetica,sans-Serif" font-size="10.00">GLuint</text>
<polyline fill="none" stroke="#bfbfbf" points="338,-1196.5 386,-1196.5 "/>
<text text-anchor="middle" x="362" y="-1184.5" font-family="Helvetica,sans-Serif" font-size="10.00"> </text>
<polyline fill="none" stroke="#bfbfbf" points="338,-1177.5 386,-1177.5 "/>
<text text-anchor="middle" x="362" y="-1165.5" font-family="Helvetica,sans-Serif" font-size="10.00"> </text>
</a>
</g>
</g>
<!-- Node11&#45;&gt;Node7 -->
<g id="edge11" class="edge">
<title>Node11&#45;&gt;Node7</title>
<path fill="none" stroke="#404040" d="M337.74,-1161.05C332.94,-1154.67 328.59,-1147.47 326,-1140 288.81,-1032.55 297.75,-899.51 309.67,-814.92"/>
<polygon fill="none" stroke="#404040" points="309.7,-814.67 306.61,-808.16 311.44,-802.8 314.53,-809.32 309.7,-814.67"/>
<text text-anchor="middle" x="351" y="-1126.5" font-family="Helvetica,sans-Serif" font-size="10.00"> #handle_</text>
</g>
<!-- Node11&#45;&gt;Node12 -->
<g id="edge15" class="edge">
<title>Node11&#45;&gt;Node12</title>
<path fill="none" stroke="#404040" d="M372.07,-1158.22C388.31,-1113.44 421.66,-1021.48 453.27,-934.31"/>
<polygon fill="none" stroke="#404040" points="453.33,-934.16 451.61,-927.16 457.42,-922.88 459.13,-929.89 453.33,-934.16"/>
<text text-anchor="middle" x="433.5" y="-1126.5" font-family="Helvetica,sans-Serif" font-size="10.00"> #program_handle_</text>
</g>
<!-- Node12&#45;&gt;Node5 -->
<g id="edge12" class="edge">
<title>Node12&#45;&gt;Node5</title>
<path fill="none" stroke="#404040" d="M491.67,-360.22C476.97,-301.7 456.48,-243.55 428,-192 425.04,-186.65 421.32,-181.54 417.21,-176.78"/>
<polygon fill="none" stroke="#404040" points="417.19,-176.75 410.15,-175.15 408.92,-168.05 415.96,-169.64 417.19,-176.75"/>
<text text-anchor="middle" x="506" y="-286" font-family="Helvetica,sans-Serif" font-size="10.00"> +shader_</text>
</g>
<!-- Node13 -->
<g id="node13" class="node">
<title>Node13</title>
<g id="a_node13"><a xlink:title=" ">
<polygon fill="white" stroke="#bfbfbf" points="593.5,-1158.5 593.5,-1215.5 714.5,-1215.5 714.5,-1158.5 593.5,-1158.5"/>
<text text-anchor="middle" x="654" y="-1203.5" font-family="Helvetica,sans-Serif" font-size="10.00">unique_ptr&lt; GLint[]&gt;</text>
<polyline fill="none" stroke="#bfbfbf" points="593.5,-1196.5 714.5,-1196.5 "/>
<text text-anchor="middle" x="654" y="-1184.5" font-family="Helvetica,sans-Serif" font-size="10.00"> </text>
<polyline fill="none" stroke="#bfbfbf" points="593.5,-1177.5 714.5,-1177.5 "/>
<text text-anchor="middle" x="654" y="-1165.5" font-family="Helvetica,sans-Serif" font-size="10.00"> </text>
</a>
</g>
</g>
<!-- Node13&#45;&gt;Node12 -->
<g id="edge13" class="edge">
<title>Node13&#45;&gt;Node12</title>
<path fill="none" stroke="#404040" d="M646.25,-1158.22C636.5,-1123.29 618.74,-1059.66 599.84,-991.98"/>
<polygon fill="none" stroke="#404040" points="599.78,-991.76 594.32,-987.05 596.56,-980.2 602.02,-984.9 599.78,-991.76"/>
<text text-anchor="middle" x="689.5" y="-1126.5" font-family="Helvetica,sans-Serif" font-size="10.00"> #uniform_handles_</text>
</g>
<!-- Node14 -->
<g id="node14" class="node">
<title>Node14</title>
<g id="a_node14"><a xlink:title=" ">
<polygon fill="white" stroke="#bfbfbf" points="253.5,-260 253.5,-317 300.5,-317 300.5,-260 253.5,-260"/>
<text text-anchor="middle" x="277" y="-305" font-family="Helvetica,sans-Serif" font-size="10.00">colour</text>
<polyline fill="none" stroke="#bfbfbf" points="253.5,-298 300.5,-298 "/>
<text text-anchor="middle" x="277" y="-286" font-family="Helvetica,sans-Serif" font-size="10.00"> </text>
<polyline fill="none" stroke="#bfbfbf" points="253.5,-279 300.5,-279 "/>
<text text-anchor="middle" x="277" y="-267" font-family="Helvetica,sans-Serif" font-size="10.00"> </text>
</a>
</g>
</g>
<!-- Node14&#45;&gt;Node5 -->
<g id="edge16" class="edge">
<title>Node14&#45;&gt;Node5</title>
<path fill="none" stroke="#404040" d="M286.78,-259.81C294.48,-239.98 306.34,-213.15 321,-192 324.54,-186.9 328.61,-181.84 332.87,-177.02"/>
<polygon fill="none" stroke="#404040" points="333.05,-176.83 334.21,-169.71 341.23,-168.05 340.06,-175.17 333.05,-176.83"/>
<text text-anchor="middle" x="344.5" y="-211.5" font-family="Helvetica,sans-Serif" font-size="10.00"> +colour_</text>
</g>
<!-- Node15 -->
<g id="node15" class="node">
<title>Node15</title>
<g id="a_node15"><a xlink:title=" ">
<polygon fill="white" stroke="#bfbfbf" points="429,-111 429,-168 479,-168 479,-111 429,-111"/>
<text text-anchor="middle" x="454" y="-156" font-family="Helvetica,sans-Serif" font-size="10.00">uint8_t</text>
<polyline fill="none" stroke="#bfbfbf" points="429,-149 479,-149 "/>
<text text-anchor="middle" x="454" y="-137" font-family="Helvetica,sans-Serif" font-size="10.00"> </text>
<polyline fill="none" stroke="#bfbfbf" points="429,-130 479,-130 "/>
<text text-anchor="middle" x="454" y="-118" font-family="Helvetica,sans-Serif" font-size="10.00"> </text>
</a>
</g>
</g>
<!-- Node15&#45;&gt;Node1 -->
<g id="edge17" class="edge">
<title>Node15&#45;&gt;Node1</title>
<path fill="none" stroke="#404040" d="M435.27,-111C425.87,-98.89 413.6,-85.33 400,-76 377,-60.21 347.96,-49.19 323.36,-41.91"/>
<polygon fill="none" stroke="#404040" points="323.23,-41.88 316.38,-44.11 311.68,-38.63 318.54,-36.4 323.23,-41.88"/>
<text text-anchor="middle" x="434.5" y="-79" font-family="Helvetica,sans-Serif" font-size="10.00"> +depth_</text>
</g>
</g>
</svg>
