<?xml version="1.0" encoding="UTF-8" standalone="no"?>
<!DOCTYPE svg PUBLIC "-//W3C//DTD SVG 1.1//EN"
 "http://www.w3.org/Graphics/SVG/1.1/DTD/svg11.dtd">
<!-- Generated by graphviz version 2.43.0 (0)
 -->
<!-- Title: src/game/tag/tag.h Pages: 1 -->
<svg width="372pt" height="229pt"
 viewBox="0.00 0.00 372.00 229.00" xmlns="http://www.w3.org/2000/svg" xmlns:xlink="http://www.w3.org/1999/xlink">
<g id="graph0" class="graph" transform="scale(1 1) rotate(0) translate(4 225)">
<title>src/game/tag/tag.h</title>
<polygon fill="white" stroke="transparent" points="-4,4 -4,-225 368,-225 368,4 -4,4"/>
<!-- Node1 -->
<g id="node1" class="node">
<title>Node1</title>
<g id="a_node1"><a xlink:title=" ">
<polygon fill="#bfbfbf" stroke="black" points="100,-201.5 100,-220.5 208,-220.5 208,-201.5 100,-201.5"/>
<text text-anchor="middle" x="154" y="-208.5" font-family="Helvetica,sans-Serif" font-size="10.00">src/game/tag/tag.h</text>
</a>
</g>
</g>
<!-- Node2 -->
<g id="node2" class="node">
<title>Node2</title>
<g id="a_node2"><a xlink:href="game__scene_8cpp.html" target="_top" xlink:title=" ">
<polygon fill="white" stroke="black" points="0,-0.5 0,-30.5 124,-30.5 124,-0.5 0,-0.5"/>
<text text-anchor="start" x="8" y="-18.5" font-family="Helvetica,sans-Serif" font-size="10.00">src/game/scene/game</text>
<text text-anchor="middle" x="62" y="-7.5" font-family="Helvetica,sans-Serif" font-size="10.00">_scene.cpp</text>
</a>
</g>
</g>
<!-- Node1&#45;&gt;Node2 -->
<g id="edge1" class="edge">
<title>Node1&#45;&gt;Node2</title>
<path fill="none" stroke="midnightblue" d="M120.34,-197.15C105.91,-189.9 90.27,-179.37 81,-165 53.53,-122.41 56.88,-58.54 60.04,-30.52"/>
<polygon fill="midnightblue" stroke="midnightblue" points="119.03,-200.4 129.58,-201.44 121.99,-194.05 119.03,-200.4"/>
</g>
<!-- Node3 -->
<g id="node3" class="node">
<title>Node3</title>
<g id="a_node3"><a xlink:href="body__control__system_8h.html" target="_top" xlink:title=" ">
<polygon fill="white" stroke="black" points="90,-134.5 90,-164.5 218,-164.5 218,-134.5 90,-134.5"/>
<text text-anchor="start" x="98" y="-152.5" font-family="Helvetica,sans-Serif" font-size="10.00">src/game/system/body</text>
<text text-anchor="middle" x="154" y="-141.5" font-family="Helvetica,sans-Serif" font-size="10.00">_control_system.h</text>
</a>
</g>
</g>
<!-- Node1&#45;&gt;Node3 -->
<g id="edge2" class="edge">
<title>Node1&#45;&gt;Node3</title>
<path fill="none" stroke="midnightblue" d="M154,-191.23C154,-182.59 154,-172.5 154,-164.52"/>
<polygon fill="midnightblue" stroke="midnightblue" points="150.5,-191.48 154,-201.48 157.5,-191.48 150.5,-191.48"/>
</g>
<!-- Node6 -->
<g id="node6" class="node">
<title>Node6</title>
<g id="a_node6"><a xlink:href="head__control__system_8h.html" target="_top" xlink:title=" ">
<polygon fill="white" stroke="black" points="236,-134.5 236,-164.5 364,-164.5 364,-134.5 236,-134.5"/>
<text text-anchor="start" x="244" y="-152.5" font-family="Helvetica,sans-Serif" font-size="10.00">src/game/system/head</text>
<text text-anchor="middle" x="300" y="-141.5" font-family="Helvetica,sans-Serif" font-size="10.00">_control_system.h</text>
</a>
</g>
</g>
<!-- Node1&#45;&gt;Node6 -->
<g id="edge6" class="edge">
<title>Node1&#45;&gt;Node6</title>
<path fill="none" stroke="midnightblue" d="M184.45,-197.59C208.12,-187.94 240.97,-174.56 265.59,-164.52"/>
<polygon fill="midnightblue" stroke="midnightblue" points="182.86,-194.46 174.92,-201.48 185.5,-200.94 182.86,-194.46"/>
</g>
<!-- Node4 -->
<g id="node4" class="node">
<title>Node4</title>
<g id="a_node4"><a xlink:href="game__scene_8h.html" target="_top" xlink:title=" ">
<polygon fill="white" stroke="black" points="126,-67.5 126,-97.5 250,-97.5 250,-67.5 126,-67.5"/>
<text text-anchor="start" x="134" y="-85.5" font-family="Helvetica,sans-Serif" font-size="10.00">src/game/scene/game</text>
<text text-anchor="middle" x="188" y="-74.5" font-family="Helvetica,sans-Serif" font-size="10.00">_scene.h</text>
</a>
</g>
</g>
<!-- Node3&#45;&gt;Node4 -->
<g id="edge3" class="edge">
<title>Node3&#45;&gt;Node4</title>
<path fill="none" stroke="midnightblue" d="M166.14,-125.28C170.99,-116.02 176.41,-105.66 180.64,-97.58"/>
<polygon fill="midnightblue" stroke="midnightblue" points="162.91,-123.91 161.38,-134.4 169.11,-127.16 162.91,-123.91"/>
</g>
<!-- Node4&#45;&gt;Node2 -->
<g id="edge4" class="edge">
<title>Node4&#45;&gt;Node2</title>
<path fill="none" stroke="midnightblue" d="M151.58,-62.71C131.71,-52.46 107.52,-39.98 89.29,-30.58"/>
<polygon fill="midnightblue" stroke="midnightblue" points="150.17,-65.92 160.66,-67.4 153.38,-59.7 150.17,-65.92"/>
</g>
<!-- Node5 -->
<g id="node5" class="node">
<title>Node5</title>
<g id="a_node5"><a xlink:href="scene__manager_8cpp.html" target="_top" xlink:title=" ">
<polygon fill="white" stroke="black" points="142,-6 142,-25 304,-25 304,-6 142,-6"/>
<text text-anchor="middle" x="223" y="-13" font-family="Helvetica,sans-Serif" font-size="10.00">src/scene/scene_manager.cpp</text>
</a>
</g>
</g>
<!-- Node4&#45;&gt;Node5 -->
<g id="edge5" class="edge">
<title>Node4&#45;&gt;Node5</title>
<path fill="none" stroke="midnightblue" d="M200.5,-58.29C206.68,-46.8 213.78,-33.63 218.32,-25.19"/>
<polygon fill="midnightblue" stroke="midnightblue" points="197.25,-56.93 195.59,-67.4 203.42,-60.25 197.25,-56.93"/>
</g>
<!-- Node6&#45;&gt;Node4 -->
<g id="edge7" class="edge">
<title>Node6&#45;&gt;Node4</title>
<path fill="none" stroke="midnightblue" d="M266.91,-129.3C249.38,-119.12 228.24,-106.85 212.25,-97.58"/>
<polygon fill="midnightblue" stroke="midnightblue" points="265.29,-132.4 275.7,-134.4 268.81,-126.35 265.29,-132.4"/>
</g>
</g>
</svg>
