<?xml version="1.0" encoding="UTF-8" standalone="no"?>
<!DOCTYPE svg PUBLIC "-//W3C//DTD SVG 1.1//EN"
 "http://www.w3.org/Graphics/SVG/1.1/DTD/svg11.dtd">
<!-- Generated by graphviz version 2.43.0 (0)
 -->
<!-- Title: src/graphics/texture/texture.h Pages: 1 -->
<svg width="550pt" height="162pt"
 viewBox="0.00 0.00 550.00 162.00" xmlns="http://www.w3.org/2000/svg" xmlns:xlink="http://www.w3.org/1999/xlink">
<g id="graph0" class="graph" transform="scale(1 1) rotate(0) translate(4 158)">
<title>src/graphics/texture/texture.h</title>
<polygon fill="white" stroke="transparent" points="-4,4 -4,-158 546,-158 546,4 -4,4"/>
<!-- Node1 -->
<g id="node1" class="node">
<title>Node1</title>
<g id="a_node1"><a xlink:title=" ">
<polygon fill="#bfbfbf" stroke="black" points="164.5,-123.5 164.5,-153.5 277.5,-153.5 277.5,-123.5 164.5,-123.5"/>
<text text-anchor="start" x="172.5" y="-141.5" font-family="Helvetica,sans-Serif" font-size="10.00">src/graphics/texture</text>
<text text-anchor="middle" x="221" y="-130.5" font-family="Helvetica,sans-Serif" font-size="10.00">/texture.h</text>
</a>
</g>
</g>
<!-- Node2 -->
<g id="node2" class="node">
<title>Node2</title>
<g id="a_node2"><a xlink:title=" ">
<polygon fill="white" stroke="#bfbfbf" points="0,-62 0,-81 42,-81 42,-62 0,-62"/>
<text text-anchor="middle" x="21" y="-69" font-family="Helvetica,sans-Serif" font-size="10.00">array</text>
</a>
</g>
</g>
<!-- Node1&#45;&gt;Node2 -->
<g id="edge1" class="edge">
<title>Node1&#45;&gt;Node2</title>
<path fill="none" stroke="midnightblue" d="M165.5,-123.45C131.91,-114.35 88.47,-101.51 51,-87 49.62,-86.46 48.21,-85.89 46.8,-85.29"/>
<polygon fill="midnightblue" stroke="midnightblue" points="48.16,-82.07 37.61,-81.12 45.26,-88.44 48.16,-82.07"/>
</g>
<!-- Node3 -->
<g id="node3" class="node">
<title>Node3</title>
<g id="a_node3"><a xlink:title=" ">
<polygon fill="white" stroke="#bfbfbf" points="60.5,-62 60.5,-81 107.5,-81 107.5,-62 60.5,-62"/>
<text text-anchor="middle" x="84" y="-69" font-family="Helvetica,sans-Serif" font-size="10.00">cmath</text>
</a>
</g>
</g>
<!-- Node1&#45;&gt;Node3 -->
<g id="edge2" class="edge">
<title>Node1&#45;&gt;Node3</title>
<path fill="none" stroke="midnightblue" d="M191.27,-123.4C167.45,-112.09 134.29,-96.36 111.17,-85.39"/>
<polygon fill="midnightblue" stroke="midnightblue" points="112.47,-82.13 101.93,-81.01 109.46,-88.46 112.47,-82.13"/>
</g>
<!-- Node4 -->
<g id="node4" class="node">
<title>Node4</title>
<g id="a_node4"><a xlink:title=" ">
<polygon fill="white" stroke="#bfbfbf" points="126,-62 126,-81 234,-81 234,-62 126,-62"/>
<text text-anchor="middle" x="180" y="-69" font-family="Helvetica,sans-Serif" font-size="10.00">SDL2/SDL_image.h</text>
</a>
</g>
</g>
<!-- Node1&#45;&gt;Node4 -->
<g id="edge3" class="edge">
<title>Node1&#45;&gt;Node4</title>
<path fill="none" stroke="midnightblue" d="M212.1,-123.4C205.9,-113.56 197.58,-100.38 190.97,-89.89"/>
<polygon fill="midnightblue" stroke="midnightblue" points="193.78,-87.79 185.48,-81.19 187.86,-91.52 193.78,-87.79"/>
</g>
<!-- Node5 -->
<g id="node5" class="node">
<title>Node5</title>
<g id="a_node5"><a xlink:title=" ">
<polygon fill="white" stroke="#bfbfbf" points="298,-0.5 298,-19.5 362,-19.5 362,-0.5 298,-0.5"/>
<text text-anchor="middle" x="330" y="-7.5" font-family="Helvetica,sans-Serif" font-size="10.00">GL/glew.h</text>
</a>
</g>
</g>
<!-- Node1&#45;&gt;Node5 -->
<g id="edge4" class="edge">
<title>Node1&#45;&gt;Node5</title>
<path fill="none" stroke="midnightblue" d="M230.21,-123.32C241.37,-106.54 261.17,-78.1 281,-56 290.43,-45.49 302.02,-34.76 311.56,-26.42"/>
<polygon fill="midnightblue" stroke="midnightblue" points="314.01,-28.93 319.31,-19.76 309.45,-23.62 314.01,-28.93"/>
</g>
<!-- Node6 -->
<g id="node6" class="node">
<title>Node6</title>
<g id="a_node6"><a xlink:title=" ">
<polygon fill="white" stroke="#bfbfbf" points="290.5,-62 290.5,-81 401.5,-81 401.5,-62 290.5,-62"/>
<text text-anchor="middle" x="346" y="-69" font-family="Helvetica,sans-Serif" font-size="10.00">maths/maths_util.h</text>
</a>
</g>
</g>
<!-- Node1&#45;&gt;Node6 -->
<g id="edge5" class="edge">
<title>Node1&#45;&gt;Node6</title>
<path fill="none" stroke="midnightblue" d="M248.12,-123.4C269.67,-112.19 299.57,-96.64 320.64,-85.69"/>
<polygon fill="midnightblue" stroke="midnightblue" points="322.38,-88.73 329.64,-81.01 319.15,-82.52 322.38,-88.73"/>
</g>
<!-- Node7 -->
<g id="node7" class="node">
<title>Node7</title>
<g id="a_node7"><a xlink:href="pixel__format_8h.html" target="_top" xlink:title=" ">
<polygon fill="white" stroke="black" points="420,-56.5 420,-86.5 542,-86.5 542,-56.5 420,-56.5"/>
<text text-anchor="start" x="428" y="-74.5" font-family="Helvetica,sans-Serif" font-size="10.00">graphics/texture/pixel</text>
<text text-anchor="middle" x="481" y="-63.5" font-family="Helvetica,sans-Serif" font-size="10.00">_format.h</text>
</a>
</g>
</g>
<!-- Node1&#45;&gt;Node7 -->
<g id="edge6" class="edge">
<title>Node1&#45;&gt;Node7</title>
<path fill="none" stroke="midnightblue" d="M277.1,-123.48C317.54,-113.37 372.26,-99.68 414.84,-89.04"/>
<polygon fill="midnightblue" stroke="midnightblue" points="415.7,-92.43 424.56,-86.61 414.01,-85.64 415.7,-92.43"/>
</g>
<!-- Node7&#45;&gt;Node5 -->
<g id="edge8" class="edge">
<title>Node7&#45;&gt;Node5</title>
<path fill="none" stroke="midnightblue" d="M445.22,-56.4C419.77,-46.37 385.9,-33.03 361.48,-23.4"/>
<polygon fill="midnightblue" stroke="midnightblue" points="362.56,-20.07 351.97,-19.66 359.99,-26.58 362.56,-20.07"/>
</g>
<!-- Node8 -->
<g id="node8" class="node">
<title>Node8</title>
<g id="a_node8"><a xlink:title=" ">
<polygon fill="white" stroke="#bfbfbf" points="448.5,-0.5 448.5,-19.5 513.5,-19.5 513.5,-0.5 448.5,-0.5"/>
<text text-anchor="middle" x="481" y="-7.5" font-family="Helvetica,sans-Serif" font-size="10.00">stdexcept</text>
</a>
</g>
</g>
<!-- Node7&#45;&gt;Node8 -->
<g id="edge7" class="edge">
<title>Node7&#45;&gt;Node8</title>
<path fill="none" stroke="midnightblue" d="M481,-56.4C481,-48.47 481,-38.46 481,-29.86"/>
<polygon fill="midnightblue" stroke="midnightblue" points="484.5,-29.66 481,-19.66 477.5,-29.66 484.5,-29.66"/>
</g>
</g>
</svg>
