<?xml version="1.0" encoding="UTF-8" standalone="no"?>
<!DOCTYPE svg PUBLIC "-//W3C//DTD SVG 1.1//EN"
 "http://www.w3.org/Graphics/SVG/1.1/DTD/svg11.dtd">
<!-- Generated by graphviz version 2.43.0 (0)
 -->
<!-- Title: src/graphics/shader/texture_unit.h Pages: 1 -->
<svg width="698pt" height="173pt"
 viewBox="0.00 0.00 697.51 173.00" xmlns="http://www.w3.org/2000/svg" xmlns:xlink="http://www.w3.org/1999/xlink">
<g id="graph0" class="graph" transform="scale(1 1) rotate(0) translate(4 169)">
<title>src/graphics/shader/texture_unit.h</title>
<polygon fill="white" stroke="transparent" points="-4,4 -4,-169 693.51,-169 693.51,4 -4,4"/>
<!-- Node1 -->
<g id="node1" class="node">
<title>Node1</title>
<g id="a_node1"><a xlink:title=" ">
<polygon fill="#bfbfbf" stroke="black" points="229.01,-134.5 229.01,-164.5 340.01,-164.5 340.01,-134.5 229.01,-134.5"/>
<text text-anchor="start" x="237.01" y="-152.5" font-family="Helvetica,sans-Serif" font-size="10.00">src/graphics/shader</text>
<text text-anchor="middle" x="284.51" y="-141.5" font-family="Helvetica,sans-Serif" font-size="10.00">/texture_unit.h</text>
</a>
</g>
</g>
<!-- Node2 -->
<g id="node2" class="node">
<title>Node2</title>
<g id="a_node2"><a xlink:href="graphics__renderer_8cpp.html" target="_top" xlink:title=" ">
<polygon fill="white" stroke="black" points="174.01,-0.5 174.01,-30.5 301.01,-30.5 301.01,-0.5 174.01,-0.5"/>
<text text-anchor="start" x="182.01" y="-18.5" font-family="Helvetica,sans-Serif" font-size="10.00">src/graphics/renderer</text>
<text text-anchor="middle" x="237.51" y="-7.5" font-family="Helvetica,sans-Serif" font-size="10.00">/graphics_renderer.cpp</text>
</a>
</g>
</g>
<!-- Node1&#45;&gt;Node2 -->
<g id="edge1" class="edge">
<title>Node1&#45;&gt;Node2</title>
<path fill="none" stroke="midnightblue" d="M218.53,-145.75C146.06,-141.18 36.47,-129.18 10.51,-98 -37.18,-40.72 91.19,-23.69 173.85,-18.63"/>
<polygon fill="midnightblue" stroke="midnightblue" points="218.75,-149.27 228.94,-146.37 219.17,-142.28 218.75,-149.27"/>
</g>
<!-- Node3 -->
<g id="node3" class="node">
<title>Node3</title>
<g id="a_node3"><a xlink:href="forward__shader_8cpp.html" target="_top" xlink:title=" ">
<polygon fill="white" stroke="black" points="20.01,-67.5 20.01,-97.5 135.01,-97.5 135.01,-67.5 20.01,-67.5"/>
<text text-anchor="start" x="28.01" y="-85.5" font-family="Helvetica,sans-Serif" font-size="10.00">src/graphics/shader</text>
<text text-anchor="middle" x="77.51" y="-74.5" font-family="Helvetica,sans-Serif" font-size="10.00">/forward_shader.cpp</text>
</a>
</g>
</g>
<!-- Node1&#45;&gt;Node3 -->
<g id="edge2" class="edge">
<title>Node1&#45;&gt;Node3</title>
<path fill="none" stroke="midnightblue" d="M230.19,-131.44C196.64,-120.91 154.1,-107.55 122.45,-97.61"/>
<polygon fill="midnightblue" stroke="midnightblue" points="229.26,-134.82 239.85,-134.48 231.36,-128.14 229.26,-134.82"/>
</g>
<!-- Node4 -->
<g id="node4" class="node">
<title>Node4</title>
<g id="a_node4"><a xlink:href="geometry__shader_8cpp.html" target="_top" xlink:title=" ">
<polygon fill="white" stroke="black" points="153.01,-67.5 153.01,-97.5 278.01,-97.5 278.01,-67.5 153.01,-67.5"/>
<text text-anchor="start" x="161.01" y="-85.5" font-family="Helvetica,sans-Serif" font-size="10.00">src/graphics/shader</text>
<text text-anchor="middle" x="215.51" y="-74.5" font-family="Helvetica,sans-Serif" font-size="10.00">/geometry_shader.cpp</text>
</a>
</g>
</g>
<!-- Node1&#45;&gt;Node4 -->
<g id="edge3" class="edge">
<title>Node1&#45;&gt;Node4</title>
<path fill="none" stroke="midnightblue" d="M262.02,-127.31C251.67,-117.56 239.67,-106.26 230.45,-97.58"/>
<polygon fill="midnightblue" stroke="midnightblue" points="259.86,-130.09 269.54,-134.4 264.66,-124.99 259.86,-130.09"/>
</g>
<!-- Node5 -->
<g id="node5" class="node">
<title>Node5</title>
<g id="a_node5"><a xlink:href="lighting__shader_8cpp.html" target="_top" xlink:title=" ">
<polygon fill="white" stroke="black" points="296.51,-67.5 296.51,-97.5 410.51,-97.5 410.51,-67.5 296.51,-67.5"/>
<text text-anchor="start" x="304.51" y="-85.5" font-family="Helvetica,sans-Serif" font-size="10.00">src/graphics/shader</text>
<text text-anchor="middle" x="353.51" y="-74.5" font-family="Helvetica,sans-Serif" font-size="10.00">/lighting_shader.cpp</text>
</a>
</g>
</g>
<!-- Node1&#45;&gt;Node5 -->
<g id="edge4" class="edge">
<title>Node1&#45;&gt;Node5</title>
<path fill="none" stroke="midnightblue" d="M307,-127.31C317.35,-117.56 329.35,-106.26 338.57,-97.58"/>
<polygon fill="midnightblue" stroke="midnightblue" points="304.36,-124.99 299.48,-134.4 309.16,-130.09 304.36,-124.99"/>
</g>
<!-- Node6 -->
<g id="node6" class="node">
<title>Node6</title>
<g id="a_node6"><a xlink:href="post__proc__shader_8cpp.html" target="_top" xlink:title=" ">
<polygon fill="white" stroke="black" points="429.01,-67.5 429.01,-97.5 554.01,-97.5 554.01,-67.5 429.01,-67.5"/>
<text text-anchor="start" x="437.01" y="-85.5" font-family="Helvetica,sans-Serif" font-size="10.00">src/graphics/shader</text>
<text text-anchor="middle" x="491.51" y="-74.5" font-family="Helvetica,sans-Serif" font-size="10.00">/post_proc_shader.cpp</text>
</a>
</g>
</g>
<!-- Node1&#45;&gt;Node6 -->
<g id="edge5" class="edge">
<title>Node1&#45;&gt;Node6</title>
<path fill="none" stroke="midnightblue" d="M338.83,-131.44C372.38,-120.91 414.92,-107.55 446.57,-97.61"/>
<polygon fill="midnightblue" stroke="midnightblue" points="337.66,-128.14 329.17,-134.48 339.76,-134.82 337.66,-128.14"/>
</g>
<!-- Node7 -->
<g id="node7" class="node">
<title>Node7</title>
<g id="a_node7"><a xlink:href="skybox__shader_8h.html" target="_top" xlink:title=" ">
<polygon fill="white" stroke="black" points="572.01,-67.5 572.01,-97.5 683.01,-97.5 683.01,-67.5 572.01,-67.5"/>
<text text-anchor="start" x="580.01" y="-85.5" font-family="Helvetica,sans-Serif" font-size="10.00">src/graphics/shader</text>
<text text-anchor="middle" x="627.51" y="-74.5" font-family="Helvetica,sans-Serif" font-size="10.00">/skybox_shader.h</text>
</a>
</g>
</g>
<!-- Node1&#45;&gt;Node7 -->
<g id="edge6" class="edge">
<title>Node1&#45;&gt;Node7</title>
<path fill="none" stroke="midnightblue" d="M350.13,-137.46C406.76,-127.73 490.71,-112.83 563.51,-98 566.19,-97.45 568.93,-96.88 571.69,-96.3"/>
<polygon fill="midnightblue" stroke="midnightblue" points="349.49,-134.01 340.23,-139.15 350.68,-140.91 349.49,-134.01"/>
</g>
<!-- Node7&#45;&gt;Node2 -->
<g id="edge8" class="edge">
<title>Node7&#45;&gt;Node2</title>
<path fill="none" stroke="midnightblue" d="M561.84,-66.75C465.81,-48.69 364.83,-33.87 301.14,-25.03"/>
<polygon fill="midnightblue" stroke="midnightblue" points="561.23,-70.2 571.71,-68.62 562.54,-63.32 561.23,-70.2"/>
</g>
<!-- Node8 -->
<g id="node8" class="node">
<title>Node8</title>
<g id="a_node8"><a xlink:href="game__scene_8cpp.html" target="_top" xlink:title=" ">
<polygon fill="white" stroke="black" points="565.51,-0.5 565.51,-30.5 689.51,-30.5 689.51,-0.5 565.51,-0.5"/>
<text text-anchor="start" x="573.51" y="-18.5" font-family="Helvetica,sans-Serif" font-size="10.00">src/game/scene/game</text>
<text text-anchor="middle" x="627.51" y="-7.5" font-family="Helvetica,sans-Serif" font-size="10.00">_scene.cpp</text>
</a>
</g>
</g>
<!-- Node7&#45;&gt;Node8 -->
<g id="edge7" class="edge">
<title>Node7&#45;&gt;Node8</title>
<path fill="none" stroke="midnightblue" d="M627.51,-57.11C627.51,-48.15 627.51,-38.32 627.51,-30.58"/>
<polygon fill="midnightblue" stroke="midnightblue" points="624.01,-57.4 627.51,-67.4 631.01,-57.4 624.01,-57.4"/>
</g>
</g>
</svg>
