<?xml version="1.0" encoding="UTF-8" standalone="no"?>
<!DOCTYPE svg PUBLIC "-//W3C//DTD SVG 1.1//EN"
 "http://www.w3.org/Graphics/SVG/1.1/DTD/svg11.dtd">
<!-- Generated by graphviz version 2.43.0 (0)
 -->
<!-- Title: src/graphics/texture/texture.h Pages: 1 -->
<svg width="2404pt" height="374pt"
 viewBox="0.00 0.00 2404.00 374.00" xmlns="http://www.w3.org/2000/svg" xmlns:xlink="http://www.w3.org/1999/xlink">
<g id="graph0" class="graph" transform="scale(1 1) rotate(0) translate(4 370)">
<title>src/graphics/texture/texture.h</title>
<polygon fill="white" stroke="transparent" points="-4,4 -4,-370 2400,-370 2400,4 -4,4"/>
<!-- Node1 -->
<g id="node1" class="node">
<title>Node1</title>
<g id="a_node1"><a xlink:title=" ">
<polygon fill="#bfbfbf" stroke="black" points="1384.5,-335.5 1384.5,-365.5 1497.5,-365.5 1497.5,-335.5 1384.5,-335.5"/>
<text text-anchor="start" x="1392.5" y="-353.5" font-family="Helvetica,sans-Serif" font-size="10.00">src/graphics/texture</text>
<text text-anchor="middle" x="1441" y="-342.5" font-family="Helvetica,sans-Serif" font-size="10.00">/texture.h</text>
</a>
</g>
</g>
<!-- Node2 -->
<g id="node2" class="node">
<title>Node2</title>
<g id="a_node2"><a xlink:href="camera_8h.html" target="_top" xlink:title=" ">
<polygon fill="white" stroke="black" points="1394.5,-140 1394.5,-159 1531.5,-159 1531.5,-140 1394.5,-140"/>
<text text-anchor="middle" x="1463" y="-147" font-family="Helvetica,sans-Serif" font-size="10.00">src/component/camera.h</text>
</a>
</g>
</g>
<!-- Node1&#45;&gt;Node2 -->
<g id="edge1" class="edge">
<title>Node1&#45;&gt;Node2</title>
<path fill="none" stroke="midnightblue" d="M1430.32,-325.46C1418.57,-295.43 1403.3,-242.92 1419,-201 1425.53,-183.58 1441.08,-168.21 1451.83,-159.13"/>
<polygon fill="midnightblue" stroke="midnightblue" points="1427.24,-327.16 1434.27,-335.08 1433.71,-324.5 1427.24,-327.16"/>
</g>
<!-- Node8 -->
<g id="node8" class="node">
<title>Node8</title>
<g id="a_node8"><a xlink:href="asset__loader_8h.html" target="_top" xlink:title=" ">
<polygon fill="white" stroke="black" points="1550,-134.5 1550,-164.5 1676,-164.5 1676,-134.5 1550,-134.5"/>
<text text-anchor="start" x="1558" y="-152.5" font-family="Helvetica,sans-Serif" font-size="10.00">src/graphics/asset</text>
<text text-anchor="middle" x="1613" y="-141.5" font-family="Helvetica,sans-Serif" font-size="10.00">_loader/asset_loader.h</text>
</a>
</g>
</g>
<!-- Node1&#45;&gt;Node8 -->
<g id="edge8" class="edge">
<title>Node1&#45;&gt;Node8</title>
<path fill="none" stroke="midnightblue" d="M1461.88,-328.17C1484.28,-305.02 1520.59,-266.71 1550,-232 1569.42,-209.08 1590.49,-181.14 1602.67,-164.64"/>
<polygon fill="midnightblue" stroke="midnightblue" points="1459.31,-325.79 1454.85,-335.41 1464.33,-330.67 1459.31,-325.79"/>
</g>
<!-- Node10 -->
<g id="node10" class="node">
<title>Node10</title>
<g id="a_node10"><a xlink:href="framebuffer_8h.html" target="_top" xlink:title=" ">
<polygon fill="white" stroke="black" points="539,-201.5 539,-231.5 675,-231.5 675,-201.5 539,-201.5"/>
<text text-anchor="start" x="547" y="-219.5" font-family="Helvetica,sans-Serif" font-size="10.00">src/graphics/framebuffer</text>
<text text-anchor="middle" x="607" y="-208.5" font-family="Helvetica,sans-Serif" font-size="10.00">/framebuffer.h</text>
</a>
</g>
</g>
<!-- Node1&#45;&gt;Node10 -->
<g id="edge13" class="edge">
<title>Node1&#45;&gt;Node10</title>
<path fill="none" stroke="midnightblue" d="M1374.42,-338.96C1218.77,-314.33 832.44,-253.18 675.2,-228.29"/>
<polygon fill="midnightblue" stroke="midnightblue" points="1373.91,-342.42 1384.33,-340.53 1375,-335.51 1373.91,-342.42"/>
</g>
<!-- Node24 -->
<g id="node24" class="node">
<title>Node24</title>
<g id="a_node24"><a xlink:href="material_8h.html" target="_top" xlink:title=" ">
<polygon fill="white" stroke="black" points="1251.5,-201.5 1251.5,-231.5 1370.5,-231.5 1370.5,-201.5 1251.5,-201.5"/>
<text text-anchor="start" x="1259.5" y="-219.5" font-family="Helvetica,sans-Serif" font-size="10.00">src/graphics/material</text>
<text text-anchor="middle" x="1311" y="-208.5" font-family="Helvetica,sans-Serif" font-size="10.00">/material.h</text>
</a>
</g>
</g>
<!-- Node1&#45;&gt;Node24 -->
<g id="edge33" class="edge">
<title>Node1&#45;&gt;Node24</title>
<path fill="none" stroke="midnightblue" d="M1416.78,-328.61C1406.74,-319.7 1395.1,-309.06 1385,-299 1362.26,-276.34 1337.5,-248.32 1323.16,-231.74"/>
<polygon fill="midnightblue" stroke="midnightblue" points="1414.61,-331.36 1424.43,-335.33 1419.23,-326.1 1414.61,-331.36"/>
</g>
<!-- Node27 -->
<g id="node27" class="node">
<title>Node27</title>
<g id="a_node27"><a xlink:href="shader__program_8h.html" target="_top" xlink:title=" ">
<polygon fill="white" stroke="black" points="1727.5,-268.5 1727.5,-298.5 1838.5,-298.5 1838.5,-268.5 1727.5,-268.5"/>
<text text-anchor="start" x="1735.5" y="-286.5" font-family="Helvetica,sans-Serif" font-size="10.00">src/graphics/shader</text>
<text text-anchor="middle" x="1783" y="-275.5" font-family="Helvetica,sans-Serif" font-size="10.00">/shader_program.h</text>
</a>
</g>
</g>
<!-- Node1&#45;&gt;Node27 -->
<g id="edge41" class="edge">
<title>Node1&#45;&gt;Node27</title>
<path fill="none" stroke="midnightblue" d="M1507.86,-336.79C1571.91,-324.62 1667.44,-306.46 1727.43,-295.06"/>
<polygon fill="midnightblue" stroke="midnightblue" points="1507.03,-333.39 1497.86,-338.69 1508.34,-340.26 1507.03,-333.39"/>
</g>
<!-- Node39 -->
<g id="node39" class="node">
<title>Node39</title>
<g id="a_node39"><a xlink:href="skybox_8h.html" target="_top" xlink:title=" ">
<polygon fill="white" stroke="black" points="1427.5,-201.5 1427.5,-231.5 1540.5,-231.5 1540.5,-201.5 1427.5,-201.5"/>
<text text-anchor="start" x="1435.5" y="-219.5" font-family="Helvetica,sans-Serif" font-size="10.00">src/graphics/texture</text>
<text text-anchor="middle" x="1484" y="-208.5" font-family="Helvetica,sans-Serif" font-size="10.00">/skybox.h</text>
</a>
</g>
</g>
<!-- Node1&#45;&gt;Node39 -->
<g id="edge69" class="edge">
<title>Node1&#45;&gt;Node39</title>
<path fill="none" stroke="midnightblue" d="M1448.74,-325.75C1457.68,-298.29 1472.11,-253.99 1479.43,-231.52"/>
<polygon fill="midnightblue" stroke="midnightblue" points="1445.37,-324.78 1445.6,-335.37 1452.03,-326.95 1445.37,-324.78"/>
</g>
<!-- Node3 -->
<g id="node3" class="node">
<title>Node3</title>
<g id="a_node3"><a xlink:href="game__scene_8cpp.html" target="_top" xlink:title=" ">
<polygon fill="white" stroke="black" points="1591,-0.5 1591,-30.5 1715,-30.5 1715,-0.5 1591,-0.5"/>
<text text-anchor="start" x="1599" y="-18.5" font-family="Helvetica,sans-Serif" font-size="10.00">src/game/scene/game</text>
<text text-anchor="middle" x="1653" y="-7.5" font-family="Helvetica,sans-Serif" font-size="10.00">_scene.cpp</text>
</a>
</g>
</g>
<!-- Node2&#45;&gt;Node3 -->
<g id="edge2" class="edge">
<title>Node2&#45;&gt;Node3</title>
<path fill="none" stroke="midnightblue" d="M1465.39,-129.67C1468.71,-111.26 1476.42,-83.62 1494,-67 1508.36,-53.42 1552.61,-39.96 1590.8,-30.36"/>
<polygon fill="midnightblue" stroke="midnightblue" points="1461.9,-129.35 1463.85,-139.77 1468.82,-130.41 1461.9,-129.35"/>
</g>
<!-- Node4 -->
<g id="node4" class="node">
<title>Node4</title>
<g id="a_node4"><a xlink:href="graphics__renderer_8h.html" target="_top" xlink:title=" ">
<polygon fill="white" stroke="black" points="780.5,-67.5 780.5,-97.5 899.5,-97.5 899.5,-67.5 780.5,-67.5"/>
<text text-anchor="start" x="788.5" y="-85.5" font-family="Helvetica,sans-Serif" font-size="10.00">src/graphics/renderer</text>
<text text-anchor="middle" x="840" y="-74.5" font-family="Helvetica,sans-Serif" font-size="10.00">/graphics_renderer.h</text>
</a>
</g>
</g>
<!-- Node2&#45;&gt;Node4 -->
<g id="edge3" class="edge">
<title>Node2&#45;&gt;Node4</title>
<path fill="none" stroke="midnightblue" d="M1412.29,-138.13C1403.55,-136.57 1394.53,-135.12 1386,-134 1175.21,-106.29 1119.49,-127.93 909,-98 905.97,-97.57 902.87,-97.08 899.75,-96.56"/>
<polygon fill="midnightblue" stroke="midnightblue" points="1411.91,-141.61 1422.37,-139.98 1413.17,-134.73 1411.91,-141.61"/>
</g>
<!-- Node7 -->
<g id="node7" class="node">
<title>Node7</title>
<g id="a_node7"><a xlink:href="scene_8cpp.html" target="_top" xlink:title=" ">
<polygon fill="white" stroke="black" points="1266,-73 1266,-92 1380,-92 1380,-73 1266,-73"/>
<text text-anchor="middle" x="1323" y="-80" font-family="Helvetica,sans-Serif" font-size="10.00">src/scene/scene.cpp</text>
</a>
</g>
</g>
<!-- Node2&#45;&gt;Node7 -->
<g id="edge7" class="edge">
<title>Node2&#45;&gt;Node7</title>
<path fill="none" stroke="midnightblue" d="M1435.24,-135.61C1407.51,-122.74 1365.66,-103.31 1341.67,-92.17"/>
<polygon fill="midnightblue" stroke="midnightblue" points="1433.87,-138.83 1444.41,-139.87 1436.81,-132.48 1433.87,-138.83"/>
</g>
<!-- Node4&#45;&gt;Node3 -->
<g id="edge5" class="edge">
<title>Node4&#45;&gt;Node3</title>
<path fill="none" stroke="midnightblue" d="M909.98,-67.03C1207.8,-29 1288.23,-68.64 1582,-31 1584.87,-30.63 1587.8,-30.21 1590.75,-29.76"/>
<polygon fill="midnightblue" stroke="midnightblue" points="909.21,-63.6 899.74,-68.36 910.11,-70.54 909.21,-63.6"/>
</g>
<!-- Node5 -->
<g id="node5" class="node">
<title>Node5</title>
<g id="a_node5"><a xlink:href="application_8cpp.html" target="_top" xlink:title=" ">
<polygon fill="white" stroke="black" points="1011.5,-6 1011.5,-25 1176.5,-25 1176.5,-6 1011.5,-6"/>
<text text-anchor="middle" x="1094" y="-13" font-family="Helvetica,sans-Serif" font-size="10.00">src/application/application.cpp</text>
</a>
</g>
</g>
<!-- Node4&#45;&gt;Node5 -->
<g id="edge4" class="edge">
<title>Node4&#45;&gt;Node5</title>
<path fill="none" stroke="midnightblue" d="M904.52,-64.99C954.29,-52.25 1021.13,-35.15 1060.67,-25.03"/>
<polygon fill="midnightblue" stroke="midnightblue" points="903.62,-61.61 894.8,-67.48 905.36,-68.39 903.62,-61.61"/>
</g>
<!-- Node6 -->
<g id="node6" class="node">
<title>Node6</title>
<g id="a_node6"><a xlink:href="graphics__renderer_8cpp.html" target="_top" xlink:title=" ">
<polygon fill="white" stroke="black" points="1876.5,-0.5 1876.5,-30.5 2003.5,-30.5 2003.5,-0.5 1876.5,-0.5"/>
<text text-anchor="start" x="1884.5" y="-18.5" font-family="Helvetica,sans-Serif" font-size="10.00">src/graphics/renderer</text>
<text text-anchor="middle" x="1940" y="-7.5" font-family="Helvetica,sans-Serif" font-size="10.00">/graphics_renderer.cpp</text>
</a>
</g>
</g>
<!-- Node4&#45;&gt;Node6 -->
<g id="edge6" class="edge">
<title>Node4&#45;&gt;Node6</title>
<path fill="none" stroke="midnightblue" d="M909.82,-67.07C1334.11,-15.98 1447.76,-80.87 1868,-31 1870.79,-30.67 1873.62,-30.29 1876.49,-29.87"/>
<polygon fill="midnightblue" stroke="midnightblue" points="909.24,-63.62 899.74,-68.3 910.09,-70.56 909.24,-63.62"/>
</g>
<!-- Node8&#45;&gt;Node3 -->
<g id="edge10" class="edge">
<title>Node8&#45;&gt;Node3</title>
<path fill="none" stroke="midnightblue" d="M1543.57,-130.4C1527.97,-122.96 1513.29,-112.55 1504,-98 1496.58,-86.39 1495.97,-78.2 1504,-67 1514.66,-52.13 1554.99,-38.99 1591,-29.84"/>
<polygon fill="midnightblue" stroke="midnightblue" points="1542.27,-133.65 1552.84,-134.45 1545.07,-127.24 1542.27,-133.65"/>
</g>
<!-- Node8&#45;&gt;Node5 -->
<g id="edge9" class="edge">
<title>Node8&#45;&gt;Node5</title>
<path fill="none" stroke="midnightblue" d="M1570.87,-130.59C1526.38,-112.29 1453.84,-84.2 1389,-67 1313.66,-47.02 1225.33,-33.12 1165.1,-25.03"/>
<polygon fill="midnightblue" stroke="midnightblue" points="1569.62,-133.86 1580.2,-134.45 1572.3,-127.39 1569.62,-133.86"/>
</g>
<!-- Node8&#45;&gt;Node6 -->
<g id="edge12" class="edge">
<title>Node8&#45;&gt;Node6</title>
<path fill="none" stroke="midnightblue" d="M1686.32,-145.67C1766.46,-141.03 1887.89,-128.98 1921,-98 1939.57,-80.63 1941.63,-48.92 1941.07,-30.6"/>
<polygon fill="midnightblue" stroke="midnightblue" points="1686.07,-142.18 1676.28,-146.23 1686.45,-149.17 1686.07,-142.18"/>
</g>
<!-- Node9 -->
<g id="node9" class="node">
<title>Node9</title>
<g id="a_node9"><a xlink:href="asset__loader_8cpp.html" target="_top" xlink:title=" ">
<polygon fill="white" stroke="black" points="1512.5,-67.5 1512.5,-97.5 1649.5,-97.5 1649.5,-67.5 1512.5,-67.5"/>
<text text-anchor="start" x="1520.5" y="-85.5" font-family="Helvetica,sans-Serif" font-size="10.00">src/graphics/asset</text>
<text text-anchor="middle" x="1581" y="-74.5" font-family="Helvetica,sans-Serif" font-size="10.00">_loader/asset_loader.cpp</text>
</a>
</g>
</g>
<!-- Node8&#45;&gt;Node9 -->
<g id="edge11" class="edge">
<title>Node8&#45;&gt;Node9</title>
<path fill="none" stroke="midnightblue" d="M1601.57,-125.28C1597.01,-116.02 1591.91,-105.66 1587.93,-97.58"/>
<polygon fill="midnightblue" stroke="midnightblue" points="1598.5,-126.97 1606.06,-134.4 1604.78,-123.88 1598.5,-126.97"/>
</g>
<!-- Node11 -->
<g id="node11" class="node">
<title>Node11</title>
<g id="a_node11"><a xlink:href="default__buffer_8h.html" target="_top" xlink:title=" ">
<polygon fill="white" stroke="black" points="962,-134.5 962,-164.5 1098,-164.5 1098,-134.5 962,-134.5"/>
<text text-anchor="start" x="970" y="-152.5" font-family="Helvetica,sans-Serif" font-size="10.00">src/graphics/framebuffer</text>
<text text-anchor="middle" x="1030" y="-141.5" font-family="Helvetica,sans-Serif" font-size="10.00">/default_buffer.h</text>
</a>
</g>
</g>
<!-- Node10&#45;&gt;Node11 -->
<g id="edge14" class="edge">
<title>Node10&#45;&gt;Node11</title>
<path fill="none" stroke="midnightblue" d="M685.18,-205.03C755.4,-195.4 861.26,-180.33 953,-165 955.82,-164.53 958.69,-164.04 961.59,-163.53"/>
<polygon fill="midnightblue" stroke="midnightblue" points="684.51,-201.58 675.08,-206.41 685.46,-208.52 684.51,-201.58"/>
</g>
<!-- Node13 -->
<g id="node13" class="node">
<title>Node13</title>
<g id="a_node13"><a xlink:href="forward__buffer_8h.html" target="_top" xlink:title=" ">
<polygon fill="white" stroke="black" points="0,-134.5 0,-164.5 136,-164.5 136,-134.5 0,-134.5"/>
<text text-anchor="start" x="8" y="-152.5" font-family="Helvetica,sans-Serif" font-size="10.00">src/graphics/framebuffer</text>
<text text-anchor="middle" x="68" y="-141.5" font-family="Helvetica,sans-Serif" font-size="10.00">/forward_buffer.h</text>
</a>
</g>
</g>
<!-- Node10&#45;&gt;Node13 -->
<g id="edge17" class="edge">
<title>Node10&#45;&gt;Node13</title>
<path fill="none" stroke="midnightblue" d="M528.61,-208.79C436.51,-200.48 279.24,-184.95 145,-165 142.17,-164.58 139.29,-164.13 136.39,-163.66"/>
<polygon fill="midnightblue" stroke="midnightblue" points="528.41,-212.29 538.69,-209.7 529.04,-205.32 528.41,-212.29"/>
</g>
<!-- Node15 -->
<g id="node15" class="node">
<title>Node15</title>
<g id="a_node15"><a xlink:href="framebuffer_8cpp.html" target="_top" xlink:title=" ">
<polygon fill="white" stroke="black" points="154,-134.5 154,-164.5 290,-164.5 290,-134.5 154,-134.5"/>
<text text-anchor="start" x="162" y="-152.5" font-family="Helvetica,sans-Serif" font-size="10.00">src/graphics/framebuffer</text>
<text text-anchor="middle" x="222" y="-141.5" font-family="Helvetica,sans-Serif" font-size="10.00">/framebuffer.cpp</text>
</a>
</g>
</g>
<!-- Node10&#45;&gt;Node15 -->
<g id="edge20" class="edge">
<title>Node10&#45;&gt;Node15</title>
<path fill="none" stroke="midnightblue" d="M528.57,-203.16C466.28,-193.24 376.97,-178.73 299,-165 296.05,-164.48 293.04,-163.94 290,-163.4"/>
<polygon fill="midnightblue" stroke="midnightblue" points="528.29,-206.66 538.72,-204.78 529.39,-199.75 528.29,-206.66"/>
</g>
<!-- Node16 -->
<g id="node16" class="node">
<title>Node16</title>
<g id="a_node16"><a xlink:href="geometry__buffer_8h.html" target="_top" xlink:title=" ">
<polygon fill="white" stroke="black" points="308,-134.5 308,-164.5 444,-164.5 444,-134.5 308,-134.5"/>
<text text-anchor="start" x="316" y="-152.5" font-family="Helvetica,sans-Serif" font-size="10.00">src/graphics/framebuffer</text>
<text text-anchor="middle" x="376" y="-141.5" font-family="Helvetica,sans-Serif" font-size="10.00">/geometry_buffer.h</text>
</a>
</g>
</g>
<!-- Node10&#45;&gt;Node16 -->
<g id="edge21" class="edge">
<title>Node10&#45;&gt;Node16</title>
<path fill="none" stroke="midnightblue" d="M547.35,-198.71C509.76,-188.14 461.77,-174.63 426.15,-164.61"/>
<polygon fill="midnightblue" stroke="midnightblue" points="546.59,-202.14 557.16,-201.48 548.48,-195.4 546.59,-202.14"/>
</g>
<!-- Node18 -->
<g id="node18" class="node">
<title>Node18</title>
<g id="a_node18"><a xlink:href="light__buffer_8h.html" target="_top" xlink:title=" ">
<polygon fill="white" stroke="black" points="616,-134.5 616,-164.5 752,-164.5 752,-134.5 616,-134.5"/>
<text text-anchor="start" x="624" y="-152.5" font-family="Helvetica,sans-Serif" font-size="10.00">src/graphics/framebuffer</text>
<text text-anchor="middle" x="684" y="-141.5" font-family="Helvetica,sans-Serif" font-size="10.00">/light_buffer.h</text>
</a>
</g>
</g>
<!-- Node10&#45;&gt;Node18 -->
<g id="edge24" class="edge">
<title>Node10&#45;&gt;Node18</title>
<path fill="none" stroke="midnightblue" d="M631.42,-194.88C643.12,-185.01 656.84,-173.43 667.32,-164.58"/>
<polygon fill="midnightblue" stroke="midnightblue" points="629.09,-192.27 623.71,-201.4 633.61,-197.62 629.09,-192.27"/>
</g>
<!-- Node20 -->
<g id="node20" class="node">
<title>Node20</title>
<g id="a_node20"><a xlink:href="post__proc__buffer_8h.html" target="_top" xlink:title=" ">
<polygon fill="white" stroke="black" points="462,-134.5 462,-164.5 598,-164.5 598,-134.5 462,-134.5"/>
<text text-anchor="start" x="470" y="-152.5" font-family="Helvetica,sans-Serif" font-size="10.00">src/graphics/framebuffer</text>
<text text-anchor="middle" x="530" y="-141.5" font-family="Helvetica,sans-Serif" font-size="10.00">/post_proc_buffer.h</text>
</a>
</g>
</g>
<!-- Node10&#45;&gt;Node20 -->
<g id="edge27" class="edge">
<title>Node10&#45;&gt;Node20</title>
<path fill="none" stroke="midnightblue" d="M582.58,-194.88C570.88,-185.01 557.16,-173.43 546.68,-164.58"/>
<polygon fill="midnightblue" stroke="midnightblue" points="580.39,-197.62 590.29,-201.4 584.91,-192.27 580.39,-197.62"/>
</g>
<!-- Node22 -->
<g id="node22" class="node">
<title>Node22</title>
<g id="a_node22"><a xlink:href="shadow__buffer_8h.html" target="_top" xlink:title=" ">
<polygon fill="white" stroke="black" points="808,-134.5 808,-164.5 944,-164.5 944,-134.5 808,-134.5"/>
<text text-anchor="start" x="816" y="-152.5" font-family="Helvetica,sans-Serif" font-size="10.00">src/graphics/framebuffer</text>
<text text-anchor="middle" x="876" y="-141.5" font-family="Helvetica,sans-Serif" font-size="10.00">/shadow_buffer.h</text>
</a>
</g>
</g>
<!-- Node10&#45;&gt;Node22 -->
<g id="edge30" class="edge">
<title>Node10&#45;&gt;Node22</title>
<path fill="none" stroke="midnightblue" d="M674.79,-199.12C718.81,-188.48 775.59,-174.76 817.6,-164.61"/>
<polygon fill="midnightblue" stroke="midnightblue" points="673.94,-195.73 665.04,-201.48 675.58,-202.53 673.94,-195.73"/>
</g>
<!-- Node11&#45;&gt;Node4 -->
<g id="edge16" class="edge">
<title>Node11&#45;&gt;Node4</title>
<path fill="none" stroke="midnightblue" d="M979.11,-131.09C948.44,-120.6 909.89,-107.41 881.15,-97.58"/>
<polygon fill="midnightblue" stroke="midnightblue" points="978.18,-134.47 988.77,-134.4 980.44,-127.85 978.18,-134.47"/>
</g>
<!-- Node12 -->
<g id="node12" class="node">
<title>Node12</title>
<g id="a_node12"><a xlink:href="default__buffer_8cpp.html" target="_top" xlink:title=" ">
<polygon fill="white" stroke="black" points="1072,-67.5 1072,-97.5 1208,-97.5 1208,-67.5 1072,-67.5"/>
<text text-anchor="start" x="1080" y="-85.5" font-family="Helvetica,sans-Serif" font-size="10.00">src/graphics/framebuffer</text>
<text text-anchor="middle" x="1140" y="-74.5" font-family="Helvetica,sans-Serif" font-size="10.00">/default_buffer.cpp</text>
</a>
</g>
</g>
<!-- Node11&#45;&gt;Node12 -->
<g id="edge15" class="edge">
<title>Node11&#45;&gt;Node12</title>
<path fill="none" stroke="midnightblue" d="M1062.5,-129.3C1079.71,-119.12 1100.48,-106.85 1116.18,-97.58"/>
<polygon fill="midnightblue" stroke="midnightblue" points="1060.7,-126.3 1053.87,-134.4 1064.26,-132.32 1060.7,-126.3"/>
</g>
<!-- Node13&#45;&gt;Node4 -->
<g id="edge19" class="edge">
<title>Node13&#45;&gt;Node4</title>
<path fill="none" stroke="midnightblue" d="M146.55,-133.92C418.97,-101.29 492.05,-130.42 761,-98 767.23,-97.25 773.71,-96.31 780.16,-95.28"/>
<polygon fill="midnightblue" stroke="midnightblue" points="145.87,-130.48 136.36,-135.16 146.71,-137.43 145.87,-130.48"/>
</g>
<!-- Node14 -->
<g id="node14" class="node">
<title>Node14</title>
<g id="a_node14"><a xlink:href="forward__buffer_8cpp.html" target="_top" xlink:title=" ">
<polygon fill="white" stroke="black" points="0,-67.5 0,-97.5 136,-97.5 136,-67.5 0,-67.5"/>
<text text-anchor="start" x="8" y="-85.5" font-family="Helvetica,sans-Serif" font-size="10.00">src/graphics/framebuffer</text>
<text text-anchor="middle" x="68" y="-74.5" font-family="Helvetica,sans-Serif" font-size="10.00">/forward_buffer.cpp</text>
</a>
</g>
</g>
<!-- Node13&#45;&gt;Node14 -->
<g id="edge18" class="edge">
<title>Node13&#45;&gt;Node14</title>
<path fill="none" stroke="midnightblue" d="M68,-124.11C68,-115.15 68,-105.32 68,-97.58"/>
<polygon fill="midnightblue" stroke="midnightblue" points="64.5,-124.4 68,-134.4 71.5,-124.4 64.5,-124.4"/>
</g>
<!-- Node16&#45;&gt;Node4 -->
<g id="edge23" class="edge">
<title>Node16&#45;&gt;Node4</title>
<path fill="none" stroke="midnightblue" d="M454.4,-133.85C590.96,-113.47 627.9,-117.97 761,-98 767.21,-97.07 773.67,-96.02 780.11,-94.92"/>
<polygon fill="midnightblue" stroke="midnightblue" points="453.76,-130.41 444.39,-135.36 454.8,-137.33 453.76,-130.41"/>
</g>
<!-- Node17 -->
<g id="node17" class="node">
<title>Node17</title>
<g id="a_node17"><a xlink:href="geometry__buffer_8cpp.html" target="_top" xlink:title=" ">
<polygon fill="white" stroke="black" points="308,-67.5 308,-97.5 444,-97.5 444,-67.5 308,-67.5"/>
<text text-anchor="start" x="316" y="-85.5" font-family="Helvetica,sans-Serif" font-size="10.00">src/graphics/framebuffer</text>
<text text-anchor="middle" x="376" y="-74.5" font-family="Helvetica,sans-Serif" font-size="10.00">/geometry_buffer.cpp</text>
</a>
</g>
</g>
<!-- Node16&#45;&gt;Node17 -->
<g id="edge22" class="edge">
<title>Node16&#45;&gt;Node17</title>
<path fill="none" stroke="midnightblue" d="M376,-124.11C376,-115.15 376,-105.32 376,-97.58"/>
<polygon fill="midnightblue" stroke="midnightblue" points="372.5,-124.4 376,-134.4 379.5,-124.4 372.5,-124.4"/>
</g>
<!-- Node18&#45;&gt;Node4 -->
<g id="edge26" class="edge">
<title>Node18&#45;&gt;Node4</title>
<path fill="none" stroke="midnightblue" d="M727.09,-130.54C752.06,-120.14 783.03,-107.24 806.22,-97.58"/>
<polygon fill="midnightblue" stroke="midnightblue" points="725.73,-127.32 717.85,-134.4 728.43,-133.78 725.73,-127.32"/>
</g>
<!-- Node19 -->
<g id="node19" class="node">
<title>Node19</title>
<g id="a_node19"><a xlink:href="light__buffer_8cpp.html" target="_top" xlink:title=" ">
<polygon fill="white" stroke="black" points="616,-67.5 616,-97.5 752,-97.5 752,-67.5 616,-67.5"/>
<text text-anchor="start" x="624" y="-85.5" font-family="Helvetica,sans-Serif" font-size="10.00">src/graphics/framebuffer</text>
<text text-anchor="middle" x="684" y="-74.5" font-family="Helvetica,sans-Serif" font-size="10.00">/light_buffer.cpp</text>
</a>
</g>
</g>
<!-- Node18&#45;&gt;Node19 -->
<g id="edge25" class="edge">
<title>Node18&#45;&gt;Node19</title>
<path fill="none" stroke="midnightblue" d="M684,-124.11C684,-115.15 684,-105.32 684,-97.58"/>
<polygon fill="midnightblue" stroke="midnightblue" points="680.5,-124.4 684,-134.4 687.5,-124.4 680.5,-124.4"/>
</g>
<!-- Node20&#45;&gt;Node4 -->
<g id="edge29" class="edge">
<title>Node20&#45;&gt;Node4</title>
<path fill="none" stroke="midnightblue" d="M606.69,-132.42C660.3,-121.18 730.88,-106.38 780.31,-96.02"/>
<polygon fill="midnightblue" stroke="midnightblue" points="605.95,-129 596.88,-134.48 607.39,-135.85 605.95,-129"/>
</g>
<!-- Node21 -->
<g id="node21" class="node">
<title>Node21</title>
<g id="a_node21"><a xlink:href="post__proc__buffer_8cpp.html" target="_top" xlink:title=" ">
<polygon fill="white" stroke="black" points="462,-67.5 462,-97.5 598,-97.5 598,-67.5 462,-67.5"/>
<text text-anchor="start" x="470" y="-85.5" font-family="Helvetica,sans-Serif" font-size="10.00">src/graphics/framebuffer</text>
<text text-anchor="middle" x="530" y="-74.5" font-family="Helvetica,sans-Serif" font-size="10.00">/post_proc_buffer.cpp</text>
</a>
</g>
</g>
<!-- Node20&#45;&gt;Node21 -->
<g id="edge28" class="edge">
<title>Node20&#45;&gt;Node21</title>
<path fill="none" stroke="midnightblue" d="M530,-124.11C530,-115.15 530,-105.32 530,-97.58"/>
<polygon fill="midnightblue" stroke="midnightblue" points="526.5,-124.4 530,-134.4 533.5,-124.4 526.5,-124.4"/>
</g>
<!-- Node22&#45;&gt;Node4 -->
<g id="edge32" class="edge">
<title>Node22&#45;&gt;Node4</title>
<path fill="none" stroke="midnightblue" d="M863.3,-125.58C858.13,-116.24 852.32,-105.75 847.8,-97.58"/>
<polygon fill="midnightblue" stroke="midnightblue" points="860.28,-127.34 868.19,-134.4 866.41,-123.95 860.28,-127.34"/>
</g>
<!-- Node23 -->
<g id="node23" class="node">
<title>Node23</title>
<g id="a_node23"><a xlink:href="shadow__buffer_8cpp.html" target="_top" xlink:title=" ">
<polygon fill="white" stroke="black" points="918,-67.5 918,-97.5 1054,-97.5 1054,-67.5 918,-67.5"/>
<text text-anchor="start" x="926" y="-85.5" font-family="Helvetica,sans-Serif" font-size="10.00">src/graphics/framebuffer</text>
<text text-anchor="middle" x="986" y="-74.5" font-family="Helvetica,sans-Serif" font-size="10.00">/shadow_buffer.cpp</text>
</a>
</g>
</g>
<!-- Node22&#45;&gt;Node23 -->
<g id="edge31" class="edge">
<title>Node22&#45;&gt;Node23</title>
<path fill="none" stroke="midnightblue" d="M908.5,-129.3C925.71,-119.12 946.48,-106.85 962.18,-97.58"/>
<polygon fill="midnightblue" stroke="midnightblue" points="906.7,-126.3 899.87,-134.4 910.26,-132.32 906.7,-126.3"/>
</g>
<!-- Node24&#45;&gt;Node4 -->
<g id="edge40" class="edge">
<title>Node24&#45;&gt;Node4</title>
<path fill="none" stroke="midnightblue" d="M1240.96,-213.71C1107.67,-209.57 828.12,-197.13 799,-165 780.71,-144.81 805.5,-114.96 823.75,-97.55"/>
<polygon fill="midnightblue" stroke="midnightblue" points="1240.98,-217.21 1251.08,-214.02 1241.19,-210.21 1240.98,-217.21"/>
</g>
<!-- Node24&#45;&gt;Node8 -->
<g id="edge38" class="edge">
<title>Node24&#45;&gt;Node8</title>
<path fill="none" stroke="midnightblue" d="M1380.62,-200.51C1431.65,-189.53 1500.36,-174.74 1549.81,-164.1"/>
<polygon fill="midnightblue" stroke="midnightblue" points="1379.71,-197.13 1370.67,-202.66 1381.18,-203.98 1379.71,-197.13"/>
</g>
<!-- Node25 -->
<g id="node25" class="node">
<title>Node25</title>
<g id="a_node25"><a xlink:href="render__mesh_8h.html" target="_top" xlink:title=" ">
<polygon fill="white" stroke="black" points="1253.5,-134.5 1253.5,-164.5 1376.5,-164.5 1376.5,-134.5 1253.5,-134.5"/>
<text text-anchor="start" x="1261.5" y="-152.5" font-family="Helvetica,sans-Serif" font-size="10.00">src/component/render</text>
<text text-anchor="middle" x="1315" y="-141.5" font-family="Helvetica,sans-Serif" font-size="10.00">_mesh.h</text>
</a>
</g>
</g>
<!-- Node24&#45;&gt;Node25 -->
<g id="edge34" class="edge">
<title>Node24&#45;&gt;Node25</title>
<path fill="none" stroke="midnightblue" d="M1312.48,-191.4C1313.04,-182.37 1313.65,-172.41 1314.13,-164.58"/>
<polygon fill="midnightblue" stroke="midnightblue" points="1308.99,-191.2 1311.87,-201.4 1315.98,-191.63 1308.99,-191.2"/>
</g>
<!-- Node26 -->
<g id="node26" class="node">
<title>Node26</title>
<g id="a_node26"><a xlink:href="material_8cpp.html" target="_top" xlink:title=" ">
<polygon fill="white" stroke="black" points="1116.5,-134.5 1116.5,-164.5 1235.5,-164.5 1235.5,-134.5 1116.5,-134.5"/>
<text text-anchor="start" x="1124.5" y="-152.5" font-family="Helvetica,sans-Serif" font-size="10.00">src/graphics/material</text>
<text text-anchor="middle" x="1176" y="-141.5" font-family="Helvetica,sans-Serif" font-size="10.00">/material.cpp</text>
</a>
</g>
</g>
<!-- Node24&#45;&gt;Node26 -->
<g id="edge39" class="edge">
<title>Node24&#45;&gt;Node26</title>
<path fill="none" stroke="midnightblue" d="M1272.56,-196.99C1251.16,-186.69 1224.95,-174.07 1205.24,-164.58"/>
<polygon fill="midnightblue" stroke="midnightblue" points="1271.18,-200.21 1281.71,-201.4 1274.22,-193.9 1271.18,-200.21"/>
</g>
<!-- Node25&#45;&gt;Node3 -->
<g id="edge35" class="edge">
<title>Node25&#45;&gt;Node3</title>
<path fill="none" stroke="midnightblue" d="M1284.4,-128.09C1262.48,-111.01 1239.64,-86.39 1257,-67 1305.47,-12.86 1510.22,-42.28 1582,-31 1584.86,-30.55 1587.78,-30.07 1590.72,-29.55"/>
<polygon fill="midnightblue" stroke="midnightblue" points="1282.56,-131.08 1292.67,-134.24 1286.74,-125.46 1282.56,-131.08"/>
</g>
<!-- Node25&#45;&gt;Node4 -->
<g id="edge36" class="edge">
<title>Node25&#45;&gt;Node4</title>
<path fill="none" stroke="midnightblue" d="M1243.5,-134.03C1094.3,-111.43 1053.72,-120.92 909,-98 905.98,-97.52 902.89,-97 899.77,-96.44"/>
<polygon fill="midnightblue" stroke="midnightblue" points="1243.07,-137.51 1253.49,-135.57 1244.14,-130.59 1243.07,-137.51"/>
</g>
<!-- Node25&#45;&gt;Node7 -->
<g id="edge37" class="edge">
<title>Node25&#45;&gt;Node7</title>
<path fill="none" stroke="midnightblue" d="M1317.98,-124.25C1319.37,-113.02 1320.92,-100.38 1321.93,-92.19"/>
<polygon fill="midnightblue" stroke="midnightblue" points="1314.48,-124.04 1316.74,-134.4 1321.43,-124.9 1314.48,-124.04"/>
</g>
<!-- Node27&#45;&gt;Node2 -->
<g id="edge42" class="edge">
<title>Node27&#45;&gt;Node2</title>
<path fill="none" stroke="midnightblue" d="M1723.44,-265.49C1694.04,-256.52 1658.26,-244.75 1627,-232 1570.77,-209.07 1507.15,-174.99 1478.47,-159.16"/>
<polygon fill="midnightblue" stroke="midnightblue" points="1722.56,-268.88 1733.15,-268.42 1724.58,-262.18 1722.56,-268.88"/>
</g>
<!-- Node27&#45;&gt;Node8 -->
<g id="edge43" class="edge">
<title>Node27&#45;&gt;Node8</title>
<path fill="none" stroke="midnightblue" d="M1783.36,-258.21C1782.33,-240.3 1778.08,-216.46 1764,-201 1741.58,-176.37 1706.81,-163.74 1676.28,-157.27"/>
<polygon fill="midnightblue" stroke="midnightblue" points="1779.86,-258.32 1783.64,-268.22 1786.86,-258.12 1779.86,-258.32"/>
</g>
<!-- Node27&#45;&gt;Node24 -->
<g id="edge44" class="edge">
<title>Node27&#45;&gt;Node24</title>
<path fill="none" stroke="midnightblue" d="M1717.45,-273.47C1625.48,-260.81 1459.5,-237.95 1370.77,-225.73"/>
<polygon fill="midnightblue" stroke="midnightblue" points="1717.08,-276.96 1727.47,-274.85 1718.04,-270.02 1717.08,-276.96"/>
</g>
<!-- Node28 -->
<g id="node28" class="node">
<title>Node28</title>
<g id="a_node28"><a xlink:href="forward__shader_8h.html" target="_top" xlink:title=" ">
<polygon fill="white" stroke="black" points="1968.5,-67.5 1968.5,-97.5 2079.5,-97.5 2079.5,-67.5 1968.5,-67.5"/>
<text text-anchor="start" x="1976.5" y="-85.5" font-family="Helvetica,sans-Serif" font-size="10.00">src/graphics/shader</text>
<text text-anchor="middle" x="2024" y="-74.5" font-family="Helvetica,sans-Serif" font-size="10.00">/forward_shader.h</text>
</a>
</g>
</g>
<!-- Node27&#45;&gt;Node28 -->
<g id="edge45" class="edge">
<title>Node27&#45;&gt;Node28</title>
<path fill="none" stroke="midnightblue" d="M1808.26,-261.64C1857.46,-221.02 1964.95,-132.26 2006.82,-97.68"/>
<polygon fill="midnightblue" stroke="midnightblue" points="1805.81,-259.12 1800.33,-268.19 1810.27,-264.52 1805.81,-259.12"/>
</g>
<!-- Node30 -->
<g id="node30" class="node">
<title>Node30</title>
<g id="a_node30"><a xlink:href="geometry__shader_8h.html" target="_top" xlink:title=" ">
<polygon fill="white" stroke="black" points="1667.5,-67.5 1667.5,-97.5 1780.5,-97.5 1780.5,-67.5 1667.5,-67.5"/>
<text text-anchor="start" x="1675.5" y="-85.5" font-family="Helvetica,sans-Serif" font-size="10.00">src/graphics/shader</text>
<text text-anchor="middle" x="1724" y="-74.5" font-family="Helvetica,sans-Serif" font-size="10.00">/geometry_shader.h</text>
</a>
</g>
</g>
<!-- Node27&#45;&gt;Node30 -->
<g id="edge49" class="edge">
<title>Node27&#45;&gt;Node30</title>
<path fill="none" stroke="midnightblue" d="M1786.9,-258.07C1788.71,-241.69 1789.58,-219.77 1785,-201 1775.19,-160.81 1749.02,-119.05 1734.34,-97.79"/>
<polygon fill="midnightblue" stroke="midnightblue" points="1783.37,-258.05 1785.55,-268.42 1790.31,-258.96 1783.37,-258.05"/>
</g>
<!-- Node32 -->
<g id="node32" class="node">
<title>Node32</title>
<g id="a_node32"><a xlink:href="light__shader_8h.html" target="_top" xlink:title=" ">
<polygon fill="white" stroke="black" points="2097.5,-67.5 2097.5,-97.5 2208.5,-97.5 2208.5,-67.5 2097.5,-67.5"/>
<text text-anchor="start" x="2105.5" y="-85.5" font-family="Helvetica,sans-Serif" font-size="10.00">src/graphics/shader</text>
<text text-anchor="middle" x="2153" y="-74.5" font-family="Helvetica,sans-Serif" font-size="10.00">/light_shader.h</text>
</a>
</g>
</g>
<!-- Node27&#45;&gt;Node32 -->
<g id="edge53" class="edge">
<title>Node27&#45;&gt;Node32</title>
<path fill="none" stroke="midnightblue" d="M1818.17,-263.61C1835.83,-254.13 1857.55,-242.46 1877,-232 1968.78,-182.66 2077.69,-124.04 2126.74,-97.63"/>
<polygon fill="midnightblue" stroke="midnightblue" points="1816.49,-260.54 1809.34,-268.36 1819.81,-266.71 1816.49,-260.54"/>
</g>
<!-- Node34 -->
<g id="node34" class="node">
<title>Node34</title>
<g id="a_node34"><a xlink:href="post__proc__shader_8h.html" target="_top" xlink:title=" ">
<polygon fill="white" stroke="black" points="1798.5,-67.5 1798.5,-97.5 1911.5,-97.5 1911.5,-67.5 1798.5,-67.5"/>
<text text-anchor="start" x="1806.5" y="-85.5" font-family="Helvetica,sans-Serif" font-size="10.00">src/graphics/shader</text>
<text text-anchor="middle" x="1855" y="-74.5" font-family="Helvetica,sans-Serif" font-size="10.00">/post_proc_shader.h</text>
</a>
</g>
</g>
<!-- Node27&#45;&gt;Node34 -->
<g id="edge57" class="edge">
<title>Node27&#45;&gt;Node34</title>
<path fill="none" stroke="midnightblue" d="M1791.67,-258.53C1806.82,-216.65 1837.67,-131.4 1849.87,-97.68"/>
<polygon fill="midnightblue" stroke="midnightblue" points="1788.29,-257.59 1788.18,-268.19 1794.87,-259.98 1788.29,-257.59"/>
</g>
<!-- Node36 -->
<g id="node36" class="node">
<title>Node36</title>
<g id="a_node36"><a xlink:href="shader__program_8cpp.html" target="_top" xlink:title=" ">
<polygon fill="white" stroke="black" points="1635.5,-201.5 1635.5,-231.5 1754.5,-231.5 1754.5,-201.5 1635.5,-201.5"/>
<text text-anchor="start" x="1643.5" y="-219.5" font-family="Helvetica,sans-Serif" font-size="10.00">src/graphics/shader</text>
<text text-anchor="middle" x="1695" y="-208.5" font-family="Helvetica,sans-Serif" font-size="10.00">/shader_program.cpp</text>
</a>
</g>
</g>
<!-- Node27&#45;&gt;Node36 -->
<g id="edge61" class="edge">
<title>Node27&#45;&gt;Node36</title>
<path fill="none" stroke="midnightblue" d="M1755.86,-262.45C1742.32,-252.45 1726.27,-240.6 1714.06,-231.58"/>
<polygon fill="midnightblue" stroke="midnightblue" points="1753.78,-265.27 1763.91,-268.4 1757.94,-259.64 1753.78,-265.27"/>
</g>
<!-- Node37 -->
<g id="node37" class="node">
<title>Node37</title>
<g id="a_node37"><a xlink:href="skybox__shader_8h.html" target="_top" xlink:title=" ">
<polygon fill="white" stroke="black" points="2226.5,-67.5 2226.5,-97.5 2337.5,-97.5 2337.5,-67.5 2226.5,-67.5"/>
<text text-anchor="start" x="2234.5" y="-85.5" font-family="Helvetica,sans-Serif" font-size="10.00">src/graphics/shader</text>
<text text-anchor="middle" x="2282" y="-74.5" font-family="Helvetica,sans-Serif" font-size="10.00">/skybox_shader.h</text>
</a>
</g>
</g>
<!-- Node27&#45;&gt;Node37 -->
<g id="edge62" class="edge">
<title>Node27&#45;&gt;Node37</title>
<path fill="none" stroke="midnightblue" d="M1830.71,-264.86C1856.35,-255.3 1888.47,-243.18 1917,-232 2039.62,-183.96 2184.21,-124.2 2248.4,-97.51"/>
<polygon fill="midnightblue" stroke="midnightblue" points="1829.37,-261.63 1821.22,-268.4 1831.81,-268.19 1829.37,-261.63"/>
</g>
<!-- Node27&#45;&gt;Node39 -->
<g id="edge66" class="edge">
<title>Node27&#45;&gt;Node39</title>
<path fill="none" stroke="midnightblue" d="M1717.5,-268.26C1664.58,-256.76 1590.87,-240.73 1540.51,-229.78"/>
<polygon fill="midnightblue" stroke="midnightblue" points="1716.95,-271.72 1727.46,-270.43 1718.43,-264.88 1716.95,-271.72"/>
</g>
<!-- Node28&#45;&gt;Node3 -->
<g id="edge46" class="edge">
<title>Node28&#45;&gt;Node3</title>
<path fill="none" stroke="midnightblue" d="M1958.05,-70.97C1897.4,-61.14 1805.01,-45.81 1725,-31 1721.74,-30.4 1718.4,-29.77 1715.03,-29.12"/>
<polygon fill="midnightblue" stroke="midnightblue" points="1957.82,-74.48 1968.25,-72.62 1958.94,-67.57 1957.82,-74.48"/>
</g>
<!-- Node28&#45;&gt;Node6 -->
<g id="edge47" class="edge">
<title>Node28&#45;&gt;Node6</title>
<path fill="none" stroke="midnightblue" d="M1997.72,-61.17C1984.88,-51.23 1969.74,-39.51 1958.19,-30.58"/>
<polygon fill="midnightblue" stroke="midnightblue" points="1995.72,-64.04 2005.77,-67.4 2000.01,-58.51 1995.72,-64.04"/>
</g>
<!-- Node29 -->
<g id="node29" class="node">
<title>Node29</title>
<g id="a_node29"><a xlink:href="forward__shader_8cpp.html" target="_top" xlink:title=" ">
<polygon fill="white" stroke="black" points="2021.5,-0.5 2021.5,-30.5 2136.5,-30.5 2136.5,-0.5 2021.5,-0.5"/>
<text text-anchor="start" x="2029.5" y="-18.5" font-family="Helvetica,sans-Serif" font-size="10.00">src/graphics/shader</text>
<text text-anchor="middle" x="2079" y="-7.5" font-family="Helvetica,sans-Serif" font-size="10.00">/forward_shader.cpp</text>
</a>
</g>
</g>
<!-- Node28&#45;&gt;Node29 -->
<g id="edge48" class="edge">
<title>Node28&#45;&gt;Node29</title>
<path fill="none" stroke="midnightblue" d="M2042.42,-59.74C2050.55,-50.12 2059.89,-39.09 2067.09,-30.58"/>
<polygon fill="midnightblue" stroke="midnightblue" points="2039.72,-57.5 2035.93,-67.4 2045.07,-62.02 2039.72,-57.5"/>
</g>
<!-- Node30&#45;&gt;Node3 -->
<g id="edge50" class="edge">
<title>Node30&#45;&gt;Node3</title>
<path fill="none" stroke="midnightblue" d="M1701.17,-60.6C1690.45,-50.78 1677.95,-39.34 1668.38,-30.58"/>
<polygon fill="midnightblue" stroke="midnightblue" points="1698.85,-63.22 1708.59,-67.4 1703.58,-58.06 1698.85,-63.22"/>
</g>
<!-- Node30&#45;&gt;Node6 -->
<g id="edge51" class="edge">
<title>Node30&#45;&gt;Node6</title>
<path fill="none" stroke="midnightblue" d="M1780.23,-64.58C1815.31,-54.02 1859.94,-40.59 1893.11,-30.61"/>
<polygon fill="midnightblue" stroke="midnightblue" points="1779.17,-61.24 1770.6,-67.48 1781.19,-67.95 1779.17,-61.24"/>
</g>
<!-- Node31 -->
<g id="node31" class="node">
<title>Node31</title>
<g id="a_node31"><a xlink:href="geometry__shader_8cpp.html" target="_top" xlink:title=" ">
<polygon fill="white" stroke="black" points="1447.5,-0.5 1447.5,-30.5 1572.5,-30.5 1572.5,-0.5 1447.5,-0.5"/>
<text text-anchor="start" x="1455.5" y="-18.5" font-family="Helvetica,sans-Serif" font-size="10.00">src/graphics/shader</text>
<text text-anchor="middle" x="1510" y="-7.5" font-family="Helvetica,sans-Serif" font-size="10.00">/geometry_shader.cpp</text>
</a>
</g>
</g>
<!-- Node30&#45;&gt;Node31 -->
<g id="edge52" class="edge">
<title>Node30&#45;&gt;Node31</title>
<path fill="none" stroke="midnightblue" d="M1667.85,-64.44C1633.16,-53.91 1589.18,-40.55 1556.46,-30.61"/>
<polygon fill="midnightblue" stroke="midnightblue" points="1667.24,-67.92 1677.83,-67.48 1669.28,-61.22 1667.24,-67.92"/>
</g>
<!-- Node32&#45;&gt;Node3 -->
<g id="edge54" class="edge">
<title>Node32&#45;&gt;Node3</title>
<path fill="none" stroke="midnightblue" d="M2087.01,-66.8C1926.72,-41.55 1882.48,-54.58 1725,-31 1721.85,-30.53 1718.62,-30.01 1715.37,-29.46"/>
<polygon fill="midnightblue" stroke="midnightblue" points="2086.8,-70.31 2097.23,-68.44 2087.91,-63.4 2086.8,-70.31"/>
</g>
<!-- Node32&#45;&gt;Node6 -->
<g id="edge55" class="edge">
<title>Node32&#45;&gt;Node6</title>
<path fill="none" stroke="midnightblue" d="M2097.11,-64.44C2062.58,-53.91 2018.81,-40.55 1986.24,-30.61"/>
<polygon fill="midnightblue" stroke="midnightblue" points="2096.46,-67.9 2107.04,-67.48 2098.5,-61.21 2096.46,-67.9"/>
</g>
<!-- Node33 -->
<g id="node33" class="node">
<title>Node33</title>
<g id="a_node33"><a xlink:href="light__shader_8cpp.html" target="_top" xlink:title=" ">
<polygon fill="white" stroke="black" points="2154.5,-0.5 2154.5,-30.5 2265.5,-30.5 2265.5,-0.5 2154.5,-0.5"/>
<text text-anchor="start" x="2162.5" y="-18.5" font-family="Helvetica,sans-Serif" font-size="10.00">src/graphics/shader</text>
<text text-anchor="middle" x="2210" y="-7.5" font-family="Helvetica,sans-Serif" font-size="10.00">/light_shader.cpp</text>
</a>
</g>
</g>
<!-- Node32&#45;&gt;Node33 -->
<g id="edge56" class="edge">
<title>Node32&#45;&gt;Node33</title>
<path fill="none" stroke="midnightblue" d="M2172.09,-59.74C2180.52,-50.12 2190.19,-39.09 2197.66,-30.58"/>
<polygon fill="midnightblue" stroke="midnightblue" points="2169.33,-57.57 2165.37,-67.4 2174.59,-62.18 2169.33,-57.57"/>
</g>
<!-- Node34&#45;&gt;Node3 -->
<g id="edge58" class="edge">
<title>Node34&#45;&gt;Node3</title>
<path fill="none" stroke="midnightblue" d="M1801.32,-64.23C1768.65,-53.71 1727.43,-40.45 1696.75,-30.58"/>
<polygon fill="midnightblue" stroke="midnightblue" points="1800.58,-67.66 1811.17,-67.4 1802.72,-61 1800.58,-67.66"/>
</g>
<!-- Node34&#45;&gt;Node6 -->
<g id="edge59" class="edge">
<title>Node34&#45;&gt;Node6</title>
<path fill="none" stroke="midnightblue" d="M1881.59,-61.17C1894.59,-51.23 1909.9,-39.51 1921.59,-30.58"/>
<polygon fill="midnightblue" stroke="midnightblue" points="1879.26,-58.54 1873.44,-67.4 1883.51,-64.1 1879.26,-58.54"/>
</g>
<!-- Node35 -->
<g id="node35" class="node">
<title>Node35</title>
<g id="a_node35"><a xlink:href="post__proc__shader_8cpp.html" target="_top" xlink:title=" ">
<polygon fill="white" stroke="black" points="1733.5,-0.5 1733.5,-30.5 1858.5,-30.5 1858.5,-0.5 1733.5,-0.5"/>
<text text-anchor="start" x="1741.5" y="-18.5" font-family="Helvetica,sans-Serif" font-size="10.00">src/graphics/shader</text>
<text text-anchor="middle" x="1796" y="-7.5" font-family="Helvetica,sans-Serif" font-size="10.00">/post_proc_shader.cpp</text>
</a>
</g>
</g>
<!-- Node34&#45;&gt;Node35 -->
<g id="edge60" class="edge">
<title>Node34&#45;&gt;Node35</title>
<path fill="none" stroke="midnightblue" d="M1835.25,-59.74C1826.52,-50.12 1816.5,-39.09 1808.78,-30.58"/>
<polygon fill="midnightblue" stroke="midnightblue" points="1832.89,-62.34 1842.2,-67.4 1838.07,-57.64 1832.89,-62.34"/>
</g>
<!-- Node37&#45;&gt;Node3 -->
<g id="edge63" class="edge">
<title>Node37&#45;&gt;Node3</title>
<path fill="none" stroke="midnightblue" d="M2216.12,-66.86C1998.91,-35.41 1939.38,-60.3 1725,-31 1721.84,-30.57 1718.61,-30.08 1715.36,-29.56"/>
<polygon fill="midnightblue" stroke="midnightblue" points="2215.84,-70.36 2226.25,-68.35 2216.86,-63.43 2215.84,-70.36"/>
</g>
<!-- Node37&#45;&gt;Node6 -->
<g id="edge64" class="edge">
<title>Node37&#45;&gt;Node6</title>
<path fill="none" stroke="midnightblue" d="M2216.31,-66.71C2125.63,-48.7 2100.82,-47.43 2013,-31 2009.95,-30.43 2006.83,-29.84 2003.69,-29.24"/>
<polygon fill="midnightblue" stroke="midnightblue" points="2215.69,-70.16 2226.19,-68.69 2217.07,-63.29 2215.69,-70.16"/>
</g>
<!-- Node38 -->
<g id="node38" class="node">
<title>Node38</title>
<g id="a_node38"><a xlink:href="skybox__shader_8cpp.html" target="_top" xlink:title=" ">
<polygon fill="white" stroke="black" points="2284,-0.5 2284,-30.5 2396,-30.5 2396,-0.5 2284,-0.5"/>
<text text-anchor="start" x="2292" y="-18.5" font-family="Helvetica,sans-Serif" font-size="10.00">src/graphics/shader</text>
<text text-anchor="middle" x="2340" y="-7.5" font-family="Helvetica,sans-Serif" font-size="10.00">/skybox_shader.cpp</text>
</a>
</g>
</g>
<!-- Node37&#45;&gt;Node38 -->
<g id="edge65" class="edge">
<title>Node37&#45;&gt;Node38</title>
<path fill="none" stroke="midnightblue" d="M2301.42,-59.74C2310,-50.12 2319.84,-39.09 2327.44,-30.58"/>
<polygon fill="midnightblue" stroke="midnightblue" points="2298.63,-57.6 2294.59,-67.4 2303.85,-62.26 2298.63,-57.6"/>
</g>
<!-- Node39&#45;&gt;Node2 -->
<g id="edge67" class="edge">
<title>Node39&#45;&gt;Node2</title>
<path fill="none" stroke="midnightblue" d="M1476.28,-191.6C1472.62,-180.28 1468.48,-167.46 1465.81,-159.19"/>
<polygon fill="midnightblue" stroke="midnightblue" points="1473.04,-192.96 1479.44,-201.4 1479.7,-190.8 1473.04,-192.96"/>
</g>
<!-- Node39&#45;&gt;Node8 -->
<g id="edge68" class="edge">
<title>Node39&#45;&gt;Node8</title>
<path fill="none" stroke="midnightblue" d="M1521.01,-196.85C1541.4,-186.58 1566.31,-174.03 1585.06,-164.58"/>
<polygon fill="midnightblue" stroke="midnightblue" points="1519.35,-193.77 1511.99,-201.4 1522.5,-200.02 1519.35,-193.77"/>
</g>
</g>
</svg>
