<?xml version="1.0" encoding="UTF-8" standalone="no"?>
<!DOCTYPE svg PUBLIC "-//W3C//DTD SVG 1.1//EN"
 "http://www.w3.org/Graphics/SVG/1.1/DTD/svg11.dtd">
<!-- Generated by graphviz version 2.43.0 (0)
 -->
<!-- Title: src/graphics/texture/texture.h Pages: 1 -->
<svg width="1763pt" height="307pt"
 viewBox="0.00 0.00 1762.50 307.00" xmlns="http://www.w3.org/2000/svg" xmlns:xlink="http://www.w3.org/1999/xlink">
<g id="graph0" class="graph" transform="scale(1 1) rotate(0) translate(4 303)">
<title>src/graphics/texture/texture.h</title>
<polygon fill="white" stroke="transparent" points="-4,4 -4,-303 1758.5,-303 1758.5,4 -4,4"/>
<!-- Node1 -->
<g id="node1" class="node">
<title>Node1</title>
<g id="a_node1"><a xlink:title=" ">
<polygon fill="#bfbfbf" stroke="black" points="434,-268.5 434,-298.5 547,-298.5 547,-268.5 434,-268.5"/>
<text text-anchor="start" x="442" y="-286.5" font-family="Helvetica,sans-Serif" font-size="10.00">src/graphics/texture</text>
<text text-anchor="middle" x="490.5" y="-275.5" font-family="Helvetica,sans-Serif" font-size="10.00">/texture.h</text>
</a>
</g>
</g>
<!-- Node2 -->
<g id="node2" class="node">
<title>Node2</title>
<g id="a_node2"><a xlink:href="camera_8h.html" target="_top" xlink:title=" ">
<polygon fill="white" stroke="black" points="317,-140 317,-159 454,-159 454,-140 317,-140"/>
<text text-anchor="middle" x="385.5" y="-147" font-family="Helvetica,sans-Serif" font-size="10.00">src/component/camera.h</text>
</a>
</g>
</g>
<!-- Node1&#45;&gt;Node2 -->
<g id="edge1" class="edge">
<title>Node1&#45;&gt;Node2</title>
<path fill="none" stroke="midnightblue" d="M482.85,-258.52C476.56,-241.29 466.41,-218.18 452.5,-201 437.93,-183 415.61,-167.88 400.79,-159"/>
<polygon fill="midnightblue" stroke="midnightblue" points="479.69,-260.07 486.27,-268.37 486.3,-257.78 479.69,-260.07"/>
</g>
<!-- Node8 -->
<g id="node8" class="node">
<title>Node8</title>
<g id="a_node8"><a xlink:href="framebuffer_8h.html" target="_top" xlink:title=" ">
<polygon fill="white" stroke="black" points="1075.5,-201.5 1075.5,-231.5 1211.5,-231.5 1211.5,-201.5 1075.5,-201.5"/>
<text text-anchor="start" x="1083.5" y="-219.5" font-family="Helvetica,sans-Serif" font-size="10.00">src/graphics/framebuffer</text>
<text text-anchor="middle" x="1143.5" y="-208.5" font-family="Helvetica,sans-Serif" font-size="10.00">/framebuffer.h</text>
</a>
</g>
</g>
<!-- Node1&#45;&gt;Node8 -->
<g id="edge8" class="edge">
<title>Node1&#45;&gt;Node8</title>
<path fill="none" stroke="midnightblue" d="M557.2,-275.86C682,-263.44 949.53,-236.81 1075.39,-224.28"/>
<polygon fill="midnightblue" stroke="midnightblue" points="556.63,-272.4 547.02,-276.87 557.32,-279.37 556.63,-272.4"/>
</g>
<!-- Node16 -->
<g id="node16" class="node">
<title>Node16</title>
<g id="a_node16"><a xlink:href="skybox_8h.html" target="_top" xlink:title=" ">
<polygon fill="white" stroke="black" points="328,-201.5 328,-231.5 443,-231.5 443,-201.5 328,-201.5"/>
<text text-anchor="start" x="336" y="-219.5" font-family="Helvetica,sans-Serif" font-size="10.00">src/graphics/lighting</text>
<text text-anchor="middle" x="385.5" y="-208.5" font-family="Helvetica,sans-Serif" font-size="10.00">/skybox.h</text>
</a>
</g>
</g>
<!-- Node1&#45;&gt;Node16 -->
<g id="edge22" class="edge">
<title>Node1&#45;&gt;Node16</title>
<path fill="none" stroke="midnightblue" d="M459.02,-263.02C442.68,-252.9 423.09,-240.77 408.24,-231.58"/>
<polygon fill="midnightblue" stroke="midnightblue" points="457.37,-266.11 467.72,-268.4 461.06,-260.16 457.37,-266.11"/>
</g>
<!-- Node17 -->
<g id="node17" class="node">
<title>Node17</title>
<g id="a_node17"><a xlink:href="material_8h.html" target="_top" xlink:title=" ">
<polygon fill="white" stroke="black" points="178,-201.5 178,-231.5 297,-231.5 297,-201.5 178,-201.5"/>
<text text-anchor="start" x="186" y="-219.5" font-family="Helvetica,sans-Serif" font-size="10.00">src/graphics/material</text>
<text text-anchor="middle" x="237.5" y="-208.5" font-family="Helvetica,sans-Serif" font-size="10.00">/material.h</text>
</a>
</g>
</g>
<!-- Node1&#45;&gt;Node17 -->
<g id="edge24" class="edge">
<title>Node1&#45;&gt;Node17</title>
<path fill="none" stroke="midnightblue" d="M426.22,-265.98C384.89,-255.37 331.77,-241.72 292.42,-231.61"/>
<polygon fill="midnightblue" stroke="midnightblue" points="425.36,-269.38 435.91,-268.48 427.1,-262.6 425.36,-269.38"/>
</g>
<!-- Node21 -->
<g id="node21" class="node">
<title>Node21</title>
<g id="a_node21"><a xlink:href="texture__loader_8h.html" target="_top" xlink:title=" ">
<polygon fill="white" stroke="black" points="538,-201.5 538,-231.5 651,-231.5 651,-201.5 538,-201.5"/>
<text text-anchor="start" x="546" y="-219.5" font-family="Helvetica,sans-Serif" font-size="10.00">src/graphics/texture</text>
<text text-anchor="middle" x="594.5" y="-208.5" font-family="Helvetica,sans-Serif" font-size="10.00">/texture_loader.h</text>
</a>
</g>
</g>
<!-- Node1&#45;&gt;Node21 -->
<g id="edge33" class="edge">
<title>Node1&#45;&gt;Node21</title>
<path fill="none" stroke="midnightblue" d="M521.68,-263.02C537.86,-252.9 557.27,-240.77 571.98,-231.58"/>
<polygon fill="midnightblue" stroke="midnightblue" points="519.69,-260.13 513.07,-268.4 523.4,-266.06 519.69,-260.13"/>
</g>
<!-- Node22 -->
<g id="node22" class="node">
<title>Node22</title>
<g id="a_node22"><a xlink:href="texture__manager_8h.html" target="_top" xlink:title=" ">
<polygon fill="white" stroke="black" points="511,-134.5 511,-164.5 624,-164.5 624,-134.5 511,-134.5"/>
<text text-anchor="start" x="519" y="-152.5" font-family="Helvetica,sans-Serif" font-size="10.00">src/graphics/texture</text>
<text text-anchor="middle" x="567.5" y="-141.5" font-family="Helvetica,sans-Serif" font-size="10.00">/texture_manager.h</text>
</a>
</g>
</g>
<!-- Node1&#45;&gt;Node22 -->
<g id="edge37" class="edge">
<title>Node1&#45;&gt;Node22</title>
<path fill="none" stroke="midnightblue" d="M500.38,-258.71C507.64,-242.1 518.17,-219.65 529.5,-201 537.36,-188.06 547.79,-174.39 555.73,-164.55"/>
<polygon fill="midnightblue" stroke="midnightblue" points="497.03,-257.64 496.31,-268.21 503.47,-260.4 497.03,-257.64"/>
</g>
<!-- Node3 -->
<g id="node3" class="node">
<title>Node3</title>
<g id="a_node3"><a xlink:href="game__scene_8cpp.html" target="_top" xlink:title=" ">
<polygon fill="white" stroke="black" points="345.5,-0.5 345.5,-30.5 469.5,-30.5 469.5,-0.5 345.5,-0.5"/>
<text text-anchor="start" x="353.5" y="-18.5" font-family="Helvetica,sans-Serif" font-size="10.00">src/game/scene/game</text>
<text text-anchor="middle" x="407.5" y="-7.5" font-family="Helvetica,sans-Serif" font-size="10.00">_scene.cpp</text>
</a>
</g>
</g>
<!-- Node2&#45;&gt;Node3 -->
<g id="edge2" class="edge">
<title>Node2&#45;&gt;Node3</title>
<path fill="none" stroke="midnightblue" d="M388.6,-129.89C393.04,-103.24 401.12,-54.8 405.12,-30.78"/>
<polygon fill="midnightblue" stroke="midnightblue" points="385.14,-129.4 386.94,-139.84 392.04,-130.55 385.14,-129.4"/>
</g>
<!-- Node4 -->
<g id="node4" class="node">
<title>Node4</title>
<g id="a_node4"><a xlink:href="graphics__renderer_8h.html" target="_top" xlink:title=" ">
<polygon fill="white" stroke="black" points="723,-67.5 723,-97.5 842,-97.5 842,-67.5 723,-67.5"/>
<text text-anchor="start" x="731" y="-85.5" font-family="Helvetica,sans-Serif" font-size="10.00">src/graphics/renderer</text>
<text text-anchor="middle" x="782.5" y="-74.5" font-family="Helvetica,sans-Serif" font-size="10.00">/graphics_renderer.h</text>
</a>
</g>
</g>
<!-- Node2&#45;&gt;Node4 -->
<g id="edge3" class="edge">
<title>Node2&#45;&gt;Node4</title>
<path fill="none" stroke="midnightblue" d="M443.78,-138.22C452.07,-136.78 460.5,-135.34 468.5,-134 556.99,-119.16 659.66,-102.81 722.85,-92.85"/>
<polygon fill="midnightblue" stroke="midnightblue" points="443.01,-134.8 433.76,-139.96 444.21,-141.69 443.01,-134.8"/>
</g>
<!-- Node7 -->
<g id="node7" class="node">
<title>Node7</title>
<g id="a_node7"><a xlink:href="scene_8cpp.html" target="_top" xlink:title=" ">
<polygon fill="white" stroke="black" points="265.5,-73 265.5,-92 379.5,-92 379.5,-73 265.5,-73"/>
<text text-anchor="middle" x="322.5" y="-80" font-family="Helvetica,sans-Serif" font-size="10.00">src/scene/scene.cpp</text>
</a>
</g>
</g>
<!-- Node2&#45;&gt;Node7 -->
<g id="edge7" class="edge">
<title>Node2&#45;&gt;Node7</title>
<path fill="none" stroke="midnightblue" d="M369.99,-132.5C357.63,-119.75 340.81,-102.39 330.86,-92.13"/>
<polygon fill="midnightblue" stroke="midnightblue" points="367.53,-134.99 377,-139.73 372.56,-130.12 367.53,-134.99"/>
</g>
<!-- Node4&#45;&gt;Node3 -->
<g id="edge5" class="edge">
<title>Node4&#45;&gt;Node3</title>
<path fill="none" stroke="midnightblue" d="M712.64,-69.39C642.84,-57.29 536.55,-38.87 469.62,-27.27"/>
<polygon fill="midnightblue" stroke="midnightblue" points="712.21,-72.87 722.67,-71.13 713.41,-65.97 712.21,-72.87"/>
</g>
<!-- Node5 -->
<g id="node5" class="node">
<title>Node5</title>
<g id="a_node5"><a xlink:href="application_8cpp.html" target="_top" xlink:title=" ">
<polygon fill="white" stroke="black" points="570,-6 570,-25 735,-25 735,-6 570,-6"/>
<text text-anchor="middle" x="652.5" y="-13" font-family="Helvetica,sans-Serif" font-size="10.00">src/application/application.cpp</text>
</a>
</g>
</g>
<!-- Node4&#45;&gt;Node5 -->
<g id="edge4" class="edge">
<title>Node4&#45;&gt;Node5</title>
<path fill="none" stroke="midnightblue" d="M745.11,-62.8C720.18,-50.34 688.61,-34.56 669.51,-25.01"/>
<polygon fill="midnightblue" stroke="midnightblue" points="743.78,-66.05 754.29,-67.4 746.91,-59.79 743.78,-66.05"/>
</g>
<!-- Node6 -->
<g id="node6" class="node">
<title>Node6</title>
<g id="a_node6"><a xlink:href="graphics__renderer_8cpp.html" target="_top" xlink:title=" ">
<polygon fill="white" stroke="black" points="753,-0.5 753,-30.5 880,-30.5 880,-0.5 753,-0.5"/>
<text text-anchor="start" x="761" y="-18.5" font-family="Helvetica,sans-Serif" font-size="10.00">src/graphics/renderer</text>
<text text-anchor="middle" x="816.5" y="-7.5" font-family="Helvetica,sans-Serif" font-size="10.00">/graphics_renderer.cpp</text>
</a>
</g>
</g>
<!-- Node4&#45;&gt;Node6 -->
<g id="edge6" class="edge">
<title>Node4&#45;&gt;Node6</title>
<path fill="none" stroke="midnightblue" d="M794.64,-58.28C799.49,-49.02 804.91,-38.66 809.14,-30.58"/>
<polygon fill="midnightblue" stroke="midnightblue" points="791.41,-56.91 789.88,-67.4 797.61,-60.16 791.41,-56.91"/>
</g>
<!-- Node9 -->
<g id="node9" class="node">
<title>Node9</title>
<g id="a_node9"><a xlink:href="forward__buffer_8h.html" target="_top" xlink:title=" ">
<polygon fill="white" stroke="black" points="1156.5,-134.5 1156.5,-164.5 1292.5,-164.5 1292.5,-134.5 1156.5,-134.5"/>
<text text-anchor="start" x="1164.5" y="-152.5" font-family="Helvetica,sans-Serif" font-size="10.00">src/graphics/framebuffer</text>
<text text-anchor="middle" x="1224.5" y="-141.5" font-family="Helvetica,sans-Serif" font-size="10.00">/forward_buffer.h</text>
</a>
</g>
</g>
<!-- Node8&#45;&gt;Node9 -->
<g id="edge9" class="edge">
<title>Node8&#45;&gt;Node9</title>
<path fill="none" stroke="midnightblue" d="M1169.19,-194.88C1181.5,-185.01 1195.93,-173.43 1206.96,-164.58"/>
<polygon fill="midnightblue" stroke="midnightblue" points="1166.68,-192.41 1161.08,-201.4 1171.07,-197.87 1166.68,-192.41"/>
</g>
<!-- Node10 -->
<g id="node10" class="node">
<title>Node10</title>
<g id="a_node10"><a xlink:href="framebuffer_8cpp.html" target="_top" xlink:title=" ">
<polygon fill="white" stroke="black" points="1618.5,-134.5 1618.5,-164.5 1754.5,-164.5 1754.5,-134.5 1618.5,-134.5"/>
<text text-anchor="start" x="1626.5" y="-152.5" font-family="Helvetica,sans-Serif" font-size="10.00">src/graphics/framebuffer</text>
<text text-anchor="middle" x="1686.5" y="-141.5" font-family="Helvetica,sans-Serif" font-size="10.00">/framebuffer.cpp</text>
</a>
</g>
</g>
<!-- Node8&#45;&gt;Node10 -->
<g id="edge11" class="edge">
<title>Node8&#45;&gt;Node10</title>
<path fill="none" stroke="midnightblue" d="M1221.78,-208.9C1314.56,-200.64 1473.72,-185.11 1609.5,-165 1612.33,-164.58 1615.21,-164.13 1618.11,-163.67"/>
<polygon fill="midnightblue" stroke="midnightblue" points="1221.28,-205.43 1211.63,-209.8 1221.9,-212.4 1221.28,-205.43"/>
</g>
<!-- Node11 -->
<g id="node11" class="node">
<title>Node11</title>
<g id="a_node11"><a xlink:href="geometry__buffer_8h.html" target="_top" xlink:title=" ">
<polygon fill="white" stroke="black" points="1310.5,-134.5 1310.5,-164.5 1446.5,-164.5 1446.5,-134.5 1310.5,-134.5"/>
<text text-anchor="start" x="1318.5" y="-152.5" font-family="Helvetica,sans-Serif" font-size="10.00">src/graphics/framebuffer</text>
<text text-anchor="middle" x="1378.5" y="-141.5" font-family="Helvetica,sans-Serif" font-size="10.00">/geometry_buffer.h</text>
</a>
</g>
</g>
<!-- Node8&#45;&gt;Node11 -->
<g id="edge12" class="edge">
<title>Node8&#45;&gt;Node11</title>
<path fill="none" stroke="midnightblue" d="M1204.18,-198.71C1242.43,-188.14 1291.24,-174.63 1327.48,-164.61"/>
<polygon fill="midnightblue" stroke="midnightblue" points="1202.91,-195.44 1194.2,-201.48 1204.77,-202.18 1202.91,-195.44"/>
</g>
<!-- Node12 -->
<g id="node12" class="node">
<title>Node12</title>
<g id="a_node12"><a xlink:href="lighting__buffer_8h.html" target="_top" xlink:title=" ">
<polygon fill="white" stroke="black" points="1464.5,-134.5 1464.5,-164.5 1600.5,-164.5 1600.5,-134.5 1464.5,-134.5"/>
<text text-anchor="start" x="1472.5" y="-152.5" font-family="Helvetica,sans-Serif" font-size="10.00">src/graphics/framebuffer</text>
<text text-anchor="middle" x="1532.5" y="-141.5" font-family="Helvetica,sans-Serif" font-size="10.00">/lighting_buffer.h</text>
</a>
</g>
</g>
<!-- Node8&#45;&gt;Node12 -->
<g id="edge14" class="edge">
<title>Node8&#45;&gt;Node12</title>
<path fill="none" stroke="midnightblue" d="M1221.64,-203.42C1284.81,-193.52 1375.98,-178.92 1455.5,-165 1458.45,-164.48 1461.46,-163.95 1464.5,-163.4"/>
<polygon fill="midnightblue" stroke="midnightblue" points="1221.09,-199.97 1211.75,-204.97 1222.17,-206.88 1221.09,-199.97"/>
</g>
<!-- Node13 -->
<g id="node13" class="node">
<title>Node13</title>
<g id="a_node13"><a xlink:href="post__buffer_8h.html" target="_top" xlink:title=" ">
<polygon fill="white" stroke="black" points="680.5,-134.5 680.5,-164.5 816.5,-164.5 816.5,-134.5 680.5,-134.5"/>
<text text-anchor="start" x="688.5" y="-152.5" font-family="Helvetica,sans-Serif" font-size="10.00">src/graphics/framebuffer</text>
<text text-anchor="middle" x="748.5" y="-141.5" font-family="Helvetica,sans-Serif" font-size="10.00">/post_buffer.h</text>
</a>
</g>
</g>
<!-- Node8&#45;&gt;Node13 -->
<g id="edge16" class="edge">
<title>Node8&#45;&gt;Node13</title>
<path fill="none" stroke="midnightblue" d="M1065.4,-203.74C1000.96,-193.88 907.19,-179.17 825.5,-165 822.55,-164.49 819.54,-163.96 816.5,-163.41"/>
<polygon fill="midnightblue" stroke="midnightblue" points="1065.07,-207.23 1075.48,-205.28 1066.12,-200.31 1065.07,-207.23"/>
</g>
<!-- Node14 -->
<g id="node14" class="node">
<title>Node14</title>
<g id="a_node14"><a xlink:href="shadow__2d__buffer_8h.html" target="_top" xlink:title=" ">
<polygon fill="white" stroke="black" points="834.5,-134.5 834.5,-164.5 970.5,-164.5 970.5,-134.5 834.5,-134.5"/>
<text text-anchor="start" x="842.5" y="-152.5" font-family="Helvetica,sans-Serif" font-size="10.00">src/graphics/framebuffer</text>
<text text-anchor="middle" x="902.5" y="-141.5" font-family="Helvetica,sans-Serif" font-size="10.00">/shadow_2d_buffer.h</text>
</a>
</g>
</g>
<!-- Node8&#45;&gt;Node14 -->
<g id="edge18" class="edge">
<title>Node8&#45;&gt;Node14</title>
<path fill="none" stroke="midnightblue" d="M1081.77,-198.85C1042.47,-188.25 992.14,-174.68 954.82,-164.61"/>
<polygon fill="midnightblue" stroke="midnightblue" points="1080.94,-202.25 1091.5,-201.48 1082.76,-195.49 1080.94,-202.25"/>
</g>
<!-- Node15 -->
<g id="node15" class="node">
<title>Node15</title>
<g id="a_node15"><a xlink:href="shadow__cubemap__buffer_8h.html" target="_top" xlink:title=" ">
<polygon fill="white" stroke="black" points="989,-134.5 989,-164.5 1138,-164.5 1138,-134.5 989,-134.5"/>
<text text-anchor="start" x="997" y="-152.5" font-family="Helvetica,sans-Serif" font-size="10.00">src/graphics/framebuffer</text>
<text text-anchor="middle" x="1063.5" y="-141.5" font-family="Helvetica,sans-Serif" font-size="10.00">/shadow_cubemap_buffer.h</text>
</a>
</g>
</g>
<!-- Node8&#45;&gt;Node15 -->
<g id="edge20" class="edge">
<title>Node8&#45;&gt;Node15</title>
<path fill="none" stroke="midnightblue" d="M1118.13,-194.88C1105.97,-185.01 1091.72,-173.43 1080.82,-164.58"/>
<polygon fill="midnightblue" stroke="midnightblue" points="1116.17,-197.81 1126.14,-201.4 1120.59,-192.37 1116.17,-197.81"/>
</g>
<!-- Node9&#45;&gt;Node4 -->
<g id="edge10" class="edge">
<title>Node9&#45;&gt;Node4</title>
<path fill="none" stroke="midnightblue" d="M1146.23,-133.84C1033.09,-115.55 912.38,-99.7 842.06,-90.84"/>
<polygon fill="midnightblue" stroke="midnightblue" points="1145.66,-137.29 1156.1,-135.44 1146.79,-130.38 1145.66,-137.29"/>
</g>
<!-- Node11&#45;&gt;Node4 -->
<g id="edge13" class="edge">
<title>Node11&#45;&gt;Node4</title>
<path fill="none" stroke="midnightblue" d="M1300.14,-133.88C1128.46,-109.8 937.18,-94.43 842.25,-87.57"/>
<polygon fill="midnightblue" stroke="midnightblue" points="1299.73,-137.36 1310.12,-135.3 1300.71,-130.43 1299.73,-137.36"/>
</g>
<!-- Node12&#45;&gt;Node4 -->
<g id="edge15" class="edge">
<title>Node12&#45;&gt;Node4</title>
<path fill="none" stroke="midnightblue" d="M1454.17,-133.92C1222.5,-104.03 958.18,-90.6 842.15,-85.75"/>
<polygon fill="midnightblue" stroke="midnightblue" points="1453.76,-137.39 1464.13,-135.22 1454.67,-130.45 1453.76,-137.39"/>
</g>
<!-- Node13&#45;&gt;Node4 -->
<g id="edge17" class="edge">
<title>Node13&#45;&gt;Node4</title>
<path fill="none" stroke="midnightblue" d="M760.64,-125.28C765.49,-116.02 770.91,-105.66 775.14,-97.58"/>
<polygon fill="midnightblue" stroke="midnightblue" points="757.41,-123.91 755.88,-134.4 763.61,-127.16 757.41,-123.91"/>
</g>
<!-- Node14&#45;&gt;Node4 -->
<g id="edge19" class="edge">
<title>Node14&#45;&gt;Node4</title>
<path fill="none" stroke="midnightblue" d="M867.56,-129.57C848.68,-119.35 825.77,-106.94 808.49,-97.58"/>
<polygon fill="midnightblue" stroke="midnightblue" points="866,-132.71 876.46,-134.4 869.34,-126.56 866,-132.71"/>
</g>
<!-- Node15&#45;&gt;Node4 -->
<g id="edge21" class="edge">
<title>Node15&#45;&gt;Node4</title>
<path fill="none" stroke="midnightblue" d="M992.87,-132.16C946.35,-121.4 886.14,-107.47 842.05,-97.28"/>
<polygon fill="midnightblue" stroke="midnightblue" points="992.34,-135.63 1002.87,-134.48 993.92,-128.81 992.34,-135.63"/>
</g>
<!-- Node16&#45;&gt;Node2 -->
<g id="edge23" class="edge">
<title>Node16&#45;&gt;Node2</title>
<path fill="none" stroke="midnightblue" d="M385.5,-191.25C385.5,-180.02 385.5,-167.38 385.5,-159.19"/>
<polygon fill="midnightblue" stroke="midnightblue" points="382,-191.4 385.5,-201.4 389,-191.4 382,-191.4"/>
</g>
<!-- Node17&#45;&gt;Node4 -->
<g id="edge32" class="edge">
<title>Node17&#45;&gt;Node4</title>
<path fill="none" stroke="midnightblue" d="M307.19,-201.57C368.21,-189.1 449.33,-171.77 463.5,-165 483.48,-155.45 482.33,-143.13 502.5,-134 573.94,-101.67 664.45,-90.01 722.91,-85.83"/>
<polygon fill="midnightblue" stroke="midnightblue" points="306.3,-198.18 297.2,-203.6 307.69,-205.04 306.3,-198.18"/>
</g>
<!-- Node18 -->
<g id="node18" class="node">
<title>Node18</title>
<g id="a_node18"><a xlink:href="render__mesh_8h.html" target="_top" xlink:title=" ">
<polygon fill="white" stroke="black" points="176,-134.5 176,-164.5 299,-164.5 299,-134.5 176,-134.5"/>
<text text-anchor="start" x="184" y="-152.5" font-family="Helvetica,sans-Serif" font-size="10.00">src/component/render</text>
<text text-anchor="middle" x="237.5" y="-141.5" font-family="Helvetica,sans-Serif" font-size="10.00">_mesh.h</text>
</a>
</g>
</g>
<!-- Node17&#45;&gt;Node18 -->
<g id="edge25" class="edge">
<title>Node17&#45;&gt;Node18</title>
<path fill="none" stroke="midnightblue" d="M237.5,-191.11C237.5,-182.15 237.5,-172.32 237.5,-164.58"/>
<polygon fill="midnightblue" stroke="midnightblue" points="234,-191.4 237.5,-201.4 241,-191.4 234,-191.4"/>
</g>
<!-- Node19 -->
<g id="node19" class="node">
<title>Node19</title>
<g id="a_node19"><a xlink:href="material_8cpp.html" target="_top" xlink:title=" ">
<polygon fill="white" stroke="black" points="0,-134.5 0,-164.5 119,-164.5 119,-134.5 0,-134.5"/>
<text text-anchor="start" x="8" y="-152.5" font-family="Helvetica,sans-Serif" font-size="10.00">src/graphics/material</text>
<text text-anchor="middle" x="59.5" y="-141.5" font-family="Helvetica,sans-Serif" font-size="10.00">/material.cpp</text>
</a>
</g>
</g>
<!-- Node17&#45;&gt;Node19 -->
<g id="edge29" class="edge">
<title>Node17&#45;&gt;Node19</title>
<path fill="none" stroke="midnightblue" d="M189.45,-197.96C160.78,-187.48 124.86,-174.37 98.05,-164.58"/>
<polygon fill="midnightblue" stroke="midnightblue" points="188.28,-201.25 198.88,-201.4 190.68,-194.68 188.28,-201.25"/>
</g>
<!-- Node20 -->
<g id="node20" class="node">
<title>Node20</title>
<g id="a_node20"><a xlink:href="material__manager_8h.html" target="_top" xlink:title=" ">
<polygon fill="white" stroke="black" points="89,-67.5 89,-97.5 208,-97.5 208,-67.5 89,-67.5"/>
<text text-anchor="start" x="97" y="-85.5" font-family="Helvetica,sans-Serif" font-size="10.00">src/graphics/material</text>
<text text-anchor="middle" x="148.5" y="-74.5" font-family="Helvetica,sans-Serif" font-size="10.00">/material_manager.h</text>
</a>
</g>
</g>
<!-- Node17&#45;&gt;Node20 -->
<g id="edge30" class="edge">
<title>Node17&#45;&gt;Node20</title>
<path fill="none" stroke="midnightblue" d="M199.46,-195.9C187.25,-187.86 174.77,-177.48 166.5,-165 152.82,-144.34 149.38,-114.92 148.61,-97.66"/>
<polygon fill="midnightblue" stroke="midnightblue" points="197.89,-199.04 208.24,-201.33 201.58,-193.09 197.89,-199.04"/>
</g>
<!-- Node18&#45;&gt;Node3 -->
<g id="edge26" class="edge">
<title>Node18&#45;&gt;Node3</title>
<path fill="none" stroke="midnightblue" d="M237.14,-124.21C238.17,-106.3 242.42,-82.46 256.5,-67 279.2,-42.06 314.56,-29.42 345.36,-23.03"/>
<polygon fill="midnightblue" stroke="midnightblue" points="233.64,-124.12 236.86,-134.22 240.64,-124.32 233.64,-124.12"/>
</g>
<!-- Node18&#45;&gt;Node4 -->
<g id="edge27" class="edge">
<title>Node18&#45;&gt;Node4</title>
<path fill="none" stroke="midnightblue" d="M309.2,-134C464.25,-110.35 634.6,-95.11 722.77,-88.03"/>
<polygon fill="midnightblue" stroke="midnightblue" points="308.36,-130.58 299.01,-135.56 309.43,-137.5 308.36,-130.58"/>
</g>
<!-- Node18&#45;&gt;Node7 -->
<g id="edge28" class="edge">
<title>Node18&#45;&gt;Node7</title>
<path fill="none" stroke="midnightblue" d="M264.3,-128.01C280.08,-115.94 299.22,-101.3 311.13,-92.19"/>
<polygon fill="midnightblue" stroke="midnightblue" points="261.76,-125.54 255.94,-134.4 266.01,-131.1 261.76,-125.54"/>
</g>
<!-- Node20&#45;&gt;Node3 -->
<g id="edge31" class="edge">
<title>Node20&#45;&gt;Node3</title>
<path fill="none" stroke="midnightblue" d="M214.31,-64.98C256.61,-54.37 310.99,-40.72 351.27,-30.61"/>
<polygon fill="midnightblue" stroke="midnightblue" points="213.23,-61.65 204.38,-67.48 214.93,-68.44 213.23,-61.65"/>
</g>
<!-- Node21&#45;&gt;Node5 -->
<g id="edge34" class="edge">
<title>Node21&#45;&gt;Node5</title>
<path fill="none" stroke="midnightblue" d="M615.47,-193.62C622.32,-185.28 629.24,-175.29 633.5,-165 654.08,-115.29 653.8,-48.88 652.94,-25.27"/>
<polygon fill="midnightblue" stroke="midnightblue" points="612.67,-191.52 608.76,-201.37 617.96,-196.1 612.67,-191.52"/>
</g>
<!-- Node21&#45;&gt;Node22 -->
<g id="edge35" class="edge">
<title>Node21&#45;&gt;Node22</title>
<path fill="none" stroke="midnightblue" d="M584.73,-191.99C580.92,-182.8 576.67,-172.58 573.35,-164.58"/>
<polygon fill="midnightblue" stroke="midnightblue" points="581.57,-193.5 588.64,-201.4 588.04,-190.82 581.57,-193.5"/>
</g>
<!-- Node22&#45;&gt;Node3 -->
<g id="edge36" class="edge">
<title>Node22&#45;&gt;Node3</title>
<path fill="none" stroke="midnightblue" d="M542.58,-127.94C509.73,-100.84 452.81,-53.88 424.5,-30.52"/>
<polygon fill="midnightblue" stroke="midnightblue" points="540.44,-130.71 550.38,-134.37 544.89,-125.31 540.44,-130.71"/>
</g>
</g>
</svg>
