<?xml version="1.0" encoding="UTF-8" standalone="no"?>
<!DOCTYPE svg PUBLIC "-//W3C//DTD SVG 1.1//EN"
 "http://www.w3.org/Graphics/SVG/1.1/DTD/svg11.dtd">
<!-- Generated by graphviz version 2.43.0 (0)
 -->
<!-- Title: src/graphics/texture/texture.h Pages: 1 -->
<!--zoomable 307 -->
<svg id="main" version="1.1" xmlns="http://www.w3.org/2000/svg" xmlns:xlink="http://www.w3.org/1999/xlink" xml:space="preserve" onload="init(evt)">
<style type="text/css"><![CDATA[
.edge:hover path { stroke: red; }
.edge:hover polygon { stroke: red; fill: red; }
]]></style>
<script type="text/javascript"><![CDATA[
var edges = document.getElementsByTagName('g');
if (edges && edges.length) {
  for (var i=0;i<edges.length;i++) {
    if (edges[i].id.substr(0,4)=='edge') {
      edges[i].setAttribute('class','edge');
    }
  }
}
]]></script>
        <defs>
                <circle id="rim" cx="0" cy="0" r="7"/>
                <circle id="rim2" cx="0" cy="0" r="3.5"/>
                <g id="zoomPlus">
                        <use xlink:href="#rim" fill="#404040">
                                <set attributeName="fill" to="#808080" begin="zoomplus.mouseover" end="zoomplus.mouseout"/>
                        </use>
                        <path d="M-4,0h8M0,-4v8" fill="none" stroke="white" stroke-width="1.5" pointer-events="none"/>
                </g>
                <g id="zoomMin">
                        <use xlink:href="#rim" fill="#404040">
                                <set attributeName="fill" to="#808080" begin="zoomminus.mouseover" end="zoomminus.mouseout"/>
                        </use>
                        <path d="M-4,0h8" fill="none" stroke="white" stroke-width="1.5" pointer-events="none"/>
                </g>
                <g id="dirArrow">
                        <path fill="none" stroke="white" stroke-width="1.5" d="M0,-3.0v7 M-2.5,-0.5L0,-3.0L2.5,-0.5"/>
                </g>
               <g id="resetDef">
                       <use xlink:href="#rim2" fill="#404040">
                               <set attributeName="fill" to="#808080" begin="reset.mouseover" end="reset.mouseout"/>
                       </use>
               </g>
        </defs>

<script type="text/javascript">
var viewWidth = 1916;
var viewHeight = 307;
var sectionId = 'dynsection-1';
</script>
<script xlink:href="svgpan.js"/>
<svg id="graph" class="graph">
<g id="viewport">
<title>src/graphics/texture/texture.h</title>
<polygon fill="white" stroke="transparent" points="-4,4 -4,-303 1911.5,-303 1911.5,4 -4,4"/>
<!-- Node1 -->
<g id="node1" class="node">
<title>Node1</title>
<g id="a_node1"><a xlink:title=" ">
<polygon fill="#bfbfbf" stroke="black" points="214,-268.5 214,-298.5 327,-298.5 327,-268.5 214,-268.5"/>
<text text-anchor="start" x="222" y="-286.5" font-family="Helvetica,sans-Serif" font-size="10.00">src/graphics/texture</text>
<text text-anchor="middle" x="270.5" y="-275.5" font-family="Helvetica,sans-Serif" font-size="10.00">/texture.h</text>
</a>
</g>
</g>
<!-- Node2 -->
<g id="node2" class="node">
<title>Node2</title>
<g id="a_node2"><a xlink:href="camera_8h.html" target="_top" xlink:title=" ">
<polygon fill="white" stroke="black" points="131,-140 131,-159 268,-159 268,-140 131,-140"/>
<text text-anchor="middle" x="199.5" y="-147" font-family="Helvetica,sans-Serif" font-size="10.00">src/component/camera.h</text>
</a>
</g>
</g>
<!-- Node1&#45;&gt;Node2 -->
<g id="edge1" class="edge">
<title>Node1&#45;&gt;Node2</title>
<path fill="none" stroke="midnightblue" d="M258.12,-259.49C242.09,-229.68 214.92,-179.17 204.12,-159.1"/>
<polygon fill="midnightblue" stroke="midnightblue" points="255.08,-261.22 262.9,-268.37 261.25,-257.91 255.08,-261.22"/>
</g>
<!-- Node8 -->
<g id="node8" class="node">
<title>Node8</title>
<g id="a_node8"><a xlink:href="framebuffer_8h.html" target="_top" xlink:title=" ">
<polygon fill="white" stroke="black" points="1148.5,-201.5 1148.5,-231.5 1284.5,-231.5 1284.5,-201.5 1148.5,-201.5"/>
<text text-anchor="start" x="1156.5" y="-219.5" font-family="Helvetica,sans-Serif" font-size="10.00">src/graphics/framebuffer</text>
<text text-anchor="middle" x="1216.5" y="-208.5" font-family="Helvetica,sans-Serif" font-size="10.00">/framebuffer.h</text>
</a>
</g>
</g>
<!-- Node1&#45;&gt;Node8 -->
<g id="edge8" class="edge">
<title>Node1&#45;&gt;Node8</title>
<path fill="none" stroke="midnightblue" d="M337.2,-277.92C510.49,-266.01 973.56,-234.19 1148.4,-222.18"/>
<polygon fill="midnightblue" stroke="midnightblue" points="336.93,-274.43 327.19,-278.6 337.41,-281.41 336.93,-274.43"/>
</g>
<!-- Node17 -->
<g id="node17" class="node">
<title>Node17</title>
<g id="a_node17"><a xlink:href="skybox_8h.html" target="_top" xlink:title=" ">
<polygon fill="white" stroke="black" points="85,-201.5 85,-231.5 200,-231.5 200,-201.5 85,-201.5"/>
<text text-anchor="start" x="93" y="-219.5" font-family="Helvetica,sans-Serif" font-size="10.00">src/graphics/lighting</text>
<text text-anchor="middle" x="142.5" y="-208.5" font-family="Helvetica,sans-Serif" font-size="10.00">/skybox.h</text>
</a>
</g>
</g>
<!-- Node1&#45;&gt;Node17 -->
<g id="edge24" class="edge">
<title>Node1&#45;&gt;Node17</title>
<path fill="none" stroke="midnightblue" d="M233.78,-263.85C213.54,-253.58 188.83,-241.03 170.22,-231.58"/>
<polygon fill="midnightblue" stroke="midnightblue" points="232.22,-266.99 242.73,-268.4 235.39,-260.75 232.22,-266.99"/>
</g>
<!-- Node18 -->
<g id="node18" class="node">
<title>Node18</title>
<g id="a_node18"><a xlink:href="material_8h.html" target="_top" xlink:title=" ">
<polygon fill="white" stroke="black" points="466,-201.5 466,-231.5 585,-231.5 585,-201.5 466,-201.5"/>
<text text-anchor="start" x="474" y="-219.5" font-family="Helvetica,sans-Serif" font-size="10.00">src/graphics/material</text>
<text text-anchor="middle" x="525.5" y="-208.5" font-family="Helvetica,sans-Serif" font-size="10.00">/material.h</text>
</a>
</g>
</g>
<!-- Node1&#45;&gt;Node18 -->
<g id="edge26" class="edge">
<title>Node1&#45;&gt;Node18</title>
<path fill="none" stroke="midnightblue" d="M335.29,-265.98C376.94,-255.37 430.48,-241.72 470.14,-231.61"/>
<polygon fill="midnightblue" stroke="midnightblue" points="334.34,-262.61 325.52,-268.48 336.07,-269.4 334.34,-262.61"/>
</g>
<!-- Node22 -->
<g id="node22" class="node">
<title>Node22</title>
<g id="a_node22"><a xlink:href="texture__loader_8h.html" target="_top" xlink:title=" ">
<polygon fill="white" stroke="black" points="257,-201.5 257,-231.5 370,-231.5 370,-201.5 257,-201.5"/>
<text text-anchor="start" x="265" y="-219.5" font-family="Helvetica,sans-Serif" font-size="10.00">src/graphics/texture</text>
<text text-anchor="middle" x="313.5" y="-208.5" font-family="Helvetica,sans-Serif" font-size="10.00">/texture_loader.h</text>
</a>
</g>
</g>
<!-- Node1&#45;&gt;Node22 -->
<g id="edge35" class="edge">
<title>Node1&#45;&gt;Node22</title>
<path fill="none" stroke="midnightblue" d="M285.47,-259.87C291.7,-250.46 298.73,-239.83 304.19,-231.58"/>
<polygon fill="midnightblue" stroke="midnightblue" points="282.43,-258.12 279.83,-268.4 288.27,-261.99 282.43,-258.12"/>
</g>
<!-- Node23 -->
<g id="node23" class="node">
<title>Node23</title>
<g id="a_node23"><a xlink:href="texture__manager_8h.html" target="_top" xlink:title=" ">
<polygon fill="white" stroke="black" points="0,-134.5 0,-164.5 113,-164.5 113,-134.5 0,-134.5"/>
<text text-anchor="start" x="8" y="-152.5" font-family="Helvetica,sans-Serif" font-size="10.00">src/graphics/texture</text>
<text text-anchor="middle" x="56.5" y="-141.5" font-family="Helvetica,sans-Serif" font-size="10.00">/texture_manager.h</text>
</a>
</g>
</g>
<!-- Node1&#45;&gt;Node23 -->
<g id="edge39" class="edge">
<title>Node1&#45;&gt;Node23</title>
<path fill="none" stroke="midnightblue" d="M203.65,-272.55C154.88,-263.96 94.33,-250.08 76.5,-232 58.7,-213.95 55.86,-182.79 55.86,-164.67"/>
<polygon fill="midnightblue" stroke="midnightblue" points="203.1,-276.01 213.55,-274.25 204.28,-269.11 203.1,-276.01"/>
</g>
<!-- Node3 -->
<g id="node3" class="node">
<title>Node3</title>
<g id="a_node3"><a xlink:href="game__scene_8cpp.html" target="_top" xlink:title=" ">
<polygon fill="white" stroke="black" points="281.5,-0.5 281.5,-30.5 405.5,-30.5 405.5,-0.5 281.5,-0.5"/>
<text text-anchor="start" x="289.5" y="-18.5" font-family="Helvetica,sans-Serif" font-size="10.00">src/game/scene/game</text>
<text text-anchor="middle" x="343.5" y="-7.5" font-family="Helvetica,sans-Serif" font-size="10.00">_scene.cpp</text>
</a>
</g>
</g>
<!-- Node2&#45;&gt;Node3 -->
<g id="edge2" class="edge">
<title>Node2&#45;&gt;Node3</title>
<path fill="none" stroke="midnightblue" d="M191.65,-130.41C185.26,-112.58 179.24,-85.41 192.5,-67 212.69,-38.96 249.16,-26.26 281.21,-20.61"/>
<polygon fill="midnightblue" stroke="midnightblue" points="188.48,-131.91 195.42,-139.91 194.99,-129.33 188.48,-131.91"/>
</g>
<!-- Node4 -->
<g id="node4" class="node">
<title>Node4</title>
<g id="a_node4"><a xlink:href="graphics__renderer_8h.html" target="_top" xlink:title=" ">
<polygon fill="white" stroke="black" points="718,-67.5 718,-97.5 837,-97.5 837,-67.5 718,-67.5"/>
<text text-anchor="start" x="726" y="-85.5" font-family="Helvetica,sans-Serif" font-size="10.00">src/graphics/renderer</text>
<text text-anchor="middle" x="777.5" y="-74.5" font-family="Helvetica,sans-Serif" font-size="10.00">/graphics_renderer.h</text>
</a>
</g>
</g>
<!-- Node2&#45;&gt;Node4 -->
<g id="edge3" class="edge">
<title>Node2&#45;&gt;Node4</title>
<path fill="none" stroke="midnightblue" d="M276.67,-138.75C289.95,-137.13 303.62,-135.49 316.5,-134 465.7,-116.76 503.24,-114.65 652.5,-98 673.78,-95.63 697.08,-92.94 717.75,-90.54"/>
<polygon fill="midnightblue" stroke="midnightblue" points="276.1,-135.3 266.61,-139.99 276.96,-142.24 276.1,-135.3"/>
</g>
<!-- Node7 -->
<g id="node7" class="node">
<title>Node7</title>
<g id="a_node7"><a xlink:href="scene_8cpp.html" target="_top" xlink:title=" ">
<polygon fill="white" stroke="black" points="201.5,-73 201.5,-92 315.5,-92 315.5,-73 201.5,-73"/>
<text text-anchor="middle" x="258.5" y="-80" font-family="Helvetica,sans-Serif" font-size="10.00">src/scene/scene.cpp</text>
</a>
</g>
</g>
<!-- Node2&#45;&gt;Node7 -->
<g id="edge7" class="edge">
<title>Node2&#45;&gt;Node7</title>
<path fill="none" stroke="midnightblue" d="M214.35,-132.13C225.89,-119.42 241.44,-102.3 250.67,-92.13"/>
<polygon fill="midnightblue" stroke="midnightblue" points="211.59,-129.98 207.46,-139.73 216.77,-134.68 211.59,-129.98"/>
</g>
<!-- Node4&#45;&gt;Node3 -->
<g id="edge5" class="edge">
<title>Node4&#45;&gt;Node3</title>
<path fill="none" stroke="midnightblue" d="M707.7,-71.05C624.16,-58.53 485.55,-37.77 405.58,-25.8"/>
<polygon fill="midnightblue" stroke="midnightblue" points="707.2,-74.51 717.61,-72.53 708.24,-67.59 707.2,-74.51"/>
</g>
<!-- Node5 -->
<g id="node5" class="node">
<title>Node5</title>
<g id="a_node5"><a xlink:href="application_8cpp.html" target="_top" xlink:title=" ">
<polygon fill="white" stroke="black" points="506,-6 506,-25 671,-25 671,-6 506,-6"/>
<text text-anchor="middle" x="588.5" y="-13" font-family="Helvetica,sans-Serif" font-size="10.00">src/application/application.cpp</text>
</a>
</g>
</g>
<!-- Node4&#45;&gt;Node5 -->
<g id="edge4" class="edge">
<title>Node4&#45;&gt;Node5</title>
<path fill="none" stroke="midnightblue" d="M726.93,-64.11C690.16,-51.46 641.98,-34.89 613.24,-25.01"/>
<polygon fill="midnightblue" stroke="midnightblue" points="725.9,-67.45 736.49,-67.4 728.17,-60.83 725.9,-67.45"/>
</g>
<!-- Node6 -->
<g id="node6" class="node">
<title>Node6</title>
<g id="a_node6"><a xlink:href="graphics__renderer_8cpp.html" target="_top" xlink:title=" ">
<polygon fill="white" stroke="black" points="714,-0.5 714,-30.5 841,-30.5 841,-0.5 714,-0.5"/>
<text text-anchor="start" x="722" y="-18.5" font-family="Helvetica,sans-Serif" font-size="10.00">src/graphics/renderer</text>
<text text-anchor="middle" x="777.5" y="-7.5" font-family="Helvetica,sans-Serif" font-size="10.00">/graphics_renderer.cpp</text>
</a>
</g>
</g>
<!-- Node4&#45;&gt;Node6 -->
<g id="edge6" class="edge">
<title>Node4&#45;&gt;Node6</title>
<path fill="none" stroke="midnightblue" d="M777.5,-57.11C777.5,-48.15 777.5,-38.32 777.5,-30.58"/>
<polygon fill="midnightblue" stroke="midnightblue" points="774,-57.4 777.5,-67.4 781,-57.4 774,-57.4"/>
</g>
<!-- Node9 -->
<g id="node9" class="node">
<title>Node9</title>
<g id="a_node9"><a xlink:href="alpha__buffer_8h.html" target="_top" xlink:title=" ">
<polygon fill="white" stroke="black" points="1309.5,-134.5 1309.5,-164.5 1445.5,-164.5 1445.5,-134.5 1309.5,-134.5"/>
<text text-anchor="start" x="1317.5" y="-152.5" font-family="Helvetica,sans-Serif" font-size="10.00">src/graphics/framebuffer</text>
<text text-anchor="middle" x="1377.5" y="-141.5" font-family="Helvetica,sans-Serif" font-size="10.00">/alpha_buffer.h</text>
</a>
</g>
</g>
<!-- Node8&#45;&gt;Node9 -->
<g id="edge9" class="edge">
<title>Node8&#45;&gt;Node9</title>
<path fill="none" stroke="midnightblue" d="M1260.98,-197.54C1286.74,-187.14 1318.7,-174.24 1342.63,-164.58"/>
<polygon fill="midnightblue" stroke="midnightblue" points="1259.4,-194.41 1251.43,-201.4 1262.02,-200.9 1259.4,-194.41"/>
</g>
<!-- Node10 -->
<g id="node10" class="node">
<title>Node10</title>
<g id="a_node10"><a xlink:href="forward__buffer_8h.html" target="_top" xlink:title=" ">
<polygon fill="white" stroke="black" points="1463.5,-134.5 1463.5,-164.5 1599.5,-164.5 1599.5,-134.5 1463.5,-134.5"/>
<text text-anchor="start" x="1471.5" y="-152.5" font-family="Helvetica,sans-Serif" font-size="10.00">src/graphics/framebuffer</text>
<text text-anchor="middle" x="1531.5" y="-141.5" font-family="Helvetica,sans-Serif" font-size="10.00">/forward_buffer.h</text>
</a>
</g>
</g>
<!-- Node8&#45;&gt;Node10 -->
<g id="edge11" class="edge">
<title>Node8&#45;&gt;Node10</title>
<path fill="none" stroke="midnightblue" d="M1294.28,-199.45C1346.14,-188.75 1413.65,-174.82 1463.39,-164.55"/>
<polygon fill="midnightblue" stroke="midnightblue" points="1293.55,-196.03 1284.46,-201.48 1294.96,-202.88 1293.55,-196.03"/>
</g>
<!-- Node11 -->
<g id="node11" class="node">
<title>Node11</title>
<g id="a_node11"><a xlink:href="framebuffer_8cpp.html" target="_top" xlink:title=" ">
<polygon fill="white" stroke="black" points="1771.5,-134.5 1771.5,-164.5 1907.5,-164.5 1907.5,-134.5 1771.5,-134.5"/>
<text text-anchor="start" x="1779.5" y="-152.5" font-family="Helvetica,sans-Serif" font-size="10.00">src/graphics/framebuffer</text>
<text text-anchor="middle" x="1839.5" y="-141.5" font-family="Helvetica,sans-Serif" font-size="10.00">/framebuffer.cpp</text>
</a>
</g>
</g>
<!-- Node8&#45;&gt;Node11 -->
<g id="edge13" class="edge">
<title>Node8&#45;&gt;Node11</title>
<path fill="none" stroke="midnightblue" d="M1294.84,-210.58C1401.11,-203.37 1596.74,-188.22 1762.5,-165 1765.33,-164.6 1768.21,-164.17 1771.12,-163.72"/>
<polygon fill="midnightblue" stroke="midnightblue" points="1294.58,-207.09 1284.83,-211.25 1295.05,-214.07 1294.58,-207.09"/>
</g>
<!-- Node12 -->
<g id="node12" class="node">
<title>Node12</title>
<g id="a_node12"><a xlink:href="geometry__buffer_8h.html" target="_top" xlink:title=" ">
<polygon fill="white" stroke="black" points="1617.5,-134.5 1617.5,-164.5 1753.5,-164.5 1753.5,-134.5 1617.5,-134.5"/>
<text text-anchor="start" x="1625.5" y="-152.5" font-family="Helvetica,sans-Serif" font-size="10.00">src/graphics/framebuffer</text>
<text text-anchor="middle" x="1685.5" y="-141.5" font-family="Helvetica,sans-Serif" font-size="10.00">/geometry_buffer.h</text>
</a>
</g>
</g>
<!-- Node8&#45;&gt;Node12 -->
<g id="edge14" class="edge">
<title>Node8&#45;&gt;Node12</title>
<path fill="none" stroke="midnightblue" d="M1295.05,-206.74C1374.32,-197.58 1500.18,-182.16 1608.5,-165 1611.32,-164.55 1614.2,-164.08 1617.1,-163.59"/>
<polygon fill="midnightblue" stroke="midnightblue" points="1294.19,-203.31 1284.66,-207.93 1294.99,-210.27 1294.19,-203.31"/>
</g>
<!-- Node13 -->
<g id="node13" class="node">
<title>Node13</title>
<g id="a_node13"><a xlink:href="lighting__buffer_8h.html" target="_top" xlink:title=" ">
<polygon fill="white" stroke="black" points="679.5,-134.5 679.5,-164.5 815.5,-164.5 815.5,-134.5 679.5,-134.5"/>
<text text-anchor="start" x="687.5" y="-152.5" font-family="Helvetica,sans-Serif" font-size="10.00">src/graphics/framebuffer</text>
<text text-anchor="middle" x="747.5" y="-141.5" font-family="Helvetica,sans-Serif" font-size="10.00">/lighting_buffer.h</text>
</a>
</g>
</g>
<!-- Node8&#45;&gt;Node13 -->
<g id="edge16" class="edge">
<title>Node8&#45;&gt;Node13</title>
<path fill="none" stroke="midnightblue" d="M1137.95,-206.74C1058.68,-197.58 932.82,-182.16 824.5,-165 821.68,-164.55 818.8,-164.08 815.9,-163.59"/>
<polygon fill="midnightblue" stroke="midnightblue" points="1138.01,-210.27 1148.34,-207.93 1138.81,-203.31 1138.01,-210.27"/>
</g>
<!-- Node14 -->
<g id="node14" class="node">
<title>Node14</title>
<g id="a_node14"><a xlink:href="post__buffer_8h.html" target="_top" xlink:title=" ">
<polygon fill="white" stroke="black" points="833.5,-134.5 833.5,-164.5 969.5,-164.5 969.5,-134.5 833.5,-134.5"/>
<text text-anchor="start" x="841.5" y="-152.5" font-family="Helvetica,sans-Serif" font-size="10.00">src/graphics/framebuffer</text>
<text text-anchor="middle" x="901.5" y="-141.5" font-family="Helvetica,sans-Serif" font-size="10.00">/post_buffer.h</text>
</a>
</g>
</g>
<!-- Node8&#45;&gt;Node14 -->
<g id="edge18" class="edge">
<title>Node8&#45;&gt;Node14</title>
<path fill="none" stroke="midnightblue" d="M1138.72,-199.45C1086.86,-188.75 1019.35,-174.82 969.61,-164.55"/>
<polygon fill="midnightblue" stroke="midnightblue" points="1138.04,-202.88 1148.54,-201.48 1139.45,-196.03 1138.04,-202.88"/>
</g>
<!-- Node15 -->
<g id="node15" class="node">
<title>Node15</title>
<g id="a_node15"><a xlink:href="shadow__2d__buffer_8h.html" target="_top" xlink:title=" ">
<polygon fill="white" stroke="black" points="987.5,-134.5 987.5,-164.5 1123.5,-164.5 1123.5,-134.5 987.5,-134.5"/>
<text text-anchor="start" x="995.5" y="-152.5" font-family="Helvetica,sans-Serif" font-size="10.00">src/graphics/framebuffer</text>
<text text-anchor="middle" x="1055.5" y="-141.5" font-family="Helvetica,sans-Serif" font-size="10.00">/shadow_2d_buffer.h</text>
</a>
</g>
</g>
<!-- Node8&#45;&gt;Node15 -->
<g id="edge20" class="edge">
<title>Node8&#45;&gt;Node15</title>
<path fill="none" stroke="midnightblue" d="M1172.02,-197.54C1146.26,-187.14 1114.3,-174.24 1090.37,-164.58"/>
<polygon fill="midnightblue" stroke="midnightblue" points="1170.98,-200.9 1181.57,-201.4 1173.6,-194.41 1170.98,-200.9"/>
</g>
<!-- Node16 -->
<g id="node16" class="node">
<title>Node16</title>
<g id="a_node16"><a xlink:href="shadow__cubemap__buffer_8h.html" target="_top" xlink:title=" ">
<polygon fill="white" stroke="black" points="1142,-134.5 1142,-164.5 1291,-164.5 1291,-134.5 1142,-134.5"/>
<text text-anchor="start" x="1150" y="-152.5" font-family="Helvetica,sans-Serif" font-size="10.00">src/graphics/framebuffer</text>
<text text-anchor="middle" x="1216.5" y="-141.5" font-family="Helvetica,sans-Serif" font-size="10.00">/shadow_cubemap_buffer.h</text>
</a>
</g>
</g>
<!-- Node8&#45;&gt;Node16 -->
<g id="edge22" class="edge">
<title>Node8&#45;&gt;Node16</title>
<path fill="none" stroke="midnightblue" d="M1216.5,-191.11C1216.5,-182.15 1216.5,-172.32 1216.5,-164.58"/>
<polygon fill="midnightblue" stroke="midnightblue" points="1213,-191.4 1216.5,-201.4 1220,-191.4 1213,-191.4"/>
</g>
<!-- Node9&#45;&gt;Node4 -->
<g id="edge10" class="edge">
<title>Node9&#45;&gt;Node4</title>
<path fill="none" stroke="midnightblue" d="M1299.06,-133.87C1125.89,-109.65 932.84,-94.32 837.32,-87.52"/>
<polygon fill="midnightblue" stroke="midnightblue" points="1298.73,-137.36 1309.12,-135.29 1299.71,-130.43 1298.73,-137.36"/>
</g>
<!-- Node10&#45;&gt;Node4 -->
<g id="edge12" class="edge">
<title>Node10&#45;&gt;Node4</title>
<path fill="none" stroke="midnightblue" d="M1453.1,-133.91C1219.81,-103.87 953.52,-90.51 837.04,-85.71"/>
<polygon fill="midnightblue" stroke="midnightblue" points="1452.76,-137.4 1463.13,-135.21 1453.66,-130.45 1452.76,-137.4"/>
</g>
<!-- Node12&#45;&gt;Node4 -->
<g id="edge15" class="edge">
<title>Node12&#45;&gt;Node4</title>
<path fill="none" stroke="midnightblue" d="M1607.14,-133.93C1313.14,-98.08 972.52,-87.52 837.19,-84.56"/>
<polygon fill="midnightblue" stroke="midnightblue" points="1606.78,-137.42 1617.14,-135.17 1607.64,-130.47 1606.78,-137.42"/>
</g>
<!-- Node13&#45;&gt;Node4 -->
<g id="edge17" class="edge">
<title>Node13&#45;&gt;Node4</title>
<path fill="none" stroke="midnightblue" d="M758.22,-125.28C762.49,-116.02 767.27,-105.66 771,-97.58"/>
<polygon fill="midnightblue" stroke="midnightblue" points="755.02,-123.85 754.01,-134.4 761.38,-126.78 755.02,-123.85"/>
</g>
<!-- Node14&#45;&gt;Node4 -->
<g id="edge19" class="edge">
<title>Node14&#45;&gt;Node4</title>
<path fill="none" stroke="midnightblue" d="M865.66,-129.71C846.11,-119.46 822.3,-106.98 804.35,-97.58"/>
<polygon fill="midnightblue" stroke="midnightblue" points="864.11,-132.85 874.59,-134.4 867.36,-126.65 864.11,-132.85"/>
</g>
<!-- Node15&#45;&gt;Node4 -->
<g id="edge21" class="edge">
<title>Node15&#45;&gt;Node4</title>
<path fill="none" stroke="midnightblue" d="M985.69,-132.18C940,-121.49 880.92,-107.68 837.37,-97.5"/>
<polygon fill="midnightblue" stroke="midnightblue" points="984.99,-135.61 995.52,-134.48 986.58,-128.79 984.99,-135.61"/>
</g>
<!-- Node16&#45;&gt;Node4 -->
<g id="edge23" class="edge">
<title>Node16&#45;&gt;Node4</title>
<path fill="none" stroke="midnightblue" d="M1131.91,-133.94C1021.83,-116.72 905.8,-100.69 837.25,-91.45"/>
<polygon fill="midnightblue" stroke="midnightblue" points="1131.44,-137.4 1141.86,-135.5 1132.53,-130.49 1131.44,-137.4"/>
</g>
<!-- Node17&#45;&gt;Node2 -->
<g id="edge25" class="edge">
<title>Node17&#45;&gt;Node2</title>
<path fill="none" stroke="midnightblue" d="M161.65,-193.66C172,-181.86 184.18,-167.97 191.88,-159.19"/>
<polygon fill="midnightblue" stroke="midnightblue" points="158.83,-191.57 154.87,-201.4 164.09,-196.18 158.83,-191.57"/>
</g>
<!-- Node18&#45;&gt;Node4 -->
<g id="edge34" class="edge">
<title>Node18&#45;&gt;Node4</title>
<path fill="none" stroke="midnightblue" d="M558.25,-196.21C587.41,-179.25 631.37,-154.2 670.5,-134 695.69,-121 724.81,-107.34 746.31,-97.51"/>
<polygon fill="midnightblue" stroke="midnightblue" points="556.21,-193.35 549.33,-201.42 559.73,-199.4 556.21,-193.35"/>
</g>
<!-- Node19 -->
<g id="node19" class="node">
<title>Node19</title>
<g id="a_node19"><a xlink:href="render__mesh_8h.html" target="_top" xlink:title=" ">
<polygon fill="white" stroke="black" points="325,-134.5 325,-164.5 448,-164.5 448,-134.5 325,-134.5"/>
<text text-anchor="start" x="333" y="-152.5" font-family="Helvetica,sans-Serif" font-size="10.00">src/component/render</text>
<text text-anchor="middle" x="386.5" y="-141.5" font-family="Helvetica,sans-Serif" font-size="10.00">_mesh.h</text>
</a>
</g>
</g>
<!-- Node18&#45;&gt;Node19 -->
<g id="edge27" class="edge">
<title>Node18&#45;&gt;Node19</title>
<path fill="none" stroke="midnightblue" d="M486.22,-197.13C464.13,-186.8 436.99,-174.11 416.6,-164.58"/>
<polygon fill="midnightblue" stroke="midnightblue" points="484.8,-200.33 495.34,-201.4 487.76,-193.99 484.8,-200.33"/>
</g>
<!-- Node20 -->
<g id="node20" class="node">
<title>Node20</title>
<g id="a_node20"><a xlink:href="material_8cpp.html" target="_top" xlink:title=" ">
<polygon fill="white" stroke="black" points="466,-134.5 466,-164.5 585,-164.5 585,-134.5 466,-134.5"/>
<text text-anchor="start" x="474" y="-152.5" font-family="Helvetica,sans-Serif" font-size="10.00">src/graphics/material</text>
<text text-anchor="middle" x="525.5" y="-141.5" font-family="Helvetica,sans-Serif" font-size="10.00">/material.cpp</text>
</a>
</g>
</g>
<!-- Node18&#45;&gt;Node20 -->
<g id="edge31" class="edge">
<title>Node18&#45;&gt;Node20</title>
<path fill="none" stroke="midnightblue" d="M525.5,-191.11C525.5,-182.15 525.5,-172.32 525.5,-164.58"/>
<polygon fill="midnightblue" stroke="midnightblue" points="522,-191.4 525.5,-201.4 529,-191.4 522,-191.4"/>
</g>
<!-- Node21 -->
<g id="node21" class="node">
<title>Node21</title>
<g id="a_node21"><a xlink:href="material__manager_8h.html" target="_top" xlink:title=" ">
<polygon fill="white" stroke="black" points="524,-67.5 524,-97.5 643,-97.5 643,-67.5 524,-67.5"/>
<text text-anchor="start" x="532" y="-85.5" font-family="Helvetica,sans-Serif" font-size="10.00">src/graphics/material</text>
<text text-anchor="middle" x="583.5" y="-74.5" font-family="Helvetica,sans-Serif" font-size="10.00">/material_manager.h</text>
</a>
</g>
</g>
<!-- Node18&#45;&gt;Node21 -->
<g id="edge32" class="edge">
<title>Node18&#45;&gt;Node21</title>
<path fill="none" stroke="midnightblue" d="M564.91,-196.01C576.6,-188.11 588.01,-177.78 594.5,-165 605.48,-143.35 597.03,-114.52 590.11,-97.58"/>
<polygon fill="midnightblue" stroke="midnightblue" points="563.02,-193.06 556.41,-201.34 566.74,-198.99 563.02,-193.06"/>
</g>
<!-- Node19&#45;&gt;Node3 -->
<g id="edge28" class="edge">
<title>Node19&#45;&gt;Node3</title>
<path fill="none" stroke="midnightblue" d="M378.76,-124.75C369.82,-97.29 355.39,-52.99 348.07,-30.52"/>
<polygon fill="midnightblue" stroke="midnightblue" points="375.47,-125.95 381.9,-134.37 382.13,-123.78 375.47,-125.95"/>
</g>
<!-- Node19&#45;&gt;Node4 -->
<g id="edge29" class="edge">
<title>Node19&#45;&gt;Node4</title>
<path fill="none" stroke="midnightblue" d="M458.01,-133.96C554.94,-116.57 655.56,-101.26 717.8,-92.1"/>
<polygon fill="midnightblue" stroke="midnightblue" points="457.26,-130.54 448.04,-135.76 458.5,-137.42 457.26,-130.54"/>
</g>
<!-- Node19&#45;&gt;Node7 -->
<g id="edge30" class="edge">
<title>Node19&#45;&gt;Node7</title>
<path fill="none" stroke="midnightblue" d="M349.68,-129.8C325.14,-117.34 294.06,-101.56 275.25,-92.01"/>
<polygon fill="midnightblue" stroke="midnightblue" points="348.22,-132.99 358.73,-134.4 351.39,-126.75 348.22,-132.99"/>
</g>
<!-- Node21&#45;&gt;Node3 -->
<g id="edge33" class="edge">
<title>Node21&#45;&gt;Node3</title>
<path fill="none" stroke="midnightblue" d="M522.02,-64.85C482.89,-54.25 432.77,-40.68 395.6,-30.61"/>
<polygon fill="midnightblue" stroke="midnightblue" points="521.15,-68.24 531.72,-67.48 522.98,-61.48 521.15,-68.24"/>
</g>
<!-- Node22&#45;&gt;Node5 -->
<g id="edge36" class="edge">
<title>Node22&#45;&gt;Node5</title>
<path fill="none" stroke="midnightblue" d="M308.03,-191.44C305.47,-174 305.11,-150.65 316.5,-134 362.97,-66.07 457.6,-37.15 522.04,-25.02"/>
<polygon fill="midnightblue" stroke="midnightblue" points="304.61,-192.2 309.82,-201.43 311.5,-190.97 304.61,-192.2"/>
</g>
<!-- Node22&#45;&gt;Node23 -->
<g id="edge37" class="edge">
<title>Node22&#45;&gt;Node23</title>
<path fill="none" stroke="midnightblue" d="M248.2,-198.98C206.22,-188.37 152.26,-174.72 112.29,-164.61"/>
<polygon fill="midnightblue" stroke="midnightblue" points="247.5,-202.42 258.05,-201.48 249.21,-195.63 247.5,-202.42"/>
</g>
<!-- Node23&#45;&gt;Node3 -->
<g id="edge38" class="edge">
<title>Node23&#45;&gt;Node3</title>
<path fill="none" stroke="midnightblue" d="M82.43,-128.32C106.67,-110.24 144.45,-84.02 180.5,-67 213.59,-51.38 252.69,-39.08 284.3,-30.53"/>
<polygon fill="midnightblue" stroke="midnightblue" points="80.31,-125.53 74.44,-134.35 84.53,-131.12 80.31,-125.53"/>
</g>
</g>
</svg>
        <g id="navigator" transform="translate(0 0)" fill="#404254">
                <rect fill="#f2f5e9" fill-opacity="0.5" stroke="#606060" stroke-width=".5" x="0" y="0" width="60" height="60"/>
                <use id="zoomplus" xlink:href="#zoomPlus" x="17" y="9" onmousedown="handleZoom(evt,'in')"/>
                <use id="zoomminus" xlink:href="#zoomMin" x="42" y="9" onmousedown="handleZoom(evt,'out')"/>
                <use id="reset" xlink:href="#resetDef" x="30" y="36" onmousedown="handleReset()"/>
                <g id="arrowUp" xlink:href="#dirArrow" transform="translate(30 24)" onmousedown="handlePan(0,-1)">
                  <use xlink:href="#rim" fill="#404040">
                        <set attributeName="fill" to="#808080" begin="arrowUp.mouseover" end="arrowUp.mouseout"/>
                  </use>
                  <path fill="none" stroke="white" stroke-width="1.5" d="M0,-3.0v7 M-2.5,-0.5L0,-3.0L2.5,-0.5"/>
                </g>
                <g id="arrowRight" xlink:href="#dirArrow" transform="rotate(90) translate(36 -43)" onmousedown="handlePan(1,0)">
                  <use xlink:href="#rim" fill="#404040">
                        <set attributeName="fill" to="#808080" begin="arrowRight.mouseover" end="arrowRight.mouseout"/>
                  </use>
                  <path fill="none" stroke="white" stroke-width="1.5" d="M0,-3.0v7 M-2.5,-0.5L0,-3.0L2.5,-0.5"/>
                </g>
                <g id="arrowDown" xlink:href="#dirArrow" transform="rotate(180) translate(-30 -48)" onmousedown="handlePan(0,1)">
                  <use xlink:href="#rim" fill="#404040">
                        <set attributeName="fill" to="#808080" begin="arrowDown.mouseover" end="arrowDown.mouseout"/>
                  </use>
                  <path fill="none" stroke="white" stroke-width="1.5" d="M0,-3.0v7 M-2.5,-0.5L0,-3.0L2.5,-0.5"/>
                </g>
                <g id="arrowLeft" xlink:href="#dirArrow" transform="rotate(270) translate(-36 17)" onmousedown="handlePan(-1,0)">
                  <use xlink:href="#rim" fill="#404040">
                        <set attributeName="fill" to="#808080" begin="arrowLeft.mouseover" end="arrowLeft.mouseout"/>
                  </use>
                  <path fill="none" stroke="white" stroke-width="1.5" d="M0,-3.0v7 M-2.5,-0.5L0,-3.0L2.5,-0.5"/>
                </g>
        </g>
        <svg viewBox="0 0 15 15" width="100%" height="30px" preserveAspectRatio="xMaxYMin meet">
         <g id="arrow_out" transform="scale(0.3 0.3)">
          <a xlink:href="texture_8h__dep__incl_org.svg" target="_base">
           <rect id="button" ry="5" rx="5" y="6" x="6" height="38" width="38"
                fill="#f2f5e9" fill-opacity="0.5" stroke="#606060" stroke-width="1.0"/>
           <path id="arrow"
             d="M 11.500037,31.436501 C 11.940474,20.09759 22.043105,11.32322 32.158766,21.979434 L 37.068811,17.246167 C 37.068811,17.246167 37.088388,32 37.088388,32 L 22.160133,31.978069 C 22.160133,31.978069 26.997745,27.140456 26.997745,27.140456 C 18.528582,18.264221 13.291696,25.230495 11.500037,31.436501 z"
             style="fill:#404040;"/>
          </a>
         </g>
        </svg>
</svg>
