<?xml version="1.0" encoding="UTF-8" standalone="no"?>
<!DOCTYPE svg PUBLIC "-//W3C//DTD SVG 1.1//EN"
 "http://www.w3.org/Graphics/SVG/1.1/DTD/svg11.dtd">
<!-- Generated by graphviz version 2.43.0 (0)
 -->
<!-- Title: src/graphics/texture/texture.h Pages: 1 -->
<!--zoomable 307 -->
<svg id="main" version="1.1" xmlns="http://www.w3.org/2000/svg" xmlns:xlink="http://www.w3.org/1999/xlink" xml:space="preserve" onload="init(evt)">
<style type="text/css"><![CDATA[
.edge:hover path { stroke: red; }
.edge:hover polygon { stroke: red; fill: red; }
]]></style>
<script type="text/javascript"><![CDATA[
var edges = document.getElementsByTagName('g');
if (edges && edges.length) {
  for (var i=0;i<edges.length;i++) {
    if (edges[i].id.substr(0,4)=='edge') {
      edges[i].setAttribute('class','edge');
    }
  }
}
]]></script>
        <defs>
                <circle id="rim" cx="0" cy="0" r="7"/>
                <circle id="rim2" cx="0" cy="0" r="3.5"/>
                <g id="zoomPlus">
                        <use xlink:href="#rim" fill="#404040">
                                <set attributeName="fill" to="#808080" begin="zoomplus.mouseover" end="zoomplus.mouseout"/>
                        </use>
                        <path d="M-4,0h8M0,-4v8" fill="none" stroke="white" stroke-width="1.5" pointer-events="none"/>
                </g>
                <g id="zoomMin">
                        <use xlink:href="#rim" fill="#404040">
                                <set attributeName="fill" to="#808080" begin="zoomminus.mouseover" end="zoomminus.mouseout"/>
                        </use>
                        <path d="M-4,0h8" fill="none" stroke="white" stroke-width="1.5" pointer-events="none"/>
                </g>
                <g id="dirArrow">
                        <path fill="none" stroke="white" stroke-width="1.5" d="M0,-3.0v7 M-2.5,-0.5L0,-3.0L2.5,-0.5"/>
                </g>
               <g id="resetDef">
                       <use xlink:href="#rim2" fill="#404040">
                               <set attributeName="fill" to="#808080" begin="reset.mouseover" end="reset.mouseout"/>
                       </use>
               </g>
        </defs>

<script type="text/javascript">
var viewWidth = 1763;
var viewHeight = 307;
var sectionId = 'dynsection-1';
</script>
<script xlink:href="svgpan.js"/>
<svg id="graph" class="graph">
<g id="viewport">
<title>src/graphics/texture/texture.h</title>
<polygon fill="white" stroke="transparent" points="-4,4 -4,-303 1758.5,-303 1758.5,4 -4,4"/>
<!-- Node1 -->
<g id="node1" class="node">
<title>Node1</title>
<g id="a_node1"><a xlink:title=" ">
<polygon fill="#bfbfbf" stroke="black" points="1422.5,-268.5 1422.5,-298.5 1535.5,-298.5 1535.5,-268.5 1422.5,-268.5"/>
<text text-anchor="start" x="1430.5" y="-286.5" font-family="Helvetica,sans-Serif" font-size="10.00">src/graphics/texture</text>
<text text-anchor="middle" x="1479" y="-275.5" font-family="Helvetica,sans-Serif" font-size="10.00">/texture.h</text>
</a>
</g>
</g>
<!-- Node2 -->
<g id="node2" class="node">
<title>Node2</title>
<g id="a_node2"><a xlink:href="camera_8h.html" target="_top" xlink:title=" ">
<polygon fill="white" stroke="black" points="1447.5,-140 1447.5,-159 1584.5,-159 1584.5,-140 1447.5,-140"/>
<text text-anchor="middle" x="1516" y="-147" font-family="Helvetica,sans-Serif" font-size="10.00">src/component/camera.h</text>
</a>
</g>
</g>
<!-- Node1&#45;&gt;Node2 -->
<g id="edge1" class="edge">
<title>Node1&#45;&gt;Node2</title>
<path fill="none" stroke="midnightblue" d="M1491.15,-259.15C1495.1,-250.77 1499.19,-241.13 1502,-232 1509.94,-206.21 1513.77,-174.34 1515.24,-159.24"/>
<polygon fill="midnightblue" stroke="midnightblue" points="1487.92,-257.78 1486.66,-268.3 1494.21,-260.87 1487.92,-257.78"/>
</g>
<!-- Node8 -->
<g id="node8" class="node">
<title>Node8</title>
<g id="a_node8"><a xlink:href="framebuffer_8h.html" target="_top" xlink:title=" ">
<polygon fill="white" stroke="black" points="550,-201.5 550,-231.5 686,-231.5 686,-201.5 550,-201.5"/>
<text text-anchor="start" x="558" y="-219.5" font-family="Helvetica,sans-Serif" font-size="10.00">src/graphics/framebuffer</text>
<text text-anchor="middle" x="618" y="-208.5" font-family="Helvetica,sans-Serif" font-size="10.00">/framebuffer.h</text>
</a>
</g>
</g>
<!-- Node1&#45;&gt;Node8 -->
<g id="edge8" class="edge">
<title>Node1&#45;&gt;Node8</title>
<path fill="none" stroke="midnightblue" d="M1411.97,-277.44C1251.65,-265.34 847.38,-234.82 686.04,-222.64"/>
<polygon fill="midnightblue" stroke="midnightblue" points="1411.94,-280.95 1422.17,-278.21 1412.47,-273.97 1411.94,-280.95"/>
</g>
<!-- Node19 -->
<g id="node19" class="node">
<title>Node19</title>
<g id="a_node19"><a xlink:href="skybox_8h.html" target="_top" xlink:title=" ">
<polygon fill="white" stroke="black" points="1378.5,-201.5 1378.5,-231.5 1493.5,-231.5 1493.5,-201.5 1378.5,-201.5"/>
<text text-anchor="start" x="1386.5" y="-219.5" font-family="Helvetica,sans-Serif" font-size="10.00">src/graphics/lighting</text>
<text text-anchor="middle" x="1436" y="-208.5" font-family="Helvetica,sans-Serif" font-size="10.00">/skybox.h</text>
</a>
</g>
</g>
<!-- Node1&#45;&gt;Node19 -->
<g id="edge25" class="edge">
<title>Node1&#45;&gt;Node19</title>
<path fill="none" stroke="midnightblue" d="M1464.03,-259.87C1457.8,-250.46 1450.77,-239.83 1445.31,-231.58"/>
<polygon fill="midnightblue" stroke="midnightblue" points="1461.23,-261.99 1469.67,-268.4 1467.07,-258.12 1461.23,-261.99"/>
</g>
<!-- Node20 -->
<g id="node20" class="node">
<title>Node20</title>
<g id="a_node20"><a xlink:href="material_8h.html" target="_top" xlink:title=" ">
<polygon fill="white" stroke="black" points="1218.5,-201.5 1218.5,-231.5 1337.5,-231.5 1337.5,-201.5 1218.5,-201.5"/>
<text text-anchor="start" x="1226.5" y="-219.5" font-family="Helvetica,sans-Serif" font-size="10.00">src/graphics/material</text>
<text text-anchor="middle" x="1278" y="-208.5" font-family="Helvetica,sans-Serif" font-size="10.00">/material.h</text>
</a>
</g>
</g>
<!-- Node1&#45;&gt;Node20 -->
<g id="edge27" class="edge">
<title>Node1&#45;&gt;Node20</title>
<path fill="none" stroke="midnightblue" d="M1425.59,-265.23C1393.07,-254.71 1352.06,-241.45 1321.53,-231.58"/>
<polygon fill="midnightblue" stroke="midnightblue" points="1424.79,-268.65 1435.39,-268.4 1426.95,-261.99 1424.79,-268.65"/>
</g>
<!-- Node24 -->
<g id="node24" class="node">
<title>Node24</title>
<g id="a_node24"><a xlink:href="texture__loader_8h.html" target="_top" xlink:title=" ">
<polygon fill="white" stroke="black" points="1556.5,-201.5 1556.5,-231.5 1669.5,-231.5 1669.5,-201.5 1556.5,-201.5"/>
<text text-anchor="start" x="1564.5" y="-219.5" font-family="Helvetica,sans-Serif" font-size="10.00">src/graphics/texture</text>
<text text-anchor="middle" x="1613" y="-208.5" font-family="Helvetica,sans-Serif" font-size="10.00">/texture_loader.h</text>
</a>
</g>
</g>
<!-- Node1&#45;&gt;Node24 -->
<g id="edge36" class="edge">
<title>Node1&#45;&gt;Node24</title>
<path fill="none" stroke="midnightblue" d="M1517.15,-263.99C1538.39,-253.69 1564.41,-241.07 1583.98,-231.58"/>
<polygon fill="midnightblue" stroke="midnightblue" points="1515.55,-260.88 1508.08,-268.4 1518.6,-267.18 1515.55,-260.88"/>
</g>
<!-- Node25 -->
<g id="node25" class="node">
<title>Node25</title>
<g id="a_node25"><a xlink:href="texture__manager_8h.html" target="_top" xlink:title=" ">
<polygon fill="white" stroke="black" points="1641.5,-134.5 1641.5,-164.5 1754.5,-164.5 1754.5,-134.5 1641.5,-134.5"/>
<text text-anchor="start" x="1649.5" y="-152.5" font-family="Helvetica,sans-Serif" font-size="10.00">src/graphics/texture</text>
<text text-anchor="middle" x="1698" y="-141.5" font-family="Helvetica,sans-Serif" font-size="10.00">/texture_manager.h</text>
</a>
</g>
</g>
<!-- Node1&#45;&gt;Node25 -->
<g id="edge40" class="edge">
<title>Node1&#45;&gt;Node25</title>
<path fill="none" stroke="midnightblue" d="M1545.71,-273.24C1596.38,-264.86 1660.42,-250.93 1679,-232 1696.71,-213.96 1699.12,-182.79 1698.85,-164.68"/>
<polygon fill="midnightblue" stroke="midnightblue" points="1545.09,-269.79 1535.77,-274.84 1546.2,-276.7 1545.09,-269.79"/>
</g>
<!-- Node3 -->
<g id="node3" class="node">
<title>Node3</title>
<g id="a_node3"><a xlink:href="game__scene_8cpp.html" target="_top" xlink:title=" ">
<polygon fill="white" stroke="black" points="1304,-0.5 1304,-30.5 1428,-30.5 1428,-0.5 1304,-0.5"/>
<text text-anchor="start" x="1312" y="-18.5" font-family="Helvetica,sans-Serif" font-size="10.00">src/game/scene/game</text>
<text text-anchor="middle" x="1366" y="-7.5" font-family="Helvetica,sans-Serif" font-size="10.00">_scene.cpp</text>
</a>
</g>
</g>
<!-- Node2&#45;&gt;Node3 -->
<g id="edge2" class="edge">
<title>Node2&#45;&gt;Node3</title>
<path fill="none" stroke="midnightblue" d="M1521.98,-130.13C1526.58,-112.28 1530.15,-85.26 1517,-67 1496.81,-38.96 1460.34,-26.26 1428.29,-20.61"/>
<polygon fill="midnightblue" stroke="midnightblue" points="1518.57,-129.32 1519.13,-139.9 1525.29,-131.28 1518.57,-129.32"/>
</g>
<!-- Node4 -->
<g id="node4" class="node">
<title>Node4</title>
<g id="a_node4"><a xlink:href="graphics__renderer_8h.html" target="_top" xlink:title=" ">
<polygon fill="white" stroke="black" points="863.5,-67.5 863.5,-97.5 982.5,-97.5 982.5,-67.5 863.5,-67.5"/>
<text text-anchor="start" x="871.5" y="-85.5" font-family="Helvetica,sans-Serif" font-size="10.00">src/graphics/renderer</text>
<text text-anchor="middle" x="923" y="-74.5" font-family="Helvetica,sans-Serif" font-size="10.00">/graphics_renderer.h</text>
</a>
</g>
</g>
<!-- Node2&#45;&gt;Node4 -->
<g id="edge3" class="edge">
<title>Node2&#45;&gt;Node4</title>
<path fill="none" stroke="midnightblue" d="M1464.32,-138.12C1455.56,-136.58 1446.54,-135.14 1438,-134 1240.87,-107.79 1188.81,-126.51 992,-98 988.97,-97.56 985.88,-97.07 982.76,-96.54"/>
<polygon fill="midnightblue" stroke="midnightblue" points="1463.97,-141.61 1474.43,-139.95 1465.22,-134.72 1463.97,-141.61"/>
</g>
<!-- Node7 -->
<g id="node7" class="node">
<title>Node7</title>
<g id="a_node7"><a xlink:href="scene_8cpp.html" target="_top" xlink:title=" ">
<polygon fill="white" stroke="black" points="1394,-73 1394,-92 1508,-92 1508,-73 1394,-73"/>
<text text-anchor="middle" x="1451" y="-80" font-family="Helvetica,sans-Serif" font-size="10.00">src/scene/scene.cpp</text>
</a>
</g>
</g>
<!-- Node2&#45;&gt;Node7 -->
<g id="edge7" class="edge">
<title>Node2&#45;&gt;Node7</title>
<path fill="none" stroke="midnightblue" d="M1500,-132.5C1487.25,-119.75 1469.89,-102.39 1459.63,-92.13"/>
<polygon fill="midnightblue" stroke="midnightblue" points="1497.69,-135.14 1507.23,-139.73 1502.64,-130.19 1497.69,-135.14"/>
</g>
<!-- Node4&#45;&gt;Node3 -->
<g id="edge5" class="edge">
<title>Node4&#45;&gt;Node3</title>
<path fill="none" stroke="midnightblue" d="M992.88,-66.93C1108.5,-47.26 1231.64,-31.92 1303.91,-23.48"/>
<polygon fill="midnightblue" stroke="midnightblue" points="992.05,-63.52 982.79,-68.66 993.24,-70.42 992.05,-63.52"/>
</g>
<!-- Node5 -->
<g id="node5" class="node">
<title>Node5</title>
<g id="a_node5"><a xlink:href="application_8cpp.html" target="_top" xlink:title=" ">
<polygon fill="white" stroke="black" points="1062.5,-6 1062.5,-25 1227.5,-25 1227.5,-6 1062.5,-6"/>
<text text-anchor="middle" x="1145" y="-13" font-family="Helvetica,sans-Serif" font-size="10.00">src/application/application.cpp</text>
</a>
</g>
</g>
<!-- Node4&#45;&gt;Node5 -->
<g id="edge4" class="edge">
<title>Node4&#45;&gt;Node5</title>
<path fill="none" stroke="midnightblue" d="M980.75,-64.59C1024.11,-51.9 1081.67,-35.04 1115.87,-25.03"/>
<polygon fill="midnightblue" stroke="midnightblue" points="979.51,-61.31 970.9,-67.48 981.48,-68.02 979.51,-61.31"/>
</g>
<!-- Node6 -->
<g id="node6" class="node">
<title>Node6</title>
<g id="a_node6"><a xlink:href="graphics__renderer_8cpp.html" target="_top" xlink:title=" ">
<polygon fill="white" stroke="black" points="859.5,-0.5 859.5,-30.5 986.5,-30.5 986.5,-0.5 859.5,-0.5"/>
<text text-anchor="start" x="867.5" y="-18.5" font-family="Helvetica,sans-Serif" font-size="10.00">src/graphics/renderer</text>
<text text-anchor="middle" x="923" y="-7.5" font-family="Helvetica,sans-Serif" font-size="10.00">/graphics_renderer.cpp</text>
</a>
</g>
</g>
<!-- Node4&#45;&gt;Node6 -->
<g id="edge6" class="edge">
<title>Node4&#45;&gt;Node6</title>
<path fill="none" stroke="midnightblue" d="M923,-57.11C923,-48.15 923,-38.32 923,-30.58"/>
<polygon fill="midnightblue" stroke="midnightblue" points="919.5,-57.4 923,-67.4 926.5,-57.4 919.5,-57.4"/>
</g>
<!-- Node9 -->
<g id="node9" class="node">
<title>Node9</title>
<g id="a_node9"><a xlink:href="forward__buffer_8h.html" target="_top" xlink:title=" ">
<polygon fill="white" stroke="black" points="630,-134.5 630,-164.5 766,-164.5 766,-134.5 630,-134.5"/>
<text text-anchor="start" x="638" y="-152.5" font-family="Helvetica,sans-Serif" font-size="10.00">src/graphics/framebuffer</text>
<text text-anchor="middle" x="698" y="-141.5" font-family="Helvetica,sans-Serif" font-size="10.00">/forward_buffer.h</text>
</a>
</g>
</g>
<!-- Node8&#45;&gt;Node9 -->
<g id="edge9" class="edge">
<title>Node8&#45;&gt;Node9</title>
<path fill="none" stroke="midnightblue" d="M643.37,-194.88C655.53,-185.01 669.78,-173.43 680.68,-164.58"/>
<polygon fill="midnightblue" stroke="midnightblue" points="640.91,-192.37 635.36,-201.4 645.33,-197.81 640.91,-192.37"/>
</g>
<!-- Node10 -->
<g id="node10" class="node">
<title>Node10</title>
<g id="a_node10"><a xlink:href="framebuffer_8cpp.html" target="_top" xlink:title=" ">
<polygon fill="white" stroke="black" points="308,-134.5 308,-164.5 444,-164.5 444,-134.5 308,-134.5"/>
<text text-anchor="start" x="316" y="-152.5" font-family="Helvetica,sans-Serif" font-size="10.00">src/graphics/framebuffer</text>
<text text-anchor="middle" x="376" y="-141.5" font-family="Helvetica,sans-Serif" font-size="10.00">/framebuffer.cpp</text>
</a>
</g>
</g>
<!-- Node8&#45;&gt;Node10 -->
<g id="edge11" class="edge">
<title>Node8&#45;&gt;Node10</title>
<path fill="none" stroke="midnightblue" d="M556.01,-198.85C516.55,-188.25 466.01,-174.68 428.54,-164.61"/>
<polygon fill="midnightblue" stroke="midnightblue" points="555.22,-202.26 565.79,-201.48 557.04,-195.5 555.22,-202.26"/>
</g>
<!-- Node11 -->
<g id="node11" class="node">
<title>Node11</title>
<g id="a_node11"><a xlink:href="geometry__buffer_8h.html" target="_top" xlink:title=" ">
<polygon fill="white" stroke="black" points="0,-134.5 0,-164.5 136,-164.5 136,-134.5 0,-134.5"/>
<text text-anchor="start" x="8" y="-152.5" font-family="Helvetica,sans-Serif" font-size="10.00">src/graphics/framebuffer</text>
<text text-anchor="middle" x="68" y="-141.5" font-family="Helvetica,sans-Serif" font-size="10.00">/geometry_buffer.h</text>
</a>
</g>
</g>
<!-- Node8&#45;&gt;Node11 -->
<g id="edge12" class="edge">
<title>Node8&#45;&gt;Node11</title>
<path fill="none" stroke="midnightblue" d="M539.64,-209.06C445.62,-200.89 283.35,-185.38 145,-165 142.17,-164.58 139.29,-164.14 136.39,-163.67"/>
<polygon fill="midnightblue" stroke="midnightblue" points="539.37,-212.55 549.64,-209.93 539.98,-205.58 539.37,-212.55"/>
</g>
<!-- Node13 -->
<g id="node13" class="node">
<title>Node13</title>
<g id="a_node13"><a xlink:href="light__buffer_8h.html" target="_top" xlink:title=" ">
<polygon fill="white" stroke="black" points="154,-134.5 154,-164.5 290,-164.5 290,-134.5 154,-134.5"/>
<text text-anchor="start" x="162" y="-152.5" font-family="Helvetica,sans-Serif" font-size="10.00">src/graphics/framebuffer</text>
<text text-anchor="middle" x="222" y="-141.5" font-family="Helvetica,sans-Serif" font-size="10.00">/light_buffer.h</text>
</a>
</g>
</g>
<!-- Node8&#45;&gt;Node13 -->
<g id="edge15" class="edge">
<title>Node8&#45;&gt;Node13</title>
<path fill="none" stroke="midnightblue" d="M539.65,-203.75C475.01,-193.9 380.94,-179.2 299,-165 296.05,-164.49 293.04,-163.96 290,-163.42"/>
<polygon fill="midnightblue" stroke="midnightblue" points="539.35,-207.24 549.77,-205.29 540.41,-200.32 539.35,-207.24"/>
</g>
<!-- Node15 -->
<g id="node15" class="node">
<title>Node15</title>
<g id="a_node15"><a xlink:href="post__proc__buffer_8h.html" target="_top" xlink:title=" ">
<polygon fill="white" stroke="black" points="938,-134.5 938,-164.5 1074,-164.5 1074,-134.5 938,-134.5"/>
<text text-anchor="start" x="946" y="-152.5" font-family="Helvetica,sans-Serif" font-size="10.00">src/graphics/framebuffer</text>
<text text-anchor="middle" x="1006" y="-141.5" font-family="Helvetica,sans-Serif" font-size="10.00">/post_proc_buffer.h</text>
</a>
</g>
</g>
<!-- Node8&#45;&gt;Node15 -->
<g id="edge18" class="edge">
<title>Node8&#45;&gt;Node15</title>
<path fill="none" stroke="midnightblue" d="M696.28,-203.35C759.22,-193.44 849.89,-178.87 929,-165 931.95,-164.48 934.96,-163.95 938,-163.4"/>
<polygon fill="midnightblue" stroke="midnightblue" points="695.37,-199.95 686.03,-204.96 696.45,-206.86 695.37,-199.95"/>
</g>
<!-- Node17 -->
<g id="node17" class="node">
<title>Node17</title>
<g id="a_node17"><a xlink:href="shadow__2d__buffer_8h.html" target="_top" xlink:title=" ">
<polygon fill="white" stroke="black" points="784,-134.5 784,-164.5 920,-164.5 920,-134.5 784,-134.5"/>
<text text-anchor="start" x="792" y="-152.5" font-family="Helvetica,sans-Serif" font-size="10.00">src/graphics/framebuffer</text>
<text text-anchor="middle" x="852" y="-141.5" font-family="Helvetica,sans-Serif" font-size="10.00">/shadow_2d_buffer.h</text>
</a>
</g>
</g>
<!-- Node8&#45;&gt;Node17 -->
<g id="edge21" class="edge">
<title>Node8&#45;&gt;Node17</title>
<path fill="none" stroke="midnightblue" d="M678.43,-198.71C716.51,-188.14 765.11,-174.63 801.2,-164.61"/>
<polygon fill="midnightblue" stroke="midnightblue" points="677.18,-195.43 668.49,-201.48 679.06,-202.17 677.18,-195.43"/>
</g>
<!-- Node18 -->
<g id="node18" class="node">
<title>Node18</title>
<g id="a_node18"><a xlink:href="shadow__cubemap__buffer_8h.html" target="_top" xlink:title=" ">
<polygon fill="white" stroke="black" points="462.5,-134.5 462.5,-164.5 611.5,-164.5 611.5,-134.5 462.5,-134.5"/>
<text text-anchor="start" x="470.5" y="-152.5" font-family="Helvetica,sans-Serif" font-size="10.00">src/graphics/framebuffer</text>
<text text-anchor="middle" x="537" y="-141.5" font-family="Helvetica,sans-Serif" font-size="10.00">/shadow_cubemap_buffer.h</text>
</a>
</g>
</g>
<!-- Node8&#45;&gt;Node18 -->
<g id="edge23" class="edge">
<title>Node8&#45;&gt;Node18</title>
<path fill="none" stroke="midnightblue" d="M592.31,-194.88C580,-185.01 565.57,-173.43 554.54,-164.58"/>
<polygon fill="midnightblue" stroke="midnightblue" points="590.43,-197.87 600.42,-201.4 594.82,-192.41 590.43,-197.87"/>
</g>
<!-- Node9&#45;&gt;Node4 -->
<g id="edge10" class="edge">
<title>Node9&#45;&gt;Node4</title>
<path fill="none" stroke="midnightblue" d="M756.57,-131.58C793.11,-121.02 839.6,-107.59 874.15,-97.61"/>
<polygon fill="midnightblue" stroke="midnightblue" points="755.18,-128.34 746.54,-134.48 757.12,-135.06 755.18,-128.34"/>
</g>
<!-- Node11&#45;&gt;Node4 -->
<g id="edge14" class="edge">
<title>Node11&#45;&gt;Node4</title>
<path fill="none" stroke="midnightblue" d="M146.46,-133.92C419.37,-100.09 734.1,-88.49 863.23,-84.91"/>
<polygon fill="midnightblue" stroke="midnightblue" points="145.85,-130.47 136.37,-135.18 146.72,-137.41 145.85,-130.47"/>
</g>
<!-- Node12 -->
<g id="node12" class="node">
<title>Node12</title>
<g id="a_node12"><a xlink:href="geometry__buffer_8cpp.html" target="_top" xlink:title=" ">
<polygon fill="white" stroke="black" points="0,-67.5 0,-97.5 136,-97.5 136,-67.5 0,-67.5"/>
<text text-anchor="start" x="8" y="-85.5" font-family="Helvetica,sans-Serif" font-size="10.00">src/graphics/framebuffer</text>
<text text-anchor="middle" x="68" y="-74.5" font-family="Helvetica,sans-Serif" font-size="10.00">/geometry_buffer.cpp</text>
</a>
</g>
</g>
<!-- Node11&#45;&gt;Node12 -->
<g id="edge13" class="edge">
<title>Node11&#45;&gt;Node12</title>
<path fill="none" stroke="midnightblue" d="M68,-124.11C68,-115.15 68,-105.32 68,-97.58"/>
<polygon fill="midnightblue" stroke="midnightblue" points="64.5,-124.4 68,-134.4 71.5,-124.4 64.5,-124.4"/>
</g>
<!-- Node13&#45;&gt;Node4 -->
<g id="edge17" class="edge">
<title>Node13&#45;&gt;Node4</title>
<path fill="none" stroke="midnightblue" d="M300.47,-133.89C512.97,-105.86 753.86,-91.7 863.41,-86.23"/>
<polygon fill="midnightblue" stroke="midnightblue" points="299.82,-130.45 290.37,-135.24 300.75,-137.39 299.82,-130.45"/>
</g>
<!-- Node14 -->
<g id="node14" class="node">
<title>Node14</title>
<g id="a_node14"><a xlink:href="light__buffer_8cpp.html" target="_top" xlink:title=" ">
<polygon fill="white" stroke="black" points="154,-67.5 154,-97.5 290,-97.5 290,-67.5 154,-67.5"/>
<text text-anchor="start" x="162" y="-85.5" font-family="Helvetica,sans-Serif" font-size="10.00">src/graphics/framebuffer</text>
<text text-anchor="middle" x="222" y="-74.5" font-family="Helvetica,sans-Serif" font-size="10.00">/light_buffer.cpp</text>
</a>
</g>
</g>
<!-- Node13&#45;&gt;Node14 -->
<g id="edge16" class="edge">
<title>Node13&#45;&gt;Node14</title>
<path fill="none" stroke="midnightblue" d="M222,-124.11C222,-115.15 222,-105.32 222,-97.58"/>
<polygon fill="midnightblue" stroke="midnightblue" points="218.5,-124.4 222,-134.4 225.5,-124.4 218.5,-124.4"/>
</g>
<!-- Node15&#45;&gt;Node4 -->
<g id="edge20" class="edge">
<title>Node15&#45;&gt;Node4</title>
<path fill="none" stroke="midnightblue" d="M980.04,-128.17C967.35,-118.23 952.39,-106.51 940.97,-97.58"/>
<polygon fill="midnightblue" stroke="midnightblue" points="977.96,-130.99 987.99,-134.4 982.28,-125.47 977.96,-130.99"/>
</g>
<!-- Node16 -->
<g id="node16" class="node">
<title>Node16</title>
<g id="a_node16"><a xlink:href="post__proc__buffer_8cpp.html" target="_top" xlink:title=" ">
<polygon fill="white" stroke="black" points="1001,-67.5 1001,-97.5 1137,-97.5 1137,-67.5 1001,-67.5"/>
<text text-anchor="start" x="1009" y="-85.5" font-family="Helvetica,sans-Serif" font-size="10.00">src/graphics/framebuffer</text>
<text text-anchor="middle" x="1069" y="-74.5" font-family="Helvetica,sans-Serif" font-size="10.00">/post_proc_buffer.cpp</text>
</a>
</g>
</g>
<!-- Node15&#45;&gt;Node16 -->
<g id="edge19" class="edge">
<title>Node15&#45;&gt;Node16</title>
<path fill="none" stroke="midnightblue" d="M1026.81,-127.02C1036.2,-117.34 1047.02,-106.17 1055.36,-97.58"/>
<polygon fill="midnightblue" stroke="midnightblue" points="1024.12,-124.78 1019.67,-134.4 1029.14,-129.65 1024.12,-124.78"/>
</g>
<!-- Node17&#45;&gt;Node4 -->
<g id="edge22" class="edge">
<title>Node17&#45;&gt;Node4</title>
<path fill="none" stroke="midnightblue" d="M874.83,-127.6C885.55,-117.78 898.05,-106.34 907.62,-97.58"/>
<polygon fill="midnightblue" stroke="midnightblue" points="872.42,-125.06 867.41,-134.4 877.15,-130.22 872.42,-125.06"/>
</g>
<!-- Node18&#45;&gt;Node4 -->
<g id="edge24" class="edge">
<title>Node18&#45;&gt;Node4</title>
<path fill="none" stroke="midnightblue" d="M621.52,-133.92C711.91,-118.57 804.61,-103.13 863.39,-93.37"/>
<polygon fill="midnightblue" stroke="midnightblue" points="620.92,-130.47 611.65,-135.59 622.1,-137.37 620.92,-130.47"/>
</g>
<!-- Node19&#45;&gt;Node2 -->
<g id="edge26" class="edge">
<title>Node19&#45;&gt;Node2</title>
<path fill="none" stroke="midnightblue" d="M1461.22,-195.01C1476.07,-182.94 1494.09,-168.3 1505.3,-159.19"/>
<polygon fill="midnightblue" stroke="midnightblue" points="1458.91,-192.37 1453.36,-201.4 1463.33,-197.81 1458.91,-192.37"/>
</g>
<!-- Node20&#45;&gt;Node4 -->
<g id="edge35" class="edge">
<title>Node20&#45;&gt;Node4</title>
<path fill="none" stroke="midnightblue" d="M1267.77,-192.16C1258.23,-173.3 1242.13,-147.7 1220,-134 1132.78,-79.99 1092.9,-116.55 992,-98 988.99,-97.45 985.91,-96.86 982.8,-96.26"/>
<polygon fill="midnightblue" stroke="midnightblue" points="1264.68,-193.81 1272.16,-201.31 1270.99,-190.78 1264.68,-193.81"/>
</g>
<!-- Node21 -->
<g id="node21" class="node">
<title>Node21</title>
<g id="a_node21"><a xlink:href="render__mesh_8h.html" target="_top" xlink:title=" ">
<polygon fill="white" stroke="black" points="1306.5,-134.5 1306.5,-164.5 1429.5,-164.5 1429.5,-134.5 1306.5,-134.5"/>
<text text-anchor="start" x="1314.5" y="-152.5" font-family="Helvetica,sans-Serif" font-size="10.00">src/component/render</text>
<text text-anchor="middle" x="1368" y="-141.5" font-family="Helvetica,sans-Serif" font-size="10.00">_mesh.h</text>
</a>
</g>
</g>
<!-- Node20&#45;&gt;Node21 -->
<g id="edge28" class="edge">
<title>Node20&#45;&gt;Node21</title>
<path fill="none" stroke="midnightblue" d="M1305.76,-195.45C1319.61,-185.45 1336.02,-173.6 1348.51,-164.58"/>
<polygon fill="midnightblue" stroke="midnightblue" points="1303.59,-192.7 1297.53,-201.4 1307.68,-198.38 1303.59,-192.7"/>
</g>
<!-- Node22 -->
<g id="node22" class="node">
<title>Node22</title>
<g id="a_node22"><a xlink:href="material_8cpp.html" target="_top" xlink:title=" ">
<polygon fill="white" stroke="black" points="1092.5,-134.5 1092.5,-164.5 1211.5,-164.5 1211.5,-134.5 1092.5,-134.5"/>
<text text-anchor="start" x="1100.5" y="-152.5" font-family="Helvetica,sans-Serif" font-size="10.00">src/graphics/material</text>
<text text-anchor="middle" x="1152" y="-141.5" font-family="Helvetica,sans-Serif" font-size="10.00">/material.cpp</text>
</a>
</g>
</g>
<!-- Node20&#45;&gt;Node22 -->
<g id="edge32" class="edge">
<title>Node20&#45;&gt;Node22</title>
<path fill="none" stroke="midnightblue" d="M1241.58,-196.71C1221.71,-186.46 1197.52,-173.98 1179.29,-164.58"/>
<polygon fill="midnightblue" stroke="midnightblue" points="1240.17,-199.92 1250.66,-201.4 1243.38,-193.7 1240.17,-199.92"/>
</g>
<!-- Node23 -->
<g id="node23" class="node">
<title>Node23</title>
<g id="a_node23"><a xlink:href="material__manager_8h.html" target="_top" xlink:title=" ">
<polygon fill="white" stroke="black" points="1218.5,-67.5 1218.5,-97.5 1337.5,-97.5 1337.5,-67.5 1218.5,-67.5"/>
<text text-anchor="start" x="1226.5" y="-85.5" font-family="Helvetica,sans-Serif" font-size="10.00">src/graphics/material</text>
<text text-anchor="middle" x="1278" y="-74.5" font-family="Helvetica,sans-Serif" font-size="10.00">/material_manager.h</text>
</a>
</g>
</g>
<!-- Node20&#45;&gt;Node23 -->
<g id="edge33" class="edge">
<title>Node20&#45;&gt;Node23</title>
<path fill="none" stroke="midnightblue" d="M1278,-191.02C1278,-163.51 1278,-119.79 1278,-97.52"/>
<polygon fill="midnightblue" stroke="midnightblue" points="1274.5,-191.37 1278,-201.37 1281.5,-191.37 1274.5,-191.37"/>
</g>
<!-- Node21&#45;&gt;Node3 -->
<g id="edge29" class="edge">
<title>Node21&#45;&gt;Node3</title>
<path fill="none" stroke="midnightblue" d="M1367.63,-124.02C1367.21,-96.51 1366.55,-52.79 1366.21,-30.52"/>
<polygon fill="midnightblue" stroke="midnightblue" points="1364.13,-124.43 1367.79,-134.37 1371.13,-124.32 1364.13,-124.43"/>
</g>
<!-- Node21&#45;&gt;Node4 -->
<g id="edge30" class="edge">
<title>Node21&#45;&gt;Node4</title>
<path fill="none" stroke="midnightblue" d="M1296.09,-139.13C1195.36,-125.97 1021.22,-103.03 992,-98 988.98,-97.48 985.9,-96.93 982.79,-96.35"/>
<polygon fill="midnightblue" stroke="midnightblue" points="1295.83,-142.63 1306.2,-140.45 1296.74,-135.69 1295.83,-142.63"/>
</g>
<!-- Node21&#45;&gt;Node7 -->
<g id="edge31" class="edge">
<title>Node21&#45;&gt;Node7</title>
<path fill="none" stroke="midnightblue" d="M1394.17,-128.01C1409.58,-115.94 1428.26,-101.3 1439.9,-92.19"/>
<polygon fill="midnightblue" stroke="midnightblue" points="1391.72,-125.47 1386.01,-134.4 1396.04,-130.99 1391.72,-125.47"/>
</g>
<!-- Node23&#45;&gt;Node3 -->
<g id="edge34" class="edge">
<title>Node23&#45;&gt;Node3</title>
<path fill="none" stroke="midnightblue" d="M1305.14,-61.45C1318.68,-51.45 1334.73,-39.6 1346.94,-30.58"/>
<polygon fill="midnightblue" stroke="midnightblue" points="1303.06,-58.64 1297.09,-67.4 1307.22,-64.27 1303.06,-58.64"/>
</g>
<!-- Node24&#45;&gt;Node5 -->
<g id="edge37" class="edge">
<title>Node24&#45;&gt;Node5</title>
<path fill="none" stroke="midnightblue" d="M1611.27,-191C1609.15,-173.99 1604.45,-151.36 1594,-134 1570.6,-95.14 1558.32,-85.72 1517,-67 1491.1,-55.26 1327.67,-36.06 1226.23,-25.03"/>
<polygon fill="midnightblue" stroke="midnightblue" points="1607.82,-191.66 1612.32,-201.25 1614.78,-190.95 1607.82,-191.66"/>
</g>
<!-- Node24&#45;&gt;Node25 -->
<g id="edge38" class="edge">
<title>Node24&#45;&gt;Node25</title>
<path fill="none" stroke="midnightblue" d="M1639.59,-195.17C1652.59,-185.23 1667.9,-173.51 1679.59,-164.58"/>
<polygon fill="midnightblue" stroke="midnightblue" points="1637.26,-192.54 1631.44,-201.4 1641.51,-198.1 1637.26,-192.54"/>
</g>
<!-- Node25&#45;&gt;Node3 -->
<g id="edge39" class="edge">
<title>Node25&#45;&gt;Node3</title>
<path fill="none" stroke="midnightblue" d="M1684.42,-125.85C1671.91,-107.04 1651.59,-81.17 1627,-67 1565.51,-31.58 1483.74,-20.49 1428.22,-17.28"/>
<polygon fill="midnightblue" stroke="midnightblue" points="1681.57,-127.9 1689.92,-134.43 1687.47,-124.12 1681.57,-127.9"/>
</g>
</g>
</svg>
        <g id="navigator" transform="translate(0 0)" fill="#404254">
                <rect fill="#f2f5e9" fill-opacity="0.5" stroke="#606060" stroke-width=".5" x="0" y="0" width="60" height="60"/>
                <use id="zoomplus" xlink:href="#zoomPlus" x="17" y="9" onmousedown="handleZoom(evt,'in')"/>
                <use id="zoomminus" xlink:href="#zoomMin" x="42" y="9" onmousedown="handleZoom(evt,'out')"/>
                <use id="reset" xlink:href="#resetDef" x="30" y="36" onmousedown="handleReset()"/>
                <g id="arrowUp" xlink:href="#dirArrow" transform="translate(30 24)" onmousedown="handlePan(0,-1)">
                  <use xlink:href="#rim" fill="#404040">
                        <set attributeName="fill" to="#808080" begin="arrowUp.mouseover" end="arrowUp.mouseout"/>
                  </use>
                  <path fill="none" stroke="white" stroke-width="1.5" d="M0,-3.0v7 M-2.5,-0.5L0,-3.0L2.5,-0.5"/>
                </g>
                <g id="arrowRight" xlink:href="#dirArrow" transform="rotate(90) translate(36 -43)" onmousedown="handlePan(1,0)">
                  <use xlink:href="#rim" fill="#404040">
                        <set attributeName="fill" to="#808080" begin="arrowRight.mouseover" end="arrowRight.mouseout"/>
                  </use>
                  <path fill="none" stroke="white" stroke-width="1.5" d="M0,-3.0v7 M-2.5,-0.5L0,-3.0L2.5,-0.5"/>
                </g>
                <g id="arrowDown" xlink:href="#dirArrow" transform="rotate(180) translate(-30 -48)" onmousedown="handlePan(0,1)">
                  <use xlink:href="#rim" fill="#404040">
                        <set attributeName="fill" to="#808080" begin="arrowDown.mouseover" end="arrowDown.mouseout"/>
                  </use>
                  <path fill="none" stroke="white" stroke-width="1.5" d="M0,-3.0v7 M-2.5,-0.5L0,-3.0L2.5,-0.5"/>
                </g>
                <g id="arrowLeft" xlink:href="#dirArrow" transform="rotate(270) translate(-36 17)" onmousedown="handlePan(-1,0)">
                  <use xlink:href="#rim" fill="#404040">
                        <set attributeName="fill" to="#808080" begin="arrowLeft.mouseover" end="arrowLeft.mouseout"/>
                  </use>
                  <path fill="none" stroke="white" stroke-width="1.5" d="M0,-3.0v7 M-2.5,-0.5L0,-3.0L2.5,-0.5"/>
                </g>
        </g>
        <svg viewBox="0 0 15 15" width="100%" height="30px" preserveAspectRatio="xMaxYMin meet">
         <g id="arrow_out" transform="scale(0.3 0.3)">
          <a xlink:href="texture_8h__dep__incl_org.svg" target="_base">
           <rect id="button" ry="5" rx="5" y="6" x="6" height="38" width="38"
                fill="#f2f5e9" fill-opacity="0.5" stroke="#606060" stroke-width="1.0"/>
           <path id="arrow"
             d="M 11.500037,31.436501 C 11.940474,20.09759 22.043105,11.32322 32.158766,21.979434 L 37.068811,17.246167 C 37.068811,17.246167 37.088388,32 37.088388,32 L 22.160133,31.978069 C 22.160133,31.978069 26.997745,27.140456 26.997745,27.140456 C 18.528582,18.264221 13.291696,25.230495 11.500037,31.436501 z"
             style="fill:#404040;"/>
          </a>
         </g>
        </svg>
</svg>
