<?xml version="1.0" encoding="UTF-8" standalone="no"?>
<!DOCTYPE svg PUBLIC "-//W3C//DTD SVG 1.1//EN"
 "http://www.w3.org/Graphics/SVG/1.1/DTD/svg11.dtd">
<!-- Generated by graphviz version 2.43.0 (0)
 -->
<!-- Title: src/graphics/texture/texture.h Pages: 1 -->
<!--zoomable 307 -->
<svg id="main" version="1.1" xmlns="http://www.w3.org/2000/svg" xmlns:xlink="http://www.w3.org/1999/xlink" xml:space="preserve" onload="init(evt)">
<style type="text/css"><![CDATA[
.edge:hover path { stroke: red; }
.edge:hover polygon { stroke: red; fill: red; }
]]></style>
<script type="text/javascript"><![CDATA[
var edges = document.getElementsByTagName('g');
if (edges && edges.length) {
  for (var i=0;i<edges.length;i++) {
    if (edges[i].id.substr(0,4)=='edge') {
      edges[i].setAttribute('class','edge');
    }
  }
}
]]></script>
        <defs>
                <circle id="rim" cx="0" cy="0" r="7"/>
                <circle id="rim2" cx="0" cy="0" r="3.5"/>
                <g id="zoomPlus">
                        <use xlink:href="#rim" fill="#404040">
                                <set attributeName="fill" to="#808080" begin="zoomplus.mouseover" end="zoomplus.mouseout"/>
                        </use>
                        <path d="M-4,0h8M0,-4v8" fill="none" stroke="white" stroke-width="1.5" pointer-events="none"/>
                </g>
                <g id="zoomMin">
                        <use xlink:href="#rim" fill="#404040">
                                <set attributeName="fill" to="#808080" begin="zoomminus.mouseover" end="zoomminus.mouseout"/>
                        </use>
                        <path d="M-4,0h8" fill="none" stroke="white" stroke-width="1.5" pointer-events="none"/>
                </g>
                <g id="dirArrow">
                        <path fill="none" stroke="white" stroke-width="1.5" d="M0,-3.0v7 M-2.5,-0.5L0,-3.0L2.5,-0.5"/>
                </g>
               <g id="resetDef">
                       <use xlink:href="#rim2" fill="#404040">
                               <set attributeName="fill" to="#808080" begin="reset.mouseover" end="reset.mouseout"/>
                       </use>
               </g>
        </defs>

<script type="text/javascript">
var viewWidth = 1570;
var viewHeight = 307;
var sectionId = 'dynsection-1';
</script>
<script xlink:href="svgpan.js"/>
<svg id="graph" class="graph">
<g id="viewport">
<title>src/graphics/texture/texture.h</title>
<polygon fill="white" stroke="transparent" points="-4,4 -4,-303 1566.28,-303 1566.28,4 -4,4"/>
<!-- Node1 -->
<g id="node1" class="node">
<title>Node1</title>
<g id="a_node1"><a xlink:title=" ">
<polygon fill="#bfbfbf" stroke="black" points="583,-268.5 583,-298.5 696,-298.5 696,-268.5 583,-268.5"/>
<text text-anchor="start" x="591" y="-286.5" font-family="Helvetica,sans-Serif" font-size="10.00">src/graphics/texture</text>
<text text-anchor="middle" x="639.5" y="-275.5" font-family="Helvetica,sans-Serif" font-size="10.00">/texture.h</text>
</a>
</g>
</g>
<!-- Node2 -->
<g id="node2" class="node">
<title>Node2</title>
<g id="a_node2"><a xlink:href="camera_8h.html" target="_top" xlink:title=" ">
<polygon fill="white" stroke="black" points="0,-140 0,-159 137,-159 137,-140 0,-140"/>
<text text-anchor="middle" x="68.5" y="-147" font-family="Helvetica,sans-Serif" font-size="10.00">src/component/camera.h</text>
</a>
</g>
</g>
<!-- Node1&#45;&gt;Node2 -->
<g id="edge1" class="edge">
<title>Node1&#45;&gt;Node2</title>
<path fill="none" stroke="midnightblue" d="M572.59,-280.23C459.61,-275.6 236.29,-262.77 164.5,-232 125.11,-215.12 89.76,-176.31 75.36,-159.05"/>
<polygon fill="midnightblue" stroke="midnightblue" points="572.71,-283.74 582.84,-280.64 572.99,-276.74 572.71,-283.74"/>
</g>
<!-- Node8 -->
<g id="node8" class="node">
<title>Node8</title>
<g id="a_node8"><a xlink:href="framebuffer_8h.html" target="_top" xlink:title=" ">
<polygon fill="white" stroke="black" points="818.5,-201.5 818.5,-231.5 954.5,-231.5 954.5,-201.5 818.5,-201.5"/>
<text text-anchor="start" x="826.5" y="-219.5" font-family="Helvetica,sans-Serif" font-size="10.00">src/graphics/framebuffer</text>
<text text-anchor="middle" x="886.5" y="-208.5" font-family="Helvetica,sans-Serif" font-size="10.00">/framebuffer.h</text>
</a>
</g>
</g>
<!-- Node1&#45;&gt;Node8 -->
<g id="edge8" class="edge">
<title>Node1&#45;&gt;Node8</title>
<path fill="none" stroke="midnightblue" d="M702.51,-265.92C742.82,-255.31 794.54,-241.7 832.88,-231.61"/>
<polygon fill="midnightblue" stroke="midnightblue" points="701.57,-262.55 692.79,-268.48 703.35,-269.32 701.57,-262.55"/>
</g>
<!-- Node20 -->
<g id="node20" class="node">
<title>Node20</title>
<g id="a_node20"><a xlink:href="skybox_8h.html" target="_top" xlink:title=" ">
<polygon fill="white" stroke="black" points="174,-201.5 174,-231.5 289,-231.5 289,-201.5 174,-201.5"/>
<text text-anchor="start" x="182" y="-219.5" font-family="Helvetica,sans-Serif" font-size="10.00">src/graphics/lighting</text>
<text text-anchor="middle" x="231.5" y="-208.5" font-family="Helvetica,sans-Serif" font-size="10.00">/skybox.h</text>
</a>
</g>
</g>
<!-- Node1&#45;&gt;Node20 -->
<g id="edge25" class="edge">
<title>Node1&#45;&gt;Node20</title>
<path fill="none" stroke="midnightblue" d="M572.45,-271.82C493.49,-259.24 363.66,-238.55 289.06,-226.67"/>
<polygon fill="midnightblue" stroke="midnightblue" points="572.34,-275.35 582.77,-273.46 573.44,-268.43 572.34,-275.35"/>
</g>
<!-- Node21 -->
<g id="node21" class="node">
<title>Node21</title>
<g id="a_node21"><a xlink:href="material_8h.html" target="_top" xlink:title=" ">
<polygon fill="white" stroke="black" points="333,-201.5 333,-231.5 452,-231.5 452,-201.5 333,-201.5"/>
<text text-anchor="start" x="341" y="-219.5" font-family="Helvetica,sans-Serif" font-size="10.00">src/graphics/material</text>
<text text-anchor="middle" x="392.5" y="-208.5" font-family="Helvetica,sans-Serif" font-size="10.00">/material.h</text>
</a>
</g>
</g>
<!-- Node1&#45;&gt;Node21 -->
<g id="edge27" class="edge">
<title>Node1&#45;&gt;Node21</title>
<path fill="none" stroke="midnightblue" d="M576.49,-265.92C536.18,-255.31 484.46,-241.7 446.12,-231.61"/>
<polygon fill="midnightblue" stroke="midnightblue" points="575.65,-269.32 586.21,-268.48 577.43,-262.55 575.65,-269.32"/>
</g>
<!-- Node25 -->
<g id="node25" class="node">
<title>Node25</title>
<g id="a_node25"><a xlink:href="texture__loader_8h.html" target="_top" xlink:title=" ">
<polygon fill="white" stroke="black" points="1435,-201.5 1435,-231.5 1548,-231.5 1548,-201.5 1435,-201.5"/>
<text text-anchor="start" x="1443" y="-219.5" font-family="Helvetica,sans-Serif" font-size="10.00">src/graphics/texture</text>
<text text-anchor="middle" x="1491.5" y="-208.5" font-family="Helvetica,sans-Serif" font-size="10.00">/texture_loader.h</text>
</a>
</g>
</g>
<!-- Node1&#45;&gt;Node25 -->
<g id="edge36" class="edge">
<title>Node1&#45;&gt;Node25</title>
<path fill="none" stroke="midnightblue" d="M706.41,-277.4C869.18,-264.98 1283.51,-233.37 1434.96,-221.81"/>
<polygon fill="midnightblue" stroke="midnightblue" points="705.77,-273.93 696.06,-278.18 706.3,-280.91 705.77,-273.93"/>
</g>
<!-- Node26 -->
<g id="node26" class="node">
<title>Node26</title>
<g id="a_node26"><a xlink:href="texture__manager_8h.html" target="_top" xlink:title=" ">
<polygon fill="white" stroke="black" points="1435,-134.5 1435,-164.5 1548,-164.5 1548,-134.5 1435,-134.5"/>
<text text-anchor="start" x="1443" y="-152.5" font-family="Helvetica,sans-Serif" font-size="10.00">src/graphics/texture</text>
<text text-anchor="middle" x="1491.5" y="-141.5" font-family="Helvetica,sans-Serif" font-size="10.00">/texture_manager.h</text>
</a>
</g>
</g>
<!-- Node1&#45;&gt;Node26 -->
<g id="edge40" class="edge">
<title>Node1&#45;&gt;Node26</title>
<path fill="none" stroke="midnightblue" d="M706.7,-274.02C842.82,-256.5 1160.68,-213.83 1425.5,-165 1428.5,-164.45 1431.57,-163.86 1434.67,-163.24"/>
<polygon fill="midnightblue" stroke="midnightblue" points="705.91,-270.59 696.43,-275.34 706.8,-277.54 705.91,-270.59"/>
</g>
<!-- Node3 -->
<g id="node3" class="node">
<title>Node3</title>
<g id="a_node3"><a xlink:href="game__scene_8cpp.html" target="_top" xlink:title=" ">
<polygon fill="white" stroke="black" points="378.5,-0.5 378.5,-30.5 502.5,-30.5 502.5,-0.5 378.5,-0.5"/>
<text text-anchor="start" x="386.5" y="-18.5" font-family="Helvetica,sans-Serif" font-size="10.00">src/game/scene/game</text>
<text text-anchor="middle" x="440.5" y="-7.5" font-family="Helvetica,sans-Serif" font-size="10.00">_scene.cpp</text>
</a>
</g>
</g>
<!-- Node2&#45;&gt;Node3 -->
<g id="edge2" class="edge">
<title>Node2&#45;&gt;Node3</title>
<path fill="none" stroke="midnightblue" d="M83.77,-132.75C102.91,-114 137.6,-83.18 173.5,-67 239.63,-37.19 322.63,-24.97 378.39,-19.97"/>
<polygon fill="midnightblue" stroke="midnightblue" points="81.15,-130.42 76.56,-139.97 86.1,-135.37 81.15,-130.42"/>
</g>
<!-- Node4 -->
<g id="node4" class="node">
<title>Node4</title>
<g id="a_node4"><a xlink:href="graphics__renderer_8h.html" target="_top" xlink:title=" ">
<polygon fill="white" stroke="black" points="673,-67.5 673,-97.5 792,-97.5 792,-67.5 673,-67.5"/>
<text text-anchor="start" x="681" y="-85.5" font-family="Helvetica,sans-Serif" font-size="10.00">src/graphics/renderer</text>
<text text-anchor="middle" x="732.5" y="-74.5" font-family="Helvetica,sans-Serif" font-size="10.00">/graphics_renderer.h</text>
</a>
</g>
</g>
<!-- Node2&#45;&gt;Node4 -->
<g id="edge3" class="edge">
<title>Node2&#45;&gt;Node4</title>
<path fill="none" stroke="midnightblue" d="M122.26,-138.28C131.97,-136.67 142.02,-135.16 151.5,-134 377.93,-106.33 437.57,-129.53 663.5,-98 666.53,-97.58 669.63,-97.1 672.75,-96.58"/>
<polygon fill="midnightblue" stroke="midnightblue" points="121.58,-134.84 112.31,-139.98 122.76,-141.74 121.58,-134.84"/>
</g>
<!-- Node7 -->
<g id="node7" class="node">
<title>Node7</title>
<g id="a_node7"><a xlink:href="scene_8cpp.html" target="_top" xlink:title=" ">
<polygon fill="white" stroke="black" points="182.5,-73 182.5,-92 296.5,-92 296.5,-73 182.5,-73"/>
<text text-anchor="middle" x="239.5" y="-80" font-family="Helvetica,sans-Serif" font-size="10.00">src/scene/scene.cpp</text>
</a>
</g>
</g>
<!-- Node2&#45;&gt;Node7 -->
<g id="edge7" class="edge">
<title>Node2&#45;&gt;Node7</title>
<path fill="none" stroke="midnightblue" d="M100.67,-136.27C134.61,-123.37 187.21,-103.38 216.97,-92.06"/>
<polygon fill="midnightblue" stroke="midnightblue" points="99.31,-133.04 91.21,-139.87 101.8,-139.59 99.31,-133.04"/>
</g>
<!-- Node4&#45;&gt;Node3 -->
<g id="edge5" class="edge">
<title>Node4&#45;&gt;Node3</title>
<path fill="none" stroke="midnightblue" d="M662.88,-66C614.18,-55.16 549.71,-40.81 502.73,-30.35"/>
<polygon fill="midnightblue" stroke="midnightblue" points="662.18,-69.43 672.7,-68.19 663.7,-62.6 662.18,-69.43"/>
</g>
<!-- Node5 -->
<g id="node5" class="node">
<title>Node5</title>
<g id="a_node5"><a xlink:href="application_8cpp.html" target="_top" xlink:title=" ">
<polygon fill="white" stroke="black" points="1154,-6 1154,-25 1319,-25 1319,-6 1154,-6"/>
<text text-anchor="middle" x="1236.5" y="-13" font-family="Helvetica,sans-Serif" font-size="10.00">src/application/application.cpp</text>
</a>
</g>
</g>
<!-- Node4&#45;&gt;Node5 -->
<g id="edge4" class="edge">
<title>Node4&#45;&gt;Node5</title>
<path fill="none" stroke="midnightblue" d="M802.29,-66.97C930.64,-46.39 1068.08,-31.94 1153.6,-23.85"/>
<polygon fill="midnightblue" stroke="midnightblue" points="801.59,-63.54 792.28,-68.59 802.71,-70.45 801.59,-63.54"/>
</g>
<!-- Node6 -->
<g id="node6" class="node">
<title>Node6</title>
<g id="a_node6"><a xlink:href="graphics__renderer_8cpp.html" target="_top" xlink:title=" ">
<polygon fill="white" stroke="black" points="669,-0.5 669,-30.5 796,-30.5 796,-0.5 669,-0.5"/>
<text text-anchor="start" x="677" y="-18.5" font-family="Helvetica,sans-Serif" font-size="10.00">src/graphics/renderer</text>
<text text-anchor="middle" x="732.5" y="-7.5" font-family="Helvetica,sans-Serif" font-size="10.00">/graphics_renderer.cpp</text>
</a>
</g>
</g>
<!-- Node4&#45;&gt;Node6 -->
<g id="edge6" class="edge">
<title>Node4&#45;&gt;Node6</title>
<path fill="none" stroke="midnightblue" d="M732.5,-57.11C732.5,-48.15 732.5,-38.32 732.5,-30.58"/>
<polygon fill="midnightblue" stroke="midnightblue" points="729,-57.4 732.5,-67.4 736,-57.4 729,-57.4"/>
</g>
<!-- Node9 -->
<g id="node9" class="node">
<title>Node9</title>
<g id="a_node9"><a xlink:href="default__buffer_8h.html" target="_top" xlink:title=" ">
<polygon fill="white" stroke="black" points="1126.5,-134.5 1126.5,-164.5 1262.5,-164.5 1262.5,-134.5 1126.5,-134.5"/>
<text text-anchor="start" x="1134.5" y="-152.5" font-family="Helvetica,sans-Serif" font-size="10.00">src/graphics/framebuffer</text>
<text text-anchor="middle" x="1194.5" y="-141.5" font-family="Helvetica,sans-Serif" font-size="10.00">/default_buffer.h</text>
</a>
</g>
</g>
<!-- Node8&#45;&gt;Node9 -->
<g id="edge9" class="edge">
<title>Node8&#45;&gt;Node9</title>
<path fill="none" stroke="midnightblue" d="M962.87,-199.38C1013.53,-188.69 1079.37,-174.8 1127.9,-164.55"/>
<polygon fill="midnightblue" stroke="midnightblue" points="962.01,-195.99 952.95,-201.48 963.46,-202.84 962.01,-195.99"/>
</g>
<!-- Node11 -->
<g id="node11" class="node">
<title>Node11</title>
<g id="a_node11"><a xlink:href="forward__buffer_8h.html" target="_top" xlink:title=" ">
<polygon fill="white" stroke="black" points="1280.5,-134.5 1280.5,-164.5 1416.5,-164.5 1416.5,-134.5 1280.5,-134.5"/>
<text text-anchor="start" x="1288.5" y="-152.5" font-family="Helvetica,sans-Serif" font-size="10.00">src/graphics/framebuffer</text>
<text text-anchor="middle" x="1348.5" y="-141.5" font-family="Helvetica,sans-Serif" font-size="10.00">/forward_buffer.h</text>
</a>
</g>
</g>
<!-- Node8&#45;&gt;Node11 -->
<g id="edge12" class="edge">
<title>Node8&#45;&gt;Node11</title>
<path fill="none" stroke="midnightblue" d="M965.04,-206.5C1042.98,-197.26 1165.74,-181.88 1271.5,-165 1274.32,-164.55 1277.2,-164.08 1280.1,-163.59"/>
<polygon fill="midnightblue" stroke="midnightblue" points="964.34,-203.06 954.82,-207.7 965.16,-210.01 964.34,-203.06"/>
</g>
<!-- Node13 -->
<g id="node13" class="node">
<title>Node13</title>
<g id="a_node13"><a xlink:href="framebuffer_8cpp.html" target="_top" xlink:title=" ">
<polygon fill="white" stroke="black" points="818.5,-134.5 818.5,-164.5 954.5,-164.5 954.5,-134.5 818.5,-134.5"/>
<text text-anchor="start" x="826.5" y="-152.5" font-family="Helvetica,sans-Serif" font-size="10.00">src/graphics/framebuffer</text>
<text text-anchor="middle" x="886.5" y="-141.5" font-family="Helvetica,sans-Serif" font-size="10.00">/framebuffer.cpp</text>
</a>
</g>
</g>
<!-- Node8&#45;&gt;Node13 -->
<g id="edge15" class="edge">
<title>Node8&#45;&gt;Node13</title>
<path fill="none" stroke="midnightblue" d="M886.5,-191.11C886.5,-182.15 886.5,-172.32 886.5,-164.58"/>
<polygon fill="midnightblue" stroke="midnightblue" points="883,-191.4 886.5,-201.4 890,-191.4 883,-191.4"/>
</g>
<!-- Node14 -->
<g id="node14" class="node">
<title>Node14</title>
<g id="a_node14"><a xlink:href="geometry__buffer_8h.html" target="_top" xlink:title=" ">
<polygon fill="white" stroke="black" points="510.5,-134.5 510.5,-164.5 646.5,-164.5 646.5,-134.5 510.5,-134.5"/>
<text text-anchor="start" x="518.5" y="-152.5" font-family="Helvetica,sans-Serif" font-size="10.00">src/graphics/framebuffer</text>
<text text-anchor="middle" x="578.5" y="-141.5" font-family="Helvetica,sans-Serif" font-size="10.00">/geometry_buffer.h</text>
</a>
</g>
</g>
<!-- Node8&#45;&gt;Node14 -->
<g id="edge16" class="edge">
<title>Node8&#45;&gt;Node14</title>
<path fill="none" stroke="midnightblue" d="M810.13,-199.38C759.47,-188.69 693.63,-174.8 645.1,-164.55"/>
<polygon fill="midnightblue" stroke="midnightblue" points="809.54,-202.84 820.05,-201.48 810.99,-195.99 809.54,-202.84"/>
</g>
<!-- Node16 -->
<g id="node16" class="node">
<title>Node16</title>
<g id="a_node16"><a xlink:href="light__buffer_8h.html" target="_top" xlink:title=" ">
<polygon fill="white" stroke="black" points="664.5,-134.5 664.5,-164.5 800.5,-164.5 800.5,-134.5 664.5,-134.5"/>
<text text-anchor="start" x="672.5" y="-152.5" font-family="Helvetica,sans-Serif" font-size="10.00">src/graphics/framebuffer</text>
<text text-anchor="middle" x="732.5" y="-141.5" font-family="Helvetica,sans-Serif" font-size="10.00">/light_buffer.h</text>
</a>
</g>
</g>
<!-- Node8&#45;&gt;Node16 -->
<g id="edge19" class="edge">
<title>Node8&#45;&gt;Node16</title>
<path fill="none" stroke="midnightblue" d="M843.63,-197.41C819.05,-187.03 788.64,-174.2 765.85,-164.58"/>
<polygon fill="midnightblue" stroke="midnightblue" points="842.51,-200.73 853.08,-201.4 845.23,-194.28 842.51,-200.73"/>
</g>
<!-- Node18 -->
<g id="node18" class="node">
<title>Node18</title>
<g id="a_node18"><a xlink:href="post__proc__buffer_8h.html" target="_top" xlink:title=" ">
<polygon fill="white" stroke="black" points="972.5,-134.5 972.5,-164.5 1108.5,-164.5 1108.5,-134.5 972.5,-134.5"/>
<text text-anchor="start" x="980.5" y="-152.5" font-family="Helvetica,sans-Serif" font-size="10.00">src/graphics/framebuffer</text>
<text text-anchor="middle" x="1040.5" y="-141.5" font-family="Helvetica,sans-Serif" font-size="10.00">/post_proc_buffer.h</text>
</a>
</g>
</g>
<!-- Node8&#45;&gt;Node18 -->
<g id="edge22" class="edge">
<title>Node8&#45;&gt;Node18</title>
<path fill="none" stroke="midnightblue" d="M929.37,-197.41C953.95,-187.03 984.36,-174.2 1007.15,-164.58"/>
<polygon fill="midnightblue" stroke="midnightblue" points="927.77,-194.28 919.92,-201.4 930.49,-200.73 927.77,-194.28"/>
</g>
<!-- Node9&#45;&gt;Node4 -->
<g id="edge11" class="edge">
<title>Node9&#45;&gt;Node4</title>
<path fill="none" stroke="midnightblue" d="M1115.86,-133.82C975.95,-113.25 937.77,-120.03 801.5,-98 798.48,-97.51 795.39,-96.98 792.28,-96.42"/>
<polygon fill="midnightblue" stroke="midnightblue" points="1115.7,-137.34 1126.11,-135.35 1116.74,-130.42 1115.7,-137.34"/>
</g>
<!-- Node10 -->
<g id="node10" class="node">
<title>Node10</title>
<g id="a_node10"><a xlink:href="default__buffer_8cpp.html" target="_top" xlink:title=" ">
<polygon fill="white" stroke="black" points="1126.5,-67.5 1126.5,-97.5 1262.5,-97.5 1262.5,-67.5 1126.5,-67.5"/>
<text text-anchor="start" x="1134.5" y="-85.5" font-family="Helvetica,sans-Serif" font-size="10.00">src/graphics/framebuffer</text>
<text text-anchor="middle" x="1194.5" y="-74.5" font-family="Helvetica,sans-Serif" font-size="10.00">/default_buffer.cpp</text>
</a>
</g>
</g>
<!-- Node9&#45;&gt;Node10 -->
<g id="edge10" class="edge">
<title>Node9&#45;&gt;Node10</title>
<path fill="none" stroke="midnightblue" d="M1194.5,-124.11C1194.5,-115.15 1194.5,-105.32 1194.5,-97.58"/>
<polygon fill="midnightblue" stroke="midnightblue" points="1191,-124.4 1194.5,-134.4 1198,-124.4 1191,-124.4"/>
</g>
<!-- Node11&#45;&gt;Node4 -->
<g id="edge14" class="edge">
<title>Node11&#45;&gt;Node4</title>
<path fill="none" stroke="midnightblue" d="M1270.11,-133.92C1062.05,-107.22 1005.66,-127.14 801.5,-98 798.47,-97.57 795.37,-97.08 792.25,-96.56"/>
<polygon fill="midnightblue" stroke="midnightblue" points="1269.76,-137.4 1280.13,-135.22 1270.67,-130.46 1269.76,-137.4"/>
</g>
<!-- Node12 -->
<g id="node12" class="node">
<title>Node12</title>
<g id="a_node12"><a xlink:href="forward__buffer_8cpp.html" target="_top" xlink:title=" ">
<polygon fill="white" stroke="black" points="1280.5,-67.5 1280.5,-97.5 1416.5,-97.5 1416.5,-67.5 1280.5,-67.5"/>
<text text-anchor="start" x="1288.5" y="-85.5" font-family="Helvetica,sans-Serif" font-size="10.00">src/graphics/framebuffer</text>
<text text-anchor="middle" x="1348.5" y="-74.5" font-family="Helvetica,sans-Serif" font-size="10.00">/forward_buffer.cpp</text>
</a>
</g>
</g>
<!-- Node11&#45;&gt;Node12 -->
<g id="edge13" class="edge">
<title>Node11&#45;&gt;Node12</title>
<path fill="none" stroke="midnightblue" d="M1348.5,-124.11C1348.5,-115.15 1348.5,-105.32 1348.5,-97.58"/>
<polygon fill="midnightblue" stroke="midnightblue" points="1345,-124.4 1348.5,-134.4 1352,-124.4 1345,-124.4"/>
</g>
<!-- Node14&#45;&gt;Node4 -->
<g id="edge18" class="edge">
<title>Node14&#45;&gt;Node4</title>
<path fill="none" stroke="midnightblue" d="M621.37,-130.41C645.95,-120.03 676.36,-107.2 699.15,-97.58"/>
<polygon fill="midnightblue" stroke="midnightblue" points="619.77,-127.28 611.92,-134.4 622.49,-133.73 619.77,-127.28"/>
</g>
<!-- Node15 -->
<g id="node15" class="node">
<title>Node15</title>
<g id="a_node15"><a xlink:href="geometry__buffer_8cpp.html" target="_top" xlink:title=" ">
<polygon fill="white" stroke="black" points="518.5,-67.5 518.5,-97.5 654.5,-97.5 654.5,-67.5 518.5,-67.5"/>
<text text-anchor="start" x="526.5" y="-85.5" font-family="Helvetica,sans-Serif" font-size="10.00">src/graphics/framebuffer</text>
<text text-anchor="middle" x="586.5" y="-74.5" font-family="Helvetica,sans-Serif" font-size="10.00">/geometry_buffer.cpp</text>
</a>
</g>
</g>
<!-- Node14&#45;&gt;Node15 -->
<g id="edge17" class="edge">
<title>Node14&#45;&gt;Node15</title>
<path fill="none" stroke="midnightblue" d="M581.47,-124.4C582.58,-115.37 583.8,-105.41 584.77,-97.58"/>
<polygon fill="midnightblue" stroke="midnightblue" points="577.98,-124.04 580.24,-134.4 584.93,-124.9 577.98,-124.04"/>
</g>
<!-- Node16&#45;&gt;Node4 -->
<g id="edge21" class="edge">
<title>Node16&#45;&gt;Node4</title>
<path fill="none" stroke="midnightblue" d="M732.5,-124.11C732.5,-115.15 732.5,-105.32 732.5,-97.58"/>
<polygon fill="midnightblue" stroke="midnightblue" points="729,-124.4 732.5,-134.4 736,-124.4 729,-124.4"/>
</g>
<!-- Node17 -->
<g id="node17" class="node">
<title>Node17</title>
<g id="a_node17"><a xlink:href="light__buffer_8cpp.html" target="_top" xlink:title=" ">
<polygon fill="white" stroke="black" points="810.5,-67.5 810.5,-97.5 946.5,-97.5 946.5,-67.5 810.5,-67.5"/>
<text text-anchor="start" x="818.5" y="-85.5" font-family="Helvetica,sans-Serif" font-size="10.00">src/graphics/framebuffer</text>
<text text-anchor="middle" x="878.5" y="-74.5" font-family="Helvetica,sans-Serif" font-size="10.00">/light_buffer.cpp</text>
</a>
</g>
</g>
<!-- Node16&#45;&gt;Node17 -->
<g id="edge20" class="edge">
<title>Node16&#45;&gt;Node17</title>
<path fill="none" stroke="midnightblue" d="M773.45,-130.27C796.7,-119.92 825.37,-107.15 846.88,-97.58"/>
<polygon fill="midnightblue" stroke="midnightblue" points="771.89,-127.13 764.18,-134.4 774.74,-133.53 771.89,-127.13"/>
</g>
<!-- Node18&#45;&gt;Node4 -->
<g id="edge24" class="edge">
<title>Node18&#45;&gt;Node4</title>
<path fill="none" stroke="midnightblue" d="M963.99,-132.35C910.85,-121.14 841.07,-106.41 792.06,-96.07"/>
<polygon fill="midnightblue" stroke="midnightblue" points="963.54,-135.84 974.05,-134.48 964.99,-128.99 963.54,-135.84"/>
</g>
<!-- Node19 -->
<g id="node19" class="node">
<title>Node19</title>
<g id="a_node19"><a xlink:href="post__proc__buffer_8cpp.html" target="_top" xlink:title=" ">
<polygon fill="white" stroke="black" points="972.5,-67.5 972.5,-97.5 1108.5,-97.5 1108.5,-67.5 972.5,-67.5"/>
<text text-anchor="start" x="980.5" y="-85.5" font-family="Helvetica,sans-Serif" font-size="10.00">src/graphics/framebuffer</text>
<text text-anchor="middle" x="1040.5" y="-74.5" font-family="Helvetica,sans-Serif" font-size="10.00">/post_proc_buffer.cpp</text>
</a>
</g>
</g>
<!-- Node18&#45;&gt;Node19 -->
<g id="edge23" class="edge">
<title>Node18&#45;&gt;Node19</title>
<path fill="none" stroke="midnightblue" d="M1040.5,-124.11C1040.5,-115.15 1040.5,-105.32 1040.5,-97.58"/>
<polygon fill="midnightblue" stroke="midnightblue" points="1037,-124.4 1040.5,-134.4 1044,-124.4 1037,-124.4"/>
</g>
<!-- Node20&#45;&gt;Node2 -->
<g id="edge26" class="edge">
<title>Node20&#45;&gt;Node2</title>
<path fill="none" stroke="midnightblue" d="M186.67,-197.62C155.12,-185.04 114.31,-168.77 89.83,-159.01"/>
<polygon fill="midnightblue" stroke="midnightblue" points="185.55,-200.94 196.13,-201.4 188.14,-194.44 185.55,-200.94"/>
</g>
<!-- Node21&#45;&gt;Node4 -->
<g id="edge35" class="edge">
<title>Node21&#45;&gt;Node4</title>
<path fill="none" stroke="midnightblue" d="M322.91,-202.99C265.92,-192.04 193.29,-176.18 184.5,-165 175.98,-154.17 175.13,-144.1 184.5,-134 220.8,-94.87 610.66,-105.5 663.5,-98 666.53,-97.57 669.63,-97.09 672.75,-96.56"/>
<polygon fill="midnightblue" stroke="midnightblue" points="322.52,-206.48 332.99,-204.91 323.82,-199.6 322.52,-206.48"/>
</g>
<!-- Node22 -->
<g id="node22" class="node">
<title>Node22</title>
<g id="a_node22"><a xlink:href="render__mesh_8h.html" target="_top" xlink:title=" ">
<polygon fill="white" stroke="black" points="331,-134.5 331,-164.5 454,-164.5 454,-134.5 331,-134.5"/>
<text text-anchor="start" x="339" y="-152.5" font-family="Helvetica,sans-Serif" font-size="10.00">src/component/render</text>
<text text-anchor="middle" x="392.5" y="-141.5" font-family="Helvetica,sans-Serif" font-size="10.00">_mesh.h</text>
</a>
</g>
</g>
<!-- Node21&#45;&gt;Node22 -->
<g id="edge28" class="edge">
<title>Node21&#45;&gt;Node22</title>
<path fill="none" stroke="midnightblue" d="M392.5,-191.11C392.5,-182.15 392.5,-172.32 392.5,-164.58"/>
<polygon fill="midnightblue" stroke="midnightblue" points="389,-191.4 392.5,-201.4 396,-191.4 389,-191.4"/>
</g>
<!-- Node23 -->
<g id="node23" class="node">
<title>Node23</title>
<g id="a_node23"><a xlink:href="material_8cpp.html" target="_top" xlink:title=" ">
<polygon fill="white" stroke="black" points="194,-134.5 194,-164.5 313,-164.5 313,-134.5 194,-134.5"/>
<text text-anchor="start" x="202" y="-152.5" font-family="Helvetica,sans-Serif" font-size="10.00">src/graphics/material</text>
<text text-anchor="middle" x="253.5" y="-141.5" font-family="Helvetica,sans-Serif" font-size="10.00">/material.cpp</text>
</a>
</g>
</g>
<!-- Node21&#45;&gt;Node23 -->
<g id="edge32" class="edge">
<title>Node21&#45;&gt;Node23</title>
<path fill="none" stroke="midnightblue" d="M353.22,-197.13C331.13,-186.8 303.99,-174.11 283.6,-164.58"/>
<polygon fill="midnightblue" stroke="midnightblue" points="351.8,-200.33 362.34,-201.4 354.76,-193.99 351.8,-200.33"/>
</g>
<!-- Node24 -->
<g id="node24" class="node">
<title>Node24</title>
<g id="a_node24"><a xlink:href="material__manager_8h.html" target="_top" xlink:title=" ">
<polygon fill="white" stroke="black" points="381,-67.5 381,-97.5 500,-97.5 500,-67.5 381,-67.5"/>
<text text-anchor="start" x="389" y="-85.5" font-family="Helvetica,sans-Serif" font-size="10.00">src/graphics/material</text>
<text text-anchor="middle" x="440.5" y="-74.5" font-family="Helvetica,sans-Serif" font-size="10.00">/material_manager.h</text>
</a>
</g>
</g>
<!-- Node21&#45;&gt;Node24 -->
<g id="edge33" class="edge">
<title>Node21&#45;&gt;Node24</title>
<path fill="none" stroke="midnightblue" d="M433.32,-196.04C445.25,-188.18 456.86,-177.87 463.5,-165 474.89,-142.92 461.22,-114.47 450.61,-97.69"/>
<polygon fill="midnightblue" stroke="midnightblue" points="431.36,-193.14 424.65,-201.34 435.01,-199.12 431.36,-193.14"/>
</g>
<!-- Node22&#45;&gt;Node3 -->
<g id="edge29" class="edge">
<title>Node22&#45;&gt;Node3</title>
<path fill="none" stroke="midnightblue" d="M378.48,-125.14C370.3,-108.3 363.25,-85.39 372.5,-67 380.49,-51.1 396.12,-38.95 410.38,-30.56"/>
<polygon fill="midnightblue" stroke="midnightblue" points="375.54,-127.08 383.31,-134.28 381.73,-123.8 375.54,-127.08"/>
</g>
<!-- Node22&#45;&gt;Node4 -->
<g id="edge30" class="edge">
<title>Node22&#45;&gt;Node4</title>
<path fill="none" stroke="midnightblue" d="M464.14,-135.61C518.82,-125.66 595.99,-111.38 663.5,-98 666.5,-97.4 669.58,-96.79 672.68,-96.16"/>
<polygon fill="midnightblue" stroke="midnightblue" points="463.41,-132.19 454.2,-137.42 464.66,-139.07 463.41,-132.19"/>
</g>
<!-- Node22&#45;&gt;Node7 -->
<g id="edge31" class="edge">
<title>Node22&#45;&gt;Node7</title>
<path fill="none" stroke="midnightblue" d="M350.03,-130.46C320.47,-117.9 282.4,-101.72 259.52,-92.01"/>
<polygon fill="midnightblue" stroke="midnightblue" points="348.73,-133.71 359.3,-134.4 351.47,-127.26 348.73,-133.71"/>
</g>
<!-- Node24&#45;&gt;Node3 -->
<g id="edge34" class="edge">
<title>Node24&#45;&gt;Node3</title>
<path fill="none" stroke="midnightblue" d="M440.5,-57.11C440.5,-48.15 440.5,-38.32 440.5,-30.58"/>
<polygon fill="midnightblue" stroke="midnightblue" points="437,-57.4 440.5,-67.4 444,-57.4 437,-57.4"/>
</g>
<!-- Node25&#45;&gt;Node5 -->
<g id="edge37" class="edge">
<title>Node25&#45;&gt;Node5</title>
<path fill="none" stroke="midnightblue" d="M1529,-195.83C1540.28,-187.88 1551.29,-177.58 1557.5,-165 1563.6,-152.65 1564.02,-146.14 1557.5,-134 1512.6,-50.33 1398.43,-25.35 1319.12,-18.38"/>
<polygon fill="midnightblue" stroke="midnightblue" points="1526.87,-193.05 1520.41,-201.45 1530.7,-198.91 1526.87,-193.05"/>
</g>
<!-- Node25&#45;&gt;Node26 -->
<g id="edge38" class="edge">
<title>Node25&#45;&gt;Node26</title>
<path fill="none" stroke="midnightblue" d="M1491.5,-191.11C1491.5,-182.15 1491.5,-172.32 1491.5,-164.58"/>
<polygon fill="midnightblue" stroke="midnightblue" points="1488,-191.4 1491.5,-201.4 1495,-191.4 1488,-191.4"/>
</g>
<!-- Node26&#45;&gt;Node3 -->
<g id="edge39" class="edge">
<title>Node26&#45;&gt;Node3</title>
<path fill="none" stroke="midnightblue" d="M1480.11,-125.63C1469.07,-106.22 1450.35,-79.58 1425.5,-67 1349.58,-28.57 745.46,-35.8 660.5,-31 607.19,-27.99 546.65,-23.95 502.59,-20.9"/>
<polygon fill="midnightblue" stroke="midnightblue" points="1477.06,-127.36 1484.91,-134.49 1483.22,-124.03 1477.06,-127.36"/>
</g>
</g>
</svg>
        <g id="navigator" transform="translate(0 0)" fill="#404254">
                <rect fill="#f2f5e9" fill-opacity="0.5" stroke="#606060" stroke-width=".5" x="0" y="0" width="60" height="60"/>
                <use id="zoomplus" xlink:href="#zoomPlus" x="17" y="9" onmousedown="handleZoom(evt,'in')"/>
                <use id="zoomminus" xlink:href="#zoomMin" x="42" y="9" onmousedown="handleZoom(evt,'out')"/>
                <use id="reset" xlink:href="#resetDef" x="30" y="36" onmousedown="handleReset()"/>
                <g id="arrowUp" xlink:href="#dirArrow" transform="translate(30 24)" onmousedown="handlePan(0,-1)">
                  <use xlink:href="#rim" fill="#404040">
                        <set attributeName="fill" to="#808080" begin="arrowUp.mouseover" end="arrowUp.mouseout"/>
                  </use>
                  <path fill="none" stroke="white" stroke-width="1.5" d="M0,-3.0v7 M-2.5,-0.5L0,-3.0L2.5,-0.5"/>
                </g>
                <g id="arrowRight" xlink:href="#dirArrow" transform="rotate(90) translate(36 -43)" onmousedown="handlePan(1,0)">
                  <use xlink:href="#rim" fill="#404040">
                        <set attributeName="fill" to="#808080" begin="arrowRight.mouseover" end="arrowRight.mouseout"/>
                  </use>
                  <path fill="none" stroke="white" stroke-width="1.5" d="M0,-3.0v7 M-2.5,-0.5L0,-3.0L2.5,-0.5"/>
                </g>
                <g id="arrowDown" xlink:href="#dirArrow" transform="rotate(180) translate(-30 -48)" onmousedown="handlePan(0,1)">
                  <use xlink:href="#rim" fill="#404040">
                        <set attributeName="fill" to="#808080" begin="arrowDown.mouseover" end="arrowDown.mouseout"/>
                  </use>
                  <path fill="none" stroke="white" stroke-width="1.5" d="M0,-3.0v7 M-2.5,-0.5L0,-3.0L2.5,-0.5"/>
                </g>
                <g id="arrowLeft" xlink:href="#dirArrow" transform="rotate(270) translate(-36 17)" onmousedown="handlePan(-1,0)">
                  <use xlink:href="#rim" fill="#404040">
                        <set attributeName="fill" to="#808080" begin="arrowLeft.mouseover" end="arrowLeft.mouseout"/>
                  </use>
                  <path fill="none" stroke="white" stroke-width="1.5" d="M0,-3.0v7 M-2.5,-0.5L0,-3.0L2.5,-0.5"/>
                </g>
        </g>
        <svg viewBox="0 0 15 15" width="100%" height="30px" preserveAspectRatio="xMaxYMin meet">
         <g id="arrow_out" transform="scale(0.3 0.3)">
          <a xlink:href="texture_8h__dep__incl_org.svg" target="_base">
           <rect id="button" ry="5" rx="5" y="6" x="6" height="38" width="38"
                fill="#f2f5e9" fill-opacity="0.5" stroke="#606060" stroke-width="1.0"/>
           <path id="arrow"
             d="M 11.500037,31.436501 C 11.940474,20.09759 22.043105,11.32322 32.158766,21.979434 L 37.068811,17.246167 C 37.068811,17.246167 37.088388,32 37.088388,32 L 22.160133,31.978069 C 22.160133,31.978069 26.997745,27.140456 26.997745,27.140456 C 18.528582,18.264221 13.291696,25.230495 11.500037,31.436501 z"
             style="fill:#404040;"/>
          </a>
         </g>
        </svg>
</svg>
