<?xml version="1.0" encoding="UTF-8" standalone="no"?>
<!DOCTYPE svg PUBLIC "-//W3C//DTD SVG 1.1//EN"
 "http://www.w3.org/Graphics/SVG/1.1/DTD/svg11.dtd">
<!-- Generated by graphviz version 2.43.0 (0)
 -->
<!-- Title: src/graphics/texture/texture_manager.h Pages: 1 -->
<svg width="730pt" height="285pt"
 viewBox="0.00 0.00 729.50 285.00" xmlns="http://www.w3.org/2000/svg" xmlns:xlink="http://www.w3.org/1999/xlink">
<g id="graph0" class="graph" transform="scale(1 1) rotate(0) translate(4 281)">
<title>src/graphics/texture/texture_manager.h</title>
<polygon fill="white" stroke="transparent" points="-4,4 -4,-281 725.5,-281 725.5,4 -4,4"/>
<!-- Node1 -->
<g id="node1" class="node">
<title>Node1</title>
<g id="a_node1"><a xlink:title=" ">
<polygon fill="#bfbfbf" stroke="black" points="361,-246.5 361,-276.5 474,-276.5 474,-246.5 361,-246.5"/>
<text text-anchor="start" x="369" y="-264.5" font-family="Helvetica,sans-Serif" font-size="10.00">src/graphics/texture</text>
<text text-anchor="middle" x="417.5" y="-253.5" font-family="Helvetica,sans-Serif" font-size="10.00">/texture_manager.h</text>
</a>
</g>
</g>
<!-- Node2 -->
<g id="node2" class="node">
<title>Node2</title>
<g id="a_node2"><a xlink:title=" ">
<polygon fill="white" stroke="#bfbfbf" points="0,-0.5 0,-19.5 65,-19.5 65,-0.5 0,-0.5"/>
<text text-anchor="middle" x="32.5" y="-7.5" font-family="Helvetica,sans-Serif" font-size="10.00">stdexcept</text>
</a>
</g>
</g>
<!-- Node1&#45;&gt;Node2 -->
<g id="edge1" class="edge">
<title>Node1&#45;&gt;Node2</title>
<path fill="none" stroke="midnightblue" d="M360.76,-256.21C267.19,-245.68 83.14,-209.62 5.5,-87 -6.38,-68.23 6.83,-43.54 18.6,-27.48"/>
<polygon fill="midnightblue" stroke="midnightblue" points="21.41,-29.56 24.82,-19.53 15.9,-25.25 21.41,-29.56"/>
</g>
<!-- Node3 -->
<g id="node3" class="node">
<title>Node3</title>
<g id="a_node3"><a xlink:title=" ">
<polygon fill="white" stroke="#bfbfbf" points="518.5,-123.5 518.5,-142.5 576.5,-142.5 576.5,-123.5 518.5,-123.5"/>
<text text-anchor="middle" x="547.5" y="-130.5" font-family="Helvetica,sans-Serif" font-size="10.00">memory</text>
</a>
</g>
</g>
<!-- Node1&#45;&gt;Node3 -->
<g id="edge2" class="edge">
<title>Node1&#45;&gt;Node3</title>
<path fill="none" stroke="midnightblue" d="M427.62,-246.33C440.14,-229.31 462.61,-200.39 485.5,-179 497.7,-167.6 512.84,-156.56 525.11,-148.27"/>
<polygon fill="midnightblue" stroke="midnightblue" points="527.04,-151.19 533.45,-142.75 523.18,-145.35 527.04,-151.19"/>
</g>
<!-- Node4 -->
<g id="node4" class="node">
<title>Node4</title>
<g id="a_node4"><a xlink:title=" ">
<polygon fill="white" stroke="#bfbfbf" points="494,-185 494,-204 587,-204 587,-185 494,-185"/>
<text text-anchor="middle" x="540.5" y="-192" font-family="Helvetica,sans-Serif" font-size="10.00">unordered_map</text>
</a>
</g>
</g>
<!-- Node1&#45;&gt;Node4 -->
<g id="edge3" class="edge">
<title>Node1&#45;&gt;Node4</title>
<path fill="none" stroke="midnightblue" d="M444.19,-246.4C465.39,-235.19 494.82,-219.64 515.55,-208.69"/>
<polygon fill="midnightblue" stroke="midnightblue" points="517.2,-211.77 524.4,-204.01 513.93,-205.58 517.2,-211.77"/>
</g>
<!-- Node5 -->
<g id="node5" class="node">
<title>Node5</title>
<g id="a_node5"><a xlink:title=" ">
<polygon fill="white" stroke="#bfbfbf" points="605.5,-185 605.5,-204 721.5,-204 721.5,-185 605.5,-185"/>
<text text-anchor="middle" x="663.5" y="-192" font-family="Helvetica,sans-Serif" font-size="10.00">common/singleton.h</text>
</a>
</g>
</g>
<!-- Node1&#45;&gt;Node5 -->
<g id="edge4" class="edge">
<title>Node1&#45;&gt;Node5</title>
<path fill="none" stroke="midnightblue" d="M470.58,-246.48C515.72,-234.55 579.69,-217.64 621.39,-206.63"/>
<polygon fill="midnightblue" stroke="midnightblue" points="622.45,-209.97 631.22,-204.03 620.66,-203.2 622.45,-209.97"/>
</g>
<!-- Node6 -->
<g id="node6" class="node">
<title>Node6</title>
<g id="a_node6"><a xlink:href="texture_8h.html" target="_top" xlink:title=" ">
<polygon fill="white" stroke="black" points="173,-123.5 173,-142.5 316,-142.5 316,-123.5 173,-123.5"/>
<text text-anchor="middle" x="244.5" y="-130.5" font-family="Helvetica,sans-Serif" font-size="10.00">graphics/texture/texture.h</text>
</a>
</g>
</g>
<!-- Node1&#45;&gt;Node6 -->
<g id="edge5" class="edge">
<title>Node1&#45;&gt;Node6</title>
<path fill="none" stroke="midnightblue" d="M364.39,-246.47C341.19,-238.48 314.72,-226.66 294.5,-210 275.32,-194.2 260.83,-169.11 252.51,-152.12"/>
<polygon fill="midnightblue" stroke="midnightblue" points="255.54,-150.33 248.14,-142.74 249.19,-153.29 255.54,-150.33"/>
</g>
<!-- Node13 -->
<g id="node13" class="node">
<title>Node13</title>
<g id="a_node13"><a xlink:href="texture__loader_8h.html" target="_top" xlink:title=" ">
<polygon fill="white" stroke="black" points="303.5,-179.5 303.5,-209.5 437.5,-209.5 437.5,-179.5 303.5,-179.5"/>
<text text-anchor="start" x="311.5" y="-197.5" font-family="Helvetica,sans-Serif" font-size="10.00">graphics/texture/texture</text>
<text text-anchor="middle" x="370.5" y="-186.5" font-family="Helvetica,sans-Serif" font-size="10.00">_loader.h</text>
</a>
</g>
</g>
<!-- Node1&#45;&gt;Node13 -->
<g id="edge14" class="edge">
<title>Node1&#45;&gt;Node13</title>
<path fill="none" stroke="midnightblue" d="M407.3,-246.4C401.27,-238.05 393.48,-227.29 386.63,-217.81"/>
<polygon fill="midnightblue" stroke="midnightblue" points="389.37,-215.63 380.68,-209.58 383.7,-219.73 389.37,-215.63"/>
</g>
<!-- Node7 -->
<g id="node7" class="node">
<title>Node7</title>
<g id="a_node7"><a xlink:title=" ">
<polygon fill="white" stroke="#bfbfbf" points="192.5,-62 192.5,-81 234.5,-81 234.5,-62 192.5,-62"/>
<text text-anchor="middle" x="213.5" y="-69" font-family="Helvetica,sans-Serif" font-size="10.00">array</text>
</a>
</g>
</g>
<!-- Node6&#45;&gt;Node7 -->
<g id="edge6" class="edge">
<title>Node6&#45;&gt;Node7</title>
<path fill="none" stroke="midnightblue" d="M240.06,-123.48C235.55,-114.82 228.43,-101.15 222.69,-90.15"/>
<polygon fill="midnightblue" stroke="midnightblue" points="225.66,-88.26 217.93,-81.01 219.45,-91.49 225.66,-88.26"/>
</g>
<!-- Node8 -->
<g id="node8" class="node">
<title>Node8</title>
<g id="a_node8"><a xlink:title=" ">
<polygon fill="white" stroke="#bfbfbf" points="253,-62 253,-81 300,-81 300,-62 253,-62"/>
<text text-anchor="middle" x="276.5" y="-69" font-family="Helvetica,sans-Serif" font-size="10.00">cmath</text>
</a>
</g>
</g>
<!-- Node6&#45;&gt;Node8 -->
<g id="edge7" class="edge">
<title>Node6&#45;&gt;Node8</title>
<path fill="none" stroke="midnightblue" d="M249.08,-123.48C253.74,-114.82 261.09,-101.15 267.01,-90.15"/>
<polygon fill="midnightblue" stroke="midnightblue" points="270.27,-91.47 271.92,-81.01 264.1,-88.16 270.27,-91.47"/>
</g>
<!-- Node9 -->
<g id="node9" class="node">
<title>Node9</title>
<g id="a_node9"><a xlink:title=" ">
<polygon fill="white" stroke="#bfbfbf" points="447.5,-62 447.5,-81 555.5,-81 555.5,-62 447.5,-62"/>
<text text-anchor="middle" x="501.5" y="-69" font-family="Helvetica,sans-Serif" font-size="10.00">SDL2/SDL_image.h</text>
</a>
</g>
</g>
<!-- Node6&#45;&gt;Node9 -->
<g id="edge8" class="edge">
<title>Node6&#45;&gt;Node9</title>
<path fill="none" stroke="midnightblue" d="M281.32,-123.48C327.03,-112.89 405.03,-94.84 454.87,-83.3"/>
<polygon fill="midnightblue" stroke="midnightblue" points="455.79,-86.67 464.75,-81.01 454.21,-79.85 455.79,-86.67"/>
</g>
<!-- Node10 -->
<g id="node10" class="node">
<title>Node10</title>
<g id="a_node10"><a xlink:title=" ">
<polygon fill="white" stroke="#bfbfbf" points="86.5,-0.5 86.5,-19.5 150.5,-19.5 150.5,-0.5 86.5,-0.5"/>
<text text-anchor="middle" x="118.5" y="-7.5" font-family="Helvetica,sans-Serif" font-size="10.00">GL/glew.h</text>
</a>
</g>
</g>
<!-- Node6&#45;&gt;Node10 -->
<g id="edge9" class="edge">
<title>Node6&#45;&gt;Node10</title>
<path fill="none" stroke="midnightblue" d="M231.22,-123.49C218.39,-114.99 198.72,-101.16 183.5,-87 163.52,-68.41 143.58,-44.01 131.15,-27.93"/>
<polygon fill="midnightblue" stroke="midnightblue" points="133.61,-25.37 124.76,-19.53 128.03,-29.61 133.61,-25.37"/>
</g>
<!-- Node11 -->
<g id="node11" class="node">
<title>Node11</title>
<g id="a_node11"><a xlink:title=" ">
<polygon fill="white" stroke="#bfbfbf" points="318,-62 318,-81 429,-81 429,-62 318,-62"/>
<text text-anchor="middle" x="373.5" y="-69" font-family="Helvetica,sans-Serif" font-size="10.00">maths/maths_util.h</text>
</a>
</g>
</g>
<!-- Node6&#45;&gt;Node11 -->
<g id="edge10" class="edge">
<title>Node6&#45;&gt;Node11</title>
<path fill="none" stroke="midnightblue" d="M262.98,-123.48C284.63,-113.49 320.71,-96.85 345.73,-85.31"/>
<polygon fill="midnightblue" stroke="midnightblue" points="347.44,-88.38 355.05,-81.01 344.51,-82.02 347.44,-88.38"/>
</g>
<!-- Node12 -->
<g id="node12" class="node">
<title>Node12</title>
<g id="a_node12"><a xlink:href="pixel__format_8h.html" target="_top" xlink:title=" ">
<polygon fill="white" stroke="black" points="14.5,-56.5 14.5,-86.5 136.5,-86.5 136.5,-56.5 14.5,-56.5"/>
<text text-anchor="start" x="22.5" y="-74.5" font-family="Helvetica,sans-Serif" font-size="10.00">graphics/texture/pixel</text>
<text text-anchor="middle" x="75.5" y="-63.5" font-family="Helvetica,sans-Serif" font-size="10.00">_format.h</text>
</a>
</g>
</g>
<!-- Node6&#45;&gt;Node12 -->
<g id="edge11" class="edge">
<title>Node6&#45;&gt;Node12</title>
<path fill="none" stroke="midnightblue" d="M220.29,-123.48C195.47,-114.74 156.19,-100.91 124.79,-89.86"/>
<polygon fill="midnightblue" stroke="midnightblue" points="125.92,-86.54 115.33,-86.52 123.6,-93.15 125.92,-86.54"/>
</g>
<!-- Node12&#45;&gt;Node2 -->
<g id="edge12" class="edge">
<title>Node12&#45;&gt;Node2</title>
<path fill="none" stroke="midnightblue" d="M65.31,-56.4C59.13,-47.84 51.2,-36.87 44.68,-27.86"/>
<polygon fill="midnightblue" stroke="midnightblue" points="47.45,-25.71 38.76,-19.66 41.78,-29.81 47.45,-25.71"/>
</g>
<!-- Node12&#45;&gt;Node10 -->
<g id="edge13" class="edge">
<title>Node12&#45;&gt;Node10</title>
<path fill="none" stroke="midnightblue" d="M85.69,-56.4C91.87,-47.84 99.8,-36.87 106.32,-27.86"/>
<polygon fill="midnightblue" stroke="midnightblue" points="109.22,-29.81 112.24,-19.66 103.55,-25.71 109.22,-29.81"/>
</g>
<!-- Node13&#45;&gt;Node3 -->
<g id="edge16" class="edge">
<title>Node13&#45;&gt;Node3</title>
<path fill="none" stroke="midnightblue" d="M412.45,-179.4C442.9,-169.16 483.63,-155.47 512.37,-145.81"/>
<polygon fill="midnightblue" stroke="midnightblue" points="513.64,-149.07 522,-142.57 511.41,-142.44 513.64,-149.07"/>
</g>
<!-- Node13&#45;&gt;Node6 -->
<g id="edge19" class="edge">
<title>Node13&#45;&gt;Node6</title>
<path fill="none" stroke="midnightblue" d="M340.64,-179.4C319.88,-169.59 292.4,-156.62 272.14,-147.05"/>
<polygon fill="midnightblue" stroke="midnightblue" points="273.37,-143.76 262.83,-142.66 270.38,-150.09 273.37,-143.76"/>
</g>
<!-- Node13&#45;&gt;Node9 -->
<g id="edge17" class="edge">
<title>Node13&#45;&gt;Node9</title>
<path fill="none" stroke="midnightblue" d="M364.07,-179.41C358.14,-164.11 351.87,-139.63 363.5,-123 374.32,-107.52 418.8,-93.05 454.37,-83.6"/>
<polygon fill="midnightblue" stroke="midnightblue" points="455.33,-86.97 464.13,-81.08 453.58,-80.19 455.33,-86.97"/>
</g>
<!-- Node14 -->
<g id="node14" class="node">
<title>Node14</title>
<g id="a_node14"><a xlink:title=" ">
<polygon fill="white" stroke="#bfbfbf" points="372.5,-123.5 372.5,-142.5 422.5,-142.5 422.5,-123.5 372.5,-123.5"/>
<text text-anchor="middle" x="397.5" y="-130.5" font-family="Helvetica,sans-Serif" font-size="10.00">cstring</text>
</a>
</g>
</g>
<!-- Node13&#45;&gt;Node14 -->
<g id="edge15" class="edge">
<title>Node13&#45;&gt;Node14</title>
<path fill="none" stroke="midnightblue" d="M376.9,-179.4C380.62,-171.2 385.35,-160.78 389.33,-151.99"/>
<polygon fill="midnightblue" stroke="midnightblue" points="392.63,-153.21 393.57,-142.66 386.25,-150.32 392.63,-153.21"/>
</g>
<!-- Node15 -->
<g id="node15" class="node">
<title>Node15</title>
<g id="a_node15"><a xlink:title=" ">
<polygon fill="white" stroke="#bfbfbf" points="441,-123.5 441,-142.5 500,-142.5 500,-123.5 441,-123.5"/>
<text text-anchor="middle" x="470.5" y="-130.5" font-family="Helvetica,sans-Serif" font-size="10.00">log/log.h</text>
</a>
</g>
</g>
<!-- Node13&#45;&gt;Node15 -->
<g id="edge18" class="edge">
<title>Node13&#45;&gt;Node15</title>
<path fill="none" stroke="midnightblue" d="M394.2,-179.4C410.23,-169.86 431.3,-157.32 447.24,-147.84"/>
<polygon fill="midnightblue" stroke="midnightblue" points="449.14,-150.78 455.95,-142.66 445.57,-144.76 449.14,-150.78"/>
</g>
</g>
</svg>
