<?xml version="1.0" encoding="UTF-8" standalone="no"?>
<!DOCTYPE svg PUBLIC "-//W3C//DTD SVG 1.1//EN"
 "http://www.w3.org/Graphics/SVG/1.1/DTD/svg11.dtd">
<!-- Generated by graphviz version 2.43.0 (0)
 -->
<!-- Title: src/graphics/texture/texture_manager.h Pages: 1 -->
<!--zoomable 285 -->
<svg id="main" version="1.1" xmlns="http://www.w3.org/2000/svg" xmlns:xlink="http://www.w3.org/1999/xlink" xml:space="preserve" onload="init(evt)">
<style type="text/css"><![CDATA[
.edge:hover path { stroke: red; }
.edge:hover polygon { stroke: red; fill: red; }
]]></style>
<script type="text/javascript"><![CDATA[
var edges = document.getElementsByTagName('g');
if (edges && edges.length) {
  for (var i=0;i<edges.length;i++) {
    if (edges[i].id.substr(0,4)=='edge') {
      edges[i].setAttribute('class','edge');
    }
  }
}
]]></script>
        <defs>
                <circle id="rim" cx="0" cy="0" r="7"/>
                <circle id="rim2" cx="0" cy="0" r="3.5"/>
                <g id="zoomPlus">
                        <use xlink:href="#rim" fill="#404040">
                                <set attributeName="fill" to="#808080" begin="zoomplus.mouseover" end="zoomplus.mouseout"/>
                        </use>
                        <path d="M-4,0h8M0,-4v8" fill="none" stroke="white" stroke-width="1.5" pointer-events="none"/>
                </g>
                <g id="zoomMin">
                        <use xlink:href="#rim" fill="#404040">
                                <set attributeName="fill" to="#808080" begin="zoomminus.mouseover" end="zoomminus.mouseout"/>
                        </use>
                        <path d="M-4,0h8" fill="none" stroke="white" stroke-width="1.5" pointer-events="none"/>
                </g>
                <g id="dirArrow">
                        <path fill="none" stroke="white" stroke-width="1.5" d="M0,-3.0v7 M-2.5,-0.5L0,-3.0L2.5,-0.5"/>
                </g>
               <g id="resetDef">
                       <use xlink:href="#rim2" fill="#404040">
                               <set attributeName="fill" to="#808080" begin="reset.mouseover" end="reset.mouseout"/>
                       </use>
               </g>
        </defs>

<script type="text/javascript">
var viewWidth = 1174;
var viewHeight = 285;
var sectionId = 'dynsection-0';
</script>
<script xlink:href="svgpan.js"/>
<svg id="graph" class="graph">
<g id="viewport">
<title>src/graphics/texture/texture_manager.h</title>
<polygon fill="white" stroke="transparent" points="-4,4 -4,-281 1170.18,-281 1170.18,4 -4,4"/>
<!-- Node1 -->
<g id="node1" class="node">
<title>Node1</title>
<g id="a_node1"><a xlink:title=" ">
<polygon fill="#bfbfbf" stroke="black" points="518.18,-246.5 518.18,-276.5 631.18,-276.5 631.18,-246.5 518.18,-246.5"/>
<text text-anchor="start" x="526.18" y="-264.5" font-family="Helvetica,sans-Serif" font-size="10.00">src/graphics/texture</text>
<text text-anchor="middle" x="574.68" y="-253.5" font-family="Helvetica,sans-Serif" font-size="10.00">/texture_manager.h</text>
</a>
</g>
</g>
<!-- Node2 -->
<g id="node2" class="node">
<title>Node2</title>
<g id="a_node2"><a xlink:title=" ">
<polygon fill="white" stroke="#bfbfbf" points="0.18,-0.5 0.18,-19.5 65.18,-19.5 65.18,-0.5 0.18,-0.5"/>
<text text-anchor="middle" x="32.68" y="-7.5" font-family="Helvetica,sans-Serif" font-size="10.00">stdexcept</text>
</a>
</g>
</g>
<!-- Node1&#45;&gt;Node2 -->
<g id="edge1" class="edge">
<title>Node1&#45;&gt;Node2</title>
<path fill="none" stroke="midnightblue" d="M518.13,-251.91C386.76,-230.66 67.43,-171.22 5.68,-87 -7.45,-69.09 6.06,-44.19 18.23,-27.85"/>
<polygon fill="midnightblue" stroke="midnightblue" points="21.19,-29.75 24.68,-19.74 15.72,-25.39 21.19,-29.75"/>
</g>
<!-- Node3 -->
<g id="node3" class="node">
<title>Node3</title>
<g id="a_node3"><a xlink:title=" ">
<polygon fill="white" stroke="#bfbfbf" points="707.68,-123.5 707.68,-142.5 765.68,-142.5 765.68,-123.5 707.68,-123.5"/>
<text text-anchor="middle" x="736.68" y="-130.5" font-family="Helvetica,sans-Serif" font-size="10.00">memory</text>
</a>
</g>
</g>
<!-- Node1&#45;&gt;Node3 -->
<g id="edge2" class="edge">
<title>Node1&#45;&gt;Node3</title>
<path fill="none" stroke="midnightblue" d="M583.76,-246.22C595.57,-228.56 617.66,-198.46 642.68,-179 660.56,-165.1 683.43,-154.03 702.14,-146.35"/>
<polygon fill="midnightblue" stroke="midnightblue" points="703.48,-149.58 711.49,-142.65 700.9,-143.07 703.48,-149.58"/>
</g>
<!-- Node4 -->
<g id="node4" class="node">
<title>Node4</title>
<g id="a_node4"><a xlink:title=" ">
<polygon fill="white" stroke="#bfbfbf" points="651.18,-185 651.18,-204 744.18,-204 744.18,-185 651.18,-185"/>
<text text-anchor="middle" x="697.68" y="-192" font-family="Helvetica,sans-Serif" font-size="10.00">unordered_map</text>
</a>
</g>
</g>
<!-- Node1&#45;&gt;Node4 -->
<g id="edge3" class="edge">
<title>Node1&#45;&gt;Node4</title>
<path fill="none" stroke="midnightblue" d="M601.37,-246.4C622.57,-235.19 652,-219.64 672.73,-208.69"/>
<polygon fill="midnightblue" stroke="midnightblue" points="674.38,-211.77 681.58,-204.01 671.11,-205.58 674.38,-211.77"/>
</g>
<!-- Node5 -->
<g id="node5" class="node">
<title>Node5</title>
<g id="a_node5"><a xlink:title=" ">
<polygon fill="white" stroke="#bfbfbf" points="762.68,-185 762.68,-204 878.68,-204 878.68,-185 762.68,-185"/>
<text text-anchor="middle" x="820.68" y="-192" font-family="Helvetica,sans-Serif" font-size="10.00">common/singleton.h</text>
</a>
</g>
</g>
<!-- Node1&#45;&gt;Node5 -->
<g id="edge4" class="edge">
<title>Node1&#45;&gt;Node5</title>
<path fill="none" stroke="midnightblue" d="M627.76,-246.48C672.91,-234.55 736.87,-217.64 778.57,-206.63"/>
<polygon fill="midnightblue" stroke="midnightblue" points="779.63,-209.97 788.4,-204.03 777.84,-203.2 779.63,-209.97"/>
</g>
<!-- Node6 -->
<g id="node6" class="node">
<title>Node6</title>
<g id="a_node6"><a xlink:href="texture_8h.html" target="_top" xlink:title=" ">
<polygon fill="white" stroke="black" points="254.18,-123.5 254.18,-142.5 397.18,-142.5 397.18,-123.5 254.18,-123.5"/>
<text text-anchor="middle" x="325.68" y="-130.5" font-family="Helvetica,sans-Serif" font-size="10.00">graphics/texture/texture.h</text>
</a>
</g>
</g>
<!-- Node1&#45;&gt;Node6 -->
<g id="edge5" class="edge">
<title>Node1&#45;&gt;Node6</title>
<path fill="none" stroke="midnightblue" d="M536.33,-246.5C511.72,-237.09 479.31,-223.9 451.68,-210 413.64,-190.86 371.71,-164.42 347.09,-148.3"/>
<polygon fill="midnightblue" stroke="midnightblue" points="348.82,-145.25 338.55,-142.67 344.97,-151.1 348.82,-145.25"/>
</g>
<!-- Node13 -->
<g id="node13" class="node">
<title>Node13</title>
<g id="a_node13"><a xlink:href="texture__loader_8h.html" target="_top" xlink:title=" ">
<polygon fill="white" stroke="black" points="460.68,-179.5 460.68,-209.5 594.68,-209.5 594.68,-179.5 460.68,-179.5"/>
<text text-anchor="start" x="468.68" y="-197.5" font-family="Helvetica,sans-Serif" font-size="10.00">graphics/texture/texture</text>
<text text-anchor="middle" x="527.68" y="-186.5" font-family="Helvetica,sans-Serif" font-size="10.00">_loader.h</text>
</a>
</g>
</g>
<!-- Node1&#45;&gt;Node13 -->
<g id="edge14" class="edge">
<title>Node1&#45;&gt;Node13</title>
<path fill="none" stroke="midnightblue" d="M564.48,-246.4C558.45,-238.05 550.67,-227.29 543.81,-217.81"/>
<polygon fill="midnightblue" stroke="midnightblue" points="546.56,-215.63 537.86,-209.58 540.88,-219.73 546.56,-215.63"/>
</g>
<!-- Node7 -->
<g id="node7" class="node">
<title>Node7</title>
<g id="a_node7"><a xlink:title=" ">
<polygon fill="white" stroke="#bfbfbf" points="192.68,-62 192.68,-81 234.68,-81 234.68,-62 192.68,-62"/>
<text text-anchor="middle" x="213.68" y="-69" font-family="Helvetica,sans-Serif" font-size="10.00">array</text>
</a>
</g>
</g>
<!-- Node6&#45;&gt;Node7 -->
<g id="edge6" class="edge">
<title>Node6&#45;&gt;Node7</title>
<path fill="none" stroke="midnightblue" d="M309.63,-123.48C291.09,-113.62 260.34,-97.29 238.66,-85.77"/>
<polygon fill="midnightblue" stroke="midnightblue" points="240.17,-82.61 229.7,-81.01 236.89,-88.79 240.17,-82.61"/>
</g>
<!-- Node8 -->
<g id="node8" class="node">
<title>Node8</title>
<g id="a_node8"><a xlink:title=" ">
<polygon fill="white" stroke="#bfbfbf" points="253.18,-62 253.18,-81 300.18,-81 300.18,-62 253.18,-62"/>
<text text-anchor="middle" x="276.68" y="-69" font-family="Helvetica,sans-Serif" font-size="10.00">cmath</text>
</a>
</g>
</g>
<!-- Node6&#45;&gt;Node8 -->
<g id="edge7" class="edge">
<title>Node6&#45;&gt;Node8</title>
<path fill="none" stroke="midnightblue" d="M318.66,-123.48C311.24,-114.46 299.35,-100.02 290.11,-88.81"/>
<polygon fill="midnightblue" stroke="midnightblue" points="292.75,-86.5 283.69,-81.01 287.34,-90.95 292.75,-86.5"/>
</g>
<!-- Node9 -->
<g id="node9" class="node">
<title>Node9</title>
<g id="a_node9"><a xlink:title=" ">
<polygon fill="white" stroke="#bfbfbf" points="447.68,-62 447.68,-81 555.68,-81 555.68,-62 447.68,-62"/>
<text text-anchor="middle" x="501.68" y="-69" font-family="Helvetica,sans-Serif" font-size="10.00">SDL2/SDL_image.h</text>
</a>
</g>
</g>
<!-- Node6&#45;&gt;Node9 -->
<g id="edge8" class="edge">
<title>Node6&#45;&gt;Node9</title>
<path fill="none" stroke="midnightblue" d="M350.9,-123.48C381.35,-113.18 432.73,-95.81 466.92,-84.25"/>
<polygon fill="midnightblue" stroke="midnightblue" points="468.16,-87.53 476.51,-81.01 465.92,-80.9 468.16,-87.53"/>
</g>
<!-- Node10 -->
<g id="node10" class="node">
<title>Node10</title>
<g id="a_node10"><a xlink:title=" ">
<polygon fill="white" stroke="#bfbfbf" points="86.68,-0.5 86.68,-19.5 150.68,-19.5 150.68,-0.5 86.68,-0.5"/>
<text text-anchor="middle" x="118.68" y="-7.5" font-family="Helvetica,sans-Serif" font-size="10.00">GL/glew.h</text>
</a>
</g>
</g>
<!-- Node6&#45;&gt;Node10 -->
<g id="edge9" class="edge">
<title>Node6&#45;&gt;Node10</title>
<path fill="none" stroke="midnightblue" d="M276.38,-123.44C247.61,-116.79 211.6,-105.5 183.68,-87 160.36,-71.55 140.64,-45.43 129.23,-28.2"/>
<polygon fill="midnightblue" stroke="midnightblue" points="132.11,-26.21 123.78,-19.67 126.21,-29.98 132.11,-26.21"/>
</g>
<!-- Node11 -->
<g id="node11" class="node">
<title>Node11</title>
<g id="a_node11"><a xlink:title=" ">
<polygon fill="white" stroke="#bfbfbf" points="318.18,-62 318.18,-81 429.18,-81 429.18,-62 318.18,-62"/>
<text text-anchor="middle" x="373.68" y="-69" font-family="Helvetica,sans-Serif" font-size="10.00">maths/maths_util.h</text>
</a>
</g>
</g>
<!-- Node6&#45;&gt;Node11 -->
<g id="edge10" class="edge">
<title>Node6&#45;&gt;Node11</title>
<path fill="none" stroke="midnightblue" d="M332.56,-123.48C339.83,-114.46 351.48,-100.02 360.52,-88.81"/>
<polygon fill="midnightblue" stroke="midnightblue" points="363.26,-90.99 366.82,-81.01 357.81,-86.59 363.26,-90.99"/>
</g>
<!-- Node12 -->
<g id="node12" class="node">
<title>Node12</title>
<g id="a_node12"><a xlink:href="pixel__format_8h.html" target="_top" xlink:title=" ">
<polygon fill="white" stroke="black" points="14.68,-56.5 14.68,-86.5 136.68,-86.5 136.68,-56.5 14.68,-56.5"/>
<text text-anchor="start" x="22.68" y="-74.5" font-family="Helvetica,sans-Serif" font-size="10.00">graphics/texture/pixel</text>
<text text-anchor="middle" x="75.68" y="-63.5" font-family="Helvetica,sans-Serif" font-size="10.00">_format.h</text>
</a>
</g>
</g>
<!-- Node6&#45;&gt;Node12 -->
<g id="edge11" class="edge">
<title>Node6&#45;&gt;Node12</title>
<path fill="none" stroke="midnightblue" d="M289.86,-123.48C252.05,-114.48 191.51,-100.07 144.43,-88.86"/>
<polygon fill="midnightblue" stroke="midnightblue" points="145.14,-85.43 134.6,-86.52 143.52,-92.24 145.14,-85.43"/>
</g>
<!-- Node12&#45;&gt;Node2 -->
<g id="edge12" class="edge">
<title>Node12&#45;&gt;Node2</title>
<path fill="none" stroke="midnightblue" d="M65.49,-56.4C59.31,-47.84 51.38,-36.87 44.86,-27.86"/>
<polygon fill="midnightblue" stroke="midnightblue" points="47.63,-25.71 38.94,-19.66 41.96,-29.81 47.63,-25.71"/>
</g>
<!-- Node12&#45;&gt;Node10 -->
<g id="edge13" class="edge">
<title>Node12&#45;&gt;Node10</title>
<path fill="none" stroke="midnightblue" d="M85.87,-56.4C92.06,-47.84 99.99,-36.87 106.5,-27.86"/>
<polygon fill="midnightblue" stroke="midnightblue" points="109.4,-29.81 112.42,-19.66 103.73,-25.71 109.4,-29.81"/>
</g>
<!-- Node13&#45;&gt;Node3 -->
<g id="edge16" class="edge">
<title>Node13&#45;&gt;Node3</title>
<path fill="none" stroke="midnightblue" d="M576.95,-179.47C613.85,-168.97 663.66,-154.79 697.79,-145.07"/>
<polygon fill="midnightblue" stroke="midnightblue" points="698.75,-148.44 707.41,-142.33 696.83,-141.71 698.75,-148.44"/>
</g>
<!-- Node13&#45;&gt;Node6 -->
<g id="edge25" class="edge">
<title>Node13&#45;&gt;Node6</title>
<path fill="none" stroke="midnightblue" d="M480.07,-179.47C444.76,-169.08 397.24,-155.08 364.29,-145.37"/>
<polygon fill="midnightblue" stroke="midnightblue" points="365.14,-141.97 354.56,-142.51 363.16,-148.69 365.14,-141.97"/>
</g>
<!-- Node13&#45;&gt;Node9 -->
<g id="edge17" class="edge">
<title>Node13&#45;&gt;Node9</title>
<path fill="none" stroke="midnightblue" d="M524.6,-179.14C519.88,-157.2 510.88,-115.33 505.68,-91.09"/>
<polygon fill="midnightblue" stroke="midnightblue" points="509.04,-90.09 503.52,-81.05 502.2,-91.56 509.04,-90.09"/>
</g>
<!-- Node14 -->
<g id="node14" class="node">
<title>Node14</title>
<g id="a_node14"><a xlink:title=" ">
<polygon fill="white" stroke="#bfbfbf" points="529.68,-123.5 529.68,-142.5 579.68,-142.5 579.68,-123.5 529.68,-123.5"/>
<text text-anchor="middle" x="554.68" y="-130.5" font-family="Helvetica,sans-Serif" font-size="10.00">cstring</text>
</a>
</g>
</g>
<!-- Node13&#45;&gt;Node14 -->
<g id="edge15" class="edge">
<title>Node13&#45;&gt;Node14</title>
<path fill="none" stroke="midnightblue" d="M534.08,-179.4C537.8,-171.2 542.53,-160.78 546.52,-151.99"/>
<polygon fill="midnightblue" stroke="midnightblue" points="549.81,-153.21 550.75,-142.66 543.43,-150.32 549.81,-153.21"/>
</g>
<!-- Node15 -->
<g id="node15" class="node">
<title>Node15</title>
<g id="a_node15"><a xlink:href="log_8h.html" target="_top" xlink:title=" ">
<polygon fill="white" stroke="black" points="630.18,-123.5 630.18,-142.5 689.18,-142.5 689.18,-123.5 630.18,-123.5"/>
<text text-anchor="middle" x="659.68" y="-130.5" font-family="Helvetica,sans-Serif" font-size="10.00">log/log.h</text>
</a>
</g>
</g>
<!-- Node13&#45;&gt;Node15 -->
<g id="edge18" class="edge">
<title>Node13&#45;&gt;Node15</title>
<path fill="none" stroke="midnightblue" d="M558.96,-179.4C580.91,-169.51 610.02,-156.38 631.3,-146.79"/>
<polygon fill="midnightblue" stroke="midnightblue" points="632.8,-149.96 640.47,-142.66 629.92,-143.58 632.8,-149.96"/>
</g>
<!-- Node16 -->
<g id="node16" class="node">
<title>Node16</title>
<g id="a_node16"><a xlink:title=" ">
<polygon fill="white" stroke="#bfbfbf" points="574.18,-62 574.18,-81 619.18,-81 619.18,-62 574.18,-62"/>
<text text-anchor="middle" x="596.68" y="-69" font-family="Helvetica,sans-Serif" font-size="10.00">utility</text>
</a>
</g>
</g>
<!-- Node15&#45;&gt;Node16 -->
<g id="edge19" class="edge">
<title>Node15&#45;&gt;Node16</title>
<path fill="none" stroke="midnightblue" d="M650.66,-123.48C640.92,-114.28 625.22,-99.46 613.26,-88.16"/>
<polygon fill="midnightblue" stroke="midnightblue" points="615.36,-85.33 605.69,-81.01 610.56,-90.42 615.36,-85.33"/>
</g>
<!-- Node17 -->
<g id="node17" class="node">
<title>Node17</title>
<g id="a_node17"><a xlink:title=" ">
<polygon fill="white" stroke="#bfbfbf" points="637.68,-62 637.68,-81 681.68,-81 681.68,-62 637.68,-62"/>
<text text-anchor="middle" x="659.68" y="-69" font-family="Helvetica,sans-Serif" font-size="10.00">string</text>
</a>
</g>
</g>
<!-- Node15&#45;&gt;Node17 -->
<g id="edge20" class="edge">
<title>Node15&#45;&gt;Node17</title>
<path fill="none" stroke="midnightblue" d="M659.68,-123.48C659.68,-115.08 659.68,-101.98 659.68,-91.16"/>
<polygon fill="midnightblue" stroke="midnightblue" points="663.18,-91.01 659.68,-81.01 656.18,-91.01 663.18,-91.01"/>
</g>
<!-- Node18 -->
<g id="node18" class="node">
<title>Node18</title>
<g id="a_node18"><a xlink:title=" ">
<polygon fill="white" stroke="#bfbfbf" points="700.18,-62 700.18,-81 793.18,-81 793.18,-62 700.18,-62"/>
<text text-anchor="middle" x="746.68" y="-69" font-family="Helvetica,sans-Serif" font-size="10.00">spdlog/spdlog.h</text>
</a>
</g>
</g>
<!-- Node15&#45;&gt;Node18 -->
<g id="edge21" class="edge">
<title>Node15&#45;&gt;Node18</title>
<path fill="none" stroke="midnightblue" d="M672.15,-123.48C686.1,-113.93 708.95,-98.31 725.67,-86.87"/>
<polygon fill="midnightblue" stroke="midnightblue" points="727.96,-89.54 734.24,-81.01 724.01,-83.77 727.96,-89.54"/>
</g>
<!-- Node19 -->
<g id="node19" class="node">
<title>Node19</title>
<g id="a_node19"><a xlink:title=" ">
<polygon fill="white" stroke="#bfbfbf" points="811.18,-62 811.18,-81 900.18,-81 900.18,-62 811.18,-62"/>
<text text-anchor="middle" x="855.68" y="-69" font-family="Helvetica,sans-Serif" font-size="10.00">spdlog/async.h</text>
</a>
</g>
</g>
<!-- Node15&#45;&gt;Node19 -->
<g id="edge22" class="edge">
<title>Node15&#45;&gt;Node19</title>
<path fill="none" stroke="midnightblue" d="M687.76,-123.48C721.97,-113.09 779.88,-95.51 817.95,-83.95"/>
<polygon fill="midnightblue" stroke="midnightblue" points="819.1,-87.26 827.65,-81.01 817.07,-80.56 819.1,-87.26"/>
</g>
<!-- Node20 -->
<g id="node20" class="node">
<title>Node20</title>
<g id="a_node20"><a xlink:title=" ">
<polygon fill="white" stroke="#bfbfbf" points="918.18,-56.5 918.18,-86.5 1037.18,-86.5 1037.18,-56.5 918.18,-56.5"/>
<text text-anchor="start" x="926.18" y="-74.5" font-family="Helvetica,sans-Serif" font-size="10.00">spdlog/sinks/rotating</text>
<text text-anchor="middle" x="977.68" y="-63.5" font-family="Helvetica,sans-Serif" font-size="10.00">_file_sink.h</text>
</a>
</g>
</g>
<!-- Node15&#45;&gt;Node20 -->
<g id="edge23" class="edge">
<title>Node15&#45;&gt;Node20</title>
<path fill="none" stroke="midnightblue" d="M689.45,-124.94C692.56,-124.26 695.68,-123.6 698.68,-123 788.86,-104.92 814.56,-104.9 908.12,-87.25"/>
<polygon fill="midnightblue" stroke="midnightblue" points="908.84,-90.68 918.01,-85.37 907.53,-83.8 908.84,-90.68"/>
</g>
<!-- Node21 -->
<g id="node21" class="node">
<title>Node21</title>
<g id="a_node21"><a xlink:title=" ">
<polygon fill="white" stroke="#bfbfbf" points="1055.18,-56.5 1055.18,-86.5 1166.18,-86.5 1166.18,-56.5 1055.18,-56.5"/>
<text text-anchor="start" x="1063.18" y="-74.5" font-family="Helvetica,sans-Serif" font-size="10.00">spdlog/sinks/stdout</text>
<text text-anchor="middle" x="1110.68" y="-63.5" font-family="Helvetica,sans-Serif" font-size="10.00">_color_sinks.h</text>
</a>
</g>
</g>
<!-- Node15&#45;&gt;Node21 -->
<g id="edge24" class="edge">
<title>Node15&#45;&gt;Node21</title>
<path fill="none" stroke="midnightblue" d="M689.42,-124.74C692.53,-124.1 695.67,-123.5 698.68,-123 848.77,-98.02 891.43,-111.61 1044.66,-87.21"/>
<polygon fill="midnightblue" stroke="midnightblue" points="1045.6,-90.6 1054.91,-85.55 1044.48,-83.69 1045.6,-90.6"/>
</g>
</g>
</svg>
        <g id="navigator" transform="translate(0 0)" fill="#404254">
                <rect fill="#f2f5e9" fill-opacity="0.5" stroke="#606060" stroke-width=".5" x="0" y="0" width="60" height="60"/>
                <use id="zoomplus" xlink:href="#zoomPlus" x="17" y="9" onmousedown="handleZoom(evt,'in')"/>
                <use id="zoomminus" xlink:href="#zoomMin" x="42" y="9" onmousedown="handleZoom(evt,'out')"/>
                <use id="reset" xlink:href="#resetDef" x="30" y="36" onmousedown="handleReset()"/>
                <g id="arrowUp" xlink:href="#dirArrow" transform="translate(30 24)" onmousedown="handlePan(0,-1)">
                  <use xlink:href="#rim" fill="#404040">
                        <set attributeName="fill" to="#808080" begin="arrowUp.mouseover" end="arrowUp.mouseout"/>
                  </use>
                  <path fill="none" stroke="white" stroke-width="1.5" d="M0,-3.0v7 M-2.5,-0.5L0,-3.0L2.5,-0.5"/>
                </g>
                <g id="arrowRight" xlink:href="#dirArrow" transform="rotate(90) translate(36 -43)" onmousedown="handlePan(1,0)">
                  <use xlink:href="#rim" fill="#404040">
                        <set attributeName="fill" to="#808080" begin="arrowRight.mouseover" end="arrowRight.mouseout"/>
                  </use>
                  <path fill="none" stroke="white" stroke-width="1.5" d="M0,-3.0v7 M-2.5,-0.5L0,-3.0L2.5,-0.5"/>
                </g>
                <g id="arrowDown" xlink:href="#dirArrow" transform="rotate(180) translate(-30 -48)" onmousedown="handlePan(0,1)">
                  <use xlink:href="#rim" fill="#404040">
                        <set attributeName="fill" to="#808080" begin="arrowDown.mouseover" end="arrowDown.mouseout"/>
                  </use>
                  <path fill="none" stroke="white" stroke-width="1.5" d="M0,-3.0v7 M-2.5,-0.5L0,-3.0L2.5,-0.5"/>
                </g>
                <g id="arrowLeft" xlink:href="#dirArrow" transform="rotate(270) translate(-36 17)" onmousedown="handlePan(-1,0)">
                  <use xlink:href="#rim" fill="#404040">
                        <set attributeName="fill" to="#808080" begin="arrowLeft.mouseover" end="arrowLeft.mouseout"/>
                  </use>
                  <path fill="none" stroke="white" stroke-width="1.5" d="M0,-3.0v7 M-2.5,-0.5L0,-3.0L2.5,-0.5"/>
                </g>
        </g>
        <svg viewBox="0 0 15 15" width="100%" height="30px" preserveAspectRatio="xMaxYMin meet">
         <g id="arrow_out" transform="scale(0.3 0.3)">
          <a xlink:href="texture__manager_8h__incl_org.svg" target="_base">
           <rect id="button" ry="5" rx="5" y="6" x="6" height="38" width="38"
                fill="#f2f5e9" fill-opacity="0.5" stroke="#606060" stroke-width="1.0"/>
           <path id="arrow"
             d="M 11.500037,31.436501 C 11.940474,20.09759 22.043105,11.32322 32.158766,21.979434 L 37.068811,17.246167 C 37.068811,17.246167 37.088388,32 37.088388,32 L 22.160133,31.978069 C 22.160133,31.978069 26.997745,27.140456 26.997745,27.140456 C 18.528582,18.264221 13.291696,25.230495 11.500037,31.436501 z"
             style="fill:#404040;"/>
          </a>
         </g>
        </svg>
</svg>
