<?xml version="1.0" encoding="UTF-8" standalone="no"?>
<!DOCTYPE svg PUBLIC "-//W3C//DTD SVG 1.1//EN"
 "http://www.w3.org/Graphics/SVG/1.1/DTD/svg11.dtd">
<!-- Generated by graphviz version 2.43.0 (0)
 -->
<!-- Title: src/graphics/shader/texture_unit.h Pages: 1 -->
<svg width="818pt" height="106pt"
 viewBox="0.00 0.00 817.50 106.00" xmlns="http://www.w3.org/2000/svg" xmlns:xlink="http://www.w3.org/1999/xlink">
<g id="graph0" class="graph" transform="scale(1 1) rotate(0) translate(4 102)">
<title>src/graphics/shader/texture_unit.h</title>
<polygon fill="white" stroke="transparent" points="-4,4 -4,-102 813.5,-102 813.5,4 -4,4"/>
<!-- Node1 -->
<g id="node1" class="node">
<title>Node1</title>
<g id="a_node1"><a xlink:title=" ">
<polygon fill="#bfbfbf" stroke="black" points="354,-67.5 354,-97.5 465,-97.5 465,-67.5 354,-67.5"/>
<text text-anchor="start" x="362" y="-85.5" font-family="Helvetica,sans-Serif" font-size="10.00">src/graphics/shader</text>
<text text-anchor="middle" x="409.5" y="-74.5" font-family="Helvetica,sans-Serif" font-size="10.00">/texture_unit.h</text>
</a>
</g>
</g>
<!-- Node2 -->
<g id="node2" class="node">
<title>Node2</title>
<g id="a_node2"><a xlink:href="graphics__renderer_8cpp.html" target="_top" xlink:title=" ">
<polygon fill="white" stroke="black" points="0,-0.5 0,-30.5 127,-30.5 127,-0.5 0,-0.5"/>
<text text-anchor="start" x="8" y="-18.5" font-family="Helvetica,sans-Serif" font-size="10.00">src/graphics/renderer</text>
<text text-anchor="middle" x="63.5" y="-7.5" font-family="Helvetica,sans-Serif" font-size="10.00">/graphics_renderer.cpp</text>
</a>
</g>
</g>
<!-- Node1&#45;&gt;Node2 -->
<g id="edge1" class="edge">
<title>Node1&#45;&gt;Node2</title>
<path fill="none" stroke="midnightblue" d="M343.76,-69.7C288.22,-59.65 206.59,-44.71 135.5,-31 132.75,-30.47 129.93,-29.92 127.09,-29.37"/>
<polygon fill="midnightblue" stroke="midnightblue" points="343.36,-73.18 353.82,-71.52 344.6,-66.29 343.36,-73.18"/>
</g>
<!-- Node3 -->
<g id="node3" class="node">
<title>Node3</title>
<g id="a_node3"><a xlink:href="forward__shader_8cpp.html" target="_top" xlink:title=" ">
<polygon fill="white" stroke="black" points="145,-0.5 145,-30.5 260,-30.5 260,-0.5 145,-0.5"/>
<text text-anchor="start" x="153" y="-18.5" font-family="Helvetica,sans-Serif" font-size="10.00">src/graphics/shader</text>
<text text-anchor="middle" x="202.5" y="-7.5" font-family="Helvetica,sans-Serif" font-size="10.00">/forward_shader.cpp</text>
</a>
</g>
</g>
<!-- Node1&#45;&gt;Node3 -->
<g id="edge2" class="edge">
<title>Node1&#45;&gt;Node3</title>
<path fill="none" stroke="midnightblue" d="M355.18,-64.44C321.63,-53.91 279.09,-40.55 247.44,-30.61"/>
<polygon fill="midnightblue" stroke="midnightblue" points="354.25,-67.82 364.84,-67.48 356.35,-61.14 354.25,-67.82"/>
</g>
<!-- Node4 -->
<g id="node4" class="node">
<title>Node4</title>
<g id="a_node4"><a xlink:href="geometry__shader_8cpp.html" target="_top" xlink:title=" ">
<polygon fill="white" stroke="black" points="278,-0.5 278,-30.5 403,-30.5 403,-0.5 278,-0.5"/>
<text text-anchor="start" x="286" y="-18.5" font-family="Helvetica,sans-Serif" font-size="10.00">src/graphics/shader</text>
<text text-anchor="middle" x="340.5" y="-7.5" font-family="Helvetica,sans-Serif" font-size="10.00">/geometry_shader.cpp</text>
</a>
</g>
</g>
<!-- Node1&#45;&gt;Node4 -->
<g id="edge3" class="edge">
<title>Node1&#45;&gt;Node4</title>
<path fill="none" stroke="midnightblue" d="M387.01,-60.31C376.66,-50.56 364.66,-39.26 355.44,-30.58"/>
<polygon fill="midnightblue" stroke="midnightblue" points="384.85,-63.09 394.53,-67.4 389.65,-57.99 384.85,-63.09"/>
</g>
<!-- Node5 -->
<g id="node5" class="node">
<title>Node5</title>
<g id="a_node5"><a xlink:href="lighting__shader_8cpp.html" target="_top" xlink:title=" ">
<polygon fill="white" stroke="black" points="421.5,-0.5 421.5,-30.5 535.5,-30.5 535.5,-0.5 421.5,-0.5"/>
<text text-anchor="start" x="429.5" y="-18.5" font-family="Helvetica,sans-Serif" font-size="10.00">src/graphics/shader</text>
<text text-anchor="middle" x="478.5" y="-7.5" font-family="Helvetica,sans-Serif" font-size="10.00">/lighting_shader.cpp</text>
</a>
</g>
</g>
<!-- Node1&#45;&gt;Node5 -->
<g id="edge4" class="edge">
<title>Node1&#45;&gt;Node5</title>
<path fill="none" stroke="midnightblue" d="M431.99,-60.31C442.34,-50.56 454.34,-39.26 463.56,-30.58"/>
<polygon fill="midnightblue" stroke="midnightblue" points="429.35,-57.99 424.47,-67.4 434.15,-63.09 429.35,-57.99"/>
</g>
<!-- Node6 -->
<g id="node6" class="node">
<title>Node6</title>
<g id="a_node6"><a xlink:href="post__proc__shader_8cpp.html" target="_top" xlink:title=" ">
<polygon fill="white" stroke="black" points="554,-0.5 554,-30.5 679,-30.5 679,-0.5 554,-0.5"/>
<text text-anchor="start" x="562" y="-18.5" font-family="Helvetica,sans-Serif" font-size="10.00">src/graphics/shader</text>
<text text-anchor="middle" x="616.5" y="-7.5" font-family="Helvetica,sans-Serif" font-size="10.00">/post_proc_shader.cpp</text>
</a>
</g>
</g>
<!-- Node1&#45;&gt;Node6 -->
<g id="edge5" class="edge">
<title>Node1&#45;&gt;Node6</title>
<path fill="none" stroke="midnightblue" d="M463.82,-64.44C497.37,-53.91 539.91,-40.55 571.56,-30.61"/>
<polygon fill="midnightblue" stroke="midnightblue" points="462.65,-61.14 454.16,-67.48 464.75,-67.82 462.65,-61.14"/>
</g>
<!-- Node7 -->
<g id="node7" class="node">
<title>Node7</title>
<g id="a_node7"><a xlink:href="skybox__shader_8cpp.html" target="_top" xlink:title=" ">
<polygon fill="white" stroke="black" points="697.5,-0.5 697.5,-30.5 809.5,-30.5 809.5,-0.5 697.5,-0.5"/>
<text text-anchor="start" x="705.5" y="-18.5" font-family="Helvetica,sans-Serif" font-size="10.00">src/graphics/shader</text>
<text text-anchor="middle" x="753.5" y="-7.5" font-family="Helvetica,sans-Serif" font-size="10.00">/skybox_shader.cpp</text>
</a>
</g>
</g>
<!-- Node1&#45;&gt;Node7 -->
<g id="edge6" class="edge">
<title>Node1&#45;&gt;Node7</title>
<path fill="none" stroke="midnightblue" d="M475.11,-70.4C531.73,-60.63 615.67,-45.71 688.5,-31 691.33,-30.43 694.23,-29.83 697.16,-29.21"/>
<polygon fill="midnightblue" stroke="midnightblue" points="474.47,-66.95 465.21,-72.1 475.66,-73.85 474.47,-66.95"/>
</g>
</g>
</svg>
