<?xml version="1.0" encoding="UTF-8" standalone="no"?>
<!DOCTYPE svg PUBLIC "-//W3C//DTD SVG 1.1//EN"
 "http://www.w3.org/Graphics/SVG/1.1/DTD/svg11.dtd">
<!-- Generated by graphviz version 2.43.0 (0)
 -->
<!-- Title: src/component/transform.h Pages: 1 -->
<!--zoomable 229 -->
<svg id="main" version="1.1" xmlns="http://www.w3.org/2000/svg" xmlns:xlink="http://www.w3.org/1999/xlink" xml:space="preserve" onload="init(evt)">
<style type="text/css"><![CDATA[
.edge:hover path { stroke: red; }
.edge:hover polygon { stroke: red; fill: red; }
]]></style>
<script type="text/javascript"><![CDATA[
var edges = document.getElementsByTagName('g');
if (edges && edges.length) {
  for (var i=0;i<edges.length;i++) {
    if (edges[i].id.substr(0,4)=='edge') {
      edges[i].setAttribute('class','edge');
    }
  }
}
]]></script>
        <defs>
                <circle id="rim" cx="0" cy="0" r="7"/>
                <circle id="rim2" cx="0" cy="0" r="3.5"/>
                <g id="zoomPlus">
                        <use xlink:href="#rim" fill="#404040">
                                <set attributeName="fill" to="#808080" begin="zoomplus.mouseover" end="zoomplus.mouseout"/>
                        </use>
                        <path d="M-4,0h8M0,-4v8" fill="none" stroke="white" stroke-width="1.5" pointer-events="none"/>
                </g>
                <g id="zoomMin">
                        <use xlink:href="#rim" fill="#404040">
                                <set attributeName="fill" to="#808080" begin="zoomminus.mouseover" end="zoomminus.mouseout"/>
                        </use>
                        <path d="M-4,0h8" fill="none" stroke="white" stroke-width="1.5" pointer-events="none"/>
                </g>
                <g id="dirArrow">
                        <path fill="none" stroke="white" stroke-width="1.5" d="M0,-3.0v7 M-2.5,-0.5L0,-3.0L2.5,-0.5"/>
                </g>
               <g id="resetDef">
                       <use xlink:href="#rim2" fill="#404040">
                               <set attributeName="fill" to="#808080" begin="reset.mouseover" end="reset.mouseout"/>
                       </use>
               </g>
        </defs>

<script type="text/javascript">
var viewWidth = 675;
var viewHeight = 229;
var sectionId = 'dynsection-1';
</script>
<script xlink:href="svgpan.js"/>
<svg id="graph" class="graph">
<g id="viewport">
<title>src/component/transform.h</title>
<polygon fill="white" stroke="transparent" points="-4,4 -4,-225 671,-225 671,4 -4,4"/>
<!-- Node1 -->
<g id="node1" class="node">
<title>Node1</title>
<g id="a_node1"><a xlink:title=" ">
<polygon fill="#bfbfbf" stroke="black" points="250.5,-201.5 250.5,-220.5 399.5,-220.5 399.5,-201.5 250.5,-201.5"/>
<text text-anchor="middle" x="325" y="-208.5" font-family="Helvetica,sans-Serif" font-size="10.00">src/component/transform.h</text>
</a>
</g>
</g>
<!-- Node2 -->
<g id="node2" class="node">
<title>Node2</title>
<g id="a_node2"><a xlink:href="game__scene_8cpp.html" target="_top" xlink:title=" ">
<polygon fill="white" stroke="black" points="0,-0.5 0,-30.5 124,-30.5 124,-0.5 0,-0.5"/>
<text text-anchor="start" x="8" y="-18.5" font-family="Helvetica,sans-Serif" font-size="10.00">src/game/scene/game</text>
<text text-anchor="middle" x="62" y="-7.5" font-family="Helvetica,sans-Serif" font-size="10.00">_scene.cpp</text>
</a>
</g>
</g>
<!-- Node1&#45;&gt;Node2 -->
<g id="edge1" class="edge">
<title>Node1&#45;&gt;Node2</title>
<path fill="none" stroke="midnightblue" d="M240.31,-201.53C184.4,-194.45 117.46,-182.62 95,-165 53.86,-132.72 56.62,-61.54 59.98,-30.94"/>
<polygon fill="midnightblue" stroke="midnightblue" points="239.9,-205.01 250.25,-202.76 240.76,-198.06 239.9,-205.01"/>
</g>
<!-- Node3 -->
<g id="node3" class="node">
<title>Node3</title>
<g id="a_node3"><a xlink:href="body__control__system_8h.html" target="_top" xlink:title=" ">
<polygon fill="white" stroke="black" points="407,-134.5 407,-164.5 535,-164.5 535,-134.5 407,-134.5"/>
<text text-anchor="start" x="415" y="-152.5" font-family="Helvetica,sans-Serif" font-size="10.00">src/game/system/body</text>
<text text-anchor="middle" x="471" y="-141.5" font-family="Helvetica,sans-Serif" font-size="10.00">_control_system.h</text>
</a>
</g>
</g>
<!-- Node1&#45;&gt;Node3 -->
<g id="edge2" class="edge">
<title>Node1&#45;&gt;Node3</title>
<path fill="none" stroke="midnightblue" d="M355.45,-197.59C379.12,-187.94 411.97,-174.56 436.59,-164.52"/>
<polygon fill="midnightblue" stroke="midnightblue" points="353.86,-194.46 345.92,-201.48 356.5,-200.94 353.86,-194.46"/>
</g>
<!-- Node6 -->
<g id="node6" class="node">
<title>Node6</title>
<g id="a_node6"><a xlink:href="head__control__system_8h.html" target="_top" xlink:title=" ">
<polygon fill="white" stroke="black" points="261,-134.5 261,-164.5 389,-164.5 389,-134.5 261,-134.5"/>
<text text-anchor="start" x="269" y="-152.5" font-family="Helvetica,sans-Serif" font-size="10.00">src/game/system/head</text>
<text text-anchor="middle" x="325" y="-141.5" font-family="Helvetica,sans-Serif" font-size="10.00">_control_system.h</text>
</a>
</g>
</g>
<!-- Node1&#45;&gt;Node6 -->
<g id="edge6" class="edge">
<title>Node1&#45;&gt;Node6</title>
<path fill="none" stroke="midnightblue" d="M325,-191.23C325,-182.59 325,-172.5 325,-164.52"/>
<polygon fill="midnightblue" stroke="midnightblue" points="321.5,-191.48 325,-201.48 328.5,-191.48 321.5,-191.48"/>
</g>
<!-- Node7 -->
<g id="node7" class="node">
<title>Node7</title>
<g id="a_node7"><a xlink:href="graphics__renderer_8h.html" target="_top" xlink:title=" ">
<polygon fill="white" stroke="black" points="104.5,-134.5 104.5,-164.5 223.5,-164.5 223.5,-134.5 104.5,-134.5"/>
<text text-anchor="start" x="112.5" y="-152.5" font-family="Helvetica,sans-Serif" font-size="10.00">src/graphics/renderer</text>
<text text-anchor="middle" x="164" y="-141.5" font-family="Helvetica,sans-Serif" font-size="10.00">/graphics_renderer.h</text>
</a>
</g>
</g>
<!-- Node1&#45;&gt;Node7 -->
<g id="edge8" class="edge">
<title>Node1&#45;&gt;Node7</title>
<path fill="none" stroke="midnightblue" d="M292.46,-197.98C266.29,-188.3 229.46,-174.69 201.94,-164.52"/>
<polygon fill="midnightblue" stroke="midnightblue" points="291.34,-201.29 301.93,-201.48 293.77,-194.73 291.34,-201.29"/>
</g>
<!-- Node10 -->
<g id="node10" class="node">
<title>Node10</title>
<g id="a_node10"><a xlink:href="scene_8cpp.html" target="_top" xlink:title=" ">
<polygon fill="white" stroke="black" points="553,-140 553,-159 667,-159 667,-140 553,-140"/>
<text text-anchor="middle" x="610" y="-147" font-family="Helvetica,sans-Serif" font-size="10.00">src/scene/scene.cpp</text>
</a>
</g>
</g>
<!-- Node1&#45;&gt;Node10 -->
<g id="edge12" class="edge">
<title>Node1&#45;&gt;Node10</title>
<path fill="none" stroke="midnightblue" d="M377.41,-199.44C421.8,-190.44 487.11,-177.09 544,-165 552.95,-163.1 562.57,-161.01 571.63,-159.02"/>
<polygon fill="midnightblue" stroke="midnightblue" points="376.54,-196.05 367.43,-201.46 377.92,-202.91 376.54,-196.05"/>
</g>
<!-- Node4 -->
<g id="node4" class="node">
<title>Node4</title>
<g id="a_node4"><a xlink:href="game__scene_8h.html" target="_top" xlink:title=" ">
<polygon fill="white" stroke="black" points="419,-67.5 419,-97.5 543,-97.5 543,-67.5 419,-67.5"/>
<text text-anchor="start" x="427" y="-85.5" font-family="Helvetica,sans-Serif" font-size="10.00">src/game/scene/game</text>
<text text-anchor="middle" x="481" y="-74.5" font-family="Helvetica,sans-Serif" font-size="10.00">_scene.h</text>
</a>
</g>
</g>
<!-- Node3&#45;&gt;Node4 -->
<g id="edge3" class="edge">
<title>Node3&#45;&gt;Node4</title>
<path fill="none" stroke="midnightblue" d="M474.71,-124.4C476.1,-115.37 477.63,-105.41 478.83,-97.58"/>
<polygon fill="midnightblue" stroke="midnightblue" points="471.23,-123.98 473.17,-134.4 478.15,-125.04 471.23,-123.98"/>
</g>
<!-- Node4&#45;&gt;Node2 -->
<g id="edge4" class="edge">
<title>Node4&#45;&gt;Node2</title>
<path fill="none" stroke="midnightblue" d="M408.84,-66.85C303.31,-48.64 191.72,-33.29 124.09,-24.42"/>
<polygon fill="midnightblue" stroke="midnightblue" points="408.25,-70.3 418.7,-68.57 409.45,-63.41 408.25,-70.3"/>
</g>
<!-- Node5 -->
<g id="node5" class="node">
<title>Node5</title>
<g id="a_node5"><a xlink:href="scene__manager_8cpp.html" target="_top" xlink:title=" ">
<polygon fill="white" stroke="black" points="400,-6 400,-25 562,-25 562,-6 400,-6"/>
<text text-anchor="middle" x="481" y="-13" font-family="Helvetica,sans-Serif" font-size="10.00">src/scene/scene_manager.cpp</text>
</a>
</g>
</g>
<!-- Node4&#45;&gt;Node5 -->
<g id="edge5" class="edge">
<title>Node4&#45;&gt;Node5</title>
<path fill="none" stroke="midnightblue" d="M481,-57.25C481,-46.02 481,-33.38 481,-25.19"/>
<polygon fill="midnightblue" stroke="midnightblue" points="477.5,-57.4 481,-67.4 484.5,-57.4 477.5,-57.4"/>
</g>
<!-- Node6&#45;&gt;Node4 -->
<g id="edge7" class="edge">
<title>Node6&#45;&gt;Node4</title>
<path fill="none" stroke="midnightblue" d="M368.09,-130.54C393.06,-120.14 424.03,-107.24 447.22,-97.58"/>
<polygon fill="midnightblue" stroke="midnightblue" points="366.73,-127.32 358.85,-134.4 369.43,-133.78 366.73,-127.32"/>
</g>
<!-- Node7&#45;&gt;Node2 -->
<g id="edge10" class="edge">
<title>Node7&#45;&gt;Node2</title>
<path fill="none" stroke="midnightblue" d="M118.73,-129.54C104.77,-121.67 90.57,-111.23 81,-98 66.35,-77.76 62.81,-47.93 62.06,-30.53"/>
<polygon fill="midnightblue" stroke="midnightblue" points="117.35,-132.77 127.82,-134.35 120.62,-126.58 117.35,-132.77"/>
</g>
<!-- Node8 -->
<g id="node8" class="node">
<title>Node8</title>
<g id="a_node8"><a xlink:href="application_8cpp.html" target="_top" xlink:title=" ">
<polygon fill="white" stroke="black" points="235.5,-73 235.5,-92 400.5,-92 400.5,-73 235.5,-73"/>
<text text-anchor="middle" x="318" y="-80" font-family="Helvetica,sans-Serif" font-size="10.00">src/application/application.cpp</text>
</a>
</g>
</g>
<!-- Node7&#45;&gt;Node8 -->
<g id="edge9" class="edge">
<title>Node7&#45;&gt;Node8</title>
<path fill="none" stroke="midnightblue" d="M206.74,-130.46C236.5,-117.9 274.82,-101.72 297.84,-92.01"/>
<polygon fill="midnightblue" stroke="midnightblue" points="205.27,-127.28 197.42,-134.4 207.99,-133.73 205.27,-127.28"/>
</g>
<!-- Node9 -->
<g id="node9" class="node">
<title>Node9</title>
<g id="a_node9"><a xlink:href="graphics__renderer_8cpp.html" target="_top" xlink:title=" ">
<polygon fill="white" stroke="black" points="90.5,-67.5 90.5,-97.5 217.5,-97.5 217.5,-67.5 90.5,-67.5"/>
<text text-anchor="start" x="98.5" y="-85.5" font-family="Helvetica,sans-Serif" font-size="10.00">src/graphics/renderer</text>
<text text-anchor="middle" x="154" y="-74.5" font-family="Helvetica,sans-Serif" font-size="10.00">/graphics_renderer.cpp</text>
</a>
</g>
</g>
<!-- Node7&#45;&gt;Node9 -->
<g id="edge11" class="edge">
<title>Node7&#45;&gt;Node9</title>
<path fill="none" stroke="midnightblue" d="M160.29,-124.4C158.9,-115.37 157.37,-105.41 156.17,-97.58"/>
<polygon fill="midnightblue" stroke="midnightblue" points="156.85,-125.04 161.83,-134.4 163.77,-123.98 156.85,-125.04"/>
</g>
</g>
</svg>
        <g id="navigator" transform="translate(0 0)" fill="#404254">
                <rect fill="#f2f5e9" fill-opacity="0.5" stroke="#606060" stroke-width=".5" x="0" y="0" width="60" height="60"/>
                <use id="zoomplus" xlink:href="#zoomPlus" x="17" y="9" onmousedown="handleZoom(evt,'in')"/>
                <use id="zoomminus" xlink:href="#zoomMin" x="42" y="9" onmousedown="handleZoom(evt,'out')"/>
                <use id="reset" xlink:href="#resetDef" x="30" y="36" onmousedown="handleReset()"/>
                <g id="arrowUp" xlink:href="#dirArrow" transform="translate(30 24)" onmousedown="handlePan(0,-1)">
                  <use xlink:href="#rim" fill="#404040">
                        <set attributeName="fill" to="#808080" begin="arrowUp.mouseover" end="arrowUp.mouseout"/>
                  </use>
                  <path fill="none" stroke="white" stroke-width="1.5" d="M0,-3.0v7 M-2.5,-0.5L0,-3.0L2.5,-0.5"/>
                </g>
                <g id="arrowRight" xlink:href="#dirArrow" transform="rotate(90) translate(36 -43)" onmousedown="handlePan(1,0)">
                  <use xlink:href="#rim" fill="#404040">
                        <set attributeName="fill" to="#808080" begin="arrowRight.mouseover" end="arrowRight.mouseout"/>
                  </use>
                  <path fill="none" stroke="white" stroke-width="1.5" d="M0,-3.0v7 M-2.5,-0.5L0,-3.0L2.5,-0.5"/>
                </g>
                <g id="arrowDown" xlink:href="#dirArrow" transform="rotate(180) translate(-30 -48)" onmousedown="handlePan(0,1)">
                  <use xlink:href="#rim" fill="#404040">
                        <set attributeName="fill" to="#808080" begin="arrowDown.mouseover" end="arrowDown.mouseout"/>
                  </use>
                  <path fill="none" stroke="white" stroke-width="1.5" d="M0,-3.0v7 M-2.5,-0.5L0,-3.0L2.5,-0.5"/>
                </g>
                <g id="arrowLeft" xlink:href="#dirArrow" transform="rotate(270) translate(-36 17)" onmousedown="handlePan(-1,0)">
                  <use xlink:href="#rim" fill="#404040">
                        <set attributeName="fill" to="#808080" begin="arrowLeft.mouseover" end="arrowLeft.mouseout"/>
                  </use>
                  <path fill="none" stroke="white" stroke-width="1.5" d="M0,-3.0v7 M-2.5,-0.5L0,-3.0L2.5,-0.5"/>
                </g>
        </g>
        <svg viewBox="0 0 15 15" width="100%" height="30px" preserveAspectRatio="xMaxYMin meet">
         <g id="arrow_out" transform="scale(0.3 0.3)">
          <a xlink:href="transform_8h__dep__incl_org.svg" target="_base">
           <rect id="button" ry="5" rx="5" y="6" x="6" height="38" width="38"
                fill="#f2f5e9" fill-opacity="0.5" stroke="#606060" stroke-width="1.0"/>
           <path id="arrow"
             d="M 11.500037,31.436501 C 11.940474,20.09759 22.043105,11.32322 32.158766,21.979434 L 37.068811,17.246167 C 37.068811,17.246167 37.088388,32 37.088388,32 L 22.160133,31.978069 C 22.160133,31.978069 26.997745,27.140456 26.997745,27.140456 C 18.528582,18.264221 13.291696,25.230495 11.500037,31.436501 z"
             style="fill:#404040;"/>
          </a>
         </g>
        </svg>
</svg>
