<?xml version="1.0" encoding="UTF-8" standalone="no"?>
<!DOCTYPE svg PUBLIC "-//W3C//DTD SVG 1.1//EN"
 "http://www.w3.org/Graphics/SVG/1.1/DTD/svg11.dtd">
<!-- Generated by graphviz version 2.43.0 (0)
 -->
<!-- Title: src/component/transform.h Pages: 1 -->
<svg width="582pt" height="229pt"
 viewBox="0.00 0.00 582.00 229.00" xmlns="http://www.w3.org/2000/svg" xmlns:xlink="http://www.w3.org/1999/xlink">
<g id="graph0" class="graph" transform="scale(1 1) rotate(0) translate(4 225)">
<title>src/component/transform.h</title>
<polygon fill="white" stroke="transparent" points="-4,4 -4,-225 578,-225 578,4 -4,4"/>
<!-- Node1 -->
<g id="node1" class="node">
<title>Node1</title>
<g id="a_node1"><a xlink:title=" ">
<polygon fill="#bfbfbf" stroke="black" points="163.5,-201.5 163.5,-220.5 312.5,-220.5 312.5,-201.5 163.5,-201.5"/>
<text text-anchor="middle" x="238" y="-208.5" font-family="Helvetica,sans-Serif" font-size="10.00">src/component/transform.h</text>
</a>
</g>
</g>
<!-- Node2 -->
<g id="node2" class="node">
<title>Node2</title>
<g id="a_node2"><a xlink:href="game__scene_8cpp.html" target="_top" xlink:title=" ">
<polygon fill="white" stroke="black" points="0,-0.5 0,-30.5 124,-30.5 124,-0.5 0,-0.5"/>
<text text-anchor="start" x="8" y="-18.5" font-family="Helvetica,sans-Serif" font-size="10.00">src/game/scene/game</text>
<text text-anchor="middle" x="62" y="-7.5" font-family="Helvetica,sans-Serif" font-size="10.00">_scene.cpp</text>
</a>
</g>
</g>
<!-- Node1&#45;&gt;Node2 -->
<g id="edge1" class="edge">
<title>Node1&#45;&gt;Node2</title>
<path fill="none" stroke="midnightblue" d="M159.14,-198.98C135.3,-192.38 110.56,-181.84 92,-165 53.44,-130 56.58,-60.31 59.98,-30.52"/>
<polygon fill="midnightblue" stroke="midnightblue" points="158.37,-202.39 168.93,-201.48 160.11,-195.61 158.37,-202.39"/>
</g>
<!-- Node3 -->
<g id="node3" class="node">
<title>Node3</title>
<g id="a_node3"><a xlink:href="body__control__system_8h.html" target="_top" xlink:title=" ">
<polygon fill="white" stroke="black" points="267,-134.5 267,-164.5 395,-164.5 395,-134.5 267,-134.5"/>
<text text-anchor="start" x="275" y="-152.5" font-family="Helvetica,sans-Serif" font-size="10.00">src/game/system/body</text>
<text text-anchor="middle" x="331" y="-141.5" font-family="Helvetica,sans-Serif" font-size="10.00">_control_system.h</text>
</a>
</g>
</g>
<!-- Node1&#45;&gt;Node3 -->
<g id="edge2" class="edge">
<title>Node1&#45;&gt;Node3</title>
<path fill="none" stroke="midnightblue" d="M259.87,-196.01C274.7,-186.52 294.24,-174.02 309.08,-164.52"/>
<polygon fill="midnightblue" stroke="midnightblue" points="257.86,-193.14 251.32,-201.48 261.63,-199.03 257.86,-193.14"/>
</g>
<!-- Node6 -->
<g id="node6" class="node">
<title>Node6</title>
<g id="a_node6"><a xlink:href="head__control__system_8h.html" target="_top" xlink:title=" ">
<polygon fill="white" stroke="black" points="423,-134.5 423,-164.5 551,-164.5 551,-134.5 423,-134.5"/>
<text text-anchor="start" x="431" y="-152.5" font-family="Helvetica,sans-Serif" font-size="10.00">src/game/system/head</text>
<text text-anchor="middle" x="487" y="-141.5" font-family="Helvetica,sans-Serif" font-size="10.00">_control_system.h</text>
</a>
</g>
</g>
<!-- Node1&#45;&gt;Node6 -->
<g id="edge6" class="edge">
<title>Node1&#45;&gt;Node6</title>
<path fill="none" stroke="midnightblue" d="M283.59,-199.11C324.27,-189.39 384.07,-175.1 428.32,-164.52"/>
<polygon fill="midnightblue" stroke="midnightblue" points="282.59,-195.75 273.68,-201.48 284.22,-202.56 282.59,-195.75"/>
</g>
<!-- Node7 -->
<g id="node7" class="node">
<title>Node7</title>
<g id="a_node7"><a xlink:href="renderer_8h.html" target="_top" xlink:title=" ">
<polygon fill="white" stroke="black" points="101,-140 101,-159 229,-159 229,-140 101,-140"/>
<text text-anchor="middle" x="165" y="-147" font-family="Helvetica,sans-Serif" font-size="10.00">src/graphics/renderer.h</text>
</a>
</g>
</g>
<!-- Node1&#45;&gt;Node7 -->
<g id="edge8" class="edge">
<title>Node1&#45;&gt;Node7</title>
<path fill="none" stroke="midnightblue" d="M219.56,-194.97C205.6,-183.59 186.92,-168.37 175.44,-159.01"/>
<polygon fill="midnightblue" stroke="midnightblue" points="217.58,-197.87 227.54,-201.48 222,-192.44 217.58,-197.87"/>
</g>
<!-- Node4 -->
<g id="node4" class="node">
<title>Node4</title>
<g id="a_node4"><a xlink:href="game__scene_8h.html" target="_top" xlink:title=" ">
<polygon fill="white" stroke="black" points="431,-67.5 431,-97.5 555,-97.5 555,-67.5 431,-67.5"/>
<text text-anchor="start" x="439" y="-85.5" font-family="Helvetica,sans-Serif" font-size="10.00">src/game/scene/game</text>
<text text-anchor="middle" x="493" y="-74.5" font-family="Helvetica,sans-Serif" font-size="10.00">_scene.h</text>
</a>
</g>
</g>
<!-- Node3&#45;&gt;Node4 -->
<g id="edge3" class="edge">
<title>Node3&#45;&gt;Node4</title>
<path fill="none" stroke="midnightblue" d="M375.75,-130.54C401.67,-120.14 433.84,-107.24 457.92,-97.58"/>
<polygon fill="midnightblue" stroke="midnightblue" points="374.13,-127.42 366.15,-134.4 376.74,-133.92 374.13,-127.42"/>
</g>
<!-- Node4&#45;&gt;Node2 -->
<g id="edge4" class="edge">
<title>Node4&#45;&gt;Node2</title>
<path fill="none" stroke="midnightblue" d="M420.77,-66.85C310.88,-48.16 194.11,-32.77 124.29,-24.05"/>
<polygon fill="midnightblue" stroke="midnightblue" points="420.26,-70.31 430.7,-68.55 421.44,-63.41 420.26,-70.31"/>
</g>
<!-- Node5 -->
<g id="node5" class="node">
<title>Node5</title>
<g id="a_node5"><a xlink:href="scene__manager_8cpp.html" target="_top" xlink:title=" ">
<polygon fill="white" stroke="black" points="412,-6 412,-25 574,-25 574,-6 412,-6"/>
<text text-anchor="middle" x="493" y="-13" font-family="Helvetica,sans-Serif" font-size="10.00">src/scene/scene_manager.cpp</text>
</a>
</g>
</g>
<!-- Node4&#45;&gt;Node5 -->
<g id="edge5" class="edge">
<title>Node4&#45;&gt;Node5</title>
<path fill="none" stroke="midnightblue" d="M493,-57.25C493,-46.02 493,-33.38 493,-25.19"/>
<polygon fill="midnightblue" stroke="midnightblue" points="489.5,-57.4 493,-67.4 496.5,-57.4 489.5,-57.4"/>
</g>
<!-- Node6&#45;&gt;Node4 -->
<g id="edge7" class="edge">
<title>Node6&#45;&gt;Node4</title>
<path fill="none" stroke="midnightblue" d="M489.22,-124.4C490.06,-115.37 490.98,-105.41 491.7,-97.58"/>
<polygon fill="midnightblue" stroke="midnightblue" points="485.74,-124.12 488.3,-134.4 492.71,-124.76 485.74,-124.12"/>
</g>
<!-- Node7&#45;&gt;Node2 -->
<g id="edge10" class="edge">
<title>Node7&#45;&gt;Node2</title>
<path fill="none" stroke="midnightblue" d="M131.31,-135.85C113.8,-127.61 93.51,-115.18 81,-98 66.29,-77.8 62.77,-47.95 62.04,-30.54"/>
<polygon fill="midnightblue" stroke="midnightblue" points="130.12,-139.15 140.68,-139.99 132.95,-132.75 130.12,-139.15"/>
</g>
<!-- Node8 -->
<g id="node8" class="node">
<title>Node8</title>
<g id="a_node8"><a xlink:href="application_8cpp.html" target="_top" xlink:title=" ">
<polygon fill="white" stroke="black" points="247.5,-73 247.5,-92 412.5,-92 412.5,-73 247.5,-73"/>
<text text-anchor="middle" x="330" y="-80" font-family="Helvetica,sans-Serif" font-size="10.00">src/application/application.cpp</text>
</a>
</g>
</g>
<!-- Node7&#45;&gt;Node8 -->
<g id="edge9" class="edge">
<title>Node7&#45;&gt;Node8</title>
<path fill="none" stroke="midnightblue" d="M196.47,-136.1C229.23,-123.2 279.67,-103.33 308.26,-92.06"/>
<polygon fill="midnightblue" stroke="midnightblue" points="194.93,-132.95 186.91,-139.87 197.5,-139.46 194.93,-132.95"/>
</g>
<!-- Node9 -->
<g id="node9" class="node">
<title>Node9</title>
<g id="a_node9"><a xlink:href="renderer_8cpp.html" target="_top" xlink:title=" ">
<polygon fill="white" stroke="black" points="90.5,-73 90.5,-92 229.5,-92 229.5,-73 90.5,-73"/>
<text text-anchor="middle" x="160" y="-80" font-family="Helvetica,sans-Serif" font-size="10.00">src/graphics/renderer.cpp</text>
</a>
</g>
</g>
<!-- Node7&#45;&gt;Node9 -->
<g id="edge11" class="edge">
<title>Node7&#45;&gt;Node9</title>
<path fill="none" stroke="midnightblue" d="M163.54,-129.54C162.59,-117.17 161.39,-101.62 160.66,-92.13"/>
<polygon fill="midnightblue" stroke="midnightblue" points="160.07,-130.03 164.33,-139.73 167.05,-129.49 160.07,-130.03"/>
</g>
</g>
</svg>
