<?xml version="1.0" encoding="UTF-8" standalone="no"?>
<!DOCTYPE svg PUBLIC "-//W3C//DTD SVG 1.1//EN"
 "http://www.w3.org/Graphics/SVG/1.1/DTD/svg11.dtd">
<!-- Generated by graphviz version 2.43.0 (0)
 -->
<!-- Title: src/graphics/vao.h Pages: 1 -->
<svg width="304pt" height="140pt"
 viewBox="0.00 0.00 303.50 140.00" xmlns="http://www.w3.org/2000/svg" xmlns:xlink="http://www.w3.org/1999/xlink">
<g id="graph0" class="graph" transform="scale(1 1) rotate(0) translate(4 136)">
<title>src/graphics/vao.h</title>
<polygon fill="white" stroke="transparent" points="-4,4 -4,-136 299.5,-136 299.5,4 -4,4"/>
<!-- Node1 -->
<g id="node1" class="node">
<title>Node1</title>
<g id="a_node1"><a xlink:title=" ">
<polygon fill="#bfbfbf" stroke="black" points="57,-112.5 57,-131.5 162,-131.5 162,-112.5 57,-112.5"/>
<text text-anchor="middle" x="109.5" y="-119.5" font-family="Helvetica,sans-Serif" font-size="10.00">src/graphics/vao.h</text>
</a>
</g>
</g>
<!-- Node2 -->
<g id="node2" class="node">
<title>Node2</title>
<g id="a_node2"><a xlink:title=" ">
<polygon fill="white" stroke="#bfbfbf" points="0,-56.5 0,-75.5 45,-75.5 45,-56.5 0,-56.5"/>
<text text-anchor="middle" x="22.5" y="-63.5" font-family="Helvetica,sans-Serif" font-size="10.00">utility</text>
</a>
</g>
</g>
<!-- Node1&#45;&gt;Node2 -->
<g id="edge1" class="edge">
<title>Node1&#45;&gt;Node2</title>
<path fill="none" stroke="midnightblue" d="M95.52,-112.32C81.95,-103.9 61.12,-90.97 45.18,-81.07"/>
<polygon fill="midnightblue" stroke="midnightblue" points="46.79,-77.95 36.44,-75.65 43.09,-83.9 46.79,-77.95"/>
</g>
<!-- Node3 -->
<g id="node3" class="node">
<title>Node3</title>
<g id="a_node3"><a xlink:title=" ">
<polygon fill="white" stroke="#bfbfbf" points="51,-0.5 51,-19.5 98,-19.5 98,-0.5 51,-0.5"/>
<text text-anchor="middle" x="74.5" y="-7.5" font-family="Helvetica,sans-Serif" font-size="10.00">vector</text>
</a>
</g>
</g>
<!-- Node1&#45;&gt;Node3 -->
<g id="edge2" class="edge">
<title>Node1&#45;&gt;Node3</title>
<path fill="none" stroke="midnightblue" d="M106.01,-112.46C102.39,-103.46 96.7,-88.86 92.5,-76 87.44,-60.52 82.57,-42.68 79.17,-29.61"/>
<polygon fill="midnightblue" stroke="midnightblue" points="82.56,-28.73 76.69,-19.91 75.78,-30.46 82.56,-28.73"/>
</g>
<!-- Node4 -->
<g id="node4" class="node">
<title>Node4</title>
<g id="a_node4"><a xlink:href="vbo_8h.html" target="_top" xlink:title=" ">
<polygon fill="white" stroke="black" points="101.5,-56.5 101.5,-75.5 189.5,-75.5 189.5,-56.5 101.5,-56.5"/>
<text text-anchor="middle" x="145.5" y="-63.5" font-family="Helvetica,sans-Serif" font-size="10.00">graphics/vbo.h</text>
</a>
</g>
</g>
<!-- Node1&#45;&gt;Node4 -->
<g id="edge3" class="edge">
<title>Node1&#45;&gt;Node4</title>
<path fill="none" stroke="midnightblue" d="M115.44,-112.08C120.48,-104.53 127.84,-93.49 134.01,-84.23"/>
<polygon fill="midnightblue" stroke="midnightblue" points="137.03,-86.01 139.67,-75.75 131.21,-82.13 137.03,-86.01"/>
</g>
<!-- Node7 -->
<g id="node7" class="node">
<title>Node7</title>
<g id="a_node7"><a xlink:href="ebo_8h.html" target="_top" xlink:title=" ">
<polygon fill="white" stroke="black" points="207.5,-56.5 207.5,-75.5 295.5,-75.5 295.5,-56.5 207.5,-56.5"/>
<text text-anchor="middle" x="251.5" y="-63.5" font-family="Helvetica,sans-Serif" font-size="10.00">graphics/ebo.h</text>
</a>
</g>
</g>
<!-- Node1&#45;&gt;Node7 -->
<g id="edge7" class="edge">
<title>Node1&#45;&gt;Node7</title>
<path fill="none" stroke="midnightblue" d="M132,-112.44C155.58,-103.48 192.82,-89.31 219.46,-79.18"/>
<polygon fill="midnightblue" stroke="midnightblue" points="221,-82.34 229.1,-75.52 218.51,-75.8 221,-82.34"/>
</g>
<!-- Node4&#45;&gt;Node3 -->
<g id="edge4" class="edge">
<title>Node4&#45;&gt;Node3</title>
<path fill="none" stroke="midnightblue" d="M134.09,-56.32C123.39,-48.18 107.16,-35.84 94.34,-26.09"/>
<polygon fill="midnightblue" stroke="midnightblue" points="96.19,-23.1 86.11,-19.83 91.96,-28.67 96.19,-23.1"/>
</g>
<!-- Node5 -->
<g id="node5" class="node">
<title>Node5</title>
<g id="a_node5"><a xlink:title=" ">
<polygon fill="white" stroke="#bfbfbf" points="116.5,-0.5 116.5,-19.5 174.5,-19.5 174.5,-0.5 116.5,-0.5"/>
<text text-anchor="middle" x="145.5" y="-7.5" font-family="Helvetica,sans-Serif" font-size="10.00">memory</text>
</a>
</g>
</g>
<!-- Node4&#45;&gt;Node5 -->
<g id="edge5" class="edge">
<title>Node4&#45;&gt;Node5</title>
<path fill="none" stroke="midnightblue" d="M145.5,-56.08C145.5,-49.01 145.5,-38.86 145.5,-29.99"/>
<polygon fill="midnightblue" stroke="midnightblue" points="149,-29.75 145.5,-19.75 142,-29.75 149,-29.75"/>
</g>
<!-- Node6 -->
<g id="node6" class="node">
<title>Node6</title>
<g id="a_node6"><a xlink:title=" ">
<polygon fill="white" stroke="#bfbfbf" points="205.5,-0.5 205.5,-19.5 269.5,-19.5 269.5,-0.5 205.5,-0.5"/>
<text text-anchor="middle" x="237.5" y="-7.5" font-family="Helvetica,sans-Serif" font-size="10.00">GL/glew.h</text>
</a>
</g>
</g>
<!-- Node4&#45;&gt;Node6 -->
<g id="edge6" class="edge">
<title>Node4&#45;&gt;Node6</title>
<path fill="none" stroke="midnightblue" d="M160.28,-56.32C174.77,-47.82 197.07,-34.73 213.99,-24.8"/>
<polygon fill="midnightblue" stroke="midnightblue" points="215.9,-27.74 222.76,-19.65 212.36,-21.7 215.9,-27.74"/>
</g>
<!-- Node7&#45;&gt;Node6 -->
<g id="edge8" class="edge">
<title>Node7&#45;&gt;Node6</title>
<path fill="none" stroke="midnightblue" d="M249.19,-56.08C247.33,-48.93 244.66,-38.64 242.35,-29.69"/>
<polygon fill="midnightblue" stroke="midnightblue" points="245.67,-28.55 239.77,-19.75 238.89,-30.31 245.67,-28.55"/>
</g>
</g>
</svg>
