<?xml version="1.0" encoding="UTF-8" standalone="no"?>
<!DOCTYPE svg PUBLIC "-//W3C//DTD SVG 1.1//EN"
 "http://www.w3.org/Graphics/SVG/1.1/DTD/svg11.dtd">
<!-- Generated by graphviz version 2.43.0 (0)
 -->
<!-- Title: src/graphics/vertex.h Pages: 1 -->
<svg width="476pt" height="341pt"
 viewBox="0.00 0.00 475.50 341.00" xmlns="http://www.w3.org/2000/svg" xmlns:xlink="http://www.w3.org/1999/xlink">
<g id="graph0" class="graph" transform="scale(1 1) rotate(0) translate(4 337)">
<title>src/graphics/vertex.h</title>
<polygon fill="white" stroke="transparent" points="-4,4 -4,-337 471.5,-337 471.5,4 -4,4"/>
<!-- Node1 -->
<g id="node1" class="node">
<title>Node1</title>
<g id="a_node1"><a xlink:title=" ">
<polygon fill="#bfbfbf" stroke="black" points="216.5,-313.5 216.5,-332.5 335.5,-332.5 335.5,-313.5 216.5,-313.5"/>
<text text-anchor="middle" x="276" y="-320.5" font-family="Helvetica,sans-Serif" font-size="10.00">src/graphics/vertex.h</text>
</a>
</g>
</g>
<!-- Node2 -->
<g id="node2" class="node">
<title>Node2</title>
<g id="a_node2"><a xlink:href="mesh_8h.html" target="_top" xlink:title=" ">
<polygon fill="white" stroke="black" points="219,-257.5 219,-276.5 333,-276.5 333,-257.5 219,-257.5"/>
<text text-anchor="middle" x="276" y="-264.5" font-family="Helvetica,sans-Serif" font-size="10.00">src/graphics/mesh.h</text>
</a>
</g>
</g>
<!-- Node1&#45;&gt;Node2 -->
<g id="edge1" class="edge">
<title>Node1&#45;&gt;Node2</title>
<path fill="none" stroke="midnightblue" d="M276,-302.8C276,-293.91 276,-283.78 276,-276.75"/>
<polygon fill="midnightblue" stroke="midnightblue" points="272.5,-303.08 276,-313.08 279.5,-303.08 272.5,-303.08"/>
</g>
<!-- Node3 -->
<g id="node3" class="node">
<title>Node3</title>
<g id="a_node3"><a xlink:href="asset__loader_8h.html" target="_top" xlink:title=" ">
<polygon fill="white" stroke="black" points="269,-134.5 269,-164.5 373,-164.5 373,-134.5 269,-134.5"/>
<text text-anchor="start" x="277" y="-152.5" font-family="Helvetica,sans-Serif" font-size="10.00">src/graphics/asset</text>
<text text-anchor="middle" x="321" y="-141.5" font-family="Helvetica,sans-Serif" font-size="10.00">_loader.h</text>
</a>
</g>
</g>
<!-- Node2&#45;&gt;Node3 -->
<g id="edge2" class="edge">
<title>Node2&#45;&gt;Node3</title>
<path fill="none" stroke="midnightblue" d="M287.35,-248.81C292.37,-240.64 298.02,-230.58 302,-221 309.83,-202.15 315.32,-179.13 318.33,-164.63"/>
<polygon fill="midnightblue" stroke="midnightblue" points="284.31,-247.07 281.89,-257.39 290.21,-250.83 284.31,-247.07"/>
</g>
<!-- Node7 -->
<g id="node7" class="node">
<title>Node7</title>
<g id="a_node7"><a xlink:href="skybox_8h.html" target="_top" xlink:title=" ">
<polygon fill="white" stroke="black" points="171,-201.5 171,-220.5 293,-220.5 293,-201.5 171,-201.5"/>
<text text-anchor="middle" x="232" y="-208.5" font-family="Helvetica,sans-Serif" font-size="10.00">src/graphics/skybox.h</text>
</a>
</g>
</g>
<!-- Node2&#45;&gt;Node7 -->
<g id="edge6" class="edge">
<title>Node2&#45;&gt;Node7</title>
<path fill="none" stroke="midnightblue" d="M262.27,-249.14C254.6,-239.74 245.37,-228.4 239.13,-220.75"/>
<polygon fill="midnightblue" stroke="midnightblue" points="259.7,-251.54 268.73,-257.08 265.13,-247.12 259.7,-251.54"/>
</g>
<!-- Node4 -->
<g id="node4" class="node">
<title>Node4</title>
<g id="a_node4"><a xlink:href="game__scene_8cpp.html" target="_top" xlink:title=" ">
<polygon fill="white" stroke="black" points="0,-0.5 0,-30.5 124,-30.5 124,-0.5 0,-0.5"/>
<text text-anchor="start" x="8" y="-18.5" font-family="Helvetica,sans-Serif" font-size="10.00">src/game/scene/game</text>
<text text-anchor="middle" x="62" y="-7.5" font-family="Helvetica,sans-Serif" font-size="10.00">_scene.cpp</text>
</a>
</g>
</g>
<!-- Node3&#45;&gt;Node4 -->
<g id="edge3" class="edge">
<title>Node3&#45;&gt;Node4</title>
<path fill="none" stroke="midnightblue" d="M258.98,-133.95C199.11,-119.82 117.05,-100.18 114,-98 90.11,-80.91 74.58,-49.1 67.15,-30.68"/>
<polygon fill="midnightblue" stroke="midnightblue" points="258.22,-137.37 268.76,-136.26 259.83,-130.55 258.22,-137.37"/>
</g>
<!-- Node5 -->
<g id="node5" class="node">
<title>Node5</title>
<g id="a_node5"><a xlink:href="asset__loader_8cpp.html" target="_top" xlink:title=" ">
<polygon fill="white" stroke="black" points="269,-67.5 269,-97.5 373,-97.5 373,-67.5 269,-67.5"/>
<text text-anchor="start" x="277" y="-85.5" font-family="Helvetica,sans-Serif" font-size="10.00">src/graphics/asset</text>
<text text-anchor="middle" x="321" y="-74.5" font-family="Helvetica,sans-Serif" font-size="10.00">_loader.cpp</text>
</a>
</g>
</g>
<!-- Node3&#45;&gt;Node5 -->
<g id="edge4" class="edge">
<title>Node3&#45;&gt;Node5</title>
<path fill="none" stroke="midnightblue" d="M321,-124.11C321,-115.15 321,-105.32 321,-97.58"/>
<polygon fill="midnightblue" stroke="midnightblue" points="317.5,-124.4 321,-134.4 324.5,-124.4 317.5,-124.4"/>
</g>
<!-- Node6 -->
<g id="node6" class="node">
<title>Node6</title>
<g id="a_node6"><a xlink:href="renderer_8cpp.html" target="_top" xlink:title=" ">
<polygon fill="white" stroke="black" points="328.5,-6 328.5,-25 467.5,-25 467.5,-6 328.5,-6"/>
<text text-anchor="middle" x="398" y="-13" font-family="Helvetica,sans-Serif" font-size="10.00">src/graphics/renderer.cpp</text>
</a>
</g>
</g>
<!-- Node3&#45;&gt;Node6 -->
<g id="edge5" class="edge">
<title>Node3&#45;&gt;Node6</title>
<path fill="none" stroke="midnightblue" d="M353.45,-128.31C364.08,-120.15 374.96,-109.84 382,-98 396.08,-74.33 398.06,-40.61 398.15,-25.02"/>
<polygon fill="midnightblue" stroke="midnightblue" points="351.11,-125.69 345.06,-134.39 355.21,-131.36 351.11,-125.69"/>
</g>
<!-- Node7&#45;&gt;Node3 -->
<g id="edge13" class="edge">
<title>Node7&#45;&gt;Node3</title>
<path fill="none" stroke="midnightblue" d="M253.33,-195.74C267.48,-186.28 285.95,-173.93 300.02,-164.52"/>
<polygon fill="midnightblue" stroke="midnightblue" points="251.12,-193.01 244.75,-201.48 255.01,-198.83 251.12,-193.01"/>
</g>
<!-- Node8 -->
<g id="node8" class="node">
<title>Node8</title>
<g id="a_node8"><a xlink:href="camera_8h.html" target="_top" xlink:title=" ">
<polygon fill="white" stroke="black" points="113.5,-140 113.5,-159 250.5,-159 250.5,-140 113.5,-140"/>
<text text-anchor="middle" x="182" y="-147" font-family="Helvetica,sans-Serif" font-size="10.00">src/component/camera.h</text>
</a>
</g>
</g>
<!-- Node7&#45;&gt;Node8 -->
<g id="edge7" class="edge">
<title>Node7&#45;&gt;Node8</title>
<path fill="none" stroke="midnightblue" d="M218.28,-193.67C208.85,-182.45 196.72,-168.02 189.15,-159.01"/>
<polygon fill="midnightblue" stroke="midnightblue" points="215.72,-196.07 224.84,-201.48 221.08,-191.57 215.72,-196.07"/>
</g>
<!-- Node8&#45;&gt;Node4 -->
<g id="edge8" class="edge">
<title>Node8&#45;&gt;Node4</title>
<path fill="none" stroke="midnightblue" d="M139.11,-136.52C118.68,-128.72 95.57,-116.47 81,-98 65.52,-78.38 62.26,-48.34 61.79,-30.73"/>
<polygon fill="midnightblue" stroke="midnightblue" points="137.98,-139.83 148.57,-139.9 140.33,-133.24 137.98,-139.83"/>
</g>
<!-- Node9 -->
<g id="node9" class="node">
<title>Node9</title>
<g id="a_node9"><a xlink:href="renderer_8h.html" target="_top" xlink:title=" ">
<polygon fill="white" stroke="black" points="123,-73 123,-92 251,-92 251,-73 123,-73"/>
<text text-anchor="middle" x="187" y="-80" font-family="Helvetica,sans-Serif" font-size="10.00">src/graphics/renderer.h</text>
</a>
</g>
</g>
<!-- Node8&#45;&gt;Node9 -->
<g id="edge9" class="edge">
<title>Node8&#45;&gt;Node9</title>
<path fill="none" stroke="midnightblue" d="M183.46,-129.54C184.41,-117.17 185.61,-101.62 186.34,-92.13"/>
<polygon fill="midnightblue" stroke="midnightblue" points="179.95,-129.49 182.67,-139.73 186.93,-130.03 179.95,-129.49"/>
</g>
<!-- Node9&#45;&gt;Node4 -->
<g id="edge11" class="edge">
<title>Node9&#45;&gt;Node4</title>
<path fill="none" stroke="midnightblue" d="M161.41,-68.19C140.39,-57.26 110.67,-41.81 89.21,-30.65"/>
<polygon fill="midnightblue" stroke="midnightblue" points="159.91,-71.36 170.4,-72.87 163.14,-65.15 159.91,-71.36"/>
</g>
<!-- Node9&#45;&gt;Node6 -->
<g id="edge12" class="edge">
<title>Node9&#45;&gt;Node6</title>
<path fill="none" stroke="midnightblue" d="M224.83,-69.85C266.62,-56.97 332.93,-36.55 370.2,-25.06"/>
<polygon fill="midnightblue" stroke="midnightblue" points="223.55,-66.58 215.02,-72.87 225.61,-73.27 223.55,-66.58"/>
</g>
<!-- Node10 -->
<g id="node10" class="node">
<title>Node10</title>
<g id="a_node10"><a xlink:href="application_8cpp.html" target="_top" xlink:title=" ">
<polygon fill="white" stroke="black" points="142.5,-6 142.5,-25 307.5,-25 307.5,-6 142.5,-6"/>
<text text-anchor="middle" x="225" y="-13" font-family="Helvetica,sans-Serif" font-size="10.00">src/application/application.cpp</text>
</a>
</g>
</g>
<!-- Node9&#45;&gt;Node10 -->
<g id="edge10" class="edge">
<title>Node9&#45;&gt;Node10</title>
<path fill="none" stroke="midnightblue" d="M197.21,-64.03C204.57,-51.45 214.18,-35.01 219.96,-25.13"/>
<polygon fill="midnightblue" stroke="midnightblue" points="194.15,-62.33 192.12,-72.73 200.19,-65.87 194.15,-62.33"/>
</g>
</g>
</svg>
