# Blender 4.1.1
# www.blender.org
o Cone
v 0.000000 -0.500000 -0.500000
v 0.097545 -0.500000 -0.490393
v 0.191342 -0.500000 -0.461940
v 0.277785 -0.500000 -0.415735
v 0.353553 -0.500000 -0.353553
v 0.415735 -0.500000 -0.277785
v 0.461940 -0.500000 -0.191342
v 0.490393 -0.500000 -0.097545
v 0.500000 -0.500000 0.000000
v 0.490393 -0.500000 0.097545
v 0.461940 -0.500000 0.191342
v 0.415735 -0.500000 0.277785
v 0.353553 -0.500000 0.353553
v 0.277785 -0.500000 0.415735
v 0.191342 -0.500000 0.461940
v 0.097545 -0.500000 0.490393
v 0.000000 -0.500000 0.500000
v -0.097545 -0.500000 0.490393
v -0.191342 -0.500000 0.461940
v -0.277785 -0.500000 0.415735
v -0.353553 -0.500000 0.353553
v -0.415735 -0.500000 0.277785
v -0.461940 -0.500000 0.191342
v -0.490393 -0.500000 0.097545
v -0.500000 -0.500000 0.000000
v -0.490393 -0.500000 -0.097545
v -0.461940 -0.500000 -0.191342
v -0.415735 -0.500000 -0.277785
v -0.353553 -0.500000 -0.353553
v -0.277785 -0.500000 -0.415735
v -0.191342 -0.500000 -0.461940
v -0.097545 -0.500000 -0.490393
v 0.000000 0.500000 0.000000
v 0.000000 -0.500000 -0.000000
vn -0.0000 -0.5033 -0.8641
vn 0.1686 -0.5033 -0.8475
vn 0.3307 -0.5033 -0.7983
vn 0.4801 -0.5033 -0.7185
vn 0.6110 -0.5033 -0.6110
vn 0.7185 -0.5033 -0.4801
vn 0.7983 -0.5033 -0.3307
vn 0.8475 -0.5033 -0.1686
vn 0.8641 -0.5033 -0.0000
vn 0.8475 -0.5033 0.1686
vn 0.7983 -0.5033 0.3307
vn 0.7185 -0.5033 0.4801
vn 0.6110 -0.5033 0.6110
vn 0.4801 -0.5033 0.7185
vn 0.3307 -0.5033 0.7983
vn 0.1686 -0.5033 0.8475
vn -0.0000 -0.5033 0.8641
vn -0.1686 -0.5033 0.8475
vn -0.3307 -0.5033 0.7983
vn -0.4801 -0.5033 0.7185
vn -0.6110 -0.5033 0.6110
vn -0.7185 -0.5033 0.4801
vn -0.7983 -0.5033 0.3307
vn -0.8475 -0.5033 0.1686
vn -0.8641 -0.5033 -0.0000
vn -0.8475 -0.5033 -0.1686
vn -0.7983 -0.5033 -0.3307
vn -0.7185 -0.5033 -0.4801
vn -0.6110 -0.5033 -0.6110
vn -0.4801 -0.5033 -0.7185
vn -0.3307 -0.5033 -0.7983
vn -0.1686 -0.5033 -0.8475
vn -0.0000 1.0000 -0.0000
vn -0.0000 -1.0000 -0.0000
vt 0.250000 0.490000
vt 0.250000 0.250000
vt 0.296822 0.485388
vt 0.341844 0.471731
vt 0.383337 0.449553
vt 0.419706 0.419706
vt 0.449553 0.383337
vt 0.471731 0.341844
vt 0.485388 0.296822
vt 0.490000 0.250000
vt 0.485388 0.203178
vt 0.471731 0.158156
vt 0.449553 0.116663
vt 0.419706 0.080294
vt 0.383337 0.050447
vt 0.341844 0.028269
vt 0.296822 0.014612
vt 0.250000 0.010000
vt 0.203178 0.014612
vt 0.158156 0.028269
vt 0.116663 0.050447
vt 0.080294 0.080294
vt 0.050447 0.116663
vt 0.028269 0.158156
vt 0.014612 0.203178
vt 0.010000 0.250000
vt 0.014612 0.296822
vt 0.028269 0.341844
vt 0.050447 0.383337
vt 0.080294 0.419706
vt 0.116663 0.449553
vt 0.158156 0.471731
vt 0.500000 0.274623
vt 0.500000 0.225377
vt 0.750000 0.250000
vt 0.203178 0.485388
vt 0.909366 0.055812
vt 0.944188 0.090634
vt 0.677078 0.009607
vt 0.725377 -0.000000
vt 0.971547 0.368419
vt 0.944188 0.409366
vt 0.677078 0.490393
vt 0.631580 0.471547
vt 0.509607 0.177078
vt 0.971547 0.131581
vt 0.774623 -0.000000
vt 0.909366 0.444188
vt 0.590634 0.444188
vt 0.528453 0.131580
vt 0.990393 0.177078
vt 0.868419 0.471547
vt 0.555812 0.409366
vt 0.555812 0.090634
vt 1.000000 0.225377
vt 0.822922 0.009607
vt 0.822922 0.490393
vt 0.528453 0.368419
vt 0.590634 0.055812
vt 1.000000 0.274623
vt 0.774623 0.500000
vt 0.509607 0.322922
vt 0.868419 0.028453
vt 0.631581 0.028453
vt 0.990393 0.322922
vt 0.725377 0.500000
s 1
f 1/1/1 33/2/33 2/3/2
f 2/3/2 33/2/33 3/4/3
f 3/4/3 33/2/33 4/5/4
f 4/5/4 33/2/33 5/6/5
f 5/6/5 33/2/33 6/7/6
f 6/7/6 33/2/33 7/8/7
f 7/8/7 33/2/33 8/9/8
f 8/9/8 33/2/33 9/10/9
f 9/10/9 33/2/33 10/11/10
f 10/11/10 33/2/33 11/12/11
f 11/12/11 33/2/33 12/13/12
f 12/13/12 33/2/33 13/14/13
f 13/14/13 33/2/33 14/15/14
f 14/15/14 33/2/33 15/16/15
f 15/16/15 33/2/33 16/17/16
f 16/17/16 33/2/33 17/18/17
f 17/18/17 33/2/33 18/19/18
f 18/19/18 33/2/33 19/20/19
f 19/20/19 33/2/33 20/21/20
f 20/21/20 33/2/33 21/22/21
f 21/22/21 33/2/33 22/23/22
f 22/23/22 33/2/33 23/24/23
f 23/24/23 33/2/33 24/25/24
f 24/25/24 33/2/33 25/26/25
f 25/26/25 33/2/33 26/27/26
f 26/27/26 33/2/33 27/28/27
f 27/28/27 33/2/33 28/29/28
f 28/29/28 33/2/33 29/30/29
f 29/30/29 33/2/33 30/31/30
f 30/31/30 33/2/33 31/32/31
f 24/33/24 25/34/25 34/35/34
f 31/32/31 33/2/33 32/36/32
f 32/36/32 33/2/33 1/1/1
f 4/37/4 5/38/5 34/35/34
f 31/39/31 32/40/32 34/35/34
f 11/41/11 12/42/12 34/35/34
f 18/43/18 19/44/19 34/35/34
f 25/34/25 26/45/26 34/35/34
f 5/38/5 6/46/6 34/35/34
f 32/40/32 1/47/1 34/35/34
f 12/42/12 13/48/13 34/35/34
f 19/44/19 20/49/20 34/35/34
f 26/45/26 27/50/27 34/35/34
f 6/46/6 7/51/7 34/35/34
f 13/48/13 14/52/14 34/35/34
f 20/49/20 21/53/21 34/35/34
f 27/50/27 28/54/28 34/35/34
f 7/51/7 8/55/8 34/35/34
f 1/47/1 2/56/2 34/35/34
f 14/52/14 15/57/15 34/35/34
f 21/53/21 22/58/22 34/35/34
f 28/54/28 29/59/29 34/35/34
f 8/55/8 9/60/9 34/35/34
f 15/57/15 16/61/16 34/35/34
f 22/58/22 23/62/23 34/35/34
f 2/56/2 3/63/3 34/35/34
f 29/59/29 30/64/30 34/35/34
f 9/60/9 10/65/10 34/35/34
f 16/61/16 17/66/17 34/35/34
f 23/62/23 24/33/24 34/35/34
f 3/63/3 4/37/4 34/35/34
f 30/64/30 31/39/31 34/35/34
f 10/65/10 11/41/11 34/35/34
f 17/66/17 18/43/18 34/35/34
